<?xml version="1.0" encoding="UTF-8"?>
<svg xmlns="http://www.w3.org/2000/svg" xmlns:xlink="http://www.w3.org/1999/xlink" version="1.1" >
<font id="Monoto-1UlCd700Bd" horiz-adv-x="298">
<font-face  font-family="Monoto 1 UlCd" units-per-em="1000" ascent="955" descent="-235" font-style="normal" font-weight="700" font-stretch="ultra-condensed" cap-height="714" x-height="553" underline-position="-75" underline-thickness="50" />
<missing-glyph horiz-adv-x="300" d="M29 0 L29 714 L242 714 L242 0 L29 0 Z M215 51 L215 663 L55 663 L55 51 L215 51 Z " />
<glyph glyph-name="uni0000" horiz-adv-x="300" />
<glyph glyph-name="uni000D" unicode="&#xd;" horiz-adv-x="300" />
<glyph glyph-name="space" unicode="&#x20;" horiz-adv-x="300" />
<glyph glyph-name="exclam" unicode="&#x21;" horiz-adv-x="300" d="M95 219 L77 714 L194 714 L178 219 L95 219 Z M138 -12 C104.667 -12 81 13.6667 81 63 C81 113.667 102 138 138 138 C168.667 138 192 113.667 192 63 C192 13.6667 166 -12 138 -12 Z " />
<glyph glyph-name="quotedbl" unicode="&#x22;" horiz-adv-x="300" >
<g transform="translate(61,0)" ><path fill="black" d="M96 456 L80 714 L191 714 L176 456 L96 456 Z " /></g><g transform="translate(-63,0)" ><path fill="black" d="M96 456 L80 714 L191 714 L176 456 L96 456 Z " /></g></glyph>
<glyph glyph-name="numbersign" unicode="&#x23;" horiz-adv-x="300" d="M34 0 L45 208 L14 208 L14 287 L54 287 L57 437 L24 437 L24 517 L68 517 L78 714 L147 714 L135 517 L157 517 L167 714 L235 714 L224 517 L254 517 L254 437 L215 437 L210 287 L246 287 L246 208 L203 208 L191 0 L123 0 L134 208 L112 208 L103 0 L34 0 Z M142 287 L147 437 L125 437 L123 287 L142 287 Z " />
<glyph glyph-name="dollar" unicode="&#x24;" horiz-adv-x="300" d="M119 -58 L119 37 C92.3333 38.3333 61 52 37 72 L37 164 C59.6667 138.667 92.3333 118.667 119 116 L119 330 C57.6667 374 33 424 33 520 C33 616 67 676.333 119 687 L119 760 L157 760 L157 688 C183 684.667 208 672 232 650 L214 574 C195.333 592.667 175.667 603 157 607 L157 399 C213 355 239 309 239 217 C239 125 209 57 157 41 L157 -58 L119 -58 Z M101 519 C101 469.667 101.667 447.667 119 421 L119 606 C101.667 599.333 101 565.667 101 519 Z M157 122 C170.333 132.667 172 167 172 211 C172 257.667 167.667 282.667 157 308 L157 122 Z " />
<glyph glyph-name="percent" unicode="&#x25;" horiz-adv-x="300" d="M2 168 L199 545 L268 545 L71 168 L2 168 Z M76 384 C33.3333 384 6 446 6 554 C6 662 32 723 76 723 C120 723 149 662 149 554 C149 446 121.333 384 76 384 Z M191 -10 C148.333 -10 122 53 122 161 C122 267.667 148.333 330 191 330 C236.333 330 264 269 264 161 C264 53 237.667 -10 191 -10 Z M193 56 C197.667 56 200 91 200 161 C200 230.333 197.667 265 193 265 C187.667 265 185 230.333 185 161 C185 91 187.667 56 193 56 Z M77 448 C83.6667 448 84 483.333 84 554 C84 623.333 83.6667 658 77 658 C72.3333 658 70 623.333 70 554 C70 483.333 72.3333 448 77 448 Z " />
<glyph glyph-name="ampersand" unicode="&#x26;" horiz-adv-x="300" d="M174 19 C155.333 0.333333 135.333 -10 110 -10 C42.2857 -10 17 68.5628 17 170 C17 259.333 47.6667 317 77 377 C59.6667 441 44 504 44 576 C44 668 73 724 125 724 C181 724 203 665.333 203 576 C203 492 179.333 429 150 373 L186 247 C191.333 281.667 193.667 318.333 195 349 L261 349 C254.333 269 245.667 183 223 115 L256 0 L179 0 L174 19 Z M104 276 C94.6667 246.667 89 215.333 89 174 C89 108.667 102.667 74 120 74 C131.333 74 141.667 83.6667 151 103 L104 276 Z M123 477 C132.333 503.667 139 536.667 139 578 C139 625.333 134.333 649 125 649 C116.333 649 112 625.333 112 578 C112 543.333 116.333 507.667 123 477 Z " />
<glyph glyph-name="quotesingle" unicode="&#x27;" horiz-adv-x="300" d="M96 456 L80 714 L191 714 L176 456 L96 456 Z " />
<glyph glyph-name="parenleft" unicode="&#x28;" horiz-adv-x="300" d="M139 -169 C96.3333 -53 71 93.3333 71 268 C71 446.667 99 599.333 139 714 L226 714 C187.333 583.333 165 435.667 165 269 C165 107.667 190.333 -38.3333 225 -169 L139 -169 Z " />
<glyph glyph-name="parenright" unicode="&#x29;" horiz-adv-x="300" d="M44 -169 C82.6667 -38.3333 105 109.333 105 276 C105 437.333 79.6667 583.333 45 714 L131 714 C173.667 598 199 451.667 199 277 C199 98.3333 171 -54.3333 131 -169 L44 -169 Z " />
<glyph glyph-name="asterisk" unicode="&#x2a;" horiz-adv-x="300" d="M82 554 L26 568 L46 666 L103 623 L89 762 L183 762 L170 623 L227 667 L247 569 L190 554 L236 443 L159 386 L137 513 L113 386 L37 443 L82 554 Z " />
<glyph glyph-name="plus" unicode="&#x2b;" horiz-adv-x="300" d="M97 117 L97 309 L34 309 L34 397 L97 397 L97 591 L178 591 L178 397 L241 397 L241 309 L178 309 L178 117 L97 117 Z " />
<glyph glyph-name="comma" unicode="&#x2c;" horiz-adv-x="300" d="M68 -134 C73.2868 -54.6981 84 53.5652 84 126 L184 126 L188 115 C178.667 24.3333 163.667 -62 149 -134 L68 -134 Z " />
<glyph glyph-name="hyphen" unicode="&#x2d;" horiz-adv-x="300" d="M69 323 L200 323 L200 218 L69 218 L69 323 Z " />
<glyph glyph-name="period" unicode="&#x2e;" horiz-adv-x="300" d="M136 -12 C102.667 -12 79 13.6667 79 63 C79 113.667 100 138 136 138 C166.667 138 190 113.667 190 63 C190 13.6667 164 -12 136 -12 Z " />
<glyph glyph-name="slash" unicode="&#x2f;" horiz-adv-x="300" d="M1 -6 L142 720 L229 720 L87 -6 L1 -6 Z " />
<glyph glyph-name="zero" unicode="0" horiz-adv-x="300" d="M135 -10 C47 -10 8 121 8 357 C8 597 48.6667 725 134 725 C218 725 262 593 262 357 C262 136.61 237.433 -10 135 -10 Z M169 358 L108 149 C112 107 120.667 86 134 86 C163.333 86 169 174.333 169 357 L169 358 Z M161 570 C155.667 609.333 146.667 629 134 629 C111.333 629 101 539.333 101 362 L161 570 Z " />
<glyph glyph-name="one" unicode="1" horiz-adv-x="300" d="M25 84 L93 96 L93 421 C93 470.333 94.3333 540 97 584 C86.3333 568 76.6667 559.333 70 542 L55 504 L4 594 L112 714 L202 714 L202 96 L261 84 L261 0 L25 0 L25 84 Z " />
<glyph glyph-name="two" unicode="2" horiz-adv-x="300" d="M19 94 L76 279 C108.139 386.13 128 443.931 128 520 C128 584 125.667 620 115 620 C96.3333 620 79.3333 592.667 58 550 L3 629 C39 693 75 724 127 724 C195 724 240 652.333 240 527 C240 429.23 212.348 356.062 183 236 L154 114 L155 108 L244 108 L244 0 L21 0 L19 94 Z " />
<glyph glyph-name="three" unicode="3" horiz-adv-x="300" d="M20 141 C48 109.667 73.3333 94 96 94 C118.667 94 126 135 126 207 C126 285.667 120.667 318 78 318 L64 318 L64 418 L79 418 C119 418 125 460 125 532 C125 589.333 124.667 621 110 621 C96 621 80.6667 604.667 64 572 L22 659 C50 702.333 84.3333 724 125 724 C198.333 724 237 656.667 237 546 C237 458 221.667 398.667 175 376 L175 373 C222.333 356.333 246 299.333 246 202 C246 72.6667 195 -10 103 -10 C80.3333 -10 54.6667 -1.33333 20 28 L20 141 Z " />
<glyph glyph-name="four" unicode="4" horiz-adv-x="300" d="M14 248 L126 716 L218 716 L218 251 L256 251 L256 155 L218 155 L218 0 L126 0 L126 155 L14 155 L14 248 Z M126 251 L126 406 C126 456.118 129 534.784 129 578 L125 578 C122.333 543.333 114.667 503.333 112 474 L92 251 L126 251 Z " />
<glyph glyph-name="five" unicode="5" horiz-adv-x="300" d="M28 140 C53.3333 112 84.3333 94 103 94 C117 94 124 137.333 124 224 C124 304 110 349 94 349 C87.3333 349 77.3333 342 68 334 L31 364 L40 714 L220 714 L220 606 L136 606 L135 441 C150.333 447.667 155.333 451 150 451 C198 451 239 371.333 239 230 C239 80.6667 198 -10 110 -10 C79.3333 -10 52 2.66667 28 28 L28 140 Z " />
<glyph glyph-name="six" unicode="6" horiz-adv-x="300" d="M117 372 C131.667 422.667 146.667 457 168 457 C217.333 457 249 374.333 249 233 C249 85 207.333 -10 138 -10 C70 -10 22 95 22 307 C22 530.108 44.0519 724 180 724 C196 724 212.667 721.333 230 716 L230 620 C216.667 627.333 203 631 189 631 C132.961 631 116.684 527.663 114 372 L117 372 Z M137 85 C143.667 85 152 133.667 152 231 C152 316.333 146.333 365 137 365 C129 365 120 312.333 120 243 C120 169.874 131.589 85 137 85 Z " />
<glyph glyph-name="seven" unicode="7" horiz-adv-x="300" d="M41 0 L135 606 L22 606 L22 714 L250 714 L250 625 L160 0 L41 0 Z " />
<glyph glyph-name="eight" unicode="8" horiz-adv-x="300" d="M133 -10 C62.3333 -10 22 56 22 184 C22 274.667 32 332.667 68 374 C40 416.667 31 472.667 31 550 C31 667.333 72 725 136 725 C198.667 725 239 667.333 239 550 C239 470 228 415.667 196 377 C236 329 248 273.667 248 187 C248 64.3333 205 -10 133 -10 Z M135 81 C151 81 155 120 155 188 C155 246.667 149.333 279.667 132 325 C116 287.667 115 246.667 115 184 C115 120 117.667 81 135 81 Z M135 428 C148.333 457.333 147 490.667 147 544 C147 604 140.333 634 135 634 C127 634 123 602.333 123 545 C123 487.667 128.333 458.667 135 428 Z " />
<glyph glyph-name="nine" unicode="9" horiz-adv-x="300" d="M39 95 C52.3333 87 65.3333 83 78 83 C131.321 83 151.35 188.277 154 342 L150 342 C135.333 290 120 258 100 258 C49.3333 258 19 338.667 19 480 C19 630.667 60 724 128 724 C197.333 724 245 617.667 245 407 C245 190.818 216.022 -10 87 -10 C71 -10 55 -7 39 -1 L39 95 Z M129 349 C139.667 349 148 399.333 148 474 C148 549.662 135.281 629 130 629 C120 629 115 580.333 115 483 C115 397.667 119.667 349 129 349 Z " />
<glyph glyph-name="colon" unicode="&#x3a;" horiz-adv-x="300" >
<g transform="translate(0,412)" ><path fill="black" d="M136 -12 C102.667 -12 79 13.6667 79 63 C79 113.667 100 138 136 138 C166.667 138 190 113.667 190 63 C190 13.6667 164 -12 136 -12 Z " /></g><path fill="black" d="M136 -12 C102.667 -12 79 13.6667 79 63 C79 113.667 100 138 136 138 C166.667 138 190 113.667 190 63 C190 13.6667 164 -12 136 -12 Z " /></glyph>
<glyph glyph-name="semicolon" unicode="&#x3b;" horiz-adv-x="300" d="M73 -134 C77.4196 -134 88.3281 52.8584 91 125 L191 125 L195 114 C184.333 24.6667 170 -62 154 -134 L73 -134 Z M138 400 C103.333 400 79 427 79 475 C79 525.667 102 551 138 551 C171.333 551 193 525.667 193 475 C193 425.667 170 400 138 400 Z " />
<glyph glyph-name="less" unicode="&#x3c;" horiz-adv-x="300" d="M18 328 L18 388 L229 589 L229 489 L133 358 L229 225 L229 125 L18 328 Z " />
<glyph glyph-name="equal" unicode="&#x3d;" horiz-adv-x="300" d="M32 293 L239 293 L239 193 L32 193 L32 293 Z M32 506 L239 506 L239 406 L32 406 L32 506 Z " />
<glyph glyph-name="greater" unicode="&#x3e;" horiz-adv-x="300" d="M30 225 L126 358 L30 489 L30 589 L241 388 L241 328 L30 125 L30 225 Z " />
<glyph glyph-name="question" unicode="&#x3f;" horiz-adv-x="300" d="M88 219 L88 251 C88 321.667 98.3333 361.333 121 412 C144.358 463.907 144 492.487 144 544 C144 598.667 138.333 626 127 626 C104.333 626 84 609.667 60 583 L27 670 C63 706 99 724 135 724 C208.333 724 242 661 242 553 C242 464.781 228.612 422.223 197 359 C172.562 310.124 170 285.983 170 241 L170 219 L88 219 Z M132 -12 C98.6667 -12 75 13.6667 75 63 C75 113.667 96 138 132 138 C162.667 138 186 113.667 186 63 C186 13.6667 160 -12 132 -12 Z " />
<glyph glyph-name="at" unicode="&#x40;" horiz-adv-x="300" d="M211 -46 C185 -72.6667 161 -86 139 -86 C44.1255 -86 5 55.4935 5 291 C5 557.589 58.3896 714 142 714 C218 714 264 584.333 264 363 C264 224.333 245.948 107 198 107 C179.333 107 168.333 131.667 159 173 L158 173 C150 133 136.667 107 122 107 C91.3333 107 70.6667 161 64 253 C66.6864 89.1315 83.3702 -18 142 -18 C161.333 -18 184.333 -3.33333 211 26 L211 -46 Z M65 347 C71.6667 456.333 105.333 523 152 523 C169.333 523 185.667 516 199 508 C189 598.667 170.333 644 143 644 C100.333 644 70.3333 537.667 65 347 Z M144 449 C146 453.667 147 456 147 456 C136.333 456 128 396 128 296 C128 217.333 132.667 174 138 174 C142 174 139.333 218.667 142 332 L144 449 Z M206 381 L203 298 C201.667 284.667 204 267.667 204 257 C204 201.667 203.333 174 202 174 C204.667 174 206 245.333 206 360 L206 381 Z " />
<glyph glyph-name="A" unicode="A" horiz-adv-x="300" d="M59 715 L209 715 L263 0 L161 0 L155 196 L117 196 L111 0 L8 0 L59 715 Z M151 296 L145 494 C143.667 534 136.333 586.667 135 624 C132.333 586.667 126.333 532.667 125 494 L119 296 L151 296 Z " />
<glyph glyph-name="B" unicode="B" horiz-adv-x="300" d="M21 0 L21 714 L127 714 C201.667 714 245 661.333 245 540 C245 453.333 226 395 202 379 L202 374 C232.667 355.333 251 305 251 209 C251 75.6667 207 0 135 0 L21 0 Z M113 96 L129 96 C154.333 96 161 136 161 212 C161 286.667 153.667 327 127 327 L113 327 L113 96 Z M113 416 L122 416 C142 416 155 450.667 155 520 C155 588 140.667 619 122 619 L113 619 L113 416 Z " />
<glyph glyph-name="C" unicode="C" horiz-adv-x="300" d="M241 23 C215 1 186.333 -10 155 -10 C61.6667 -10 13 125.667 13 351 C13 569.797 68.3377 726 160 726 C204 726 230.667 710.333 260 681 L228 587 C212 611 194 623 174 623 C136.537 623 119 511.411 119 354 C119 188.667 136.333 93 175 93 C195 93 215.667 108 241 128 L241 23 Z " />
<glyph glyph-name="D" unicode="D" horiz-adv-x="300" d="M11 0 L11 714 L140 714 C214.797 714 267 586.823 267 368 C267 132.156 204.39 0 136 0 L11 0 Z M114 105 L125 105 C147.667 105 160 196.667 160 362 C160 535.333 145.333 609 128 609 L114 609 L114 105 Z " />
<glyph glyph-name="E" unicode="E" horiz-adv-x="300" d="M258 105 L258 0 L17 0 L17 714 L258 714 L258 609 L122 609 L122 419 L249 419 L249 314 L122 314 L122 105 L258 105 Z " />
<glyph glyph-name="F" unicode="F" horiz-adv-x="300" d="M17 0 L17 714 L258 714 L258 609 L122 609 L122 392 L250 392 L250 287 L122 287 L122 0 L17 0 Z " />
<glyph glyph-name="G" unicode="G" horiz-adv-x="300" d="M162 291 L147 291 L147 393 L260 393 L260 28 C221.333 1.33333 194.333 -10 161 -10 C54.3593 -10 4 129.442 4 349 C4 581.182 70.2078 726 170 726 C214 726 242.333 709 265 681 L235 588 C212.333 614.667 199.667 623 177 623 C135.667 623 109 528.667 109 350 C109 205.922 123.052 93 147 93 C149.667 93 154 97.3333 162 104 L162 291 Z " />
<glyph glyph-name="H" unicode="H" horiz-adv-x="300" d="M11 0 L11 714 L115 714 L115 421 L157 421 L157 714 L261 714 L261 0 L157 0 L157 316 L115 316 L115 0 L11 0 Z " />
<glyph glyph-name="I" unicode="I" horiz-adv-x="300" d="M17 83 L85 96 L85 619 L17 631 L17 714 L254 714 L254 631 L188 619 L188 96 L254 83 L254 0 L17 0 L17 83 Z " />
<glyph glyph-name="J" unicode="J" horiz-adv-x="300" d="M22 115 C43.3333 99 61.3333 92 64 92 C102.667 92 138 141.333 138 248 L138 714 L241 714 L241 224 C241 87.9481 181 -10 77 -10 C55.6667 -10 37.3333 -1.33333 22 16 L22 115 Z " />
<glyph glyph-name="K" unicode="K" horiz-adv-x="300" d="M14 0 L14 714 L107 714 L107 362 C116.333 396.667 130.333 431.667 137 477 L167 714 L269 714 L199 394 L270 0 L163 0 L128 311 L107 249 L107 0 L14 0 Z " />
<glyph glyph-name="L" unicode="L" horiz-adv-x="300" d="M257 106 L257 0 L26 0 L26 714 L132 714 L132 106 L257 106 Z " />
<glyph glyph-name="M" unicode="M" horiz-adv-x="300" d="M10 0 L10 714 L124 714 L136 287 L137 287 L146 714 L259 714 L259 0 L187 0 L189 336 C189 408.556 203 575.778 203 635 L199 635 L177 194 L94 194 L73 635 L68 635 C68 584.549 82 414.882 82 334 L84 0 L10 0 Z " />
<glyph glyph-name="N" unicode="N" horiz-adv-x="300" d="M17 0 L17 714 L137 714 L182 100 L186 100 C183.333 142.669 177 233.898 177 299 L177 714 L255 714 L255 0 L136 0 L88 618 L85 618 C86.3333 543.333 94 479.667 94 405 L94 0 L17 0 Z " />
<glyph glyph-name="O" unicode="O" horiz-adv-x="300" d="M135 -9 C47.0779 -9 4 142.433 4 360 C4 594.667 38 726 134 726 C226.156 726 266 578.26 266 358 C266 139.411 222.922 -9 135 -9 Z M136 95 C160 95 161 191.333 161 358 C161 532.667 157.667 622 135 622 C112.333 622 110 527 110 359 C110 192.333 113.333 95 136 95 Z " />
<glyph glyph-name="P" unicode="P" horiz-adv-x="300" d="M21 0 L21 714 L136 714 C217.333 714 251 639.333 251 498 C251 363.022 220.537 268 130 268 L115 268 L115 0 L21 0 Z M115 362 L122 362 C151.333 362 161 401 161 493 C161 581 150 620 134 620 L115 620 L115 362 Z " />
<glyph glyph-name="Q" unicode="Q" horiz-adv-x="300" d="M158 -180 L128 -9 C44.5012 -0.919467 3 146.631 3 360 C3 594.667 37 726 133 726 C225.156 726 265 578.26 265 358 C265 215.333 247.333 104.667 210 42 L266 -180 L158 -180 Z M135 95 C159 95 160 191.333 160 358 C160 532.667 156.667 622 134 622 C111.333 622 109 527 109 359 C109 192.333 112.333 95 135 95 Z " />
<glyph glyph-name="R" unicode="R" horiz-adv-x="300" d="M23 0 L23 714 L122 714 C205.333 714 247 645.667 247 509 C247 405 235.667 344 205 312 L264 0 L164 0 L126 285 L114 285 L114 0 L23 0 Z M114 378 L118 378 C146 378 157 419 157 503 C157 585.667 145 621 121 621 L114 621 L114 378 Z " />
<glyph glyph-name="S" unicode="S" horiz-adv-x="300" d="M21 142 C53 111.333 80.6667 93 114 93 C148.719 93 148 139.359 148 190 C148 254.1 132.399 278.401 96 320 C50.4241 373.619 18 422.608 18 533 C18 658.333 64 725 144 725 C182.667 725 215 710.333 251 681 L220 584 C193.333 610.667 173.333 623 148 623 C125.333 623 123 587 123 535 C123 475.326 131.35 452.981 166 413 C224.02 349.706 252 312.199 252 197 C252 57 202 -10 118 -10 C82 -10 49.6667 3 21 29 L21 142 Z " />
<glyph glyph-name="T" unicode="T" horiz-adv-x="300" d="M84 0 L84 609 L9 609 L9 714 L262 714 L262 609 L188 609 L188 0 L84 0 Z " />
<glyph glyph-name="U" unicode="U" horiz-adv-x="300" d="M11 714 L116 714 L116 255 C116 140.333 112 94 136 94 C163.662 94 155 142.251 155 256 L155 714 L261 714 L261 247 C261 72.3333 234.333 -10 137 -10 C41 -10 11 72.3333 11 247 L11 714 Z " />
<glyph glyph-name="V" unicode="V" horiz-adv-x="300" d="M136 105 C137.333 151.667 143.333 220.667 146 274 L160 714 L266 714 L196 0 L72 0 L4 714 L107 714 L124 272 C126.667 221.333 131.333 151.667 134 105 L136 105 Z " />
<glyph glyph-name="W" unicode="W" horiz-adv-x="300" d="M8 0 L4 714 L86 714 C82 610 76 509 76 405 C76 347.111 79 185.222 79 106 L82 106 C84.6236 158.472 95 265.794 95 322 L92 543 L178 543 L179 321 C179 256.889 188.328 156.777 191 106 L194 106 C194 186.554 197.641 350.543 195 406 C191 508.667 187.667 610 181 714 L266 714 L264 0 L144 0 L143 267 C141.667 323 138 378.333 138 417 L134 417 C134 378.333 130 323 130 267 L129 0 L8 0 Z " />
<glyph glyph-name="X" unicode="X" horiz-adv-x="300" d="M5 0 L76 369 L5 714 L109 714 L134 457 L157 714 L260 714 L191 367 L267 0 L162 0 L132 280 L105 0 L5 0 Z " />
<glyph glyph-name="Y" unicode="Y" horiz-adv-x="300" d="M81 0 L81 275 L0 714 L114 714 L133 391 L154 714 L266 714 L182 275 L182 0 L81 0 Z " />
<glyph glyph-name="Z" unicode="Z" horiz-adv-x="300" d="M18 88 L141 609 L18 609 L18 714 L254 714 L254 627 L138 105 L252 105 L252 0 L18 0 L18 88 Z " />
<glyph glyph-name="bracketleft" unicode="&#x5b;" horiz-adv-x="300" d="M215 -77 L215 -164 L84 -164 L84 725 L215 725 L215 638 L177 638 L177 -77 L215 -77 Z " />
<glyph glyph-name="backslash" unicode="&#x5c;" horiz-adv-x="300" d="M158 -6 L16 720 L103 720 L244 -6 L158 -6 Z " />
<glyph glyph-name="bracketright" unicode="&#x5d;" horiz-adv-x="300" d="M51 -82 L89 -82 L89 633 L51 633 L51 720 L182 720 L182 -169 L51 -169 L51 -82 Z " />
<glyph glyph-name="asciicircum" unicode="&#x5e;" horiz-adv-x="300" d="M10 300 L106 714 L156 714 L258 300 L167 300 L131 574 L103 300 L10 300 Z " />
<glyph glyph-name="underscore" unicode="&#x5f;" horiz-adv-x="300" d="M5 -74 L264 -74 L264 -175 L5 -175 L5 -74 Z " />
<glyph glyph-name="grave" unicode="&#x60;" horiz-adv-x="300" d="M114 606 C97.8717 638.257 53.7372 716.735 43 757 L43 766 L154 766 C159.392 722.863 176.737 652.208 182 618 L182 606 L114 606 Z " />
<glyph glyph-name="a" unicode="a" horiz-adv-x="300" d="M165 76 L164 76 C141.333 18.6667 119.333 -10 98 -10 C51.3333 -10 18 48.3333 18 155 C18 275 52.3333 329.333 111 332 L160 335 L160 359 C160 428.333 141.333 454 124 454 C100 454 80 438.667 64 416 L30 506 C62 536.667 94 554 138 554 C214 554 260 494 260 370 L260 0 L182 0 L165 76 Z M160 257 L141 253 C126.333 250.333 118 222.667 118 164 C118 113.333 128.333 91 135 91 C137.667 91 160 130.333 160 213 L160 257 Z " />
<glyph glyph-name="b" unicode="b" horiz-adv-x="300" d="M14 760 L116 760 L116 572 C116 536 112.667 508 110 472 L115 472 C133.667 524 154 554 174 554 C231.152 554 263 443.745 263 273 C263 93.2338 219.307 -10 174 -10 C156.667 -10 137 14.6667 115 64 L108 64 L96 0 L14 0 L14 760 Z M138 92 C152.667 92 155 153.333 155 272 C155 392.667 148 453 134 453 C120 453 113 393.667 113 275 C113 153 121.333 92 138 92 Z " />
<glyph glyph-name="c" unicode="c" horiz-adv-x="300" d="M244 23 C218.667 0.333333 189 -10 161 -10 C87.381 -10 18 75.2771 18 269 C18 453 61 554 157 554 C193 554 227.667 543 257 519 L224 425 C205.333 443.667 191 453 167 453 C135 453 126 392 126 272 C126 146.667 148.667 92 174 92 C195.333 92 221.333 104 244 132 L244 23 Z " />
<glyph glyph-name="d" unicode="d" horiz-adv-x="300" d="M162 75 L157 75 C142.333 23 120.667 -10 102 -10 C42 -10 7 95.3333 7 270 C7 452.667 43.3333 554 102 554 C116.667 554 137.333 523.667 156 473 L160 473 C158.667 501 155 536 155 568 L155 760 L257 760 L257 0 L172 0 L162 75 Z M157 272 C157 394.667 156.667 453 138 453 C115.333 453 112 388.333 112 267 C112 149.667 118.333 92 137 92 C150.333 92 157 145.667 157 253 L157 272 Z " />
<glyph glyph-name="e" unicode="e" horiz-adv-x="300" d="M242 28 C219.333 4 191.667 -10 149 -10 C61 -10 6 88 6 268 C6 442.874 54.1558 554 138 554 C206 554 258 464 258 304 L258 237 L112 237 C114.667 137 138 90 162 90 C196.667 90 223.333 105.667 242 131 L242 28 Z M158 323 C156.667 407 147 455 135 455 C117.667 455 112 409.667 112 323 L158 323 Z " />
<glyph glyph-name="f" unicode="f" horiz-adv-x="300" d="M66 0 L66 445 L9 445 L9 514 L66 545 L66 585 C66 714.333 101.333 766 168 766 C199.333 766 230 758.667 260 744 L231 651 C216.333 660.333 203.333 665 192 665 C181.333 665 171 645.667 171 579 L171 543 L245 543 L245 445 L171 445 L171 0 L66 0 Z " />
<glyph glyph-name="g" unicode="g" horiz-adv-x="300" d="M29 -103 C63.6667 -131 97 -144 113 -144 C137 -144 153 -99.6667 153 -17 L153 6 C153 26 154 52.6667 154 70 L152 70 C130.667 12.6667 115.333 -10 102 -10 C42 -10 7 94.3333 7 269 C7 445.182 45.5628 554 99 554 C114.333 554 132.667 527.333 154 474 L160 474 L169 543 L257 543 L257 0 C257 -161.333 212 -245 120 -245 C85.3333 -245 59.6667 -233.333 29 -208 L29 -103 Z M156 272 C156 400 150.667 453 140 453 C124 453 119 388 119 268 C119 152 122.333 92 141 92 C145 92 156 137.333 156 252 L156 272 Z " />
<glyph glyph-name="h" unicode="h" horiz-adv-x="300" d="M14 0 L14 760 L118 760 L118 572 C118 537.333 116.667 504.333 110 471 L116 471 C130.667 521.667 151.333 554 174 554 C224.667 554 259 488.333 259 355 L259 0 L156 0 L156 323 C156 405.667 161 450 137 450 C113 450 118 388 118 280 L118 0 L14 0 Z " />
<glyph glyph-name="i" unicode="i" horiz-adv-x="300" >
<path fill="black" d="M20 83 L88 97 L88 445 L32 456 L32 543 L191 543 L191 97 L245 83 L245 0 L20 0 L20 83 Z " /><g transform="translate(3,635)" ><path fill="black" d="M136 -12 C102.667 -12 79 13.6667 79 63 C79 113.667 100 138 136 138 C166.667 138 190 113.667 190 63 C190 13.6667 164 -12 136 -12 Z " /></g></glyph>
<glyph glyph-name="j" unicode="j" horiz-adv-x="300" d="M16 -125 C42.6667 -135.667 70.3333 -144 81 -144 C106.333 -144 110 -113 110 -41 L110 444 L34 456 L34 543 L214 543 L214 -53 C214 -185 184 -245 96 -245 C77.3333 -245 46.6667 -238.333 16 -225 L16 -125 Z M155 622 C120.333 622 98 647.333 98 694 C98 743.333 120.333 767 155 767 C192.333 767 214 743.333 214 694 C214 647.333 192.333 622 155 622 Z " />
<glyph glyph-name="k" unicode="k" horiz-adv-x="300" d="M11 0 L11 760 L103 760 L103 425 C103 378.333 98.6667 335 96 287 L97 287 C105 311 116.667 333.333 122 360 L161 543 L269 543 L178 297 L268 0 L158 0 L113 225 L103 189 L103 0 L11 0 Z " />
<glyph glyph-name="l" unicode="l" horiz-adv-x="300" d="M20 83 L84 97 L84 667 L30 677 L30 760 L187 760 L187 97 L245 83 L245 0 L20 0 L20 83 Z " />
<glyph glyph-name="m" unicode="m" horiz-adv-x="300" d="M7 0 L7 542 L70 542 L82 485 L85 485 C95 529.667 109.667 552 129 552 C151.667 552 161 524.667 169 478 L171 478 C181.667 526 196.333 552 219 552 C261.667 552 264 498.333 264 385 L264 0 L189 0 L189 390 C189 442 191.667 466 181 466 C169 466 172 419 172 359 L172 0 L99 0 L99 388 C99 442.667 101.667 466 91 466 C79.2078 466 81 408.1 81 351 L81 0 L7 0 Z " />
<glyph glyph-name="n" unicode="n" horiz-adv-x="300" d="M14 0 L14 543 L100 543 L112 475 L116 475 C133.333 527.667 153 554 175 554 C228.333 554 259 493.667 259 355 L259 0 L156 0 L156 340 C156 420 153 456 141 456 C118.333 456 118 402.667 118 288 L118 0 L14 0 Z " />
<glyph glyph-name="o" unicode="o" horiz-adv-x="300" d="M135 -10 C43.3636 -10 7 111.333 7 274 C7 441.896 47.8225 554 133 554 C202.411 554 262 452.61 262 273 C262 111.381 231.13 -10 135 -10 Z M134 90 C147.333 90 154 151.667 154 273 C154 394.333 143.333 454 134 454 C122 454 116 393.667 116 273 C116 153 123.333 90 134 90 Z " />
<glyph glyph-name="p" unicode="p" horiz-adv-x="300" d="M14 -240 L14 543 L94 543 L109 468 L115 468 C129.667 520 149.333 554 176 554 C232.996 554 263 441.182 263 273 C263 93.2338 220.437 -10 175 -10 C155 -10 134.667 21.3333 116 64 L109 64 C111.667 45.3333 116 0.666667 116 -38 L116 -240 L14 -240 Z M116 272 C116 146.667 118.333 92 141 92 C155.667 92 155 154.333 155 273 C155 394.333 151.667 453 137 453 C123 453 116 398.667 116 290 L116 272 Z " />
<glyph glyph-name="q" unicode="q" horiz-adv-x="300" d="M155 -240 L155 -28 C155 10.6667 159.333 44.3333 162 75 L157 75 C142.333 23 121.333 -10 100 -10 C38.5887 -10 7 103.537 7 269 C7 450.307 52.9481 554 101 554 C115.667 554 136 524.333 156 471 L160 471 L171 543 L257 543 L257 -240 L155 -240 Z M158 272 C158 389.333 157.667 453 139 453 C121.667 453 118 388.667 118 270 C118 148.667 122.333 92 141 92 C157 92 158 149 158 253 L158 272 Z " />
<glyph glyph-name="r" unicode="r" horiz-adv-x="300" d="M8 83 L53 97 L53 445 L9 456 L9 543 L129 543 L138 450 L144 450 C156 511.333 180 554 216 554 C226.667 554 241.333 549.333 264 536 L236 420 C225.333 430.667 209.667 434 199 434 C168.333 434 152 369 152 273 L152 97 L210 83 L210 0 L8 0 L8 83 Z " />
<glyph glyph-name="s" unicode="s" horiz-adv-x="300" d="M25 130 C49 106 91 89 123 89 C145.667 89 146 114.333 146 149 C146 183.714 144.698 194.639 94 240 C47.3333 281.333 23 323.333 23 402 C23 500.667 65 554 145 554 C181 554 213 542.667 253 516 L221 425 C186.333 447.667 168.333 456 151 456 C132.333 456 130 435.667 130 405 C130 370.333 141.667 352.667 183 318 C239.06 269.949 252 242.039 252 154 C252 46 209 -10 117 -10 C82.3333 -10 53 1.66667 25 23 L25 130 Z " />
<glyph glyph-name="t" unicode="t" horiz-adv-x="300" d="M60 444 L-3 444 L-3 505 L67 545 L101 679 L165 679 L165 543 L266 543 L266 444 L164 444 L164 187 C164 115.052 189.437 93 200 93 C210.667 93 233.333 96.6667 264 110 L264 11 C236 -2.33333 195 -10 167 -10 C112.671 -10 60 40.5628 60 166 L60 444 Z " />
<glyph glyph-name="u" unicode="u" horiz-adv-x="300" d="M157 72 L152 72 C134.667 17.3333 113 -10 93 -10 C43.6667 -10 11 51 11 183 L11 543 L116 543 L116 213 C116 125 117.333 91 136 91 C156 91 153 146 153 266 L153 543 L257 543 L257 0 L171 0 L157 72 Z " />
<glyph glyph-name="v" unicode="v" horiz-adv-x="300" d="M136 100 C138.667 141.333 144.333 186 147 230 L167 543 L276 543 L196 0 L69 0 L-6 543 L101 543 L123 231 C125.667 185.667 132.333 141.333 135 100 L136 100 Z " />
<glyph glyph-name="w" unicode="w" horiz-adv-x="300" d="M25 0 L5 542 L83 542 L77 270 C77 221.673 76 144.562 76 108 L78 108 C78 142.234 81.2911 209.367 84 250 L97 456 L170 456 L182 250 C184.674 207.223 187.325 141.777 190 107 L192 107 C192 143.673 191 216.895 191 268 L185 542 L264 542 L242 0 L143 0 L140 187 C138.667 237.667 136.667 292.333 134 343 L132 343 C129.333 293.667 125.333 236.667 124 186 L120 0 L25 0 Z " />
<glyph glyph-name="x" unicode="x" horiz-adv-x="300" d="M-1 0 L75 277 L1 543 L109 543 L135 359 L162 543 L268 543 L194 276 L271 0 L161 0 L134 196 L105 0 L-1 0 Z " />
<glyph glyph-name="y" unicode="y" horiz-adv-x="300" d="M11 -142 C19 -146 27.6667 -148 37 -148 C59.3549 -148 92.3335 -130.662 95 -48 L96 -3 L-6 543 L108 543 L130 258 C134 211.333 138.333 172.667 141 138 L144 138 C144 171.333 149.333 216.333 152 259 L166 543 L281 543 L192 -58 C173.333 -184.667 126 -245 54 -245 C39.3333 -245 25 -242.333 11 -237 L11 -142 Z " />
<glyph glyph-name="z" unicode="z" horiz-adv-x="300" d="M17 77 L125 445 L18 445 L18 543 L244 543 L244 455 L145 100 L254 100 L254 0 L17 0 L17 77 Z " />
<glyph glyph-name="braceleft" unicode="&#x7b;" horiz-adv-x="300" d="M93 142 C93 172.667 80 196 68 212 C60.6667 221.333 52.3333 229.333 43 236 L43 320 C52.3333 326 60.6667 333.333 68 342 C81.3333 358 93 380.667 93 414 L93 559 C93 670.889 220 717.444 220 720 L220 632 C220 629.333 187 613.333 187 552 L187 405 C187 331.327 134 291.771 134 281 L134 276 C134 262.66 187 223.438 187 153 L187 5 C187 -50.9935 220 -74.4379 220 -76 L220 -164 C220 -161.556 93 -121.778 93 -2 L93 142 Z " />
<glyph glyph-name="bar" unicode="&#x7c;" horiz-adv-x="300" d="M100 -240 L100 760 L187 760 L187 -240 L100 -240 Z " />
<glyph glyph-name="braceright" unicode="&#x7d;" horiz-adv-x="300" d="M45 -76 C45 -73.3333 78 -57.3333 78 4 L78 151 C78 224.673 131 264.229 131 275 L131 280 C131 293.34 78 332.562 78 403 L78 551 C78 606.993 45 630.438 45 632 L45 720 C45 717.556 172 677.778 172 558 L172 414 C172 383.333 185 360 197 344 C204.333 334.667 212.667 326.667 222 320 L222 236 C212.667 230 204.333 222.667 197 214 C183.667 198 172 175.333 172 142 L172 -3 C172 -114.889 45 -161.444 45 -164 L45 -76 Z " />
<glyph glyph-name="asciitilde" unicode="&#x7e;" horiz-adv-x="300" d="M243 331 C224.333 297 205.333 280 186 280 C165.333 280 144.333 290 123 310 C104.333 327.333 84.3333 337 75 337 C60.3333 337 44.3333 317.333 27 278 L27 375 C42.3333 409 61 426 83 426 C101.667 426 120.667 414.667 142 396 C162.667 378 180 369 194 369 C208.667 369 228.333 391 243 427 L243 331 Z " />
<glyph glyph-name="uni00A0" unicode="&#xa0;" horiz-adv-x="300" />
<glyph glyph-name="exclamdown" unicode="&#xa1;" horiz-adv-x="300" d="M88 310 L171 310 L189 -185 L72 -185 L88 310 Z M128 391 C97.3333 391 74 415.333 74 466 C74 515.333 100 541 128 541 C161.333 541 185 515.333 185 466 C185 415.333 164 391 128 391 Z " />
<glyph glyph-name="cent" unicode="&#xa2;" horiz-adv-x="300" d="M127 -10 L127 87 C64.3333 100.333 36 200.333 36 363 C36 521.667 63.6667 627 129 643 L129 724 L181 724 L181 645 C199.667 642.333 224 632 240 616 L213 527 C198.333 544.333 179.667 553 169 553 C143.667 553 133 493.667 133 363 C133 233.667 143.333 178 170 178 C189.333 178 210 189.667 232 213 L232 119 C217.333 103 198.333 90 181 86 L181 -10 L127 -10 Z " />
<glyph glyph-name="sterling" unicode="&#xa3;" horiz-adv-x="300" d="M251 99 L251 0 L48 0 L48 94 C62.6667 120.667 68 154 68 226 L68 320 L42 320 L42 403 L68 403 L68 531 C68 657.667 110 724 178 724 C204.667 724 231.333 710.333 258 683 L231 594 C212.333 616.667 197.667 625 187 625 C180.333 625 168 595 168 519 L168 403 L223 403 L223 320 L168 320 L168 227 C168 167 161.667 125.667 139 99 L251 99 Z " />
<glyph glyph-name="currency" unicode="&#xa4;" horiz-adv-x="300" d="M17 181 L46 245 C38.6667 278.333 35 314.333 35 353 C35 391.667 39.3333 426.333 46 461 L16 527 L62 577 L90 513 C104 535.667 119 547 135 547 C151.667 547 166.333 535.667 179 513 L208 577 L255 528 L225 462 C231.667 430 236 394.333 236 353 C236 313 230.333 276 225 244 L253 179 L208 129 L179 192 C164.333 170.667 149.333 160 134 160 C115.333 160 100.333 170.667 89 192 L62 130 L17 181 Z M135 234 C160.333 234 171 286.667 171 356 C171 424 159 474 135 474 C109.667 474 99 421 99 353 C99 285 108.333 234 135 234 Z " />
<glyph glyph-name="yen" unicode="&#xa5;" horiz-adv-x="300" d="M35 195 L85 195 L85 272 L35 272 L35 346 L66 346 L16 714 L122 714 L135 410 L147 714 L254 714 L202 346 L237 346 L237 272 L186 272 L186 195 L237 195 L237 122 L186 122 L186 0 L85 0 L85 122 L35 122 L35 195 Z " />
<glyph glyph-name="brokenbar" unicode="&#xa6;" horiz-adv-x="300" d="M100 -236 L100 159 L187 159 L187 -236 L100 -236 Z M100 367 L100 759 L187 759 L187 367 L100 367 Z " />
<glyph glyph-name="section" unicode="&#xa7;" horiz-adv-x="300" d="M37 113 C57 86.3333 86.3333 67 113 67 C119.667 67 136 90 136 138 C136 180.667 130.667 202.667 108 228 C60.6754 280.583 38 314.627 38 386 C38 446 44.6667 484.333 74 511 C58 541.667 54 580.333 54 631 C54 717.667 98 766 154 766 C180.667 766 199.333 754.667 230 732 L205 657 C181 679.667 167.667 690 153 690 C142.333 690 137 670.667 137 632 C137 589.333 152.333 561 167 545 C203.703 503.053 231 469.782 231 385 C231 326.333 221 280.667 197 254 C211.667 219.333 219 184 219 140 C219 48 175 -9 111 -9 C81.6667 -9 59.6667 3.33333 37 26 L37 113 Z M150 292 C158 306.667 154 334.667 154 368 C154 410.667 153.333 436.333 120 475 C110.667 463 115 436.667 115 402 C115 356.667 127.667 336.667 141 310 L150 292 Z " />
<glyph glyph-name="dieresis" unicode="&#xa8;" horiz-adv-x="300" d="M81 621 C57 621 38 643.333 38 686 C38 727.333 57 748 81 748 C105 748 124 726 124 686 C124 643.333 105 621 81 621 Z M188 621 C164 621 145 643.333 145 686 C145 727.333 164 748 188 748 C212 748 231 726 231 686 C231 643.333 212 621 188 621 Z " />
<glyph glyph-name="copyright" unicode="&#xa9;" horiz-adv-x="300" d="M137 129 C56.9221 129 8 225.152 8 360 C8 500.39 63.1342 591 136 591 C208.996 591 263 496.026 263 360 C263 220.234 208.948 129 137 129 Z M136 178 C186.667 178 220 247 220 359 C220 472.333 181.667 541 135 541 C84.3333 541 50 472 50 360 C50 246.667 89.3333 178 136 178 Z M179 233 C165.667 221.667 152 216 138 216 C91.3333 216 71 271 71 359 C71 445.667 94.3333 502 133 502 C151 502 168.667 495.333 186 482 L167 432 C156.333 442.667 146.333 447 137 447 C129 447 122 416.667 122 358 C122 300.667 124.667 270 138 270 C152.667 270 168.333 276.333 179 287 L179 233 Z " />
<glyph glyph-name="ordfeminine" unicode="&#xaa;" horiz-adv-x="300" d="M153 430 C142.333 394 130 373 106 373 C74 373 55 412 55 476 C55 555.213 93.3172 586.332 128 589 L145 591 L144 607 C141.333 643 141.333 659 128 659 C114.667 659 100 648.667 84 634 L64 692 C88.6667 712.667 112.667 723 136 723 C185.333 723 213 681.333 213 600 L213 379 L166 379 L153 430 Z M145 538 L135 534 C127 531.333 125 518 125 482 C125 453.333 126.667 439 130 439 C139.333 439 145 470.333 145 517 L145 538 Z " />
<glyph glyph-name="guillemotleft" unicode="&#xab;" horiz-adv-x="300" >
<g transform="translate(-63,-6)" ><path fill="black" d="M138 56 L60 263 L60 277 L138 484 L210 444 L166 270 L209 97 L138 56 Z " /></g><g transform="translate(65,-6)" ><path fill="black" d="M138 56 L60 263 L60 277 L138 484 L210 444 L166 270 L209 97 L138 56 Z " /></g></glyph>
<glyph glyph-name="logicalnot" unicode="&#xac;" horiz-adv-x="300" d="M37 397 L245 397 L245 119 L165 119 L165 309 L37 309 L37 397 Z " />
<glyph glyph-name="uni00AD" unicode="&#xad;" horiz-adv-x="300" >
<g transform="translate(5,0)" ><path fill="black" d="M69 323 L200 323 L200 218 L69 218 L69 323 Z " /></g></glyph>
<glyph glyph-name="registered" unicode="&#xae;" horiz-adv-x="300" d="M136 129 C59.6883 129 10 224.645 10 359 C10 500.281 64.0519 589 136 589 C209.126 589 262 495.918 262 359 C262 220.281 207.948 129 136 129 Z M136 178 C186.667 178 219 247 219 359 C219 469.667 182 539 134 539 C84.6667 539 53 469.667 53 359 C53 245.667 90.6667 178 136 178 Z M80 495 L123 495 C165.667 495 180 467.333 180 414 C180 374 173.667 350.333 163 337 L195 227 L147 227 L126 326 L123 326 L123 227 L80 227 L80 495 Z M124 370 C132.667 372 137 386 137 412 C137 434.667 132.667 447 124 449 L124 370 Z " />
<glyph glyph-name="macron" unicode="&#xaf;" horiz-adv-x="300" d="M52 715 L206 715 L206 636 L52 636 L52 715 Z " />
<glyph glyph-name="degree" unicode="&#xb0;" horiz-adv-x="300" d="M134 442 C88.6667 442 56 495.333 56 582 C56 670 91 724 135 724 C179 724 214 669 214 581 C214 494.333 176.667 442 134 442 Z M135 506 C145.667 506 157 535.333 157 582 C157 628.667 145.667 658 135 658 C120.333 658 113 628.667 113 582 C113 535.333 121.667 506 135 506 Z " />
<glyph glyph-name="plusminus" unicode="&#xb1;" horiz-adv-x="300" d="M97 149 L97 341 L34 341 L34 429 L97 429 L97 623 L178 623 L178 429 L241 429 L241 341 L178 341 L178 149 L97 149 Z M34 89 L244 89 L244 0 L34 0 L34 89 Z " />
<glyph glyph-name="twosuperior" unicode="&#xb2;" horiz-adv-x="300" d="M68 486 L110 590 C137.192 657.98 142 688.219 142 731 C142 761.667 136.667 782 130 782 C118 782 106.333 767.667 95 739 L62 795 C72.6667 828.333 101 854 141 854 C187.667 854 216 809 216 737 C216 666.076 158.089 629.161 150 524 L147 487 L220 487 L220 415 L69 415 L68 486 Z " />
<glyph glyph-name="threesuperior" unicode="&#xb3;" horiz-adv-x="300" d="M71 515 C88.3333 493 108.333 482 131 482 C149.667 482 151 504.333 151 539 C151 580.333 141.667 601 123 601 L104 601 L104 667 L118 667 C138 667 147 690.667 147 728 C147 763.333 141 781 129 781 C118.333 781 110.333 771.667 97 745 L65 802 C89 836.667 112 853 140 853 C182.667 853 214 813.333 214 744 C214 697.333 203.667 660.667 177 642 L177 638 C203.667 623.333 221 589.333 221 532 C221 452 183.333 407 134 407 C112 407 91 416.333 71 435 L71 515 Z " />
<glyph glyph-name="acute" unicode="&#xb4;" horiz-adv-x="300" d="M76 606 L76 618 C90.6667 672.667 96.3333 720.667 103 766 L215 766 L215 757 C204.238 716.643 165.5 646.312 144 606 L76 606 Z " />
<glyph glyph-name="mu" unicode="&#xb5;" horiz-adv-x="300" d="M11 227 L17 227 L17 543 L122 543 L122 213 C122 125 123.333 91 142 91 C162 91 159 146 159 266 L159 543 L263 543 L263 0 L177 0 L163 72 L158 72 C145.333 30.6667 130.333 4.66667 113 -6 L113 -240 L11 -240 L11 227 Z " />
<glyph glyph-name="paragraph" unicode="&#xb6;" horiz-adv-x="300" d="M119 -127 L119 277 C114.333 271 107.333 268 98 268 C48.6667 268 24 349 24 511 C24 676.333 48 760 108 760 L239 760 L239 -127 L185 -127 L185 697 L173 697 L173 -127 L119 -127 Z " />
<glyph glyph-name="periodcentered" unicode="&#xb7;" horiz-adv-x="300" >
<g transform="translate(5,273)" ><path fill="black" d="M136 -12 C102.667 -12 79 13.6667 79 63 C79 113.667 100 138 136 138 C166.667 138 190 113.667 190 63 C190 13.6667 164 -12 136 -12 Z " /></g></glyph>
<glyph glyph-name="cedilla" unicode="&#xb8;" horiz-adv-x="300" d="M80 -168 C89.3333 -172 97 -174 103 -174 C115 -174 117 -157.333 117 -132 C117 -100 106 -86.3333 90 -81 L105 0 L153 0 L150 -44 C177.333 -56 191 -87.3333 191 -138 C191 -202 168 -240 120 -240 C105.333 -240 90.6667 -238.333 80 -233 L80 -168 Z " />
<glyph glyph-name="onesuperior" unicode="&#xb9;" horiz-adv-x="300" d="M69 474 L117 479 L117 648 C117 681.333 116.333 720.333 119 755 C113.667 745.667 104.667 734.667 102 728 L86 693 L50 751 L125 843 L185 843 L185 479 L228 474 L228 415 L69 415 L69 474 Z " />
<glyph glyph-name="ordmasculine" unicode="&#xba;" horiz-adv-x="300" d="M138 373 C87.3333 373 55 440 55 548 C55 657.333 86.3333 722 137 722 C183.667 722 219 661.333 219 548 C219 438.667 188.667 373 138 373 Z M138 441 C148.667 441 149 474.667 149 548 C149 622.667 146.333 655 137 655 C127.667 655 126 624 126 548 C126 476.667 130 441 138 441 Z " />
<glyph glyph-name="guillemotright" unicode="&#xbb;" horiz-adv-x="300" >
<g transform="translate(43,-24)" ><path fill="black" d="M122 289 L79 462 L150 503 L228 296 L228 282 L150 75 L78 115 L122 289 Z " /></g><g transform="translate(-84,-24)" ><path fill="black" d="M122 289 L79 462 L150 503 L228 296 L228 282 L150 75 L78 115 L122 289 Z " /></g></glyph>
<glyph glyph-name="onequarter" unicode="&#xbc;" horiz-adv-x="300" d="M65 524 L113 529 L113 698 C113 731.333 112.333 770.333 115 805 C109.667 795.667 100.667 784.667 98 778 L82 743 L46 801 L121 893 L181 893 L181 529 L224 524 L224 465 L65 465 L65 524 Z M127 -77 L45 -77 L45 -14 L116 269 L198 269 L198 -10 L222 -10 L222 -77 L198 -77 L198 -161 L127 -161 L127 -77 Z M7 370 L258 425 L258 367 L7 312 L7 370 Z M127 -10 L127 100 C127 130.667 127.667 148.333 129 175 C125 155 114.333 134.667 113 116 L102 -10 L127 -10 Z " />
<glyph glyph-name="onehalf" unicode="&#xbd;" horiz-adv-x="300" >
<g transform="translate(-4,50)" ><path fill="black" d="M69 474 L117 479 L117 648 C117 681.333 116.333 720.333 119 755 C113.667 745.667 104.667 734.667 102 728 L86 693 L50 751 L125 843 L185 843 L185 479 L228 474 L228 415 L69 415 L69 474 Z " /></g><g transform="translate(-6,-576)" ><path fill="black" d="M68 486 L110 590 C137.192 657.98 142 688.219 142 731 C142 761.667 136.667 782 130 782 C118 782 106.333 767.667 95 739 L62 795 C72.6667 828.333 101 854 141 854 C187.667 854 216 809 216 737 C216 666.076 158.089 629.161 150 524 L147 487 L220 487 L220 415 L69 415 L68 486 Z " /></g><path fill="black" d="M7 370 L258 425 L258 367 L7 312 L7 370 Z " /></glyph>
<glyph glyph-name="threequarters" unicode="&#xbe;" horiz-adv-x="300" >
<g transform="translate(-5,-576)" ><path fill="black" d="M50 562 L121 845 L203 845 L203 566 L227 566 L227 499 L203 499 L203 415 L132 415 L132 499 L50 499 L50 562 Z M132 566 L132 676 C132 706.667 132.667 724.333 134 751 C130 731 119.333 710.667 118 692 L107 566 L132 566 Z " /></g><g transform="translate(-8,50)" ><path fill="black" d="M71 515 C88.3333 493 108.333 482 131 482 C149.667 482 151 504.333 151 539 C151 580.333 141.667 601 123 601 L104 601 L104 667 L118 667 C138 667 147 690.667 147 728 C147 763.333 141 781 129 781 C118.333 781 110.333 771.667 97 745 L65 802 C89 836.667 112 853 140 853 C182.667 853 214 813.333 214 744 C214 697.333 203.667 660.667 177 642 L177 638 C203.667 623.333 221 589.333 221 532 C221 452 183.333 407 134 407 C112 407 91 416.333 71 435 L71 515 Z " /></g><path fill="black" d="M7 370 L258 425 L258 367 L7 312 L7 370 Z " /></glyph>
<glyph glyph-name="questiondown" unicode="&#xbf;" horiz-adv-x="300" d="M239 -141 C203 -177 167 -195 131 -195 C57.6667 -195 24 -132 24 -24 C24 64.2186 37.3884 106.777 69 170 C93.4381 218.876 96 243.017 96 288 L96 310 L178 310 L178 278 C178 207.333 167.667 167.667 145 117 C120.995 66.3234 122 36.4016 122 -15 C122 -69.6667 127.667 -97 139 -97 C161.667 -97 182 -80.6667 206 -54 L239 -141 Z M135 391 C104.333 391 81 415.333 81 466 C81 515.333 107 541 135 541 C168.333 541 192 515.333 192 466 C192 415.333 171 391 135 391 Z " />
<glyph glyph-name="Agrave" unicode="&#xc0;" horiz-adv-x="300" d="M59 715 L209 715 L263 0 L161 0 L155 196 L117 196 L111 0 L8 0 L59 715 Z M190 778 L122 778 C105.872 810.257 61.7372 888.735 51 929 L51 938 L162 938 C167.392 894.863 184.737 824.208 190 790 L190 778 Z M151 296 L145 494 C143.667 534 136.333 586.667 135 624 C132.333 586.667 126.333 532.667 125 494 L119 296 L151 296 Z " />
<glyph glyph-name="Aacute" unicode="&#xc1;" horiz-adv-x="300" d="M59 715 L209 715 L263 0 L161 0 L155 196 L117 196 L111 0 L8 0 L59 715 Z M88 790 C102.667 844.667 108.333 892.667 115 938 L227 938 L227 929 C216.238 888.643 177.5 818.312 156 778 L88 778 L88 790 Z M151 296 L145 494 C143.667 534 136.333 586.667 135 624 C132.333 586.667 126.333 532.667 125 494 L119 296 L151 296 Z " />
<glyph glyph-name="Acircumflex" unicode="&#xc2;" horiz-adv-x="300" d="M59 715 L209 715 L263 0 L161 0 L155 196 L117 196 L111 0 L8 0 L59 715 Z M42 790 C60.6926 832.726 79.9885 897.943 88 938 L181 938 C191.667 894 203.333 836.667 226 790 L226 778 L168 778 C160 802 149.667 831.333 135 866 C116.333 831.333 108.667 799.333 102 778 L42 778 L42 790 Z M151 296 L145 494 C143.667 534 136.333 586.667 135 624 C132.333 586.667 126.333 532.667 125 494 L119 296 L151 296 Z " />
<glyph glyph-name="Atilde" unicode="&#xc3;" horiz-adv-x="300" >
<path fill="black" d="M59 715 L209 715 L263 0 L161 0 L155 196 L117 196 L111 0 L8 0 L59 715 Z M151 296 L145 494 C143.667 534 136.333 586.667 135 624 C132.333 586.667 126.333 532.667 125 494 L119 296 L151 296 Z " /><g transform="translate(-1,172)" ><path fill="black" d="M47 610 C47 672.9 51.2035 747 94 747 C121 747 144 693 163 693 C172.333 693 169 712 173 748 L223 748 C220.333 656 201.667 611 175 611 C149.458 611 119.68 666 107 666 C100.333 666 99.6667 648.667 97 610 L47 610 Z " /></g></glyph>
<glyph glyph-name="Adieresis" unicode="&#xc4;" horiz-adv-x="300" >
<g transform="translate(1,158)" ><path fill="black" d="M81 621 C57 621 38 643.333 38 686 C38 727.333 57 748 81 748 C105 748 124 726 124 686 C124 643.333 105 621 81 621 Z M188 621 C164 621 145 643.333 145 686 C145 727.333 164 748 188 748 C212 748 231 726 231 686 C231 643.333 212 621 188 621 Z " /></g><path fill="black" d="M59 715 L209 715 L263 0 L161 0 L155 196 L117 196 L111 0 L8 0 L59 715 Z M151 296 L145 494 C143.667 534 136.333 586.667 135 624 C132.333 586.667 126.333 532.667 125 494 L119 296 L151 296 Z " /></glyph>
<glyph glyph-name="Aring" unicode="&#xc5;" horiz-adv-x="300" >
<path fill="black" d="M59 715 L209 715 L263 0 L161 0 L155 196 L117 196 L111 0 L8 0 L59 715 Z M151 296 L145 494 C143.667 534 136.333 586.667 135 624 C132.333 586.667 126.333 532.667 125 494 L119 296 L151 296 Z " /><g transform="translate(1,172)" ><path fill="black" d="M135 602 C87 602 61 649 61 717 C61 782.333 88.3333 829 135 829 C179 829 207 783.667 207 717 C207 649 181.667 602 135 602 Z M135 665 C145.667 665 153 685 153 717 C153 746.333 147 767 135 767 C124.333 767 116 747.667 116 717 C116 685 124.333 665 135 665 Z " /></g></glyph>
<glyph glyph-name="AE" unicode="&#xc6;" horiz-adv-x="300" d="M58 714 L258 714 L258 608 L219 608 L219 424 L248 424 L248 318 L219 318 L219 106 L258 106 L258 0 L133 0 L133 194 L110 194 L102 0 L8 0 L58 714 Z M133 297 L133 613 L128 613 L115 297 L133 297 Z " />
<glyph glyph-name="Ccedilla" unicode="&#xc7;" horiz-adv-x="300" d="M117 -168 C126.333 -172 134 -174 140 -174 C152 -174 154 -157.333 154 -132 C154 -100 143 -86.3333 127 -81 L140 -9 C56 5.66667 13 136.333 13 351 C13 569.797 68.3377 726 160 726 C204 726 230.667 710.333 260 681 L228 587 C212 611 194 623 174 623 C136.537 623 119 511.411 119 354 C119 188.667 136.333 93 175 93 C195 93 215.667 108 241 128 L241 23 C224.333 9.66667 207.333 0.333333 190 -5 L187 -44 C214.333 -56 228 -87.3333 228 -138 C228 -202 205 -240 157 -240 C142.333 -240 127.667 -238.333 117 -233 L117 -168 Z " />
<glyph glyph-name="Egrave" unicode="&#xc8;" horiz-adv-x="300" >
<path fill="black" d="M258 105 L258 0 L17 0 L17 714 L258 714 L258 609 L122 609 L122 419 L249 419 L249 314 L122 314 L122 105 L258 105 Z " /><g transform="translate(11,171)" ><path fill="black" d="M114 606 C97.8717 638.257 53.7372 716.735 43 757 L43 766 L154 766 C159.392 722.863 176.737 652.208 182 618 L182 606 L114 606 Z " /></g></glyph>
<glyph glyph-name="Eacute" unicode="&#xc9;" horiz-adv-x="300" >
<path fill="black" d="M258 105 L258 0 L17 0 L17 714 L258 714 L258 609 L122 609 L122 419 L249 419 L249 314 L122 314 L122 105 L258 105 Z " /><g transform="translate(15,171)" ><path fill="black" d="M76 606 L76 618 C90.6667 672.667 96.3333 720.667 103 766 L215 766 L215 757 C204.238 716.643 165.5 646.312 144 606 L76 606 Z " /></g></glyph>
<glyph glyph-name="Ecircumflex" unicode="&#xca;" horiz-adv-x="300" >
<path fill="black" d="M258 105 L258 0 L17 0 L17 714 L258 714 L258 609 L122 609 L122 419 L249 419 L249 314 L122 314 L122 105 L258 105 Z " /><g transform="translate(3,171)" ><path fill="black" d="M42 606 L42 618 C60.6926 660.726 79.9885 725.943 88 766 L181 766 C191.667 722 203.333 664.667 226 618 L226 606 L168 606 C160 630 149.667 659.333 135 694 C116.333 659.333 108.667 627.333 102 606 L42 606 Z " /></g></glyph>
<glyph glyph-name="Edieresis" unicode="&#xcb;" horiz-adv-x="300" >
<g transform="translate(4,157)" ><path fill="black" d="M81 621 C57 621 38 643.333 38 686 C38 727.333 57 748 81 748 C105 748 124 726 124 686 C124 643.333 105 621 81 621 Z M188 621 C164 621 145 643.333 145 686 C145 727.333 164 748 188 748 C212 748 231 726 231 686 C231 643.333 212 621 188 621 Z " /></g><path fill="black" d="M258 105 L258 0 L17 0 L17 714 L258 714 L258 609 L122 609 L122 419 L249 419 L249 314 L122 314 L122 105 L258 105 Z " /></glyph>
<glyph glyph-name="Igrave" unicode="&#xcc;" horiz-adv-x="300" >
<path fill="black" d="M17 83 L85 96 L85 619 L17 631 L17 714 L254 714 L254 631 L188 619 L188 96 L254 83 L254 0 L17 0 L17 83 Z " /><g transform="translate(8,171)" ><path fill="black" d="M114 606 C97.8717 638.257 53.7372 716.735 43 757 L43 766 L154 766 C159.392 722.863 176.737 652.208 182 618 L182 606 L114 606 Z " /></g></glyph>
<glyph glyph-name="Iacute" unicode="&#xcd;" horiz-adv-x="300" >
<path fill="black" d="M17 83 L85 96 L85 619 L17 631 L17 714 L254 714 L254 631 L188 619 L188 96 L254 83 L254 0 L17 0 L17 83 Z " /><g transform="translate(12,171)" ><path fill="black" d="M76 606 L76 618 C90.6667 672.667 96.3333 720.667 103 766 L215 766 L215 757 C204.238 716.643 165.5 646.312 144 606 L76 606 Z " /></g></glyph>
<glyph glyph-name="Icircumflex" unicode="&#xce;" horiz-adv-x="300" >
<path fill="black" d="M17 83 L85 96 L85 619 L17 631 L17 714 L254 714 L254 631 L188 619 L188 96 L254 83 L254 0 L17 0 L17 83 Z " /><g transform="translate(0,171)" ><path fill="black" d="M42 606 L42 618 C60.6926 660.726 79.9885 725.943 88 766 L181 766 C191.667 722 203.333 664.667 226 618 L226 606 L168 606 C160 630 149.667 659.333 135 694 C116.333 659.333 108.667 627.333 102 606 L42 606 Z " /></g></glyph>
<glyph glyph-name="Idieresis" unicode="&#xcf;" horiz-adv-x="300" >
<g transform="translate(1,157)" ><path fill="black" d="M81 621 C57 621 38 643.333 38 686 C38 727.333 57 748 81 748 C105 748 124 726 124 686 C124 643.333 105 621 81 621 Z M188 621 C164 621 145 643.333 145 686 C145 727.333 164 748 188 748 C212 748 231 726 231 686 C231 643.333 212 621 188 621 Z " /></g><path fill="black" d="M17 83 L85 96 L85 619 L17 631 L17 714 L254 714 L254 631 L188 619 L188 96 L254 83 L254 0 L17 0 L17 83 Z " /></glyph>
<glyph glyph-name="Eth" unicode="&#xd0;" horiz-adv-x="300" d="M21 319 L5 319 L5 408 L21 408 L21 714 L150 714 C224.797 714 277 586.823 277 368 C277 132.156 214.39 0 146 0 L21 0 L21 319 Z M135 105 C157.667 105 170 196.667 170 362 C170 535.333 155.333 609 138 609 L124 609 L124 408 L146 408 L146 319 L124 319 L124 105 L135 105 Z " />
<glyph glyph-name="Ntilde" unicode="&#xd1;" horiz-adv-x="300" >
<path fill="black" d="M17 0 L17 714 L137 714 L182 100 L186 100 C183.333 142.669 177 233.898 177 299 L177 714 L255 714 L255 0 L136 0 L88 618 L85 618 C86.3333 543.333 94 479.667 94 405 L94 0 L17 0 Z " /><g transform="translate(2,171)" ><path fill="black" d="M47 610 C47 672.9 51.2035 747 94 747 C121 747 144 693 163 693 C172.333 693 169 712 173 748 L223 748 C220.333 656 201.667 611 175 611 C149.458 611 119.68 666 107 666 C100.333 666 99.6667 648.667 97 610 L47 610 Z " /></g></glyph>
<glyph glyph-name="Ograve" unicode="&#xd2;" horiz-adv-x="300" >
<path fill="black" d="M135 -9 C47.0779 -9 4 142.433 4 360 C4 594.667 38 726 134 726 C226.156 726 266 578.26 266 358 C266 139.411 222.922 -9 135 -9 Z M136 95 C160 95 161 191.333 161 358 C161 532.667 157.667 622 135 622 C112.333 622 110 527 110 359 C110 192.333 113.333 95 136 95 Z " /><g transform="translate(8,171)" ><path fill="black" d="M114 606 C97.8717 638.257 53.7372 716.735 43 757 L43 766 L154 766 C159.392 722.863 176.737 652.208 182 618 L182 606 L114 606 Z " /></g></glyph>
<glyph glyph-name="Oacute" unicode="&#xd3;" horiz-adv-x="300" >
<path fill="black" d="M135 -9 C47.0779 -9 4 142.433 4 360 C4 594.667 38 726 134 726 C226.156 726 266 578.26 266 358 C266 139.411 222.922 -9 135 -9 Z M136 95 C160 95 161 191.333 161 358 C161 532.667 157.667 622 135 622 C112.333 622 110 527 110 359 C110 192.333 113.333 95 136 95 Z " /><g transform="translate(12,171)" ><path fill="black" d="M76 606 L76 618 C90.6667 672.667 96.3333 720.667 103 766 L215 766 L215 757 C204.238 716.643 165.5 646.312 144 606 L76 606 Z " /></g></glyph>
<glyph glyph-name="Ocircumflex" unicode="&#xd4;" horiz-adv-x="300" >
<path fill="black" d="M135 -9 C47.0779 -9 4 142.433 4 360 C4 594.667 38 726 134 726 C226.156 726 266 578.26 266 358 C266 139.411 222.922 -9 135 -9 Z M136 95 C160 95 161 191.333 161 358 C161 532.667 157.667 622 135 622 C112.333 622 110 527 110 359 C110 192.333 113.333 95 136 95 Z " /><g transform="translate(0,171)" ><path fill="black" d="M42 606 L42 618 C60.6926 660.726 79.9885 725.943 88 766 L181 766 C191.667 722 203.333 664.667 226 618 L226 606 L168 606 C160 630 149.667 659.333 135 694 C116.333 659.333 108.667 627.333 102 606 L42 606 Z " /></g></glyph>
<glyph glyph-name="Otilde" unicode="&#xd5;" horiz-adv-x="300" >
<path fill="black" d="M135 -9 C47.0779 -9 4 142.433 4 360 C4 594.667 38 726 134 726 C226.156 726 266 578.26 266 358 C266 139.411 222.922 -9 135 -9 Z M136 95 C160 95 161 191.333 161 358 C161 532.667 157.667 622 135 622 C112.333 622 110 527 110 359 C110 192.333 113.333 95 136 95 Z " /><g transform="translate(-1,171)" ><path fill="black" d="M47 610 C47 672.9 51.2035 747 94 747 C121 747 144 693 163 693 C172.333 693 169 712 173 748 L223 748 C220.333 656 201.667 611 175 611 C149.458 611 119.68 666 107 666 C100.333 666 99.6667 648.667 97 610 L47 610 Z " /></g></glyph>
<glyph glyph-name="Odieresis" unicode="&#xd6;" horiz-adv-x="300" >
<g transform="translate(1,157)" ><path fill="black" d="M81 621 C57 621 38 643.333 38 686 C38 727.333 57 748 81 748 C105 748 124 726 124 686 C124 643.333 105 621 81 621 Z M188 621 C164 621 145 643.333 145 686 C145 727.333 164 748 188 748 C212 748 231 726 231 686 C231 643.333 212 621 188 621 Z " /></g><path fill="black" d="M135 -9 C47.0779 -9 4 142.433 4 360 C4 594.667 38 726 134 726 C226.156 726 266 578.26 266 358 C266 139.411 222.922 -9 135 -9 Z M136 95 C160 95 161 191.333 161 358 C161 532.667 157.667 622 135 622 C112.333 622 110 527 110 359 C110 192.333 113.333 95 136 95 Z " /></glyph>
<glyph glyph-name="multiply" unicode="&#xd7;" horiz-adv-x="300" d="M33 221 L83 353 L32 485 L85 547 L138 416 L191 548 L247 488 L195 353 L245 220 L190 160 L138 291 L85 159 L33 221 Z " />
<glyph glyph-name="Oslash" unicode="&#xd8;" horiz-adv-x="300" d="M40 99 C18.6667 163 9 253.333 9 360 C9 594.667 43 726 139 726 C162.333 726 182.333 717 199 699 L214 755 L266 722 L240 624 C261.333 558.667 271 467.333 271 358 C271 139.411 227.922 -9 140 -9 C118 -9 98 1 80 21 L63 -42 L11 -10 L40 99 Z M119 169 C123 119.667 130.333 95 141 95 C163.667 95 166 186 166 346 L119 169 Z M161 557 C157.667 600.333 150.667 622 140 622 C118.667 622 115 535.333 115 382 L161 557 Z " />
<glyph glyph-name="Ugrave" unicode="&#xd9;" horiz-adv-x="300" >
<path fill="black" d="M11 714 L116 714 L116 255 C116 140.333 112 94 136 94 C163.662 94 155 142.251 155 256 L155 714 L261 714 L261 247 C261 72.3333 234.333 -10 137 -10 C41 -10 11 72.3333 11 247 L11 714 Z " /><g transform="translate(9,171)" ><path fill="black" d="M114 606 C97.8717 638.257 53.7372 716.735 43 757 L43 766 L154 766 C159.392 722.863 176.737 652.208 182 618 L182 606 L114 606 Z " /></g></glyph>
<glyph glyph-name="Uacute" unicode="&#xda;" horiz-adv-x="300" >
<path fill="black" d="M11 714 L116 714 L116 255 C116 140.333 112 94 136 94 C163.662 94 155 142.251 155 256 L155 714 L261 714 L261 247 C261 72.3333 234.333 -10 137 -10 C41 -10 11 72.3333 11 247 L11 714 Z " /><g transform="translate(13,171)" ><path fill="black" d="M76 606 L76 618 C90.6667 672.667 96.3333 720.667 103 766 L215 766 L215 757 C204.238 716.643 165.5 646.312 144 606 L76 606 Z " /></g></glyph>
<glyph glyph-name="Ucircumflex" unicode="&#xdb;" horiz-adv-x="300" >
<path fill="black" d="M11 714 L116 714 L116 255 C116 140.333 112 94 136 94 C163.662 94 155 142.251 155 256 L155 714 L261 714 L261 247 C261 72.3333 234.333 -10 137 -10 C41 -10 11 72.3333 11 247 L11 714 Z " /><g transform="translate(1,171)" ><path fill="black" d="M42 606 L42 618 C60.6926 660.726 79.9885 725.943 88 766 L181 766 C191.667 722 203.333 664.667 226 618 L226 606 L168 606 C160 630 149.667 659.333 135 694 C116.333 659.333 108.667 627.333 102 606 L42 606 Z " /></g></glyph>
<glyph glyph-name="Udieresis" unicode="&#xdc;" horiz-adv-x="300" >
<g transform="translate(2,157)" ><path fill="black" d="M81 621 C57 621 38 643.333 38 686 C38 727.333 57 748 81 748 C105 748 124 726 124 686 C124 643.333 105 621 81 621 Z M188 621 C164 621 145 643.333 145 686 C145 727.333 164 748 188 748 C212 748 231 726 231 686 C231 643.333 212 621 188 621 Z " /></g><path fill="black" d="M11 714 L116 714 L116 255 C116 140.333 112 94 136 94 C163.662 94 155 142.251 155 256 L155 714 L261 714 L261 247 C261 72.3333 234.333 -10 137 -10 C41 -10 11 72.3333 11 247 L11 714 Z " /></glyph>
<glyph glyph-name="Yacute" unicode="&#xdd;" horiz-adv-x="300" >
<path fill="black" d="M81 0 L81 275 L0 714 L114 714 L133 391 L154 714 L266 714 L182 275 L182 0 L81 0 Z " /><g transform="translate(11,171)" ><path fill="black" d="M76 606 L76 618 C90.6667 672.667 96.3333 720.667 103 766 L215 766 L215 757 C204.238 716.643 165.5 646.312 144 606 L76 606 Z " /></g></glyph>
<glyph glyph-name="Thorn" unicode="&#xde;" horiz-adv-x="300" d="M17 0 L17 714 L121 714 L121 594 L136 594 C220 594 252 517.333 252 376 C252 240.866 222.926 144 128 144 L121 144 L121 0 L17 0 Z M121 243 C145 243 152 280.667 152 370 C152 456.667 144 494 136 494 L121 494 L121 243 Z " />
<glyph glyph-name="germandbls" unicode="&#xdf;" horiz-adv-x="300" d="M7 567 C7 688.333 51.6667 765 125 765 C189 765 238 707 238 603 C238 495.673 219 470.229 219 404 C219 378.667 214.667 360 228 320 C243.647 270.45 259 234.266 259 157 C259 49 225 -10 169 -10 C151.667 -10 134.667 -0.666667 118 18 L118 121 C132.667 98.3333 140.333 86 155 86 C157.667 86 159 109.333 159 156 C159 189.333 162.667 209.333 148 252 C134.667 292 119 327.667 119 397 C119 495.993 138 511.771 138 599 C138 644.333 133.667 673 119 673 C107 673 106 631 106 547 L106 0 L7 0 L7 567 Z " />
<glyph glyph-name="agrave" unicode="&#xe0;" horiz-adv-x="300" >
<path fill="black" d="M165 76 L164 76 C141.333 18.6667 119.333 -10 98 -10 C51.3333 -10 18 48.3333 18 155 C18 275 52.3333 329.333 111 332 L160 335 L160 359 C160 428.333 141.333 454 124 454 C100 454 80 438.667 64 416 L30 506 C62 536.667 94 554 138 554 C214 554 260 494 260 370 L260 0 L182 0 L165 76 Z M160 257 L141 253 C126.333 250.333 118 222.667 118 164 C118 113.333 128.333 91 135 91 C137.667 91 160 130.333 160 213 L160 257 Z " /><g transform="translate(20,0)" ><path fill="black" d="M114 606 C97.8717 638.257 53.7372 716.735 43 757 L43 766 L154 766 C159.392 722.863 176.737 652.208 182 618 L182 606 L114 606 Z " /></g></glyph>
<glyph glyph-name="aacute" unicode="&#xe1;" horiz-adv-x="300" >
<path fill="black" d="M165 76 L164 76 C141.333 18.6667 119.333 -10 98 -10 C51.3333 -10 18 48.3333 18 155 C18 275 52.3333 329.333 111 332 L160 335 L160 359 C160 428.333 141.333 454 124 454 C100 454 80 438.667 64 416 L30 506 C62 536.667 94 554 138 554 C214 554 260 494 260 370 L260 0 L182 0 L165 76 Z M160 257 L141 253 C126.333 250.333 118 222.667 118 164 C118 113.333 128.333 91 135 91 C137.667 91 160 130.333 160 213 L160 257 Z " /><g transform="translate(24,0)" ><path fill="black" d="M76 606 L76 618 C90.6667 672.667 96.3333 720.667 103 766 L215 766 L215 757 C204.238 716.643 165.5 646.312 144 606 L76 606 Z " /></g></glyph>
<glyph glyph-name="acircumflex" unicode="&#xe2;" horiz-adv-x="300" >
<path fill="black" d="M165 76 L164 76 C141.333 18.6667 119.333 -10 98 -10 C51.3333 -10 18 48.3333 18 155 C18 275 52.3333 329.333 111 332 L160 335 L160 359 C160 428.333 141.333 454 124 454 C100 454 80 438.667 64 416 L30 506 C62 536.667 94 554 138 554 C214 554 260 494 260 370 L260 0 L182 0 L165 76 Z M160 257 L141 253 C126.333 250.333 118 222.667 118 164 C118 113.333 128.333 91 135 91 C137.667 91 160 130.333 160 213 L160 257 Z " /><g transform="translate(12,0)" ><path fill="black" d="M42 606 L42 618 C60.6926 660.726 79.9885 725.943 88 766 L181 766 C191.667 722 203.333 664.667 226 618 L226 606 L168 606 C160 630 149.667 659.333 135 694 C116.333 659.333 108.667 627.333 102 606 L42 606 Z " /></g></glyph>
<glyph glyph-name="atilde" unicode="&#xe3;" horiz-adv-x="300" >
<path fill="black" d="M165 76 L164 76 C141.333 18.6667 119.333 -10 98 -10 C51.3333 -10 18 48.3333 18 155 C18 275 52.3333 329.333 111 332 L160 335 L160 359 C160 428.333 141.333 454 124 454 C100 454 80 438.667 64 416 L30 506 C62 536.667 94 554 138 554 C214 554 260 494 260 370 L260 0 L182 0 L165 76 Z M160 257 L141 253 C126.333 250.333 118 222.667 118 164 C118 113.333 128.333 91 135 91 C137.667 91 160 130.333 160 213 L160 257 Z " /><g transform="translate(11,0)" ><path fill="black" d="M47 610 C47 672.9 51.2035 747 94 747 C121 747 144 693 163 693 C172.333 693 169 712 173 748 L223 748 C220.333 656 201.667 611 175 611 C149.458 611 119.68 666 107 666 C100.333 666 99.6667 648.667 97 610 L47 610 Z " /></g></glyph>
<glyph glyph-name="adieresis" unicode="&#xe4;" horiz-adv-x="300" >
<g transform="translate(13,-14)" ><path fill="black" d="M81 621 C57 621 38 643.333 38 686 C38 727.333 57 748 81 748 C105 748 124 726 124 686 C124 643.333 105 621 81 621 Z M188 621 C164 621 145 643.333 145 686 C145 727.333 164 748 188 748 C212 748 231 726 231 686 C231 643.333 212 621 188 621 Z " /></g><path fill="black" d="M165 76 L164 76 C141.333 18.6667 119.333 -10 98 -10 C51.3333 -10 18 48.3333 18 155 C18 275 52.3333 329.333 111 332 L160 335 L160 359 C160 428.333 141.333 454 124 454 C100 454 80 438.667 64 416 L30 506 C62 536.667 94 554 138 554 C214 554 260 494 260 370 L260 0 L182 0 L165 76 Z M160 257 L141 253 C126.333 250.333 118 222.667 118 164 C118 113.333 128.333 91 135 91 C137.667 91 160 130.333 160 213 L160 257 Z " /></glyph>
<glyph glyph-name="aring" unicode="&#xe5;" horiz-adv-x="300" >
<path fill="black" d="M165 76 L164 76 C141.333 18.6667 119.333 -10 98 -10 C51.3333 -10 18 48.3333 18 155 C18 275 52.3333 329.333 111 332 L160 335 L160 359 C160 428.333 141.333 454 124 454 C100 454 80 438.667 64 416 L30 506 C62 536.667 94 554 138 554 C214 554 260 494 260 370 L260 0 L182 0 L165 76 Z M160 257 L141 253 C126.333 250.333 118 222.667 118 164 C118 113.333 128.333 91 135 91 C137.667 91 160 130.333 160 213 L160 257 Z " /><g transform="translate(13,0)" ><path fill="black" d="M135 602 C87 602 61 649 61 717 C61 782.333 88.3333 829 135 829 C179 829 207 783.667 207 717 C207 649 181.667 602 135 602 Z M135 665 C145.667 665 153 685 153 717 C153 746.333 147 767 135 767 C124.333 767 116 747.667 116 717 C116 685 124.333 665 135 665 Z " /></g></glyph>
<glyph glyph-name="ae" unicode="&#xe6;" horiz-adv-x="300" d="M255 27 C241.667 2.33333 225 -10 205 -10 C178.333 -10 154.667 19 136 95 C117.333 19 99.6667 -10 77 -10 C31.6667 -10 7 48 7 152 C7 260.667 29.3333 318 74 324 L102 328 L102 362 C102 438 89.3333 464 76 464 C62 464 50.3333 453.667 41 433 L13 506 C35.6667 532.667 62.3333 551 85 551 C103.667 551 125 528.667 141 474 C157 520.667 172.667 551 190 551 C246 551 264 454 264 298 L264 247 L176 247 C177.333 124.333 195.667 80 217 80 C233 80 241.667 90.6667 255 120 L255 27 Z M101 252 L93 252 C86.3333 252 77 221 77 157 C77 105 82.3333 81 89 81 C95.6667 81 101 116.667 101 210 L101 252 Z M196 326 C196 419.333 194 461 186 461 C178 461 177 420.667 177 326 L196 326 Z " />
<glyph glyph-name="ccedilla" unicode="&#xe7;" horiz-adv-x="300" d="M116 -168 C125.333 -172 133 -174 139 -174 C151 -174 153 -157.333 153 -132 C153 -100 142 -86.3333 126 -81 L140 -8 C74.1874 7.79503 18 94.1527 18 269 C18 453 61 554 157 554 C193 554 227.667 543 257 519 L224 425 C205.333 443.667 191 453 167 453 C135 453 126 392 126 272 C126 146.667 148.667 92 174 92 C195.333 92 221.333 104 244 132 L244 23 C227.333 8.33333 209 -1.66667 189 -7 L186 -44 C213.333 -56 227 -87.3333 227 -138 C227 -202 204 -240 156 -240 C141.333 -240 126.667 -238.333 116 -233 L116 -168 Z " />
<glyph glyph-name="egrave" unicode="&#xe8;" horiz-adv-x="300" >
<path fill="black" d="M242 28 C219.333 4 191.667 -10 149 -10 C61 -10 6 88 6 268 C6 442.874 54.1558 554 138 554 C206 554 258 464 258 304 L258 237 L112 237 C114.667 137 138 90 162 90 C196.667 90 223.333 105.667 242 131 L242 28 Z M158 323 C156.667 407 147 455 135 455 C117.667 455 112 409.667 112 323 L158 323 Z " /><g transform="translate(11,0)" ><path fill="black" d="M114 606 C97.8717 638.257 53.7372 716.735 43 757 L43 766 L154 766 C159.392 722.863 176.737 652.208 182 618 L182 606 L114 606 Z " /></g></glyph>
<glyph glyph-name="eacute" unicode="&#xe9;" horiz-adv-x="300" >
<path fill="black" d="M242 28 C219.333 4 191.667 -10 149 -10 C61 -10 6 88 6 268 C6 442.874 54.1558 554 138 554 C206 554 258 464 258 304 L258 237 L112 237 C114.667 137 138 90 162 90 C196.667 90 223.333 105.667 242 131 L242 28 Z M158 323 C156.667 407 147 455 135 455 C117.667 455 112 409.667 112 323 L158 323 Z " /><g transform="translate(15,0)" ><path fill="black" d="M76 606 L76 618 C90.6667 672.667 96.3333 720.667 103 766 L215 766 L215 757 C204.238 716.643 165.5 646.312 144 606 L76 606 Z " /></g></glyph>
<glyph glyph-name="ecircumflex" unicode="&#xea;" horiz-adv-x="300" >
<path fill="black" d="M242 28 C219.333 4 191.667 -10 149 -10 C61 -10 6 88 6 268 C6 442.874 54.1558 554 138 554 C206 554 258 464 258 304 L258 237 L112 237 C114.667 137 138 90 162 90 C196.667 90 223.333 105.667 242 131 L242 28 Z M158 323 C156.667 407 147 455 135 455 C117.667 455 112 409.667 112 323 L158 323 Z " /><g transform="translate(3,0)" ><path fill="black" d="M42 606 L42 618 C60.6926 660.726 79.9885 725.943 88 766 L181 766 C191.667 722 203.333 664.667 226 618 L226 606 L168 606 C160 630 149.667 659.333 135 694 C116.333 659.333 108.667 627.333 102 606 L42 606 Z " /></g></glyph>
<glyph glyph-name="edieresis" unicode="&#xeb;" horiz-adv-x="300" >
<g transform="translate(4,-14)" ><path fill="black" d="M81 621 C57 621 38 643.333 38 686 C38 727.333 57 748 81 748 C105 748 124 726 124 686 C124 643.333 105 621 81 621 Z M188 621 C164 621 145 643.333 145 686 C145 727.333 164 748 188 748 C212 748 231 726 231 686 C231 643.333 212 621 188 621 Z " /></g><path fill="black" d="M242 28 C219.333 4 191.667 -10 149 -10 C61 -10 6 88 6 268 C6 442.874 54.1558 554 138 554 C206 554 258 464 258 304 L258 237 L112 237 C114.667 137 138 90 162 90 C196.667 90 223.333 105.667 242 131 L242 28 Z M158 323 C156.667 407 147 455 135 455 C117.667 455 112 409.667 112 323 L158 323 Z " /></glyph>
<glyph glyph-name="igrave" unicode="&#xec;" horiz-adv-x="270" >
<path fill="black" d="M20 83 L88 97 L88 445 L32 456 L32 543 L191 543 L191 97 L245 83 L245 0 L20 0 L20 83 Z " /><g transform="translate(8,0)" ><path fill="black" d="M114 606 C97.8717 638.257 53.7372 716.735 43 757 L43 766 L154 766 C159.392 722.863 176.737 652.208 182 618 L182 606 L114 606 Z " /></g></glyph>
<glyph glyph-name="iacute" unicode="&#xed;" horiz-adv-x="270" >
<path fill="black" d="M20 83 L88 97 L88 445 L32 456 L32 543 L191 543 L191 97 L245 83 L245 0 L20 0 L20 83 Z " /><g transform="translate(12,0)" ><path fill="black" d="M76 606 L76 618 C90.6667 672.667 96.3333 720.667 103 766 L215 766 L215 757 C204.238 716.643 165.5 646.312 144 606 L76 606 Z " /></g></glyph>
<glyph glyph-name="icircumflex" unicode="&#xee;" horiz-adv-x="270" >
<path fill="black" d="M20 83 L88 97 L88 445 L32 456 L32 543 L191 543 L191 97 L245 83 L245 0 L20 0 L20 83 Z " /><path fill="black" d="M42 606 L42 618 C60.6926 660.726 79.9885 725.943 88 766 L181 766 C191.667 722 203.333 664.667 226 618 L226 606 L168 606 C160 630 149.667 659.333 135 694 C116.333 659.333 108.667 627.333 102 606 L42 606 Z " /></glyph>
<glyph glyph-name="idieresis" unicode="&#xef;" horiz-adv-x="270" >
<g transform="translate(1,-14)" ><path fill="black" d="M81 621 C57 621 38 643.333 38 686 C38 727.333 57 748 81 748 C105 748 124 726 124 686 C124 643.333 105 621 81 621 Z M188 621 C164 621 145 643.333 145 686 C145 727.333 164 748 188 748 C212 748 231 726 231 686 C231 643.333 212 621 188 621 Z " /></g><path fill="black" d="M20 83 L88 97 L88 445 L32 456 L32 543 L191 543 L191 97 L245 83 L245 0 L20 0 L20 83 Z " /></glyph>
<glyph glyph-name="eth" unicode="&#xf0;" horiz-adv-x="300" d="M140 446 C134.667 488.667 125.333 529.667 112 567 L93 542 L56 601 L85 640 C74.3333 662.667 66.6667 683.667 60 701 L101 765 C116.333 751 130.333 735 143 717 L180 766 L218 707 L180 657 C230.667 557 262 422.333 262 273 C262 87.6667 216 -10 136 -10 C60.2857 -10 7 92.1082 7 237 C7 393 55.3333 481 114 481 C120 481 128.333 468.667 139 444 L140 446 Z M137 83 C159.667 83 161 139.333 161 242 C161 328.667 153 389 133 389 C111.667 389 109 336.333 109 235 C109 143 111.667 83 137 83 Z " />
<glyph glyph-name="ntilde" unicode="&#xf1;" horiz-adv-x="300" >
<path fill="black" d="M14 0 L14 543 L100 543 L112 475 L116 475 C133.333 527.667 153 554 175 554 C228.333 554 259 493.667 259 355 L259 0 L156 0 L156 340 C156 420 153 456 141 456 C118.333 456 118 402.667 118 288 L118 0 L14 0 Z " /><g transform="translate(8,0)" ><path fill="black" d="M47 610 C47 672.9 51.2035 747 94 747 C121 747 144 693 163 693 C172.333 693 169 712 173 748 L223 748 C220.333 656 201.667 611 175 611 C149.458 611 119.68 666 107 666 C100.333 666 99.6667 648.667 97 610 L47 610 Z " /></g></glyph>
<glyph glyph-name="ograve" unicode="&#xf2;" horiz-adv-x="300" >
<path fill="black" d="M135 -10 C43.3636 -10 7 111.333 7 274 C7 441.896 47.8225 554 133 554 C202.411 554 262 452.61 262 273 C262 111.381 231.13 -10 135 -10 Z M134 90 C147.333 90 154 151.667 154 273 C154 394.333 143.333 454 134 454 C122 454 116 393.667 116 273 C116 153 123.333 90 134 90 Z " /><g transform="translate(8,0)" ><path fill="black" d="M114 606 C97.8717 638.257 53.7372 716.735 43 757 L43 766 L154 766 C159.392 722.863 176.737 652.208 182 618 L182 606 L114 606 Z " /></g></glyph>
<glyph glyph-name="oacute" unicode="&#xf3;" horiz-adv-x="300" >
<path fill="black" d="M135 -10 C43.3636 -10 7 111.333 7 274 C7 441.896 47.8225 554 133 554 C202.411 554 262 452.61 262 273 C262 111.381 231.13 -10 135 -10 Z M134 90 C147.333 90 154 151.667 154 273 C154 394.333 143.333 454 134 454 C122 454 116 393.667 116 273 C116 153 123.333 90 134 90 Z " /><g transform="translate(12,0)" ><path fill="black" d="M76 606 L76 618 C90.6667 672.667 96.3333 720.667 103 766 L215 766 L215 757 C204.238 716.643 165.5 646.312 144 606 L76 606 Z " /></g></glyph>
<glyph glyph-name="ocircumflex" unicode="&#xf4;" horiz-adv-x="300" >
<path fill="black" d="M135 -10 C43.3636 -10 7 111.333 7 274 C7 441.896 47.8225 554 133 554 C202.411 554 262 452.61 262 273 C262 111.381 231.13 -10 135 -10 Z M134 90 C147.333 90 154 151.667 154 273 C154 394.333 143.333 454 134 454 C122 454 116 393.667 116 273 C116 153 123.333 90 134 90 Z " /><path fill="black" d="M42 606 L42 618 C60.6926 660.726 79.9885 725.943 88 766 L181 766 C191.667 722 203.333 664.667 226 618 L226 606 L168 606 C160 630 149.667 659.333 135 694 C116.333 659.333 108.667 627.333 102 606 L42 606 Z " /></glyph>
<glyph glyph-name="otilde" unicode="&#xf5;" horiz-adv-x="300" >
<path fill="black" d="M135 -10 C43.3636 -10 7 111.333 7 274 C7 441.896 47.8225 554 133 554 C202.411 554 262 452.61 262 273 C262 111.381 231.13 -10 135 -10 Z M134 90 C147.333 90 154 151.667 154 273 C154 394.333 143.333 454 134 454 C122 454 116 393.667 116 273 C116 153 123.333 90 134 90 Z " /><g transform="translate(-1,0)" ><path fill="black" d="M47 610 C47 672.9 51.2035 747 94 747 C121 747 144 693 163 693 C172.333 693 169 712 173 748 L223 748 C220.333 656 201.667 611 175 611 C149.458 611 119.68 666 107 666 C100.333 666 99.6667 648.667 97 610 L47 610 Z " /></g></glyph>
<glyph glyph-name="odieresis" unicode="&#xf6;" horiz-adv-x="300" >
<g transform="translate(1,-14)" ><path fill="black" d="M81 621 C57 621 38 643.333 38 686 C38 727.333 57 748 81 748 C105 748 124 726 124 686 C124 643.333 105 621 81 621 Z M188 621 C164 621 145 643.333 145 686 C145 727.333 164 748 188 748 C212 748 231 726 231 686 C231 643.333 212 621 188 621 Z " /></g><path fill="black" d="M135 -10 C43.3636 -10 7 111.333 7 274 C7 441.896 47.8225 554 133 554 C202.411 554 262 452.61 262 273 C262 111.381 231.13 -10 135 -10 Z M134 90 C147.333 90 154 151.667 154 273 C154 394.333 143.333 454 134 454 C122 454 116 393.667 116 273 C116 153 123.333 90 134 90 Z " /></glyph>
<glyph glyph-name="divide" unicode="&#xf7;" horiz-adv-x="300" d="M31 397 L238 397 L238 309 L31 309 L31 397 Z M136 97 C106.667 97 86 120.333 86 167 C86 213.667 102.667 237 136 237 C165.333 237 183 212.333 183 167 C183 120.333 162.667 97 136 97 Z M136 468 C106.667 468 86 491.333 86 538 C86 584.667 102.667 608 136 608 C165.333 608 183 583.333 183 538 C183 491.333 162.667 468 136 468 Z " />
<glyph glyph-name="oslash" unicode="&#xf8;" horiz-adv-x="300" d="M58 39 C27.3333 89.6667 13 174 13 274 C13 441.896 53.8225 554 139 554 C152.333 554 164.667 550.667 176 544 L185 585 L235 553 L222 496 C250 448 268 373 268 273 C268 111.381 237.13 -10 141 -10 C127 -10 115.333 -7.66667 106 -3 L94 -54 L44 -23 L58 39 Z M131 107 C134.333 95.6667 137.333 90 140 90 C151.333 90 158 136.333 160 229 L131 107 Z M150 432 C146 446.667 142.667 454 140 454 C128.667 454 122.667 407.333 122 314 L150 432 Z " />
<glyph glyph-name="ugrave" unicode="&#xf9;" horiz-adv-x="300" >
<path fill="black" d="M157 72 L152 72 C134.667 17.3333 113 -10 93 -10 C43.6667 -10 11 51 11 183 L11 543 L116 543 L116 213 C116 125 117.333 91 136 91 C156 91 153 146 153 266 L153 543 L257 543 L257 0 L171 0 L157 72 Z " /><g transform="translate(8,0)" ><path fill="black" d="M114 606 C97.8717 638.257 53.7372 716.735 43 757 L43 766 L154 766 C159.392 722.863 176.737 652.208 182 618 L182 606 L114 606 Z " /></g></glyph>
<glyph glyph-name="uacute" unicode="&#xfa;" horiz-adv-x="300" >
<path fill="black" d="M157 72 L152 72 C134.667 17.3333 113 -10 93 -10 C43.6667 -10 11 51 11 183 L11 543 L116 543 L116 213 C116 125 117.333 91 136 91 C156 91 153 146 153 266 L153 543 L257 543 L257 0 L171 0 L157 72 Z " /><g transform="translate(12,0)" ><path fill="black" d="M76 606 L76 618 C90.6667 672.667 96.3333 720.667 103 766 L215 766 L215 757 C204.238 716.643 165.5 646.312 144 606 L76 606 Z " /></g></glyph>
<glyph glyph-name="ucircumflex" unicode="&#xfb;" horiz-adv-x="300" >
<path fill="black" d="M157 72 L152 72 C134.667 17.3333 113 -10 93 -10 C43.6667 -10 11 51 11 183 L11 543 L116 543 L116 213 C116 125 117.333 91 136 91 C156 91 153 146 153 266 L153 543 L257 543 L257 0 L171 0 L157 72 Z " /><path fill="black" d="M42 606 L42 618 C60.6926 660.726 79.9885 725.943 88 766 L181 766 C191.667 722 203.333 664.667 226 618 L226 606 L168 606 C160 630 149.667 659.333 135 694 C116.333 659.333 108.667 627.333 102 606 L42 606 Z " /></glyph>
<glyph glyph-name="udieresis" unicode="&#xfc;" horiz-adv-x="300" >
<g transform="translate(1,-14)" ><path fill="black" d="M81 621 C57 621 38 643.333 38 686 C38 727.333 57 748 81 748 C105 748 124 726 124 686 C124 643.333 105 621 81 621 Z M188 621 C164 621 145 643.333 145 686 C145 727.333 164 748 188 748 C212 748 231 726 231 686 C231 643.333 212 621 188 621 Z " /></g><path fill="black" d="M157 72 L152 72 C134.667 17.3333 113 -10 93 -10 C43.6667 -10 11 51 11 183 L11 543 L116 543 L116 213 C116 125 117.333 91 136 91 C156 91 153 146 153 266 L153 543 L257 543 L257 0 L171 0 L157 72 Z " /></glyph>
<glyph glyph-name="yacute" unicode="&#xfd;" horiz-adv-x="300" >
<path fill="black" d="M11 -142 C19 -146 27.6667 -148 37 -148 C59.3549 -148 92.3335 -130.662 95 -48 L96 -3 L-6 543 L108 543 L130 258 C134 211.333 138.333 172.667 141 138 L144 138 C144 171.333 149.333 216.333 152 259 L166 543 L281 543 L192 -58 C173.333 -184.667 126 -245 54 -245 C39.3333 -245 25 -242.333 11 -237 L11 -142 Z " /><g transform="translate(16,0)" ><path fill="black" d="M76 606 L76 618 C90.6667 672.667 96.3333 720.667 103 766 L215 766 L215 757 C204.238 716.643 165.5 646.312 144 606 L76 606 Z " /></g></glyph>
<glyph glyph-name="thorn" unicode="&#xfe;" horiz-adv-x="300" d="M14 -240 L14 738 L116 738 L116 564 C116 529.333 114 501.333 110 468 L115 468 C129.667 520 149.333 554 176 554 C232.996 554 263 441.182 263 273 C263 93.2338 220.437 -10 175 -10 C155 -10 134.667 21.3333 116 64 L109 64 C111.667 40 116 -1 116 -33 L116 -240 L14 -240 Z M116 272 C116 146.667 118.333 92 141 92 C155.667 92 155 154.333 155 273 C155 394.333 151.667 453 137 453 C123 453 116 398.667 116 290 L116 272 Z " />
<glyph glyph-name="ydieresis" unicode="&#xff;" horiz-adv-x="300" >
<g transform="translate(5,-14)" ><path fill="black" d="M81 621 C57 621 38 643.333 38 686 C38 727.333 57 748 81 748 C105 748 124 726 124 686 C124 643.333 105 621 81 621 Z M188 621 C164 621 145 643.333 145 686 C145 727.333 164 748 188 748 C212 748 231 726 231 686 C231 643.333 212 621 188 621 Z " /></g><path fill="black" d="M11 -142 C19 -146 27.6667 -148 37 -148 C59.3549 -148 92.3335 -130.662 95 -48 L96 -3 L-6 543 L108 543 L130 258 C134 211.333 138.333 172.667 141 138 L144 138 C144 171.333 149.333 216.333 152 259 L166 543 L281 543 L192 -58 C173.333 -184.667 126 -245 54 -245 C39.3333 -245 25 -242.333 11 -237 L11 -142 Z " /></glyph>
<glyph glyph-name="Amacron" unicode="&#x100;" horiz-adv-x="300" >
<path fill="black" d="M59 715 L209 715 L263 0 L161 0 L155 196 L117 196 L111 0 L8 0 L59 715 Z M151 296 L145 494 C143.667 534 136.333 586.667 135 624 C132.333 586.667 126.333 532.667 125 494 L119 296 L151 296 Z " /><g transform="translate(6,156)" ><path fill="black" d="M52 715 L206 715 L206 636 L52 636 L52 715 Z " /></g></glyph>
<glyph glyph-name="amacron" unicode="&#x101;" horiz-adv-x="300" >
<path fill="black" d="M165 76 L164 76 C141.333 18.6667 119.333 -10 98 -10 C51.3333 -10 18 48.3333 18 155 C18 275 52.3333 329.333 111 332 L160 335 L160 359 C160 428.333 141.333 454 124 454 C100 454 80 438.667 64 416 L30 506 C62 536.667 94 554 138 554 C214 554 260 494 260 370 L260 0 L182 0 L165 76 Z M160 257 L141 253 C126.333 250.333 118 222.667 118 164 C118 113.333 128.333 91 135 91 C137.667 91 160 130.333 160 213 L160 257 Z " /><g transform="translate(18,-16)" ><path fill="black" d="M52 715 L206 715 L206 636 L52 636 L52 715 Z " /></g></glyph>
<glyph glyph-name="Abreve" unicode="&#x102;" horiz-adv-x="300" >
<path fill="black" d="M59 715 L209 715 L263 0 L161 0 L155 196 L117 196 L111 0 L8 0 L59 715 Z M151 296 L145 494 C143.667 534 136.333 586.667 135 624 C132.333 586.667 126.333 532.667 125 494 L119 296 L151 296 Z " /><g transform="translate(1,172)" ><path fill="black" d="M109 756 C109 708.667 117.333 685 134 685 C148.667 685 159.333 706.667 162 756 L219 756 C221.667 664 186 609 134 609 C84.6667 609 50 658.667 50 756 L109 756 Z " /></g></glyph>
<glyph glyph-name="abreve" unicode="&#x103;" horiz-adv-x="300" >
<path fill="black" d="M165 76 L164 76 C141.333 18.6667 119.333 -10 98 -10 C51.3333 -10 18 48.3333 18 155 C18 275 52.3333 329.333 111 332 L160 335 L160 359 C160 428.333 141.333 454 124 454 C100 454 80 438.667 64 416 L30 506 C62 536.667 94 554 138 554 C214 554 260 494 260 370 L260 0 L182 0 L165 76 Z M160 257 L141 253 C126.333 250.333 118 222.667 118 164 C118 113.333 128.333 91 135 91 C137.667 91 160 130.333 160 213 L160 257 Z " /><g transform="translate(13,0)" ><path fill="black" d="M109 756 C109 708.667 117.333 685 134 685 C148.667 685 159.333 706.667 162 756 L219 756 C221.667 664 186 609 134 609 C84.6667 609 50 658.667 50 756 L109 756 Z " /></g></glyph>
<glyph glyph-name="Aogonek" unicode="&#x104;" horiz-adv-x="300" d="M59 715 L209 715 L263 3 L275 0 C253.667 -45.3333 257 -76.6667 257 -110 C257 -140.667 265.333 -158 276 -158 C285.333 -158 288 -153.667 292 -151 L292 -220 C282.667 -227.333 269.667 -231 253 -231 C205 -231 184 -195.333 184 -134 C184 -87.3333 193.333 -40 216 0 L161 0 L155 196 L117 196 L111 0 L8 0 L59 715 Z M151 296 L145 494 C143.667 534 136.333 586.667 135 624 C132.333 586.667 126.333 532.667 125 494 L119 296 L151 296 Z " />
<glyph glyph-name="aogonek" unicode="&#x105;" horiz-adv-x="300" d="M294 -220 C284.667 -227.333 271.667 -231 255 -231 C207 -231 186 -195.333 186 -134 C186 -87.3333 195.333 -40 218 0 L187 0 L170 76 L169 76 C146.333 18.6667 124.333 -10 103 -10 C56.3333 -10 23 48.3333 23 155 C23 275 57.3333 329.333 116 332 L165 335 L165 359 C165 428.333 146.333 454 129 454 C105 454 85 438.667 69 416 L35 506 C67 536.667 99 554 143 554 C219 554 265 494 265 370 L265 3 L277 0 C255.667 -45.3333 259 -76.6667 259 -110 C259 -140.667 267.333 -158 278 -158 C287.333 -158 290 -153.667 294 -151 L294 -220 Z M165 257 L146 253 C131.333 250.333 123 222.667 123 164 C123 113.333 133.333 91 140 91 C142.667 91 165 130.333 165 213 L165 257 Z " />
<glyph glyph-name="Cacute" unicode="&#x106;" horiz-adv-x="300" >
<path fill="black" d="M241 23 C215 1 186.333 -10 155 -10 C61.6667 -10 13 125.667 13 351 C13 569.797 68.3377 726 160 726 C204 726 230.667 710.333 260 681 L228 587 C212 611 194 623 174 623 C136.537 623 119 511.411 119 354 C119 188.667 136.333 93 175 93 C195 93 215.667 108 241 128 L241 23 Z " /><g transform="translate(35,171)" ><path fill="black" d="M76 606 L76 618 C90.6667 672.667 96.3333 720.667 103 766 L215 766 L215 757 C204.238 716.643 165.5 646.312 144 606 L76 606 Z " /></g></glyph>
<glyph glyph-name="cacute" unicode="&#x107;" horiz-adv-x="300" >
<path fill="black" d="M244 23 C218.667 0.333333 189 -10 161 -10 C87.381 -10 18 75.2771 18 269 C18 453 61 554 157 554 C193 554 227.667 543 257 519 L224 425 C205.333 443.667 191 453 167 453 C135 453 126 392 126 272 C126 146.667 148.667 92 174 92 C195.333 92 221.333 104 244 132 L244 23 Z " /><g transform="translate(33,0)" ><path fill="black" d="M76 606 L76 618 C90.6667 672.667 96.3333 720.667 103 766 L215 766 L215 757 C204.238 716.643 165.5 646.312 144 606 L76 606 Z " /></g></glyph>
<glyph glyph-name="Ccircumflex" unicode="&#x108;" horiz-adv-x="300" >
<path fill="black" d="M241 23 C215 1 186.333 -10 155 -10 C61.6667 -10 13 125.667 13 351 C13 569.797 68.3377 726 160 726 C204 726 230.667 710.333 260 681 L228 587 C212 611 194 623 174 623 C136.537 623 119 511.411 119 354 C119 188.667 136.333 93 175 93 C195 93 215.667 108 241 128 L241 23 Z " /><g transform="translate(23,171)" ><path fill="black" d="M42 606 L42 618 C60.6926 660.726 79.9885 725.943 88 766 L181 766 C191.667 722 203.333 664.667 226 618 L226 606 L168 606 C160 630 149.667 659.333 135 694 C116.333 659.333 108.667 627.333 102 606 L42 606 Z " /></g></glyph>
<glyph glyph-name="ccircumflex" unicode="&#x109;" horiz-adv-x="300" >
<path fill="black" d="M244 23 C218.667 0.333333 189 -10 161 -10 C87.381 -10 18 75.2771 18 269 C18 453 61 554 157 554 C193 554 227.667 543 257 519 L224 425 C205.333 443.667 191 453 167 453 C135 453 126 392 126 272 C126 146.667 148.667 92 174 92 C195.333 92 221.333 104 244 132 L244 23 Z " /><g transform="translate(21,0)" ><path fill="black" d="M42 606 L42 618 C60.6926 660.726 79.9885 725.943 88 766 L181 766 C191.667 722 203.333 664.667 226 618 L226 606 L168 606 C160 630 149.667 659.333 135 694 C116.333 659.333 108.667 627.333 102 606 L42 606 Z " /></g></glyph>
<glyph glyph-name="Cdotaccent" unicode="&#x10a;" horiz-adv-x="300" >
<path fill="black" d="M241 23 C215 1 186.333 -10 155 -10 C61.6667 -10 13 125.667 13 351 C13 569.797 68.3377 726 160 726 C204 726 230.667 710.333 260 681 L228 587 C212 611 194 623 174 623 C136.537 623 119 511.411 119 354 C119 188.667 136.333 93 175 93 C195 93 215.667 108 241 128 L241 23 Z " /><g transform="translate(22,805)" ><path fill="black" d="M136 -12 C102.667 -12 79 13.6667 79 63 C79 113.667 100 138 136 138 C166.667 138 190 113.667 190 63 C190 13.6667 164 -12 136 -12 Z " /></g></glyph>
<glyph glyph-name="cdotaccent" unicode="&#x10b;" horiz-adv-x="300" >
<path fill="black" d="M244 23 C218.667 0.333333 189 -10 161 -10 C87.381 -10 18 75.2771 18 269 C18 453 61 554 157 554 C193 554 227.667 543 257 519 L224 425 C205.333 443.667 191 453 167 453 C135 453 126 392 126 272 C126 146.667 148.667 92 174 92 C195.333 92 221.333 104 244 132 L244 23 Z " /><g transform="translate(20,634)" ><path fill="black" d="M136 -12 C102.667 -12 79 13.6667 79 63 C79 113.667 100 138 136 138 C166.667 138 190 113.667 190 63 C190 13.6667 164 -12 136 -12 Z " /></g></glyph>
<glyph glyph-name="Ccaron" unicode="&#x10c;" horiz-adv-x="300" >
<path fill="black" d="M241 23 C215 1 186.333 -10 155 -10 C61.6667 -10 13 125.667 13 351 C13 569.797 68.3377 726 160 726 C204 726 230.667 710.333 260 681 L228 587 C212 611 194 623 174 623 C136.537 623 119 511.411 119 354 C119 188.667 136.333 93 175 93 C195 93 215.667 108 241 128 L241 23 Z " /><g transform="translate(23,171)" ><path fill="black" d="M88 606 C79.7988 647.006 58.0924 712.087 42 755 L42 766 L101 766 C110.333 743.333 120 712.667 136 678 C152 716.667 158.333 738 169 766 L228 766 L228 755 C214.897 715.69 190.914 648.207 183 606 L88 606 Z " /></g></glyph>
<glyph glyph-name="ccaron" unicode="&#x10d;" horiz-adv-x="300" >
<path fill="black" d="M244 23 C218.667 0.333333 189 -10 161 -10 C87.381 -10 18 75.2771 18 269 C18 453 61 554 157 554 C193 554 227.667 543 257 519 L224 425 C205.333 443.667 191 453 167 453 C135 453 126 392 126 272 C126 146.667 148.667 92 174 92 C195.333 92 221.333 104 244 132 L244 23 Z " /><g transform="translate(21,0)" ><path fill="black" d="M88 606 C79.7988 647.006 58.0924 712.087 42 755 L42 766 L101 766 C110.333 743.333 120 712.667 136 678 C152 716.667 158.333 738 169 766 L228 766 L228 755 C214.897 715.69 190.914 648.207 183 606 L88 606 Z " /></g></glyph>
<glyph glyph-name="Dcaron" unicode="&#x10e;" horiz-adv-x="300" >
<path fill="black" d="M11 0 L11 714 L140 714 C214.797 714 267 586.823 267 368 C267 132.156 204.39 0 136 0 L11 0 Z M114 105 L125 105 C147.667 105 160 196.667 160 362 C160 535.333 145.333 609 128 609 L114 609 L114 105 Z " /><g transform="translate(-3,171)" ><path fill="black" d="M88 606 C79.7988 647.006 58.0924 712.087 42 755 L42 766 L101 766 C110.333 743.333 120 712.667 136 678 C152 716.667 158.333 738 169 766 L228 766 L228 755 C214.897 715.69 190.914 648.207 183 606 L88 606 Z " /></g></glyph>
<glyph glyph-name="dcaron" unicode="&#x10f;" horiz-adv-x="300" d="M145 75 L140 75 C128 23 109.333 -10 88 -10 C34.6667 -10 2 95.6667 2 269 C2 451.667 35.3333 554 90 554 C106 554 122 527 138 473 L143 473 C140.333 501 137 533.333 137 568 L137 760 L239 760 L239 0 L155 0 L145 75 Z M242 600 L242 608 C244.651 639.813 249 722.81 249 760 L344 760 L344 753 C337.333 706.333 320.667 641.333 306 600 L242 600 Z M139 277 C139 401 132.667 453 122 453 C102 453 104 389.333 104 268 C104 148 105 92 121 92 C133 92 139 147.333 139 258 L139 277 Z " />
<glyph glyph-name="Dcroat" unicode="&#x110;" horiz-adv-x="300" >
<path fill="black" d="M21 319 L5 319 L5 408 L21 408 L21 714 L150 714 C224.797 714 277 586.823 277 368 C277 132.156 214.39 0 146 0 L21 0 L21 319 Z M135 105 C157.667 105 170 196.667 170 362 C170 535.333 155.333 609 138 609 L124 609 L124 408 L146 408 L146 319 L124 319 L124 105 L135 105 Z " /></glyph>
<glyph glyph-name="dcroat" unicode="&#x111;" horiz-adv-x="300" d="M162 75 L157 75 C142.333 23 120.667 -10 102 -10 C42 -10 7 92.3333 7 263 C7 441.667 43.3333 543 102 543 C116.667 543 137.333 511.667 156 461 L160 461 C160 487.667 155 525.333 155 564 L155 596 L104 596 L104 676 L155 676 L155 760 L257 760 L257 676 L264 676 L264 596 L257 596 L257 0 L172 0 L162 75 Z M137 92 C150.333 92 157 143 157 245 L157 264 C157 385.333 156.667 441 138 441 C115.333 441 112 378.667 112 260 C112 146.667 118.333 92 137 92 Z " />
<glyph glyph-name="Emacron" unicode="&#x112;" horiz-adv-x="300" >
<path fill="black" d="M258 105 L258 0 L17 0 L17 714 L258 714 L258 609 L122 609 L122 419 L249 419 L249 314 L122 314 L122 105 L258 105 Z " /><g transform="translate(9,155)" ><path fill="black" d="M52 715 L206 715 L206 636 L52 636 L52 715 Z " /></g></glyph>
<glyph glyph-name="emacron" unicode="&#x113;" horiz-adv-x="300" >
<path fill="black" d="M242 28 C219.333 4 191.667 -10 149 -10 C61 -10 6 88 6 268 C6 442.874 54.1558 554 138 554 C206 554 258 464 258 304 L258 237 L112 237 C114.667 137 138 90 162 90 C196.667 90 223.333 105.667 242 131 L242 28 Z M158 323 C156.667 407 147 455 135 455 C117.667 455 112 409.667 112 323 L158 323 Z " /><g transform="translate(9,-16)" ><path fill="black" d="M52 715 L206 715 L206 636 L52 636 L52 715 Z " /></g></glyph>
<glyph glyph-name="Ebreve" unicode="&#x114;" horiz-adv-x="300" >
<path fill="black" d="M258 105 L258 0 L17 0 L17 714 L258 714 L258 609 L122 609 L122 419 L249 419 L249 314 L122 314 L122 105 L258 105 Z " /><g transform="translate(4,171)" ><path fill="black" d="M109 756 C109 708.667 117.333 685 134 685 C148.667 685 159.333 706.667 162 756 L219 756 C221.667 664 186 609 134 609 C84.6667 609 50 658.667 50 756 L109 756 Z " /></g></glyph>
<glyph glyph-name="ebreve" unicode="&#x115;" horiz-adv-x="300" >
<path fill="black" d="M242 28 C219.333 4 191.667 -10 149 -10 C61 -10 6 88 6 268 C6 442.874 54.1558 554 138 554 C206 554 258 464 258 304 L258 237 L112 237 C114.667 137 138 90 162 90 C196.667 90 223.333 105.667 242 131 L242 28 Z M158 323 C156.667 407 147 455 135 455 C117.667 455 112 409.667 112 323 L158 323 Z " /><g transform="translate(4,0)" ><path fill="black" d="M109 756 C109 708.667 117.333 685 134 685 C148.667 685 159.333 706.667 162 756 L219 756 C221.667 664 186 609 134 609 C84.6667 609 50 658.667 50 756 L109 756 Z " /></g></glyph>
<glyph glyph-name="Edotaccent" unicode="&#x116;" horiz-adv-x="300" >
<path fill="black" d="M258 105 L258 0 L17 0 L17 714 L258 714 L258 609 L122 609 L122 419 L249 419 L249 314 L122 314 L122 105 L258 105 Z " /><g transform="translate(2,805)" ><path fill="black" d="M136 -12 C102.667 -12 79 13.6667 79 63 C79 113.667 100 138 136 138 C166.667 138 190 113.667 190 63 C190 13.6667 164 -12 136 -12 Z " /></g></glyph>
<glyph glyph-name="edotaccent" unicode="&#x117;" horiz-adv-x="300" >
<path fill="black" d="M242 28 C219.333 4 191.667 -10 149 -10 C61 -10 6 88 6 268 C6 442.874 54.1558 554 138 554 C206 554 258 464 258 304 L258 237 L112 237 C114.667 137 138 90 162 90 C196.667 90 223.333 105.667 242 131 L242 28 Z M158 323 C156.667 407 147 455 135 455 C117.667 455 112 409.667 112 323 L158 323 Z " /><g transform="translate(2,634)" ><path fill="black" d="M136 -12 C102.667 -12 79 13.6667 79 63 C79 113.667 100 138 136 138 C166.667 138 190 113.667 190 63 C190 13.6667 164 -12 136 -12 Z " /></g></glyph>
<glyph glyph-name="Eogonek" unicode="&#x118;" horiz-adv-x="300" d="M22 714 L263 714 L263 609 L127 609 L127 419 L254 419 L254 314 L127 314 L127 105 L263 105 L263 2 L272 0 C250.667 -45.3333 254 -76.6667 254 -110 C254 -140.667 262.333 -158 273 -158 C282.333 -158 285 -153.667 289 -151 L289 -220 C279.667 -227.333 266.667 -231 250 -231 C202 -231 181 -195.333 181 -134 C181 -87.3333 190.333 -40 213 0 L22 0 L22 714 Z " />
<glyph glyph-name="eogonek" unicode="&#x119;" horiz-adv-x="300" d="M236 -220 C228.667 -227.333 217 -231 201 -231 C153 -231 133 -186.333 133 -121 C133 -74.3333 144.333 -39.3333 159 -10 L147 -10 C59 -10 4 88 4 268 C4 442.874 52.1558 554 136 554 C204 554 256 464 256 304 L256 237 L110 237 C112.667 137 136 90 160 90 C194.667 90 221.333 105.667 240 131 L240 28 C236 24 233 19.6667 229 17 C202.333 -28.3333 206 -67 206 -103 C206 -137.667 213.333 -157 224 -157 C230.667 -157 233.333 -153.667 236 -151 L236 -220 Z M156 323 C154.667 407 145 455 133 455 C115.667 455 110 409.667 110 323 L156 323 Z " />
<glyph glyph-name="Ecaron" unicode="&#x11a;" horiz-adv-x="300" >
<path fill="black" d="M258 105 L258 0 L17 0 L17 714 L258 714 L258 609 L122 609 L122 419 L249 419 L249 314 L122 314 L122 105 L258 105 Z " /><g transform="translate(3,171)" ><path fill="black" d="M88 606 C79.7988 647.006 58.0924 712.087 42 755 L42 766 L101 766 C110.333 743.333 120 712.667 136 678 C152 716.667 158.333 738 169 766 L228 766 L228 755 C214.897 715.69 190.914 648.207 183 606 L88 606 Z " /></g></glyph>
<glyph glyph-name="ecaron" unicode="&#x11b;" horiz-adv-x="300" >
<path fill="black" d="M242 28 C219.333 4 191.667 -10 149 -10 C61 -10 6 88 6 268 C6 442.874 54.1558 554 138 554 C206 554 258 464 258 304 L258 237 L112 237 C114.667 137 138 90 162 90 C196.667 90 223.333 105.667 242 131 L242 28 Z M158 323 C156.667 407 147 455 135 455 C117.667 455 112 409.667 112 323 L158 323 Z " /><g transform="translate(3,0)" ><path fill="black" d="M88 606 C79.7988 647.006 58.0924 712.087 42 755 L42 766 L101 766 C110.333 743.333 120 712.667 136 678 C152 716.667 158.333 738 169 766 L228 766 L228 755 C214.897 715.69 190.914 648.207 183 606 L88 606 Z " /></g></glyph>
<glyph glyph-name="Gcircumflex" unicode="&#x11c;" horiz-adv-x="300" >
<path fill="black" d="M162 291 L147 291 L147 393 L260 393 L260 28 C221.333 1.33333 194.333 -10 161 -10 C54.3593 -10 4 129.442 4 349 C4 581.182 70.2078 726 170 726 C214 726 242.333 709 265 681 L235 588 C212.333 614.667 199.667 623 177 623 C135.667 623 109 528.667 109 350 C109 205.922 123.052 93 147 93 C149.667 93 154 97.3333 162 104 L162 291 Z " /><g transform="translate(24,171)" ><path fill="black" d="M42 606 L42 618 C60.6926 660.726 79.9885 725.943 88 766 L181 766 C191.667 722 203.333 664.667 226 618 L226 606 L168 606 C160 630 149.667 659.333 135 694 C116.333 659.333 108.667 627.333 102 606 L42 606 Z " /></g></glyph>
<glyph glyph-name="gcircumflex" unicode="&#x11d;" horiz-adv-x="300" >
<path fill="black" d="M29 -103 C63.6667 -131 97 -144 113 -144 C137 -144 153 -99.6667 153 -17 L153 6 C153 26 154 52.6667 154 70 L152 70 C130.667 12.6667 115.333 -10 102 -10 C42 -10 7 94.3333 7 269 C7 445.182 45.5628 554 99 554 C114.333 554 132.667 527.333 154 474 L160 474 L169 543 L257 543 L257 0 C257 -161.333 212 -245 120 -245 C85.3333 -245 59.6667 -233.333 29 -208 L29 -103 Z M156 272 C156 400 150.667 453 140 453 C124 453 119 388 119 268 C119 152 122.333 92 141 92 C145 92 156 137.333 156 252 L156 272 Z " /><path fill="black" d="M42 606 L42 618 C60.6926 660.726 79.9885 725.943 88 766 L181 766 C191.667 722 203.333 664.667 226 618 L226 606 L168 606 C160 630 149.667 659.333 135 694 C116.333 659.333 108.667 627.333 102 606 L42 606 Z " /></glyph>
<glyph glyph-name="Gbreve" unicode="&#x11e;" horiz-adv-x="300" >
<path fill="black" d="M162 291 L147 291 L147 393 L260 393 L260 28 C221.333 1.33333 194.333 -10 161 -10 C54.3593 -10 4 129.442 4 349 C4 581.182 70.2078 726 170 726 C214 726 242.333 709 265 681 L235 588 C212.333 614.667 199.667 623 177 623 C135.667 623 109 528.667 109 350 C109 205.922 123.052 93 147 93 C149.667 93 154 97.3333 162 104 L162 291 Z " /><g transform="translate(25,171)" ><path fill="black" d="M109 756 C109 708.667 117.333 685 134 685 C148.667 685 159.333 706.667 162 756 L219 756 C221.667 664 186 609 134 609 C84.6667 609 50 658.667 50 756 L109 756 Z " /></g></glyph>
<glyph glyph-name="gbreve" unicode="&#x11f;" horiz-adv-x="300" >
<path fill="black" d="M29 -103 C63.6667 -131 97 -144 113 -144 C137 -144 153 -99.6667 153 -17 L153 6 C153 26 154 52.6667 154 70 L152 70 C130.667 12.6667 115.333 -10 102 -10 C42 -10 7 94.3333 7 269 C7 445.182 45.5628 554 99 554 C114.333 554 132.667 527.333 154 474 L160 474 L169 543 L257 543 L257 0 C257 -161.333 212 -245 120 -245 C85.3333 -245 59.6667 -233.333 29 -208 L29 -103 Z M156 272 C156 400 150.667 453 140 453 C124 453 119 388 119 268 C119 152 122.333 92 141 92 C145 92 156 137.333 156 252 L156 272 Z " /><g transform="translate(1,0)" ><path fill="black" d="M109 756 C109 708.667 117.333 685 134 685 C148.667 685 159.333 706.667 162 756 L219 756 C221.667 664 186 609 134 609 C84.6667 609 50 658.667 50 756 L109 756 Z " /></g></glyph>
<glyph glyph-name="Gdotaccent" unicode="&#x120;" horiz-adv-x="300" >
<path fill="black" d="M162 291 L147 291 L147 393 L260 393 L260 28 C221.333 1.33333 194.333 -10 161 -10 C54.3593 -10 4 129.442 4 349 C4 581.182 70.2078 726 170 726 C214 726 242.333 709 265 681 L235 588 C212.333 614.667 199.667 623 177 623 C135.667 623 109 528.667 109 350 C109 205.922 123.052 93 147 93 C149.667 93 154 97.3333 162 104 L162 291 Z " /><g transform="translate(23,805)" ><path fill="black" d="M136 -12 C102.667 -12 79 13.6667 79 63 C79 113.667 100 138 136 138 C166.667 138 190 113.667 190 63 C190 13.6667 164 -12 136 -12 Z " /></g></glyph>
<glyph glyph-name="gdotaccent" unicode="&#x121;" horiz-adv-x="300" >
<path fill="black" d="M29 -103 C63.6667 -131 97 -144 113 -144 C137 -144 153 -99.6667 153 -17 L153 6 C153 26 154 52.6667 154 70 L152 70 C130.667 12.6667 115.333 -10 102 -10 C42 -10 7 94.3333 7 269 C7 445.182 45.5628 554 99 554 C114.333 554 132.667 527.333 154 474 L160 474 L169 543 L257 543 L257 0 C257 -161.333 212 -245 120 -245 C85.3333 -245 59.6667 -233.333 29 -208 L29 -103 Z M156 272 C156 400 150.667 453 140 453 C124 453 119 388 119 268 C119 152 122.333 92 141 92 C145 92 156 137.333 156 252 L156 272 Z " /><g transform="translate(-1,634)" ><path fill="black" d="M136 -12 C102.667 -12 79 13.6667 79 63 C79 113.667 100 138 136 138 C166.667 138 190 113.667 190 63 C190 13.6667 164 -12 136 -12 Z " /></g></glyph>
<glyph glyph-name="uni0122" unicode="&#x122;" horiz-adv-x="300" >
<path fill="black" d="M162 291 L147 291 L147 393 L260 393 L260 28 C221.333 1.33333 194.333 -10 161 -10 C54.3593 -10 4 129.442 4 349 C4 581.182 70.2078 726 170 726 C214 726 242.333 709 265 681 L235 588 C212.333 614.667 199.667 623 177 623 C135.667 623 109 528.667 109 350 C109 205.922 123.052 93 147 93 C149.667 93 154 97.3333 162 104 L162 291 Z " /><g transform="translate(456,0)" ><path fill="black" d="M-355 -221 L-355 -213 C-352.349 -181.187 -348 -98.1898 -348 -61 L-253 -61 L-253 -68 C-259.667 -114.667 -276.333 -179.667 -291 -221 L-355 -221 Z " /></g></glyph>
<glyph glyph-name="uni0123" unicode="&#x123;" horiz-adv-x="300" d="M34 -103 C68.6667 -131 102 -144 118 -144 C142 -144 158 -99.6667 158 -17 L158 6 C158 26 159 52.6667 159 70 L157 70 C135.667 12.6667 120.333 -10 107 -10 C47 -10 12 94.3333 12 269 C12 445.182 50.5628 554 104 554 C119.333 554 137.667 527.333 159 474 L165 474 L174 543 L262 543 L262 0 C262 -161.333 217 -245 125 -245 C90.3333 -245 64.6667 -233.333 34 -208 L34 -103 Z M82 606 L82 614 C88.6667 659.333 104.667 720.667 122 766 L186 766 L186 757 C180.667 710.333 178.333 644.667 177 606 L82 606 Z M161 272 C161 400 155.667 453 145 453 C129 453 124 388 124 268 C124 152 127.333 92 146 92 C150 92 161 137.333 161 252 L161 272 Z " />
<glyph glyph-name="Hcircumflex" unicode="&#x124;" horiz-adv-x="300" >
<path fill="black" d="M11 0 L11 714 L115 714 L115 421 L157 421 L157 714 L261 714 L261 0 L157 0 L157 316 L115 316 L115 0 L11 0 Z " /><g transform="translate(1,171)" ><path fill="black" d="M42 606 L42 618 C60.6926 660.726 79.9885 725.943 88 766 L181 766 C191.667 722 203.333 664.667 226 618 L226 606 L168 606 C160 630 149.667 659.333 135 694 C116.333 659.333 108.667 627.333 102 606 L42 606 Z " /></g></glyph>
<glyph glyph-name="hcircumflex" unicode="&#x125;" horiz-adv-x="300" >
<path fill="black" d="M14 0 L14 760 L118 760 L118 572 C118 537.333 116.667 504.333 110 471 L116 471 C130.667 521.667 151.333 554 174 554 C224.667 554 259 488.333 259 355 L259 0 L156 0 L156 323 C156 405.667 161 450 137 450 C113 450 118 388 118 280 L118 0 L14 0 Z " /><g transform="translate(-69,217)" ><path fill="black" d="M42 606 L42 618 C60.6926 660.726 79.9885 725.943 88 766 L181 766 C191.667 722 203.333 664.667 226 618 L226 606 L168 606 C160 630 149.667 659.333 135 694 C116.333 659.333 108.667 627.333 102 606 L42 606 Z " /></g></glyph>
<glyph glyph-name="Hbar" unicode="&#x126;" horiz-adv-x="300" d="M15 526 L5 526 L5 609 L15 609 L15 714 L119 714 L119 609 L149 609 L149 714 L254 714 L254 609 L264 609 L264 526 L254 526 L254 0 L149 0 L149 316 L119 316 L119 0 L15 0 L15 526 Z M149 421 L149 526 L119 526 L119 421 L149 421 Z " />
<glyph glyph-name="hbar" unicode="&#x127;" horiz-adv-x="300" d="M13 596 L5 596 L5 676 L13 676 L13 760 L117 760 L117 676 L165 676 L165 596 L117 596 L117 567 C117 532.333 114 499 110 467 L116 467 C130.667 516.333 150.333 549 173 549 C223.667 549 259 483.333 259 350 L259 0 L155 0 L155 318 C155 400.667 160.333 445 135 445 C112.333 445 117 383.333 117 274 L117 0 L13 0 L13 596 Z " />
<glyph glyph-name="Itilde" unicode="&#x128;" horiz-adv-x="300" >
<path fill="black" d="M17 83 L85 96 L85 619 L17 631 L17 714 L254 714 L254 631 L188 619 L188 96 L254 83 L254 0 L17 0 L17 83 Z " /><g transform="translate(-1,171)" ><path fill="black" d="M47 610 C47 672.9 51.2035 747 94 747 C121 747 144 693 163 693 C172.333 693 169 712 173 748 L223 748 C220.333 656 201.667 611 175 611 C149.458 611 119.68 666 107 666 C100.333 666 99.6667 648.667 97 610 L47 610 Z " /></g></glyph>
<glyph glyph-name="itilde" unicode="&#x129;" horiz-adv-x="270" >
<path fill="black" d="M20 83 L88 97 L88 445 L32 456 L32 543 L191 543 L191 97 L245 83 L245 0 L20 0 L20 83 Z " /><g transform="translate(-1,0)" ><path fill="black" d="M47 610 C47 672.9 51.2035 747 94 747 C121 747 144 693 163 693 C172.333 693 169 712 173 748 L223 748 C220.333 656 201.667 611 175 611 C149.458 611 119.68 666 107 666 C100.333 666 99.6667 648.667 97 610 L47 610 Z " /></g></glyph>
<glyph glyph-name="Imacron" unicode="&#x12a;" horiz-adv-x="300" >
<path fill="black" d="M17 83 L85 96 L85 619 L17 631 L17 714 L254 714 L254 631 L188 619 L188 96 L254 83 L254 0 L17 0 L17 83 Z " /><g transform="translate(6,155)" ><path fill="black" d="M52 715 L206 715 L206 636 L52 636 L52 715 Z " /></g></glyph>
<glyph glyph-name="imacron" unicode="&#x12b;" horiz-adv-x="270" >
<path fill="black" d="M20 83 L88 97 L88 445 L32 456 L32 543 L191 543 L191 97 L245 83 L245 0 L20 0 L20 83 Z " /><g transform="translate(6,-16)" ><path fill="black" d="M52 715 L206 715 L206 636 L52 636 L52 715 Z " /></g></glyph>
<glyph glyph-name="Ibreve" unicode="&#x12c;" horiz-adv-x="300" >
<path fill="black" d="M17 83 L85 96 L85 619 L17 631 L17 714 L254 714 L254 631 L188 619 L188 96 L254 83 L254 0 L17 0 L17 83 Z " /><g transform="translate(1,171)" ><path fill="black" d="M109 756 C109 708.667 117.333 685 134 685 C148.667 685 159.333 706.667 162 756 L219 756 C221.667 664 186 609 134 609 C84.6667 609 50 658.667 50 756 L109 756 Z " /></g></glyph>
<glyph glyph-name="ibreve" unicode="&#x12d;" horiz-adv-x="270" >
<path fill="black" d="M20 83 L88 97 L88 445 L32 456 L32 543 L191 543 L191 97 L245 83 L245 0 L20 0 L20 83 Z " /><g transform="translate(1,0)" ><path fill="black" d="M109 756 C109 708.667 117.333 685 134 685 C148.667 685 159.333 706.667 162 756 L219 756 C221.667 664 186 609 134 609 C84.6667 609 50 658.667 50 756 L109 756 Z " /></g></glyph>
<glyph glyph-name="Iogonek" unicode="&#x12e;" horiz-adv-x="300" d="M227 -220 C217.667 -227.333 204.667 -231 188 -231 C140 -231 119 -195.333 119 -134 C119 -87.3333 128.333 -40 151 0 L22 0 L22 83 L90 96 L90 619 L22 631 L22 714 L259 714 L259 631 L193 619 L193 96 L259 83 L259 0 L210 0 C188.667 -45.3333 192 -76.6667 192 -110 C192 -140.667 200.333 -158 211 -158 C220.333 -158 223 -153.667 227 -151 L227 -220 Z " />
<glyph glyph-name="iogonek" unicode="&#x12f;" horiz-adv-x="300" d="M219 -220 C209.667 -227.333 196.667 -231 180 -231 C132 -231 111 -195.333 111 -134 C111 -87.3333 120.333 -40 143 0 L25 0 L25 83 L93 97 L93 445 L37 456 L37 543 L196 543 L196 97 L250 83 L250 0 L202 0 C180.667 -45.3333 184 -76.6667 184 -110 C184 -140.667 192.333 -158 203 -158 C212.333 -158 215 -153.667 219 -151 L219 -220 Z M144 623 C110.667 623 87 648.667 87 698 C87 748.667 108 773 144 773 C174.667 773 198 748.667 198 698 C198 648.667 172 623 144 623 Z " />
<glyph glyph-name="Idotaccent" unicode="&#x130;" horiz-adv-x="300" >
<path fill="black" d="M17 83 L85 96 L85 619 L17 631 L17 714 L254 714 L254 631 L188 619 L188 96 L254 83 L254 0 L17 0 L17 83 Z " /><g transform="translate(-1,805)" ><path fill="black" d="M136 -12 C102.667 -12 79 13.6667 79 63 C79 113.667 100 138 136 138 C166.667 138 190 113.667 190 63 C190 13.6667 164 -12 136 -12 Z " /></g></glyph>
<glyph glyph-name="dotlessi" unicode="&#x131;" horiz-adv-x="270" d="M20 83 L88 97 L88 445 L32 456 L32 543 L191 543 L191 97 L245 83 L245 0 L20 0 L20 83 Z " />
<glyph glyph-name="IJ" unicode="&#x132;" horiz-adv-x="300" d="M28 120 C53.3333 109.333 77.3333 95 88 95 C118.303 95 148 136.948 148 257 L148 714 L251 714 L251 233 C251 81 197.667 -10 107 -10 C85.6667 -10 57.3333 -1.33333 28 16 L28 120 Z M27 199 L27 714 L130 714 L130 199 L27 199 Z " />
<glyph glyph-name="ij" unicode="&#x133;" horiz-adv-x="300" d="M59 -125 C83 -135.667 98.6667 -144 112 -144 C137.333 -144 144 -111.667 144 -41 L144 543 L247 543 L247 -53 C247 -182.333 218.667 -245 132 -245 C109.333 -245 89.6667 -238.333 59 -225 L59 -125 Z M26 543 L129 543 L129 0 L26 0 L26 543 Z M78 622 C43.3333 622 21 647 21 695 C21 743 43.3333 767 78 767 C111.333 767 130 747 134 707 C136.667 747 157.667 767 191 767 C227 767 250 743 250 695 C250 648.333 225.667 622 191 622 C157.667 622 136.667 643 134 683 C130 642.333 111.333 622 78 622 Z " />
<glyph glyph-name="Jcircumflex" unicode="&#x134;" horiz-adv-x="300" >
<path fill="black" d="M22 115 C43.3333 99 61.3333 92 64 92 C102.667 92 138 141.333 138 248 L138 714 L241 714 L241 224 C241 87.9481 181 -10 77 -10 C55.6667 -10 37.3333 -1.33333 22 16 L22 115 Z " /><g transform="translate(53,171)" ><path fill="black" d="M42 606 L42 618 C60.6926 660.726 79.9885 725.943 88 766 L181 766 C191.667 722 203.333 664.667 226 618 L226 606 L168 606 C160 630 149.667 659.333 135 694 C116.333 659.333 108.667 627.333 102 606 L42 606 Z " /></g></glyph>
<glyph glyph-name="jcircumflex" unicode="&#x135;" horiz-adv-x="271" >
<path fill="black" d="M16 -125 C42.6667 -135.667 70.3333 -144 81 -144 C106.333 -144 110 -113 110 -41 L110 444 L34 456 L34 543 L214 543 L214 -53 C214 -185 184 -245 96 -245 C77.3333 -245 46.6667 -238.333 16 -225 L16 -125 Z " /><g transform="translate(24,0)" ><path fill="black" d="M42 606 L42 618 C60.6926 660.726 79.9885 725.943 88 766 L181 766 C191.667 722 203.333 664.667 226 618 L226 606 L168 606 C160 630 149.667 659.333 135 694 C116.333 659.333 108.667 627.333 102 606 L42 606 Z " /></g></glyph>
<glyph glyph-name="uni0136" unicode="&#x136;" horiz-adv-x="300" >
<path fill="black" d="M14 0 L14 714 L107 714 L107 362 C116.333 396.667 130.333 431.667 137 477 L167 714 L269 714 L199 394 L270 0 L163 0 L128 311 L107 249 L107 0 L14 0 Z " /><g transform="translate(438,0)" ><path fill="black" d="M-355 -221 L-355 -213 C-352.349 -181.187 -348 -98.1898 -348 -61 L-253 -61 L-253 -68 C-259.667 -114.667 -276.333 -179.667 -291 -221 L-355 -221 Z " /></g></glyph>
<glyph glyph-name="uni0137" unicode="&#x137;" horiz-adv-x="300" >
<path fill="black" d="M11 0 L11 760 L103 760 L103 425 C103 378.333 98.6667 335 96 287 L97 287 C105 311 116.667 333.333 122 360 L161 543 L269 543 L178 297 L268 0 L158 0 L113 225 L103 189 L103 0 L11 0 Z " /><g transform="translate(433,0)" ><path fill="black" d="M-355 -221 L-355 -213 C-352.349 -181.187 -348 -98.1898 -348 -61 L-253 -61 L-253 -68 C-259.667 -114.667 -276.333 -179.667 -291 -221 L-355 -221 Z " /></g></glyph>
<glyph glyph-name="kgreenlandic" unicode="&#x138;" horiz-adv-x="300" d="M2 543 L103 543 L103 429 C103 383.667 99.6667 339.667 97 293 C107.667 318.333 116.667 339.667 122 365 L154 543 L271 543 L180 295 L270 0 L148 0 L107 221 L103 187 L103 0 L2 0 L2 543 Z " />
<glyph glyph-name="Lacute" unicode="&#x139;" horiz-adv-x="300" >
<path fill="black" d="M257 106 L257 0 L26 0 L26 714 L132 714 L132 106 L257 106 Z " /><g transform="translate(-44,171)" ><path fill="black" d="M76 606 L76 618 C90.6667 672.667 96.3333 720.667 103 766 L215 766 L215 757 C204.238 716.643 165.5 646.312 144 606 L76 606 Z " /></g></glyph>
<glyph glyph-name="lacute" unicode="&#x13a;" horiz-adv-x="300" >
<path fill="black" d="M20 83 L84 97 L84 667 L30 677 L30 760 L187 760 L187 97 L245 83 L245 0 L20 0 L20 83 Z " /><g transform="translate(12,217)" ><path fill="black" d="M76 606 L76 618 C90.6667 672.667 96.3333 720.667 103 766 L215 766 L215 757 C204.238 716.643 165.5 646.312 144 606 L76 606 Z " /></g></glyph>
<glyph glyph-name="uni013B" unicode="&#x13b;" horiz-adv-x="300" >
<path fill="black" d="M257 106 L257 0 L26 0 L26 714 L132 714 L132 106 L257 106 Z " /><g transform="translate(448,0)" ><path fill="black" d="M-355 -221 L-355 -213 C-352.349 -181.187 -348 -98.1898 -348 -61 L-253 -61 L-253 -68 C-259.667 -114.667 -276.333 -179.667 -291 -221 L-355 -221 Z " /></g></glyph>
<glyph glyph-name="uni013C" unicode="&#x13c;" horiz-adv-x="300" >
<path fill="black" d="M20 83 L84 97 L84 667 L30 677 L30 760 L187 760 L187 97 L245 83 L245 0 L20 0 L20 83 Z " /><g transform="translate(438,0)" ><path fill="black" d="M-355 -221 L-355 -213 C-352.349 -181.187 -348 -98.1898 -348 -61 L-253 -61 L-253 -68 C-259.667 -114.667 -276.333 -179.667 -291 -221 L-355 -221 Z " /></g></glyph>
<glyph glyph-name="Lcaron" unicode="&#x13d;" horiz-adv-x="300" >
<g transform="translate(-2,0)" ><path fill="black" d="M257 106 L257 0 L26 0 L26 714 L132 714 L132 106 L257 106 Z " /></g><g transform="translate(575,775)" ><path fill="black" d="M-355 -221 L-355 -213 C-352.349 -181.187 -348 -98.1898 -348 -61 L-253 -61 L-253 -68 C-259.667 -114.667 -276.333 -179.667 -291 -221 L-355 -221 Z " /></g></glyph>
<glyph glyph-name="lcaron" unicode="&#x13e;" horiz-adv-x="300" >
<g transform="translate(-2,0)" ><path fill="black" d="M20 83 L84 97 L84 667 L30 677 L30 760 L187 760 L187 97 L245 83 L245 0 L20 0 L20 83 Z " /></g><g transform="translate(624,821)" ><path fill="black" d="M-355 -221 L-355 -213 C-352.349 -181.187 -348 -98.1898 -348 -61 L-253 -61 L-253 -68 C-259.667 -114.667 -276.333 -179.667 -291 -221 L-355 -221 Z " /></g></glyph>
<glyph glyph-name="Ldot" unicode="&#x13f;" horiz-adv-x="300" >
<g transform="translate(5,0)" ><path fill="black" d="M257 106 L257 0 L26 0 L26 714 L132 714 L132 106 L257 106 Z " /></g><g transform="translate(134,330)" ><path fill="black" d="M136 -12 C102.667 -12 79 13.6667 79 63 C79 113.667 100 138 136 138 C166.667 138 190 113.667 190 63 C190 13.6667 164 -12 136 -12 Z " /></g></glyph>
<glyph glyph-name="ldot" unicode="&#x140;" horiz-adv-x="300" >
<path fill="black" d="M20 83 L84 97 L84 667 L30 677 L30 760 L187 760 L187 97 L245 83 L245 0 L20 0 L20 83 Z " /><g transform="translate(141,336)" ><path fill="black" d="M136 -12 C102.667 -12 79 13.6667 79 63 C79 113.667 100 138 136 138 C166.667 138 190 113.667 190 63 C190 13.6667 164 -12 136 -12 Z " /></g></glyph>
<glyph glyph-name="Lslash" unicode="&#x141;" horiz-adv-x="300" d="M26 284 L0 260 L0 350 L26 373 L26 714 L132 714 L132 469 L208 537 L208 448 L132 379 L132 106 L257 106 L257 0 L26 0 L26 284 Z " />
<glyph glyph-name="lslash" unicode="&#x142;" horiz-adv-x="300" d="M25 83 L89 97 L89 307 L37 260 L37 350 L89 397 L89 667 L35 677 L35 760 L192 760 L192 490 L244 537 L244 448 L192 401 L192 97 L250 83 L250 0 L25 0 L25 83 Z " />
<glyph glyph-name="Nacute" unicode="&#x143;" horiz-adv-x="300" >
<path fill="black" d="M17 0 L17 714 L137 714 L182 100 L186 100 C183.333 142.669 177 233.898 177 299 L177 714 L255 714 L255 0 L136 0 L88 618 L85 618 C86.3333 543.333 94 479.667 94 405 L94 0 L17 0 Z " /><g transform="translate(15,171)" ><path fill="black" d="M76 606 L76 618 C90.6667 672.667 96.3333 720.667 103 766 L215 766 L215 757 C204.238 716.643 165.5 646.312 144 606 L76 606 Z " /></g></glyph>
<glyph glyph-name="nacute" unicode="&#x144;" horiz-adv-x="300" >
<path fill="black" d="M14 0 L14 543 L100 543 L112 475 L116 475 C133.333 527.667 153 554 175 554 C228.333 554 259 493.667 259 355 L259 0 L156 0 L156 340 C156 420 153 456 141 456 C118.333 456 118 402.667 118 288 L118 0 L14 0 Z " /><g transform="translate(21,0)" ><path fill="black" d="M76 606 L76 618 C90.6667 672.667 96.3333 720.667 103 766 L215 766 L215 757 C204.238 716.643 165.5 646.312 144 606 L76 606 Z " /></g></glyph>
<glyph glyph-name="uni0145" unicode="&#x145;" horiz-adv-x="300" >
<path fill="black" d="M17 0 L17 714 L137 714 L182 100 L186 100 C183.333 142.669 177 233.898 177 299 L177 714 L255 714 L255 0 L136 0 L88 618 L85 618 C86.3333 543.333 94 479.667 94 405 L94 0 L17 0 Z " /><g transform="translate(435,0)" ><path fill="black" d="M-355 -221 L-355 -213 C-352.349 -181.187 -348 -98.1898 -348 -61 L-253 -61 L-253 -68 C-259.667 -114.667 -276.333 -179.667 -291 -221 L-355 -221 Z " /></g></glyph>
<glyph glyph-name="uni0146" unicode="&#x146;" horiz-adv-x="300" >
<path fill="black" d="M14 0 L14 543 L100 543 L112 475 L116 475 C133.333 527.667 153 554 175 554 C228.333 554 259 493.667 259 355 L259 0 L156 0 L156 340 C156 420 153 456 141 456 C118.333 456 118 402.667 118 288 L118 0 L14 0 Z " /><g transform="translate(436,0)" ><path fill="black" d="M-355 -221 L-355 -213 C-352.349 -181.187 -348 -98.1898 -348 -61 L-253 -61 L-253 -68 C-259.667 -114.667 -276.333 -179.667 -291 -221 L-355 -221 Z " /></g></glyph>
<glyph glyph-name="Ncaron" unicode="&#x147;" horiz-adv-x="300" >
<path fill="black" d="M17 0 L17 714 L137 714 L182 100 L186 100 C183.333 142.669 177 233.898 177 299 L177 714 L255 714 L255 0 L136 0 L88 618 L85 618 C86.3333 543.333 94 479.667 94 405 L94 0 L17 0 Z " /><g transform="translate(3,171)" ><path fill="black" d="M88 606 C79.7988 647.006 58.0924 712.087 42 755 L42 766 L101 766 C110.333 743.333 120 712.667 136 678 C152 716.667 158.333 738 169 766 L228 766 L228 755 C214.897 715.69 190.914 648.207 183 606 L88 606 Z " /></g></glyph>
<glyph glyph-name="ncaron" unicode="&#x148;" horiz-adv-x="300" >
<path fill="black" d="M14 0 L14 543 L100 543 L112 475 L116 475 C133.333 527.667 153 554 175 554 C228.333 554 259 493.667 259 355 L259 0 L156 0 L156 340 C156 420 153 456 141 456 C118.333 456 118 402.667 118 288 L118 0 L14 0 Z " /><g transform="translate(9,0)" ><path fill="black" d="M88 606 C79.7988 647.006 58.0924 712.087 42 755 L42 766 L101 766 C110.333 743.333 120 712.667 136 678 C152 716.667 158.333 738 169 766 L228 766 L228 755 C214.897 715.69 190.914 648.207 183 606 L88 606 Z " /></g></glyph>
<glyph glyph-name="napostrophe" unicode="&#x149;" horiz-adv-x="300" d="M18 502 L9 455 L-72 455 C-66.6765 529.53 -57 646.339 -57 714 L43 714 L46 703 C40 647 33 593.667 25 543 L104 543 L117 471 L123 471 C138.333 526.333 156.667 554 178 554 C227.333 554 259 493.667 259 355 L259 0 L155 0 L155 329 C155 413 150.667 450 136 450 C118.667 450 123 390.667 123 268 L123 0 L18 0 L18 502 Z " />
<glyph glyph-name="Eng" unicode="&#x14a;" horiz-adv-x="300" d="M100 -110 C108.667 -116.667 117.333 -120 126 -120 C154 -120 171 -84 171 0 L136 0 L88 618 L85 618 C86.3333 543.333 94 479.667 94 405 L94 0 L17 0 L17 714 L137 714 L182 100 L186 100 C183.333 142.669 177 233.898 177 299 L177 714 L255 714 L255 0 L253 0 C253 -133.333 218 -203 142 -203 C128 -203 114 -199.333 100 -192 L100 -110 Z " />
<glyph glyph-name="eng" unicode="&#x14b;" horiz-adv-x="300" d="M108 -135 C116 -141 122.667 -144 128 -144 C134.229 -144 71.7809 -104.95 96 0 L14 0 L14 543 L100 543 L112 475 L116 475 C133.333 527.667 153 554 175 554 C228.333 554 259 493.667 259 355 L259 0 L252 0 L252 -69 C252 -169.182 224.048 -240 151 -240 C137.667 -240 123.333 -236.667 108 -230 L108 -135 Z M127 80 L156 135 L156 340 C156 420 153 456 141 456 C118.333 456 118 402.667 118 288 L118 62 L127 80 Z " />
<glyph glyph-name="Omacron" unicode="&#x14c;" horiz-adv-x="300" >
<path fill="black" d="M135 -9 C47.0779 -9 4 142.433 4 360 C4 594.667 38 726 134 726 C226.156 726 266 578.26 266 358 C266 139.411 222.922 -9 135 -9 Z M136 95 C160 95 161 191.333 161 358 C161 532.667 157.667 622 135 622 C112.333 622 110 527 110 359 C110 192.333 113.333 95 136 95 Z " /><g transform="translate(6,155)" ><path fill="black" d="M52 715 L206 715 L206 636 L52 636 L52 715 Z " /></g></glyph>
<glyph glyph-name="omacron" unicode="&#x14d;" horiz-adv-x="300" >
<path fill="black" d="M135 -10 C43.3636 -10 7 111.333 7 274 C7 441.896 47.8225 554 133 554 C202.411 554 262 452.61 262 273 C262 111.381 231.13 -10 135 -10 Z M134 90 C147.333 90 154 151.667 154 273 C154 394.333 143.333 454 134 454 C122 454 116 393.667 116 273 C116 153 123.333 90 134 90 Z " /><g transform="translate(6,-16)" ><path fill="black" d="M52 715 L206 715 L206 636 L52 636 L52 715 Z " /></g></glyph>
<glyph glyph-name="Obreve" unicode="&#x14e;" horiz-adv-x="300" >
<path fill="black" d="M135 -9 C47.0779 -9 4 142.433 4 360 C4 594.667 38 726 134 726 C226.156 726 266 578.26 266 358 C266 139.411 222.922 -9 135 -9 Z M136 95 C160 95 161 191.333 161 358 C161 532.667 157.667 622 135 622 C112.333 622 110 527 110 359 C110 192.333 113.333 95 136 95 Z " /><g transform="translate(1,171)" ><path fill="black" d="M109 756 C109 708.667 117.333 685 134 685 C148.667 685 159.333 706.667 162 756 L219 756 C221.667 664 186 609 134 609 C84.6667 609 50 658.667 50 756 L109 756 Z " /></g></glyph>
<glyph glyph-name="obreve" unicode="&#x14f;" horiz-adv-x="300" >
<path fill="black" d="M135 -10 C43.3636 -10 7 111.333 7 274 C7 441.896 47.8225 554 133 554 C202.411 554 262 452.61 262 273 C262 111.381 231.13 -10 135 -10 Z M134 90 C147.333 90 154 151.667 154 273 C154 394.333 143.333 454 134 454 C122 454 116 393.667 116 273 C116 153 123.333 90 134 90 Z " /><g transform="translate(1,0)" ><path fill="black" d="M109 756 C109 708.667 117.333 685 134 685 C148.667 685 159.333 706.667 162 756 L219 756 C221.667 664 186 609 134 609 C84.6667 609 50 658.667 50 756 L109 756 Z " /></g></glyph>
<glyph glyph-name="Ohungarumlaut" unicode="&#x150;" horiz-adv-x="300" d="M135 -9 C47.0779 -9 4 142.433 4 360 C4 594.667 38 726 134 726 C226.156 726 266 578.26 266 358 C266 139.411 222.922 -9 135 -9 Z M136 95 C160 95 161 191.333 161 358 C161 532.667 157.667 622 135 622 C112.333 622 110 527 110 359 C110 192.333 113.333 95 136 95 Z M60 776 L60 788 C76.0182 841.394 86.3284 906.612 89 936 L176 936 L176 927 C165.731 885.925 128.614 812.075 108 776 L60 776 Z M151 776 L151 788 C167.018 841.394 177.328 906.612 180 936 L267 936 L267 927 C256.731 885.925 219.614 812.075 199 776 L151 776 Z " />
<glyph glyph-name="ohungarumlaut" unicode="&#x151;" horiz-adv-x="300" d="M135 -10 C43.3636 -10 7 111.333 7 274 C7 441.896 47.8225 554 133 554 C202.411 554 262 452.61 262 273 C262 111.381 231.13 -10 135 -10 Z M60 605 L60 617 C76.0182 670.394 86.3284 735.612 89 765 L176 765 L176 756 C165.731 714.925 128.614 641.075 108 605 L60 605 Z M151 605 L151 617 C167.018 670.394 177.328 735.612 180 765 L267 765 L267 756 C256.731 714.925 219.614 641.075 199 605 L151 605 Z M134 90 C147.333 90 154 151.667 154 273 C154 394.333 143.333 454 134 454 C122 454 116 393.667 116 273 C116 153 123.333 90 134 90 Z " />
<glyph glyph-name="OE" unicode="&#x152;" horiz-adv-x="300" d="M258 106 L258 0 L135 0 C121.667 -7.33333 109 -11 97 -11 C18.619 -11 4 135.974 4 360 C4 577.671 23.3853 725 90 725 C100.667 725 112.333 720.667 131 714 L258 714 L258 608 L223 608 L223 424 L248 424 L248 318 L223 318 L223 106 L258 106 Z M133 613 C125 623.667 117.333 625 108 625 C101.333 625 98 524 98 356 C98 186.667 95.6667 93 105 93 C115.667 93 123.667 94 133 102 L133 613 Z " />
<glyph glyph-name="oe" unicode="&#x153;" horiz-adv-x="300" d="M259 26 C244.333 2 227 -10 207 -10 C187 -10 163.333 17 146 77 C128.667 17 112.333 -10 91 -10 C31 -10 11 86.3333 11 273 C11 459.667 24 551 88 551 C109.333 551 129.333 525.667 144 463 C156 521.667 171.667 551 191 551 C248.152 551 264 448.745 264 294 L264 245 L183 245 C184.333 134.333 196 79 218 79 C232 79 245.667 91 259 115 L259 26 Z M94 80 C106 80 105 147.667 105 273 C105 399.667 104.667 462 94 462 C83.3333 462 83 402.333 83 273 C83 149 83.3333 80 94 80 Z M198 326 C198 420.667 192.333 461 187 461 C181.667 461 178 402 178 326 L198 326 Z " />
<glyph glyph-name="Racute" unicode="&#x154;" horiz-adv-x="300" >
<path fill="black" d="M23 0 L23 714 L122 714 C205.333 714 247 645.667 247 509 C247 405 235.667 344 205 312 L264 0 L164 0 L126 285 L114 285 L114 0 L23 0 Z M114 378 L118 378 C146 378 157 419 157 503 C157 585.667 145 621 121 621 L114 621 L114 378 Z " /><g transform="translate(12,171)" ><path fill="black" d="M76 606 L76 618 C90.6667 672.667 96.3333 720.667 103 766 L215 766 L215 757 C204.238 716.643 165.5 646.312 144 606 L76 606 Z " /></g></glyph>
<glyph glyph-name="racute" unicode="&#x155;" horiz-adv-x="300" >
<path fill="black" d="M8 83 L53 97 L53 445 L9 456 L9 543 L129 543 L138 450 L144 450 C156 511.333 180 554 216 554 C226.667 554 241.333 549.333 264 536 L236 420 C225.333 430.667 209.667 434 199 434 C168.333 434 152 369 152 273 L152 97 L210 83 L210 0 L8 0 L8 83 Z " /><g transform="translate(16,0)" ><path fill="black" d="M76 606 L76 618 C90.6667 672.667 96.3333 720.667 103 766 L215 766 L215 757 C204.238 716.643 165.5 646.312 144 606 L76 606 Z " /></g></glyph>
<glyph glyph-name="uni0156" unicode="&#x156;" horiz-adv-x="300" >
<path fill="black" d="M23 0 L23 714 L122 714 C205.333 714 247 645.667 247 509 C247 405 235.667 344 205 312 L264 0 L164 0 L126 285 L114 285 L114 0 L23 0 Z M114 378 L118 378 C146 378 157 419 157 503 C157 585.667 145 621 121 621 L114 621 L114 378 Z " /><g transform="translate(440,0)" ><path fill="black" d="M-355 -221 L-355 -213 C-352.349 -181.187 -348 -98.1898 -348 -61 L-253 -61 L-253 -68 C-259.667 -114.667 -276.333 -179.667 -291 -221 L-355 -221 Z " /></g></glyph>
<glyph glyph-name="uni0157" unicode="&#x157;" horiz-adv-x="300" >
<path fill="black" d="M8 83 L53 97 L53 445 L9 456 L9 543 L129 543 L138 450 L144 450 C156 511.333 180 554 216 554 C226.667 554 241.333 549.333 264 536 L236 420 C225.333 430.667 209.667 434 199 434 C168.333 434 152 369 152 273 L152 97 L210 83 L210 0 L8 0 L8 83 Z " /><g transform="translate(407,0)" ><path fill="black" d="M-355 -221 L-355 -213 C-352.349 -181.187 -348 -98.1898 -348 -61 L-253 -61 L-253 -68 C-259.667 -114.667 -276.333 -179.667 -291 -221 L-355 -221 Z " /></g></glyph>
<glyph glyph-name="Rcaron" unicode="&#x158;" horiz-adv-x="300" >
<path fill="black" d="M23 0 L23 714 L122 714 C205.333 714 247 645.667 247 509 C247 405 235.667 344 205 312 L264 0 L164 0 L126 285 L114 285 L114 0 L23 0 Z M114 378 L118 378 C146 378 157 419 157 503 C157 585.667 145 621 121 621 L114 621 L114 378 Z " /><g transform="translate(0,171)" ><path fill="black" d="M88 606 C79.7988 647.006 58.0924 712.087 42 755 L42 766 L101 766 C110.333 743.333 120 712.667 136 678 C152 716.667 158.333 738 169 766 L228 766 L228 755 C214.897 715.69 190.914 648.207 183 606 L88 606 Z " /></g></glyph>
<glyph glyph-name="rcaron" unicode="&#x159;" horiz-adv-x="300" >
<path fill="black" d="M8 83 L53 97 L53 445 L9 456 L9 543 L129 543 L138 450 L144 450 C156 511.333 180 554 216 554 C226.667 554 241.333 549.333 264 536 L236 420 C225.333 430.667 209.667 434 199 434 C168.333 434 152 369 152 273 L152 97 L210 83 L210 0 L8 0 L8 83 Z " /><g transform="translate(4,0)" ><path fill="black" d="M88 606 C79.7988 647.006 58.0924 712.087 42 755 L42 766 L101 766 C110.333 743.333 120 712.667 136 678 C152 716.667 158.333 738 169 766 L228 766 L228 755 C214.897 715.69 190.914 648.207 183 606 L88 606 Z " /></g></glyph>
<glyph glyph-name="Sacute" unicode="&#x15a;" horiz-adv-x="300" >
<path fill="black" d="M21 142 C53 111.333 80.6667 93 114 93 C148.719 93 148 139.359 148 190 C148 254.1 132.399 278.401 96 320 C50.4241 373.619 18 422.608 18 533 C18 658.333 64 725 144 725 C182.667 725 215 710.333 251 681 L220 584 C193.333 610.667 173.333 623 148 623 C125.333 623 123 587 123 535 C123 475.326 131.35 452.981 166 413 C224.02 349.706 252 312.199 252 197 C252 57 202 -10 118 -10 C82 -10 49.6667 3 21 29 L21 142 Z " /><g transform="translate(17,171)" ><path fill="black" d="M76 606 L76 618 C90.6667 672.667 96.3333 720.667 103 766 L215 766 L215 757 C204.238 716.643 165.5 646.312 144 606 L76 606 Z " /></g></glyph>
<glyph glyph-name="sacute" unicode="&#x15b;" horiz-adv-x="300" >
<path fill="black" d="M25 130 C49 106 91 89 123 89 C145.667 89 146 114.333 146 149 C146 183.714 144.698 194.639 94 240 C47.3333 281.333 23 323.333 23 402 C23 500.667 65 554 145 554 C181 554 213 542.667 253 516 L221 425 C186.333 447.667 168.333 456 151 456 C132.333 456 130 435.667 130 405 C130 370.333 141.667 352.667 183 318 C239.06 269.949 252 242.039 252 154 C252 46 209 -10 117 -10 C82.3333 -10 53 1.66667 25 23 L25 130 Z " /><g transform="translate(18,0)" ><path fill="black" d="M76 606 L76 618 C90.6667 672.667 96.3333 720.667 103 766 L215 766 L215 757 C204.238 716.643 165.5 646.312 144 606 L76 606 Z " /></g></glyph>
<glyph glyph-name="Scircumflex" unicode="&#x15c;" horiz-adv-x="300" >
<path fill="black" d="M21 142 C53 111.333 80.6667 93 114 93 C148.719 93 148 139.359 148 190 C148 254.1 132.399 278.401 96 320 C50.4241 373.619 18 422.608 18 533 C18 658.333 64 725 144 725 C182.667 725 215 710.333 251 681 L220 584 C193.333 610.667 173.333 623 148 623 C125.333 623 123 587 123 535 C123 475.326 131.35 452.981 166 413 C224.02 349.706 252 312.199 252 197 C252 57 202 -10 118 -10 C82 -10 49.6667 3 21 29 L21 142 Z " /><g transform="translate(5,171)" ><path fill="black" d="M42 606 L42 618 C60.6926 660.726 79.9885 725.943 88 766 L181 766 C191.667 722 203.333 664.667 226 618 L226 606 L168 606 C160 630 149.667 659.333 135 694 C116.333 659.333 108.667 627.333 102 606 L42 606 Z " /></g></glyph>
<glyph glyph-name="scircumflex" unicode="&#x15d;" horiz-adv-x="300" >
<path fill="black" d="M25 130 C49 106 91 89 123 89 C145.667 89 146 114.333 146 149 C146 183.714 144.698 194.639 94 240 C47.3333 281.333 23 323.333 23 402 C23 500.667 65 554 145 554 C181 554 213 542.667 253 516 L221 425 C186.333 447.667 168.333 456 151 456 C132.333 456 130 435.667 130 405 C130 370.333 141.667 352.667 183 318 C239.06 269.949 252 242.039 252 154 C252 46 209 -10 117 -10 C82.3333 -10 53 1.66667 25 23 L25 130 Z " /><g transform="translate(6,0)" ><path fill="black" d="M42 606 L42 618 C60.6926 660.726 79.9885 725.943 88 766 L181 766 C191.667 722 203.333 664.667 226 618 L226 606 L168 606 C160 630 149.667 659.333 135 694 C116.333 659.333 108.667 627.333 102 606 L42 606 Z " /></g></glyph>
<glyph glyph-name="Scedilla" unicode="&#x15e;" horiz-adv-x="300" d="M92 -168 C101.333 -172 109 -174 115 -174 C127 -174 129 -157.333 129 -132 C129 -100 118 -86.3333 102 -81 L115 -10 C80.3333 -8.66667 49 4.33333 21 29 L21 142 C53 111.333 80.6667 93 114 93 C148.719 93 148 139.359 148 190 C148 254.1 132.399 278.401 96 320 C50.4241 373.619 18 422.608 18 533 C18 658.333 64 725 144 725 C182.667 725 215 710.333 251 681 L220 584 C193.333 610.667 173.333 623 148 623 C125.333 623 123 587 123 535 C123 475.326 131.35 452.981 166 413 C224.02 349.706 252 312.199 252 197 C252 86.3333 221 21.6667 165 -1 L162 -44 C189.333 -56 203 -87.3333 203 -138 C203 -202 180 -240 132 -240 C117.333 -240 102.667 -238.333 92 -233 L92 -168 Z " />
<glyph glyph-name="scedilla" unicode="&#x15f;" horiz-adv-x="300" d="M99 -168 C108.333 -172 116 -174 122 -174 C134 -174 136 -157.333 136 -132 C136 -100 125 -86.3333 109 -81 L122 -10 L117 -10 C82.3333 -10 53 1.66667 25 23 L25 130 C49 106 91 89 123 89 C145.667 89 146 114.333 146 149 C146 183.714 144.698 194.639 94 240 C47.3333 281.333 23 323.333 23 402 C23 500.667 65 554 145 554 C181 554 213 542.667 253 516 L221 425 C186.333 447.667 168.333 456 151 456 C132.333 456 130 435.667 130 405 C130 370.333 141.667 352.667 183 318 C239.06 269.949 252 242.039 252 154 C252 69.3333 225.333 17.6667 172 -1 L169 -44 C196.333 -56 210 -87.3333 210 -138 C210 -202 187 -240 139 -240 C124.333 -240 109.667 -238.333 99 -233 L99 -168 Z " />
<glyph glyph-name="Scaron" unicode="&#x160;" horiz-adv-x="300" >
<path fill="black" d="M21 142 C53 111.333 80.6667 93 114 93 C148.719 93 148 139.359 148 190 C148 254.1 132.399 278.401 96 320 C50.4241 373.619 18 422.608 18 533 C18 658.333 64 725 144 725 C182.667 725 215 710.333 251 681 L220 584 C193.333 610.667 173.333 623 148 623 C125.333 623 123 587 123 535 C123 475.326 131.35 452.981 166 413 C224.02 349.706 252 312.199 252 197 C252 57 202 -10 118 -10 C82 -10 49.6667 3 21 29 L21 142 Z " /><g transform="translate(5,171)" ><path fill="black" d="M88 606 C79.7988 647.006 58.0924 712.087 42 755 L42 766 L101 766 C110.333 743.333 120 712.667 136 678 C152 716.667 158.333 738 169 766 L228 766 L228 755 C214.897 715.69 190.914 648.207 183 606 L88 606 Z " /></g></glyph>
<glyph glyph-name="scaron" unicode="&#x161;" horiz-adv-x="300" >
<path fill="black" d="M25 130 C49 106 91 89 123 89 C145.667 89 146 114.333 146 149 C146 183.714 144.698 194.639 94 240 C47.3333 281.333 23 323.333 23 402 C23 500.667 65 554 145 554 C181 554 213 542.667 253 516 L221 425 C186.333 447.667 168.333 456 151 456 C132.333 456 130 435.667 130 405 C130 370.333 141.667 352.667 183 318 C239.06 269.949 252 242.039 252 154 C252 46 209 -10 117 -10 C82.3333 -10 53 1.66667 25 23 L25 130 Z " /><g transform="translate(6,0)" ><path fill="black" d="M88 606 C79.7988 647.006 58.0924 712.087 42 755 L42 766 L101 766 C110.333 743.333 120 712.667 136 678 C152 716.667 158.333 738 169 766 L228 766 L228 755 C214.897 715.69 190.914 648.207 183 606 L88 606 Z " /></g></glyph>
<glyph glyph-name="uni0162" unicode="&#x162;" horiz-adv-x="300" d="M93 -168 C102.333 -172 110 -174 116 -174 C128 -174 130 -157.333 130 -132 C130 -100 119 -86.3333 103 -81 L118 0 L84 0 L84 609 L9 609 L9 714 L262 714 L262 609 L188 609 L188 0 L166 0 L163 -44 C190.333 -56 204 -87.3333 204 -138 C204 -202 181 -240 133 -240 C118.333 -240 103.667 -238.333 93 -233 L93 -168 Z " />
<glyph glyph-name="uni0163" unicode="&#x163;" horiz-adv-x="300" d="M121 -168 C130.333 -172 138 -174 144 -174 C156 -174 158 -157.333 158 -132 C158 -100 147 -86.3333 131 -81 L145 -7 C98.3333 5 60 58 60 166 L60 444 L-3 444 L-3 505 L67 545 L101 679 L165 679 L165 543 L266 543 L266 444 L164 444 L164 187 C164 115.052 189.437 93 200 93 C210.667 93 233.333 96.6667 264 110 L264 11 C244 1.66667 217 -5.33333 193 -8 L191 -44 C218.333 -56 232 -87.3333 232 -138 C232 -202 209 -240 161 -240 C146.333 -240 131.667 -238.333 121 -233 L121 -168 Z " />
<glyph glyph-name="Tcaron" unicode="&#x164;" horiz-adv-x="300" >
<path fill="black" d="M84 0 L84 609 L9 609 L9 714 L262 714 L262 609 L188 609 L188 0 L84 0 Z " /><g transform="translate(0,171)" ><path fill="black" d="M88 606 C79.7988 647.006 58.0924 712.087 42 755 L42 766 L101 766 C110.333 743.333 120 712.667 136 678 C152 716.667 158.333 738 169 766 L228 766 L228 755 C214.897 715.69 190.914 648.207 183 606 L88 606 Z " /></g></glyph>
<glyph glyph-name="tcaron" unicode="&#x165;" horiz-adv-x="300" >
<g transform="translate(5,0)" ><path fill="black" d="M60 444 L-3 444 L-3 505 L67 545 L101 679 L165 679 L165 543 L266 543 L266 444 L164 444 L164 187 C164 115.052 189.437 93 200 93 C210.667 93 233.333 96.6667 264 110 L264 11 C236 -2.33333 195 -10 167 -10 C112.671 -10 60 40.5628 60 166 L60 444 Z " /></g><g transform="translate(634,821)" ><path fill="black" d="M-355 -221 L-355 -213 C-352.349 -181.187 -348 -98.1898 -348 -61 L-253 -61 L-253 -68 C-259.667 -114.667 -276.333 -179.667 -291 -221 L-355 -221 Z " /></g></glyph>
<glyph glyph-name="Tbar" unicode="&#x166;" horiz-adv-x="300" d="M84 311 L52 311 L52 400 L84 400 L84 609 L9 609 L9 714 L262 714 L262 609 L188 609 L188 400 L217 400 L217 311 L188 311 L188 0 L84 0 L84 311 Z " />
<glyph glyph-name="tbar" unicode="&#x167;" horiz-adv-x="300" d="M60 256 L-3 256 L-3 337 L60 337 L60 444 L-3 444 L-3 505 L67 545 L101 679 L165 679 L165 543 L266 543 L266 444 L164 444 L164 337 L265 337 L265 256 L164 256 L164 187 C164 115.052 189.437 93 200 93 C210.667 93 233.333 96.6667 264 110 L264 11 C236 -2.33333 195 -10 167 -10 C112.671 -10 60 40.5628 60 166 L60 256 Z " />
<glyph glyph-name="Utilde" unicode="&#x168;" horiz-adv-x="300" >
<path fill="black" d="M11 714 L116 714 L116 255 C116 140.333 112 94 136 94 C163.662 94 155 142.251 155 256 L155 714 L261 714 L261 247 C261 72.3333 234.333 -10 137 -10 C41 -10 11 72.3333 11 247 L11 714 Z " /><g transform="translate(0,171)" ><path fill="black" d="M47 610 C47 672.9 51.2035 747 94 747 C121 747 144 693 163 693 C172.333 693 169 712 173 748 L223 748 C220.333 656 201.667 611 175 611 C149.458 611 119.68 666 107 666 C100.333 666 99.6667 648.667 97 610 L47 610 Z " /></g></glyph>
<glyph glyph-name="utilde" unicode="&#x169;" horiz-adv-x="300" >
<path fill="black" d="M157 72 L152 72 C134.667 17.3333 113 -10 93 -10 C43.6667 -10 11 51 11 183 L11 543 L116 543 L116 213 C116 125 117.333 91 136 91 C156 91 153 146 153 266 L153 543 L257 543 L257 0 L171 0 L157 72 Z " /><g transform="translate(-1,0)" ><path fill="black" d="M47 610 C47 672.9 51.2035 747 94 747 C121 747 144 693 163 693 C172.333 693 169 712 173 748 L223 748 C220.333 656 201.667 611 175 611 C149.458 611 119.68 666 107 666 C100.333 666 99.6667 648.667 97 610 L47 610 Z " /></g></glyph>
<glyph glyph-name="Umacron" unicode="&#x16a;" horiz-adv-x="300" >
<path fill="black" d="M11 714 L116 714 L116 255 C116 140.333 112 94 136 94 C163.662 94 155 142.251 155 256 L155 714 L261 714 L261 247 C261 72.3333 234.333 -10 137 -10 C41 -10 11 72.3333 11 247 L11 714 Z " /><g transform="translate(7,155)" ><path fill="black" d="M52 715 L206 715 L206 636 L52 636 L52 715 Z " /></g></glyph>
<glyph glyph-name="umacron" unicode="&#x16b;" horiz-adv-x="300" >
<path fill="black" d="M157 72 L152 72 C134.667 17.3333 113 -10 93 -10 C43.6667 -10 11 51 11 183 L11 543 L116 543 L116 213 C116 125 117.333 91 136 91 C156 91 153 146 153 266 L153 543 L257 543 L257 0 L171 0 L157 72 Z " /><g transform="translate(6,-16)" ><path fill="black" d="M52 715 L206 715 L206 636 L52 636 L52 715 Z " /></g></glyph>
<glyph glyph-name="Ubreve" unicode="&#x16c;" horiz-adv-x="300" >
<path fill="black" d="M11 714 L116 714 L116 255 C116 140.333 112 94 136 94 C163.662 94 155 142.251 155 256 L155 714 L261 714 L261 247 C261 72.3333 234.333 -10 137 -10 C41 -10 11 72.3333 11 247 L11 714 Z " /><g transform="translate(2,171)" ><path fill="black" d="M109 756 C109 708.667 117.333 685 134 685 C148.667 685 159.333 706.667 162 756 L219 756 C221.667 664 186 609 134 609 C84.6667 609 50 658.667 50 756 L109 756 Z " /></g></glyph>
<glyph glyph-name="ubreve" unicode="&#x16d;" horiz-adv-x="300" >
<path fill="black" d="M157 72 L152 72 C134.667 17.3333 113 -10 93 -10 C43.6667 -10 11 51 11 183 L11 543 L116 543 L116 213 C116 125 117.333 91 136 91 C156 91 153 146 153 266 L153 543 L257 543 L257 0 L171 0 L157 72 Z " /><g transform="translate(1,0)" ><path fill="black" d="M109 756 C109 708.667 117.333 685 134 685 C148.667 685 159.333 706.667 162 756 L219 756 C221.667 664 186 609 134 609 C84.6667 609 50 658.667 50 756 L109 756 Z " /></g></glyph>
<glyph glyph-name="Uring" unicode="&#x16e;" horiz-adv-x="300" >
<path fill="black" d="M11 714 L116 714 L116 255 C116 140.333 112 94 136 94 C163.662 94 155 142.251 155 256 L155 714 L261 714 L261 247 C261 72.3333 234.333 -10 137 -10 C41 -10 11 72.3333 11 247 L11 714 Z " /><g transform="translate(2,171)" ><path fill="black" d="M135 602 C87 602 61 649 61 717 C61 782.333 88.3333 829 135 829 C179 829 207 783.667 207 717 C207 649 181.667 602 135 602 Z M135 665 C145.667 665 153 685 153 717 C153 746.333 147 767 135 767 C124.333 767 116 747.667 116 717 C116 685 124.333 665 135 665 Z " /></g></glyph>
<glyph glyph-name="uring" unicode="&#x16f;" horiz-adv-x="300" >
<path fill="black" d="M157 72 L152 72 C134.667 17.3333 113 -10 93 -10 C43.6667 -10 11 51 11 183 L11 543 L116 543 L116 213 C116 125 117.333 91 136 91 C156 91 153 146 153 266 L153 543 L257 543 L257 0 L171 0 L157 72 Z " /><g transform="translate(1,0)" ><path fill="black" d="M135 602 C87 602 61 649 61 717 C61 782.333 88.3333 829 135 829 C179 829 207 783.667 207 717 C207 649 181.667 602 135 602 Z M135 665 C145.667 665 153 685 153 717 C153 746.333 147 767 135 767 C124.333 767 116 747.667 116 717 C116 685 124.333 665 135 665 Z " /></g></glyph>
<glyph glyph-name="Uhungarumlaut" unicode="&#x170;" horiz-adv-x="300" d="M11 714 L116 714 L116 255 C116 140.333 112 94 136 94 C163.662 94 155 142.251 155 256 L155 714 L261 714 L261 247 C261 72.3333 234.333 -10 137 -10 C41 -10 11 72.3333 11 247 L11 714 Z M61 776 L61 788 C77.0182 841.394 87.3284 906.612 90 936 L177 936 L177 927 C166.731 885.925 129.614 812.075 109 776 L61 776 Z M152 776 L152 788 C168.018 841.394 178.328 906.612 181 936 L268 936 L268 927 C257.731 885.925 220.614 812.075 200 776 L152 776 Z " />
<glyph glyph-name="uhungarumlaut" unicode="&#x171;" horiz-adv-x="300" d="M157 72 L152 72 C134.667 17.3333 113 -10 93 -10 C43.6667 -10 11 51 11 183 L11 543 L116 543 L116 213 C116 125 117.333 91 136 91 C156 91 153 146 153 266 L153 543 L257 543 L257 0 L171 0 L157 72 Z M60 605 L60 617 C76.0182 670.394 86.3284 735.612 89 765 L176 765 L176 756 C165.731 714.925 128.614 641.075 108 605 L60 605 Z M151 605 L151 617 C167.018 670.394 177.328 735.612 180 765 L267 765 L267 756 C256.731 714.925 219.614 641.075 199 605 L151 605 Z " />
<glyph glyph-name="Uogonek" unicode="&#x172;" horiz-adv-x="300" d="M191 -220 C182.333 -227.333 169.333 -231 152 -231 C105.333 -231 83 -195 83 -135 C83 -85.6667 97.3333 -43.6667 120 -9 C36 1.66667 11 81.6667 11 247 L11 714 L116 714 L116 255 C116 140.333 112 94 136 94 C163.662 94 155 142.251 155 256 L155 714 L261 714 L261 247 C261 112.333 244.667 34.6667 194 4 C168.667 -34.6667 156 -69.3333 156 -112 C156 -138.667 162.333 -158 177 -158 C183.667 -158 188.333 -153.667 191 -151 L191 -220 Z " />
<glyph glyph-name="uogonek" unicode="&#x173;" horiz-adv-x="300" d="M162 72 L157 72 C139.667 17.3333 118 -10 98 -10 C48.6667 -10 16 51 16 183 L16 543 L121 543 L121 213 C121 125 122.333 91 141 91 C161 91 158 146 158 266 L158 543 L262 543 L262 3 L272 0 C250.667 -45.3333 254 -76.6667 254 -110 C254 -140.667 262.333 -158 273 -158 C282.333 -158 285 -153.667 289 -151 L289 -220 C279.667 -227.333 266.667 -231 250 -231 C202 -231 181 -195.333 181 -134 C181 -87.3333 190.333 -40 213 0 L176 0 L162 72 Z " />
<glyph glyph-name="Wcircumflex" unicode="&#x174;" horiz-adv-x="300" >
<path fill="black" d="M8 0 L4 714 L86 714 C82 610 76 509 76 405 C76 347.111 79 185.222 79 106 L82 106 C84.6236 158.472 95 265.794 95 322 L92 543 L178 543 L179 321 C179 256.889 188.328 156.777 191 106 L194 106 C194 186.554 197.641 350.543 195 406 C191 508.667 187.667 610 181 714 L266 714 L264 0 L144 0 L143 267 C141.667 323 138 378.333 138 417 L134 417 C134 378.333 130 323 130 267 L129 0 L8 0 Z " /><g transform="translate(0,171)" ><path fill="black" d="M42 606 L42 618 C60.6926 660.726 79.9885 725.943 88 766 L181 766 C191.667 722 203.333 664.667 226 618 L226 606 L168 606 C160 630 149.667 659.333 135 694 C116.333 659.333 108.667 627.333 102 606 L42 606 Z " /></g></glyph>
<glyph glyph-name="wcircumflex" unicode="&#x175;" horiz-adv-x="300" >
<path fill="black" d="M25 0 L5 542 L83 542 L77 270 C77 221.673 76 144.562 76 108 L78 108 C78 142.234 81.2911 209.367 84 250 L97 456 L170 456 L182 250 C184.674 207.223 187.325 141.777 190 107 L192 107 C192 143.673 191 216.895 191 268 L185 542 L264 542 L242 0 L143 0 L140 187 C138.667 237.667 136.667 292.333 134 343 L132 343 C129.333 293.667 125.333 236.667 124 186 L120 0 L25 0 Z " /><g transform="translate(-1,-1)" ><path fill="black" d="M42 606 L42 618 C60.6926 660.726 79.9885 725.943 88 766 L181 766 C191.667 722 203.333 664.667 226 618 L226 606 L168 606 C160 630 149.667 659.333 135 694 C116.333 659.333 108.667 627.333 102 606 L42 606 Z " /></g></glyph>
<glyph glyph-name="Ycircumflex" unicode="&#x176;" horiz-adv-x="300" >
<path fill="black" d="M81 0 L81 275 L0 714 L114 714 L133 391 L154 714 L266 714 L182 275 L182 0 L81 0 Z " /><g transform="translate(-1,171)" ><path fill="black" d="M42 606 L42 618 C60.6926 660.726 79.9885 725.943 88 766 L181 766 C191.667 722 203.333 664.667 226 618 L226 606 L168 606 C160 630 149.667 659.333 135 694 C116.333 659.333 108.667 627.333 102 606 L42 606 Z " /></g></glyph>
<glyph glyph-name="ycircumflex" unicode="&#x177;" horiz-adv-x="300" >
<path fill="black" d="M11 -142 C19 -146 27.6667 -148 37 -148 C59.3549 -148 92.3335 -130.662 95 -48 L96 -3 L-6 543 L108 543 L130 258 C134 211.333 138.333 172.667 141 138 L144 138 C144 171.333 149.333 216.333 152 259 L166 543 L281 543 L192 -58 C173.333 -184.667 126 -245 54 -245 C39.3333 -245 25 -242.333 11 -237 L11 -142 Z " /><g transform="translate(4,0)" ><path fill="black" d="M42 606 L42 618 C60.6926 660.726 79.9885 725.943 88 766 L181 766 C191.667 722 203.333 664.667 226 618 L226 606 L168 606 C160 630 149.667 659.333 135 694 C116.333 659.333 108.667 627.333 102 606 L42 606 Z " /></g></glyph>
<glyph glyph-name="Ydieresis" unicode="&#x178;" horiz-adv-x="300" >
<g transform="translate(0,157)" ><path fill="black" d="M81 621 C57 621 38 643.333 38 686 C38 727.333 57 748 81 748 C105 748 124 726 124 686 C124 643.333 105 621 81 621 Z M188 621 C164 621 145 643.333 145 686 C145 727.333 164 748 188 748 C212 748 231 726 231 686 C231 643.333 212 621 188 621 Z " /></g><path fill="black" d="M81 0 L81 275 L0 714 L114 714 L133 391 L154 714 L266 714 L182 275 L182 0 L81 0 Z " /></glyph>
<glyph glyph-name="Zacute" unicode="&#x179;" horiz-adv-x="300" >
<path fill="black" d="M18 88 L141 609 L18 609 L18 714 L254 714 L254 627 L138 105 L252 105 L252 0 L18 0 L18 88 Z " /><g transform="translate(15,171)" ><path fill="black" d="M76 606 L76 618 C90.6667 672.667 96.3333 720.667 103 766 L215 766 L215 757 C204.238 716.643 165.5 646.312 144 606 L76 606 Z " /></g></glyph>
<glyph glyph-name="zacute" unicode="&#x17a;" horiz-adv-x="300" >
<path fill="black" d="M17 77 L125 445 L18 445 L18 543 L244 543 L244 455 L145 100 L254 100 L254 0 L17 0 L17 77 Z " /><g transform="translate(8,0)" ><path fill="black" d="M76 606 L76 618 C90.6667 672.667 96.3333 720.667 103 766 L215 766 L215 757 C204.238 716.643 165.5 646.312 144 606 L76 606 Z " /></g></glyph>
<glyph glyph-name="Zdotaccent" unicode="&#x17b;" horiz-adv-x="300" >
<path fill="black" d="M18 88 L141 609 L18 609 L18 714 L254 714 L254 627 L138 105 L252 105 L252 0 L18 0 L18 88 Z " /><g transform="translate(2,805)" ><path fill="black" d="M136 -12 C102.667 -12 79 13.6667 79 63 C79 113.667 100 138 136 138 C166.667 138 190 113.667 190 63 C190 13.6667 164 -12 136 -12 Z " /></g></glyph>
<glyph glyph-name="zdotaccent" unicode="&#x17c;" horiz-adv-x="300" >
<path fill="black" d="M17 77 L125 445 L18 445 L18 543 L244 543 L244 455 L145 100 L254 100 L254 0 L17 0 L17 77 Z " /><g transform="translate(-5,634)" ><path fill="black" d="M136 -12 C102.667 -12 79 13.6667 79 63 C79 113.667 100 138 136 138 C166.667 138 190 113.667 190 63 C190 13.6667 164 -12 136 -12 Z " /></g></glyph>
<glyph glyph-name="Zcaron" unicode="&#x17d;" horiz-adv-x="300" >
<path fill="black" d="M18 88 L141 609 L18 609 L18 714 L254 714 L254 627 L138 105 L252 105 L252 0 L18 0 L18 88 Z " /><g transform="translate(3,171)" ><path fill="black" d="M88 606 C79.7988 647.006 58.0924 712.087 42 755 L42 766 L101 766 C110.333 743.333 120 712.667 136 678 C152 716.667 158.333 738 169 766 L228 766 L228 755 C214.897 715.69 190.914 648.207 183 606 L88 606 Z " /></g></glyph>
<glyph glyph-name="zcaron" unicode="&#x17e;" horiz-adv-x="300" >
<path fill="black" d="M17 77 L125 445 L18 445 L18 543 L244 543 L244 455 L145 100 L254 100 L254 0 L17 0 L17 77 Z " /><g transform="translate(-4,0)" ><path fill="black" d="M88 606 C79.7988 647.006 58.0924 712.087 42 755 L42 766 L101 766 C110.333 743.333 120 712.667 136 678 C152 716.667 158.333 738 169 766 L228 766 L228 755 C214.897 715.69 190.914 648.207 183 606 L88 606 Z " /></g></glyph>
<glyph glyph-name="longs" unicode="&#x17f;" horiz-adv-x="300" d="M67 0 L67 568 C67 705.333 98 765 170 765 C191.333 765 209.667 760.333 239 747 L217 659 C206.333 665.667 196.667 670 186 670 C178 670 172 644.333 172 559 L172 0 L67 0 Z " />
<glyph glyph-name="florin" unicode="&#x192;" horiz-adv-x="300" d="M30 -138 C40.6667 -144.667 49.6667 -148 57 -148 C79.6667 -148 87 -120 87 -60 L87 393 L34 393 L34 453 L87 485 L87 533 C87 666.333 117 724 185 724 C210.333 724 226.333 718 253 702 L232 619 C221.333 627 215 632 207 632 C192.333 632 185 605 185 537 L185 483 L247 483 L247 393 L185 393 L185 -46 C185 -178 156.333 -240 79 -240 C57.6667 -240 44.6667 -235.667 30 -229 L30 -138 Z " />
<glyph glyph-name="uni0218" unicode="&#x218;" horiz-adv-x="300" >
<path fill="black" d="M21 142 C53 111.333 80.6667 93 114 93 C148.719 93 148 139.359 148 190 C148 254.1 132.399 278.401 96 320 C50.4241 373.619 18 422.608 18 533 C18 658.333 64 725 144 725 C182.667 725 215 710.333 251 681 L220 584 C193.333 610.667 173.333 623 148 623 C125.333 623 123 587 123 535 C123 475.326 131.35 452.981 166 413 C224.02 349.706 252 312.199 252 197 C252 57 202 -10 118 -10 C82 -10 49.6667 3 21 29 L21 142 Z " /><g transform="translate(434,0)" ><path fill="black" d="M-355 -221 L-355 -213 C-352.349 -181.187 -348 -98.1898 -348 -61 L-253 -61 L-253 -68 C-259.667 -114.667 -276.333 -179.667 -291 -221 L-355 -221 Z " /></g></glyph>
<glyph glyph-name="uni0219" unicode="&#x219;" horiz-adv-x="300" >
<path fill="black" d="M25 130 C49 106 91 89 123 89 C145.667 89 146 114.333 146 149 C146 183.714 144.698 194.639 94 240 C47.3333 281.333 23 323.333 23 402 C23 500.667 65 554 145 554 C181 554 213 542.667 253 516 L221 425 C186.333 447.667 168.333 456 151 456 C132.333 456 130 435.667 130 405 C130 370.333 141.667 352.667 183 318 C239.06 269.949 252 242.039 252 154 C252 46 209 -10 117 -10 C82.3333 -10 53 1.66667 25 23 L25 130 Z " /><g transform="translate(441,0)" ><path fill="black" d="M-355 -221 L-355 -213 C-352.349 -181.187 -348 -98.1898 -348 -61 L-253 -61 L-253 -68 C-259.667 -114.667 -276.333 -179.667 -291 -221 L-355 -221 Z " /></g></glyph>
<glyph glyph-name="uni021A" unicode="&#x21a;" horiz-adv-x="300" >
<path fill="black" d="M84 0 L84 609 L9 609 L9 714 L262 714 L262 609 L188 609 L188 0 L84 0 Z " /><g transform="translate(435,0)" ><path fill="black" d="M-355 -221 L-355 -213 C-352.349 -181.187 -348 -98.1898 -348 -61 L-253 -61 L-253 -68 C-259.667 -114.667 -276.333 -179.667 -291 -221 L-355 -221 Z " /></g></glyph>
<glyph glyph-name="uni021B" unicode="&#x21b;" horiz-adv-x="300" >
<path fill="black" d="M60 444 L-3 444 L-3 505 L67 545 L101 679 L165 679 L165 543 L266 543 L266 444 L164 444 L164 187 C164 115.052 189.437 93 200 93 C210.667 93 233.333 96.6667 264 110 L264 11 C236 -2.33333 195 -10 167 -10 C112.671 -10 60 40.5628 60 166 L60 444 Z " /><g transform="translate(463,0)" ><path fill="black" d="M-355 -221 L-355 -213 C-352.349 -181.187 -348 -98.1898 -348 -61 L-253 -61 L-253 -68 C-259.667 -114.667 -276.333 -179.667 -291 -221 L-355 -221 Z " /></g></glyph>
<glyph glyph-name="uni0237" unicode="&#x237;" horiz-adv-x="271" d="M16 -125 C42.6667 -135.667 70.3333 -144 81 -144 C106.333 -144 110 -113 110 -41 L110 444 L34 456 L34 543 L214 543 L214 -53 C214 -185 184 -245 96 -245 C77.3333 -245 46.6667 -238.333 16 -225 L16 -125 Z " />
<glyph glyph-name="circumflex" unicode="&#x2c6;" horiz-adv-x="300" d="M42 606 L42 618 C60.6926 660.726 79.9885 725.943 88 766 L181 766 C191.667 722 203.333 664.667 226 618 L226 606 L168 606 C160 630 149.667 659.333 135 694 C116.333 659.333 108.667 627.333 102 606 L42 606 Z " />
<glyph glyph-name="caron" unicode="&#x2c7;" horiz-adv-x="300" d="M88 606 C79.7988 647.006 58.0924 712.087 42 755 L42 766 L101 766 C110.333 743.333 120 712.667 136 678 C152 716.667 158.333 738 169 766 L228 766 L228 755 C214.897 715.69 190.914 648.207 183 606 L88 606 Z " />
<glyph glyph-name="uni02C9" unicode="&#x2c9;" horiz-adv-x="300" >
<g transform="translate(6,-15)" ><path fill="black" d="M52 715 L206 715 L206 636 L52 636 L52 715 Z " /></g></glyph>
<glyph glyph-name="breve" unicode="&#x2d8;" horiz-adv-x="300" d="M109 756 C109 708.667 117.333 685 134 685 C148.667 685 159.333 706.667 162 756 L219 756 C221.667 664 186 609 134 609 C84.6667 609 50 658.667 50 756 L109 756 Z " />
<glyph glyph-name="dotaccent" unicode="&#x2d9;" horiz-adv-x="300" >
<g transform="translate(-2,635)" ><path fill="black" d="M136 -12 C102.667 -12 79 13.6667 79 63 C79 113.667 100 138 136 138 C166.667 138 190 113.667 190 63 C190 13.6667 164 -12 136 -12 Z " /></g></glyph>
<glyph glyph-name="ring" unicode="&#x2da;" horiz-adv-x="300" d="M135 602 C87 602 61 649 61 717 C61 782.333 88.3333 829 135 829 C179 829 207 783.667 207 717 C207 649 181.667 602 135 602 Z M135 665 C145.667 665 153 685 153 717 C153 746.333 147 767 135 767 C124.333 767 116 747.667 116 717 C116 685 124.333 665 135 665 Z " />
<glyph glyph-name="ogonek" unicode="&#x2db;" horiz-adv-x="300" d="M189 -220 C179.667 -227.333 166.667 -231 150 -231 C102 -231 81 -195.333 81 -134 C81 -80.6667 94.3333 -28.6667 121 14 L172 0 C150.667 -45.3333 154 -76.6667 154 -110 C154 -140.667 162.333 -158 173 -158 C182.333 -158 185 -153.667 189 -151 L189 -220 Z " />
<glyph glyph-name="tilde" unicode="&#x2dc;" horiz-adv-x="300" d="M47 610 C47 672.9 51.2035 747 94 747 C121 747 144 693 163 693 C172.333 693 169 712 173 748 L223 748 C220.333 656 201.667 611 175 611 C149.458 611 119.68 666 107 666 C100.333 666 99.6667 648.667 97 610 L47 610 Z " />
<glyph glyph-name="hungarumlaut" unicode="&#x2dd;" horiz-adv-x="300" d="M37 606 L37 618 C53.0182 671.394 63.3284 736.612 66 766 L153 766 L153 757 C142.731 715.925 105.614 642.075 85 606 L37 606 Z M128 606 L128 618 C144.018 671.394 154.328 736.612 157 766 L244 766 L244 757 C233.731 715.925 196.614 642.075 176 606 L128 606 Z " />
<glyph glyph-name="uni0394" unicode="&#x394;" horiz-adv-x="300" d="M9 68 L78 714 L193 714 L262 64 L262 0 L9 0 L9 68 Z M165 91 L141 495 C138.333 533.667 138 579.333 134 618 C134 578 131.667 532.333 129 495 L106 92 L165 91 Z " />
<glyph glyph-name="uni03A9" unicode="&#x3a9;" horiz-adv-x="300" d="M3 99 L52 99 C28 156.333 4 250.667 4 408 C4 616 51 725 135 725 C215 725 265 616.667 265 406 C265 252.667 247 157.667 215 99 L266 99 L266 0 L146 0 L146 102 C160.667 163.333 166 252.333 166 391 C166 544.333 161.667 627 135 627 C108.333 627 104 548.333 104 391 C104 253.667 104.667 162 122 102 L122 0 L3 0 L3 99 Z " />
<glyph glyph-name="uni03BC" unicode="&#x3bc;" horiz-adv-x="300" >
<path fill="black" d="M11 227 L17 227 L17 543 L122 543 L122 213 C122 125 123.333 91 142 91 C162 91 159 146 159 266 L159 543 L263 543 L263 0 L177 0 L163 72 L158 72 C145.333 30.6667 130.333 4.66667 113 -6 L113 -240 L11 -240 L11 227 Z " /></glyph>
<glyph glyph-name="pi" unicode="&#x3c0;" horiz-adv-x="300" d="M40 454 L5 454 L5 501 L39 541 L262 541 L262 454 L225 454 L225 146 C225 100.667 228.667 83 238 83 C244.667 83 251 86.3333 257 93 L257 10 C246.333 -0.666667 228 -8 204 -8 C160 -8 145 40 145 132 L145 454 L121 454 L121 0 L40 0 L40 454 Z " />
<glyph glyph-name="Wgrave" unicode="&#x1e80;" horiz-adv-x="300" >
<path fill="black" d="M8 0 L4 714 L86 714 C82 610 76 509 76 405 C76 347.111 79 185.222 79 106 L82 106 C84.6236 158.472 95 265.794 95 322 L92 543 L178 543 L179 321 C179 256.889 188.328 156.777 191 106 L194 106 C194 186.554 197.641 350.543 195 406 C191 508.667 187.667 610 181 714 L266 714 L264 0 L144 0 L143 267 C141.667 323 138 378.333 138 417 L134 417 C134 378.333 130 323 130 267 L129 0 L8 0 Z " /><g transform="translate(8,171)" ><path fill="black" d="M114 606 C97.8717 638.257 53.7372 716.735 43 757 L43 766 L154 766 C159.392 722.863 176.737 652.208 182 618 L182 606 L114 606 Z " /></g></glyph>
<glyph glyph-name="wgrave" unicode="&#x1e81;" horiz-adv-x="300" >
<path fill="black" d="M25 0 L5 542 L83 542 L77 270 C77 221.673 76 144.562 76 108 L78 108 C78 142.234 81.2911 209.367 84 250 L97 456 L170 456 L182 250 C184.674 207.223 187.325 141.777 190 107 L192 107 C192 143.673 191 216.895 191 268 L185 542 L264 542 L242 0 L143 0 L140 187 C138.667 237.667 136.667 292.333 134 343 L132 343 C129.333 293.667 125.333 236.667 124 186 L120 0 L25 0 Z " /><g transform="translate(7,-1)" ><path fill="black" d="M114 606 C97.8717 638.257 53.7372 716.735 43 757 L43 766 L154 766 C159.392 722.863 176.737 652.208 182 618 L182 606 L114 606 Z " /></g></glyph>
<glyph glyph-name="Wacute" unicode="&#x1e82;" horiz-adv-x="300" >
<path fill="black" d="M8 0 L4 714 L86 714 C82 610 76 509 76 405 C76 347.111 79 185.222 79 106 L82 106 C84.6236 158.472 95 265.794 95 322 L92 543 L178 543 L179 321 C179 256.889 188.328 156.777 191 106 L194 106 C194 186.554 197.641 350.543 195 406 C191 508.667 187.667 610 181 714 L266 714 L264 0 L144 0 L143 267 C141.667 323 138 378.333 138 417 L134 417 C134 378.333 130 323 130 267 L129 0 L8 0 Z " /><g transform="translate(12,171)" ><path fill="black" d="M76 606 L76 618 C90.6667 672.667 96.3333 720.667 103 766 L215 766 L215 757 C204.238 716.643 165.5 646.312 144 606 L76 606 Z " /></g></glyph>
<glyph glyph-name="wacute" unicode="&#x1e83;" horiz-adv-x="300" >
<path fill="black" d="M25 0 L5 542 L83 542 L77 270 C77 221.673 76 144.562 76 108 L78 108 C78 142.234 81.2911 209.367 84 250 L97 456 L170 456 L182 250 C184.674 207.223 187.325 141.777 190 107 L192 107 C192 143.673 191 216.895 191 268 L185 542 L264 542 L242 0 L143 0 L140 187 C138.667 237.667 136.667 292.333 134 343 L132 343 C129.333 293.667 125.333 236.667 124 186 L120 0 L25 0 Z " /><g transform="translate(11,-1)" ><path fill="black" d="M76 606 L76 618 C90.6667 672.667 96.3333 720.667 103 766 L215 766 L215 757 C204.238 716.643 165.5 646.312 144 606 L76 606 Z " /></g></glyph>
<glyph glyph-name="Wdieresis" unicode="&#x1e84;" horiz-adv-x="300" >
<g transform="translate(1,157)" ><path fill="black" d="M81 621 C57 621 38 643.333 38 686 C38 727.333 57 748 81 748 C105 748 124 726 124 686 C124 643.333 105 621 81 621 Z M188 621 C164 621 145 643.333 145 686 C145 727.333 164 748 188 748 C212 748 231 726 231 686 C231 643.333 212 621 188 621 Z " /></g><path fill="black" d="M8 0 L4 714 L86 714 C82 610 76 509 76 405 C76 347.111 79 185.222 79 106 L82 106 C84.6236 158.472 95 265.794 95 322 L92 543 L178 543 L179 321 C179 256.889 188.328 156.777 191 106 L194 106 C194 186.554 197.641 350.543 195 406 C191 508.667 187.667 610 181 714 L266 714 L264 0 L144 0 L143 267 C141.667 323 138 378.333 138 417 L134 417 C134 378.333 130 323 130 267 L129 0 L8 0 Z " /></glyph>
<glyph glyph-name="wdieresis" unicode="&#x1e85;" horiz-adv-x="300" >
<g transform="translate(0,-15)" ><path fill="black" d="M81 621 C57 621 38 643.333 38 686 C38 727.333 57 748 81 748 C105 748 124 726 124 686 C124 643.333 105 621 81 621 Z M188 621 C164 621 145 643.333 145 686 C145 727.333 164 748 188 748 C212 748 231 726 231 686 C231 643.333 212 621 188 621 Z " /></g><path fill="black" d="M25 0 L5 542 L83 542 L77 270 C77 221.673 76 144.562 76 108 L78 108 C78 142.234 81.2911 209.367 84 250 L97 456 L170 456 L182 250 C184.674 207.223 187.325 141.777 190 107 L192 107 C192 143.673 191 216.895 191 268 L185 542 L264 542 L242 0 L143 0 L140 187 C138.667 237.667 136.667 292.333 134 343 L132 343 C129.333 293.667 125.333 236.667 124 186 L120 0 L25 0 Z " /></glyph>
<glyph glyph-name="uni2010" unicode="&#x2010;" horiz-adv-x="270" >
<g transform="translate(5,0)" ><path fill="black" d="M69 323 L200 323 L200 218 L69 218 L69 323 Z " /></g></glyph>
<glyph glyph-name="endash" unicode="&#x2013;" horiz-adv-x="300" d="M45 323 L227 323 L227 218 L45 218 L45 323 Z " />
<glyph glyph-name="emdash" unicode="&#x2014;" horiz-adv-x="300" d="M5 323 L264 323 L264 218 L5 218 L5 323 Z " />
<glyph glyph-name="quoteleft" unicode="&#x2018;" horiz-adv-x="300" >
<g transform="translate(1,0)" ><path fill="black" d="M79 455 L76 466 C86.6667 558 98.3333 642 113 714 L195 714 C186.958 630.904 180 526.385 180 455 L79 455 Z " /></g></glyph>
<glyph glyph-name="quoteright" unicode="&#x2019;" horiz-adv-x="300" >
<g transform="translate(10,589)" ><path fill="black" d="M68 -134 C73.2868 -54.6981 84 53.5652 84 126 L184 126 L188 115 C178.667 24.3333 163.667 -62 149 -134 L68 -134 Z " /></g></glyph>
<glyph glyph-name="quotesinglbase" unicode="&#x201a;" horiz-adv-x="300" >
<g transform="translate(5,0)" ><path fill="black" d="M68 -134 C73.2868 -54.6981 84 53.5652 84 126 L184 126 L188 115 C178.667 24.3333 163.667 -62 149 -134 L68 -134 Z " /></g></glyph>
<glyph glyph-name="quotedblleft" unicode="&#x201c;" horiz-adv-x="300" >
<g transform="translate(-63,0)" ><path fill="black" d="M79 455 L76 466 C86.6667 558 98.3333 642 113 714 L195 714 C186.958 630.904 180 526.385 180 455 L79 455 Z " /></g><g transform="translate(98,0)" ><path fill="black" d="M79 455 L76 466 C86.6667 558 98.3333 642 113 714 L195 714 C186.958 630.904 180 526.385 180 455 L79 455 Z " /></g></glyph>
<glyph glyph-name="quotedblright" unicode="&#x201d;" horiz-adv-x="300" >
<g transform="translate(-108,589)" ><path fill="black" d="M68 -134 C73.2868 -54.6981 84 53.5652 84 126 L184 126 L188 115 C178.667 24.3333 163.667 -62 149 -134 L68 -134 Z " /></g><g transform="translate(53,589)" ><path fill="black" d="M68 -134 C73.2868 -54.6981 84 53.5652 84 126 L184 126 L188 115 C178.667 24.3333 163.667 -62 149 -134 L68 -134 Z " /></g></glyph>
<glyph glyph-name="quotedblbase" unicode="&#x201e;" horiz-adv-x="300" >
<g transform="translate(-100,0)" ><path fill="black" d="M68 -134 C73.2868 -54.6981 84 53.5652 84 126 L184 126 L188 115 C178.667 24.3333 163.667 -62 149 -134 L68 -134 Z " /></g><g transform="translate(69,0)" ><path fill="black" d="M68 -134 C73.2868 -54.6981 84 53.5652 84 126 L184 126 L188 115 C178.667 24.3333 163.667 -62 149 -134 L68 -134 Z " /></g></glyph>
<glyph glyph-name="dagger" unicode="&#x2020;" horiz-adv-x="300" d="M85 0 L103 482 L28 470 L28 565 L103 552 L85 760 L184 760 L166 552 L241 565 L241 470 L166 482 L184 0 L85 0 Z " />
<glyph glyph-name="daggerdbl" unicode="&#x2021;" horiz-adv-x="300" d="M89 0 L107 187 L28 174 L28 269 L107 257 L92 384 L107 503 L28 491 L28 587 L107 574 L89 760 L188 760 L169 574 L241 587 L241 491 L169 503 L184 384 L169 257 L241 269 L241 174 L169 187 L188 0 L89 0 Z " />
<glyph glyph-name="bullet" unicode="&#x2022;" horiz-adv-x="300" d="M134 217 C72.6667 217 37 269 37 365 C37 462.333 71.3333 514 134 514 C198 514 232 461 232 365 C232 269 194 217 134 217 Z " />
<glyph glyph-name="ellipsis" unicode="&#x2026;" horiz-adv-x="300" >
<path fill="black" d="M138 -12 C103.333 -12 79 15 79 63 C79 113.667 102 139 138 139 C171.333 139 193 113.667 193 63 C193 13.6667 170 -12 138 -12 Z " /></glyph>
<glyph glyph-name="perthousand" unicode="&#x2030;" horiz-adv-x="300" d="M65 -168 C14.3333 -168 -13 -86.3333 -13 59 C-13 206.333 12.6667 280 64 280 C92 280 113 258 127 214 C140.333 258 160.667 280 188 280 C238.667 280 270 201.333 270 56 C270 -92 241 -168 189 -168 C162.333 -168 142.333 -145.333 129 -100 C115 -145.333 93.6667 -168 65 -168 Z M131 456 C80.3333 456 53 537.667 53 683 C53 830.333 78.6667 904 130 904 C180.667 904 212 825.333 212 680 C212 532 183 456 131 456 Z M17 370 L243 425 L243 367 L17 312 L17 370 Z M65 -96 C75.6667 -96 82 -48 82 56 C82 160 75.6667 206 65 206 C54.3333 206 52 159.667 52 57 C52 -48.3333 55.6667 -96 65 -96 Z M189 -96 C199.667 -96 206 -48 206 56 C206 160 199.667 206 189 206 C178.333 206 176 159.667 176 57 C176 -48.3333 179.667 -96 189 -96 Z M131 528 C141.667 528 148 576 148 680 C148 784 141.667 830 131 830 C120.333 830 118 783.667 118 681 C118 575.667 121.667 528 131 528 Z " />
<glyph glyph-name="guilsinglleft" unicode="&#x2039;" horiz-adv-x="300" d="M138 56 L60 263 L60 277 L138 484 L210 444 L166 270 L209 97 L138 56 Z " />
<glyph glyph-name="guilsinglright" unicode="&#x203a;" horiz-adv-x="300" d="M122 289 L79 462 L150 503 L228 296 L228 282 L150 75 L78 115 L122 289 Z " />
<glyph glyph-name="fraction" unicode="&#x2044;" horiz-adv-x="300" d="M7 370 L258 425 L258 367 L7 312 L7 370 Z " />
<glyph glyph-name="franc" unicode="&#x20a3;" horiz-adv-x="300" d="M36 122 L11 122 L11 207 L36 207 L36 714 L243 714 L243 608 L141 608 L141 425 L234 425 L234 321 L141 321 L141 207 L217 207 L217 122 L141 122 L141 0 L36 0 L36 122 Z " />
<glyph glyph-name="lira" unicode="&#x20a4;" horiz-adv-x="300" d="M237 99 L237 0 L34 0 L34 94 C52.6667 122 54.3333 157 57 233 L29 233 L29 307 L57 307 L57 382 L29 382 L29 456 L57 456 L57 526 C57 658 97.6667 724 163 724 C189.667 724 217.333 711 244 683 L216 594 C199.333 614.667 185.333 625 174 625 C162 625 159 595.333 159 526 L159 456 L213 456 L213 382 L159 382 L159 307 L213 307 L213 233 L157 233 C151.667 159.667 143.333 125.667 130 99 L237 99 Z " />
<glyph glyph-name="peseta" unicode="&#x20a7;" horiz-adv-x="300" d="M6 714 L127 714 C205.667 714 240 643.333 240 514 C240 468 235 428.333 225 395 L225 321 L265 321 L265 246 L225 246 L225 141 C225 97 227.667 75 233 75 C243.667 75 258.333 80.3333 265 87 L265 12 C254.333 1.33333 238.667 -5 212 -5 C165.333 -5 140 36 140 124 L140 246 L118 246 L118 297 L123 302 L118 302 L107 302 L107 0 L6 0 L6 714 Z M114 402 C126 402 139 431.333 139 510 C139 580 133 615 121 615 L107 615 L107 402 L114 402 Z " />
<glyph glyph-name="Euro" unicode="&#x20ac;" horiz-adv-x="300" d="M25 313 L50 313 L50 351 C50 363 49.6667 375 51 387 L25 387 L25 456 L54 456 C61.9991 605.317 95.2301 725 162 725 C188.667 725 219.333 711.333 250 682 L220 587 C199.333 611.667 181.667 624 167 624 C148.201 624 154.67 554.777 152 456 L199 456 L199 387 L150 387 L150 351 L150 313 L183 313 L183 243 L154 243 C158 137.667 163.667 91 173 91 C191.667 91 211 106 239 126 L239 21 C213.667 -0.333333 183.667 -10 161 -10 C88.8403 -10 63.0051 96.2405 55 243 L25 243 L25 313 Z " />
<glyph glyph-name="uni2113" unicode="&#x2113;" horiz-adv-x="300" d="M55 260 C45.6667 253.333 35 246.333 23 237 L23 320 C33.6667 326.667 44.3333 334.667 55 344 L55 547 C55 664.333 89 723 157 723 C217 723 251 664 251 556 C251 434.667 219 345.667 151 295 L151 176 C151 105.333 152.667 75 162 75 C170 75 173 112 173 180 L249 180 C250.333 46.6667 214 -9 146 -9 C90 -9 55 58.3333 55 181 L55 260 Z M151 381 C161.667 414.333 167 472.333 167 555 C167 612.333 164.333 641 159 641 C151 641 151 620 151 560 L151 381 Z " />
<glyph glyph-name="trademark" unicode="&#x2122;" horiz-adv-x="300" d="M117 367 L117 714 L185 714 L193 559 L200 714 L268 714 L268 367 L219 367 L219 562 C219 582 221 611 221 631 L220 631 L209 482 L175 482 L165 632 L164 632 C165.333 609.333 165 581 165 565 L165 367 L117 367 Z M32 367 L32 654 L9 654 L9 714 L104 714 L104 654 L85 654 L85 367 L32 367 Z " />
<glyph glyph-name="Omega" unicode="&#x2126;" horiz-adv-x="300" >
<g transform="translate(5,0)" ><path fill="black" d="M3 99 L52 99 C28 156.333 4 250.667 4 408 C4 616 51 725 135 725 C215 725 265 616.667 265 406 C265 252.667 247 157.667 215 99 L266 99 L266 0 L146 0 L146 102 C160.667 163.333 166 252.333 166 391 C166 544.333 161.667 627 135 627 C108.333 627 104 548.333 104 391 C104 253.667 104.667 162 122 102 L122 0 L3 0 L3 99 Z " /></g></glyph>
<glyph glyph-name="estimated" unicode="&#x212e;" horiz-adv-x="300" d="M253 119 C228.66 43.2769 197.728 -17 137 -17 C49.9697 -17 5 110.896 5 263 C5 450.636 73.1039 535 137 535 C207.433 535 264 429.563 264 259 L64 259 L64 83 C78.6667 52.3333 101.333 25 136 25 C184 25 212.333 74 235 142 L253 119 Z M64 301 L206 301 L206 436 C192.667 462.667 167.667 494 137 494 C103.667 494 82.6667 469 64 437 L64 301 Z " />
<glyph glyph-name="uni2219" unicode="&#x2219;" horiz-adv-x="270" >
<g transform="translate(10,273)" ><path fill="black" d="M136 -12 C102.667 -12 79 13.6667 79 63 C79 113.667 100 138 136 138 C166.667 138 190 113.667 190 63 C190 13.6667 164 -12 136 -12 Z " /></g></glyph>
<glyph glyph-name="radical" unicode="&#x221a;" horiz-adv-x="300" d="M91 -7 L62 361 L18 361 L18 452 L124 452 L135 146 L178 840 L265 840 L183 -7 L91 -7 Z " />
<glyph glyph-name="infinity" unicode="&#x221e;" horiz-adv-x="300" d="M84 192 C38.6667 192 6 256.667 6 354 C6 443.074 29.2814 514 80 514 C100.667 514 118.667 491 134 445 C148.667 483.667 165 512 189 512 C235.667 512 263 445.667 263 355 C263 260.619 233.416 190 189 190 C166.333 190 146.667 217 132 253 C117.333 211.667 104 192 84 192 Z M91 277 C97.6667 277 99.6667 304.333 109 347 C101 393.667 96 429 88 429 C84 429 83 397 83 353 C83 311.667 80.3333 277 91 277 Z M179 275 C184.333 275 187 308.333 187 351 C187 393.667 185.333 427 180 427 C177.333 427 175.667 399 161 347 C170.333 307 175 275 179 275 Z " />
<glyph glyph-name="approxequal" unicode="&#x2248;" horiz-adv-x="300" >
<g transform="translate(0,-110)" ><path fill="black" d="M243 331 C224.333 297 205.333 280 186 280 C165.333 280 144.333 290 123 310 C104.333 327.333 84.3333 337 75 337 C60.3333 337 44.3333 317.333 27 278 L27 375 C42.3333 409 61 426 83 426 C101.667 426 120.667 414.667 142 396 C162.667 378 180 369 194 369 C208.667 369 228.333 391 243 427 L243 331 Z " /></g><g transform="translate(0,106)" ><path fill="black" d="M243 331 C224.333 297 205.333 280 186 280 C165.333 280 144.333 290 123 310 C104.333 327.333 84.3333 337 75 337 C60.3333 337 44.3333 317.333 27 278 L27 375 C42.3333 409 61 426 83 426 C101.667 426 120.667 414.667 142 396 C162.667 378 180 369 194 369 C208.667 369 228.333 391 243 427 L243 331 Z " /></g></glyph>
<glyph glyph-name="lessequal" unicode="&#x2264;" horiz-adv-x="300" d="M23 361 L23 421 L234 622 L234 522 L138 391 L234 258 L234 158 L23 361 Z M21 0 L21 89 L231 89 L231 0 L21 0 Z " />
<glyph glyph-name="greaterequal" unicode="&#x2265;" horiz-adv-x="300" d="M29 258 L125 391 L29 522 L29 622 L240 421 L240 361 L29 158 L29 258 Z M33 89 L243 89 L243 0 L33 0 L33 89 Z " />
</font>
</svg>
