<?xml version="1.0" encoding="UTF-8"?>
<svg xmlns="http://www.w3.org/2000/svg" xmlns:xlink="http://www.w3.org/1999/xlink" version="1.1" >
<font id="Monoto-4SmCd300Lt" horiz-adv-x="526">
<font-face  font-family="Monoto 4 SmCd" units-per-em="1000" ascent="955" descent="-235" font-style="normal" font-weight="300" font-stretch="semi-condensed" cap-height="714" x-height="533" underline-position="-75" underline-thickness="50" />
<missing-glyph horiz-adv-x="530" d="M45 0 L45 714 L456 714 L456 0 L45 0 Z M405 51 L405 663 L96 663 L96 51 L405 51 Z " />
<glyph glyph-name="uni0000" horiz-adv-x="530" />
<glyph glyph-name="uni000D" unicode="&#xd;" horiz-adv-x="530" />
<glyph glyph-name="space" unicode="&#x20;" horiz-adv-x="530" />
<glyph glyph-name="exclam" unicode="&#x21;" horiz-adv-x="530" d="M230 189 L219 714 L289 714 L278 189 L230 189 Z M253 -12 C223 -12 208 5.66667 208 41 C208 76.3333 223 94 253 94 C283.667 94 299 76.3333 299 41 C299 5.66667 283.667 -12 253 -12 Z " />
<glyph glyph-name="quotedbl" unicode="&#x22;" horiz-adv-x="530" >
<g transform="translate(-80,0)" ><path fill="black" d="M229 456 L217 714 L283 714 L272 456 L229 456 Z " /></g><g transform="translate(80,0)" ><path fill="black" d="M229 456 L217 714 L283 714 L272 456 L229 456 Z " /></g></glyph>
<glyph glyph-name="numbersign" unicode="&#x23;" horiz-adv-x="530" d="M98 0 L128 223 L31 223 L31 270 L134 270 L160 458 L57 458 L57 505 L166 505 L194 714 L241 714 L212 505 L326 505 L355 714 L400 714 L372 505 L470 505 L470 458 L366 458 L341 270 L442 270 L442 223 L335 223 L304 0 L257 0 L288 223 L174 223 L144 0 L98 0 Z M295 270 L320 458 L206 458 L180 270 L295 270 Z " />
<glyph glyph-name="dollar" unicode="&#x24;" horiz-adv-x="530" d="M85 122 C123.667 100.667 182.333 84.6667 241 82 L241 343 C134.257 385.697 78 431.899 78 528 C78 622.667 145 682.333 241 689 L241 760 L279 760 L279 691 C329.667 689 377 677 421 655 L402 608 C364 627.333 323 638 279 640 L279 383 C388.466 337.612 447 294.427 447 201 C447 109 384.333 47 279 35 L279 -58 L241 -58 L241 32 C177 33.3333 122.333 46.6667 85 64 L85 122 Z M279 85 C351 94.3333 395 134 395 198 C395 262 357.667 293.667 279 327 L279 85 Z M130 529 C130 459.667 170.333 431 241 399 L241 639 C174.333 632.333 130 593 130 529 Z " />
<glyph glyph-name="percent" unicode="&#x25;" horiz-adv-x="530" d="M24 168 L413 545 L472 545 L84 168 L24 168 Z M362 -9 C275.333 -9 224 56.6667 224 162 C224 264.667 272.333 330 363 330 C447 330 500 264.667 500 162 C500 56.6667 450 -9 362 -9 Z M138 383 C51.3333 383 0 448.667 0 554 C0 656.667 48.3333 722 139 722 C223 722 276 656.667 276 554 C276 448.667 226 383 138 383 Z M362 32 C422 32 449 79.3333 449 162 C449 242 422 289 362 289 C302 289 275 242 275 162 C275 80.6667 302 32 362 32 Z M138 424 C198 424 225 471.333 225 554 C225 634 198 681 138 681 C78 681 51 634 51 554 C51 472.667 78 424 138 424 Z " />
<glyph glyph-name="ampersand" unicode="&#x26;" horiz-adv-x="530" d="M419 0 L368 77 C325.333 25 271 -10 199 -10 C95.9437 -10 40 66 40 170 C40 267.333 89 331.333 161 390 C121 454 90 514.333 90 581 C90 669 138.667 724 216 724 C290.667 724 337 671 337 579 C337 493.667 291 428.667 231 378 L365 179 C387.667 228.333 399.333 282 402 330 L457 330 C450.333 260.667 432 187 400 127 L485 0 L419 0 Z M190 345 C136.667 298.333 97 246.333 97 169 C97 87.6667 140 41 204 41 C260 41 302.667 75.6667 336 125 L190 345 Z M202 421 C244.667 457 286 507.667 286 581 C286 643.667 260 676 216 676 C169.333 676 143 642 143 582 C143 523.333 172.667 467.667 202 421 Z " />
<glyph glyph-name="quotesingle" unicode="&#x27;" horiz-adv-x="530" d="M229 456 L217 714 L283 714 L272 456 L229 456 Z " />
<glyph glyph-name="parenleft" unicode="&#x28;" horiz-adv-x="530" d="M312 -161 C218.667 -47.6667 169 101.333 169 272 C169 446.667 220 600.667 312 714 L365 714 C270.333 588.667 227 437 227 273 C227 111.667 273 -39.6667 365 -161 L312 -161 Z " />
<glyph glyph-name="parenright" unicode="&#x29;" horiz-adv-x="530" d="M115 -161 C209.667 -35.6667 253 116 253 280 C253 441.333 207 592.667 115 714 L168 714 C261.333 600.667 311 451.667 311 281 C311 106.333 260 -47.6667 168 -161 L115 -161 Z " />
<glyph glyph-name="asterisk" unicode="&#x2a;" horiz-adv-x="530" d="M215 579 L82 605 L94 659 L228 615 L218 760 L277 760 L266 615 L399 660 L411 605 L278 579 L370 459 L323 429 L247 558 L170 429 L123 459 L215 579 Z " />
<glyph glyph-name="plus" unicode="&#x2b;" horiz-adv-x="530" d="M56 377 L222 377 L222 586 L272 586 L272 377 L437 377 L437 328 L272 328 L272 121 L222 121 L222 328 L56 328 L56 377 Z " />
<glyph glyph-name="comma" unicode="&#x2c;" horiz-adv-x="530" d="M180 -130 C204 -42 220.333 41.6667 231 115 L294 115 L300 104 C281.333 28 255.667 -58 225 -130 L180 -130 Z " />
<glyph glyph-name="hyphen" unicode="&#x2d;" horiz-adv-x="530" d="M124 301 L375 301 L375 246 L124 246 L124 301 Z " />
<glyph glyph-name="period" unicode="&#x2e;" horiz-adv-x="530" d="M249 -12 C219 -12 204 5.66667 204 41 C204 76.3333 219 94 249 94 C279.667 94 295 76.3333 295 41 C295 5.66667 279.667 -12 249 -12 Z " />
<glyph glyph-name="slash" unicode="&#x2f;" horiz-adv-x="530" d="M54 -2 L320 716 L375 716 L111 -2 L54 -2 Z " />
<glyph glyph-name="zero" unicode="0" horiz-adv-x="530" d="M250 -9 C108.667 -9 46 127.333 46 358 C46 582.13 99.1299 725 251 725 C399.39 725 454 582.13 454 358 C454 128.745 398.26 -9 250 -9 Z M361 597 C338.333 646.333 304.333 673 251 673 C144.333 673 107 555.359 107 358 C107 290.667 112 233.333 122 186 L361 597 Z M143 121 C167.667 69 203.667 43 251 43 C355 43 394 152.667 394 358 C394 424.667 391.333 481.333 382 528 L143 121 Z " />
<glyph glyph-name="one" unicode="1" horiz-adv-x="530" d="M112 42 L240 49 L240 498 C240 551.333 240.667 610 242 650 C224.667 632.667 213.667 623.667 191 609 L106 549 L76 593 L250 714 L300 714 L300 49 L423 42 L423 0 L112 0 L112 42 Z " />
<glyph glyph-name="two" unicode="2" horiz-adv-x="530" d="M62 51 L224 259 C301.059 357.317 358 428.35 358 533 C358 625 311.333 671 238 671 C187.333 671 136.333 645.333 99 612 L67 654 C115 696.667 175 724 243 724 C351 724 418 654.333 418 537 C418 420.144 356.794 339.643 272 231 L139 60 L139 56 L442 56 L442 0 L62 0 L62 51 Z " />
<glyph glyph-name="three" unicode="3" horiz-adv-x="530" d="M58 86 C102 59.3333 162 43 218 43 C323.333 43 376 102.333 376 197 C376 303.667 310 344 206 344 L149 344 L149 396 L207 396 C299 396 361 451 361 547 C361 627 316 672 236 672 C184 672 136.333 651.667 91 617 L62 660 C108.667 698.667 167 724 239 724 C352.333 724 423 656 423 548 C423 456 370.667 391 292 375 L292 373 C388 357 440 297.333 440 196 C440 75.0823 362.723 -10 217 -10 C161 -10 104.667 1.33333 58 28 L58 86 Z " />
<glyph glyph-name="four" unicode="4" horiz-adv-x="530" d="M44 224 L298 718 L371 718 L371 227 L456 227 L456 171 L371 171 L371 0 L311 0 L311 171 L44 171 L44 224 Z M311 227 L311 478 C311 544.667 311.333 605.333 314 648 L312 648 C297.333 612 280.333 570.333 263 537 L105 227 L311 227 Z " />
<glyph glyph-name="five" unicode="5" horiz-adv-x="530" d="M66 87 C106 60.3333 159.333 43 214 43 C318 43 374 105.667 374 219 C374 321.667 324 380 224 380 C182.667 380 140.333 371 111 363 L81 385 L105 714 L395 714 L395 658 L158 658 L140 419 C166.667 424.333 198.667 432 240 432 C361.333 432 436 358.333 436 225 C436 82.3333 356.667 -10 214 -10 C154 -10 103.333 4 66 28 L66 87 Z " />
<glyph glyph-name="six" unicode="6" horiz-adv-x="530" d="M119 348 C142.985 395.971 186.293 443 269 443 C377 443 439 361 439 225 C439 81.1039 370.234 -11 254 -11 C124.667 -11 56 99.6667 56 309 C56 565.892 146.563 724 320 724 C348 724 377.333 719.667 396 713 L396 659 C374.667 667.667 349.667 672 321 672 C183.952 672 121.333 547.998 116 348 L119 348 Z M255 42 C332.333 42 379 105.333 379 224 C379 328 340.667 393 258 393 C175.281 393 120 324.693 120 242 C120 164.563 150.974 42 255 42 Z " />
<glyph glyph-name="seven" unicode="7" horiz-adv-x="530" d="M134 0 L374 658 L51 658 L51 714 L439 714 L439 666 L199 0 L134 0 Z " />
<glyph glyph-name="eight" unicode="8" horiz-adv-x="530" d="M245 -10 C135.667 -10 57 59.1299 57 179 C57 279 110 337 194 377 C123.333 415.667 77 469.333 77 556 C77 665.307 152.848 725 250 725 C348.667 725 422 665.307 422 556 C422 468 375 417.667 299 379 C385.667 335 442 279 442 183 C442 65.7965 361.338 -10 245 -10 Z M248 43 C332 43 382 95 382 183 C382 257.371 347.048 299.155 244 352 C166.667 313.333 117 262 117 178 C117 94 165.333 43 248 43 Z M250 404 C318 438.667 363 479.333 363 554 C363 631.333 319.333 672 250 672 C182 672 136 630 136 554 C136 479.333 180.667 441.333 250 404 Z " />
<glyph glyph-name="nine" unicode="9" horiz-adv-x="530" d="M98 55 C120.667 46.3333 146.667 42 176 42 C305.681 42 378.32 167.387 381 363 L378 363 C352.667 315 309 271 229 271 C121 271 59 352 59 488 C59 634.667 126.667 724 244 724 C374.667 724 441 611.667 441 409 C441 157.338 353 -10 177 -10 C149 -10 118 -5.66667 98 1 L98 55 Z M239 321 C317.848 321 378 381.615 378 475 C378 548.048 348.918 672 244 672 C164 672 119 607.333 119 490 C119 384.667 159 321 239 321 Z " />
<glyph glyph-name="colon" unicode="&#x3a;" horiz-adv-x="530" >
<path fill="black" d="M249 -12 C219 -12 204 5.66667 204 41 C204 76.3333 219 94 249 94 C279.667 94 295 76.3333 295 41 C295 5.66667 279.667 -12 249 -12 Z " /><g transform="translate(0,446)" ><path fill="black" d="M249 -12 C219 -12 204 5.66667 204 41 C204 76.3333 219 94 249 94 C279.667 94 295 76.3333 295 41 C295 5.66667 279.667 -12 249 -12 Z " /></g></glyph>
<glyph glyph-name="semicolon" unicode="&#x3b;" horiz-adv-x="530" d="M169 -130 C193 -42 209.333 41.6667 220 115 L283 115 L289 104 C270.333 28 244.667 -58 214 -130 L169 -130 Z M247 436 C217.667 436 203 453.333 203 488 C203 522 217.667 539 247 539 C277 539 292 522 292 488 C292 453.333 275 436 247 436 Z " />
<glyph glyph-name="less" unicode="&#x3c;" horiz-adv-x="530" d="M50 341 L50 377 L433 575 L433 519 L116 359 L433 193 L433 137 L50 341 Z " />
<glyph glyph-name="equal" unicode="&#x3d;" horiz-adv-x="530" d="M50 277 L450 277 L450 222 L50 222 L50 277 Z M50 483 L450 483 L450 428 L50 428 L50 483 Z " />
<glyph glyph-name="greater" unicode="&#x3e;" horiz-adv-x="530" d="M58 193 L375 359 L58 519 L58 575 L441 377 L441 341 L58 137 L58 193 Z " />
<glyph glyph-name="question" unicode="&#x3f;" horiz-adv-x="530" d="M191 189 L191 212 C191 291.302 204.843 330.843 260 386 C320.558 446.558 348 483.724 348 555 C348 632.333 306.667 670 236 670 C189.333 670 153.667 656.333 115 635 L92 683 C137.333 709.667 184 724 240 724 C344 724 407 665 407 557 C407 464.168 367.046 420.046 305 358 C251.886 302.231 240 271.819 240 207 L240 189 L191 189 Z M216 -12 C186 -12 171 5.66667 171 41 C171 76.3333 186 94 216 94 C246.667 94 262 76.3333 262 41 C262 5.66667 246.667 -12 216 -12 Z " />
<glyph glyph-name="at" unicode="&#x40;" horiz-adv-x="530" d="M422 -49 C375.333 -75.6667 327 -89 271 -89 C93.9004 -89 0 56.6407 0 294 C0 558 104.203 714 267 714 C415.234 714 500 575.641 500 357 C500 228.948 470.156 111 398 111 C359.333 111 333.333 142.667 328 192 L326 192 C307.333 140 272.667 111 230 111 C163.333 111 124 178.667 124 292 C124 425.411 184.615 517 278 517 C308.667 517 345.333 507 368 495 L360 316 C358.667 298.667 359 274.667 359 256 C359 186.667 370 152 398 152 C438 152 455 230.667 455 356 C455 548.996 389.563 671 267 671 C130.922 671 46 532.437 46 295 C46 81.6667 124 -46 272 -46 C322.667 -46 372.667 -32.6667 422 -6 L422 -49 Z M319 464 C305 472 291 476 277 476 C213 476 176 407 176 291 C176 201.667 197.333 152 240 152 C282.667 152 305.333 205.667 312 323 L319 464 Z " />
<glyph glyph-name="A" unicode="A" horiz-adv-x="530" d="M212 714 L287 714 L480 0 L420 0 L356 247 L144 247 L81 0 L20 0 L212 714 Z M342 301 L273 565 L248 665 C241.333 634.333 234.333 597 225 565 L158 301 L342 301 Z " />
<glyph glyph-name="B" unicode="B" horiz-adv-x="530" d="M78 0 L78 714 L227 714 C367 714 437 660.333 437 543 C437 455 396 392.667 320 378 L320 375 C408 357.667 455 303 455 203 C455 71 375 0 243 0 L78 0 Z M135 54 L236 54 C341.333 54 394 104 394 204 C394 304 337.333 348 228 348 L135 348 L135 54 Z M135 401 L225 401 C329 401 377 445.667 377 535 C377 623 331.667 660 217 660 L135 660 L135 401 Z " />
<glyph glyph-name="C" unicode="C" horiz-adv-x="530" d="M455 16 C416.333 -1.33333 372 -10 312 -10 C142.926 -10 48 131.437 48 358 C48 563.359 140.468 725 320 725 C373.333 725 424 713.333 472 690 L448 640 C409.333 662.667 365.333 671 320 671 C177.074 671 108 531.307 108 358 C108 168.615 180.307 44 319 44 C373.667 44 416.333 56.3333 455 71 L455 16 Z " />
<glyph glyph-name="D" unicode="D" horiz-adv-x="530" d="M54 0 L54 714 L215 714 C381.667 714 464 596 464 364 C464 122.667 382 0 206 0 L54 0 Z M112 55 L202 55 C343.333 55 403 160.333 403 363 C403 564.333 348.667 659 202 659 L112 659 L112 55 Z " />
<glyph glyph-name="E" unicode="E" horiz-adv-x="530" d="M425 55 L425 0 L78 0 L78 714 L425 714 L425 659 L137 659 L137 400 L407 400 L407 345 L137 345 L137 55 L425 55 Z " />
<glyph glyph-name="F" unicode="F" horiz-adv-x="530" d="M78 0 L78 714 L425 714 L425 659 L137 659 L137 371 L411 371 L411 315 L137 315 L137 0 L78 0 Z " />
<glyph glyph-name="G" unicode="G" horiz-adv-x="530" d="M387 311 L270 311 L270 366 L445 366 L445 25 C396.333 1.66667 344 -10 288 -10 C108.364 -10 36 144.619 36 359 C36 573.355 113.537 725 287 725 C337.667 725 393.667 712.667 439 682 L415 633 C372.333 662.333 334.333 671 289 671 C155.719 671 95 550.03 95 359 C95 178.61 152.026 44 288 44 C328 44 361.667 52.3333 387 63 L387 311 Z " />
<glyph glyph-name="H" unicode="H" horiz-adv-x="530" d="M54 0 L54 714 L113 714 L113 399 L387 399 L387 714 L446 714 L446 0 L387 0 L387 344 L113 344 L113 0 L54 0 Z " />
<glyph glyph-name="I" unicode="I" horiz-adv-x="530" d="M94 42 L220 49 L220 664 L94 672 L94 714 L406 714 L406 672 L278 664 L278 49 L406 42 L406 0 L94 0 L94 42 Z " />
<glyph glyph-name="J" unicode="J" horiz-adv-x="530" d="M54 75 C91.3333 55 136.333 42 183 42 C277.667 42 319 98.6667 319 212 L319 714 L377 714 L377 200 C377 70.6667 319 -12 187 -12 C136.333 -12 91.3333 0.333333 54 19 L54 75 Z " />
<glyph glyph-name="K" unicode="K" horiz-adv-x="530" d="M54 0 L54 714 L112 714 L112 340 C134.667 369.333 155.333 397.333 186 440 L385 714 L454 714 L231 401 L459 0 L393 0 L189 357 L112 272 L112 0 L54 0 Z " />
<glyph glyph-name="L" unicode="L" horiz-adv-x="530" d="M425 57 L425 0 L82 0 L82 714 L142 714 L142 57 L425 57 Z " />
<glyph glyph-name="M" unicode="M" horiz-adv-x="530" d="M34 0 L34 714 L119 714 L247 262 L250 262 L379 714 L466 714 L466 0 L410 0 L410 469 C410 531.667 413.333 596.333 416 655 L413 655 L278 197 L216 197 L85 656 L81 656 C85 600 90 538 90 470 L90 0 L34 0 Z " />
<glyph glyph-name="N" unicode="N" horiz-adv-x="530" d="M54 0 L54 714 L133 714 L394 72 L398 72 C398 104.993 391 173.438 391 224 L391 714 L446 714 L446 0 L371 0 L106 645 L102 645 C104.667 597 108 550.667 108 484 L108 0 L54 0 Z " />
<glyph glyph-name="O" unicode="O" horiz-adv-x="530" d="M251 -10 C85.5368 -10 36 163.39 36 359 C36 600.333 106 725 250 725 C406.312 725 464 565.922 464 358 C464 157.896 415.13 -10 251 -10 Z M251 44 C355 44 405 151.333 405 358 C405 562 354 671 250 671 C142 671 95 560.667 95 358 C95 155.333 148.333 44 251 44 Z " />
<glyph glyph-name="P" unicode="P" horiz-adv-x="530" d="M78 0 L78 714 L246 714 C386 714 455 650.333 455 509 C455 373 390.667 290 244 290 L136 290 L136 0 L78 0 Z M136 345 L235 345 C343 345 394 389.667 394 507 C394 615 346.333 659 241 659 L136 659 L136 345 Z " />
<glyph glyph-name="Q" unicode="Q" horiz-adv-x="530" d="M309 -2 C291 -7.33333 271.667 -10 251 -10 C85.5368 -10 36 163.39 36 359 C36 600.333 106 725 250 725 C406.312 725 464 565.922 464 358 C464 212.258 437.5 82.7931 360 24 L451 -176 L387 -176 L309 -2 Z M251 44 C355 44 405 151.333 405 358 C405 562 354 671 250 671 C142 671 95 560.667 95 358 C95 155.333 148.333 44 251 44 Z " />
<glyph glyph-name="R" unicode="R" horiz-adv-x="530" d="M78 0 L78 714 L221 714 C361 714 438 657 438 517 C438 405 388 346.333 312 321 L475 0 L408 0 L257 306 L136 306 L136 0 L78 0 Z M136 360 L224 360 C320 360 376 411 376 515 C376 621.667 324.333 660 215 660 L136 660 L136 360 Z " />
<glyph glyph-name="S" unicode="S" horiz-adv-x="530" d="M70 78 C116.667 58 172.667 44 222 44 C322 44 370 101 370 185 C370 270.148 321.184 296.739 228 342 C145.265 384.702 74 426.28 74 541 C74 666.333 152 725 264 725 C316.667 725 367.333 713.333 416 690 L394 639 C348.667 661.667 303.667 671 265 671 C178.333 671 134 625 134 545 C134 456.16 189.068 428.966 269 389 C367.915 340.879 431 304.486 431 189 C431 58.3333 352.333 -10 223 -10 C169.667 -10 114 2.33333 70 21 L70 78 Z " />
<glyph glyph-name="T" unicode="T" horiz-adv-x="530" d="M219 0 L219 659 L39 659 L39 714 L461 714 L461 659 L279 659 L279 0 L219 0 Z " />
<glyph glyph-name="U" unicode="U" horiz-adv-x="530" d="M54 714 L113 714 L113 229 C113 98.3333 161.667 44 251 44 C337.667 44 387 96.3333 387 227 L387 714 L446 714 L446 224 C446 61.3333 372.667 -10 250 -10 C120.667 -10 54 64.6667 54 226 L54 714 Z " />
<glyph glyph-name="V" unicode="V" horiz-adv-x="530" d="M249 61 C257 101 267.333 153 282 205 L423 714 L481 714 L280 0 L217 0 L19 714 L77 714 L216 204 C229.333 153.333 241.333 102.333 248 61 L249 61 Z " />
<glyph glyph-name="W" unicode="W" horiz-adv-x="530" d="M139 58 C144.446 101.566 154.403 185.016 165 238 L220 533 L280 533 L336 237 C346.894 179.808 358.651 101.465 364 56 L367 56 C369.613 103.03 374.653 243.875 380 292 C394.667 433.333 411.333 572.667 426 714 L481 714 L404 0 L332 0 L270 347 C262 397.667 257.333 422.333 252 457 L249 457 C243.667 422.333 239 397.667 231 347 L170 0 L97 0 L19 714 L70 714 C86 572.667 104.333 433.667 119 291 C124.355 240.125 134.316 103.631 137 58 L139 58 Z " />
<glyph glyph-name="X" unicode="X" horiz-adv-x="530" d="M26 0 L216 373 L44 714 L108 714 L252 424 L399 714 L463 714 L284 371 L474 0 L409 0 L249 321 L90 0 L26 0 Z " />
<glyph glyph-name="Y" unicode="Y" horiz-adv-x="530" d="M221 0 L221 274 L26 714 L90 714 L250 331 L410 714 L474 714 L279 275 L279 0 L221 0 Z " />
<glyph glyph-name="Z" unicode="Z" horiz-adv-x="530" d="M78 49 L366 659 L94 659 L94 714 L431 714 L431 665 L143 55 L439 55 L439 0 L78 0 L78 49 Z " />
<glyph glyph-name="bracketleft" unicode="&#x5b;" horiz-adv-x="530" d="M394 -110 L394 -160 L192 -160 L192 717 L394 717 L394 668 L246 668 L246 -110 L394 -110 Z " />
<glyph glyph-name="backslash" unicode="&#x5c;" horiz-adv-x="530" d="M353 -2 L89 716 L144 716 L410 -2 L353 -2 Z " />
<glyph glyph-name="bracketright" unicode="&#x5d;" horiz-adv-x="530" d="M108 -112 L256 -112 L256 666 L108 666 L108 716 L310 716 L310 -161 L108 -161 L108 -112 Z " />
<glyph glyph-name="asciicircum" unicode="&#x5e;" horiz-adv-x="530" d="M42 329 L234 714 L272 714 L458 329 L400 329 L252 641 L100 329 L42 329 Z " />
<glyph glyph-name="underscore" unicode="&#x5f;" horiz-adv-x="530" d="M0 -83 L500 -83 L500 -138 L0 -138 L0 -83 Z " />
<glyph glyph-name="grave" unicode="&#x60;" horiz-adv-x="530" d="M127 766 L196 766 C221.333 718 266.333 656 301 616 L301 606 L263 606 C220.644 643.062 156.497 711.414 127 757 L127 766 Z " />
<glyph glyph-name="a" unicode="a" horiz-adv-x="530" d="M367 85 L364 85 C334.667 30.3333 291.333 -10 214 -10 C124.667 -10 69 45 69 141 C69 250.333 139.667 302.333 277 309 L365 313 L365 354 C365 454 324.667 490 254 490 C210 490 165.667 474.667 123 452 L101 500 C150.333 526.667 197 543 257 543 C365 543 423 489 423 361 L423 0 L378 0 L367 85 Z M365 269 L288 265 C184 258.333 129 222 129 142 C129 74 168.667 42 226 42 C310 42 365 103.667 365 217 L365 269 Z " />
<glyph glyph-name="b" unicode="b" horiz-adv-x="530" d="M71 760 L129 760 L129 545 C129 511.667 129.667 474 127 442 L129 442 C154.333 502 202 543 274 543 C388.667 543 451 449 451 269 C451 90.3333 388.667 -10 270 -10 C202 -10 158 26 130 82 L125 82 L114 0 L71 0 L71 760 Z M256 43 C344 43 391 119 391 267 C391 416.333 347 491 259 491 C172.333 491 129 417 129 269 C129 118.333 171.333 43 256 43 Z " />
<glyph glyph-name="c" unicode="c" horiz-adv-x="530" d="M425 16 C390.333 0 347 -10 299 -10 C159 -10 81 82 81 262 C81 452.9 172.589 543 306 543 C352.667 543 394.333 534.333 431 517 L413 467 C379.667 485.667 346 491 310 491 C202 491 141 412.333 141 263 C141 121.667 192.333 43 303 43 C345.667 43 389 52.6667 425 70 L425 16 Z " />
<glyph glyph-name="d" unicode="d" horiz-adv-x="530" d="M374 88 L371 88 C349.667 36 304.667 -10 226 -10 C112.667 -10 49 83.3333 49 262 C49 446 115.667 543 229 543 C305 543 349.333 498.667 372 448 L376 448 C373.333 478.667 371 508.333 371 535 L371 760 L429 760 L429 0 L384 0 L374 88 Z M372 277 C372 411.667 337 491 245 491 C153 491 109 411.667 109 257 C109 115.667 146.667 43 240 43 C337.333 43 372 119.667 372 245 L372 277 Z " />
<glyph glyph-name="e" unicode="e" horiz-adv-x="530" d="M428 25 C382.667 2.33333 339 -10 283 -10 C136.333 -10 57 92.3333 57 263 C57 432.074 127.359 543 258 543 C385.974 543 447 438.022 447 301 L447 258 L117 258 C119 114.667 174.667 43 284 43 C337.333 43 378.667 55.6667 428 81 L428 25 Z M257 491 C177 491 125.667 427.667 119 309 L389 309 C389 413.918 345.97 491 257 491 Z " />
<glyph glyph-name="f" unicode="f" horiz-adv-x="530" d="M205 0 L205 481 L63 481 L63 523 L205 534 L205 594 C205 719.333 253.333 765 360 765 C397.333 765 428.333 759.333 455 750 L440 701 C416 710.333 388.667 714 366 714 C294 714 263 685 263 593 L263 533 L434 533 L434 481 L263 481 L263 0 L205 0 Z " />
<glyph glyph-name="g" unicode="g" horiz-adv-x="530" d="M76 -151 C120 -176.333 174.333 -191 225 -191 C326.333 -191 371 -129 371 -25 L371 9 C371 33 371.333 65 374 89 L371 89 C347 26.3333 296 -9 228 -9 C114.667 -9 49 84.3333 49 263 C49 436.333 113 543 233 543 C301 543 345.333 508.667 372 454 L375 454 L382 533 L429 533 L429 -21 C429 -166.333 365.333 -243 224 -243 C168 -243 118.667 -231.333 76 -210 L76 -151 Z M374 286 C374 416.667 337.667 491 247 491 C151 491 109 407 109 263 C109 116.333 154 43 244 43 C338.978 43 374 125.416 374 241 L374 286 Z " />
<glyph glyph-name="h" unicode="h" horiz-adv-x="530" d="M71 0 L71 760 L129 760 L129 516 C129 489.333 127.333 469 126 445 L129 445 C153 498.333 195.667 543 277 543 C371.667 543 434 485 434 353 L434 0 L376 0 L376 342 C376 443.333 337 491 265 491 C179.667 491 129 422.667 129 288 L129 0 L71 0 Z " />
<glyph glyph-name="i" unicode="i" horiz-adv-x="530" >
<path fill="black" d="M78 43 L230 50 L230 480 L89 490 L89 533 L288 533 L288 50 L428 43 L428 0 L78 0 L78 43 Z " /><g transform="translate(5,657)" ><path fill="black" d="M249 -12 C219 -12 204 5.66667 204 41 C204 76.3333 219 94 249 94 C279.667 94 295 76.3333 295 41 C295 5.66667 279.667 -12 249 -12 Z " /></g></glyph>
<glyph glyph-name="j" unicode="j" horiz-adv-x="530" >
<path fill="black" d="M47 -173 C73.6667 -183.667 124.333 -193 159 -193 C229.667 -193 266 -150 266 -74 L266 480 L94 490 L94 533 L324 533 L324 -73 C324 -190.333 263.333 -246 162 -246 C119.333 -246 72.3333 -236 47 -228 L47 -173 Z " /><g transform="translate(38,652)" ><path fill="black" d="M249 -12 C219 -12 204 5.66667 204 41 C204 76.3333 219 94 249 94 C279.667 94 295 76.3333 295 41 C295 5.66667 279.667 -12 249 -12 Z " /></g></glyph>
<glyph glyph-name="k" unicode="k" horiz-adv-x="530" d="M89 0 L89 760 L147 760 L147 394 C147 343.333 145.667 302 143 250 L145 250 C162.333 274 175.333 292.333 194 315 L383 533 L455 533 L255 304 L469 0 L400 0 L216 261 L147 194 L147 0 L89 0 Z " />
<glyph glyph-name="l" unicode="l" horiz-adv-x="530" d="M78 43 L224 50 L224 710 L85 717 L85 760 L282 760 L282 50 L428 43 L428 0 L78 0 L78 43 Z " />
<glyph glyph-name="m" unicode="m" horiz-adv-x="530" d="M38 0 L38 533 L80 533 L88 471 L91 471 C105.667 511 134.667 543 184 543 C234.667 543 256 512.667 268 470 L271 470 C288.333 515.333 316.333 543 367 543 C431 543 462 504.667 462 402 L462 0 L406 0 L406 395 C406 465.667 388.333 491 351 491 C297.667 491 279 432 279 352 L279 0 L221 0 L221 388 C221 468 203.667 491 169 491 C112.108 491 94 415.411 94 346 L94 0 L38 0 Z " />
<glyph glyph-name="n" unicode="n" horiz-adv-x="530" d="M71 0 L71 533 L118 533 L126 444 L129 444 C153 501.333 203 543 279 543 C379 543 434 485.667 434 355 L434 0 L376 0 L376 350 C376 446 341 490 269 490 C183.667 490 129 423 129 291 L129 0 L71 0 Z " />
<glyph glyph-name="o" unicode="o" horiz-adv-x="530" d="M251 -10 C121.667 -10 49 90.6667 49 268 C49 444 120.667 543 250 543 C383.333 543 451 436.667 451 266 C451 91.3333 381.667 -10 251 -10 Z M250 41 C346 41 391 120.333 391 267 C391 408.333 347 491 251 491 C157.667 491 109 413.667 109 267 C109 121.667 155.333 41 250 41 Z " />
<glyph glyph-name="p" unicode="p" horiz-adv-x="530" d="M71 -240 L71 533 L117 533 L125 438 L128 438 C152.036 494.084 198.583 543 275 543 C388.333 543 451 451.667 451 269 C451 83.6667 381.667 -10 271 -10 C197.667 -10 154.333 36.3333 129 87 L125 87 C127.667 64.3333 129 28.6667 129 -2 L129 -240 L71 -240 Z M129 257 C129 119.667 174.333 43 261 43 C341 43 391 116.667 391 270 C391 416.667 348 490 262 490 C170 490 129 413 129 285 L129 257 Z " />
<glyph glyph-name="q" unicode="q" horiz-adv-x="530" d="M371 -237 L371 1 C371 27.6667 372.333 60.3333 375 91 L371 91 C347 33.6667 301.667 -10 231 -10 C115 -10 49 82.6667 49 264 C49 440 114.667 543 236 543 C308 543 348.333 500 371 448 L375 448 L382 533 L429 533 L429 -237 L371 -237 Z M373 281 C373 410.333 332 490 248 490 C157.333 490 109 409.333 109 264 C109 114.667 158 43 242 43 C331.1 43 373 124.026 373 244 L373 281 Z " />
<glyph glyph-name="r" unicode="r" horiz-adv-x="530" d="M50 43 L182 50 L182 480 L60 490 L60 533 L230 533 L236 435 L239 435 C261.667 497.667 308.667 542 386 542 C412.667 542 441.667 537.667 467 527 L451 469 C428.333 479.667 401.667 482 379 482 C289.667 482 240 400.667 240 282 L240 50 L380 43 L380 0 L50 0 L50 43 Z " />
<glyph glyph-name="s" unicode="s" horiz-adv-x="530" d="M91 81 C133.667 58.3333 183.667 42 241 42 C329 42 360 78.6667 360 136 C360 190.903 324.661 208.669 240 251 C158.397 290.485 99 321.139 99 406 C99 492.667 160.333 543 271 543 C321.667 543 365.333 532.333 408 511 L386 463 C347.333 483 307.667 491 269 491 C199.667 491 157 462.667 157 408 C157 355.21 198.024 334.488 279 294 C358.001 257.133 418 227.955 418 136 C418 42.6667 358.333 -10 237 -10 C175.667 -10 125.667 4 91 24 L91 81 Z " />
<glyph glyph-name="t" unicode="t" horiz-adv-x="530" d="M198 481 L65 481 L65 519 L199 534 L217 670 L257 670 L257 533 L433 533 L433 481 L256 481 L256 168 C256 84 282 43 354 43 C382.667 43 410.333 47.3333 437 56 L437 4 C409 -5.33333 378.667 -10 346 -10 C248.667 -10 198 41.6667 198 159 L198 481 Z " />
<glyph glyph-name="u" unicode="u" horiz-adv-x="530" d="M66 533 L124 533 L124 184 C124 80 163.667 42 237 42 C322.333 42 371 110.667 371 244 L371 533 L429 533 L429 0 L381 0 L373 89 L369 89 C346.333 30.3333 298 -10 222 -10 C119.333 -10 66 49 66 173 L66 533 Z " />
<glyph glyph-name="v" unicode="v" horiz-adv-x="530" d="M252 55 C262.667 97.6667 277.667 147.333 291 190 L398 533 L455 533 L283 0 L215 0 L45 533 L101 533 L210 190 C223.333 147.333 238.333 97.6667 249 55 L252 55 Z " />
<glyph glyph-name="w" unicode="w" horiz-adv-x="530" d="M137 59 C142.322 93.5925 155.303 162.537 166 208 L221 429 L282 429 L336 207 C346.802 163.792 359.863 93.96 365 58 L367 58 C372.333 96.6667 378 160 386 216 L436 533 L488 533 L401 0 L332 0 L279 232 C268.333 277.333 259.667 324 253 368 L250 368 C243.333 324 233.333 275.333 224 230 L169 0 L100 0 L12 533 L66 533 L117 217 C126.333 161 131 95 135 59 L137 59 Z " />
<glyph glyph-name="x" unicode="x" horiz-adv-x="530" d="M45 0 L215 273 L54 533 L121 533 L249 317 L381 533 L447 533 L284 271 L455 0 L387 0 L250 230 L112 0 L45 0 Z " />
<glyph glyph-name="y" unicode="y" horiz-adv-x="530" d="M54 -184 C68.6667 -188 86.6667 -192 104 -192 C149.333 -192 174.667 -167.667 200 -93 L230 1 L49 533 L109 533 L221 196 C239.667 137.333 250.333 99.6667 257 65 L260 65 C268 103.667 280.667 153.333 294 196 L394 533 L455 533 L260 -88 C229.333 -186.667 185 -244 109 -244 C91.6667 -244 73.3333 -241.333 54 -236 L54 -184 Z " />
<glyph glyph-name="z" unicode="z" horiz-adv-x="530" d="M78 43 L353 481 L95 481 L95 533 L418 533 L418 484 L145 52 L422 52 L422 0 L78 0 L78 43 Z " />
<glyph glyph-name="braceleft" unicode="&#x7b;" horiz-adv-x="530" d="M222 149 C222 225 199 255 119 255 L119 300 C191 300 222 323.333 222 406 L222 567 C222 667 274.333 714.667 389 716 L389 669 C313 667.667 278 639.333 278 562 L278 402 C278 328.667 255 289.667 191 279 L191 276 C256.333 265.333 278 227.333 278 154 L278 -6 C278 -83.3333 309 -111.667 389 -113 L389 -160 C273 -157.333 222 -116.667 222 -10 L222 149 Z " />
<glyph glyph-name="bar" unicode="&#x7c;" horiz-adv-x="530" d="M213 -240 L213 760 L267 760 L267 -240 L213 -240 Z " />
<glyph glyph-name="braceright" unicode="&#x7d;" horiz-adv-x="530" d="M101 -113 C177 -111.667 212 -83.3333 212 -6 L212 154 C212 227.333 235 266.333 299 277 L299 280 C233.667 290.667 212 328.667 212 402 L212 562 C212 639.333 181 667.667 101 669 L101 716 C217 713.333 268 672.667 268 566 L268 407 C268 331 291 301 371 301 L371 256 C299 256 268 232.667 268 150 L268 -11 C268 -111 215.667 -158.667 101 -160 L101 -113 Z " />
<glyph glyph-name="asciitilde" unicode="&#x7e;" horiz-adv-x="530" d="M442 347 C416.667 317.667 383.333 300 342 300 C302 300 278.667 310.333 244 329 C213.333 346.333 186.667 357 156 357 C124 357 88.6667 336.667 58 298 L58 356 C84.6667 388 118 407 158 407 C199.333 407 224.333 395.667 259 377 C292.333 358.333 315.667 349 345 349 C377 349 411.333 369.333 442 404 L442 347 Z " />
<glyph glyph-name="uni00A0" unicode="&#xa0;" horiz-adv-x="530" />
<glyph glyph-name="exclamdown" unicode="&#xa1;" horiz-adv-x="530" d="M225 340 L273 340 L284 -185 L214 -185 L225 340 Z M250 435 C219.333 435 204 452.667 204 488 C204 523.333 219.333 541 250 541 C280 541 295 523.333 295 488 C295 452.667 280 435 250 435 Z " />
<glyph glyph-name="cent" unicode="&#xa2;" horiz-adv-x="530" d="M279 -10 L279 90 C147 102 88 200.667 88 362 C88 523.333 153 624.333 277 639 L277 724 L318 724 L318 641 C356.667 638.333 388.667 632.667 414 618 L397 570 C367.667 584.667 338.667 590 312 590 C198.667 590 146 507.333 146 362 C146 218 196 141 308 141 C342.667 141 380.333 150.333 411 165 L411 113 C388.333 102.333 357.333 92.6667 320 90 L320 -10 L279 -10 Z " />
<glyph glyph-name="sterling" unicode="&#xa3;" horiz-adv-x="530" d="M443 54 L443 0 L60 0 L60 50 C114.667 70 143 116 143 200 L143 331 L61 331 L61 379 L143 379 L143 539 C143 657.667 196.667 724 314 724 C363.333 724 402.333 710 437 686 L414 639 C379.333 661.667 351.667 670 317 670 C237 670 202 628 202 532 L202 379 L356 379 L356 331 L202 331 L202 200 C202 125.333 177.333 79.3333 136 54 L443 54 Z " />
<glyph glyph-name="currency" unicode="&#xa4;" horiz-adv-x="530" d="M29 163 L97 232 C69.6667 267.333 56 307.667 56 353 C56 397 70.3333 439.333 97 474 L28 545 L58 575 L128 504 C162 533.333 202.667 548 250 548 C292.667 548 336.333 535.667 371 505 L441 575 L472 545 L402 475 C430.667 439 445 398.333 445 353 C445 310.333 431 267 403 231 L472 161 L441 131 L371 200 C335.667 172.667 295 159 249 159 C205 159 162.667 173 128 201 L59 133 L29 163 Z M250 205 C337.922 205 397 271.463 397 354 C397 438.338 335.312 503 251 503 C167.156 503 103 438.385 103 353 C103 269.156 164.641 205 250 205 Z " />
<glyph glyph-name="yen" unicode="&#xa5;" horiz-adv-x="530" d="M94 186 L220 186 L220 284 L94 284 L94 328 L208 328 L53 714 L114 714 L251 361 L385 714 L446 714 L291 328 L407 328 L407 284 L280 284 L280 186 L407 186 L407 142 L280 142 L280 0 L220 0 L220 142 L94 142 L94 186 Z " />
<glyph glyph-name="brokenbar" unicode="&#xa6;" horiz-adv-x="530" d="M213 -242 L213 144 L267 144 L267 -242 L213 -242 Z M213 376 L213 762 L267 762 L267 376 L213 376 Z " />
<glyph glyph-name="section" unicode="&#xa7;" horiz-adv-x="530" d="M86 73 C119.333 50.3333 172 35 220 35 C293.333 35 343 71 343 131 C343 189.454 295.185 210.407 226 245 C141.863 289.698 96 319.959 96 388 C96 456 138.667 495.667 196 517 C150.667 547.667 120 582.667 120 640 C120 720 180.667 766 278 766 C324.667 766 360.667 756 398 736 L378 694 C347.333 712.667 314.667 722 276 722 C212 722 172 695.333 172 642 C172 591.333 212 556.667 272 530 C341.34 495.33 414 466.05 414 377 C414 313 378.667 265.667 332 243 C376 208.333 396 181 396 133 C396 45 331 -10 219 -10 C167 -10 116.667 1.33333 86 20 L86 73 Z M296 266 C336 283.333 364 321.333 364 368 C364 424 327 454 235 494 C180.333 479.333 147 446.667 147 396 C147 335.937 198.339 316.19 250 289 L296 266 Z " />
<glyph glyph-name="dieresis" unicode="&#xa8;" horiz-adv-x="530" d="M162 629 C138 629 121 648 121 680 C121 710.667 138 729 162 729 C187.333 729 203 710.667 203 680 C203 646.667 187.333 629 162 629 Z M338 629 C314 629 297 648 297 680 C297 710.667 314 729 338 729 C363.333 729 379 710.667 379 680 C379 646.667 363.333 629 338 629 Z " />
<glyph glyph-name="copyright" unicode="&#xa9;" horiz-adv-x="530" d="M27 359 C27 492.255 120.437 582 251 582 C384.385 582 473 489.645 473 360 C473 226.615 379.61 138 248 138 C115.662 138 27 229.225 27 359 Z M249 172 C358.177 172 435 244.411 435 359 C435 470.134 359.355 547 249 547 C142.255 547 64 474.589 64 360 C64 250.667 139.693 172 249 172 Z M326 232 C304.667 224 283.667 219 257 219 C173 219 127 272 127 356 C127 444 174.667 500 260 500 C286.667 500 313.333 495 336 483 L322 450 C301.333 459.333 280.667 464 260 464 C200 464 167 426.667 167 356 C167 287.333 198 253 260 253 C279.333 253 301.333 257.667 326 267 L326 232 Z " />
<glyph glyph-name="ordfeminine" unicode="&#xaa;" horiz-adv-x="530" d="M320 441 C298.667 406.333 269.667 388 223 388 C164.333 388 122 420.667 122 482 C122 548.667 172 580.333 268 587 L315 590 L315 618 C315 664.667 290.667 684 244 684 C213.333 684 189.333 676.667 164 662 L150 697 C180.667 713 209.333 723 248 723 C323.333 723 361 688 361 618 L361 393 L327 393 L320 441 Z M315 552 L276 550 C205.333 544.667 169 529.667 169 483 C169 445.667 193.333 428 232 428 C286.667 428 315 465 315 521 L315 552 Z " />
<glyph glyph-name="guillemotleft" unicode="&#xab;" horiz-adv-x="530" >
<g transform="translate(-91,-1)" ><path fill="black" d="M303 72 L158 260 L158 273 L303 462 L343 440 L226 267 L343 94 L303 72 Z " /></g><g transform="translate(90,-1)" ><path fill="black" d="M303 72 L158 260 L158 273 L303 462 L343 440 L226 267 L343 94 L303 72 Z " /></g></glyph>
<glyph glyph-name="logicalnot" unicode="&#xac;" horiz-adv-x="530" d="M58 377 L429 377 L429 123 L379 123 L379 328 L58 328 L58 377 Z " />
<glyph glyph-name="uni00AD" unicode="&#xad;" horiz-adv-x="530" >
<path fill="black" d="M124 301 L375 301 L375 246 L124 246 L124 301 Z " /></glyph>
<glyph glyph-name="registered" unicode="&#xae;" horiz-adv-x="530" d="M27 359 C27 492.255 120.437 582 251 582 C384.385 582 473 489.645 473 360 C473 226.615 379.61 138 248 138 C115.662 138 27 229.225 27 359 Z M249 172 C358.177 172 435 244.411 435 359 C435 470.134 359.355 547 249 547 C142.255 547 64 474.589 64 360 C64 250.667 139.693 172 249 172 Z M166 222 L166 500 L246 500 C308.667 500 342 471 342 419 C342 372.333 316 351.667 288 341 L358 222 L315 222 L251 332 L203 332 L203 222 L166 222 Z M203 365 L244 365 C278.667 365 304 380 304 416 C304 450 284 467 244 467 L203 467 L203 365 Z " />
<glyph glyph-name="macron" unicode="&#xaf;" horiz-adv-x="530" d="M131 672 L368 672 L368 626 L131 626 L131 672 Z " />
<glyph glyph-name="degree" unicode="&#xb0;" horiz-adv-x="530" d="M116 590 C116 674.338 175.952 723 249 723 C323.719 723 383 672.537 383 590 C383 508.225 323.719 457 249 457 C175.952 457 116 506.286 116 590 Z M250 497 C300.667 497 341 530 341 590 C341 647.333 303.333 684 250 684 C194 684 158 646 158 590 C158 530 199.333 497 250 497 Z " />
<glyph glyph-name="plusminus" unicode="&#xb1;" horiz-adv-x="530" d="M55 387 L221 387 L221 596 L271 596 L271 387 L436 387 L436 338 L271 338 L271 131 L221 131 L221 338 L55 338 L55 387 Z M55 50 L435 50 L435 0 L55 0 L55 50 Z " />
<glyph glyph-name="twosuperior" unicode="&#xb2;" horiz-adv-x="530" d="M122 456 L220 570 C281.624 642.342 323 681.53 323 738 C323 779.333 294.667 809 244 809 C209.333 809 178.333 795.667 151 769 L125 802 C155.667 834 197.667 853 247 853 C327 853 373 808 373 740 C373 669.121 329.587 632.018 249 538 L180 458 L382 458 L382 415 L122 415 L122 456 Z " />
<glyph glyph-name="threesuperior" unicode="&#xb3;" horiz-adv-x="530" d="M124 481 C154.667 462.333 188.667 453 226 453 C294 453 327 484.333 327 535 C327 587 292.667 617 222 617 L182 617 L182 658 L221 658 C282.333 658 316 690.667 316 740 C316 782.667 288.667 808 238 808 C202 808 175 794.667 147 772 L123 808 C157.667 836 195.333 852 242 852 C315.333 852 363 813 363 745 C363 693 335.667 656.667 293 642 L293 640 C346.333 625.333 376 590.333 376 533 C376 453 316.333 409 227 409 C189.667 409 155.333 416.333 124 431 L124 481 Z " />
<glyph glyph-name="acute" unicode="&#xb4;" horiz-adv-x="530" d="M219 606 L219 616 C260.333 666.667 297.667 719.333 323 766 L392 766 L392 757 C362.414 713.967 299.994 643.62 257 606 L219 606 Z " />
<glyph glyph-name="mu" unicode="&#xb5;" horiz-adv-x="530" d="M66 533 L124 533 L124 184 C124 80 163.667 42 237 42 C322.333 42 371 110.667 371 244 L371 533 L429 533 L429 0 L381 0 L373 89 L369 89 C346.333 30.3333 298 -10 222 -10 C181.333 -10 148.667 -0.666667 124 18 L124 -240 L66 -240 L66 533 Z " />
<glyph glyph-name="paragraph" unicode="&#xb6;" horiz-adv-x="530" d="M227 -127 L227 308 C213 302 199 299 185 299 C99.6667 299 62 383.667 62 529 C62 679.667 104 760 204 760 L401 760 L401 -127 L357 -127 L357 716 L271 716 L271 -127 L227 -127 Z " />
<glyph glyph-name="periodcentered" unicode="&#xb7;" horiz-adv-x="530" >
<g transform="translate(0,282)" ><path fill="black" d="M249 -12 C219 -12 204 5.66667 204 41 C204 76.3333 219 94 249 94 C279.667 94 295 76.3333 295 41 C295 5.66667 279.667 -12 249 -12 Z " /></g></glyph>
<glyph glyph-name="cedilla" unicode="&#xb8;" horiz-adv-x="530" d="M166 -193 C180 -197 195 -199 211 -199 C257.667 -199 285 -177 285 -141 C285 -102.333 254.667 -85 200 -81 L236 0 L275 0 L250 -56 C306.667 -65.3333 335 -94.3333 335 -143 C335 -204.333 290.333 -240 217 -240 C199.667 -240 179.333 -238 166 -234 L166 -193 Z " />
<glyph glyph-name="onesuperior" unicode="&#xb9;" horiz-adv-x="530" d="M140 450 L239 455 L239 690 C239 722 239.333 757.333 242 788 C230 777.333 219.667 771.667 205 761 L147 721 L123 755 L248 843 L287 843 L287 454 L383 450 L383 415 L140 415 L140 450 Z " />
<glyph glyph-name="ordmasculine" unicode="&#xba;" horiz-adv-x="530" d="M255 388 C167 388 123 452 123 556 C123 660 172 723 256 723 C340 723 384 661 384 557 C384 453 341.667 388 255 388 Z M254 428 C312.667 428 338 474.667 338 556 C338 637.333 312.333 684 255 684 C201.667 684 171 641.333 171 556 C171 473.333 198 428 254 428 Z " />
<glyph glyph-name="guillemotright" unicode="&#xbb;" horiz-adv-x="530" >
<g transform="translate(-95,-32)" ><path fill="black" d="M273 295 L157 468 L197 490 L342 302 L342 289 L197 100 L157 122 L273 295 Z " /></g><g transform="translate(86,-32)" ><path fill="black" d="M273 295 L157 468 L197 490 L342 302 L342 289 L197 100 L157 122 L273 295 Z " /></g></glyph>
<glyph glyph-name="onequarter" unicode="&#xbc;" horiz-adv-x="530" >
<g transform="translate(-3,-576)" ><path fill="black" d="M109 556 L286 845 L333 845 L333 561 L396 561 L396 521 L333 521 L333 415 L286 415 L286 521 L109 521 L109 556 Z M286 561 L286 709 C286 738.333 285.333 756.667 288 782 C281.333 767.333 272.667 752.667 262 734 L158 561 L286 561 Z " /></g><g transform="translate(-3,50)" ><path fill="black" d="M140 450 L239 455 L239 690 C239 722 239.333 757.333 242 788 C230 777.333 219.667 771.667 205 761 L147 721 L123 755 L248 843 L287 843 L287 454 L383 450 L383 415 L140 415 L140 450 Z " /></g><path fill="black" d="M45 356 L446 406 L446 372 L45 322 L45 356 Z " /></glyph>
<glyph glyph-name="onehalf" unicode="&#xbd;" horiz-adv-x="530" >
<g transform="translate(-2,-576)" ><path fill="black" d="M122 456 L220 570 C281.624 642.342 323 681.53 323 738 C323 779.333 294.667 809 244 809 C209.333 809 178.333 795.667 151 769 L125 802 C155.667 834 197.667 853 247 853 C327 853 373 808 373 740 C373 669.121 329.587 632.018 249 538 L180 458 L382 458 L382 415 L122 415 L122 456 Z " /></g><g transform="translate(-3,50)" ><path fill="black" d="M140 450 L239 455 L239 690 C239 722 239.333 757.333 242 788 C230 777.333 219.667 771.667 205 761 L147 721 L123 755 L248 843 L287 843 L287 454 L383 450 L383 415 L140 415 L140 450 Z " /></g><path fill="black" d="M45 356 L446 406 L446 372 L45 322 L45 356 Z " /></glyph>
<glyph glyph-name="threequarters" unicode="&#xbe;" horiz-adv-x="530" >
<g transform="translate(-3,-576)" ><path fill="black" d="M109 556 L286 845 L333 845 L333 561 L396 561 L396 521 L333 521 L333 415 L286 415 L286 521 L109 521 L109 556 Z M286 561 L286 709 C286 738.333 285.333 756.667 288 782 C281.333 767.333 272.667 752.667 262 734 L158 561 L286 561 Z " /></g><g transform="translate(1,50)" ><path fill="black" d="M124 481 C154.667 462.333 188.667 453 226 453 C294 453 327 484.333 327 535 C327 587 292.667 617 222 617 L182 617 L182 658 L221 658 C282.333 658 316 690.667 316 740 C316 782.667 288.667 808 238 808 C202 808 175 794.667 147 772 L123 808 C157.667 836 195.333 852 242 852 C315.333 852 363 813 363 745 C363 693 335.667 656.667 293 642 L293 640 C346.333 625.333 376 590.333 376 533 C376 453 316.333 409 227 409 C189.667 409 155.333 416.333 124 431 L124 481 Z " /></g><path fill="black" d="M45 356 L446 406 L446 372 L45 322 L45 356 Z " /></glyph>
<glyph glyph-name="questiondown" unicode="&#xbf;" horiz-adv-x="530" d="M410 -154 C364.667 -180.667 318 -195 262 -195 C158 -195 95 -136 95 -28 C95 64.8317 134.954 108.954 197 171 C250.114 226.769 262 257.181 262 322 L262 340 L311 340 L311 317 C311 237.698 297.157 198.157 242 143 C182.687 80.9912 154 46.3877 154 -26 C154 -103.333 195.333 -141 266 -141 C312.667 -141 348.333 -127.333 387 -106 L410 -154 Z M286 435 C255.333 435 240 452.667 240 488 C240 523.333 255.333 541 286 541 C316 541 331 523.333 331 488 C331 452.667 316 435 286 435 Z " />
<glyph glyph-name="Agrave" unicode="&#xc0;" horiz-adv-x="530" >
<path fill="black" d="M212 714 L287 714 L480 0 L420 0 L356 247 L144 247 L81 0 L20 0 L212 714 Z M342 301 L273 565 L248 665 C241.333 634.333 234.333 597 225 565 L158 301 L342 301 Z " /><g transform="translate(-11,181)" ><path fill="black" d="M127 766 L196 766 C221.333 718 266.333 656 301 616 L301 606 L263 606 C220.644 643.062 156.497 711.414 127 757 L127 766 Z " /></g></glyph>
<glyph glyph-name="Aacute" unicode="&#xc1;" horiz-adv-x="530" d="M212 714 L287 714 L480 0 L420 0 L356 247 L144 247 L81 0 L20 0 L212 714 Z M342 301 L273 565 L248 665 C241.333 634.333 234.333 597 225 565 L158 301 L342 301 Z M207 797 C248.333 847.667 285.667 900.333 311 947 L380 947 L380 938 C350.414 894.967 287.994 824.62 245 787 L207 787 L207 797 Z " />
<glyph glyph-name="Acircumflex" unicode="&#xc2;" horiz-adv-x="530" d="M212 714 L287 714 L480 0 L420 0 L356 247 L144 247 L81 0 L20 0 L212 714 Z M342 301 L273 565 L248 665 C241.333 634.333 234.333 597 225 565 L158 301 L342 301 Z M126 796 C158.731 839.642 200.387 902.775 222 946 L277 946 C300.479 901.65 344.789 833.178 374 796 L374 787 L341 787 C310.333 817.667 279.333 857.667 250 895 C220.667 859 187 815 159 787 L126 787 L126 796 Z " />
<glyph glyph-name="Atilde" unicode="&#xc3;" horiz-adv-x="530" >
<path fill="black" d="M212 714 L287 714 L480 0 L420 0 L356 247 L144 247 L81 0 L20 0 L212 714 Z M342 301 L273 565 L248 665 C241.333 634.333 234.333 597 225 565 L158 301 L342 301 Z " /><g transform="translate(0,181)" ><path fill="black" d="M102 616 C108.667 680 133.333 725 184 725 C236.778 725 270.889 663 313 663 C337 663 352 684 358 726 L397 726 C393 654 360 616 316 616 C261.895 616 225.673 679 186 679 C163.333 679 146.333 658.667 141 616 L102 616 Z " /></g></glyph>
<glyph glyph-name="Adieresis" unicode="&#xc4;" horiz-adv-x="530" >
<g transform="translate(0,170)" ><path fill="black" d="M162 629 C138 629 121 648 121 680 C121 710.667 138 729 162 729 C187.333 729 203 710.667 203 680 C203 646.667 187.333 629 162 629 Z M338 629 C314 629 297 648 297 680 C297 710.667 314 729 338 729 C363.333 729 379 710.667 379 680 C379 646.667 363.333 629 338 629 Z " /></g><path fill="black" d="M212 714 L287 714 L480 0 L420 0 L356 247 L144 247 L81 0 L20 0 L212 714 Z M342 301 L273 565 L248 665 C241.333 634.333 234.333 597 225 565 L158 301 L342 301 Z " /></glyph>
<glyph glyph-name="Aring" unicode="&#xc5;" horiz-adv-x="530" >
<path fill="black" d="M212 714 L287 714 L480 0 L420 0 L356 247 L144 247 L81 0 L20 0 L212 714 Z M342 301 L273 565 L248 665 C241.333 634.333 234.333 597 225 565 L158 301 L342 301 Z " /><g transform="translate(0,181)" ><path fill="black" d="M150 709 C150 767.667 191 806 251 806 C307 806 350 768 350 708 C350 649.333 309.667 611 251 611 C191 611 150 649 150 709 Z M190 709 C190 673 213.667 649 251 649 C287 649 311 672 311 708 C311 744 287.333 768 250 768 C214 768 190 743.667 190 709 Z " /></g></glyph>
<glyph glyph-name="AE" unicode="&#xc6;" horiz-adv-x="530" d="M182 714 L475 714 L475 657 L304 657 L304 402 L460 402 L460 346 L304 346 L304 57 L475 57 L475 0 L248 0 L248 247 L132 247 L77 0 L20 0 L182 714 Z M248 302 L248 657 L223 657 L144 302 L248 302 Z " />
<glyph glyph-name="Ccedilla" unicode="&#xc7;" horiz-adv-x="530" d="M204 -193 C218 -197 233 -199 249 -199 C295.667 -199 323 -177 323 -141 C323 -102.333 292.667 -85 238 -81 L271 -7 C127.051 14.3258 48 151.001 48 358 C48 563.359 140.468 725 320 725 C373.333 725 424 713.333 472 690 L448 640 C409.333 662.667 365.333 671 320 671 C177.074 671 108 531.307 108 358 C108 168.615 180.307 44 319 44 C373.667 44 416.333 56.3333 455 71 L455 16 C416.333 -1.33333 372 -10 312 -10 L309 -10 L288 -56 C344.667 -65.3333 373 -94.3333 373 -143 C373 -204.333 328.333 -240 255 -240 C237.667 -240 217.333 -238 204 -234 L204 -193 Z " />
<glyph glyph-name="Egrave" unicode="&#xc8;" horiz-adv-x="530" >
<path fill="black" d="M425 55 L425 0 L78 0 L78 714 L425 714 L425 659 L137 659 L137 400 L407 400 L407 345 L137 345 L137 55 L425 55 Z " /><g transform="translate(-13,181)" ><path fill="black" d="M127 766 L196 766 C221.333 718 266.333 656 301 616 L301 606 L263 606 C220.644 643.062 156.497 711.414 127 757 L127 766 Z " /></g></glyph>
<glyph glyph-name="Eacute" unicode="&#xc9;" horiz-adv-x="530" >
<path fill="black" d="M425 55 L425 0 L78 0 L78 714 L425 714 L425 659 L137 659 L137 400 L407 400 L407 345 L137 345 L137 55 L425 55 Z " /><g transform="translate(-14,181)" ><path fill="black" d="M219 606 L219 616 C260.333 666.667 297.667 719.333 323 766 L392 766 L392 757 C362.414 713.967 299.994 643.62 257 606 L219 606 Z " /></g></glyph>
<glyph glyph-name="Ecircumflex" unicode="&#xca;" horiz-adv-x="530" >
<path fill="black" d="M425 55 L425 0 L78 0 L78 714 L425 714 L425 659 L137 659 L137 400 L407 400 L407 345 L137 345 L137 55 L425 55 Z " /><g transform="translate(-2,181)" ><path fill="black" d="M126 606 L126 615 C158.731 658.642 200.387 721.775 222 765 L277 765 C300.479 720.65 344.789 652.178 374 615 L374 606 L341 606 C310.333 636.667 279.333 676.667 250 714 C220.667 678 187 634 159 606 L126 606 Z " /></g></glyph>
<glyph glyph-name="Edieresis" unicode="&#xcb;" horiz-adv-x="530" >
<g transform="translate(-2,170)" ><path fill="black" d="M162 629 C138 629 121 648 121 680 C121 710.667 138 729 162 729 C187.333 729 203 710.667 203 680 C203 646.667 187.333 629 162 629 Z M338 629 C314 629 297 648 297 680 C297 710.667 314 729 338 729 C363.333 729 379 710.667 379 680 C379 646.667 363.333 629 338 629 Z " /></g><path fill="black" d="M425 55 L425 0 L78 0 L78 714 L425 714 L425 659 L137 659 L137 400 L407 400 L407 345 L137 345 L137 55 L425 55 Z " /></glyph>
<glyph glyph-name="Igrave" unicode="&#xcc;" horiz-adv-x="530" >
<path fill="black" d="M94 42 L220 49 L220 664 L94 672 L94 714 L406 714 L406 672 L278 664 L278 49 L406 42 L406 0 L94 0 L94 42 Z " /><g transform="translate(-11,181)" ><path fill="black" d="M127 766 L196 766 C221.333 718 266.333 656 301 616 L301 606 L263 606 C220.644 643.062 156.497 711.414 127 757 L127 766 Z " /></g></glyph>
<glyph glyph-name="Iacute" unicode="&#xcd;" horiz-adv-x="530" >
<path fill="black" d="M94 42 L220 49 L220 664 L94 672 L94 714 L406 714 L406 672 L278 664 L278 49 L406 42 L406 0 L94 0 L94 42 Z " /><g transform="translate(-12,181)" ><path fill="black" d="M219 606 L219 616 C260.333 666.667 297.667 719.333 323 766 L392 766 L392 757 C362.414 713.967 299.994 643.62 257 606 L219 606 Z " /></g></glyph>
<glyph glyph-name="Icircumflex" unicode="&#xce;" horiz-adv-x="530" >
<path fill="black" d="M94 42 L220 49 L220 664 L94 672 L94 714 L406 714 L406 672 L278 664 L278 49 L406 42 L406 0 L94 0 L94 42 Z " /><g transform="translate(0,181)" ><path fill="black" d="M126 606 L126 615 C158.731 658.642 200.387 721.775 222 765 L277 765 C300.479 720.65 344.789 652.178 374 615 L374 606 L341 606 C310.333 636.667 279.333 676.667 250 714 C220.667 678 187 634 159 606 L126 606 Z " /></g></glyph>
<glyph glyph-name="Idieresis" unicode="&#xcf;" horiz-adv-x="530" >
<g transform="translate(0,170)" ><path fill="black" d="M162 629 C138 629 121 648 121 680 C121 710.667 138 729 162 729 C187.333 729 203 710.667 203 680 C203 646.667 187.333 629 162 629 Z M338 629 C314 629 297 648 297 680 C297 710.667 314 729 338 729 C363.333 729 379 710.667 379 680 C379 646.667 363.333 629 338 629 Z " /></g><path fill="black" d="M94 42 L220 49 L220 664 L94 672 L94 714 L406 714 L406 672 L278 664 L278 49 L406 42 L406 0 L94 0 L94 42 Z " /></glyph>
<glyph glyph-name="Eth" unicode="&#xd0;" horiz-adv-x="530" d="M64 340 L0 340 L0 393 L64 393 L64 714 L225 714 C391.667 714 474 596 474 364 C474 122.667 392 0 216 0 L64 0 L64 340 Z M212 55 C353.333 55 413 160.333 413 363 C413 564.333 358.667 659 212 659 L122 659 L122 393 L275 393 L275 340 L122 340 L122 55 L212 55 Z " />
<glyph glyph-name="Ntilde" unicode="&#xd1;" horiz-adv-x="530" >
<path fill="black" d="M54 0 L54 714 L133 714 L394 72 L398 72 C398 104.993 391 173.438 391 224 L391 714 L446 714 L446 0 L371 0 L106 645 L102 645 C104.667 597 108 550.667 108 484 L108 0 L54 0 Z " /><g transform="translate(5,181)" ><path fill="black" d="M102 616 C108.667 680 133.333 725 184 725 C236.778 725 270.889 663 313 663 C337 663 352 684 358 726 L397 726 C393 654 360 616 316 616 C261.895 616 225.673 679 186 679 C163.333 679 146.333 658.667 141 616 L102 616 Z " /></g></glyph>
<glyph glyph-name="Ograve" unicode="&#xd2;" horiz-adv-x="530" >
<path fill="black" d="M251 -10 C85.5368 -10 36 163.39 36 359 C36 600.333 106 725 250 725 C406.312 725 464 565.922 464 358 C464 157.896 415.13 -10 251 -10 Z M251 44 C355 44 405 151.333 405 358 C405 562 354 671 250 671 C142 671 95 560.667 95 358 C95 155.333 148.333 44 251 44 Z " /><g transform="translate(-11,181)" ><path fill="black" d="M127 766 L196 766 C221.333 718 266.333 656 301 616 L301 606 L263 606 C220.644 643.062 156.497 711.414 127 757 L127 766 Z " /></g></glyph>
<glyph glyph-name="Oacute" unicode="&#xd3;" horiz-adv-x="530" >
<path fill="black" d="M251 -10 C85.5368 -10 36 163.39 36 359 C36 600.333 106 725 250 725 C406.312 725 464 565.922 464 358 C464 157.896 415.13 -10 251 -10 Z M251 44 C355 44 405 151.333 405 358 C405 562 354 671 250 671 C142 671 95 560.667 95 358 C95 155.333 148.333 44 251 44 Z " /><g transform="translate(-12,181)" ><path fill="black" d="M219 606 L219 616 C260.333 666.667 297.667 719.333 323 766 L392 766 L392 757 C362.414 713.967 299.994 643.62 257 606 L219 606 Z " /></g></glyph>
<glyph glyph-name="Ocircumflex" unicode="&#xd4;" horiz-adv-x="530" >
<path fill="black" d="M251 -10 C85.5368 -10 36 163.39 36 359 C36 600.333 106 725 250 725 C406.312 725 464 565.922 464 358 C464 157.896 415.13 -10 251 -10 Z M251 44 C355 44 405 151.333 405 358 C405 562 354 671 250 671 C142 671 95 560.667 95 358 C95 155.333 148.333 44 251 44 Z " /><g transform="translate(0,181)" ><path fill="black" d="M126 606 L126 615 C158.731 658.642 200.387 721.775 222 765 L277 765 C300.479 720.65 344.789 652.178 374 615 L374 606 L341 606 C310.333 636.667 279.333 676.667 250 714 C220.667 678 187 634 159 606 L126 606 Z " /></g></glyph>
<glyph glyph-name="Otilde" unicode="&#xd5;" horiz-adv-x="530" >
<path fill="black" d="M251 -10 C85.5368 -10 36 163.39 36 359 C36 600.333 106 725 250 725 C406.312 725 464 565.922 464 358 C464 157.896 415.13 -10 251 -10 Z M251 44 C355 44 405 151.333 405 358 C405 562 354 671 250 671 C142 671 95 560.667 95 358 C95 155.333 148.333 44 251 44 Z " /><g transform="translate(0,181)" ><path fill="black" d="M102 616 C108.667 680 133.333 725 184 725 C236.778 725 270.889 663 313 663 C337 663 352 684 358 726 L397 726 C393 654 360 616 316 616 C261.895 616 225.673 679 186 679 C163.333 679 146.333 658.667 141 616 L102 616 Z " /></g></glyph>
<glyph glyph-name="Odieresis" unicode="&#xd6;" horiz-adv-x="530" >
<g transform="translate(0,170)" ><path fill="black" d="M162 629 C138 629 121 648 121 680 C121 710.667 138 729 162 729 C187.333 729 203 710.667 203 680 C203 646.667 187.333 629 162 629 Z M338 629 C314 629 297 648 297 680 C297 710.667 314 729 338 729 C363.333 729 379 710.667 379 680 C379 646.667 363.333 629 338 629 Z " /></g><path fill="black" d="M251 -10 C85.5368 -10 36 163.39 36 359 C36 600.333 106 725 250 725 C406.312 725 464 565.922 464 358 C464 157.896 415.13 -10 251 -10 Z M251 44 C355 44 405 151.333 405 358 C405 562 354 671 250 671 C142 671 95 560.667 95 358 C95 155.333 148.333 44 251 44 Z " /></glyph>
<glyph glyph-name="multiply" unicode="&#xd7;" horiz-adv-x="530" d="M60 202 L210 353 L60 503 L94 538 L244 387 L395 539 L430 506 L278 353 L428 202 L394 169 L244 319 L93 168 L60 202 Z " />
<glyph glyph-name="Oslash" unicode="&#xd8;" horiz-adv-x="530" d="M76 114 C46.6667 180.667 36 267 36 359 C36 600.333 106 725 250 725 C314 725 359.333 699 394 655 L446 744 L487 720 L421 608 C451.667 542.667 464 456.667 464 358 C464 157.896 415.13 -10 251 -10 C183 -10 136.333 18.3333 103 65 L44 -35 L2 -11 L76 114 Z M136 122 C162.667 70 201 44 251 44 C355 44 405 151.333 405 358 C405 433.333 398 495.333 384 544 L136 122 Z M361 600 C335.667 647.333 298.667 671 250 671 C142 671 95 560.667 95 358 C95 286 102 228 114 180 L361 600 Z " />
<glyph glyph-name="Ugrave" unicode="&#xd9;" horiz-adv-x="530" >
<path fill="black" d="M54 714 L113 714 L113 229 C113 98.3333 161.667 44 251 44 C337.667 44 387 96.3333 387 227 L387 714 L446 714 L446 224 C446 61.3333 372.667 -10 250 -10 C120.667 -10 54 64.6667 54 226 L54 714 Z " /><g transform="translate(-11,181)" ><path fill="black" d="M127 766 L196 766 C221.333 718 266.333 656 301 616 L301 606 L263 606 C220.644 643.062 156.497 711.414 127 757 L127 766 Z " /></g></glyph>
<glyph glyph-name="Uacute" unicode="&#xda;" horiz-adv-x="530" >
<path fill="black" d="M54 714 L113 714 L113 229 C113 98.3333 161.667 44 251 44 C337.667 44 387 96.3333 387 227 L387 714 L446 714 L446 224 C446 61.3333 372.667 -10 250 -10 C120.667 -10 54 64.6667 54 226 L54 714 Z " /><g transform="translate(-12,181)" ><path fill="black" d="M219 606 L219 616 C260.333 666.667 297.667 719.333 323 766 L392 766 L392 757 C362.414 713.967 299.994 643.62 257 606 L219 606 Z " /></g></glyph>
<glyph glyph-name="Ucircumflex" unicode="&#xdb;" horiz-adv-x="530" >
<path fill="black" d="M54 714 L113 714 L113 229 C113 98.3333 161.667 44 251 44 C337.667 44 387 96.3333 387 227 L387 714 L446 714 L446 224 C446 61.3333 372.667 -10 250 -10 C120.667 -10 54 64.6667 54 226 L54 714 Z " /><g transform="translate(0,181)" ><path fill="black" d="M126 606 L126 615 C158.731 658.642 200.387 721.775 222 765 L277 765 C300.479 720.65 344.789 652.178 374 615 L374 606 L341 606 C310.333 636.667 279.333 676.667 250 714 C220.667 678 187 634 159 606 L126 606 Z " /></g></glyph>
<glyph glyph-name="Udieresis" unicode="&#xdc;" horiz-adv-x="530" >
<g transform="translate(0,170)" ><path fill="black" d="M162 629 C138 629 121 648 121 680 C121 710.667 138 729 162 729 C187.333 729 203 710.667 203 680 C203 646.667 187.333 629 162 629 Z M338 629 C314 629 297 648 297 680 C297 710.667 314 729 338 729 C363.333 729 379 710.667 379 680 C379 646.667 363.333 629 338 629 Z " /></g><path fill="black" d="M54 714 L113 714 L113 229 C113 98.3333 161.667 44 251 44 C337.667 44 387 96.3333 387 227 L387 714 L446 714 L446 224 C446 61.3333 372.667 -10 250 -10 C120.667 -10 54 64.6667 54 226 L54 714 Z " /></glyph>
<glyph glyph-name="Yacute" unicode="&#xdd;" horiz-adv-x="530" >
<path fill="black" d="M221 0 L221 274 L26 714 L90 714 L250 331 L410 714 L474 714 L279 275 L279 0 L221 0 Z " /><g transform="translate(-12,181)" ><path fill="black" d="M219 606 L219 616 C260.333 666.667 297.667 719.333 323 766 L392 766 L392 757 C362.414 713.967 299.994 643.62 257 606 L219 606 Z " /></g></glyph>
<glyph glyph-name="Thorn" unicode="&#xde;" horiz-adv-x="530" d="M78 0 L78 714 L136 714 L136 590 L246 590 C386 590 455 525 455 385 C455 249 390.667 166 244 166 L136 166 L136 0 L78 0 Z M136 220 L235 220 C343 220 394 265.667 394 383 C394 491 346.333 535 241 535 L136 535 L136 220 Z " />
<glyph glyph-name="germandbls" unicode="&#xdf;" horiz-adv-x="530" d="M92 581 C92 694.333 146.333 765 257 765 C350.333 765 405 711.667 405 629 C405 514.111 305 503.222 305 415 C305 373.667 327.333 349.333 366 308 C421.809 249.534 453 213.795 453 142 C453 52.6667 404 -10 308 -10 C268.667 -10 234.667 -1.33333 206 16 L206 73 C236.667 54.3333 268.333 43 303 43 C363 43 394 81 394 141 C394 199.667 365.667 229.667 323 271 C283.356 310.644 244 350.455 244 414 C244 515.333 345 527.333 345 626 C345 680.667 314 714 254 714 C180.667 714 150 663 150 571 L150 0 L92 0 L92 581 Z " />
<glyph glyph-name="agrave" unicode="&#xe0;" horiz-adv-x="530" >
<path fill="black" d="M367 85 L364 85 C334.667 30.3333 291.333 -10 214 -10 C124.667 -10 69 45 69 141 C69 250.333 139.667 302.333 277 309 L365 313 L365 354 C365 454 324.667 490 254 490 C210 490 165.667 474.667 123 452 L101 500 C150.333 526.667 197 543 257 543 C365 543 423 489 423 361 L423 0 L378 0 L367 85 Z M365 269 L288 265 C184 258.333 129 222 129 142 C129 74 168.667 42 226 42 C310 42 365 103.667 365 217 L365 269 Z " /><g transform="translate(-1,0)" ><path fill="black" d="M127 766 L196 766 C221.333 718 266.333 656 301 616 L301 606 L263 606 C220.644 643.062 156.497 711.414 127 757 L127 766 Z " /></g></glyph>
<glyph glyph-name="aacute" unicode="&#xe1;" horiz-adv-x="530" >
<path fill="black" d="M367 85 L364 85 C334.667 30.3333 291.333 -10 214 -10 C124.667 -10 69 45 69 141 C69 250.333 139.667 302.333 277 309 L365 313 L365 354 C365 454 324.667 490 254 490 C210 490 165.667 474.667 123 452 L101 500 C150.333 526.667 197 543 257 543 C365 543 423 489 423 361 L423 0 L378 0 L367 85 Z M365 269 L288 265 C184 258.333 129 222 129 142 C129 74 168.667 42 226 42 C310 42 365 103.667 365 217 L365 269 Z " /><g transform="translate(-2,0)" ><path fill="black" d="M219 606 L219 616 C260.333 666.667 297.667 719.333 323 766 L392 766 L392 757 C362.414 713.967 299.994 643.62 257 606 L219 606 Z " /></g></glyph>
<glyph glyph-name="acircumflex" unicode="&#xe2;" horiz-adv-x="530" >
<path fill="black" d="M367 85 L364 85 C334.667 30.3333 291.333 -10 214 -10 C124.667 -10 69 45 69 141 C69 250.333 139.667 302.333 277 309 L365 313 L365 354 C365 454 324.667 490 254 490 C210 490 165.667 474.667 123 452 L101 500 C150.333 526.667 197 543 257 543 C365 543 423 489 423 361 L423 0 L378 0 L367 85 Z M365 269 L288 265 C184 258.333 129 222 129 142 C129 74 168.667 42 226 42 C310 42 365 103.667 365 217 L365 269 Z " /><g transform="translate(10,0)" ><path fill="black" d="M126 606 L126 615 C158.731 658.642 200.387 721.775 222 765 L277 765 C300.479 720.65 344.789 652.178 374 615 L374 606 L341 606 C310.333 636.667 279.333 676.667 250 714 C220.667 678 187 634 159 606 L126 606 Z " /></g></glyph>
<glyph glyph-name="atilde" unicode="&#xe3;" horiz-adv-x="530" >
<path fill="black" d="M367 85 L364 85 C334.667 30.3333 291.333 -10 214 -10 C124.667 -10 69 45 69 141 C69 250.333 139.667 302.333 277 309 L365 313 L365 354 C365 454 324.667 490 254 490 C210 490 165.667 474.667 123 452 L101 500 C150.333 526.667 197 543 257 543 C365 543 423 489 423 361 L423 0 L378 0 L367 85 Z M365 269 L288 265 C184 258.333 129 222 129 142 C129 74 168.667 42 226 42 C310 42 365 103.667 365 217 L365 269 Z " /><g transform="translate(10,0)" ><path fill="black" d="M102 616 C108.667 680 133.333 725 184 725 C236.778 725 270.889 663 313 663 C337 663 352 684 358 726 L397 726 C393 654 360 616 316 616 C261.895 616 225.673 679 186 679 C163.333 679 146.333 658.667 141 616 L102 616 Z " /></g></glyph>
<glyph glyph-name="adieresis" unicode="&#xe4;" horiz-adv-x="530" >
<g transform="translate(10,-11)" ><path fill="black" d="M162 629 C138 629 121 648 121 680 C121 710.667 138 729 162 729 C187.333 729 203 710.667 203 680 C203 646.667 187.333 629 162 629 Z M338 629 C314 629 297 648 297 680 C297 710.667 314 729 338 729 C363.333 729 379 710.667 379 680 C379 646.667 363.333 629 338 629 Z " /></g><path fill="black" d="M367 85 L364 85 C334.667 30.3333 291.333 -10 214 -10 C124.667 -10 69 45 69 141 C69 250.333 139.667 302.333 277 309 L365 313 L365 354 C365 454 324.667 490 254 490 C210 490 165.667 474.667 123 452 L101 500 C150.333 526.667 197 543 257 543 C365 543 423 489 423 361 L423 0 L378 0 L367 85 Z M365 269 L288 265 C184 258.333 129 222 129 142 C129 74 168.667 42 226 42 C310 42 365 103.667 365 217 L365 269 Z " /></glyph>
<glyph glyph-name="aring" unicode="&#xe5;" horiz-adv-x="530" >
<path fill="black" d="M367 85 L364 85 C334.667 30.3333 291.333 -10 214 -10 C124.667 -10 69 45 69 141 C69 250.333 139.667 302.333 277 309 L365 313 L365 354 C365 454 324.667 490 254 490 C210 490 165.667 474.667 123 452 L101 500 C150.333 526.667 197 543 257 543 C365 543 423 489 423 361 L423 0 L378 0 L367 85 Z M365 269 L288 265 C184 258.333 129 222 129 142 C129 74 168.667 42 226 42 C310 42 365 103.667 365 217 L365 269 Z " /><g transform="translate(10,0)" ><path fill="black" d="M150 709 C150 767.667 191 806 251 806 C307 806 350 768 350 708 C350 649.333 309.667 611 251 611 C191 611 150 649 150 709 Z M190 709 C190 673 213.667 649 251 649 C287 649 311 672 311 708 C311 744 287.333 768 250 768 C214 768 190 743.667 190 709 Z " /></g></glyph>
<glyph glyph-name="ae" unicode="&#xe6;" horiz-adv-x="530" d="M215 311 L215 356 C215 452 191.667 490 141 490 C111.667 490 83.3333 478.333 56 455 L36 500 C66.6667 524 105.333 542 148 542 C204 542 240.333 510 255 434 C272.333 498 305 543 361 543 C441 543 481 448.667 481 302 L481 260 L275 260 C275.667 115.333 310.333 43 379 43 C403 43 430.333 50.3333 465 81 L465 24 C434.333 -1.33333 403.667 -10 373 -10 C309.667 -10 267.667 32.3333 247 117 C228.333 31.6667 196 -10 132 -10 C57.3333 -10 19 45.6667 19 139 C19 248.333 74 302.333 170 309 L215 311 Z M215 264 L181 262 C110.333 258 73 219 73 139 C73 75 98 43 138 43 C191.333 43 215 104 215 208 L215 264 Z M428 311 C428 421.667 406 490 358 490 C311.333 490 280 427 276 311 L428 311 Z " />
<glyph glyph-name="ccedilla" unicode="&#xe7;" horiz-adv-x="530" d="M204 -193 C218 -197 233 -199 249 -199 C295.667 -199 323 -177 323 -141 C323 -102.333 292.667 -85 238 -81 L270 -9 C148.667 4.33333 81 95.3333 81 262 C81 452.9 172.589 543 306 543 C352.667 543 394.333 534.333 431 517 L413 467 C379.667 485.667 346 491 310 491 C202 491 141 412.333 141 263 C141 121.667 192.333 43 303 43 C345.667 43 389 52.6667 425 70 L425 16 C393 1.33333 353 -8.66667 309 -10 L288 -56 C344.667 -65.3333 373 -94.3333 373 -143 C373 -204.333 328.333 -240 255 -240 C237.667 -240 217.333 -238 204 -234 L204 -193 Z " />
<glyph glyph-name="egrave" unicode="&#xe8;" horiz-adv-x="530" >
<path fill="black" d="M428 25 C382.667 2.33333 339 -10 283 -10 C136.333 -10 57 92.3333 57 263 C57 432.074 127.359 543 258 543 C385.974 543 447 438.022 447 301 L447 258 L117 258 C119 114.667 174.667 43 284 43 C337.333 43 378.667 55.6667 428 81 L428 25 Z M257 491 C177 491 125.667 427.667 119 309 L389 309 C389 413.918 345.97 491 257 491 Z " /><g transform="translate(-4,0)" ><path fill="black" d="M127 766 L196 766 C221.333 718 266.333 656 301 616 L301 606 L263 606 C220.644 643.062 156.497 711.414 127 757 L127 766 Z " /></g></glyph>
<glyph glyph-name="eacute" unicode="&#xe9;" horiz-adv-x="530" >
<path fill="black" d="M428 25 C382.667 2.33333 339 -10 283 -10 C136.333 -10 57 92.3333 57 263 C57 432.074 127.359 543 258 543 C385.974 543 447 438.022 447 301 L447 258 L117 258 C119 114.667 174.667 43 284 43 C337.333 43 378.667 55.6667 428 81 L428 25 Z M257 491 C177 491 125.667 427.667 119 309 L389 309 C389 413.918 345.97 491 257 491 Z " /><g transform="translate(-5,0)" ><path fill="black" d="M219 606 L219 616 C260.333 666.667 297.667 719.333 323 766 L392 766 L392 757 C362.414 713.967 299.994 643.62 257 606 L219 606 Z " /></g></glyph>
<glyph glyph-name="ecircumflex" unicode="&#xea;" horiz-adv-x="530" >
<path fill="black" d="M428 25 C382.667 2.33333 339 -10 283 -10 C136.333 -10 57 92.3333 57 263 C57 432.074 127.359 543 258 543 C385.974 543 447 438.022 447 301 L447 258 L117 258 C119 114.667 174.667 43 284 43 C337.333 43 378.667 55.6667 428 81 L428 25 Z M257 491 C177 491 125.667 427.667 119 309 L389 309 C389 413.918 345.97 491 257 491 Z " /><g transform="translate(7,0)" ><path fill="black" d="M126 606 L126 615 C158.731 658.642 200.387 721.775 222 765 L277 765 C300.479 720.65 344.789 652.178 374 615 L374 606 L341 606 C310.333 636.667 279.333 676.667 250 714 C220.667 678 187 634 159 606 L126 606 Z " /></g></glyph>
<glyph glyph-name="edieresis" unicode="&#xeb;" horiz-adv-x="530" >
<g transform="translate(7,-11)" ><path fill="black" d="M162 629 C138 629 121 648 121 680 C121 710.667 138 729 162 729 C187.333 729 203 710.667 203 680 C203 646.667 187.333 629 162 629 Z M338 629 C314 629 297 648 297 680 C297 710.667 314 729 338 729 C363.333 729 379 710.667 379 680 C379 646.667 363.333 629 338 629 Z " /></g><path fill="black" d="M428 25 C382.667 2.33333 339 -10 283 -10 C136.333 -10 57 92.3333 57 263 C57 432.074 127.359 543 258 543 C385.974 543 447 438.022 447 301 L447 258 L117 258 C119 114.667 174.667 43 284 43 C337.333 43 378.667 55.6667 428 81 L428 25 Z M257 491 C177 491 125.667 427.667 119 309 L389 309 C389 413.918 345.97 491 257 491 Z " /></glyph>
<glyph glyph-name="igrave" unicode="&#xec;" horiz-adv-x="500" >
<path fill="black" d="M78 43 L230 50 L230 480 L89 490 L89 533 L288 533 L288 50 L428 43 L428 0 L78 0 L78 43 Z " /><g transform="translate(-11,0)" ><path fill="black" d="M127 766 L196 766 C221.333 718 266.333 656 301 616 L301 606 L263 606 C220.644 643.062 156.497 711.414 127 757 L127 766 Z " /></g></glyph>
<glyph glyph-name="iacute" unicode="&#xed;" horiz-adv-x="500" >
<path fill="black" d="M78 43 L230 50 L230 480 L89 490 L89 533 L288 533 L288 50 L428 43 L428 0 L78 0 L78 43 Z " /><g transform="translate(-12,0)" ><path fill="black" d="M219 606 L219 616 C260.333 666.667 297.667 719.333 323 766 L392 766 L392 757 C362.414 713.967 299.994 643.62 257 606 L219 606 Z " /></g></glyph>
<glyph glyph-name="icircumflex" unicode="&#xee;" horiz-adv-x="500" >
<path fill="black" d="M78 43 L230 50 L230 480 L89 490 L89 533 L288 533 L288 50 L428 43 L428 0 L78 0 L78 43 Z " /><path fill="black" d="M126 606 L126 615 C158.731 658.642 200.387 721.775 222 765 L277 765 C300.479 720.65 344.789 652.178 374 615 L374 606 L341 606 C310.333 636.667 279.333 676.667 250 714 C220.667 678 187 634 159 606 L126 606 Z " /></glyph>
<glyph glyph-name="idieresis" unicode="&#xef;" horiz-adv-x="500" >
<g transform="translate(0,-11)" ><path fill="black" d="M162 629 C138 629 121 648 121 680 C121 710.667 138 729 162 729 C187.333 729 203 710.667 203 680 C203 646.667 187.333 629 162 629 Z M338 629 C314 629 297 648 297 680 C297 710.667 314 729 338 729 C363.333 729 379 710.667 379 680 C379 646.667 363.333 629 338 629 Z " /></g><path fill="black" d="M78 43 L230 50 L230 480 L89 490 L89 533 L288 533 L288 50 L428 43 L428 0 L78 0 L78 43 Z " /></glyph>
<glyph glyph-name="eth" unicode="&#xf0;" horiz-adv-x="530" d="M384 409 C365.333 498.333 322 575.333 262 638 L158 575 L133 615 L226 671 C203.333 691 177.667 708.333 151 723 L179 761 C212.333 745 243.667 724.333 273 699 L375 761 L399 721 L308 666 C406.667 563.333 451 422.333 451 269 C451 85 379.333 -10 250 -10 C121.922 -10 49 93.1818 49 229 C49 381 125.667 470 247 470 C308.333 470 354.333 446.667 381 408 L384 409 Z M251 41 C345.667 41 391 118.667 391 244 C391 342.823 349.312 418 257 418 C159.667 418 108 349.333 108 228 C108 118.667 157.667 41 251 41 Z " />
<glyph glyph-name="ntilde" unicode="&#xf1;" horiz-adv-x="530" >
<path fill="black" d="M71 0 L71 533 L118 533 L126 444 L129 444 C153 501.333 203 543 279 543 C379 543 434 485.667 434 355 L434 0 L376 0 L376 350 C376 446 341 490 269 490 C183.667 490 129 423 129 291 L129 0 L71 0 Z " /><g transform="translate(8,0)" ><path fill="black" d="M102 616 C108.667 680 133.333 725 184 725 C236.778 725 270.889 663 313 663 C337 663 352 684 358 726 L397 726 C393 654 360 616 316 616 C261.895 616 225.673 679 186 679 C163.333 679 146.333 658.667 141 616 L102 616 Z " /></g></glyph>
<glyph glyph-name="ograve" unicode="&#xf2;" horiz-adv-x="530" >
<path fill="black" d="M251 -10 C121.667 -10 49 90.6667 49 268 C49 444 120.667 543 250 543 C383.333 543 451 436.667 451 266 C451 91.3333 381.667 -10 251 -10 Z M250 41 C346 41 391 120.333 391 267 C391 408.333 347 491 251 491 C157.667 491 109 413.667 109 267 C109 121.667 155.333 41 250 41 Z " /><g transform="translate(-11,0)" ><path fill="black" d="M127 766 L196 766 C221.333 718 266.333 656 301 616 L301 606 L263 606 C220.644 643.062 156.497 711.414 127 757 L127 766 Z " /></g></glyph>
<glyph glyph-name="oacute" unicode="&#xf3;" horiz-adv-x="530" >
<path fill="black" d="M251 -10 C121.667 -10 49 90.6667 49 268 C49 444 120.667 543 250 543 C383.333 543 451 436.667 451 266 C451 91.3333 381.667 -10 251 -10 Z M250 41 C346 41 391 120.333 391 267 C391 408.333 347 491 251 491 C157.667 491 109 413.667 109 267 C109 121.667 155.333 41 250 41 Z " /><g transform="translate(-12,0)" ><path fill="black" d="M219 606 L219 616 C260.333 666.667 297.667 719.333 323 766 L392 766 L392 757 C362.414 713.967 299.994 643.62 257 606 L219 606 Z " /></g></glyph>
<glyph glyph-name="ocircumflex" unicode="&#xf4;" horiz-adv-x="530" >
<path fill="black" d="M251 -10 C121.667 -10 49 90.6667 49 268 C49 444 120.667 543 250 543 C383.333 543 451 436.667 451 266 C451 91.3333 381.667 -10 251 -10 Z M250 41 C346 41 391 120.333 391 267 C391 408.333 347 491 251 491 C157.667 491 109 413.667 109 267 C109 121.667 155.333 41 250 41 Z " /><path fill="black" d="M126 606 L126 615 C158.731 658.642 200.387 721.775 222 765 L277 765 C300.479 720.65 344.789 652.178 374 615 L374 606 L341 606 C310.333 636.667 279.333 676.667 250 714 C220.667 678 187 634 159 606 L126 606 Z " /></glyph>
<glyph glyph-name="otilde" unicode="&#xf5;" horiz-adv-x="530" >
<path fill="black" d="M251 -10 C121.667 -10 49 90.6667 49 268 C49 444 120.667 543 250 543 C383.333 543 451 436.667 451 266 C451 91.3333 381.667 -10 251 -10 Z M250 41 C346 41 391 120.333 391 267 C391 408.333 347 491 251 491 C157.667 491 109 413.667 109 267 C109 121.667 155.333 41 250 41 Z " /><path fill="black" d="M102 616 C108.667 680 133.333 725 184 725 C236.778 725 270.889 663 313 663 C337 663 352 684 358 726 L397 726 C393 654 360 616 316 616 C261.895 616 225.673 679 186 679 C163.333 679 146.333 658.667 141 616 L102 616 Z " /></glyph>
<glyph glyph-name="odieresis" unicode="&#xf6;" horiz-adv-x="530" >
<g transform="translate(0,-11)" ><path fill="black" d="M162 629 C138 629 121 648 121 680 C121 710.667 138 729 162 729 C187.333 729 203 710.667 203 680 C203 646.667 187.333 629 162 629 Z M338 629 C314 629 297 648 297 680 C297 710.667 314 729 338 729 C363.333 729 379 710.667 379 680 C379 646.667 363.333 629 338 629 Z " /></g><path fill="black" d="M251 -10 C121.667 -10 49 90.6667 49 268 C49 444 120.667 543 250 543 C383.333 543 451 436.667 451 266 C451 91.3333 381.667 -10 251 -10 Z M250 41 C346 41 391 120.333 391 267 C391 408.333 347 491 251 491 C157.667 491 109 413.667 109 267 C109 121.667 155.333 41 250 41 Z " /></glyph>
<glyph glyph-name="divide" unicode="&#xf7;" horiz-adv-x="530" d="M59 378 L441 378 L441 328 L59 328 L59 378 Z M252 125 C228 125 211 144 211 176 C211 206.667 228 225 252 225 C277.333 225 293 206.667 293 176 C293 142.667 277.333 125 252 125 Z M252 481 C228 481 211 500 211 532 C211 562.667 228 581 252 581 C277.333 581 293 562.667 293 532 C293 498.667 277.333 481 252 481 Z " />
<glyph glyph-name="oslash" unicode="&#xf8;" horiz-adv-x="530" d="M104 60 C67.3333 108.667 49 178 49 268 C49 444 120.667 543 250 543 C302 543 344.333 527.333 377 496 L425 573 L464 550 L407 459 C436.333 410.333 451 346 451 266 C451 91.3333 381.667 -10 251 -10 C206.333 -10 168.333 2 137 26 L88 -52 L49 -27 L104 60 Z M346 447 C324 476.333 292.333 491 251 491 C157.667 491 109 413.667 109 267 C109 201.667 118.333 150.333 137 113 L346 447 Z M166 73 C188.667 51.6667 216.667 41 250 41 C346 41 391 120.333 391 267 C391 323 384.333 368 371 402 L166 73 Z " />
<glyph glyph-name="ugrave" unicode="&#xf9;" horiz-adv-x="530" >
<path fill="black" d="M66 533 L124 533 L124 184 C124 80 163.667 42 237 42 C322.333 42 371 110.667 371 244 L371 533 L429 533 L429 0 L381 0 L373 89 L369 89 C346.333 30.3333 298 -10 222 -10 C119.333 -10 66 49 66 173 L66 533 Z " /><g transform="translate(-11,0)" ><path fill="black" d="M127 766 L196 766 C221.333 718 266.333 656 301 616 L301 606 L263 606 C220.644 643.062 156.497 711.414 127 757 L127 766 Z " /></g></glyph>
<glyph glyph-name="uacute" unicode="&#xfa;" horiz-adv-x="530" >
<path fill="black" d="M66 533 L124 533 L124 184 C124 80 163.667 42 237 42 C322.333 42 371 110.667 371 244 L371 533 L429 533 L429 0 L381 0 L373 89 L369 89 C346.333 30.3333 298 -10 222 -10 C119.333 -10 66 49 66 173 L66 533 Z " /><g transform="translate(-12,0)" ><path fill="black" d="M219 606 L219 616 C260.333 666.667 297.667 719.333 323 766 L392 766 L392 757 C362.414 713.967 299.994 643.62 257 606 L219 606 Z " /></g></glyph>
<glyph glyph-name="ucircumflex" unicode="&#xfb;" horiz-adv-x="530" >
<path fill="black" d="M66 533 L124 533 L124 184 C124 80 163.667 42 237 42 C322.333 42 371 110.667 371 244 L371 533 L429 533 L429 0 L381 0 L373 89 L369 89 C346.333 30.3333 298 -10 222 -10 C119.333 -10 66 49 66 173 L66 533 Z " /><path fill="black" d="M126 606 L126 615 C158.731 658.642 200.387 721.775 222 765 L277 765 C300.479 720.65 344.789 652.178 374 615 L374 606 L341 606 C310.333 636.667 279.333 676.667 250 714 C220.667 678 187 634 159 606 L126 606 Z " /></glyph>
<glyph glyph-name="udieresis" unicode="&#xfc;" horiz-adv-x="530" >
<g transform="translate(0,-11)" ><path fill="black" d="M162 629 C138 629 121 648 121 680 C121 710.667 138 729 162 729 C187.333 729 203 710.667 203 680 C203 646.667 187.333 629 162 629 Z M338 629 C314 629 297 648 297 680 C297 710.667 314 729 338 729 C363.333 729 379 710.667 379 680 C379 646.667 363.333 629 338 629 Z " /></g><path fill="black" d="M66 533 L124 533 L124 184 C124 80 163.667 42 237 42 C322.333 42 371 110.667 371 244 L371 533 L429 533 L429 0 L381 0 L373 89 L369 89 C346.333 30.3333 298 -10 222 -10 C119.333 -10 66 49 66 173 L66 533 Z " /></glyph>
<glyph glyph-name="yacute" unicode="&#xfd;" horiz-adv-x="530" >
<path fill="black" d="M54 -184 C68.6667 -188 86.6667 -192 104 -192 C149.333 -192 174.667 -167.667 200 -93 L230 1 L49 533 L109 533 L221 196 C239.667 137.333 250.333 99.6667 257 65 L260 65 C268 103.667 280.667 153.333 294 196 L394 533 L455 533 L260 -88 C229.333 -186.667 185 -244 109 -244 C91.6667 -244 73.3333 -241.333 54 -236 L54 -184 Z " /><g transform="translate(-12,0)" ><path fill="black" d="M219 606 L219 616 C260.333 666.667 297.667 719.333 323 766 L392 766 L392 757 C362.414 713.967 299.994 643.62 257 606 L219 606 Z " /></g></glyph>
<glyph glyph-name="thorn" unicode="&#xfe;" horiz-adv-x="530" d="M71 -240 L71 740 L129 740 L129 538 C129 500.667 127.667 472.667 125 438 L128 438 C152.036 494.084 198.583 543 275 543 C388.333 543 451 451.667 451 269 C451 83.6667 381.667 -10 271 -10 C197.667 -10 154.333 36.3333 129 87 L125 87 C127.667 59 129 28.6667 129 -2 L129 -240 L71 -240 Z M129 257 C129 119.667 174.333 43 261 43 C341 43 391 116.667 391 270 C391 416.667 348 490 262 490 C170 490 129 413 129 285 L129 257 Z " />
<glyph glyph-name="ydieresis" unicode="&#xff;" horiz-adv-x="530" >
<g transform="translate(0,-11)" ><path fill="black" d="M162 629 C138 629 121 648 121 680 C121 710.667 138 729 162 729 C187.333 729 203 710.667 203 680 C203 646.667 187.333 629 162 629 Z M338 629 C314 629 297 648 297 680 C297 710.667 314 729 338 729 C363.333 729 379 710.667 379 680 C379 646.667 363.333 629 338 629 Z " /></g><path fill="black" d="M54 -184 C68.6667 -188 86.6667 -192 104 -192 C149.333 -192 174.667 -167.667 200 -93 L230 1 L49 533 L109 533 L221 196 C239.667 137.333 250.333 99.6667 257 65 L260 65 C268 103.667 280.667 153.333 294 196 L394 533 L455 533 L260 -88 C229.333 -186.667 185 -244 109 -244 C91.6667 -244 73.3333 -241.333 54 -236 L54 -184 Z " /></glyph>
<glyph glyph-name="Amacron" unicode="&#x100;" horiz-adv-x="530" >
<path fill="black" d="M212 714 L287 714 L480 0 L420 0 L356 247 L144 247 L81 0 L20 0 L212 714 Z M342 301 L273 565 L248 665 C241.333 634.333 234.333 597 225 565 L158 301 L342 301 Z " /><g transform="translate(0,178)" ><path fill="black" d="M131 672 L368 672 L368 626 L131 626 L131 672 Z " /></g></glyph>
<glyph glyph-name="amacron" unicode="&#x101;" horiz-adv-x="530" >
<path fill="black" d="M367 85 L364 85 C334.667 30.3333 291.333 -10 214 -10 C124.667 -10 69 45 69 141 C69 250.333 139.667 302.333 277 309 L365 313 L365 354 C365 454 324.667 490 254 490 C210 490 165.667 474.667 123 452 L101 500 C150.333 526.667 197 543 257 543 C365 543 423 489 423 361 L423 0 L378 0 L367 85 Z M365 269 L288 265 C184 258.333 129 222 129 142 C129 74 168.667 42 226 42 C310 42 365 103.667 365 217 L365 269 Z " /><g transform="translate(10,-3)" ><path fill="black" d="M131 672 L368 672 L368 626 L131 626 L131 672 Z " /></g></glyph>
<glyph glyph-name="Abreve" unicode="&#x102;" horiz-adv-x="530" >
<path fill="black" d="M212 714 L287 714 L480 0 L420 0 L356 247 L144 247 L81 0 L20 0 L212 714 Z M342 301 L273 565 L248 665 C241.333 634.333 234.333 597 225 565 L158 301 L342 301 Z " /><g transform="translate(0,181)" ><path fill="black" d="M173 730 C177 680.667 203.333 653 250 653 C296.667 653 323 680.667 327 730 L367 730 C364.333 654 320.667 610 250 610 C180.667 610 135.667 650 133 730 L173 730 Z " /></g></glyph>
<glyph glyph-name="abreve" unicode="&#x103;" horiz-adv-x="530" >
<path fill="black" d="M367 85 L364 85 C334.667 30.3333 291.333 -10 214 -10 C124.667 -10 69 45 69 141 C69 250.333 139.667 302.333 277 309 L365 313 L365 354 C365 454 324.667 490 254 490 C210 490 165.667 474.667 123 452 L101 500 C150.333 526.667 197 543 257 543 C365 543 423 489 423 361 L423 0 L378 0 L367 85 Z M365 269 L288 265 C184 258.333 129 222 129 142 C129 74 168.667 42 226 42 C310 42 365 103.667 365 217 L365 269 Z " /><g transform="translate(10,0)" ><path fill="black" d="M173 730 C177 680.667 203.333 653 250 653 C296.667 653 323 680.667 327 730 L367 730 C364.333 654 320.667 610 250 610 C180.667 610 135.667 650 133 730 L173 730 Z " /></g></glyph>
<glyph glyph-name="Aogonek" unicode="&#x104;" horiz-adv-x="530" d="M212 714 L287 714 L480 0 C433.333 -44 410 -81.3333 410 -124 C410 -160 426.333 -178 459 -178 C472.333 -178 485 -174.667 493 -172 L493 -213 C482.333 -218.333 467.667 -221 449 -221 C391.667 -221 360 -192 360 -136 C360 -85.3333 386.333 -40 433 0 L420 0 L356 247 L144 247 L81 0 L20 0 L212 714 Z M342 301 L273 565 L248 665 C241.333 634.333 234.333 597 225 565 L158 301 L342 301 Z " />
<glyph glyph-name="aogonek" unicode="&#x105;" horiz-adv-x="530" d="M434 -213 C423.333 -218.333 408.667 -221 390 -221 C332.667 -221 301 -192 301 -136 C301 -84 328.667 -38.3333 378 3 L367 85 L364 85 C334.667 30.3333 291.333 -10 214 -10 C124.667 -10 69 45 69 141 C69 250.333 139.667 302.333 277 309 L365 313 L365 354 C365 454 324.667 490 254 490 C210 490 165.667 474.667 123 452 L101 500 C150.333 526.667 197 543 257 543 C365 543 423 489 423 361 L423 0 L421 0 C374.333 -44 351 -81.3333 351 -124 C351 -160 367.333 -178 400 -178 C413.333 -178 426 -174.667 434 -172 L434 -213 Z M365 269 L288 265 C184 258.333 129 222 129 142 C129 74 168.667 42 226 42 C310 42 365 103.667 365 217 L365 269 Z " />
<glyph glyph-name="Cacute" unicode="&#x106;" horiz-adv-x="530" >
<path fill="black" d="M455 16 C416.333 -1.33333 372 -10 312 -10 C142.926 -10 48 131.437 48 358 C48 563.359 140.468 725 320 725 C373.333 725 424 713.333 472 690 L448 640 C409.333 662.667 365.333 671 320 671 C177.074 671 108 531.307 108 358 C108 168.615 180.307 44 319 44 C373.667 44 416.333 56.3333 455 71 L455 16 Z " /><g transform="translate(47,181)" ><path fill="black" d="M219 606 L219 616 C260.333 666.667 297.667 719.333 323 766 L392 766 L392 757 C362.414 713.967 299.994 643.62 257 606 L219 606 Z " /></g></glyph>
<glyph glyph-name="cacute" unicode="&#x107;" horiz-adv-x="530" >
<path fill="black" d="M425 16 C390.333 0 347 -10 299 -10 C159 -10 81 82 81 262 C81 452.9 172.589 543 306 543 C352.667 543 394.333 534.333 431 517 L413 467 C379.667 485.667 346 491 310 491 C202 491 141 412.333 141 263 C141 121.667 192.333 43 303 43 C345.667 43 389 52.6667 425 70 L425 16 Z " /><g transform="translate(24,0)" ><path fill="black" d="M219 606 L219 616 C260.333 666.667 297.667 719.333 323 766 L392 766 L392 757 C362.414 713.967 299.994 643.62 257 606 L219 606 Z " /></g></glyph>
<glyph glyph-name="Ccircumflex" unicode="&#x108;" horiz-adv-x="530" >
<path fill="black" d="M455 16 C416.333 -1.33333 372 -10 312 -10 C142.926 -10 48 131.437 48 358 C48 563.359 140.468 725 320 725 C373.333 725 424 713.333 472 690 L448 640 C409.333 662.667 365.333 671 320 671 C177.074 671 108 531.307 108 358 C108 168.615 180.307 44 319 44 C373.667 44 416.333 56.3333 455 71 L455 16 Z " /><g transform="translate(59,181)" ><path fill="black" d="M126 606 L126 615 C158.731 658.642 200.387 721.775 222 765 L277 765 C300.479 720.65 344.789 652.178 374 615 L374 606 L341 606 C310.333 636.667 279.333 676.667 250 714 C220.667 678 187 634 159 606 L126 606 Z " /></g></glyph>
<glyph glyph-name="ccircumflex" unicode="&#x109;" horiz-adv-x="530" >
<path fill="black" d="M425 16 C390.333 0 347 -10 299 -10 C159 -10 81 82 81 262 C81 452.9 172.589 543 306 543 C352.667 543 394.333 534.333 431 517 L413 467 C379.667 485.667 346 491 310 491 C202 491 141 412.333 141 263 C141 121.667 192.333 43 303 43 C345.667 43 389 52.6667 425 70 L425 16 Z " /><g transform="translate(36,0)" ><path fill="black" d="M126 606 L126 615 C158.731 658.642 200.387 721.775 222 765 L277 765 C300.479 720.65 344.789 652.178 374 615 L374 606 L341 606 C310.333 636.667 279.333 676.667 250 714 C220.667 678 187 634 159 606 L126 606 Z " /></g></glyph>
<glyph glyph-name="Cdotaccent" unicode="&#x10a;" horiz-adv-x="530" >
<path fill="black" d="M455 16 C416.333 -1.33333 372 -10 312 -10 C142.926 -10 48 131.437 48 358 C48 563.359 140.468 725 320 725 C373.333 725 424 713.333 472 690 L448 640 C409.333 662.667 365.333 671 320 671 C177.074 671 108 531.307 108 358 C108 168.615 180.307 44 319 44 C373.667 44 416.333 56.3333 455 71 L455 16 Z " /><g transform="translate(59,838)" ><path fill="black" d="M249 -12 C219 -12 204 5.66667 204 41 C204 76.3333 219 94 249 94 C279.667 94 295 76.3333 295 41 C295 5.66667 279.667 -12 249 -12 Z " /></g></glyph>
<glyph glyph-name="cdotaccent" unicode="&#x10b;" horiz-adv-x="530" >
<path fill="black" d="M425 16 C390.333 0 347 -10 299 -10 C159 -10 81 82 81 262 C81 452.9 172.589 543 306 543 C352.667 543 394.333 534.333 431 517 L413 467 C379.667 485.667 346 491 310 491 C202 491 141 412.333 141 263 C141 121.667 192.333 43 303 43 C345.667 43 389 52.6667 425 70 L425 16 Z " /><g transform="translate(36,657)" ><path fill="black" d="M249 -12 C219 -12 204 5.66667 204 41 C204 76.3333 219 94 249 94 C279.667 94 295 76.3333 295 41 C295 5.66667 279.667 -12 249 -12 Z " /></g></glyph>
<glyph glyph-name="Ccaron" unicode="&#x10c;" horiz-adv-x="530" >
<path fill="black" d="M455 16 C416.333 -1.33333 372 -10 312 -10 C142.926 -10 48 131.437 48 358 C48 563.359 140.468 725 320 725 C373.333 725 424 713.333 472 690 L448 640 C409.333 662.667 365.333 671 320 671 C177.074 671 108 531.307 108 358 C108 168.615 180.307 44 319 44 C373.667 44 416.333 56.3333 455 71 L455 16 Z " /><g transform="translate(59,181)" ><path fill="black" d="M223 606 C199 651.333 159 713.333 127 756 L127 765 L160 765 C188 737 220.667 694.333 250 657 C280.667 698.333 305.333 726.333 340 765 L373 765 L373 756 C341.492 716.616 299.206 649.833 276 606 L223 606 Z " /></g></glyph>
<glyph glyph-name="ccaron" unicode="&#x10d;" horiz-adv-x="530" >
<path fill="black" d="M425 16 C390.333 0 347 -10 299 -10 C159 -10 81 82 81 262 C81 452.9 172.589 543 306 543 C352.667 543 394.333 534.333 431 517 L413 467 C379.667 485.667 346 491 310 491 C202 491 141 412.333 141 263 C141 121.667 192.333 43 303 43 C345.667 43 389 52.6667 425 70 L425 16 Z " /><g transform="translate(36,0)" ><path fill="black" d="M223 606 C199 651.333 159 713.333 127 756 L127 765 L160 765 C188 737 220.667 694.333 250 657 C280.667 698.333 305.333 726.333 340 765 L373 765 L373 756 C341.492 716.616 299.206 649.833 276 606 L223 606 Z " /></g></glyph>
<glyph glyph-name="Dcaron" unicode="&#x10e;" horiz-adv-x="530" >
<path fill="black" d="M54 0 L54 714 L215 714 C381.667 714 464 596 464 364 C464 122.667 382 0 206 0 L54 0 Z M112 55 L202 55 C343.333 55 403 160.333 403 363 C403 564.333 348.667 659 202 659 L112 659 L112 55 Z " /><g transform="translate(-16,181)" ><path fill="black" d="M223 606 C199 651.333 159 713.333 127 756 L127 765 L160 765 C188 737 220.667 694.333 250 657 C280.667 698.333 305.333 726.333 340 765 L373 765 L373 756 C341.492 716.616 299.206 649.833 276 606 L223 606 Z " /></g></glyph>
<glyph glyph-name="dcaron" unicode="&#x10f;" horiz-adv-x="530" d="M340 88 L337 88 C314.333 33.3333 274 -10 202 -10 C98 -10 39 83.6667 39 261 C39 446.333 103 543 207 543 C277.667 543 315.333 498.667 338 448 L341 448 C338.333 478.667 337 505.667 337 535 L337 760 L395 760 L395 0 L350 0 L340 88 Z M338 277 C338 409 306 491 222 491 C140 491 99 413.667 99 259 C99 115 134 43 218 43 C306 43 338 121 338 245 L338 277 Z M439 599 L439 608 C449.171 633.427 467.315 725.089 470 760 L532 760 L532 753 C524.059 710.647 495.621 638.368 472 599 L439 599 Z " />
<glyph glyph-name="Dcroat" unicode="&#x110;" horiz-adv-x="530" >
<path fill="black" d="M64 340 L0 340 L0 393 L64 393 L64 714 L225 714 C391.667 714 474 596 474 364 C474 122.667 392 0 216 0 L64 0 L64 340 Z M212 55 C353.333 55 413 160.333 413 363 C413 564.333 358.667 659 212 659 L122 659 L122 393 L275 393 L275 340 L122 340 L122 55 L212 55 Z " /></glyph>
<glyph glyph-name="dcroat" unicode="&#x111;" horiz-adv-x="530" d="M374 88 L371 88 C349.667 36 304.667 -10 226 -10 C112.667 -10 49 81.6667 49 259 C49 443 115.667 540 229 540 C305 540 349.333 495.667 372 445 L376 445 C373.333 473 371 506.333 371 533 L371 617 L194 617 L194 664 L371 664 L371 760 L429 760 L429 664 L500 664 L500 617 L429 617 L429 0 L384 0 L374 88 Z M240 43 C337.333 43 372 119.333 372 242 L372 274 C372 408.667 337 488 245 488 C153 488 109 408.667 109 254 C109 114 146.667 43 240 43 Z " />
<glyph glyph-name="Emacron" unicode="&#x112;" horiz-adv-x="530" >
<path fill="black" d="M425 55 L425 0 L78 0 L78 714 L425 714 L425 659 L137 659 L137 400 L407 400 L407 345 L137 345 L137 55 L425 55 Z " /><g transform="translate(-2,178)" ><path fill="black" d="M131 672 L368 672 L368 626 L131 626 L131 672 Z " /></g></glyph>
<glyph glyph-name="emacron" unicode="&#x113;" horiz-adv-x="530" >
<path fill="black" d="M428 25 C382.667 2.33333 339 -10 283 -10 C136.333 -10 57 92.3333 57 263 C57 432.074 127.359 543 258 543 C385.974 543 447 438.022 447 301 L447 258 L117 258 C119 114.667 174.667 43 284 43 C337.333 43 378.667 55.6667 428 81 L428 25 Z M257 491 C177 491 125.667 427.667 119 309 L389 309 C389 413.918 345.97 491 257 491 Z " /><g transform="translate(7,-3)" ><path fill="black" d="M131 672 L368 672 L368 626 L131 626 L131 672 Z " /></g></glyph>
<glyph glyph-name="Ebreve" unicode="&#x114;" horiz-adv-x="530" >
<path fill="black" d="M425 55 L425 0 L78 0 L78 714 L425 714 L425 659 L137 659 L137 400 L407 400 L407 345 L137 345 L137 55 L425 55 Z " /><g transform="translate(-2,181)" ><path fill="black" d="M173 730 C177 680.667 203.333 653 250 653 C296.667 653 323 680.667 327 730 L367 730 C364.333 654 320.667 610 250 610 C180.667 610 135.667 650 133 730 L173 730 Z " /></g></glyph>
<glyph glyph-name="ebreve" unicode="&#x115;" horiz-adv-x="530" >
<path fill="black" d="M428 25 C382.667 2.33333 339 -10 283 -10 C136.333 -10 57 92.3333 57 263 C57 432.074 127.359 543 258 543 C385.974 543 447 438.022 447 301 L447 258 L117 258 C119 114.667 174.667 43 284 43 C337.333 43 378.667 55.6667 428 81 L428 25 Z M257 491 C177 491 125.667 427.667 119 309 L389 309 C389 413.918 345.97 491 257 491 Z " /><g transform="translate(7,0)" ><path fill="black" d="M173 730 C177 680.667 203.333 653 250 653 C296.667 653 323 680.667 327 730 L367 730 C364.333 654 320.667 610 250 610 C180.667 610 135.667 650 133 730 L173 730 Z " /></g></glyph>
<glyph glyph-name="Edotaccent" unicode="&#x116;" horiz-adv-x="530" >
<path fill="black" d="M425 55 L425 0 L78 0 L78 714 L425 714 L425 659 L137 659 L137 400 L407 400 L407 345 L137 345 L137 55 L425 55 Z " /><g transform="translate(-2,838)" ><path fill="black" d="M249 -12 C219 -12 204 5.66667 204 41 C204 76.3333 219 94 249 94 C279.667 94 295 76.3333 295 41 C295 5.66667 279.667 -12 249 -12 Z " /></g></glyph>
<glyph glyph-name="edotaccent" unicode="&#x117;" horiz-adv-x="530" >
<path fill="black" d="M428 25 C382.667 2.33333 339 -10 283 -10 C136.333 -10 57 92.3333 57 263 C57 432.074 127.359 543 258 543 C385.974 543 447 438.022 447 301 L447 258 L117 258 C119 114.667 174.667 43 284 43 C337.333 43 378.667 55.6667 428 81 L428 25 Z M257 491 C177 491 125.667 427.667 119 309 L389 309 C389 413.918 345.97 491 257 491 Z " /><g transform="translate(7,657)" ><path fill="black" d="M249 -12 C219 -12 204 5.66667 204 41 C204 76.3333 219 94 249 94 C279.667 94 295 76.3333 295 41 C295 5.66667 279.667 -12 249 -12 Z " /></g></glyph>
<glyph glyph-name="Eogonek" unicode="&#x118;" horiz-adv-x="530" d="M78 714 L425 714 L425 659 L137 659 L137 400 L407 400 L407 345 L137 345 L137 55 L425 55 L425 0 L394 0 C347.333 -44 324 -81.3333 324 -124 C324 -160 340.333 -178 373 -178 C386.333 -178 399 -174.667 407 -172 L407 -213 C396.333 -218.333 381.667 -221 363 -221 C305.667 -221 274 -192 274 -136 C274 -85.3333 300.333 -40 347 0 L78 0 L78 714 Z " />
<glyph glyph-name="eogonek" unicode="&#x119;" horiz-adv-x="530" d="M428 -213 C416 -218.333 400.333 -221 381 -221 C322.333 -221 289 -184.333 289 -123 C289 -76.3333 310.667 -38.3333 344 -5 C325.333 -7.66667 305.667 -10 283 -10 C136.333 -10 57 92.3333 57 263 C57 432.074 127.359 543 258 543 C385.974 543 447 438.022 447 301 L447 258 L117 258 C119 114.667 174.667 43 284 43 C337.333 43 378.667 55.6667 428 81 L428 25 C377.333 -13.6667 339 -65 339 -117 C339 -154.333 356 -177 392 -177 C405.333 -177 418.667 -173.667 428 -171 L428 -213 Z M257 491 C177 491 125.667 427.667 119 309 L389 309 C389 413.918 345.97 491 257 491 Z " />
<glyph glyph-name="Ecaron" unicode="&#x11a;" horiz-adv-x="530" >
<path fill="black" d="M425 55 L425 0 L78 0 L78 714 L425 714 L425 659 L137 659 L137 400 L407 400 L407 345 L137 345 L137 55 L425 55 Z " /><g transform="translate(-2,181)" ><path fill="black" d="M223 606 C199 651.333 159 713.333 127 756 L127 765 L160 765 C188 737 220.667 694.333 250 657 C280.667 698.333 305.333 726.333 340 765 L373 765 L373 756 C341.492 716.616 299.206 649.833 276 606 L223 606 Z " /></g></glyph>
<glyph glyph-name="ecaron" unicode="&#x11b;" horiz-adv-x="530" >
<path fill="black" d="M428 25 C382.667 2.33333 339 -10 283 -10 C136.333 -10 57 92.3333 57 263 C57 432.074 127.359 543 258 543 C385.974 543 447 438.022 447 301 L447 258 L117 258 C119 114.667 174.667 43 284 43 C337.333 43 378.667 55.6667 428 81 L428 25 Z M257 491 C177 491 125.667 427.667 119 309 L389 309 C389 413.918 345.97 491 257 491 Z " /><g transform="translate(7,0)" ><path fill="black" d="M223 606 C199 651.333 159 713.333 127 756 L127 765 L160 765 C188 737 220.667 694.333 250 657 C280.667 698.333 305.333 726.333 340 765 L373 765 L373 756 C341.492 716.616 299.206 649.833 276 606 L223 606 Z " /></g></glyph>
<glyph glyph-name="Gcircumflex" unicode="&#x11c;" horiz-adv-x="530" >
<path fill="black" d="M387 311 L270 311 L270 366 L445 366 L445 25 C396.333 1.66667 344 -10 288 -10 C108.364 -10 36 144.619 36 359 C36 573.355 113.537 725 287 725 C337.667 725 393.667 712.667 439 682 L415 633 C372.333 662.333 334.333 671 289 671 C155.719 671 95 550.03 95 359 C95 178.61 152.026 44 288 44 C328 44 361.667 52.3333 387 63 L387 311 Z " /><g transform="translate(19,181)" ><path fill="black" d="M126 606 L126 615 C158.731 658.642 200.387 721.775 222 765 L277 765 C300.479 720.65 344.789 652.178 374 615 L374 606 L341 606 C310.333 636.667 279.333 676.667 250 714 C220.667 678 187 634 159 606 L126 606 Z " /></g></glyph>
<glyph glyph-name="gcircumflex" unicode="&#x11d;" horiz-adv-x="530" >
<path fill="black" d="M76 -151 C120 -176.333 174.333 -191 225 -191 C326.333 -191 371 -129 371 -25 L371 9 C371 33 371.333 65 374 89 L371 89 C347 26.3333 296 -9 228 -9 C114.667 -9 49 84.3333 49 263 C49 436.333 113 543 233 543 C301 543 345.333 508.667 372 454 L375 454 L382 533 L429 533 L429 -21 C429 -166.333 365.333 -243 224 -243 C168 -243 118.667 -231.333 76 -210 L76 -151 Z M374 286 C374 416.667 337.667 491 247 491 C151 491 109 407 109 263 C109 116.333 154 43 244 43 C338.978 43 374 125.416 374 241 L374 286 Z " /><path fill="black" d="M126 606 L126 615 C158.731 658.642 200.387 721.775 222 765 L277 765 C300.479 720.65 344.789 652.178 374 615 L374 606 L341 606 C310.333 636.667 279.333 676.667 250 714 C220.667 678 187 634 159 606 L126 606 Z " /></glyph>
<glyph glyph-name="Gbreve" unicode="&#x11e;" horiz-adv-x="530" >
<path fill="black" d="M387 311 L270 311 L270 366 L445 366 L445 25 C396.333 1.66667 344 -10 288 -10 C108.364 -10 36 144.619 36 359 C36 573.355 113.537 725 287 725 C337.667 725 393.667 712.667 439 682 L415 633 C372.333 662.333 334.333 671 289 671 C155.719 671 95 550.03 95 359 C95 178.61 152.026 44 288 44 C328 44 361.667 52.3333 387 63 L387 311 Z " /><g transform="translate(19,181)" ><path fill="black" d="M173 730 C177 680.667 203.333 653 250 653 C296.667 653 323 680.667 327 730 L367 730 C364.333 654 320.667 610 250 610 C180.667 610 135.667 650 133 730 L173 730 Z " /></g></glyph>
<glyph glyph-name="gbreve" unicode="&#x11f;" horiz-adv-x="530" >
<path fill="black" d="M76 -151 C120 -176.333 174.333 -191 225 -191 C326.333 -191 371 -129 371 -25 L371 9 C371 33 371.333 65 374 89 L371 89 C347 26.3333 296 -9 228 -9 C114.667 -9 49 84.3333 49 263 C49 436.333 113 543 233 543 C301 543 345.333 508.667 372 454 L375 454 L382 533 L429 533 L429 -21 C429 -166.333 365.333 -243 224 -243 C168 -243 118.667 -231.333 76 -210 L76 -151 Z M374 286 C374 416.667 337.667 491 247 491 C151 491 109 407 109 263 C109 116.333 154 43 244 43 C338.978 43 374 125.416 374 241 L374 286 Z " /><path fill="black" d="M173 730 C177 680.667 203.333 653 250 653 C296.667 653 323 680.667 327 730 L367 730 C364.333 654 320.667 610 250 610 C180.667 610 135.667 650 133 730 L173 730 Z " /></glyph>
<glyph glyph-name="Gdotaccent" unicode="&#x120;" horiz-adv-x="530" >
<path fill="black" d="M387 311 L270 311 L270 366 L445 366 L445 25 C396.333 1.66667 344 -10 288 -10 C108.364 -10 36 144.619 36 359 C36 573.355 113.537 725 287 725 C337.667 725 393.667 712.667 439 682 L415 633 C372.333 662.333 334.333 671 289 671 C155.719 671 95 550.03 95 359 C95 178.61 152.026 44 288 44 C328 44 361.667 52.3333 387 63 L387 311 Z " /><g transform="translate(19,838)" ><path fill="black" d="M249 -12 C219 -12 204 5.66667 204 41 C204 76.3333 219 94 249 94 C279.667 94 295 76.3333 295 41 C295 5.66667 279.667 -12 249 -12 Z " /></g></glyph>
<glyph glyph-name="gdotaccent" unicode="&#x121;" horiz-adv-x="530" >
<path fill="black" d="M76 -151 C120 -176.333 174.333 -191 225 -191 C326.333 -191 371 -129 371 -25 L371 9 C371 33 371.333 65 374 89 L371 89 C347 26.3333 296 -9 228 -9 C114.667 -9 49 84.3333 49 263 C49 436.333 113 543 233 543 C301 543 345.333 508.667 372 454 L375 454 L382 533 L429 533 L429 -21 C429 -166.333 365.333 -243 224 -243 C168 -243 118.667 -231.333 76 -210 L76 -151 Z M374 286 C374 416.667 337.667 491 247 491 C151 491 109 407 109 263 C109 116.333 154 43 244 43 C338.978 43 374 125.416 374 241 L374 286 Z " /><g transform="translate(0,657)" ><path fill="black" d="M249 -12 C219 -12 204 5.66667 204 41 C204 76.3333 219 94 249 94 C279.667 94 295 76.3333 295 41 C295 5.66667 279.667 -12 249 -12 Z " /></g></glyph>
<glyph glyph-name="uni0122" unicode="&#x122;" horiz-adv-x="530" >
<path fill="black" d="M387 311 L270 311 L270 366 L445 366 L445 25 C396.333 1.66667 344 -10 288 -10 C108.364 -10 36 144.619 36 359 C36 573.355 113.537 725 287 725 C337.667 725 393.667 712.667 439 682 L415 633 C372.333 662.333 334.333 671 289 671 C155.719 671 95 550.03 95 359 C95 178.61 152.026 44 288 44 C328 44 361.667 52.3333 387 63 L387 311 Z " /><g transform="translate(809,0)" ><path fill="black" d="M-598 -221 L-598 -211 C-584.491 -175.877 -563.359 -103.87 -558 -61 L-497 -61 L-497 -69 C-509 -114.333 -534.333 -178.333 -565 -221 L-598 -221 Z " /></g></glyph>
<glyph glyph-name="uni0123" unicode="&#x123;" horiz-adv-x="530" d="M76 -151 C120 -176.333 174.333 -191 225 -191 C326.333 -191 371 -129 371 -25 L371 9 C371 33 371.333 65 374 89 L371 89 C347 26.3333 296 -9 228 -9 C114.667 -9 49 84.3333 49 263 C49 436.333 113 543 233 543 C301 543 345.333 508.667 372 454 L375 454 L382 533 L429 533 L429 -21 C429 -166.333 365.333 -243 224 -243 C168 -243 118.667 -231.333 76 -210 L76 -151 Z M374 286 C374 416.667 337.667 491 247 491 C151 491 109 407 109 263 C109 116.333 154 43 244 43 C338.978 43 374 125.416 374 241 L374 286 Z M207 606 L207 614 C217.667 658 245.333 722 276 766 L310 766 L310 756 C293.702 720.687 274.39 646.424 269 606 L207 606 Z " />
<glyph glyph-name="Hcircumflex" unicode="&#x124;" horiz-adv-x="530" >
<path fill="black" d="M54 0 L54 714 L113 714 L113 399 L387 399 L387 714 L446 714 L446 0 L387 0 L387 344 L113 344 L113 0 L54 0 Z " /><g transform="translate(0,181)" ><path fill="black" d="M126 606 L126 615 C158.731 658.642 200.387 721.775 222 765 L277 765 C300.479 720.65 344.789 652.178 374 615 L374 606 L341 606 C310.333 636.667 279.333 676.667 250 714 C220.667 678 187 634 159 606 L126 606 Z " /></g></glyph>
<glyph glyph-name="hcircumflex" unicode="&#x125;" horiz-adv-x="530" >
<path fill="black" d="M71 0 L71 760 L129 760 L129 516 C129 489.333 127.333 469 126 445 L129 445 C153 498.333 195.667 543 277 543 C371.667 543 434 485 434 353 L434 0 L376 0 L376 342 C376 443.333 337 491 265 491 C179.667 491 129 422.667 129 288 L129 0 L71 0 Z " /><g transform="translate(-152,227)" ><path fill="black" d="M126 606 L126 615 C158.731 658.642 200.387 721.775 222 765 L277 765 C300.479 720.65 344.789 652.178 374 615 L374 606 L341 606 C310.333 636.667 279.333 676.667 250 714 C220.667 678 187 634 159 606 L126 606 Z " /></g></glyph>
<glyph glyph-name="Hbar" unicode="&#x126;" horiz-adv-x="530" d="M54 536 L0 536 L0 586 L54 586 L54 714 L113 714 L113 586 L387 586 L387 714 L446 714 L446 586 L500 586 L500 536 L446 536 L446 0 L387 0 L387 344 L113 344 L113 0 L54 0 L54 536 Z M387 399 L387 536 L113 536 L113 399 L387 399 Z " />
<glyph glyph-name="hbar" unicode="&#x127;" horiz-adv-x="530" d="M71 617 L0 617 L0 664 L71 664 L71 760 L129 760 L129 664 L306 664 L306 617 L129 617 L129 516 C129 489.333 127.333 469 126 445 L129 445 C153 498.333 195.667 543 277 543 C371.667 543 434 485 434 353 L434 0 L376 0 L376 342 C376 443.333 337 491 265 491 C179.667 491 129 422.667 129 288 L129 0 L71 0 L71 617 Z " />
<glyph glyph-name="Itilde" unicode="&#x128;" horiz-adv-x="530" >
<path fill="black" d="M94 42 L220 49 L220 664 L94 672 L94 714 L406 714 L406 672 L278 664 L278 49 L406 42 L406 0 L94 0 L94 42 Z " /><g transform="translate(0,181)" ><path fill="black" d="M102 616 C108.667 680 133.333 725 184 725 C236.778 725 270.889 663 313 663 C337 663 352 684 358 726 L397 726 C393 654 360 616 316 616 C261.895 616 225.673 679 186 679 C163.333 679 146.333 658.667 141 616 L102 616 Z " /></g></glyph>
<glyph glyph-name="itilde" unicode="&#x129;" horiz-adv-x="500" >
<path fill="black" d="M78 43 L230 50 L230 480 L89 490 L89 533 L288 533 L288 50 L428 43 L428 0 L78 0 L78 43 Z " /><path fill="black" d="M102 616 C108.667 680 133.333 725 184 725 C236.778 725 270.889 663 313 663 C337 663 352 684 358 726 L397 726 C393 654 360 616 316 616 C261.895 616 225.673 679 186 679 C163.333 679 146.333 658.667 141 616 L102 616 Z " /></glyph>
<glyph glyph-name="Imacron" unicode="&#x12a;" horiz-adv-x="530" >
<path fill="black" d="M94 42 L220 49 L220 664 L94 672 L94 714 L406 714 L406 672 L278 664 L278 49 L406 42 L406 0 L94 0 L94 42 Z " /><g transform="translate(0,178)" ><path fill="black" d="M131 672 L368 672 L368 626 L131 626 L131 672 Z " /></g></glyph>
<glyph glyph-name="imacron" unicode="&#x12b;" horiz-adv-x="500" >
<path fill="black" d="M78 43 L230 50 L230 480 L89 490 L89 533 L288 533 L288 50 L428 43 L428 0 L78 0 L78 43 Z " /><g transform="translate(0,-3)" ><path fill="black" d="M131 672 L368 672 L368 626 L131 626 L131 672 Z " /></g></glyph>
<glyph glyph-name="Ibreve" unicode="&#x12c;" horiz-adv-x="530" >
<path fill="black" d="M94 42 L220 49 L220 664 L94 672 L94 714 L406 714 L406 672 L278 664 L278 49 L406 42 L406 0 L94 0 L94 42 Z " /><g transform="translate(0,181)" ><path fill="black" d="M173 730 C177 680.667 203.333 653 250 653 C296.667 653 323 680.667 327 730 L367 730 C364.333 654 320.667 610 250 610 C180.667 610 135.667 650 133 730 L173 730 Z " /></g></glyph>
<glyph glyph-name="ibreve" unicode="&#x12d;" horiz-adv-x="500" >
<path fill="black" d="M78 43 L230 50 L230 480 L89 490 L89 533 L288 533 L288 50 L428 43 L428 0 L78 0 L78 43 Z " /><path fill="black" d="M173 730 C177 680.667 203.333 653 250 653 C296.667 653 323 680.667 327 730 L367 730 C364.333 654 320.667 610 250 610 C180.667 610 135.667 650 133 730 L173 730 Z " /></glyph>
<glyph glyph-name="Iogonek" unicode="&#x12e;" horiz-adv-x="530" d="M94 42 L220 49 L220 664 L94 672 L94 714 L406 714 L406 672 L278 664 L278 49 L406 42 L406 0 L334 0 C287.333 -44 264 -81.3333 264 -124 C264 -160 280.333 -178 313 -178 C326.333 -178 339 -174.667 347 -172 L347 -213 C336.333 -218.333 321.667 -221 303 -221 C245.667 -221 214 -192 214 -136 C214 -85.3333 240.333 -40 287 0 L94 0 L94 42 Z " />
<glyph glyph-name="iogonek" unicode="&#x12f;" horiz-adv-x="530" d="M78 43 L230 50 L230 480 L89 490 L89 533 L288 533 L288 50 L428 43 L428 0 L343 0 C296.333 -44 273 -81.3333 273 -124 C273 -160 289.333 -178 322 -178 C335.333 -178 348 -174.667 356 -172 L356 -213 C345.333 -218.333 330.667 -221 312 -221 C254.667 -221 223 -192 223 -136 C223 -85.3333 249.333 -40 296 0 L78 0 L78 43 Z M254 645 C224 645 209 662.667 209 698 C209 733.333 224 751 254 751 C284.667 751 300 733.333 300 698 C300 662.667 284.667 645 254 645 Z " />
<glyph glyph-name="Idotaccent" unicode="&#x130;" horiz-adv-x="530" >
<path fill="black" d="M94 42 L220 49 L220 664 L94 672 L94 714 L406 714 L406 672 L278 664 L278 49 L406 42 L406 0 L94 0 L94 42 Z " /><g transform="translate(0,838)" ><path fill="black" d="M249 -12 C219 -12 204 5.66667 204 41 C204 76.3333 219 94 249 94 C279.667 94 295 76.3333 295 41 C295 5.66667 279.667 -12 249 -12 Z " /></g></glyph>
<glyph glyph-name="dotlessi" unicode="&#x131;" horiz-adv-x="500" d="M78 43 L230 50 L230 480 L89 490 L89 533 L288 533 L288 50 L428 43 L428 0 L78 0 L78 43 Z " />
<glyph glyph-name="IJ" unicode="&#x132;" horiz-adv-x="530" d="M103 81 C121.726 67.6244 178.236 43 229 43 C305 43 341 90.6667 341 204 L341 714 L400 714 L400 194 C400 62 348.333 -12 235 -12 C184.333 -12 129.667 3.33333 103 22 L103 81 Z M101 166 L101 714 L161 714 L161 166 L101 166 Z " />
<glyph glyph-name="ij" unicode="&#x133;" horiz-adv-x="530" d="M112 -173 C138.667 -183.667 192.333 -193 227 -193 C299 -193 337 -150 337 -74 L337 533 L395 533 L395 -73 C395 -190.333 333 -246 229 -246 C186.333 -246 138.667 -236 112 -228 L112 -173 Z M106 0 L106 533 L164 533 L164 0 L106 0 Z M136 640 C106 640 91 657.667 91 693 C91 728.333 106 746 136 746 C166.667 746 182 728.333 182 693 C182 657.667 166.667 640 136 640 Z M363 640 C333 640 318 657.667 318 693 C318 728.333 333 746 363 746 C393.667 746 409 728.333 409 693 C409 657.667 393.667 640 363 640 Z " />
<glyph glyph-name="Jcircumflex" unicode="&#x134;" horiz-adv-x="530" >
<path fill="black" d="M54 75 C91.3333 55 136.333 42 183 42 C277.667 42 319 98.6667 319 212 L319 714 L377 714 L377 200 C377 70.6667 319 -12 187 -12 C136.333 -12 91.3333 0.333333 54 19 L54 75 Z " /><g transform="translate(98,181)" ><path fill="black" d="M126 606 L126 615 C158.731 658.642 200.387 721.775 222 765 L277 765 C300.479 720.65 344.789 652.178 374 615 L374 606 L341 606 C310.333 636.667 279.333 676.667 250 714 C220.667 678 187 634 159 606 L126 606 Z " /></g></glyph>
<glyph glyph-name="jcircumflex" unicode="&#x135;" horiz-adv-x="500" >
<path fill="black" d="M47 -173 C73.6667 -183.667 124.333 -193 159 -193 C229.667 -193 266 -150 266 -74 L266 480 L94 490 L94 533 L324 533 L324 -73 C324 -190.333 263.333 -246 162 -246 C119.333 -246 72.3333 -236 47 -228 L47 -173 Z " /><g transform="translate(40,0)" ><path fill="black" d="M126 606 L126 615 C158.731 658.642 200.387 721.775 222 765 L277 765 C300.479 720.65 344.789 652.178 374 615 L374 606 L341 606 C310.333 636.667 279.333 676.667 250 714 C220.667 678 187 634 159 606 L126 606 Z " /></g></glyph>
<glyph glyph-name="uni0136" unicode="&#x136;" horiz-adv-x="530" >
<path fill="black" d="M54 0 L54 714 L112 714 L112 340 C134.667 369.333 155.333 397.333 186 440 L385 714 L454 714 L231 401 L459 0 L393 0 L189 357 L112 272 L112 0 L54 0 Z " /><g transform="translate(785,0)" ><path fill="black" d="M-598 -221 L-598 -211 C-584.491 -175.877 -563.359 -103.87 -558 -61 L-497 -61 L-497 -69 C-509 -114.333 -534.333 -178.333 -565 -221 L-598 -221 Z " /></g></glyph>
<glyph glyph-name="uni0137" unicode="&#x137;" horiz-adv-x="530" >
<path fill="black" d="M89 0 L89 760 L147 760 L147 394 C147 343.333 145.667 302 143 250 L145 250 C162.333 274 175.333 292.333 194 315 L383 533 L455 533 L255 304 L469 0 L400 0 L216 261 L147 194 L147 0 L89 0 Z " /><g transform="translate(809,0)" ><path fill="black" d="M-598 -221 L-598 -211 C-584.491 -175.877 -563.359 -103.87 -558 -61 L-497 -61 L-497 -69 C-509 -114.333 -534.333 -178.333 -565 -221 L-598 -221 Z " /></g></glyph>
<glyph glyph-name="kgreenlandic" unicode="&#x138;" horiz-adv-x="530" d="M89 0 L89 533 L147 533 L147 394 C147 343.333 145.667 302 143 250 L145 250 C162.333 274 175.333 292.333 194 315 L383 533 L455 533 L255 305 L469 0 L400 0 L216 261 L147 194 L147 0 L89 0 Z " />
<glyph glyph-name="Lacute" unicode="&#x139;" horiz-adv-x="530" >
<path fill="black" d="M425 57 L425 0 L82 0 L82 714 L142 714 L142 57 L425 57 Z " /><g transform="translate(-149,181)" ><path fill="black" d="M219 606 L219 616 C260.333 666.667 297.667 719.333 323 766 L392 766 L392 757 C362.414 713.967 299.994 643.62 257 606 L219 606 Z " /></g></glyph>
<glyph glyph-name="lacute" unicode="&#x13a;" horiz-adv-x="530" >
<path fill="black" d="M78 43 L224 50 L224 710 L85 717 L85 760 L282 760 L282 50 L428 43 L428 0 L78 0 L78 43 Z " /><g transform="translate(-12,227)" ><path fill="black" d="M219 606 L219 616 C260.333 666.667 297.667 719.333 323 766 L392 766 L392 757 C362.414 713.967 299.994 643.62 257 606 L219 606 Z " /></g></glyph>
<glyph glyph-name="uni013B" unicode="&#x13b;" horiz-adv-x="530" >
<path fill="black" d="M425 57 L425 0 L82 0 L82 714 L142 714 L142 57 L425 57 Z " /><g transform="translate(796,0)" ><path fill="black" d="M-598 -221 L-598 -211 C-584.491 -175.877 -563.359 -103.87 -558 -61 L-497 -61 L-497 -69 C-509 -114.333 -534.333 -178.333 -565 -221 L-598 -221 Z " /></g></glyph>
<glyph glyph-name="uni013C" unicode="&#x13c;" horiz-adv-x="530" >
<path fill="black" d="M78 43 L224 50 L224 710 L85 717 L85 760 L282 760 L282 50 L428 43 L428 0 L78 0 L78 43 Z " /><g transform="translate(783,0)" ><path fill="black" d="M-598 -221 L-598 -211 C-584.491 -175.877 -563.359 -103.87 -558 -61 L-497 -61 L-497 -69 C-509 -114.333 -534.333 -178.333 -565 -221 L-598 -221 Z " /></g></glyph>
<glyph glyph-name="Lcaron" unicode="&#x13d;" horiz-adv-x="530" >
<path fill="black" d="M425 57 L425 0 L82 0 L82 714 L142 714 L142 57 L425 57 Z " /><g transform="translate(374,0)" ><path fill="black" d="M-47 553 L-47 562 C-36.3749 588.563 -21.4802 678.379 -16 714 L46 714 L46 707 C38.0587 664.647 9.62092 592.368 -14 553 L-47 553 Z " /></g></glyph>
<glyph glyph-name="lcaron" unicode="&#x13e;" horiz-adv-x="530" >
<path fill="black" d="M78 43 L224 50 L224 710 L85 717 L85 760 L282 760 L282 50 L428 43 L428 0 L78 0 L78 43 Z " /><g transform="translate(413,46)" ><path fill="black" d="M-47 553 L-47 562 C-36.3749 588.563 -21.4802 678.379 -16 714 L46 714 L46 707 C38.0587 664.647 9.62092 592.368 -14 553 L-47 553 Z " /></g></glyph>
<glyph glyph-name="Ldot" unicode="&#x13f;" horiz-adv-x="530" >
<path fill="black" d="M425 57 L425 0 L82 0 L82 714 L142 714 L142 57 L425 57 Z " /><g transform="translate(107,333)" ><path fill="black" d="M249 -12 C219 -12 204 5.66667 204 41 C204 76.3333 219 94 249 94 C279.667 94 295 76.3333 295 41 C295 5.66667 279.667 -12 249 -12 Z " /></g></glyph>
<glyph glyph-name="ldot" unicode="&#x140;" horiz-adv-x="530" >
<path fill="black" d="M78 43 L224 50 L224 710 L85 717 L85 760 L282 760 L282 50 L428 43 L428 0 L78 0 L78 43 Z " /><g transform="translate(250,352)" ><path fill="black" d="M249 -12 C219 -12 204 5.66667 204 41 C204 76.3333 219 94 249 94 C279.667 94 295 76.3333 295 41 C295 5.66667 279.667 -12 249 -12 Z " /></g></glyph>
<glyph glyph-name="Lslash" unicode="&#x141;" horiz-adv-x="530" d="M82 341 L14 303 L14 348 L82 386 L82 714 L142 714 L142 419 L303 509 L303 463 L142 374 L142 57 L425 57 L425 0 L82 0 L82 341 Z " />
<glyph glyph-name="lslash" unicode="&#x142;" horiz-adv-x="530" d="M78 43 L224 50 L224 363 L115 303 L115 348 L224 409 L224 710 L85 717 L85 760 L282 760 L282 441 L404 509 L404 463 L282 395 L282 50 L428 43 L428 0 L78 0 L78 43 Z " />
<glyph glyph-name="Nacute" unicode="&#x143;" horiz-adv-x="530" >
<path fill="black" d="M54 0 L54 714 L133 714 L394 72 L398 72 C398 104.993 391 173.438 391 224 L391 714 L446 714 L446 0 L371 0 L106 645 L102 645 C104.667 597 108 550.667 108 484 L108 0 L54 0 Z " /><g transform="translate(-7,181)" ><path fill="black" d="M219 606 L219 616 C260.333 666.667 297.667 719.333 323 766 L392 766 L392 757 C362.414 713.967 299.994 643.62 257 606 L219 606 Z " /></g></glyph>
<glyph glyph-name="nacute" unicode="&#x144;" horiz-adv-x="530" >
<path fill="black" d="M71 0 L71 533 L118 533 L126 444 L129 444 C153 501.333 203 543 279 543 C379 543 434 485.667 434 355 L434 0 L376 0 L376 350 C376 446 341 490 269 490 C183.667 490 129 423 129 291 L129 0 L71 0 Z " /><g transform="translate(-4,0)" ><path fill="black" d="M219 606 L219 616 C260.333 666.667 297.667 719.333 323 766 L392 766 L392 757 C362.414 713.967 299.994 643.62 257 606 L219 606 Z " /></g></glyph>
<glyph glyph-name="uni0145" unicode="&#x145;" horiz-adv-x="530" >
<path fill="black" d="M54 0 L54 714 L133 714 L394 72 L398 72 C398 104.993 391 173.438 391 224 L391 714 L446 714 L446 0 L371 0 L106 645 L102 645 C104.667 597 108 550.667 108 484 L108 0 L54 0 Z " /><g transform="translate(780,0)" ><path fill="black" d="M-598 -221 L-598 -211 C-584.491 -175.877 -563.359 -103.87 -558 -61 L-497 -61 L-497 -69 C-509 -114.333 -534.333 -178.333 -565 -221 L-598 -221 Z " /></g></glyph>
<glyph glyph-name="uni0146" unicode="&#x146;" horiz-adv-x="530" >
<path fill="black" d="M71 0 L71 533 L118 533 L126 444 L129 444 C153 501.333 203 543 279 543 C379 543 434 485.667 434 355 L434 0 L376 0 L376 350 C376 446 341 490 269 490 C183.667 490 129 423 129 291 L129 0 L71 0 Z " /><g transform="translate(786,0)" ><path fill="black" d="M-598 -221 L-598 -211 C-584.491 -175.877 -563.359 -103.87 -558 -61 L-497 -61 L-497 -69 C-509 -114.333 -534.333 -178.333 -565 -221 L-598 -221 Z " /></g></glyph>
<glyph glyph-name="Ncaron" unicode="&#x147;" horiz-adv-x="530" >
<path fill="black" d="M54 0 L54 714 L133 714 L394 72 L398 72 C398 104.993 391 173.438 391 224 L391 714 L446 714 L446 0 L371 0 L106 645 L102 645 C104.667 597 108 550.667 108 484 L108 0 L54 0 Z " /><g transform="translate(5,181)" ><path fill="black" d="M223 606 C199 651.333 159 713.333 127 756 L127 765 L160 765 C188 737 220.667 694.333 250 657 C280.667 698.333 305.333 726.333 340 765 L373 765 L373 756 C341.492 716.616 299.206 649.833 276 606 L223 606 Z " /></g></glyph>
<glyph glyph-name="ncaron" unicode="&#x148;" horiz-adv-x="530" >
<path fill="black" d="M71 0 L71 533 L118 533 L126 444 L129 444 C153 501.333 203 543 279 543 C379 543 434 485.667 434 355 L434 0 L376 0 L376 350 C376 446 341 490 269 490 C183.667 490 129 423 129 291 L129 0 L71 0 Z " /><g transform="translate(8,0)" ><path fill="black" d="M223 606 C199 651.333 159 713.333 127 756 L127 765 L160 765 C188 737 220.667 694.333 250 657 C280.667 698.333 305.333 726.333 340 765 L373 765 L373 756 C341.492 716.616 299.206 649.833 276 606 L223 606 Z " /></g></glyph>
<glyph glyph-name="napostrophe" unicode="&#x149;" horiz-adv-x="530" d="M81 0 L81 533 L128 533 L136 444 L139 444 C163 502.667 211 543 287 543 C379 543 434 485.667 434 355 L434 0 L376 0 L376 350 C376 446 338 490 270 490 C186 490 139 423 139 291 L139 0 L81 0 Z M-46 474 C-22 554 -1.66667 643.333 5 714 L64 714 L71 703 C53.6667 623 28.6667 547.333 -2 474 L-46 474 Z " />
<glyph glyph-name="Eng" unicode="&#x14a;" horiz-adv-x="530" d="M232 -127 C250.667 -133.667 273.667 -138 295 -138 C357.667 -138 397 -98.6667 397 0 L371 0 L106 645 L102 645 C104.667 597 108 550.667 108 484 L108 0 L54 0 L54 714 L133 714 L394 72 L398 72 C398 104.993 391 173.438 391 224 L391 714 L446 714 L446 0 C444.667 -129.333 397 -185 301 -185 C274.333 -185 248 -180 232 -172 L232 -127 Z " />
<glyph glyph-name="eng" unicode="&#x14b;" horiz-adv-x="530" d="M263 -179 C277.667 -185.667 296.667 -188 314 -188 C355.333 -188 376.333 -157.333 377 -96 L378 0 L376 0 L376 350 C376 446 341 490 269 490 C183.667 490 129 423 129 291 L129 0 L71 0 L71 533 L118 533 L126 444 L129 444 C153 501.333 203 543 279 543 C379 543 434 485.667 434 355 L434 0 L432 0 L434 -96 C434 -189.333 397 -240 321 -240 C296.333 -240 277 -237 263 -231 L263 -179 Z " />
<glyph glyph-name="Omacron" unicode="&#x14c;" horiz-adv-x="530" >
<path fill="black" d="M251 -10 C85.5368 -10 36 163.39 36 359 C36 600.333 106 725 250 725 C406.312 725 464 565.922 464 358 C464 157.896 415.13 -10 251 -10 Z M251 44 C355 44 405 151.333 405 358 C405 562 354 671 250 671 C142 671 95 560.667 95 358 C95 155.333 148.333 44 251 44 Z " /><g transform="translate(0,178)" ><path fill="black" d="M131 672 L368 672 L368 626 L131 626 L131 672 Z " /></g></glyph>
<glyph glyph-name="omacron" unicode="&#x14d;" horiz-adv-x="530" >
<path fill="black" d="M251 -10 C121.667 -10 49 90.6667 49 268 C49 444 120.667 543 250 543 C383.333 543 451 436.667 451 266 C451 91.3333 381.667 -10 251 -10 Z M250 41 C346 41 391 120.333 391 267 C391 408.333 347 491 251 491 C157.667 491 109 413.667 109 267 C109 121.667 155.333 41 250 41 Z " /><g transform="translate(0,-3)" ><path fill="black" d="M131 672 L368 672 L368 626 L131 626 L131 672 Z " /></g></glyph>
<glyph glyph-name="Obreve" unicode="&#x14e;" horiz-adv-x="530" >
<path fill="black" d="M251 -10 C85.5368 -10 36 163.39 36 359 C36 600.333 106 725 250 725 C406.312 725 464 565.922 464 358 C464 157.896 415.13 -10 251 -10 Z M251 44 C355 44 405 151.333 405 358 C405 562 354 671 250 671 C142 671 95 560.667 95 358 C95 155.333 148.333 44 251 44 Z " /><g transform="translate(0,181)" ><path fill="black" d="M173 730 C177 680.667 203.333 653 250 653 C296.667 653 323 680.667 327 730 L367 730 C364.333 654 320.667 610 250 610 C180.667 610 135.667 650 133 730 L173 730 Z " /></g></glyph>
<glyph glyph-name="obreve" unicode="&#x14f;" horiz-adv-x="530" >
<path fill="black" d="M251 -10 C121.667 -10 49 90.6667 49 268 C49 444 120.667 543 250 543 C383.333 543 451 436.667 451 266 C451 91.3333 381.667 -10 251 -10 Z M250 41 C346 41 391 120.333 391 267 C391 408.333 347 491 251 491 C157.667 491 109 413.667 109 267 C109 121.667 155.333 41 250 41 Z " /><path fill="black" d="M173 730 C177 680.667 203.333 653 250 653 C296.667 653 323 680.667 327 730 L367 730 C364.333 654 320.667 610 250 610 C180.667 610 135.667 650 133 730 L173 730 Z " /></glyph>
<glyph glyph-name="Ohungarumlaut" unicode="&#x150;" horiz-adv-x="530" d="M251 -10 C85.5368 -10 36 163.39 36 359 C36 600.333 106 725 250 725 C406.312 725 464 565.922 464 358 C464 157.896 415.13 -10 251 -10 Z M251 44 C355 44 405 151.333 405 358 C405 562 354 671 250 671 C142 671 95 560.667 95 358 C95 155.333 148.333 44 251 44 Z M144 787 L144 796 C176.406 839.208 218.119 912.591 234 947 L295 947 L295 939 C273.548 896.097 213.534 824.534 176 787 L144 787 Z M284 787 L284 796 C316.406 839.208 358.119 912.591 374 947 L435 947 L435 939 C413.548 896.097 353.534 824.534 316 787 L284 787 Z " />
<glyph glyph-name="ohungarumlaut" unicode="&#x151;" horiz-adv-x="530" d="M251 -10 C121.667 -10 49 90.6667 49 268 C49 444 120.667 543 250 543 C383.333 543 451 436.667 451 266 C451 91.3333 381.667 -10 251 -10 Z M250 41 C346 41 391 120.333 391 267 C391 408.333 347 491 251 491 C157.667 491 109 413.667 109 267 C109 121.667 155.333 41 250 41 Z M144 606 L144 615 C176.406 658.208 218.119 731.591 234 766 L295 766 L295 758 C273.548 715.097 213.534 643.534 176 606 L144 606 Z M284 606 L284 615 C316.406 658.208 358.119 731.591 374 766 L435 766 L435 758 C413.548 715.097 353.534 643.534 316 606 L284 606 Z " />
<glyph glyph-name="OE" unicode="&#x152;" horiz-adv-x="530" d="M475 57 L475 0 L289 0 C270.333 -2.66667 253.667 -7 231 -7 C92.3074 -7 36 129.615 36 359 C36 576.152 89.4372 720 236 720 C254.667 720 275 716.667 295 714 L475 714 L475 658 L318 658 L318 402 L461 402 L461 345 L318 345 L318 57 L475 57 Z M259 659 C253.667 665 244.667 668 232 668 C127.948 668 94 539.385 94 358 C94 167.749 132.359 48 231 48 C241.667 48 251 48.3333 259 55 L259 659 Z " />
<glyph glyph-name="oe" unicode="&#x153;" horiz-adv-x="530" d="M470 22 C444 0.666667 414.333 -10 381 -10 C317.667 -10 277 30.3333 259 111 C240.333 31 207.333 -10 150 -10 C58 -10 20 83.3333 20 262 C20 462 69.6667 542 151 542 C207 542 240.333 499.333 259 418 C279 494 313 542 365 542 C441.364 542 481 444.407 481 302 L481 258 L285 258 C286.333 114 320.333 42 387 42 C417.667 42 439.333 53.3333 470 76 L470 22 Z M150 42 C204.667 42 229 130 229 266 C229 406 204.667 490 150 490 C98.6667 490 73 415.333 73 266 C73 126 94 42 150 42 Z M427 311 C427 424.333 403.333 490 362 490 C312.303 490 286 392.619 286 311 L427 311 Z " />
<glyph glyph-name="Racute" unicode="&#x154;" horiz-adv-x="530" >
<path fill="black" d="M78 0 L78 714 L221 714 C361 714 438 657 438 517 C438 405 388 346.333 312 321 L475 0 L408 0 L257 306 L136 306 L136 0 L78 0 Z M136 360 L224 360 C320 360 376 411 376 515 C376 621.667 324.333 660 215 660 L136 660 L136 360 Z " /><g transform="translate(-12,181)" ><path fill="black" d="M219 606 L219 616 C260.333 666.667 297.667 719.333 323 766 L392 766 L392 757 C362.414 713.967 299.994 643.62 257 606 L219 606 Z " /></g></glyph>
<glyph glyph-name="racute" unicode="&#x155;" horiz-adv-x="530" >
<path fill="black" d="M50 43 L182 50 L182 480 L60 490 L60 533 L230 533 L236 435 L239 435 C261.667 497.667 308.667 542 386 542 C412.667 542 441.667 537.667 467 527 L451 469 C428.333 479.667 401.667 482 379 482 C289.667 482 240 400.667 240 282 L240 50 L380 43 L380 0 L50 0 L50 43 Z " /><g transform="translate(6,0)" ><path fill="black" d="M219 606 L219 616 C260.333 666.667 297.667 719.333 323 766 L392 766 L392 757 C362.414 713.967 299.994 643.62 257 606 L219 606 Z " /></g></glyph>
<glyph glyph-name="uni0156" unicode="&#x156;" horiz-adv-x="530" >
<path fill="black" d="M78 0 L78 714 L221 714 C361 714 438 657 438 517 C438 405 388 346.333 312 321 L475 0 L408 0 L257 306 L136 306 L136 0 L78 0 Z M136 360 L224 360 C320 360 376 411 376 515 C376 621.667 324.333 660 215 660 L136 660 L136 360 Z " /><g transform="translate(798,0)" ><path fill="black" d="M-598 -221 L-598 -211 C-584.491 -175.877 -563.359 -103.87 -558 -61 L-497 -61 L-497 -69 C-509 -114.333 -534.333 -178.333 -565 -221 L-598 -221 Z " /></g></glyph>
<glyph glyph-name="uni0157" unicode="&#x157;" horiz-adv-x="530" >
<path fill="black" d="M50 43 L182 50 L182 480 L60 490 L60 533 L230 533 L236 435 L239 435 C261.667 497.667 308.667 542 386 542 C412.667 542 441.667 537.667 467 527 L451 469 C428.333 479.667 401.667 482 379 482 C289.667 482 240 400.667 240 282 L240 50 L380 43 L380 0 L50 0 L50 43 Z " /><g transform="translate(742,0)" ><path fill="black" d="M-598 -221 L-598 -211 C-584.491 -175.877 -563.359 -103.87 -558 -61 L-497 -61 L-497 -69 C-509 -114.333 -534.333 -178.333 -565 -221 L-598 -221 Z " /></g></glyph>
<glyph glyph-name="Rcaron" unicode="&#x158;" horiz-adv-x="530" >
<path fill="black" d="M78 0 L78 714 L221 714 C361 714 438 657 438 517 C438 405 388 346.333 312 321 L475 0 L408 0 L257 306 L136 306 L136 0 L78 0 Z M136 360 L224 360 C320 360 376 411 376 515 C376 621.667 324.333 660 215 660 L136 660 L136 360 Z " /><g transform="translate(0,181)" ><path fill="black" d="M223 606 C199 651.333 159 713.333 127 756 L127 765 L160 765 C188 737 220.667 694.333 250 657 C280.667 698.333 305.333 726.333 340 765 L373 765 L373 756 C341.492 716.616 299.206 649.833 276 606 L223 606 Z " /></g></glyph>
<glyph glyph-name="rcaron" unicode="&#x159;" horiz-adv-x="530" >
<path fill="black" d="M50 43 L182 50 L182 480 L60 490 L60 533 L230 533 L236 435 L239 435 C261.667 497.667 308.667 542 386 542 C412.667 542 441.667 537.667 467 527 L451 469 C428.333 479.667 401.667 482 379 482 C289.667 482 240 400.667 240 282 L240 50 L380 43 L380 0 L50 0 L50 43 Z " /><g transform="translate(18,0)" ><path fill="black" d="M223 606 C199 651.333 159 713.333 127 756 L127 765 L160 765 C188 737 220.667 694.333 250 657 C280.667 698.333 305.333 726.333 340 765 L373 765 L373 756 C341.492 716.616 299.206 649.833 276 606 L223 606 Z " /></g></glyph>
<glyph glyph-name="Sacute" unicode="&#x15a;" horiz-adv-x="530" >
<path fill="black" d="M70 78 C116.667 58 172.667 44 222 44 C322 44 370 101 370 185 C370 270.148 321.184 296.739 228 342 C145.265 384.702 74 426.28 74 541 C74 666.333 152 725 264 725 C316.667 725 367.333 713.333 416 690 L394 639 C348.667 661.667 303.667 671 265 671 C178.333 671 134 625 134 545 C134 456.16 189.068 428.966 269 389 C367.915 340.879 431 304.486 431 189 C431 58.3333 352.333 -10 223 -10 C169.667 -10 114 2.33333 70 21 L70 78 Z " /><g transform="translate(-3,181)" ><path fill="black" d="M219 606 L219 616 C260.333 666.667 297.667 719.333 323 766 L392 766 L392 757 C362.414 713.967 299.994 643.62 257 606 L219 606 Z " /></g></glyph>
<glyph glyph-name="sacute" unicode="&#x15b;" horiz-adv-x="530" >
<path fill="black" d="M91 81 C133.667 58.3333 183.667 42 241 42 C329 42 360 78.6667 360 136 C360 190.903 324.661 208.669 240 251 C158.397 290.485 99 321.139 99 406 C99 492.667 160.333 543 271 543 C321.667 543 365.333 532.333 408 511 L386 463 C347.333 483 307.667 491 269 491 C199.667 491 157 462.667 157 408 C157 355.21 198.024 334.488 279 294 C358.001 257.133 418 227.955 418 136 C418 42.6667 358.333 -10 237 -10 C175.667 -10 125.667 4 91 24 L91 81 Z " /><g transform="translate(-5,0)" ><path fill="black" d="M219 606 L219 616 C260.333 666.667 297.667 719.333 323 766 L392 766 L392 757 C362.414 713.967 299.994 643.62 257 606 L219 606 Z " /></g></glyph>
<glyph glyph-name="Scircumflex" unicode="&#x15c;" horiz-adv-x="530" >
<path fill="black" d="M70 78 C116.667 58 172.667 44 222 44 C322 44 370 101 370 185 C370 270.148 321.184 296.739 228 342 C145.265 384.702 74 426.28 74 541 C74 666.333 152 725 264 725 C316.667 725 367.333 713.333 416 690 L394 639 C348.667 661.667 303.667 671 265 671 C178.333 671 134 625 134 545 C134 456.16 189.068 428.966 269 389 C367.915 340.879 431 304.486 431 189 C431 58.3333 352.333 -10 223 -10 C169.667 -10 114 2.33333 70 21 L70 78 Z " /><g transform="translate(9,181)" ><path fill="black" d="M126 606 L126 615 C158.731 658.642 200.387 721.775 222 765 L277 765 C300.479 720.65 344.789 652.178 374 615 L374 606 L341 606 C310.333 636.667 279.333 676.667 250 714 C220.667 678 187 634 159 606 L126 606 Z " /></g></glyph>
<glyph glyph-name="scircumflex" unicode="&#x15d;" horiz-adv-x="530" >
<path fill="black" d="M91 81 C133.667 58.3333 183.667 42 241 42 C329 42 360 78.6667 360 136 C360 190.903 324.661 208.669 240 251 C158.397 290.485 99 321.139 99 406 C99 492.667 160.333 543 271 543 C321.667 543 365.333 532.333 408 511 L386 463 C347.333 483 307.667 491 269 491 C199.667 491 157 462.667 157 408 C157 355.21 198.024 334.488 279 294 C358.001 257.133 418 227.955 418 136 C418 42.6667 358.333 -10 237 -10 C175.667 -10 125.667 4 91 24 L91 81 Z " /><g transform="translate(7,0)" ><path fill="black" d="M126 606 L126 615 C158.731 658.642 200.387 721.775 222 765 L277 765 C300.479 720.65 344.789 652.178 374 615 L374 606 L341 606 C310.333 636.667 279.333 676.667 250 714 C220.667 678 187 634 159 606 L126 606 Z " /></g></glyph>
<glyph glyph-name="Scedilla" unicode="&#x15e;" horiz-adv-x="530" d="M161 -193 C175 -197 190 -199 206 -199 C252.667 -199 280 -177 280 -141 C280 -102.333 249.667 -85 195 -81 L227 -10 L223 -10 C169.667 -10 114 2.33333 70 21 L70 78 C116.667 58 172.667 44 222 44 C322 44 370 101 370 185 C370 270.148 321.184 296.739 228 342 C145.265 384.702 74 426.28 74 541 C74 666.333 152 725 264 725 C316.667 725 367.333 713.333 416 690 L394 639 C348.667 661.667 303.667 671 265 671 C178.333 671 134 625 134 545 C134 456.16 189.068 428.966 269 389 C367.915 340.879 431 304.486 431 189 C431 74.3333 369.667 7.66667 267 -7 L245 -56 C301.667 -65.3333 330 -94.3333 330 -143 C330 -204.333 285.333 -240 212 -240 C194.667 -240 174.333 -238 161 -234 L161 -193 Z " />
<glyph glyph-name="scedilla" unicode="&#x15f;" horiz-adv-x="530" d="M168 -193 C182 -197 197 -199 213 -199 C259.667 -199 287 -177 287 -141 C287 -102.333 256.667 -85 202 -81 L234 -10 C174 -8.66667 125.667 4 91 24 L91 81 C133.667 58.3333 183.667 42 241 42 C329 42 360 78.6667 360 136 C360 190.903 324.661 208.669 240 251 C158.397 290.485 99 321.139 99 406 C99 492.667 160.333 543 271 543 C321.667 543 365.333 532.333 408 511 L386 463 C347.333 483 307.667 491 269 491 C199.667 491 157 462.667 157 408 C157 355.21 198.024 334.488 279 294 C358.001 257.133 418 227.955 418 136 C418 52 370.333 2.66667 273 -8 L252 -56 C308.667 -65.3333 337 -94.3333 337 -143 C337 -204.333 292.333 -240 219 -240 C201.667 -240 181.333 -238 168 -234 L168 -193 Z " />
<glyph glyph-name="Scaron" unicode="&#x160;" horiz-adv-x="530" >
<path fill="black" d="M70 78 C116.667 58 172.667 44 222 44 C322 44 370 101 370 185 C370 270.148 321.184 296.739 228 342 C145.265 384.702 74 426.28 74 541 C74 666.333 152 725 264 725 C316.667 725 367.333 713.333 416 690 L394 639 C348.667 661.667 303.667 671 265 671 C178.333 671 134 625 134 545 C134 456.16 189.068 428.966 269 389 C367.915 340.879 431 304.486 431 189 C431 58.3333 352.333 -10 223 -10 C169.667 -10 114 2.33333 70 21 L70 78 Z " /><g transform="translate(9,181)" ><path fill="black" d="M223 606 C199 651.333 159 713.333 127 756 L127 765 L160 765 C188 737 220.667 694.333 250 657 C280.667 698.333 305.333 726.333 340 765 L373 765 L373 756 C341.492 716.616 299.206 649.833 276 606 L223 606 Z " /></g></glyph>
<glyph glyph-name="scaron" unicode="&#x161;" horiz-adv-x="530" >
<path fill="black" d="M91 81 C133.667 58.3333 183.667 42 241 42 C329 42 360 78.6667 360 136 C360 190.903 324.661 208.669 240 251 C158.397 290.485 99 321.139 99 406 C99 492.667 160.333 543 271 543 C321.667 543 365.333 532.333 408 511 L386 463 C347.333 483 307.667 491 269 491 C199.667 491 157 462.667 157 408 C157 355.21 198.024 334.488 279 294 C358.001 257.133 418 227.955 418 136 C418 42.6667 358.333 -10 237 -10 C175.667 -10 125.667 4 91 24 L91 81 Z " /><g transform="translate(7,0)" ><path fill="black" d="M223 606 C199 651.333 159 713.333 127 756 L127 765 L160 765 C188 737 220.667 694.333 250 657 C280.667 698.333 305.333 726.333 340 765 L373 765 L373 756 C341.492 716.616 299.206 649.833 276 606 L223 606 Z " /></g></glyph>
<glyph glyph-name="uni0162" unicode="&#x162;" horiz-adv-x="530" d="M161 -193 C175 -197 190 -199 206 -199 C252.667 -199 280 -177 280 -141 C280 -102.333 249.667 -85 195 -81 L231 0 L219 0 L219 659 L39 659 L39 714 L461 714 L461 659 L279 659 L279 0 L270 0 L245 -56 C301.667 -65.3333 330 -94.3333 330 -143 C330 -204.333 285.333 -240 212 -240 C194.667 -240 174.333 -238 161 -234 L161 -193 Z " />
<glyph glyph-name="uni0163" unicode="&#x163;" horiz-adv-x="530" d="M234 -193 C248 -197 263 -199 279 -199 C325.667 -199 353 -177 353 -141 C353 -102.333 322.667 -85 268 -81 L301 -6 C233 8.66667 198 60.3333 198 159 L198 481 L65 481 L65 519 L199 534 L217 670 L257 670 L257 533 L433 533 L433 481 L256 481 L256 168 C256 84 282 43 354 43 C382.667 43 410.333 47.3333 437 56 L437 4 C409 -5.33333 378.667 -10 346 -10 L339 -10 L318 -56 C374.667 -65.3333 403 -94.3333 403 -143 C403 -204.333 358.333 -240 285 -240 C267.667 -240 247.333 -238 234 -234 L234 -193 Z " />
<glyph glyph-name="Tcaron" unicode="&#x164;" horiz-adv-x="530" >
<path fill="black" d="M219 0 L219 659 L39 659 L39 714 L461 714 L461 659 L279 659 L279 0 L219 0 Z " /><g transform="translate(0,181)" ><path fill="black" d="M223 606 C199 651.333 159 713.333 127 756 L127 765 L160 765 C188 737 220.667 694.333 250 657 C280.667 698.333 305.333 726.333 340 765 L373 765 L373 756 C341.492 716.616 299.206 649.833 276 606 L223 606 Z " /></g></glyph>
<glyph glyph-name="tcaron" unicode="&#x165;" horiz-adv-x="530" >
<path fill="black" d="M198 481 L65 481 L65 519 L199 534 L217 670 L257 670 L257 533 L433 533 L433 481 L256 481 L256 168 C256 84 282 43 354 43 C382.667 43 410.333 47.3333 437 56 L437 4 C409 -5.33333 378.667 -10 346 -10 C248.667 -10 198 41.6667 198 159 L198 481 Z " /><g transform="translate(405,46)" ><path fill="black" d="M-47 553 L-47 562 C-36.3749 588.563 -21.4802 678.379 -16 714 L46 714 L46 707 C38.0587 664.647 9.62092 592.368 -14 553 L-47 553 Z " /></g></glyph>
<glyph glyph-name="Tbar" unicode="&#x166;" horiz-adv-x="530" d="M219 340 L82 340 L82 391 L219 391 L219 659 L39 659 L39 714 L461 714 L461 659 L279 659 L279 391 L420 391 L420 340 L279 340 L279 0 L219 0 L219 340 Z " />
<glyph glyph-name="tbar" unicode="&#x167;" horiz-adv-x="530" d="M198 280 L65 280 L65 328 L198 328 L198 481 L65 481 L65 519 L199 534 L217 670 L257 670 L257 533 L433 533 L433 481 L256 481 L256 328 L439 328 L439 280 L256 280 L256 168 C256 84 282 43 354 43 C382.667 43 410.333 47.3333 437 56 L437 4 C409 -5.33333 378.667 -10 346 -10 C248.667 -10 198 41.6667 198 159 L198 280 Z " />
<glyph glyph-name="Utilde" unicode="&#x168;" horiz-adv-x="530" >
<path fill="black" d="M54 714 L113 714 L113 229 C113 98.3333 161.667 44 251 44 C337.667 44 387 96.3333 387 227 L387 714 L446 714 L446 224 C446 61.3333 372.667 -10 250 -10 C120.667 -10 54 64.6667 54 226 L54 714 Z " /><g transform="translate(0,181)" ><path fill="black" d="M102 616 C108.667 680 133.333 725 184 725 C236.778 725 270.889 663 313 663 C337 663 352 684 358 726 L397 726 C393 654 360 616 316 616 C261.895 616 225.673 679 186 679 C163.333 679 146.333 658.667 141 616 L102 616 Z " /></g></glyph>
<glyph glyph-name="utilde" unicode="&#x169;" horiz-adv-x="530" >
<path fill="black" d="M66 533 L124 533 L124 184 C124 80 163.667 42 237 42 C322.333 42 371 110.667 371 244 L371 533 L429 533 L429 0 L381 0 L373 89 L369 89 C346.333 30.3333 298 -10 222 -10 C119.333 -10 66 49 66 173 L66 533 Z " /><path fill="black" d="M102 616 C108.667 680 133.333 725 184 725 C236.778 725 270.889 663 313 663 C337 663 352 684 358 726 L397 726 C393 654 360 616 316 616 C261.895 616 225.673 679 186 679 C163.333 679 146.333 658.667 141 616 L102 616 Z " /></glyph>
<glyph glyph-name="Umacron" unicode="&#x16a;" horiz-adv-x="530" >
<path fill="black" d="M54 714 L113 714 L113 229 C113 98.3333 161.667 44 251 44 C337.667 44 387 96.3333 387 227 L387 714 L446 714 L446 224 C446 61.3333 372.667 -10 250 -10 C120.667 -10 54 64.6667 54 226 L54 714 Z " /><g transform="translate(0,178)" ><path fill="black" d="M131 672 L368 672 L368 626 L131 626 L131 672 Z " /></g></glyph>
<glyph glyph-name="umacron" unicode="&#x16b;" horiz-adv-x="530" >
<path fill="black" d="M66 533 L124 533 L124 184 C124 80 163.667 42 237 42 C322.333 42 371 110.667 371 244 L371 533 L429 533 L429 0 L381 0 L373 89 L369 89 C346.333 30.3333 298 -10 222 -10 C119.333 -10 66 49 66 173 L66 533 Z " /><g transform="translate(0,-3)" ><path fill="black" d="M131 672 L368 672 L368 626 L131 626 L131 672 Z " /></g></glyph>
<glyph glyph-name="Ubreve" unicode="&#x16c;" horiz-adv-x="530" >
<path fill="black" d="M54 714 L113 714 L113 229 C113 98.3333 161.667 44 251 44 C337.667 44 387 96.3333 387 227 L387 714 L446 714 L446 224 C446 61.3333 372.667 -10 250 -10 C120.667 -10 54 64.6667 54 226 L54 714 Z " /><g transform="translate(0,181)" ><path fill="black" d="M173 730 C177 680.667 203.333 653 250 653 C296.667 653 323 680.667 327 730 L367 730 C364.333 654 320.667 610 250 610 C180.667 610 135.667 650 133 730 L173 730 Z " /></g></glyph>
<glyph glyph-name="ubreve" unicode="&#x16d;" horiz-adv-x="530" >
<path fill="black" d="M66 533 L124 533 L124 184 C124 80 163.667 42 237 42 C322.333 42 371 110.667 371 244 L371 533 L429 533 L429 0 L381 0 L373 89 L369 89 C346.333 30.3333 298 -10 222 -10 C119.333 -10 66 49 66 173 L66 533 Z " /><path fill="black" d="M173 730 C177 680.667 203.333 653 250 653 C296.667 653 323 680.667 327 730 L367 730 C364.333 654 320.667 610 250 610 C180.667 610 135.667 650 133 730 L173 730 Z " /></glyph>
<glyph glyph-name="Uring" unicode="&#x16e;" horiz-adv-x="530" >
<path fill="black" d="M54 714 L113 714 L113 229 C113 98.3333 161.667 44 251 44 C337.667 44 387 96.3333 387 227 L387 714 L446 714 L446 224 C446 61.3333 372.667 -10 250 -10 C120.667 -10 54 64.6667 54 226 L54 714 Z " /><g transform="translate(0,181)" ><path fill="black" d="M150 709 C150 767.667 191 806 251 806 C307 806 350 768 350 708 C350 649.333 309.667 611 251 611 C191 611 150 649 150 709 Z M190 709 C190 673 213.667 649 251 649 C287 649 311 672 311 708 C311 744 287.333 768 250 768 C214 768 190 743.667 190 709 Z " /></g></glyph>
<glyph glyph-name="uring" unicode="&#x16f;" horiz-adv-x="530" >
<path fill="black" d="M66 533 L124 533 L124 184 C124 80 163.667 42 237 42 C322.333 42 371 110.667 371 244 L371 533 L429 533 L429 0 L381 0 L373 89 L369 89 C346.333 30.3333 298 -10 222 -10 C119.333 -10 66 49 66 173 L66 533 Z " /><path fill="black" d="M150 709 C150 767.667 191 806 251 806 C307 806 350 768 350 708 C350 649.333 309.667 611 251 611 C191 611 150 649 150 709 Z M190 709 C190 673 213.667 649 251 649 C287 649 311 672 311 708 C311 744 287.333 768 250 768 C214 768 190 743.667 190 709 Z " /></glyph>
<glyph glyph-name="Uhungarumlaut" unicode="&#x170;" horiz-adv-x="530" d="M54 714 L113 714 L113 229 C113 98.3333 161.667 44 251 44 C337.667 44 387 96.3333 387 227 L387 714 L446 714 L446 224 C446 61.3333 372.667 -10 250 -10 C120.667 -10 54 64.6667 54 226 L54 714 Z M144 787 L144 796 C176.406 839.208 218.119 912.591 234 947 L295 947 L295 939 C273.548 896.097 213.534 824.534 176 787 L144 787 Z M284 787 L284 796 C316.406 839.208 358.119 912.591 374 947 L435 947 L435 939 C413.548 896.097 353.534 824.534 316 787 L284 787 Z " />
<glyph glyph-name="uhungarumlaut" unicode="&#x171;" horiz-adv-x="530" d="M66 533 L124 533 L124 184 C124 80 163.667 42 237 42 C322.333 42 371 110.667 371 244 L371 533 L429 533 L429 0 L381 0 L373 89 L369 89 C346.333 30.3333 298 -10 222 -10 C119.333 -10 66 49 66 173 L66 533 Z M144 606 L144 615 C176.406 658.208 218.119 731.591 234 766 L295 766 L295 758 C273.548 715.097 213.534 643.534 176 606 L144 606 Z M284 606 L284 615 C316.406 658.208 358.119 731.591 374 766 L435 766 L435 758 C413.548 715.097 353.534 643.534 316 606 L284 606 Z " />
<glyph glyph-name="Uogonek" unicode="&#x172;" horiz-adv-x="530" d="M324 -213 C313.333 -218.333 298.667 -221 280 -221 C224 -221 192 -190.333 192 -137 C192 -89 218 -44.6667 262 -10 L250 -10 C120.667 -10 54 64.6667 54 226 L54 714 L113 714 L113 229 C113 98.3333 161.667 44 251 44 C337.667 44 387 96.3333 387 227 L387 714 L446 714 L446 224 C446 106.667 409.667 38.6667 343 8 C280.333 -33.3333 242 -74.3333 242 -125 C242 -158.333 256.333 -178 291 -178 C304.333 -178 317.333 -174.667 324 -172 L324 -213 Z " />
<glyph glyph-name="uogonek" unicode="&#x173;" horiz-adv-x="530" d="M437 -213 C426.333 -218.333 411.667 -221 393 -221 C335.667 -221 304 -192 304 -136 C304 -84 331.667 -38.3333 381 3 L373 89 L369 89 C346.333 30.3333 298 -10 222 -10 C119.333 -10 66 49 66 173 L66 533 L124 533 L124 184 C124 80 163.667 42 237 42 C322.333 42 371 110.667 371 244 L371 533 L429 533 L429 0 L424 0 C377.333 -44 354 -81.3333 354 -124 C354 -160 370.333 -178 403 -178 C416.333 -178 429 -174.667 437 -172 L437 -213 Z " />
<glyph glyph-name="Wcircumflex" unicode="&#x174;" horiz-adv-x="530" >
<path fill="black" d="M139 58 C144.446 101.566 154.403 185.016 165 238 L220 533 L280 533 L336 237 C346.894 179.808 358.651 101.465 364 56 L367 56 C369.613 103.03 374.653 243.875 380 292 C394.667 433.333 411.333 572.667 426 714 L481 714 L404 0 L332 0 L270 347 C262 397.667 257.333 422.333 252 457 L249 457 C243.667 422.333 239 397.667 231 347 L170 0 L97 0 L19 714 L70 714 C86 572.667 104.333 433.667 119 291 C124.355 240.125 134.316 103.631 137 58 L139 58 Z " /><g transform="translate(0,181)" ><path fill="black" d="M126 606 L126 615 C158.731 658.642 200.387 721.775 222 765 L277 765 C300.479 720.65 344.789 652.178 374 615 L374 606 L341 606 C310.333 636.667 279.333 676.667 250 714 C220.667 678 187 634 159 606 L126 606 Z " /></g></glyph>
<glyph glyph-name="wcircumflex" unicode="&#x175;" horiz-adv-x="530" >
<path fill="black" d="M137 59 C142.322 93.5925 155.303 162.537 166 208 L221 429 L282 429 L336 207 C346.802 163.792 359.863 93.96 365 58 L367 58 C372.333 96.6667 378 160 386 216 L436 533 L488 533 L401 0 L332 0 L279 232 C268.333 277.333 259.667 324 253 368 L250 368 C243.333 324 233.333 275.333 224 230 L169 0 L100 0 L12 533 L66 533 L117 217 C126.333 161 131 95 135 59 L137 59 Z " /><g transform="translate(4,0)" ><path fill="black" d="M126 606 L126 615 C158.731 658.642 200.387 721.775 222 765 L277 765 C300.479 720.65 344.789 652.178 374 615 L374 606 L341 606 C310.333 636.667 279.333 676.667 250 714 C220.667 678 187 634 159 606 L126 606 Z " /></g></glyph>
<glyph glyph-name="Ycircumflex" unicode="&#x176;" horiz-adv-x="530" >
<path fill="black" d="M221 0 L221 274 L26 714 L90 714 L250 331 L410 714 L474 714 L279 275 L279 0 L221 0 Z " /><g transform="translate(0,181)" ><path fill="black" d="M126 606 L126 615 C158.731 658.642 200.387 721.775 222 765 L277 765 C300.479 720.65 344.789 652.178 374 615 L374 606 L341 606 C310.333 636.667 279.333 676.667 250 714 C220.667 678 187 634 159 606 L126 606 Z " /></g></glyph>
<glyph glyph-name="ycircumflex" unicode="&#x177;" horiz-adv-x="530" >
<path fill="black" d="M54 -184 C68.6667 -188 86.6667 -192 104 -192 C149.333 -192 174.667 -167.667 200 -93 L230 1 L49 533 L109 533 L221 196 C239.667 137.333 250.333 99.6667 257 65 L260 65 C268 103.667 280.667 153.333 294 196 L394 533 L455 533 L260 -88 C229.333 -186.667 185 -244 109 -244 C91.6667 -244 73.3333 -241.333 54 -236 L54 -184 Z " /><path fill="black" d="M126 606 L126 615 C158.731 658.642 200.387 721.775 222 765 L277 765 C300.479 720.65 344.789 652.178 374 615 L374 606 L341 606 C310.333 636.667 279.333 676.667 250 714 C220.667 678 187 634 159 606 L126 606 Z " /></glyph>
<glyph glyph-name="Ydieresis" unicode="&#x178;" horiz-adv-x="530" >
<g transform="translate(0,170)" ><path fill="black" d="M162 629 C138 629 121 648 121 680 C121 710.667 138 729 162 729 C187.333 729 203 710.667 203 680 C203 646.667 187.333 629 162 629 Z M338 629 C314 629 297 648 297 680 C297 710.667 314 729 338 729 C363.333 729 379 710.667 379 680 C379 646.667 363.333 629 338 629 Z " /></g><path fill="black" d="M221 0 L221 274 L26 714 L90 714 L250 331 L410 714 L474 714 L279 275 L279 0 L221 0 Z " /></glyph>
<glyph glyph-name="Zacute" unicode="&#x179;" horiz-adv-x="530" >
<path fill="black" d="M78 49 L366 659 L94 659 L94 714 L431 714 L431 665 L143 55 L439 55 L439 0 L78 0 L78 49 Z " /><g transform="translate(1,181)" ><path fill="black" d="M219 606 L219 616 C260.333 666.667 297.667 719.333 323 766 L392 766 L392 757 C362.414 713.967 299.994 643.62 257 606 L219 606 Z " /></g></glyph>
<glyph glyph-name="zacute" unicode="&#x17a;" horiz-adv-x="530" >
<path fill="black" d="M78 43 L353 481 L95 481 L95 533 L418 533 L418 484 L145 52 L422 52 L422 0 L78 0 L78 43 Z " /><g transform="translate(-4,0)" ><path fill="black" d="M219 606 L219 616 C260.333 666.667 297.667 719.333 323 766 L392 766 L392 757 C362.414 713.967 299.994 643.62 257 606 L219 606 Z " /></g></glyph>
<glyph glyph-name="Zdotaccent" unicode="&#x17b;" horiz-adv-x="530" >
<path fill="black" d="M78 49 L366 659 L94 659 L94 714 L431 714 L431 665 L143 55 L439 55 L439 0 L78 0 L78 49 Z " /><g transform="translate(13,838)" ><path fill="black" d="M249 -12 C219 -12 204 5.66667 204 41 C204 76.3333 219 94 249 94 C279.667 94 295 76.3333 295 41 C295 5.66667 279.667 -12 249 -12 Z " /></g></glyph>
<glyph glyph-name="zdotaccent" unicode="&#x17c;" horiz-adv-x="530" >
<path fill="black" d="M78 43 L353 481 L95 481 L95 533 L418 533 L418 484 L145 52 L422 52 L422 0 L78 0 L78 43 Z " /><g transform="translate(8,657)" ><path fill="black" d="M249 -12 C219 -12 204 5.66667 204 41 C204 76.3333 219 94 249 94 C279.667 94 295 76.3333 295 41 C295 5.66667 279.667 -12 249 -12 Z " /></g></glyph>
<glyph glyph-name="Zcaron" unicode="&#x17d;" horiz-adv-x="530" >
<path fill="black" d="M78 49 L366 659 L94 659 L94 714 L431 714 L431 665 L143 55 L439 55 L439 0 L78 0 L78 49 Z " /><g transform="translate(13,181)" ><path fill="black" d="M223 606 C199 651.333 159 713.333 127 756 L127 765 L160 765 C188 737 220.667 694.333 250 657 C280.667 698.333 305.333 726.333 340 765 L373 765 L373 756 C341.492 716.616 299.206 649.833 276 606 L223 606 Z " /></g></glyph>
<glyph glyph-name="zcaron" unicode="&#x17e;" horiz-adv-x="530" >
<path fill="black" d="M78 43 L353 481 L95 481 L95 533 L418 533 L418 484 L145 52 L422 52 L422 0 L78 0 L78 43 Z " /><g transform="translate(8,0)" ><path fill="black" d="M223 606 C199 651.333 159 713.333 127 756 L127 765 L160 765 C188 737 220.667 694.333 250 657 C280.667 698.333 305.333 726.333 340 765 L373 765 L373 756 C341.492 716.616 299.206 649.833 276 606 L223 606 Z " /></g></glyph>
<glyph glyph-name="longs" unicode="&#x17f;" horiz-adv-x="530" d="M206 0 L206 579 C206 701.667 256.667 765 366 765 C396.667 765 423.333 760 446 752 L432 703 C413.333 709.667 392 713 368 713 C300 713 266 675 266 571 L266 0 L206 0 Z " />
<glyph glyph-name="florin" unicode="&#x192;" horiz-adv-x="530" d="M68 -179 C89.3333 -185.667 109.333 -189 128 -189 C188 -189 211 -151.333 211 -74 L211 411 L97 411 L97 445 L211 462 L211 543 C211 664.333 250.333 724 345 724 C375.667 724 400.667 719.333 430 706 L413 659 C393 668.333 372.667 673 352 673 C292 673 269 635.667 269 541 L269 460 L383 460 L383 411 L269 411 L269 -64 C269 -174.667 235.333 -240 134 -240 C110 -240 88 -237.333 68 -232 L68 -179 Z " />
<glyph glyph-name="uni0218" unicode="&#x218;" horiz-adv-x="530" >
<path fill="black" d="M70 78 C116.667 58 172.667 44 222 44 C322 44 370 101 370 185 C370 270.148 321.184 296.739 228 342 C145.265 384.702 74 426.28 74 541 C74 666.333 152 725 264 725 C316.667 725 367.333 713.333 416 690 L394 639 C348.667 661.667 303.667 671 265 671 C178.333 671 134 625 134 545 C134 456.16 189.068 428.966 269 389 C367.915 340.879 431 304.486 431 189 C431 58.3333 352.333 -10 223 -10 C169.667 -10 114 2.33333 70 21 L70 78 Z " /><g transform="translate(780,0)" ><path fill="black" d="M-598 -221 L-598 -211 C-584.491 -175.877 -563.359 -103.87 -558 -61 L-497 -61 L-497 -69 C-509 -114.333 -534.333 -178.333 -565 -221 L-598 -221 Z " /></g></glyph>
<glyph glyph-name="uni0219" unicode="&#x219;" horiz-adv-x="530" >
<path fill="black" d="M91 81 C133.667 58.3333 183.667 42 241 42 C329 42 360 78.6667 360 136 C360 190.903 324.661 208.669 240 251 C158.397 290.485 99 321.139 99 406 C99 492.667 160.333 543 271 543 C321.667 543 365.333 532.333 408 511 L386 463 C347.333 483 307.667 491 269 491 C199.667 491 157 462.667 157 408 C157 355.21 198.024 334.488 279 294 C358.001 257.133 418 227.955 418 136 C418 42.6667 358.333 -10 237 -10 C175.667 -10 125.667 4 91 24 L91 81 Z " /><g transform="translate(787,0)" ><path fill="black" d="M-598 -221 L-598 -211 C-584.491 -175.877 -563.359 -103.87 -558 -61 L-497 -61 L-497 -69 C-509 -114.333 -534.333 -178.333 -565 -221 L-598 -221 Z " /></g></glyph>
<glyph glyph-name="uni021A" unicode="&#x21a;" horiz-adv-x="530" >
<path fill="black" d="M219 0 L219 659 L39 659 L39 714 L461 714 L461 659 L279 659 L279 0 L219 0 Z " /><g transform="translate(780,0)" ><path fill="black" d="M-598 -221 L-598 -211 C-584.491 -175.877 -563.359 -103.87 -558 -61 L-497 -61 L-497 -69 C-509 -114.333 -534.333 -178.333 -565 -221 L-598 -221 Z " /></g></glyph>
<glyph glyph-name="uni021B" unicode="&#x21b;" horiz-adv-x="530" >
<path fill="black" d="M198 481 L65 481 L65 519 L199 534 L217 670 L257 670 L257 533 L433 533 L433 481 L256 481 L256 168 C256 84 282 43 354 43 C382.667 43 410.333 47.3333 437 56 L437 4 C409 -5.33333 378.667 -10 346 -10 C248.667 -10 198 41.6667 198 159 L198 481 Z " /><g transform="translate(853,0)" ><path fill="black" d="M-598 -221 L-598 -211 C-584.491 -175.877 -563.359 -103.87 -558 -61 L-497 -61 L-497 -69 C-509 -114.333 -534.333 -178.333 -565 -221 L-598 -221 Z " /></g></glyph>
<glyph glyph-name="uni0237" unicode="&#x237;" horiz-adv-x="500" d="M47 -173 C73.6667 -183.667 124.333 -193 159 -193 C229.667 -193 266 -150 266 -74 L266 480 L94 490 L94 533 L324 533 L324 -73 C324 -190.333 263.333 -246 162 -246 C119.333 -246 72.3333 -236 47 -228 L47 -173 Z " />
<glyph glyph-name="circumflex" unicode="&#x2c6;" horiz-adv-x="530" d="M126 606 L126 615 C158.731 658.642 200.387 721.775 222 765 L277 765 C300.479 720.65 344.789 652.178 374 615 L374 606 L341 606 C310.333 636.667 279.333 676.667 250 714 C220.667 678 187 634 159 606 L126 606 Z " />
<glyph glyph-name="caron" unicode="&#x2c7;" horiz-adv-x="530" d="M223 606 C199 651.333 159 713.333 127 756 L127 765 L160 765 C188 737 220.667 694.333 250 657 C280.667 698.333 305.333 726.333 340 765 L373 765 L373 756 C341.492 716.616 299.206 649.833 276 606 L223 606 Z " />
<glyph glyph-name="uni02C9" unicode="&#x2c9;" horiz-adv-x="530" >
<g transform="translate(0,-3)" ><path fill="black" d="M131 672 L368 672 L368 626 L131 626 L131 672 Z " /></g></glyph>
<glyph glyph-name="breve" unicode="&#x2d8;" horiz-adv-x="530" d="M173 730 C177 680.667 203.333 653 250 653 C296.667 653 323 680.667 327 730 L367 730 C364.333 654 320.667 610 250 610 C180.667 610 135.667 650 133 730 L173 730 Z " />
<glyph glyph-name="dotaccent" unicode="&#x2d9;" horiz-adv-x="530" >
<g transform="translate(0,657)" ><path fill="black" d="M249 -12 C219 -12 204 5.66667 204 41 C204 76.3333 219 94 249 94 C279.667 94 295 76.3333 295 41 C295 5.66667 279.667 -12 249 -12 Z " /></g></glyph>
<glyph glyph-name="ring" unicode="&#x2da;" horiz-adv-x="530" d="M150 709 C150 767.667 191 806 251 806 C307 806 350 768 350 708 C350 649.333 309.667 611 251 611 C191 611 150 649 150 709 Z M190 709 C190 673 213.667 649 251 649 C287 649 311 672 311 708 C311 744 287.333 768 250 768 C214 768 190 743.667 190 709 Z " />
<glyph glyph-name="ogonek" unicode="&#x2db;" horiz-adv-x="530" d="M316 -213 C305.333 -218.333 290.667 -221 272 -221 C214.667 -221 183 -192 183 -136 C183 -80 214.333 -31.6667 269 11 L303 0 C256.333 -44 233 -81.3333 233 -124 C233 -160 249.333 -178 282 -178 C295.333 -178 308 -174.667 316 -172 L316 -213 Z " />
<glyph glyph-name="tilde" unicode="&#x2dc;" horiz-adv-x="530" d="M102 616 C108.667 680 133.333 725 184 725 C236.778 725 270.889 663 313 663 C337 663 352 684 358 726 L397 726 C393 654 360 616 316 616 C261.895 616 225.673 679 186 679 C163.333 679 146.333 658.667 141 616 L102 616 Z " />
<glyph glyph-name="hungarumlaut" unicode="&#x2dd;" horiz-adv-x="530" d="M151 606 L151 615 C183.406 658.208 225.119 731.591 241 766 L302 766 L302 758 C280.548 715.097 220.534 643.534 183 606 L151 606 Z M291 606 L291 615 C323.406 658.208 365.119 731.591 381 766 L442 766 L442 758 C420.548 715.097 360.534 643.534 323 606 L291 606 Z " />
<glyph glyph-name="uni0394" unicode="&#x394;" horiz-adv-x="530" d="M20 44 L214 714 L285 714 L480 41 L480 0 L20 0 L20 44 Z M413 54 L285 509 C271.667 555.667 255.667 615.333 249 654 C241 611.333 225 555.333 213 510 L86 54 L413 54 Z " />
<glyph glyph-name="uni03A9" unicode="&#x3a9;" horiz-adv-x="530" d="M24 54 L148 54 C81.3333 116.667 35 223.667 35 393 C35 619.667 114.667 724 252 724 C386.667 724 464 621.333 464 392 C464 220 420 115.333 352 54 L476 54 L476 0 L286 0 L286 47 C370 116.333 404 225 404 389 C404 582.333 350.667 672 252 672 C153.333 672 96 584.667 96 390 C96 223.333 138.333 115 213 47 L213 0 L24 0 L24 54 Z " />
<glyph glyph-name="uni03BC" unicode="&#x3bc;" horiz-adv-x="530" >
<path fill="black" d="M66 533 L124 533 L124 184 C124 80 163.667 42 237 42 C322.333 42 371 110.667 371 244 L371 533 L429 533 L429 0 L381 0 L373 89 L369 89 C346.333 30.3333 298 -10 222 -10 C181.333 -10 148.667 -0.666667 124 18 L124 -240 L66 -240 L66 533 Z " /></glyph>
<glyph glyph-name="pi" unicode="&#x3c0;" horiz-adv-x="530" d="M106 482 L18 482 L18 510 L74 533 L476 533 L476 482 L389 482 L389 118 C389 66 402.333 45 437 45 C449.667 45 461 47 471 51 L471 2 C460.333 -4.66667 442.667 -7 420 -7 C360.667 -7 331 31 331 107 L331 482 L164 482 L164 0 L106 0 L106 482 Z " />
<glyph glyph-name="Wgrave" unicode="&#x1e80;" horiz-adv-x="530" >
<path fill="black" d="M139 58 C144.446 101.566 154.403 185.016 165 238 L220 533 L280 533 L336 237 C346.894 179.808 358.651 101.465 364 56 L367 56 C369.613 103.03 374.653 243.875 380 292 C394.667 433.333 411.333 572.667 426 714 L481 714 L404 0 L332 0 L270 347 C262 397.667 257.333 422.333 252 457 L249 457 C243.667 422.333 239 397.667 231 347 L170 0 L97 0 L19 714 L70 714 C86 572.667 104.333 433.667 119 291 C124.355 240.125 134.316 103.631 137 58 L139 58 Z " /><g transform="translate(-11,181)" ><path fill="black" d="M127 766 L196 766 C221.333 718 266.333 656 301 616 L301 606 L263 606 C220.644 643.062 156.497 711.414 127 757 L127 766 Z " /></g></glyph>
<glyph glyph-name="wgrave" unicode="&#x1e81;" horiz-adv-x="530" >
<path fill="black" d="M137 59 C142.322 93.5925 155.303 162.537 166 208 L221 429 L282 429 L336 207 C346.802 163.792 359.863 93.96 365 58 L367 58 C372.333 96.6667 378 160 386 216 L436 533 L488 533 L401 0 L332 0 L279 232 C268.333 277.333 259.667 324 253 368 L250 368 C243.333 324 233.333 275.333 224 230 L169 0 L100 0 L12 533 L66 533 L117 217 C126.333 161 131 95 135 59 L137 59 Z " /><g transform="translate(-7,0)" ><path fill="black" d="M127 766 L196 766 C221.333 718 266.333 656 301 616 L301 606 L263 606 C220.644 643.062 156.497 711.414 127 757 L127 766 Z " /></g></glyph>
<glyph glyph-name="Wacute" unicode="&#x1e82;" horiz-adv-x="530" >
<path fill="black" d="M139 58 C144.446 101.566 154.403 185.016 165 238 L220 533 L280 533 L336 237 C346.894 179.808 358.651 101.465 364 56 L367 56 C369.613 103.03 374.653 243.875 380 292 C394.667 433.333 411.333 572.667 426 714 L481 714 L404 0 L332 0 L270 347 C262 397.667 257.333 422.333 252 457 L249 457 C243.667 422.333 239 397.667 231 347 L170 0 L97 0 L19 714 L70 714 C86 572.667 104.333 433.667 119 291 C124.355 240.125 134.316 103.631 137 58 L139 58 Z " /><g transform="translate(-12,181)" ><path fill="black" d="M219 606 L219 616 C260.333 666.667 297.667 719.333 323 766 L392 766 L392 757 C362.414 713.967 299.994 643.62 257 606 L219 606 Z " /></g></glyph>
<glyph glyph-name="wacute" unicode="&#x1e83;" horiz-adv-x="530" >
<path fill="black" d="M137 59 C142.322 93.5925 155.303 162.537 166 208 L221 429 L282 429 L336 207 C346.802 163.792 359.863 93.96 365 58 L367 58 C372.333 96.6667 378 160 386 216 L436 533 L488 533 L401 0 L332 0 L279 232 C268.333 277.333 259.667 324 253 368 L250 368 C243.333 324 233.333 275.333 224 230 L169 0 L100 0 L12 533 L66 533 L117 217 C126.333 161 131 95 135 59 L137 59 Z " /><g transform="translate(-8,0)" ><path fill="black" d="M219 606 L219 616 C260.333 666.667 297.667 719.333 323 766 L392 766 L392 757 C362.414 713.967 299.994 643.62 257 606 L219 606 Z " /></g></glyph>
<glyph glyph-name="Wdieresis" unicode="&#x1e84;" horiz-adv-x="530" >
<g transform="translate(0,170)" ><path fill="black" d="M162 629 C138 629 121 648 121 680 C121 710.667 138 729 162 729 C187.333 729 203 710.667 203 680 C203 646.667 187.333 629 162 629 Z M338 629 C314 629 297 648 297 680 C297 710.667 314 729 338 729 C363.333 729 379 710.667 379 680 C379 646.667 363.333 629 338 629 Z " /></g><path fill="black" d="M139 58 C144.446 101.566 154.403 185.016 165 238 L220 533 L280 533 L336 237 C346.894 179.808 358.651 101.465 364 56 L367 56 C369.613 103.03 374.653 243.875 380 292 C394.667 433.333 411.333 572.667 426 714 L481 714 L404 0 L332 0 L270 347 C262 397.667 257.333 422.333 252 457 L249 457 C243.667 422.333 239 397.667 231 347 L170 0 L97 0 L19 714 L70 714 C86 572.667 104.333 433.667 119 291 C124.355 240.125 134.316 103.631 137 58 L139 58 Z " /></glyph>
<glyph glyph-name="wdieresis" unicode="&#x1e85;" horiz-adv-x="530" >
<g transform="translate(4,-11)" ><path fill="black" d="M162 629 C138 629 121 648 121 680 C121 710.667 138 729 162 729 C187.333 729 203 710.667 203 680 C203 646.667 187.333 629 162 629 Z M338 629 C314 629 297 648 297 680 C297 710.667 314 729 338 729 C363.333 729 379 710.667 379 680 C379 646.667 363.333 629 338 629 Z " /></g><path fill="black" d="M137 59 C142.322 93.5925 155.303 162.537 166 208 L221 429 L282 429 L336 207 C346.802 163.792 359.863 93.96 365 58 L367 58 C372.333 96.6667 378 160 386 216 L436 533 L488 533 L401 0 L332 0 L279 232 C268.333 277.333 259.667 324 253 368 L250 368 C243.333 324 233.333 275.333 224 230 L169 0 L100 0 L12 533 L66 533 L117 217 C126.333 161 131 95 135 59 L137 59 Z " /></glyph>
<glyph glyph-name="uni2010" unicode="&#x2010;" horiz-adv-x="500" >
<path fill="black" d="M124 301 L375 301 L375 246 L124 246 L124 301 Z " /></glyph>
<glyph glyph-name="endash" unicode="&#x2013;" horiz-adv-x="530" d="M75 301 L425 301 L425 246 L75 246 L75 301 Z " />
<glyph glyph-name="emdash" unicode="&#x2014;" horiz-adv-x="530" >
<g transform="translate(0,384)" ><path fill="black" d="M0 -83 L500 -83 L500 -138 L0 -138 L0 -83 Z " /></g></glyph>
<glyph glyph-name="quoteleft" unicode="&#x2018;" horiz-adv-x="530" >
<path fill="black" d="M198 474 L191 485 C209.667 565 233 642 265 714 L308 714 C284 634 266.333 546 257 474 L198 474 Z " /></glyph>
<glyph glyph-name="quoteright" unicode="&#x2019;" horiz-adv-x="530" >
<g transform="translate(4,0)" ><path fill="black" d="M191 474 C215 554 235.333 643.333 242 714 L301 714 L308 703 C290.667 623 265.667 547.333 235 474 L191 474 Z " /></g></glyph>
<glyph glyph-name="quotesinglbase" unicode="&#x201a;" horiz-adv-x="530" >
<path fill="black" d="M180 -130 C204 -42 220.333 41.6667 231 115 L294 115 L300 104 C281.333 28 255.667 -58 225 -130 L180 -130 Z " /></glyph>
<glyph glyph-name="quotedblleft" unicode="&#x201c;" horiz-adv-x="530" >
<g transform="translate(-77,0)" ><path fill="black" d="M198 474 L191 485 C209.667 565 233 642 265 714 L308 714 C284 634 266.333 546 257 474 L198 474 Z " /></g><g transform="translate(77,0)" ><path fill="black" d="M198 474 L191 485 C209.667 565 233 642 265 714 L308 714 C284 634 266.333 546 257 474 L198 474 Z " /></g></glyph>
<glyph glyph-name="quotedblright" unicode="&#x201d;" horiz-adv-x="530" >
<g transform="translate(-74,1)" ><path fill="black" d="M191 474 C215 554 235.333 643.333 242 714 L301 714 L308 703 C290.667 623 265.667 547.333 235 474 L191 474 Z " /></g><g transform="translate(80,1)" ><path fill="black" d="M191 474 C215 554 235.333 643.333 242 714 L301 714 L308 703 C290.667 623 265.667 547.333 235 474 L191 474 Z " /></g></glyph>
<glyph glyph-name="quotedblbase" unicode="&#x201e;" horiz-adv-x="530" >
<g transform="translate(-64,0)" ><path fill="black" d="M180 -130 C204 -42 220.333 41.6667 231 115 L294 115 L300 104 C281.333 28 255.667 -58 225 -130 L180 -130 Z " /></g><g transform="translate(90,0)" ><path fill="black" d="M180 -130 C204 -42 220.333 41.6667 231 115 L294 115 L300 104 C281.333 28 255.667 -58 225 -130 L180 -130 Z " /></g></glyph>
<glyph glyph-name="dagger" unicode="&#x2020;" horiz-adv-x="530" d="M217 0 L229 514 L82 508 L82 561 L229 553 L217 760 L282 760 L269 553 L417 561 L417 508 L269 514 L282 0 L217 0 Z " />
<glyph glyph-name="daggerdbl" unicode="&#x2021;" horiz-adv-x="530" d="M82 234 L227 228 L220 384 L227 532 L82 526 L82 579 L227 570 L215 760 L279 760 L267 570 L417 579 L417 526 L267 532 L274 384 L267 228 L417 234 L417 181 L267 189 L279 0 L215 0 L227 189 L82 181 L82 234 Z " />
<glyph glyph-name="bullet" unicode="&#x2022;" horiz-adv-x="530" d="M250 250 C184.667 250 148 291.667 148 365 C148 439.667 182 480 250 480 C316.667 480 352 439.667 352 365 C352 293 315.333 250 250 250 Z " />
<glyph glyph-name="ellipsis" unicode="&#x2026;" horiz-adv-x="530" >
<path fill="black" d="M250 -12 C219.333 -12 204 5.66667 204 41 C204 76.3333 219.333 94 250 94 C280 94 295 76.3333 295 41 C295 5.66667 280 -12 250 -12 Z " /></glyph>
<glyph glyph-name="perthousand" unicode="&#x2030;" horiz-adv-x="530" d="M144 -168 C56 -168 10 -89.6667 10 57 C10 205 54.3333 279 143 279 C193.667 279 230.667 254.333 254 205 C276 254.333 312.333 279 363 279 C452.333 279 499 203.667 499 57 C499 -93.6667 452 -168 364 -168 C313.333 -168 277 -142.667 255 -92 C232.333 -142.667 195.333 -168 144 -168 Z M249 456 C161 456 115 534.333 115 681 C115 829 159.333 903 248 903 C337.333 903 384 827.667 384 681 C384 530.333 337 456 249 456 Z M230 83 C226 188.333 195 235 143 235 C87 235 59 179.667 59 57 C59 -68.3333 89 -124 145 -124 C197.667 -124 226.333 -72.3333 231 31 C229.667 40.3333 230 47.6667 230 57 L230 83 Z M365 -124 C421 -124 451 -67 451 57 C451 181 419 235 363 235 C307 235 279 179.667 279 57 C279 -68.3333 309 -124 365 -124 Z M250 500 C306 500 336 557 336 681 C336 805 304 859 248 859 C192 859 164 803.667 164 681 C164 555.667 194 500 250 500 Z M45 356 L446 406 L446 372 L45 322 L45 356 Z " />
<glyph glyph-name="guilsinglleft" unicode="&#x2039;" horiz-adv-x="530" d="M303 72 L158 260 L158 273 L303 462 L343 440 L226 267 L343 94 L303 72 Z " />
<glyph glyph-name="guilsinglright" unicode="&#x203a;" horiz-adv-x="530" d="M273 295 L157 468 L197 490 L342 302 L342 289 L197 100 L157 122 L273 295 Z " />
<glyph glyph-name="fraction" unicode="&#x2044;" horiz-adv-x="530" d="M45 356 L446 406 L446 372 L45 322 L45 356 Z " />
<glyph glyph-name="franc" unicode="&#x20a3;" horiz-adv-x="530" d="M120 141 L44 141 L44 189 L120 189 L120 714 L426 714 L426 657 L179 657 L179 382 L407 382 L407 325 L179 325 L179 189 L317 189 L317 141 L179 141 L179 0 L120 0 L120 141 Z " />
<glyph glyph-name="lira" unicode="&#x20a4;" horiz-adv-x="530" d="M449 54 L449 0 L71 0 L71 50 C137.67 74.0013 154 122.969 154 242 L71 242 L71 287 L154 287 L154 390 L71 390 L71 435 L154 435 L154 534 C154 658 205 724 317 724 C365 724 404.333 710 439 686 L416 639 C382.667 661.667 353.667 670 319 670 C244.333 670 213 628 213 532 L213 435 L362 435 L362 390 L213 390 L213 287 L362 287 L362 242 L213 242 C210.324 129.589 195.889 83.8768 147 54 L449 54 Z " />
<glyph glyph-name="peseta" unicode="&#x20a7;" horiz-adv-x="530" d="M34 0 L34 714 L140 714 C285.333 714 350 649.667 350 519 C350 395.364 289.022 311 128 311 L96 311 L96 0 L34 0 Z M335 278 L264 278 L264 306 L336 328 L349 446 L390 446 L390 323 L500 323 L500 278 L390 278 L390 121 C390 65 404.333 39 451 39 C465.667 39 486.667 43 500 47 L500 3 C485.333 -3.66667 463.667 -8 441 -8 C370.333 -8 335 31.6667 335 111 L335 278 Z M96 366 L123 366 C237.667 366 289 412 289 516 C289 617.333 241.667 659 135 659 L96 659 L96 366 Z " />
<glyph glyph-name="Euro" unicode="&#x20ac;" horiz-adv-x="530" d="M44 300 L115 300 C115 316 114 333.333 114 352 C114 368 113.667 385.333 115 400 L44 400 L44 443 L118 443 C128.679 597.844 196.908 725 324 725 C369.333 725 410.333 713 447 689 L424 638 C392 659.333 360.667 670 326 670 C236.667 670 189 580.333 177 443 L355 443 L355 400 L174 400 C174 385.333 173 368.667 173 354 C173 334 173.667 317.333 175 300 L341 300 L341 257 L177 257 C190.333 121 237 45 333 45 C370.333 45 402 54.3333 438 73 L438 15 C404.667 -1 369.333 -10 328 -10 C202.667 -10 135.333 86.3333 118 257 L44 257 L44 300 Z " />
<glyph glyph-name="uni2113" unicode="&#x2113;" horiz-adv-x="530" d="M159 285 C141.667 278.333 115.667 269.667 85 259 L85 307 C111 314.333 135.667 323.333 159 334 L159 568 C159 673.333 198 723 270 723 C342 723 381 670 381 574 C381 454 325.667 362 215 306 L215 163 C215 80.3333 239 39 287 39 C341.667 39 362.333 81 365 153 L415 153 C412.333 47.6667 371.333 -9 282 -9 C198 -9 159 50 159 158 L159 285 Z M215 355 C291 401.667 328 476.667 328 574 C328 643.333 305.667 676 271 676 C235 676 215 648 215 572 L215 355 Z " />
<glyph glyph-name="trademark" unicode="&#x2122;" horiz-adv-x="530" d="M226 367 L226 714 L286 714 L356 532 L428 714 L486 714 L486 367 L445 367 L445 560 C445 590.667 445.667 625.667 447 659 L444 659 L373 482 L338 482 L268 661 L264 661 C266.667 630.333 267 593 267 565 L267 367 L226 367 Z M73 367 L73 674 L-14 674 L-14 714 L202 714 L202 674 L115 674 L115 367 L73 367 Z " />
<glyph glyph-name="Omega" unicode="&#x2126;" horiz-adv-x="530" >
<path fill="black" d="M24 54 L148 54 C81.3333 116.667 35 223.667 35 393 C35 619.667 114.667 724 252 724 C386.667 724 464 621.333 464 392 C464 220 420 115.333 352 54 L476 54 L476 0 L286 0 L286 47 C370 116.333 404 225 404 389 C404 582.333 350.667 672 252 672 C153.333 672 96 584.667 96 390 C96 223.333 138.333 115 213 47 L213 0 L24 0 L24 54 Z " /></glyph>
<glyph glyph-name="estimated" unicode="&#x212e;" horiz-adv-x="530" d="M115 83 C141.667 52.3333 187.667 25 253 25 C346.333 25 400.667 75.3333 442 142 L478 119 C429.597 43.7065 371.434 -17 254 -17 C86.0519 -17 0 110.896 0 263 C0 450.636 131.281 535 254 535 C388.978 535 500 429.563 500 259 L115 259 L115 83 Z M115 301 L387 301 L387 436 C364.333 462.667 314 494 254 494 C190 494 145.667 469 115 437 L115 301 Z " />
<glyph glyph-name="uni2219" unicode="&#x2219;" horiz-adv-x="500" >
<g transform="translate(0,282)" ><path fill="black" d="M249 -12 C219 -12 204 5.66667 204 41 C204 76.3333 219 94 249 94 C279.667 94 295 76.3333 295 41 C295 5.66667 279.667 -12 249 -12 Z " /></g></glyph>
<glyph glyph-name="radical" unicode="&#x221a;" horiz-adv-x="530" d="M447 816 L501 816 L264 -7 L210 -7 L101 382 L15 382 L15 432 L138 432 L238 73 L447 816 Z " />
<glyph glyph-name="infinity" unicode="&#x221e;" horiz-adv-x="530" d="M131 201 C57.6667 201 7 262 7 354 C7 444.667 54 506 126 506 C186 506 220.333 461 251 401 C274.614 453.475 311.343 505 374 505 C444.667 505 492 445.333 492 356 C492 261.333 440.667 200 370 200 C310 200 277.667 245.667 251 303 C220.333 240.333 188.333 201 131 201 Z M134 248 C182 248 202.333 290.667 229 352 C202.333 416 176.667 459 130 459 C87.3333 459 56 418 56 354 C56 290 86 248 134 248 Z M367 247 C413.667 247 443 291.667 443 353 C443 414.333 411 458 367 458 C324.333 458 302.333 416 273 352 C299.673 293.32 319.913 247 367 247 Z " />
<glyph glyph-name="approxequal" unicode="&#x2248;" horiz-adv-x="530" >
<g transform="translate(0,-102)" ><path fill="black" d="M442 347 C416.667 317.667 383.333 300 342 300 C302 300 278.667 310.333 244 329 C213.333 346.333 186.667 357 156 357 C124 357 88.6667 336.667 58 298 L58 356 C84.6667 388 118 407 158 407 C199.333 407 224.333 395.667 259 377 C292.333 358.333 315.667 349 345 349 C377 349 411.333 369.333 442 404 L442 347 Z " /></g><g transform="translate(0,102)" ><path fill="black" d="M442 347 C416.667 317.667 383.333 300 342 300 C302 300 278.667 310.333 244 329 C213.333 346.333 186.667 357 156 357 C124 357 88.6667 336.667 58 298 L58 356 C84.6667 388 118 407 158 407 C199.333 407 224.333 395.667 259 377 C292.333 358.333 315.667 349 345 349 C377 349 411.333 369.333 442 404 L442 347 Z " /></g></glyph>
<glyph glyph-name="lessequal" unicode="&#x2264;" horiz-adv-x="530" d="M58 348 L58 384 L441 582 L441 526 L124 366 L441 200 L441 144 L58 348 Z M61 0 L61 49 L440 49 L440 0 L61 0 Z " />
<glyph glyph-name="greaterequal" unicode="&#x2265;" horiz-adv-x="530" d="M58 200 L375 366 L58 526 L58 582 L441 384 L441 348 L58 144 L58 200 Z M59 50 L439 50 L439 0 L59 0 L59 50 Z " />
</font>
</svg>
