<?xml version="1.0" encoding="UTF-8"?>
<svg xmlns="http://www.w3.org/2000/svg" xmlns:xlink="http://www.w3.org/1999/xlink" version="1.1" >
<font id="Monoto-3Cd700Bd" horiz-adv-x="434">
<font-face  font-family="Monoto 3 Cd" units-per-em="1000" ascent="955" descent="-235" font-style="normal" font-weight="700" font-stretch="condensed" cap-height="714" x-height="553" underline-position="-75" underline-thickness="50" />
<missing-glyph horiz-adv-x="437" d="M39 0 L39 714 L369 714 L369 0 L39 0 Z M328 51 L328 663 L79 663 L79 51 L328 51 Z " />
<glyph glyph-name="uni0000" horiz-adv-x="437" />
<glyph glyph-name="uni000D" unicode="&#xd;" horiz-adv-x="437" />
<glyph glyph-name="space" unicode="&#x20;" horiz-adv-x="437" />
<glyph glyph-name="exclam" unicode="&#x21;" horiz-adv-x="437" d="M150 233 L129 714 L277 714 L258 233 L150 233 Z M205 -11 C159.667 -11 131 17.6667 131 71 C131 125.667 155.667 153 205 153 C247.667 153 276 125.667 276 71 C276 17.6667 246.333 -11 205 -11 Z " />
<glyph glyph-name="quotedbl" unicode="&#x22;" horiz-adv-x="437" >
<g transform="translate(-91,0)" ><path fill="black" d="M152 456 L134 714 L273 714 L255 456 L152 456 Z " /></g><g transform="translate(90,0)" ><path fill="black" d="M152 456 L134 714 L273 714 L255 456 L152 456 Z " /></g></glyph>
<glyph glyph-name="numbersign" unicode="&#x23;" horiz-adv-x="437" d="M52 0 L73 201 L10 201 L10 292 L85 292 L96 427 L29 427 L29 520 L109 520 L129 714 L217 714 L196 520 L246 520 L266 714 L353 714 L333 520 L396 520 L396 427 L321 427 L309 292 L378 292 L378 201 L299 201 L277 0 L189 0 L210 201 L160 201 L140 0 L52 0 Z M222 292 L233 427 L183 427 L173 292 L222 292 Z " />
<glyph glyph-name="dollar" unicode="&#x24;" horiz-adv-x="437" d="M51 191 C88.3333 161.667 138.333 137.667 181 135 L181 321 C89 366.333 47 417.667 47 515 C47 616.333 101 676 181 688 L181 759 L236 759 L236 689 C274.667 685 315.333 671.333 354 646 L328 551 C298.667 571 266.667 581.667 236 587 L236 409 C325.333 366.333 365 319.667 365 225 C365 129 318.667 59.6667 236 41 L236 -58 L181 -58 L181 37 C138.333 39.6667 89.6667 53.3333 51 76 L51 191 Z M144 512 C144 476 153 457.667 181 435 L181 586 C153 578 144 550.667 144 512 Z M236 143 C261.333 153.667 270 181 270 217 C270 253 258.667 275 236 295 L236 143 Z " />
<glyph glyph-name="percent" unicode="&#x25;" horiz-adv-x="437" d="M1 168 L306 545 L406 545 L101 168 L1 168 Z M112 385 C44 385 2 447.333 2 554 C2 660.667 41.3333 724 112 724 C184 724 225 662 225 554 C225 447.333 185.333 385 112 385 Z M291 -10 C223 -10 182 53.3333 182 160 C182 266.667 221.667 329 291 329 C364.333 329 404 268 404 160 C404 52 364.333 -10 291 -10 Z M294 73 C308.667 73 312 101.333 312 160 C312 218.667 308.667 247 294 247 C280.667 247 274 218 274 160 C274 102 280.667 73 294 73 Z M114 466 C128.667 466 132 495.333 132 554 C132 612.667 128.667 641 114 641 C99.3333 641 95 612.667 95 554 C95 495.333 99.3333 466 114 466 Z " />
<glyph glyph-name="ampersand" unicode="&#x26;" horiz-adv-x="437" d="M268 25 C238.667 2.33333 205.667 -10 163 -10 C60.697 -10 19 66.3636 19 174 C19 263.125 51.6192 319.345 107 380 C81.6667 436 58 497 58 569 C58 669 104.667 723 186 723 C274 723 309 664.333 309 575 C309 487 271.333 426.667 222 368 L281 238 C291.667 279.333 299 323.333 303 362 L396 362 C385.333 274 369.333 184.667 336 114 L387 0 L279 0 L268 25 Z M151 281 C132.333 251.667 122 222.667 122 184 C122 124 147.333 95 178 95 C194.667 95 210.333 103 225 119 L151 281 Z M180 465 C198.667 493 216 528.667 216 574 C216 612.667 206 632 186 632 C167.333 632 155 611.667 155 573 C155 535.667 166.667 497 180 465 Z " />
<glyph glyph-name="quotesingle" unicode="&#x27;" horiz-adv-x="437" d="M152 456 L134 714 L273 714 L255 456 L152 456 Z " />
<glyph glyph-name="parenleft" unicode="&#x28;" horiz-adv-x="437" d="M222 -173 C155.333 -57 114 86 114 266 C114 448.667 158 600.667 222 714 L337 714 C269.667 585.333 236 436.333 236 267 C236 103 272 -37 336 -173 L222 -173 Z " />
<glyph glyph-name="parenright" unicode="&#x29;" horiz-adv-x="437" d="M76 -173 C143.333 -44.3333 177 104.667 177 274 C177 438 141 578 77 714 L191 714 C257.667 598 299 455 299 275 C299 92.3333 255 -59.6667 191 -173 L76 -173 Z " />
<glyph glyph-name="asterisk" unicode="&#x2a;" horiz-adv-x="437" d="M135 536 L33 551 L59 667 L161 619 L144 762 L263 762 L247 619 L348 667 L375 552 L272 536 L350 426 L254 357 L204 486 L152 357 L57 426 L135 536 Z " />
<glyph glyph-name="plus" unicode="&#x2b;" horiz-adv-x="437" d="M38 406 L152 406 L152 593 L257 593 L257 406 L371 406 L371 300 L257 300 L257 115 L152 115 L152 300 L38 300 L38 406 Z " />
<glyph glyph-name="comma" unicode="&#x2c;" horiz-adv-x="437" d="M120 -136 C130.662 -58.6969 146.298 61.036 149 134 L275 134 L280 123 C266.667 23 247.667 -62.6667 225 -136 L120 -136 Z " />
<glyph glyph-name="hyphen" unicode="&#x2d;" horiz-adv-x="437" d="M102 333 L304 333 L304 207 L102 207 L102 333 Z " />
<glyph glyph-name="period" unicode="&#x2e;" horiz-adv-x="437" d="M205 -11 C159.667 -11 131 17.6667 131 71 C131 125.667 155.667 153 205 153 C247.667 153 276 125.667 276 71 C276 17.6667 246.333 -11 205 -11 Z " />
<glyph glyph-name="slash" unicode="&#x2f;" horiz-adv-x="437" d="M29 -7 L250 721 L362 721 L140 -7 L29 -7 Z " />
<glyph glyph-name="zero" unicode="0" horiz-adv-x="437" d="M203 -10 C75 -10 13 116 13 356 C13 605.333 74 725 202 725 C328.667 725 393 598.667 393 356 C393 144.208 353.978 -10 203 -10 Z M262 384 L157 170 C166.333 134 181.333 116 202 116 C250 116 262 190.667 262 356 L262 384 Z M248 548 C238 582 222.667 599 202 599 C159.333 599 144 517.333 144 356 L144 332 L248 548 Z " />
<glyph glyph-name="one" unicode="1" horiz-adv-x="437" d="M46 104 L150 117 L150 395 C150 440.333 151.333 508 154 552 C139.333 537.333 128 526 112 510 L78 477 L12 589 L174 714 L290 714 L290 117 L385 104 L385 0 L46 0 L46 104 Z " />
<glyph glyph-name="two" unicode="2" horiz-adv-x="437" d="M30 109 L133 291 C196.21 401.617 216 455.501 216 514 C216 564.667 206.333 595 177 595 C149.667 595 118.667 570.333 84 521 L14 618 C67.3333 692.667 120 724 192 724 C292 724 361 652 361 520 C361 434.909 333.227 361.153 264 244 L203 136 L204 131 L368 131 L368 0 L31 0 L30 109 Z " />
<glyph glyph-name="three" unicode="3" horiz-adv-x="437" d="M31 165 C71 133.667 111.333 118 152 118 C197.333 118 220 149 220 211 C220 279 196.667 305 126 305 L99 305 L99 428 L127 428 C192.333 428 218 462.667 218 524 C218 572.667 202.667 597 172 597 C145.333 597 116.333 581.333 85 550 L32 658 C74.6667 700.667 127.667 724 193 724 C301 724 361 660.333 361 547 C361 459.667 328 402.667 262 376 L262 373 C336.667 354.333 374 297.667 374 203 C374 71 300 -10 164 -10 C124 -10 83 -2.33333 31 27 L31 165 Z " />
<glyph glyph-name="four" unicode="4" horiz-adv-x="437" d="M18 262 L201 715 L329 715 L329 265 L389 265 L389 145 L329 145 L329 0 L199 0 L199 145 L18 145 L18 262 Z M199 265 L199 386 C199 414.118 202 481.451 202 524 L198 524 C191.333 492 181 459.333 173 434 L128 265 L199 265 Z " />
<glyph glyph-name="five" unicode="5" horiz-adv-x="437" d="M40 163 C77.3333 136.333 123.667 118 157 118 C197 118 217 154.667 217 228 C217 297.333 192.667 336 150 336 C134 336 115.333 330.667 94 320 L47 353 L63 714 L336 714 L336 583 L186 583 L181 452 C203.667 458.667 220 461 224 461 C305.333 461 365 377.333 365 232 C365 80 301.667 -10 167 -10 C117.667 -10 75.3333 2.33333 40 27 L40 163 Z " />
<glyph glyph-name="six" unicode="6" horiz-adv-x="437" d="M162 384 C182 437.333 210 468 250 468 C330 468 378 384 378 240 C378 86.9784 315.745 -10 209 -10 C98.3333 -10 29 101.333 29 304 C29 521.593 72.6364 724 269 724 C294.333 724 321.333 721.333 350 716 L350 593 C330 599.667 307.333 603 282 603 C198 603 161.667 529.333 159 384 L162 384 Z M206 114 C224.667 114 241 153 241 237 C241 309 229.667 348 207 348 C184.333 348 169 304 169 248 C169 177.645 185.662 114 206 114 Z " />
<glyph glyph-name="seven" unicode="7" horiz-adv-x="437" d="M67 0 L227 582 L31 582 L31 713 L374 713 L374 610 L221 0 L67 0 Z " />
<glyph glyph-name="eight" unicode="8" horiz-adv-x="437" d="M201 -10 C91.6667 -10 29 59.3333 29 186 C29 270 51 327.667 111 373 C63 421 43 477 43 549 C43 665 105 724 205 724 C305 724 364 665 364 549 C364 473 342.333 417.333 289 376 C357 320 378 265.667 378 187 C378 63 314.333 -10 201 -10 Z M203 105 C233.667 105 247 134.333 247 189 C247 237 233 265 201 305 C170.333 270.333 160 234.667 160 188 C160 137.333 172.333 105 203 105 Z M203 446 C229.667 475.333 234 501.667 234 539 C234 585.667 220.333 609 203 609 C184.333 609 174 582.667 174 540 C174 500 183 472.667 203 446 Z " />
<glyph glyph-name="nine" unicode="9" horiz-adv-x="437" d="M54 122 C76.6667 114 98.3333 111 121 111 C205 111 242 186 246 330 L241 330 C222.333 275.333 192.667 246 154 246 C72.6667 246 26 331.333 26 474 C26 628.667 88.3333 724 195 724 C304.333 724 374 611.667 374 405 C374 188.974 321.589 -10 135 -10 C108.333 -10 81.3333 -7 54 -1 L54 122 Z M196 366 C224.182 366 235 417.848 235 467 C235 548.333 215.667 600 197 600 C174.333 600 163 561 163 477 C163 405 173.333 366 196 366 Z " />
<glyph glyph-name="colon" unicode="&#x3a;" horiz-adv-x="437" >
<g transform="translate(0,400)" ><path fill="black" d="M205 -11 C159.667 -11 131 17.6667 131 71 C131 125.667 155.667 153 205 153 C247.667 153 276 125.667 276 71 C276 17.6667 246.333 -11 205 -11 Z " /></g><path fill="black" d="M205 -11 C159.667 -11 131 17.6667 131 71 C131 125.667 155.667 153 205 153 C247.667 153 276 125.667 276 71 C276 17.6667 246.333 -11 205 -11 Z " /></glyph>
<glyph glyph-name="semicolon" unicode="&#x3b;" horiz-adv-x="437" d="M122 -136 C134.389 -136 147.667 58.3398 153 133 L278 133 L284 122 C269.333 23.3333 249.667 -62.6667 227 -136 L122 -136 Z M211 389 C165.667 389 137 417.667 137 471 C137 525.667 161.667 553 211 553 C253.667 553 282 525.667 282 471 C282 417.667 252.333 389 211 389 Z " />
<glyph glyph-name="less" unicode="&#x3c;" horiz-adv-x="437" d="M25 324 L25 394 L362 597 L362 478 L173 359 L362 238 L362 120 L25 324 Z " />
<glyph glyph-name="equal" unicode="&#x3d;" horiz-adv-x="437" d="M43 297 L364 297 L364 179 L43 179 L43 297 Z M43 516 L364 516 L364 398 L43 398 L43 516 Z " />
<glyph glyph-name="greater" unicode="&#x3e;" horiz-adv-x="437" d="M35 238 L224 359 L35 478 L35 597 L372 394 L372 324 L35 120 L35 238 Z " />
<glyph glyph-name="question" unicode="&#x3f;" horiz-adv-x="437" d="M135 233 L135 269 C135 337 150.667 375 188 423 C222.667 469.667 231 493.667 231 539 C231 584.333 216.667 607 188 607 C157.333 607 126.667 590.667 92 560 L50 664 C99.3333 704 149 724 199 724 C303 724 356 659 356 551 C356 462.456 330.644 420.879 283 360 C245.217 311.422 242 294.746 242 256 L242 233 L135 233 Z M191 -11 C145.667 -11 117 17.6667 117 71 C117 125.667 141.667 153 191 153 C233.667 153 262 125.667 262 71 C262 17.6667 232.333 -11 191 -11 Z " />
<glyph glyph-name="at" unicode="&#x40;" horiz-adv-x="437" d="M322 -42 C284.667 -71.3333 244.667 -85 210 -85 C66.9697 -85 2 56.0823 2 289 C2 560.108 89.7965 714 215 714 C332.333 714 404 591 404 367 C404 218.662 373.39 106 305 106 C276.333 106 255.667 124.333 243 161 L241 161 C230.333 129 207.667 106 185 106 C131.667 106 98 178.667 98 300 C98 438.667 149.333 525 228 525 C256 525 286 515.667 310 501 L302 299 C300.667 285.667 302 266 302 258 C302 211.333 302.333 185 309 185 C323.667 185 329 257 329 361 C329 546.333 286.333 633 217 633 C141.338 633 78 510.593 78 293 C78 121.338 111.537 -6 213 -6 C242.333 -6 279.333 9 322 41 L322 -42 Z M227 442 C226.333 444.667 224.333 446 221 446 C198.333 446 180 391.333 180 298 C180 226 188.333 185 203 185 C216.333 185 219 224.333 223 339 L227 442 Z " />
<glyph glyph-name="A" unicode="A" horiz-adv-x="437" d="M104 716 L299 716 L401 0 L271 0 L253 172 L156 172 L138 0 L6 0 L104 716 Z M240 292 L222 461 C216.667 503.667 207 563.667 203 605 C199 563.667 190.333 503.667 185 461 L168 292 L240 292 Z " />
<glyph glyph-name="B" unicode="B" horiz-adv-x="437" d="M35 0 L35 714 L196 714 C313.333 714 375 660.333 375 539 C375 455 346.667 396.333 304 379 L304 374 C357.333 353.333 384 299.667 384 213 C384 78.3333 313 0 205 0 L35 0 Z M162 120 L197 120 C242.333 120 260 153 260 217 C260 281 241.667 315 195 315 L162 315 L162 120 Z M162 423 L190 423 C226 423 251 452.333 251 511 C251 568.333 226.333 595 189 595 L162 595 L162 423 Z " />
<glyph glyph-name="C" unicode="C" horiz-adv-x="437" d="M372 27 C333.333 1.66667 286.333 -10 241 -10 C98.3333 -10 23 120.667 23 346 C23 572.797 105.771 725 247 725 C312.333 725 351.333 709 394 677 L355 563 C325.667 589.667 295 600 267 600 C195.97 600 159 502.303 159 352 C159 198.667 194.667 115 264 115 C301.333 115 336 133.333 372 156 L372 27 Z " />
<glyph glyph-name="D" unicode="D" horiz-adv-x="437" d="M19 0 L19 714 L192 714 C319.974 714 397 582.364 397 370 C397 136.978 303.1 0 190 0 L19 0 Z M152 126 L174 126 C234 126 260 213.667 260 359 C260 517.667 230.667 588 180 588 L152 588 L152 126 Z " />
<glyph glyph-name="E" unicode="E" horiz-adv-x="437" d="M378 126 L378 0 L34 0 L34 714 L378 714 L378 588 L168 588 L168 427 L365 427 L365 301 L168 301 L168 126 L378 126 Z " />
<glyph glyph-name="F" unicode="F" horiz-adv-x="437" d="M34 0 L34 714 L378 714 L378 588 L168 588 L168 400 L365 400 L365 274 L168 274 L168 0 L34 0 Z " />
<glyph glyph-name="G" unicode="G" horiz-adv-x="437" d="M264 283 L223 283 L223 406 L388 406 L388 30 C340 -0.666667 293.667 -10 247 -10 C87 -10 11 116.667 11 342 C11 587.463 104.593 725 255 725 C315 725 356 706.667 388 680 L351 568 C319 593.333 296.667 601 266 601 C183.333 601 145 514 145 346 C145 214.338 172.078 115 228 115 C238.667 115 253.333 118.667 264 124 L264 283 Z " />
<glyph glyph-name="H" unicode="H" horiz-adv-x="437" d="M19 0 L19 714 L152 714 L152 431 L255 431 L255 714 L388 714 L388 0 L255 0 L255 305 L152 305 L152 0 L19 0 Z " />
<glyph glyph-name="I" unicode="I" horiz-adv-x="437" d="M40 102 L139 116 L139 598 L40 612 L40 714 L368 714 L368 612 L271 598 L271 116 L368 102 L368 0 L40 0 L40 102 Z " />
<glyph glyph-name="J" unicode="J" horiz-adv-x="437" d="M33 132 C66.3333 117.333 94.3333 113 109 113 C171.667 113 221 158 221 270 L221 714 L353 714 L353 239 C353 95 274.182 -9 126 -9 C92 -9 61 -2 33 12 L33 132 Z " />
<glyph glyph-name="K" unicode="K" horiz-adv-x="437" d="M21 0 L21 714 L149 714 L149 372 C162.333 408 181 445.333 193 488 L262 714 L403 714 L288 392 L401 0 L254 0 L187 284 L149 232 L149 0 L21 0 Z " />
<glyph glyph-name="L" unicode="L" horiz-adv-x="437" d="M378 126 L378 0 L43 0 L43 714 L178 714 L178 126 L378 126 Z " />
<glyph glyph-name="M" unicode="M" horiz-adv-x="437" d="M10 0 L10 714 L182 714 L206 288 L208 288 L227 714 L396 714 L396 0 L289 0 L291 230 C291 294.534 314 578.867 314 615 L307 615 L268 183 L143 183 L105 615 L98 615 C98 581.163 117 297.447 117 229 L120 0 L10 0 Z " />
<glyph glyph-name="N" unicode="N" horiz-adv-x="437" d="M22 0 L22 714 L199 714 L278 124 L284 124 C281.366 187.22 270 297.94 270 366 L270 714 L386 714 L386 0 L212 0 L128 597 L122 597 C126 503.667 136 426.667 136 348 L136 0 L22 0 Z " />
<glyph glyph-name="O" unicode="O" horiz-adv-x="437" d="M203 -8 C71.2597 -8 11 131.636 11 360 C11 590.277 64.381 725 202 725 C337.082 725 396 588.433 396 358 C396 130.416 335.234 -8 203 -8 Z M205 119 C253.13 119 260 212.9 260 358 C260 516.667 250.667 598 204 598 C158.667 598 147 508.333 147 359 C147 211 158.333 119 205 119 Z " />
<glyph glyph-name="P" unicode="P" horiz-adv-x="437" d="M35 0 L35 714 L203 714 C328.333 714 384 636.333 384 491 C384 352.359 332.874 254 198 254 L166 254 L166 0 L35 0 Z M166 371 L186 371 C242 371 260 406.667 260 484 C260 564 236.667 599 198 599 L166 599 L166 371 Z " />
<glyph glyph-name="Q" unicode="Q" horiz-adv-x="437" d="M211 -8 L203 -8 C71.2597 -8 11 131.636 11 360 C11 590.277 64.381 725 202 725 C337.082 725 396 588.433 396 358 C396 212.667 372 105 320 45 L396 -180 L257 -180 L211 -8 Z M205 119 C253.13 119 260 212.9 260 358 C260 516.667 250.667 598 204 598 C158.667 598 147 508.333 147 359 C147 211 158.333 119 205 119 Z " />
<glyph glyph-name="R" unicode="R" horiz-adv-x="437" d="M36 0 L36 714 L182 714 C312.667 714 378 644.333 378 505 C378 409 359.667 345.667 305 307 L401 0 L260 0 L193 271 L164 271 L164 0 L36 0 Z M164 389 L179 389 C227.667 389 252 424.667 252 496 C252 564 230.667 595 180 595 L164 595 L164 389 Z " />
<glyph glyph-name="S" unicode="S" horiz-adv-x="437" d="M37 173 C82.3333 137 125.333 114 176 114 C232.944 114 241 152.052 241 192 C241 246.748 214.374 265.12 155 311 C80.9828 366.513 31 419.932 31 528 C31 652 97.6667 724 215 724 C271 724 317.333 708 368 676 L329 558 C286.333 588.667 254 601 222 601 C179.333 601 166 570.667 166 528 C166 482.667 187.333 462.667 238 424 C333.792 352.156 376 311.824 376 199 C376 55 302.333 -10 181 -10 C131.667 -10 85 1 37 33 L37 173 Z " />
<glyph glyph-name="T" unicode="T" horiz-adv-x="437" d="M138 0 L138 588 L13 588 L13 714 L395 714 L395 588 L271 588 L271 0 L138 0 Z " />
<glyph glyph-name="U" unicode="U" horiz-adv-x="437" d="M19 714 L154 714 L154 276 C154 162.667 157.667 117 203 117 C252.749 117 253 165.922 253 278 L253 714 L388 714 L388 267 C388 79.1818 341.697 -10 204 -10 C66.6667 -10 19 77 19 265 L19 714 Z " />
<glyph glyph-name="V" unicode="V" horiz-adv-x="437" d="M205 124 C207.649 171.677 215.713 246.415 221 294 L264 714 L402 714 L283 0 L120 0 L5 714 L139 714 L186 293 C191.388 247.204 199.368 171.369 202 124 L205 124 Z " />
<glyph glyph-name="W" unicode="W" horiz-adv-x="437" d="M125 127 C130.243 184.678 139.328 292.23 142 343 L150 549 L256 549 L268 342 C273.24 279.121 281.331 182.045 284 126 L289 126 C289 230.556 293 365.778 293 425 C293 521 294.333 618 293 714 L402 714 L379 0 L224 0 L216 224 C213.311 277.772 207 352.893 207 396 L202 396 C202 352.881 196.689 277.788 194 224 L186 0 L28 0 L5 714 L112 714 C112 618 113 521.333 115 424 L121 127 L125 127 Z " />
<glyph glyph-name="X" unicode="X" horiz-adv-x="437" d="M5 0 L122 365 L9 714 L151 714 L202 474 L251 714 L393 714 L281 362 L403 0 L258 0 L200 255 L143 0 L5 0 Z " />
<glyph glyph-name="Y" unicode="Y" horiz-adv-x="437" d="M136 0 L136 276 L3 714 L149 714 L203 422 L257 714 L402 714 L265 276 L265 0 L136 0 Z " />
<glyph glyph-name="Z" unicode="Z" horiz-adv-x="437" d="M34 103 L232 588 L36 588 L36 714 L377 714 L377 612 L188 126 L377 126 L377 0 L34 0 L34 103 Z " />
<glyph glyph-name="bracketleft" unicode="&#x5b;" horiz-adv-x="437" d="M330 -63 L330 -165 L136 -165 L136 729 L330 729 L330 626 L254 626 L254 -63 L330 -63 Z " />
<glyph glyph-name="backslash" unicode="&#x5c;" horiz-adv-x="437" d="M257 -7 L35 721 L147 721 L368 -7 L257 -7 Z " />
<glyph glyph-name="bracketright" unicode="&#x5d;" horiz-adv-x="437" d="M76 -70 L152 -70 L152 619 L76 619 L76 721 L270 721 L270 -173 L76 -173 L76 -70 Z " />
<glyph glyph-name="asciicircum" unicode="&#x5e;" horiz-adv-x="437" d="M10 279 L170 714 L234 714 L396 279 L276 279 L202 544 L130 279 L10 279 Z " />
<glyph glyph-name="underscore" unicode="&#x5f;" horiz-adv-x="437" d="M2 -70 L404 -70 L404 -189 L2 -189 L2 -70 Z " />
<glyph glyph-name="grave" unicode="&#x60;" horiz-adv-x="437" d="M82 766 L223 766 C236.375 723.2 268.613 651.13 282 619 L282 606 L194 606 C166.676 638.789 103.535 719.313 82 757 L82 766 Z " />
<glyph glyph-name="a" unicode="a" horiz-adv-x="437" d="M257 74 C230.333 18 195.333 -10 152 -10 C76 -10 31 53.3333 31 160 C31 285.333 88.3333 339.333 179 342 L251 345 L251 361 C251 417 224.667 437 190 437 C155.333 437 127.667 423.333 101 402 L56 510 C101.333 540.667 149 559 209 559 C318.333 559 379 497.333 379 372 L379 0 L278 0 L259 74 L257 74 Z M251 251 L217 248 C182.333 245.333 158 222 158 174 C158 131.333 178 113 198 113 C224.667 113 251 145.333 251 212 L251 251 Z " />
<glyph glyph-name="b" unicode="b" horiz-adv-x="437" d="M26 760 L157 760 L157 573 C157 537 154 515 150 479 L156 479 C178.667 535 215.667 559 253 559 C345.494 559 392 438.126 392 277 C392 97.3377 328.874 -10 250 -10 C219.333 -10 185 11 157 59 L148 59 L134 0 L26 0 L26 760 Z M205 113 C239.667 113 253 168 253 276 C253 382.667 236.667 436 204 436 C168 436 154 381.333 154 276 C154 167.333 171 113 205 113 Z " />
<glyph glyph-name="c" unicode="c" horiz-adv-x="437" d="M367 26 C332.333 -0.666667 285.333 -10 244 -10 C128.312 -10 34 77.4416 34 273 C34 442.126 95.1818 559 243 559 C293.667 559 344.333 546.667 383 520 L342 406 C316.667 424.667 290.667 435 256 435 C196 435 173 380 173 276 C173 161.333 209 113 261 113 C293 113 332.333 125.667 367 159 L367 26 Z " />
<glyph glyph-name="d" unicode="d" horiz-adv-x="437" d="M260 74 L253 74 C231.667 18 198 -10 158 -10 C63.0476 -10 15 103.277 15 273 C15 451.667 67 559 159 559 C193.667 559 228.333 536 251 480 L258 480 C255.333 506.667 250 547 250 583 L250 760 L381 760 L381 0 L271 0 L260 74 Z M252 274 C252 391.333 239.667 436 205 436 C162.333 436 149 378.667 149 272 C149 164 163.667 113 201 113 C231.667 113 252 155.667 252 257 L252 274 Z " />
<glyph glyph-name="e" unicode="e" horiz-adv-x="437" d="M364 28 C332 5.33333 290.333 -10 225 -10 C91.6667 -10 17 89.3333 17 272 C17 445.359 85.1515 559 212 559 C314.667 559 387 475 387 303 L387 227 L154 227 C156.667 145.667 198 111 242 111 C296.667 111 334.667 127 364 151 L364 28 Z M258 326 C257.333 402 240.667 440 208 440 C172 440 154 402 154 326 L258 326 Z " />
<glyph glyph-name="f" unicode="f" horiz-adv-x="437" d="M115 0 L115 430 L21 430 L21 508 L115 549 L115 583 C115 708.333 163.667 766 269 766 C307.667 766 349.667 758.667 391 740 L353 628 C330.333 638.667 314 643 298 643 C267.333 643 249 624 249 572 L249 549 L364 549 L364 430 L249 430 L249 0 L115 0 Z " />
<glyph glyph-name="g" unicode="g" horiz-adv-x="437" d="M40 -80 C90.6667 -110.667 133.333 -122 164 -122 C217.333 -122 248 -87.6667 248 -13 L248 6 C248 28.6667 249 49.3333 249 68 L245 68 C218.333 9.33333 191.333 -10 158 -10 C66 -10 15 97.3333 15 272 C15 449.1 69.974 559 158 559 C192.667 559 218.667 537.333 248 480 L256 480 L267 549 L381 549 L381 11 C381 -155.667 317.667 -245 175 -245 C119 -245 82.6667 -231.667 40 -205 L40 -80 Z M251 274 C251 391.333 241 436 209 436 C170.333 436 158 378 158 270 C158 167.333 167.333 113 206 113 C232.667 113 251 149.333 251 256 L251 274 Z " />
<glyph glyph-name="h" unicode="h" horiz-adv-x="437" d="M26 0 L26 760 L161 760 L161 601 C161 559.667 158 517.667 150 479 L158 479 C176.667 528.333 210.333 559 257 559 C337 559 384 490 384 358 L384 0 L251 0 L251 314 C251 388.667 251.667 431 209 431 C166.333 431 161 375 161 279 L161 0 L26 0 Z " />
<glyph glyph-name="i" unicode="i" horiz-adv-x="437" >
<path fill="black" d="M29 101 L146 118 L146 430 L52 441 L52 549 L278 549 L278 118 L376 101 L376 0 L29 0 L29 101 Z " /><g transform="translate(9,0)" ><path fill="black" d="M203 614 C155 614 127 639.667 127 693 C127 745.667 152.333 772 203 772 C253 772 278 745.667 278 693 C278 642.333 253.667 614 203 614 Z " /></g></glyph>
<glyph glyph-name="j" unicode="j" horiz-adv-x="437" >
<path fill="black" d="M21 -103 C57 -115 104.333 -122 123 -122 C167 -122 177 -95.6667 177 -21 L177 429 L59 441 L59 549 L310 549 L310 -46 C310 -180.667 267 -245 143 -245 C112.333 -245 61 -237.667 21 -223 L21 -103 Z " /><g transform="translate(32,0)" ><path fill="black" d="M203 614 C155 614 127 639.667 127 693 C127 745.667 152.333 772 203 772 C253 772 278 745.667 278 693 C278 642.333 253.667 614 203 614 Z " /></g></glyph>
<glyph glyph-name="k" unicode="k" horiz-adv-x="437" d="M25 0 L25 760 L152 760 L152 442 C152 395.333 147 347.333 143 302 L145 302 C157 328.667 172 354.333 184 381 L257 549 L403 549 L266 290 L403 0 L253 0 L176 205 L152 178 L152 0 L25 0 Z " />
<glyph glyph-name="l" unicode="l" horiz-adv-x="437" d="M29 101 L139 118 L139 647 L47 657 L47 760 L271 760 L271 118 L376 101 L376 0 L29 0 L29 101 Z " />
<glyph glyph-name="m" unicode="m" horiz-adv-x="437" d="M12 0 L12 549 L101 549 L117 490 L121 490 C135.667 540.667 155.333 559 190 559 C228.667 559 240.333 529 251 481 L254 481 C268.667 529 290.667 559 328 559 C390.848 559 395 491.26 395 367 L395 0 L291 0 L291 389 C291 434.333 290 453 274 453 C255.333 453 254 421.333 254 376 L254 0 L154 0 L154 386 C154 434 153 453 137 453 C117 453 115 417.667 115 371 L115 0 L12 0 Z " />
<glyph glyph-name="n" unicode="n" horiz-adv-x="437" d="M26 0 L26 549 L137 549 L152 485 L157 485 C179.667 531.667 209.333 559 256 559 C337.333 559 384 498 384 358 L384 0 L251 0 L251 335 C251 411 238.667 441 212 441 C173.333 441 161 398.333 161 293 L161 0 L26 0 Z " />
<glyph glyph-name="o" unicode="o" horiz-adv-x="437" d="M203 -10 C63.4675 -10 15 122.411 15 277 C15 438.749 72.3333 559 203 559 C314.004 559 392 458.281 392 277 C392 126.152 351.13 -10 203 -10 Z M203 113 C239 113 253 167.667 253 277 C253 383 236.333 436 203 436 C168.333 436 154 385 154 277 C154 167.667 170.333 113 203 113 Z " />
<glyph glyph-name="p" unicode="p" horiz-adv-x="437" d="M26 -240 L26 549 L128 549 L148 475 L155 475 C175 529.667 206.333 559 257 559 C347.797 559 392 433.208 392 277 C392 97.3377 328.662 -10 253 -10 C211.667 -10 183.333 16.3333 158 59 L149 59 C151.667 39 158 -10.3333 158 -57 L158 -240 L26 -240 Z M158 275 C158 156.333 173.667 113 211 113 C244.333 113 253 168.333 253 275 C253 384.333 242.667 436 208 436 C177.333 436 158 394.667 158 292 L158 275 Z " />
<glyph glyph-name="q" unicode="q" horiz-adv-x="437" d="M250 -240 L250 -41 C250 4.33333 257.333 43.3333 260 74 L253 74 C233 18 195.333 -10 154 -10 C60.7446 -10 15 115.286 15 271 C15 452.333 79.9697 559 159 559 C189.667 559 224.333 535 251 479 L258 479 L271 549 L381 549 L381 -240 L250 -240 Z M253 274 C253 383.333 244.667 436 206 436 C170 436 157 378.333 157 273 C157 162.333 168.667 113 206 113 C240.667 113 253 155.667 253 257 L253 274 Z " />
<glyph glyph-name="r" unicode="r" horiz-adv-x="437" d="M18 101 L101 118 L101 430 L25 441 L25 549 L196 549 L208 457 L215 457 C229.667 517 265 559 325 559 C342.333 559 368.667 554.667 398 540 L364 397 C346.667 407.667 322.667 413 304 413 C253.333 413 227 360 227 276 L227 118 L329 101 L329 0 L18 0 L18 101 Z " />
<glyph glyph-name="s" unicode="s" horiz-adv-x="437" d="M46 151 C83.3333 127 142.667 110 188 110 C230.667 110 238 128.333 238 155 C238 184.005 222.046 196.53 151 236 C83 274.667 45 326.333 45 401 C45 502.333 103.667 559 221 559 C273 559 321.333 547.333 376 518 L335 408 C289.667 432 258.333 441 229 441 C194.333 441 184 424.667 184 402 C184 374 208 361.333 264 328 C346.612 277.367 373 248.178 373 163 C373 49.6667 314 -10 182 -10 C130 -10 86 0.666667 46 22 L46 151 Z " />
<glyph glyph-name="t" unicode="t" horiz-adv-x="437" d="M102 429 L5 429 L5 497 L111 549 L153 681 L237 681 L237 549 L394 549 L394 429 L236 429 L236 206 C236 131.385 272.364 116 300 116 C322.667 116 355 121.333 395 136 L395 15 C356.333 -1 300.667 -10 258 -10 C170 -10 102 48.4156 102 180 L102 429 Z " />
<glyph glyph-name="u" unicode="u" horiz-adv-x="437" d="M22 549 L157 549 L157 229 C157 149 166.333 114 201 114 C239.667 114 246 159.333 246 274 L246 549 L381 549 L381 0 L270 0 L254 70 L247 70 C225 16.6667 192 -10 148 -10 C70.6667 -10 22 51.6667 22 189 L22 549 Z " />
<glyph glyph-name="v" unicode="v" horiz-adv-x="437" d="M205 124 C207.667 161.333 212.333 196 219 240 L264 549 L406 549 L280 0 L118 0 L1 549 L139 549 L187 241 C193.667 195.667 199.333 161.333 202 124 L205 124 Z " />
<glyph glyph-name="w" unicode="w" horiz-adv-x="437" d="M44 0 L2 549 L114 549 L113 290 L113 153 L117 153 C119.667 181 120.667 226.333 126 265 L153 470 L251 470 L276 265 L287 152 L291 152 C289.667 189.333 291 245.333 291 288 L291 549 L402 549 L359 0 L224 0 L213 163 C209 212.333 205.667 267.667 203 313 L199 313 C196.333 269 191 212.667 187 162 L174 0 L44 0 Z " />
<glyph glyph-name="x" unicode="x" horiz-adv-x="437" d="M3 0 L120 280 L5 549 L154 549 L204 385 L253 549 L400 549 L287 280 L404 0 L254 0 L201 176 L148 0 L3 0 Z " />
<glyph glyph-name="y" unicode="y" horiz-adv-x="437" d="M17 -122 C28.3333 -126 40 -128 52 -128 C84.844 -128 131.565 -117.174 150 -25 L152 -1 L1 549 L148 549 L194 285 C200.667 242.333 206.333 210 209 182 L212 182 C214.667 208.667 219.333 243.667 226 285 L261 549 L408 549 L272 -47 C238.667 -189.667 175 -245 75 -245 C55.6667 -245 36.3333 -242.333 17 -237 L17 -122 Z " />
<glyph glyph-name="z" unicode="z" horiz-adv-x="437" d="M34 90 L206 430 L38 430 L38 549 L362 549 L362 446 L200 121 L374 121 L374 0 L34 0 L34 90 Z " />
<glyph glyph-name="braceleft" unicode="&#x7b;" horiz-adv-x="437" d="M150 137 C150 166.333 130 188.333 110 203 C98 211.667 84.6667 219.333 70 226 L70 329 C84.6667 335 98 342.333 110 351 C131.333 367 150 387.333 150 418 L150 558 C149.358 674.422 334.642 720.779 334 721 L334 617 C334 614.444 270 603.889 270 548 L270 405 C270 329.889 195 292.111 195 281 L195 275 C195 263.451 270 223.118 270 154 L270 9 C270 -39.3268 334 -59.1046 334 -61 L334 -165 C334.642 -164.227 149.358 -128.584 150 -1 L150 137 Z " />
<glyph glyph-name="bar" unicode="&#x7c;" horiz-adv-x="437" d="M151 -240 L151 760 L263 760 L263 -240 L151 -240 Z " />
<glyph glyph-name="braceright" unicode="&#x7d;" horiz-adv-x="437" d="M70 -61 C70 -58.4444 134 -47.8889 134 8 L134 151 C134 226.111 209 263.889 209 275 L209 281 C209 293.673 134 332.229 134 402 L134 547 C134 595.327 70 615.105 70 617 L70 721 C69.3577 720.227 254.642 684.584 254 557 L254 419 C254 389.667 274 367.667 294 353 C306 344.333 319.333 336.667 334 330 L334 227 C319.333 221 306 213.667 294 205 C272.667 189 254 168.667 254 138 L254 -2 C254.642 -118.422 69.3577 -164.779 70 -165 L70 -61 Z " />
<glyph glyph-name="asciitilde" unicode="&#x7e;" horiz-adv-x="437" d="M375 323 C350.333 288.333 320.333 271 285 271 C253 271 221 281 189 301 C159.667 319.667 132.333 328 111 328 C85.6667 328 59.3333 308.333 32 269 L32 383 C56.6667 417.667 86.3333 435 121 435 C153 435 183 422.667 215 404 C247 386 274 377 296 377 C318.667 377 349.667 398.667 375 436 L375 323 Z " />
<glyph glyph-name="uni00A0" unicode="&#xa0;" horiz-adv-x="437" />
<glyph glyph-name="exclamdown" unicode="&#xa1;" horiz-adv-x="437" d="M147 296 L255 296 L276 -185 L128 -185 L147 296 Z M200 376 C157.333 376 129 403.333 129 458 C129 511.333 158.667 540 200 540 C245.333 540 274 511.333 274 458 C274 403.333 249.333 376 200 376 Z " />
<glyph glyph-name="cent" unicode="&#xa2;" horiz-adv-x="437" d="M203 -10 L203 85 C100.333 97 56 199.333 56 362 C56 520.667 102.667 628 204 644 L204 724 L273 724 L273 646 C302.333 643.333 337.667 630.667 363 612 L330 507 C306 525.667 278 536 258 536 C206 536 179 486 179 362 C179 240.667 201.333 193 256 193 C286.667 193 322.333 207.333 353 234 L353 122 C330.333 103.333 299.667 89.3333 273 84 L273 -10 L203 -10 Z " />
<glyph glyph-name="sterling" unicode="&#xa3;" horiz-adv-x="437" d="M375 119 L375 0 L53 0 L53 113 C85 141 99 170 99 238 L99 315 L50 315 L50 414 L99 414 L99 521 C99 654.333 159 724 263 724 C305 724 345 710.333 383 683 L349 576 C321 595.333 296.333 605 275 605 C253.667 605 227 580 227 508 L227 414 L325 414 L325 315 L227 315 L227 239 C227 184.333 211.667 145.667 177 119 L375 119 Z " />
<glyph glyph-name="currency" unicode="&#xa4;" horiz-adv-x="437" d="M19 186 L69 249 C53.6667 281 46 315.667 46 353 C46 390.333 54.3333 422.667 69 456 L18 521 L76 581 L124 517 C148.667 537.667 175 548 203 548 C230.333 548 256.333 537.667 281 517 L330 581 L389 523 L339 457 C352.333 426.333 360 391.667 360 353 C360 314.333 352.333 278.667 339 248 L387 185 L330 125 L281 188 C255.667 168.667 229.667 159 203 159 C173 159 146.333 168.667 123 188 L76 126 L19 186 Z M203 244 C249.667 244 279 290.333 279 357 C279 419.667 249.667 463 203 463 C156.333 463 128 418 128 354 C128 290 156.333 244 203 244 Z " />
<glyph glyph-name="yen" unicode="&#xa5;" horiz-adv-x="437" d="M47 199 L139 199 L139 268 L47 268 L47 354 L116 354 L16 714 L152 714 L203 434 L253 714 L390 714 L288 354 L361 354 L361 268 L268 268 L268 199 L361 199 L361 114 L268 114 L268 0 L139 0 L139 114 L47 114 L47 199 Z " />
<glyph glyph-name="brokenbar" unicode="&#xa6;" horiz-adv-x="437" d="M151 -234 L151 162 L263 162 L263 -234 L151 -234 Z M151 365 L151 761 L263 761 L263 365 L151 365 Z " />
<glyph glyph-name="section" unicode="&#xa7;" horiz-adv-x="437" d="M55 129 C88.3333 102.333 132.667 80 174 80 C203.333 80 229 99.3333 229 142 C229 178 213.333 195 172 223 C102.391 271.191 59 304.746 59 384 C59 440 75.3333 476.333 122 507 C91.3333 539 77 581.333 77 628 C77 714.667 142 766 230 766 C272.667 766 308.333 754.333 351 729 L319 640 C284.333 664 257.333 677 228 677 C200 677 183 658.667 183 628 C183 589.333 212 566.333 240 549 C310.268 503.056 351 472.135 351 389 C351 331.667 331.667 291 293 259 C321 228.333 335 190 335 144 C335 49.3333 272 -9 172 -9 C125.333 -9 88.3333 3.66667 55 29 L55 129 Z M231 302 C248.333 316.667 253 338.667 253 368 C253 406.667 239 432.333 183 467 C163 456.333 157 433.333 157 404 C157 366.667 174.333 345.667 209 319 L231 302 Z " />
<glyph glyph-name="dieresis" unicode="&#xa8;" horiz-adv-x="437" d="M126 617 C92.6667 617 70 641 70 685 C70 729 92.6667 752 126 752 C159.333 752 182 727.667 182 685 C182 642.333 159.333 617 126 617 Z M280 617 C246.667 617 224 641 224 685 C224 729 246.667 752 280 752 C313.333 752 336 727.667 336 685 C336 642.333 313.333 617 280 617 Z " />
<glyph glyph-name="copyright" unicode="&#xa9;" horiz-adv-x="437" d="M204 126 C89.2294 126 12 225.126 12 360 C12 503.87 99.1342 593 204 593 C310.797 593 395 498.745 395 360 C395 215.844 307.818 126 204 126 Z M204 182 C282.667 182 338 252 338 360 C338 470.277 277.589 537 203 537 C123 537 68 468 68 360 C68 246.251 130.303 182 204 182 Z M269 234 C249 222 227.667 216 205 216 C135.667 216 98 268 98 360 C98 448 135.667 502 201 502 C228.333 502 254.333 495 279 481 L256 424 C240 434.667 222 439 206 439 C182 439 164 411 164 359 C164 305 178.667 278 208 278 C228.667 278 249 284.333 269 297 L269 234 Z " />
<glyph glyph-name="ordfeminine" unicode="&#xaa;" horiz-adv-x="437" d="M243 426 C228.333 391.333 207 366 167 366 C116.333 366 89 408 89 472 C89 558.89 146.993 585.381 202 588 L234 590 L234 601 C232.667 633 224.333 648 199 648 C176.333 648 153 637.667 129 623 L103 689 C137.667 711.667 173 723 209 723 C283.667 723 321 677 321 593 L321 372 L259 372 L243 426 Z M234 532 L209 529 C186.333 526.333 177 511.667 177 481 C177 454.333 184 441 198 441 C220.667 441 234 471 234 515 L234 532 Z " />
<glyph glyph-name="guillemotleft" unicode="&#xab;" horiz-adv-x="437" >
<g transform="translate(-93,-11)" ><path fill="black" d="M96 267 L96 281 L219 499 L310 450 L231 274 L309 100 L219 50 L96 267 Z " /></g><g transform="translate(95,-11)" ><path fill="black" d="M96 267 L96 281 L219 499 L310 450 L231 274 L309 100 L219 50 L96 267 Z " /></g></glyph>
<glyph glyph-name="logicalnot" unicode="&#xac;" horiz-adv-x="437" d="M41 406 L371 406 L371 118 L267 118 L267 300 L41 300 L41 406 Z " />
<glyph glyph-name="uni00AD" unicode="&#xad;" horiz-adv-x="437" >
<g transform="translate(2,0)" ><path fill="black" d="M102 333 L304 333 L304 207 L102 207 L102 333 Z " /></g></glyph>
<glyph glyph-name="registered" unicode="&#xae;" horiz-adv-x="437" d="M203 126 C91.1039 126 15 224.619 15 359 C15 503 101.723 591 204 591 C310.641 591 393 498.13 393 358 C393 214 308.126 126 203 126 Z M204 182 C282.667 182 337 251 337 359 C337 468.229 276.589 535 202 535 C124.667 535 71 466 71 358 C71 246.97 130.952 182 204 182 Z M126 232 L126 490 L193 490 C251.667 490 276 463.333 276 410 C276 375.333 266.667 350.667 244 336 L292 232 L231 232 L196 324 L182 324 L182 232 L126 232 Z M183 372 L190 372 C208.667 372 220 381.333 220 408 C220 430.667 211.667 440 189 440 L183 440 L183 372 Z " />
<glyph glyph-name="macron" unicode="&#xaf;" horiz-adv-x="437" d="M79 730 L310 730 L310 638 L79 638 L79 730 Z " />
<glyph glyph-name="degree" unicode="&#xb0;" horiz-adv-x="437" d="M202 432 C134 432 82 487.333 82 578 C82 668.667 135 724 203 724 C269.641 724 324 666.723 324 577 C324 487.433 267.749 432 202 432 Z M203 508 C229.667 508 250 535.333 250 578 C250 620.667 228.333 647 203 647 C175 647 156 620.667 156 578 C156 534 176.333 508 203 508 Z " />
<glyph glyph-name="plusminus" unicode="&#xb1;" horiz-adv-x="437" d="M38 449 L152 449 L152 636 L257 636 L257 449 L371 449 L371 343 L257 343 L257 158 L152 158 L152 343 L38 343 L38 449 Z M38 106 L372 106 L372 0 L38 0 L38 106 Z " />
<glyph glyph-name="twosuperior" unicode="&#xb2;" horiz-adv-x="437" d="M96 499 L166 599 C210 661.667 224 692.333 224 727 C224 753.667 213 771 193 771 C171.667 771 154.333 758.667 133 728 L91 793 C108.333 823.667 149.333 854 208 854 C276 854 318 808 318 736 C318 665.667 265.912 623.756 207 522 L198 499 L327 499 L327 415 L96 415 L96 499 Z " />
<glyph glyph-name="threesuperior" unicode="&#xb3;" horiz-adv-x="437" d="M98 530 C124.667 506 156.333 494 191 494 C227 494 237 512.667 237 542 C237 577.333 219.667 595 185 595 L149 595 L149 671 L178 671 C212.667 671 230 688.667 230 724 C230 753.333 220.667 770 194 770 C172.667 770 154.667 760.667 132 734 L92 798 C126 834.667 164.333 853 207 853 C271 853 317 813.333 317 744 C317 697.333 298.333 661 257 641 L257 637 C298.333 622.333 326 590.667 326 532 C326 452 272 407 196 407 C159.333 407 126.667 417.333 98 438 L98 530 Z " />
<glyph glyph-name="acute" unicode="&#xb4;" horiz-adv-x="437" d="M118 606 L118 619 C143.333 672.333 161.333 720.667 176 766 L317 766 L317 757 C298.177 719.353 242.156 647.321 206 606 L118 606 Z " />
<glyph glyph-name="mu" unicode="&#xb5;" horiz-adv-x="437" d="M22 227 L24 227 L24 549 L159 549 L159 229 C159 149 168.333 114 203 114 C241.667 114 248 159.333 248 274 L248 549 L383 549 L383 0 L272 0 L256 70 L249 70 C227.667 17.3333 195.667 -9.33333 153 -10 L153 -240 L22 -240 L22 227 Z " />
<glyph glyph-name="paragraph" unicode="&#xb6;" horiz-adv-x="437" d="M186 -127 L186 275 C176 269 164 266 150 266 C70 266 33 344.667 33 510 C33 676.667 71 760 163 760 L362 760 L362 -127 L294 -127 L294 691 L253 691 L253 -127 L186 -127 Z " />
<glyph glyph-name="periodcentered" unicode="&#xb7;" horiz-adv-x="437" >
<g transform="translate(2,267)" ><path fill="black" d="M205 -11 C159.667 -11 131 17.6667 131 71 C131 125.667 155.667 153 205 153 C247.667 153 276 125.667 276 71 C276 17.6667 246.333 -11 205 -11 Z " /></g></glyph>
<glyph glyph-name="cedilla" unicode="&#xb8;" horiz-adv-x="437" d="M120 -158 C135.333 -162 148.333 -164 159 -164 C181.667 -164 192 -150.667 192 -128 C192 -98.6667 170.667 -84.6667 140 -82 L166 0 L231 0 L220 -40 C264.667 -50.6667 287 -82 287 -134 C287 -199.333 252 -240 180 -240 C161.333 -240 137.333 -237.333 120 -232 L120 -158 Z " />
<glyph glyph-name="onesuperior" unicode="&#xb9;" horiz-adv-x="437" d="M104 484 L182 491 L182 626 C182 660.667 181.333 706.667 184 744 C174.667 733.333 159 720.667 151 714 L122 684 L78 752 L195 843 L270 843 L270 491 L342 485 L342 415 L104 415 L104 484 Z " />
<glyph glyph-name="ordmasculine" unicode="&#xba;" horiz-adv-x="437" d="M206 366 C127.333 366 81 436 81 544 C81 657.333 129 722 205 722 C278.333 722 327 658.667 327 544 C327 433.333 282 366 206 366 Z M206 445 C228.667 445 238 476 238 544 C238 610.667 227 644 205 644 C182.333 644 171 613.333 171 544 C171 476 183.333 445 206 445 Z " />
<glyph glyph-name="guillemotright" unicode="&#xbb;" horiz-adv-x="437" >
<g transform="translate(58,-20)" ><path fill="black" d="M210 286 L132 460 L222 510 L345 293 L345 279 L222 61 L131 110 L210 286 Z " /></g><g transform="translate(-129,-20)" ><path fill="black" d="M210 286 L132 460 L222 510 L345 293 L345 279 L222 61 L131 110 L210 286 Z " /></g></glyph>
<glyph glyph-name="onequarter" unicode="&#xbc;" horiz-adv-x="437" >
<g transform="translate(-4,-576)" ><path fill="black" d="M74 566 L191 844 L298 844 L298 571 L339 571 L339 493 L298 493 L298 415 L207 415 L207 493 L74 493 L74 566 Z M207 571 L207 668 C207 694.667 207.333 713.333 210 740 C200.667 716 188.667 693.667 182 675 L149 571 L207 571 Z " /></g><g transform="translate(-6,50)" ><path fill="black" d="M104 484 L182 491 L182 626 C182 660.667 181.333 706.667 184 744 C174.667 733.333 159 720.667 151 714 L122 684 L78 752 L195 843 L270 843 L270 491 L342 485 L342 415 L104 415 L104 484 Z " /></g><path fill="black" d="M14 377 L386 429 L386 360 L14 308 L14 377 Z " /></glyph>
<glyph glyph-name="onehalf" unicode="&#xbd;" horiz-adv-x="437" >
<g transform="translate(-6,50)" ><path fill="black" d="M104 484 L182 491 L182 626 C182 660.667 181.333 706.667 184 744 C174.667 733.333 159 720.667 151 714 L122 684 L78 752 L195 843 L270 843 L270 491 L342 485 L342 415 L104 415 L104 484 Z " /></g><g transform="translate(-5,-576)" ><path fill="black" d="M96 499 L166 599 C210 661.667 224 692.333 224 727 C224 753.667 213 771 193 771 C171.667 771 154.333 758.667 133 728 L91 793 C108.333 823.667 149.333 854 208 854 C276 854 318 808 318 736 C318 665.667 265.912 623.756 207 522 L198 499 L327 499 L327 415 L96 415 L96 499 Z " /></g><path fill="black" d="M14 377 L386 429 L386 360 L14 308 L14 377 Z " /></glyph>
<glyph glyph-name="threequarters" unicode="&#xbe;" horiz-adv-x="437" >
<g transform="translate(-4,-576)" ><path fill="black" d="M74 566 L191 844 L298 844 L298 571 L339 571 L339 493 L298 493 L298 415 L207 415 L207 493 L74 493 L74 566 Z M207 571 L207 668 C207 694.667 207.333 713.333 210 740 C200.667 716 188.667 693.667 182 675 L149 571 L207 571 Z " /></g><g transform="translate(-6,50)" ><path fill="black" d="M98 530 C124.667 506 156.333 494 191 494 C227 494 237 512.667 237 542 C237 577.333 219.667 595 185 595 L149 595 L149 671 L178 671 C212.667 671 230 688.667 230 724 C230 753.333 220.667 770 194 770 C172.667 770 154.667 760.667 132 734 L92 798 C126 834.667 164.333 853 207 853 C271 853 317 813.333 317 744 C317 697.333 298.333 661 257 641 L257 637 C298.333 622.333 326 590.667 326 532 C326 452 272 407 196 407 C159.333 407 126.667 417.333 98 438 L98 530 Z " /></g><path fill="black" d="M14 377 L386 429 L386 360 L14 308 L14 377 Z " /></glyph>
<glyph glyph-name="questiondown" unicode="&#xbf;" horiz-adv-x="437" d="M359 -135 C310.333 -175 260.667 -195 210 -195 C106 -195 53 -130 53 -22 C53 65.174 77.8743 110.18 126 169 C163.783 217.578 167 234.254 167 273 L167 296 L274 296 L274 260 C274 192 259.667 154 221 106 C187.667 60.6667 178 35.3333 178 -10 C178 -55.3333 192.333 -78 221 -78 C251.667 -78 282.333 -61.6667 317 -31 L359 -135 Z M219 376 C176.333 376 148 403.333 148 458 C148 511.333 177.667 540 219 540 C264.333 540 293 511.333 293 458 C293 403.333 268.333 376 219 376 Z " />
<glyph glyph-name="Agrave" unicode="&#xc0;" horiz-adv-x="437" >
<path fill="black" d="M104 716 L299 716 L401 0 L271 0 L253 172 L156 172 L138 0 L6 0 L104 716 Z M240 292 L222 461 C216.667 503.667 207 563.667 203 605 C199 563.667 190.333 503.667 185 461 L168 292 L240 292 Z " /><g transform="translate(-9,165)" ><path fill="black" d="M82 766 L223 766 C236.375 723.2 268.613 651.13 282 619 L282 606 L194 606 C166.676 638.789 103.535 719.313 82 757 L82 766 Z " /></g></glyph>
<glyph glyph-name="Aacute" unicode="&#xc1;" horiz-adv-x="437" d="M104 716 L299 716 L401 0 L271 0 L253 172 L156 172 L138 0 L6 0 L104 716 Z M142 784 C167.333 837.333 185.333 885.667 200 931 L341 931 L341 922 C322.177 884.353 266.156 812.321 230 771 L142 771 L142 784 Z M240 292 L222 461 C216.667 503.667 207 563.667 203 605 C199 563.667 190.333 503.667 185 461 L168 292 L240 292 Z " />
<glyph glyph-name="Acircumflex" unicode="&#xc2;" horiz-adv-x="437" d="M104 716 L299 716 L401 0 L271 0 L253 172 L156 172 L138 0 L6 0 L104 716 Z M68 784 C92.4793 824.799 129.672 893.683 143 931 L264 931 C281.333 887 306 833.333 338 784 L338 771 L261 771 C243.667 792.333 225.667 818.333 203 853 C179 818.333 161.667 789.667 147 771 L68 771 L68 784 Z M240 292 L222 461 C216.667 503.667 207 563.667 203 605 C199 563.667 190.333 503.667 185 461 L168 292 L240 292 Z " />
<glyph glyph-name="Atilde" unicode="&#xc3;" horiz-adv-x="437" >
<path fill="black" d="M104 716 L299 716 L401 0 L271 0 L253 172 L156 172 L138 0 L6 0 L104 716 Z M240 292 L222 461 C216.667 503.667 207 563.667 203 605 C199 563.667 190.333 503.667 185 461 L168 292 L240 292 Z " /><g transform="translate(-1,165)" ><path fill="black" d="M68 611 C68 673.225 79.5325 758 140 758 C184.118 758 215.451 707 250 707 C264.667 707 267.667 723 273 759 L338 759 C335.333 659 307.667 612 265 612 C219.333 612 183 663 156 663 C144 663 136.667 645.667 134 611 L68 611 Z " /></g></glyph>
<glyph glyph-name="Adieresis" unicode="&#xc4;" horiz-adv-x="437" >
<g transform="translate(0,151)" ><path fill="black" d="M126 617 C92.6667 617 70 641 70 685 C70 729 92.6667 752 126 752 C159.333 752 182 727.667 182 685 C182 642.333 159.333 617 126 617 Z M280 617 C246.667 617 224 641 224 685 C224 729 246.667 752 280 752 C313.333 752 336 727.667 336 685 C336 642.333 313.333 617 280 617 Z " /></g><path fill="black" d="M104 716 L299 716 L401 0 L271 0 L253 172 L156 172 L138 0 L6 0 L104 716 Z M240 292 L222 461 C216.667 503.667 207 563.667 203 605 C199 563.667 190.333 503.667 185 461 L168 292 L240 292 Z " /></glyph>
<glyph glyph-name="Aring" unicode="&#xc5;" horiz-adv-x="437" d="M104 716 L299 716 L401 0 L271 0 L253 172 L156 172 L138 0 L6 0 L104 716 Z M204 763 C136 763 95 812.667 95 886 C95 958 136 1007 204 1007 C268 1007 310 956.667 310 886 C310 814 269.333 763 204 763 Z M240 292 L222 461 C216.667 503.667 207 563.667 203 605 C199 563.667 190.333 503.667 185 461 L168 292 L240 292 Z M203 836 C224.333 836 240 855.333 240 886 C240 915.333 225.667 935 203 935 C181.667 935 166 916.667 166 886 C166 855.333 180.333 836 203 836 Z " />
<glyph glyph-name="AE" unicode="&#xc6;" horiz-adv-x="437" d="M103 714 L393 714 L393 588 L316 588 L316 433 L377 433 L377 307 L316 307 L316 126 L393 126 L393 0 L206 0 L206 168 L145 168 L126 0 L6 0 L103 714 Z M206 292 L206 595 L192 595 L158 292 L206 292 Z " />
<glyph glyph-name="Ccedilla" unicode="&#xc7;" horiz-adv-x="437" d="M172 -158 C187.333 -162 200.333 -164 211 -164 C233.667 -164 244 -150.667 244 -128 C244 -98.6667 222.667 -84.6667 192 -82 L215 -9 C88.3333 7 23 134 23 346 C23 572.797 105.771 725 247 725 C312.333 725 351.333 709 394 677 L355 563 C325.667 589.667 295 600 267 600 C195.97 600 159 502.303 159 352 C159 198.667 194.667 115 264 115 C301.333 115 336 133.333 372 156 L372 27 C345.333 8.33333 313 -1.66667 281 -7 L272 -40 C316.667 -50.6667 339 -82 339 -134 C339 -199.333 304 -240 232 -240 C213.333 -240 189.333 -237.333 172 -232 L172 -158 Z " />
<glyph glyph-name="Egrave" unicode="&#xc8;" horiz-adv-x="437" >
<path fill="black" d="M378 126 L378 0 L34 0 L34 714 L378 714 L378 588 L168 588 L168 427 L365 427 L365 301 L168 301 L168 126 L378 126 Z " /><g transform="translate(-5,165)" ><path fill="black" d="M82 766 L223 766 C236.375 723.2 268.613 651.13 282 619 L282 606 L194 606 C166.676 638.789 103.535 719.313 82 757 L82 766 Z " /></g></glyph>
<glyph glyph-name="Eacute" unicode="&#xc9;" horiz-adv-x="437" >
<path fill="black" d="M378 126 L378 0 L34 0 L34 714 L378 714 L378 588 L168 588 L168 427 L365 427 L365 301 L168 301 L168 126 L378 126 Z " /><g transform="translate(28,165)" ><path fill="black" d="M118 606 L118 619 C143.333 672.333 161.333 720.667 176 766 L317 766 L317 757 C298.177 719.353 242.156 647.321 206 606 L118 606 Z " /></g></glyph>
<glyph glyph-name="Ecircumflex" unicode="&#xca;" horiz-adv-x="437" >
<path fill="black" d="M378 126 L378 0 L34 0 L34 714 L378 714 L378 588 L168 588 L168 427 L365 427 L365 301 L168 301 L168 126 L378 126 Z " /><g transform="translate(4,165)" ><path fill="black" d="M68 606 L68 619 C92.4793 659.799 129.672 728.683 143 766 L264 766 C281.333 722 306 668.333 338 619 L338 606 L261 606 C243.667 627.333 225.667 653.333 203 688 C179 653.333 161.667 624.667 147 606 L68 606 Z " /></g></glyph>
<glyph glyph-name="Edieresis" unicode="&#xcb;" horiz-adv-x="437" >
<g transform="translate(4,151)" ><path fill="black" d="M126 617 C92.6667 617 70 641 70 685 C70 729 92.6667 752 126 752 C159.333 752 182 727.667 182 685 C182 642.333 159.333 617 126 617 Z M280 617 C246.667 617 224 641 224 685 C224 729 246.667 752 280 752 C313.333 752 336 727.667 336 685 C336 642.333 313.333 617 280 617 Z " /></g><path fill="black" d="M378 126 L378 0 L34 0 L34 714 L378 714 L378 588 L168 588 L168 427 L365 427 L365 301 L168 301 L168 126 L378 126 Z " /></glyph>
<glyph glyph-name="Igrave" unicode="&#xcc;" horiz-adv-x="437" >
<path fill="black" d="M40 102 L139 116 L139 598 L40 612 L40 714 L368 714 L368 612 L271 598 L271 116 L368 102 L368 0 L40 0 L40 102 Z " /><g transform="translate(-9,165)" ><path fill="black" d="M82 766 L223 766 C236.375 723.2 268.613 651.13 282 619 L282 606 L194 606 C166.676 638.789 103.535 719.313 82 757 L82 766 Z " /></g></glyph>
<glyph glyph-name="Iacute" unicode="&#xcd;" horiz-adv-x="437" >
<path fill="black" d="M40 102 L139 116 L139 598 L40 612 L40 714 L368 714 L368 612 L271 598 L271 116 L368 102 L368 0 L40 0 L40 102 Z " /><g transform="translate(24,165)" ><path fill="black" d="M118 606 L118 619 C143.333 672.333 161.333 720.667 176 766 L317 766 L317 757 C298.177 719.353 242.156 647.321 206 606 L118 606 Z " /></g></glyph>
<glyph glyph-name="Icircumflex" unicode="&#xce;" horiz-adv-x="437" >
<path fill="black" d="M40 102 L139 116 L139 598 L40 612 L40 714 L368 714 L368 612 L271 598 L271 116 L368 102 L368 0 L40 0 L40 102 Z " /><g transform="translate(0,165)" ><path fill="black" d="M68 606 L68 619 C92.4793 659.799 129.672 728.683 143 766 L264 766 C281.333 722 306 668.333 338 619 L338 606 L261 606 C243.667 627.333 225.667 653.333 203 688 C179 653.333 161.667 624.667 147 606 L68 606 Z " /></g></glyph>
<glyph glyph-name="Idieresis" unicode="&#xcf;" horiz-adv-x="437" >
<g transform="translate(0,151)" ><path fill="black" d="M126 617 C92.6667 617 70 641 70 685 C70 729 92.6667 752 126 752 C159.333 752 182 727.667 182 685 C182 642.333 159.333 617 126 617 Z M280 617 C246.667 617 224 641 224 685 C224 729 246.667 752 280 752 C313.333 752 336 727.667 336 685 C336 642.333 313.333 617 280 617 Z " /></g><path fill="black" d="M40 102 L139 116 L139 598 L40 612 L40 714 L368 714 L368 612 L271 598 L271 116 L368 102 L368 0 L40 0 L40 102 Z " /></glyph>
<glyph glyph-name="Eth" unicode="&#xd0;" horiz-adv-x="437" d="M29 309 L2 309 L2 413 L29 413 L29 714 L202 714 C329.974 714 407 582.364 407 370 C407 136.978 313.1 0 200 0 L29 0 L29 309 Z M184 126 C244 126 270 213.667 270 359 C270 517.667 240.667 588 190 588 L162 588 L162 413 L210 413 L210 309 L162 309 L162 126 L184 126 Z " />
<glyph glyph-name="Ntilde" unicode="&#xd1;" horiz-adv-x="437" >
<path fill="black" d="M22 0 L22 714 L199 714 L278 124 L284 124 C281.366 187.22 270 297.94 270 366 L270 714 L386 714 L386 0 L212 0 L128 597 L122 597 C126 503.667 136 426.667 136 348 L136 0 L22 0 Z " /><g transform="translate(4,165)" ><path fill="black" d="M68 611 C68 673.225 79.5325 758 140 758 C184.118 758 215.451 707 250 707 C264.667 707 267.667 723 273 759 L338 759 C335.333 659 307.667 612 265 612 C219.333 612 183 663 156 663 C144 663 136.667 645.667 134 611 L68 611 Z " /></g></glyph>
<glyph glyph-name="Ograve" unicode="&#xd2;" horiz-adv-x="437" >
<path fill="black" d="M203 -8 C71.2597 -8 11 131.636 11 360 C11 590.277 64.381 725 202 725 C337.082 725 396 588.433 396 358 C396 130.416 335.234 -8 203 -8 Z M205 119 C253.13 119 260 212.9 260 358 C260 516.667 250.667 598 204 598 C158.667 598 147 508.333 147 359 C147 211 158.333 119 205 119 Z " /><g transform="translate(-9,165)" ><path fill="black" d="M82 766 L223 766 C236.375 723.2 268.613 651.13 282 619 L282 606 L194 606 C166.676 638.789 103.535 719.313 82 757 L82 766 Z " /></g></glyph>
<glyph glyph-name="Oacute" unicode="&#xd3;" horiz-adv-x="437" >
<path fill="black" d="M203 -8 C71.2597 -8 11 131.636 11 360 C11 590.277 64.381 725 202 725 C337.082 725 396 588.433 396 358 C396 130.416 335.234 -8 203 -8 Z M205 119 C253.13 119 260 212.9 260 358 C260 516.667 250.667 598 204 598 C158.667 598 147 508.333 147 359 C147 211 158.333 119 205 119 Z " /><g transform="translate(24,165)" ><path fill="black" d="M118 606 L118 619 C143.333 672.333 161.333 720.667 176 766 L317 766 L317 757 C298.177 719.353 242.156 647.321 206 606 L118 606 Z " /></g></glyph>
<glyph glyph-name="Ocircumflex" unicode="&#xd4;" horiz-adv-x="437" >
<path fill="black" d="M203 -8 C71.2597 -8 11 131.636 11 360 C11 590.277 64.381 725 202 725 C337.082 725 396 588.433 396 358 C396 130.416 335.234 -8 203 -8 Z M205 119 C253.13 119 260 212.9 260 358 C260 516.667 250.667 598 204 598 C158.667 598 147 508.333 147 359 C147 211 158.333 119 205 119 Z " /><g transform="translate(0,165)" ><path fill="black" d="M68 606 L68 619 C92.4793 659.799 129.672 728.683 143 766 L264 766 C281.333 722 306 668.333 338 619 L338 606 L261 606 C243.667 627.333 225.667 653.333 203 688 C179 653.333 161.667 624.667 147 606 L68 606 Z " /></g></glyph>
<glyph glyph-name="Otilde" unicode="&#xd5;" horiz-adv-x="437" >
<path fill="black" d="M203 -8 C71.2597 -8 11 131.636 11 360 C11 590.277 64.381 725 202 725 C337.082 725 396 588.433 396 358 C396 130.416 335.234 -8 203 -8 Z M205 119 C253.13 119 260 212.9 260 358 C260 516.667 250.667 598 204 598 C158.667 598 147 508.333 147 359 C147 211 158.333 119 205 119 Z " /><g transform="translate(-1,165)" ><path fill="black" d="M68 611 C68 673.225 79.5325 758 140 758 C184.118 758 215.451 707 250 707 C264.667 707 267.667 723 273 759 L338 759 C335.333 659 307.667 612 265 612 C219.333 612 183 663 156 663 C144 663 136.667 645.667 134 611 L68 611 Z " /></g></glyph>
<glyph glyph-name="Odieresis" unicode="&#xd6;" horiz-adv-x="437" >
<g transform="translate(0,151)" ><path fill="black" d="M126 617 C92.6667 617 70 641 70 685 C70 729 92.6667 752 126 752 C159.333 752 182 727.667 182 685 C182 642.333 159.333 617 126 617 Z M280 617 C246.667 617 224 641 224 685 C224 729 246.667 752 280 752 C313.333 752 336 727.667 336 685 C336 642.333 313.333 617 280 617 Z " /></g><path fill="black" d="M203 -8 C71.2597 -8 11 131.636 11 360 C11 590.277 64.381 725 202 725 C337.082 725 396 588.433 396 358 C396 130.416 335.234 -8 203 -8 Z M205 119 C253.13 119 260 212.9 260 358 C260 516.667 250.667 598 204 598 C158.667 598 147 508.333 147 359 C147 211 158.333 119 205 119 Z " /></glyph>
<glyph glyph-name="multiply" unicode="&#xd7;" horiz-adv-x="437" d="M38 226 L132 353 L38 480 L107 555 L203 428 L300 555 L372 483 L275 353 L370 224 L299 152 L203 279 L106 151 L38 226 Z " />
<glyph glyph-name="Oslash" unicode="&#xd8;" horiz-adv-x="437" d="M61 88 C27.6667 152 13 242.667 13 360 C13 590.277 66.381 725 204 725 C242.667 725 275.333 714 302 692 L329 759 L394 725 L354 624 C384.667 560 398 471.333 398 358 C398 130.416 337.234 -8 205 -8 C169 -8 138.333 2 113 22 L86 -44 L21 -11 L61 88 Z M149 310 L247 554 C239 583.333 225.333 598 206 598 C160.667 598 149 508.333 149 359 L149 310 Z M262 395 L167 158 C176.333 132 189.667 119 207 119 C255.13 119 262 212.9 262 358 L262 395 Z " />
<glyph glyph-name="Ugrave" unicode="&#xd9;" horiz-adv-x="437" >
<path fill="black" d="M19 714 L154 714 L154 276 C154 162.667 157.667 117 203 117 C252.749 117 253 165.922 253 278 L253 714 L388 714 L388 267 C388 79.1818 341.697 -10 204 -10 C66.6667 -10 19 77 19 265 L19 714 Z " /><g transform="translate(-8,165)" ><path fill="black" d="M82 766 L223 766 C236.375 723.2 268.613 651.13 282 619 L282 606 L194 606 C166.676 638.789 103.535 719.313 82 757 L82 766 Z " /></g></glyph>
<glyph glyph-name="Uacute" unicode="&#xda;" horiz-adv-x="437" >
<path fill="black" d="M19 714 L154 714 L154 276 C154 162.667 157.667 117 203 117 C252.749 117 253 165.922 253 278 L253 714 L388 714 L388 267 C388 79.1818 341.697 -10 204 -10 C66.6667 -10 19 77 19 265 L19 714 Z " /><g transform="translate(25,165)" ><path fill="black" d="M118 606 L118 619 C143.333 672.333 161.333 720.667 176 766 L317 766 L317 757 C298.177 719.353 242.156 647.321 206 606 L118 606 Z " /></g></glyph>
<glyph glyph-name="Ucircumflex" unicode="&#xdb;" horiz-adv-x="437" >
<path fill="black" d="M19 714 L154 714 L154 276 C154 162.667 157.667 117 203 117 C252.749 117 253 165.922 253 278 L253 714 L388 714 L388 267 C388 79.1818 341.697 -10 204 -10 C66.6667 -10 19 77 19 265 L19 714 Z " /><g transform="translate(1,165)" ><path fill="black" d="M68 606 L68 619 C92.4793 659.799 129.672 728.683 143 766 L264 766 C281.333 722 306 668.333 338 619 L338 606 L261 606 C243.667 627.333 225.667 653.333 203 688 C179 653.333 161.667 624.667 147 606 L68 606 Z " /></g></glyph>
<glyph glyph-name="Udieresis" unicode="&#xdc;" horiz-adv-x="437" >
<g transform="translate(1,151)" ><path fill="black" d="M126 617 C92.6667 617 70 641 70 685 C70 729 92.6667 752 126 752 C159.333 752 182 727.667 182 685 C182 642.333 159.333 617 126 617 Z M280 617 C246.667 617 224 641 224 685 C224 729 246.667 752 280 752 C313.333 752 336 727.667 336 685 C336 642.333 313.333 617 280 617 Z " /></g><path fill="black" d="M19 714 L154 714 L154 276 C154 162.667 157.667 117 203 117 C252.749 117 253 165.922 253 278 L253 714 L388 714 L388 267 C388 79.1818 341.697 -10 204 -10 C66.6667 -10 19 77 19 265 L19 714 Z " /></glyph>
<glyph glyph-name="Yacute" unicode="&#xdd;" horiz-adv-x="437" >
<path fill="black" d="M136 0 L136 276 L3 714 L149 714 L203 422 L257 714 L402 714 L265 276 L265 0 L136 0 Z " /><g transform="translate(24,165)" ><path fill="black" d="M118 606 L118 619 C143.333 672.333 161.333 720.667 176 766 L317 766 L317 757 C298.177 719.353 242.156 647.321 206 606 L118 606 Z " /></g></glyph>
<glyph glyph-name="Thorn" unicode="&#xde;" horiz-adv-x="437" d="M34 0 L34 714 L168 714 L168 594 L203 594 C329.667 594 385 515.333 385 370 C385 231.359 333.922 133 198 133 L168 133 L168 0 L34 0 Z M168 251 L186 251 C238 251 257 287 257 363 C257 443 235 476 199 476 L168 476 L168 251 Z " />
<glyph glyph-name="germandbls" unicode="&#xdf;" horiz-adv-x="437" d="M20 553 C20 683.667 86.6667 765 196 765 C288 765 356 705.667 356 591 C356 484.222 315 456.111 315 400 C315 380 316.333 363.667 343 325 C364.845 286.771 393 250.097 393 164 C393 50.6667 343 -10 255 -10 C224.333 -10 201.333 -2 172 18 L172 141 C197.333 115.667 213.333 104 236 104 C257.333 104 265 121.333 265 164 C265 184 265.667 201.333 239 244 C212.671 286.126 187 315.501 187 389 C187 490.111 229 504.556 229 587 C229 627 219.667 655 189 655 C155.667 655 147 614 147 530 L147 0 L20 0 L20 553 Z " />
<glyph glyph-name="agrave" unicode="&#xe0;" horiz-adv-x="437" >
<path fill="black" d="M257 74 C230.333 18 195.333 -10 152 -10 C76 -10 31 53.3333 31 160 C31 285.333 88.3333 339.333 179 342 L251 345 L251 361 C251 417 224.667 437 190 437 C155.333 437 127.667 423.333 101 402 L56 510 C101.333 540.667 149 559 209 559 C318.333 559 379 497.333 379 372 L379 0 L278 0 L259 74 L257 74 Z M251 251 L217 248 C182.333 245.333 158 222 158 174 C158 131.333 178 113 198 113 C224.667 113 251 145.333 251 212 L251 251 Z " /><g transform="translate(5,0)" ><path fill="black" d="M82 766 L223 766 C236.375 723.2 268.613 651.13 282 619 L282 606 L194 606 C166.676 638.789 103.535 719.313 82 757 L82 766 Z " /></g></glyph>
<glyph glyph-name="aacute" unicode="&#xe1;" horiz-adv-x="437" >
<path fill="black" d="M257 74 C230.333 18 195.333 -10 152 -10 C76 -10 31 53.3333 31 160 C31 285.333 88.3333 339.333 179 342 L251 345 L251 361 C251 417 224.667 437 190 437 C155.333 437 127.667 423.333 101 402 L56 510 C101.333 540.667 149 559 209 559 C318.333 559 379 497.333 379 372 L379 0 L278 0 L259 74 L257 74 Z M251 251 L217 248 C182.333 245.333 158 222 158 174 C158 131.333 178 113 198 113 C224.667 113 251 145.333 251 212 L251 251 Z " /><g transform="translate(38,0)" ><path fill="black" d="M118 606 L118 619 C143.333 672.333 161.333 720.667 176 766 L317 766 L317 757 C298.177 719.353 242.156 647.321 206 606 L118 606 Z " /></g></glyph>
<glyph glyph-name="acircumflex" unicode="&#xe2;" horiz-adv-x="437" >
<path fill="black" d="M257 74 C230.333 18 195.333 -10 152 -10 C76 -10 31 53.3333 31 160 C31 285.333 88.3333 339.333 179 342 L251 345 L251 361 C251 417 224.667 437 190 437 C155.333 437 127.667 423.333 101 402 L56 510 C101.333 540.667 149 559 209 559 C318.333 559 379 497.333 379 372 L379 0 L278 0 L259 74 L257 74 Z M251 251 L217 248 C182.333 245.333 158 222 158 174 C158 131.333 178 113 198 113 C224.667 113 251 145.333 251 212 L251 251 Z " /><g transform="translate(14,0)" ><path fill="black" d="M68 606 L68 619 C92.4793 659.799 129.672 728.683 143 766 L264 766 C281.333 722 306 668.333 338 619 L338 606 L261 606 C243.667 627.333 225.667 653.333 203 688 C179 653.333 161.667 624.667 147 606 L68 606 Z " /></g></glyph>
<glyph glyph-name="atilde" unicode="&#xe3;" horiz-adv-x="437" >
<path fill="black" d="M257 74 C230.333 18 195.333 -10 152 -10 C76 -10 31 53.3333 31 160 C31 285.333 88.3333 339.333 179 342 L251 345 L251 361 C251 417 224.667 437 190 437 C155.333 437 127.667 423.333 101 402 L56 510 C101.333 540.667 149 559 209 559 C318.333 559 379 497.333 379 372 L379 0 L278 0 L259 74 L257 74 Z M251 251 L217 248 C182.333 245.333 158 222 158 174 C158 131.333 178 113 198 113 C224.667 113 251 145.333 251 212 L251 251 Z " /><g transform="translate(13,0)" ><path fill="black" d="M68 611 C68 673.225 79.5325 758 140 758 C184.118 758 215.451 707 250 707 C264.667 707 267.667 723 273 759 L338 759 C335.333 659 307.667 612 265 612 C219.333 612 183 663 156 663 C144 663 136.667 645.667 134 611 L68 611 Z " /></g></glyph>
<glyph glyph-name="adieresis" unicode="&#xe4;" horiz-adv-x="437" >
<g transform="translate(14,-14)" ><path fill="black" d="M126 617 C92.6667 617 70 641 70 685 C70 729 92.6667 752 126 752 C159.333 752 182 727.667 182 685 C182 642.333 159.333 617 126 617 Z M280 617 C246.667 617 224 641 224 685 C224 729 246.667 752 280 752 C313.333 752 336 727.667 336 685 C336 642.333 313.333 617 280 617 Z " /></g><path fill="black" d="M257 74 C230.333 18 195.333 -10 152 -10 C76 -10 31 53.3333 31 160 C31 285.333 88.3333 339.333 179 342 L251 345 L251 361 C251 417 224.667 437 190 437 C155.333 437 127.667 423.333 101 402 L56 510 C101.333 540.667 149 559 209 559 C318.333 559 379 497.333 379 372 L379 0 L278 0 L259 74 L257 74 Z M251 251 L217 248 C182.333 245.333 158 222 158 174 C158 131.333 178 113 198 113 C224.667 113 251 145.333 251 212 L251 251 Z " /></glyph>
<glyph glyph-name="aring" unicode="&#xe5;" horiz-adv-x="437" >
<path fill="black" d="M257 74 C230.333 18 195.333 -10 152 -10 C76 -10 31 53.3333 31 160 C31 285.333 88.3333 339.333 179 342 L251 345 L251 361 C251 417 224.667 437 190 437 C155.333 437 127.667 423.333 101 402 L56 510 C101.333 540.667 149 559 209 559 C318.333 559 379 497.333 379 372 L379 0 L278 0 L259 74 L257 74 Z M251 251 L217 248 C182.333 245.333 158 222 158 174 C158 131.333 178 113 198 113 C224.667 113 251 145.333 251 212 L251 251 Z " /><g transform="translate(15,0)" ><path fill="black" d="M203 598 C135 598 94 647.667 94 721 C94 793 135 842 203 842 C267 842 309 791.667 309 721 C309 649 268.333 598 203 598 Z M202 671 C223.333 671 239 690.333 239 721 C239 750.333 224.667 770 202 770 C180.667 770 165 751.667 165 721 C165 690.333 179.333 671 202 671 Z " /></g></glyph>
<glyph glyph-name="ae" unicode="&#xe6;" horiz-adv-x="437" d="M156 335 L156 369 C156 430.333 134 447 110 447 C91.3333 447 73.3333 439 56 423 L17 514 C51.6667 542 90.3333 558 125 558 C158.333 558 188.333 537.667 211 495 C235 535 261 558 289 558 C376.134 558 401 449.645 401 288 L401 237 L263 237 C264.333 145 292 105 328 105 C350.667 105 364.667 116.333 386 143 L386 28 C365.333 2.66667 340 -10 310 -10 C267.333 -10 233 17 205 81 C178.333 17 153 -10 113 -10 C42.3333 -10 6 55.6667 6 161 C6 269 42.6667 326 116 332 L156 335 Z M155 244 L139 244 C120.333 244 108 219.667 108 169 C108 127 115.667 106 131 106 C147 106 155 135 155 207 L155 244 Z M305 331 C305 415 298.333 443 285 443 C270.333 443 264 415 264 331 L305 331 Z " />
<glyph glyph-name="ccedilla" unicode="&#xe7;" horiz-adv-x="437" d="M168 -158 C183.333 -162 196.333 -164 207 -164 C229.667 -164 240 -150.667 240 -128 C240 -98.6667 218.667 -84.6667 188 -82 L212 -8 C110.697 7.99528 34 96.9257 34 273 C34 442.126 95.1818 559 243 559 C293.667 559 344.333 546.667 383 520 L342 406 C316.667 424.667 290.667 435 256 435 C196 435 173 380 173 276 C173 161.333 209 113 261 113 C293 113 332.333 125.667 367 159 L367 26 C341.667 7.33333 309 -4 277 -8 L268 -40 C312.667 -50.6667 335 -82 335 -134 C335 -199.333 300 -240 228 -240 C209.333 -240 185.333 -237.333 168 -232 L168 -158 Z " />
<glyph glyph-name="egrave" unicode="&#xe8;" horiz-adv-x="437" >
<path fill="black" d="M364 28 C332 5.33333 290.333 -10 225 -10 C91.6667 -10 17 89.3333 17 272 C17 445.359 85.1515 559 212 559 C314.667 559 387 475 387 303 L387 227 L154 227 C156.667 145.667 198 111 242 111 C296.667 111 334.667 127 364 151 L364 28 Z M258 326 C257.333 402 240.667 440 208 440 C172 440 154 402 154 326 L258 326 Z " /><g transform="translate(-1,0)" ><path fill="black" d="M82 766 L223 766 C236.375 723.2 268.613 651.13 282 619 L282 606 L194 606 C166.676 638.789 103.535 719.313 82 757 L82 766 Z " /></g></glyph>
<glyph glyph-name="eacute" unicode="&#xe9;" horiz-adv-x="437" >
<path fill="black" d="M364 28 C332 5.33333 290.333 -10 225 -10 C91.6667 -10 17 89.3333 17 272 C17 445.359 85.1515 559 212 559 C314.667 559 387 475 387 303 L387 227 L154 227 C156.667 145.667 198 111 242 111 C296.667 111 334.667 127 364 151 L364 28 Z M258 326 C257.333 402 240.667 440 208 440 C172 440 154 402 154 326 L258 326 Z " /><g transform="translate(32,0)" ><path fill="black" d="M118 606 L118 619 C143.333 672.333 161.333 720.667 176 766 L317 766 L317 757 C298.177 719.353 242.156 647.321 206 606 L118 606 Z " /></g></glyph>
<glyph glyph-name="ecircumflex" unicode="&#xea;" horiz-adv-x="437" >
<path fill="black" d="M364 28 C332 5.33333 290.333 -10 225 -10 C91.6667 -10 17 89.3333 17 272 C17 445.359 85.1515 559 212 559 C314.667 559 387 475 387 303 L387 227 L154 227 C156.667 145.667 198 111 242 111 C296.667 111 334.667 127 364 151 L364 28 Z M258 326 C257.333 402 240.667 440 208 440 C172 440 154 402 154 326 L258 326 Z " /><g transform="translate(8,0)" ><path fill="black" d="M68 606 L68 619 C92.4793 659.799 129.672 728.683 143 766 L264 766 C281.333 722 306 668.333 338 619 L338 606 L261 606 C243.667 627.333 225.667 653.333 203 688 C179 653.333 161.667 624.667 147 606 L68 606 Z " /></g></glyph>
<glyph glyph-name="edieresis" unicode="&#xeb;" horiz-adv-x="437" >
<g transform="translate(8,-14)" ><path fill="black" d="M126 617 C92.6667 617 70 641 70 685 C70 729 92.6667 752 126 752 C159.333 752 182 727.667 182 685 C182 642.333 159.333 617 126 617 Z M280 617 C246.667 617 224 641 224 685 C224 729 246.667 752 280 752 C313.333 752 336 727.667 336 685 C336 642.333 313.333 617 280 617 Z " /></g><path fill="black" d="M364 28 C332 5.33333 290.333 -10 225 -10 C91.6667 -10 17 89.3333 17 272 C17 445.359 85.1515 559 212 559 C314.667 559 387 475 387 303 L387 227 L154 227 C156.667 145.667 198 111 242 111 C296.667 111 334.667 127 364 151 L364 28 Z M258 326 C257.333 402 240.667 440 208 440 C172 440 154 402 154 326 L258 326 Z " /></glyph>
<glyph glyph-name="igrave" unicode="&#xec;" horiz-adv-x="407" >
<path fill="black" d="M29 101 L146 118 L146 430 L52 441 L52 549 L278 549 L278 118 L376 101 L376 0 L29 0 L29 101 Z " /><g transform="translate(-9,0)" ><path fill="black" d="M82 766 L223 766 C236.375 723.2 268.613 651.13 282 619 L282 606 L194 606 C166.676 638.789 103.535 719.313 82 757 L82 766 Z " /></g></glyph>
<glyph glyph-name="iacute" unicode="&#xed;" horiz-adv-x="407" >
<path fill="black" d="M29 101 L146 118 L146 430 L52 441 L52 549 L278 549 L278 118 L376 101 L376 0 L29 0 L29 101 Z " /><g transform="translate(24,0)" ><path fill="black" d="M118 606 L118 619 C143.333 672.333 161.333 720.667 176 766 L317 766 L317 757 C298.177 719.353 242.156 647.321 206 606 L118 606 Z " /></g></glyph>
<glyph glyph-name="icircumflex" unicode="&#xee;" horiz-adv-x="407" >
<path fill="black" d="M29 101 L146 118 L146 430 L52 441 L52 549 L278 549 L278 118 L376 101 L376 0 L29 0 L29 101 Z " /><path fill="black" d="M68 606 L68 619 C92.4793 659.799 129.672 728.683 143 766 L264 766 C281.333 722 306 668.333 338 619 L338 606 L261 606 C243.667 627.333 225.667 653.333 203 688 C179 653.333 161.667 624.667 147 606 L68 606 Z " /></glyph>
<glyph glyph-name="idieresis" unicode="&#xef;" horiz-adv-x="407" >
<g transform="translate(0,-14)" ><path fill="black" d="M126 617 C92.6667 617 70 641 70 685 C70 729 92.6667 752 126 752 C159.333 752 182 727.667 182 685 C182 642.333 159.333 617 126 617 Z M280 617 C246.667 617 224 641 224 685 C224 729 246.667 752 280 752 C313.333 752 336 727.667 336 685 C336 642.333 313.333 617 280 617 Z " /></g><path fill="black" d="M29 101 L146 118 L146 430 L52 441 L52 549 L278 549 L278 118 L376 101 L376 0 L29 0 L29 101 Z " /></glyph>
<glyph glyph-name="eth" unicode="&#xf0;" horiz-adv-x="437" d="M230 464 C223.333 500 206.333 539.333 185 574 L139 531 L91 595 L139 641 C123 662.333 108.667 679.333 96 692 L150 766 C174 751.333 196.667 735.667 218 717 L270 767 L319 702 L273 658 C349 558 392 422.333 392 277 C392 91.6667 323 -10 203 -10 C87.3636 -10 15 90.7186 15 240 C15 397.359 90.0779 487 178 487 C196.667 487 213.333 478.667 228 462 L230 464 Z M204 100 C248 100 263 150.333 263 241 C263 325 244.667 377 202 377 C159.333 377 144 331 144 239 C144 151 160 100 204 100 Z " />
<glyph glyph-name="ntilde" unicode="&#xf1;" horiz-adv-x="437" >
<path fill="black" d="M26 0 L26 549 L137 549 L152 485 L157 485 C179.667 531.667 209.333 559 256 559 C337.333 559 384 498 384 358 L384 0 L251 0 L251 335 C251 411 238.667 441 212 441 C173.333 441 161 398.333 161 293 L161 0 L26 0 Z " /><g transform="translate(9,0)" ><path fill="black" d="M68 611 C68 673.225 79.5325 758 140 758 C184.118 758 215.451 707 250 707 C264.667 707 267.667 723 273 759 L338 759 C335.333 659 307.667 612 265 612 C219.333 612 183 663 156 663 C144 663 136.667 645.667 134 611 L68 611 Z " /></g></glyph>
<glyph glyph-name="ograve" unicode="&#xf2;" horiz-adv-x="437" >
<path fill="black" d="M203 -10 C63.4675 -10 15 122.411 15 277 C15 438.749 72.3333 559 203 559 C314.004 559 392 458.281 392 277 C392 126.152 351.13 -10 203 -10 Z M203 113 C239 113 253 167.667 253 277 C253 383 236.333 436 203 436 C168.333 436 154 385 154 277 C154 167.667 170.333 113 203 113 Z " /><g transform="translate(-9,0)" ><path fill="black" d="M82 766 L223 766 C236.375 723.2 268.613 651.13 282 619 L282 606 L194 606 C166.676 638.789 103.535 719.313 82 757 L82 766 Z " /></g></glyph>
<glyph glyph-name="oacute" unicode="&#xf3;" horiz-adv-x="437" >
<path fill="black" d="M203 -10 C63.4675 -10 15 122.411 15 277 C15 438.749 72.3333 559 203 559 C314.004 559 392 458.281 392 277 C392 126.152 351.13 -10 203 -10 Z M203 113 C239 113 253 167.667 253 277 C253 383 236.333 436 203 436 C168.333 436 154 385 154 277 C154 167.667 170.333 113 203 113 Z " /><g transform="translate(24,0)" ><path fill="black" d="M118 606 L118 619 C143.333 672.333 161.333 720.667 176 766 L317 766 L317 757 C298.177 719.353 242.156 647.321 206 606 L118 606 Z " /></g></glyph>
<glyph glyph-name="ocircumflex" unicode="&#xf4;" horiz-adv-x="437" >
<path fill="black" d="M203 -10 C63.4675 -10 15 122.411 15 277 C15 438.749 72.3333 559 203 559 C314.004 559 392 458.281 392 277 C392 126.152 351.13 -10 203 -10 Z M203 113 C239 113 253 167.667 253 277 C253 383 236.333 436 203 436 C168.333 436 154 385 154 277 C154 167.667 170.333 113 203 113 Z " /><path fill="black" d="M68 606 L68 619 C92.4793 659.799 129.672 728.683 143 766 L264 766 C281.333 722 306 668.333 338 619 L338 606 L261 606 C243.667 627.333 225.667 653.333 203 688 C179 653.333 161.667 624.667 147 606 L68 606 Z " /></glyph>
<glyph glyph-name="otilde" unicode="&#xf5;" horiz-adv-x="437" >
<path fill="black" d="M203 -10 C63.4675 -10 15 122.411 15 277 C15 438.749 72.3333 559 203 559 C314.004 559 392 458.281 392 277 C392 126.152 351.13 -10 203 -10 Z M203 113 C239 113 253 167.667 253 277 C253 383 236.333 436 203 436 C168.333 436 154 385 154 277 C154 167.667 170.333 113 203 113 Z " /><g transform="translate(-1,0)" ><path fill="black" d="M68 611 C68 673.225 79.5325 758 140 758 C184.118 758 215.451 707 250 707 C264.667 707 267.667 723 273 759 L338 759 C335.333 659 307.667 612 265 612 C219.333 612 183 663 156 663 C144 663 136.667 645.667 134 611 L68 611 Z " /></g></glyph>
<glyph glyph-name="odieresis" unicode="&#xf6;" horiz-adv-x="437" >
<g transform="translate(0,-14)" ><path fill="black" d="M126 617 C92.6667 617 70 641 70 685 C70 729 92.6667 752 126 752 C159.333 752 182 727.667 182 685 C182 642.333 159.333 617 126 617 Z M280 617 C246.667 617 224 641 224 685 C224 729 246.667 752 280 752 C313.333 752 336 727.667 336 685 C336 642.333 313.333 617 280 617 Z " /></g><path fill="black" d="M203 -10 C63.4675 -10 15 122.411 15 277 C15 438.749 72.3333 559 203 559 C314.004 559 392 458.281 392 277 C392 126.152 351.13 -10 203 -10 Z M203 113 C239 113 253 167.667 253 277 C253 383 236.333 436 203 436 C168.333 436 154 385 154 277 C154 167.667 170.333 113 203 113 Z " /></glyph>
<glyph glyph-name="divide" unicode="&#xf7;" horiz-adv-x="437" d="M36 406 L370 406 L370 300 L36 300 L36 406 Z M204 86 C165.333 86 140 112.333 140 163 C140 213.667 161.333 239 204 239 C245.333 239 266 213.667 266 163 C266 112.333 242.667 86 204 86 Z M204 466 C165.333 466 140 492.333 140 543 C140 593.667 161.333 619 204 619 C245.333 619 266 593.667 266 543 C266 492.333 242.667 466 204 466 Z " />
<glyph glyph-name="oslash" unicode="&#xf8;" horiz-adv-x="437" d="M80 45 C34.6667 98.3333 17 183.667 17 277 C17 438.749 74.3333 559 205 559 C231 559 254.333 553.667 275 543 L294 591 L356 558 L332 497 C370.667 449 394 375.667 394 277 C394 126.152 353.13 -10 205 -10 C180.333 -10 158 -6 138 2 L115 -57 L52 -25 L80 45 Z M228 424 C222 432 214.333 436 205 436 C170.333 436 156 385 156 277 C156 263.667 155.667 251.667 157 241 L228 424 Z M255 300 L185 121 C191.667 115.667 198.333 113 205 113 C241 113 255 167.667 255 277 L255 300 Z " />
<glyph glyph-name="ugrave" unicode="&#xf9;" horiz-adv-x="437" >
<path fill="black" d="M22 549 L157 549 L157 229 C157 149 166.333 114 201 114 C239.667 114 246 159.333 246 274 L246 549 L381 549 L381 0 L270 0 L254 70 L247 70 C225 16.6667 192 -10 148 -10 C70.6667 -10 22 51.6667 22 189 L22 549 Z " /><g transform="translate(-9,0)" ><path fill="black" d="M82 766 L223 766 C236.375 723.2 268.613 651.13 282 619 L282 606 L194 606 C166.676 638.789 103.535 719.313 82 757 L82 766 Z " /></g></glyph>
<glyph glyph-name="uacute" unicode="&#xfa;" horiz-adv-x="437" >
<path fill="black" d="M22 549 L157 549 L157 229 C157 149 166.333 114 201 114 C239.667 114 246 159.333 246 274 L246 549 L381 549 L381 0 L270 0 L254 70 L247 70 C225 16.6667 192 -10 148 -10 C70.6667 -10 22 51.6667 22 189 L22 549 Z " /><g transform="translate(24,0)" ><path fill="black" d="M118 606 L118 619 C143.333 672.333 161.333 720.667 176 766 L317 766 L317 757 C298.177 719.353 242.156 647.321 206 606 L118 606 Z " /></g></glyph>
<glyph glyph-name="ucircumflex" unicode="&#xfb;" horiz-adv-x="437" >
<path fill="black" d="M22 549 L157 549 L157 229 C157 149 166.333 114 201 114 C239.667 114 246 159.333 246 274 L246 549 L381 549 L381 0 L270 0 L254 70 L247 70 C225 16.6667 192 -10 148 -10 C70.6667 -10 22 51.6667 22 189 L22 549 Z " /><path fill="black" d="M68 606 L68 619 C92.4793 659.799 129.672 728.683 143 766 L264 766 C281.333 722 306 668.333 338 619 L338 606 L261 606 C243.667 627.333 225.667 653.333 203 688 C179 653.333 161.667 624.667 147 606 L68 606 Z " /></glyph>
<glyph glyph-name="udieresis" unicode="&#xfc;" horiz-adv-x="437" >
<g transform="translate(0,-14)" ><path fill="black" d="M126 617 C92.6667 617 70 641 70 685 C70 729 92.6667 752 126 752 C159.333 752 182 727.667 182 685 C182 642.333 159.333 617 126 617 Z M280 617 C246.667 617 224 641 224 685 C224 729 246.667 752 280 752 C313.333 752 336 727.667 336 685 C336 642.333 313.333 617 280 617 Z " /></g><path fill="black" d="M22 549 L157 549 L157 229 C157 149 166.333 114 201 114 C239.667 114 246 159.333 246 274 L246 549 L381 549 L381 0 L270 0 L254 70 L247 70 C225 16.6667 192 -10 148 -10 C70.6667 -10 22 51.6667 22 189 L22 549 Z " /></glyph>
<glyph glyph-name="yacute" unicode="&#xfd;" horiz-adv-x="437" >
<path fill="black" d="M17 -122 C28.3333 -126 40 -128 52 -128 C84.844 -128 131.565 -117.174 150 -25 L152 -1 L1 549 L148 549 L194 285 C200.667 242.333 206.333 210 209 182 L212 182 C214.667 208.667 219.333 243.667 226 285 L261 549 L408 549 L272 -47 C238.667 -189.667 175 -245 75 -245 C55.6667 -245 36.3333 -242.333 17 -237 L17 -122 Z " /><g transform="translate(26,0)" ><path fill="black" d="M118 606 L118 619 C143.333 672.333 161.333 720.667 176 766 L317 766 L317 757 C298.177 719.353 242.156 647.321 206 606 L118 606 Z " /></g></glyph>
<glyph glyph-name="thorn" unicode="&#xfe;" horiz-adv-x="437" d="M26 -240 L26 724 L158 724 L158 577 C158 542.333 154.333 509.667 149 475 L155 475 C175 529.667 206.333 559 257 559 C347.797 559 392 433.208 392 277 C392 97.3377 328.662 -10 253 -10 C211.667 -10 183.333 16.3333 158 59 L149 59 C151.667 36.3333 158 -12.3333 158 -51 L158 -240 L26 -240 Z M158 275 C158 156.333 173.667 113 211 113 C244.333 113 253 168.333 253 275 C253 384.333 242.667 436 208 436 C177.333 436 158 394.667 158 292 L158 275 Z " />
<glyph glyph-name="ydieresis" unicode="&#xff;" horiz-adv-x="437" >
<g transform="translate(2,-14)" ><path fill="black" d="M126 617 C92.6667 617 70 641 70 685 C70 729 92.6667 752 126 752 C159.333 752 182 727.667 182 685 C182 642.333 159.333 617 126 617 Z M280 617 C246.667 617 224 641 224 685 C224 729 246.667 752 280 752 C313.333 752 336 727.667 336 685 C336 642.333 313.333 617 280 617 Z " /></g><path fill="black" d="M17 -122 C28.3333 -126 40 -128 52 -128 C84.844 -128 131.565 -117.174 150 -25 L152 -1 L1 549 L148 549 L194 285 C200.667 242.333 206.333 210 209 182 L212 182 C214.667 208.667 219.333 243.667 226 285 L261 549 L408 549 L272 -47 C238.667 -189.667 175 -245 75 -245 C55.6667 -245 36.3333 -242.333 17 -237 L17 -122 Z " /></glyph>
<glyph glyph-name="Amacron" unicode="&#x100;" horiz-adv-x="437" >
<path fill="black" d="M104 716 L299 716 L401 0 L271 0 L253 172 L156 172 L138 0 L6 0 L104 716 Z M240 292 L222 461 C216.667 503.667 207 563.667 203 605 C199 563.667 190.333 503.667 185 461 L168 292 L240 292 Z " /><g transform="translate(8,143)" ><path fill="black" d="M79 730 L310 730 L310 638 L79 638 L79 730 Z " /></g></glyph>
<glyph glyph-name="amacron" unicode="&#x101;" horiz-adv-x="437" >
<path fill="black" d="M257 74 C230.333 18 195.333 -10 152 -10 C76 -10 31 53.3333 31 160 C31 285.333 88.3333 339.333 179 342 L251 345 L251 361 C251 417 224.667 437 190 437 C155.333 437 127.667 423.333 101 402 L56 510 C101.333 540.667 149 559 209 559 C318.333 559 379 497.333 379 372 L379 0 L278 0 L259 74 L257 74 Z M251 251 L217 248 C182.333 245.333 158 222 158 174 C158 131.333 178 113 198 113 C224.667 113 251 145.333 251 212 L251 251 Z " /><g transform="translate(22,-22)" ><path fill="black" d="M79 730 L310 730 L310 638 L79 638 L79 730 Z " /></g></glyph>
<glyph glyph-name="Abreve" unicode="&#x102;" horiz-adv-x="437" >
<path fill="black" d="M104 716 L299 716 L401 0 L271 0 L253 172 L156 172 L138 0 L6 0 L104 716 Z M240 292 L222 461 C216.667 503.667 207 563.667 203 605 C199 563.667 190.333 503.667 185 461 L168 292 L240 292 Z " /><g transform="translate(0,165)" ><path fill="black" d="M154 767 C154.667 720.333 170.667 697 202 697 C232.667 697 250.333 717.667 253 767 L328 767 C329.333 668.333 278 608 202 608 C130 608 78 661.667 78 767 L154 767 Z " /></g></glyph>
<glyph glyph-name="abreve" unicode="&#x103;" horiz-adv-x="437" >
<path fill="black" d="M257 74 C230.333 18 195.333 -10 152 -10 C76 -10 31 53.3333 31 160 C31 285.333 88.3333 339.333 179 342 L251 345 L251 361 C251 417 224.667 437 190 437 C155.333 437 127.667 423.333 101 402 L56 510 C101.333 540.667 149 559 209 559 C318.333 559 379 497.333 379 372 L379 0 L278 0 L259 74 L257 74 Z M251 251 L217 248 C182.333 245.333 158 222 158 174 C158 131.333 178 113 198 113 C224.667 113 251 145.333 251 212 L251 251 Z " /><g transform="translate(14,0)" ><path fill="black" d="M154 767 C154.667 720.333 170.667 697 202 697 C232.667 697 250.333 717.667 253 767 L328 767 C329.333 668.333 278 608 202 608 C130 608 78 661.667 78 767 L154 767 Z " /></g></glyph>
<glyph glyph-name="Aogonek" unicode="&#x104;" horiz-adv-x="437" d="M104 716 L299 716 L401 1 L406 0 C372.667 -45.3333 368 -74 368 -106 C368 -132.667 379.667 -150 401 -150 C414.333 -150 422.333 -146 429 -142 L429 -224 C417 -230.667 397 -236 373 -236 C305 -236 274 -198 274 -134 C274 -90 288.333 -42.6667 327 0 L271 0 L253 172 L156 172 L138 0 L6 0 L104 716 Z M240 292 L222 461 C216.667 503.667 207 563.667 203 605 C199 563.667 190.333 503.667 185 461 L168 292 L240 292 Z " />
<glyph glyph-name="aogonek" unicode="&#x105;" horiz-adv-x="437" d="M261 74 L259 74 C232.333 18 197.333 -10 154 -10 C78 -10 33 53.3333 33 160 C33 285.333 90.3333 339.333 181 342 L253 345 L253 361 C253 417 226.667 437 192 437 C157.333 437 129.667 423.333 103 402 L58 510 C103.333 540.667 151 559 211 559 C320.333 559 381 497.333 381 372 L381 0 L372 0 C338.667 -45.3333 334 -74 334 -106 C334 -132.667 345.667 -150 367 -150 C380.333 -150 388.333 -146 395 -142 L395 -224 C383 -230.667 363 -236 339 -236 C271 -236 240 -198 240 -134 C240 -90 254.333 -42.6667 293 0 L280 0 L261 74 Z M253 251 L219 248 C184.333 245.333 160 222 160 174 C160 131.333 180 113 200 113 C226.667 113 253 145.333 253 212 L253 251 Z " />
<glyph glyph-name="Cacute" unicode="&#x106;" horiz-adv-x="437" >
<path fill="black" d="M372 27 C333.333 1.66667 286.333 -10 241 -10 C98.3333 -10 23 120.667 23 346 C23 572.797 105.771 725 247 725 C312.333 725 351.333 709 394 677 L355 563 C325.667 589.667 295 600 267 600 C195.97 600 159 502.303 159 352 C159 198.667 194.667 115 264 115 C301.333 115 336 133.333 372 156 L372 27 Z " /><g transform="translate(62,165)" ><path fill="black" d="M118 606 L118 619 C143.333 672.333 161.333 720.667 176 766 L317 766 L317 757 C298.177 719.353 242.156 647.321 206 606 L118 606 Z " /></g></glyph>
<glyph glyph-name="cacute" unicode="&#x107;" horiz-adv-x="437" >
<path fill="black" d="M367 26 C332.333 -0.666667 285.333 -10 244 -10 C128.312 -10 34 77.4416 34 273 C34 442.126 95.1818 559 243 559 C293.667 559 344.333 546.667 383 520 L342 406 C316.667 424.667 290.667 435 256 435 C196 435 173 380 173 276 C173 161.333 209 113 261 113 C293 113 332.333 125.667 367 159 L367 26 Z " /><g transform="translate(57,0)" ><path fill="black" d="M118 606 L118 619 C143.333 672.333 161.333 720.667 176 766 L317 766 L317 757 C298.177 719.353 242.156 647.321 206 606 L118 606 Z " /></g></glyph>
<glyph glyph-name="Ccircumflex" unicode="&#x108;" horiz-adv-x="437" >
<path fill="black" d="M372 27 C333.333 1.66667 286.333 -10 241 -10 C98.3333 -10 23 120.667 23 346 C23 572.797 105.771 725 247 725 C312.333 725 351.333 709 394 677 L355 563 C325.667 589.667 295 600 267 600 C195.97 600 159 502.303 159 352 C159 198.667 194.667 115 264 115 C301.333 115 336 133.333 372 156 L372 27 Z " /><g transform="translate(38,165)" ><path fill="black" d="M68 606 L68 619 C92.4793 659.799 129.672 728.683 143 766 L264 766 C281.333 722 306 668.333 338 619 L338 606 L261 606 C243.667 627.333 225.667 653.333 203 688 C179 653.333 161.667 624.667 147 606 L68 606 Z " /></g></glyph>
<glyph glyph-name="ccircumflex" unicode="&#x109;" horiz-adv-x="437" >
<path fill="black" d="M367 26 C332.333 -0.666667 285.333 -10 244 -10 C128.312 -10 34 77.4416 34 273 C34 442.126 95.1818 559 243 559 C293.667 559 344.333 546.667 383 520 L342 406 C316.667 424.667 290.667 435 256 435 C196 435 173 380 173 276 C173 161.333 209 113 261 113 C293 113 332.333 125.667 367 159 L367 26 Z " /><g transform="translate(33,0)" ><path fill="black" d="M68 606 L68 619 C92.4793 659.799 129.672 728.683 143 766 L264 766 C281.333 722 306 668.333 338 619 L338 606 L261 606 C243.667 627.333 225.667 653.333 203 688 C179 653.333 161.667 624.667 147 606 L68 606 Z " /></g></glyph>
<glyph glyph-name="Cdotaccent" unicode="&#x10a;" horiz-adv-x="437" >
<path fill="black" d="M372 27 C333.333 1.66667 286.333 -10 241 -10 C98.3333 -10 23 120.667 23 346 C23 572.797 105.771 725 247 725 C312.333 725 351.333 709 394 677 L355 563 C325.667 589.667 295 600 267 600 C195.97 600 159 502.303 159 352 C159 198.667 194.667 115 264 115 C301.333 115 336 133.333 372 156 L372 27 Z " /><g transform="translate(38,165)" ><path fill="black" d="M203 614 C155 614 127 639.667 127 693 C127 745.667 152.333 772 203 772 C253 772 278 745.667 278 693 C278 642.333 253.667 614 203 614 Z " /></g></glyph>
<glyph glyph-name="cdotaccent" unicode="&#x10b;" horiz-adv-x="437" >
<path fill="black" d="M367 26 C332.333 -0.666667 285.333 -10 244 -10 C128.312 -10 34 77.4416 34 273 C34 442.126 95.1818 559 243 559 C293.667 559 344.333 546.667 383 520 L342 406 C316.667 424.667 290.667 435 256 435 C196 435 173 380 173 276 C173 161.333 209 113 261 113 C293 113 332.333 125.667 367 159 L367 26 Z " /><g transform="translate(33,0)" ><path fill="black" d="M203 614 C155 614 127 639.667 127 693 C127 745.667 152.333 772 203 772 C253 772 278 745.667 278 693 C278 642.333 253.667 614 203 614 Z " /></g></glyph>
<glyph glyph-name="Ccaron" unicode="&#x10c;" horiz-adv-x="437" >
<path fill="black" d="M372 27 C333.333 1.66667 286.333 -10 241 -10 C98.3333 -10 23 120.667 23 346 C23 572.797 105.771 725 247 725 C312.333 725 351.333 709 394 677 L355 563 C325.667 589.667 295 600 267 600 C195.97 600 159 502.303 159 352 C159 198.667 194.667 115 264 115 C301.333 115 336 133.333 372 156 L372 27 Z " /><g transform="translate(38,165)" ><path fill="black" d="M68 766 L146 766 C163.333 746 181.333 717.333 204 684 C228 720 242.333 743.333 261 766 L339 766 L339 754 C317.645 713.96 280.015 648.707 264 606 L143 606 C129.535 646.395 92.2129 713.645 68 754 L68 766 Z " /></g></glyph>
<glyph glyph-name="ccaron" unicode="&#x10d;" horiz-adv-x="437" >
<path fill="black" d="M367 26 C332.333 -0.666667 285.333 -10 244 -10 C128.312 -10 34 77.4416 34 273 C34 442.126 95.1818 559 243 559 C293.667 559 344.333 546.667 383 520 L342 406 C316.667 424.667 290.667 435 256 435 C196 435 173 380 173 276 C173 161.333 209 113 261 113 C293 113 332.333 125.667 367 159 L367 26 Z " /><g transform="translate(33,0)" ><path fill="black" d="M68 766 L146 766 C163.333 746 181.333 717.333 204 684 C228 720 242.333 743.333 261 766 L339 766 L339 754 C317.645 713.96 280.015 648.707 264 606 L143 606 C129.535 646.395 92.2129 713.645 68 754 L68 766 Z " /></g></glyph>
<glyph glyph-name="Dcaron" unicode="&#x10e;" horiz-adv-x="437" >
<path fill="black" d="M19 0 L19 714 L192 714 C319.974 714 397 582.364 397 370 C397 136.978 303.1 0 190 0 L19 0 Z M152 126 L174 126 C234 126 260 213.667 260 359 C260 517.667 230.667 588 180 588 L152 588 L152 126 Z " /><g transform="translate(-6,165)" ><path fill="black" d="M68 766 L146 766 C163.333 746 181.333 717.333 204 684 C228 720 242.333 743.333 261 766 L339 766 L339 754 C317.645 713.96 280.015 648.707 264 606 L143 606 C129.535 646.395 92.2129 713.645 68 754 L68 766 Z " /></g></glyph>
<glyph glyph-name="dcaron" unicode="&#x10f;" horiz-adv-x="437" d="M229 74 L223 74 C205 18 177 -10 139 -10 C52.5931 -10 7 103.277 7 273 C7 450.333 57 559 141 559 C171.667 559 199 538.667 219 480 L227 480 C224.333 506.667 219 545.667 219 583 L219 760 L350 760 L350 0 L240 0 L229 74 Z M221 282 C221 401.082 203.926 436 181 436 C143.667 436 137 380 137 272 C137 165.333 144.667 113 178 113 C204.667 113 221 155.667 221 265 L221 282 Z M361 600 L361 608 C366.337 640.02 375 722.652 375 760 L498 760 L498 752 C486 702.667 466.333 642.667 445 600 L361 600 Z " />
<glyph glyph-name="Dcroat" unicode="&#x110;" horiz-adv-x="437" >
<path fill="black" d="M29 309 L2 309 L2 413 L29 413 L29 714 L202 714 C329.974 714 407 582.364 407 370 C407 136.978 313.1 0 200 0 L29 0 L29 309 Z M184 126 C244 126 270 213.667 270 359 C270 517.667 240.667 588 190 588 L162 588 L162 413 L210 413 L210 309 L162 309 L162 126 L184 126 Z " /></glyph>
<glyph glyph-name="dcroat" unicode="&#x111;" horiz-adv-x="437" d="M260 74 L253 74 C231.667 18 198 -10 158 -10 C63.0476 -10 15 101.281 15 264 C15 437.333 68.3333 543 159 543 C193.667 543 228.333 519 251 463 L258 463 C255.333 489.667 250 530.333 250 581 L250 587 L163 587 L163 681 L250 681 L250 760 L381 760 L381 681 L404 681 L404 587 L381 587 L381 0 L271 0 L260 74 Z M201 113 C231.667 113 252 152.333 252 247 L252 265 C252 375.667 239.667 419 205 419 C162.333 419 149 364 149 264 C149 162.667 163.667 113 201 113 Z " />
<glyph glyph-name="Emacron" unicode="&#x112;" horiz-adv-x="437" >
<path fill="black" d="M378 126 L378 0 L34 0 L34 714 L378 714 L378 588 L168 588 L168 427 L365 427 L365 301 L168 301 L168 126 L378 126 Z " /><g transform="translate(12,143)" ><path fill="black" d="M79 730 L310 730 L310 638 L79 638 L79 730 Z " /></g></glyph>
<glyph glyph-name="emacron" unicode="&#x113;" horiz-adv-x="437" >
<path fill="black" d="M364 28 C332 5.33333 290.333 -10 225 -10 C91.6667 -10 17 89.3333 17 272 C17 445.359 85.1515 559 212 559 C314.667 559 387 475 387 303 L387 227 L154 227 C156.667 145.667 198 111 242 111 C296.667 111 334.667 127 364 151 L364 28 Z M258 326 C257.333 402 240.667 440 208 440 C172 440 154 402 154 326 L258 326 Z " /><g transform="translate(16,-22)" ><path fill="black" d="M79 730 L310 730 L310 638 L79 638 L79 730 Z " /></g></glyph>
<glyph glyph-name="Ebreve" unicode="&#x114;" horiz-adv-x="437" >
<path fill="black" d="M378 126 L378 0 L34 0 L34 714 L378 714 L378 588 L168 588 L168 427 L365 427 L365 301 L168 301 L168 126 L378 126 Z " /><g transform="translate(4,165)" ><path fill="black" d="M154 767 C154.667 720.333 170.667 697 202 697 C232.667 697 250.333 717.667 253 767 L328 767 C329.333 668.333 278 608 202 608 C130 608 78 661.667 78 767 L154 767 Z " /></g></glyph>
<glyph glyph-name="ebreve" unicode="&#x115;" horiz-adv-x="437" >
<path fill="black" d="M364 28 C332 5.33333 290.333 -10 225 -10 C91.6667 -10 17 89.3333 17 272 C17 445.359 85.1515 559 212 559 C314.667 559 387 475 387 303 L387 227 L154 227 C156.667 145.667 198 111 242 111 C296.667 111 334.667 127 364 151 L364 28 Z M258 326 C257.333 402 240.667 440 208 440 C172 440 154 402 154 326 L258 326 Z " /><g transform="translate(8,0)" ><path fill="black" d="M154 767 C154.667 720.333 170.667 697 202 697 C232.667 697 250.333 717.667 253 767 L328 767 C329.333 668.333 278 608 202 608 C130 608 78 661.667 78 767 L154 767 Z " /></g></glyph>
<glyph glyph-name="Edotaccent" unicode="&#x116;" horiz-adv-x="437" >
<path fill="black" d="M378 126 L378 0 L34 0 L34 714 L378 714 L378 588 L168 588 L168 427 L365 427 L365 301 L168 301 L168 126 L378 126 Z " /><g transform="translate(4,165)" ><path fill="black" d="M203 614 C155 614 127 639.667 127 693 C127 745.667 152.333 772 203 772 C253 772 278 745.667 278 693 C278 642.333 253.667 614 203 614 Z " /></g></glyph>
<glyph glyph-name="edotaccent" unicode="&#x117;" horiz-adv-x="437" >
<path fill="black" d="M364 28 C332 5.33333 290.333 -10 225 -10 C91.6667 -10 17 89.3333 17 272 C17 445.359 85.1515 559 212 559 C314.667 559 387 475 387 303 L387 227 L154 227 C156.667 145.667 198 111 242 111 C296.667 111 334.667 127 364 151 L364 28 Z M258 326 C257.333 402 240.667 440 208 440 C172 440 154 402 154 326 L258 326 Z " /><g transform="translate(8,0)" ><path fill="black" d="M203 614 C155 614 127 639.667 127 693 C127 745.667 152.333 772 203 772 C253 772 278 745.667 278 693 C278 642.333 253.667 614 203 614 Z " /></g></glyph>
<glyph glyph-name="Eogonek" unicode="&#x118;" horiz-adv-x="437" d="M36 714 L380 714 L380 588 L170 588 L170 427 L367 427 L367 301 L170 301 L170 126 L380 126 L380 0 L358 0 C324.667 -45.3333 320 -74 320 -106 C320 -132.667 331.667 -150 353 -150 C366.333 -150 374.333 -146 381 -142 L381 -224 C369 -230.667 349 -236 325 -236 C257 -236 226 -198 226 -134 C226 -90 240.333 -42.6667 279 0 L36 0 L36 714 Z " />
<glyph glyph-name="eogonek" unicode="&#x119;" horiz-adv-x="437" d="M354 -224 C342 -230.667 323 -236 299 -236 C231 -236 200 -191 200 -123 C200 -73.6667 218.333 -38.3333 245 -9 C238.333 -10.3333 230.667 -10 224 -10 C90.6667 -10 16 89.3333 16 272 C16 445.359 84.1515 559 211 559 C313.667 559 386 475 386 303 L386 227 L153 227 C155.667 145.667 197 111 241 111 C295.667 111 333.667 127 363 151 L363 28 L353 21 C305 -32.3333 295 -65.3333 295 -100 C295 -133.333 306 -150 328 -150 C338.667 -150 347.333 -146 354 -142 L354 -224 Z M257 326 C256.333 402 239.667 440 207 440 C171 440 153 402 153 326 L257 326 Z " />
<glyph glyph-name="Ecaron" unicode="&#x11a;" horiz-adv-x="437" >
<path fill="black" d="M378 126 L378 0 L34 0 L34 714 L378 714 L378 588 L168 588 L168 427 L365 427 L365 301 L168 301 L168 126 L378 126 Z " /><g transform="translate(4,165)" ><path fill="black" d="M68 766 L146 766 C163.333 746 181.333 717.333 204 684 C228 720 242.333 743.333 261 766 L339 766 L339 754 C317.645 713.96 280.015 648.707 264 606 L143 606 C129.535 646.395 92.2129 713.645 68 754 L68 766 Z " /></g></glyph>
<glyph glyph-name="ecaron" unicode="&#x11b;" horiz-adv-x="437" >
<path fill="black" d="M364 28 C332 5.33333 290.333 -10 225 -10 C91.6667 -10 17 89.3333 17 272 C17 445.359 85.1515 559 212 559 C314.667 559 387 475 387 303 L387 227 L154 227 C156.667 145.667 198 111 242 111 C296.667 111 334.667 127 364 151 L364 28 Z M258 326 C257.333 402 240.667 440 208 440 C172 440 154 402 154 326 L258 326 Z " /><g transform="translate(8,0)" ><path fill="black" d="M68 766 L146 766 C163.333 746 181.333 717.333 204 684 C228 720 242.333 743.333 261 766 L339 766 L339 754 C317.645 713.96 280.015 648.707 264 606 L143 606 C129.535 646.395 92.2129 713.645 68 754 L68 766 Z " /></g></glyph>
<glyph glyph-name="Gcircumflex" unicode="&#x11c;" horiz-adv-x="437" >
<path fill="black" d="M264 283 L223 283 L223 406 L388 406 L388 30 C340 -0.666667 293.667 -10 247 -10 C87 -10 11 116.667 11 342 C11 587.463 104.593 725 255 725 C315 725 356 706.667 388 680 L351 568 C319 593.333 296.667 601 266 601 C183.333 601 145 514 145 346 C145 214.338 172.078 115 228 115 C238.667 115 253.333 118.667 264 124 L264 283 Z " /><g transform="translate(32,165)" ><path fill="black" d="M68 606 L68 619 C92.4793 659.799 129.672 728.683 143 766 L264 766 C281.333 722 306 668.333 338 619 L338 606 L261 606 C243.667 627.333 225.667 653.333 203 688 C179 653.333 161.667 624.667 147 606 L68 606 Z " /></g></glyph>
<glyph glyph-name="gcircumflex" unicode="&#x11d;" horiz-adv-x="437" >
<path fill="black" d="M40 -80 C90.6667 -110.667 133.333 -122 164 -122 C217.333 -122 248 -87.6667 248 -13 L248 6 C248 28.6667 249 49.3333 249 68 L245 68 C218.333 9.33333 191.333 -10 158 -10 C66 -10 15 97.3333 15 272 C15 449.1 69.974 559 158 559 C192.667 559 218.667 537.333 248 480 L256 480 L267 549 L381 549 L381 11 C381 -155.667 317.667 -245 175 -245 C119 -245 82.6667 -231.667 40 -205 L40 -80 Z M251 274 C251 391.333 241 436 209 436 C170.333 436 158 378 158 270 C158 167.333 167.333 113 206 113 C232.667 113 251 149.333 251 256 L251 274 Z " /><path fill="black" d="M68 606 L68 619 C92.4793 659.799 129.672 728.683 143 766 L264 766 C281.333 722 306 668.333 338 619 L338 606 L261 606 C243.667 627.333 225.667 653.333 203 688 C179 653.333 161.667 624.667 147 606 L68 606 Z " /></glyph>
<glyph glyph-name="Gbreve" unicode="&#x11e;" horiz-adv-x="437" >
<path fill="black" d="M264 283 L223 283 L223 406 L388 406 L388 30 C340 -0.666667 293.667 -10 247 -10 C87 -10 11 116.667 11 342 C11 587.463 104.593 725 255 725 C315 725 356 706.667 388 680 L351 568 C319 593.333 296.667 601 266 601 C183.333 601 145 514 145 346 C145 214.338 172.078 115 228 115 C238.667 115 253.333 118.667 264 124 L264 283 Z " /><g transform="translate(32,165)" ><path fill="black" d="M154 767 C154.667 720.333 170.667 697 202 697 C232.667 697 250.333 717.667 253 767 L328 767 C329.333 668.333 278 608 202 608 C130 608 78 661.667 78 767 L154 767 Z " /></g></glyph>
<glyph glyph-name="gbreve" unicode="&#x11f;" horiz-adv-x="437" >
<path fill="black" d="M40 -80 C90.6667 -110.667 133.333 -122 164 -122 C217.333 -122 248 -87.6667 248 -13 L248 6 C248 28.6667 249 49.3333 249 68 L245 68 C218.333 9.33333 191.333 -10 158 -10 C66 -10 15 97.3333 15 272 C15 449.1 69.974 559 158 559 C192.667 559 218.667 537.333 248 480 L256 480 L267 549 L381 549 L381 11 C381 -155.667 317.667 -245 175 -245 C119 -245 82.6667 -231.667 40 -205 L40 -80 Z M251 274 C251 391.333 241 436 209 436 C170.333 436 158 378 158 270 C158 167.333 167.333 113 206 113 C232.667 113 251 149.333 251 256 L251 274 Z " /><path fill="black" d="M154 767 C154.667 720.333 170.667 697 202 697 C232.667 697 250.333 717.667 253 767 L328 767 C329.333 668.333 278 608 202 608 C130 608 78 661.667 78 767 L154 767 Z " /></glyph>
<glyph glyph-name="Gdotaccent" unicode="&#x120;" horiz-adv-x="437" >
<path fill="black" d="M264 283 L223 283 L223 406 L388 406 L388 30 C340 -0.666667 293.667 -10 247 -10 C87 -10 11 116.667 11 342 C11 587.463 104.593 725 255 725 C315 725 356 706.667 388 680 L351 568 C319 593.333 296.667 601 266 601 C183.333 601 145 514 145 346 C145 214.338 172.078 115 228 115 C238.667 115 253.333 118.667 264 124 L264 283 Z " /><g transform="translate(32,165)" ><path fill="black" d="M203 614 C155 614 127 639.667 127 693 C127 745.667 152.333 772 203 772 C253 772 278 745.667 278 693 C278 642.333 253.667 614 203 614 Z " /></g></glyph>
<glyph glyph-name="gdotaccent" unicode="&#x121;" horiz-adv-x="437" >
<path fill="black" d="M40 -80 C90.6667 -110.667 133.333 -122 164 -122 C217.333 -122 248 -87.6667 248 -13 L248 6 C248 28.6667 249 49.3333 249 68 L245 68 C218.333 9.33333 191.333 -10 158 -10 C66 -10 15 97.3333 15 272 C15 449.1 69.974 559 158 559 C192.667 559 218.667 537.333 248 480 L256 480 L267 549 L381 549 L381 11 C381 -155.667 317.667 -245 175 -245 C119 -245 82.6667 -231.667 40 -205 L40 -80 Z M251 274 C251 391.333 241 436 209 436 C170.333 436 158 378 158 270 C158 167.333 167.333 113 206 113 C232.667 113 251 149.333 251 256 L251 274 Z " /><path fill="black" d="M203 614 C155 614 127 639.667 127 693 C127 745.667 152.333 772 203 772 C253 772 278 745.667 278 693 C278 642.333 253.667 614 203 614 Z " /></glyph>
<glyph glyph-name="uni0122" unicode="&#x122;" horiz-adv-x="437" >
<path fill="black" d="M264 283 L223 283 L223 406 L388 406 L388 30 C340 -0.666667 293.667 -10 247 -10 C87 -10 11 116.667 11 342 C11 587.463 104.593 725 255 725 C315 725 356 706.667 388 680 L351 568 C319 593.333 296.667 601 266 601 C183.333 601 145 514 145 346 C145 214.338 172.078 115 228 115 C238.667 115 253.333 118.667 264 124 L264 283 Z " /><g transform="translate(673,0)" ><path fill="black" d="M-514 -221 L-514 -213 C-508.663 -180.98 -500 -98.3484 -500 -61 L-377 -61 L-377 -69 C-389 -118.333 -408.667 -178.333 -430 -221 L-514 -221 Z " /></g></glyph>
<glyph glyph-name="uni0123" unicode="&#x123;" horiz-adv-x="437" d="M42 -80 C92.6667 -110.667 135.333 -122 166 -122 C219.333 -122 250 -87.6667 250 -13 L250 6 C250 28.6667 251 49.3333 251 68 L247 68 C220.333 9.33333 193.333 -10 160 -10 C68 -10 17 97.3333 17 272 C17 449.1 71.974 559 160 559 C194.667 559 220.667 537.333 250 480 L258 480 L269 549 L383 549 L383 11 C383 -155.667 319.667 -245 177 -245 C121 -245 84.6667 -231.667 42 -205 L42 -80 Z M253 274 C253 391.333 243 436 211 436 C172.333 436 160 378 160 270 C160 167.333 169.333 113 208 113 C234.667 113 253 149.333 253 256 L253 274 Z M134 606 L134 614 C144.667 660.667 163.667 719.333 189 766 L272 766 L272 758 C262.667 706 257.667 644.667 255 606 L134 606 Z " />
<glyph glyph-name="Hcircumflex" unicode="&#x124;" horiz-adv-x="437" >
<path fill="black" d="M19 0 L19 714 L152 714 L152 431 L255 431 L255 714 L388 714 L388 0 L255 0 L255 305 L152 305 L152 0 L19 0 Z " /><g transform="translate(1,165)" ><path fill="black" d="M68 606 L68 619 C92.4793 659.799 129.672 728.683 143 766 L264 766 C281.333 722 306 668.333 338 619 L338 606 L261 606 C243.667 627.333 225.667 653.333 203 688 C179 653.333 161.667 624.667 147 606 L68 606 Z " /></g></glyph>
<glyph glyph-name="hcircumflex" unicode="&#x125;" horiz-adv-x="437" >
<path fill="black" d="M26 0 L26 760 L161 760 L161 601 C161 559.667 158 517.667 150 479 L158 479 C176.667 528.333 210.333 559 257 559 C337 559 384 490 384 358 L384 0 L251 0 L251 314 C251 388.667 251.667 431 209 431 C166.333 431 161 375 161 279 L161 0 L26 0 Z " /><g transform="translate(-110,211)" ><path fill="black" d="M68 606 L68 619 C92.4793 659.799 129.672 728.683 143 766 L264 766 C281.333 722 306 668.333 338 619 L338 606 L261 606 C243.667 627.333 225.667 653.333 203 688 C179 653.333 161.667 624.667 147 606 L68 606 Z " /></g></glyph>
<glyph glyph-name="Hbar" unicode="&#x126;" horiz-adv-x="437" d="M27 524 L2 524 L2 620 L27 620 L27 714 L160 714 L160 620 L245 620 L245 714 L379 714 L379 620 L404 620 L404 524 L379 524 L379 0 L245 0 L245 305 L160 305 L160 0 L27 0 L27 524 Z M245 431 L245 524 L160 524 L160 431 L245 431 Z " />
<glyph glyph-name="hbar" unicode="&#x127;" horiz-adv-x="437" d="M26 587 L2 587 L2 681 L26 681 L26 760 L160 760 L160 681 L243 681 L243 587 L160 587 C160 548.333 156.667 508.333 150 471 L158 471 C176.667 520.333 210.333 551 257 551 C337 551 384 482 384 350 L384 0 L250 0 L250 306 C250 379.671 250.615 423 208 423 C166.667 423 160 367.333 160 270 L160 0 L26 0 L26 587 Z " />
<glyph glyph-name="Itilde" unicode="&#x128;" horiz-adv-x="437" >
<path fill="black" d="M40 102 L139 116 L139 598 L40 612 L40 714 L368 714 L368 612 L271 598 L271 116 L368 102 L368 0 L40 0 L40 102 Z " /><g transform="translate(-1,165)" ><path fill="black" d="M68 611 C68 673.225 79.5325 758 140 758 C184.118 758 215.451 707 250 707 C264.667 707 267.667 723 273 759 L338 759 C335.333 659 307.667 612 265 612 C219.333 612 183 663 156 663 C144 663 136.667 645.667 134 611 L68 611 Z " /></g></glyph>
<glyph glyph-name="itilde" unicode="&#x129;" horiz-adv-x="407" >
<path fill="black" d="M29 101 L146 118 L146 430 L52 441 L52 549 L278 549 L278 118 L376 101 L376 0 L29 0 L29 101 Z " /><g transform="translate(-1,0)" ><path fill="black" d="M68 611 C68 673.225 79.5325 758 140 758 C184.118 758 215.451 707 250 707 C264.667 707 267.667 723 273 759 L338 759 C335.333 659 307.667 612 265 612 C219.333 612 183 663 156 663 C144 663 136.667 645.667 134 611 L68 611 Z " /></g></glyph>
<glyph glyph-name="Imacron" unicode="&#x12a;" horiz-adv-x="437" >
<path fill="black" d="M40 102 L139 116 L139 598 L40 612 L40 714 L368 714 L368 612 L271 598 L271 116 L368 102 L368 0 L40 0 L40 102 Z " /><g transform="translate(8,143)" ><path fill="black" d="M79 730 L310 730 L310 638 L79 638 L79 730 Z " /></g></glyph>
<glyph glyph-name="imacron" unicode="&#x12b;" horiz-adv-x="407" >
<path fill="black" d="M29 101 L146 118 L146 430 L52 441 L52 549 L278 549 L278 118 L376 101 L376 0 L29 0 L29 101 Z " /><g transform="translate(8,-22)" ><path fill="black" d="M79 730 L310 730 L310 638 L79 638 L79 730 Z " /></g></glyph>
<glyph glyph-name="Ibreve" unicode="&#x12c;" horiz-adv-x="437" >
<path fill="black" d="M40 102 L139 116 L139 598 L40 612 L40 714 L368 714 L368 612 L271 598 L271 116 L368 102 L368 0 L40 0 L40 102 Z " /><g transform="translate(0,165)" ><path fill="black" d="M154 767 C154.667 720.333 170.667 697 202 697 C232.667 697 250.333 717.667 253 767 L328 767 C329.333 668.333 278 608 202 608 C130 608 78 661.667 78 767 L154 767 Z " /></g></glyph>
<glyph glyph-name="ibreve" unicode="&#x12d;" horiz-adv-x="407" >
<path fill="black" d="M29 101 L146 118 L146 430 L52 441 L52 549 L278 549 L278 118 L376 101 L376 0 L29 0 L29 101 Z " /><path fill="black" d="M154 767 C154.667 720.333 170.667 697 202 697 C232.667 697 250.333 717.667 253 767 L328 767 C329.333 668.333 278 608 202 608 C130 608 78 661.667 78 767 L154 767 Z " /></glyph>
<glyph glyph-name="Iogonek" unicode="&#x12e;" horiz-adv-x="437" d="M42 102 L141 116 L141 598 L42 612 L42 714 L370 714 L370 612 L273 598 L273 116 L370 102 L370 0 L291 0 C257.667 -45.3333 253 -74 253 -106 C253 -132.667 264.667 -150 286 -150 C299.333 -150 307.333 -146 314 -142 L314 -224 C302 -230.667 282 -236 258 -236 C190 -236 159 -198 159 -134 C159 -90 173.333 -42.6667 212 0 L42 0 L42 102 Z " />
<glyph glyph-name="iogonek" unicode="&#x12f;" horiz-adv-x="437" d="M31 101 L148 118 L148 430 L54 441 L54 549 L280 549 L280 118 L378 101 L378 0 L288 0 C254.667 -45.3333 250 -74 250 -106 C250 -132.667 261.667 -150 283 -150 C296.333 -150 304.333 -146 311 -142 L311 -224 C299 -230.667 279 -236 255 -236 C187 -236 156 -198 156 -134 C156 -90 170.333 -42.6667 209 0 L31 0 L31 101 Z M214 614 C166 614 138 639.667 138 693 C138 745.667 163.333 772 214 772 C264 772 289 745.667 289 693 C289 642.333 264.667 614 214 614 Z " />
<glyph glyph-name="Idotaccent" unicode="&#x130;" horiz-adv-x="437" >
<path fill="black" d="M40 102 L139 116 L139 598 L40 612 L40 714 L368 714 L368 612 L271 598 L271 116 L368 102 L368 0 L40 0 L40 102 Z " /><g transform="translate(0,165)" ><path fill="black" d="M203 614 C155 614 127 639.667 127 693 C127 745.667 152.333 772 203 772 C253 772 278 745.667 278 693 C278 642.333 253.667 614 203 614 Z " /></g></glyph>
<glyph glyph-name="dotlessi" unicode="&#x131;" horiz-adv-x="407" d="M29 101 L146 118 L146 430 L52 441 L52 549 L278 549 L278 118 L376 101 L376 0 L29 0 L29 101 Z " />
<glyph glyph-name="IJ" unicode="&#x132;" horiz-adv-x="437" d="M44 132 C77.3333 117.333 105.333 113 120 113 C182.667 113 232 158 232 270 L232 714 L364 714 L364 239 C364 95 285.182 -9 137 -9 C103 -9 72 -2 44 12 L44 132 Z M44 214 L44 714 L176 714 L176 214 L44 214 Z " />
<glyph glyph-name="ij" unicode="&#x133;" horiz-adv-x="437" d="M91 -103 C123 -115 151.333 -122 174 -122 C219.333 -122 231 -93 231 -21 L231 549 L364 549 L364 -46 C364 -176.667 320.667 -245 202 -245 C166 -245 129 -237.667 91 -223 L91 -103 Z M48 0 L48 549 L180 549 L180 0 L48 0 Z M114 614 C66 614 38 639.667 38 693 C38 745.667 63.3333 772 114 772 C164 772 189 745.667 189 693 C189 642.333 164.667 614 114 614 Z M290 614 C242 614 214 639.667 214 693 C214 745.667 239.333 772 290 772 C340 772 365 745.667 365 693 C365 642.333 340.667 614 290 614 Z " />
<glyph glyph-name="Jcircumflex" unicode="&#x134;" horiz-adv-x="437" >
<path fill="black" d="M33 132 C66.3333 117.333 94.3333 113 109 113 C171.667 113 221 158 221 270 L221 714 L353 714 L353 239 C353 95 274.182 -9 126 -9 C92 -9 61 -2 33 12 L33 132 Z " /><g transform="translate(83,165)" ><path fill="black" d="M68 606 L68 619 C92.4793 659.799 129.672 728.683 143 766 L264 766 C281.333 722 306 668.333 338 619 L338 606 L261 606 C243.667 627.333 225.667 653.333 203 688 C179 653.333 161.667 624.667 147 606 L68 606 Z " /></g></glyph>
<glyph glyph-name="jcircumflex" unicode="&#x135;" horiz-adv-x="407" >
<path fill="black" d="M21 -103 C57 -115 104.333 -122 123 -122 C167 -122 177 -95.6667 177 -21 L177 429 L59 441 L59 549 L310 549 L310 -46 C310 -180.667 267 -245 143 -245 C112.333 -245 61 -237.667 21 -223 L21 -103 Z " /><g transform="translate(37,0)" ><path fill="black" d="M68 606 L68 619 C92.4793 659.799 129.672 728.683 143 766 L264 766 C281.333 722 306 668.333 338 619 L338 606 L261 606 C243.667 627.333 225.667 653.333 203 688 C179 653.333 161.667 624.667 147 606 L68 606 Z " /></g></glyph>
<glyph glyph-name="uni0136" unicode="&#x136;" horiz-adv-x="437" >
<path fill="black" d="M21 0 L21 714 L149 714 L149 372 C162.333 408 181 445.333 193 488 L262 714 L403 714 L288 392 L401 0 L254 0 L187 284 L149 232 L149 0 L21 0 Z " /><g transform="translate(642,0)" ><path fill="black" d="M-514 -221 L-514 -213 C-508.663 -180.98 -500 -98.3484 -500 -61 L-377 -61 L-377 -69 C-389 -118.333 -408.667 -178.333 -430 -221 L-514 -221 Z " /></g></glyph>
<glyph glyph-name="uni0137" unicode="&#x137;" horiz-adv-x="437" >
<path fill="black" d="M25 0 L25 760 L152 760 L152 442 C152 395.333 147 347.333 143 302 L145 302 C157 328.667 172 354.333 184 381 L257 549 L403 549 L266 290 L403 0 L253 0 L176 205 L152 178 L152 0 L25 0 Z " /><g transform="translate(640,0)" ><path fill="black" d="M-514 -221 L-514 -213 C-508.663 -180.98 -500 -98.3484 -500 -61 L-377 -61 L-377 -69 C-389 -118.333 -408.667 -178.333 -430 -221 L-514 -221 Z " /></g></glyph>
<glyph glyph-name="kgreenlandic" unicode="&#x138;" horiz-adv-x="437" d="M22 0 L22 549 L152 549 L152 444 C152 397.333 147 348.333 143 303 L144 303 C158.667 329.667 172 356.333 184 383 L254 549 L404 549 L267 289 L404 0 L248 0 L174 204 L152 177 L152 0 L22 0 Z " />
<glyph glyph-name="Lacute" unicode="&#x139;" horiz-adv-x="437" >
<path fill="black" d="M378 126 L378 0 L43 0 L43 714 L178 714 L178 126 L378 126 Z " /><g transform="translate(-69,165)" ><path fill="black" d="M118 606 L118 619 C143.333 672.333 161.333 720.667 176 766 L317 766 L317 757 C298.177 719.353 242.156 647.321 206 606 L118 606 Z " /></g></glyph>
<glyph glyph-name="lacute" unicode="&#x13a;" horiz-adv-x="437" >
<path fill="black" d="M29 101 L139 118 L139 647 L47 657 L47 760 L271 760 L271 118 L376 101 L376 0 L29 0 L29 101 Z " /><g transform="translate(24,211)" ><path fill="black" d="M118 606 L118 619 C143.333 672.333 161.333 720.667 176 766 L317 766 L317 757 C298.177 719.353 242.156 647.321 206 606 L118 606 Z " /></g></glyph>
<glyph glyph-name="uni013B" unicode="&#x13b;" horiz-adv-x="437" >
<path fill="black" d="M378 126 L378 0 L43 0 L43 714 L178 714 L178 126 L378 126 Z " /><g transform="translate(657,0)" ><path fill="black" d="M-514 -221 L-514 -213 C-508.663 -180.98 -500 -98.3484 -500 -61 L-377 -61 L-377 -69 C-389 -118.333 -408.667 -178.333 -430 -221 L-514 -221 Z " /></g></glyph>
<glyph glyph-name="uni013C" unicode="&#x13c;" horiz-adv-x="437" >
<path fill="black" d="M29 101 L139 118 L139 647 L47 657 L47 760 L271 760 L271 118 L376 101 L376 0 L29 0 L29 101 Z " /><g transform="translate(645,0)" ><path fill="black" d="M-514 -221 L-514 -213 C-508.663 -180.98 -500 -98.3484 -500 -61 L-377 -61 L-377 -69 C-389 -118.333 -408.667 -178.333 -430 -221 L-514 -221 Z " /></g></glyph>
<glyph glyph-name="Lcaron" unicode="&#x13d;" horiz-adv-x="437" >
<g transform="translate(-1,0)" ><path fill="black" d="M378 126 L378 0 L43 0 L43 714 L178 714 L178 126 L378 126 Z " /></g><g transform="translate(790,775)" ><path fill="black" d="M-514 -221 L-514 -213 C-508.663 -180.98 -500 -98.3484 -500 -61 L-377 -61 L-377 -69 C-389 -118.333 -408.667 -178.333 -430 -221 L-514 -221 Z " /></g></glyph>
<glyph glyph-name="lcaron" unicode="&#x13e;" horiz-adv-x="437" >
<g transform="translate(-1,0)" ><path fill="black" d="M29 101 L139 118 L139 647 L47 657 L47 760 L271 760 L271 118 L376 101 L376 0 L29 0 L29 101 Z " /></g><g transform="translate(839,821)" ><path fill="black" d="M-514 -221 L-514 -213 C-508.663 -180.98 -500 -98.3484 -500 -61 L-377 -61 L-377 -69 C-389 -118.333 -408.667 -178.333 -430 -221 L-514 -221 Z " /></g></glyph>
<glyph glyph-name="Ldot" unicode="&#x13f;" horiz-adv-x="437" >
<g transform="translate(2,0)" ><path fill="black" d="M378 126 L378 0 L43 0 L43 714 L178 714 L178 126 L378 126 Z " /></g><g transform="translate(131,324)" ><path fill="black" d="M205 -11 C159.667 -11 131 17.6667 131 71 C131 125.667 155.667 153 205 153 C247.667 153 276 125.667 276 71 C276 17.6667 246.333 -11 205 -11 Z " /></g></glyph>
<glyph glyph-name="ldot" unicode="&#x140;" horiz-adv-x="437" >
<path fill="black" d="M29 101 L139 118 L139 647 L47 657 L47 760 L271 760 L271 118 L376 101 L376 0 L29 0 L29 101 Z " /><g transform="translate(206,328)" ><path fill="black" d="M205 -11 C159.667 -11 131 17.6667 131 71 C131 125.667 155.667 153 205 153 C247.667 153 276 125.667 276 71 C276 17.6667 246.333 -11 205 -11 Z " /></g></glyph>
<glyph glyph-name="Lslash" unicode="&#x141;" horiz-adv-x="437" d="M43 280 L-2 252 L-2 350 L43 378 L43 714 L178 714 L178 460 L311 542 L311 445 L178 363 L178 126 L378 126 L378 0 L43 0 L43 280 Z " />
<glyph glyph-name="lslash" unicode="&#x142;" horiz-adv-x="437" d="M31 101 L141 118 L141 305 L55 252 L55 350 L141 403 L141 647 L49 657 L49 760 L273 760 L273 484 L367 542 L367 445 L273 387 L273 118 L378 101 L378 0 L31 0 L31 101 Z " />
<glyph glyph-name="Nacute" unicode="&#x143;" horiz-adv-x="437" >
<path fill="black" d="M22 0 L22 714 L199 714 L278 124 L284 124 C281.366 187.22 270 297.94 270 366 L270 714 L386 714 L386 0 L212 0 L128 597 L122 597 C126 503.667 136 426.667 136 348 L136 0 L22 0 Z " /><g transform="translate(29,165)" ><path fill="black" d="M118 606 L118 619 C143.333 672.333 161.333 720.667 176 766 L317 766 L317 757 C298.177 719.353 242.156 647.321 206 606 L118 606 Z " /></g></glyph>
<glyph glyph-name="nacute" unicode="&#x144;" horiz-adv-x="437" >
<path fill="black" d="M26 0 L26 549 L137 549 L152 485 L157 485 C179.667 531.667 209.333 559 256 559 C337.333 559 384 498 384 358 L384 0 L251 0 L251 335 C251 411 238.667 441 212 441 C173.333 441 161 398.333 161 293 L161 0 L26 0 Z " /><g transform="translate(34,0)" ><path fill="black" d="M118 606 L118 619 C143.333 672.333 161.333 720.667 176 766 L317 766 L317 757 C298.177 719.353 242.156 647.321 206 606 L118 606 Z " /></g></glyph>
<glyph glyph-name="uni0145" unicode="&#x145;" horiz-adv-x="437" >
<path fill="black" d="M22 0 L22 714 L199 714 L278 124 L284 124 C281.366 187.22 270 297.94 270 366 L270 714 L386 714 L386 0 L212 0 L128 597 L122 597 C126 503.667 136 426.667 136 348 L136 0 L22 0 Z " /><g transform="translate(640,0)" ><path fill="black" d="M-514 -221 L-514 -213 C-508.663 -180.98 -500 -98.3484 -500 -61 L-377 -61 L-377 -69 C-389 -118.333 -408.667 -178.333 -430 -221 L-514 -221 Z " /></g></glyph>
<glyph glyph-name="uni0146" unicode="&#x146;" horiz-adv-x="437" >
<path fill="black" d="M26 0 L26 549 L137 549 L152 485 L157 485 C179.667 531.667 209.333 559 256 559 C337.333 559 384 498 384 358 L384 0 L251 0 L251 335 C251 411 238.667 441 212 441 C173.333 441 161 398.333 161 293 L161 0 L26 0 Z " /><g transform="translate(644,0)" ><path fill="black" d="M-514 -221 L-514 -213 C-508.663 -180.98 -500 -98.3484 -500 -61 L-377 -61 L-377 -69 C-389 -118.333 -408.667 -178.333 -430 -221 L-514 -221 Z " /></g></glyph>
<glyph glyph-name="Ncaron" unicode="&#x147;" horiz-adv-x="437" >
<path fill="black" d="M22 0 L22 714 L199 714 L278 124 L284 124 C281.366 187.22 270 297.94 270 366 L270 714 L386 714 L386 0 L212 0 L128 597 L122 597 C126 503.667 136 426.667 136 348 L136 0 L22 0 Z " /><g transform="translate(5,165)" ><path fill="black" d="M68 766 L146 766 C163.333 746 181.333 717.333 204 684 C228 720 242.333 743.333 261 766 L339 766 L339 754 C317.645 713.96 280.015 648.707 264 606 L143 606 C129.535 646.395 92.2129 713.645 68 754 L68 766 Z " /></g></glyph>
<glyph glyph-name="ncaron" unicode="&#x148;" horiz-adv-x="437" >
<path fill="black" d="M26 0 L26 549 L137 549 L152 485 L157 485 C179.667 531.667 209.333 559 256 559 C337.333 559 384 498 384 358 L384 0 L251 0 L251 335 C251 411 238.667 441 212 441 C173.333 441 161 398.333 161 293 L161 0 L26 0 Z " /><g transform="translate(10,0)" ><path fill="black" d="M68 766 L146 766 C163.333 746 181.333 717.333 204 684 C228 720 242.333 743.333 261 766 L339 766 L339 754 C317.645 713.96 280.015 648.707 264 606 L143 606 C129.535 646.395 92.2129 713.645 68 754 L68 766 Z " /></g></glyph>
<glyph glyph-name="napostrophe" unicode="&#x149;" horiz-adv-x="437" d="M34 0 L34 549 L144 549 L160 479 L168 479 C189.333 531 215.333 559 262 559 C338 559 384 498 384 358 L384 0 L250 0 L250 317 C250 398.333 238.667 431 212 431 C177.333 431 169 379 169 259 L169 0 L34 0 Z M-103 444 C-92.3375 521.303 -76.7024 641.036 -74 714 L52 714 L57 703 C43.6667 603 24.6667 517.333 2 444 L-103 444 Z " />
<glyph glyph-name="Eng" unicode="&#x14a;" horiz-adv-x="437" d="M165 -102 C178.333 -108.667 191.667 -112 209 -112 C254.333 -112 277.333 -74.6667 278 0 L212 0 L128 597 L122 597 C126 503.667 136 426.667 136 348 L136 0 L22 0 L22 714 L199 714 L278 124 L284 124 C281.366 187.22 270 297.94 270 366 L270 714 L386 714 L386 0 L385 0 L385 -2 C385 -135.333 338.333 -212 229 -212 C205.667 -212 184.333 -208.333 165 -201 L165 -102 Z " />
<glyph glyph-name="eng" unicode="&#x14b;" horiz-adv-x="437" d="M173 -117 C186.333 -123 197.333 -126 206 -126 C227.153 -126 124.072 -43.318 233 140 L251 170 L251 335 C251 411 238.667 441 212 441 C173.333 441 161 398.333 161 293 L161 0 L26 0 L26 549 L137 549 L152 485 L157 485 C179.667 531.667 209.333 559 256 559 C337.333 559 384 498 384 358 L384 0 L380 0 L380 -59 C380 -160.307 334.563 -240 236 -240 C213.333 -240 192.333 -236.333 173 -229 L173 -117 Z " />
<glyph glyph-name="Omacron" unicode="&#x14c;" horiz-adv-x="437" >
<path fill="black" d="M203 -8 C71.2597 -8 11 131.636 11 360 C11 590.277 64.381 725 202 725 C337.082 725 396 588.433 396 358 C396 130.416 335.234 -8 203 -8 Z M205 119 C253.13 119 260 212.9 260 358 C260 516.667 250.667 598 204 598 C158.667 598 147 508.333 147 359 C147 211 158.333 119 205 119 Z " /><g transform="translate(8,143)" ><path fill="black" d="M79 730 L310 730 L310 638 L79 638 L79 730 Z " /></g></glyph>
<glyph glyph-name="omacron" unicode="&#x14d;" horiz-adv-x="437" >
<path fill="black" d="M203 -10 C63.4675 -10 15 122.411 15 277 C15 438.749 72.3333 559 203 559 C314.004 559 392 458.281 392 277 C392 126.152 351.13 -10 203 -10 Z M203 113 C239 113 253 167.667 253 277 C253 383 236.333 436 203 436 C168.333 436 154 385 154 277 C154 167.667 170.333 113 203 113 Z " /><g transform="translate(8,-22)" ><path fill="black" d="M79 730 L310 730 L310 638 L79 638 L79 730 Z " /></g></glyph>
<glyph glyph-name="Obreve" unicode="&#x14e;" horiz-adv-x="437" >
<path fill="black" d="M203 -8 C71.2597 -8 11 131.636 11 360 C11 590.277 64.381 725 202 725 C337.082 725 396 588.433 396 358 C396 130.416 335.234 -8 203 -8 Z M205 119 C253.13 119 260 212.9 260 358 C260 516.667 250.667 598 204 598 C158.667 598 147 508.333 147 359 C147 211 158.333 119 205 119 Z " /><g transform="translate(0,165)" ><path fill="black" d="M154 767 C154.667 720.333 170.667 697 202 697 C232.667 697 250.333 717.667 253 767 L328 767 C329.333 668.333 278 608 202 608 C130 608 78 661.667 78 767 L154 767 Z " /></g></glyph>
<glyph glyph-name="obreve" unicode="&#x14f;" horiz-adv-x="437" >
<path fill="black" d="M203 -10 C63.4675 -10 15 122.411 15 277 C15 438.749 72.3333 559 203 559 C314.004 559 392 458.281 392 277 C392 126.152 351.13 -10 203 -10 Z M203 113 C239 113 253 167.667 253 277 C253 383 236.333 436 203 436 C168.333 436 154 385 154 277 C154 167.667 170.333 113 203 113 Z " /><path fill="black" d="M154 767 C154.667 720.333 170.667 697 202 697 C232.667 697 250.333 717.667 253 767 L328 767 C329.333 668.333 278 608 202 608 C130 608 78 661.667 78 767 L154 767 Z " /></glyph>
<glyph glyph-name="Ohungarumlaut" unicode="&#x150;" horiz-adv-x="437" d="M203 -8 C71.2597 -8 11 131.636 11 360 C11 590.277 64.381 725 202 725 C337.082 725 396 588.433 396 358 C396 130.416 335.234 -8 203 -8 Z M205 119 C253.13 119 260 212.9 260 358 C260 516.667 250.667 598 204 598 C158.667 598 147 508.333 147 359 C147 211 158.333 119 205 119 Z M94 771 L94 784 C120.667 844 141 904.333 149 931 L259 931 L259 922 C239.978 881.239 189.326 808.713 157 771 L94 771 Z M231 771 L231 784 C257.667 844 278 904.333 286 931 L396 931 L396 922 C376.978 881.239 326.326 808.713 294 771 L231 771 Z " />
<glyph glyph-name="ohungarumlaut" unicode="&#x151;" horiz-adv-x="437" d="M203 -10 C63.4675 -10 15 122.411 15 277 C15 438.749 72.3333 559 203 559 C314.004 559 392 458.281 392 277 C392 126.152 351.13 -10 203 -10 Z M203 113 C239 113 253 167.667 253 277 C253 383 236.333 436 203 436 C168.333 436 154 385 154 277 C154 167.667 170.333 113 203 113 Z M94 606 L94 619 C120.667 679 141 739.333 149 766 L259 766 L259 757 C239.978 716.239 189.326 643.713 157 606 L94 606 Z M231 606 L231 619 C257.667 679 278 739.333 286 766 L396 766 L396 757 C376.978 716.239 326.326 643.713 294 606 L231 606 Z " />
<glyph glyph-name="OE" unicode="&#x152;" horiz-adv-x="437" d="M393 126 L393 0 L223 0 C204.333 -8 184.667 -11 166 -11 C40.7446 -11 11 133.364 11 361 C11 577 40.9004 725 154 725 C171.333 725 189 722 217 714 L393 714 L393 588 L316 588 L316 434 L378 434 L378 307 L316 307 L316 126 L393 126 Z M203 594 C192.333 603.333 184.667 604 178 604 C142 604 129 512.333 129 355 C129 195 139.333 113 174 113 C184.667 113 192.333 114 203 122 L203 594 Z " />
<glyph glyph-name="oe" unicode="&#x153;" horiz-adv-x="437" d="M395 26 C372.333 0.666667 345.333 -10 316 -10 C281.333 -10 246 11 222 59 C196.667 13 166.667 -10 132 -10 C41.3333 -10 10 98.3333 10 281 C10 441.182 29.3853 558 128 558 C164 558 195.667 534.667 217 484 C234.333 533.333 259 558 291 558 C379.918 558 401 440.723 401 279 L401 236 L274 236 C276.667 152 291.667 103 333 103 C351.667 103 375 114 395 138 L395 26 Z M138 106 C160.667 106 161 166.667 161 280 C161 388 160.667 444 138 444 C116.667 444 115 389.333 115 280 C115 166.667 116.667 106 138 106 Z M306 331 C306 415 298 443 286 443 C273.333 443 267 405.667 267 331 L306 331 Z " />
<glyph glyph-name="Racute" unicode="&#x154;" horiz-adv-x="437" >
<path fill="black" d="M36 0 L36 714 L182 714 C312.667 714 378 644.333 378 505 C378 409 359.667 345.667 305 307 L401 0 L260 0 L193 271 L164 271 L164 0 L36 0 Z M164 389 L179 389 C227.667 389 252 424.667 252 496 C252 564 230.667 595 180 595 L164 595 L164 389 Z " /><g transform="translate(24,165)" ><path fill="black" d="M118 606 L118 619 C143.333 672.333 161.333 720.667 176 766 L317 766 L317 757 C298.177 719.353 242.156 647.321 206 606 L118 606 Z " /></g></glyph>
<glyph glyph-name="racute" unicode="&#x155;" horiz-adv-x="437" >
<path fill="black" d="M18 101 L101 118 L101 430 L25 441 L25 549 L196 549 L208 457 L215 457 C229.667 517 265 559 325 559 C342.333 559 368.667 554.667 398 540 L364 397 C346.667 407.667 322.667 413 304 413 C253.333 413 227 360 227 276 L227 118 L329 101 L329 0 L18 0 L18 101 Z " /><g transform="translate(38,0)" ><path fill="black" d="M118 606 L118 619 C143.333 672.333 161.333 720.667 176 766 L317 766 L317 757 C298.177 719.353 242.156 647.321 206 606 L118 606 Z " /></g></glyph>
<glyph glyph-name="uni0156" unicode="&#x156;" horiz-adv-x="437" >
<path fill="black" d="M36 0 L36 714 L182 714 C312.667 714 378 644.333 378 505 C378 409 359.667 345.667 305 307 L401 0 L260 0 L193 271 L164 271 L164 0 L36 0 Z M164 389 L179 389 C227.667 389 252 424.667 252 496 C252 564 230.667 595 180 595 L164 595 L164 389 Z " /><g transform="translate(652,0)" ><path fill="black" d="M-514 -221 L-514 -213 C-508.663 -180.98 -500 -98.3484 -500 -61 L-377 -61 L-377 -69 C-389 -118.333 -408.667 -178.333 -430 -221 L-514 -221 Z " /></g></glyph>
<glyph glyph-name="uni0157" unicode="&#x157;" horiz-adv-x="437" >
<path fill="black" d="M18 101 L101 118 L101 430 L25 441 L25 549 L196 549 L208 457 L215 457 C229.667 517 265 559 325 559 C342.333 559 368.667 554.667 398 540 L364 397 C346.667 407.667 322.667 413 304 413 C253.333 413 227 360 227 276 L227 118 L329 101 L329 0 L18 0 L18 101 Z " /><g transform="translate(607,0)" ><path fill="black" d="M-514 -221 L-514 -213 C-508.663 -180.98 -500 -98.3484 -500 -61 L-377 -61 L-377 -69 C-389 -118.333 -408.667 -178.333 -430 -221 L-514 -221 Z " /></g></glyph>
<glyph glyph-name="Rcaron" unicode="&#x158;" horiz-adv-x="437" >
<path fill="black" d="M36 0 L36 714 L182 714 C312.667 714 378 644.333 378 505 C378 409 359.667 345.667 305 307 L401 0 L260 0 L193 271 L164 271 L164 0 L36 0 Z M164 389 L179 389 C227.667 389 252 424.667 252 496 C252 564 230.667 595 180 595 L164 595 L164 389 Z " /><g transform="translate(0,165)" ><path fill="black" d="M68 766 L146 766 C163.333 746 181.333 717.333 204 684 C228 720 242.333 743.333 261 766 L339 766 L339 754 C317.645 713.96 280.015 648.707 264 606 L143 606 C129.535 646.395 92.2129 713.645 68 754 L68 766 Z " /></g></glyph>
<glyph glyph-name="rcaron" unicode="&#x159;" horiz-adv-x="437" >
<path fill="black" d="M18 101 L101 118 L101 430 L25 441 L25 549 L196 549 L208 457 L215 457 C229.667 517 265 559 325 559 C342.333 559 368.667 554.667 398 540 L364 397 C346.667 407.667 322.667 413 304 413 C253.333 413 227 360 227 276 L227 118 L329 101 L329 0 L18 0 L18 101 Z " /><g transform="translate(14,0)" ><path fill="black" d="M68 766 L146 766 C163.333 746 181.333 717.333 204 684 C228 720 242.333 743.333 261 766 L339 766 L339 754 C317.645 713.96 280.015 648.707 264 606 L143 606 C129.535 646.395 92.2129 713.645 68 754 L68 766 Z " /></g></glyph>
<glyph glyph-name="Sacute" unicode="&#x15a;" horiz-adv-x="437" >
<path fill="black" d="M37 173 C82.3333 137 125.333 114 176 114 C232.944 114 241 152.052 241 192 C241 246.748 214.374 265.12 155 311 C80.9828 366.513 31 419.932 31 528 C31 652 97.6667 724 215 724 C271 724 317.333 708 368 676 L329 558 C286.333 588.667 254 601 222 601 C179.333 601 166 570.667 166 528 C166 482.667 187.333 462.667 238 424 C333.792 352.156 376 311.824 376 199 C376 55 302.333 -10 181 -10 C131.667 -10 85 1 37 33 L37 173 Z " /><g transform="translate(32,165)" ><path fill="black" d="M118 606 L118 619 C143.333 672.333 161.333 720.667 176 766 L317 766 L317 757 C298.177 719.353 242.156 647.321 206 606 L118 606 Z " /></g></glyph>
<glyph glyph-name="sacute" unicode="&#x15b;" horiz-adv-x="437" >
<path fill="black" d="M46 151 C83.3333 127 142.667 110 188 110 C230.667 110 238 128.333 238 155 C238 184.005 222.046 196.53 151 236 C83 274.667 45 326.333 45 401 C45 502.333 103.667 559 221 559 C273 559 321.333 547.333 376 518 L335 408 C289.667 432 258.333 441 229 441 C194.333 441 184 424.667 184 402 C184 374 208 361.333 264 328 C346.612 277.367 373 248.178 373 163 C373 49.6667 314 -10 182 -10 C130 -10 86 0.666667 46 22 L46 151 Z " /><g transform="translate(35,0)" ><path fill="black" d="M118 606 L118 619 C143.333 672.333 161.333 720.667 176 766 L317 766 L317 757 C298.177 719.353 242.156 647.321 206 606 L118 606 Z " /></g></glyph>
<glyph glyph-name="Scircumflex" unicode="&#x15c;" horiz-adv-x="437" >
<path fill="black" d="M37 173 C82.3333 137 125.333 114 176 114 C232.944 114 241 152.052 241 192 C241 246.748 214.374 265.12 155 311 C80.9828 366.513 31 419.932 31 528 C31 652 97.6667 724 215 724 C271 724 317.333 708 368 676 L329 558 C286.333 588.667 254 601 222 601 C179.333 601 166 570.667 166 528 C166 482.667 187.333 462.667 238 424 C333.792 352.156 376 311.824 376 199 C376 55 302.333 -10 181 -10 C131.667 -10 85 1 37 33 L37 173 Z " /><g transform="translate(8,165)" ><path fill="black" d="M68 606 L68 619 C92.4793 659.799 129.672 728.683 143 766 L264 766 C281.333 722 306 668.333 338 619 L338 606 L261 606 C243.667 627.333 225.667 653.333 203 688 C179 653.333 161.667 624.667 147 606 L68 606 Z " /></g></glyph>
<glyph glyph-name="scircumflex" unicode="&#x15d;" horiz-adv-x="437" >
<path fill="black" d="M46 151 C83.3333 127 142.667 110 188 110 C230.667 110 238 128.333 238 155 C238 184.005 222.046 196.53 151 236 C83 274.667 45 326.333 45 401 C45 502.333 103.667 559 221 559 C273 559 321.333 547.333 376 518 L335 408 C289.667 432 258.333 441 229 441 C194.333 441 184 424.667 184 402 C184 374 208 361.333 264 328 C346.612 277.367 373 248.178 373 163 C373 49.6667 314 -10 182 -10 C130 -10 86 0.666667 46 22 L46 151 Z " /><g transform="translate(11,0)" ><path fill="black" d="M68 606 L68 619 C92.4793 659.799 129.672 728.683 143 766 L264 766 C281.333 722 306 668.333 338 619 L338 606 L261 606 C243.667 627.333 225.667 653.333 203 688 C179 653.333 161.667 624.667 147 606 L68 606 Z " /></g></glyph>
<glyph glyph-name="Scedilla" unicode="&#x15e;" horiz-adv-x="437" d="M129 -158 C144.333 -162 157.333 -164 168 -164 C190.667 -164 201 -150.667 201 -128 C201 -98.6667 179.667 -84.6667 149 -82 L172 -10 C125.333 -8.66667 82.3333 2.33333 37 33 L37 173 C82.3333 137 125.333 114 176 114 C232.944 114 241 152.052 241 192 C241 246.748 214.374 265.12 155 311 C80.9828 366.513 31 419.932 31 528 C31 652 97.6667 724 215 724 C271 724 317.333 708 368 676 L329 558 C286.333 588.667 254 601 222 601 C179.333 601 166 570.667 166 528 C166 482.667 187.333 462.667 238 424 C333.792 352.156 376 311.824 376 199 C376 80.3333 325.667 14.6667 239 -4 L229 -40 C273.667 -50.6667 296 -82 296 -134 C296 -199.333 261 -240 189 -240 C170.333 -240 146.333 -237.333 129 -232 L129 -158 Z " />
<glyph glyph-name="scedilla" unicode="&#x15f;" horiz-adv-x="437" d="M140 -158 C155.333 -162 168.333 -164 179 -164 C201.667 -164 212 -150.667 212 -128 C212 -98.6667 190.667 -84.6667 160 -82 L183 -10 L182 -10 C130 -10 86 0.666667 46 22 L46 151 C83.3333 127 142.667 110 188 110 C230.667 110 238 128.333 238 155 C238 184.005 222.046 196.53 151 236 C83 274.667 45 326.333 45 401 C45 502.333 103.667 559 221 559 C273 559 321.333 547.333 376 518 L335 408 C289.667 432 258.333 441 229 441 C194.333 441 184 424.667 184 402 C184 374 208 361.333 264 328 C346.612 277.367 373 248.178 373 163 C373 71 334 15.6667 250 -3 L240 -40 C284.667 -50.6667 307 -82 307 -134 C307 -199.333 272 -240 200 -240 C181.333 -240 157.333 -237.333 140 -232 L140 -158 Z " />
<glyph glyph-name="Scaron" unicode="&#x160;" horiz-adv-x="437" >
<path fill="black" d="M37 173 C82.3333 137 125.333 114 176 114 C232.944 114 241 152.052 241 192 C241 246.748 214.374 265.12 155 311 C80.9828 366.513 31 419.932 31 528 C31 652 97.6667 724 215 724 C271 724 317.333 708 368 676 L329 558 C286.333 588.667 254 601 222 601 C179.333 601 166 570.667 166 528 C166 482.667 187.333 462.667 238 424 C333.792 352.156 376 311.824 376 199 C376 55 302.333 -10 181 -10 C131.667 -10 85 1 37 33 L37 173 Z " /><g transform="translate(8,165)" ><path fill="black" d="M68 766 L146 766 C163.333 746 181.333 717.333 204 684 C228 720 242.333 743.333 261 766 L339 766 L339 754 C317.645 713.96 280.015 648.707 264 606 L143 606 C129.535 646.395 92.2129 713.645 68 754 L68 766 Z " /></g></glyph>
<glyph glyph-name="scaron" unicode="&#x161;" horiz-adv-x="437" >
<path fill="black" d="M46 151 C83.3333 127 142.667 110 188 110 C230.667 110 238 128.333 238 155 C238 184.005 222.046 196.53 151 236 C83 274.667 45 326.333 45 401 C45 502.333 103.667 559 221 559 C273 559 321.333 547.333 376 518 L335 408 C289.667 432 258.333 441 229 441 C194.333 441 184 424.667 184 402 C184 374 208 361.333 264 328 C346.612 277.367 373 248.178 373 163 C373 49.6667 314 -10 182 -10 C130 -10 86 0.666667 46 22 L46 151 Z " /><g transform="translate(11,0)" ><path fill="black" d="M68 766 L146 766 C163.333 746 181.333 717.333 204 684 C228 720 242.333 743.333 261 766 L339 766 L339 754 C317.645 713.96 280.015 648.707 264 606 L143 606 C129.535 646.395 92.2129 713.645 68 754 L68 766 Z " /></g></glyph>
<glyph glyph-name="uni0162" unicode="&#x162;" horiz-adv-x="437" d="M129 -158 C144.333 -162 157.333 -164 168 -164 C190.667 -164 201 -150.667 201 -128 C201 -98.6667 179.667 -84.6667 149 -82 L175 0 L138 0 L138 588 L13 588 L13 714 L395 714 L395 588 L271 588 L271 0 L240 0 L229 -40 C273.667 -50.6667 296 -82 296 -134 C296 -199.333 261 -240 189 -240 C170.333 -240 146.333 -237.333 129 -232 L129 -158 Z " />
<glyph glyph-name="uni0163" unicode="&#x163;" horiz-adv-x="437" d="M173 -158 C188.333 -162 201.333 -164 212 -164 C234.667 -164 245 -150.667 245 -128 C245 -98.6667 223.667 -84.6667 193 -82 L217 -6 C149 10 102 68 102 180 L102 429 L5 429 L5 497 L111 549 L153 681 L237 681 L237 549 L394 549 L394 429 L236 429 L236 206 C236 131.385 272.364 116 300 116 C322.667 116 355 121.333 395 136 L395 15 C364.333 1.66667 319.667 -6.33333 281 -9 L273 -40 C317.667 -50.6667 340 -82 340 -134 C340 -199.333 305 -240 233 -240 C214.333 -240 190.333 -237.333 173 -232 L173 -158 Z " />
<glyph glyph-name="Tcaron" unicode="&#x164;" horiz-adv-x="437" >
<path fill="black" d="M138 0 L138 588 L13 588 L13 714 L395 714 L395 588 L271 588 L271 0 L138 0 Z " /><g transform="translate(0,165)" ><path fill="black" d="M68 766 L146 766 C163.333 746 181.333 717.333 204 684 C228 720 242.333 743.333 261 766 L339 766 L339 754 C317.645 713.96 280.015 648.707 264 606 L143 606 C129.535 646.395 92.2129 713.645 68 754 L68 766 Z " /></g></glyph>
<glyph glyph-name="tcaron" unicode="&#x165;" horiz-adv-x="437" >
<g transform="translate(2,0)" ><path fill="black" d="M102 429 L5 429 L5 497 L111 549 L153 681 L237 681 L237 549 L394 549 L394 429 L236 429 L236 206 C236 131.385 272.364 116 300 116 C322.667 116 355 121.333 395 136 L395 15 C356.333 -1 300.667 -10 258 -10 C170 -10 102 48.4156 102 180 L102 429 Z " /></g><g transform="translate(844,821)" ><path fill="black" d="M-514 -221 L-514 -213 C-508.663 -180.98 -500 -98.3484 -500 -61 L-377 -61 L-377 -69 C-389 -118.333 -408.667 -178.333 -430 -221 L-514 -221 Z " /></g></glyph>
<glyph glyph-name="Tbar" unicode="&#x166;" horiz-adv-x="437" d="M138 300 L74 300 L74 404 L138 404 L138 588 L13 588 L13 714 L395 714 L395 588 L271 588 L271 404 L332 404 L332 300 L271 300 L271 0 L138 0 L138 300 Z " />
<glyph glyph-name="tbar" unicode="&#x167;" horiz-adv-x="437" d="M102 241 L5 241 L5 335 L102 335 L102 429 L5 429 L5 497 L111 549 L153 681 L237 681 L237 549 L394 549 L394 429 L236 429 L236 335 L396 335 L396 241 L236 241 L236 206 C236 131.385 272.364 116 300 116 C322.667 116 355 121.333 395 136 L395 15 C356.333 -1 300.667 -10 258 -10 C170 -10 102 48.4156 102 180 L102 241 Z " />
<glyph glyph-name="Utilde" unicode="&#x168;" horiz-adv-x="437" >
<path fill="black" d="M19 714 L154 714 L154 276 C154 162.667 157.667 117 203 117 C252.749 117 253 165.922 253 278 L253 714 L388 714 L388 267 C388 79.1818 341.697 -10 204 -10 C66.6667 -10 19 77 19 265 L19 714 Z " /><g transform="translate(0,165)" ><path fill="black" d="M68 611 C68 673.225 79.5325 758 140 758 C184.118 758 215.451 707 250 707 C264.667 707 267.667 723 273 759 L338 759 C335.333 659 307.667 612 265 612 C219.333 612 183 663 156 663 C144 663 136.667 645.667 134 611 L68 611 Z " /></g></glyph>
<glyph glyph-name="utilde" unicode="&#x169;" horiz-adv-x="437" >
<path fill="black" d="M22 549 L157 549 L157 229 C157 149 166.333 114 201 114 C239.667 114 246 159.333 246 274 L246 549 L381 549 L381 0 L270 0 L254 70 L247 70 C225 16.6667 192 -10 148 -10 C70.6667 -10 22 51.6667 22 189 L22 549 Z " /><g transform="translate(-1,0)" ><path fill="black" d="M68 611 C68 673.225 79.5325 758 140 758 C184.118 758 215.451 707 250 707 C264.667 707 267.667 723 273 759 L338 759 C335.333 659 307.667 612 265 612 C219.333 612 183 663 156 663 C144 663 136.667 645.667 134 611 L68 611 Z " /></g></glyph>
<glyph glyph-name="Umacron" unicode="&#x16a;" horiz-adv-x="437" >
<path fill="black" d="M19 714 L154 714 L154 276 C154 162.667 157.667 117 203 117 C252.749 117 253 165.922 253 278 L253 714 L388 714 L388 267 C388 79.1818 341.697 -10 204 -10 C66.6667 -10 19 77 19 265 L19 714 Z " /><g transform="translate(9,143)" ><path fill="black" d="M79 730 L310 730 L310 638 L79 638 L79 730 Z " /></g></glyph>
<glyph glyph-name="umacron" unicode="&#x16b;" horiz-adv-x="437" >
<path fill="black" d="M22 549 L157 549 L157 229 C157 149 166.333 114 201 114 C239.667 114 246 159.333 246 274 L246 549 L381 549 L381 0 L270 0 L254 70 L247 70 C225 16.6667 192 -10 148 -10 C70.6667 -10 22 51.6667 22 189 L22 549 Z " /><g transform="translate(8,-22)" ><path fill="black" d="M79 730 L310 730 L310 638 L79 638 L79 730 Z " /></g></glyph>
<glyph glyph-name="Ubreve" unicode="&#x16c;" horiz-adv-x="437" >
<path fill="black" d="M19 714 L154 714 L154 276 C154 162.667 157.667 117 203 117 C252.749 117 253 165.922 253 278 L253 714 L388 714 L388 267 C388 79.1818 341.697 -10 204 -10 C66.6667 -10 19 77 19 265 L19 714 Z " /><g transform="translate(1,165)" ><path fill="black" d="M154 767 C154.667 720.333 170.667 697 202 697 C232.667 697 250.333 717.667 253 767 L328 767 C329.333 668.333 278 608 202 608 C130 608 78 661.667 78 767 L154 767 Z " /></g></glyph>
<glyph glyph-name="ubreve" unicode="&#x16d;" horiz-adv-x="437" >
<path fill="black" d="M22 549 L157 549 L157 229 C157 149 166.333 114 201 114 C239.667 114 246 159.333 246 274 L246 549 L381 549 L381 0 L270 0 L254 70 L247 70 C225 16.6667 192 -10 148 -10 C70.6667 -10 22 51.6667 22 189 L22 549 Z " /><path fill="black" d="M154 767 C154.667 720.333 170.667 697 202 697 C232.667 697 250.333 717.667 253 767 L328 767 C329.333 668.333 278 608 202 608 C130 608 78 661.667 78 767 L154 767 Z " /></glyph>
<glyph glyph-name="Uring" unicode="&#x16e;" horiz-adv-x="437" >
<path fill="black" d="M19 714 L154 714 L154 276 C154 162.667 157.667 117 203 117 C252.749 117 253 165.922 253 278 L253 714 L388 714 L388 267 C388 79.1818 341.697 -10 204 -10 C66.6667 -10 19 77 19 265 L19 714 Z " /><g transform="translate(2,165)" ><path fill="black" d="M203 598 C135 598 94 647.667 94 721 C94 793 135 842 203 842 C267 842 309 791.667 309 721 C309 649 268.333 598 203 598 Z M202 671 C223.333 671 239 690.333 239 721 C239 750.333 224.667 770 202 770 C180.667 770 165 751.667 165 721 C165 690.333 179.333 671 202 671 Z " /></g></glyph>
<glyph glyph-name="uring" unicode="&#x16f;" horiz-adv-x="437" >
<path fill="black" d="M22 549 L157 549 L157 229 C157 149 166.333 114 201 114 C239.667 114 246 159.333 246 274 L246 549 L381 549 L381 0 L270 0 L254 70 L247 70 C225 16.6667 192 -10 148 -10 C70.6667 -10 22 51.6667 22 189 L22 549 Z " /><g transform="translate(1,0)" ><path fill="black" d="M203 598 C135 598 94 647.667 94 721 C94 793 135 842 203 842 C267 842 309 791.667 309 721 C309 649 268.333 598 203 598 Z M202 671 C223.333 671 239 690.333 239 721 C239 750.333 224.667 770 202 770 C180.667 770 165 751.667 165 721 C165 690.333 179.333 671 202 671 Z " /></g></glyph>
<glyph glyph-name="Uhungarumlaut" unicode="&#x170;" horiz-adv-x="437" d="M19 714 L154 714 L154 276 C154 162.667 157.667 117 203 117 C252.749 117 253 165.922 253 278 L253 714 L388 714 L388 267 C388 79.1818 341.697 -10 204 -10 C66.6667 -10 19 77 19 265 L19 714 Z M95 771 L95 784 C121.667 844 142 904.333 150 931 L260 931 L260 922 C240.978 881.239 190.326 808.713 158 771 L95 771 Z M232 771 L232 784 C258.667 844 279 904.333 287 931 L397 931 L397 922 C377.978 881.239 327.326 808.713 295 771 L232 771 Z " />
<glyph glyph-name="uhungarumlaut" unicode="&#x171;" horiz-adv-x="437" d="M22 549 L157 549 L157 229 C157 149 166.333 114 201 114 C239.667 114 246 159.333 246 274 L246 549 L381 549 L381 0 L270 0 L254 70 L247 70 C225 16.6667 192 -10 148 -10 C70.6667 -10 22 51.6667 22 189 L22 549 Z M94 606 L94 619 C120.667 679 141 739.333 149 766 L259 766 L259 757 C239.978 716.239 189.326 643.713 157 606 L94 606 Z M231 606 L231 619 C257.667 679 278 739.333 286 766 L396 766 L396 757 C376.978 716.239 326.326 643.713 294 606 L231 606 Z " />
<glyph glyph-name="Uogonek" unicode="&#x172;" horiz-adv-x="437" d="M284 -224 C272 -230.667 253.667 -236 227 -236 C161.667 -236 129 -198 129 -134 C129 -87.3333 144.333 -43.6667 179 -9 C61.6667 1.66667 19 89 19 265 L19 714 L154 714 L154 276 C154 162.667 157.667 117 203 117 C252.749 117 253 165.922 253 278 L253 714 L388 714 L388 267 C388 121.667 361 36 285 4 C243.667 -33.3333 223 -67.3333 223 -106 C223 -132.667 234 -150 258 -150 C268.667 -150 277.333 -146 284 -142 L284 -224 Z " />
<glyph glyph-name="uogonek" unicode="&#x173;" horiz-adv-x="437" d="M256 70 L249 70 C227 16.6667 194 -10 150 -10 C72.6667 -10 24 51.6667 24 189 L24 549 L159 549 L159 229 C159 149 168.333 114 203 114 C241.667 114 248 159.333 248 274 L248 549 L383 549 L383 0 L367 0 C333.667 -45.3333 329 -74 329 -106 C329 -132.667 340.667 -150 362 -150 C375.333 -150 383.333 -146 390 -142 L390 -224 C378 -230.667 358 -236 334 -236 C266 -236 235 -198 235 -134 C235 -90 249.333 -42.6667 288 0 L272 0 L256 70 Z " />
<glyph glyph-name="Wcircumflex" unicode="&#x174;" horiz-adv-x="437" >
<path fill="black" d="M125 127 C130.243 184.678 139.328 292.23 142 343 L150 549 L256 549 L268 342 C273.24 279.121 281.331 182.045 284 126 L289 126 C289 230.556 293 365.778 293 425 C293 521 294.333 618 293 714 L402 714 L379 0 L224 0 L216 224 C213.311 277.772 207 352.893 207 396 L202 396 C202 352.881 196.689 277.788 194 224 L186 0 L28 0 L5 714 L112 714 C112 618 113 521.333 115 424 L121 127 L125 127 Z " /><g transform="translate(0,165)" ><path fill="black" d="M68 606 L68 619 C92.4793 659.799 129.672 728.683 143 766 L264 766 C281.333 722 306 668.333 338 619 L338 606 L261 606 C243.667 627.333 225.667 653.333 203 688 C179 653.333 161.667 624.667 147 606 L68 606 Z " /></g></glyph>
<glyph glyph-name="wcircumflex" unicode="&#x175;" horiz-adv-x="437" >
<path fill="black" d="M44 0 L2 549 L114 549 L113 290 L113 153 L117 153 C119.667 181 120.667 226.333 126 265 L153 470 L251 470 L276 265 L287 152 L291 152 C289.667 189.333 291 245.333 291 288 L291 549 L402 549 L359 0 L224 0 L213 163 C209 212.333 205.667 267.667 203 313 L199 313 C196.333 269 191 212.667 187 162 L174 0 L44 0 Z " /><path fill="black" d="M68 606 L68 619 C92.4793 659.799 129.672 728.683 143 766 L264 766 C281.333 722 306 668.333 338 619 L338 606 L261 606 C243.667 627.333 225.667 653.333 203 688 C179 653.333 161.667 624.667 147 606 L68 606 Z " /></glyph>
<glyph glyph-name="Ycircumflex" unicode="&#x176;" horiz-adv-x="437" >
<path fill="black" d="M136 0 L136 276 L3 714 L149 714 L203 422 L257 714 L402 714 L265 276 L265 0 L136 0 Z " /><g transform="translate(0,165)" ><path fill="black" d="M68 606 L68 619 C92.4793 659.799 129.672 728.683 143 766 L264 766 C281.333 722 306 668.333 338 619 L338 606 L261 606 C243.667 627.333 225.667 653.333 203 688 C179 653.333 161.667 624.667 147 606 L68 606 Z " /></g></glyph>
<glyph glyph-name="ycircumflex" unicode="&#x177;" horiz-adv-x="437" >
<path fill="black" d="M17 -122 C28.3333 -126 40 -128 52 -128 C84.844 -128 131.565 -117.174 150 -25 L152 -1 L1 549 L148 549 L194 285 C200.667 242.333 206.333 210 209 182 L212 182 C214.667 208.667 219.333 243.667 226 285 L261 549 L408 549 L272 -47 C238.667 -189.667 175 -245 75 -245 C55.6667 -245 36.3333 -242.333 17 -237 L17 -122 Z " /><g transform="translate(2,0)" ><path fill="black" d="M68 606 L68 619 C92.4793 659.799 129.672 728.683 143 766 L264 766 C281.333 722 306 668.333 338 619 L338 606 L261 606 C243.667 627.333 225.667 653.333 203 688 C179 653.333 161.667 624.667 147 606 L68 606 Z " /></g></glyph>
<glyph glyph-name="Ydieresis" unicode="&#x178;" horiz-adv-x="437" >
<g transform="translate(0,151)" ><path fill="black" d="M126 617 C92.6667 617 70 641 70 685 C70 729 92.6667 752 126 752 C159.333 752 182 727.667 182 685 C182 642.333 159.333 617 126 617 Z M280 617 C246.667 617 224 641 224 685 C224 729 246.667 752 280 752 C313.333 752 336 727.667 336 685 C336 642.333 313.333 617 280 617 Z " /></g><path fill="black" d="M136 0 L136 276 L3 714 L149 714 L203 422 L257 714 L402 714 L265 276 L265 0 L136 0 Z " /></glyph>
<glyph glyph-name="Zacute" unicode="&#x179;" horiz-adv-x="437" >
<path fill="black" d="M34 103 L232 588 L36 588 L36 714 L377 714 L377 612 L188 126 L377 126 L377 0 L34 0 L34 103 Z " /><g transform="translate(28,165)" ><path fill="black" d="M118 606 L118 619 C143.333 672.333 161.333 720.667 176 766 L317 766 L317 757 C298.177 719.353 242.156 647.321 206 606 L118 606 Z " /></g></glyph>
<glyph glyph-name="zacute" unicode="&#x17a;" horiz-adv-x="437" >
<path fill="black" d="M34 90 L206 430 L38 430 L38 549 L362 549 L362 446 L200 121 L374 121 L374 0 L34 0 L34 90 Z " /><g transform="translate(20,0)" ><path fill="black" d="M118 606 L118 619 C143.333 672.333 161.333 720.667 176 766 L317 766 L317 757 C298.177 719.353 242.156 647.321 206 606 L118 606 Z " /></g></glyph>
<glyph glyph-name="Zdotaccent" unicode="&#x17b;" horiz-adv-x="437" >
<path fill="black" d="M34 103 L232 588 L36 588 L36 714 L377 714 L377 612 L188 126 L377 126 L377 0 L34 0 L34 103 Z " /><g transform="translate(4,165)" ><path fill="black" d="M203 614 C155 614 127 639.667 127 693 C127 745.667 152.333 772 203 772 C253 772 278 745.667 278 693 C278 642.333 253.667 614 203 614 Z " /></g></glyph>
<glyph glyph-name="zdotaccent" unicode="&#x17c;" horiz-adv-x="437" >
<path fill="black" d="M34 90 L206 430 L38 430 L38 549 L362 549 L362 446 L200 121 L374 121 L374 0 L34 0 L34 90 Z " /><g transform="translate(-4,0)" ><path fill="black" d="M203 614 C155 614 127 639.667 127 693 C127 745.667 152.333 772 203 772 C253 772 278 745.667 278 693 C278 642.333 253.667 614 203 614 Z " /></g></glyph>
<glyph glyph-name="Zcaron" unicode="&#x17d;" horiz-adv-x="437" >
<path fill="black" d="M34 103 L232 588 L36 588 L36 714 L377 714 L377 612 L188 126 L377 126 L377 0 L34 0 L34 103 Z " /><g transform="translate(4,165)" ><path fill="black" d="M68 766 L146 766 C163.333 746 181.333 717.333 204 684 C228 720 242.333 743.333 261 766 L339 766 L339 754 C317.645 713.96 280.015 648.707 264 606 L143 606 C129.535 646.395 92.2129 713.645 68 754 L68 766 Z " /></g></glyph>
<glyph glyph-name="zcaron" unicode="&#x17e;" horiz-adv-x="437" >
<path fill="black" d="M34 90 L206 430 L38 430 L38 549 L362 549 L362 446 L200 121 L374 121 L374 0 L34 0 L34 90 Z " /><g transform="translate(-4,0)" ><path fill="black" d="M68 766 L146 766 C163.333 746 181.333 717.333 204 684 C228 720 242.333 743.333 261 766 L339 766 L339 754 C317.645 713.96 280.015 648.707 264 606 L143 606 C129.535 646.395 92.2129 713.645 68 754 L68 766 Z " /></g></glyph>
<glyph glyph-name="longs" unicode="&#x17f;" horiz-adv-x="437" d="M118 0 L118 564 C118 706.667 161 765 269 765 C295.667 765 324 761 364 745 L338 641 C320.667 647.667 305.667 651 291 651 C268.333 651 252 631 252 555 L252 0 L118 0 Z " />
<glyph glyph-name="florin" unicode="&#x192;" horiz-adv-x="437" d="M40 -120 C55.3333 -126.667 70 -130 84 -130 C121.333 -130 134 -107 134 -55 L134 386 L51 386 L51 457 L134 494 L134 527 C134 665.667 180 724 280 724 C314.667 724 338.667 717.333 376 700 L350 602 C335.333 610 323 614 307 614 C275 614 261 591 261 535 L261 494 L357 494 L357 386 L261 386 L261 -41 C261 -178.333 218.667 -240 112 -240 C80 -240 58.6667 -234.667 40 -228 L40 -120 Z " />
<glyph glyph-name="uni0218" unicode="&#x218;" horiz-adv-x="437" >
<path fill="black" d="M37 173 C82.3333 137 125.333 114 176 114 C232.944 114 241 152.052 241 192 C241 246.748 214.374 265.12 155 311 C80.9828 366.513 31 419.932 31 528 C31 652 97.6667 724 215 724 C271 724 317.333 708 368 676 L329 558 C286.333 588.667 254 601 222 601 C179.333 601 166 570.667 166 528 C166 482.667 187.333 462.667 238 424 C333.792 352.156 376 311.824 376 199 C376 55 302.333 -10 181 -10 C131.667 -10 85 1 37 33 L37 173 Z " /><g transform="translate(640,0)" ><path fill="black" d="M-514 -221 L-514 -213 C-508.663 -180.98 -500 -98.3484 -500 -61 L-377 -61 L-377 -69 C-389 -118.333 -408.667 -178.333 -430 -221 L-514 -221 Z " /></g></glyph>
<glyph glyph-name="uni0219" unicode="&#x219;" horiz-adv-x="437" >
<path fill="black" d="M46 151 C83.3333 127 142.667 110 188 110 C230.667 110 238 128.333 238 155 C238 184.005 222.046 196.53 151 236 C83 274.667 45 326.333 45 401 C45 502.333 103.667 559 221 559 C273 559 321.333 547.333 376 518 L335 408 C289.667 432 258.333 441 229 441 C194.333 441 184 424.667 184 402 C184 374 208 361.333 264 328 C346.612 277.367 373 248.178 373 163 C373 49.6667 314 -10 182 -10 C130 -10 86 0.666667 46 22 L46 151 Z " /><g transform="translate(651,0)" ><path fill="black" d="M-514 -221 L-514 -213 C-508.663 -180.98 -500 -98.3484 -500 -61 L-377 -61 L-377 -69 C-389 -118.333 -408.667 -178.333 -430 -221 L-514 -221 Z " /></g></glyph>
<glyph glyph-name="uni021A" unicode="&#x21a;" horiz-adv-x="437" >
<path fill="black" d="M138 0 L138 588 L13 588 L13 714 L395 714 L395 588 L271 588 L271 0 L138 0 Z " /><g transform="translate(640,0)" ><path fill="black" d="M-514 -221 L-514 -213 C-508.663 -180.98 -500 -98.3484 -500 -61 L-377 -61 L-377 -69 C-389 -118.333 -408.667 -178.333 -430 -221 L-514 -221 Z " /></g></glyph>
<glyph glyph-name="uni021B" unicode="&#x21b;" horiz-adv-x="437" >
<path fill="black" d="M102 429 L5 429 L5 497 L111 549 L153 681 L237 681 L237 549 L394 549 L394 429 L236 429 L236 206 C236 131.385 272.364 116 300 116 C322.667 116 355 121.333 395 136 L395 15 C356.333 -1 300.667 -10 258 -10 C170 -10 102 48.4156 102 180 L102 429 Z " /><g transform="translate(684,0)" ><path fill="black" d="M-514 -221 L-514 -213 C-508.663 -180.98 -500 -98.3484 -500 -61 L-377 -61 L-377 -69 C-389 -118.333 -408.667 -178.333 -430 -221 L-514 -221 Z " /></g></glyph>
<glyph glyph-name="uni0237" unicode="&#x237;" horiz-adv-x="407" d="M21 -103 C57 -115 104.333 -122 123 -122 C167 -122 177 -95.6667 177 -21 L177 429 L59 441 L59 549 L310 549 L310 -46 C310 -180.667 267 -245 143 -245 C112.333 -245 61 -237.667 21 -223 L21 -103 Z " />
<glyph glyph-name="circumflex" unicode="&#x2c6;" horiz-adv-x="437" d="M68 606 L68 619 C92.4793 659.799 129.672 728.683 143 766 L264 766 C281.333 722 306 668.333 338 619 L338 606 L261 606 C243.667 627.333 225.667 653.333 203 688 C179 653.333 161.667 624.667 147 606 L68 606 Z " />
<glyph glyph-name="caron" unicode="&#x2c7;" horiz-adv-x="437" d="M68 766 L146 766 C163.333 746 181.333 717.333 204 684 C228 720 242.333 743.333 261 766 L339 766 L339 754 C317.645 713.96 280.015 648.707 264 606 L143 606 C129.535 646.395 92.2129 713.645 68 754 L68 766 Z " />
<glyph glyph-name="uni02C9" unicode="&#x2c9;" horiz-adv-x="437" >
<g transform="translate(8,-22)" ><path fill="black" d="M79 730 L310 730 L310 638 L79 638 L79 730 Z " /></g></glyph>
<glyph glyph-name="breve" unicode="&#x2d8;" horiz-adv-x="437" d="M154 767 C154.667 720.333 170.667 697 202 697 C232.667 697 250.333 717.667 253 767 L328 767 C329.333 668.333 278 608 202 608 C130 608 78 661.667 78 767 L154 767 Z " />
<glyph glyph-name="dotaccent" unicode="&#x2d9;" horiz-adv-x="437" d="M203 614 C155 614 127 639.667 127 693 C127 745.667 152.333 772 203 772 C253 772 278 745.667 278 693 C278 642.333 253.667 614 203 614 Z " />
<glyph glyph-name="ring" unicode="&#x2da;" horiz-adv-x="437" d="M203 598 C135 598 94 647.667 94 721 C94 793 135 842 203 842 C267 842 309 791.667 309 721 C309 649 268.333 598 203 598 Z M202 671 C223.333 671 239 690.333 239 721 C239 750.333 224.667 770 202 770 C180.667 770 165 751.667 165 721 C165 690.333 179.333 671 202 671 Z " />
<glyph glyph-name="ogonek" unicode="&#x2db;" horiz-adv-x="437" d="M281 -224 C269 -230.667 249 -236 225 -236 C157 -236 126 -198 126 -134 C126 -84.6667 144.667 -30.3333 194 15 L258 0 C224.667 -45.3333 220 -74 220 -106 C220 -132.667 231.667 -150 253 -150 C266.333 -150 274.333 -146 281 -142 L281 -224 Z " />
<glyph glyph-name="tilde" unicode="&#x2dc;" horiz-adv-x="437" d="M68 611 C68 673.225 79.5325 758 140 758 C184.118 758 215.451 707 250 707 C264.667 707 267.667 723 273 759 L338 759 C335.333 659 307.667 612 265 612 C219.333 612 183 663 156 663 C144 663 136.667 645.667 134 611 L68 611 Z " />
<glyph glyph-name="hungarumlaut" unicode="&#x2dd;" horiz-adv-x="437" d="M62 606 L62 619 C88.6667 679 109 739.333 117 766 L227 766 L227 757 C207.978 716.239 157.326 643.713 125 606 L62 606 Z M199 606 L199 619 C225.667 679 246 739.333 254 766 L364 766 L364 757 C344.978 716.239 294.326 643.713 262 606 L199 606 Z " />
<glyph glyph-name="uni0394" unicode="&#x394;" horiz-adv-x="437" d="M7 81 L120 714 L286 714 L401 78 L401 0 L7 0 L7 81 Z M260 115 L214 495 C211.333 525.667 207 561.667 203 595 C200.333 560.333 195.667 525.667 193 495 L148 116 L260 115 Z " />
<glyph glyph-name="uni03A9" unicode="&#x3a9;" horiz-adv-x="437" d="M4 119 L94 119 C54.5065 166.392 12 258.747 12 413 C12 611.667 81.6667 725 203 725 C319 725 394 618.667 394 408 C394 262.667 362 172.333 310 119 L402 119 L402 0 L220 0 L220 129 C253.333 179.667 269 257.333 269 388 C269 532 251 607 203 607 C156.333 607 138 533.333 138 388 C138 258.667 152 178.333 184 129 L184 0 L4 0 L4 119 Z " />
<glyph glyph-name="uni03BC" unicode="&#x3bc;" horiz-adv-x="437" >
<path fill="black" d="M22 227 L24 227 L24 549 L159 549 L159 229 C159 149 168.333 114 203 114 C241.667 114 248 159.333 248 274 L248 549 L383 549 L383 0 L272 0 L256 70 L249 70 C227.667 17.3333 195.667 -9.33333 153 -10 L153 -240 L22 -240 L22 227 Z " /></glyph>
<glyph glyph-name="pi" unicode="&#x3c0;" horiz-adv-x="437" d="M55 435 L2 435 L2 499 L59 548 L404 548 L404 435 L344 435 L344 166 C344 124.667 349.667 109 367 109 C379 109 388 115 396 123 L396 18 C381.333 3.33333 355.667 -9 317 -9 C250.333 -9 227 43 227 151 L227 435 L173 435 L173 0 L55 0 L55 435 Z " />
<glyph glyph-name="Wgrave" unicode="&#x1e80;" horiz-adv-x="437" >
<path fill="black" d="M125 127 C130.243 184.678 139.328 292.23 142 343 L150 549 L256 549 L268 342 C273.24 279.121 281.331 182.045 284 126 L289 126 C289 230.556 293 365.778 293 425 C293 521 294.333 618 293 714 L402 714 L379 0 L224 0 L216 224 C213.311 277.772 207 352.893 207 396 L202 396 C202 352.881 196.689 277.788 194 224 L186 0 L28 0 L5 714 L112 714 C112 618 113 521.333 115 424 L121 127 L125 127 Z " /><g transform="translate(-9,165)" ><path fill="black" d="M82 766 L223 766 C236.375 723.2 268.613 651.13 282 619 L282 606 L194 606 C166.676 638.789 103.535 719.313 82 757 L82 766 Z " /></g></glyph>
<glyph glyph-name="wgrave" unicode="&#x1e81;" horiz-adv-x="437" >
<path fill="black" d="M44 0 L2 549 L114 549 L113 290 L113 153 L117 153 C119.667 181 120.667 226.333 126 265 L153 470 L251 470 L276 265 L287 152 L291 152 C289.667 189.333 291 245.333 291 288 L291 549 L402 549 L359 0 L224 0 L213 163 C209 212.333 205.667 267.667 203 313 L199 313 C196.333 269 191 212.667 187 162 L174 0 L44 0 Z " /><g transform="translate(-9,0)" ><path fill="black" d="M82 766 L223 766 C236.375 723.2 268.613 651.13 282 619 L282 606 L194 606 C166.676 638.789 103.535 719.313 82 757 L82 766 Z " /></g></glyph>
<glyph glyph-name="Wacute" unicode="&#x1e82;" horiz-adv-x="437" >
<path fill="black" d="M125 127 C130.243 184.678 139.328 292.23 142 343 L150 549 L256 549 L268 342 C273.24 279.121 281.331 182.045 284 126 L289 126 C289 230.556 293 365.778 293 425 C293 521 294.333 618 293 714 L402 714 L379 0 L224 0 L216 224 C213.311 277.772 207 352.893 207 396 L202 396 C202 352.881 196.689 277.788 194 224 L186 0 L28 0 L5 714 L112 714 C112 618 113 521.333 115 424 L121 127 L125 127 Z " /><g transform="translate(24,165)" ><path fill="black" d="M118 606 L118 619 C143.333 672.333 161.333 720.667 176 766 L317 766 L317 757 C298.177 719.353 242.156 647.321 206 606 L118 606 Z " /></g></glyph>
<glyph glyph-name="wacute" unicode="&#x1e83;" horiz-adv-x="437" >
<path fill="black" d="M44 0 L2 549 L114 549 L113 290 L113 153 L117 153 C119.667 181 120.667 226.333 126 265 L153 470 L251 470 L276 265 L287 152 L291 152 C289.667 189.333 291 245.333 291 288 L291 549 L402 549 L359 0 L224 0 L213 163 C209 212.333 205.667 267.667 203 313 L199 313 C196.333 269 191 212.667 187 162 L174 0 L44 0 Z " /><g transform="translate(24,0)" ><path fill="black" d="M118 606 L118 619 C143.333 672.333 161.333 720.667 176 766 L317 766 L317 757 C298.177 719.353 242.156 647.321 206 606 L118 606 Z " /></g></glyph>
<glyph glyph-name="Wdieresis" unicode="&#x1e84;" horiz-adv-x="437" >
<g transform="translate(0,151)" ><path fill="black" d="M126 617 C92.6667 617 70 641 70 685 C70 729 92.6667 752 126 752 C159.333 752 182 727.667 182 685 C182 642.333 159.333 617 126 617 Z M280 617 C246.667 617 224 641 224 685 C224 729 246.667 752 280 752 C313.333 752 336 727.667 336 685 C336 642.333 313.333 617 280 617 Z " /></g><path fill="black" d="M125 127 C130.243 184.678 139.328 292.23 142 343 L150 549 L256 549 L268 342 C273.24 279.121 281.331 182.045 284 126 L289 126 C289 230.556 293 365.778 293 425 C293 521 294.333 618 293 714 L402 714 L379 0 L224 0 L216 224 C213.311 277.772 207 352.893 207 396 L202 396 C202 352.881 196.689 277.788 194 224 L186 0 L28 0 L5 714 L112 714 C112 618 113 521.333 115 424 L121 127 L125 127 Z " /></glyph>
<glyph glyph-name="wdieresis" unicode="&#x1e85;" horiz-adv-x="437" >
<g transform="translate(0,-14)" ><path fill="black" d="M126 617 C92.6667 617 70 641 70 685 C70 729 92.6667 752 126 752 C159.333 752 182 727.667 182 685 C182 642.333 159.333 617 126 617 Z M280 617 C246.667 617 224 641 224 685 C224 729 246.667 752 280 752 C313.333 752 336 727.667 336 685 C336 642.333 313.333 617 280 617 Z " /></g><path fill="black" d="M44 0 L2 549 L114 549 L113 290 L113 153 L117 153 C119.667 181 120.667 226.333 126 265 L153 470 L251 470 L276 265 L287 152 L291 152 C289.667 189.333 291 245.333 291 288 L291 549 L402 549 L359 0 L224 0 L213 163 C209 212.333 205.667 267.667 203 313 L199 313 C196.333 269 191 212.667 187 162 L174 0 L44 0 Z " /></glyph>
<glyph glyph-name="uni2010" unicode="&#x2010;" horiz-adv-x="407" >
<g transform="translate(2,0)" ><path fill="black" d="M102 333 L304 333 L304 207 L102 207 L102 333 Z " /></g></glyph>
<glyph glyph-name="endash" unicode="&#x2013;" horiz-adv-x="437" d="M63 333 L345 333 L345 207 L63 207 L63 333 Z " />
<glyph glyph-name="emdash" unicode="&#x2014;" horiz-adv-x="437" d="M2 333 L404 333 L404 207 L2 207 L2 333 Z " />
<glyph glyph-name="quoteleft" unicode="&#x2018;" horiz-adv-x="437" >
<path fill="black" d="M129 444 L124 455 C138.667 555 156.333 640.667 179 714 L284 714 C270.605 630.949 260.353 516.267 255 444 L129 444 Z " /></glyph>
<glyph glyph-name="quoteright" unicode="&#x2019;" horiz-adv-x="437" >
<g transform="translate(7,580)" ><path fill="black" d="M120 -136 C130.662 -58.6969 146.298 61.036 149 134 L275 134 L280 123 C266.667 23 247.667 -62.6667 225 -136 L120 -136 Z " /></g></glyph>
<glyph glyph-name="quotesinglbase" unicode="&#x201a;" horiz-adv-x="437" >
<g transform="translate(2,0)" ><path fill="black" d="M120 -136 C130.662 -58.6969 146.298 61.036 149 134 L275 134 L280 123 C266.667 23 247.667 -62.6667 225 -136 L120 -136 Z " /></g></glyph>
<glyph glyph-name="quotedblleft" unicode="&#x201c;" horiz-adv-x="437" >
<g transform="translate(-98,0)" ><path fill="black" d="M129 444 L124 455 C138.667 555 156.333 640.667 179 714 L284 714 C270.605 630.949 260.353 516.267 255 444 L129 444 Z " /></g><g transform="translate(97,0)" ><path fill="black" d="M129 444 L124 455 C138.667 555 156.333 640.667 179 714 L284 714 C270.605 630.949 260.353 516.267 255 444 L129 444 Z " /></g></glyph>
<glyph glyph-name="quotedblright" unicode="&#x201d;" horiz-adv-x="437" >
<g transform="translate(-115,580)" ><path fill="black" d="M120 -136 C130.662 -58.6969 146.298 61.036 149 134 L275 134 L280 123 C266.667 23 247.667 -62.6667 225 -136 L120 -136 Z " /></g><g transform="translate(80,580)" ><path fill="black" d="M120 -136 C130.662 -58.6969 146.298 61.036 149 134 L275 134 L280 123 C266.667 23 247.667 -62.6667 225 -136 L120 -136 Z " /></g></glyph>
<glyph glyph-name="quotedblbase" unicode="&#x201e;" horiz-adv-x="437" >
<g transform="translate(-100,0)" ><path fill="black" d="M120 -136 C130.662 -58.6969 146.298 61.036 149 134 L275 134 L280 123 C266.667 23 247.667 -62.6667 225 -136 L120 -136 Z " /></g><g transform="translate(82,0)" ><path fill="black" d="M120 -136 C130.662 -58.6969 146.298 61.036 149 134 L275 134 L280 123 C266.667 23 247.667 -62.6667 225 -136 L120 -136 Z " /></g></glyph>
<glyph glyph-name="dagger" unicode="&#x2020;" horiz-adv-x="437" d="M140 0 L162 469 L42 454 L42 567 L162 552 L140 760 L267 760 L244 552 L365 567 L365 454 L244 469 L267 0 L140 0 Z " />
<glyph glyph-name="daggerdbl" unicode="&#x2021;" horiz-adv-x="437" d="M42 285 L168 271 L148 384 L168 489 L42 475 L42 589 L168 574 L145 760 L271 760 L247 574 L365 589 L365 475 L247 489 L267 384 L247 271 L365 285 L365 172 L247 187 L271 0 L145 0 L168 187 L42 172 L42 285 Z " />
<glyph glyph-name="bullet" unicode="&#x2022;" horiz-adv-x="437" d="M203 205 C120.333 205 73 261 73 365 C73 469 119 525 203 525 C287 525 333 469 333 365 C333 262.333 284.333 205 203 205 Z " />
<glyph glyph-name="ellipsis" unicode="&#x2026;" horiz-adv-x="437" >
<path fill="black" d="M205 -11 C159.667 -11 131 17.6667 131 71 C131 125.667 155.667 153 205 153 C247.667 153 276 125.667 276 71 C276 17.6667 246.333 -11 205 -11 Z " /></glyph>
<glyph glyph-name="perthousand" unicode="&#x2030;" horiz-adv-x="437" d="M117 -169 C41 -169 2 -85.3333 2 60 C2 206.667 39.6667 280 115 280 C149.667 280 176.333 265 195 235 C214.333 265 240.667 280 274 280 C350 280 393 201.667 393 55 C393 -91.6667 352 -169 276 -169 C242.667 -169 216.333 -153.333 197 -122 C177.667 -153.333 151 -169 117 -169 Z M198 455 C122 455 83 538.667 83 684 C83 830.667 120.667 904 196 904 C272 904 315 825.667 315 679 C315 532.333 274 455 198 455 Z M29 377 L363 429 L363 360 L29 308 L29 377 Z M117 -85 C139.667 -85 151 -41.3333 151 56 C151 153.333 138.667 195 116 195 C93.3333 195 85 153 85 57 C85 -41.6667 94.3333 -85 117 -85 Z M276 -85 C298.667 -85 310 -41.3333 310 56 C310 153.333 297.667 195 275 195 C252.333 195 244 153 244 57 C244 -41.6667 253.333 -85 276 -85 Z M198 539 C220.667 539 232 582.667 232 680 C232 777.333 219.667 819 197 819 C174.333 819 166 777 166 681 C166 582.333 175.333 539 198 539 Z " />
<glyph glyph-name="guilsinglleft" unicode="&#x2039;" horiz-adv-x="437" d="M96 267 L96 281 L219 499 L310 450 L231 274 L309 100 L219 50 L96 267 Z " />
<glyph glyph-name="guilsinglright" unicode="&#x203a;" horiz-adv-x="437" d="M210 286 L132 460 L222 510 L345 293 L345 279 L222 61 L131 110 L210 286 Z " />
<glyph glyph-name="fraction" unicode="&#x2044;" horiz-adv-x="437" d="M14 377 L386 429 L386 360 L14 308 L14 377 Z " />
<glyph glyph-name="franc" unicode="&#x20a3;" horiz-adv-x="437" d="M65 116 L16 116 L16 217 L65 217 L65 714 L366 714 L366 588 L200 588 L200 443 L352 443 L352 320 L200 320 L200 217 L317 217 L317 116 L200 116 L200 0 L65 0 L65 116 Z " />
<glyph glyph-name="lira" unicode="&#x20a4;" horiz-adv-x="437" d="M366 119 L366 0 L41 0 L41 113 C82.002 141.189 88.3265 173.182 91 232 L39 232 L39 318 L91 318 L91 385 L39 385 L39 471 L91 471 L91 519 C91 653.667 148 724 248 724 C289.333 724 329.333 711 368 683 L334 576 C304.667 594.667 284.333 605 263 605 C232.333 605 221 580.333 221 519 L221 471 L313 471 L313 385 L221 385 L221 318 L313 318 L313 232 L218 232 C212.667 173.333 196.667 141.667 170 119 L366 119 Z " />
<glyph glyph-name="peseta" unicode="&#x20a7;" horiz-adv-x="437" d="M8 714 L164 714 C278.667 714 333 640.333 333 507 C333 479 330.333 452.333 325 427 L340 427 L340 323 L405 323 L405 237 L340 237 L340 152 C340 110.667 348.333 90 365 90 C378.333 90 394.333 96 405 104 L405 16 C389 2.66667 370.333 -4 337 -4 C266.333 -4 233 38 233 130 L233 237 L196 237 L196 295 C184 293 170.667 292 156 292 L136 292 L136 0 L8 0 L8 714 Z M149 410 C183.667 410 204 435.667 204 505 C204 566.333 188.667 597 158 597 L136 597 L136 410 L149 410 Z " />
<glyph glyph-name="Euro" unicode="&#x20ac;" horiz-adv-x="437" d="M25 317 L71 317 C69.6667 329 70 340.333 70 351 C70 361.667 69.6667 371.333 71 382 L25 382 L25 462 L76 462 C89.3285 613.944 144.263 724 252 724 C293.333 724 340.333 710 383 678 L345 565 C314.333 591.667 283 605 259 605 C213.613 605 206.336 539.366 201 462 L302 462 L302 382 L198 382 L198 351 L198 317 L282 317 L282 237 L203 237 C212.333 147.667 230 110 266 110 C296.667 110 328 126.333 368 149 L368 25 C330.667 1 285.667 -10 251 -10 C136.358 -10 91.3354 100.979 78 237 L25 237 L25 317 Z " />
<glyph glyph-name="uni2113" unicode="&#x2113;" horiz-adv-x="437" d="M91 249 C75 242.333 56.3333 235.333 35 226 L35 324 C55 331.333 73.6667 339.333 91 348 L91 536 C91 660.667 139 723 235 723 C321.667 723 369 659.333 369 546 C369 426 318 339.333 214 290 L214 181 C214 117 222.333 90 245 90 C266.333 90 274 127 274 191 L372 191 C372 48.3333 324.333 -8 223 -8 C139 -8 91 63 91 191 L91 249 Z M214 392 C246 420 262 471.333 262 546 C262 602 253 626 237 626 C221 626 214 607.667 214 553 L214 392 Z " />
<glyph glyph-name="trademark" unicode="&#x2122;" horiz-adv-x="437" d="M178 369 L178 714 L266 714 L292 571 L320 714 L406 714 L406 369 L343 369 L343 560 C343 580 343.667 600.667 345 618 L342 618 L311 481 L271 481 L241 619 L240 619 C241.333 600.333 241 578.333 241 561 L241 369 L178 369 Z M51 369 L51 647 L4 647 L4 714 L161 714 L161 647 L119 647 L119 369 L51 369 Z " />
<glyph glyph-name="Omega" unicode="&#x2126;" horiz-adv-x="437" >
<g transform="translate(2,0)" ><path fill="black" d="M4 119 L94 119 C54.5065 166.392 12 258.747 12 413 C12 611.667 81.6667 725 203 725 C319 725 394 618.667 394 408 C394 262.667 362 172.333 310 119 L402 119 L402 0 L220 0 L220 129 C253.333 179.667 269 257.333 269 388 C269 532 251 607 203 607 C156.333 607 138 533.333 138 388 C138 258.667 152 178.333 184 129 L184 0 L4 0 L4 119 Z " /></g></glyph>
<glyph glyph-name="estimated" unicode="&#x212e;" horiz-adv-x="437" d="M94 83 C116.667 52.3333 152.667 25 206 25 C280.667 25 324.667 74 358 142 L387 119 C349.176 43.3516 299.74 -17 207 -17 C72.0996 -17 2 110.896 2 263 C2 450.636 108.463 535 207 535 C315.234 535 404 429.563 404 259 L94 259 L94 83 Z M94 301 L314 301 L314 436 C295.333 462.667 253.667 494 207 494 C155 494 120.667 469 94 437 L94 301 Z " />
<glyph glyph-name="uni2219" unicode="&#x2219;" horiz-adv-x="407" >
<g transform="translate(4,267)" ><path fill="black" d="M205 -11 C159.667 -11 131 17.6667 131 71 C131 125.667 155.667 153 205 153 C247.667 153 276 125.667 276 71 C276 17.6667 246.333 -11 205 -11 Z " /></g></glyph>
<glyph glyph-name="radical" unicode="&#x221a;" horiz-adv-x="437" d="M140 -7 L85 351 L18 351 L18 459 L166 459 L197 179 L291 851 L405 851 L260 -7 L140 -7 Z " />
<glyph glyph-name="infinity" unicode="&#x221e;" horiz-adv-x="437" d="M122 187 C55.3333 187 5 252.667 5 354 C5 443.593 42.3333 518 117 518 C153 518 176.333 496.667 203 446 C223 486 249 516 289 516 C353 516 401 447.177 401 354 C401 259.723 353 185 289 185 C250.333 185 221.333 216.333 200 255 C174.667 205.667 155.333 187 122 187 Z M278 286 C292.667 286 302 316.333 302 351 C302 387 292.667 415 278 415 C267.333 415 263.333 396.333 242 347 C255.333 312.333 264.667 286 278 286 Z M130 289 C146 289 153.333 311.333 164 346 C152 386 144.333 417 127 417 C112.333 417 104 389.333 104 352 C104 320 110 289 130 289 Z " />
<glyph glyph-name="approxequal" unicode="&#x2248;" horiz-adv-x="437" >
<g transform="translate(0,108)" ><path fill="black" d="M375 323 C350.333 288.333 320.333 271 285 271 C253 271 221 281 189 301 C159.667 319.667 132.333 328 111 328 C85.6667 328 59.3333 308.333 32 269 L32 383 C56.6667 417.667 86.3333 435 121 435 C153 435 183 422.667 215 404 C247 386 274 377 296 377 C318.667 377 349.667 398.667 375 436 L375 323 Z " /></g><g transform="translate(0,-111)" ><path fill="black" d="M375 323 C350.333 288.333 320.333 271 285 271 C253 271 221 281 189 301 C159.667 319.667 132.333 328 111 328 C85.6667 328 59.3333 308.333 32 269 L32 383 C56.6667 417.667 86.3333 435 121 435 C153 435 183 422.667 215 404 C247 386 274 377 296 377 C318.667 377 349.667 398.667 375 436 L375 323 Z " /></g></glyph>
<glyph glyph-name="lessequal" unicode="&#x2264;" horiz-adv-x="437" d="M32 368 L32 438 L369 641 L369 522 L180 403 L369 282 L369 164 L32 368 Z M31 0 L31 106 L366 106 L366 0 L31 0 Z " />
<glyph glyph-name="greaterequal" unicode="&#x2265;" horiz-adv-x="437" d="M34 282 L223 403 L34 522 L34 641 L371 438 L371 368 L34 164 L34 282 Z M38 106 L372 106 L372 0 L38 0 L38 106 Z " />
</font>
</svg>
