<?xml version="1.0" encoding="UTF-8"?>
<svg xmlns="http://www.w3.org/2000/svg" xmlns:xlink="http://www.w3.org/1999/xlink" version="1.1" >
<font id="Monoto-4SmCd600SmBd" horiz-adv-x="527">
<font-face  font-family="Monoto 4 SmCd" units-per-em="1000" ascent="955" descent="-235" font-style="normal" font-weight="600" font-stretch="semi-condensed" cap-height="714" x-height="547" underline-position="-75" underline-thickness="50" />
<missing-glyph horiz-adv-x="530" d="M45 0 L45 714 L456 714 L456 0 L45 0 Z M405 51 L405 663 L96 663 L96 51 L405 51 Z " />
<glyph glyph-name="uni0000" horiz-adv-x="530" />
<glyph glyph-name="uni000D" unicode="&#xd;" horiz-adv-x="530" />
<glyph glyph-name="space" unicode="&#x20;" horiz-adv-x="530" />
<glyph glyph-name="exclam" unicode="&#x21;" horiz-adv-x="530" d="M199 229 L178 714 L325 714 L305 229 L199 229 Z M252 -11 C205.333 -11 176 17 176 69 C176 123 201.333 150 252 150 C298.667 150 327 123.667 327 69 C327 15.6667 297.333 -11 252 -11 Z " />
<glyph glyph-name="quotedbl" unicode="&#x22;" horiz-adv-x="530" >
<g transform="translate(-102,0)" ><path fill="black" d="M200 456 L181 714 L319 714 L300 456 L200 456 Z " /></g><g transform="translate(102,0)" ><path fill="black" d="M200 456 L181 714 L319 714 L300 456 L200 456 Z " /></g></glyph>
<glyph glyph-name="numbersign" unicode="&#x23;" horiz-adv-x="530" d="M75 0 L101 203 L18 203 L18 291 L113 291 L131 429 L41 429 L41 519 L143 519 L170 714 L258 714 L231 519 L311 519 L336 714 L424 714 L398 519 L482 519 L482 429 L386 429 L369 291 L459 291 L459 203 L358 203 L330 0 L240 0 L268 203 L189 203 L163 0 L75 0 Z M280 291 L298 429 L219 429 L202 291 L280 291 Z " />
<glyph glyph-name="dollar" unicode="&#x24;" horiz-adv-x="530" d="M68 189 C110.667 161 171.333 136.667 226 134 L226 321 C112.667 366.333 61 418 61 514 C61 615.333 128.667 675 226 687 L226 759 L287 759 L287 688 C337 684.667 385.333 671 432 647 L403 552 C365.667 572 327 583 287 587 L287 408 C397.238 364.98 448 318.63 448 225 C448 129 391 59.6667 287 41 L287 -58 L226 -58 L226 37 C170 39.6667 113.333 53.6667 68 75 L68 189 Z M164 513 C164 474.333 180.667 456.667 226 434 L226 586 C183.333 579.333 164 551.667 164 513 Z M287 141 C329.667 153 347 181.333 347 216 C347 254.667 328.333 276.333 287 295 L287 141 Z " />
<glyph glyph-name="percent" unicode="&#x25;" horiz-adv-x="530" d="M5 168 L387 545 L494 545 L112 168 L5 168 Z M360 -10 C276 -10 223 53.3333 223 160 C223 266.667 273 329 361 329 C447.667 329 500 268 500 160 C500 52 449.333 -10 360 -10 Z M137 384 C53 384 0 447.333 0 554 C0 660.667 50 723 138 723 C224.667 723 277 662 277 554 C277 446 226.333 384 137 384 Z M362 71 C390 71 401 100 401 160 C401 220 390 248 362 248 C331.333 248 321 220 321 160 C321 100 331.333 71 362 71 Z M139 465 C167 465 178 494 178 554 C178 614 167 642 139 642 C108.333 642 98 614 98 554 C98 494 108.333 465 139 465 Z " />
<glyph glyph-name="ampersand" unicode="&#x26;" horiz-adv-x="530" d="M365 0 L343 38 C304.333 7.33333 258.667 -10 200 -10 C78.9524 -10 27 67.0823 27 172 C27 265.333 67.6667 321.667 137 383 C105 439 77 499.333 77 570 C77 670 131.667 723 225 723 C322.333 723 368 664.333 368 575 C368 489.667 324.333 426.333 267 369 L348 229 C365.333 273 374.667 321 380 361 L480 361 C469.333 275.667 449.667 189 411 121 L481 0 L365 0 Z M189 295 C158.333 261.667 137 228.667 137 182 C137 122 170 94 214 94 C243.333 94 266.333 106.667 289 128 L189 295 Z M218 456 C244.667 485.333 269 523.333 269 574 C269 615.333 251.667 633 225 633 C197 633 180 613 180 573 C180 530.333 199.333 489.333 218 456 Z " />
<glyph glyph-name="quotesingle" unicode="&#x27;" horiz-adv-x="530" d="M200 456 L181 714 L319 714 L300 456 L200 456 Z " />
<glyph glyph-name="parenleft" unicode="&#x28;" horiz-adv-x="530" d="M286 -171 C199.333 -56.3333 149 88.3333 149 267 C149 448.333 202 600.667 286 714 L399 714 C313 585.333 270 436.667 270 268 C270 105.333 315.333 -37.6667 398 -171 L286 -171 Z " />
<glyph glyph-name="parenright" unicode="&#x29;" horiz-adv-x="530" d="M101 -172 C187 -43.3333 230 105.333 230 274 C230 436.667 184.667 579.667 102 713 L214 713 C300.667 598.333 351 453.667 351 275 C351 93.6667 298 -58.6667 214 -172 L101 -172 Z " />
<glyph glyph-name="asterisk" unicode="&#x2a;" horiz-adv-x="530" d="M182 542 L53 556 L79 667 L207 622 L190 762 L309 762 L292 622 L420 667 L446 556 L317 542 L412 432 L316 366 L249 495 L182 366 L88 432 L182 542 Z " />
<glyph glyph-name="plus" unicode="&#x2b;" horiz-adv-x="530" d="M48 404 L198 404 L198 593 L303 593 L303 404 L452 404 L452 302 L303 302 L303 115 L198 115 L198 302 L48 302 L48 404 Z " />
<glyph glyph-name="comma" unicode="&#x2c;" horiz-adv-x="530" d="M157 -135 C173.009 -57.6245 192.674 59.1 198 131 L324 131 L330 120 C312.667 24 288.333 -61.6667 259 -135 L157 -135 Z " />
<glyph glyph-name="hyphen" unicode="&#x2d;" horiz-adv-x="530" d="M125 330 L375 330 L375 210 L125 210 L125 330 Z " />
<glyph glyph-name="period" unicode="&#x2e;" horiz-adv-x="530" d="M250 -11 C203.333 -11 174 17 174 69 C174 123 199.333 150 250 150 C296.667 150 325 123.667 325 69 C325 15.6667 295.333 -11 250 -11 Z " />
<glyph glyph-name="slash" unicode="&#x2f;" horiz-adv-x="530" d="M39 -6 L310 720 L422 720 L150 -6 L39 -6 Z " />
<glyph glyph-name="zero" unicode="0" horiz-adv-x="530" d="M249 -10 C93 -10 22 117 22 357 C22 605 90.3333 725 249 725 C405 725 477 598.333 477 357 C477 143.537 427.667 -10 249 -10 Z M179 166 C194.333 130.667 217.667 113 249 113 C321 113 344 187.667 344 357 C344 383.667 343.333 408.333 342 431 L179 166 Z M319 556 C303.667 586.667 280.333 602 249 602 C181 602 156 521 156 357 C156 334.333 155.667 312 157 292 L319 556 Z " />
<glyph glyph-name="one" unicode="1" horiz-adv-x="530" d="M74 99 L203 111 L203 401 C203 446.11 204.281 517.495 207 561 C188.333 545 175.667 534.667 153 520 L98 485 L34 591 L226 714 L339 714 L339 111 L458 99 L458 0 L74 0 L74 99 Z " />
<glyph glyph-name="two" unicode="2" horiz-adv-x="530" d="M44 104 L181 288 C261.541 395.388 296 450.374 296 516 C296 570.667 271.667 602 225 602 C182.333 602 142.333 575.667 101 529 L31 621 C92.3333 693 156.333 724 239 724 C356.385 724 437 651.126 437 522 C437 433.657 396.656 359.482 304 243 L214 129 L214 124 L450 124 L450 0 L44 0 L44 104 Z " />
<glyph glyph-name="three" unicode="3" horiz-adv-x="530" d="M43 158 C92.3333 127.333 146.333 111 197 111 C271.667 111 305 144.667 305 210 C305 280.667 264.333 308 171 308 L130 308 L130 425 L172 425 C257.333 425 298 462 298 526 C298 577.333 272 603 220 603 C178.667 603 140 587.667 100 557 L45 659 C97 700.333 161 724 237 724 C365 724 438 659.333 438 546 C438 458 394.333 402.667 313 376 L313 373 C407.667 355 455 298 455 202 C455 72.6667 368.333 -10 207 -10 C155 -10 101.667 -1.33333 43 28 L43 158 Z " />
<glyph glyph-name="four" unicode="4" horiz-adv-x="530" d="M26 261 L259 715 L396 715 L396 264 L474 264 L474 145 L396 145 L396 0 L262 0 L262 145 L26 145 L26 261 Z M262 264 L262 384 C262 417.209 266 489.32 266 531 L262 531 C254 499 238 463.667 226 437 L143 264 L262 264 Z " />
<glyph glyph-name="five" unicode="5" horiz-adv-x="530" d="M54 157 C98 130.333 153.667 111 199 111 C267.667 111 302 149.333 302 226 C302 299.333 265 339 197 339 C170.333 339 139.667 332.333 113 323 L64 356 L85 714 L408 714 L408 589 L205 589 L196 449 C223.333 455 246 458 264 458 C370.719 458 446 373.385 446 232 C446 80 366.667 -10 208 -10 C148 -10 95.3333 1.33333 54 28 L54 157 Z " />
<glyph glyph-name="six" unicode="6" horiz-adv-x="530" d="M177 383 C201 436.333 238.333 467 297 467 C398.333 467 459 384.333 459 239 C459 87.026 384.948 -10 257 -10 C123.667 -10 40 98.3333 40 305 C40 520.922 103.281 724 330 724 C360.667 724 393 721.333 421 716 L421 596 C398.333 602.667 371.667 606 341 606 C225 606 177 525.667 173 383 L177 383 Z M255 111 C293.667 111 320 150.667 320 236 C320 310.667 298.667 350 256 350 C213.333 350 183 305.667 183 247 C183 175.866 207 111 255 111 Z " />
<glyph glyph-name="seven" unicode="7" horiz-adv-x="530" d="M98 0 L310 588 L41 588 L41 713 L455 713 L455 614 L248 0 L98 0 Z " />
<glyph glyph-name="eight" unicode="8" horiz-adv-x="530" d="M40 186 C40 270 75 329 151 373 C89 420.333 58 479 58 549 C58 665 137.667 724 251 724 C367 724 441 665 441 549 C441 473 407.333 415.667 340 377 C424 321 459 267 459 187 C459 64.3333 379.333 -10 246 -10 C118 -10 40 58 40 186 Z M249 103 C299.667 103 326 133 326 189 C326 238.333 304.667 265.667 246 307 C195.333 272.333 174 236 174 188 C174 136 198.333 103 249 103 Z M249 444 C291.667 473.333 308 500.333 308 539 C308 587 284.667 611 250 611 C215.333 611 192 585.333 192 540 C192 497.333 213 470.667 249 444 Z " />
<glyph glyph-name="nine" unicode="9" horiz-adv-x="530" d="M75 119 C100.333 111 128 108 156 108 C269.333 108 320 189.667 324 331 L320 331 C293.333 276.333 257.333 248 200 248 C97.3333 248 38 331 38 475 C38 628.152 113.944 724 241 724 C374.333 724 456 614.333 456 405 C456 191.537 385.745 -10 167 -10 C135 -10 104.333 -7 75 -1 L75 119 Z M240 364 C286.355 364 314 415.636 314 468 C314 548 289.667 603 243 603 C200.333 603 177 563.333 177 478 C177 403.333 198.667 364 240 364 Z " />
<glyph glyph-name="colon" unicode="&#x3a;" horiz-adv-x="530" >
<g transform="translate(0,402)" ><path fill="black" d="M250 -11 C203.333 -11 174 17 174 69 C174 123 199.333 150 250 150 C296.667 150 325 123.667 325 69 C325 15.6667 295.333 -11 250 -11 Z " /></g><path fill="black" d="M250 -11 C203.333 -11 174 17 174 69 C174 123 199.333 150 250 150 C296.667 150 325 123.667 325 69 C325 15.6667 295.333 -11 250 -11 Z " /></glyph>
<glyph glyph-name="semicolon" unicode="&#x3b;" horiz-adv-x="530" >
<g transform="translate(-2,0)" ><path fill="black" d="M157 -135 C173.009 -57.6245 192.674 59.1 198 131 L324 131 L330 120 C312.667 24 288.333 -61.6667 259 -135 L157 -135 Z " /></g><g transform="translate(5,402)" ><path fill="black" d="M250 -11 C203.333 -11 174 17 174 69 C174 123 199.333 150 250 150 C296.667 150 325 123.667 325 69 C325 15.6667 295.333 -11 250 -11 Z " /></g></glyph>
<glyph glyph-name="less" unicode="&#x3c;" horiz-adv-x="530" d="M38 325 L38 392 L445 595 L445 480 L183 358 L445 235 L445 121 L38 325 Z " />
<glyph glyph-name="equal" unicode="&#x3d;" horiz-adv-x="530" d="M50 297 L450 297 L450 183 L50 183 L50 297 Z M50 513 L450 513 L450 399 L50 399 L50 513 Z " />
<glyph glyph-name="greater" unicode="&#x3e;" horiz-adv-x="530" d="M46 235 L308 358 L46 480 L46 595 L453 392 L453 325 L46 121 L46 235 Z " />
<glyph glyph-name="question" unicode="&#x3f;" horiz-adv-x="530" d="M173 229 L173 264 C173 332 190.667 370.667 240 420 C288.053 468.053 305 494.059 305 541 C305 588.333 281 612 233 612 C191.667 612 154.667 595.333 112 566 L70 666 C126 704.667 183.667 724 243 724 C364.333 724 429 659 429 551 C429 462.334 396.039 421.039 335 360 C287.063 312.063 279 291.999 279 251 L279 229 L173 229 Z M227 -11 C180.333 -11 151 17 151 69 C151 123 176.333 150 227 150 C273.667 150 302 123.667 302 69 C302 15.6667 272.333 -11 227 -11 Z " />
<glyph glyph-name="at" unicode="&#x40;" horiz-adv-x="530" d="M307 165 C292.333 130.333 262.667 107 228 107 C161.333 107 121 179 121 299 C121 436.645 183.918 525 279 525 C313.667 525 351 514.667 379 500 L369 297 C367.667 283.667 368 266.333 368 257 C368 209 372.333 182 387 182 C412.333 182 422 252 422 360 C422 545.333 365.667 636 267 636 C157.667 636 79 511.749 79 294 C79 117.948 130.078 -8 266 -8 C307.333 -8 355.333 5.33333 406 36 L406 -43 C359.333 -71 309.667 -86 263 -86 C84.3074 -86 0 54.4113 0 289 C0 558.307 106.723 714 265 714 C413 714 500 589 500 365 C500 219.874 464.104 107 384 107 C346.667 107 321 128 309 164 L307 165 Z M293 444 C286.333 446.667 282.333 449 273 449 C233 449 207 392.667 207 298 C207 223.333 220.333 182 247 182 C272.333 182 280.333 223.667 287 337 L293 444 Z " />
<glyph glyph-name="A" unicode="A" horiz-adv-x="530" d="M154 715 L341 715 L490 0 L362 0 L328 178 L173 178 L140 0 L10 0 L154 715 Z M306 294 L273 470 C266.333 512.667 255.667 571.333 249 610 C243.667 571.333 232.667 512.667 226 470 L194 294 L306 294 Z " />
<glyph glyph-name="B" unicode="B" horiz-adv-x="530" d="M51 0 L51 714 L236 714 C377.333 714 454 660.333 454 539 C454 455 417 395 357 379 L357 374 C431.667 352.667 469 301.333 469 212 C469 78.5628 382.229 0 249 0 L51 0 Z M179 116 L239 116 C309.667 116 340 152 340 216 C340 281.333 308.333 316 235 316 L179 316 L179 116 Z M179 422 L230 422 C294 422 328 452 328 512 C328 572 292.667 598 226 598 L179 598 L179 422 Z " />
<glyph glyph-name="C" unicode="C" horiz-adv-x="530" d="M458 25 C412.667 1 359.333 -10 302 -10 C127.333 -10 33 123 33 347 C33 572.126 132.134 725 309 725 C381 725 431.333 709.667 482 679 L441 569 C403.667 595.667 364.667 606 326 606 C218.156 606 166 504.108 166 353 C166 195.667 219.333 109 322 109 C372.667 109 415.333 125.333 458 148 L458 25 Z " />
<glyph glyph-name="D" unicode="D" horiz-adv-x="530" d="M31 0 L31 714 L230 714 C390.104 714 482 584.926 482 370 C482 135.177 376.052 0 224 0 L31 0 Z M161 120 L211 120 C307 120 347 209.333 347 360 C347 522.667 305.667 594 215 594 L161 594 L161 120 Z " />
<glyph glyph-name="E" unicode="E" horiz-adv-x="530" d="M454 120 L454 0 L51 0 L51 714 L454 714 L454 593 L183 593 L183 425 L437 425 L437 305 L183 305 L183 120 L454 120 Z " />
<glyph glyph-name="F" unicode="F" horiz-adv-x="530" d="M51 0 L51 714 L454 714 L454 594 L183 594 L183 398 L438 398 L438 278 L183 278 L183 0 L51 0 Z " />
<glyph glyph-name="G" unicode="G" horiz-adv-x="530" d="M345 285 L272 285 L272 403 L468 403 L468 30 C412 0.666667 358 -10 298 -10 C104.667 -10 18 121.333 18 344 C18 584.944 123.537 725 305 725 C373 725 423.333 707.667 466 681 L427 573 C387 598.333 355 607 315 607 C201.667 607 150 518.667 150 348 C150 212.182 191.229 109 282 109 C304.667 109 327.667 112.333 345 119 L345 285 Z " />
<glyph glyph-name="H" unicode="H" horiz-adv-x="530" d="M31 0 L31 714 L162 714 L162 428 L338 428 L338 714 L469 714 L469 0 L338 0 L338 308 L162 308 L162 0 L31 0 Z " />
<glyph glyph-name="I" unicode="I" horiz-adv-x="530" d="M61 97 L186 110 L186 604 L61 617 L61 714 L439 714 L439 617 L316 604 L316 110 L439 97 L439 0 L61 0 L61 97 Z " />
<glyph glyph-name="J" unicode="J" horiz-adv-x="530" d="M43 127 C83 112.333 122.333 107 149 107 C233 107 288 153.667 288 263 L288 714 L417 714 L417 234 C417 92.7446 332.03 -9 165 -9 C121 -9 79 -1.66667 43 13 L43 127 Z " />
<glyph glyph-name="K" unicode="K" horiz-adv-x="530" d="M31 0 L31 714 L161 714 L161 370 C179.667 407.333 202.333 445.333 225 488 L341 714 L485 714 L317 391 L486 0 L337 0 L217 288 L161 235 L161 0 L31 0 Z " />
<glyph glyph-name="L" unicode="L" horiz-adv-x="530" d="M454 121 L454 0 L61 0 L61 714 L193 714 L193 121 L454 121 Z " />
<glyph glyph-name="M" unicode="M" horiz-adv-x="530" d="M16 0 L16 714 L198 714 L251 290 L254 290 L304 714 L483 714 L483 0 L369 0 L370 233 C370 301.007 389.927 575.266 394 616 L387 616 L317 184 L185 184 L118 616 L110 616 C113.981 580.171 130 303.877 130 232 L132 0 L16 0 Z " />
<glyph glyph-name="N" unicode="N" horiz-adv-x="530" d="M31 0 L31 714 L215 714 L356 123 L363 123 C360.367 183.568 348 291.335 348 361 L348 714 L469 714 L469 0 L289 0 L143 598 L135 598 C141.667 506 151 430 151 350 L151 0 L31 0 Z " />
<glyph glyph-name="O" unicode="O" horiz-adv-x="530" d="M250 -8 C84.6667 -8 18 133.437 18 360 C18 590.9 85.3377 725 249 725 C413.442 725 482 584.693 482 358 C482 132.978 414.156 -8 250 -8 Z M252 112 C324.866 112 348 206.052 348 358 C348 520.667 323 604 251 604 C176.333 604 152 513.667 152 359 C152 205.667 178.667 112 252 112 Z " />
<glyph glyph-name="P" unicode="P" horiz-adv-x="530" d="M51 0 L51 714 L248 714 C400 714 469 636 469 492 C469 354.407 405.719 256 243 256 L183 256 L183 0 L51 0 Z M183 370 L230 370 C310 370 341 405 341 485 C341 565 308.333 601 243 601 L183 601 L183 370 Z " />
<glyph glyph-name="Q" unicode="Q" horiz-adv-x="530" d="M279 -6 C268.333 -7.33333 260.667 -8 250 -8 C84.6667 -8 18 133.437 18 360 C18 590.9 85.3377 725 249 725 C413.442 725 482 584.693 482 358 C482 211.333 453 102 389 42 L480 -180 L342 -180 L279 -6 Z M252 112 C324.866 112 348 206.052 348 358 C348 520.667 323 604 251 604 C176.333 604 152 513.667 152 359 C152 205.667 178.667 112 252 112 Z " />
<glyph glyph-name="R" unicode="R" horiz-adv-x="530" d="M51 0 L51 714 L223 714 C379 714 457 644.667 457 506 C457 407.333 425 345.667 357 307 L490 0 L345 0 L242 272 L181 272 L181 0 L51 0 Z M181 388 L220 388 C290.667 388 326 424.333 326 497 C326 567.667 294.667 598 220 598 L181 598 L181 388 Z " />
<glyph glyph-name="S" unicode="S" horiz-adv-x="530" d="M52 164 C104 129.333 158 108 218 108 C298.892 108 321 148.307 321 191 C321 248.352 281.892 266.665 203 314 C114.435 370.36 48 418.499 48 529 C48 654.333 129.333 725 264 725 C328 725 383.333 708.667 442 678 L402 566 C351.333 595.333 309.667 607 271 607 C207 607 181 574 181 530 C181 482.643 217.509 460.495 285 420 C396.958 353.358 454 311.059 454 199 C454 57.6667 364.667 -10 222 -10 C163.333 -10 106.667 0.333333 52 31 L52 164 Z " />
<glyph glyph-name="T" unicode="T" horiz-adv-x="530" d="M185 0 L185 594 L21 594 L21 714 L479 714 L479 594 L315 594 L315 0 L185 0 Z " />
<glyph glyph-name="U" unicode="U" horiz-adv-x="530" d="M31 714 L163 714 L163 269 C163 155.667 182 110 250 110 C320.667 110 337 158 337 270 L337 714 L469 714 L469 260 C469 77.3333 406 -10 250 -10 C94 -10 31 75.3333 31 258 L31 714 Z " />
<glyph glyph-name="V" unicode="V" horiz-adv-x="530" d="M251 119 C256.272 166.447 265.22 241.492 276 290 L358 714 L492 714 L326 0 L170 0 L8 714 L140 714 L223 289 C233.545 241.545 243.708 166.626 249 119 L251 119 Z " />
<glyph glyph-name="W" unicode="W" horiz-adv-x="530" d="M148 121 C153.383 177.518 165.615 286.149 171 340 L196 547 L304 547 L332 339 C340.028 274.777 351.375 175.129 354 120 L360 120 C360 218.466 365.344 366.561 368 425 L383 714 L492 714 L448 0 L294 0 L268 237 C261.333 293 255.667 360.667 253 402 L248 402 C245.333 360.667 241.667 293 235 237 L209 0 L53 0 L8 714 L114 714 C120.667 616.667 126.667 521.333 132 424 C134.652 365.662 140.342 216.671 143 121 L148 121 Z " />
<glyph glyph-name="X" unicode="X" horiz-adv-x="530" d="M10 0 L168 366 L18 714 L162 714 L249 472 L335 714 L478 714 L327 363 L490 0 L345 0 L246 258 L150 0 L10 0 Z " />
<glyph glyph-name="Y" unicode="Y" horiz-adv-x="530" d="M185 0 L185 275 L10 714 L153 714 L250 413 L348 714 L490 714 L312 276 L312 0 L185 0 Z " />
<glyph glyph-name="Z" unicode="Z" horiz-adv-x="530" d="M51 99 L311 594 L58 594 L58 714 L454 714 L454 615 L201 120 L456 120 L456 0 L51 0 L51 99 Z " />
<glyph glyph-name="bracketleft" unicode="&#x5b;" horiz-adv-x="530" d="M403 -67 L403 -164 L174 -164 L174 727 L403 727 L403 629 L291 629 L291 -67 L403 -67 Z " />
<glyph glyph-name="backslash" unicode="&#x5c;" horiz-adv-x="530" d="M330 -6 L58 720 L170 720 L441 -6 L330 -6 Z " />
<glyph glyph-name="bracketright" unicode="&#x5d;" horiz-adv-x="530" d="M99 -73 L211 -73 L211 623 L99 623 L99 720 L328 720 L328 -171 L99 -171 L99 -73 Z " />
<glyph glyph-name="asciicircum" unicode="&#x5e;" horiz-adv-x="530" d="M21 286 L217 714 L282 714 L479 286 L359 286 L250 552 L140 286 L21 286 Z " />
<glyph glyph-name="underscore" unicode="&#x5f;" horiz-adv-x="530" d="M0 -72 L500 -72 L500 -185 L0 -185 L0 -72 Z " />
<glyph glyph-name="grave" unicode="&#x60;" horiz-adv-x="530" d="M108 766 L248 766 C266.568 723.56 307.907 650.124 332 618 L332 606 L245 606 C209.616 638.662 134.817 719.456 108 757 L108 766 Z " />
<glyph glyph-name="a" unicode="a" horiz-adv-x="530" d="M332 74 C300 18 254.333 -10 195 -10 C103 -10 46 51 46 159 C46 281.667 117.667 335 239 339 L328 342 L328 360 C328 420 292 441 240 441 C197.333 441 159 427.333 123 406 L78 508 C132.667 538.667 187.667 558 257 558 C385 558 454 496 454 372 L454 0 L354 0 L335 74 L332 74 Z M328 252 L274 250 C210 247.333 173 221.667 173 171 C173 124.333 203.333 107 238 107 C286 107 328 141 328 213 L328 252 Z " />
<glyph glyph-name="b" unicode="b" horiz-adv-x="530" d="M43 760 L171 760 L171 575 C171 537.667 169 514 165 478 L170 478 C196.667 531.333 243 558 299 558 C412.723 558 474 440.312 474 276 C474 94.8225 399.844 -10 296 -10 C248 -10 205.667 12 171 60 L163 60 L147 0 L43 0 L43 760 Z M253 107 C311.667 107 337 163.333 337 274 C337 387.333 310.333 440 253 440 C194.333 440 169 385.333 169 276 C169 163.333 197 107 253 107 Z " />
<glyph glyph-name="c" unicode="c" horiz-adv-x="530" d="M445 25 C403.667 -0.333333 350.667 -10 300 -10 C157.671 -10 53 75.6883 53 272 C53 446.251 135.667 558 301 558 C358.333 558 414.667 545.333 460 520 L419 411 C387 429.667 353 440 313 440 C229 440 189 382 189 274 C189 156.667 235 107 315 107 C355 107 402.333 120.333 445 151 L445 25 Z " />
<glyph glyph-name="d" unicode="d" horiz-adv-x="530" d="M332 73 C306.667 19.6667 264 -10 204 -10 C88.3117 -10 26 101.385 26 272 C26 452 92.6667 558 206 558 C260.667 558 302.333 532.667 329 478 L337 478 C334.333 506 329 543.333 329 578 L329 760 L457 760 L457 0 L351 0 L338 73 L332 73 Z M331 272 C331 392 310 440 250 440 C183.333 440 158 380.667 158 270 C158 160.667 183.667 107 245 107 C302.333 107 331 152.333 331 255 L331 272 Z " />
<glyph glyph-name="e" unicode="e" horiz-adv-x="530" d="M443 28 C401.667 5.33333 352 -10 280 -10 C120 -10 31 88.3333 31 271 C31 444.359 112.286 558 260 558 C389.333 558 469 472.333 469 303 L469 230 L165 230 C167.667 142 220.667 105 294 105 C356.667 105 401.667 121 443 145 L443 28 Z M257 444 C201 444 168.667 402.333 166 325 L342 325 C340 404.333 311.667 444 257 444 Z " />
<glyph glyph-name="f" unicode="f" horiz-adv-x="530" d="M161 0 L161 434 L36 434 L36 510 L161 548 L161 583 C161 711 218.333 766 341 766 C385 766 431.333 759.667 474 741 L438 634 C411.333 644.667 388.667 649 366 649 C319.333 649 293 630 293 574 L293 547 L444 547 L444 434 L293 434 L293 0 L161 0 Z " />
<glyph glyph-name="g" unicode="g" horiz-adv-x="530" d="M56 -86 C113.333 -116.667 166.333 -128 209 -128 C287.667 -128 327 -90 327 -14 L327 6 C327 26 327.667 49.3333 329 68 L325 68 C294.333 10.6667 255.333 -10 206 -10 C92.6667 -10 26 97.6667 26 271 C26 446.922 93.1342 558 206 558 C256.667 558 293.333 536.667 328 478 L335 478 L347 547 L457 547 L457 8 C457 -157.333 384.667 -245 218 -245 C154 -245 106.667 -232.667 56 -206 L56 -86 Z M330 272 C330 393.333 310 440 254 440 C190 440 166 380.667 166 270 C166 163.333 188.333 107 251 107 C304.333 107 330 145.667 330 255 L330 272 Z " />
<glyph glyph-name="h" unicode="h" horiz-adv-x="530" d="M43 0 L43 760 L174 760 L174 592 C174 553.333 170.667 514.333 164 477 L172 477 C196 526.333 237.667 558 303 558 C400.333 558 462 489 462 357 L462 0 L331 0 L331 316 C331 392 319 436 259 436 C195 436 174 378 174 278 L174 0 L43 0 Z " />
<glyph glyph-name="i" unicode="i" horiz-adv-x="530" >
<path fill="black" d="M48 96 L195 112 L195 433 L71 446 L71 547 L324 547 L324 112 L452 96 L452 0 L48 0 L48 96 Z " /><g transform="translate(9,0)" ><path fill="black" d="M171 693 C171 745 197 771 249 771 C301 771 327 745 327 693 C327 643.667 302.333 616 249 616 C198.333 616 171 642.333 171 693 Z " /></g></glyph>
<glyph glyph-name="j" unicode="j" horiz-adv-x="530" >
<path fill="black" d="M31 -109 C70.3782 -122.126 125.836 -128 152 -128 C212 -128 233 -100.333 233 -27 L233 433 L78 445 L78 547 L363 547 L363 -48 C363 -181.333 307.333 -245 170 -245 C130 -245 72.3333 -238.667 31 -224 L31 -109 Z " /><g transform="translate(39,0)" ><path fill="black" d="M171 693 C171 745 197 771 249 771 C301 771 327 745 327 693 C327 643.667 302.333 616 249 616 C198.333 616 171 642.333 171 693 Z " /></g></glyph>
<glyph glyph-name="k" unicode="k" horiz-adv-x="530" d="M45 0 L45 760 L173 760 L173 440 C173 393.333 168 346.667 164 300 L166 300 C182 326.667 197.333 352.333 216 379 L335 547 L485 547 L304 291 L489 0 L337 0 L213 208 L173 181 L173 0 L45 0 Z " />
<glyph glyph-name="l" unicode="l" horiz-adv-x="530" d="M48 96 L188 112 L188 652 L65 662 L65 760 L317 760 L317 112 L452 96 L452 0 L48 0 L48 96 Z " />
<glyph glyph-name="m" unicode="m" horiz-adv-x="530" d="M18 0 L18 547 L110 547 L126 490 L130 490 C148.667 540.667 176.333 558 219 558 C267 558 285 529 297 481 L301 481 C319.667 529 347.333 558 394 558 C467.697 558 482 492.563 482 370 L482 0 L373 0 L373 389 C373 434.333 367.333 454 342 454 C307.333 454 304 418.667 304 372 L304 0 L197 0 L197 387 C197 433.667 192 454 168 454 C133.333 454 127 414.667 127 368 L127 0 L18 0 Z " />
<glyph glyph-name="n" unicode="n" horiz-adv-x="530" d="M43 0 L43 547 L151 547 L167 482 L172 482 C197.333 530 239 558 303 558 C403 558 462 495.667 462 357 L462 0 L331 0 L331 336 C331 413.333 308 445 264 445 C202.667 445 174 398 174 290 L174 0 L43 0 Z " />
<glyph glyph-name="o" unicode="o" horiz-adv-x="530" d="M250 -10 C90 -10 26 118.719 26 276 C26 440.312 99.5368 558 249 558 C384.974 558 474 455.39 474 275 C474 121.329 414.364 -10 250 -10 Z M250 106 C311.333 106 337 163 337 275 C337 385.667 308 441 250 441 C190 441 163 386.667 163 276 C163 162.667 190 106 250 106 Z " />
<glyph glyph-name="p" unicode="p" horiz-adv-x="530" d="M43 -240 L43 547 L144 547 L163 474 L169 474 C195.667 527.333 234 558 302 558 C415.074 558 474 435.948 474 276 C474 94.8225 397.693 -10 299 -10 C239 -10 201.333 17.3333 172 60 L164 60 C166.667 40 172 -8.33333 172 -51 L172 -240 L43 -240 Z M172 274 C172 154 199 107 259 107 C315 107 337 164.333 337 275 C337 387 314 440 258 440 C200.667 440 172 396 172 292 L172 274 Z " />
<glyph glyph-name="q" unicode="q" horiz-adv-x="530" d="M329 -240 L329 -37 C329 5.66667 335 42.3333 339 73 L332 73 C306.667 19.6667 260.333 -10 203 -10 C88.3593 -10 26 110.922 26 271 C26 452.463 103.082 558 208 558 C257.333 558 301 531.333 329 478 L337 478 L350 547 L457 547 L457 -240 L329 -240 Z M332 272 C332 385.333 312 440 252 440 C192 440 165 381.333 165 272 C165 158.667 191.333 107 250 107 C308.667 107 332 155 332 255 L332 272 Z " />
<glyph glyph-name="r" unicode="r" horiz-adv-x="530" d="M29 96 L141 112 L141 433 L38 446 L38 547 L237 547 L249 455 L256 455 C276 515 321.333 558 396 558 C418.667 558 449.333 552.667 484 538 L450 403 C428.667 413.667 399.667 419 377 419 C305 419 266 362 266 274 L266 112 L396 96 L396 0 L29 0 L29 96 Z " />
<glyph glyph-name="s" unicode="s" horiz-adv-x="530" d="M66 145 C112.667 121 177.667 104 235 104 C299 104 315 123.667 315 153 C315 183.393 292.7 195.318 202 238 C118 276.667 68 326 68 402 C68 502 137.333 558 272 558 C332 558 386 546 446 518 L404 412 C353.333 436 315.333 446 278 446 C226 446 204 428.333 204 403 C204 372.333 238 360 310 324 C403.994 275.66 447 246.459 447 160 C447 48 378.333 -10 229 -10 C163.667 -10 112.667 0.333333 66 23 L66 145 Z " />
<glyph glyph-name="t" unicode="t" horiz-adv-x="530" d="M148 433 L23 433 L23 499 L156 548 L197 681 L280 681 L280 547 L469 547 L469 433 L279 433 L279 199 C279 126.056 317.918 110 365 110 C391.667 110 428.333 113.333 471 128 L471 13 C429.667 -1.66667 373.667 -10 327 -10 C221.667 -10 148 45.6667 148 175 L148 433 Z " />
<glyph glyph-name="u" unicode="u" horiz-adv-x="530" d="M38 547 L169 547 L169 224 C169 142.667 190.667 107 244 107 C304 107 326 155.667 326 273 L326 547 L457 547 L457 0 L349 0 L332 70 L325 70 C299 16.6667 255.333 -10 194 -10 C95.3333 -10 38 51 38 187 L38 547 Z " />
<glyph glyph-name="v" unicode="v" horiz-adv-x="530" d="M252 117 C258.667 155.667 266.333 195 277 239 L349 547 L487 547 L325 0 L168 0 L13 547 L147 547 L222 239 C232.667 195 242.333 155.667 249 117 L252 117 Z " />
<glyph glyph-name="w" unicode="w" horiz-adv-x="530" d="M140 146 C142.667 176.667 150.333 227.667 157 265 L196 469 L303 469 L339 265 C345.667 225 353 176.667 357 146 L361 146 C363.667 182 364.333 245.333 367 288 L381 547 L494 547 L432 0 L291 0 L268 164 C260 214.667 254 271.333 250 318 L246 318 C242 271.333 233.667 214.667 227 164 L201 0 L64 0 L3 547 L118 547 L131 289 C133.663 246.388 136 180.651 136 146 L140 146 Z " />
<glyph glyph-name="x" unicode="x" horiz-adv-x="530" d="M13 0 L167 280 L18 547 L168 547 L250 381 L332 547 L481 547 L333 279 L487 0 L336 0 L248 179 L160 0 L13 0 Z " />
<glyph glyph-name="y" unicode="y" horiz-adv-x="530" d="M29 -127 C43 -131 58 -133 74 -133 C114.892 -133 163.254 -120.261 190 -32 L200 -2 L13 547 L156 547 L231 278 C243 234 249.333 199.667 256 169 L259 169 C264.333 197 272.667 235.333 282 278 L344 547 L487 547 L310 -50 C270 -187.333 204.333 -245 95 -245 C73.6667 -245 51.6667 -242.333 29 -237 L29 -127 Z " />
<glyph glyph-name="z" unicode="z" horiz-adv-x="530" d="M51 86 L286 434 L61 434 L61 547 L438 547 L438 448 L212 115 L449 115 L449 0 L51 0 L51 86 Z " />
<glyph glyph-name="braceleft" unicode="&#x7b;" horiz-adv-x="530" d="M196 139 C196 196.645 119.078 229 95 229 L95 327 C117.9 327 196 353.723 196 416 L196 558 C196 671.749 363.896 720 404 720 L404 621 C382.646 618.331 315 606.941 315 549 L315 405 C315 329.852 246.319 292.16 224 281 L224 275 C246.361 263.82 315 222.883 315 153 L315 8 C315 -43.5085 382.646 -62.3307 404 -65 L404 -164 C365.074 -164 196 -125.286 196 -1 L196 139 Z " />
<glyph glyph-name="bar" unicode="&#x7c;" horiz-adv-x="530" d="M194 -240 L194 760 L305 760 L305 -240 L194 -240 Z " />
<glyph glyph-name="braceright" unicode="&#x7d;" horiz-adv-x="530" d="M92 -65 C113.354 -62.3307 181 -50.9414 181 7 L181 151 C181 226.148 249.681 263.84 272 275 L272 281 C250.004 294.748 181 331.358 181 403 L181 548 C181 599.508 113.354 618.331 92 621 L92 720 C130.926 720 300 681.286 300 557 L300 417 C300 359.355 376.922 327 401 327 L401 229 C378.1 229 300 202.277 300 140 L300 -2 C300 -115.749 132.104 -164 92 -164 L92 -65 Z " />
<glyph glyph-name="asciitilde" unicode="&#x7e;" horiz-adv-x="530" d="M456 324 C426 290 390 273 348 273 C308 273 274.667 283 236 303 C201.333 321 170 330 142 330 C110.667 330 78 310.333 44 271 L44 381 C73.3333 415.667 109 433 151 433 C192.333 433 224.333 420.667 263 402 C300.333 383.333 328.667 375 358 375 C388.667 375 425.333 398 456 434 L456 324 Z " />
<glyph glyph-name="uni00A0" unicode="&#xa0;" horiz-adv-x="530" />
<glyph glyph-name="exclamdown" unicode="&#xa1;" horiz-adv-x="530" d="M196 300 L302 300 L323 -185 L176 -185 L196 300 Z M249 379 C202.333 379 174 405.333 174 460 C174 513.333 203.667 540 249 540 C295.667 540 325 512 325 460 C325 406 299.667 379 249 379 Z " />
<glyph glyph-name="cent" unicode="&#xa2;" horiz-adv-x="530" d="M259 -10 L259 85 C131 98.3333 74 200.667 74 362 C74 522 133.667 627 259 643 L259 724 L330 724 L330 646 C367.333 642 407.667 631.667 437 613 L403 512 C373.667 530.667 341.333 540 316 540 C236 540 196 488.333 196 363 C196 239 231.667 189 313 189 C349 189 392.333 202.667 427 228 L427 121 C401.667 102.333 366 90.3333 330 85 L330 -10 L259 -10 Z " />
<glyph glyph-name="sterling" unicode="&#xa3;" horiz-adv-x="530" d="M456 114 L456 0 L63 0 L63 108 C107 134.667 127 167 127 235 L127 316 L60 316 L60 411 L127 411 L127 524 C127 656 195.667 724 321 724 C371.667 724 418.333 710.333 461 683 L425 580 C389 600 360 610 332 610 C286.667 610 254 584 254 512 L254 411 L387 411 L387 316 L254 316 L254 236 C254 180 233 139.333 191 114 L456 114 Z " />
<glyph glyph-name="currency" unicode="&#xa4;" horiz-adv-x="530" d="M87 248 C65.6667 279.333 55 314.333 55 353 C55 389.667 65.6667 424.333 87 457 L22 522 L81 580 L144 516 C175.333 536.667 210.667 547 250 547 C289.333 547 324 536.333 354 515 L419 580 L478 524 L413 458 C433.667 426 444 391 444 353 C444 314.333 433.667 279 413 247 L476 184 L419 126 L354 190 C322 169.333 287.333 159 250 159 C210 159 174.333 169.333 143 190 L81 127 L23 185 L87 248 Z M139 353 C139 289 182 242 250 242 C318 242 361 289 361 357 C361 421 316.667 465 250 465 C183.333 465 139 419.667 139 353 Z " />
<glyph glyph-name="yen" unicode="&#xa5;" horiz-adv-x="530" d="M69 198 L186 198 L186 269 L69 269 L69 352 L163 352 L30 714 L163 714 L250 427 L335 714 L470 714 L334 352 L432 352 L432 269 L314 269 L314 198 L432 198 L432 116 L314 116 L314 0 L186 0 L186 116 L69 116 L69 198 Z " />
<glyph glyph-name="brokenbar" unicode="&#xa6;" horiz-adv-x="530" d="M194 -234 L194 161 L305 161 L305 -234 L194 -234 Z M194 365 L194 760 L305 760 L305 365 L194 365 Z " />
<glyph glyph-name="section" unicode="&#xa7;" horiz-adv-x="530" d="M72 125 C110.667 98.3333 165.333 77 216 77 C264 77 302 97.3333 302 140 C302 178.667 271.667 195.333 217 226 C129.773 273.578 79 309.604 79 384 C79 441.333 106.667 478.667 164 508 C122.667 541.333 102 581.667 102 629 C102 714.411 176.108 766 281 766 C331.667 766 374.333 754 421 730 L388 645 C349.333 668.333 313 680 279 680 C235 680 209 662.333 209 629 C209 589 247.333 567.333 286 546 C368.778 503.276 427 471.33 427 387 C427 329.667 400 288.667 352 258 C390.667 224.667 408 186 408 142 C408 48.6667 334.333 -9 213 -9 C156.333 -9 109.333 3.33333 72 28 L72 125 Z M288 299 C315.333 315 329 338 329 368 C329 408 305.333 433 228 469 C193.333 458.333 178 433.333 178 404 C178 364 209.667 343.333 255 318 L288 299 Z " />
<glyph glyph-name="dieresis" unicode="&#xa8;" horiz-adv-x="530" d="M156 618 C120 618 96 642.333 96 685 C96 729 120 752 156 752 C193.333 752 217 727.667 217 685 C217 642.333 193.333 618 156 618 Z M343 618 C307 618 283 642.333 283 685 C283 729 307 752 343 752 C380.333 752 404 727.667 404 685 C404 642.333 380.333 618 343 618 Z " />
<glyph glyph-name="copyright" unicode="&#xa9;" horiz-adv-x="530" d="M16 360 C16 501.307 120.251 593 250 593 C384.381 593 483 498.745 483 360 C483 217.022 380.641 126 250 126 C108.823 126 16 225.126 16 360 Z M250 180 C350.338 180 423 249.745 423 359 C423 470.818 348.537 538 250 538 C148.615 538 76 468.208 76 360 C76 245.333 151.177 180 250 180 Z M330 233 C305.333 221.667 279.667 216 253 216 C169 216 122 269.667 122 359 C122 447 168 502 252 502 C283.333 502 313 495 341 481 L318 426 C297.333 436 276.667 441 256 441 C216 441 190 413.667 190 359 C190 303.667 212.333 276 257 276 C281 276 306 283.333 330 294 L330 233 Z " />
<glyph glyph-name="ordfeminine" unicode="&#xaa;" horiz-adv-x="530" d="M306 427 C287.333 392.333 259 368 211 368 C149.667 368 113 408.667 113 474 C113 557.443 176.778 585.337 254 588 L297 591 L297 603 C297 635 279.333 651 244 651 C214.667 651 188.333 640.667 159 626 L134 690 C173.333 712 213.333 723 254 723 C342 723 385 679 385 595 L385 374 L322 374 L306 427 Z M297 533 L263 530 C221.667 526 201 514.333 201 481 C201 454.333 216.333 441 239 441 C275 441 297 470.667 297 516 L297 533 Z " />
<glyph glyph-name="guillemotleft" unicode="&#xab;" horiz-adv-x="530" >
<g transform="translate(-107,-10)" ><path fill="black" d="M130 266 L130 280 L280 495 L368 448 L265 273 L368 100 L280 52 L130 266 Z " /></g><g transform="translate(109,-10)" ><path fill="black" d="M130 266 L130 280 L280 495 L368 448 L265 273 L368 100 L280 52 L130 266 Z " /></g></glyph>
<glyph glyph-name="logicalnot" unicode="&#xac;" horiz-adv-x="530" d="M52 404 L449 404 L449 118 L344 118 L344 302 L52 302 L52 404 Z " />
<glyph glyph-name="uni00AD" unicode="&#xad;" horiz-adv-x="530" >
<path fill="black" d="M125 330 L375 330 L375 210 L125 210 L125 330 Z " /></glyph>
<glyph glyph-name="registered" unicode="&#xae;" horiz-adv-x="530" d="M249 126 C110.281 126 19 224.619 19 359 C19 500.437 122.03 591 251 591 C383.286 591 482 498.13 482 358 C482 216.563 379.641 126 249 126 Z M250 180 C351.229 180 422 249.745 422 359 C422 469.277 347.537 536 249 536 C149.442 536 78 466.208 78 358 C78 246.052 153.134 180 250 180 Z M158 230 L158 492 L240 492 C307.333 492 341 465.333 341 412 C341 373.333 324 350.667 296 336 L359 230 L294 230 L244 324 L217 324 L217 230 L158 230 Z M217 371 L236 371 C264 371 282 382.333 282 409 C282 431 266.667 442 236 442 L217 442 L217 371 Z " />
<glyph glyph-name="macron" unicode="&#xaf;" horiz-adv-x="530" d="M108 726 L378 726 L378 637 L108 637 L108 726 Z " />
<glyph glyph-name="degree" unicode="&#xb0;" horiz-adv-x="530" d="M249 435 C169.97 435 105 490.433 105 580 C105 667.896 169.97 724 249 724 C329.078 724 394 667.182 394 579 C394 489.303 327.9 435 249 435 Z M249 508 C287.667 508 319 534.667 319 580 C319 622.667 287.667 650 249 650 C209 650 180 621.667 180 579 C180 535 210.333 508 249 508 Z " />
<glyph glyph-name="plusminus" unicode="&#xb1;" horiz-adv-x="530" d="M48 444 L198 444 L198 633 L303 633 L303 444 L452 444 L452 342 L303 342 L303 155 L198 155 L198 342 L48 342 L48 444 Z M48 102 L452 102 L452 0 L48 0 L48 102 Z " />
<glyph glyph-name="twosuperior" unicode="&#xb2;" horiz-adv-x="530" d="M119 496 L209 597 C266.333 659.667 291 690.667 291 728 C291 756 273.667 774 239 774 C210.333 774 183.667 759.667 159 731 L115 793 C140.333 825 189 854 253 854 C337 854 386 808 386 736 C386 665.282 339.51 623.497 249 525 L223 496 L397 496 L397 415 L119 415 L119 496 Z " />
<glyph glyph-name="threesuperior" unicode="&#xb3;" horiz-adv-x="530" d="M121 526 C153 502 190.667 491 232 491 C285.333 491 303 510.333 303 541 C303 578.333 277 597 225 597 L183 597 L183 670 L219 670 C268.333 670 294 691.333 294 726 C294 755.333 276.667 773 238 773 C208.667 773 185 763.667 157 737 L116 799 C155.333 835 200 853 250 853 C327.333 853 382 813.333 382 744 C382 697.333 356.667 659.667 310 641 L310 637 C360.667 622.333 394 589.333 394 532 C394 452 329.333 407 236 407 C192.667 407 154.333 417 121 437 L121 526 Z " />
<glyph glyph-name="acute" unicode="&#xb4;" horiz-adv-x="530" d="M169 606 L169 618 C203.667 672.667 230.667 720.667 252 766 L392 766 L392 757 C365.902 717.853 300.737 646.356 255 606 L169 606 Z " />
<glyph glyph-name="mu" unicode="&#xb5;" horiz-adv-x="530" d="M38 547 L169 547 L169 224 C169 142.667 190.667 107 244 107 C304 107 326 155.667 326 273 L326 547 L457 547 L457 0 L349 0 L332 70 L325 70 C299 16.6667 255.333 -10 194 -10 C183.333 -10 175.333 -9.33333 166 -8 L166 -240 L38 -240 L38 547 Z " />
<glyph glyph-name="paragraph" unicode="&#xb6;" horiz-adv-x="530" d="M227 -127 L227 273 C215 267 200.667 264 184 264 C89.3333 264 46 342.333 46 509 C46 675.667 93 760 201 760 L431 760 L431 -127 L360 -127 L360 692 L298 692 L298 -127 L227 -127 Z " />
<glyph glyph-name="periodcentered" unicode="&#xb7;" horiz-adv-x="530" >
<g transform="translate(0,269)" ><path fill="black" d="M250 -11 C203.333 -11 174 17 174 69 C174 123 199.333 150 250 150 C296.667 150 325 123.667 325 69 C325 15.6667 295.333 -11 250 -11 Z " /></g></glyph>
<glyph glyph-name="cedilla" unicode="&#xb8;" horiz-adv-x="530" d="M153 -160 C170.333 -165.333 186.667 -167 200 -167 C234.667 -167 251 -152.667 251 -130 C251 -99.3333 224 -85 180 -81 L214 0 L281 0 L263 -42 C319 -53.3333 347 -84.3333 347 -135 C347 -200.333 303 -240 219 -240 C197.667 -240 171.667 -237 153 -233 L153 -160 Z " />
<glyph glyph-name="onesuperior" unicode="&#xb9;" horiz-adv-x="530" d="M131 481 L229 488 L229 632 C229 666.667 228.333 711.333 231 746 C220.333 735.333 203.667 725 193 717 L149 685 L104 751 L242 843 L318 843 L318 488 L409 482 L409 415 L131 415 L131 481 Z " />
<glyph glyph-name="ordmasculine" unicode="&#xba;" horiz-adv-x="530" d="M254 368 C160.667 368 107 436.667 107 546 C107 658 162 722 254 722 C342 722 397 659.333 397 546 C397 434 346 368 254 368 Z M254 443 C292.667 443 308 475.333 308 546 C308 613.333 290 647 254 647 C216 647 197 613.333 197 546 C197 477.333 216 443 254 443 Z " />
<glyph glyph-name="guillemotright" unicode="&#xbb;" horiz-adv-x="530" >
<g transform="translate(-137,-21)" ><path fill="black" d="M262 287 L160 460 L248 508 L398 294 L398 280 L248 65 L160 112 L262 287 Z " /></g><g transform="translate(79,-21)" ><path fill="black" d="M262 287 L160 460 L248 508 L398 294 L398 280 L248 65 L160 112 L262 287 Z " /></g></glyph>
<glyph glyph-name="onequarter" unicode="&#xbc;" horiz-adv-x="530" >
<g transform="translate(-4,-576)" ><path fill="black" d="M97 564 L252 844 L356 844 L356 569 L411 569 L411 495 L356 495 L356 415 L265 415 L265 495 L97 495 L97 564 Z M265 569 L265 669 C265 697 265.333 715.333 268 742 C257.333 719.333 245.333 698.667 236 680 L175 569 L265 569 Z " /></g><g transform="translate(-6,50)" ><path fill="black" d="M131 481 L229 488 L229 632 C229 666.667 228.333 711.333 231 746 C220.333 735.333 203.667 725 193 717 L149 685 L104 751 L242 843 L318 843 L318 488 L409 482 L409 415 L131 415 L131 481 Z " /></g><path fill="black" d="M26 375 L465 425 L465 359 L26 309 L26 375 Z " /></glyph>
<glyph glyph-name="onehalf" unicode="&#xbd;" horiz-adv-x="530" >
<g transform="translate(-6,50)" ><path fill="black" d="M131 481 L229 488 L229 632 C229 666.667 228.333 711.333 231 746 C220.333 735.333 203.667 725 193 717 L149 685 L104 751 L242 843 L318 843 L318 488 L409 482 L409 415 L131 415 L131 481 Z " /></g><g transform="translate(-6,-576)" ><path fill="black" d="M119 496 L209 597 C266.333 659.667 291 690.667 291 728 C291 756 273.667 774 239 774 C210.333 774 183.667 759.667 159 731 L115 793 C140.333 825 189 854 253 854 C337 854 386 808 386 736 C386 665.282 339.51 623.497 249 525 L223 496 L397 496 L397 415 L119 415 L119 496 Z " /></g><path fill="black" d="M26 375 L465 425 L465 359 L26 309 L26 375 Z " /></glyph>
<glyph glyph-name="threequarters" unicode="&#xbe;" horiz-adv-x="530" >
<g transform="translate(-4,-576)" ><path fill="black" d="M97 564 L252 844 L356 844 L356 569 L411 569 L411 495 L356 495 L356 415 L265 415 L265 495 L97 495 L97 564 Z M265 569 L265 669 C265 697 265.333 715.333 268 742 C257.333 719.333 245.333 698.667 236 680 L175 569 L265 569 Z " /></g><g transform="translate(-5,50)" ><path fill="black" d="M121 526 C153 502 190.667 491 232 491 C285.333 491 303 510.333 303 541 C303 578.333 277 597 225 597 L183 597 L183 670 L219 670 C268.333 670 294 691.333 294 726 C294 755.333 276.667 773 238 773 C208.667 773 185 763.667 157 737 L116 799 C155.333 835 200 853 250 853 C327.333 853 382 813.333 382 744 C382 697.333 356.667 659.667 310 641 L310 637 C360.667 622.333 394 589.333 394 532 C394 452 329.333 407 236 407 C192.667 407 154.333 417 121 437 L121 526 Z " /></g><path fill="black" d="M26 375 L465 425 L465 359 L26 309 L26 375 Z " /></glyph>
<glyph glyph-name="questiondown" unicode="&#xbf;" horiz-adv-x="530" d="M434 -137 C378 -175.667 320.333 -195 261 -195 C139.667 -195 75 -130 75 -22 C75 65.1673 107.515 110.188 169 169 C217.258 217.258 225 238.694 225 278 L225 300 L331 300 L331 265 C331 197 313.333 158.333 264 109 C215.947 60.9468 199 34.9412 199 -12 C199 -59.3333 223 -83 271 -83 C312.333 -83 349.333 -66.3333 392 -37 L434 -137 Z M277 379 C230.333 379 202 405.333 202 460 C202 513.333 231.667 540 277 540 C323.667 540 353 512 353 460 C353 406 327.667 379 277 379 Z " />
<glyph glyph-name="Agrave" unicode="&#xc0;" horiz-adv-x="530" >
<path fill="black" d="M154 715 L341 715 L490 0 L362 0 L328 178 L173 178 L140 0 L10 0 L154 715 Z M306 294 L273 470 C266.333 512.667 255.667 571.333 249 610 C243.667 571.333 232.667 512.667 226 470 L194 294 L306 294 Z " /><g transform="translate(-13,167)" ><path fill="black" d="M108 766 L248 766 C266.568 723.56 307.907 650.124 332 618 L332 606 L245 606 C209.616 638.662 134.817 719.456 108 757 L108 766 Z " /></g></glyph>
<glyph glyph-name="Aacute" unicode="&#xc1;" horiz-adv-x="530" d="M154 715 L341 715 L490 0 L362 0 L328 178 L173 178 L140 0 L10 0 L154 715 Z M185 785 C219.667 839.667 246.667 887.667 268 933 L408 933 L408 924 C381.902 884.853 316.737 813.356 271 773 L185 773 L185 785 Z M306 294 L273 470 C266.333 512.667 255.667 571.333 249 610 C243.667 571.333 232.667 512.667 226 470 L194 294 L306 294 Z " />
<glyph glyph-name="Acircumflex" unicode="&#xc2;" horiz-adv-x="530" d="M154 715 L341 715 L490 0 L362 0 L328 178 L173 178 L140 0 L10 0 L154 715 Z M97 785 C128.82 827.427 172.227 892.773 191 933 L310 933 C331.333 889 367 834.333 403 785 L403 773 L328 773 C304 794.333 279.333 821.333 250 856 C219.333 821.333 193 791.667 173 773 L97 773 L97 785 Z M306 294 L273 470 C266.333 512.667 255.667 571.333 249 610 C243.667 571.333 232.667 512.667 226 470 L194 294 L306 294 Z " />
<glyph glyph-name="Atilde" unicode="&#xc3;" horiz-adv-x="530" >
<path fill="black" d="M154 715 L341 715 L490 0 L362 0 L328 178 L173 178 L140 0 L10 0 L154 715 Z M306 294 L273 470 C266.333 512.667 255.667 571.333 249 610 C243.667 571.333 232.667 512.667 226 470 L194 294 L306 294 Z " /><g transform="translate(0,167)" ><path fill="black" d="M89 610 C91.6296 673.111 106.669 755 176 755 C229.216 755 268.549 703 310 703 C331.333 703 337.333 720 344 756 L411 756 C408.333 657.333 372.333 611 323 611 C268.209 611 225.654 663 190 663 C172 663 161 645.333 157 610 L89 610 Z " /></g></glyph>
<glyph glyph-name="Adieresis" unicode="&#xc4;" horiz-adv-x="530" >
<g transform="translate(0,153)" ><path fill="black" d="M156 618 C120 618 96 642.333 96 685 C96 729 120 752 156 752 C193.333 752 217 727.667 217 685 C217 642.333 193.333 618 156 618 Z M343 618 C307 618 283 642.333 283 685 C283 729 307 752 343 752 C380.333 752 404 727.667 404 685 C404 642.333 380.333 618 343 618 Z " /></g><path fill="black" d="M154 715 L341 715 L490 0 L362 0 L328 178 L173 178 L140 0 L10 0 L154 715 Z M306 294 L273 470 C266.333 512.667 255.667 571.333 249 610 C243.667 571.333 232.667 512.667 226 470 L194 294 L306 294 Z " /></glyph>
<glyph glyph-name="Aring" unicode="&#xc5;" horiz-adv-x="530" >
<path fill="black" d="M154 715 L341 715 L490 0 L362 0 L328 178 L173 178 L140 0 L10 0 L154 715 Z M306 294 L273 470 C266.333 512.667 255.667 571.333 249 610 C243.667 571.333 232.667 512.667 226 470 L194 294 L306 294 Z " /><g transform="translate(1,167)" ><path fill="black" d="M125 719 C125 789.667 174 838 250 838 C322 838 371 789.667 371 719 C371 649.667 323.333 600 250 600 C174 600 125 647 125 719 Z M198 719 C198 688.333 218.333 669 249 669 C279.667 669 299 688.333 299 719 C299 748.333 279.667 769 249 769 C219.667 769 198 749.667 198 719 Z " /></g></glyph>
<glyph glyph-name="AE" unicode="&#xc6;" horiz-adv-x="530" d="M143 714 L482 714 L482 593 L362 593 L362 430 L463 430 L463 310 L362 310 L362 121 L482 121 L482 0 L251 0 L251 175 L159 175 L129 0 L10 0 L143 714 Z M251 294 L251 599 L231 599 L179 294 L251 294 Z " />
<glyph glyph-name="Ccedilla" unicode="&#xc7;" horiz-adv-x="530" d="M208 -160 C225.333 -165.333 241.667 -167 255 -167 C289.667 -167 306 -152.667 306 -130 C306 -99.3333 279 -85 235 -81 L266 -8 C112.667 10.6667 33 137.667 33 347 C33 572.126 132.134 725 309 725 C381 725 431.333 709.667 482 679 L441 569 C403.667 595.667 364.667 606 326 606 C218.156 606 166 504.108 166 353 C166 195.667 219.333 109 322 109 C372.667 109 415.333 125.333 458 148 L458 25 C422 5.66667 380 -5.66667 332 -9 L318 -42 C374 -53.3333 402 -84.3333 402 -135 C402 -200.333 358 -240 274 -240 C252.667 -240 226.667 -237 208 -233 L208 -160 Z " />
<glyph glyph-name="Egrave" unicode="&#xc8;" horiz-adv-x="530" >
<path fill="black" d="M454 120 L454 0 L51 0 L51 714 L454 714 L454 593 L183 593 L183 425 L437 425 L437 305 L183 305 L183 120 L454 120 Z " /><g transform="translate(-11,167)" ><path fill="black" d="M108 766 L248 766 C266.568 723.56 307.907 650.124 332 618 L332 606 L245 606 C209.616 638.662 134.817 719.456 108 757 L108 766 Z " /></g></glyph>
<glyph glyph-name="Eacute" unicode="&#xc9;" horiz-adv-x="530" >
<path fill="black" d="M454 120 L454 0 L51 0 L51 714 L454 714 L454 593 L183 593 L183 425 L437 425 L437 305 L183 305 L183 120 L454 120 Z " /><g transform="translate(18,167)" ><path fill="black" d="M169 606 L169 618 C203.667 672.667 230.667 720.667 252 766 L392 766 L392 757 C365.902 717.853 300.737 646.356 255 606 L169 606 Z " /></g></glyph>
<glyph glyph-name="Ecircumflex" unicode="&#xca;" horiz-adv-x="530" >
<path fill="black" d="M454 120 L454 0 L51 0 L51 714 L454 714 L454 593 L183 593 L183 425 L437 425 L437 305 L183 305 L183 120 L454 120 Z " /><g transform="translate(2,167)" ><path fill="black" d="M97 606 L97 618 C128.82 660.427 172.227 725.773 191 766 L310 766 C331.333 722 367 667.333 403 618 L403 606 L328 606 C304 627.333 279.333 654.333 250 689 C219.333 654.333 193 624.667 173 606 L97 606 Z " /></g></glyph>
<glyph glyph-name="Edieresis" unicode="&#xcb;" horiz-adv-x="530" >
<g transform="translate(2,153)" ><path fill="black" d="M156 618 C120 618 96 642.333 96 685 C96 729 120 752 156 752 C193.333 752 217 727.667 217 685 C217 642.333 193.333 618 156 618 Z M343 618 C307 618 283 642.333 283 685 C283 729 307 752 343 752 C380.333 752 404 727.667 404 685 C404 642.333 380.333 618 343 618 Z " /></g><path fill="black" d="M454 120 L454 0 L51 0 L51 714 L454 714 L454 593 L183 593 L183 425 L437 425 L437 305 L183 305 L183 120 L454 120 Z " /></glyph>
<glyph glyph-name="Igrave" unicode="&#xcc;" horiz-adv-x="530" >
<path fill="black" d="M61 97 L186 110 L186 604 L61 617 L61 714 L439 714 L439 617 L316 604 L316 110 L439 97 L439 0 L61 0 L61 97 Z " /><g transform="translate(-13,167)" ><path fill="black" d="M108 766 L248 766 C266.568 723.56 307.907 650.124 332 618 L332 606 L245 606 C209.616 638.662 134.817 719.456 108 757 L108 766 Z " /></g></glyph>
<glyph glyph-name="Iacute" unicode="&#xcd;" horiz-adv-x="530" >
<path fill="black" d="M61 97 L186 110 L186 604 L61 617 L61 714 L439 714 L439 617 L316 604 L316 110 L439 97 L439 0 L61 0 L61 97 Z " /><g transform="translate(16,167)" ><path fill="black" d="M169 606 L169 618 C203.667 672.667 230.667 720.667 252 766 L392 766 L392 757 C365.902 717.853 300.737 646.356 255 606 L169 606 Z " /></g></glyph>
<glyph glyph-name="Icircumflex" unicode="&#xce;" horiz-adv-x="530" >
<path fill="black" d="M61 97 L186 110 L186 604 L61 617 L61 714 L439 714 L439 617 L316 604 L316 110 L439 97 L439 0 L61 0 L61 97 Z " /><g transform="translate(0,167)" ><path fill="black" d="M97 606 L97 618 C128.82 660.427 172.227 725.773 191 766 L310 766 C331.333 722 367 667.333 403 618 L403 606 L328 606 C304 627.333 279.333 654.333 250 689 C219.333 654.333 193 624.667 173 606 L97 606 Z " /></g></glyph>
<glyph glyph-name="Idieresis" unicode="&#xcf;" horiz-adv-x="530" >
<g transform="translate(0,153)" ><path fill="black" d="M156 618 C120 618 96 642.333 96 685 C96 729 120 752 156 752 C193.333 752 217 727.667 217 685 C217 642.333 193.333 618 156 618 Z M343 618 C307 618 283 642.333 283 685 C283 729 307 752 343 752 C380.333 752 404 727.667 404 685 C404 642.333 380.333 618 343 618 Z " /></g><path fill="black" d="M61 97 L186 110 L186 604 L61 617 L61 714 L439 714 L439 617 L316 604 L316 110 L439 97 L439 0 L61 0 L61 97 Z " /></glyph>
<glyph glyph-name="Eth" unicode="&#xd0;" horiz-adv-x="530" d="M41 312 L0 312 L0 412 L41 412 L41 714 L240 714 C400.104 714 492 584.926 492 370 C492 135.177 386.052 0 234 0 L41 0 L41 312 Z M221 120 C317 120 357 209.333 357 360 C357 522.667 315.667 594 225 594 L171 594 L171 412 L265 412 L265 312 L171 312 L171 120 L221 120 Z " />
<glyph glyph-name="Ntilde" unicode="&#xd1;" horiz-adv-x="530" >
<path fill="black" d="M31 0 L31 714 L215 714 L356 123 L363 123 C360.367 183.568 348 291.335 348 361 L348 714 L469 714 L469 0 L289 0 L143 598 L135 598 C141.667 506 151 430 151 350 L151 0 L31 0 Z " /><g transform="translate(5,167)" ><path fill="black" d="M89 610 C91.6296 673.111 106.669 755 176 755 C229.216 755 268.549 703 310 703 C331.333 703 337.333 720 344 756 L411 756 C408.333 657.333 372.333 611 323 611 C268.209 611 225.654 663 190 663 C172 663 161 645.333 157 610 L89 610 Z " /></g></glyph>
<glyph glyph-name="Ograve" unicode="&#xd2;" horiz-adv-x="530" >
<path fill="black" d="M250 -8 C84.6667 -8 18 133.437 18 360 C18 590.9 85.3377 725 249 725 C413.442 725 482 584.693 482 358 C482 132.978 414.156 -8 250 -8 Z M252 112 C324.866 112 348 206.052 348 358 C348 520.667 323 604 251 604 C176.333 604 152 513.667 152 359 C152 205.667 178.667 112 252 112 Z " /><g transform="translate(-13,167)" ><path fill="black" d="M108 766 L248 766 C266.568 723.56 307.907 650.124 332 618 L332 606 L245 606 C209.616 638.662 134.817 719.456 108 757 L108 766 Z " /></g></glyph>
<glyph glyph-name="Oacute" unicode="&#xd3;" horiz-adv-x="530" >
<path fill="black" d="M250 -8 C84.6667 -8 18 133.437 18 360 C18 590.9 85.3377 725 249 725 C413.442 725 482 584.693 482 358 C482 132.978 414.156 -8 250 -8 Z M252 112 C324.866 112 348 206.052 348 358 C348 520.667 323 604 251 604 C176.333 604 152 513.667 152 359 C152 205.667 178.667 112 252 112 Z " /><g transform="translate(16,167)" ><path fill="black" d="M169 606 L169 618 C203.667 672.667 230.667 720.667 252 766 L392 766 L392 757 C365.902 717.853 300.737 646.356 255 606 L169 606 Z " /></g></glyph>
<glyph glyph-name="Ocircumflex" unicode="&#xd4;" horiz-adv-x="530" >
<path fill="black" d="M250 -8 C84.6667 -8 18 133.437 18 360 C18 590.9 85.3377 725 249 725 C413.442 725 482 584.693 482 358 C482 132.978 414.156 -8 250 -8 Z M252 112 C324.866 112 348 206.052 348 358 C348 520.667 323 604 251 604 C176.333 604 152 513.667 152 359 C152 205.667 178.667 112 252 112 Z " /><g transform="translate(0,167)" ><path fill="black" d="M97 606 L97 618 C128.82 660.427 172.227 725.773 191 766 L310 766 C331.333 722 367 667.333 403 618 L403 606 L328 606 C304 627.333 279.333 654.333 250 689 C219.333 654.333 193 624.667 173 606 L97 606 Z " /></g></glyph>
<glyph glyph-name="Otilde" unicode="&#xd5;" horiz-adv-x="530" >
<path fill="black" d="M250 -8 C84.6667 -8 18 133.437 18 360 C18 590.9 85.3377 725 249 725 C413.442 725 482 584.693 482 358 C482 132.978 414.156 -8 250 -8 Z M252 112 C324.866 112 348 206.052 348 358 C348 520.667 323 604 251 604 C176.333 604 152 513.667 152 359 C152 205.667 178.667 112 252 112 Z " /><g transform="translate(0,167)" ><path fill="black" d="M89 610 C91.6296 673.111 106.669 755 176 755 C229.216 755 268.549 703 310 703 C331.333 703 337.333 720 344 756 L411 756 C408.333 657.333 372.333 611 323 611 C268.209 611 225.654 663 190 663 C172 663 161 645.333 157 610 L89 610 Z " /></g></glyph>
<glyph glyph-name="Odieresis" unicode="&#xd6;" horiz-adv-x="530" >
<g transform="translate(0,153)" ><path fill="black" d="M156 618 C120 618 96 642.333 96 685 C96 729 120 752 156 752 C193.333 752 217 727.667 217 685 C217 642.333 193.333 618 156 618 Z M343 618 C307 618 283 642.333 283 685 C283 729 307 752 343 752 C380.333 752 404 727.667 404 685 C404 642.333 380.333 618 343 618 Z " /></g><path fill="black" d="M250 -8 C84.6667 -8 18 133.437 18 360 C18 590.9 85.3377 725 249 725 C413.442 725 482 584.693 482 358 C482 132.978 414.156 -8 250 -8 Z M252 112 C324.866 112 348 206.052 348 358 C348 520.667 323 604 251 604 C176.333 604 152 513.667 152 359 C152 205.667 178.667 112 252 112 Z " /></glyph>
<glyph glyph-name="multiply" unicode="&#xd7;" horiz-adv-x="530" d="M50 225 L177 353 L50 481 L119 552 L248 425 L378 553 L450 484 L319 353 L447 224 L377 154 L248 282 L118 153 L50 225 Z " />
<glyph glyph-name="Oslash" unicode="&#xd8;" horiz-adv-x="530" d="M70 94 C34 158 18 248 18 360 C18 590.9 85.3377 725 249 725 C301.667 725 345.333 710.667 380 682 L420 757 L487 724 L432 619 C466.667 555 482 467.333 482 358 C482 132.978 414.156 -8 250 -8 C199.333 -8 157 5.33333 123 32 L83 -44 L15 -11 L70 94 Z M317 562 C302.333 590 280.333 604 251 604 C176.333 604 152 513.667 152 359 C152 321.667 154.333 288.667 157 258 L317 562 Z M186 153 C202 125.667 224 112 252 112 C324.866 112 348 206.052 348 358 C348 392.667 346.667 425 344 453 L186 153 Z " />
<glyph glyph-name="Ugrave" unicode="&#xd9;" horiz-adv-x="530" >
<path fill="black" d="M31 714 L163 714 L163 269 C163 155.667 182 110 250 110 C320.667 110 337 158 337 270 L337 714 L469 714 L469 260 C469 77.3333 406 -10 250 -10 C94 -10 31 75.3333 31 258 L31 714 Z " /><g transform="translate(-13,167)" ><path fill="black" d="M108 766 L248 766 C266.568 723.56 307.907 650.124 332 618 L332 606 L245 606 C209.616 638.662 134.817 719.456 108 757 L108 766 Z " /></g></glyph>
<glyph glyph-name="Uacute" unicode="&#xda;" horiz-adv-x="530" >
<path fill="black" d="M31 714 L163 714 L163 269 C163 155.667 182 110 250 110 C320.667 110 337 158 337 270 L337 714 L469 714 L469 260 C469 77.3333 406 -10 250 -10 C94 -10 31 75.3333 31 258 L31 714 Z " /><g transform="translate(16,167)" ><path fill="black" d="M169 606 L169 618 C203.667 672.667 230.667 720.667 252 766 L392 766 L392 757 C365.902 717.853 300.737 646.356 255 606 L169 606 Z " /></g></glyph>
<glyph glyph-name="Ucircumflex" unicode="&#xdb;" horiz-adv-x="530" >
<path fill="black" d="M31 714 L163 714 L163 269 C163 155.667 182 110 250 110 C320.667 110 337 158 337 270 L337 714 L469 714 L469 260 C469 77.3333 406 -10 250 -10 C94 -10 31 75.3333 31 258 L31 714 Z " /><g transform="translate(0,167)" ><path fill="black" d="M97 606 L97 618 C128.82 660.427 172.227 725.773 191 766 L310 766 C331.333 722 367 667.333 403 618 L403 606 L328 606 C304 627.333 279.333 654.333 250 689 C219.333 654.333 193 624.667 173 606 L97 606 Z " /></g></glyph>
<glyph glyph-name="Udieresis" unicode="&#xdc;" horiz-adv-x="530" >
<g transform="translate(0,153)" ><path fill="black" d="M156 618 C120 618 96 642.333 96 685 C96 729 120 752 156 752 C193.333 752 217 727.667 217 685 C217 642.333 193.333 618 156 618 Z M343 618 C307 618 283 642.333 283 685 C283 729 307 752 343 752 C380.333 752 404 727.667 404 685 C404 642.333 380.333 618 343 618 Z " /></g><path fill="black" d="M31 714 L163 714 L163 269 C163 155.667 182 110 250 110 C320.667 110 337 158 337 270 L337 714 L469 714 L469 260 C469 77.3333 406 -10 250 -10 C94 -10 31 75.3333 31 258 L31 714 Z " /></glyph>
<glyph glyph-name="Yacute" unicode="&#xdd;" horiz-adv-x="530" >
<path fill="black" d="M185 0 L185 275 L10 714 L153 714 L250 413 L348 714 L490 714 L312 276 L312 0 L185 0 Z " /><g transform="translate(16,167)" ><path fill="black" d="M169 606 L169 618 C203.667 672.667 230.667 720.667 252 766 L392 766 L392 757 C365.902 717.853 300.737 646.356 255 606 L169 606 Z " /></g></glyph>
<glyph glyph-name="Thorn" unicode="&#xde;" horiz-adv-x="530" d="M51 0 L51 714 L183 714 L183 594 L248 594 C400 594 469 516 469 372 C469 234.407 405.719 136 243 136 L183 136 L183 0 L51 0 Z M183 250 L230 250 C310 250 341 285 341 365 C341 445 308.333 481 243 481 L183 481 L183 250 Z " />
<glyph glyph-name="germandbls" unicode="&#xdf;" horiz-adv-x="530" d="M45 558 C45 684.667 118 765 246 765 C352.667 765 429 707.333 429 594 C429 486.444 361 461.556 361 402 C361 379.333 369 362.667 405 324 C442.426 283.901 475 242.799 475 161 C475 49 416 -10 312 -10 C273.333 -10 243.333 -2 210 18 L210 136 C240.667 112 264.333 99 295 99 C330.333 99 348 120 348 162 C348 184.667 340.333 203.333 303 246 C268.4 288.585 233 319.089 233 391 C233 491.895 302 506.673 302 590 C302 631.333 284 660 240 660 C186.667 660 170 619 170 535 L170 0 L45 0 L45 558 Z " />
<glyph glyph-name="agrave" unicode="&#xe0;" horiz-adv-x="530" >
<path fill="black" d="M332 74 C300 18 254.333 -10 195 -10 C103 -10 46 51 46 159 C46 281.667 117.667 335 239 339 L328 342 L328 360 C328 420 292 441 240 441 C197.333 441 159 427.333 123 406 L78 508 C132.667 538.667 187.667 558 257 558 C385 558 454 496 454 372 L454 0 L354 0 L335 74 L332 74 Z M328 252 L274 250 C210 247.333 173 221.667 173 171 C173 124.333 203.333 107 238 107 C286 107 328 141 328 213 L328 252 Z " /><g transform="translate(1,0)" ><path fill="black" d="M108 766 L248 766 C266.568 723.56 307.907 650.124 332 618 L332 606 L245 606 C209.616 638.662 134.817 719.456 108 757 L108 766 Z " /></g></glyph>
<glyph glyph-name="aacute" unicode="&#xe1;" horiz-adv-x="530" >
<path fill="black" d="M332 74 C300 18 254.333 -10 195 -10 C103 -10 46 51 46 159 C46 281.667 117.667 335 239 339 L328 342 L328 360 C328 420 292 441 240 441 C197.333 441 159 427.333 123 406 L78 508 C132.667 538.667 187.667 558 257 558 C385 558 454 496 454 372 L454 0 L354 0 L335 74 L332 74 Z M328 252 L274 250 C210 247.333 173 221.667 173 171 C173 124.333 203.333 107 238 107 C286 107 328 141 328 213 L328 252 Z " /><g transform="translate(30,0)" ><path fill="black" d="M169 606 L169 618 C203.667 672.667 230.667 720.667 252 766 L392 766 L392 757 C365.902 717.853 300.737 646.356 255 606 L169 606 Z " /></g></glyph>
<glyph glyph-name="acircumflex" unicode="&#xe2;" horiz-adv-x="530" >
<path fill="black" d="M332 74 C300 18 254.333 -10 195 -10 C103 -10 46 51 46 159 C46 281.667 117.667 335 239 339 L328 342 L328 360 C328 420 292 441 240 441 C197.333 441 159 427.333 123 406 L78 508 C132.667 538.667 187.667 558 257 558 C385 558 454 496 454 372 L454 0 L354 0 L335 74 L332 74 Z M328 252 L274 250 C210 247.333 173 221.667 173 171 C173 124.333 203.333 107 238 107 C286 107 328 141 328 213 L328 252 Z " /><g transform="translate(14,0)" ><path fill="black" d="M97 606 L97 618 C128.82 660.427 172.227 725.773 191 766 L310 766 C331.333 722 367 667.333 403 618 L403 606 L328 606 C304 627.333 279.333 654.333 250 689 C219.333 654.333 193 624.667 173 606 L97 606 Z " /></g></glyph>
<glyph glyph-name="atilde" unicode="&#xe3;" horiz-adv-x="530" >
<path fill="black" d="M332 74 C300 18 254.333 -10 195 -10 C103 -10 46 51 46 159 C46 281.667 117.667 335 239 339 L328 342 L328 360 C328 420 292 441 240 441 C197.333 441 159 427.333 123 406 L78 508 C132.667 538.667 187.667 558 257 558 C385 558 454 496 454 372 L454 0 L354 0 L335 74 L332 74 Z M328 252 L274 250 C210 247.333 173 221.667 173 171 C173 124.333 203.333 107 238 107 C286 107 328 141 328 213 L328 252 Z " /><g transform="translate(14,0)" ><path fill="black" d="M89 610 C91.6296 673.111 106.669 755 176 755 C229.216 755 268.549 703 310 703 C331.333 703 337.333 720 344 756 L411 756 C408.333 657.333 372.333 611 323 611 C268.209 611 225.654 663 190 663 C172 663 161 645.333 157 610 L89 610 Z " /></g></glyph>
<glyph glyph-name="adieresis" unicode="&#xe4;" horiz-adv-x="530" >
<g transform="translate(14,-14)" ><path fill="black" d="M156 618 C120 618 96 642.333 96 685 C96 729 120 752 156 752 C193.333 752 217 727.667 217 685 C217 642.333 193.333 618 156 618 Z M343 618 C307 618 283 642.333 283 685 C283 729 307 752 343 752 C380.333 752 404 727.667 404 685 C404 642.333 380.333 618 343 618 Z " /></g><path fill="black" d="M332 74 C300 18 254.333 -10 195 -10 C103 -10 46 51 46 159 C46 281.667 117.667 335 239 339 L328 342 L328 360 C328 420 292 441 240 441 C197.333 441 159 427.333 123 406 L78 508 C132.667 538.667 187.667 558 257 558 C385 558 454 496 454 372 L454 0 L354 0 L335 74 L332 74 Z M328 252 L274 250 C210 247.333 173 221.667 173 171 C173 124.333 203.333 107 238 107 C286 107 328 141 328 213 L328 252 Z " /></glyph>
<glyph glyph-name="aring" unicode="&#xe5;" horiz-adv-x="530" >
<path fill="black" d="M332 74 C300 18 254.333 -10 195 -10 C103 -10 46 51 46 159 C46 281.667 117.667 335 239 339 L328 342 L328 360 C328 420 292 441 240 441 C197.333 441 159 427.333 123 406 L78 508 C132.667 538.667 187.667 558 257 558 C385 558 454 496 454 372 L454 0 L354 0 L335 74 L332 74 Z M328 252 L274 250 C210 247.333 173 221.667 173 171 C173 124.333 203.333 107 238 107 C286 107 328 141 328 213 L328 252 Z " /><g transform="translate(15,0)" ><path fill="black" d="M125 719 C125 789.667 174 838 250 838 C322 838 371 789.667 371 719 C371 649.667 323.333 600 250 600 C174 600 125 647 125 719 Z M198 719 C198 688.333 218.333 669 249 669 C279.667 669 299 688.333 299 719 C299 748.333 279.667 769 249 769 C219.667 769 198 749.667 198 719 Z " /></g></glyph>
<glyph glyph-name="ae" unicode="&#xe6;" horiz-adv-x="530" d="M196 334 L196 368 C196 430.667 170.667 448 136 448 C110.667 448 86.6667 439.667 64 423 L23 513 C61.6667 541 107 557 151 557 C195 557 233.667 536.667 259 494 C285.667 536 318.333 557 357 557 C456.662 557 492 451.619 492 290 L492 238 L311 238 C311 142 347.333 103 398 103 C424.667 103 446 114.333 474 141 L474 28 C448 2.66667 416.333 -10 379 -10 C324.333 -10 280.667 15.3333 250 82 C219.333 15.3333 188.333 -10 135 -10 C52.3333 -10 8 54.3333 8 161 C8 269 54.3333 325.667 147 331 L196 334 Z M195 244 L172 244 C137.333 242.667 116 218.667 116 168 C116 125.333 130.333 104 153 104 C181 104 195 133.333 195 208 L195 244 Z M390 331 C390 415 377.333 444 352 444 C326.667 444 313.333 415 312 331 L390 331 Z " />
<glyph glyph-name="ccedilla" unicode="&#xe7;" horiz-adv-x="530" d="M204 -160 C221.333 -165.333 237.667 -167 251 -167 C285.667 -167 302 -152.667 302 -130 C302 -99.3333 275 -85 231 -81 L262 -8 C140.478 7.85065 53 92.582 53 272 C53 446.251 135.667 558 301 558 C358.333 558 414.667 545.333 460 520 L419 411 C387 429.667 353 440 313 440 C229 440 189 382 189 274 C189 156.667 235 107 315 107 C355 107 402.333 120.333 445 151 L445 25 C411.667 5 370.667 -6.33333 328 -9 L314 -42 C370 -53.3333 398 -84.3333 398 -135 C398 -200.333 354 -240 270 -240 C248.667 -240 222.667 -237 204 -233 L204 -160 Z " />
<glyph glyph-name="egrave" unicode="&#xe8;" horiz-adv-x="530" >
<path fill="black" d="M443 28 C401.667 5.33333 352 -10 280 -10 C120 -10 31 88.3333 31 271 C31 444.359 112.286 558 260 558 C389.333 558 469 472.333 469 303 L469 230 L165 230 C167.667 142 220.667 105 294 105 C356.667 105 401.667 121 443 145 L443 28 Z M257 444 C201 444 168.667 402.333 166 325 L342 325 C340 404.333 311.667 444 257 444 Z " /><g transform="translate(-4,0)" ><path fill="black" d="M108 766 L248 766 C266.568 723.56 307.907 650.124 332 618 L332 606 L245 606 C209.616 638.662 134.817 719.456 108 757 L108 766 Z " /></g></glyph>
<glyph glyph-name="eacute" unicode="&#xe9;" horiz-adv-x="530" >
<path fill="black" d="M443 28 C401.667 5.33333 352 -10 280 -10 C120 -10 31 88.3333 31 271 C31 444.359 112.286 558 260 558 C389.333 558 469 472.333 469 303 L469 230 L165 230 C167.667 142 220.667 105 294 105 C356.667 105 401.667 121 443 145 L443 28 Z M257 444 C201 444 168.667 402.333 166 325 L342 325 C340 404.333 311.667 444 257 444 Z " /><g transform="translate(25,0)" ><path fill="black" d="M169 606 L169 618 C203.667 672.667 230.667 720.667 252 766 L392 766 L392 757 C365.902 717.853 300.737 646.356 255 606 L169 606 Z " /></g></glyph>
<glyph glyph-name="ecircumflex" unicode="&#xea;" horiz-adv-x="530" >
<path fill="black" d="M443 28 C401.667 5.33333 352 -10 280 -10 C120 -10 31 88.3333 31 271 C31 444.359 112.286 558 260 558 C389.333 558 469 472.333 469 303 L469 230 L165 230 C167.667 142 220.667 105 294 105 C356.667 105 401.667 121 443 145 L443 28 Z M257 444 C201 444 168.667 402.333 166 325 L342 325 C340 404.333 311.667 444 257 444 Z " /><g transform="translate(9,0)" ><path fill="black" d="M97 606 L97 618 C128.82 660.427 172.227 725.773 191 766 L310 766 C331.333 722 367 667.333 403 618 L403 606 L328 606 C304 627.333 279.333 654.333 250 689 C219.333 654.333 193 624.667 173 606 L97 606 Z " /></g></glyph>
<glyph glyph-name="edieresis" unicode="&#xeb;" horiz-adv-x="530" >
<g transform="translate(9,-14)" ><path fill="black" d="M156 618 C120 618 96 642.333 96 685 C96 729 120 752 156 752 C193.333 752 217 727.667 217 685 C217 642.333 193.333 618 156 618 Z M343 618 C307 618 283 642.333 283 685 C283 729 307 752 343 752 C380.333 752 404 727.667 404 685 C404 642.333 380.333 618 343 618 Z " /></g><path fill="black" d="M443 28 C401.667 5.33333 352 -10 280 -10 C120 -10 31 88.3333 31 271 C31 444.359 112.286 558 260 558 C389.333 558 469 472.333 469 303 L469 230 L165 230 C167.667 142 220.667 105 294 105 C356.667 105 401.667 121 443 145 L443 28 Z M257 444 C201 444 168.667 402.333 166 325 L342 325 C340 404.333 311.667 444 257 444 Z " /></glyph>
<glyph glyph-name="igrave" unicode="&#xec;" horiz-adv-x="500" >
<path fill="black" d="M48 96 L195 112 L195 433 L71 446 L71 547 L324 547 L324 112 L452 96 L452 0 L48 0 L48 96 Z " /><g transform="translate(-13,0)" ><path fill="black" d="M108 766 L248 766 C266.568 723.56 307.907 650.124 332 618 L332 606 L245 606 C209.616 638.662 134.817 719.456 108 757 L108 766 Z " /></g></glyph>
<glyph glyph-name="iacute" unicode="&#xed;" horiz-adv-x="500" >
<path fill="black" d="M48 96 L195 112 L195 433 L71 446 L71 547 L324 547 L324 112 L452 96 L452 0 L48 0 L48 96 Z " /><g transform="translate(16,0)" ><path fill="black" d="M169 606 L169 618 C203.667 672.667 230.667 720.667 252 766 L392 766 L392 757 C365.902 717.853 300.737 646.356 255 606 L169 606 Z " /></g></glyph>
<glyph glyph-name="icircumflex" unicode="&#xee;" horiz-adv-x="500" >
<path fill="black" d="M48 96 L195 112 L195 433 L71 446 L71 547 L324 547 L324 112 L452 96 L452 0 L48 0 L48 96 Z " /><path fill="black" d="M97 606 L97 618 C128.82 660.427 172.227 725.773 191 766 L310 766 C331.333 722 367 667.333 403 618 L403 606 L328 606 C304 627.333 279.333 654.333 250 689 C219.333 654.333 193 624.667 173 606 L97 606 Z " /></glyph>
<glyph glyph-name="idieresis" unicode="&#xef;" horiz-adv-x="500" >
<g transform="translate(0,-14)" ><path fill="black" d="M156 618 C120 618 96 642.333 96 685 C96 729 120 752 156 752 C193.333 752 217 727.667 217 685 C217 642.333 193.333 618 156 618 Z M343 618 C307 618 283 642.333 283 685 C283 729 307 752 343 752 C380.333 752 404 727.667 404 685 C404 642.333 380.333 618 343 618 Z " /></g><path fill="black" d="M48 96 L195 112 L195 433 L71 446 L71 547 L324 547 L324 112 L452 96 L452 0 L48 0 L48 96 Z " /></glyph>
<glyph glyph-name="eth" unicode="&#xf0;" horiz-adv-x="530" d="M317 459 C306.333 503 277.667 548.667 243 590 L166 533 L118 597 L187 648 C167 666.667 146.667 680.667 128 694 L182 766 C215.333 751.333 245 732.333 273 711 L348 766 L396 703 L333 656 C425 556 474 420.333 474 275 C474 89.6667 392.667 -10 250 -10 C111.333 -10 26 91.3896 26 239 C26 395.312 115.082 485 228 485 C264.667 485 293.333 475.667 314 457 L317 459 Z M251 95 C319 95 346 147.333 346 242 C346 326 317.667 379 251 379 C183 379 154 333 154 237 C154 149 183 95 251 95 Z " />
<glyph glyph-name="ntilde" unicode="&#xf1;" horiz-adv-x="530" >
<path fill="black" d="M43 0 L43 547 L151 547 L167 482 L172 482 C197.333 530 239 558 303 558 C403 558 462 495.667 462 357 L462 0 L331 0 L331 336 C331 413.333 308 445 264 445 C202.667 445 174 398 174 290 L174 0 L43 0 Z " /><g transform="translate(10,0)" ><path fill="black" d="M89 610 C91.6296 673.111 106.669 755 176 755 C229.216 755 268.549 703 310 703 C331.333 703 337.333 720 344 756 L411 756 C408.333 657.333 372.333 611 323 611 C268.209 611 225.654 663 190 663 C172 663 161 645.333 157 610 L89 610 Z " /></g></glyph>
<glyph glyph-name="ograve" unicode="&#xf2;" horiz-adv-x="530" >
<path fill="black" d="M250 -10 C90 -10 26 118.719 26 276 C26 440.312 99.5368 558 249 558 C384.974 558 474 455.39 474 275 C474 121.329 414.364 -10 250 -10 Z M250 106 C311.333 106 337 163 337 275 C337 385.667 308 441 250 441 C190 441 163 386.667 163 276 C163 162.667 190 106 250 106 Z " /><g transform="translate(-13,0)" ><path fill="black" d="M108 766 L248 766 C266.568 723.56 307.907 650.124 332 618 L332 606 L245 606 C209.616 638.662 134.817 719.456 108 757 L108 766 Z " /></g></glyph>
<glyph glyph-name="oacute" unicode="&#xf3;" horiz-adv-x="530" >
<path fill="black" d="M250 -10 C90 -10 26 118.719 26 276 C26 440.312 99.5368 558 249 558 C384.974 558 474 455.39 474 275 C474 121.329 414.364 -10 250 -10 Z M250 106 C311.333 106 337 163 337 275 C337 385.667 308 441 250 441 C190 441 163 386.667 163 276 C163 162.667 190 106 250 106 Z " /><g transform="translate(16,0)" ><path fill="black" d="M169 606 L169 618 C203.667 672.667 230.667 720.667 252 766 L392 766 L392 757 C365.902 717.853 300.737 646.356 255 606 L169 606 Z " /></g></glyph>
<glyph glyph-name="ocircumflex" unicode="&#xf4;" horiz-adv-x="530" >
<path fill="black" d="M250 -10 C90 -10 26 118.719 26 276 C26 440.312 99.5368 558 249 558 C384.974 558 474 455.39 474 275 C474 121.329 414.364 -10 250 -10 Z M250 106 C311.333 106 337 163 337 275 C337 385.667 308 441 250 441 C190 441 163 386.667 163 276 C163 162.667 190 106 250 106 Z " /><path fill="black" d="M97 606 L97 618 C128.82 660.427 172.227 725.773 191 766 L310 766 C331.333 722 367 667.333 403 618 L403 606 L328 606 C304 627.333 279.333 654.333 250 689 C219.333 654.333 193 624.667 173 606 L97 606 Z " /></glyph>
<glyph glyph-name="otilde" unicode="&#xf5;" horiz-adv-x="530" >
<path fill="black" d="M250 -10 C90 -10 26 118.719 26 276 C26 440.312 99.5368 558 249 558 C384.974 558 474 455.39 474 275 C474 121.329 414.364 -10 250 -10 Z M250 106 C311.333 106 337 163 337 275 C337 385.667 308 441 250 441 C190 441 163 386.667 163 276 C163 162.667 190 106 250 106 Z " /><path fill="black" d="M89 610 C91.6296 673.111 106.669 755 176 755 C229.216 755 268.549 703 310 703 C331.333 703 337.333 720 344 756 L411 756 C408.333 657.333 372.333 611 323 611 C268.209 611 225.654 663 190 663 C172 663 161 645.333 157 610 L89 610 Z " /></glyph>
<glyph glyph-name="odieresis" unicode="&#xf6;" horiz-adv-x="530" >
<g transform="translate(0,-14)" ><path fill="black" d="M156 618 C120 618 96 642.333 96 685 C96 729 120 752 156 752 C193.333 752 217 727.667 217 685 C217 642.333 193.333 618 156 618 Z M343 618 C307 618 283 642.333 283 685 C283 729 307 752 343 752 C380.333 752 404 727.667 404 685 C404 642.333 380.333 618 343 618 Z " /></g><path fill="black" d="M250 -10 C90 -10 26 118.719 26 276 C26 440.312 99.5368 558 249 558 C384.974 558 474 455.39 474 275 C474 121.329 414.364 -10 250 -10 Z M250 106 C311.333 106 337 163 337 275 C337 385.667 308 441 250 441 C190 441 163 386.667 163 276 C163 162.667 190 106 250 106 Z " /></glyph>
<glyph glyph-name="divide" unicode="&#xf7;" horiz-adv-x="530" d="M48 404 L452 404 L452 302 L48 302 L48 404 Z M251 89 C209.667 89 184 116 184 164 C184 214 206.333 239 251 239 C294.333 239 316 214 316 164 C316 114.667 291 89 251 89 Z M251 466 C209.667 466 184 493 184 541 C184 591 206.333 616 251 616 C294.333 616 316 591 316 541 C316 491.667 291 466 251 466 Z " />
<glyph glyph-name="oslash" unicode="&#xf8;" horiz-adv-x="530" d="M97 51 C47.6667 103 26 184 26 276 C26 440.312 99.5368 558 249 558 C289 558 323.667 549.667 353 533 L383 589 L448 556 L411 486 C451 438 474 367 474 275 C474 121.329 414.364 -10 250 -10 C215.333 -10 184.333 -4 157 8 L123 -56 L58 -23 L97 51 Z M296 425 C284.667 435.667 269.333 441 250 441 C190 441 163 386.667 163 276 C163 241.333 164.333 213 171 189 L296 425 Z M214 115 C224 109 236 106 250 106 C311.333 106 337 163 337 275 C337 299 335.667 320.333 333 339 L214 115 Z " />
<glyph glyph-name="ugrave" unicode="&#xf9;" horiz-adv-x="530" >
<path fill="black" d="M38 547 L169 547 L169 224 C169 142.667 190.667 107 244 107 C304 107 326 155.667 326 273 L326 547 L457 547 L457 0 L349 0 L332 70 L325 70 C299 16.6667 255.333 -10 194 -10 C95.3333 -10 38 51 38 187 L38 547 Z " /><g transform="translate(-13,0)" ><path fill="black" d="M108 766 L248 766 C266.568 723.56 307.907 650.124 332 618 L332 606 L245 606 C209.616 638.662 134.817 719.456 108 757 L108 766 Z " /></g></glyph>
<glyph glyph-name="uacute" unicode="&#xfa;" horiz-adv-x="530" >
<path fill="black" d="M38 547 L169 547 L169 224 C169 142.667 190.667 107 244 107 C304 107 326 155.667 326 273 L326 547 L457 547 L457 0 L349 0 L332 70 L325 70 C299 16.6667 255.333 -10 194 -10 C95.3333 -10 38 51 38 187 L38 547 Z " /><g transform="translate(16,0)" ><path fill="black" d="M169 606 L169 618 C203.667 672.667 230.667 720.667 252 766 L392 766 L392 757 C365.902 717.853 300.737 646.356 255 606 L169 606 Z " /></g></glyph>
<glyph glyph-name="ucircumflex" unicode="&#xfb;" horiz-adv-x="530" >
<path fill="black" d="M38 547 L169 547 L169 224 C169 142.667 190.667 107 244 107 C304 107 326 155.667 326 273 L326 547 L457 547 L457 0 L349 0 L332 70 L325 70 C299 16.6667 255.333 -10 194 -10 C95.3333 -10 38 51 38 187 L38 547 Z " /><path fill="black" d="M97 606 L97 618 C128.82 660.427 172.227 725.773 191 766 L310 766 C331.333 722 367 667.333 403 618 L403 606 L328 606 C304 627.333 279.333 654.333 250 689 C219.333 654.333 193 624.667 173 606 L97 606 Z " /></glyph>
<glyph glyph-name="udieresis" unicode="&#xfc;" horiz-adv-x="530" >
<g transform="translate(0,-14)" ><path fill="black" d="M156 618 C120 618 96 642.333 96 685 C96 729 120 752 156 752 C193.333 752 217 727.667 217 685 C217 642.333 193.333 618 156 618 Z M343 618 C307 618 283 642.333 283 685 C283 729 307 752 343 752 C380.333 752 404 727.667 404 685 C404 642.333 380.333 618 343 618 Z " /></g><path fill="black" d="M38 547 L169 547 L169 224 C169 142.667 190.667 107 244 107 C304 107 326 155.667 326 273 L326 547 L457 547 L457 0 L349 0 L332 70 L325 70 C299 16.6667 255.333 -10 194 -10 C95.3333 -10 38 51 38 187 L38 547 Z " /></glyph>
<glyph glyph-name="yacute" unicode="&#xfd;" horiz-adv-x="530" >
<path fill="black" d="M29 -127 C43 -131 58 -133 74 -133 C114.892 -133 163.254 -120.261 190 -32 L200 -2 L13 547 L156 547 L231 278 C243 234 249.333 199.667 256 169 L259 169 C264.333 197 272.667 235.333 282 278 L344 547 L487 547 L310 -50 C270 -187.333 204.333 -245 95 -245 C73.6667 -245 51.6667 -242.333 29 -237 L29 -127 Z " /><g transform="translate(16,0)" ><path fill="black" d="M169 606 L169 618 C203.667 672.667 230.667 720.667 252 766 L392 766 L392 757 C365.902 717.853 300.737 646.356 255 606 L169 606 Z " /></g></glyph>
<glyph glyph-name="thorn" unicode="&#xfe;" horiz-adv-x="530" d="M43 -240 L43 729 L172 729 L172 573 C172 538.333 169.667 508.667 163 474 L169 474 C195.667 527.333 234 558 302 558 C415.074 558 474 435.948 474 276 C474 94.8225 397.693 -10 299 -10 C239 -10 201.333 17.3333 172 60 L164 60 C166.667 37.3333 172 -10 172 -46 L172 -240 L43 -240 Z M172 274 C172 154 199 107 259 107 C315 107 337 164.333 337 275 C337 387 314 440 258 440 C200.667 440 172 396 172 292 L172 274 Z " />
<glyph glyph-name="ydieresis" unicode="&#xff;" horiz-adv-x="530" >
<g transform="translate(0,-14)" ><path fill="black" d="M156 618 C120 618 96 642.333 96 685 C96 729 120 752 156 752 C193.333 752 217 727.667 217 685 C217 642.333 193.333 618 156 618 Z M343 618 C307 618 283 642.333 283 685 C283 729 307 752 343 752 C380.333 752 404 727.667 404 685 C404 642.333 380.333 618 343 618 Z " /></g><path fill="black" d="M29 -127 C43 -131 58 -133 74 -133 C114.892 -133 163.254 -120.261 190 -32 L200 -2 L13 547 L156 547 L231 278 C243 234 249.333 199.667 256 169 L259 169 C264.333 197 272.667 235.333 282 278 L344 547 L487 547 L310 -50 C270 -187.333 204.333 -245 95 -245 C73.6667 -245 51.6667 -242.333 29 -237 L29 -127 Z " /></glyph>
<glyph glyph-name="Amacron" unicode="&#x100;" horiz-adv-x="530" >
<path fill="black" d="M154 715 L341 715 L490 0 L362 0 L328 178 L173 178 L140 0 L10 0 L154 715 Z M306 294 L273 470 C266.333 512.667 255.667 571.333 249 610 C243.667 571.333 232.667 512.667 226 470 L194 294 L306 294 Z " /><g transform="translate(7,146)" ><path fill="black" d="M108 726 L378 726 L378 637 L108 637 L108 726 Z " /></g></glyph>
<glyph glyph-name="amacron" unicode="&#x101;" horiz-adv-x="530" >
<path fill="black" d="M332 74 C300 18 254.333 -10 195 -10 C103 -10 46 51 46 159 C46 281.667 117.667 335 239 339 L328 342 L328 360 C328 420 292 441 240 441 C197.333 441 159 427.333 123 406 L78 508 C132.667 538.667 187.667 558 257 558 C385 558 454 496 454 372 L454 0 L354 0 L335 74 L332 74 Z M328 252 L274 250 C210 247.333 173 221.667 173 171 C173 124.333 203.333 107 238 107 C286 107 328 141 328 213 L328 252 Z " /><g transform="translate(21,-21)" ><path fill="black" d="M108 726 L378 726 L378 637 L108 637 L108 726 Z " /></g></glyph>
<glyph glyph-name="Abreve" unicode="&#x102;" horiz-adv-x="530" >
<path fill="black" d="M154 715 L341 715 L490 0 L362 0 L328 178 L173 178 L140 0 L10 0 L154 715 Z M306 294 L273 470 C266.333 512.667 255.667 571.333 249 610 C243.667 571.333 232.667 512.667 226 470 L194 294 L306 294 Z " /><g transform="translate(0,167)" ><path fill="black" d="M183 764 C185.667 717.333 207.667 694 249 694 C289 694 313 713.333 317 764 L392 764 C392 666.667 335.667 608 249 608 C167.667 608 108.333 660 107 764 L183 764 Z " /></g></glyph>
<glyph glyph-name="abreve" unicode="&#x103;" horiz-adv-x="530" >
<path fill="black" d="M332 74 C300 18 254.333 -10 195 -10 C103 -10 46 51 46 159 C46 281.667 117.667 335 239 339 L328 342 L328 360 C328 420 292 441 240 441 C197.333 441 159 427.333 123 406 L78 508 C132.667 538.667 187.667 558 257 558 C385 558 454 496 454 372 L454 0 L354 0 L335 74 L332 74 Z M328 252 L274 250 C210 247.333 173 221.667 173 171 C173 124.333 203.333 107 238 107 C286 107 328 141 328 213 L328 252 Z " /><g transform="translate(14,0)" ><path fill="black" d="M183 764 C185.667 717.333 207.667 694 249 694 C289 694 313 713.333 317 764 L392 764 C392 666.667 335.667 608 249 608 C167.667 608 108.333 660 107 764 L183 764 Z " /></g></glyph>
<glyph glyph-name="Aogonek" unicode="&#x104;" horiz-adv-x="530" d="M154 715 L341 715 L490 0 C447.333 -45.3333 436 -75 436 -107 C436 -133.667 451 -152 479 -152 C495 -152 504.667 -148 514 -144 L514 -223 C499.333 -229.667 478.667 -235 452 -235 C377.333 -235 340 -198 340 -134 C340 -88.6667 360.333 -41.3333 407 0 L362 0 L328 178 L173 178 L140 0 L10 0 L154 715 Z M306 294 L273 470 C266.333 512.667 255.667 571.333 249 610 C243.667 571.333 232.667 512.667 226 470 L194 294 L306 294 Z " />
<glyph glyph-name="aogonek" unicode="&#x105;" horiz-adv-x="530" d="M335 74 L332 74 C300 18 254.333 -10 195 -10 C103 -10 46 51 46 159 C46 281.667 117.667 335 239 339 L328 342 L328 360 C328 420 292 441 240 441 C197.333 441 159 427.333 123 406 L78 508 C132.667 538.667 187.667 558 257 558 C385 558 454 496 454 372 L454 0 L437 0 C394.333 -45.3333 383 -75 383 -107 C383 -133.667 398 -152 426 -152 C442 -152 451.667 -148 461 -144 L461 -223 C446.333 -229.667 425.667 -235 399 -235 C324.333 -235 287 -198 287 -134 C287 -88.6667 307.333 -41.3333 354 0 L335 74 Z M328 252 L274 250 C210 247.333 173 221.667 173 171 C173 124.333 203.333 107 238 107 C286 107 328 141 328 213 L328 252 Z " />
<glyph glyph-name="Cacute" unicode="&#x106;" horiz-adv-x="530" >
<path fill="black" d="M458 25 C412.667 1 359.333 -10 302 -10 C127.333 -10 33 123 33 347 C33 572.126 132.134 725 309 725 C381 725 431.333 709.667 482 679 L441 569 C403.667 595.667 364.667 606 326 606 C218.156 606 166 504.108 166 353 C166 195.667 219.333 109 322 109 C372.667 109 415.333 125.333 458 148 L458 25 Z " /><g transform="translate(67,167)" ><path fill="black" d="M169 606 L169 618 C203.667 672.667 230.667 720.667 252 766 L392 766 L392 757 C365.902 717.853 300.737 646.356 255 606 L169 606 Z " /></g></glyph>
<glyph glyph-name="cacute" unicode="&#x107;" horiz-adv-x="530" >
<path fill="black" d="M445 25 C403.667 -0.333333 350.667 -10 300 -10 C157.671 -10 53 75.6883 53 272 C53 446.251 135.667 558 301 558 C358.333 558 414.667 545.333 460 520 L419 411 C387 429.667 353 440 313 440 C229 440 189 382 189 274 C189 156.667 235 107 315 107 C355 107 402.333 120.333 445 151 L445 25 Z " /><g transform="translate(54,0)" ><path fill="black" d="M169 606 L169 618 C203.667 672.667 230.667 720.667 252 766 L392 766 L392 757 C365.902 717.853 300.737 646.356 255 606 L169 606 Z " /></g></glyph>
<glyph glyph-name="Ccircumflex" unicode="&#x108;" horiz-adv-x="530" >
<path fill="black" d="M458 25 C412.667 1 359.333 -10 302 -10 C127.333 -10 33 123 33 347 C33 572.126 132.134 725 309 725 C381 725 431.333 709.667 482 679 L441 569 C403.667 595.667 364.667 606 326 606 C218.156 606 166 504.108 166 353 C166 195.667 219.333 109 322 109 C372.667 109 415.333 125.333 458 148 L458 25 Z " /><g transform="translate(51,167)" ><path fill="black" d="M97 606 L97 618 C128.82 660.427 172.227 725.773 191 766 L310 766 C331.333 722 367 667.333 403 618 L403 606 L328 606 C304 627.333 279.333 654.333 250 689 C219.333 654.333 193 624.667 173 606 L97 606 Z " /></g></glyph>
<glyph glyph-name="ccircumflex" unicode="&#x109;" horiz-adv-x="530" >
<path fill="black" d="M445 25 C403.667 -0.333333 350.667 -10 300 -10 C157.671 -10 53 75.6883 53 272 C53 446.251 135.667 558 301 558 C358.333 558 414.667 545.333 460 520 L419 411 C387 429.667 353 440 313 440 C229 440 189 382 189 274 C189 156.667 235 107 315 107 C355 107 402.333 120.333 445 151 L445 25 Z " /><g transform="translate(38,0)" ><path fill="black" d="M97 606 L97 618 C128.82 660.427 172.227 725.773 191 766 L310 766 C331.333 722 367 667.333 403 618 L403 606 L328 606 C304 627.333 279.333 654.333 250 689 C219.333 654.333 193 624.667 173 606 L97 606 Z " /></g></glyph>
<glyph glyph-name="Cdotaccent" unicode="&#x10a;" horiz-adv-x="530" >
<path fill="black" d="M458 25 C412.667 1 359.333 -10 302 -10 C127.333 -10 33 123 33 347 C33 572.126 132.134 725 309 725 C381 725 431.333 709.667 482 679 L441 569 C403.667 595.667 364.667 606 326 606 C218.156 606 166 504.108 166 353 C166 195.667 219.333 109 322 109 C372.667 109 415.333 125.333 458 148 L458 25 Z " /><g transform="translate(51,166)" ><path fill="black" d="M171 693 C171 745 197 771 249 771 C301 771 327 745 327 693 C327 643.667 302.333 616 249 616 C198.333 616 171 642.333 171 693 Z " /></g></glyph>
<glyph glyph-name="cdotaccent" unicode="&#x10b;" horiz-adv-x="530" >
<path fill="black" d="M445 25 C403.667 -0.333333 350.667 -10 300 -10 C157.671 -10 53 75.6883 53 272 C53 446.251 135.667 558 301 558 C358.333 558 414.667 545.333 460 520 L419 411 C387 429.667 353 440 313 440 C229 440 189 382 189 274 C189 156.667 235 107 315 107 C355 107 402.333 120.333 445 151 L445 25 Z " /><g transform="translate(38,-1)" ><path fill="black" d="M171 693 C171 745 197 771 249 771 C301 771 327 745 327 693 C327 643.667 302.333 616 249 616 C198.333 616 171 642.333 171 693 Z " /></g></glyph>
<glyph glyph-name="Ccaron" unicode="&#x10c;" horiz-adv-x="530" >
<path fill="black" d="M458 25 C412.667 1 359.333 -10 302 -10 C127.333 -10 33 123 33 347 C33 572.126 132.134 725 309 725 C381 725 431.333 709.667 482 679 L441 569 C403.667 595.667 364.667 606 326 606 C218.156 606 166 504.108 166 353 C166 195.667 219.333 109 322 109 C372.667 109 415.333 125.333 458 148 L458 25 Z " /><g transform="translate(51,167)" ><path fill="black" d="M97 766 L173 766 C195.667 746 222 716.333 250 683 C280.667 719 301.333 740.667 328 766 L403 766 L403 754 C376.697 714.546 331.216 648.432 310 606 L191 606 C172.137 646.421 126.608 713.626 97 754 L97 766 Z " /></g></glyph>
<glyph glyph-name="ccaron" unicode="&#x10d;" horiz-adv-x="530" >
<path fill="black" d="M445 25 C403.667 -0.333333 350.667 -10 300 -10 C157.671 -10 53 75.6883 53 272 C53 446.251 135.667 558 301 558 C358.333 558 414.667 545.333 460 520 L419 411 C387 429.667 353 440 313 440 C229 440 189 382 189 274 C189 156.667 235 107 315 107 C355 107 402.333 120.333 445 151 L445 25 Z " /><g transform="translate(38,0)" ><path fill="black" d="M97 766 L173 766 C195.667 746 222 716.333 250 683 C280.667 719 301.333 740.667 328 766 L403 766 L403 754 C376.697 714.546 331.216 648.432 310 606 L191 606 C172.137 646.421 126.608 713.626 97 754 L97 766 Z " /></g></glyph>
<glyph glyph-name="Dcaron" unicode="&#x10e;" horiz-adv-x="530" >
<path fill="black" d="M31 0 L31 714 L230 714 C390.104 714 482 584.926 482 370 C482 135.177 376.052 0 224 0 L31 0 Z M161 120 L211 120 C307 120 347 209.333 347 360 C347 522.667 305.667 594 215 594 L161 594 L161 120 Z " /><g transform="translate(-11,167)" ><path fill="black" d="M97 766 L173 766 C195.667 746 222 716.333 250 683 C280.667 719 301.333 740.667 328 766 L403 766 L403 754 C376.697 714.546 331.216 648.432 310 606 L191 606 C172.137 646.421 126.608 713.626 97 754 L97 766 Z " /></g></glyph>
<glyph glyph-name="dcaron" unicode="&#x10f;" horiz-adv-x="530" d="M295 73 C272.333 19.6667 236 -10 180 -10 C76 -10 16 101.385 16 272 C16 450.667 80 558 184 558 C232 558 268 535.333 292 478 L300 478 C297.333 504.667 292 543.333 292 578 L292 760 L420 760 L420 0 L314 0 L302 73 L295 73 Z M294 280 C294 400 270 440 222 440 C163.333 440 145 383 145 271 C145 161.667 163 107 219 107 C269.667 107 294 153.667 294 263 L294 280 Z M442 600 L442 608 C449.771 639.085 461.246 721.444 464 760 L587 760 L587 752 C575 705.333 549.667 642.667 523 600 L442 600 Z " />
<glyph glyph-name="Dcroat" unicode="&#x110;" horiz-adv-x="530" >
<path fill="black" d="M41 312 L0 312 L0 412 L41 412 L41 714 L240 714 C400.104 714 492 584.926 492 370 C492 135.177 386.052 0 234 0 L41 0 L41 312 Z M221 120 C317 120 357 209.333 357 360 C357 522.667 315.667 594 225 594 L171 594 L171 412 L265 412 L265 312 L171 312 L171 120 L221 120 Z " /></glyph>
<glyph glyph-name="dcroat" unicode="&#x111;" horiz-adv-x="530" d="M332 73 C306.667 19.6667 264 -10 204 -10 C88.3117 -10 26 96.9177 26 264 C26 438.667 92.6667 543 206 543 C260.667 543 302.333 517.667 329 463 L337 463 C334.333 489.667 329 529.333 329 576 L329 589 L197 589 L197 679 L329 679 L329 760 L457 760 L457 679 L500 679 L500 589 L457 589 L457 0 L351 0 L338 73 L332 73 Z M245 107 C302.333 107 331 149.667 331 247 L331 264 C331 377.333 310 425 250 425 C183.333 425 158 368.667 158 262 C158 158 183.667 107 245 107 Z " />
<glyph glyph-name="Emacron" unicode="&#x112;" horiz-adv-x="530" >
<path fill="black" d="M454 120 L454 0 L51 0 L51 714 L454 714 L454 593 L183 593 L183 425 L437 425 L437 305 L183 305 L183 120 L454 120 Z " /><g transform="translate(9,146)" ><path fill="black" d="M108 726 L378 726 L378 637 L108 637 L108 726 Z " /></g></glyph>
<glyph glyph-name="emacron" unicode="&#x113;" horiz-adv-x="530" >
<path fill="black" d="M443 28 C401.667 5.33333 352 -10 280 -10 C120 -10 31 88.3333 31 271 C31 444.359 112.286 558 260 558 C389.333 558 469 472.333 469 303 L469 230 L165 230 C167.667 142 220.667 105 294 105 C356.667 105 401.667 121 443 145 L443 28 Z M257 444 C201 444 168.667 402.333 166 325 L342 325 C340 404.333 311.667 444 257 444 Z " /><g transform="translate(16,-21)" ><path fill="black" d="M108 726 L378 726 L378 637 L108 637 L108 726 Z " /></g></glyph>
<glyph glyph-name="Ebreve" unicode="&#x114;" horiz-adv-x="530" >
<path fill="black" d="M454 120 L454 0 L51 0 L51 714 L454 714 L454 593 L183 593 L183 425 L437 425 L437 305 L183 305 L183 120 L454 120 Z " /><g transform="translate(2,167)" ><path fill="black" d="M183 764 C185.667 717.333 207.667 694 249 694 C289 694 313 713.333 317 764 L392 764 C392 666.667 335.667 608 249 608 C167.667 608 108.333 660 107 764 L183 764 Z " /></g></glyph>
<glyph glyph-name="ebreve" unicode="&#x115;" horiz-adv-x="530" >
<path fill="black" d="M443 28 C401.667 5.33333 352 -10 280 -10 C120 -10 31 88.3333 31 271 C31 444.359 112.286 558 260 558 C389.333 558 469 472.333 469 303 L469 230 L165 230 C167.667 142 220.667 105 294 105 C356.667 105 401.667 121 443 145 L443 28 Z M257 444 C201 444 168.667 402.333 166 325 L342 325 C340 404.333 311.667 444 257 444 Z " /><g transform="translate(9,0)" ><path fill="black" d="M183 764 C185.667 717.333 207.667 694 249 694 C289 694 313 713.333 317 764 L392 764 C392 666.667 335.667 608 249 608 C167.667 608 108.333 660 107 764 L183 764 Z " /></g></glyph>
<glyph glyph-name="Edotaccent" unicode="&#x116;" horiz-adv-x="530" >
<path fill="black" d="M454 120 L454 0 L51 0 L51 714 L454 714 L454 593 L183 593 L183 425 L437 425 L437 305 L183 305 L183 120 L454 120 Z " /><g transform="translate(2,166)" ><path fill="black" d="M171 693 C171 745 197 771 249 771 C301 771 327 745 327 693 C327 643.667 302.333 616 249 616 C198.333 616 171 642.333 171 693 Z " /></g></glyph>
<glyph glyph-name="edotaccent" unicode="&#x117;" horiz-adv-x="530" >
<path fill="black" d="M443 28 C401.667 5.33333 352 -10 280 -10 C120 -10 31 88.3333 31 271 C31 444.359 112.286 558 260 558 C389.333 558 469 472.333 469 303 L469 230 L165 230 C167.667 142 220.667 105 294 105 C356.667 105 401.667 121 443 145 L443 28 Z M257 444 C201 444 168.667 402.333 166 325 L342 325 C340 404.333 311.667 444 257 444 Z " /><g transform="translate(9,-1)" ><path fill="black" d="M171 693 C171 745 197 771 249 771 C301 771 327 745 327 693 C327 643.667 302.333 616 249 616 C198.333 616 171 642.333 171 693 Z " /></g></glyph>
<glyph glyph-name="Eogonek" unicode="&#x118;" horiz-adv-x="530" d="M51 714 L454 714 L454 593 L183 593 L183 425 L437 425 L437 305 L183 305 L183 120 L454 120 L454 0 L413 0 C370.333 -45.3333 359 -75 359 -107 C359 -133.667 374 -152 402 -152 C418 -152 427.667 -148 437 -144 L437 -223 C422.333 -229.667 401.667 -235 375 -235 C300.333 -235 263 -198 263 -134 C263 -88.6667 283.333 -41.3333 330 0 L51 0 L51 714 Z " />
<glyph glyph-name="eogonek" unicode="&#x119;" horiz-adv-x="530" d="M437 -223 C423.667 -229.667 402.667 -235 376 -235 C300 -235 264 -189 264 -121 C264 -74.3333 285.333 -38.3333 316 -9 C304 -10.3333 293.333 -10 280 -10 C120 -10 31 88.3333 31 271 C31 444.359 112.286 558 260 558 C389.333 558 469 472.333 469 303 L469 230 L165 230 C167.667 142 220.667 105 294 105 C356.667 105 401.667 121 443 145 L443 28 L440 26 C378.667 -27.3333 359 -63.6667 359 -101 C359 -133 373.333 -152 404 -152 C417.333 -152 427.667 -148 437 -144 L437 -223 Z M257 444 C201 444 168.667 402.333 166 325 L342 325 C340 404.333 311.667 444 257 444 Z " />
<glyph glyph-name="Ecaron" unicode="&#x11a;" horiz-adv-x="530" >
<path fill="black" d="M454 120 L454 0 L51 0 L51 714 L454 714 L454 593 L183 593 L183 425 L437 425 L437 305 L183 305 L183 120 L454 120 Z " /><g transform="translate(2,167)" ><path fill="black" d="M97 766 L173 766 C195.667 746 222 716.333 250 683 C280.667 719 301.333 740.667 328 766 L403 766 L403 754 C376.697 714.546 331.216 648.432 310 606 L191 606 C172.137 646.421 126.608 713.626 97 754 L97 766 Z " /></g></glyph>
<glyph glyph-name="ecaron" unicode="&#x11b;" horiz-adv-x="530" >
<path fill="black" d="M443 28 C401.667 5.33333 352 -10 280 -10 C120 -10 31 88.3333 31 271 C31 444.359 112.286 558 260 558 C389.333 558 469 472.333 469 303 L469 230 L165 230 C167.667 142 220.667 105 294 105 C356.667 105 401.667 121 443 145 L443 28 Z M257 444 C201 444 168.667 402.333 166 325 L342 325 C340 404.333 311.667 444 257 444 Z " /><g transform="translate(9,0)" ><path fill="black" d="M97 766 L173 766 C195.667 746 222 716.333 250 683 C280.667 719 301.333 740.667 328 766 L403 766 L403 754 C376.697 714.546 331.216 648.432 310 606 L191 606 C172.137 646.421 126.608 713.626 97 754 L97 766 Z " /></g></glyph>
<glyph glyph-name="Gcircumflex" unicode="&#x11c;" horiz-adv-x="530" >
<path fill="black" d="M345 285 L272 285 L272 403 L468 403 L468 30 C412 0.666667 358 -10 298 -10 C104.667 -10 18 121.333 18 344 C18 584.944 123.537 725 305 725 C373 725 423.333 707.667 466 681 L427 573 C387 598.333 355 607 315 607 C201.667 607 150 518.667 150 348 C150 212.182 191.229 109 282 109 C304.667 109 327.667 112.333 345 119 L345 285 Z " /><g transform="translate(32,167)" ><path fill="black" d="M97 606 L97 618 C128.82 660.427 172.227 725.773 191 766 L310 766 C331.333 722 367 667.333 403 618 L403 606 L328 606 C304 627.333 279.333 654.333 250 689 C219.333 654.333 193 624.667 173 606 L97 606 Z " /></g></glyph>
<glyph glyph-name="gcircumflex" unicode="&#x11d;" horiz-adv-x="530" >
<path fill="black" d="M56 -86 C113.333 -116.667 166.333 -128 209 -128 C287.667 -128 327 -90 327 -14 L327 6 C327 26 327.667 49.3333 329 68 L325 68 C294.333 10.6667 255.333 -10 206 -10 C92.6667 -10 26 97.6667 26 271 C26 446.922 93.1342 558 206 558 C256.667 558 293.333 536.667 328 478 L335 478 L347 547 L457 547 L457 8 C457 -157.333 384.667 -245 218 -245 C154 -245 106.667 -232.667 56 -206 L56 -86 Z M330 272 C330 393.333 310 440 254 440 C190 440 166 380.667 166 270 C166 163.333 188.333 107 251 107 C304.333 107 330 145.667 330 255 L330 272 Z " /><path fill="black" d="M97 606 L97 618 C128.82 660.427 172.227 725.773 191 766 L310 766 C331.333 722 367 667.333 403 618 L403 606 L328 606 C304 627.333 279.333 654.333 250 689 C219.333 654.333 193 624.667 173 606 L97 606 Z " /></glyph>
<glyph glyph-name="Gbreve" unicode="&#x11e;" horiz-adv-x="530" >
<path fill="black" d="M345 285 L272 285 L272 403 L468 403 L468 30 C412 0.666667 358 -10 298 -10 C104.667 -10 18 121.333 18 344 C18 584.944 123.537 725 305 725 C373 725 423.333 707.667 466 681 L427 573 C387 598.333 355 607 315 607 C201.667 607 150 518.667 150 348 C150 212.182 191.229 109 282 109 C304.667 109 327.667 112.333 345 119 L345 285 Z " /><g transform="translate(32,167)" ><path fill="black" d="M183 764 C185.667 717.333 207.667 694 249 694 C289 694 313 713.333 317 764 L392 764 C392 666.667 335.667 608 249 608 C167.667 608 108.333 660 107 764 L183 764 Z " /></g></glyph>
<glyph glyph-name="gbreve" unicode="&#x11f;" horiz-adv-x="530" >
<path fill="black" d="M56 -86 C113.333 -116.667 166.333 -128 209 -128 C287.667 -128 327 -90 327 -14 L327 6 C327 26 327.667 49.3333 329 68 L325 68 C294.333 10.6667 255.333 -10 206 -10 C92.6667 -10 26 97.6667 26 271 C26 446.922 93.1342 558 206 558 C256.667 558 293.333 536.667 328 478 L335 478 L347 547 L457 547 L457 8 C457 -157.333 384.667 -245 218 -245 C154 -245 106.667 -232.667 56 -206 L56 -86 Z M330 272 C330 393.333 310 440 254 440 C190 440 166 380.667 166 270 C166 163.333 188.333 107 251 107 C304.333 107 330 145.667 330 255 L330 272 Z " /><path fill="black" d="M183 764 C185.667 717.333 207.667 694 249 694 C289 694 313 713.333 317 764 L392 764 C392 666.667 335.667 608 249 608 C167.667 608 108.333 660 107 764 L183 764 Z " /></glyph>
<glyph glyph-name="Gdotaccent" unicode="&#x120;" horiz-adv-x="530" >
<path fill="black" d="M345 285 L272 285 L272 403 L468 403 L468 30 C412 0.666667 358 -10 298 -10 C104.667 -10 18 121.333 18 344 C18 584.944 123.537 725 305 725 C373 725 423.333 707.667 466 681 L427 573 C387 598.333 355 607 315 607 C201.667 607 150 518.667 150 348 C150 212.182 191.229 109 282 109 C304.667 109 327.667 112.333 345 119 L345 285 Z " /><g transform="translate(32,166)" ><path fill="black" d="M171 693 C171 745 197 771 249 771 C301 771 327 745 327 693 C327 643.667 302.333 616 249 616 C198.333 616 171 642.333 171 693 Z " /></g></glyph>
<glyph glyph-name="gdotaccent" unicode="&#x121;" horiz-adv-x="530" >
<path fill="black" d="M56 -86 C113.333 -116.667 166.333 -128 209 -128 C287.667 -128 327 -90 327 -14 L327 6 C327 26 327.667 49.3333 329 68 L325 68 C294.333 10.6667 255.333 -10 206 -10 C92.6667 -10 26 97.6667 26 271 C26 446.922 93.1342 558 206 558 C256.667 558 293.333 536.667 328 478 L335 478 L347 547 L457 547 L457 8 C457 -157.333 384.667 -245 218 -245 C154 -245 106.667 -232.667 56 -206 L56 -86 Z M330 272 C330 393.333 310 440 254 440 C190 440 166 380.667 166 270 C166 163.333 188.333 107 251 107 C304.333 107 330 145.667 330 255 L330 272 Z " /><g transform="translate(0,-1)" ><path fill="black" d="M171 693 C171 745 197 771 249 771 C301 771 327 745 327 693 C327 643.667 302.333 616 249 616 C198.333 616 171 642.333 171 693 Z " /></g></glyph>
<glyph glyph-name="uni0122" unicode="&#x122;" horiz-adv-x="530" >
<path fill="black" d="M345 285 L272 285 L272 403 L468 403 L468 30 C412 0.666667 358 -10 298 -10 C104.667 -10 18 121.333 18 344 C18 584.944 123.537 725 305 725 C373 725 423.333 707.667 466 681 L427 573 C387 598.333 355 607 315 607 C201.667 607 150 518.667 150 348 C150 212.182 191.229 109 282 109 C304.667 109 327.667 112.333 345 119 L345 285 Z " /><g transform="translate(816,0)" ><path fill="black" d="M-617 -221 L-617 -213 C-609.229 -181.915 -597.754 -99.5562 -595 -61 L-472 -61 L-472 -69 C-484 -115.667 -509.333 -178.333 -536 -221 L-617 -221 Z " /></g></glyph>
<glyph glyph-name="uni0123" unicode="&#x123;" horiz-adv-x="530" d="M56 -86 C113.333 -116.667 166.333 -128 209 -128 C287.667 -128 327 -90 327 -14 L327 6 C327 26 327.667 49.3333 329 68 L325 68 C294.333 10.6667 255.333 -10 206 -10 C92.6667 -10 26 97.6667 26 271 C26 446.922 93.1342 558 206 558 C256.667 558 293.333 536.667 328 478 L335 478 L347 547 L457 547 L457 8 C457 -157.333 384.667 -245 218 -245 C154 -245 106.667 -232.667 56 -206 L56 -86 Z M330 272 C330 393.333 310 440 254 440 C190 440 166 380.667 166 270 C166 163.333 188.333 107 251 107 C304.333 107 330 145.667 330 255 L330 272 Z M175 606 L175 614 C187 660.667 213.333 720.667 244 766 L324 766 L324 757 C312 707.667 299.667 644.667 297 606 L175 606 Z " />
<glyph glyph-name="Hcircumflex" unicode="&#x124;" horiz-adv-x="530" >
<path fill="black" d="M31 0 L31 714 L162 714 L162 428 L338 428 L338 714 L469 714 L469 0 L338 0 L338 308 L162 308 L162 0 L31 0 Z " /><g transform="translate(0,167)" ><path fill="black" d="M97 606 L97 618 C128.82 660.427 172.227 725.773 191 766 L310 766 C331.333 722 367 667.333 403 618 L403 606 L328 606 C304 627.333 279.333 654.333 250 689 C219.333 654.333 193 624.667 173 606 L97 606 Z " /></g></glyph>
<glyph glyph-name="hcircumflex" unicode="&#x125;" horiz-adv-x="530" >
<path fill="black" d="M43 0 L43 760 L174 760 L174 592 C174 553.333 170.667 514.333 164 477 L172 477 C196 526.333 237.667 558 303 558 C400.333 558 462 489 462 357 L462 0 L331 0 L331 316 C331 392 319 436 259 436 C195 436 174 378 174 278 L174 0 L43 0 Z " /><g transform="translate(-142,213)" ><path fill="black" d="M97 606 L97 618 C128.82 660.427 172.227 725.773 191 766 L310 766 C331.333 722 367 667.333 403 618 L403 606 L328 606 C304 627.333 279.333 654.333 250 689 C219.333 654.333 193 624.667 173 606 L97 606 Z " /></g></glyph>
<glyph glyph-name="Hbar" unicode="&#x126;" horiz-adv-x="530" d="M38 524 L0 524 L0 617 L38 617 L38 714 L169 714 L169 617 L330 617 L330 714 L461 714 L461 617 L500 617 L500 524 L461 524 L461 0 L330 0 L330 308 L169 308 L169 0 L38 0 L38 524 Z M330 428 L330 524 L169 524 L169 428 L330 428 Z " />
<glyph glyph-name="hbar" unicode="&#x127;" horiz-adv-x="530" d="M43 589 L0 589 L0 679 L43 679 L43 760 L174 760 L174 679 L303 679 L303 589 L174 589 L174 585 C174 546.333 170.667 508.667 164 470 L172 470 C196 519.333 237.667 551 303 551 C400.333 551 462 483.333 462 350 L462 0 L331 0 L331 309 C331 385 319 429 259 429 C195 429 174 372 174 272 L174 0 L43 0 L43 589 Z " />
<glyph glyph-name="Itilde" unicode="&#x128;" horiz-adv-x="530" >
<path fill="black" d="M61 97 L186 110 L186 604 L61 617 L61 714 L439 714 L439 617 L316 604 L316 110 L439 97 L439 0 L61 0 L61 97 Z " /><g transform="translate(0,167)" ><path fill="black" d="M89 610 C91.6296 673.111 106.669 755 176 755 C229.216 755 268.549 703 310 703 C331.333 703 337.333 720 344 756 L411 756 C408.333 657.333 372.333 611 323 611 C268.209 611 225.654 663 190 663 C172 663 161 645.333 157 610 L89 610 Z " /></g></glyph>
<glyph glyph-name="itilde" unicode="&#x129;" horiz-adv-x="500" >
<path fill="black" d="M48 96 L195 112 L195 433 L71 446 L71 547 L324 547 L324 112 L452 96 L452 0 L48 0 L48 96 Z " /><path fill="black" d="M89 610 C91.6296 673.111 106.669 755 176 755 C229.216 755 268.549 703 310 703 C331.333 703 337.333 720 344 756 L411 756 C408.333 657.333 372.333 611 323 611 C268.209 611 225.654 663 190 663 C172 663 161 645.333 157 610 L89 610 Z " /></glyph>
<glyph glyph-name="Imacron" unicode="&#x12a;" horiz-adv-x="530" >
<path fill="black" d="M61 97 L186 110 L186 604 L61 617 L61 714 L439 714 L439 617 L316 604 L316 110 L439 97 L439 0 L61 0 L61 97 Z " /><g transform="translate(7,146)" ><path fill="black" d="M108 726 L378 726 L378 637 L108 637 L108 726 Z " /></g></glyph>
<glyph glyph-name="imacron" unicode="&#x12b;" horiz-adv-x="500" >
<path fill="black" d="M48 96 L195 112 L195 433 L71 446 L71 547 L324 547 L324 112 L452 96 L452 0 L48 0 L48 96 Z " /><g transform="translate(7,-21)" ><path fill="black" d="M108 726 L378 726 L378 637 L108 637 L108 726 Z " /></g></glyph>
<glyph glyph-name="Ibreve" unicode="&#x12c;" horiz-adv-x="530" >
<path fill="black" d="M61 97 L186 110 L186 604 L61 617 L61 714 L439 714 L439 617 L316 604 L316 110 L439 97 L439 0 L61 0 L61 97 Z " /><g transform="translate(0,167)" ><path fill="black" d="M183 764 C185.667 717.333 207.667 694 249 694 C289 694 313 713.333 317 764 L392 764 C392 666.667 335.667 608 249 608 C167.667 608 108.333 660 107 764 L183 764 Z " /></g></glyph>
<glyph glyph-name="ibreve" unicode="&#x12d;" horiz-adv-x="500" >
<path fill="black" d="M48 96 L195 112 L195 433 L71 446 L71 547 L324 547 L324 112 L452 96 L452 0 L48 0 L48 96 Z " /><path fill="black" d="M183 764 C185.667 717.333 207.667 694 249 694 C289 694 313 713.333 317 764 L392 764 C392 666.667 335.667 608 249 608 C167.667 608 108.333 660 107 764 L183 764 Z " /></glyph>
<glyph glyph-name="Iogonek" unicode="&#x12e;" horiz-adv-x="530" d="M61 97 L186 110 L186 604 L61 617 L61 714 L439 714 L439 617 L316 604 L316 110 L439 97 L439 0 L343 0 C300.333 -45.3333 289 -75 289 -107 C289 -133.667 304 -152 332 -152 C348 -152 357.667 -148 367 -144 L367 -223 C352.333 -229.667 331.667 -235 305 -235 C230.333 -235 193 -198 193 -134 C193 -88.6667 213.333 -41.3333 260 0 L61 0 L61 97 Z " />
<glyph glyph-name="iogonek" unicode="&#x12f;" horiz-adv-x="530" d="M48 96 L195 112 L195 433 L71 446 L71 547 L324 547 L324 112 L452 96 L452 0 L344 0 C301.333 -45.3333 290 -75 290 -107 C290 -133.667 305 -152 333 -152 C349 -152 358.667 -148 368 -144 L368 -223 C353.333 -229.667 332.667 -235 306 -235 C231.333 -235 194 -198 194 -134 C194 -88.6667 214.333 -41.3333 261 0 L48 0 L48 96 Z M180 693 C180 745 206 771 258 771 C310 771 336 745 336 693 C336 643.667 311.333 616 258 616 C207.333 616 180 642.333 180 693 Z " />
<glyph glyph-name="Idotaccent" unicode="&#x130;" horiz-adv-x="530" >
<path fill="black" d="M61 97 L186 110 L186 604 L61 617 L61 714 L439 714 L439 617 L316 604 L316 110 L439 97 L439 0 L61 0 L61 97 Z " /><g transform="translate(0,166)" ><path fill="black" d="M171 693 C171 745 197 771 249 771 C301 771 327 745 327 693 C327 643.667 302.333 616 249 616 C198.333 616 171 642.333 171 693 Z " /></g></glyph>
<glyph glyph-name="dotlessi" unicode="&#x131;" horiz-adv-x="500" d="M48 96 L195 112 L195 433 L71 446 L71 547 L324 547 L324 112 L452 96 L452 0 L48 0 L48 96 Z " />
<glyph glyph-name="IJ" unicode="&#x132;" horiz-adv-x="530" d="M69 127 C109 112.333 148.333 107 175 107 C259 107 314 153.667 314 263 L314 714 L443 714 L443 234 C443 92.7446 358.03 -9 191 -9 C147 -9 105 -1.66667 69 13 L69 127 Z M68 210 L68 714 L198 714 L198 210 L68 210 Z " />
<glyph glyph-name="ij" unicode="&#x133;" horiz-adv-x="530" d="M110 -109 C147.333 -121 187.667 -128 217 -128 C279.667 -128 301 -99 301 -27 L301 547 L431 547 L431 -48 C431 -180 375.667 -245 241 -245 C198.333 -245 152.667 -238.667 110 -224 L110 -109 Z M73 0 L73 547 L202 547 L202 0 L73 0 Z M60 693 C60 745 86 771 138 771 C190 771 216 745 216 693 C216 643.667 191.333 616 138 616 C87.3333 616 60 642.333 60 693 Z M281 693 C281 745 307 771 359 771 C411 771 437 745 437 693 C437 643.667 412.333 616 359 616 C308.333 616 281 642.333 281 693 Z " />
<glyph glyph-name="Jcircumflex" unicode="&#x134;" horiz-adv-x="530" >
<path fill="black" d="M43 127 C83 112.333 122.333 107 149 107 C233 107 288 153.667 288 263 L288 714 L417 714 L417 234 C417 92.7446 332.03 -9 165 -9 C121 -9 79 -1.66667 43 13 L43 127 Z " /><g transform="translate(101,167)" ><path fill="black" d="M97 606 L97 618 C128.82 660.427 172.227 725.773 191 766 L310 766 C331.333 722 367 667.333 403 618 L403 606 L328 606 C304 627.333 279.333 654.333 250 689 C219.333 654.333 193 624.667 173 606 L97 606 Z " /></g></glyph>
<glyph glyph-name="jcircumflex" unicode="&#x135;" horiz-adv-x="500" >
<path fill="black" d="M31 -109 C70.3782 -122.126 125.836 -128 152 -128 C212 -128 233 -100.333 233 -27 L233 433 L78 445 L78 547 L363 547 L363 -48 C363 -181.333 307.333 -245 170 -245 C130 -245 72.3333 -238.667 31 -224 L31 -109 Z " /><g transform="translate(44,0)" ><path fill="black" d="M97 606 L97 618 C128.82 660.427 172.227 725.773 191 766 L310 766 C331.333 722 367 667.333 403 618 L403 606 L328 606 C304 627.333 279.333 654.333 250 689 C219.333 654.333 193 624.667 173 606 L97 606 Z " /></g></glyph>
<glyph glyph-name="uni0136" unicode="&#x136;" horiz-adv-x="530" >
<path fill="black" d="M31 0 L31 714 L161 714 L161 370 C179.667 407.333 202.333 445.333 225 488 L341 714 L485 714 L317 391 L486 0 L337 0 L217 288 L161 235 L161 0 L31 0 Z " /><g transform="translate(784,0)" ><path fill="black" d="M-617 -221 L-617 -213 C-609.229 -181.915 -597.754 -99.5562 -595 -61 L-472 -61 L-472 -69 C-484 -115.667 -509.333 -178.333 -536 -221 L-617 -221 Z " /></g></glyph>
<glyph glyph-name="uni0137" unicode="&#x137;" horiz-adv-x="530" >
<path fill="black" d="M45 0 L45 760 L173 760 L173 440 C173 393.333 168 346.667 164 300 L166 300 C182 326.667 197.333 352.333 216 379 L335 547 L485 547 L304 291 L489 0 L337 0 L213 208 L173 181 L173 0 L45 0 Z " /><g transform="translate(787,0)" ><path fill="black" d="M-617 -221 L-617 -213 C-609.229 -181.915 -597.754 -99.5562 -595 -61 L-472 -61 L-472 -69 C-484 -115.667 -509.333 -178.333 -536 -221 L-617 -221 Z " /></g></glyph>
<glyph glyph-name="kgreenlandic" unicode="&#x138;" horiz-adv-x="530" d="M45 0 L45 547 L173 547 L173 440 C173 393.333 168 346.667 164 300 L166 300 C182 326.667 197.333 352.333 216 379 L335 547 L485 547 L304 291 L489 0 L337 0 L213 208 L173 181 L173 0 L45 0 Z " />
<glyph glyph-name="Lacute" unicode="&#x139;" horiz-adv-x="530" >
<path fill="black" d="M454 121 L454 0 L61 0 L61 714 L193 714 L193 121 L454 121 Z " /><g transform="translate(-107,167)" ><path fill="black" d="M169 606 L169 618 C203.667 672.667 230.667 720.667 252 766 L392 766 L392 757 C365.902 717.853 300.737 646.356 255 606 L169 606 Z " /></g></glyph>
<glyph glyph-name="lacute" unicode="&#x13a;" horiz-adv-x="530" >
<path fill="black" d="M48 96 L188 112 L188 652 L65 662 L65 760 L317 760 L317 112 L452 96 L452 0 L48 0 L48 96 Z " /><g transform="translate(16,213)" ><path fill="black" d="M169 606 L169 618 C203.667 672.667 230.667 720.667 252 766 L392 766 L392 757 C365.902 717.853 300.737 646.356 255 606 L169 606 Z " /></g></glyph>
<glyph glyph-name="uni013B" unicode="&#x13b;" horiz-adv-x="530" >
<path fill="black" d="M454 121 L454 0 L61 0 L61 714 L193 714 L193 121 L454 121 Z " /><g transform="translate(799,0)" ><path fill="black" d="M-617 -221 L-617 -213 C-609.229 -181.915 -597.754 -99.5562 -595 -61 L-472 -61 L-472 -69 C-484 -115.667 -509.333 -178.333 -536 -221 L-617 -221 Z " /></g></glyph>
<glyph glyph-name="uni013C" unicode="&#x13c;" horiz-adv-x="530" >
<path fill="black" d="M48 96 L188 112 L188 652 L65 662 L65 760 L317 760 L317 112 L452 96 L452 0 L48 0 L48 96 Z " /><g transform="translate(785,0)" ><path fill="black" d="M-617 -221 L-617 -213 C-609.229 -181.915 -597.754 -99.5562 -595 -61 L-472 -61 L-472 -69 C-484 -115.667 -509.333 -178.333 -536 -221 L-617 -221 Z " /></g></glyph>
<glyph glyph-name="Lcaron" unicode="&#x13d;" horiz-adv-x="530" >
<path fill="black" d="M454 121 L454 0 L61 0 L61 714 L193 714 L193 121 L454 121 Z " /><g transform="translate(938,775)" ><path fill="black" d="M-617 -221 L-617 -213 C-609.229 -181.915 -597.754 -99.5562 -595 -61 L-472 -61 L-472 -69 C-484 -115.667 -509.333 -178.333 -536 -221 L-617 -221 Z " /></g></glyph>
<glyph glyph-name="lcaron" unicode="&#x13e;" horiz-adv-x="530" >
<path fill="black" d="M48 96 L188 112 L188 652 L65 662 L65 760 L317 760 L317 112 L452 96 L452 0 L48 0 L48 96 Z " /><g transform="translate(977,821)" ><path fill="black" d="M-617 -221 L-617 -213 C-609.229 -181.915 -597.754 -99.5562 -595 -61 L-472 -61 L-472 -69 C-484 -115.667 -509.333 -178.333 -536 -221 L-617 -221 Z " /></g></glyph>
<glyph glyph-name="Ldot" unicode="&#x13f;" horiz-adv-x="530" >
<path fill="black" d="M454 121 L454 0 L61 0 L61 714 L193 714 L193 121 L454 121 Z " /><g transform="translate(123,321)" ><path fill="black" d="M250 -11 C203.333 -11 174 17 174 69 C174 123 199.333 150 250 150 C296.667 150 325 123.667 325 69 C325 15.6667 295.333 -11 250 -11 Z " /></g></glyph>
<glyph glyph-name="ldot" unicode="&#x140;" horiz-adv-x="530" >
<path fill="black" d="M48 96 L188 112 L188 652 L65 662 L65 760 L317 760 L317 112 L452 96 L452 0 L48 0 L48 96 Z " /><g transform="translate(250,330)" ><path fill="black" d="M250 -11 C203.333 -11 174 17 174 69 C174 123 199.333 150 250 150 C296.667 150 325 123.667 325 69 C325 15.6667 295.333 -11 250 -11 Z " /></g></glyph>
<glyph glyph-name="Lslash" unicode="&#x141;" horiz-adv-x="530" d="M61 292 L0 260 L0 350 L61 382 L61 714 L193 714 L193 451 L359 537 L359 447 L193 361 L193 121 L454 121 L454 0 L61 0 L61 292 Z " />
<glyph glyph-name="lslash" unicode="&#x142;" horiz-adv-x="530" d="M48 96 L188 112 L188 317 L79 260 L79 350 L188 407 L188 652 L65 662 L65 760 L317 760 L317 474 L438 537 L438 447 L317 384 L317 112 L452 96 L452 0 L48 0 L48 96 Z " />
<glyph glyph-name="Nacute" unicode="&#x143;" horiz-adv-x="530" >
<path fill="black" d="M31 0 L31 714 L215 714 L356 123 L363 123 C360.367 183.568 348 291.335 348 361 L348 714 L469 714 L469 0 L289 0 L143 598 L135 598 C141.667 506 151 430 151 350 L151 0 L31 0 Z " /><g transform="translate(21,167)" ><path fill="black" d="M169 606 L169 618 C203.667 672.667 230.667 720.667 252 766 L392 766 L392 757 C365.902 717.853 300.737 646.356 255 606 L169 606 Z " /></g></glyph>
<glyph glyph-name="nacute" unicode="&#x144;" horiz-adv-x="530" >
<path fill="black" d="M43 0 L43 547 L151 547 L167 482 L172 482 C197.333 530 239 558 303 558 C403 558 462 495.667 462 357 L462 0 L331 0 L331 336 C331 413.333 308 445 264 445 C202.667 445 174 398 174 290 L174 0 L43 0 Z " /><g transform="translate(26,0)" ><path fill="black" d="M169 606 L169 618 C203.667 672.667 230.667 720.667 252 766 L392 766 L392 757 C365.902 717.853 300.737 646.356 255 606 L169 606 Z " /></g></glyph>
<glyph glyph-name="uni0145" unicode="&#x145;" horiz-adv-x="530" >
<path fill="black" d="M31 0 L31 714 L215 714 L356 123 L363 123 C360.367 183.568 348 291.335 348 361 L348 714 L469 714 L469 0 L289 0 L143 598 L135 598 C141.667 506 151 430 151 350 L151 0 L31 0 Z " /><g transform="translate(780,0)" ><path fill="black" d="M-617 -221 L-617 -213 C-609.229 -181.915 -597.754 -99.5562 -595 -61 L-472 -61 L-472 -69 C-484 -115.667 -509.333 -178.333 -536 -221 L-617 -221 Z " /></g></glyph>
<glyph glyph-name="uni0146" unicode="&#x146;" horiz-adv-x="530" >
<path fill="black" d="M43 0 L43 547 L151 547 L167 482 L172 482 C197.333 530 239 558 303 558 C403 558 462 495.667 462 357 L462 0 L331 0 L331 336 C331 413.333 308 445 264 445 C202.667 445 174 398 174 290 L174 0 L43 0 Z " /><g transform="translate(785,0)" ><path fill="black" d="M-617 -221 L-617 -213 C-609.229 -181.915 -597.754 -99.5562 -595 -61 L-472 -61 L-472 -69 C-484 -115.667 -509.333 -178.333 -536 -221 L-617 -221 Z " /></g></glyph>
<glyph glyph-name="Ncaron" unicode="&#x147;" horiz-adv-x="530" >
<path fill="black" d="M31 0 L31 714 L215 714 L356 123 L363 123 C360.367 183.568 348 291.335 348 361 L348 714 L469 714 L469 0 L289 0 L143 598 L135 598 C141.667 506 151 430 151 350 L151 0 L31 0 Z " /><g transform="translate(5,167)" ><path fill="black" d="M97 766 L173 766 C195.667 746 222 716.333 250 683 C280.667 719 301.333 740.667 328 766 L403 766 L403 754 C376.697 714.546 331.216 648.432 310 606 L191 606 C172.137 646.421 126.608 713.626 97 754 L97 766 Z " /></g></glyph>
<glyph glyph-name="ncaron" unicode="&#x148;" horiz-adv-x="530" >
<path fill="black" d="M43 0 L43 547 L151 547 L167 482 L172 482 C197.333 530 239 558 303 558 C403 558 462 495.667 462 357 L462 0 L331 0 L331 336 C331 413.333 308 445 264 445 C202.667 445 174 398 174 290 L174 0 L43 0 Z " /><g transform="translate(10,0)" ><path fill="black" d="M97 766 L173 766 C195.667 746 222 716.333 250 683 C280.667 719 301.333 740.667 328 766 L403 766 L403 754 C376.697 714.546 331.216 648.432 310 606 L191 606 C172.137 646.421 126.608 713.626 97 754 L97 766 Z " /></g></glyph>
<glyph glyph-name="napostrophe" unicode="&#x149;" horiz-adv-x="530" d="M53 0 L53 547 L161 547 L177 478 L184 478 C209.333 530 248.333 558 311 558 C404.333 558 462 495.667 462 357 L462 0 L331 0 L331 320 C331 402.667 306.667 436 264 436 C208 436 184 381 184 261 L184 0 L53 0 Z M-104 447 C-87.9913 524.376 -68.3259 641.1 -63 713 L63 713 L69 702 C51.6667 606 27.3333 520.333 -2 447 L-104 447 Z " />
<glyph glyph-name="Eng" unicode="&#x14a;" horiz-adv-x="530" d="M215 -104 C231 -110.667 251 -114 271 -114 C331 -114 361.667 -78.6667 363 0 L289 0 L143 598 L135 598 C141.667 506 151 430 151 350 L151 0 L31 0 L31 714 L215 714 L356 123 L363 123 C360.367 183.568 348 291.335 348 361 L348 714 L469 714 L469 -1 C469 -134.333 412.667 -210 290 -210 C262 -210 237 -206 215 -198 L215 -104 Z " />
<glyph glyph-name="eng" unicode="&#x14b;" horiz-adv-x="530" d="M231 -121 C247 -127 262 -130 276 -130 C306.692 -130 240.645 -55.5762 324 95 L331 119 L331 336 C331 413.333 308 445 264 445 C202.667 445 174 398 174 290 L174 0 L43 0 L43 547 L151 547 L167 482 L172 482 C197.333 530 239 558 303 558 C403 558 462 495.667 462 357 L462 0 L461 0 L461 -61 C461 -161.39 410.688 -240 303 -240 C277.667 -240 253.667 -237 231 -229 L231 -121 Z " />
<glyph glyph-name="Omacron" unicode="&#x14c;" horiz-adv-x="530" >
<path fill="black" d="M250 -8 C84.6667 -8 18 133.437 18 360 C18 590.9 85.3377 725 249 725 C413.442 725 482 584.693 482 358 C482 132.978 414.156 -8 250 -8 Z M252 112 C324.866 112 348 206.052 348 358 C348 520.667 323 604 251 604 C176.333 604 152 513.667 152 359 C152 205.667 178.667 112 252 112 Z " /><g transform="translate(7,146)" ><path fill="black" d="M108 726 L378 726 L378 637 L108 637 L108 726 Z " /></g></glyph>
<glyph glyph-name="omacron" unicode="&#x14d;" horiz-adv-x="530" >
<path fill="black" d="M250 -10 C90 -10 26 118.719 26 276 C26 440.312 99.5368 558 249 558 C384.974 558 474 455.39 474 275 C474 121.329 414.364 -10 250 -10 Z M250 106 C311.333 106 337 163 337 275 C337 385.667 308 441 250 441 C190 441 163 386.667 163 276 C163 162.667 190 106 250 106 Z " /><g transform="translate(7,-21)" ><path fill="black" d="M108 726 L378 726 L378 637 L108 637 L108 726 Z " /></g></glyph>
<glyph glyph-name="Obreve" unicode="&#x14e;" horiz-adv-x="530" >
<path fill="black" d="M250 -8 C84.6667 -8 18 133.437 18 360 C18 590.9 85.3377 725 249 725 C413.442 725 482 584.693 482 358 C482 132.978 414.156 -8 250 -8 Z M252 112 C324.866 112 348 206.052 348 358 C348 520.667 323 604 251 604 C176.333 604 152 513.667 152 359 C152 205.667 178.667 112 252 112 Z " /><g transform="translate(0,167)" ><path fill="black" d="M183 764 C185.667 717.333 207.667 694 249 694 C289 694 313 713.333 317 764 L392 764 C392 666.667 335.667 608 249 608 C167.667 608 108.333 660 107 764 L183 764 Z " /></g></glyph>
<glyph glyph-name="obreve" unicode="&#x14f;" horiz-adv-x="530" >
<path fill="black" d="M250 -10 C90 -10 26 118.719 26 276 C26 440.312 99.5368 558 249 558 C384.974 558 474 455.39 474 275 C474 121.329 414.364 -10 250 -10 Z M250 106 C311.333 106 337 163 337 275 C337 385.667 308 441 250 441 C190 441 163 386.667 163 276 C163 162.667 190 106 250 106 Z " /><path fill="black" d="M183 764 C185.667 717.333 207.667 694 249 694 C289 694 313 713.333 317 764 L392 764 C392 666.667 335.667 608 249 608 C167.667 608 108.333 660 107 764 L183 764 Z " /></glyph>
<glyph glyph-name="Ohungarumlaut" unicode="&#x150;" horiz-adv-x="530" d="M250 -8 C84.6667 -8 18 133.437 18 360 C18 590.9 85.3377 725 249 725 C413.442 725 482 584.693 482 358 C482 132.978 414.156 -8 250 -8 Z M252 112 C324.866 112 348 206.052 348 358 C348 520.667 323 604 251 604 C176.333 604 152 513.667 152 359 C152 205.667 178.667 112 252 112 Z M123 772 L123 784 C156.333 844 187.333 905.333 198 932 L310 932 L310 923 C288.315 882.341 225.407 808.779 186 772 L123 772 Z M283 772 L283 784 C316.333 844 347.333 905.333 358 932 L470 932 L470 923 C448.315 882.341 385.407 808.779 346 772 L283 772 Z " />
<glyph glyph-name="ohungarumlaut" unicode="&#x151;" horiz-adv-x="530" d="M250 -10 C90 -10 26 118.719 26 276 C26 440.312 99.5368 558 249 558 C384.974 558 474 455.39 474 275 C474 121.329 414.364 -10 250 -10 Z M250 106 C311.333 106 337 163 337 275 C337 385.667 308 441 250 441 C190 441 163 386.667 163 276 C163 162.667 190 106 250 106 Z M123 605 L123 617 C156.333 677 187.333 738.333 198 765 L310 765 L310 756 C288.315 715.341 225.407 641.779 186 605 L123 605 Z M283 605 L283 617 C316.333 677 347.333 738.333 358 765 L470 765 L470 756 C448.315 715.341 385.407 641.779 346 605 L283 605 Z " />
<glyph glyph-name="OE" unicode="&#x152;" horiz-adv-x="530" d="M482 121 L482 0 L278 0 C254.667 -7.33333 232.667 -11 212 -11 C61.7489 -11 18 133.411 18 360 C18 577.671 61.0216 725 204 725 C224 725 245.333 720.667 276 714 L482 714 L482 593 L367 593 L367 431 L465 431 L465 310 L367 310 L367 121 L482 121 Z M252 599 C242.667 608.333 232.667 610 222 610 C158 610 136 516.333 136 355 C136 193.667 158 107 218 107 C231.333 107 241.333 109 252 117 L252 599 Z " />
<glyph glyph-name="oe" unicode="&#x153;" horiz-adv-x="530" d="M482 26 C455.333 0.666667 422 -10 386 -10 C338 -10 294.667 10.6667 268 60 C238.667 10.6667 204.667 -10 158 -10 C52.6667 -10 13 96 13 280 C13 444.13 44.7489 557 155 557 C201.667 557 240.333 535 263 483 C284.333 532.333 316.667 557 360 557 C460.26 557 492 442.697 492 281 L492 237 L322 237 C324.667 149 349.667 102 403 102 C429.667 102 456.667 113.333 482 136 L482 26 Z M164 104 C198.667 104 205 165.667 205 279 C205 389.667 196.333 445 163 445 C131 445 122 391 122 279 C122 164.333 129.333 104 164 104 Z M390 331 C390 415 376.667 444 354 444 C328.667 444 316 406.333 316 331 L390 331 Z " />
<glyph glyph-name="Racute" unicode="&#x154;" horiz-adv-x="530" >
<path fill="black" d="M51 0 L51 714 L223 714 C379 714 457 644.667 457 506 C457 407.333 425 345.667 357 307 L490 0 L345 0 L242 272 L181 272 L181 0 L51 0 Z M181 388 L220 388 C290.667 388 326 424.333 326 497 C326 567.667 294.667 598 220 598 L181 598 L181 388 Z " /><g transform="translate(16,167)" ><path fill="black" d="M169 606 L169 618 C203.667 672.667 230.667 720.667 252 766 L392 766 L392 757 C365.902 717.853 300.737 646.356 255 606 L169 606 Z " /></g></glyph>
<glyph glyph-name="racute" unicode="&#x155;" horiz-adv-x="530" >
<path fill="black" d="M29 96 L141 112 L141 433 L38 446 L38 547 L237 547 L249 455 L256 455 C276 515 321.333 558 396 558 C418.667 558 449.333 552.667 484 538 L450 403 C428.667 413.667 399.667 419 377 419 C305 419 266 362 266 274 L266 112 L396 96 L396 0 L29 0 L29 96 Z " /><g transform="translate(33,0)" ><path fill="black" d="M169 606 L169 618 C203.667 672.667 230.667 720.667 252 766 L392 766 L392 757 C365.902 717.853 300.737 646.356 255 606 L169 606 Z " /></g></glyph>
<glyph glyph-name="uni0156" unicode="&#x156;" horiz-adv-x="530" >
<path fill="black" d="M51 0 L51 714 L223 714 C379 714 457 644.667 457 506 C457 407.333 425 345.667 357 307 L490 0 L345 0 L242 272 L181 272 L181 0 L51 0 Z M181 388 L220 388 C290.667 388 326 424.333 326 497 C326 567.667 294.667 598 220 598 L181 598 L181 388 Z " /><g transform="translate(795,0)" ><path fill="black" d="M-617 -221 L-617 -213 C-609.229 -181.915 -597.754 -99.5562 -595 -61 L-472 -61 L-472 -69 C-484 -115.667 -509.333 -178.333 -536 -221 L-617 -221 Z " /></g></glyph>
<glyph glyph-name="uni0157" unicode="&#x157;" horiz-adv-x="530" >
<path fill="black" d="M29 96 L141 112 L141 433 L38 446 L38 547 L237 547 L249 455 L256 455 C276 515 321.333 558 396 558 C418.667 558 449.333 552.667 484 538 L450 403 C428.667 413.667 399.667 419 377 419 C305 419 266 362 266 274 L266 112 L396 96 L396 0 L29 0 L29 96 Z " /><g transform="translate(739,0)" ><path fill="black" d="M-617 -221 L-617 -213 C-609.229 -181.915 -597.754 -99.5562 -595 -61 L-472 -61 L-472 -69 C-484 -115.667 -509.333 -178.333 -536 -221 L-617 -221 Z " /></g></glyph>
<glyph glyph-name="Rcaron" unicode="&#x158;" horiz-adv-x="530" >
<path fill="black" d="M51 0 L51 714 L223 714 C379 714 457 644.667 457 506 C457 407.333 425 345.667 357 307 L490 0 L345 0 L242 272 L181 272 L181 0 L51 0 Z M181 388 L220 388 C290.667 388 326 424.333 326 497 C326 567.667 294.667 598 220 598 L181 598 L181 388 Z " /><g transform="translate(0,167)" ><path fill="black" d="M97 766 L173 766 C195.667 746 222 716.333 250 683 C280.667 719 301.333 740.667 328 766 L403 766 L403 754 C376.697 714.546 331.216 648.432 310 606 L191 606 C172.137 646.421 126.608 713.626 97 754 L97 766 Z " /></g></glyph>
<glyph glyph-name="rcaron" unicode="&#x159;" horiz-adv-x="530" >
<path fill="black" d="M29 96 L141 112 L141 433 L38 446 L38 547 L237 547 L249 455 L256 455 C276 515 321.333 558 396 558 C418.667 558 449.333 552.667 484 538 L450 403 C428.667 413.667 399.667 419 377 419 C305 419 266 362 266 274 L266 112 L396 96 L396 0 L29 0 L29 96 Z " /><g transform="translate(17,0)" ><path fill="black" d="M97 766 L173 766 C195.667 746 222 716.333 250 683 C280.667 719 301.333 740.667 328 766 L403 766 L403 754 C376.697 714.546 331.216 648.432 310 606 L191 606 C172.137 646.421 126.608 713.626 97 754 L97 766 Z " /></g></glyph>
<glyph glyph-name="Sacute" unicode="&#x15a;" horiz-adv-x="530" >
<path fill="black" d="M52 164 C104 129.333 158 108 218 108 C298.892 108 321 148.307 321 191 C321 248.352 281.892 266.665 203 314 C114.435 370.36 48 418.499 48 529 C48 654.333 129.333 725 264 725 C328 725 383.333 708.667 442 678 L402 566 C351.333 595.333 309.667 607 271 607 C207 607 181 574 181 530 C181 482.643 217.509 460.495 285 420 C396.958 353.358 454 311.059 454 199 C454 57.6667 364.667 -10 222 -10 C163.333 -10 106.667 0.333333 52 31 L52 164 Z " /><g transform="translate(25,167)" ><path fill="black" d="M169 606 L169 618 C203.667 672.667 230.667 720.667 252 766 L392 766 L392 757 C365.902 717.853 300.737 646.356 255 606 L169 606 Z " /></g></glyph>
<glyph glyph-name="sacute" unicode="&#x15b;" horiz-adv-x="530" >
<path fill="black" d="M66 145 C112.667 121 177.667 104 235 104 C299 104 315 123.667 315 153 C315 183.393 292.7 195.318 202 238 C118 276.667 68 326 68 402 C68 502 137.333 558 272 558 C332 558 386 546 446 518 L404 412 C353.333 436 315.333 446 278 446 C226 446 204 428.333 204 403 C204 372.333 238 360 310 324 C403.994 275.66 447 246.459 447 160 C447 48 378.333 -10 229 -10 C163.667 -10 112.667 0.333333 66 23 L66 145 Z " /><g transform="translate(27,0)" ><path fill="black" d="M169 606 L169 618 C203.667 672.667 230.667 720.667 252 766 L392 766 L392 757 C365.902 717.853 300.737 646.356 255 606 L169 606 Z " /></g></glyph>
<glyph glyph-name="Scircumflex" unicode="&#x15c;" horiz-adv-x="530" >
<path fill="black" d="M52 164 C104 129.333 158 108 218 108 C298.892 108 321 148.307 321 191 C321 248.352 281.892 266.665 203 314 C114.435 370.36 48 418.499 48 529 C48 654.333 129.333 725 264 725 C328 725 383.333 708.667 442 678 L402 566 C351.333 595.333 309.667 607 271 607 C207 607 181 574 181 530 C181 482.643 217.509 460.495 285 420 C396.958 353.358 454 311.059 454 199 C454 57.6667 364.667 -10 222 -10 C163.333 -10 106.667 0.333333 52 31 L52 164 Z " /><g transform="translate(9,167)" ><path fill="black" d="M97 606 L97 618 C128.82 660.427 172.227 725.773 191 766 L310 766 C331.333 722 367 667.333 403 618 L403 606 L328 606 C304 627.333 279.333 654.333 250 689 C219.333 654.333 193 624.667 173 606 L97 606 Z " /></g></glyph>
<glyph glyph-name="scircumflex" unicode="&#x15d;" horiz-adv-x="530" >
<path fill="black" d="M66 145 C112.667 121 177.667 104 235 104 C299 104 315 123.667 315 153 C315 183.393 292.7 195.318 202 238 C118 276.667 68 326 68 402 C68 502 137.333 558 272 558 C332 558 386 546 446 518 L404 412 C353.333 436 315.333 446 278 446 C226 446 204 428.333 204 403 C204 372.333 238 360 310 324 C403.994 275.66 447 246.459 447 160 C447 48 378.333 -10 229 -10 C163.667 -10 112.667 0.333333 66 23 L66 145 Z " /><g transform="translate(11,0)" ><path fill="black" d="M97 606 L97 618 C128.82 660.427 172.227 725.773 191 766 L310 766 C331.333 722 367 667.333 403 618 L403 606 L328 606 C304 627.333 279.333 654.333 250 689 C219.333 654.333 193 624.667 173 606 L97 606 Z " /></g></glyph>
<glyph glyph-name="Scedilla" unicode="&#x15e;" horiz-adv-x="530" d="M158 -160 C175.333 -165.333 191.667 -167 205 -167 C239.667 -167 256 -152.667 256 -130 C256 -99.3333 229 -85 185 -81 L215 -10 C159 -8.66667 104 1.66667 52 31 L52 164 C104 129.333 158 108 218 108 C298.892 108 321 148.307 321 191 C321 248.352 281.892 266.665 203 314 C114.435 370.36 48 418.499 48 529 C48 654.333 129.333 725 264 725 C328 725 383.333 708.667 442 678 L402 566 C351.333 595.333 309.667 607 271 607 C207 607 181 574 181 530 C181 482.643 217.509 460.495 285 420 C396.958 353.358 454 311.059 454 199 C454 77.6667 390.667 12.3333 284 -5 L268 -42 C324 -53.3333 352 -84.3333 352 -135 C352 -200.333 308 -240 224 -240 C202.667 -240 176.667 -237 158 -233 L158 -160 Z " />
<glyph glyph-name="scedilla" unicode="&#x15f;" horiz-adv-x="530" d="M169 -160 C186.333 -165.333 202.667 -167 216 -167 C250.667 -167 267 -152.667 267 -130 C267 -99.3333 240 -85 196 -81 L226 -10 C162 -10 111.333 0.333333 66 23 L66 145 C112.667 121 177.667 104 235 104 C299 104 315 123.667 315 153 C315 183.393 292.7 195.318 202 238 C118 276.667 68 326 68 402 C68 502 137.333 558 272 558 C332 558 386 546 446 518 L404 412 C353.333 436 315.333 446 278 446 C226 446 204 428.333 204 403 C204 372.333 238 360 310 324 C403.994 275.66 447 246.459 447 160 C447 66.6667 399 9.66667 295 -5 L279 -42 C335 -53.3333 363 -84.3333 363 -135 C363 -200.333 319 -240 235 -240 C213.667 -240 187.667 -237 169 -233 L169 -160 Z " />
<glyph glyph-name="Scaron" unicode="&#x160;" horiz-adv-x="530" >
<path fill="black" d="M52 164 C104 129.333 158 108 218 108 C298.892 108 321 148.307 321 191 C321 248.352 281.892 266.665 203 314 C114.435 370.36 48 418.499 48 529 C48 654.333 129.333 725 264 725 C328 725 383.333 708.667 442 678 L402 566 C351.333 595.333 309.667 607 271 607 C207 607 181 574 181 530 C181 482.643 217.509 460.495 285 420 C396.958 353.358 454 311.059 454 199 C454 57.6667 364.667 -10 222 -10 C163.333 -10 106.667 0.333333 52 31 L52 164 Z " /><g transform="translate(9,167)" ><path fill="black" d="M97 766 L173 766 C195.667 746 222 716.333 250 683 C280.667 719 301.333 740.667 328 766 L403 766 L403 754 C376.697 714.546 331.216 648.432 310 606 L191 606 C172.137 646.421 126.608 713.626 97 754 L97 766 Z " /></g></glyph>
<glyph glyph-name="scaron" unicode="&#x161;" horiz-adv-x="530" >
<path fill="black" d="M66 145 C112.667 121 177.667 104 235 104 C299 104 315 123.667 315 153 C315 183.393 292.7 195.318 202 238 C118 276.667 68 326 68 402 C68 502 137.333 558 272 558 C332 558 386 546 446 518 L404 412 C353.333 436 315.333 446 278 446 C226 446 204 428.333 204 403 C204 372.333 238 360 310 324 C403.994 275.66 447 246.459 447 160 C447 48 378.333 -10 229 -10 C163.667 -10 112.667 0.333333 66 23 L66 145 Z " /><g transform="translate(11,0)" ><path fill="black" d="M97 766 L173 766 C195.667 746 222 716.333 250 683 C280.667 719 301.333 740.667 328 766 L403 766 L403 754 C376.697 714.546 331.216 648.432 310 606 L191 606 C172.137 646.421 126.608 713.626 97 754 L97 766 Z " /></g></glyph>
<glyph glyph-name="uni0162" unicode="&#x162;" horiz-adv-x="530" d="M158 -160 C175.333 -165.333 191.667 -167 205 -167 C239.667 -167 256 -152.667 256 -130 C256 -99.3333 229 -85 185 -81 L219 0 L185 0 L185 594 L21 594 L21 714 L479 714 L479 594 L315 594 L315 0 L286 0 L268 -42 C324 -53.3333 352 -84.3333 352 -135 C352 -200.333 308 -240 224 -240 C202.667 -240 176.667 -237 158 -233 L158 -160 Z " />
<glyph glyph-name="uni0163" unicode="&#x163;" horiz-adv-x="530" d="M218 -160 C235.333 -165.333 251.667 -167 265 -167 C299.667 -167 316 -152.667 316 -130 C316 -99.3333 289 -85 245 -81 L277 -5 C198.333 9.66667 148 67 148 175 L148 433 L23 433 L23 499 L156 548 L197 681 L280 681 L280 547 L469 547 L469 433 L279 433 L279 199 C279 126.056 317.918 110 365 110 C391.667 110 428.333 113.333 471 128 L471 13 C433.667 -0.333333 384.667 -7.33333 342 -10 L328 -42 C384 -53.3333 412 -84.3333 412 -135 C412 -200.333 368 -240 284 -240 C262.667 -240 236.667 -237 218 -233 L218 -160 Z " />
<glyph glyph-name="Tcaron" unicode="&#x164;" horiz-adv-x="530" >
<path fill="black" d="M185 0 L185 594 L21 594 L21 714 L479 714 L479 594 L315 594 L315 0 L185 0 Z " /><g transform="translate(0,167)" ><path fill="black" d="M97 766 L173 766 C195.667 746 222 716.333 250 683 C280.667 719 301.333 740.667 328 766 L403 766 L403 754 C376.697 714.546 331.216 648.432 310 606 L191 606 C172.137 646.421 126.608 713.626 97 754 L97 766 Z " /></g></glyph>
<glyph glyph-name="tcaron" unicode="&#x165;" horiz-adv-x="530" >
<path fill="black" d="M148 433 L23 433 L23 499 L156 548 L197 681 L280 681 L280 547 L469 547 L469 433 L279 433 L279 199 C279 126.056 317.918 110 365 110 C391.667 110 428.333 113.333 471 128 L471 13 C429.667 -1.66667 373.667 -10 327 -10 C221.667 -10 148 45.6667 148 175 L148 433 Z " /><g transform="translate(979,821)" ><path fill="black" d="M-617 -221 L-617 -213 C-609.229 -181.915 -597.754 -99.5562 -595 -61 L-472 -61 L-472 -69 C-484 -115.667 -509.333 -178.333 -536 -221 L-617 -221 Z " /></g></glyph>
<glyph glyph-name="Tbar" unicode="&#x166;" horiz-adv-x="530" d="M185 303 L87 303 L87 403 L185 403 L185 594 L21 594 L21 714 L479 714 L479 594 L315 594 L315 403 L414 403 L414 303 L315 303 L315 0 L185 0 L185 303 Z " />
<glyph glyph-name="tbar" unicode="&#x167;" horiz-adv-x="530" d="M148 246 L23 246 L23 336 L148 336 L148 433 L23 433 L23 499 L156 548 L197 681 L280 681 L280 547 L469 547 L469 433 L279 433 L279 336 L472 336 L472 246 L279 246 L279 199 C279 126.056 317.918 110 365 110 C391.667 110 428.333 113.333 471 128 L471 13 C429.667 -1.66667 373.667 -10 327 -10 C221.667 -10 148 45.6667 148 175 L148 246 Z " />
<glyph glyph-name="Utilde" unicode="&#x168;" horiz-adv-x="530" >
<path fill="black" d="M31 714 L163 714 L163 269 C163 155.667 182 110 250 110 C320.667 110 337 158 337 270 L337 714 L469 714 L469 260 C469 77.3333 406 -10 250 -10 C94 -10 31 75.3333 31 258 L31 714 Z " /><g transform="translate(0,167)" ><path fill="black" d="M89 610 C91.6296 673.111 106.669 755 176 755 C229.216 755 268.549 703 310 703 C331.333 703 337.333 720 344 756 L411 756 C408.333 657.333 372.333 611 323 611 C268.209 611 225.654 663 190 663 C172 663 161 645.333 157 610 L89 610 Z " /></g></glyph>
<glyph glyph-name="utilde" unicode="&#x169;" horiz-adv-x="530" >
<path fill="black" d="M38 547 L169 547 L169 224 C169 142.667 190.667 107 244 107 C304 107 326 155.667 326 273 L326 547 L457 547 L457 0 L349 0 L332 70 L325 70 C299 16.6667 255.333 -10 194 -10 C95.3333 -10 38 51 38 187 L38 547 Z " /><path fill="black" d="M89 610 C91.6296 673.111 106.669 755 176 755 C229.216 755 268.549 703 310 703 C331.333 703 337.333 720 344 756 L411 756 C408.333 657.333 372.333 611 323 611 C268.209 611 225.654 663 190 663 C172 663 161 645.333 157 610 L89 610 Z " /></glyph>
<glyph glyph-name="Umacron" unicode="&#x16a;" horiz-adv-x="530" >
<path fill="black" d="M31 714 L163 714 L163 269 C163 155.667 182 110 250 110 C320.667 110 337 158 337 270 L337 714 L469 714 L469 260 C469 77.3333 406 -10 250 -10 C94 -10 31 75.3333 31 258 L31 714 Z " /><g transform="translate(7,146)" ><path fill="black" d="M108 726 L378 726 L378 637 L108 637 L108 726 Z " /></g></glyph>
<glyph glyph-name="umacron" unicode="&#x16b;" horiz-adv-x="530" >
<path fill="black" d="M38 547 L169 547 L169 224 C169 142.667 190.667 107 244 107 C304 107 326 155.667 326 273 L326 547 L457 547 L457 0 L349 0 L332 70 L325 70 C299 16.6667 255.333 -10 194 -10 C95.3333 -10 38 51 38 187 L38 547 Z " /><g transform="translate(7,-21)" ><path fill="black" d="M108 726 L378 726 L378 637 L108 637 L108 726 Z " /></g></glyph>
<glyph glyph-name="Ubreve" unicode="&#x16c;" horiz-adv-x="530" >
<path fill="black" d="M31 714 L163 714 L163 269 C163 155.667 182 110 250 110 C320.667 110 337 158 337 270 L337 714 L469 714 L469 260 C469 77.3333 406 -10 250 -10 C94 -10 31 75.3333 31 258 L31 714 Z " /><g transform="translate(0,167)" ><path fill="black" d="M183 764 C185.667 717.333 207.667 694 249 694 C289 694 313 713.333 317 764 L392 764 C392 666.667 335.667 608 249 608 C167.667 608 108.333 660 107 764 L183 764 Z " /></g></glyph>
<glyph glyph-name="ubreve" unicode="&#x16d;" horiz-adv-x="530" >
<path fill="black" d="M38 547 L169 547 L169 224 C169 142.667 190.667 107 244 107 C304 107 326 155.667 326 273 L326 547 L457 547 L457 0 L349 0 L332 70 L325 70 C299 16.6667 255.333 -10 194 -10 C95.3333 -10 38 51 38 187 L38 547 Z " /><path fill="black" d="M183 764 C185.667 717.333 207.667 694 249 694 C289 694 313 713.333 317 764 L392 764 C392 666.667 335.667 608 249 608 C167.667 608 108.333 660 107 764 L183 764 Z " /></glyph>
<glyph glyph-name="Uring" unicode="&#x16e;" horiz-adv-x="530" >
<path fill="black" d="M31 714 L163 714 L163 269 C163 155.667 182 110 250 110 C320.667 110 337 158 337 270 L337 714 L469 714 L469 260 C469 77.3333 406 -10 250 -10 C94 -10 31 75.3333 31 258 L31 714 Z " /><g transform="translate(1,167)" ><path fill="black" d="M125 719 C125 789.667 174 838 250 838 C322 838 371 789.667 371 719 C371 649.667 323.333 600 250 600 C174 600 125 647 125 719 Z M198 719 C198 688.333 218.333 669 249 669 C279.667 669 299 688.333 299 719 C299 748.333 279.667 769 249 769 C219.667 769 198 749.667 198 719 Z " /></g></glyph>
<glyph glyph-name="uring" unicode="&#x16f;" horiz-adv-x="530" >
<path fill="black" d="M38 547 L169 547 L169 224 C169 142.667 190.667 107 244 107 C304 107 326 155.667 326 273 L326 547 L457 547 L457 0 L349 0 L332 70 L325 70 C299 16.6667 255.333 -10 194 -10 C95.3333 -10 38 51 38 187 L38 547 Z " /><g transform="translate(1,0)" ><path fill="black" d="M125 719 C125 789.667 174 838 250 838 C322 838 371 789.667 371 719 C371 649.667 323.333 600 250 600 C174 600 125 647 125 719 Z M198 719 C198 688.333 218.333 669 249 669 C279.667 669 299 688.333 299 719 C299 748.333 279.667 769 249 769 C219.667 769 198 749.667 198 719 Z " /></g></glyph>
<glyph glyph-name="Uhungarumlaut" unicode="&#x170;" horiz-adv-x="530" d="M31 714 L163 714 L163 269 C163 155.667 182 110 250 110 C320.667 110 337 158 337 270 L337 714 L469 714 L469 260 C469 77.3333 406 -10 250 -10 C94 -10 31 75.3333 31 258 L31 714 Z M123 772 L123 784 C156.333 844 187.333 905.333 198 932 L310 932 L310 923 C288.315 882.341 225.407 808.779 186 772 L123 772 Z M283 772 L283 784 C316.333 844 347.333 905.333 358 932 L470 932 L470 923 C448.315 882.341 385.407 808.779 346 772 L283 772 Z " />
<glyph glyph-name="uhungarumlaut" unicode="&#x171;" horiz-adv-x="530" d="M38 547 L169 547 L169 224 C169 142.667 190.667 107 244 107 C304 107 326 155.667 326 273 L326 547 L457 547 L457 0 L349 0 L332 70 L325 70 C299 16.6667 255.333 -10 194 -10 C95.3333 -10 38 51 38 187 L38 547 Z M123 605 L123 617 C156.333 677 187.333 738.333 198 765 L310 765 L310 756 C288.315 715.341 225.407 641.779 186 605 L123 605 Z M283 605 L283 617 C316.333 677 347.333 738.333 358 765 L470 765 L470 756 C448.315 715.341 385.407 641.779 346 605 L283 605 Z " />
<glyph glyph-name="Uogonek" unicode="&#x172;" horiz-adv-x="530" d="M343 -223 C328.333 -229.667 309 -235 281 -235 C207.667 -235 170 -198 170 -134 C170 -86.6667 190.667 -45.3333 232 -10 C88 -3.33333 31 80.6667 31 258 L31 714 L163 714 L163 269 C163 155.667 182 110 250 110 C320.667 110 337 158 337 270 L337 714 L469 714 L469 260 C469 122.667 435 40.3333 351 7 C295 -31.6667 265 -65.6667 265 -107 C265 -133.667 279.333 -152 310 -152 C323.333 -152 333.667 -148 343 -144 L343 -223 Z " />
<glyph glyph-name="uogonek" unicode="&#x173;" horiz-adv-x="530" d="M332 70 L325 70 C299 16.6667 255.333 -10 194 -10 C95.3333 -10 38 51 38 187 L38 547 L169 547 L169 224 C169 142.667 190.667 107 244 107 C304 107 326 155.667 326 273 L326 547 L457 547 L457 0 L432 0 C389.333 -45.3333 378 -75 378 -107 C378 -133.667 393 -152 421 -152 C437 -152 446.667 -148 456 -144 L456 -223 C441.333 -229.667 420.667 -235 394 -235 C319.333 -235 282 -198 282 -134 C282 -88.6667 302.333 -41.3333 349 0 L332 70 Z " />
<glyph glyph-name="Wcircumflex" unicode="&#x174;" horiz-adv-x="530" >
<path fill="black" d="M148 121 C153.383 177.518 165.615 286.149 171 340 L196 547 L304 547 L332 339 C340.028 274.777 351.375 175.129 354 120 L360 120 C360 218.466 365.344 366.561 368 425 L383 714 L492 714 L448 0 L294 0 L268 237 C261.333 293 255.667 360.667 253 402 L248 402 C245.333 360.667 241.667 293 235 237 L209 0 L53 0 L8 714 L114 714 C120.667 616.667 126.667 521.333 132 424 C134.652 365.662 140.342 216.671 143 121 L148 121 Z " /><g transform="translate(0,167)" ><path fill="black" d="M97 606 L97 618 C128.82 660.427 172.227 725.773 191 766 L310 766 C331.333 722 367 667.333 403 618 L403 606 L328 606 C304 627.333 279.333 654.333 250 689 C219.333 654.333 193 624.667 173 606 L97 606 Z " /></g></glyph>
<glyph glyph-name="wcircumflex" unicode="&#x175;" horiz-adv-x="530" >
<path fill="black" d="M140 146 C142.667 176.667 150.333 227.667 157 265 L196 469 L303 469 L339 265 C345.667 225 353 176.667 357 146 L361 146 C363.667 182 364.333 245.333 367 288 L381 547 L494 547 L432 0 L291 0 L268 164 C260 214.667 254 271.333 250 318 L246 318 C242 271.333 233.667 214.667 227 164 L201 0 L64 0 L3 547 L118 547 L131 289 C133.663 246.388 136 180.651 136 146 L140 146 Z " /><g transform="translate(1,0)" ><path fill="black" d="M97 606 L97 618 C128.82 660.427 172.227 725.773 191 766 L310 766 C331.333 722 367 667.333 403 618 L403 606 L328 606 C304 627.333 279.333 654.333 250 689 C219.333 654.333 193 624.667 173 606 L97 606 Z " /></g></glyph>
<glyph glyph-name="Ycircumflex" unicode="&#x176;" horiz-adv-x="530" >
<path fill="black" d="M185 0 L185 275 L10 714 L153 714 L250 413 L348 714 L490 714 L312 276 L312 0 L185 0 Z " /><g transform="translate(0,167)" ><path fill="black" d="M97 606 L97 618 C128.82 660.427 172.227 725.773 191 766 L310 766 C331.333 722 367 667.333 403 618 L403 606 L328 606 C304 627.333 279.333 654.333 250 689 C219.333 654.333 193 624.667 173 606 L97 606 Z " /></g></glyph>
<glyph glyph-name="ycircumflex" unicode="&#x177;" horiz-adv-x="530" >
<path fill="black" d="M29 -127 C43 -131 58 -133 74 -133 C114.892 -133 163.254 -120.261 190 -32 L200 -2 L13 547 L156 547 L231 278 C243 234 249.333 199.667 256 169 L259 169 C264.333 197 272.667 235.333 282 278 L344 547 L487 547 L310 -50 C270 -187.333 204.333 -245 95 -245 C73.6667 -245 51.6667 -242.333 29 -237 L29 -127 Z " /><path fill="black" d="M97 606 L97 618 C128.82 660.427 172.227 725.773 191 766 L310 766 C331.333 722 367 667.333 403 618 L403 606 L328 606 C304 627.333 279.333 654.333 250 689 C219.333 654.333 193 624.667 173 606 L97 606 Z " /></glyph>
<glyph glyph-name="Ydieresis" unicode="&#x178;" horiz-adv-x="530" >
<g transform="translate(0,153)" ><path fill="black" d="M156 618 C120 618 96 642.333 96 685 C96 729 120 752 156 752 C193.333 752 217 727.667 217 685 C217 642.333 193.333 618 156 618 Z M343 618 C307 618 283 642.333 283 685 C283 729 307 752 343 752 C380.333 752 404 727.667 404 685 C404 642.333 380.333 618 343 618 Z " /></g><path fill="black" d="M185 0 L185 275 L10 714 L153 714 L250 413 L348 714 L490 714 L312 276 L312 0 L185 0 Z " /></glyph>
<glyph glyph-name="Zacute" unicode="&#x179;" horiz-adv-x="530" >
<path fill="black" d="M51 99 L311 594 L58 594 L58 714 L454 714 L454 615 L201 120 L456 120 L456 0 L51 0 L51 99 Z " /><g transform="translate(22,167)" ><path fill="black" d="M169 606 L169 618 C203.667 672.667 230.667 720.667 252 766 L392 766 L392 757 C365.902 717.853 300.737 646.356 255 606 L169 606 Z " /></g></glyph>
<glyph glyph-name="zacute" unicode="&#x17a;" horiz-adv-x="530" >
<path fill="black" d="M51 86 L286 434 L61 434 L61 547 L438 547 L438 448 L212 115 L449 115 L449 0 L51 0 L51 86 Z " /><g transform="translate(15,0)" ><path fill="black" d="M169 606 L169 618 C203.667 672.667 230.667 720.667 252 766 L392 766 L392 757 C365.902 717.853 300.737 646.356 255 606 L169 606 Z " /></g></glyph>
<glyph glyph-name="Zdotaccent" unicode="&#x17b;" horiz-adv-x="530" >
<path fill="black" d="M51 99 L311 594 L58 594 L58 714 L454 714 L454 615 L201 120 L456 120 L456 0 L51 0 L51 99 Z " /><g transform="translate(6,166)" ><path fill="black" d="M171 693 C171 745 197 771 249 771 C301 771 327 745 327 693 C327 643.667 302.333 616 249 616 C198.333 616 171 642.333 171 693 Z " /></g></glyph>
<glyph glyph-name="zdotaccent" unicode="&#x17c;" horiz-adv-x="530" >
<path fill="black" d="M51 86 L286 434 L61 434 L61 547 L438 547 L438 448 L212 115 L449 115 L449 0 L51 0 L51 86 Z " /><g transform="translate(-1,-1)" ><path fill="black" d="M171 693 C171 745 197 771 249 771 C301 771 327 745 327 693 C327 643.667 302.333 616 249 616 C198.333 616 171 642.333 171 693 Z " /></g></glyph>
<glyph glyph-name="Zcaron" unicode="&#x17d;" horiz-adv-x="530" >
<path fill="black" d="M51 99 L311 594 L58 594 L58 714 L454 714 L454 615 L201 120 L456 120 L456 0 L51 0 L51 99 Z " /><g transform="translate(6,167)" ><path fill="black" d="M97 766 L173 766 C195.667 746 222 716.333 250 683 C280.667 719 301.333 740.667 328 766 L403 766 L403 754 C376.697 714.546 331.216 648.432 310 606 L191 606 C172.137 646.421 126.608 713.626 97 754 L97 766 Z " /></g></glyph>
<glyph glyph-name="zcaron" unicode="&#x17e;" horiz-adv-x="530" >
<path fill="black" d="M51 86 L286 434 L61 434 L61 547 L438 547 L438 448 L212 115 L449 115 L449 0 L51 0 L51 86 Z " /><g transform="translate(-1,0)" ><path fill="black" d="M97 766 L173 766 C195.667 746 222 716.333 250 683 C280.667 719 301.333 740.667 328 766 L403 766 L403 754 C376.697 714.546 331.216 648.432 310 606 L191 606 C172.137 646.421 126.608 713.626 97 754 L97 766 Z " /></g></glyph>
<glyph glyph-name="longs" unicode="&#x17f;" horiz-adv-x="530" d="M164 0 L164 566 C164 707.333 216.333 765 343 765 C375 765 406.667 761 448 745 L422 645 C402 651.667 381 656 361 656 C319.667 656 296 634.667 296 556 L296 0 L164 0 Z " />
<glyph glyph-name="florin" unicode="&#x192;" horiz-adv-x="530" d="M54 -125 C73.3333 -131.667 92 -135 110 -135 C160.667 -135 180 -110.667 180 -56 L180 388 L73 388 L73 455 L180 491 L180 529 C180 666.333 230.333 724 345 724 C383.667 724 411.333 717.333 454 700 L426 606 C407.333 614 391 619 371 619 C324.333 619 305 594.667 305 536 L305 491 L422 491 L422 388 L305 388 L305 -42 C305 -179.333 258.667 -240 136 -240 C101.333 -240 76.6667 -235.667 54 -229 L54 -125 Z " />
<glyph glyph-name="uni0218" unicode="&#x218;" horiz-adv-x="530" >
<path fill="black" d="M52 164 C104 129.333 158 108 218 108 C298.892 108 321 148.307 321 191 C321 248.352 281.892 266.665 203 314 C114.435 370.36 48 418.499 48 529 C48 654.333 129.333 725 264 725 C328 725 383.333 708.667 442 678 L402 566 C351.333 595.333 309.667 607 271 607 C207 607 181 574 181 530 C181 482.643 217.509 460.495 285 420 C396.958 353.358 454 311.059 454 199 C454 57.6667 364.667 -10 222 -10 C163.333 -10 106.667 0.333333 52 31 L52 164 Z " /><g transform="translate(780,0)" ><path fill="black" d="M-617 -221 L-617 -213 C-609.229 -181.915 -597.754 -99.5562 -595 -61 L-472 -61 L-472 -69 C-484 -115.667 -509.333 -178.333 -536 -221 L-617 -221 Z " /></g></glyph>
<glyph glyph-name="uni0219" unicode="&#x219;" horiz-adv-x="530" >
<path fill="black" d="M66 145 C112.667 121 177.667 104 235 104 C299 104 315 123.667 315 153 C315 183.393 292.7 195.318 202 238 C118 276.667 68 326 68 402 C68 502 137.333 558 272 558 C332 558 386 546 446 518 L404 412 C353.333 436 315.333 446 278 446 C226 446 204 428.333 204 403 C204 372.333 238 360 310 324 C403.994 275.66 447 246.459 447 160 C447 48 378.333 -10 229 -10 C163.667 -10 112.667 0.333333 66 23 L66 145 Z " /><g transform="translate(791,0)" ><path fill="black" d="M-617 -221 L-617 -213 C-609.229 -181.915 -597.754 -99.5562 -595 -61 L-472 -61 L-472 -69 C-484 -115.667 -509.333 -178.333 -536 -221 L-617 -221 Z " /></g></glyph>
<glyph glyph-name="uni021A" unicode="&#x21a;" horiz-adv-x="530" >
<path fill="black" d="M185 0 L185 594 L21 594 L21 714 L479 714 L479 594 L315 594 L315 0 L185 0 Z " /><g transform="translate(780,0)" ><path fill="black" d="M-617 -221 L-617 -213 C-609.229 -181.915 -597.754 -99.5562 -595 -61 L-472 -61 L-472 -69 C-484 -115.667 -509.333 -178.333 -536 -221 L-617 -221 Z " /></g></glyph>
<glyph glyph-name="uni021B" unicode="&#x21b;" horiz-adv-x="530" >
<path fill="black" d="M148 433 L23 433 L23 499 L156 548 L197 681 L280 681 L280 547 L469 547 L469 433 L279 433 L279 199 C279 126.056 317.918 110 365 110 C391.667 110 428.333 113.333 471 128 L471 13 C429.667 -1.66667 373.667 -10 327 -10 C221.667 -10 148 45.6667 148 175 L148 433 Z " /><g transform="translate(840,0)" ><path fill="black" d="M-617 -221 L-617 -213 C-609.229 -181.915 -597.754 -99.5562 -595 -61 L-472 -61 L-472 -69 C-484 -115.667 -509.333 -178.333 -536 -221 L-617 -221 Z " /></g></glyph>
<glyph glyph-name="uni0237" unicode="&#x237;" horiz-adv-x="500" d="M31 -109 C70.3782 -122.126 125.836 -128 152 -128 C212 -128 233 -100.333 233 -27 L233 433 L78 445 L78 547 L363 547 L363 -48 C363 -181.333 307.333 -245 170 -245 C130 -245 72.3333 -238.667 31 -224 L31 -109 Z " />
<glyph glyph-name="circumflex" unicode="&#x2c6;" horiz-adv-x="530" d="M97 606 L97 618 C128.82 660.427 172.227 725.773 191 766 L310 766 C331.333 722 367 667.333 403 618 L403 606 L328 606 C304 627.333 279.333 654.333 250 689 C219.333 654.333 193 624.667 173 606 L97 606 Z " />
<glyph glyph-name="caron" unicode="&#x2c7;" horiz-adv-x="530" d="M97 766 L173 766 C195.667 746 222 716.333 250 683 C280.667 719 301.333 740.667 328 766 L403 766 L403 754 C376.697 714.546 331.216 648.432 310 606 L191 606 C172.137 646.421 126.608 713.626 97 754 L97 766 Z " />
<glyph glyph-name="uni02C9" unicode="&#x2c9;" horiz-adv-x="530" >
<g transform="translate(7,-20)" ><path fill="black" d="M108 726 L378 726 L378 637 L108 637 L108 726 Z " /></g></glyph>
<glyph glyph-name="breve" unicode="&#x2d8;" horiz-adv-x="530" d="M183 764 C185.667 717.333 207.667 694 249 694 C289 694 313 713.333 317 764 L392 764 C392 666.667 335.667 608 249 608 C167.667 608 108.333 660 107 764 L183 764 Z " />
<glyph glyph-name="dotaccent" unicode="&#x2d9;" horiz-adv-x="530" d="M171 693 C171 745 197 771 249 771 C301 771 327 745 327 693 C327 643.667 302.333 616 249 616 C198.333 616 171 642.333 171 693 Z " />
<glyph glyph-name="ring" unicode="&#x2da;" horiz-adv-x="530" d="M125 719 C125 789.667 174 838 250 838 C322 838 371 789.667 371 719 C371 649.667 323.333 600 250 600 C174 600 125 647 125 719 Z M198 719 C198 688.333 218.333 669 249 669 C279.667 669 299 688.333 299 719 C299 748.333 279.667 769 249 769 C219.667 769 198 749.667 198 719 Z " />
<glyph glyph-name="ogonek" unicode="&#x2db;" horiz-adv-x="530" d="M337 -223 C322.333 -229.667 301.667 -235 275 -235 C200.333 -235 163 -198 163 -134 C163 -83.3333 189.333 -29 248 15 L313 0 C270.333 -45.3333 259 -75 259 -107 C259 -133.667 274 -152 302 -152 C318 -152 327.667 -148 337 -144 L337 -223 Z " />
<glyph glyph-name="tilde" unicode="&#x2dc;" horiz-adv-x="530" d="M89 610 C91.6296 673.111 106.669 755 176 755 C229.216 755 268.549 703 310 703 C331.333 703 337.333 720 344 756 L411 756 C408.333 657.333 372.333 611 323 611 C268.209 611 225.654 663 190 663 C172 663 161 645.333 157 610 L89 610 Z " />
<glyph glyph-name="hungarumlaut" unicode="&#x2dd;" horiz-adv-x="530" d="M100 606 L100 618 C133.333 678 164.333 739.333 175 766 L287 766 L287 757 C265.315 716.341 202.407 642.779 163 606 L100 606 Z M260 606 L260 618 C293.333 678 324.333 739.333 335 766 L447 766 L447 757 C425.315 716.341 362.407 642.779 323 606 L260 606 Z " />
<glyph glyph-name="uni0394" unicode="&#x394;" horiz-adv-x="530" d="M10 81 L165 714 L334 714 L490 78 L490 0 L10 0 L10 81 Z M344 114 L269 494 C262.333 524.667 254.333 562.333 249 597 C245 561 237.667 524.667 231 494 L156 114 L344 114 Z " />
<glyph glyph-name="uni03A9" unicode="&#x3a9;" horiz-adv-x="530" d="M10 114 L125 114 C69.8883 166.487 19 257.064 19 412 C19 613.333 103.333 725 250 725 C392.667 725 480 617.667 480 407 C480 261.667 439.667 168.667 373 114 L490 114 L490 0 L276 0 L276 121 C332 175.667 355 256.667 355 390 C355 535.333 323 612 251 612 C180.333 612 145 537.667 145 389 C145 257 170 174.333 222 121 L222 0 L10 0 L10 114 Z " />
<glyph glyph-name="uni03BC" unicode="&#x3bc;" horiz-adv-x="530" >
<path fill="black" d="M38 547 L169 547 L169 224 C169 142.667 190.667 107 244 107 C304 107 326 155.667 326 273 L326 547 L457 547 L457 0 L349 0 L332 70 L325 70 C299 16.6667 255.333 -10 194 -10 C183.333 -10 175.333 -9.33333 166 -8 L166 -240 L38 -240 L38 547 Z " /></glyph>
<glyph glyph-name="pi" unicode="&#x3c0;" horiz-adv-x="530" d="M78 436 L6 436 L6 498 L70 547 L491 547 L491 436 L414 436 L414 164 C414 122.667 423 107 447 107 C461 107 472.667 111.667 482 121 L482 17 C466 2.33333 437 -9 397 -9 C321 -9 291 42.3333 291 149 L291 436 L201 436 L201 0 L78 0 L78 436 Z " />
<glyph glyph-name="Wgrave" unicode="&#x1e80;" horiz-adv-x="530" >
<path fill="black" d="M148 121 C153.383 177.518 165.615 286.149 171 340 L196 547 L304 547 L332 339 C340.028 274.777 351.375 175.129 354 120 L360 120 C360 218.466 365.344 366.561 368 425 L383 714 L492 714 L448 0 L294 0 L268 237 C261.333 293 255.667 360.667 253 402 L248 402 C245.333 360.667 241.667 293 235 237 L209 0 L53 0 L8 714 L114 714 C120.667 616.667 126.667 521.333 132 424 C134.652 365.662 140.342 216.671 143 121 L148 121 Z " /><g transform="translate(-13,167)" ><path fill="black" d="M108 766 L248 766 C266.568 723.56 307.907 650.124 332 618 L332 606 L245 606 C209.616 638.662 134.817 719.456 108 757 L108 766 Z " /></g></glyph>
<glyph glyph-name="wgrave" unicode="&#x1e81;" horiz-adv-x="530" >
<path fill="black" d="M140 146 C142.667 176.667 150.333 227.667 157 265 L196 469 L303 469 L339 265 C345.667 225 353 176.667 357 146 L361 146 C363.667 182 364.333 245.333 367 288 L381 547 L494 547 L432 0 L291 0 L268 164 C260 214.667 254 271.333 250 318 L246 318 C242 271.333 233.667 214.667 227 164 L201 0 L64 0 L3 547 L118 547 L131 289 C133.663 246.388 136 180.651 136 146 L140 146 Z " /><g transform="translate(-12,0)" ><path fill="black" d="M108 766 L248 766 C266.568 723.56 307.907 650.124 332 618 L332 606 L245 606 C209.616 638.662 134.817 719.456 108 757 L108 766 Z " /></g></glyph>
<glyph glyph-name="Wacute" unicode="&#x1e82;" horiz-adv-x="530" >
<path fill="black" d="M148 121 C153.383 177.518 165.615 286.149 171 340 L196 547 L304 547 L332 339 C340.028 274.777 351.375 175.129 354 120 L360 120 C360 218.466 365.344 366.561 368 425 L383 714 L492 714 L448 0 L294 0 L268 237 C261.333 293 255.667 360.667 253 402 L248 402 C245.333 360.667 241.667 293 235 237 L209 0 L53 0 L8 714 L114 714 C120.667 616.667 126.667 521.333 132 424 C134.652 365.662 140.342 216.671 143 121 L148 121 Z " /><g transform="translate(16,167)" ><path fill="black" d="M169 606 L169 618 C203.667 672.667 230.667 720.667 252 766 L392 766 L392 757 C365.902 717.853 300.737 646.356 255 606 L169 606 Z " /></g></glyph>
<glyph glyph-name="wacute" unicode="&#x1e83;" horiz-adv-x="530" >
<path fill="black" d="M140 146 C142.667 176.667 150.333 227.667 157 265 L196 469 L303 469 L339 265 C345.667 225 353 176.667 357 146 L361 146 C363.667 182 364.333 245.333 367 288 L381 547 L494 547 L432 0 L291 0 L268 164 C260 214.667 254 271.333 250 318 L246 318 C242 271.333 233.667 214.667 227 164 L201 0 L64 0 L3 547 L118 547 L131 289 C133.663 246.388 136 180.651 136 146 L140 146 Z " /><g transform="translate(17,0)" ><path fill="black" d="M169 606 L169 618 C203.667 672.667 230.667 720.667 252 766 L392 766 L392 757 C365.902 717.853 300.737 646.356 255 606 L169 606 Z " /></g></glyph>
<glyph glyph-name="Wdieresis" unicode="&#x1e84;" horiz-adv-x="530" >
<g transform="translate(0,153)" ><path fill="black" d="M156 618 C120 618 96 642.333 96 685 C96 729 120 752 156 752 C193.333 752 217 727.667 217 685 C217 642.333 193.333 618 156 618 Z M343 618 C307 618 283 642.333 283 685 C283 729 307 752 343 752 C380.333 752 404 727.667 404 685 C404 642.333 380.333 618 343 618 Z " /></g><path fill="black" d="M148 121 C153.383 177.518 165.615 286.149 171 340 L196 547 L304 547 L332 339 C340.028 274.777 351.375 175.129 354 120 L360 120 C360 218.466 365.344 366.561 368 425 L383 714 L492 714 L448 0 L294 0 L268 237 C261.333 293 255.667 360.667 253 402 L248 402 C245.333 360.667 241.667 293 235 237 L209 0 L53 0 L8 714 L114 714 C120.667 616.667 126.667 521.333 132 424 C134.652 365.662 140.342 216.671 143 121 L148 121 Z " /></glyph>
<glyph glyph-name="wdieresis" unicode="&#x1e85;" horiz-adv-x="530" >
<g transform="translate(1,-14)" ><path fill="black" d="M156 618 C120 618 96 642.333 96 685 C96 729 120 752 156 752 C193.333 752 217 727.667 217 685 C217 642.333 193.333 618 156 618 Z M343 618 C307 618 283 642.333 283 685 C283 729 307 752 343 752 C380.333 752 404 727.667 404 685 C404 642.333 380.333 618 343 618 Z " /></g><path fill="black" d="M140 146 C142.667 176.667 150.333 227.667 157 265 L196 469 L303 469 L339 265 C345.667 225 353 176.667 357 146 L361 146 C363.667 182 364.333 245.333 367 288 L381 547 L494 547 L432 0 L291 0 L268 164 C260 214.667 254 271.333 250 318 L246 318 C242 271.333 233.667 214.667 227 164 L201 0 L64 0 L3 547 L118 547 L131 289 C133.663 246.388 136 180.651 136 146 L140 146 Z " /></glyph>
<glyph glyph-name="uni2010" unicode="&#x2010;" horiz-adv-x="500" >
<path fill="black" d="M125 330 L375 330 L375 210 L125 210 L125 330 Z " /></glyph>
<glyph glyph-name="endash" unicode="&#x2013;" horiz-adv-x="530" d="M75 330 L425 330 L425 210 L75 210 L75 330 Z " />
<glyph glyph-name="emdash" unicode="&#x2014;" horiz-adv-x="530" d="M0 330 L500 330 L500 210 L0 210 L0 330 Z " />
<glyph glyph-name="quoteleft" unicode="&#x2018;" horiz-adv-x="530" >
<path fill="black" d="M170 447 L164 458 C181.333 556.667 204.333 640.667 235 714 L336 714 C317.295 631.165 301.346 519.164 296 447 L170 447 Z " /></glyph>
<glyph glyph-name="quoteright" unicode="&#x2019;" horiz-adv-x="530" >
<g transform="translate(12,582)" ><path fill="black" d="M157 -135 C173.009 -57.6245 192.674 59.1 198 131 L324 131 L330 120 C312.667 24 288.333 -61.6667 259 -135 L157 -135 Z " /></g></glyph>
<glyph glyph-name="quotesinglbase" unicode="&#x201a;" horiz-adv-x="530" >
<path fill="black" d="M157 -135 C173.009 -57.6245 192.674 59.1 198 131 L324 131 L330 120 C312.667 24 288.333 -61.6667 259 -135 L157 -135 Z " /></glyph>
<glyph glyph-name="quotedblleft" unicode="&#x201c;" horiz-adv-x="530" >
<g transform="translate(-109,0)" ><path fill="black" d="M170 447 L164 458 C181.333 556.667 204.333 640.667 235 714 L336 714 C317.295 631.165 301.346 519.164 296 447 L170 447 Z " /></g><g transform="translate(92,0)" ><path fill="black" d="M170 447 L164 458 C181.333 556.667 204.333 640.667 235 714 L336 714 C317.295 631.165 301.346 519.164 296 447 L170 447 Z " /></g></glyph>
<glyph glyph-name="quotedblright" unicode="&#x201d;" horiz-adv-x="530" >
<g transform="translate(-100,582)" ><path fill="black" d="M157 -135 C173.009 -57.6245 192.674 59.1 198 131 L324 131 L330 120 C312.667 24 288.333 -61.6667 259 -135 L157 -135 Z " /></g><g transform="translate(101,582)" ><path fill="black" d="M157 -135 C173.009 -57.6245 192.674 59.1 198 131 L324 131 L330 120 C312.667 24 288.333 -61.6667 259 -135 L157 -135 Z " /></g></glyph>
<glyph glyph-name="quotedblbase" unicode="&#x201e;" horiz-adv-x="530" >
<g transform="translate(-87,0)" ><path fill="black" d="M157 -135 C173.009 -57.6245 192.674 59.1 198 131 L324 131 L330 120 C312.667 24 288.333 -61.6667 259 -135 L157 -135 Z " /></g><g transform="translate(97,0)" ><path fill="black" d="M157 -135 C173.009 -57.6245 192.674 59.1 198 131 L324 131 L330 120 C312.667 24 288.333 -61.6667 259 -135 L157 -135 Z " /></g></glyph>
<glyph glyph-name="dagger" unicode="&#x2020;" horiz-adv-x="530" d="M186 0 L209 473 L60 458 L60 567 L209 552 L186 760 L314 760 L290 552 L440 567 L440 458 L290 473 L314 0 L186 0 Z " />
<glyph glyph-name="daggerdbl" unicode="&#x2021;" horiz-adv-x="530" d="M60 280 L213 267 L194 384 L213 493 L60 480 L60 588 L213 574 L190 760 L316 760 L293 574 L440 588 L440 480 L293 493 L311 384 L293 267 L440 280 L440 172 L293 187 L316 0 L190 0 L213 187 L60 172 L60 280 Z " />
<glyph glyph-name="bullet" unicode="&#x2022;" horiz-adv-x="530" d="M250 208 C159.333 208 108 262.333 108 365 C108 469 158 522 250 522 C342 522 392 466.333 392 365 C392 263.667 339.333 208 250 208 Z " />
<glyph glyph-name="ellipsis" unicode="&#x2026;" horiz-adv-x="530" >
<path fill="black" d="M249 -11 C202.333 -11 174 15.3333 174 70 C174 123.333 203.667 150 249 150 C295.667 150 325 122 325 70 C325 16 299.667 -11 249 -11 Z " /></glyph>
<glyph glyph-name="perthousand" unicode="&#x2030;" horiz-adv-x="530" d="M152 -169 C60 -169 11 -86.3333 11 59 C11 206.333 57.3333 280 150 280 C190 280 222.333 265.667 247 237 C269.667 265.667 301.333 280 342 280 C436.667 280 487 201.333 487 56 C487 -92 436 -169 344 -169 C304.667 -169 273 -154 249 -124 C225 -154 192.667 -169 152 -169 Z M246 455 C154 455 105 537.667 105 683 C105 830.333 151.333 904 244 904 C338.667 904 389 825.333 389 680 C389 532 338 455 246 455 Z M38 375 L448 425 L448 359 L38 309 L38 375 Z M246 536 C283.333 536 301 580 301 680 C301 778.667 282.333 822 245 822 C207.667 822 193 778.333 193 681 C193 581 210 536 246 536 Z M152 -88 C182.667 -88 199.667 -58.6667 205 8 C203.667 24 203 40.3333 203 59 C203 76.3333 203.667 92.3333 205 107 C199 167.667 181 198 151 198 C113.667 198 99 154.333 99 57 C99 -43 116 -88 152 -88 Z M344 -88 C381.333 -88 399 -44 399 56 C399 154.667 380.333 198 343 198 C314.333 198 297.667 167.667 293 107 C294.333 91 295 74.6667 295 56 C295 37.3333 294.333 22 293 6 C297.667 -56.6667 314.667 -88 344 -88 Z " />
<glyph glyph-name="guilsinglleft" unicode="&#x2039;" horiz-adv-x="530" d="M130 266 L130 280 L280 495 L368 448 L265 273 L368 100 L280 52 L130 266 Z " />
<glyph glyph-name="guilsinglright" unicode="&#x203a;" horiz-adv-x="530" d="M262 287 L160 460 L248 508 L398 294 L398 280 L248 65 L160 112 L262 287 Z " />
<glyph glyph-name="fraction" unicode="&#x2044;" horiz-adv-x="530" d="M26 375 L465 425 L465 359 L26 309 L26 375 Z " />
<glyph glyph-name="franc" unicode="&#x20a3;" horiz-adv-x="530" d="M91 118 L26 118 L26 214 L91 214 L91 714 L444 714 L444 593 L224 593 L224 438 L426 438 L426 320 L224 320 L224 214 L367 214 L367 118 L224 118 L224 0 L91 0 L91 118 Z " />
<glyph glyph-name="lira" unicode="&#x20a4;" horiz-adv-x="530" d="M451 114 L451 0 L56 0 L56 108 C111.226 136.928 122.349 167.365 125 231 L54 231 L54 314 L126 314 L126 383 L54 383 L54 466 L126 466 L126 521 C126 655.667 190 724 310 724 C360.667 724 407.333 710.333 450 683 L413 580 C378.333 600 351.333 610 322 610 C272.667 610 253 586 253 522 L253 466 L379 466 L379 383 L253 383 L253 314 L379 314 L379 231 L250 231 C246 169.667 227.667 138 189 114 L451 114 Z " />
<glyph glyph-name="peseta" unicode="&#x20a7;" horiz-adv-x="530" d="M16 714 L182 714 C324.667 714 392 640.667 392 510 C392 479.333 388.667 452.667 382 430 L410 430 L410 322 L500 322 L500 239 L410 239 L410 149 C410 107.667 420.333 87 451 87 C465.667 87 486.667 92 500 100 L500 15 C481.333 3 458.667 -5 424 -5 C343.333 -5 303 39.3333 303 128 L303 239 L248 239 L248 298 L306 323 L308 329 C273.333 307.667 228.333 296 171 296 L143 296 L143 0 L16 0 L16 714 Z M163 409 C229.667 409 264 435 264 507 C264 569.667 234.667 601 176 601 L143 601 L143 409 L163 409 Z " />
<glyph glyph-name="Euro" unicode="&#x20ac;" horiz-adv-x="530" d="M34 316 L96 316 C94.6667 328 95 339 95 351 C95 361.667 94.6667 372.333 96 383 L34 383 L34 460 L101 460 C116.886 610.913 182.326 724 315 724 C364.333 724 415.667 709.667 465 679 L425 570 C388.333 596.667 354 610 322 610 C254.283 610 233.004 545.377 225 460 L367 460 L367 383 L222 383 C220.667 372.333 221 361.667 221 351 C221 339 220.667 328 222 316 L345 316 L345 239 L227 239 C237.667 144.333 267.667 105 329 105 C367.667 105 403.667 120.333 449 143 L449 24 C406.333 0 357.667 -10 315 -10 C178.847 -10 118.098 99.4823 102 239 L34 239 L34 316 Z " />
<glyph glyph-name="uni2113" unicode="&#x2113;" horiz-adv-x="530" d="M126 252 C107.333 245.333 83 238.333 55 229 L55 323 C79 329.667 103.333 338 126 346 L126 539 C126 661.667 178.333 723 283 723 C377.667 723 431 661 431 549 C431 427.667 369.667 341.333 247 292 L247 180 C247 113.333 261.333 86 296 86 C332 86 346 122.667 346 188 L444 188 C444 46.6667 390.333 -8 277 -8 C179.667 -8 126 62.6667 126 188 L126 252 Z M247 389 C298.333 418.333 324 471.333 324 548 C324 605.333 309 630 285 630 C258.333 630 247 611 247 555 L247 389 Z " />
<glyph glyph-name="trademark" unicode="&#x2122;" horiz-adv-x="530" d="M221 368 L221 714 L315 714 L359 568 L405 714 L497 714 L497 368 L431 368 L431 561 C431 579.667 431.667 603.667 433 621 L430 621 L381 481 L335 481 L288 622 L285 622 C286.333 603.333 287 579 287 563 L287 368 L221 368 Z M65 368 L65 649 L-3 649 L-3 714 L199 714 L199 649 L135 649 L135 368 L65 368 Z " />
<glyph glyph-name="Omega" unicode="&#x2126;" horiz-adv-x="530" >
<path fill="black" d="M10 114 L125 114 C69.8883 166.487 19 257.064 19 412 C19 613.333 103.333 725 250 725 C392.667 725 480 617.667 480 407 C480 261.667 439.667 168.667 373 114 L490 114 L490 0 L276 0 L276 121 C332 175.667 355 256.667 355 390 C355 535.333 323 612 251 612 C180.333 612 145 537.667 145 389 C145 257 170 174.333 222 121 L222 0 L10 0 L10 114 Z " /></glyph>
<glyph glyph-name="estimated" unicode="&#x212e;" horiz-adv-x="530" d="M115 83 C141.667 52.3333 187.667 25 253 25 C346.333 25 400.667 75.3333 442 142 L478 119 C429.597 43.7065 371.434 -17 254 -17 C86.0519 -17 0 110.896 0 263 C0 450.636 131.281 535 254 535 C388.978 535 500 429.563 500 259 L115 259 L115 83 Z M115 301 L387 301 L387 436 C364.333 462.667 314 494 254 494 C190 494 145.667 469 115 437 L115 301 Z " />
<glyph glyph-name="uni2219" unicode="&#x2219;" horiz-adv-x="500" >
<g transform="translate(0,269)" ><path fill="black" d="M250 -11 C203.333 -11 174 17 174 69 C174 123 199.333 150 250 150 C296.667 150 325 123.667 325 69 C325 15.6667 295.333 -11 250 -11 Z " /></g></glyph>
<glyph glyph-name="radical" unicode="&#x221a;" horiz-adv-x="530" d="M184 -7 L102 354 L18 354 L18 457 L182 457 L241 170 L388 848 L501 848 L302 -7 L184 -7 Z " />
<glyph glyph-name="infinity" unicode="&#x221e;" horiz-adv-x="530" d="M143 189 C64.0216 189 5 254.494 5 354 C5 442.052 51.7706 516 137 516 C186.333 516 216.667 493 250 437 C275.333 479.667 309.667 514 363 514 C439.364 514 495 445.589 495 355 C495 260.723 437.61 186 362 186 C311.333 186 274.667 221.333 248 264 C216 212 189.667 189 143 189 Z M352 283 C378.667 283 396 313.667 396 351 C396 389.667 377.667 417 351 417 C329.667 417 319.667 397 293 349 C311.667 311.667 325.333 283 352 283 Z M150 286 C176.667 286 189.667 309.333 207 348 C189.667 389.333 175 420 147 420 C120.333 420 104 390.667 104 352 C104 317.333 118 286 150 286 Z " />
<glyph glyph-name="approxequal" unicode="&#x2248;" horiz-adv-x="530" >
<g transform="translate(0,-111)" ><path fill="black" d="M456 324 C426 290 390 273 348 273 C308 273 274.667 283 236 303 C201.333 321 170 330 142 330 C110.667 330 78 310.333 44 271 L44 381 C73.3333 415.667 109 433 151 433 C192.333 433 224.333 420.667 263 402 C300.333 383.333 328.667 375 358 375 C388.667 375 425.333 398 456 434 L456 324 Z " /></g><g transform="translate(0,108)" ><path fill="black" d="M456 324 C426 290 390 273 348 273 C308 273 274.667 283 236 303 C201.333 321 170 330 142 330 C110.667 330 78 310.333 44 271 L44 381 C73.3333 415.667 109 433 151 433 C192.333 433 224.333 420.667 263 402 C300.333 383.333 328.667 375 358 375 C388.667 375 425.333 398 456 434 L456 324 Z " /></g></glyph>
<glyph glyph-name="lessequal" unicode="&#x2264;" horiz-adv-x="530" d="M46 366 L46 433 L453 636 L453 521 L191 399 L453 276 L453 162 L46 366 Z M46 0 L46 102 L450 102 L450 0 L46 0 Z " />
<glyph glyph-name="greaterequal" unicode="&#x2265;" horiz-adv-x="530" d="M46 276 L308 399 L46 521 L46 636 L453 433 L453 366 L46 162 L46 276 Z M49 102 L453 102 L453 0 L49 0 L49 102 Z " />
</font>
</svg>
