<?xml version="1.0" encoding="UTF-8"?>
<svg xmlns="http://www.w3.org/2000/svg" xmlns:xlink="http://www.w3.org/1999/xlink" version="1.1" >
<font id="Monoto-44Cd500Md" horiz-adv-x="436">
<font-face  font-family="Monoto 44 Cd" units-per-em="1000" ascent="955" descent="-235" font-style="normal" font-weight="500" font-stretch="condensed" cap-height="714" x-height="542" underline-position="-75" underline-thickness="50" />
<missing-glyph horiz-adv-x="440" d="M39 0 L39 714 L372 714 L372 0 L39 0 Z M331 51 L331 663 L80 663 L80 51 L331 51 Z " />
<glyph glyph-name="uni0000" horiz-adv-x="440" />
<glyph glyph-name="uni000D" unicode="&#xd;" horiz-adv-x="440" />
<glyph glyph-name="space" unicode="&#x20;" horiz-adv-x="440" />
<glyph glyph-name="exclam" unicode="&#x21;" horiz-adv-x="440" d="M171 209 L154 714 L262 714 L246 209 L171 209 Z M209 -12 C174.333 -12 151 11.3333 151 58 C151 104.667 173 127 209 127 C242.333 127 265 106 265 58 C265 11.3333 241 -12 209 -12 Z " />
<glyph glyph-name="quotedbl" unicode="&#x22;" horiz-adv-x="440" >
<g transform="translate(-78,0)" ><path fill="black" d="M171 456 L155 714 L256 714 L240 456 L171 456 Z " /></g><g transform="translate(77,0)" ><path fill="black" d="M171 456 L155 714 L256 714 L240 456 L171 456 Z " /></g></glyph>
<glyph glyph-name="numbersign" unicode="&#x23;" horiz-adv-x="440" d="M69 0 L90 213 L25 213 L25 284 L99 284 L113 443 L43 443 L43 514 L122 514 L142 714 L207 714 L186 514 L256 514 L275 714 L340 714 L319 514 L385 514 L385 443 L311 443 L297 284 L367 284 L367 213 L289 213 L267 0 L202 0 L223 213 L154 213 L134 0 L69 0 Z M232 284 L247 443 L177 443 L164 284 L232 284 Z " />
<glyph glyph-name="dollar" unicode="&#x24;" horiz-adv-x="440" d="M63 158 C96.3333 134 142.667 113.667 188 111 L188 332 C94.6667 376 56 426.667 56 520 C56 616 108 675.333 188 686 L188 760 L233 760 L233 688 C274.333 684.667 312.667 672.333 348 651 L326 579 C299.333 596.333 268.333 607 233 611 L233 396 C321.028 353.32 364 306.274 364 215 C364 123 317 57 233 41 L233 -58 L188 -58 L188 37 C141.333 38.3333 96.3333 51 63 71 L63 158 Z M233 117 C273 127.667 292 162.333 292 209 C292 258.333 274.333 284.667 233 310 L233 117 Z M129 520 C129 468 144 444.667 188 418 L188 610 C148 602 129 568 129 520 Z " />
<glyph glyph-name="percent" unicode="&#x25;" horiz-adv-x="440" d="M9 168 L323 545 L400 545 L86 168 L9 168 Z M295 -9 C228.333 -9 184 53 184 161 C184 269 225.333 330 296 330 C364 330 408 269 408 161 C408 53 365.667 -9 295 -9 Z M113 383 C46.3333 383 2 445 2 553 C2 661 43.3333 722 114 722 C182 722 226 661 226 553 C226 445 183.667 383 113 383 Z M296 52 C324 52 338 88.3333 338 161 C338 234.333 326.667 269 296 269 C265.333 269 254 234.333 254 161 C254 88.3333 268 52 296 52 Z M114 444 C142 444 156 480.333 156 553 C156 626.333 144.667 661 114 661 C83.3333 661 72 626.333 72 553 C72 480.333 86 444 114 444 Z " />
<glyph glyph-name="ampersand" unicode="&#x26;" horiz-adv-x="440" d="M311 0 L287 49 C256.333 11.6667 215.667 -10 165 -10 C69.0779 -10 30 69.2814 30 168 C30 262.667 70.6667 323.667 124 385 C94.6667 447.667 72 509 72 577 C72 667.667 112.333 724 183 724 C255 724 290 666.333 290 577 C290 494.333 254.667 428.667 212 374 L290 217 C302 259.667 309.333 307.333 312 346 L386 346 C379.333 271.333 364.333 191.667 335 125 L397 0 L311 0 Z M160 311 C130.667 272.333 109 230 109 170 C109 104.667 134.333 69 173 69 C203.667 69 229.667 90.6667 251 124 L160 311 Z M177 447 C199.667 477.667 220 519 220 579 C220 627.667 207.667 652 183 652 C160.333 652 145 625.667 145 579 C145 531 161 484.333 177 447 Z " />
<glyph glyph-name="quotesingle" unicode="&#x27;" horiz-adv-x="440" d="M171 456 L155 714 L256 714 L240 456 L171 456 Z " />
<glyph glyph-name="parenleft" unicode="&#x28;" horiz-adv-x="440" d="M238 -166 C164.667 -51.3333 125 98 125 270 C125 444.667 167.333 598 238 714 L317 714 C247.667 583.333 213 432.333 213 271 C213 111 249.333 -39.3333 316 -166 L238 -166 Z " />
<glyph glyph-name="parenright" unicode="&#x29;" horiz-adv-x="440" d="M84 -166 C153.333 -35.3333 188 115.667 188 277 C188 437 151.667 587.333 85 714 L163 714 C236.333 599.333 276 450 276 278 C276 103.333 233.667 -50 163 -166 L84 -166 Z " />
<glyph glyph-name="asterisk" unicode="&#x2a;" horiz-adv-x="440" d="M156 567 L58 579 L76 665 L175 626 L161 761 L249 761 L235 626 L334 666 L352 579 L253 567 L325 455 L254 406 L205 532 L155 406 L85 455 L156 567 Z " />
<glyph glyph-name="plus" unicode="&#x2b;" horiz-adv-x="440" d="M168 118 L168 314 L49 314 L49 392 L168 392 L168 589 L243 589 L243 392 L362 392 L362 314 L243 314 L243 118 L168 118 Z " />
<glyph glyph-name="comma" unicode="&#x2c;" horiz-adv-x="440" d="M127 -132 C140.335 -51.9879 156.595 48.026 162 121 L255 121 L261 110 C246.333 26 223 -60 199 -132 L127 -132 Z " />
<glyph glyph-name="hyphen" unicode="&#x2d;" horiz-adv-x="440" d="M103 316 L307 316 L307 226 L103 226 L103 316 Z " />
<glyph glyph-name="period" unicode="&#x2e;" horiz-adv-x="440" d="M206 -12 C171.333 -12 148 11.3333 148 58 C148 104.667 170 127 206 127 C239.333 127 262 106 262 58 C262 11.3333 238 -12 206 -12 Z " />
<glyph glyph-name="slash" unicode="&#x2f;" horiz-adv-x="440" d="M21 -4 L238 718 L319 718 L102 -4 L21 -4 Z " />
<glyph glyph-name="zero" unicode="0" horiz-adv-x="440" d="M204 -10 C77.3333 -10 23 124.667 23 358 C23 592.667 74.6667 725 204 725 C330.667 725 387 591.333 387 358 C387 131.437 342.589 -10 204 -10 Z M138 140 C152.667 97.3333 174.667 76 204 76 C272 76 295 167.333 295 358 C295 398 294 433.333 292 464 L138 140 Z M271 585 C256.333 621 234 639 204 639 C140 639 115 544.667 115 358 C115 322.667 116 290.333 118 261 L271 585 Z " />
<glyph glyph-name="one" unicode="1" horiz-adv-x="440" d="M70 71 L176 82 L176 437 C176 489.771 176.3 561.801 179 605 C164.333 589 153.333 579.667 136 565 L85 522 L40 598 L192 714 L272 714 L272 82 L368 71 L368 0 L70 0 L70 71 Z " />
<glyph glyph-name="two" unicode="2" horiz-adv-x="440" d="M42 83 L154 271 C212.82 372.598 254 435.719 254 524 C254 597.333 229.667 636 187 636 C148.333 636 113.667 607.667 83 569 L33 637 C79.6667 693 129 724 197 724 C291.667 724 352 652.333 352 531 C352 424.542 306.55 350.128 240 233 L162 97 L162 92 L366 92 L366 0 L42 0 L42 83 Z " />
<glyph glyph-name="three" unicode="3" horiz-adv-x="440" d="M40 124 C78.6667 93.3333 123.333 78 166 78 C232.667 78 262 125 262 205 C262 290.333 227.667 326 149 326 L112 326 L112 411 L150 411 C220.667 411 253 461 253 537 C253 601 231 637 183 637 C149.667 637 116.667 620.667 84 588 L44 660 C82.6667 701.333 134.333 724 193 724 C294.333 724 352 654.333 352 545 C352 457 318 394.667 250 376 L250 373 C327.333 357 366 299.667 366 201 C366 75.5368 297.182 -10 169 -10 C127.667 -10 82.6667 -0.333333 40 29 L40 124 Z " />
<glyph glyph-name="four" unicode="4" horiz-adv-x="440" d="M28 243 L217 717 L317 717 L317 246 L382 246 L382 157 L317 157 L317 0 L225 0 L225 157 L28 157 L28 243 Z M225 246 L225 409 C225 467.23 226.361 551.134 229 596 L226 596 C219.333 561.333 204.667 515.333 194 486 L112 246 L225 246 Z " />
<glyph glyph-name="five" unicode="5" horiz-adv-x="440" d="M48 124 C84 96 129.667 78 167 78 C227.667 78 258 126 258 222 C258 310 224.667 357 166 357 C143.333 357 115 349.667 95 343 L58 372 L75 714 L327 714 L327 622 L160 622 L151 434 C172.333 439.333 190.667 444 208 444 C296 444 360 369 360 229 C360 79.6667 295 -10 171 -10 C122.333 -10 81.3333 3 48 29 L48 124 Z " />
<glyph glyph-name="six" unicode="6" horiz-adv-x="440" d="M135 368 C156.333 417.333 186.333 453 237 453 C318.333 453 369 372.333 369 231 C369 84.3593 308.693 -10 210 -10 C108.667 -10 40 93 40 309 C40 529.39 94.9177 724 270 724 C292.667 724 317.333 721.667 336 715 L336 629 C317.333 636.333 297.333 640 276 640 C171.054 640 136.337 525.428 131 368 L135 368 Z M210 76 C248.667 76 275 126.333 275 229 C275 319.667 253.667 370 211 370 C168.385 370 137 314.104 137 242 C137 167.281 158.39 76 210 76 Z " />
<glyph glyph-name="seven" unicode="7" horiz-adv-x="440" d="M91 0 L267 621 L38 621 L38 714 L370 714 L370 636 L196 0 L91 0 Z " />
<glyph glyph-name="eight" unicode="8" horiz-adv-x="440" d="M201 -10 C105 -10 40 55 40 183 C40 276.333 70.6667 334 132 374 C81.3333 415.333 55 471.333 55 550 C55 668.225 121.416 725 205 725 C291.667 725 354 668.333 354 551 C354 468.333 325.667 415.333 271 378 C335 331.333 369 276.333 369 187 C369 65.6667 303.667 -10 201 -10 Z M204 74 C253.333 74 278 116 278 188 C278 249.403 258.737 282.943 200 331 C153.333 293.667 132 249.333 132 184 C132 116 154.667 74 204 74 Z M205 422 C243.667 451.333 263 487.333 263 546 C263 610 239.667 641 205 641 C170.333 641 147 608.667 147 546 C147 483.333 170.333 452.667 205 422 Z " />
<glyph glyph-name="nine" unicode="9" horiz-adv-x="440" d="M72 86 C90 78 109.667 74 131 74 C227.818 74 273.316 190.354 276 346 L272 346 C249.333 294 219 262 171 262 C88.3333 262 39 340.667 39 482 C39 631.333 98 724 198 724 C302 724 367 618.667 367 408 C367 193.749 310.281 -10 137 -10 C114.333 -10 90.6667 -7.66667 72 -1 L72 86 Z M196 344 C236 344 271 393.333 271 476 C271 549.022 249.563 638 199 638 C157.667 638 132 585 132 485 C132 394.333 154.667 344 196 344 Z " />
<glyph glyph-name="colon" unicode="&#x3a;" horiz-adv-x="440" >
<path fill="black" d="M206 -12 C171.333 -12 148 11.3333 148 58 C148 104.667 170 127 206 127 C239.333 127 262 106 262 58 C262 11.3333 238 -12 206 -12 Z " /><g transform="translate(0,420)" ><path fill="black" d="M206 -12 C171.333 -12 148 11.3333 148 58 C148 104.667 170 127 206 127 C239.333 127 262 106 262 58 C262 11.3333 238 -12 206 -12 Z " /></g></glyph>
<glyph glyph-name="semicolon" unicode="&#x3b;" horiz-adv-x="440" >
<g transform="translate(-2,0)" ><path fill="black" d="M127 -132 C140.335 -51.9879 156.595 48.026 162 121 L255 121 L261 110 C246.333 26 223 -60 199 -132 L127 -132 Z " /></g><g transform="translate(-2,420)" ><path fill="black" d="M206 -12 C171.333 -12 148 11.3333 148 58 C148 104.667 170 127 206 127 C239.333 127 262 106 262 58 C262 11.3333 238 -12 206 -12 Z " /></g></glyph>
<glyph glyph-name="less" unicode="&#x3c;" horiz-adv-x="440" d="M38 331 L38 384 L353 583 L353 495 L140 357 L353 217 L353 129 L38 331 Z " />
<glyph glyph-name="equal" unicode="&#x3d;" horiz-adv-x="440" d="M43 291 L367 291 L367 203 L43 203 L43 291 Z M43 499 L367 499 L367 411 L43 411 L43 499 Z " />
<glyph glyph-name="greater" unicode="&#x3e;" horiz-adv-x="440" d="M47 217 L260 357 L47 495 L47 583 L362 384 L362 331 L47 129 L47 217 Z " />
<glyph glyph-name="question" unicode="&#x3f;" horiz-adv-x="440" d="M147 209 L147 239 C147 311 160.667 352.333 202 403 C246.308 460.34 259 491.151 259 547 C259 607.667 237.333 638 194 638 C155.333 638 125.667 622 91 598 L60 674 C102.667 706 149.333 724 200 724 C297.333 724 349 662 349 554 C349 466.21 321.531 422.828 271 359 C228.91 306.388 222 280.088 222 230 L222 209 L147 209 Z M187 -12 C152.333 -12 129 11.3333 129 58 C129 104.667 151 127 187 127 C220.333 127 243 106 243 58 C243 11.3333 219 -12 187 -12 Z " />
<glyph glyph-name="at" unicode="&#x40;" horiz-adv-x="440" d="M337 -47 C298.333 -74.3333 258.667 -88 218 -88 C71.4372 -88 2 54.6667 2 292 C2 556.156 84.6667 714 218 714 C338.156 714 408 580.416 408 360 C408 229.333 381.996 108 317 108 C287.667 108 267 136 259 180 L257 181 C243.667 134.333 217.667 108 187 108 C132.333 108 98 179.667 98 297 C98 433.104 151.745 521 229 521 C259.667 521 291 510 311 498 L303 297 C301.667 283.667 302 266.667 302 256 C302 196.667 308 167 320 167 C341.333 167 349 237.667 349 359 C349 544.333 303.333 652 218 652 C120.667 652 62 520.333 62 295 C62 96.697 107.9 -25 221 -25 C259 -25 297.667 -11.6667 337 15 L337 -47 Z M245 453 C239 459 232.667 462 226 462 C188.667 462 165 399 165 295 C165 212.333 178 167 202 167 C226 167 234.667 216 240 328 L245 453 Z " />
<glyph glyph-name="A" unicode="A" horiz-adv-x="440" d="M140 714 L268 714 L396 0 L304 0 L270 212 L140 212 L108 0 L14 0 L140 714 Z M257 298 L222 516 C216.667 554.667 208 601.333 204 636 C200 601.333 192.667 553.333 186 516 L153 298 L257 298 Z " />
<glyph glyph-name="B" unicode="B" horiz-adv-x="440" d="M48 0 L48 714 L187 714 C300.333 714 364 661.333 364 540 C364 452 333.333 393.667 280 379 L280 374 C340 355.333 377 307 377 207 C377 75 310 0 202 0 L48 0 Z M136 86 L192 86 C258.667 86 287 130.333 287 209 C287 289 257.667 331 187 331 L136 331 L136 86 Z M136 414 L182 414 C244 414 275 450.333 275 523 C275 596.333 243.333 628 178 628 L136 628 L136 414 Z " />
<glyph glyph-name="C" unicode="C" horiz-adv-x="440" d="M371 19 C335 -0.333333 294 -10 248 -10 C106.823 -10 30 127.333 30 354 C30 568.407 110.922 726 255 726 C309.667 726 351 711.667 391 685 L359 603 C330.333 626.333 298.333 638 263 638 C169.615 638 125 517.126 125 356 C125 184 171 78 263 78 C301.667 78 336.333 90.3333 371 109 L371 19 Z " />
<glyph glyph-name="D" unicode="D" horiz-adv-x="440" d="M31 0 L31 714 L193 714 C319.667 714 392 591 392 367 C392 127 314.333 0 185 0 L31 0 Z M124 90 L177 90 C259.667 90 296 184.333 296 363 C296 547 260.667 624 178 624 L124 624 L124 90 Z " />
<glyph glyph-name="E" unicode="E" horiz-adv-x="440" d="M368 90 L368 0 L47 0 L47 714 L368 714 L368 624 L141 624 L141 413 L354 413 L354 323 L141 323 L141 90 L368 90 Z " />
<glyph glyph-name="F" unicode="F" horiz-adv-x="440" d="M47 0 L47 714 L368 714 L368 624 L141 624 L141 387 L356 387 L356 297 L141 297 L141 0 L47 0 Z " />
<glyph glyph-name="G" unicode="G" horiz-adv-x="440" d="M288 295 L222 295 L222 385 L377 385 L377 27 C329 1.66667 287.667 -10 237 -10 C84.1082 -10 18 138 18 354 C18 577.134 96.3593 726 243 726 C296.333 726 341.667 710 379 682 L348 601 C313.333 627.667 286.667 638 248 638 C158.667 638 112 536.667 112 354 C112 199.229 148.978 78 230 78 C252.667 78 269.333 83 288 91 L288 295 Z " />
<glyph glyph-name="H" unicode="H" horiz-adv-x="440" d="M31 0 L31 714 L125 714 L125 414 L286 414 L286 714 L379 714 L379 0 L286 0 L286 324 L125 324 L125 0 L31 0 Z " />
<glyph glyph-name="I" unicode="I" horiz-adv-x="440" d="M54 70 L159 81 L159 633 L54 644 L54 714 L356 714 L356 644 L251 633 L251 81 L356 70 L356 0 L54 0 L54 70 Z " />
<glyph glyph-name="J" unicode="J" horiz-adv-x="440" d="M39 104 C69.6667 85.3333 103.667 77 129 77 C198.333 77 241 130.333 241 233 L241 714 L333 714 L333 213 C333 82.3074 266.026 -10 138 -10 C100.667 -10 67.6667 -1 39 17 L39 104 Z " />
<glyph glyph-name="K" unicode="K" horiz-adv-x="440" d="M32 0 L32 714 L122 714 L122 358 C139.333 391.333 158.333 427.333 181 474 L288 714 L390 714 L237 394 L394 0 L291 0 L171 322 L122 256 L122 0 L32 0 Z " />
<glyph glyph-name="L" unicode="L" horiz-adv-x="440" d="M368 92 L368 0 L56 0 L56 714 L149 714 L149 92 L368 92 Z " />
<glyph glyph-name="M" unicode="M" horiz-adv-x="440" d="M21 0 L21 714 L145 714 L204 289 L207 289 L265 714 L389 714 L389 0 L310 0 L311 351 C311 427.632 322.316 572.582 325 637 L320 637 L248 197 L160 197 L91 638 L85 638 C90.2314 585.686 100 433.422 100 349 L101 0 L21 0 Z " />
<glyph glyph-name="N" unicode="N" horiz-adv-x="440" d="M33 0 L33 714 L157 714 L302 96 L306 96 C303.391 132.524 296 220.676 296 285 L296 714 L378 714 L378 0 L257 0 L108 622 L103 622 C107 551.333 113 489.667 113 415 L113 0 L33 0 Z " />
<glyph glyph-name="O" unicode="O" horiz-adv-x="440" d="M205 -9 C69.0779 -9 18 149.407 18 359 C18 595 74.6667 726 204 726 C339.03 726 392 571.333 392 358 C392 146.338 340.922 -9 205 -9 Z M206 79 C271.333 79 297 176.667 297 358 C297 540.667 270.333 637 205 637 C137 637 112 536.667 112 358 C112 179.333 140.667 79 206 79 Z " />
<glyph glyph-name="P" unicode="P" horiz-adv-x="440" d="M48 0 L48 714 L204 714 C324 714 377 638.333 377 501 C377 367.693 328.589 272 198 272 L138 272 L138 0 L48 0 Z M138 359 L189 359 C258.333 359 287 396 287 496 C287 586.667 259.667 628 201 628 L138 628 L138 359 Z " />
<glyph glyph-name="Q" unicode="Q" horiz-adv-x="440" d="M234 -6 C225.333 -8 215.667 -9 205 -9 C69.0779 -9 18 149.407 18 359 C18 595 74.6667 726 204 726 C339.03 726 392 571.333 392 358 C392 212.667 368.333 96 311 36 L388 -180 L290 -180 L234 -6 Z M206 79 C271.333 79 297 176.667 297 358 C297 540.667 270.333 637 205 637 C137 637 112 536.667 112 358 C112 179.333 140.667 79 206 79 Z " />
<glyph glyph-name="R" unicode="R" horiz-adv-x="440" d="M48 0 L48 714 L183 714 C304.333 714 365 646 365 510 C365 402 333 343.333 281 314 L396 0 L296 0 L201 288 L138 288 L138 0 L48 0 Z M138 374 L181 374 C242.333 374 273 417.667 273 505 C273 593 244 628 180 628 L138 628 L138 374 Z " />
<glyph glyph-name="S" unicode="S" horiz-adv-x="440" d="M46 120 C88.6667 93.3333 132.667 78 178 78 C249.818 78 273 129.234 273 189 C273 258.541 237.773 284.265 171 327 C102.63 374.333 46 424.641 46 536 C46 664 113 726 217 726 C265 726 312.333 712.333 359 685 L329 601 C291.667 625.667 255.667 638 221 638 C162.333 638 140 599 140 539 C140 472.278 172.66 445.004 234 405 C316.53 349.093 367 311.137 367 195 C367 59 295.667 -10 181 -10 C134.333 -10 84.6667 2 46 26 L46 120 Z " />
<glyph glyph-name="T" unicode="T" horiz-adv-x="440" d="M158 0 L158 624 L24 624 L24 714 L387 714 L387 624 L251 624 L251 0 L158 0 Z " />
<glyph glyph-name="U" unicode="U" horiz-adv-x="440" d="M31 714 L125 714 L125 239 C125 124.333 147.667 78 205 78 C265 78 285 125.333 285 240 L285 714 L379 714 L379 234 C379 66 327.333 -10 206 -10 C84.6667 -10 31 67.3333 31 234 L31 714 Z " />
<glyph glyph-name="V" unicode="V" horiz-adv-x="440" d="M205 92 C210.333 138.667 218.333 203.667 229 261 L307 714 L400 714 L257 0 L151 0 L11 714 L102 714 L179 259 C189.667 204.333 198.667 138.667 204 92 L205 92 Z " />
<glyph glyph-name="W" unicode="W" horiz-adv-x="440" d="M116 91 L139 309 L163 539 L247 539 L274 307 C281.991 240.409 293.277 140.015 296 91 L300 91 C300 154.901 305.34 341.796 308 395 L320 714 L400 714 L362 0 L252 0 L221 298 C214.333 355.333 211 396.333 207 431 L204 431 C201.333 396.333 197.667 355.667 191 297 L160 0 L51 0 L11 714 L86 714 L101 394 C103.652 335.665 113 154.668 113 91 L116 91 Z " />
<glyph glyph-name="X" unicode="X" horiz-adv-x="440" d="M14 0 L149 371 L22 714 L121 714 L205 451 L288 714 L387 714 L257 368 L397 0 L296 0 L201 289 L111 0 L14 0 Z " />
<glyph glyph-name="Y" unicode="Y" horiz-adv-x="440" d="M158 0 L158 274 L12 714 L114 714 L205 371 L296 714 L397 714 L249 274 L249 0 L158 0 Z " />
<glyph glyph-name="Z" unicode="Z" horiz-adv-x="440" d="M47 78 L265 624 L54 624 L54 714 L366 714 L366 636 L152 90 L369 90 L369 0 L47 0 L47 78 Z " />
<glyph glyph-name="bracketleft" unicode="&#x5b;" horiz-adv-x="440" d="M324 -86 L324 -162 L144 -162 L144 722 L324 722 L324 646 L229 646 L229 -86 L324 -86 Z " />
<glyph glyph-name="backslash" unicode="&#x5c;" horiz-adv-x="440" d="M271 -4 L54 718 L135 718 L352 -4 L271 -4 Z " />
<glyph glyph-name="bracketright" unicode="&#x5d;" horiz-adv-x="440" d="M86 -90 L181 -90 L181 642 L86 642 L86 718 L266 718 L266 -166 L86 -166 L86 -90 Z " />
<glyph glyph-name="asciicircum" unicode="&#x5e;" horiz-adv-x="440" d="M27 315 L179 713 L228 713 L382 315 L297 315 L204 593 L113 315 L27 315 Z " />
<glyph glyph-name="underscore" unicode="&#x5f;" horiz-adv-x="440" d="M2 -77 L408 -77 L408 -165 L2 -165 L2 -77 Z " />
<glyph glyph-name="grave" unicode="&#x60;" horiz-adv-x="440" d="M86 766 L188 766 C204.306 719.799 237.183 654.634 256 617 L256 606 L195 606 C165.788 640.524 106.978 715.043 86 757 L86 766 Z " />
<glyph glyph-name="a" unicode="a" horiz-adv-x="440" d="M280 76 C249.333 21.3333 214.333 -10 165 -10 C93 -10 43 45.3333 43 152 C43 268 99 321 203 325 L278 328 L278 358 C278 436.667 245.333 464 200 464 C162.667 464 128.667 448.667 98 426 L66 502 C110 532.667 154 550 210 550 C311.333 550 368 493.333 368 368 L368 0 L298 0 L282 76 L280 76 Z M278 259 L228 256 C166 252 135 219.333 135 158 C135 99.3333 162.333 76 193 76 C235.667 76 278 120.667 278 214 L278 259 Z " />
<glyph glyph-name="b" unicode="b" horiz-adv-x="440" d="M42 760 L133 760 L133 572 C133 536 131.667 503 129 467 L133 467 C157 517.667 193 550 241 550 C333 550 383 448.333 383 271 C383 88.3333 325.667 -10 239 -10 C196.333 -10 161 17.6667 133 67 L126 67 L113 0 L42 0 L42 760 Z M210 76 C262 76 287 143.333 287 270 C287 399.333 260.667 464 208 464 C157.333 464 132 400.667 132 274 C132 142 158 76 210 76 Z " />
<glyph glyph-name="c" unicode="c" horiz-adv-x="440" d="M359 21 C325 0.333333 287 -10 245 -10 C131.381 -10 50 73.4329 50 267 C50 460.333 122 550 246 550 C291.333 550 332.667 539.333 370 518 L340 437 C313.333 455 284.667 464 254 464 C182 464 146 398.667 146 268 C146 134.667 186 76 254 76 C289.333 76 324.333 88 359 112 L359 21 Z " />
<glyph glyph-name="d" unicode="d" horiz-adv-x="440" d="M283 74 L279 74 C257.667 26 223.667 -10 173 -10 C81 -10 27 89.3333 27 268 C27 450.667 82 550 174 550 C220.667 550 255.333 517 278 469 L283 469 C280.333 497 277 529 277 557 L277 760 L368 760 L368 0 L295 0 L283 74 Z M279 270 C279 398 262.333 464 205 464 C145 464 122 396.333 122 263 C122 137.667 143.333 76 202 76 C258 76 279 138 279 250 L279 270 Z " />
<glyph glyph-name="e" unicode="e" horiz-adv-x="440" d="M359 27 C321.667 3 284.333 -10 231 -10 C105.667 -10 30 87.3333 30 266 C30 441.134 95.3333 550 210 550 C315.333 550 378 456.333 378 303 L378 243 L125 243 C127.667 129.667 168.667 76 238 76 C286 76 323 90.6667 359 116 L359 27 Z M288 321 C286.667 409 259.667 465 209 465 C158.333 465 130 414.333 126 321 L288 321 Z " />
<glyph glyph-name="f" unicode="f" horiz-adv-x="440" d="M140 0 L140 455 L35 455 L35 518 L140 542 L140 586 C140 719.333 187 765 279 765 C315 765 349.333 758.667 382 746 L358 666 C336.667 675.333 315.667 680 295 680 C255 680 233 659 233 583 L233 539 L364 539 L364 455 L233 455 L233 0 L140 0 Z " />
<glyph glyph-name="g" unicode="g" horiz-adv-x="440" d="M55 -118 C97.6667 -144.667 146.333 -159 181 -159 C245 -159 276 -107 276 -19 L276 6 C276 24.6667 276.333 56 279 72 L275 72 C249.667 14.6667 215 -9 175 -9 C81.6667 -9 27 92.3333 27 267 C27 441.225 82.3377 550 174 550 C216 550 250.667 522.667 278 468 L283 468 L291 539 L368 539 L368 -7 C368 -164.333 309.333 -245 184 -245 C138 -245 95 -233 55 -209 L55 -118 Z M280 271 C280 405.667 257.667 464 207 464 C149.667 464 125 393.667 125 267 C125 141.667 149.667 76 207 76 C255 76 280 129 280 249 L280 271 Z " />
<glyph glyph-name="h" unicode="h" horiz-adv-x="440" d="M42 0 L42 760 L134 760 L134 551 C134 522.333 132 494 128 466 L134 466 C155.333 516.667 187.667 550 241 550 C319.667 550 373 487.667 373 353 L373 0 L280 0 L280 328 C280 416 263.667 463 213 463 C155.667 463 134 397.333 134 280 L134 0 L42 0 Z " />
<glyph glyph-name="i" unicode="i" horiz-adv-x="440" >
<path fill="black" d="M50 70 L166 82 L166 455 L61 467 L61 539 L257 539 L257 82 L359 70 L359 0 L50 0 L50 70 Z " /><g transform="translate(4,640)" ><path fill="black" d="M206 -12 C171.333 -12 148 11.3333 148 58 C148 104.667 170 127 206 127 C239.333 127 262 106 262 58 C262 11.3333 238 -12 206 -12 Z " /></g></glyph>
<glyph glyph-name="j" unicode="j" horiz-adv-x="440" >
<path fill="black" d="M32 -140 C62.6667 -150.667 103.333 -159 126 -159 C173.333 -159 197 -124 197 -54 L197 454 L65 467 L65 539 L290 539 L290 -58 C290 -186 241.333 -245 136 -245 C104 -245 62.6667 -237.667 32 -227 L32 -140 Z " /><g transform="translate(30,640)" ><path fill="black" d="M206 -12 C171.333 -12 148 11.3333 148 58 C148 104.667 170 127 206 127 C239.333 127 262 106 262 58 C262 11.3333 238 -12 206 -12 Z " /></g></glyph>
<glyph glyph-name="k" unicode="k" horiz-adv-x="440" d="M44 0 L44 760 L133 760 L133 418 C133 371.333 129.667 330.333 127 281 L128 281 C142.667 306.333 154.333 326.667 169 352 L282 539 L390 539 L233 300 L396 0 L289 0 L170 233 L133 194 L133 0 L44 0 Z " />
<glyph glyph-name="l" unicode="l" horiz-adv-x="440" d="M50 70 L160 82 L160 680 L59 689 L59 760 L252 760 L252 82 L359 70 L359 0 L50 0 L50 70 Z " />
<glyph glyph-name="m" unicode="m" horiz-adv-x="440" d="M19 0 L19 539 L82 539 L93 483 L97 483 C111.667 527.667 136 550 170 550 C208.667 550 225.333 524.667 236 478 L239 478 C255 526 280.667 550 316 550 C374.667 550 392 500.333 392 391 L392 0 L313 0 L313 391 C313 444.333 308.333 469 283 469 C249.277 469 244 416.896 244 353 L244 0 L166 0 L166 389 C166 445 161 469 137 469 C101.468 469 97 405.411 97 344 L97 0 L19 0 Z " />
<glyph glyph-name="n" unicode="n" horiz-adv-x="440" d="M42 0 L42 539 L118 539 L130 468 L134 468 C156.667 522.667 195 550 243 550 C325.667 550 373 490.333 373 353 L373 0 L280 0 L280 343 C280 425 259.333 466 218 466 C162 466 134 405.333 134 284 L134 0 L42 0 Z " />
<glyph glyph-name="o" unicode="o" horiz-adv-x="440" d="M205 -10 C86.7489 -10 27 101.385 27 272 C27 442.667 89.3333 550 204 550 C312 550 383 448.667 383 270 C383 102.104 327.615 -10 205 -10 Z M205 75 C259.667 75 287 140.333 287 271 C287 400.333 257.333 465 204 465 C150 465 123 400.333 123 271 C123 140.333 150.333 75 205 75 Z " />
<glyph glyph-name="p" unicode="p" horiz-adv-x="440" d="M42 -240 L42 539 L114 539 L128 464 L133 464 C155.667 514.667 189 550 241 550 C333 550 383 447 383 271 C383 88.3333 322.667 -10 240 -10 C190.667 -10 158.333 24.3333 133 67 L127 67 C129.667 48.3333 133 8 133 -24 L133 -240 L42 -240 Z M133 270 C133 142 156.667 76 214 76 C263.333 76 287 144 287 272 C287 400 262 464 212 464 C156 464 133 403.667 133 289 L133 270 Z " />
<glyph glyph-name="q" unicode="q" horiz-adv-x="440" d="M277 -240 L277 -19 C277 14.3333 280 43.3333 284 74 L279 74 C257.667 24.6667 222.667 -10 176 -10 C80 -10 27 93.3333 27 268 C27 450.667 87.3333 550 178 550 C223.333 550 254 516.333 278 467 L283 467 L293 539 L368 539 L368 -240 L277 -240 Z M280 270 C280 392.667 260.667 464 206 464 C151.333 464 125 394.667 125 268 C125 140 151.667 76 205 76 C259.667 76 280 143.667 280 249 L280 270 Z " />
<glyph glyph-name="r" unicode="r" horiz-adv-x="440" d="M27 70 L120 82 L120 455 L32 467 L32 539 L190 539 L199 445 L204 445 C224 509 262 550 322 550 C340.667 550 363.333 545.333 390 532 L366 435 C348.667 445.667 325.333 449 308 449 C245.645 449 210 374.082 210 271 L210 82 L312 70 L312 0 L27 0 L27 70 Z " />
<glyph glyph-name="s" unicode="s" horiz-adv-x="440" d="M58 115 C94 91 145 74 193 74 C253 74 267 102.667 267 144 C267 183.834 251.148 195.115 174 243 C106.513 283.492 61 322.056 61 404 C61 500 118 550 222 550 C268.667 550 308.333 540.667 355 514 L324 436 C284 458.667 254.667 467 224 467 C177.333 467 156 444.667 156 406 C156 366.548 182.416 350.55 250 310 C322.002 267.332 360 236.053 360 148 C360 44 305.333 -10 188 -10 C137.333 -10 94 1.33333 58 24 L58 115 Z " />
<glyph glyph-name="t" unicode="t" horiz-adv-x="440" d="M134 455 L28 455 L28 510 L139 542 L169 679 L228 679 L228 539 L376 539 L376 455 L226 455 L226 173 C226 102.333 253.333 77 296 77 C314.667 77 343 81 375 93 L375 7 C344.333 -3.66667 305.333 -10 272 -10 C193.022 -10 134 34.8745 134 156 L134 455 Z " />
<glyph glyph-name="u" unicode="u" horiz-adv-x="440" d="M38 539 L130 539 L130 201 C130 109 151 76 199 76 C255 76 276 137 276 261 L276 539 L369 539 L369 0 L292 0 L279 73 L274 73 C252 17.6667 215.667 -10 165 -10 C85 -10 38 49.6667 38 179 L38 539 Z " />
<glyph glyph-name="v" unicode="v" horiz-adv-x="440" d="M207 84 C213.667 126.667 225.667 181 235 225 L299 539 L394 539 L259 0 L147 0 L16 539 L109 539 L176 225 C185.333 181 197 126.667 205 84 L207 84 Z " />
<glyph glyph-name="w" unicode="w" horiz-adv-x="440" d="M113 93 C115.725 128.43 124.707 204.659 130 247 L163 452 L245 452 L277 247 C282.349 204.21 290.649 129.457 296 92 L298 92 C300.661 126.598 304.333 210.667 307 264 L324 539 L402 539 L349 0 L246 0 L222 194 C215.333 246 209 301.333 205 352 L202 352 C198 301.333 190.667 244 184 192 L159 0 L58 0 L7 539 L86 539 L103 265 C108.285 212.145 108.367 129.855 111 93 L113 93 Z " />
<glyph glyph-name="x" unicode="x" horiz-adv-x="440" d="M17 0 L148 276 L23 539 L127 539 L204 349 L284 539 L387 539 L260 274 L392 0 L287 0 L204 204 L121 0 L17 0 Z " />
<glyph glyph-name="y" unicode="y" horiz-adv-x="440" d="M31 -155 C43 -159 57.3333 -162 72 -162 C109.333 -162 137.333 -141.333 156 -64 L170 -4 L16 539 L116 539 L185 240 C197 189.333 204.333 146.667 211 108 L214 108 C218 145.333 228 198.333 236 241 L294 539 L395 539 L245 -65 C215.667 -181 166.667 -245 84 -245 C65.3333 -245 48.3333 -241 31 -237 L31 -155 Z " />
<glyph glyph-name="z" unicode="z" horiz-adv-x="440" d="M47 67 L251 455 L56 455 L56 539 L356 539 L356 462 L158 85 L364 85 L364 0 L47 0 L47 67 Z " />
<glyph glyph-name="braceleft" unicode="&#x7b;" horiz-adv-x="440" d="M165 145 C165 210.333 125.333 242 84 242 L84 314 C121.411 314 165 339.074 165 410 L165 559 C165 665.797 257.26 718 325 718 L325 642 C289.346 639.257 251 618.924 251 554 L251 405 C251 330.333 212.333 292 175 280 L175 276 C213.667 262.667 251 222.667 251 152 L251 3 C251 -59.6667 286.333 -84.6667 325 -86 L325 -162 C258.437 -162 165 -114.208 165 -2 L165 145 Z " />
<glyph glyph-name="bar" unicode="&#x7c;" horiz-adv-x="440" d="M166 -240 L166 760 L246 760 L246 -240 L166 -240 Z " />
<glyph glyph-name="braceright" unicode="&#x7d;" horiz-adv-x="440" d="M77 -86 C112.654 -83.2574 151 -62.924 151 2 L151 151 C151 225.667 189.667 264 227 276 L227 280 C188.333 293.333 151 333.333 151 404 L151 553 C151 615.667 115.667 640.667 77 642 L77 718 C143.563 718 237 670.208 237 558 L237 411 C237 345.667 276.667 314 318 314 L318 242 C280.589 242 237 216.926 237 146 L237 -3 C237 -109.797 145.364 -162 77 -162 L77 -86 Z " />
<glyph glyph-name="asciitilde" unicode="&#x7e;" horiz-adv-x="440" d="M364 336 C340 302.667 312.333 286 281 286 C247.667 286 224.667 295 194 315 C165.333 333 141.667 342 123 342 C97.6667 342 72 322.333 46 283 L46 369 C68.6667 403.667 96 421 128 421 C158.667 421 183.333 409.667 214 391 C241.333 373 265.667 364 287 364 C312.333 364 341.333 386 364 422 L364 336 Z " />
<glyph glyph-name="uni00A0" unicode="&#xa0;" horiz-adv-x="440" />
<glyph glyph-name="exclamdown" unicode="&#xa1;" horiz-adv-x="440" d="M165 320 L240 320 L257 -185 L149 -185 L165 320 Z M202 402 C168.667 402 146 423 146 471 C146 517.667 170 541 202 541 C236.667 541 260 517.667 260 471 C260 424.333 238 402 202 402 Z " />
<glyph glyph-name="cent" unicode="&#xa2;" horiz-adv-x="440" d="M214 -10 L214 88 C111.333 102.667 65 201.667 65 363 C65 524.333 114 624.667 214 642 L214 724 L267 724 L267 644 C297.667 641.333 327.333 633 350 617 L324 541 C301.333 557 274.667 564 256 564 C187.333 564 153 497 153 363 C153 228.333 184 168 256 168 C282.667 168 316.333 179.333 343 198 L343 117 C324.333 102.333 296.333 92 267 88 L267 -10 L214 -10 Z " />
<glyph glyph-name="sterling" unicode="&#xa3;" horiz-adv-x="440" d="M371 87 L371 0 L59 0 L59 81 C93.6667 105 112 144.667 112 218 L112 323 L56 323 L56 397 L112 397 L112 537 C112 658.333 163 724 263 724 C304.333 724 338.333 709.667 373 683 L344 606 C316.667 627.333 292 638 270 638 C227.333 638 202 605.667 202 527 L202 397 L312 397 L312 323 L202 323 L202 219 C202 156.333 186.667 113.667 152 87 L371 87 Z " />
<glyph glyph-name="currency" unicode="&#xa4;" horiz-adv-x="440" d="M24 177 L75 241 C57 275 48 312.333 48 353 C48 393 57 430 75 464 L23 530 L66 575 L117 510 C143.667 534.667 173 547 205 547 C237.667 547 266.667 534.667 292 510 L343 575 L387 531 L336 465 C353.333 431.667 362 394.333 362 353 C362 312.333 353.333 274.667 336 240 L386 175 L344 130 L292 195 C265.333 171.667 236 160 204 160 C170 160 141 172 117 196 L66 131 L24 177 Z M205 227 C263.667 227 298 284.333 298 355 C298 427 261 480 205 480 C149 480 111 424 111 352 C111 282.667 147.667 227 205 227 Z " />
<glyph glyph-name="yen" unicode="&#xa5;" horiz-adv-x="440" d="M68 192 L160 192 L160 274 L68 274 L68 340 L142 340 L37 714 L132 714 L205 393 L277 714 L373 714 L267 340 L343 340 L343 274 L251 274 L251 192 L343 192 L343 126 L251 126 L251 0 L160 0 L160 126 L68 126 L68 192 Z " />
<glyph glyph-name="brokenbar" unicode="&#xa6;" horiz-adv-x="440" d="M166 -236 L166 156 L246 156 L246 -236 L166 -236 Z M166 368 L166 760 L246 760 L246 368 L166 368 Z " />
<glyph glyph-name="section" unicode="&#xa7;" horiz-adv-x="440" d="M64 102 C92 76.6667 137.333 59 176 59 C214.667 59 250 83.3333 250 134 C250 182 221 204.333 177 235 C104.85 285.772 70 320.045 70 387 C70 449.667 95.6667 489 141 513 C110.333 543.667 93 581 93 633 C93 718.333 149.667 766 231 766 C269.667 766 299 755.667 335 733 L310 668 C279.333 689.333 255.667 699 229 699 C191.667 699 170 676.333 170 635 C170 588.333 202 561.333 234 540 C289.942 500.042 345 470.99 345 382 C345 322 321.667 275.333 283 250 C313.667 214 328 181.333 328 136 C328 45.3333 268.333 -9 175 -9 C132.333 -9 93.3333 1.33333 64 24 L64 102 Z M236 285 C262.667 299.667 272 332 272 368 C272 412.773 253.737 437.928 188 480 C157.333 468 143 437 143 401 C143 351.826 177.775 329.419 209 306 L236 285 Z " />
<glyph glyph-name="dieresis" unicode="&#xa8;" horiz-adv-x="440" d="M127 623 C100.333 623 80 643.333 80 686 C80 726 100.333 746 127 746 C153.667 746 174 724.667 174 686 C174 643.333 153.667 623 127 623 Z M282 623 C255.333 623 235 643.333 235 686 C235 726 255.333 746 282 746 C308.667 746 329 724.667 329 686 C329 643.333 308.667 623 282 623 Z " />
<glyph glyph-name="copyright" unicode="&#xa9;" horiz-adv-x="440" d="M205 130 C89.4935 130 16 225.693 16 359 C16 497.719 95.1255 589 206 589 C317.896 589 394 495.87 394 360 C394 221.281 314.203 130 205 130 Z M205 176 C289 176 348 244.667 348 358 C348 471.333 288 543 204 543 C120 543 61 473.333 61 360 C61 246.667 121 176 205 176 Z M269 232 C249.667 221.333 230.333 216 211 216 C140.333 216 106 271.667 106 357 C106 445 142.333 502 209 502 C233.667 502 256.667 495.333 278 482 L260 437 C244.667 447 228.667 452 212 452 C177.333 452 157 419.667 157 357 C157 295.667 175.333 265 212 265 C230.667 265 249.667 270.333 269 281 L269 232 Z " />
<glyph glyph-name="ordfeminine" unicode="&#xaa;" horiz-adv-x="440" d="M249 432 C231.667 396 210 378 174 378 C124.667 378 92 414 92 478 C92 552.667 138.333 583.333 209 590 L242 592 L242 611 C240.667 649.667 227.667 665 197 665 C174.333 665 153.667 656.667 131 642 L112 693 C141.333 712.333 172 722 204 722 C272.667 722 307 683 307 605 L307 384 L261 384 L249 432 Z M242 541 L217 538 C178.333 532.667 158 521.667 158 483 C158 452.333 171.667 437 193 437 C223.667 437 242 468.667 242 518 L242 541 Z " />
<glyph glyph-name="guillemotleft" unicode="&#xab;" horiz-adv-x="440" >
<g transform="translate(-83,-3)" ><path fill="black" d="M233 60 L113 260 L113 274 L233 474 L296 440 L213 267 L296 96 L233 60 Z " /></g><g transform="translate(84,-3)" ><path fill="black" d="M233 60 L113 260 L113 274 L233 474 L296 440 L213 267 L296 96 L233 60 Z " /></g></glyph>
<glyph glyph-name="logicalnot" unicode="&#xac;" horiz-adv-x="440" d="M52 392 L360 392 L360 120 L286 120 L286 314 L52 314 L52 392 Z " />
<glyph glyph-name="uni00AD" unicode="&#xad;" horiz-adv-x="440" >
<g transform="translate(2,0)" ><path fill="black" d="M103 316 L307 316 L307 226 L103 226 L103 316 Z " /></g></glyph>
<glyph glyph-name="registered" unicode="&#xae;" horiz-adv-x="440" d="M205 130 C90.4113 130 18 225.693 18 359 C18 496.671 96.6667 588 206 588 C318.026 588 393 494.87 393 359 C393 221.329 314.333 130 205 130 Z M205 176 C290.333 176 348 244.667 348 358 C348 471.333 288 542 204 542 C120 542 62 472.333 62 359 C62 245.667 121 176 205 176 Z M129 224 L129 499 L194 499 C251.333 499 278 469.333 278 416 C278 373.333 260 350 240 338 L296 224 L244 224 L199 327 L174 327 L174 224 L129 224 Z M174 369 L193 369 C217 369 232 382.333 232 413 C232 441 218.667 455 192 455 L174 455 L174 369 Z " />
<glyph glyph-name="macron" unicode="&#xaf;" horiz-adv-x="440" d="M96 704 L307 704 L307 634 L96 634 L96 704 Z " />
<glyph glyph-name="degree" unicode="&#xb0;" horiz-adv-x="440" d="M204 448 C140 448 91 500.667 91 586 C91 671.333 141.333 723 204 723 C268 723 319 670.333 319 585 C319 499.589 266.225 448 204 448 Z M205 506 C237 506 262 535.333 262 586 C262 635.333 237 665 205 665 C170.333 665 146 633 146 585 C146 534.333 173 506 205 506 Z " />
<glyph glyph-name="plusminus" unicode="&#xb1;" horiz-adv-x="440" d="M168 143 L168 339 L49 339 L49 417 L168 417 L168 614 L243 614 L243 417 L362 417 L362 339 L243 339 L243 143 L168 143 Z M49 78 L362 78 L362 0 L49 0 L49 78 Z " />
<glyph glyph-name="twosuperior" unicode="&#xb2;" horiz-adv-x="440" d="M102 478 L175 584 C223.21 653.637 246 685.763 246 733 C246 766.333 229.667 789 199 789 C174.333 789 152.333 775 133 747 L99 796 C120.333 830.667 160 853 208 853 C276 853 316 808.667 316 738 C316 666.253 271.215 631.138 210 530 L179 479 L324 479 L324 415 L102 415 L102 478 Z " />
<glyph glyph-name="threesuperior" unicode="&#xb3;" horiz-adv-x="440" d="M105 505 C129.667 484.333 158.333 474 191 474 C236.333 474 253 497 253 537 C253 582.333 230 605 184 605 L153 605 L153 665 L180 665 C222.667 665 245 692 245 732 C245 766.667 228.333 788 195 788 C172.333 788 154.667 777 132 753 L100 804 C130.667 836 162.667 853 204 853 C266.667 853 310 812 310 744 C310 696 291.333 659.333 254 642 L254 638 C295.333 623.333 320 588 320 532 C320 452 269 407 193 407 C161 407 131.667 415.667 105 433 L105 505 Z " />
<glyph glyph-name="acute" unicode="&#xb4;" horiz-adv-x="440" d="M156 606 L156 617 C185.333 671.667 207 720.667 223 766 L326 766 L326 757 C306.995 716.275 250.168 642.797 216 606 L156 606 Z " />
<glyph glyph-name="mu" unicode="&#xb5;" horiz-adv-x="440" d="M38 227 L40 227 L40 539 L132 539 L132 201 C132 109 153 76 201 76 C257 76 278 137 278 261 L278 539 L371 539 L371 0 L294 0 L281 73 L276 73 C254 17.6667 217.667 -10 167 -10 C152.333 -10 141 -7.66667 129 -5 L129 -240 L38 -240 L38 227 Z " />
<glyph glyph-name="paragraph" unicode="&#xb6;" horiz-adv-x="440" d="M183 -127 L183 277 C173 271 162 268 150 268 C78 268 45 348.333 45 511 C45 676.333 81 760 165 760 L341 760 L341 -127 L286 -127 L286 701 L238 701 L238 -127 L183 -127 Z " />
<glyph glyph-name="periodcentered" unicode="&#xb7;" horiz-adv-x="440" >
<g transform="translate(2,277)" ><path fill="black" d="M206 -12 C171.333 -12 148 11.3333 148 58 C148 104.667 170 127 206 127 C239.333 127 262 106 262 58 C262 11.3333 238 -12 206 -12 Z " /></g></glyph>
<glyph glyph-name="cedilla" unicode="&#xb8;" horiz-adv-x="440" d="M130 -175 C142 -179 153.667 -181 165 -181 C195.667 -181 210 -161.667 210 -135 C210 -100.333 188 -86.6667 152 -80 L179 0 L229 0 L214 -48 C258.667 -58.6667 281 -89 281 -139 C281 -203 245.667 -240 179 -240 C161.667 -240 143.333 -238 130 -234 L130 -175 Z " />
<glyph glyph-name="onesuperior" unicode="&#xb9;" horiz-adv-x="440" d="M111 467 L188 472 L188 663 C188 693.667 188.333 729.667 191 763 L165 737 L125 698 L91 749 L198 843 L254 843 L254 472 L327 467 L327 415 L111 415 L111 467 Z " />
<glyph glyph-name="ordmasculine" unicode="&#xba;" horiz-adv-x="440" d="M210 378 C135.333 378 95 443 95 551 C95 659 138 722 210 722 C279.333 722 323 663 323 551 C323 441.667 282 378 210 378 Z M210 438 C244.667 438 257 473.667 257 551 C257 628.333 242.333 663 209 663 C178.333 663 162 629.667 162 551 C162 475.667 178 438 210 438 Z " />
<glyph glyph-name="guillemotright" unicode="&#xbb;" horiz-adv-x="440" >
<g transform="translate(-96,-26)" ><path fill="black" d="M207 291 L125 462 L188 498 L308 298 L308 284 L188 84 L125 118 L207 291 Z " /></g><g transform="translate(71,-26)" ><path fill="black" d="M207 291 L125 462 L188 498 L308 298 L308 284 L188 84 L125 118 L207 291 Z " /></g></glyph>
<glyph glyph-name="onequarter" unicode="&#xbc;" horiz-adv-x="440" >
<g transform="translate(-5,-576)" ><path fill="black" d="M84 558 L215 845 L288 845 L288 563 L334 563 L334 503 L288 503 L288 415 L222 415 L222 503 L84 503 L84 558 Z M222 563 L222 681 C222 713 221.333 731.667 224 757 C217.333 741 208 721.667 200 703 L144 563 L222 563 Z " /></g><g transform="translate(-4,50)" ><path fill="black" d="M111 467 L188 472 L188 663 C188 693.667 188.333 729.667 191 763 L165 737 L125 698 L91 749 L198 843 L254 843 L254 472 L327 467 L327 415 L111 415 L111 467 Z " /></g><path fill="black" d="M27 365 L375 416 L375 365 L27 314 L27 365 Z " /></glyph>
<glyph glyph-name="onehalf" unicode="&#xbd;" horiz-adv-x="440" >
<g transform="translate(-4,50)" ><path fill="black" d="M111 467 L188 472 L188 663 C188 693.667 188.333 729.667 191 763 L165 737 L125 698 L91 749 L198 843 L254 843 L254 472 L327 467 L327 415 L111 415 L111 467 Z " /></g><g transform="translate(-6,-576)" ><path fill="black" d="M102 478 L175 584 C223.21 653.637 246 685.763 246 733 C246 766.333 229.667 789 199 789 C174.333 789 152.333 775 133 747 L99 796 C120.333 830.667 160 853 208 853 C276 853 316 808.667 316 738 C316 666.253 271.215 631.138 210 530 L179 479 L324 479 L324 415 L102 415 L102 478 Z " /></g><path fill="black" d="M27 365 L375 416 L375 365 L27 314 L27 365 Z " /></glyph>
<glyph glyph-name="threequarters" unicode="&#xbe;" horiz-adv-x="440" >
<g transform="translate(-5,-576)" ><path fill="black" d="M84 558 L215 845 L288 845 L288 563 L334 563 L334 503 L288 503 L288 415 L222 415 L222 503 L84 503 L84 558 Z M222 563 L222 681 C222 713 221.333 731.667 224 757 C217.333 741 208 721.667 200 703 L144 563 L222 563 Z " /></g><g transform="translate(-5,50)" ><path fill="black" d="M105 505 C129.667 484.333 158.333 474 191 474 C236.333 474 253 497 253 537 C253 582.333 230 605 184 605 L153 605 L153 665 L180 665 C222.667 665 245 692 245 732 C245 766.667 228.333 788 195 788 C172.333 788 154.667 777 132 753 L100 804 C130.667 836 162.667 853 204 853 C266.667 853 310 812 310 744 C310 696 291.333 659.333 254 642 L254 638 C295.333 623.333 320 588 320 532 C320 452 269 407 193 407 C161 407 131.667 415.667 105 433 L105 505 Z " /></g><path fill="black" d="M27 365 L375 416 L375 365 L27 314 L27 365 Z " /></glyph>
<glyph glyph-name="questiondown" unicode="&#xbf;" horiz-adv-x="440" d="M349 -145 C306.333 -177 259.667 -195 209 -195 C111.667 -195 60 -133 60 -25 C60 62.7903 87.4695 106.172 138 170 C180.553 223.191 187 248.468 187 299 L187 320 L262 320 L262 290 C262 218 248.333 176.667 207 126 C164.178 67.1203 150 39.029 150 -18 C150 -78.6667 171.667 -109 215 -109 C253.667 -109 283.333 -93 318 -69 L349 -145 Z M223 402 C189.667 402 167 423 167 471 C167 517.667 191 541 223 541 C257.667 541 281 517.667 281 471 C281 424.333 259 402 223 402 Z " />
<glyph glyph-name="Agrave" unicode="&#xc0;" horiz-adv-x="440" >
<path fill="black" d="M140 714 L268 714 L396 0 L304 0 L270 212 L140 212 L108 0 L14 0 L140 714 Z M257 298 L222 516 C216.667 554.667 208 601.333 204 636 C200 601.333 192.667 553.333 186 516 L153 298 L257 298 Z " /><g transform="translate(-2,176)" ><path fill="black" d="M86 766 L188 766 C204.306 719.799 237.183 654.634 256 617 L256 606 L195 606 C165.788 640.524 106.978 715.043 86 757 L86 766 Z " /></g></glyph>
<glyph glyph-name="Aacute" unicode="&#xc1;" horiz-adv-x="440" d="M140 714 L268 714 L396 0 L304 0 L270 212 L140 212 L108 0 L14 0 L140 714 Z M257 298 L222 516 C216.667 554.667 208 601.333 204 636 C200 601.333 192.667 553.333 186 516 L153 298 L257 298 Z M154 793 C183.333 847.667 205 896.667 221 942 L324 942 L324 933 C304.995 892.275 248.168 818.797 214 782 L154 782 L154 793 Z " />
<glyph glyph-name="Acircumflex" unicode="&#xc2;" horiz-adv-x="440" d="M140 714 L268 714 L396 0 L304 0 L270 212 L140 212 L108 0 L14 0 L140 714 Z M87 793 C115 839.667 147.333 899.333 162 942 L247 942 C264.333 896.667 294 838.333 322 793 L322 782 L270 782 C250 807.333 229 839.333 205 874 C179.667 839.333 157.333 804.667 140 782 L87 782 L87 793 Z M257 298 L222 516 C216.667 554.667 208 601.333 204 636 C200 601.333 192.667 553.333 186 516 L153 298 L257 298 Z " />
<glyph glyph-name="Atilde" unicode="&#xc3;" horiz-adv-x="440" >
<path fill="black" d="M140 714 L268 714 L396 0 L304 0 L270 212 L140 212 L108 0 L14 0 L140 714 Z M257 298 L222 516 C216.667 554.667 208 601.333 204 636 C200 601.333 192.667 553.333 186 516 L153 298 L257 298 Z " /><g transform="translate(0,176)" ><path fill="black" d="M79 610 C81.6291 673.098 96.4184 739 148 739 C190.444 739 222.222 683 254 683 C271.333 683 274.667 704 280 740 L331 740 C328.333 654.667 300.667 611 262 611 C221.667 611 181.333 668 157 668 C142.333 668 133 648.667 129 610 L79 610 Z " /></g></glyph>
<glyph glyph-name="Adieresis" unicode="&#xc4;" horiz-adv-x="440" >
<g transform="translate(0,164)" ><path fill="black" d="M127 623 C100.333 623 80 643.333 80 686 C80 726 100.333 746 127 746 C153.667 746 174 724.667 174 686 C174 643.333 153.667 623 127 623 Z M282 623 C255.333 623 235 643.333 235 686 C235 726 255.333 746 282 746 C308.667 746 329 724.667 329 686 C329 643.333 308.667 623 282 623 Z " /></g><path fill="black" d="M140 714 L268 714 L396 0 L304 0 L270 212 L140 212 L108 0 L14 0 L140 714 Z M257 298 L222 516 C216.667 554.667 208 601.333 204 636 C200 601.333 192.667 553.333 186 516 L153 298 L257 298 Z " /></glyph>
<glyph glyph-name="Aring" unicode="&#xc5;" horiz-adv-x="440" d="M140 714 L268 714 L396 0 L304 0 L270 212 L140 212 L108 0 L14 0 L140 714 Z M206 782 C147.333 782 111 825 111 889 C111 953 147.333 995 206 995 C262 995 299 953 299 889 C299 825 263.333 782 206 782 Z M257 298 L222 516 C216.667 554.667 208 601.333 204 636 C200 601.333 192.667 553.333 186 516 L153 298 L257 298 Z M206 837 C230 837 247 857 247 889 C247 919.667 232.667 941 206 941 C182 941 165 919.667 165 889 C165 857 182 837 206 837 Z " />
<glyph glyph-name="AE" unicode="&#xc6;" horiz-adv-x="440" d="M123 714 L391 714 L391 622 L283 622 L283 417 L377 417 L377 326 L283 326 L283 92 L391 92 L391 0 L202 0 L202 211 L129 211 L100 0 L14 0 L123 714 Z M202 300 L202 624 L187 624 L142 300 L202 300 Z " />
<glyph glyph-name="Ccedilla" unicode="&#xc7;" horiz-adv-x="440" d="M170 -175 C182 -179 193.667 -181 205 -181 C235.667 -181 250 -161.667 250 -135 C250 -100.333 228 -86.6667 192 -80 L216 -8 C94.6667 12 30 143.333 30 354 C30 568.407 110.922 726 255 726 C309.667 726 351 711.667 391 685 L359 603 C330.333 626.333 298.333 638 263 638 C169.615 638 125 517.126 125 356 C125 184 171 78 263 78 C301.667 78 336.333 90.3333 371 109 L371 19 C339 1.66667 306 -7.33333 266 -10 L254 -48 C298.667 -58.6667 321 -89 321 -139 C321 -203 285.667 -240 219 -240 C201.667 -240 183.333 -238 170 -234 L170 -175 Z " />
<glyph glyph-name="Egrave" unicode="&#xc8;" horiz-adv-x="440" >
<path fill="black" d="M368 90 L368 0 L47 0 L47 714 L368 714 L368 624 L141 624 L141 413 L354 413 L354 323 L141 323 L141 90 L368 90 Z " /><g transform="translate(-1,175)" ><path fill="black" d="M86 766 L188 766 C204.306 719.799 237.183 654.634 256 617 L256 606 L195 606 C165.788 640.524 106.978 715.043 86 757 L86 766 Z " /></g></glyph>
<glyph glyph-name="Eacute" unicode="&#xc9;" horiz-adv-x="440" >
<path fill="black" d="M368 90 L368 0 L47 0 L47 714 L368 714 L368 624 L141 624 L141 413 L354 413 L354 323 L141 323 L141 90 L368 90 Z " /><g transform="translate(-1,175)" ><path fill="black" d="M156 606 L156 617 C185.333 671.667 207 720.667 223 766 L326 766 L326 757 C306.995 716.275 250.168 642.797 216 606 L156 606 Z " /></g></glyph>
<glyph glyph-name="Ecircumflex" unicode="&#xca;" horiz-adv-x="440" >
<path fill="black" d="M368 90 L368 0 L47 0 L47 714 L368 714 L368 624 L141 624 L141 413 L354 413 L354 323 L141 323 L141 90 L368 90 Z " /><g transform="translate(1,175)" ><path fill="black" d="M87 606 L87 617 C115 663.667 147.333 723.333 162 766 L247 766 C264.333 720.667 294 662.333 322 617 L322 606 L270 606 C250 631.333 229 663.333 205 698 C179.667 663.333 157.333 628.667 140 606 L87 606 Z " /></g></glyph>
<glyph glyph-name="Edieresis" unicode="&#xcb;" horiz-adv-x="440" >
<g transform="translate(1,163)" ><path fill="black" d="M127 623 C100.333 623 80 643.333 80 686 C80 726 100.333 746 127 746 C153.667 746 174 724.667 174 686 C174 643.333 153.667 623 127 623 Z M282 623 C255.333 623 235 643.333 235 686 C235 726 255.333 746 282 746 C308.667 746 329 724.667 329 686 C329 643.333 308.667 623 282 623 Z " /></g><path fill="black" d="M368 90 L368 0 L47 0 L47 714 L368 714 L368 624 L141 624 L141 413 L354 413 L354 323 L141 323 L141 90 L368 90 Z " /></glyph>
<glyph glyph-name="Igrave" unicode="&#xcc;" horiz-adv-x="440" >
<path fill="black" d="M54 70 L159 81 L159 633 L54 644 L54 714 L356 714 L356 644 L251 633 L251 81 L356 70 L356 0 L54 0 L54 70 Z " /><g transform="translate(-2,175)" ><path fill="black" d="M86 766 L188 766 C204.306 719.799 237.183 654.634 256 617 L256 606 L195 606 C165.788 640.524 106.978 715.043 86 757 L86 766 Z " /></g></glyph>
<glyph glyph-name="Iacute" unicode="&#xcd;" horiz-adv-x="440" >
<path fill="black" d="M54 70 L159 81 L159 633 L54 644 L54 714 L356 714 L356 644 L251 633 L251 81 L356 70 L356 0 L54 0 L54 70 Z " /><g transform="translate(-2,175)" ><path fill="black" d="M156 606 L156 617 C185.333 671.667 207 720.667 223 766 L326 766 L326 757 C306.995 716.275 250.168 642.797 216 606 L156 606 Z " /></g></glyph>
<glyph glyph-name="Icircumflex" unicode="&#xce;" horiz-adv-x="440" >
<path fill="black" d="M54 70 L159 81 L159 633 L54 644 L54 714 L356 714 L356 644 L251 633 L251 81 L356 70 L356 0 L54 0 L54 70 Z " /><g transform="translate(0,175)" ><path fill="black" d="M87 606 L87 617 C115 663.667 147.333 723.333 162 766 L247 766 C264.333 720.667 294 662.333 322 617 L322 606 L270 606 C250 631.333 229 663.333 205 698 C179.667 663.333 157.333 628.667 140 606 L87 606 Z " /></g></glyph>
<glyph glyph-name="Idieresis" unicode="&#xcf;" horiz-adv-x="440" >
<g transform="translate(0,163)" ><path fill="black" d="M127 623 C100.333 623 80 643.333 80 686 C80 726 100.333 746 127 746 C153.667 746 174 724.667 174 686 C174 643.333 153.667 623 127 623 Z M282 623 C255.333 623 235 643.333 235 686 C235 726 255.333 746 282 746 C308.667 746 329 724.667 329 686 C329 643.333 308.667 623 282 623 Z " /></g><path fill="black" d="M54 70 L159 81 L159 633 L54 644 L54 714 L356 714 L356 644 L251 633 L251 81 L356 70 L356 0 L54 0 L54 70 Z " /></glyph>
<glyph glyph-name="Eth" unicode="&#xd0;" horiz-adv-x="440" d="M41 325 L2 325 L2 405 L41 405 L41 714 L203 714 C329.667 714 402 591 402 367 C402 127 324.333 0 195 0 L41 0 L41 325 Z M187 90 C269.667 90 306 184.333 306 363 C306 547 270.667 624 188 624 L134 624 L134 405 L227 405 L227 325 L134 325 L134 90 L187 90 Z " />
<glyph glyph-name="Ntilde" unicode="&#xd1;" horiz-adv-x="440" >
<path fill="black" d="M33 0 L33 714 L157 714 L302 96 L306 96 C303.391 132.524 296 220.676 296 285 L296 714 L378 714 L378 0 L257 0 L108 622 L103 622 C107 551.333 113 489.667 113 415 L113 0 L33 0 Z " /><g transform="translate(4,175)" ><path fill="black" d="M79 610 C81.6291 673.098 96.4184 739 148 739 C190.444 739 222.222 683 254 683 C271.333 683 274.667 704 280 740 L331 740 C328.333 654.667 300.667 611 262 611 C221.667 611 181.333 668 157 668 C142.333 668 133 648.667 129 610 L79 610 Z " /></g></glyph>
<glyph glyph-name="Ograve" unicode="&#xd2;" horiz-adv-x="440" >
<path fill="black" d="M205 -9 C69.0779 -9 18 149.407 18 359 C18 595 74.6667 726 204 726 C339.03 726 392 571.333 392 358 C392 146.338 340.922 -9 205 -9 Z M206 79 C271.333 79 297 176.667 297 358 C297 540.667 270.333 637 205 637 C137 637 112 536.667 112 358 C112 179.333 140.667 79 206 79 Z " /><g transform="translate(-2,175)" ><path fill="black" d="M86 766 L188 766 C204.306 719.799 237.183 654.634 256 617 L256 606 L195 606 C165.788 640.524 106.978 715.043 86 757 L86 766 Z " /></g></glyph>
<glyph glyph-name="Oacute" unicode="&#xd3;" horiz-adv-x="440" >
<path fill="black" d="M205 -9 C69.0779 -9 18 149.407 18 359 C18 595 74.6667 726 204 726 C339.03 726 392 571.333 392 358 C392 146.338 340.922 -9 205 -9 Z M206 79 C271.333 79 297 176.667 297 358 C297 540.667 270.333 637 205 637 C137 637 112 536.667 112 358 C112 179.333 140.667 79 206 79 Z " /><g transform="translate(-2,175)" ><path fill="black" d="M156 606 L156 617 C185.333 671.667 207 720.667 223 766 L326 766 L326 757 C306.995 716.275 250.168 642.797 216 606 L156 606 Z " /></g></glyph>
<glyph glyph-name="Ocircumflex" unicode="&#xd4;" horiz-adv-x="440" >
<path fill="black" d="M205 -9 C69.0779 -9 18 149.407 18 359 C18 595 74.6667 726 204 726 C339.03 726 392 571.333 392 358 C392 146.338 340.922 -9 205 -9 Z M206 79 C271.333 79 297 176.667 297 358 C297 540.667 270.333 637 205 637 C137 637 112 536.667 112 358 C112 179.333 140.667 79 206 79 Z " /><g transform="translate(0,175)" ><path fill="black" d="M87 606 L87 617 C115 663.667 147.333 723.333 162 766 L247 766 C264.333 720.667 294 662.333 322 617 L322 606 L270 606 C250 631.333 229 663.333 205 698 C179.667 663.333 157.333 628.667 140 606 L87 606 Z " /></g></glyph>
<glyph glyph-name="Otilde" unicode="&#xd5;" horiz-adv-x="440" >
<path fill="black" d="M205 -9 C69.0779 -9 18 149.407 18 359 C18 595 74.6667 726 204 726 C339.03 726 392 571.333 392 358 C392 146.338 340.922 -9 205 -9 Z M206 79 C271.333 79 297 176.667 297 358 C297 540.667 270.333 637 205 637 C137 637 112 536.667 112 358 C112 179.333 140.667 79 206 79 Z " /><g transform="translate(0,175)" ><path fill="black" d="M79 610 C81.6291 673.098 96.4184 739 148 739 C190.444 739 222.222 683 254 683 C271.333 683 274.667 704 280 740 L331 740 C328.333 654.667 300.667 611 262 611 C221.667 611 181.333 668 157 668 C142.333 668 133 648.667 129 610 L79 610 Z " /></g></glyph>
<glyph glyph-name="Odieresis" unicode="&#xd6;" horiz-adv-x="440" >
<g transform="translate(0,163)" ><path fill="black" d="M127 623 C100.333 623 80 643.333 80 686 C80 726 100.333 746 127 746 C153.667 746 174 724.667 174 686 C174 643.333 153.667 623 127 623 Z M282 623 C255.333 623 235 643.333 235 686 C235 726 255.333 746 282 746 C308.667 746 329 724.667 329 686 C329 643.333 308.667 623 282 623 Z " /></g><path fill="black" d="M205 -9 C69.0779 -9 18 149.407 18 359 C18 595 74.6667 726 204 726 C339.03 726 392 571.333 392 358 C392 146.338 340.922 -9 205 -9 Z M206 79 C271.333 79 297 176.667 297 358 C297 540.667 270.333 637 205 637 C137 637 112 536.667 112 358 C112 179.333 140.667 79 206 79 Z " /></glyph>
<glyph glyph-name="multiply" unicode="&#xd7;" horiz-adv-x="440" d="M50 218 L154 353 L50 487 L99 541 L204 407 L310 543 L362 490 L256 353 L360 218 L310 165 L204 299 L99 164 L50 218 Z " />
<glyph glyph-name="Oslash" unicode="&#xd8;" horiz-adv-x="440" d="M57 108 C30.3333 173.333 20 259 20 359 C20 595 76.6667 726 206 726 C250 726 286.667 709.333 316 676 L351 752 L404 720 L355 612 C381.667 548 394 459.333 394 358 C394 146.338 342.922 -9 207 -9 C160.333 -9 123 9.66667 95 43 L57 -41 L4 -9 L57 108 Z M140 141 C156.667 99.6667 179.333 79 208 79 C273.333 79 299 176.667 299 358 C299 403.333 296.667 443.333 294 478 L140 141 Z M272 580 C258 618 236.333 637 207 637 C139 637 114 536.667 114 358 C114 315.333 116.333 277.667 119 243 L272 580 Z " />
<glyph glyph-name="Ugrave" unicode="&#xd9;" horiz-adv-x="440" >
<path fill="black" d="M31 714 L125 714 L125 239 C125 124.333 147.667 78 205 78 C265 78 285 125.333 285 240 L285 714 L379 714 L379 234 C379 66 327.333 -10 206 -10 C84.6667 -10 31 67.3333 31 234 L31 714 Z " /><g transform="translate(-2,175)" ><path fill="black" d="M86 766 L188 766 C204.306 719.799 237.183 654.634 256 617 L256 606 L195 606 C165.788 640.524 106.978 715.043 86 757 L86 766 Z " /></g></glyph>
<glyph glyph-name="Uacute" unicode="&#xda;" horiz-adv-x="440" >
<path fill="black" d="M31 714 L125 714 L125 239 C125 124.333 147.667 78 205 78 C265 78 285 125.333 285 240 L285 714 L379 714 L379 234 C379 66 327.333 -10 206 -10 C84.6667 -10 31 67.3333 31 234 L31 714 Z " /><g transform="translate(-2,175)" ><path fill="black" d="M156 606 L156 617 C185.333 671.667 207 720.667 223 766 L326 766 L326 757 C306.995 716.275 250.168 642.797 216 606 L156 606 Z " /></g></glyph>
<glyph glyph-name="Ucircumflex" unicode="&#xdb;" horiz-adv-x="440" >
<path fill="black" d="M31 714 L125 714 L125 239 C125 124.333 147.667 78 205 78 C265 78 285 125.333 285 240 L285 714 L379 714 L379 234 C379 66 327.333 -10 206 -10 C84.6667 -10 31 67.3333 31 234 L31 714 Z " /><g transform="translate(0,175)" ><path fill="black" d="M87 606 L87 617 C115 663.667 147.333 723.333 162 766 L247 766 C264.333 720.667 294 662.333 322 617 L322 606 L270 606 C250 631.333 229 663.333 205 698 C179.667 663.333 157.333 628.667 140 606 L87 606 Z " /></g></glyph>
<glyph glyph-name="Udieresis" unicode="&#xdc;" horiz-adv-x="440" >
<g transform="translate(0,163)" ><path fill="black" d="M127 623 C100.333 623 80 643.333 80 686 C80 726 100.333 746 127 746 C153.667 746 174 724.667 174 686 C174 643.333 153.667 623 127 623 Z M282 623 C255.333 623 235 643.333 235 686 C235 726 255.333 746 282 746 C308.667 746 329 724.667 329 686 C329 643.333 308.667 623 282 623 Z " /></g><path fill="black" d="M31 714 L125 714 L125 239 C125 124.333 147.667 78 205 78 C265 78 285 125.333 285 240 L285 714 L379 714 L379 234 C379 66 327.333 -10 206 -10 C84.6667 -10 31 67.3333 31 234 L31 714 Z " /></glyph>
<glyph glyph-name="Yacute" unicode="&#xdd;" horiz-adv-x="440" >
<path fill="black" d="M158 0 L158 274 L12 714 L114 714 L205 371 L296 714 L397 714 L249 274 L249 0 L158 0 Z " /><g transform="translate(-2,175)" ><path fill="black" d="M156 606 L156 617 C185.333 671.667 207 720.667 223 766 L326 766 L326 757 C306.995 716.275 250.168 642.797 216 606 L156 606 Z " /></g></glyph>
<glyph glyph-name="Thorn" unicode="&#xde;" horiz-adv-x="440" d="M47 0 L47 714 L139 714 L139 594 L204 594 C325.333 594 377 517.333 377 380 C377 246.693 328.636 151 197 151 L139 151 L139 0 L47 0 Z M139 238 L189 238 C257 238 285 276.333 285 375 C285 465.667 258.333 507 201 507 L139 507 L139 238 Z " />
<glyph glyph-name="germandbls" unicode="&#xdf;" horiz-adv-x="440" d="M49 577 C49 690.333 101 765 201 765 C286.333 765 345 709.667 345 611 C345 501.667 283 481.667 283 407 C283 377.667 290.333 358 317 318 C356.941 259.419 380 225.06 380 152 C380 49.3333 334 -10 254 -10 C226 -10 198 -1.66667 174 17 L174 108 C196.667 86.6667 217.667 73 243 73 C273.667 73 289 100.667 289 150 C289 192.667 277.667 215.333 247 258 C219 296.667 190 335.333 190 402 C190 500.66 253 517.438 253 607 C253 655 235.667 684 197 684 C154.333 684 138 643 138 559 L138 0 L49 0 L49 577 Z " />
<glyph glyph-name="agrave" unicode="&#xe0;" horiz-adv-x="440" >
<path fill="black" d="M280 76 C249.333 21.3333 214.333 -10 165 -10 C93 -10 43 45.3333 43 152 C43 268 99 321 203 325 L278 328 L278 358 C278 436.667 245.333 464 200 464 C162.667 464 128.667 448.667 98 426 L66 502 C110 532.667 154 550 210 550 C311.333 550 368 493.333 368 368 L368 0 L298 0 L282 76 L280 76 Z M278 259 L228 256 C166 252 135 219.333 135 158 C135 99.3333 162.333 76 193 76 C235.667 76 278 120.667 278 214 L278 259 Z " /><g transform="translate(11,0)" ><path fill="black" d="M86 766 L188 766 C204.306 719.799 237.183 654.634 256 617 L256 606 L195 606 C165.788 640.524 106.978 715.043 86 757 L86 766 Z " /></g></glyph>
<glyph glyph-name="aacute" unicode="&#xe1;" horiz-adv-x="440" >
<path fill="black" d="M280 76 C249.333 21.3333 214.333 -10 165 -10 C93 -10 43 45.3333 43 152 C43 268 99 321 203 325 L278 328 L278 358 C278 436.667 245.333 464 200 464 C162.667 464 128.667 448.667 98 426 L66 502 C110 532.667 154 550 210 550 C311.333 550 368 493.333 368 368 L368 0 L298 0 L282 76 L280 76 Z M278 259 L228 256 C166 252 135 219.333 135 158 C135 99.3333 162.333 76 193 76 C235.667 76 278 120.667 278 214 L278 259 Z " /><g transform="translate(11,0)" ><path fill="black" d="M156 606 L156 617 C185.333 671.667 207 720.667 223 766 L326 766 L326 757 C306.995 716.275 250.168 642.797 216 606 L156 606 Z " /></g></glyph>
<glyph glyph-name="acircumflex" unicode="&#xe2;" horiz-adv-x="440" >
<path fill="black" d="M280 76 C249.333 21.3333 214.333 -10 165 -10 C93 -10 43 45.3333 43 152 C43 268 99 321 203 325 L278 328 L278 358 C278 436.667 245.333 464 200 464 C162.667 464 128.667 448.667 98 426 L66 502 C110 532.667 154 550 210 550 C311.333 550 368 493.333 368 368 L368 0 L298 0 L282 76 L280 76 Z M278 259 L228 256 C166 252 135 219.333 135 158 C135 99.3333 162.333 76 193 76 C235.667 76 278 120.667 278 214 L278 259 Z " /><g transform="translate(13,0)" ><path fill="black" d="M87 606 L87 617 C115 663.667 147.333 723.333 162 766 L247 766 C264.333 720.667 294 662.333 322 617 L322 606 L270 606 C250 631.333 229 663.333 205 698 C179.667 663.333 157.333 628.667 140 606 L87 606 Z " /></g></glyph>
<glyph glyph-name="atilde" unicode="&#xe3;" horiz-adv-x="440" >
<path fill="black" d="M280 76 C249.333 21.3333 214.333 -10 165 -10 C93 -10 43 45.3333 43 152 C43 268 99 321 203 325 L278 328 L278 358 C278 436.667 245.333 464 200 464 C162.667 464 128.667 448.667 98 426 L66 502 C110 532.667 154 550 210 550 C311.333 550 368 493.333 368 368 L368 0 L298 0 L282 76 L280 76 Z M278 259 L228 256 C166 252 135 219.333 135 158 C135 99.3333 162.333 76 193 76 C235.667 76 278 120.667 278 214 L278 259 Z " /><g transform="translate(13,0)" ><path fill="black" d="M79 610 C81.6291 673.098 96.4184 739 148 739 C190.444 739 222.222 683 254 683 C271.333 683 274.667 704 280 740 L331 740 C328.333 654.667 300.667 611 262 611 C221.667 611 181.333 668 157 668 C142.333 668 133 648.667 129 610 L79 610 Z " /></g></glyph>
<glyph glyph-name="adieresis" unicode="&#xe4;" horiz-adv-x="440" >
<g transform="translate(13,-12)" ><path fill="black" d="M127 623 C100.333 623 80 643.333 80 686 C80 726 100.333 746 127 746 C153.667 746 174 724.667 174 686 C174 643.333 153.667 623 127 623 Z M282 623 C255.333 623 235 643.333 235 686 C235 726 255.333 746 282 746 C308.667 746 329 724.667 329 686 C329 643.333 308.667 623 282 623 Z " /></g><path fill="black" d="M280 76 C249.333 21.3333 214.333 -10 165 -10 C93 -10 43 45.3333 43 152 C43 268 99 321 203 325 L278 328 L278 358 C278 436.667 245.333 464 200 464 C162.667 464 128.667 448.667 98 426 L66 502 C110 532.667 154 550 210 550 C311.333 550 368 493.333 368 368 L368 0 L298 0 L282 76 L280 76 Z M278 259 L228 256 C166 252 135 219.333 135 158 C135 99.3333 162.333 76 193 76 C235.667 76 278 120.667 278 214 L278 259 Z " /></glyph>
<glyph glyph-name="aring" unicode="&#xe5;" horiz-adv-x="440" >
<path fill="black" d="M280 76 C249.333 21.3333 214.333 -10 165 -10 C93 -10 43 45.3333 43 152 C43 268 99 321 203 325 L278 328 L278 358 C278 436.667 245.333 464 200 464 C162.667 464 128.667 448.667 98 426 L66 502 C110 532.667 154 550 210 550 C311.333 550 368 493.333 368 368 L368 0 L298 0 L282 76 L280 76 Z M278 259 L228 256 C166 252 135 219.333 135 158 C135 99.3333 162.333 76 193 76 C235.667 76 278 120.667 278 214 L278 259 Z " /><g transform="translate(14,0)" ><path fill="black" d="M205 606 C146.333 606 110 649 110 713 C110 777 146.333 819 205 819 C261 819 298 777 298 713 C298 649 262.333 606 205 606 Z M205 661 C229 661 246 681 246 713 C246 743.667 231.667 765 205 765 C181 765 164 743.667 164 713 C164 681 181 661 205 661 Z " /></g></glyph>
<glyph glyph-name="ae" unicode="&#xe6;" horiz-adv-x="440" d="M164 325 L164 360 C164 440 144.667 467 114 467 C92.6667 467 69.3333 455 52 435 L24 503 C50.6667 529.667 87.6667 549 125 549 C161 549 193.333 526.333 212 469 C230.667 518.333 257.333 549 292 549 C366.667 549 399 456 399 300 L399 249 L245 249 C246.333 118.333 277 73 321 73 C343.667 73 363.333 83.6667 386 113 L386 26 C362 -0.666667 338.333 -10 309 -10 C263.667 -10 227 18 203 98 C181.667 19.3333 154 -10 110 -10 C46 -10 11 47.3333 11 150 C11 260.667 50 316.667 122 322 L164 325 Z M163 254 L142 253 C108.667 250.333 87 221 87 153 C87 98.3333 102 74 122 74 C147.333 74 163 112.333 163 211 L163 254 Z M326 324 C326 418.667 313.333 466 288 466 C261.333 466 248.333 421.333 247 324 L326 324 Z " />
<glyph glyph-name="ccedilla" unicode="&#xe7;" horiz-adv-x="440" d="M170 -175 C182 -179 193.667 -181 205 -181 C235.667 -181 250 -161.667 250 -135 C250 -100.333 228 -86.6667 192 -80 L216 -8 C118.667 5.33333 50 89.6667 50 267 C50 460.333 122 550 246 550 C291.333 550 332.667 539.333 370 518 L340 437 C313.333 455 284.667 464 254 464 C182 464 146 398.667 146 268 C146 134.667 186 76 254 76 C289.333 76 324.333 88 359 112 L359 21 C332.333 4.33333 301.333 -5.66667 266 -9 L254 -48 C298.667 -58.6667 321 -89 321 -139 C321 -203 285.667 -240 219 -240 C201.667 -240 183.333 -238 170 -234 L170 -175 Z " />
<glyph glyph-name="egrave" unicode="&#xe8;" horiz-adv-x="440" >
<path fill="black" d="M359 27 C321.667 3 284.333 -10 231 -10 C105.667 -10 30 87.3333 30 266 C30 441.134 95.3333 550 210 550 C315.333 550 378 456.333 378 303 L378 243 L125 243 C127.667 129.667 168.667 76 238 76 C286 76 323 90.6667 359 116 L359 27 Z M288 321 C286.667 409 259.667 465 209 465 C158.333 465 130 414.333 126 321 L288 321 Z " /><g transform="translate(3,0)" ><path fill="black" d="M86 766 L188 766 C204.306 719.799 237.183 654.634 256 617 L256 606 L195 606 C165.788 640.524 106.978 715.043 86 757 L86 766 Z " /></g></glyph>
<glyph glyph-name="eacute" unicode="&#xe9;" horiz-adv-x="440" >
<path fill="black" d="M359 27 C321.667 3 284.333 -10 231 -10 C105.667 -10 30 87.3333 30 266 C30 441.134 95.3333 550 210 550 C315.333 550 378 456.333 378 303 L378 243 L125 243 C127.667 129.667 168.667 76 238 76 C286 76 323 90.6667 359 116 L359 27 Z M288 321 C286.667 409 259.667 465 209 465 C158.333 465 130 414.333 126 321 L288 321 Z " /><g transform="translate(3,0)" ><path fill="black" d="M156 606 L156 617 C185.333 671.667 207 720.667 223 766 L326 766 L326 757 C306.995 716.275 250.168 642.797 216 606 L156 606 Z " /></g></glyph>
<glyph glyph-name="ecircumflex" unicode="&#xea;" horiz-adv-x="440" >
<path fill="black" d="M359 27 C321.667 3 284.333 -10 231 -10 C105.667 -10 30 87.3333 30 266 C30 441.134 95.3333 550 210 550 C315.333 550 378 456.333 378 303 L378 243 L125 243 C127.667 129.667 168.667 76 238 76 C286 76 323 90.6667 359 116 L359 27 Z M288 321 C286.667 409 259.667 465 209 465 C158.333 465 130 414.333 126 321 L288 321 Z " /><g transform="translate(5,0)" ><path fill="black" d="M87 606 L87 617 C115 663.667 147.333 723.333 162 766 L247 766 C264.333 720.667 294 662.333 322 617 L322 606 L270 606 C250 631.333 229 663.333 205 698 C179.667 663.333 157.333 628.667 140 606 L87 606 Z " /></g></glyph>
<glyph glyph-name="edieresis" unicode="&#xeb;" horiz-adv-x="440" >
<g transform="translate(5,-12)" ><path fill="black" d="M127 623 C100.333 623 80 643.333 80 686 C80 726 100.333 746 127 746 C153.667 746 174 724.667 174 686 C174 643.333 153.667 623 127 623 Z M282 623 C255.333 623 235 643.333 235 686 C235 726 255.333 746 282 746 C308.667 746 329 724.667 329 686 C329 643.333 308.667 623 282 623 Z " /></g><path fill="black" d="M359 27 C321.667 3 284.333 -10 231 -10 C105.667 -10 30 87.3333 30 266 C30 441.134 95.3333 550 210 550 C315.333 550 378 456.333 378 303 L378 243 L125 243 C127.667 129.667 168.667 76 238 76 C286 76 323 90.6667 359 116 L359 27 Z M288 321 C286.667 409 259.667 465 209 465 C158.333 465 130 414.333 126 321 L288 321 Z " /></glyph>
<glyph glyph-name="igrave" unicode="&#xec;" horiz-adv-x="410" >
<path fill="black" d="M50 70 L166 82 L166 455 L61 467 L61 539 L257 539 L257 82 L359 70 L359 0 L50 0 L50 70 Z " /><g transform="translate(-2,0)" ><path fill="black" d="M86 766 L188 766 C204.306 719.799 237.183 654.634 256 617 L256 606 L195 606 C165.788 640.524 106.978 715.043 86 757 L86 766 Z " /></g></glyph>
<glyph glyph-name="iacute" unicode="&#xed;" horiz-adv-x="410" >
<path fill="black" d="M50 70 L166 82 L166 455 L61 467 L61 539 L257 539 L257 82 L359 70 L359 0 L50 0 L50 70 Z " /><g transform="translate(-2,0)" ><path fill="black" d="M156 606 L156 617 C185.333 671.667 207 720.667 223 766 L326 766 L326 757 C306.995 716.275 250.168 642.797 216 606 L156 606 Z " /></g></glyph>
<glyph glyph-name="icircumflex" unicode="&#xee;" horiz-adv-x="410" >
<path fill="black" d="M50 70 L166 82 L166 455 L61 467 L61 539 L257 539 L257 82 L359 70 L359 0 L50 0 L50 70 Z " /><path fill="black" d="M87 606 L87 617 C115 663.667 147.333 723.333 162 766 L247 766 C264.333 720.667 294 662.333 322 617 L322 606 L270 606 C250 631.333 229 663.333 205 698 C179.667 663.333 157.333 628.667 140 606 L87 606 Z " /></glyph>
<glyph glyph-name="idieresis" unicode="&#xef;" horiz-adv-x="410" >
<g transform="translate(0,-12)" ><path fill="black" d="M127 623 C100.333 623 80 643.333 80 686 C80 726 100.333 746 127 746 C153.667 746 174 724.667 174 686 C174 643.333 153.667 623 127 623 Z M282 623 C255.333 623 235 643.333 235 686 C235 726 255.333 746 282 746 C308.667 746 329 724.667 329 686 C329 643.333 308.667 623 282 623 Z " /></g><path fill="black" d="M50 70 L166 82 L166 455 L61 467 L61 539 L257 539 L257 82 L359 70 L359 0 L50 0 L50 70 Z " /></glyph>
<glyph glyph-name="eth" unicode="&#xf0;" horiz-adv-x="440" d="M276 435 C264 499 236.667 554.333 202 605 L134 550 L98 605 L161 656 C145 674.667 127.333 691.333 110 706 L149 764 C175 748.667 199.667 729.333 223 706 L296 765 L332 710 L267 657 C343 557 383 423.333 383 270 C383 86 319.333 -10 206 -10 C96.7446 -10 27 91.026 27 235 C27 388.333 94 477 190 477 C226.667 477 254.333 462.333 273 433 L276 435 Z M208 71 C268 71 290 130.667 290 244 C290 330.303 264.1 396 207 396 C145.667 396 119 340 119 232 C119 138.667 145.333 71 208 71 Z " />
<glyph glyph-name="ntilde" unicode="&#xf1;" horiz-adv-x="440" >
<path fill="black" d="M42 0 L42 539 L118 539 L130 468 L134 468 C156.667 522.667 195 550 243 550 C325.667 550 373 490.333 373 353 L373 0 L280 0 L280 343 C280 425 259.333 466 218 466 C162 466 134 405.333 134 284 L134 0 L42 0 Z " /><g transform="translate(10,0)" ><path fill="black" d="M79 610 C81.6291 673.098 96.4184 739 148 739 C190.444 739 222.222 683 254 683 C271.333 683 274.667 704 280 740 L331 740 C328.333 654.667 300.667 611 262 611 C221.667 611 181.333 668 157 668 C142.333 668 133 648.667 129 610 L79 610 Z " /></g></glyph>
<glyph glyph-name="ograve" unicode="&#xf2;" horiz-adv-x="440" >
<path fill="black" d="M205 -10 C86.7489 -10 27 101.385 27 272 C27 442.667 89.3333 550 204 550 C312 550 383 448.667 383 270 C383 102.104 327.615 -10 205 -10 Z M205 75 C259.667 75 287 140.333 287 271 C287 400.333 257.333 465 204 465 C150 465 123 400.333 123 271 C123 140.333 150.333 75 205 75 Z " /><g transform="translate(-2,0)" ><path fill="black" d="M86 766 L188 766 C204.306 719.799 237.183 654.634 256 617 L256 606 L195 606 C165.788 640.524 106.978 715.043 86 757 L86 766 Z " /></g></glyph>
<glyph glyph-name="oacute" unicode="&#xf3;" horiz-adv-x="440" >
<path fill="black" d="M205 -10 C86.7489 -10 27 101.385 27 272 C27 442.667 89.3333 550 204 550 C312 550 383 448.667 383 270 C383 102.104 327.615 -10 205 -10 Z M205 75 C259.667 75 287 140.333 287 271 C287 400.333 257.333 465 204 465 C150 465 123 400.333 123 271 C123 140.333 150.333 75 205 75 Z " /><g transform="translate(-2,0)" ><path fill="black" d="M156 606 L156 617 C185.333 671.667 207 720.667 223 766 L326 766 L326 757 C306.995 716.275 250.168 642.797 216 606 L156 606 Z " /></g></glyph>
<glyph glyph-name="ocircumflex" unicode="&#xf4;" horiz-adv-x="440" >
<path fill="black" d="M205 -10 C86.7489 -10 27 101.385 27 272 C27 442.667 89.3333 550 204 550 C312 550 383 448.667 383 270 C383 102.104 327.615 -10 205 -10 Z M205 75 C259.667 75 287 140.333 287 271 C287 400.333 257.333 465 204 465 C150 465 123 400.333 123 271 C123 140.333 150.333 75 205 75 Z " /><path fill="black" d="M87 606 L87 617 C115 663.667 147.333 723.333 162 766 L247 766 C264.333 720.667 294 662.333 322 617 L322 606 L270 606 C250 631.333 229 663.333 205 698 C179.667 663.333 157.333 628.667 140 606 L87 606 Z " /></glyph>
<glyph glyph-name="otilde" unicode="&#xf5;" horiz-adv-x="440" >
<path fill="black" d="M205 -10 C86.7489 -10 27 101.385 27 272 C27 442.667 89.3333 550 204 550 C312 550 383 448.667 383 270 C383 102.104 327.615 -10 205 -10 Z M205 75 C259.667 75 287 140.333 287 271 C287 400.333 257.333 465 204 465 C150 465 123 400.333 123 271 C123 140.333 150.333 75 205 75 Z " /><path fill="black" d="M79 610 C81.6291 673.098 96.4184 739 148 739 C190.444 739 222.222 683 254 683 C271.333 683 274.667 704 280 740 L331 740 C328.333 654.667 300.667 611 262 611 C221.667 611 181.333 668 157 668 C142.333 668 133 648.667 129 610 L79 610 Z " /></glyph>
<glyph glyph-name="odieresis" unicode="&#xf6;" horiz-adv-x="440" >
<g transform="translate(0,-12)" ><path fill="black" d="M127 623 C100.333 623 80 643.333 80 686 C80 726 100.333 746 127 746 C153.667 746 174 724.667 174 686 C174 643.333 153.667 623 127 623 Z M282 623 C255.333 623 235 643.333 235 686 C235 726 255.333 746 282 746 C308.667 746 329 724.667 329 686 C329 643.333 308.667 623 282 623 Z " /></g><path fill="black" d="M205 -10 C86.7489 -10 27 101.385 27 272 C27 442.667 89.3333 550 204 550 C312 550 383 448.667 383 270 C383 102.104 327.615 -10 205 -10 Z M205 75 C259.667 75 287 140.333 287 271 C287 400.333 257.333 465 204 465 C150 465 123 400.333 123 271 C123 140.333 150.333 75 205 75 Z " /></glyph>
<glyph glyph-name="divide" unicode="&#xf7;" horiz-adv-x="440" d="M49 392 L362 392 L362 314 L49 314 L49 392 Z M206 105 C175.333 105 156 127.333 156 170 C156 214 172.667 236 206 236 C238.667 236 255 214 255 170 C255 127.333 235.333 105 206 105 Z M206 469 C175.333 469 156 491.333 156 534 C156 578 172.667 600 206 600 C238.667 600 255 578 255 534 C255 491.333 235.333 469 206 469 Z " />
<glyph glyph-name="oslash" unicode="&#xf8;" horiz-adv-x="440" d="M84 52 C46.6667 101.333 29 176 29 272 C29 442.667 91.3333 550 206 550 C240 550 269.667 540.333 295 521 L322 580 L373 550 L338 473 C368.667 425 385 358 385 270 C385 102.104 329.615 -10 207 -10 C178.333 -10 152.667 -3.33333 130 10 L102 -52 L51 -21 L84 52 Z M257 436 C243.667 455.333 226.667 465 206 465 C152 465 125 400.333 125 271 C125 228.333 128 192.333 134 163 L257 436 Z M167 92 C178.333 80.6667 191.667 75 207 75 C261.667 75 289 140.333 289 271 C289 301.667 286.667 329.333 284 352 L167 92 Z " />
<glyph glyph-name="ugrave" unicode="&#xf9;" horiz-adv-x="440" >
<path fill="black" d="M38 539 L130 539 L130 201 C130 109 151 76 199 76 C255 76 276 137 276 261 L276 539 L369 539 L369 0 L292 0 L279 73 L274 73 C252 17.6667 215.667 -10 165 -10 C85 -10 38 49.6667 38 179 L38 539 Z " /><g transform="translate(-2,0)" ><path fill="black" d="M86 766 L188 766 C204.306 719.799 237.183 654.634 256 617 L256 606 L195 606 C165.788 640.524 106.978 715.043 86 757 L86 766 Z " /></g></glyph>
<glyph glyph-name="uacute" unicode="&#xfa;" horiz-adv-x="440" >
<path fill="black" d="M38 539 L130 539 L130 201 C130 109 151 76 199 76 C255 76 276 137 276 261 L276 539 L369 539 L369 0 L292 0 L279 73 L274 73 C252 17.6667 215.667 -10 165 -10 C85 -10 38 49.6667 38 179 L38 539 Z " /><g transform="translate(-2,0)" ><path fill="black" d="M156 606 L156 617 C185.333 671.667 207 720.667 223 766 L326 766 L326 757 C306.995 716.275 250.168 642.797 216 606 L156 606 Z " /></g></glyph>
<glyph glyph-name="ucircumflex" unicode="&#xfb;" horiz-adv-x="440" >
<path fill="black" d="M38 539 L130 539 L130 201 C130 109 151 76 199 76 C255 76 276 137 276 261 L276 539 L369 539 L369 0 L292 0 L279 73 L274 73 C252 17.6667 215.667 -10 165 -10 C85 -10 38 49.6667 38 179 L38 539 Z " /><path fill="black" d="M87 606 L87 617 C115 663.667 147.333 723.333 162 766 L247 766 C264.333 720.667 294 662.333 322 617 L322 606 L270 606 C250 631.333 229 663.333 205 698 C179.667 663.333 157.333 628.667 140 606 L87 606 Z " /></glyph>
<glyph glyph-name="udieresis" unicode="&#xfc;" horiz-adv-x="440" >
<g transform="translate(0,-12)" ><path fill="black" d="M127 623 C100.333 623 80 643.333 80 686 C80 726 100.333 746 127 746 C153.667 746 174 724.667 174 686 C174 643.333 153.667 623 127 623 Z M282 623 C255.333 623 235 643.333 235 686 C235 726 255.333 746 282 746 C308.667 746 329 724.667 329 686 C329 643.333 308.667 623 282 623 Z " /></g><path fill="black" d="M38 539 L130 539 L130 201 C130 109 151 76 199 76 C255 76 276 137 276 261 L276 539 L369 539 L369 0 L292 0 L279 73 L274 73 C252 17.6667 215.667 -10 165 -10 C85 -10 38 49.6667 38 179 L38 539 Z " /></glyph>
<glyph glyph-name="yacute" unicode="&#xfd;" horiz-adv-x="440" >
<path fill="black" d="M31 -155 C43 -159 57.3333 -162 72 -162 C109.333 -162 137.333 -141.333 156 -64 L170 -4 L16 539 L116 539 L185 240 C197 189.333 204.333 146.667 211 108 L214 108 C218 145.333 228 198.333 236 241 L294 539 L395 539 L245 -65 C215.667 -181 166.667 -245 84 -245 C65.3333 -245 48.3333 -241 31 -237 L31 -155 Z " /><g transform="translate(-1,0)" ><path fill="black" d="M156 606 L156 617 C185.333 671.667 207 720.667 223 766 L326 766 L326 757 C306.995 716.275 250.168 642.797 216 606 L156 606 Z " /></g></glyph>
<glyph glyph-name="thorn" unicode="&#xfe;" horiz-adv-x="440" d="M42 -240 L42 747 L133 747 L133 554 C133 519.333 130.667 496 128 464 L133 464 C155.667 514.667 189 550 241 550 C333 550 383 447 383 271 C383 88.3333 322.667 -10 240 -10 C190.667 -10 158.333 24.3333 133 67 L127 67 C131 41.6667 133 8.66667 133 -22 L133 -240 L42 -240 Z M133 270 C133 142 156.667 76 214 76 C263.333 76 287 144 287 272 C287 400 262 464 212 464 C156 464 133 403.667 133 289 L133 270 Z " />
<glyph glyph-name="ydieresis" unicode="&#xff;" horiz-adv-x="440" >
<g transform="translate(1,-12)" ><path fill="black" d="M127 623 C100.333 623 80 643.333 80 686 C80 726 100.333 746 127 746 C153.667 746 174 724.667 174 686 C174 643.333 153.667 623 127 623 Z M282 623 C255.333 623 235 643.333 235 686 C235 726 255.333 746 282 746 C308.667 746 329 724.667 329 686 C329 643.333 308.667 623 282 623 Z " /></g><path fill="black" d="M31 -155 C43 -159 57.3333 -162 72 -162 C109.333 -162 137.333 -141.333 156 -64 L170 -4 L16 539 L116 539 L185 240 C197 189.333 204.333 146.667 211 108 L214 108 C218 145.333 228 198.333 236 241 L294 539 L395 539 L245 -65 C215.667 -181 166.667 -245 84 -245 C65.3333 -245 48.3333 -241 31 -237 L31 -155 Z " /></glyph>
<glyph glyph-name="Amacron" unicode="&#x100;" horiz-adv-x="440" >
<path fill="black" d="M140 714 L268 714 L396 0 L304 0 L270 212 L140 212 L108 0 L14 0 L140 714 Z M257 298 L222 516 C216.667 554.667 208 601.333 204 636 C200 601.333 192.667 553.333 186 516 L153 298 L257 298 Z " /><g transform="translate(3,165)" ><path fill="black" d="M96 704 L307 704 L307 634 L96 634 L96 704 Z " /></g></glyph>
<glyph glyph-name="amacron" unicode="&#x101;" horiz-adv-x="440" >
<path fill="black" d="M280 76 C249.333 21.3333 214.333 -10 165 -10 C93 -10 43 45.3333 43 152 C43 268 99 321 203 325 L278 328 L278 358 C278 436.667 245.333 464 200 464 C162.667 464 128.667 448.667 98 426 L66 502 C110 532.667 154 550 210 550 C311.333 550 368 493.333 368 368 L368 0 L298 0 L282 76 L280 76 Z M278 259 L228 256 C166 252 135 219.333 135 158 C135 99.3333 162.333 76 193 76 C235.667 76 278 120.667 278 214 L278 259 Z " /><g transform="translate(16,-11)" ><path fill="black" d="M96 704 L307 704 L307 634 L96 634 L96 704 Z " /></g></glyph>
<glyph glyph-name="Abreve" unicode="&#x102;" horiz-adv-x="440" >
<path fill="black" d="M140 714 L268 714 L396 0 L304 0 L270 212 L140 212 L108 0 L14 0 L140 714 Z M257 298 L222 516 C216.667 554.667 208 601.333 204 636 C200 601.333 192.667 553.333 186 516 L153 298 L257 298 Z " /><g transform="translate(0,176)" ><path fill="black" d="M151 748 C154.333 700 172 676 204 676 C236.667 676 255 700 259 748 L314 748 C314 661.333 272 610 204 610 C140 610 97.3333 656 96 748 L151 748 Z " /></g></glyph>
<glyph glyph-name="abreve" unicode="&#x103;" horiz-adv-x="440" >
<path fill="black" d="M280 76 C249.333 21.3333 214.333 -10 165 -10 C93 -10 43 45.3333 43 152 C43 268 99 321 203 325 L278 328 L278 358 C278 436.667 245.333 464 200 464 C162.667 464 128.667 448.667 98 426 L66 502 C110 532.667 154 550 210 550 C311.333 550 368 493.333 368 368 L368 0 L298 0 L282 76 L280 76 Z M278 259 L228 256 C166 252 135 219.333 135 158 C135 99.3333 162.333 76 193 76 C235.667 76 278 120.667 278 214 L278 259 Z " /><g transform="translate(13,0)" ><path fill="black" d="M151 748 C154.333 700 172 676 204 676 C236.667 676 255 700 259 748 L314 748 C314 661.333 272 610 204 610 C140 610 97.3333 656 96 748 L151 748 Z " /></g></glyph>
<glyph glyph-name="Aogonek" unicode="&#x104;" horiz-adv-x="440" d="M140 714 L268 714 L396 2 L403 0 C367 -45.3333 358 -78.3333 358 -113 C358 -145.667 369.667 -162 393 -162 C405 -162 412.333 -158.667 419 -156 L419 -218 C408.333 -223.333 392.667 -227 374 -227 C315.333 -227 288 -194 288 -134 C288 -84.6667 306 -40 342 0 L304 0 L270 212 L140 212 L108 0 L14 0 L140 714 Z M257 298 L222 516 C216.667 554.667 208 601.333 204 636 C200 601.333 192.667 553.333 186 516 L153 298 L257 298 Z " />
<glyph glyph-name="aogonek" unicode="&#x105;" horiz-adv-x="440" d="M284 76 L282 76 C251.333 21.3333 216.333 -10 167 -10 C95 -10 45 45.3333 45 152 C45 268 101 321 205 325 L280 328 L280 358 C280 436.667 247.333 464 202 464 C164.667 464 130.667 448.667 100 426 L68 502 C112 532.667 156 550 212 550 C313.333 550 370 493.333 370 368 L370 0 L371 0 C335 -45.3333 326 -78.3333 326 -113 C326 -145.667 337.667 -162 361 -162 C373 -162 380.333 -158.667 387 -156 L387 -218 C376.333 -223.333 360.667 -227 342 -227 C283.333 -227 256 -194 256 -134 C256 -84.6667 274 -40 310 0 L300 0 L284 76 Z M280 259 L230 256 C168 252 137 219.333 137 158 C137 99.3333 164.333 76 195 76 C237.667 76 280 120.667 280 214 L280 259 Z " />
<glyph glyph-name="Cacute" unicode="&#x106;" horiz-adv-x="440" >
<path fill="black" d="M371 19 C335 -0.333333 294 -10 248 -10 C106.823 -10 30 127.333 30 354 C30 568.407 110.922 726 255 726 C309.667 726 351 711.667 391 685 L359 603 C330.333 626.333 298.333 638 263 638 C169.615 638 125 517.126 125 356 C125 184 171 78 263 78 C301.667 78 336.333 90.3333 371 109 L371 19 Z " /><g transform="translate(42,175)" ><path fill="black" d="M156 606 L156 617 C185.333 671.667 207 720.667 223 766 L326 766 L326 757 C306.995 716.275 250.168 642.797 216 606 L156 606 Z " /></g></glyph>
<glyph glyph-name="cacute" unicode="&#x107;" horiz-adv-x="440" >
<path fill="black" d="M359 21 C325 0.333333 287 -10 245 -10 C131.381 -10 50 73.4329 50 267 C50 460.333 122 550 246 550 C291.333 550 332.667 539.333 370 518 L340 437 C313.333 455 284.667 464 254 464 C182 464 146 398.667 146 268 C146 134.667 186 76 254 76 C289.333 76 324.333 88 359 112 L359 21 Z " /><g transform="translate(28,0)" ><path fill="black" d="M156 606 L156 617 C185.333 671.667 207 720.667 223 766 L326 766 L326 757 C306.995 716.275 250.168 642.797 216 606 L156 606 Z " /></g></glyph>
<glyph glyph-name="Ccircumflex" unicode="&#x108;" horiz-adv-x="440" >
<path fill="black" d="M371 19 C335 -0.333333 294 -10 248 -10 C106.823 -10 30 127.333 30 354 C30 568.407 110.922 726 255 726 C309.667 726 351 711.667 391 685 L359 603 C330.333 626.333 298.333 638 263 638 C169.615 638 125 517.126 125 356 C125 184 171 78 263 78 C301.667 78 336.333 90.3333 371 109 L371 19 Z " /><g transform="translate(44,175)" ><path fill="black" d="M87 606 L87 617 C115 663.667 147.333 723.333 162 766 L247 766 C264.333 720.667 294 662.333 322 617 L322 606 L270 606 C250 631.333 229 663.333 205 698 C179.667 663.333 157.333 628.667 140 606 L87 606 Z " /></g></glyph>
<glyph glyph-name="ccircumflex" unicode="&#x109;" horiz-adv-x="440" >
<path fill="black" d="M359 21 C325 0.333333 287 -10 245 -10 C131.381 -10 50 73.4329 50 267 C50 460.333 122 550 246 550 C291.333 550 332.667 539.333 370 518 L340 437 C313.333 455 284.667 464 254 464 C182 464 146 398.667 146 268 C146 134.667 186 76 254 76 C289.333 76 324.333 88 359 112 L359 21 Z " /><g transform="translate(30,0)" ><path fill="black" d="M87 606 L87 617 C115 663.667 147.333 723.333 162 766 L247 766 C264.333 720.667 294 662.333 322 617 L322 606 L270 606 C250 631.333 229 663.333 205 698 C179.667 663.333 157.333 628.667 140 606 L87 606 Z " /></g></glyph>
<glyph glyph-name="Cdotaccent" unicode="&#x10a;" horiz-adv-x="440" >
<path fill="black" d="M371 19 C335 -0.333333 294 -10 248 -10 C106.823 -10 30 127.333 30 354 C30 568.407 110.922 726 255 726 C309.667 726 351 711.667 391 685 L359 603 C330.333 626.333 298.333 638 263 638 C169.615 638 125 517.126 125 356 C125 184 171 78 263 78 C301.667 78 336.333 90.3333 371 109 L371 19 Z " /><g transform="translate(43,814)" ><path fill="black" d="M206 -12 C171.333 -12 148 11.3333 148 58 C148 104.667 170 127 206 127 C239.333 127 262 106 262 58 C262 11.3333 238 -12 206 -12 Z " /></g></glyph>
<glyph glyph-name="cdotaccent" unicode="&#x10b;" horiz-adv-x="440" >
<path fill="black" d="M359 21 C325 0.333333 287 -10 245 -10 C131.381 -10 50 73.4329 50 267 C50 460.333 122 550 246 550 C291.333 550 332.667 539.333 370 518 L340 437 C313.333 455 284.667 464 254 464 C182 464 146 398.667 146 268 C146 134.667 186 76 254 76 C289.333 76 324.333 88 359 112 L359 21 Z " /><g transform="translate(29,639)" ><path fill="black" d="M206 -12 C171.333 -12 148 11.3333 148 58 C148 104.667 170 127 206 127 C239.333 127 262 106 262 58 C262 11.3333 238 -12 206 -12 Z " /></g></glyph>
<glyph glyph-name="Ccaron" unicode="&#x10c;" horiz-adv-x="440" >
<path fill="black" d="M371 19 C335 -0.333333 294 -10 248 -10 C106.823 -10 30 127.333 30 354 C30 568.407 110.922 726 255 726 C309.667 726 351 711.667 391 685 L359 603 C330.333 626.333 298.333 638 263 638 C169.615 638 125 517.126 125 356 C125 184 171 78 263 78 C301.667 78 336.333 90.3333 371 109 L371 19 Z " /><g transform="translate(44,175)" ><path fill="black" d="M87 766 L140 766 C158.667 743.333 181 708.667 205 674 C231.667 712.667 246 734 270 766 L323 766 L323 755 C298.947 714.912 263.705 650.496 248 606 L162 606 C146 648.667 113.667 711 87 755 L87 766 Z " /></g></glyph>
<glyph glyph-name="ccaron" unicode="&#x10d;" horiz-adv-x="440" >
<path fill="black" d="M359 21 C325 0.333333 287 -10 245 -10 C131.381 -10 50 73.4329 50 267 C50 460.333 122 550 246 550 C291.333 550 332.667 539.333 370 518 L340 437 C313.333 455 284.667 464 254 464 C182 464 146 398.667 146 268 C146 134.667 186 76 254 76 C289.333 76 324.333 88 359 112 L359 21 Z " /><g transform="translate(30,0)" ><path fill="black" d="M87 766 L140 766 C158.667 743.333 181 708.667 205 674 C231.667 712.667 246 734 270 766 L323 766 L323 755 C298.947 714.912 263.705 650.496 248 606 L162 606 C146 648.667 113.667 711 87 755 L87 766 Z " /></g></glyph>
<glyph glyph-name="Dcaron" unicode="&#x10e;" horiz-adv-x="440" >
<path fill="black" d="M31 0 L31 714 L193 714 C319.667 714 392 591 392 367 C392 127 314.333 0 185 0 L31 0 Z M124 90 L177 90 C259.667 90 296 184.333 296 363 C296 547 260.667 624 178 624 L124 624 L124 90 Z " /><g transform="translate(-10,175)" ><path fill="black" d="M87 766 L140 766 C158.667 743.333 181 708.667 205 674 C231.667 712.667 246 734 270 766 L323 766 L323 755 C298.947 714.912 263.705 650.496 248 606 L162 606 C146 648.667 113.667 711 87 755 L87 766 Z " /></g></glyph>
<glyph glyph-name="dcaron" unicode="&#x10f;" horiz-adv-x="440" d="M257 74 L252 74 C232 24.6667 199.667 -10 153 -10 C69 -10 19 89.6667 19 267 C19 451 73 550 157 550 C199.667 550 229.667 518.333 251 469 L256 469 C253.333 497 251 526.333 251 557 L251 760 L342 760 L342 0 L268 0 L257 74 Z M252 273 C252 398.333 234.667 464 184 464 C130.667 464 112 397 112 265 C112 137 130.333 76 181 76 C231.667 76 252 140 252 252 L252 273 Z M363 600 L363 608 C371.023 637.419 379.405 723.667 382 760 L472 760 L472 753 C463.959 710.116 438.77 638.943 418 600 L363 600 Z " />
<glyph glyph-name="Dcroat" unicode="&#x110;" horiz-adv-x="440" >
<path fill="black" d="M41 325 L2 325 L2 405 L41 405 L41 714 L203 714 C329.667 714 402 591 402 367 C402 127 324.333 0 195 0 L41 0 L41 325 Z M187 90 C269.667 90 306 184.333 306 363 C306 547 270.667 624 188 624 L134 624 L134 405 L227 405 L227 325 L134 325 L134 90 L187 90 Z " /></glyph>
<glyph glyph-name="dcroat" unicode="&#x111;" horiz-adv-x="440" d="M283 74 L279 74 C257.667 26 223.667 -10 173 -10 C81 -10 27 87.3333 27 262 C27 443.333 82 542 174 542 C220.667 542 255.333 509.333 278 460 L283 460 C280.333 485.333 277 521 277 553 L277 601 L156 601 L156 673 L277 673 L277 760 L368 760 L368 673 L408 673 L408 601 L368 601 L368 0 L295 0 L283 74 Z M202 76 C258 76 279 136 279 244 L279 264 C279 389.333 262.333 456 205 456 C145 456 122 387.667 122 257 C122 135.667 143.333 76 202 76 Z " />
<glyph glyph-name="Emacron" unicode="&#x112;" horiz-adv-x="440" >
<path fill="black" d="M368 90 L368 0 L47 0 L47 714 L368 714 L368 624 L141 624 L141 413 L354 413 L354 323 L141 323 L141 90 L368 90 Z " /><g transform="translate(4,164)" ><path fill="black" d="M96 704 L307 704 L307 634 L96 634 L96 704 Z " /></g></glyph>
<glyph glyph-name="emacron" unicode="&#x113;" horiz-adv-x="440" >
<path fill="black" d="M359 27 C321.667 3 284.333 -10 231 -10 C105.667 -10 30 87.3333 30 266 C30 441.134 95.3333 550 210 550 C315.333 550 378 456.333 378 303 L378 243 L125 243 C127.667 129.667 168.667 76 238 76 C286 76 323 90.6667 359 116 L359 27 Z M288 321 C286.667 409 259.667 465 209 465 C158.333 465 130 414.333 126 321 L288 321 Z " /><g transform="translate(8,-11)" ><path fill="black" d="M96 704 L307 704 L307 634 L96 634 L96 704 Z " /></g></glyph>
<glyph glyph-name="Ebreve" unicode="&#x114;" horiz-adv-x="440" >
<path fill="black" d="M368 90 L368 0 L47 0 L47 714 L368 714 L368 624 L141 624 L141 413 L354 413 L354 323 L141 323 L141 90 L368 90 Z " /><g transform="translate(1,175)" ><path fill="black" d="M151 748 C154.333 700 172 676 204 676 C236.667 676 255 700 259 748 L314 748 C314 661.333 272 610 204 610 C140 610 97.3333 656 96 748 L151 748 Z " /></g></glyph>
<glyph glyph-name="ebreve" unicode="&#x115;" horiz-adv-x="440" >
<path fill="black" d="M359 27 C321.667 3 284.333 -10 231 -10 C105.667 -10 30 87.3333 30 266 C30 441.134 95.3333 550 210 550 C315.333 550 378 456.333 378 303 L378 243 L125 243 C127.667 129.667 168.667 76 238 76 C286 76 323 90.6667 359 116 L359 27 Z M288 321 C286.667 409 259.667 465 209 465 C158.333 465 130 414.333 126 321 L288 321 Z " /><g transform="translate(5,0)" ><path fill="black" d="M151 748 C154.333 700 172 676 204 676 C236.667 676 255 700 259 748 L314 748 C314 661.333 272 610 204 610 C140 610 97.3333 656 96 748 L151 748 Z " /></g></glyph>
<glyph glyph-name="Edotaccent" unicode="&#x116;" horiz-adv-x="440" >
<path fill="black" d="M368 90 L368 0 L47 0 L47 714 L368 714 L368 624 L141 624 L141 413 L354 413 L354 323 L141 323 L141 90 L368 90 Z " /><g transform="translate(0,814)" ><path fill="black" d="M206 -12 C171.333 -12 148 11.3333 148 58 C148 104.667 170 127 206 127 C239.333 127 262 106 262 58 C262 11.3333 238 -12 206 -12 Z " /></g></glyph>
<glyph glyph-name="edotaccent" unicode="&#x117;" horiz-adv-x="440" >
<path fill="black" d="M359 27 C321.667 3 284.333 -10 231 -10 C105.667 -10 30 87.3333 30 266 C30 441.134 95.3333 550 210 550 C315.333 550 378 456.333 378 303 L378 243 L125 243 C127.667 129.667 168.667 76 238 76 C286 76 323 90.6667 359 116 L359 27 Z M288 321 C286.667 409 259.667 465 209 465 C158.333 465 130 414.333 126 321 L288 321 Z " /><g transform="translate(4,639)" ><path fill="black" d="M206 -12 C171.333 -12 148 11.3333 148 58 C148 104.667 170 127 206 127 C239.333 127 262 106 262 58 C262 11.3333 238 -12 206 -12 Z " /></g></glyph>
<glyph glyph-name="Eogonek" unicode="&#x118;" horiz-adv-x="440" d="M49 714 L370 714 L370 624 L143 624 L143 413 L356 413 L356 323 L143 323 L143 90 L370 90 L370 0 L354 0 C318 -45.3333 309 -78.3333 309 -113 C309 -145.667 320.667 -162 344 -162 C356 -162 363.333 -158.667 370 -156 L370 -218 C359.333 -223.333 343.667 -227 325 -227 C266.333 -227 239 -194 239 -134 C239 -84.6667 257 -40 293 0 L49 0 L49 714 Z " />
<glyph glyph-name="eogonek" unicode="&#x119;" horiz-adv-x="440" d="M360 -218 C349.333 -223.333 334.667 -227 316 -227 C256 -227 229 -183 229 -119 C229 -73.6667 243.333 -38.6667 266 -8 C255.333 -9.33333 244.333 -10 231 -10 C105.667 -10 30 87.3333 30 266 C30 441.134 95.3333 550 210 550 C315.333 550 378 456.333 378 303 L378 243 L125 243 C127.667 129.667 168.667 76 238 76 C286 76 323 90.6667 359 116 L359 27 C356.333 24.3333 354.667 24.6667 352 22 C313.333 -20.6667 299 -66.3333 299 -105 C299 -139.667 310.667 -162 336 -162 C345.333 -162 353.333 -158.667 360 -156 L360 -218 Z M288 321 C286.667 409 259.667 465 209 465 C158.333 465 130 414.333 126 321 L288 321 Z " />
<glyph glyph-name="Ecaron" unicode="&#x11a;" horiz-adv-x="440" >
<path fill="black" d="M368 90 L368 0 L47 0 L47 714 L368 714 L368 624 L141 624 L141 413 L354 413 L354 323 L141 323 L141 90 L368 90 Z " /><g transform="translate(1,175)" ><path fill="black" d="M87 766 L140 766 C158.667 743.333 181 708.667 205 674 C231.667 712.667 246 734 270 766 L323 766 L323 755 C298.947 714.912 263.705 650.496 248 606 L162 606 C146 648.667 113.667 711 87 755 L87 766 Z " /></g></glyph>
<glyph glyph-name="ecaron" unicode="&#x11b;" horiz-adv-x="440" >
<path fill="black" d="M359 27 C321.667 3 284.333 -10 231 -10 C105.667 -10 30 87.3333 30 266 C30 441.134 95.3333 550 210 550 C315.333 550 378 456.333 378 303 L378 243 L125 243 C127.667 129.667 168.667 76 238 76 C286 76 323 90.6667 359 116 L359 27 Z M288 321 C286.667 409 259.667 465 209 465 C158.333 465 130 414.333 126 321 L288 321 Z " /><g transform="translate(5,0)" ><path fill="black" d="M87 766 L140 766 C158.667 743.333 181 708.667 205 674 C231.667 712.667 246 734 270 766 L323 766 L323 755 C298.947 714.912 263.705 650.496 248 606 L162 606 C146 648.667 113.667 711 87 755 L87 766 Z " /></g></glyph>
<glyph glyph-name="Gcircumflex" unicode="&#x11c;" horiz-adv-x="440" >
<path fill="black" d="M288 295 L222 295 L222 385 L377 385 L377 27 C329 1.66667 287.667 -10 237 -10 C84.1082 -10 18 138 18 354 C18 577.134 96.3593 726 243 726 C296.333 726 341.667 710 379 682 L348 601 C313.333 627.667 286.667 638 248 638 C158.667 638 112 536.667 112 354 C112 199.229 148.978 78 230 78 C252.667 78 269.333 83 288 91 L288 295 Z " /><g transform="translate(23,175)" ><path fill="black" d="M87 606 L87 617 C115 663.667 147.333 723.333 162 766 L247 766 C264.333 720.667 294 662.333 322 617 L322 606 L270 606 C250 631.333 229 663.333 205 698 C179.667 663.333 157.333 628.667 140 606 L87 606 Z " /></g></glyph>
<glyph glyph-name="gcircumflex" unicode="&#x11d;" horiz-adv-x="440" >
<path fill="black" d="M55 -118 C97.6667 -144.667 146.333 -159 181 -159 C245 -159 276 -107 276 -19 L276 6 C276 24.6667 276.333 56 279 72 L275 72 C249.667 14.6667 215 -9 175 -9 C81.6667 -9 27 92.3333 27 267 C27 441.225 82.3377 550 174 550 C216 550 250.667 522.667 278 468 L283 468 L291 539 L368 539 L368 -7 C368 -164.333 309.333 -245 184 -245 C138 -245 95 -233 55 -209 L55 -118 Z M280 271 C280 405.667 257.667 464 207 464 C149.667 464 125 393.667 125 267 C125 141.667 149.667 76 207 76 C255 76 280 129 280 249 L280 271 Z " /><path fill="black" d="M87 606 L87 617 C115 663.667 147.333 723.333 162 766 L247 766 C264.333 720.667 294 662.333 322 617 L322 606 L270 606 C250 631.333 229 663.333 205 698 C179.667 663.333 157.333 628.667 140 606 L87 606 Z " /></glyph>
<glyph glyph-name="Gbreve" unicode="&#x11e;" horiz-adv-x="440" >
<path fill="black" d="M288 295 L222 295 L222 385 L377 385 L377 27 C329 1.66667 287.667 -10 237 -10 C84.1082 -10 18 138 18 354 C18 577.134 96.3593 726 243 726 C296.333 726 341.667 710 379 682 L348 601 C313.333 627.667 286.667 638 248 638 C158.667 638 112 536.667 112 354 C112 199.229 148.978 78 230 78 C252.667 78 269.333 83 288 91 L288 295 Z " /><g transform="translate(23,175)" ><path fill="black" d="M151 748 C154.333 700 172 676 204 676 C236.667 676 255 700 259 748 L314 748 C314 661.333 272 610 204 610 C140 610 97.3333 656 96 748 L151 748 Z " /></g></glyph>
<glyph glyph-name="gbreve" unicode="&#x11f;" horiz-adv-x="440" >
<path fill="black" d="M55 -118 C97.6667 -144.667 146.333 -159 181 -159 C245 -159 276 -107 276 -19 L276 6 C276 24.6667 276.333 56 279 72 L275 72 C249.667 14.6667 215 -9 175 -9 C81.6667 -9 27 92.3333 27 267 C27 441.225 82.3377 550 174 550 C216 550 250.667 522.667 278 468 L283 468 L291 539 L368 539 L368 -7 C368 -164.333 309.333 -245 184 -245 C138 -245 95 -233 55 -209 L55 -118 Z M280 271 C280 405.667 257.667 464 207 464 C149.667 464 125 393.667 125 267 C125 141.667 149.667 76 207 76 C255 76 280 129 280 249 L280 271 Z " /><path fill="black" d="M151 748 C154.333 700 172 676 204 676 C236.667 676 255 700 259 748 L314 748 C314 661.333 272 610 204 610 C140 610 97.3333 656 96 748 L151 748 Z " /></glyph>
<glyph glyph-name="Gdotaccent" unicode="&#x120;" horiz-adv-x="440" >
<path fill="black" d="M288 295 L222 295 L222 385 L377 385 L377 27 C329 1.66667 287.667 -10 237 -10 C84.1082 -10 18 138 18 354 C18 577.134 96.3593 726 243 726 C296.333 726 341.667 710 379 682 L348 601 C313.333 627.667 286.667 638 248 638 C158.667 638 112 536.667 112 354 C112 199.229 148.978 78 230 78 C252.667 78 269.333 83 288 91 L288 295 Z " /><g transform="translate(22,814)" ><path fill="black" d="M206 -12 C171.333 -12 148 11.3333 148 58 C148 104.667 170 127 206 127 C239.333 127 262 106 262 58 C262 11.3333 238 -12 206 -12 Z " /></g></glyph>
<glyph glyph-name="gdotaccent" unicode="&#x121;" horiz-adv-x="440" >
<path fill="black" d="M55 -118 C97.6667 -144.667 146.333 -159 181 -159 C245 -159 276 -107 276 -19 L276 6 C276 24.6667 276.333 56 279 72 L275 72 C249.667 14.6667 215 -9 175 -9 C81.6667 -9 27 92.3333 27 267 C27 441.225 82.3377 550 174 550 C216 550 250.667 522.667 278 468 L283 468 L291 539 L368 539 L368 -7 C368 -164.333 309.333 -245 184 -245 C138 -245 95 -233 55 -209 L55 -118 Z M280 271 C280 405.667 257.667 464 207 464 C149.667 464 125 393.667 125 267 C125 141.667 149.667 76 207 76 C255 76 280 129 280 249 L280 271 Z " /><g transform="translate(-1,639)" ><path fill="black" d="M206 -12 C171.333 -12 148 11.3333 148 58 C148 104.667 170 127 206 127 C239.333 127 262 106 262 58 C262 11.3333 238 -12 206 -12 Z " /></g></glyph>
<glyph glyph-name="uni0122" unicode="&#x122;" horiz-adv-x="440" >
<path fill="black" d="M288 295 L222 295 L222 385 L377 385 L377 27 C329 1.66667 287.667 -10 237 -10 C84.1082 -10 18 138 18 354 C18 577.134 96.3593 726 243 726 C296.333 726 341.667 710 379 682 L348 601 C313.333 627.667 286.667 638 248 638 C158.667 638 112 536.667 112 354 C112 199.229 148.978 78 230 78 C252.667 78 269.333 83 288 91 L288 295 Z " /><g transform="translate(672,0)" ><path fill="black" d="M-508 -221 L-508 -211 C-499.957 -176.146 -486.669 -103.7 -484 -61 L-394 -61 L-394 -69 C-404.667 -114.333 -428 -178.333 -452 -221 L-508 -221 Z " /></g></glyph>
<glyph glyph-name="uni0123" unicode="&#x123;" horiz-adv-x="440" d="M57 -118 C99.6667 -144.667 148.333 -159 183 -159 C247 -159 278 -107 278 -19 L278 6 C278 24.6667 278.333 56 281 72 L277 72 C251.667 14.6667 217 -9 177 -9 C83.6667 -9 29 92.3333 29 267 C29 441.225 84.3377 550 176 550 C218 550 252.667 522.667 280 468 L285 468 L293 539 L370 539 L370 -7 C370 -164.333 311.333 -245 186 -245 C140 -245 97 -233 57 -209 L57 -118 Z M282 271 C282 405.667 259.667 464 209 464 C151.667 464 127 393.667 127 267 C127 141.667 151.667 76 209 76 C257 76 282 129 282 249 L282 271 Z M146 606 L146 614 C155.333 656.667 180.333 723.333 207 766 L262 766 L262 756 C251.185 715.443 238.634 645.509 236 606 L146 606 Z " />
<glyph glyph-name="Hcircumflex" unicode="&#x124;" horiz-adv-x="440" >
<path fill="black" d="M31 0 L31 714 L125 714 L125 414 L286 414 L286 714 L379 714 L379 0 L286 0 L286 324 L125 324 L125 0 L31 0 Z " /><g transform="translate(0,175)" ><path fill="black" d="M87 606 L87 617 C115 663.667 147.333 723.333 162 766 L247 766 C264.333 720.667 294 662.333 322 617 L322 606 L270 606 C250 631.333 229 663.333 205 698 C179.667 663.333 157.333 628.667 140 606 L87 606 Z " /></g></glyph>
<glyph glyph-name="hcircumflex" unicode="&#x125;" horiz-adv-x="440" >
<path fill="black" d="M42 0 L42 760 L134 760 L134 551 C134 522.333 132 494 128 466 L134 466 C155.333 516.667 187.667 550 241 550 C319.667 550 373 487.667 373 353 L373 0 L280 0 L280 328 C280 416 263.667 463 213 463 C155.667 463 134 397.333 134 280 L134 0 L42 0 Z " /><g transform="translate(-118,221)" ><path fill="black" d="M87 606 L87 617 C115 663.667 147.333 723.333 162 766 L247 766 C264.333 720.667 294 662.333 322 617 L322 606 L270 606 C250 631.333 229 663.333 205 698 C179.667 663.333 157.333 628.667 140 606 L87 606 Z " /></g></glyph>
<glyph glyph-name="Hbar" unicode="&#x126;" horiz-adv-x="440" d="M34 527 L2 527 L2 602 L34 602 L34 714 L127 714 L127 602 L282 602 L282 714 L376 714 L376 602 L408 602 L408 527 L376 527 L376 0 L282 0 L282 324 L127 324 L127 0 L34 0 L34 527 Z M282 414 L282 527 L127 527 L127 414 L282 414 Z " />
<glyph glyph-name="hbar" unicode="&#x127;" horiz-adv-x="440" d="M41 601 L2 601 L2 673 L41 673 L41 760 L134 760 L134 673 L253 673 L253 601 L134 601 L134 549 C134 519.667 130.667 490.667 128 464 L133 464 C154.333 514.667 187.667 548 241 548 C318.333 548 373 486 373 350 L373 0 L280 0 L280 326 C280 414 263.667 460 213 460 C154.333 460 134 394.333 134 277 L134 0 L41 0 L41 601 Z " />
<glyph glyph-name="Itilde" unicode="&#x128;" horiz-adv-x="440" >
<path fill="black" d="M54 70 L159 81 L159 633 L54 644 L54 714 L356 714 L356 644 L251 633 L251 81 L356 70 L356 0 L54 0 L54 70 Z " /><g transform="translate(0,175)" ><path fill="black" d="M79 610 C81.6291 673.098 96.4184 739 148 739 C190.444 739 222.222 683 254 683 C271.333 683 274.667 704 280 740 L331 740 C328.333 654.667 300.667 611 262 611 C221.667 611 181.333 668 157 668 C142.333 668 133 648.667 129 610 L79 610 Z " /></g></glyph>
<glyph glyph-name="itilde" unicode="&#x129;" horiz-adv-x="410" >
<path fill="black" d="M50 70 L166 82 L166 455 L61 467 L61 539 L257 539 L257 82 L359 70 L359 0 L50 0 L50 70 Z " /><path fill="black" d="M79 610 C81.6291 673.098 96.4184 739 148 739 C190.444 739 222.222 683 254 683 C271.333 683 274.667 704 280 740 L331 740 C328.333 654.667 300.667 611 262 611 C221.667 611 181.333 668 157 668 C142.333 668 133 648.667 129 610 L79 610 Z " /></glyph>
<glyph glyph-name="Imacron" unicode="&#x12a;" horiz-adv-x="440" >
<path fill="black" d="M54 70 L159 81 L159 633 L54 644 L54 714 L356 714 L356 644 L251 633 L251 81 L356 70 L356 0 L54 0 L54 70 Z " /><g transform="translate(3,164)" ><path fill="black" d="M96 704 L307 704 L307 634 L96 634 L96 704 Z " /></g></glyph>
<glyph glyph-name="imacron" unicode="&#x12b;" horiz-adv-x="410" >
<path fill="black" d="M50 70 L166 82 L166 455 L61 467 L61 539 L257 539 L257 82 L359 70 L359 0 L50 0 L50 70 Z " /><g transform="translate(3,-11)" ><path fill="black" d="M96 704 L307 704 L307 634 L96 634 L96 704 Z " /></g></glyph>
<glyph glyph-name="Ibreve" unicode="&#x12c;" horiz-adv-x="440" >
<path fill="black" d="M54 70 L159 81 L159 633 L54 644 L54 714 L356 714 L356 644 L251 633 L251 81 L356 70 L356 0 L54 0 L54 70 Z " /><g transform="translate(0,175)" ><path fill="black" d="M151 748 C154.333 700 172 676 204 676 C236.667 676 255 700 259 748 L314 748 C314 661.333 272 610 204 610 C140 610 97.3333 656 96 748 L151 748 Z " /></g></glyph>
<glyph glyph-name="ibreve" unicode="&#x12d;" horiz-adv-x="410" >
<path fill="black" d="M50 70 L166 82 L166 455 L61 467 L61 539 L257 539 L257 82 L359 70 L359 0 L50 0 L50 70 Z " /><path fill="black" d="M151 748 C154.333 700 172 676 204 676 C236.667 676 255 700 259 748 L314 748 C314 661.333 272 610 204 610 C140 610 97.3333 656 96 748 L151 748 Z " /></glyph>
<glyph glyph-name="Iogonek" unicode="&#x12e;" horiz-adv-x="440" d="M56 70 L161 81 L161 633 L56 644 L56 714 L358 714 L358 644 L253 633 L253 81 L358 70 L358 0 L283 0 C247 -45.3333 238 -78.3333 238 -113 C238 -145.667 249.667 -162 273 -162 C285 -162 292.333 -158.667 299 -156 L299 -218 C288.333 -223.333 272.667 -227 254 -227 C195.333 -227 168 -194 168 -134 C168 -84.6667 186 -40 222 0 L56 0 L56 70 Z " />
<glyph glyph-name="iogonek" unicode="&#x12f;" horiz-adv-x="440" d="M52 70 L168 82 L168 455 L63 467 L63 539 L259 539 L259 82 L361 70 L361 0 L286 0 C250 -45.3333 241 -78.3333 241 -113 C241 -145.667 252.667 -162 276 -162 C288 -162 295.333 -158.667 302 -156 L302 -218 C291.333 -223.333 275.667 -227 257 -227 C198.333 -227 171 -194 171 -134 C171 -84.6667 189 -40 225 0 L52 0 L52 70 Z M212 628 C177.333 628 154 651.333 154 698 C154 744.667 176 767 212 767 C245.333 767 268 746 268 698 C268 651.333 244 628 212 628 Z " />
<glyph glyph-name="Idotaccent" unicode="&#x130;" horiz-adv-x="440" >
<path fill="black" d="M54 70 L159 81 L159 633 L54 644 L54 714 L356 714 L356 644 L251 633 L251 81 L356 70 L356 0 L54 0 L54 70 Z " /><g transform="translate(-1,814)" ><path fill="black" d="M206 -12 C171.333 -12 148 11.3333 148 58 C148 104.667 170 127 206 127 C239.333 127 262 106 262 58 C262 11.3333 238 -12 206 -12 Z " /></g></glyph>
<glyph glyph-name="dotlessi" unicode="&#x131;" horiz-adv-x="410" d="M50 70 L166 82 L166 455 L61 467 L61 539 L257 539 L257 82 L359 70 L359 0 L50 0 L50 70 Z " />
<glyph glyph-name="IJ" unicode="&#x132;" horiz-adv-x="440" d="M67 109 C91 98.3333 133.333 81 168 81 C221.333 81 258 122 258 238 L258 714 L351 714 L351 219 C351 73.6667 293 -10 181 -10 C143.667 -10 97.6667 0.666667 67 18 L67 109 Z M66 189 L66 714 L159 714 L159 189 L66 189 Z " />
<glyph glyph-name="ij" unicode="&#x133;" horiz-adv-x="440" d="M89 -140 C118.333 -150.667 154 -159 178 -159 C230 -159 253 -124.667 253 -54 L253 539 L345 539 L345 -58 C345 -184.667 296.333 -245 191 -245 C156.333 -245 119.667 -237.667 89 -227 L89 -140 Z M67 0 L67 539 L159 539 L159 0 L67 0 Z M114 628 C79.3333 628 56 651.333 56 698 C56 744.667 78 767 114 767 C147.333 767 170 746 170 698 C170 651.333 146 628 114 628 Z M296 628 C261.333 628 238 651.333 238 698 C238 744.667 260 767 296 767 C329.333 767 352 746 352 698 C352 651.333 328 628 296 628 Z " />
<glyph glyph-name="Jcircumflex" unicode="&#x134;" horiz-adv-x="440" >
<path fill="black" d="M39 104 C69.6667 85.3333 103.667 77 129 77 C198.333 77 241 130.333 241 233 L241 714 L333 714 L333 213 C333 82.3074 266.026 -10 138 -10 C100.667 -10 67.6667 -1 39 17 L39 104 Z " /><g transform="translate(81,175)" ><path fill="black" d="M87 606 L87 617 C115 663.667 147.333 723.333 162 766 L247 766 C264.333 720.667 294 662.333 322 617 L322 606 L270 606 C250 631.333 229 663.333 205 698 C179.667 663.333 157.333 628.667 140 606 L87 606 Z " /></g></glyph>
<glyph glyph-name="jcircumflex" unicode="&#x135;" horiz-adv-x="410" >
<path fill="black" d="M32 -140 C62.6667 -150.667 103.333 -159 126 -159 C173.333 -159 197 -124 197 -54 L197 454 L65 467 L65 539 L290 539 L290 -58 C290 -186 241.333 -245 136 -245 C104 -245 62.6667 -237.667 32 -227 L32 -140 Z " /><g transform="translate(34,0)" ><path fill="black" d="M87 606 L87 617 C115 663.667 147.333 723.333 162 766 L247 766 C264.333 720.667 294 662.333 322 617 L322 606 L270 606 C250 631.333 229 663.333 205 698 C179.667 663.333 157.333 628.667 140 606 L87 606 Z " /></g></glyph>
<glyph glyph-name="uni0136" unicode="&#x136;" horiz-adv-x="440" >
<path fill="black" d="M32 0 L32 714 L122 714 L122 358 C139.333 391.333 158.333 427.333 181 474 L288 714 L390 714 L237 394 L394 0 L291 0 L171 322 L122 256 L122 0 L32 0 Z " /><g transform="translate(651,0)" ><path fill="black" d="M-508 -221 L-508 -211 C-499.957 -176.146 -486.669 -103.7 -484 -61 L-394 -61 L-394 -69 C-404.667 -114.333 -428 -178.333 -452 -221 L-508 -221 Z " /></g></glyph>
<glyph glyph-name="uni0137" unicode="&#x137;" horiz-adv-x="440" >
<path fill="black" d="M44 0 L44 760 L133 760 L133 418 C133 371.333 129.667 330.333 127 281 L128 281 C142.667 306.333 154.333 326.667 169 352 L282 539 L390 539 L233 300 L396 0 L289 0 L170 233 L133 194 L133 0 L44 0 Z " /><g transform="translate(657,0)" ><path fill="black" d="M-508 -221 L-508 -211 C-499.957 -176.146 -486.669 -103.7 -484 -61 L-394 -61 L-394 -69 C-404.667 -114.333 -428 -178.333 -452 -221 L-508 -221 Z " /></g></glyph>
<glyph glyph-name="kgreenlandic" unicode="&#x138;" horiz-adv-x="440" d="M42 0 L42 539 L133 539 L133 419 C133 372.333 129.667 330.333 127 281 L128 281 C141.333 306.333 154.333 328 169 352 L281 539 L390 539 L233 299 L396 0 L287 0 L169 232 L133 193 L133 0 L42 0 Z " />
<glyph glyph-name="Lacute" unicode="&#x139;" horiz-adv-x="440" >
<path fill="black" d="M368 92 L368 0 L56 0 L56 714 L149 714 L149 92 L368 92 Z " /><g transform="translate(-104,175)" ><path fill="black" d="M156 606 L156 617 C185.333 671.667 207 720.667 223 766 L326 766 L326 757 C306.995 716.275 250.168 642.797 216 606 L156 606 Z " /></g></glyph>
<glyph glyph-name="lacute" unicode="&#x13a;" horiz-adv-x="440" >
<path fill="black" d="M50 70 L160 82 L160 680 L59 689 L59 760 L252 760 L252 82 L359 70 L359 0 L50 0 L50 70 Z " /><g transform="translate(-2,221)" ><path fill="black" d="M156 606 L156 617 C185.333 671.667 207 720.667 223 766 L326 766 L326 757 C306.995 716.275 250.168 642.797 216 606 L156 606 Z " /></g></glyph>
<glyph glyph-name="uni013B" unicode="&#x13b;" horiz-adv-x="440" >
<path fill="black" d="M368 92 L368 0 L56 0 L56 714 L149 714 L149 92 L368 92 Z " /><g transform="translate(661,0)" ><path fill="black" d="M-508 -221 L-508 -211 C-499.957 -176.146 -486.669 -103.7 -484 -61 L-394 -61 L-394 -69 C-404.667 -114.333 -428 -178.333 -452 -221 L-508 -221 Z " /></g></glyph>
<glyph glyph-name="uni013C" unicode="&#x13c;" horiz-adv-x="440" >
<path fill="black" d="M50 70 L160 82 L160 680 L59 689 L59 760 L252 760 L252 82 L359 70 L359 0 L50 0 L50 70 Z " /><g transform="translate(648,0)" ><path fill="black" d="M-508 -221 L-508 -211 C-499.957 -176.146 -486.669 -103.7 -484 -61 L-394 -61 L-394 -69 C-404.667 -114.333 -428 -178.333 -452 -221 L-508 -221 Z " /></g></glyph>
<glyph glyph-name="Lcaron" unicode="&#x13d;" horiz-adv-x="440" >
<path fill="black" d="M368 92 L368 0 L56 0 L56 714 L149 714 L149 92 L368 92 Z " /><g transform="translate(346,0)" ><path fill="black" d="M-53 554 L-53 562 C-44.9767 591.419 -36.5952 677.667 -34 714 L56 714 L56 707 C47.9592 664.116 22.7698 592.943 2 554 L-53 554 Z " /></g></glyph>
<glyph glyph-name="lcaron" unicode="&#x13e;" horiz-adv-x="440" >
<path fill="black" d="M50 70 L160 82 L160 680 L59 689 L59 760 L252 760 L252 82 L359 70 L359 0 L50 0 L50 70 Z " /><g transform="translate(374,46)" ><path fill="black" d="M-53 554 L-53 562 C-44.9767 591.419 -36.5952 677.667 -34 714 L56 714 L56 707 C47.9592 664.116 22.7698 592.943 2 554 L-53 554 Z " /></g></glyph>
<glyph glyph-name="Ldot" unicode="&#x13f;" horiz-adv-x="440" >
<g transform="translate(2,0)" ><path fill="black" d="M368 92 L368 0 L56 0 L56 714 L149 714 L149 92 L368 92 Z " /></g><g transform="translate(120,323)" ><path fill="black" d="M206 -12 C171.333 -12 148 11.3333 148 58 C148 104.667 170 127 206 127 C239.333 127 262 106 262 58 C262 11.3333 238 -12 206 -12 Z " /></g></glyph>
<glyph glyph-name="ldot" unicode="&#x140;" horiz-adv-x="440" >
<path fill="black" d="M50 70 L160 82 L160 680 L59 689 L59 760 L252 760 L252 82 L359 70 L359 0 L50 0 L50 70 Z " /><g transform="translate(208,340)" ><path fill="black" d="M206 -12 C171.333 -12 148 11.3333 148 58 C148 104.667 170 127 206 127 C239.333 127 262 106 262 58 C262 11.3333 238 -12 206 -12 Z " /></g></glyph>
<glyph glyph-name="Lslash" unicode="&#x141;" horiz-adv-x="440" d="M56 311 L3 277 L3 350 L56 384 L56 714 L149 714 L149 443 L277 525 L277 452 L149 370 L149 92 L368 92 L368 0 L56 0 L56 311 Z " />
<glyph glyph-name="lslash" unicode="&#x142;" horiz-adv-x="440" d="M52 70 L162 82 L162 331 L77 277 L77 350 L162 404 L162 680 L61 689 L61 760 L254 760 L254 463 L351 525 L351 452 L254 390 L254 82 L361 70 L361 0 L52 0 L52 70 Z " />
<glyph glyph-name="Nacute" unicode="&#x143;" horiz-adv-x="440" >
<path fill="black" d="M33 0 L33 714 L157 714 L302 96 L306 96 C303.391 132.524 296 220.676 296 285 L296 714 L378 714 L378 0 L257 0 L108 622 L103 622 C107 551.333 113 489.667 113 415 L113 0 L33 0 Z " /><g transform="translate(2,175)" ><path fill="black" d="M156 606 L156 617 C185.333 671.667 207 720.667 223 766 L326 766 L326 757 C306.995 716.275 250.168 642.797 216 606 L156 606 Z " /></g></glyph>
<glyph glyph-name="nacute" unicode="&#x144;" horiz-adv-x="440" >
<path fill="black" d="M42 0 L42 539 L118 539 L130 468 L134 468 C156.667 522.667 195 550 243 550 C325.667 550 373 490.333 373 353 L373 0 L280 0 L280 343 C280 425 259.333 466 218 466 C162 466 134 405.333 134 284 L134 0 L42 0 Z " /><g transform="translate(8,0)" ><path fill="black" d="M156 606 L156 617 C185.333 671.667 207 720.667 223 766 L326 766 L326 757 C306.995 716.275 250.168 642.797 216 606 L156 606 Z " /></g></glyph>
<glyph glyph-name="uni0145" unicode="&#x145;" horiz-adv-x="440" >
<path fill="black" d="M33 0 L33 714 L157 714 L302 96 L306 96 C303.391 132.524 296 220.676 296 285 L296 714 L378 714 L378 0 L257 0 L108 622 L103 622 C107 551.333 113 489.667 113 415 L113 0 L33 0 Z " /><g transform="translate(645,0)" ><path fill="black" d="M-508 -221 L-508 -211 C-499.957 -176.146 -486.669 -103.7 -484 -61 L-394 -61 L-394 -69 C-404.667 -114.333 -428 -178.333 -452 -221 L-508 -221 Z " /></g></glyph>
<glyph glyph-name="uni0146" unicode="&#x146;" horiz-adv-x="440" >
<path fill="black" d="M42 0 L42 539 L118 539 L130 468 L134 468 C156.667 522.667 195 550 243 550 C325.667 550 373 490.333 373 353 L373 0 L280 0 L280 343 C280 425 259.333 466 218 466 C162 466 134 405.333 134 284 L134 0 L42 0 Z " /><g transform="translate(648,0)" ><path fill="black" d="M-508 -221 L-508 -211 C-499.957 -176.146 -486.669 -103.7 -484 -61 L-394 -61 L-394 -69 C-404.667 -114.333 -428 -178.333 -452 -221 L-508 -221 Z " /></g></glyph>
<glyph glyph-name="Ncaron" unicode="&#x147;" horiz-adv-x="440" >
<path fill="black" d="M33 0 L33 714 L157 714 L302 96 L306 96 C303.391 132.524 296 220.676 296 285 L296 714 L378 714 L378 0 L257 0 L108 622 L103 622 C107 551.333 113 489.667 113 415 L113 0 L33 0 Z " /><g transform="translate(4,175)" ><path fill="black" d="M87 766 L140 766 C158.667 743.333 181 708.667 205 674 C231.667 712.667 246 734 270 766 L323 766 L323 755 C298.947 714.912 263.705 650.496 248 606 L162 606 C146 648.667 113.667 711 87 755 L87 766 Z " /></g></glyph>
<glyph glyph-name="ncaron" unicode="&#x148;" horiz-adv-x="440" >
<path fill="black" d="M42 0 L42 539 L118 539 L130 468 L134 468 C156.667 522.667 195 550 243 550 C325.667 550 373 490.333 373 353 L373 0 L280 0 L280 343 C280 425 259.333 466 218 466 C162 466 134 405.333 134 284 L134 0 L42 0 Z " /><g transform="translate(10,0)" ><path fill="black" d="M87 766 L140 766 C158.667 743.333 181 708.667 205 674 C231.667 712.667 246 734 270 766 L323 766 L323 755 C298.947 714.912 263.705 650.496 248 606 L162 606 C146 648.667 113.667 711 87 755 L87 766 Z " /></g></glyph>
<glyph glyph-name="napostrophe" unicode="&#x149;" horiz-adv-x="440" d="M50 0 L50 539 L126 539 L138 467 L143 467 C164.333 522.333 199.667 550 249 550 C326.333 550 373 490.333 373 353 L373 0 L280 0 L280 338 C280 421.333 258.667 463 216 463 C162.667 463 142 399.333 142 274 L142 0 L50 0 Z M-69 461 C-55.6647 541.012 -39.4055 641.026 -34 714 L59 714 L65 703 C50.3333 619 27 533 3 461 L-69 461 Z " />
<glyph glyph-name="Eng" unicode="&#x14a;" horiz-adv-x="440" d="M177 -115 C192.333 -121.667 207.667 -125 223 -125 C269.667 -125 302 -88 302 0 L257 0 L108 622 L103 622 C107 551.333 113 489.667 113 415 L113 0 L33 0 L33 714 L157 714 L302 96 L306 96 C303.391 132.524 296 220.676 296 285 L296 714 L378 714 L378 0 L377 0 C377 -131.333 329.667 -197 235 -197 C214.333 -197 195 -193.333 177 -186 L177 -115 Z " />
<glyph glyph-name="eng" unicode="&#x14b;" horiz-adv-x="440" d="M199 -148 C211 -154 223.333 -157 236 -157 C260.549 -157 237.746 -115.126 272 -15 L280 55 L280 343 C280 425 259.333 466 218 466 C162 466 134 405.333 134 284 L134 0 L42 0 L42 539 L118 539 L130 468 L134 468 C156.667 522.667 195 550 243 550 C325.667 550 373 490.333 373 353 L373 0 L370 0 L370 -76 C370 -176 335.667 -240 253 -240 C231.667 -240 215 -236.667 199 -230 L199 -148 Z " />
<glyph glyph-name="Omacron" unicode="&#x14c;" horiz-adv-x="440" >
<path fill="black" d="M205 -9 C69.0779 -9 18 149.407 18 359 C18 595 74.6667 726 204 726 C339.03 726 392 571.333 392 358 C392 146.338 340.922 -9 205 -9 Z M206 79 C271.333 79 297 176.667 297 358 C297 540.667 270.333 637 205 637 C137 637 112 536.667 112 358 C112 179.333 140.667 79 206 79 Z " /><g transform="translate(3,164)" ><path fill="black" d="M96 704 L307 704 L307 634 L96 634 L96 704 Z " /></g></glyph>
<glyph glyph-name="omacron" unicode="&#x14d;" horiz-adv-x="440" >
<path fill="black" d="M205 -10 C86.7489 -10 27 101.385 27 272 C27 442.667 89.3333 550 204 550 C312 550 383 448.667 383 270 C383 102.104 327.615 -10 205 -10 Z M205 75 C259.667 75 287 140.333 287 271 C287 400.333 257.333 465 204 465 C150 465 123 400.333 123 271 C123 140.333 150.333 75 205 75 Z " /><g transform="translate(3,-11)" ><path fill="black" d="M96 704 L307 704 L307 634 L96 634 L96 704 Z " /></g></glyph>
<glyph glyph-name="Obreve" unicode="&#x14e;" horiz-adv-x="440" >
<path fill="black" d="M205 -9 C69.0779 -9 18 149.407 18 359 C18 595 74.6667 726 204 726 C339.03 726 392 571.333 392 358 C392 146.338 340.922 -9 205 -9 Z M206 79 C271.333 79 297 176.667 297 358 C297 540.667 270.333 637 205 637 C137 637 112 536.667 112 358 C112 179.333 140.667 79 206 79 Z " /><g transform="translate(0,175)" ><path fill="black" d="M151 748 C154.333 700 172 676 204 676 C236.667 676 255 700 259 748 L314 748 C314 661.333 272 610 204 610 C140 610 97.3333 656 96 748 L151 748 Z " /></g></glyph>
<glyph glyph-name="obreve" unicode="&#x14f;" horiz-adv-x="440" >
<path fill="black" d="M205 -10 C86.7489 -10 27 101.385 27 272 C27 442.667 89.3333 550 204 550 C312 550 383 448.667 383 270 C383 102.104 327.615 -10 205 -10 Z M205 75 C259.667 75 287 140.333 287 271 C287 400.333 257.333 465 204 465 C150 465 123 400.333 123 271 C123 140.333 150.333 75 205 75 Z " /><path fill="black" d="M151 748 C154.333 700 172 676 204 676 C236.667 676 255 700 259 748 L314 748 C314 661.333 272 610 204 610 C140 610 97.3333 656 96 748 L151 748 Z " /></glyph>
<glyph glyph-name="Ohungarumlaut" unicode="&#x150;" horiz-adv-x="440" d="M205 -9 C69.0779 -9 18 149.407 18 359 C18 595 74.6667 726 204 726 C339.03 726 392 571.333 392 358 C392 146.338 340.922 -9 205 -9 Z M206 79 C271.333 79 297 176.667 297 358 C297 540.667 270.333 637 205 637 C137 637 112 536.667 112 358 C112 179.333 140.667 79 206 79 Z M107 780 L107 791 C131.101 844.557 156.185 907.555 167 940 L252 940 L252 931 C233.539 886.167 187.644 822.287 148 780 L107 780 Z M232 780 L232 791 C256.101 844.557 281.185 907.555 292 940 L377 940 L377 931 C358.539 886.167 312.644 822.287 273 780 L232 780 Z " />
<glyph glyph-name="ohungarumlaut" unicode="&#x151;" horiz-adv-x="440" d="M205 -10 C86.7489 -10 27 101.385 27 272 C27 442.667 89.3333 550 204 550 C312 550 383 448.667 383 270 C383 102.104 327.615 -10 205 -10 Z M205 75 C259.667 75 287 140.333 287 271 C287 400.333 257.333 465 204 465 C150 465 123 400.333 123 271 C123 140.333 150.333 75 205 75 Z M107 605 L107 616 C131.101 669.557 156.185 732.555 167 765 L252 765 L252 756 C233.539 711.167 187.644 647.287 148 605 L107 605 Z M232 605 L232 616 C256.101 669.557 281.185 732.555 292 765 L377 765 L377 756 C358.539 711.167 312.644 647.287 273 605 L232 605 Z " />
<glyph glyph-name="OE" unicode="&#x152;" horiz-adv-x="440" d="M391 92 L391 0 L220 0 C204 -6.66667 187.333 -10 170 -10 C55.4372 -10 18 135.892 18 359 C18 578.61 56.8701 724 169 724 C183.667 724 200.667 720.667 222 714 L391 714 L391 622 L294 622 L294 418 L377 418 L377 326 L294 326 L294 92 L391 92 Z M208 626 C201.333 634.667 191 639 177 639 C123.589 639 104 530.177 104 357 C104 183.667 121.667 78 175 78 C188.333 78 199.333 82 208 90 L208 626 Z " />
<glyph glyph-name="oe" unicode="&#x153;" horiz-adv-x="440" d="M389 26 C367 2 341.333 -10 312 -10 C270.667 -10 234.667 17 216 81 C193.333 17 168.667 -10 130 -10 C47.3333 -10 15 83.3333 15 270 C15 464.667 48 549 128 549 C166.667 549 195.333 523.333 214 458 C232.667 518.667 259.667 549 295 549 C367 549 399 452.667 399 298 L399 247 L253 247 C254.333 129.667 280.333 73 323 73 C344.333 73 367.667 86.3333 389 109 L389 26 Z M132 73 C162.667 73 173 143 173 271 C173 401 159 466 131 466 C101.667 466 91 405.667 91 271 C91 144.333 101.333 73 132 73 Z M327 324 C325.667 421.333 311.333 466 290 466 C265.004 466 251 400.312 251 324 L327 324 Z " />
<glyph glyph-name="Racute" unicode="&#x154;" horiz-adv-x="440" >
<path fill="black" d="M48 0 L48 714 L183 714 C304.333 714 365 646 365 510 C365 402 333 343.333 281 314 L396 0 L296 0 L201 288 L138 288 L138 0 L48 0 Z M138 374 L181 374 C242.333 374 273 417.667 273 505 C273 593 244 628 180 628 L138 628 L138 374 Z " /><g transform="translate(-2,175)" ><path fill="black" d="M156 606 L156 617 C185.333 671.667 207 720.667 223 766 L326 766 L326 757 C306.995 716.275 250.168 642.797 216 606 L156 606 Z " /></g></glyph>
<glyph glyph-name="racute" unicode="&#x155;" horiz-adv-x="440" >
<path fill="black" d="M27 70 L120 82 L120 455 L32 467 L32 539 L190 539 L199 445 L204 445 C224 509 262 550 322 550 C340.667 550 363.333 545.333 390 532 L366 435 C348.667 445.667 325.333 449 308 449 C245.645 449 210 374.082 210 271 L210 82 L312 70 L312 0 L27 0 L27 70 Z " /><g transform="translate(8,0)" ><path fill="black" d="M156 606 L156 617 C185.333 671.667 207 720.667 223 766 L326 766 L326 757 C306.995 716.275 250.168 642.797 216 606 L156 606 Z " /></g></glyph>
<glyph glyph-name="uni0156" unicode="&#x156;" horiz-adv-x="440" >
<path fill="black" d="M48 0 L48 714 L183 714 C304.333 714 365 646 365 510 C365 402 333 343.333 281 314 L396 0 L296 0 L201 288 L138 288 L138 0 L48 0 Z M138 374 L181 374 C242.333 374 273 417.667 273 505 C273 593 244 628 180 628 L138 628 L138 374 Z " /><g transform="translate(655,0)" ><path fill="black" d="M-508 -221 L-508 -211 C-499.957 -176.146 -486.669 -103.7 -484 -61 L-394 -61 L-394 -69 C-404.667 -114.333 -428 -178.333 -452 -221 L-508 -221 Z " /></g></glyph>
<glyph glyph-name="uni0157" unicode="&#x157;" horiz-adv-x="440" >
<path fill="black" d="M27 70 L120 82 L120 455 L32 467 L32 539 L190 539 L199 445 L204 445 C224 509 262 550 322 550 C340.667 550 363.333 545.333 390 532 L366 435 C348.667 445.667 325.333 449 308 449 C245.645 449 210 374.082 210 271 L210 82 L312 70 L312 0 L27 0 L27 70 Z " /><g transform="translate(608,0)" ><path fill="black" d="M-508 -221 L-508 -211 C-499.957 -176.146 -486.669 -103.7 -484 -61 L-394 -61 L-394 -69 C-404.667 -114.333 -428 -178.333 -452 -221 L-508 -221 Z " /></g></glyph>
<glyph glyph-name="Rcaron" unicode="&#x158;" horiz-adv-x="440" >
<path fill="black" d="M48 0 L48 714 L183 714 C304.333 714 365 646 365 510 C365 402 333 343.333 281 314 L396 0 L296 0 L201 288 L138 288 L138 0 L48 0 Z M138 374 L181 374 C242.333 374 273 417.667 273 505 C273 593 244 628 180 628 L138 628 L138 374 Z " /><g transform="translate(0,175)" ><path fill="black" d="M87 766 L140 766 C158.667 743.333 181 708.667 205 674 C231.667 712.667 246 734 270 766 L323 766 L323 755 C298.947 714.912 263.705 650.496 248 606 L162 606 C146 648.667 113.667 711 87 755 L87 766 Z " /></g></glyph>
<glyph glyph-name="rcaron" unicode="&#x159;" horiz-adv-x="440" >
<path fill="black" d="M27 70 L120 82 L120 455 L32 467 L32 539 L190 539 L199 445 L204 445 C224 509 262 550 322 550 C340.667 550 363.333 545.333 390 532 L366 435 C348.667 445.667 325.333 449 308 449 C245.645 449 210 374.082 210 271 L210 82 L312 70 L312 0 L27 0 L27 70 Z " /><g transform="translate(10,0)" ><path fill="black" d="M87 766 L140 766 C158.667 743.333 181 708.667 205 674 C231.667 712.667 246 734 270 766 L323 766 L323 755 C298.947 714.912 263.705 650.496 248 606 L162 606 C146 648.667 113.667 711 87 755 L87 766 Z " /></g></glyph>
<glyph glyph-name="Sacute" unicode="&#x15a;" horiz-adv-x="440" >
<path fill="black" d="M46 120 C88.6667 93.3333 132.667 78 178 78 C249.818 78 273 129.234 273 189 C273 258.541 237.773 284.265 171 327 C102.63 374.333 46 424.641 46 536 C46 664 113 726 217 726 C265 726 312.333 712.333 359 685 L329 601 C291.667 625.667 255.667 638 221 638 C162.333 638 140 599 140 539 C140 472.278 172.66 445.004 234 405 C316.53 349.093 367 311.137 367 195 C367 59 295.667 -10 181 -10 C134.333 -10 84.6667 2 46 26 L46 120 Z " /><g transform="translate(6,175)" ><path fill="black" d="M156 606 L156 617 C185.333 671.667 207 720.667 223 766 L326 766 L326 757 C306.995 716.275 250.168 642.797 216 606 L156 606 Z " /></g></glyph>
<glyph glyph-name="sacute" unicode="&#x15b;" horiz-adv-x="440" >
<path fill="black" d="M58 115 C94 91 145 74 193 74 C253 74 267 102.667 267 144 C267 183.834 251.148 195.115 174 243 C106.513 283.492 61 322.056 61 404 C61 500 118 550 222 550 C268.667 550 308.333 540.667 355 514 L324 436 C284 458.667 254.667 467 224 467 C177.333 467 156 444.667 156 406 C156 366.548 182.416 350.55 250 310 C322.002 267.332 360 236.053 360 148 C360 44 305.333 -10 188 -10 C137.333 -10 94 1.33333 58 24 L58 115 Z " /><g transform="translate(5,0)" ><path fill="black" d="M156 606 L156 617 C185.333 671.667 207 720.667 223 766 L326 766 L326 757 C306.995 716.275 250.168 642.797 216 606 L156 606 Z " /></g></glyph>
<glyph glyph-name="Scircumflex" unicode="&#x15c;" horiz-adv-x="440" >
<path fill="black" d="M46 120 C88.6667 93.3333 132.667 78 178 78 C249.818 78 273 129.234 273 189 C273 258.541 237.773 284.265 171 327 C102.63 374.333 46 424.641 46 536 C46 664 113 726 217 726 C265 726 312.333 712.333 359 685 L329 601 C291.667 625.667 255.667 638 221 638 C162.333 638 140 599 140 539 C140 472.278 172.66 445.004 234 405 C316.53 349.093 367 311.137 367 195 C367 59 295.667 -10 181 -10 C134.333 -10 84.6667 2 46 26 L46 120 Z " /><g transform="translate(8,175)" ><path fill="black" d="M87 606 L87 617 C115 663.667 147.333 723.333 162 766 L247 766 C264.333 720.667 294 662.333 322 617 L322 606 L270 606 C250 631.333 229 663.333 205 698 C179.667 663.333 157.333 628.667 140 606 L87 606 Z " /></g></glyph>
<glyph glyph-name="scircumflex" unicode="&#x15d;" horiz-adv-x="440" >
<path fill="black" d="M58 115 C94 91 145 74 193 74 C253 74 267 102.667 267 144 C267 183.834 251.148 195.115 174 243 C106.513 283.492 61 322.056 61 404 C61 500 118 550 222 550 C268.667 550 308.333 540.667 355 514 L324 436 C284 458.667 254.667 467 224 467 C177.333 467 156 444.667 156 406 C156 366.548 182.416 350.55 250 310 C322.002 267.332 360 236.053 360 148 C360 44 305.333 -10 188 -10 C137.333 -10 94 1.33333 58 24 L58 115 Z " /><g transform="translate(7,0)" ><path fill="black" d="M87 606 L87 617 C115 663.667 147.333 723.333 162 766 L247 766 C264.333 720.667 294 662.333 322 617 L322 606 L270 606 C250 631.333 229 663.333 205 698 C179.667 663.333 157.333 628.667 140 606 L87 606 Z " /></g></glyph>
<glyph glyph-name="Scedilla" unicode="&#x15e;" horiz-adv-x="440" d="M135 -175 C147 -179 158.667 -181 170 -181 C200.667 -181 215 -161.667 215 -135 C215 -100.333 193 -86.6667 157 -80 L181 -10 C134.333 -10 84.6667 2 46 26 L46 120 C88.6667 93.3333 132.667 78 178 78 C249.818 78 273 129.234 273 189 C273 258.541 237.773 284.265 171 327 C102.63 374.333 46 424.641 46 536 C46 664 113 726 217 726 C265 726 312.333 712.333 359 685 L329 601 C291.667 625.667 255.667 638 221 638 C162.333 638 140 599 140 539 C140 472.278 172.66 445.004 234 405 C316.53 349.093 367 311.137 367 195 C367 81.6667 317 13.6667 233 -5 L219 -48 C263.667 -58.6667 286 -89 286 -139 C286 -203 250.667 -240 184 -240 C166.667 -240 148.333 -238 135 -234 L135 -175 Z " />
<glyph glyph-name="scedilla" unicode="&#x15f;" horiz-adv-x="440" d="M142 -175 C154 -179 165.667 -181 177 -181 C207.667 -181 222 -161.667 222 -135 C222 -100.333 200 -86.6667 164 -80 L188 -10 C137.333 -10 94 1.33333 58 24 L58 115 C94 91 145 74 193 74 C253 74 267 102.667 267 144 C267 183.834 251.148 195.115 174 243 C106.513 283.492 61 322.056 61 404 C61 500 118 550 222 550 C268.667 550 308.333 540.667 355 514 L324 436 C284 458.667 254.667 467 224 467 C177.333 467 156 444.667 156 406 C156 366.548 182.416 350.55 250 310 C322.002 267.332 360 236.053 360 148 C360 61.3333 321.667 8.66667 239 -6 L226 -48 C270.667 -58.6667 293 -89 293 -139 C293 -203 257.667 -240 191 -240 C173.667 -240 155.333 -238 142 -234 L142 -175 Z " />
<glyph glyph-name="Scaron" unicode="&#x160;" horiz-adv-x="440" >
<path fill="black" d="M46 120 C88.6667 93.3333 132.667 78 178 78 C249.818 78 273 129.234 273 189 C273 258.541 237.773 284.265 171 327 C102.63 374.333 46 424.641 46 536 C46 664 113 726 217 726 C265 726 312.333 712.333 359 685 L329 601 C291.667 625.667 255.667 638 221 638 C162.333 638 140 599 140 539 C140 472.278 172.66 445.004 234 405 C316.53 349.093 367 311.137 367 195 C367 59 295.667 -10 181 -10 C134.333 -10 84.6667 2 46 26 L46 120 Z " /><g transform="translate(8,175)" ><path fill="black" d="M87 766 L140 766 C158.667 743.333 181 708.667 205 674 C231.667 712.667 246 734 270 766 L323 766 L323 755 C298.947 714.912 263.705 650.496 248 606 L162 606 C146 648.667 113.667 711 87 755 L87 766 Z " /></g></glyph>
<glyph glyph-name="scaron" unicode="&#x161;" horiz-adv-x="440" >
<path fill="black" d="M58 115 C94 91 145 74 193 74 C253 74 267 102.667 267 144 C267 183.834 251.148 195.115 174 243 C106.513 283.492 61 322.056 61 404 C61 500 118 550 222 550 C268.667 550 308.333 540.667 355 514 L324 436 C284 458.667 254.667 467 224 467 C177.333 467 156 444.667 156 406 C156 366.548 182.416 350.55 250 310 C322.002 267.332 360 236.053 360 148 C360 44 305.333 -10 188 -10 C137.333 -10 94 1.33333 58 24 L58 115 Z " /><g transform="translate(7,0)" ><path fill="black" d="M87 766 L140 766 C158.667 743.333 181 708.667 205 674 C231.667 712.667 246 734 270 766 L323 766 L323 755 C298.947 714.912 263.705 650.496 248 606 L162 606 C146 648.667 113.667 711 87 755 L87 766 Z " /></g></glyph>
<glyph glyph-name="uni0162" unicode="&#x162;" horiz-adv-x="440" d="M135 -175 C147 -179 158.667 -181 170 -181 C200.667 -181 215 -161.667 215 -135 C215 -100.333 193 -86.6667 157 -80 L184 0 L158 0 L158 624 L24 624 L24 714 L387 714 L387 624 L251 624 L251 0 L234 0 L219 -48 C263.667 -58.6667 286 -89 286 -139 C286 -203 250.667 -240 184 -240 C166.667 -240 148.333 -238 135 -234 L135 -175 Z " />
<glyph glyph-name="uni0163" unicode="&#x163;" horiz-adv-x="440" d="M189 -175 C201 -179 212.667 -181 224 -181 C254.667 -181 269 -161.667 269 -135 C269 -100.333 247 -86.6667 211 -80 L236 -6 C176 6 134 53.3333 134 156 L134 455 L28 455 L28 510 L139 542 L169 679 L228 679 L228 539 L376 539 L376 455 L226 455 L226 173 C226 102.333 253.333 77 296 77 C314.667 77 343 81 375 93 L375 7 C348.333 -3.66667 315.667 -7.33333 285 -10 L273 -48 C317.667 -58.6667 340 -89 340 -139 C340 -203 304.667 -240 238 -240 C220.667 -240 202.333 -238 189 -234 L189 -175 Z " />
<glyph glyph-name="Tcaron" unicode="&#x164;" horiz-adv-x="440" >
<path fill="black" d="M158 0 L158 624 L24 624 L24 714 L387 714 L387 624 L251 624 L251 0 L158 0 Z " /><g transform="translate(0,175)" ><path fill="black" d="M87 766 L140 766 C158.667 743.333 181 708.667 205 674 C231.667 712.667 246 734 270 766 L323 766 L323 755 C298.947 714.912 263.705 650.496 248 606 L162 606 C146 648.667 113.667 711 87 755 L87 766 Z " /></g></glyph>
<glyph glyph-name="tcaron" unicode="&#x165;" horiz-adv-x="440" >
<g transform="translate(2,0)" ><path fill="black" d="M134 455 L28 455 L28 510 L139 542 L169 679 L228 679 L228 539 L376 539 L376 455 L226 455 L226 173 C226 102.333 253.333 77 296 77 C314.667 77 343 81 375 93 L375 7 C344.333 -3.66667 305.333 -10 272 -10 C193.022 -10 134 34.8745 134 156 L134 455 Z " /></g><g transform="translate(377,46)" ><path fill="black" d="M-53 554 L-53 562 C-44.9767 591.419 -36.5952 677.667 -34 714 L56 714 L56 707 C47.9592 664.116 22.7698 592.943 2 554 L-53 554 Z " /></g></glyph>
<glyph glyph-name="Tbar" unicode="&#x166;" horiz-adv-x="440" d="M158 319 L71 319 L71 398 L158 398 L158 624 L24 624 L24 714 L387 714 L387 624 L251 624 L251 398 L340 398 L340 319 L251 319 L251 0 L158 0 L158 319 Z " />
<glyph glyph-name="tbar" unicode="&#x167;" horiz-adv-x="440" d="M134 267 L28 267 L28 338 L134 338 L134 455 L28 455 L28 510 L139 542 L169 679 L228 679 L228 539 L376 539 L376 455 L226 455 L226 338 L377 338 L377 267 L226 267 L226 173 C226 102.333 253.333 77 296 77 C314.667 77 343 81 375 93 L375 7 C344.333 -3.66667 305.333 -10 272 -10 C193.022 -10 134 34.8745 134 156 L134 267 Z " />
<glyph glyph-name="Utilde" unicode="&#x168;" horiz-adv-x="440" >
<path fill="black" d="M31 714 L125 714 L125 239 C125 124.333 147.667 78 205 78 C265 78 285 125.333 285 240 L285 714 L379 714 L379 234 C379 66 327.333 -10 206 -10 C84.6667 -10 31 67.3333 31 234 L31 714 Z " /><g transform="translate(0,175)" ><path fill="black" d="M79 610 C81.6291 673.098 96.4184 739 148 739 C190.444 739 222.222 683 254 683 C271.333 683 274.667 704 280 740 L331 740 C328.333 654.667 300.667 611 262 611 C221.667 611 181.333 668 157 668 C142.333 668 133 648.667 129 610 L79 610 Z " /></g></glyph>
<glyph glyph-name="utilde" unicode="&#x169;" horiz-adv-x="440" >
<path fill="black" d="M38 539 L130 539 L130 201 C130 109 151 76 199 76 C255 76 276 137 276 261 L276 539 L369 539 L369 0 L292 0 L279 73 L274 73 C252 17.6667 215.667 -10 165 -10 C85 -10 38 49.6667 38 179 L38 539 Z " /><path fill="black" d="M79 610 C81.6291 673.098 96.4184 739 148 739 C190.444 739 222.222 683 254 683 C271.333 683 274.667 704 280 740 L331 740 C328.333 654.667 300.667 611 262 611 C221.667 611 181.333 668 157 668 C142.333 668 133 648.667 129 610 L79 610 Z " /></glyph>
<glyph glyph-name="Umacron" unicode="&#x16a;" horiz-adv-x="440" >
<path fill="black" d="M31 714 L125 714 L125 239 C125 124.333 147.667 78 205 78 C265 78 285 125.333 285 240 L285 714 L379 714 L379 234 C379 66 327.333 -10 206 -10 C84.6667 -10 31 67.3333 31 234 L31 714 Z " /><g transform="translate(3,164)" ><path fill="black" d="M96 704 L307 704 L307 634 L96 634 L96 704 Z " /></g></glyph>
<glyph glyph-name="umacron" unicode="&#x16b;" horiz-adv-x="440" >
<path fill="black" d="M38 539 L130 539 L130 201 C130 109 151 76 199 76 C255 76 276 137 276 261 L276 539 L369 539 L369 0 L292 0 L279 73 L274 73 C252 17.6667 215.667 -10 165 -10 C85 -10 38 49.6667 38 179 L38 539 Z " /><g transform="translate(3,-11)" ><path fill="black" d="M96 704 L307 704 L307 634 L96 634 L96 704 Z " /></g></glyph>
<glyph glyph-name="Ubreve" unicode="&#x16c;" horiz-adv-x="440" >
<path fill="black" d="M31 714 L125 714 L125 239 C125 124.333 147.667 78 205 78 C265 78 285 125.333 285 240 L285 714 L379 714 L379 234 C379 66 327.333 -10 206 -10 C84.6667 -10 31 67.3333 31 234 L31 714 Z " /><g transform="translate(0,175)" ><path fill="black" d="M151 748 C154.333 700 172 676 204 676 C236.667 676 255 700 259 748 L314 748 C314 661.333 272 610 204 610 C140 610 97.3333 656 96 748 L151 748 Z " /></g></glyph>
<glyph glyph-name="ubreve" unicode="&#x16d;" horiz-adv-x="440" >
<path fill="black" d="M38 539 L130 539 L130 201 C130 109 151 76 199 76 C255 76 276 137 276 261 L276 539 L369 539 L369 0 L292 0 L279 73 L274 73 C252 17.6667 215.667 -10 165 -10 C85 -10 38 49.6667 38 179 L38 539 Z " /><path fill="black" d="M151 748 C154.333 700 172 676 204 676 C236.667 676 255 700 259 748 L314 748 C314 661.333 272 610 204 610 C140 610 97.3333 656 96 748 L151 748 Z " /></glyph>
<glyph glyph-name="Uring" unicode="&#x16e;" horiz-adv-x="440" >
<path fill="black" d="M31 714 L125 714 L125 239 C125 124.333 147.667 78 205 78 C265 78 285 125.333 285 240 L285 714 L379 714 L379 234 C379 66 327.333 -10 206 -10 C84.6667 -10 31 67.3333 31 234 L31 714 Z " /><g transform="translate(1,175)" ><path fill="black" d="M205 606 C146.333 606 110 649 110 713 C110 777 146.333 819 205 819 C261 819 298 777 298 713 C298 649 262.333 606 205 606 Z M205 661 C229 661 246 681 246 713 C246 743.667 231.667 765 205 765 C181 765 164 743.667 164 713 C164 681 181 661 205 661 Z " /></g></glyph>
<glyph glyph-name="uring" unicode="&#x16f;" horiz-adv-x="440" >
<path fill="black" d="M38 539 L130 539 L130 201 C130 109 151 76 199 76 C255 76 276 137 276 261 L276 539 L369 539 L369 0 L292 0 L279 73 L274 73 C252 17.6667 215.667 -10 165 -10 C85 -10 38 49.6667 38 179 L38 539 Z " /><g transform="translate(1,0)" ><path fill="black" d="M205 606 C146.333 606 110 649 110 713 C110 777 146.333 819 205 819 C261 819 298 777 298 713 C298 649 262.333 606 205 606 Z M205 661 C229 661 246 681 246 713 C246 743.667 231.667 765 205 765 C181 765 164 743.667 164 713 C164 681 181 661 205 661 Z " /></g></glyph>
<glyph glyph-name="Uhungarumlaut" unicode="&#x170;" horiz-adv-x="440" d="M31 714 L125 714 L125 239 C125 124.333 147.667 78 205 78 C265 78 285 125.333 285 240 L285 714 L379 714 L379 234 C379 66 327.333 -10 206 -10 C84.6667 -10 31 67.3333 31 234 L31 714 Z M107 780 L107 791 C131.101 844.557 156.185 907.555 167 940 L252 940 L252 931 C233.539 886.167 187.644 822.287 148 780 L107 780 Z M232 780 L232 791 C256.101 844.557 281.185 907.555 292 940 L377 940 L377 931 C358.539 886.167 312.644 822.287 273 780 L232 780 Z " />
<glyph glyph-name="uhungarumlaut" unicode="&#x171;" horiz-adv-x="440" d="M38 539 L130 539 L130 201 C130 109 151 76 199 76 C255 76 276 137 276 261 L276 539 L369 539 L369 0 L292 0 L279 73 L274 73 C252 17.6667 215.667 -10 165 -10 C85 -10 38 49.6667 38 179 L38 539 Z M107 605 L107 616 C131.101 669.557 156.185 732.555 167 765 L252 765 L252 756 C233.539 711.167 187.644 647.287 148 605 L107 605 Z M232 605 L232 616 C256.101 669.557 281.185 732.555 292 765 L377 765 L377 756 C358.539 711.167 312.644 647.287 273 605 L232 605 Z " />
<glyph glyph-name="Uogonek" unicode="&#x172;" horiz-adv-x="440" d="M277 -218 C266.333 -223.333 252.333 -227 231 -227 C173.667 -227 146 -192.333 146 -135 C146 -85.6667 165.333 -43.3333 200 -10 C82.6667 -7.33333 31 70 31 234 L31 714 L125 714 L125 239 C125 124.333 147.667 78 205 78 C265 78 285 125.333 285 240 L285 714 L379 714 L379 234 C379 112.667 349.333 37 290 7 C243.333 -31.6667 215 -68.3333 215 -115 C215 -144.333 226.667 -162 252 -162 C262.667 -162 270.333 -158.667 277 -156 L277 -218 Z " />
<glyph glyph-name="uogonek" unicode="&#x173;" horiz-adv-x="440" d="M281 73 L276 73 C254 17.6667 217.667 -10 167 -10 C87 -10 40 49.6667 40 179 L40 539 L132 539 L132 201 C132 109 153 76 201 76 C257 76 278 137 278 261 L278 539 L371 539 L371 1 L374 0 C338 -45.3333 329 -78.3333 329 -113 C329 -145.667 340.667 -162 364 -162 C376 -162 383.333 -158.667 390 -156 L390 -218 C379.333 -223.333 363.667 -227 345 -227 C286.333 -227 259 -194 259 -134 C259 -84.6667 277 -40 313 0 L294 0 L281 73 Z " />
<glyph glyph-name="Wcircumflex" unicode="&#x174;" horiz-adv-x="440" >
<path fill="black" d="M116 91 L139 309 L163 539 L247 539 L274 307 C281.991 240.409 293.277 140.015 296 91 L300 91 C300 154.901 305.34 341.796 308 395 L320 714 L400 714 L362 0 L252 0 L221 298 C214.333 355.333 211 396.333 207 431 L204 431 C201.333 396.333 197.667 355.667 191 297 L160 0 L51 0 L11 714 L86 714 L101 394 C103.652 335.665 113 154.668 113 91 L116 91 Z " /><g transform="translate(0,175)" ><path fill="black" d="M87 606 L87 617 C115 663.667 147.333 723.333 162 766 L247 766 C264.333 720.667 294 662.333 322 617 L322 606 L270 606 C250 631.333 229 663.333 205 698 C179.667 663.333 157.333 628.667 140 606 L87 606 Z " /></g></glyph>
<glyph glyph-name="wcircumflex" unicode="&#x175;" horiz-adv-x="440" >
<path fill="black" d="M113 93 C115.725 128.43 124.707 204.659 130 247 L163 452 L245 452 L277 247 C282.349 204.21 290.649 129.457 296 92 L298 92 C300.661 126.598 304.333 210.667 307 264 L324 539 L402 539 L349 0 L246 0 L222 194 C215.333 246 209 301.333 205 352 L202 352 C198 301.333 190.667 244 184 192 L159 0 L58 0 L7 539 L86 539 L103 265 C108.285 212.145 108.367 129.855 111 93 L113 93 Z " /><g transform="translate(1,0)" ><path fill="black" d="M87 606 L87 617 C115 663.667 147.333 723.333 162 766 L247 766 C264.333 720.667 294 662.333 322 617 L322 606 L270 606 C250 631.333 229 663.333 205 698 C179.667 663.333 157.333 628.667 140 606 L87 606 Z " /></g></glyph>
<glyph glyph-name="Ycircumflex" unicode="&#x176;" horiz-adv-x="440" >
<path fill="black" d="M158 0 L158 274 L12 714 L114 714 L205 371 L296 714 L397 714 L249 274 L249 0 L158 0 Z " /><g transform="translate(0,175)" ><path fill="black" d="M87 606 L87 617 C115 663.667 147.333 723.333 162 766 L247 766 C264.333 720.667 294 662.333 322 617 L322 606 L270 606 C250 631.333 229 663.333 205 698 C179.667 663.333 157.333 628.667 140 606 L87 606 Z " /></g></glyph>
<glyph glyph-name="ycircumflex" unicode="&#x177;" horiz-adv-x="440" >
<path fill="black" d="M31 -155 C43 -159 57.3333 -162 72 -162 C109.333 -162 137.333 -141.333 156 -64 L170 -4 L16 539 L116 539 L185 240 C197 189.333 204.333 146.667 211 108 L214 108 C218 145.333 228 198.333 236 241 L294 539 L395 539 L245 -65 C215.667 -181 166.667 -245 84 -245 C65.3333 -245 48.3333 -241 31 -237 L31 -155 Z " /><g transform="translate(1,0)" ><path fill="black" d="M87 606 L87 617 C115 663.667 147.333 723.333 162 766 L247 766 C264.333 720.667 294 662.333 322 617 L322 606 L270 606 C250 631.333 229 663.333 205 698 C179.667 663.333 157.333 628.667 140 606 L87 606 Z " /></g></glyph>
<glyph glyph-name="Ydieresis" unicode="&#x178;" horiz-adv-x="440" >
<g transform="translate(0,163)" ><path fill="black" d="M127 623 C100.333 623 80 643.333 80 686 C80 726 100.333 746 127 746 C153.667 746 174 724.667 174 686 C174 643.333 153.667 623 127 623 Z M282 623 C255.333 623 235 643.333 235 686 C235 726 255.333 746 282 746 C308.667 746 329 724.667 329 686 C329 643.333 308.667 623 282 623 Z " /></g><path fill="black" d="M158 0 L158 274 L12 714 L114 714 L205 371 L296 714 L397 714 L249 274 L249 0 L158 0 Z " /></glyph>
<glyph glyph-name="Zacute" unicode="&#x179;" horiz-adv-x="440" >
<path fill="black" d="M47 78 L265 624 L54 624 L54 714 L366 714 L366 636 L152 90 L369 90 L369 0 L47 0 L47 78 Z " /><g transform="translate(5,175)" ><path fill="black" d="M156 606 L156 617 C185.333 671.667 207 720.667 223 766 L326 766 L326 757 C306.995 716.275 250.168 642.797 216 606 L156 606 Z " /></g></glyph>
<glyph glyph-name="zacute" unicode="&#x17a;" horiz-adv-x="440" >
<path fill="black" d="M47 67 L251 455 L56 455 L56 539 L356 539 L356 462 L158 85 L364 85 L364 0 L47 0 L47 67 Z " /><path fill="black" d="M156 606 L156 617 C185.333 671.667 207 720.667 223 766 L326 766 L326 757 C306.995 716.275 250.168 642.797 216 606 L156 606 Z " /></glyph>
<glyph glyph-name="Zdotaccent" unicode="&#x17b;" horiz-adv-x="440" >
<path fill="black" d="M47 78 L265 624 L54 624 L54 714 L366 714 L366 636 L152 90 L369 90 L369 0 L47 0 L47 78 Z " /><g transform="translate(6,814)" ><path fill="black" d="M206 -12 C171.333 -12 148 11.3333 148 58 C148 104.667 170 127 206 127 C239.333 127 262 106 262 58 C262 11.3333 238 -12 206 -12 Z " /></g></glyph>
<glyph glyph-name="zdotaccent" unicode="&#x17c;" horiz-adv-x="440" >
<path fill="black" d="M47 67 L251 455 L56 455 L56 539 L356 539 L356 462 L158 85 L364 85 L364 0 L47 0 L47 67 Z " /><g transform="translate(1,639)" ><path fill="black" d="M206 -12 C171.333 -12 148 11.3333 148 58 C148 104.667 170 127 206 127 C239.333 127 262 106 262 58 C262 11.3333 238 -12 206 -12 Z " /></g></glyph>
<glyph glyph-name="Zcaron" unicode="&#x17d;" horiz-adv-x="440" >
<path fill="black" d="M47 78 L265 624 L54 624 L54 714 L366 714 L366 636 L152 90 L369 90 L369 0 L47 0 L47 78 Z " /><g transform="translate(7,175)" ><path fill="black" d="M87 766 L140 766 C158.667 743.333 181 708.667 205 674 C231.667 712.667 246 734 270 766 L323 766 L323 755 C298.947 714.912 263.705 650.496 248 606 L162 606 C146 648.667 113.667 711 87 755 L87 766 Z " /></g></glyph>
<glyph glyph-name="zcaron" unicode="&#x17e;" horiz-adv-x="440" >
<path fill="black" d="M47 67 L251 455 L56 455 L56 539 L356 539 L356 462 L158 85 L364 85 L364 0 L47 0 L47 67 Z " /><g transform="translate(2,0)" ><path fill="black" d="M87 766 L140 766 C158.667 743.333 181 708.667 205 674 C231.667 712.667 246 734 270 766 L323 766 L323 755 C298.947 714.912 263.705 650.496 248 606 L162 606 C146 648.667 113.667 711 87 755 L87 766 Z " /></g></glyph>
<glyph glyph-name="longs" unicode="&#x17f;" horiz-adv-x="440" d="M141 0 L141 572 C141 705.333 185.667 765 283 765 C312.333 765 336.667 758.667 366 748 L344 671 C329.333 677.667 311.667 682 293 682 C254.333 682 235 653 235 561 L235 0 L141 0 Z " />
<glyph glyph-name="florin" unicode="&#x192;" horiz-adv-x="440" d="M52 -150 C69.3333 -156 84.6667 -159 98 -159 C140.667 -159 158 -129.667 158 -63 L158 398 L69 398 L69 449 L158 478 L158 537 C158 666.333 196 724 284 724 C313.333 724 336.333 717.667 367 703 L346 629 C330 638.333 314.667 643 300 643 C262.667 643 247 614 247 538 L247 476 L340 476 L340 398 L247 398 L247 -48 C247 -177.333 212.667 -240 114 -240 C90 -240 70.6667 -236.333 52 -231 L52 -150 Z " />
<glyph glyph-name="uni0218" unicode="&#x218;" horiz-adv-x="440" >
<path fill="black" d="M46 120 C88.6667 93.3333 132.667 78 178 78 C249.818 78 273 129.234 273 189 C273 258.541 237.773 284.265 171 327 C102.63 374.333 46 424.641 46 536 C46 664 113 726 217 726 C265 726 312.333 712.333 359 685 L329 601 C291.667 625.667 255.667 638 221 638 C162.333 638 140 599 140 539 C140 472.278 172.66 445.004 234 405 C316.53 349.093 367 311.137 367 195 C367 59 295.667 -10 181 -10 C134.333 -10 84.6667 2 46 26 L46 120 Z " /><g transform="translate(645,0)" ><path fill="black" d="M-508 -221 L-508 -211 C-499.957 -176.146 -486.669 -103.7 -484 -61 L-394 -61 L-394 -69 C-404.667 -114.333 -428 -178.333 -452 -221 L-508 -221 Z " /></g></glyph>
<glyph glyph-name="uni0219" unicode="&#x219;" horiz-adv-x="440" >
<path fill="black" d="M58 115 C94 91 145 74 193 74 C253 74 267 102.667 267 144 C267 183.834 251.148 195.115 174 243 C106.513 283.492 61 322.056 61 404 C61 500 118 550 222 550 C268.667 550 308.333 540.667 355 514 L324 436 C284 458.667 254.667 467 224 467 C177.333 467 156 444.667 156 406 C156 366.548 182.416 350.55 250 310 C322.002 267.332 360 236.053 360 148 C360 44 305.333 -10 188 -10 C137.333 -10 94 1.33333 58 24 L58 115 Z " /><g transform="translate(652,0)" ><path fill="black" d="M-508 -221 L-508 -211 C-499.957 -176.146 -486.669 -103.7 -484 -61 L-394 -61 L-394 -69 C-404.667 -114.333 -428 -178.333 -452 -221 L-508 -221 Z " /></g></glyph>
<glyph glyph-name="uni021A" unicode="&#x21a;" horiz-adv-x="440" >
<path fill="black" d="M158 0 L158 624 L24 624 L24 714 L387 714 L387 624 L251 624 L251 0 L158 0 Z " /><g transform="translate(645,0)" ><path fill="black" d="M-508 -221 L-508 -211 C-499.957 -176.146 -486.669 -103.7 -484 -61 L-394 -61 L-394 -69 C-404.667 -114.333 -428 -178.333 -452 -221 L-508 -221 Z " /></g></glyph>
<glyph glyph-name="uni021B" unicode="&#x21b;" horiz-adv-x="440" >
<path fill="black" d="M134 455 L28 455 L28 510 L139 542 L169 679 L228 679 L228 539 L376 539 L376 455 L226 455 L226 173 C226 102.333 253.333 77 296 77 C314.667 77 343 81 375 93 L375 7 C344.333 -3.66667 305.333 -10 272 -10 C193.022 -10 134 34.8745 134 156 L134 455 Z " /><g transform="translate(699,0)" ><path fill="black" d="M-508 -221 L-508 -211 C-499.957 -176.146 -486.669 -103.7 -484 -61 L-394 -61 L-394 -69 C-404.667 -114.333 -428 -178.333 -452 -221 L-508 -221 Z " /></g></glyph>
<glyph glyph-name="uni0237" unicode="&#x237;" horiz-adv-x="410" d="M32 -140 C62.6667 -150.667 103.333 -159 126 -159 C173.333 -159 197 -124 197 -54 L197 454 L65 467 L65 539 L290 539 L290 -58 C290 -186 241.333 -245 136 -245 C104 -245 62.6667 -237.667 32 -227 L32 -140 Z " />
<glyph glyph-name="circumflex" unicode="&#x2c6;" horiz-adv-x="440" d="M87 606 L87 617 C115 663.667 147.333 723.333 162 766 L247 766 C264.333 720.667 294 662.333 322 617 L322 606 L270 606 C250 631.333 229 663.333 205 698 C179.667 663.333 157.333 628.667 140 606 L87 606 Z " />
<glyph glyph-name="caron" unicode="&#x2c7;" horiz-adv-x="440" d="M87 766 L140 766 C158.667 743.333 181 708.667 205 674 C231.667 712.667 246 734 270 766 L323 766 L323 755 C298.947 714.912 263.705 650.496 248 606 L162 606 C146 648.667 113.667 711 87 755 L87 766 Z " />
<glyph glyph-name="uni02C9" unicode="&#x2c9;" horiz-adv-x="440" >
<g transform="translate(3,-10)" ><path fill="black" d="M96 704 L307 704 L307 634 L96 634 L96 704 Z " /></g></glyph>
<glyph glyph-name="breve" unicode="&#x2d8;" horiz-adv-x="440" d="M151 748 C154.333 700 172 676 204 676 C236.667 676 255 700 259 748 L314 748 C314 661.333 272 610 204 610 C140 610 97.3333 656 96 748 L151 748 Z " />
<glyph glyph-name="dotaccent" unicode="&#x2d9;" horiz-adv-x="440" >
<g transform="translate(-1,640)" ><path fill="black" d="M206 -12 C171.333 -12 148 11.3333 148 58 C148 104.667 170 127 206 127 C239.333 127 262 106 262 58 C262 11.3333 238 -12 206 -12 Z " /></g></glyph>
<glyph glyph-name="ring" unicode="&#x2da;" horiz-adv-x="440" d="M205 606 C146.333 606 110 649 110 713 C110 777 146.333 819 205 819 C261 819 298 777 298 713 C298 649 262.333 606 205 606 Z M205 661 C229 661 246 681 246 713 C246 743.667 231.667 765 205 765 C181 765 164 743.667 164 713 C164 681 181 661 205 661 Z " />
<glyph glyph-name="ogonek" unicode="&#x2db;" horiz-adv-x="440" d="M270 -218 C259.333 -223.333 243.667 -227 225 -227 C166.333 -227 139 -194 139 -134 C139 -78 163.333 -28.3333 206 13 L254 0 C218 -45.3333 209 -78.3333 209 -113 C209 -145.667 220.667 -162 244 -162 C256 -162 263.333 -158.667 270 -156 L270 -218 Z " />
<glyph glyph-name="tilde" unicode="&#x2dc;" horiz-adv-x="440" d="M79 610 C81.6291 673.098 96.4184 739 148 739 C190.444 739 222.222 683 254 683 C271.333 683 274.667 704 280 740 L331 740 C328.333 654.667 300.667 611 262 611 C221.667 611 181.333 668 157 668 C142.333 668 133 648.667 129 610 L79 610 Z " />
<glyph glyph-name="hungarumlaut" unicode="&#x2dd;" horiz-adv-x="440" d="M98 606 L98 617 C122.101 670.557 147.185 733.555 158 766 L243 766 L243 757 C224.539 712.167 178.644 648.287 139 606 L98 606 Z M223 606 L223 617 C247.101 670.557 272.185 733.555 283 766 L368 766 L368 757 C349.539 712.167 303.644 648.287 264 606 L223 606 Z " />
<glyph glyph-name="uni0394" unicode="&#x394;" horiz-adv-x="440" d="M14 66 L148 714 L261 714 L396 62 L396 0 L14 0 L14 66 Z M296 85 L223 494 C216.333 534 209.333 581.667 204 623 C200 581.667 191.667 532.667 185 494 L114 86 L296 85 Z " />
<glyph glyph-name="uni03A9" unicode="&#x3a9;" horiz-adv-x="440" d="M13 87 L102 87 C54 148.333 18 247.667 18 405 C18 618.333 84.6667 724 206 724 C324.667 724 392 617.333 392 404 C392 246.667 359 147 307 87 L397 87 L397 0 L230 0 L230 84 C280.667 152 300 247.667 300 393 C300 554.333 272.667 640 206 640 C142 640 110 557.667 110 393 C110 250.333 131 150.667 179 84 L179 0 L13 0 L13 87 Z " />
<glyph glyph-name="uni03BC" unicode="&#x3bc;" horiz-adv-x="440" >
<path fill="black" d="M38 227 L40 227 L40 539 L132 539 L132 201 C132 109 153 76 201 76 C257 76 278 137 278 261 L278 539 L371 539 L371 0 L294 0 L281 73 L276 73 C254 17.6667 217.667 -10 167 -10 C152.333 -10 141 -7.66667 129 -5 L129 -240 L38 -240 L38 227 Z " /></glyph>
<glyph glyph-name="pi" unicode="&#x3c0;" horiz-adv-x="440" d="M76 459 L11 459 L11 501 L57 539 L393 539 L393 459 L329 459 L329 141 C329 94.3333 338.333 76 357 76 C368.333 76 378 79 386 85 L386 8 C374 -1.33333 352.667 -8 326 -8 C268.667 -8 244 39 244 127 L244 459 L160 459 L160 0 L76 0 L76 459 Z " />
<glyph glyph-name="Wgrave" unicode="&#x1e80;" horiz-adv-x="440" >
<path fill="black" d="M116 91 L139 309 L163 539 L247 539 L274 307 C281.991 240.409 293.277 140.015 296 91 L300 91 C300 154.901 305.34 341.796 308 395 L320 714 L400 714 L362 0 L252 0 L221 298 C214.333 355.333 211 396.333 207 431 L204 431 C201.333 396.333 197.667 355.667 191 297 L160 0 L51 0 L11 714 L86 714 L101 394 C103.652 335.665 113 154.668 113 91 L116 91 Z " /><g transform="translate(-2,175)" ><path fill="black" d="M86 766 L188 766 C204.306 719.799 237.183 654.634 256 617 L256 606 L195 606 C165.788 640.524 106.978 715.043 86 757 L86 766 Z " /></g></glyph>
<glyph glyph-name="wgrave" unicode="&#x1e81;" horiz-adv-x="440" >
<path fill="black" d="M113 93 C115.725 128.43 124.707 204.659 130 247 L163 452 L245 452 L277 247 C282.349 204.21 290.649 129.457 296 92 L298 92 C300.661 126.598 304.333 210.667 307 264 L324 539 L402 539 L349 0 L246 0 L222 194 C215.333 246 209 301.333 205 352 L202 352 C198 301.333 190.667 244 184 192 L159 0 L58 0 L7 539 L86 539 L103 265 C108.285 212.145 108.367 129.855 111 93 L113 93 Z " /><g transform="translate(-1,0)" ><path fill="black" d="M86 766 L188 766 C204.306 719.799 237.183 654.634 256 617 L256 606 L195 606 C165.788 640.524 106.978 715.043 86 757 L86 766 Z " /></g></glyph>
<glyph glyph-name="Wacute" unicode="&#x1e82;" horiz-adv-x="440" >
<path fill="black" d="M116 91 L139 309 L163 539 L247 539 L274 307 C281.991 240.409 293.277 140.015 296 91 L300 91 C300 154.901 305.34 341.796 308 395 L320 714 L400 714 L362 0 L252 0 L221 298 C214.333 355.333 211 396.333 207 431 L204 431 C201.333 396.333 197.667 355.667 191 297 L160 0 L51 0 L11 714 L86 714 L101 394 C103.652 335.665 113 154.668 113 91 L116 91 Z " /><g transform="translate(-2,175)" ><path fill="black" d="M156 606 L156 617 C185.333 671.667 207 720.667 223 766 L326 766 L326 757 C306.995 716.275 250.168 642.797 216 606 L156 606 Z " /></g></glyph>
<glyph glyph-name="wacute" unicode="&#x1e83;" horiz-adv-x="440" >
<path fill="black" d="M113 93 C115.725 128.43 124.707 204.659 130 247 L163 452 L245 452 L277 247 C282.349 204.21 290.649 129.457 296 92 L298 92 C300.661 126.598 304.333 210.667 307 264 L324 539 L402 539 L349 0 L246 0 L222 194 C215.333 246 209 301.333 205 352 L202 352 C198 301.333 190.667 244 184 192 L159 0 L58 0 L7 539 L86 539 L103 265 C108.285 212.145 108.367 129.855 111 93 L113 93 Z " /><g transform="translate(-1,0)" ><path fill="black" d="M156 606 L156 617 C185.333 671.667 207 720.667 223 766 L326 766 L326 757 C306.995 716.275 250.168 642.797 216 606 L156 606 Z " /></g></glyph>
<glyph glyph-name="Wdieresis" unicode="&#x1e84;" horiz-adv-x="440" >
<g transform="translate(0,163)" ><path fill="black" d="M127 623 C100.333 623 80 643.333 80 686 C80 726 100.333 746 127 746 C153.667 746 174 724.667 174 686 C174 643.333 153.667 623 127 623 Z M282 623 C255.333 623 235 643.333 235 686 C235 726 255.333 746 282 746 C308.667 746 329 724.667 329 686 C329 643.333 308.667 623 282 623 Z " /></g><path fill="black" d="M116 91 L139 309 L163 539 L247 539 L274 307 C281.991 240.409 293.277 140.015 296 91 L300 91 C300 154.901 305.34 341.796 308 395 L320 714 L400 714 L362 0 L252 0 L221 298 C214.333 355.333 211 396.333 207 431 L204 431 C201.333 396.333 197.667 355.667 191 297 L160 0 L51 0 L11 714 L86 714 L101 394 C103.652 335.665 113 154.668 113 91 L116 91 Z " /></glyph>
<glyph glyph-name="wdieresis" unicode="&#x1e85;" horiz-adv-x="440" >
<g transform="translate(1,-12)" ><path fill="black" d="M127 623 C100.333 623 80 643.333 80 686 C80 726 100.333 746 127 746 C153.667 746 174 724.667 174 686 C174 643.333 153.667 623 127 623 Z M282 623 C255.333 623 235 643.333 235 686 C235 726 255.333 746 282 746 C308.667 746 329 724.667 329 686 C329 643.333 308.667 623 282 623 Z " /></g><path fill="black" d="M113 93 C115.725 128.43 124.707 204.659 130 247 L163 452 L245 452 L277 247 C282.349 204.21 290.649 129.457 296 92 L298 92 C300.661 126.598 304.333 210.667 307 264 L324 539 L402 539 L349 0 L246 0 L222 194 C215.333 246 209 301.333 205 352 L202 352 C198 301.333 190.667 244 184 192 L159 0 L58 0 L7 539 L86 539 L103 265 C108.285 212.145 108.367 129.855 111 93 L113 93 Z " /></glyph>
<glyph glyph-name="uni2010" unicode="&#x2010;" horiz-adv-x="410" >
<g transform="translate(2,0)" ><path fill="black" d="M103 316 L307 316 L307 226 L103 226 L103 316 Z " /></g></glyph>
<glyph glyph-name="endash" unicode="&#x2013;" horiz-adv-x="440" d="M63 316 L348 316 L348 226 L63 226 L63 316 Z " />
<glyph glyph-name="emdash" unicode="&#x2014;" horiz-adv-x="440" >
<g transform="translate(0,391)" ><path fill="black" d="M2 -77 L408 -77 L408 -165 L2 -165 L2 -77 Z " /></g></glyph>
<glyph glyph-name="quoteleft" unicode="&#x2018;" horiz-adv-x="440" >
<path fill="black" d="M145 461 L140 472 C155.333 561.333 175.333 642 200 714 L271 714 C253.667 630 242.333 533 237 461 L145 461 Z " /></glyph>
<glyph glyph-name="quoteright" unicode="&#x2019;" horiz-adv-x="440" >
<g transform="translate(16,593)" ><path fill="black" d="M127 -132 C140.335 -51.9879 156.595 48.026 162 121 L255 121 L261 110 C246.333 26 223 -60 199 -132 L127 -132 Z " /></g></glyph>
<glyph glyph-name="quotesinglbase" unicode="&#x201a;" horiz-adv-x="440" >
<g transform="translate(2,0)" ><path fill="black" d="M127 -132 C140.335 -51.9879 156.595 48.026 162 121 L255 121 L261 110 C246.333 26 223 -60 199 -132 L127 -132 Z " /></g></glyph>
<glyph glyph-name="quotedblleft" unicode="&#x201c;" horiz-adv-x="440" >
<g transform="translate(-78,0)" ><path fill="black" d="M145 461 L140 472 C155.333 561.333 175.333 642 200 714 L271 714 C253.667 630 242.333 533 237 461 L145 461 Z " /></g><g transform="translate(88,0)" ><path fill="black" d="M145 461 L140 472 C155.333 561.333 175.333 642 200 714 L271 714 C253.667 630 242.333 533 237 461 L145 461 Z " /></g></glyph>
<glyph glyph-name="quotedblright" unicode="&#x201d;" horiz-adv-x="440" >
<g transform="translate(-83,594)" ><path fill="black" d="M127 -132 C140.335 -51.9879 156.595 48.026 162 121 L255 121 L261 110 C246.333 26 223 -60 199 -132 L127 -132 Z " /></g><g transform="translate(83,594)" ><path fill="black" d="M127 -132 C140.335 -51.9879 156.595 48.026 162 121 L255 121 L261 110 C246.333 26 223 -60 199 -132 L127 -132 Z " /></g></glyph>
<glyph glyph-name="quotedblbase" unicode="&#x201e;" horiz-adv-x="440" >
<g transform="translate(-73,0)" ><path fill="black" d="M127 -132 C140.335 -51.9879 156.595 48.026 162 121 L255 121 L261 110 C246.333 26 223 -60 199 -132 L127 -132 Z " /></g><g transform="translate(88,0)" ><path fill="black" d="M127 -132 C140.335 -51.9879 156.595 48.026 162 121 L255 121 L261 110 C246.333 26 223 -60 199 -132 L127 -132 Z " /></g></glyph>
<glyph glyph-name="dagger" unicode="&#x2020;" horiz-adv-x="440" d="M158 0 L175 491 L57 481 L57 564 L175 552 L158 760 L251 760 L233 552 L352 564 L352 481 L233 491 L251 0 L158 0 Z " />
<glyph glyph-name="daggerdbl" unicode="&#x2021;" horiz-adv-x="440" d="M57 258 L177 247 L164 384 L177 513 L57 502 L57 586 L177 573 L159 760 L252 760 L234 573 L352 586 L352 502 L234 513 L247 384 L234 247 L352 258 L352 174 L234 187 L252 0 L159 0 L177 187 L57 174 L57 258 Z " />
<glyph glyph-name="bullet" unicode="&#x2022;" horiz-adv-x="440" d="M205 225 C134.333 225 94 273 94 365 C94 457 133 506 205 506 C277 506 316 457 316 365 C316 274.333 275.667 225 205 225 Z " />
<glyph glyph-name="ellipsis" unicode="&#x2026;" horiz-adv-x="440" >
<path fill="black" d="M206 -12 C171.333 -12 148 11.3333 148 58 C148 104.667 170 127 206 127 C239.333 127 262 106 262 58 C262 11.3333 238 -12 206 -12 Z " /></glyph>
<glyph glyph-name="perthousand" unicode="&#x2030;" horiz-adv-x="440" d="M115 -168 C41.6667 -168 0 -87.3333 0 58 C0 205.333 38.3333 279 115 279 C154.333 279 184 258.667 204 218 C224 258.667 253.667 279 293 279 C369 279 411 202.333 411 57 C411 -92.3333 371.667 -168 293 -168 C255.667 -168 226.667 -147 206 -105 C186 -147 155.667 -168 115 -168 Z M202 456 C128.667 456 87 536.667 87 682 C87 829.333 125.333 903 202 903 C278 903 320 826.333 320 681 C320 531.667 280.667 456 202 456 Z M32 365 L369 416 L369 365 L32 314 L32 365 Z M116 -104 C148 -104 168 -53.3333 168 56 C168 165.333 148.333 214 115 214 C83 214 67 164 67 56 C67 -53.3333 82.6667 -104 116 -104 Z M294 -104 C326 -104 346 -53.3333 346 56 C346 165.333 326.333 214 293 214 C261 214 245 164 245 56 C245 -53.3333 260.667 -104 294 -104 Z M203 520 C235 520 255 570.667 255 680 C255 789.333 235.333 838 202 838 C170 838 154 788 154 680 C154 570.667 169.667 520 203 520 Z " />
<glyph glyph-name="guilsinglleft" unicode="&#x2039;" horiz-adv-x="440" d="M233 60 L113 260 L113 274 L233 474 L296 440 L213 267 L296 96 L233 60 Z " />
<glyph glyph-name="guilsinglright" unicode="&#x203a;" horiz-adv-x="440" d="M207 291 L125 462 L188 498 L308 298 L308 284 L188 84 L125 118 L207 291 Z " />
<glyph glyph-name="fraction" unicode="&#x2044;" horiz-adv-x="440" d="M27 365 L375 416 L375 365 L27 314 L27 365 Z " />
<glyph glyph-name="franc" unicode="&#x20a3;" horiz-adv-x="440" d="M79 127 L28 127 L28 201 L79 201 L79 714 L358 714 L358 622 L173 622 L173 412 L343 412 L343 322 L173 322 L173 201 L287 201 L287 127 L173 127 L173 0 L79 0 L79 127 Z " />
<glyph glyph-name="lira" unicode="&#x20a4;" horiz-adv-x="440" d="M366 87 L366 0 L57 0 L57 81 C99.6667 107.667 109.667 146.333 111 233 L54 233 L54 299 L111 299 L111 379 L54 379 L54 446 L111 446 L111 530 C111 659.333 161.333 724 256 724 C295.333 724 331.667 710.333 365 683 L337 606 C310.333 627.333 287 638 263 638 C220.333 638 202 607 202 531 L202 446 L309 446 L309 379 L202 379 L202 299 L309 299 L309 233 L201 233 C198.333 150.333 184 113.667 152 87 L366 87 Z " />
<glyph glyph-name="peseta" unicode="&#x20a7;" horiz-adv-x="440" d="M20 714 L147 714 C269.667 714 322 644.333 322 519 C322 493 319.333 467.333 314 442 L328 442 L328 319 L408 319 L408 252 L328 252 L328 133 C328 89 336.333 65 363 65 C377.667 65 397.333 70.6667 408 76 L408 10 C393.333 0.666667 373 -6 345 -6 C281 -6 249 33.3333 249 120 L249 252 L200 252 L200 295 L251 324 L254 345 C226 322.333 186.667 310 136 310 L113 310 L113 0 L20 0 L20 714 Z M131 397 C195 397 229 430 229 514 C229 589.333 200 627 142 627 L113 627 L113 397 L131 397 Z " />
<glyph glyph-name="Euro" unicode="&#x20ac;" horiz-adv-x="440" d="M39 310 L88 310 L88 351 C88 364.333 87.6667 376.667 89 390 L39 390 L39 452 L92 452 C102.658 601.213 155.028 725 258 725 C298 725 336 711.333 372 684 L341 601 C313 625 286.667 637 262 637 C208.667 637 188.667 565.333 182 452 L296 452 L296 390 L179 390 L179 351 L179 310 L279 310 L279 247 L183 247 C191 131 218.333 79 269 79 C299.667 79 326.333 91.3333 361 110 L361 19 C329 -1 293.667 -10 259 -10 C154.892 -10 106.406 91.4882 93 247 L39 247 L39 310 Z " />
<glyph glyph-name="uni2113" unicode="&#x2113;" horiz-adv-x="440" d="M111 268 C98.3333 261.333 79.6667 253.333 55 244 L55 316 C73.6667 324 92.3333 331.667 111 341 L111 555 C111 667 150 723 228 723 C298.667 723 340 666 340 562 C340 440.667 292.667 350 198 298 L198 172 C198 98.6667 208.333 65 239 65 C269.667 65 282.667 101.333 284 172 L355 172 C355 46.6667 312.667 -9 226 -9 C150 -9 111 54 111 174 L111 268 Z M197 373 C240.333 410.333 262 473 262 561 C262 622.333 249 651 229 651 C206.333 651 197 629 197 565 L197 373 Z " />
<glyph glyph-name="trademark" unicode="&#x2122;" horiz-adv-x="440" d="M182 365 L182 714 L255 714 L293 550 L332 714 L403 714 L403 365 L353 365 L353 564 C353 582.667 355 616.333 355 639 L352 639 L313 482 L272 482 L233 640 L231 640 C232.333 617.333 232 582.667 232 568 L232 365 L182 365 Z M54 365 L54 659 L-2 659 L-2 714 L162 714 L162 659 L108 659 L108 365 L54 365 Z " />
<glyph glyph-name="Omega" unicode="&#x2126;" horiz-adv-x="440" >
<g transform="translate(2,0)" ><path fill="black" d="M13 87 L102 87 C54 148.333 18 247.667 18 405 C18 618.333 84.6667 724 206 724 C324.667 724 392 617.333 392 404 C392 246.667 359 147 307 87 L397 87 L397 0 L230 0 L230 84 C280.667 152 300 247.667 300 393 C300 554.333 272.667 640 206 640 C142 640 110 557.667 110 393 C110 250.333 131 150.667 179 84 L179 0 L13 0 L13 87 Z " /></g></glyph>
<glyph glyph-name="estimated" unicode="&#x212e;" horiz-adv-x="440" d="M95 83 C117.667 52.3333 153.667 25 207 25 C283 25 327.667 75.3333 361 142 L390 119 C352.155 43.31 303.474 -17 208 -17 C72.0519 -17 2 110.896 2 263 C2 450.636 109.177 535 208 535 C317.437 535 408 429.563 408 259 L95 259 L95 83 Z M95 301 L316 301 L316 436 C297.333 462.667 256 494 208 494 C156 494 121.667 469 95 437 L95 301 Z " />
<glyph glyph-name="uni2219" unicode="&#x2219;" horiz-adv-x="410" >
<g transform="translate(4,277)" ><path fill="black" d="M206 -12 C171.333 -12 148 11.3333 148 58 C148 104.667 170 127 206 127 C239.333 127 262 106 262 58 C262 11.3333 238 -12 206 -12 Z " /></g></glyph>
<glyph glyph-name="radical" unicode="&#x221a;" horiz-adv-x="440" d="M160 -7 L87 368 L17 368 L17 447 L144 447 L200 124 L329 833 L409 833 L242 -7 L160 -7 Z " />
<glyph glyph-name="infinity" unicode="&#x221e;" horiz-adv-x="440" d="M114 195 C50 195 6 258.333 6 353 C6 440.87 42.4675 510 110 510 C151.333 510 178.333 480 205 424 C227.667 470.667 254.333 508 301 508 C364.922 508 404 442.926 404 356 C404 262.537 359.385 193 298 193 C255.333 193 226.667 229.333 204 276 C178.667 225.333 156.667 195 114 195 Z M120 269 C146.667 269 158.333 298.333 177 349 C158.333 399.667 143.667 437 117 437 C93 437 77 402.333 77 353 C77 306.333 89.3333 269 120 269 Z M291 267 C316.333 267 333 304.333 333 351 C333 399 315 435 291 435 C268.333 435 257.667 402 235 350 C252.333 303.333 265.667 267 291 267 Z " />
<glyph glyph-name="approxequal" unicode="&#x2248;" horiz-adv-x="440" >
<g transform="translate(0,-108)" ><path fill="black" d="M364 336 C340 302.667 312.333 286 281 286 C247.667 286 224.667 295 194 315 C165.333 333 141.667 342 123 342 C97.6667 342 72 322.333 46 283 L46 369 C68.6667 403.667 96 421 128 421 C158.667 421 183.333 409.667 214 391 C241.333 373 265.667 364 287 364 C312.333 364 341.333 386 364 422 L364 336 Z " /></g><g transform="translate(0,106)" ><path fill="black" d="M364 336 C340 302.667 312.333 286 281 286 C247.667 286 224.667 295 194 315 C165.333 333 141.667 342 123 342 C97.6667 342 72 322.333 46 283 L46 369 C68.6667 403.667 96 421 128 421 C158.667 421 183.333 409.667 214 391 C241.333 373 265.667 364 287 364 C312.333 364 341.333 386 364 422 L364 336 Z " /></g></glyph>
<glyph glyph-name="lessequal" unicode="&#x2264;" horiz-adv-x="440" d="M45 356 L45 409 L360 608 L360 520 L147 382 L360 242 L360 154 L45 356 Z M45 0 L45 78 L358 78 L358 0 L45 0 Z " />
<glyph glyph-name="greaterequal" unicode="&#x2265;" horiz-adv-x="440" d="M47 242 L260 382 L47 520 L47 608 L362 409 L362 356 L47 154 L47 242 Z M49 78 L362 78 L362 0 L49 0 L49 78 Z " />
</font>
</svg>
