<?xml version="1.0" encoding="UTF-8"?>
<svg xmlns="http://www.w3.org/2000/svg" xmlns:xlink="http://www.w3.org/1999/xlink" version="1.1" >
<font id="Monoto-2ExCd100Th" horiz-adv-x="370">
<font-face  font-family="Monoto 2 ExCd" units-per-em="1000" ascent="955" descent="-235" font-style="normal" font-weight="100" font-stretch="extra-condensed" cap-height="714" x-height="528" underline-position="-75" underline-thickness="50" />
<missing-glyph horiz-adv-x="375" d="M34 0 L34 714 L311 714 L311 0 L34 0 Z M277 51 L277 663 L68 663 L68 51 L277 51 Z " />
<glyph glyph-name="uni0000" horiz-adv-x="375" />
<glyph glyph-name="uni000D" unicode="&#xd;" horiz-adv-x="375" />
<glyph glyph-name="space" unicode="&#x20;" horiz-adv-x="375" />
<glyph glyph-name="exclam" unicode="&#x21;" horiz-adv-x="375" d="M163 174 L159 714 L186 714 L184 174 L163 174 Z M172 -12 C156 -12 150 4.33333 150 23 C150 41.6667 154.667 58 172 58 C190.667 58 195 41.6667 195 23 C195 4.33333 190.667 -12 172 -12 Z " />
<glyph glyph-name="quotedbl" unicode="&#x22;" horiz-adv-x="375" >
<g transform="translate(-51,0)" ><path fill="black" d="M163 456 L159 714 L185 714 L182 456 L163 456 Z " /></g><g transform="translate(51,0)" ><path fill="black" d="M163 456 L159 714 L185 714 L182 456 L163 456 Z " /></g></glyph>
<glyph glyph-name="numbersign" unicode="&#x23;" horiz-adv-x="375" d="M71 0 L94 231 L18 231 L18 255 L97 255 L119 471 L39 471 L39 495 L121 495 L144 714 L164 714 L142 495 L229 495 L251 714 L271 714 L251 495 L326 495 L326 471 L248 471 L227 255 L306 255 L306 231 L224 231 L201 0 L179 0 L203 231 L115 231 L91 0 L71 0 Z M206 255 L227 471 L139 471 L118 255 L206 255 Z " />
<glyph glyph-name="dollar" unicode="&#x24;" horiz-adv-x="375" d="M61 86 C89 67.3333 132.333 52.3333 171 51 L171 354 C104.281 394.031 59 436.587 59 537 C59 633 105.667 688.333 171 695 L171 760 L190 760 L190 696 C224 695.333 257 683.333 289 660 L279 636 C249.667 658.667 220 670 190 670 L190 371 C264.808 325.581 308 283.17 308 187 C308 91 263.333 34 190 26 L190 -58 L171 -58 L171 26 C125.667 27.3333 87.6667 42.3333 61 57 L61 86 Z M190 52 C246 57.3333 286 100.333 286 187 C286 266.307 251.658 300.108 190 343 L190 52 Z M82 538 C82 450.527 119.439 416.279 171 381 L171 670 C120.333 664.667 82 622 82 538 Z " />
<glyph glyph-name="percent" unicode="&#x25;" horiz-adv-x="375" d="M26 168 L287 545 L315 545 L54 168 L26 168 Z M248 -9 C185.333 -9 154 63 154 163 C154 258.922 184.918 330 248 330 C309.411 330 341 258.922 341 163 C341 63 310.667 -9 248 -9 Z M97 383 C34.3333 383 3 455 3 555 C3 650.922 33.9177 722 97 722 C158.411 722 190 650.922 190 555 C190 455 159.667 383 97 383 Z M248 15 C294.667 15 318 76.3333 318 163 C318 244.333 296 306 248 306 C198.667 306 177 247 177 163 C177 77.6667 198.667 15 248 15 Z M97 407 C143.667 407 167 468.333 167 555 C167 636.333 145 698 97 698 C47.6667 698 26 639 26 555 C26 469.667 47.6667 407 97 407 Z " />
<glyph glyph-name="ampersand" unicode="&#x26;" horiz-adv-x="375" d="M299 0 L257 90 C227.667 28.6667 189 -10 137 -10 C71.6667 -10 29 58.6667 29 176 C29 273.333 60.3333 336 115 392 C84.3333 458.667 60 514 60 582 C60 670 95 725 147 725 C197.667 725 230 675.667 230 581 C230 493 191.333 437 142 385 L255 148 C272.333 198.667 283.333 259.667 286 317 L308 317 C302.667 245 290.333 175 269 119 L325 0 L299 0 Z M126 368 C80.6667 317.333 53 260 53 176 C53 74.6667 89.6667 15 139 15 C183 15 218.667 57 244 117 L126 368 Z M131 408 C176.333 454.667 207 509 207 581 C207 655.667 185.667 700 147 700 C105.667 700 82 654 82 582 C82 520.667 104.333 466.667 131 408 Z " />
<glyph glyph-name="quotesingle" unicode="&#x27;" horiz-adv-x="375" d="M163 456 L159 714 L185 714 L182 456 L163 456 Z " />
<glyph glyph-name="parenleft" unicode="&#x28;" horiz-adv-x="375" d="M222 -158 C159.333 -44.6667 125 98 125 274 C125 452.667 160.667 606 222 714 L246 714 C178 595.333 148 444.333 148 275 C148 108.333 178 -38 246 -158 L222 -158 Z " />
<glyph glyph-name="parenright" unicode="&#x29;" horiz-adv-x="375" d="M82 -158 C150 -39.3333 180 111.667 180 281 C180 447.667 150 594 82 714 L106 714 C168.667 600.667 203 458 203 282 C203 103.333 167.333 -50 106 -158 L82 -158 Z " />
<glyph glyph-name="asterisk" unicode="&#x2a;" horiz-adv-x="375" d="M156 578 L55 627 L61 649 L161 594 L157 759 L180 759 L176 594 L276 650 L281 627 L181 578 L249 446 L232 431 L169 568 L105 431 L87 445 L156 578 Z " />
<glyph glyph-name="plus" unicode="&#x2b;" horiz-adv-x="375" d="M158 123 L158 340 L34 340 L34 364 L158 364 L158 583 L179 583 L179 364 L301 364 L301 340 L179 340 L179 123 L158 123 Z " />
<glyph glyph-name="comma" unicode="&#x2c;" horiz-adv-x="375" d="M139 -129 C157.667 -31.6667 169.333 40 176 116 L201 116 L204 104 C193.333 29.3333 177.667 -59.6667 159 -129 L139 -129 Z " />
<glyph glyph-name="hyphen" unicode="&#x2d;" horiz-adv-x="375" d="M88 290 L257 290 L257 265 L88 265 L88 290 Z " />
<glyph glyph-name="period" unicode="&#x2e;" horiz-adv-x="375" d="M173 -12 C154.333 -12 149 4.33333 149 23 C149 41.6667 154.333 58 173 58 C189 58 195 41.6667 195 23 C195 4.33333 189 -12 173 -12 Z " />
<glyph glyph-name="slash" unicode="&#x2f;" horiz-adv-x="375" d="M66 0 L247 714 L270 714 L90 0 L66 0 Z " />
<glyph glyph-name="zero" unicode="0" horiz-adv-x="375" d="M173 -8 C87.6667 -8 44 126 44 358 C44 572.225 77.0823 725 174 725 C268.329 725 301 571.416 301 359 C301 129.745 262.697 -8 173 -8 Z M258 589 C243.333 659.667 216.667 700 174 700 C95.645 700 68 558.108 68 359 C68 271 73.3333 201 84 145 L258 589 Z M93 108 C111.667 47.3333 138.667 17 174 17 C248.667 17 276 144.333 276 359 C276 431 272.667 495 266 547 L93 108 Z " />
<glyph glyph-name="one" unicode="1" horiz-adv-x="375" d="M86 20 L171 23 L171 565 L171 683 C160.333 668.333 152.667 658.333 138 641 L74 560 L59 580 L174 714 L196 714 L196 23 L280 20 L280 0 L86 0 L86 20 Z " />
<glyph glyph-name="two" unicode="2" horiz-adv-x="375" d="M48 21 L171 254 C224.688 356.007 259 426.51 259 539 C259 647 223 699 167 699 C132.333 699 98.6667 680 72 648 L58 668 C90 705.333 127 724 169 724 C238.333 724 283 657.667 283 539 C283 419.092 243.288 335.247 190 234 L81 27 L81 25 L299 25 L299 0 L48 0 L48 21 Z " />
<glyph glyph-name="three" unicode="3" horiz-adv-x="375" d="M46 53 C74 33 114.667 15 156 15 C233.333 15 274 81 274 189 C274 314.385 220.619 359 147 359 L108 359 L108 384 L148 384 C210.667 384 264 441 264 553 C264 649 227 700 167 700 C127 700 92 676.667 60 638 L48 658 C78.6667 696.667 117.333 724 168 724 C240 724 290 661 290 553 C290 454.333 250.667 392.667 200 374 L200 372 C264 354.667 300 297 300 189 C300 71.6667 252 -10 156 -10 C116 -10 76.6667 4.66667 46 26 L46 53 Z " />
<glyph glyph-name="four" unicode="4" horiz-adv-x="375" d="M36 207 L220 718 L249 718 L249 210 L308 210 L308 185 L249 185 L249 0 L225 0 L225 185 L36 185 L36 207 Z M225 210 L225 571 C225 626.562 226 644.007 226 682 L225 682 C213 646 203 619.333 191 582 L62 210 L225 210 Z " />
<glyph glyph-name="five" unicode="5" horiz-adv-x="375" d="M51 55 C75 32.3333 110 15 150 15 C229.134 15 274 98.9524 274 220 C274 332 239.667 401 161 401 C127.667 401 98 391.333 74 378 L61 393 L79 714 L272 714 L272 689 L101 689 L86 408 C104.667 414.667 130.333 426 165 426 C251.667 426 299 349.333 299 220 C299 83.8442 245.004 -10 150 -10 C107.333 -10 73.6667 6 51 26 L51 55 Z " />
<glyph glyph-name="six" unicode="6" horiz-adv-x="375" d="M68 328 C81.5408 374.039 114.006 438 180 438 C255.61 438 297 349.078 297 221 C297 79.6667 252.667 -12 174 -12 C82.3377 -12 43 119.329 43 305 C43 617.052 112.641 723 214 723 C235.333 723 254 718.667 270 710 L270 684 C255.333 692 235.333 698 214 698 C126 698 69.6667 586.667 67 328 L68 328 Z M174 13 C238 13 272 88.6667 272 222 C272 338 243.667 413 177 413 C111.381 413 70 334.9 70 248 C70 169.152 90.2597 13 174 13 Z " />
<glyph glyph-name="seven" unicode="7" horiz-adv-x="375" d="M99 0 L268 689 L39 689 L39 714 L295 714 L295 695 L126 0 L99 0 Z " />
<glyph glyph-name="eight" unicode="8" horiz-adv-x="375" d="M171 -10 C95.4416 -10 44 66.4113 44 173 C44 279.667 87.6667 338.667 149 380 C95.6667 421.333 58 471 58 563 C58 659 103.667 724 173 724 C245 724 288 661.667 288 563 C288 469.667 250 422.667 194 380 C260.667 330.667 301 275.667 301 177 C301 64.974 248.385 -10 171 -10 Z M172 15 C236 15 276 77.3333 276 176 C276 261.363 248.339 310.996 171 367 C112.947 327.419 69 274.735 69 172 C69 74.6667 109.333 15 172 15 Z M172 393 C226.667 433 263 477.667 263 563 C263 651 230.333 698 173 698 C118.333 698 82 647 82 563 C82 481.667 114.667 435.667 172 393 Z " />
<glyph glyph-name="nine" unicode="9" horiz-adv-x="375" d="M70 30 C84.6667 22 106.333 16 129 16 C215.667 16 274.333 130.667 277 380 L275 380 C261.371 336.387 228.252 276 164 276 C89.2814 276 46 363.03 46 492 C46 637.333 89 725 169 725 C262.463 725 300 593.671 300 408 C300 95.9481 230.359 -10 129 -10 C105.667 -10 86 -5.66667 70 3 L70 30 Z M166 301 C232.797 301 273 379.1 273 466 C273 544.978 255.255 700 170 700 C106 700 71 624.333 71 491 C71 375 102 301 166 301 Z " />
<glyph glyph-name="colon" unicode="&#x3a;" horiz-adv-x="375" >
<path fill="black" d="M173 -12 C154.333 -12 149 4.33333 149 23 C149 41.6667 154.333 58 173 58 C189 58 195 41.6667 195 23 C195 4.33333 189 -12 173 -12 Z " /><g transform="translate(0,475)" ><path fill="black" d="M173 -12 C154.333 -12 149 4.33333 149 23 C149 41.6667 154.333 58 173 58 C189 58 195 41.6667 195 23 C195 4.33333 189 -12 173 -12 Z " /></g></glyph>
<glyph glyph-name="semicolon" unicode="&#x3b;" horiz-adv-x="375" d="M127 -129 C148.11 -23.451 154.987 31.5455 163 109 L188 109 L191 96 C180.333 28 166 -58.3333 146 -129 L127 -129 Z M173 466 C158.333 466 153 480.333 153 499 C153 517.667 158.333 532 173 532 C189 532 194 519 194 499 C194 479 189 466 173 466 Z " />
<glyph glyph-name="less" unicode="&#x3c;" horiz-adv-x="375" d="M29 354 L29 374 L296 572 L296 545 L57 364 L296 170 L296 143 L29 354 Z " />
<glyph glyph-name="equal" unicode="&#x3d;" horiz-adv-x="375" d="M37 261 L307 261 L307 236 L37 236 L37 261 Z M37 470 L307 470 L307 445 L37 445 L37 470 Z " />
<glyph glyph-name="greater" unicode="&#x3e;" horiz-adv-x="375" d="M38 170 L277 364 L38 545 L38 572 L305 374 L305 354 L38 143 L38 170 Z " />
<glyph glyph-name="question" unicode="&#x3f;" horiz-adv-x="375" d="M136 174 L136 190 C136 279.797 144.535 315.802 182 372 C219.985 431.691 245 472.138 245 561 C245 657 211.667 699 161 699 C134.333 699 109 689 85 669 L75 692 C103 713.333 129.667 724 163 724 C228.333 724 269 672 269 560 C269 461.177 239.122 413.17 199 357 C166.476 302.793 157 269.67 157 189 L157 174 L136 174 Z M146 -12 C130 -12 124 4.33333 124 23 C124 41.6667 128.667 58 146 58 C164.667 58 169 41.6667 169 23 C169 4.33333 164.667 -12 146 -12 Z " />
<glyph glyph-name="at" unicode="&#x40;" horiz-adv-x="375" d="M288 -49 C257.333 -74.3333 222 -89 186 -89 C70.1299 -89 3 59.2035 3 294 C3 562.494 79 713 183 713 C281.823 713 341 576.442 341 356 C341 220.918 317.364 114 273 114 C246.333 114 227.667 146.333 225 197 L223 197 C212.333 143.667 188 114 160 114 C116 114 92 179 92 287 C92 420.281 127.693 513 189 513 C207.667 513 226.667 506.333 246 493 L241 348 C239.667 324 239 285 239 257 C239 179.667 246.667 139 272 139 C304.892 139 319 231.874 319 353 C319 558.359 272.996 688 184 688 C90.7186 688 26 544.364 26 292 C26 72.4675 83.697 -64 186 -64 C220 -64 254 -49.6667 288 -21 L288 -49 Z M223 473 C212.333 483 201 488 189 488 C142.333 488 114 413.333 114 288 C114 194.667 131.333 139 162 139 C195.333 139 215 193.667 219 323 L223 473 Z " />
<glyph glyph-name="A" unicode="A" horiz-adv-x="375" d="M156 715 L187 715 L328 0 L303 0 L251 276 L94 276 L42 0 L17 0 L156 715 Z M246 301 L189 603 L171 689 C165.667 658.333 161.667 633.667 155 603 L98 301 L246 301 Z " />
<glyph glyph-name="B" unicode="B" horiz-adv-x="375" d="M65 0 L65 714 L163 714 C259 714 300 659.333 300 546 C300 459.333 272 391.667 220 377 L220 376 C285.333 357.333 312 293.333 312 200 C312 65.3333 256.667 0 170 0 L65 0 Z M89 25 L168 25 C244 25 287 78.6667 287 200 C287 324.286 239.156 363 163 363 L89 363 L89 25 Z M89 388 L163 388 C238.333 388 276 440.667 276 546 C276 646 243.667 689 157 689 L89 689 L89 388 Z " />
<glyph glyph-name="C" unicode="C" horiz-adv-x="375" d="M313 17 C290.333 2.33333 255.667 -10 217 -10 C105.078 -10 42 135.13 42 359 C42 557.9 102.97 724 222 724 C257.333 724 290 713.333 320 692 L310 669 C280.667 694.333 251 699 223 699 C118.922 699 66 542.03 66 359 C66 153.563 120.407 15 218 15 C259.333 15 290.333 29.3333 313 44 L313 17 Z " />
<glyph glyph-name="D" unicode="D" horiz-adv-x="375" d="M45 0 L45 714 L136 714 C256 714 309 596.667 309 362 C309 122 255.333 0 134 0 L45 0 Z M70 25 L131 25 C239 25 284 138.667 284 360 C284 569.048 244 689 132 689 L70 689 L70 25 Z " />
<glyph glyph-name="E" unicode="E" horiz-adv-x="375" d="M281 25 L281 0 L65 0 L65 714 L281 714 L281 689 L89 689 L89 389 L270 389 L270 364 L89 364 L89 25 L281 25 Z " />
<glyph glyph-name="F" unicode="F" horiz-adv-x="375" d="M65 0 L65 714 L281 714 L281 689 L89 689 L89 354 L271 354 L271 329 L89 329 L89 0 L65 0 Z " />
<glyph glyph-name="G" unicode="G" horiz-adv-x="375" d="M276 326 L187 326 L187 351 L299 351 L299 24 C275 1.33333 238 -10 202 -10 C82.9437 -10 35 140.926 35 358 C35 574.156 83.2035 724 198 724 C227.333 724 262.333 715.667 289 681 L279 661 C252.333 691.667 226.667 699 200 699 C97.0996 699 59 555.671 59 362 C59 156.537 100.074 15 203 15 C233.667 15 261.333 26.6667 276 40 L276 326 Z " />
<glyph glyph-name="H" unicode="H" horiz-adv-x="375" d="M45 0 L45 714 L70 714 L70 388 L276 388 L276 714 L299 714 L299 0 L276 0 L276 363 L70 363 L70 0 L45 0 Z " />
<glyph glyph-name="I" unicode="I" horiz-adv-x="375" d="M80 20 L159 23 L159 690 L80 694 L80 714 L264 714 L264 694 L184 690 L184 23 L264 20 L264 0 L80 0 L80 20 Z " />
<glyph glyph-name="J" unicode="J" horiz-adv-x="375" d="M43 48 C69.6667 26.6667 98.6667 10 136 10 C202.667 10 226 70.6667 226 204 L226 714 L251 714 L251 196 C251 57.3333 221 -15 137 -15 C102.333 -15 71 -1 43 19 L43 48 Z " />
<glyph glyph-name="K" unicode="K" horiz-adv-x="375" d="M45 0 L45 714 L69 714 L69 321 C83.6667 346.333 94.6667 361.667 112 395 L274 714 L304 714 L147 410 L304 0 L275 0 L128 389 L69 283 L69 0 L45 0 Z " />
<glyph glyph-name="L" unicode="L" horiz-adv-x="375" d="M280 25 L280 0 L64 0 L64 714 L88 714 L88 25 L280 25 Z " />
<glyph glyph-name="M" unicode="M" horiz-adv-x="375" d="M30 0 L30 714 L64 714 L170 219 L172 219 L279 714 L315 714 L315 0 L293 0 L293 577 L293 669 L292 669 L185 187 L157 187 L52 670 L50 670 C52.66 622.121 53 610.215 53 581 L53 0 L30 0 Z " />
<glyph glyph-name="N" unicode="N" horiz-adv-x="375" d="M45 0 L45 714 L75 714 L276 54 L278 54 C278 99.3333 276 151.667 276 181 L276 714 L299 714 L299 0 L271 0 L69 664 L68 664 C69.3333 637.333 69 604 69 548 L69 0 L45 0 Z " />
<glyph glyph-name="O" unicode="O" horiz-adv-x="375" d="M173 -10 C65.2078 -10 35 172.926 35 358 C35 603.333 82.3333 724 173 724 C273.156 724 309 570.416 309 358 C309 166 280.636 -10 173 -10 Z M173 15 C249 15 285 134 285 358 C285 578 249 699 173 699 C95.6667 699 59 575.333 59 358 C59 139.333 98.3333 15 173 15 Z " />
<glyph glyph-name="P" unicode="P" horiz-adv-x="375" d="M65 0 L65 714 L169 714 C259.589 714 312 663.494 312 515 C312 371 265.333 306 172 306 L89 306 L89 0 L65 0 Z M89 331 L166 331 C247.333 331 287 384 287 516 C287 645.333 247 689 163 689 L89 689 L89 331 Z " />
<glyph glyph-name="Q" unicode="Q" horiz-adv-x="375" d="M212 -1 C201.333 -7 188.667 -10 174 -10 C66.2078 -10 36 172.926 36 358 C36 603.333 83.3333 724 174 724 C274.156 724 310 570.416 310 358 C310 205.017 291.131 64.2881 231 12 L293 -170 L266 -170 L212 -1 Z M174 15 C250 15 286 134 286 358 C286 578 250 699 174 699 C96.6667 699 60 575.333 60 358 C60 139.333 99.3333 15 174 15 Z " />
<glyph glyph-name="R" unicode="R" horiz-adv-x="375" d="M65 0 L65 714 L151 714 C247.052 714 301 671.745 301 525 C301 415.667 267.333 352 206 328 L321 0 L293 0 L183 321 L89 321 L89 0 L65 0 Z M89 347 L158 347 C228.667 347 277 403.333 277 526 C277 647.333 236 689 148 689 L89 689 L89 347 Z " />
<glyph glyph-name="S" unicode="S" horiz-adv-x="375" d="M57 46 C85 30 122.333 16 157 16 C225 16 263 74 263 182 C263 281.834 230.661 306.99 163 353 C104.281 393.036 59 428.254 59 543 C59 664.333 107.667 724 181 724 C211.667 724 245.667 712 275 692 L265 669 C233 693 203.667 699 181 699 C119.667 699 84 647.333 84 546 C84 440.077 126.086 413.516 177 376 C248.049 328.634 288 298.125 288 183 C288 53.6667 237 -10 157 -10 C122.333 -10 87.6667 1 57 17 L57 46 Z " />
<glyph glyph-name="T" unicode="T" horiz-adv-x="375" d="M160 0 L160 689 L33 689 L33 714 L312 714 L312 689 L184 689 L184 0 L160 0 Z " />
<glyph glyph-name="U" unicode="U" horiz-adv-x="375" d="M45 714 L70 714 L70 239 C70 83 106.667 15 172 15 C236 15 276 78.3333 276 233 L276 714 L299 714 L299 230 C299 58 248 -10 172 -10 C90.6667 -10 45 69.3333 45 236 L45 714 Z " />
<glyph glyph-name="V" unicode="V" horiz-adv-x="375" d="M172 34 C178.667 67.3333 184 100 192 140 L301 714 L325 714 L185 0 L158 0 L20 714 L44 714 L151 140 C157.667 101.333 167 68.6667 171 34 L172 34 Z " />
<glyph glyph-name="W" unicode="W" horiz-adv-x="375" d="M101 29 L115 151 L161 528 L184 528 L229 151 C235.667 108.333 240 68.6667 244 26 L246 26 C248.667 72.6667 251 108.333 255 151 C269.667 340.333 285.333 524.667 300 714 L325 714 L261 0 L230 0 L184 375 C180 409.667 176.667 432.333 174 475 L172 475 C168 432.333 165 411 161 375 L116 0 L83 0 L20 714 L43 714 C57.6667 524.667 75.6667 341.667 89 151 C91.6667 109.667 97.3333 75.6667 100 29 L101 29 Z " />
<glyph glyph-name="X" unicode="X" horiz-adv-x="375" d="M26 0 L161 372 L41 714 L67 714 L174 396 L287 714 L314 714 L189 372 L319 0 L293 0 L175 348 L52 0 L26 0 Z " />
<glyph glyph-name="Y" unicode="Y" horiz-adv-x="375" d="M161 0 L161 275 L26 714 L51 714 L173 305 L293 714 L319 714 L185 277 L185 0 L161 0 Z " />
<glyph glyph-name="Z" unicode="Z" horiz-adv-x="375" d="M65 21 L264 689 L78 689 L78 714 L290 714 L290 693 L93 25 L297 25 L297 0 L65 0 L65 21 Z " />
<glyph glyph-name="bracketleft" unicode="&#x5b;" horiz-adv-x="375" d="M273 -134 L273 -158 L140 -158 L140 714 L273 714 L273 690 L163 690 L163 -134 L273 -134 Z " />
<glyph glyph-name="backslash" unicode="&#x5c;" horiz-adv-x="375" d="M246 0 L66 714 L89 714 L270 0 L246 0 Z " />
<glyph glyph-name="bracketright" unicode="&#x5d;" horiz-adv-x="375" d="M70 -134 L180 -134 L180 690 L70 690 L70 714 L203 714 L203 -158 L70 -158 L70 -134 Z " />
<glyph glyph-name="asciicircum" unicode="&#x5e;" horiz-adv-x="375" d="M31 325 L168 716 L186 716 L313 325 L288 325 L177 684 L56 325 L31 325 Z " />
<glyph glyph-name="underscore" unicode="&#x5f;" horiz-adv-x="375" d="M3 -88 L341 -88 L341 -113 L3 -113 L3 -88 Z " />
<glyph glyph-name="grave" unicode="&#x60;" horiz-adv-x="375" d="M197 606 C166.333 647.333 126.667 710 104 758 L104 765 L132 765 C152 715.667 187.333 657.667 214 615 L214 606 L197 606 Z " />
<glyph glyph-name="a" unicode="a" horiz-adv-x="375" d="M255 98 L254 98 C238.025 42.0888 212.132 -10 151 -10 C87 -10 56 51.6667 56 129 C56 234.333 107.667 284.333 197 295 L254 302 L254 349 C254 469 228.667 512 178 512 C150 512 122.667 503.333 92 478 L83 502 C112.333 524.667 144.667 537 178 537 C246 537 278 486 278 354 L278 0 L258 0 L255 98 Z M254 278 L199 272 C123 264 81 221 81 129 C81 55.6667 107.333 14 154 14 C223.437 14 254 97.2814 254 220 L254 278 Z " />
<glyph glyph-name="b" unicode="b" horiz-adv-x="375" d="M58 760 L82 760 L82 503 L82 412 C95.3333 486.667 129.667 538 183 538 C263 538 303 446.667 303 268 C303 99.0823 262.177 -10 177 -10 C127.667 -10 97.6667 35.6667 83 101 L81 101 L77 0 L58 0 L58 760 Z M175 16 C241.667 16 278 100 278 268 C278 431.333 245.333 513 180 513 C112 513 82 427.333 82 262 C82 96.6667 111 16 175 16 Z " />
<glyph glyph-name="c" unicode="c" horiz-adv-x="375" d="M287 11 C268.333 -1 236.667 -10 206 -10 C110.026 -10 65 99.026 65 259 C65 431.39 122.182 538 214 538 C244 538 269.333 531 290 517 L282 493 C262 507.667 237.667 513 215 513 C137.667 513 91 419 91 259 C91 120.437 125.463 15 208 15 C234.667 15 264.333 22.3333 287 37 L287 11 Z " />
<glyph glyph-name="d" unicode="d" horiz-adv-x="375" d="M265 110 L263 110 C249.706 48.8468 220.096 -10 159 -10 C80.3333 -10 42 81.6667 42 255 C42 440.333 85.6667 538 163 538 C219.061 538 252.525 482.233 263 422 L265 422 C263.667 456.667 263 488 263 520 L263 760 L287 760 L287 0 L268 0 L265 110 Z M263 291 C263 429.667 232.667 513 166 513 C100 513 67 427 67 255 C67 97.6667 95.3333 15 162 15 C234 15 263 100.667 263 242 L263 291 Z " />
<glyph glyph-name="e" unicode="e" horiz-adv-x="375" d="M289 23 C262.333 1.66667 231.333 -10 194 -10 C95.3074 -10 51 99.4372 51 262 C51 419.333 92.9957 538 180 538 C265.411 538 301 426.719 301 296 L301 270 L75 270 C76.3333 100.667 116.667 15 194 15 C228.667 15 255.667 24.3333 289 51 L289 23 Z M277 294 C277 419.255 248.281 513 179 513 C120.333 513 82.6667 439.333 76 294 L277 294 Z " />
<glyph glyph-name="f" unicode="f" horiz-adv-x="375" d="M153 0 L153 503 L55 503 L55 524 L153 528 L153 604 C153 712 181.333 765 256 765 C276 765 292.333 759.667 307 753 L301 729 C287 737 272.333 741 257 741 C198.333 741 177 701 177 601 L177 528 L290 528 L290 503 L177 503 L177 0 L153 0 Z " />
<glyph glyph-name="g" unicode="g" horiz-adv-x="375" d="M54 -179 C82 -201.667 112.667 -216 150 -216 C230 -216 263 -151.333 263 -30 L263 15 C263 49.6667 262.333 74 265 114 L263 114 C249.667 42 214.667 -10 160 -10 C84 -10 42 76.3333 42 259 C42 432.333 82 538 166 538 C220.667 538 247.333 492.333 262 439 L264 439 L268 528 L287 528 L287 -30 C287 -163.333 246.333 -241 149 -241 C110.333 -241 80.6667 -228 54 -208 L54 -179 Z M263 312 C263 423.108 237.208 513 169 513 C97 513 66 414 66 258 C66 96 98.6667 15 164 15 C240.494 15 263 130.078 263 234 L263 312 Z " />
<glyph glyph-name="h" unicode="h" horiz-adv-x="375" d="M58 0 L58 760 L83 760 L83 494 C83 463.333 82.3333 446.333 81 421 L82 421 C95.3542 477.087 125.525 538 188 538 C252 538 290 480 290 356 L290 0 L266 0 L266 353 C266 467.667 235.667 513 185 513 C125 513 83 448 83 300 L83 0 L58 0 Z " />
<glyph glyph-name="i" unicode="i" horiz-adv-x="375" >
<path fill="black" d="M58 21 L168 25 L168 503 L70 507 L70 528 L192 528 L192 25 L295 21 L295 0 L58 0 L58 21 Z " /><g transform="translate(5,0)" ><path fill="black" d="M173 660 C154.333 660 149 677 149 697 C149 715.667 154.333 734 173 734 C191.667 734 197 715.667 197 697 C197 678.333 191.667 660 173 660 Z " /></g></glyph>
<glyph glyph-name="j" unicode="j" horiz-adv-x="375" >
<path fill="black" d="M36 -201 C50.6667 -210.333 87.6667 -222 113 -222 C163.667 -222 189 -169 189 -81 L189 503 L76 507 L76 528 L214 528 L214 -88 C214 -196 175.333 -248 114 -248 C83.3333 -248 48 -234.667 36 -228 L36 -201 Z " /><g transform="translate(26,-10)" ><path fill="black" d="M173 660 C154.333 660 149 677 149 697 C149 715.667 154.333 734 173 734 C191.667 734 197 715.667 197 697 C197 678.333 191.667 660 173 660 Z " /></g></glyph>
<glyph glyph-name="k" unicode="k" horiz-adv-x="375" d="M80 0 L80 760 L104 760 L104 373 C104 317 104.333 273 103 217 C115 239.667 124.333 258.333 135 277 L275 528 L305 528 L176 305 L315 0 L288 0 L159 286 L104 185 L104 0 L80 0 Z " />
<glyph glyph-name="l" unicode="l" horiz-adv-x="375" d="M58 21 L165 25 L165 735 L65 739 L65 760 L188 760 L188 25 L295 21 L295 0 L58 0 L58 21 Z " />
<glyph glyph-name="m" unicode="m" horiz-adv-x="375" d="M39 0 L39 528 L56 528 L59 457 L60 457 C67.9884 491.616 84.9786 537 124 537 C161.145 537 173.811 496.326 179 460 L180 460 C190.667 501.333 209 537 245 537 C283.667 537 307 505.667 307 403 L307 0 L284 0 L284 401 C284 493.26 264 513 240 513 C205.333 513 184 458 184 366 L184 0 L162 0 L162 384 C162 496.078 143.13 513 119 513 C80.619 513 62 440.693 62 366 L62 0 L39 0 Z " />
<glyph glyph-name="n" unicode="n" horiz-adv-x="375" d="M58 0 L58 528 L77 528 L80 416 L82 416 C95.0958 476.24 124.961 537 188 537 C252 537 290 483.667 290 361 L290 0 L266 0 L266 355 C266 468.333 236.667 512 186 512 C126 512 83 447 83 307 L83 0 L58 0 Z " />
<glyph glyph-name="o" unicode="o" horiz-adv-x="375" d="M173 -10 C85 -10 42 93 42 265 C42 439.667 87 537 175 537 C265.745 537 304 425.048 304 264 C304 92 262.333 -10 173 -10 Z M173 15 C247.667 15 278 106.333 278 265 C278 409.892 249.589 512 175 512 C101.667 512 66 422.333 66 265 C66 109 99.6667 15 173 15 Z " />
<glyph glyph-name="p" unicode="p" horiz-adv-x="375" d="M58 -240 L58 528 L78 528 L79 403 L81 403 C94.3055 472.189 125.329 537 184 537 C263.333 537 303 448 303 270 C303 82 256 -10 180 -10 C124.047 -10 95.3402 50.6353 82 112 L81 112 C82.3333 82.6667 82 48.3333 82 11 L82 -240 L58 -240 Z M82 241 C82 94.3333 119.333 15 178 15 C238 15 278 90 278 270 C278 430 246.333 512 181 512 C116.974 512 82 419.13 82 279 L82 241 Z " />
<glyph glyph-name="q" unicode="q" horiz-adv-x="375" d="M263 -232 L263 17 C263 39.6667 263.667 85.3333 265 116 L263 116 C248.333 42.6667 214.667 -11 160 -11 C84 -11 42 82.3333 42 261 C42 425.26 82.3636 537 166 537 C218 537 250 488.667 262 426 L264 426 L268 528 L287 528 L287 -232 L263 -232 Z M263 299 C263 435 230.333 511 169 511 C101 511 67 421 67 261 C67 94.3333 102 15 162 15 C228.667 15 263 104.333 263 239 L263 299 Z " />
<glyph glyph-name="r" unicode="r" horiz-adv-x="375" d="M45 21 L141 25 L141 503 L55 507 L55 528 L161 528 L164 427 L165 427 C178.575 484.014 206.408 536 261 536 C279.667 536 301.333 529.667 316 523 L311 497 C293.667 505.667 276.667 510 260 510 C198.667 510 165 435 165 303 L165 25 L268 21 L268 0 L45 0 L45 21 Z " />
<glyph glyph-name="s" unicode="s" horiz-adv-x="375" d="M73 53 C101 30.3333 133.333 16 168 16 C230.667 16 255 58 255 130 C255 202.835 221.211 225.859 173 258 C119.002 295.798 79 318.726 79 408 C79 484 116.333 537 187 537 C220.333 537 248.667 526.333 274 509 L264 485 C240.667 503 214.667 512 186 512 C136.667 512 104 477.667 104 407 C104 336.33 135.337 318.146 184 283 C235.789 247.566 279 222.108 279 129 C279 43.6667 243 -10 167 -10 C128.333 -10 94.3333 7 73 23 L73 53 Z " />
<glyph glyph-name="t" unicode="t" horiz-adv-x="375" d="M145 503 L56 503 L56 524 L144 528 L151 659 L169 659 L169 528 L289 528 L289 503 L169 503 L169 183 C169 75 185 15 241 15 C260.333 15 278.667 19.3333 296 28 L296 3 C280 -3.66667 262.667 -10 240 -10 C169.333 -10 145 61.3333 145 180 L145 503 Z " />
<glyph glyph-name="u" unicode="u" horiz-adv-x="375" d="M55 528 L79 528 L79 177 C79 63.6667 108.667 15 162 15 C222 15 263 81.6667 263 227 L263 528 L286 528 L286 0 L267 0 L264 112 L262 112 C251.155 52.3544 218.604 -10 158 -10 C89.3333 -10 55 50.3333 55 171 L55 528 Z " />
<glyph glyph-name="v" unicode="v" horiz-adv-x="375" d="M173 36 C179.667 73.3333 187 105 195 145 L277 528 L300 528 L184 0 L158 0 L43 528 L68 528 L149 145 C157 105 164.333 73.3333 171 36 L173 36 Z " />
<glyph glyph-name="w" unicode="w" horiz-adv-x="375" d="M86 -1 L13 528 L36 528 L84 158 C90.6667 107.333 94 78.3333 98 45 L100 45 C104 73 111 110.667 119 160 L164 407 L187 407 L230 157 C238 113 244.667 77.3333 250 44 L251 44 C256.264 88.7398 258.585 106.262 264 155 L309 528 L332 528 L262 -1 L239 -1 L192 270 C186.667 304.667 181.333 335 176 367 L174 367 C170 335 164.667 301 158 269 L109 -1 L86 -1 Z " />
<glyph glyph-name="x" unicode="x" horiz-adv-x="375" d="M43 0 L157 271 L50 528 L77 528 L173 291 L268 528 L295 528 L186 270 L300 0 L273 0 L172 252 L70 0 L43 0 Z " />
<glyph glyph-name="y" unicode="y" horiz-adv-x="375" d="M45 -207 C55 -213.667 65 -217 75 -217 C104.333 -217 126 -193.333 142 -112 L167 10 L49 528 L74 528 L154 156 C168.667 92 171.667 69.3333 177 48 L178 48 C184.667 82.6667 191 112.333 199 155 L275 528 L300 528 L166 -112 C147.333 -201.333 122.333 -243 77 -243 C67 -243 56.3333 -240 45 -234 L45 -207 Z " />
<glyph glyph-name="z" unicode="z" horiz-adv-x="375" d="M65 21 L250 503 L79 503 L79 528 L280 528 L280 509 L95 25 L280 25 L280 0 L65 0 L65 21 Z " />
<glyph glyph-name="braceleft" unicode="&#x7b;" horiz-adv-x="375" d="M160 150 C160 238 145 266 89 266 L89 289 C139.667 289 160 314.333 160 405 L160 578 C160 672.667 195.333 714 266 714 L266 693 C210 693 183 659 183 571 L183 398 C183 326 169 288.667 129 278 L129 277 C169 266.333 183 234.333 183 157 L183 -16 C183 -108 204.667 -137 266 -137 L266 -158 C192.667 -156.667 160 -125.667 160 -23 L160 150 Z " />
<glyph glyph-name="bar" unicode="&#x7c;" horiz-adv-x="375" d="M148 -240 L148 760 L170 760 L170 -240 L148 -240 Z " />
<glyph glyph-name="braceright" unicode="&#x7d;" horiz-adv-x="375" d="M68 -137 C124 -137 151 -103 151 -15 L151 158 C151 230 165 267.333 205 278 L205 279 C165 289.667 151 321.667 151 399 L151 572 C151 664 129.333 693 68 693 L68 714 C142.667 712.667 174 681.667 174 579 L174 406 C174 318 189 290 245 290 L245 267 C195.667 267 174 241.667 174 151 L174 -22 C174 -116.667 138.667 -158 68 -158 L68 -137 Z " />
<glyph glyph-name="asciitilde" unicode="&#x7e;" horiz-adv-x="375" d="M306 356 C291.333 330.667 266.333 311 237 311 C210.333 311 192 323.667 172 341 C150.667 358.333 134.333 371 109 371 C83.6667 371 60.6667 353.667 38 311 L38 343 C56.6667 373.667 79.6667 396 109 396 C138.333 396 156.333 383.667 179 365 C199 347.667 215.333 336 238 336 C260.667 336 284.667 349.667 306 387 L306 356 Z " />
<glyph glyph-name="uni00A0" unicode="&#xa0;" horiz-adv-x="375" />
<glyph glyph-name="exclamdown" unicode="&#xa1;" horiz-adv-x="375" d="M158 355 L179 355 L183 -185 L156 -185 L158 355 Z M170 471 C151.333 471 147 487.333 147 506 C147 524.667 151.333 541 170 541 C186 541 192 524.667 192 506 C192 487.333 187.333 471 170 471 Z " />
<glyph glyph-name="cent" unicode="&#xa2;" horiz-adv-x="375" d="M199 -10 L199 91 C107 99 66 202.667 66 360 C66 521.333 113 623.667 197 637 L197 724 L217 724 L217 638 C242.333 636.667 264 629.667 282 617 L275 593 C256.333 607.667 234.667 613 216 613 C133.385 613 90 509.307 90 360 C90 213.203 127.39 117 211 117 C236.333 117 261 125 281 137 L281 111 C266.333 101.667 245.667 93.6667 219 91 L219 -10 L199 -10 Z " />
<glyph glyph-name="sterling" unicode="&#xa3;" horiz-adv-x="375" d="M297 25 L297 0 L34 0 L34 23 C78 40.3333 100 89 100 185 L100 338 L38 338 L38 363 L100 363 L100 532 C100 652 132.333 724 211 724 C245.667 724 269.333 711 292 691 L282 669 C256.667 691.667 237.333 699 212 699 C150.667 699 123 645.667 123 527 L123 363 L235 363 L235 338 L123 338 L123 183 C123 95 104.333 47.6667 75 25 L297 25 Z " />
<glyph glyph-name="currency" unicode="&#xa4;" horiz-adv-x="375" d="M22 148 L72 222 C49.3333 260.667 40 307.333 40 354 C40 402 50.6667 450.333 72 485 L21 562 L34 578 L86 501 C110.667 534.333 139.333 551 172 551 C202.667 551 233.667 536.667 259 502 L310 577 L323 561 L273 486 C295.667 447.333 305 402 305 354 C305 310 296.667 259.667 274 221 L323 145 L310 130 L259 205 C235 171.667 202.667 157 172 157 C141.333 157 111.333 172.667 86 206 L35 132 L22 148 Z M172 181 C236 181 284 254.333 284 353 C284 453.494 236 528 172 528 C112.234 528 61 457.948 61 354 C61 251.1 112.234 181 172 181 Z " />
<glyph glyph-name="yen" unicode="&#xa5;" horiz-adv-x="375" d="M161 0 L161 159 L65 159 L65 183 L161 183 L161 295 L65 295 L65 319 L156 319 L36 714 L61 714 L172 338 L283 714 L309 714 L189 319 L280 319 L280 295 L185 295 L185 183 L280 183 L280 159 L185 159 L185 0 L161 0 Z " />
<glyph glyph-name="brokenbar" unicode="&#xa6;" horiz-adv-x="375" d="M148 -248 L148 130 L170 130 L170 -248 L148 -248 Z M148 386 L148 762 L170 762 L170 386 L148 386 Z " />
<glyph glyph-name="section" unicode="&#xa7;" horiz-adv-x="375" d="M63 45 C88.3333 25 121.667 11 155 11 C219 11 250 63 250 131 C250 197.054 217.996 216.139 159 251 C108.112 283.14 72 312.018 72 387 C72 459 103 498.667 143 520 C108.333 549.333 83 585.667 83 647 C83 720.333 121 766 189 766 C222.333 766 251.333 754 274 738 L264 716 C245.333 730.667 218.667 743 188 743 C138.667 743 105 713.333 105 648 C105 594.667 131 552.333 183 521 C235.403 489.558 282 459.65 282 372 C282 306.667 258.333 263.667 225 237 C257 210.333 273 186.667 273 132 C273 48 232.667 -12 154 -12 C118 -12 83 2.33333 63 17 L63 45 Z M207 249 C235 267.667 260 307.667 260 369 C260 437 229.333 472.333 164 507 C122.667 489.667 93 457 93 389 C93 322.934 124.15 301.668 170 272 L207 249 Z " />
<glyph glyph-name="dieresis" unicode="&#xa8;" horiz-adv-x="375" d="M116 635 C104 635 96 651.333 96 670 C96 688.667 104 706 116 706 C132 706 138 688.667 138 670 C138 650 132 635 116 635 Z M228 635 C213.333 635 207 651.333 207 670 C207 688.667 213.333 706 228 706 C242.667 706 248 690 248 670 C248 650 242.667 635 228 635 Z " />
<glyph glyph-name="copyright" unicode="&#xa9;" horiz-adv-x="375" d="M170 147 C86.4675 147 26 233.667 26 359 C26 488.593 90.8745 575 172 575 C258.251 575 318 482.797 318 360 C318 232.996 252.667 147 170 147 Z M171 171 C243.866 171 299 249.619 299 360 C299 467.688 245.619 550 172 550 C100.182 550 45 472.004 45 361 C45 253.312 95.3117 171 171 171 Z M223 235 C208.333 227 193.667 222 175 222 C119 222 85 269 85 357 C85 445 119 498 179 498 C199 498 215.667 493 229 483 L223 461 C209.667 469 194 475 178 475 C131.333 475 105 433 105 357 C105 281 131.333 244 178 244 C192 244 207 248.667 223 258 L223 235 Z " />
<glyph glyph-name="ordfeminine" unicode="&#xaa;" horiz-adv-x="375" d="M228 451 C214.667 416.333 192 396 160 396 C120 396 93 424.333 93 483 C93 547 126 575.667 190 581 L227 584 L227 623 C227 679 207.667 702 173 702 C153 702 134.667 694.667 118 680 L111 700 C129.667 714.667 148.333 724 175 724 C224.333 724 247 689 247 629 L247 400 L230 400 L228 451 Z M227 563 L193 561 C141 558.333 112 536.667 112 482 C112 439.333 132.667 417 162 417 C204.667 417 227 460 227 524 L227 563 Z " />
<glyph glyph-name="guillemotleft" unicode="&#xab;" horiz-adv-x="375" d="M156 82 L56 261 L56 274 L156 455 L170 444 L86 268 L171 92 L156 82 Z M273 82 L173 261 L173 274 L273 455 L287 444 L203 268 L288 92 L273 82 Z " />
<glyph glyph-name="logicalnot" unicode="&#xac;" horiz-adv-x="375" d="M34 364 L292 364 L292 126 L270 126 L270 340 L34 340 L34 364 Z " />
<glyph glyph-name="uni00AD" unicode="&#xad;" horiz-adv-x="375" >
<g transform="translate(3,0)" ><path fill="black" d="M88 290 L257 290 L257 265 L88 265 L88 290 Z " /></g></glyph>
<glyph glyph-name="registered" unicode="&#xae;" horiz-adv-x="375" d="M170 147 C86.4675 147 26 233.667 26 359 C26 488.593 90.8745 575 172 575 C257.203 575 317 482.797 317 360 C317 232.996 252.797 147 170 147 Z M171 171 C243.996 171 298 249.619 298 360 C298 467.688 245.749 550 172 550 C100.182 550 45 472.004 45 361 C45 253.312 95.3117 171 171 171 Z M121 224 L121 497 L175 497 C212.333 497 236 472.667 236 418 C236 372.667 220.667 353.667 198 343 L242 224 L221 224 L179 339 L141 339 L141 224 L121 224 Z M140 361 L174 361 C198 361 217 374 217 418 C217 460.667 200.667 476 174 476 L140 476 L140 361 Z " />
<glyph glyph-name="macron" unicode="&#xaf;" horiz-adv-x="375" d="M94 640 L250 640 L250 616 L94 616 L94 640 Z " />
<glyph glyph-name="degree" unicode="&#xb0;" horiz-adv-x="375" d="M172 460 C125.333 460 83 505.333 83 592 C83 677.333 124 724 172 724 C221.333 724 262 676 262 592 C262 510.667 224 460 172 460 Z M172 483 C212 483 242 523 242 591 C242 657.667 214.667 701 172 701 C130.667 701 103 657.333 103 592 C103 524 133.333 483 172 483 Z " />
<glyph glyph-name="plusminus" unicode="&#xb1;" horiz-adv-x="375" >
<path fill="black" d="M158 123 L158 340 L34 340 L34 364 L158 364 L158 583 L179 583 L179 364 L301 364 L301 340 L179 340 L179 123 L158 123 Z " /><g transform="translate(166,-633)" ><path fill="black" d="M-132 659 L132 659 L132 634 L-132 634 L-132 659 Z " /></g></glyph>
<glyph glyph-name="twosuperior" unicode="&#xb2;" horiz-adv-x="375" d="M83 437 L153 558 C195.667 630 226 679.333 226 742 C226 792.667 205.667 830 167 830 C143.667 830 121.333 816.667 100 790 L88 809 C110.667 837 136 854 168 854 C218.667 854 248 807.333 248 742 C248 674.188 217.181 631.331 169 543 L109 439 L256 439 L256 415 L83 415 L83 437 Z " />
<glyph glyph-name="threesuperior" unicode="&#xb3;" horiz-adv-x="375" d="M83 460 C105.667 443.333 129 435 153 435 C203.667 435 229 472.333 229 535 C229 595 204.333 628 155 628 L122 628 L122 652 L155 652 C197.667 652 223 688 223 748 C223 797.333 202.333 827 165 827 C137 827 116.333 812.667 95 790 L86 811 C107.333 835 133 851 165 851 C211.667 851 243 814.667 243 748 C243 690.667 223.333 655 194 643 L194 642 C232.667 627.333 252 591.667 252 535 C252 455 214.333 411 153 411 C127 411 103.667 418 83 432 L83 460 Z " />
<glyph glyph-name="acute" unicode="&#xb4;" horiz-adv-x="375" d="M151 606 L151 615 C181.667 661.667 212 717 232 765 L259 765 L259 758 C237.667 711.333 197.667 647.333 167 606 L151 606 Z " />
<glyph glyph-name="mu" unicode="&#xb5;" horiz-adv-x="375" d="M55 227 L58 227 L58 528 L82 528 L82 177 C82 63.6667 111.667 15 165 15 C225 15 266 81.6667 266 227 L266 528 L289 528 L289 0 L270 0 L267 112 L265 112 C254.155 52.3544 221.604 -10 161 -10 C123 -10 95.3333 9 78 47 L78 -240 L55 -240 L55 227 Z " />
<glyph glyph-name="paragraph" unicode="&#xb6;" horiz-adv-x="375" d="M162 -127 L162 355 C152 349 141.667 346 131 346 C71.1818 346 46 437.749 46 556 C46 685.333 74 760 142 760 L274 760 L274 -127 L254 -127 L254 734 L182 734 L182 -127 L162 -127 Z " />
<glyph glyph-name="periodcentered" unicode="&#xb7;" horiz-adv-x="375" >
<g transform="translate(3,282)" ><path fill="black" d="M173 -12 C154.333 -12 149 4.33333 149 23 C149 41.6667 154.333 58 173 58 C189 58 195 41.6667 195 23 C195 4.33333 189 -12 173 -12 Z " /></g></glyph>
<glyph glyph-name="cedilla" unicode="&#xb8;" horiz-adv-x="375" d="M117 -210 C127 -214.667 138 -217 150 -217 C184.667 -217 207 -192.667 207 -146 C207 -100.667 184.333 -84.3333 143 -83 L168 0 L189 0 L170 -64 C208.667 -69.3333 229 -99.3333 229 -146 C229 -203.333 197.667 -240 151 -240 C138.333 -240 127 -238 117 -234 L117 -210 Z " />
<glyph glyph-name="onesuperior" unicode="&#xb9;" horiz-adv-x="375" d="M99 435 L170 440 L170 708 C170 742.667 169.667 783.333 171 814 C160.333 802 152.667 795 138 783 L99 748 L89 768 L175 843 L191 843 L191 440 L259 435 L259 416 L99 416 L99 435 Z " />
<glyph glyph-name="ordmasculine" unicode="&#xba;" horiz-adv-x="375" d="M172 396 C116 396 86 463 86 559 C86 661.667 119 725 175 725 C231.97 725 259 654.286 259 562 C259 467.126 230.797 396 172 396 Z M172 417 C217.333 417 239 476 239 560 C239 640.97 218.338 704 174 704 C132.667 704 106 651 106 559 C106 475 129.333 417 172 417 Z " />
<glyph glyph-name="guillemotright" unicode="&#xbb;" horiz-adv-x="375" d="M132 261 L46 437 L62 447 L161 268 L161 255 L62 74 L46 85 L132 261 Z M249 261 L163 437 L179 447 L278 268 L278 255 L179 74 L163 85 L249 261 Z " />
<glyph glyph-name="onequarter" unicode="&#xbc;" horiz-adv-x="375" d="M202 -36 L80 -36 L80 -18 L202 270 L223 270 L223 -13 L267 -13 L267 -36 L223 -36 L223 -161 L202 -161 L202 -36 Z M97 485 L168 490 L168 758 C168 792.667 167.667 833.333 169 864 C158.333 852 150.667 845 136 833 L97 798 L87 818 L173 893 L189 893 L189 490 L257 485 L257 466 L97 466 L97 485 Z M202 -13 L202 166 L202 232 C195.333 214.667 192 205.667 184 187 L102 -13 L202 -13 Z M32 355 L309 400 L309 381 L32 336 L32 355 Z " />
<glyph glyph-name="onehalf" unicode="&#xbd;" horiz-adv-x="375" >
<g transform="translate(3,-576)" ><path fill="black" d="M83 437 L153 558 C195.667 630 226 679.333 226 742 C226 792.667 205.667 830 167 830 C143.667 830 121.333 816.667 100 790 L88 809 C110.667 837 136 854 168 854 C218.667 854 248 807.333 248 742 C248 674.188 217.181 631.331 169 543 L109 439 L256 439 L256 415 L83 415 L83 437 Z " /></g><g transform="translate(-2,50)" ><path fill="black" d="M99 435 L170 440 L170 708 C170 742.667 169.667 783.333 171 814 C160.333 802 152.667 795 138 783 L99 748 L89 768 L175 843 L191 843 L191 440 L259 435 L259 416 L99 416 L99 435 Z " /></g><path fill="black" d="M32 355 L309 400 L309 381 L32 336 L32 355 Z " /></glyph>
<glyph glyph-name="threequarters" unicode="&#xbe;" horiz-adv-x="375" >
<g transform="translate(1,-576)" ><path fill="black" d="M79 558 L201 846 L222 846 L222 563 L266 563 L266 540 L222 540 L222 415 L201 415 L201 540 L79 540 L79 558 Z M201 563 L201 742 L201 808 C194.333 790.667 191 781.667 183 763 L101 563 L201 563 Z " /></g><g transform="translate(6,50)" ><path fill="black" d="M83 460 C105.667 443.333 129 435 153 435 C203.667 435 229 472.333 229 535 C229 595 204.333 628 155 628 L122 628 L122 652 L155 652 C197.667 652 223 688 223 748 C223 797.333 202.333 827 165 827 C137 827 116.333 812.667 95 790 L86 811 C107.333 835 133 851 165 851 C211.667 851 243 814.667 243 748 C243 690.667 223.333 655 194 643 L194 642 C232.667 627.333 252 591.667 252 535 C252 455 214.333 411 153 411 C127 411 103.667 418 83 432 L83 460 Z " /></g><path fill="black" d="M32 355 L309 400 L309 381 L32 336 L32 355 Z " /></glyph>
<glyph glyph-name="questiondown" unicode="&#xbf;" horiz-adv-x="375" d="M270 -163 C242 -184.333 215.333 -195 182 -195 C116.667 -195 76 -143 76 -31 C76 67.8231 105.878 115.83 146 172 C178.524 226.207 188 259.33 188 340 L188 355 L209 355 L209 339 C209 249.203 200.465 213.198 163 157 C126.06 98.9516 100 56.3661 100 -32 C100 -128 133.333 -170 184 -170 C210.667 -170 236 -160 260 -140 L270 -163 Z M199 471 C183 471 177 487.333 177 506 C177 524.667 181.667 541 199 541 C217.667 541 222 524.667 222 506 C222 487.333 217.667 471 199 471 Z " />
<glyph glyph-name="Agrave" unicode="&#xc0;" horiz-adv-x="375" d="M156 715 L187 715 L328 0 L303 0 L251 276 L94 276 L42 0 L17 0 L156 715 Z M246 301 L189 603 L171 689 C165.667 658.333 161.667 633.667 155 603 L98 301 L246 301 Z M197 807 L180 807 C149.333 848.333 109.667 911 87 959 L87 966 L115 966 C135 916.667 170.333 858.667 197 816 L197 807 Z " />
<glyph glyph-name="Aacute" unicode="&#xc1;" horiz-adv-x="375" d="M156 715 L187 715 L328 0 L303 0 L251 276 L94 276 L42 0 L17 0 L156 715 Z M246 301 L189 603 L171 689 C165.667 658.333 161.667 633.667 155 603 L98 301 L246 301 Z M145 816 C175.667 862.667 206 918 226 966 L253 966 L253 959 C231.667 912.333 191.667 848.333 161 807 L145 807 L145 816 Z " />
<glyph glyph-name="Acircumflex" unicode="&#xc2;" horiz-adv-x="375" d="M156 715 L187 715 L328 0 L303 0 L251 276 L94 276 L42 0 L17 0 L156 715 Z M246 301 L189 603 L171 689 C165.667 658.333 161.667 633.667 155 603 L98 301 L246 301 Z M90 814 C111.025 850.795 143.219 921.918 159 964 L182 964 C198.222 920.741 232.699 843.885 249 814 L249 807 L234 807 C212.667 843 190 894.333 170 933 C151.333 895.667 127.333 841.667 106 807 L90 807 L90 814 Z " />
<glyph glyph-name="Atilde" unicode="&#xc3;" horiz-adv-x="375" >
<path fill="black" d="M156 715 L187 715 L328 0 L303 0 L251 276 L94 276 L42 0 L17 0 L156 715 Z M246 301 L189 603 L171 689 C165.667 658.333 161.667 633.667 155 603 L98 301 L246 301 Z " /><g transform="translate(-1,201)" ><path fill="black" d="M73 625 C75.6667 689 95.3333 718 126 718 C166.222 718 183.778 648 216 648 C234.667 648 249.333 667.333 252 718 L271 718 C268.333 654 246.667 624 216 624 C175.778 624 158.222 694 126 694 C110 694 95 677 91 625 L73 625 Z " /></g></glyph>
<glyph glyph-name="Adieresis" unicode="&#xc4;" horiz-adv-x="375" >
<g transform="translate(-2,189)" ><path fill="black" d="M116 635 C104 635 96 651.333 96 670 C96 688.667 104 706 116 706 C132 706 138 688.667 138 670 C138 650 132 635 116 635 Z M228 635 C213.333 635 207 651.333 207 670 C207 688.667 213.333 706 228 706 C242.667 706 248 690 248 670 C248 650 242.667 635 228 635 Z " /></g><path fill="black" d="M156 715 L187 715 L328 0 L303 0 L251 276 L94 276 L42 0 L17 0 L156 715 Z M246 301 L189 603 L171 689 C165.667 658.333 161.667 633.667 155 603 L98 301 L246 301 Z " /></glyph>
<glyph glyph-name="Aring" unicode="&#xc5;" horiz-adv-x="375" d="M156 715 L187 715 L328 0 L303 0 L251 276 L94 276 L42 0 L17 0 L156 715 Z M246 301 L189 603 L171 689 C165.667 658.333 161.667 633.667 155 603 L98 301 L246 301 Z M171 815 C135 815 105 848 105 908 C105 965.333 134 1001 170 1001 C207.333 1001 235 964.333 235 907 C235 851 208.333 815 171 815 Z M171 837 C197.667 837 216 865.667 216 907 C216 949.667 197 978 169 978 C142.333 978 125 949.333 125 908 C125 868 141.667 837 171 837 Z " />
<glyph glyph-name="AE" unicode="&#xc6;" horiz-adv-x="375" d="M136 714 L324 714 L324 689 L199 689 L199 389 L313 389 L313 364 L199 364 L199 25 L324 25 L324 0 L176 0 L176 275 L86 275 L40 0 L17 0 L136 714 Z M176 300 L176 689 L154 689 L90 300 L176 300 Z " />
<glyph glyph-name="Ccedilla" unicode="&#xc7;" horiz-adv-x="375" d="M148 -210 C158 -214.667 169 -217 181 -217 C215.667 -217 238 -192.667 238 -146 C238 -100.667 215.333 -84.3333 174 -83 L197 -8 C98.1248 8.03382 42 150.221 42 359 C42 557.9 102.97 724 222 724 C257.333 724 290 713.333 320 692 L310 669 C280.667 694.333 251 699 223 699 C118.922 699 66 542.03 66 359 C66 153.563 120.407 15 218 15 C259.333 15 290.333 29.3333 313 44 L313 17 C290.333 2.33333 255.667 -10 217 -10 L201 -64 C239.667 -69.3333 260 -99.3333 260 -146 C260 -203.333 228.667 -240 182 -240 C169.333 -240 158 -238 148 -234 L148 -210 Z " />
<glyph glyph-name="Egrave" unicode="&#xc8;" horiz-adv-x="375" >
<path fill="black" d="M281 25 L281 0 L65 0 L65 714 L281 714 L281 689 L89 689 L89 389 L270 389 L270 364 L89 364 L89 25 L281 25 Z " /><g transform="translate(-16,186)" ><path fill="black" d="M197 606 C166.333 647.333 126.667 710 104 758 L104 765 L132 765 C152 715.667 187.333 657.667 214 615 L214 606 L197 606 Z " /></g></glyph>
<glyph glyph-name="Eacute" unicode="&#xc9;" horiz-adv-x="375" >
<path fill="black" d="M281 25 L281 0 L65 0 L65 714 L281 714 L281 689 L89 689 L89 389 L270 389 L270 364 L89 364 L89 25 L281 25 Z " /><g transform="translate(-5,186)" ><path fill="black" d="M151 606 L151 615 C181.667 661.667 212 717 232 765 L259 765 L259 758 C237.667 711.333 197.667 647.333 167 606 L151 606 Z " /></g></glyph>
<glyph glyph-name="Ecircumflex" unicode="&#xca;" horiz-adv-x="375" >
<path fill="black" d="M281 25 L281 0 L65 0 L65 714 L281 714 L281 689 L89 689 L89 389 L270 389 L270 364 L89 364 L89 25 L281 25 Z " /><g transform="translate(-1,186)" ><path fill="black" d="M92 606 L92 613 C113.025 649.795 145.219 720.918 161 763 L184 763 C200.222 719.741 234.699 642.885 251 613 L251 606 L236 606 C214.667 642 192 693.333 172 732 C153.333 694.667 129.333 640.667 108 606 L92 606 Z " /></g></glyph>
<glyph glyph-name="Edieresis" unicode="&#xcb;" horiz-adv-x="375" >
<g transform="translate(-1,174)" ><path fill="black" d="M116 635 C104 635 96 651.333 96 670 C96 688.667 104 706 116 706 C132 706 138 688.667 138 670 C138 650 132 635 116 635 Z M228 635 C213.333 635 207 651.333 207 670 C207 688.667 213.333 706 228 706 C242.667 706 248 690 248 670 C248 650 242.667 635 228 635 Z " /></g><path fill="black" d="M281 25 L281 0 L65 0 L65 714 L281 714 L281 689 L89 689 L89 389 L270 389 L270 364 L89 364 L89 25 L281 25 Z " /></glyph>
<glyph glyph-name="Igrave" unicode="&#xcc;" horiz-adv-x="375" >
<path fill="black" d="M80 20 L159 23 L159 690 L80 694 L80 714 L264 714 L264 694 L184 690 L184 23 L264 20 L264 0 L80 0 L80 20 Z " /><g transform="translate(-15,186)" ><path fill="black" d="M197 606 C166.333 647.333 126.667 710 104 758 L104 765 L132 765 C152 715.667 187.333 657.667 214 615 L214 606 L197 606 Z " /></g></glyph>
<glyph glyph-name="Iacute" unicode="&#xcd;" horiz-adv-x="375" >
<path fill="black" d="M80 20 L159 23 L159 690 L80 694 L80 714 L264 714 L264 694 L184 690 L184 23 L264 20 L264 0 L80 0 L80 20 Z " /><g transform="translate(-4,186)" ><path fill="black" d="M151 606 L151 615 C181.667 661.667 212 717 232 765 L259 765 L259 758 C237.667 711.333 197.667 647.333 167 606 L151 606 Z " /></g></glyph>
<glyph glyph-name="Icircumflex" unicode="&#xce;" horiz-adv-x="375" >
<path fill="black" d="M80 20 L159 23 L159 690 L80 694 L80 714 L264 714 L264 694 L184 690 L184 23 L264 20 L264 0 L80 0 L80 20 Z " /><g transform="translate(0,186)" ><path fill="black" d="M92 606 L92 613 C113.025 649.795 145.219 720.918 161 763 L184 763 C200.222 719.741 234.699 642.885 251 613 L251 606 L236 606 C214.667 642 192 693.333 172 732 C153.333 694.667 129.333 640.667 108 606 L92 606 Z " /></g></glyph>
<glyph glyph-name="Idieresis" unicode="&#xcf;" horiz-adv-x="375" >
<g transform="translate(0,174)" ><path fill="black" d="M116 635 C104 635 96 651.333 96 670 C96 688.667 104 706 116 706 C132 706 138 688.667 138 670 C138 650 132 635 116 635 Z M228 635 C213.333 635 207 651.333 207 670 C207 688.667 213.333 706 228 706 C242.667 706 248 690 248 670 C248 650 242.667 635 228 635 Z " /></g><path fill="black" d="M80 20 L159 23 L159 690 L80 694 L80 714 L264 714 L264 694 L184 690 L184 23 L264 20 L264 0 L80 0 L80 20 Z " /></glyph>
<glyph glyph-name="Eth" unicode="&#xd0;" horiz-adv-x="375" d="M55 353 L3 353 L3 378 L55 378 L55 714 L146 714 C266 714 319 596.667 319 362 C319 122 265.333 0 144 0 L55 0 L55 353 Z M141 25 C249 25 294 138.667 294 360 C294 569.048 254 689 142 689 L80 689 L80 378 L179 378 L179 353 L80 353 L80 25 L141 25 Z " />
<glyph glyph-name="Ntilde" unicode="&#xd1;" horiz-adv-x="375" >
<path fill="black" d="M45 0 L45 714 L75 714 L276 54 L278 54 C278 99.3333 276 151.667 276 181 L276 714 L299 714 L299 0 L271 0 L69 664 L68 664 C69.3333 637.333 69 604 69 548 L69 0 L45 0 Z " /><g transform="translate(5,186)" ><path fill="black" d="M73 625 C75.6667 689 95.3333 718 126 718 C166.222 718 183.778 648 216 648 C234.667 648 249.333 667.333 252 718 L271 718 C268.333 654 246.667 624 216 624 C175.778 624 158.222 694 126 694 C110 694 95 677 91 625 L73 625 Z " /></g></glyph>
<glyph glyph-name="Ograve" unicode="&#xd2;" horiz-adv-x="375" >
<path fill="black" d="M173 -10 C65.2078 -10 35 172.926 35 358 C35 603.333 82.3333 724 173 724 C273.156 724 309 570.416 309 358 C309 166 280.636 -10 173 -10 Z M173 15 C249 15 285 134 285 358 C285 578 249 699 173 699 C95.6667 699 59 575.333 59 358 C59 139.333 98.3333 15 173 15 Z " /><g transform="translate(-15,186)" ><path fill="black" d="M197 606 C166.333 647.333 126.667 710 104 758 L104 765 L132 765 C152 715.667 187.333 657.667 214 615 L214 606 L197 606 Z " /></g></glyph>
<glyph glyph-name="Oacute" unicode="&#xd3;" horiz-adv-x="375" >
<path fill="black" d="M173 -10 C65.2078 -10 35 172.926 35 358 C35 603.333 82.3333 724 173 724 C273.156 724 309 570.416 309 358 C309 166 280.636 -10 173 -10 Z M173 15 C249 15 285 134 285 358 C285 578 249 699 173 699 C95.6667 699 59 575.333 59 358 C59 139.333 98.3333 15 173 15 Z " /><g transform="translate(-4,186)" ><path fill="black" d="M151 606 L151 615 C181.667 661.667 212 717 232 765 L259 765 L259 758 C237.667 711.333 197.667 647.333 167 606 L151 606 Z " /></g></glyph>
<glyph glyph-name="Ocircumflex" unicode="&#xd4;" horiz-adv-x="375" >
<path fill="black" d="M173 -10 C65.2078 -10 35 172.926 35 358 C35 603.333 82.3333 724 173 724 C273.156 724 309 570.416 309 358 C309 166 280.636 -10 173 -10 Z M173 15 C249 15 285 134 285 358 C285 578 249 699 173 699 C95.6667 699 59 575.333 59 358 C59 139.333 98.3333 15 173 15 Z " /><g transform="translate(0,186)" ><path fill="black" d="M92 606 L92 613 C113.025 649.795 145.219 720.918 161 763 L184 763 C200.222 719.741 234.699 642.885 251 613 L251 606 L236 606 C214.667 642 192 693.333 172 732 C153.333 694.667 129.333 640.667 108 606 L92 606 Z " /></g></glyph>
<glyph glyph-name="Otilde" unicode="&#xd5;" horiz-adv-x="375" >
<path fill="black" d="M173 -10 C65.2078 -10 35 172.926 35 358 C35 603.333 82.3333 724 173 724 C273.156 724 309 570.416 309 358 C309 166 280.636 -10 173 -10 Z M173 15 C249 15 285 134 285 358 C285 578 249 699 173 699 C95.6667 699 59 575.333 59 358 C59 139.333 98.3333 15 173 15 Z " /><g transform="translate(1,186)" ><path fill="black" d="M73 625 C75.6667 689 95.3333 718 126 718 C166.222 718 183.778 648 216 648 C234.667 648 249.333 667.333 252 718 L271 718 C268.333 654 246.667 624 216 624 C175.778 624 158.222 694 126 694 C110 694 95 677 91 625 L73 625 Z " /></g></glyph>
<glyph glyph-name="Odieresis" unicode="&#xd6;" horiz-adv-x="375" >
<g transform="translate(0,174)" ><path fill="black" d="M116 635 C104 635 96 651.333 96 670 C96 688.667 104 706 116 706 C132 706 138 688.667 138 670 C138 650 132 635 116 635 Z M228 635 C213.333 635 207 651.333 207 670 C207 688.667 213.333 706 228 706 C242.667 706 248 690 248 670 C248 650 242.667 635 228 635 Z " /></g><path fill="black" d="M173 -10 C65.2078 -10 35 172.926 35 358 C35 603.333 82.3333 724 173 724 C273.156 724 309 570.416 309 358 C309 166 280.636 -10 173 -10 Z M173 15 C249 15 285 134 285 358 C285 578 249 699 173 699 C95.6667 699 59 575.333 59 358 C59 139.333 98.3333 15 173 15 Z " /></glyph>
<glyph glyph-name="multiply" unicode="&#xd7;" horiz-adv-x="375" d="M39 183 L151 354 L39 524 L54 541 L165 370 L276 541 L292 525 L179 354 L291 183 L275 167 L165 337 L52 166 L39 183 Z " />
<glyph glyph-name="Oslash" unicode="&#xd8;" horiz-adv-x="375" d="M64 114 C45.3333 182 38 270 38 358 C38 603.333 85.3333 724 176 724 C218.667 724 248.333 696 271 648 L305 737 L323 724 L282 618 C303.333 552.667 312 463.333 312 358 C312 166 283.636 -10 176 -10 C129.333 -10 96.3333 24 75 80 L33 -28 L14 -15 L64 114 Z M88 115 C107.333 48.3333 136.667 15 176 15 C252 15 288 134 288 358 C288 451.333 282.667 526 268 582 L88 115 Z M258 617 C240 671.667 212.667 699 176 699 C98.6667 699 62 575.333 62 358 C62 276.667 67.6667 208.333 79 153 L258 617 Z " />
<glyph glyph-name="Ugrave" unicode="&#xd9;" horiz-adv-x="375" >
<path fill="black" d="M45 714 L70 714 L70 239 C70 83 106.667 15 172 15 C236 15 276 78.3333 276 233 L276 714 L299 714 L299 230 C299 58 248 -10 172 -10 C90.6667 -10 45 69.3333 45 236 L45 714 Z " /><g transform="translate(-15,186)" ><path fill="black" d="M197 606 C166.333 647.333 126.667 710 104 758 L104 765 L132 765 C152 715.667 187.333 657.667 214 615 L214 606 L197 606 Z " /></g></glyph>
<glyph glyph-name="Uacute" unicode="&#xda;" horiz-adv-x="375" >
<path fill="black" d="M45 714 L70 714 L70 239 C70 83 106.667 15 172 15 C236 15 276 78.3333 276 233 L276 714 L299 714 L299 230 C299 58 248 -10 172 -10 C90.6667 -10 45 69.3333 45 236 L45 714 Z " /><g transform="translate(-4,186)" ><path fill="black" d="M151 606 L151 615 C181.667 661.667 212 717 232 765 L259 765 L259 758 C237.667 711.333 197.667 647.333 167 606 L151 606 Z " /></g></glyph>
<glyph glyph-name="Ucircumflex" unicode="&#xdb;" horiz-adv-x="375" >
<path fill="black" d="M45 714 L70 714 L70 239 C70 83 106.667 15 172 15 C236 15 276 78.3333 276 233 L276 714 L299 714 L299 230 C299 58 248 -10 172 -10 C90.6667 -10 45 69.3333 45 236 L45 714 Z " /><g transform="translate(0,186)" ><path fill="black" d="M92 606 L92 613 C113.025 649.795 145.219 720.918 161 763 L184 763 C200.222 719.741 234.699 642.885 251 613 L251 606 L236 606 C214.667 642 192 693.333 172 732 C153.333 694.667 129.333 640.667 108 606 L92 606 Z " /></g></glyph>
<glyph glyph-name="Udieresis" unicode="&#xdc;" horiz-adv-x="375" >
<g transform="translate(0,174)" ><path fill="black" d="M116 635 C104 635 96 651.333 96 670 C96 688.667 104 706 116 706 C132 706 138 688.667 138 670 C138 650 132 635 116 635 Z M228 635 C213.333 635 207 651.333 207 670 C207 688.667 213.333 706 228 706 C242.667 706 248 690 248 670 C248 650 242.667 635 228 635 Z " /></g><path fill="black" d="M45 714 L70 714 L70 239 C70 83 106.667 15 172 15 C236 15 276 78.3333 276 233 L276 714 L299 714 L299 230 C299 58 248 -10 172 -10 C90.6667 -10 45 69.3333 45 236 L45 714 Z " /></glyph>
<glyph glyph-name="Yacute" unicode="&#xdd;" horiz-adv-x="375" >
<path fill="black" d="M161 0 L161 275 L26 714 L51 714 L173 305 L293 714 L319 714 L185 277 L185 0 L161 0 Z " /><g transform="translate(-4,186)" ><path fill="black" d="M151 606 L151 615 C181.667 661.667 212 717 232 765 L259 765 L259 758 C237.667 711.333 197.667 647.333 167 606 L151 606 Z " /></g></glyph>
<glyph glyph-name="Thorn" unicode="&#xde;" horiz-adv-x="375" d="M65 0 L65 714 L89 714 L89 584 L169 584 C259.589 584 312 533.494 312 385 C312 241 265.333 176 172 176 L89 176 L89 0 L65 0 Z M89 201 L166 201 C247.333 201 287 254 287 386 C287 515.333 247 559 163 559 L89 559 L89 201 Z " />
<glyph glyph-name="germandbls" unicode="&#xdf;" horiz-adv-x="375" d="M74 572 C74 696 110 765 182 765 C242 765 274 713.667 274 643 C274 522.444 200 520.556 200 424 C200 368 220.333 339.333 251 298 C285.445 252.956 309 212.345 309 135 C309 58.6623 277.719 -10 211 -10 C180.333 -10 157.667 0.333333 139 15 L139 43 C161.667 24.3333 185.333 15 210 15 C258 15 285 64.3333 285 135 C285 204.333 262.333 239.667 233 281 C201 325 175 360 175 424 C175 532.791 249 534.68 249 643 C249 700.333 227.667 740 181 740 C122.333 740 98 676.333 98 571 L98 0 L74 0 L74 572 Z " />
<glyph glyph-name="agrave" unicode="&#xe0;" horiz-adv-x="375" >
<path fill="black" d="M255 98 L254 98 C238.025 42.0888 212.132 -10 151 -10 C87 -10 56 51.6667 56 129 C56 234.333 107.667 284.333 197 295 L254 302 L254 349 C254 469 228.667 512 178 512 C150 512 122.667 503.333 92 478 L83 502 C112.333 524.667 144.667 537 178 537 C246 537 278 486 278 354 L278 0 L258 0 L255 98 Z M254 278 L199 272 C123 264 81 221 81 129 C81 55.6667 107.333 14 154 14 C223.437 14 254 97.2814 254 220 L254 278 Z " /><g transform="translate(-11,0)" ><path fill="black" d="M197 606 C166.333 647.333 126.667 710 104 758 L104 765 L132 765 C152 715.667 187.333 657.667 214 615 L214 606 L197 606 Z " /></g></glyph>
<glyph glyph-name="aacute" unicode="&#xe1;" horiz-adv-x="375" >
<path fill="black" d="M255 98 L254 98 C238.025 42.0888 212.132 -10 151 -10 C87 -10 56 51.6667 56 129 C56 234.333 107.667 284.333 197 295 L254 302 L254 349 C254 469 228.667 512 178 512 C150 512 122.667 503.333 92 478 L83 502 C112.333 524.667 144.667 537 178 537 C246 537 278 486 278 354 L278 0 L258 0 L255 98 Z M254 278 L199 272 C123 264 81 221 81 129 C81 55.6667 107.333 14 154 14 C223.437 14 254 97.2814 254 220 L254 278 Z " /><path fill="black" d="M151 606 L151 615 C181.667 661.667 212 717 232 765 L259 765 L259 758 C237.667 711.333 197.667 647.333 167 606 L151 606 Z " /></glyph>
<glyph glyph-name="acircumflex" unicode="&#xe2;" horiz-adv-x="375" >
<path fill="black" d="M255 98 L254 98 C238.025 42.0888 212.132 -10 151 -10 C87 -10 56 51.6667 56 129 C56 234.333 107.667 284.333 197 295 L254 302 L254 349 C254 469 228.667 512 178 512 C150 512 122.667 503.333 92 478 L83 502 C112.333 524.667 144.667 537 178 537 C246 537 278 486 278 354 L278 0 L258 0 L255 98 Z M254 278 L199 272 C123 264 81 221 81 129 C81 55.6667 107.333 14 154 14 C223.437 14 254 97.2814 254 220 L254 278 Z " /><g transform="translate(4,0)" ><path fill="black" d="M92 606 L92 613 C113.025 649.795 145.219 720.918 161 763 L184 763 C200.222 719.741 234.699 642.885 251 613 L251 606 L236 606 C214.667 642 192 693.333 172 732 C153.333 694.667 129.333 640.667 108 606 L92 606 Z " /></g></glyph>
<glyph glyph-name="atilde" unicode="&#xe3;" horiz-adv-x="375" >
<path fill="black" d="M255 98 L254 98 C238.025 42.0888 212.132 -10 151 -10 C87 -10 56 51.6667 56 129 C56 234.333 107.667 284.333 197 295 L254 302 L254 349 C254 469 228.667 512 178 512 C150 512 122.667 503.333 92 478 L83 502 C112.333 524.667 144.667 537 178 537 C246 537 278 486 278 354 L278 0 L258 0 L255 98 Z M254 278 L199 272 C123 264 81 221 81 129 C81 55.6667 107.333 14 154 14 C223.437 14 254 97.2814 254 220 L254 278 Z " /><g transform="translate(5,0)" ><path fill="black" d="M73 625 C75.6667 689 95.3333 718 126 718 C166.222 718 183.778 648 216 648 C234.667 648 249.333 667.333 252 718 L271 718 C268.333 654 246.667 624 216 624 C175.778 624 158.222 694 126 694 C110 694 95 677 91 625 L73 625 Z " /></g></glyph>
<glyph glyph-name="adieresis" unicode="&#xe4;" horiz-adv-x="375" >
<g transform="translate(4,-12)" ><path fill="black" d="M116 635 C104 635 96 651.333 96 670 C96 688.667 104 706 116 706 C132 706 138 688.667 138 670 C138 650 132 635 116 635 Z M228 635 C213.333 635 207 651.333 207 670 C207 688.667 213.333 706 228 706 C242.667 706 248 690 248 670 C248 650 242.667 635 228 635 Z " /></g><path fill="black" d="M255 98 L254 98 C238.025 42.0888 212.132 -10 151 -10 C87 -10 56 51.6667 56 129 C56 234.333 107.667 284.333 197 295 L254 302 L254 349 C254 469 228.667 512 178 512 C150 512 122.667 503.333 92 478 L83 502 C112.333 524.667 144.667 537 178 537 C246 537 278 486 278 354 L278 0 L258 0 L255 98 Z M254 278 L199 272 C123 264 81 221 81 129 C81 55.6667 107.333 14 154 14 C223.437 14 254 97.2814 254 220 L254 278 Z " /></glyph>
<glyph glyph-name="aring" unicode="&#xe5;" horiz-adv-x="375" >
<path fill="black" d="M255 98 L254 98 C238.025 42.0888 212.132 -10 151 -10 C87 -10 56 51.6667 56 129 C56 234.333 107.667 284.333 197 295 L254 302 L254 349 C254 469 228.667 512 178 512 C150 512 122.667 503.333 92 478 L83 502 C112.333 524.667 144.667 537 178 537 C246 537 278 486 278 354 L278 0 L258 0 L255 98 Z M254 278 L199 272 C123 264 81 221 81 129 C81 55.6667 107.333 14 154 14 C223.437 14 254 97.2814 254 220 L254 278 Z " /><g transform="translate(4,0)" ><path fill="black" d="M173 614 C137 614 107 647 107 707 C107 764.333 136 800 172 800 C209.333 800 237 763.333 237 706 C237 650 210.333 614 173 614 Z M173 636 C199.667 636 218 664.667 218 706 C218 748.667 199 777 171 777 C144.333 777 127 748.333 127 707 C127 667 143.667 636 173 636 Z " /></g></glyph>
<glyph glyph-name="ae" unicode="&#xe6;" horiz-adv-x="375" d="M313 22 C292.333 0.666667 272 -10 252 -10 C208 -10 183 48.3333 171 135 C163 48.3333 143.333 -10 94 -10 C43.3333 -10 19 48 19 128 C19 237.333 60.3333 288.667 131 294 L156 296 L156 354 C156 466 137.667 512 99 512 C81.6667 512 62.6667 504.333 40 479 L32 502 C52 523.333 75 537 103 537 C144.333 537 168 489.667 174 395 C184.654 474.904 209.088 538 249 538 C302.307 538 326 434.152 326 297 L326 270 L183 270 C183 126.078 204.437 15 255 15 C268.333 15 286.333 20.6667 313 50 L313 22 Z M156 271 L131 269 C72.3333 264.333 43 217 43 127 C43 60.3333 60.6667 15 94 15 C140.874 15 156 107.662 156 200 L156 271 Z M302 295 C302 417.823 286.355 513 248 513 C213.333 513 185.667 431 183 295 L302 295 Z " />
<glyph glyph-name="ccedilla" unicode="&#xe7;" horiz-adv-x="375" d="M145 -210 C155 -214.667 166 -217 178 -217 C212.667 -217 235 -192.667 235 -146 C235 -100.667 212.333 -84.3333 171 -83 L193 -9 C107.663 -0.999622 65 108.073 65 259 C65 431.39 122.182 538 214 538 C244 538 269.333 531 290 517 L282 493 C262 507.667 237.667 513 215 513 C137.667 513 91 419 91 259 C91 120.437 125.463 15 208 15 C234.667 15 264.333 22.3333 287 37 L287 11 C269.667 0.333333 242 -7.33333 214 -10 L198 -64 C236.667 -69.3333 257 -99.3333 257 -146 C257 -203.333 225.667 -240 179 -240 C166.333 -240 155 -238 145 -234 L145 -210 Z " />
<glyph glyph-name="egrave" unicode="&#xe8;" horiz-adv-x="375" >
<path fill="black" d="M289 23 C262.333 1.66667 231.333 -10 194 -10 C95.3074 -10 51 99.4372 51 262 C51 419.333 92.9957 538 180 538 C265.411 538 301 426.719 301 296 L301 270 L75 270 C76.3333 100.667 116.667 15 194 15 C228.667 15 255.667 24.3333 289 51 L289 23 Z M277 294 C277 419.255 248.281 513 179 513 C120.333 513 82.6667 439.333 76 294 L277 294 Z " /><g transform="translate(-7,0)" ><path fill="black" d="M197 606 C166.333 647.333 126.667 710 104 758 L104 765 L132 765 C152 715.667 187.333 657.667 214 615 L214 606 L197 606 Z " /></g></glyph>
<glyph glyph-name="eacute" unicode="&#xe9;" horiz-adv-x="375" >
<path fill="black" d="M289 23 C262.333 1.66667 231.333 -10 194 -10 C95.3074 -10 51 99.4372 51 262 C51 419.333 92.9957 538 180 538 C265.411 538 301 426.719 301 296 L301 270 L75 270 C76.3333 100.667 116.667 15 194 15 C228.667 15 255.667 24.3333 289 51 L289 23 Z M277 294 C277 419.255 248.281 513 179 513 C120.333 513 82.6667 439.333 76 294 L277 294 Z " /><g transform="translate(4,0)" ><path fill="black" d="M151 606 L151 615 C181.667 661.667 212 717 232 765 L259 765 L259 758 C237.667 711.333 197.667 647.333 167 606 L151 606 Z " /></g></glyph>
<glyph glyph-name="ecircumflex" unicode="&#xea;" horiz-adv-x="375" >
<path fill="black" d="M289 23 C262.333 1.66667 231.333 -10 194 -10 C95.3074 -10 51 99.4372 51 262 C51 419.333 92.9957 538 180 538 C265.411 538 301 426.719 301 296 L301 270 L75 270 C76.3333 100.667 116.667 15 194 15 C228.667 15 255.667 24.3333 289 51 L289 23 Z M277 294 C277 419.255 248.281 513 179 513 C120.333 513 82.6667 439.333 76 294 L277 294 Z " /><g transform="translate(8,0)" ><path fill="black" d="M92 606 L92 613 C113.025 649.795 145.219 720.918 161 763 L184 763 C200.222 719.741 234.699 642.885 251 613 L251 606 L236 606 C214.667 642 192 693.333 172 732 C153.333 694.667 129.333 640.667 108 606 L92 606 Z " /></g></glyph>
<glyph glyph-name="edieresis" unicode="&#xeb;" horiz-adv-x="375" >
<g transform="translate(8,-12)" ><path fill="black" d="M116 635 C104 635 96 651.333 96 670 C96 688.667 104 706 116 706 C132 706 138 688.667 138 670 C138 650 132 635 116 635 Z M228 635 C213.333 635 207 651.333 207 670 C207 688.667 213.333 706 228 706 C242.667 706 248 690 248 670 C248 650 242.667 635 228 635 Z " /></g><path fill="black" d="M289 23 C262.333 1.66667 231.333 -10 194 -10 C95.3074 -10 51 99.4372 51 262 C51 419.333 92.9957 538 180 538 C265.411 538 301 426.719 301 296 L301 270 L75 270 C76.3333 100.667 116.667 15 194 15 C228.667 15 255.667 24.3333 289 51 L289 23 Z M277 294 C277 419.255 248.281 513 179 513 C120.333 513 82.6667 439.333 76 294 L277 294 Z " /></glyph>
<glyph glyph-name="igrave" unicode="&#xec;" horiz-adv-x="344" >
<path fill="black" d="M58 21 L168 25 L168 503 L70 507 L70 528 L192 528 L192 25 L295 21 L295 0 L58 0 L58 21 Z " /><g transform="translate(-15,0)" ><path fill="black" d="M197 606 C166.333 647.333 126.667 710 104 758 L104 765 L132 765 C152 715.667 187.333 657.667 214 615 L214 606 L197 606 Z " /></g></glyph>
<glyph glyph-name="iacute" unicode="&#xed;" horiz-adv-x="344" >
<path fill="black" d="M58 21 L168 25 L168 503 L70 507 L70 528 L192 528 L192 25 L295 21 L295 0 L58 0 L58 21 Z " /><g transform="translate(-4,0)" ><path fill="black" d="M151 606 L151 615 C181.667 661.667 212 717 232 765 L259 765 L259 758 C237.667 711.333 197.667 647.333 167 606 L151 606 Z " /></g></glyph>
<glyph glyph-name="icircumflex" unicode="&#xee;" horiz-adv-x="344" >
<path fill="black" d="M58 21 L168 25 L168 503 L70 507 L70 528 L192 528 L192 25 L295 21 L295 0 L58 0 L58 21 Z " /><path fill="black" d="M92 606 L92 613 C113.025 649.795 145.219 720.918 161 763 L184 763 C200.222 719.741 234.699 642.885 251 613 L251 606 L236 606 C214.667 642 192 693.333 172 732 C153.333 694.667 129.333 640.667 108 606 L92 606 Z " /></glyph>
<glyph glyph-name="idieresis" unicode="&#xef;" horiz-adv-x="344" >
<g transform="translate(0,-12)" ><path fill="black" d="M116 635 C104 635 96 651.333 96 670 C96 688.667 104 706 116 706 C132 706 138 688.667 138 670 C138 650 132 635 116 635 Z M228 635 C213.333 635 207 651.333 207 670 C207 688.667 213.333 706 228 706 C242.667 706 248 690 248 670 C248 650 242.667 635 228 635 Z " /></g><path fill="black" d="M58 21 L168 25 L168 503 L70 507 L70 528 L192 528 L192 25 L295 21 L295 0 L58 0 L58 21 Z " /></glyph>
<glyph glyph-name="eth" unicode="&#xf0;" horiz-adv-x="375" d="M271 390 C259 496.667 227.667 591.333 181 662 L112 602 L101 622 L168 681 C149.333 705 130.333 724.667 111 740 L124 757 C148 740.333 168.667 720.333 186 697 L252 755 L263 734 L200 679 C272.897 573.704 304 417.227 304 272 C304 88 255 -10 171 -10 C83.9957 -10 42 94.8745 42 224 C42 373.333 95 464 175 464 C220.333 464 253 432.667 269 390 L271 390 Z M170 15 C239.229 15 278 111.364 278 243 C278 357.667 247.39 439 179 439 C107 439 66 358.333 66 225 C66 95.6667 104.667 15 170 15 Z " />
<glyph glyph-name="ntilde" unicode="&#xf1;" horiz-adv-x="375" >
<path fill="black" d="M58 0 L58 528 L77 528 L80 416 L82 416 C95.0958 476.24 124.961 537 188 537 C252 537 290 483.667 290 361 L290 0 L266 0 L266 355 C266 468.333 236.667 512 186 512 C126 512 83 447 83 307 L83 0 L58 0 Z " /><g transform="translate(5,0)" ><path fill="black" d="M73 625 C75.6667 689 95.3333 718 126 718 C166.222 718 183.778 648 216 648 C234.667 648 249.333 667.333 252 718 L271 718 C268.333 654 246.667 624 216 624 C175.778 624 158.222 694 126 694 C110 694 95 677 91 625 L73 625 Z " /></g></glyph>
<glyph glyph-name="ograve" unicode="&#xf2;" horiz-adv-x="375" >
<path fill="black" d="M173 -10 C85 -10 42 93 42 265 C42 439.667 87 537 175 537 C265.745 537 304 425.048 304 264 C304 92 262.333 -10 173 -10 Z M173 15 C247.667 15 278 106.333 278 265 C278 409.892 249.589 512 175 512 C101.667 512 66 422.333 66 265 C66 109 99.6667 15 173 15 Z " /><g transform="translate(-15,0)" ><path fill="black" d="M197 606 C166.333 647.333 126.667 710 104 758 L104 765 L132 765 C152 715.667 187.333 657.667 214 615 L214 606 L197 606 Z " /></g></glyph>
<glyph glyph-name="oacute" unicode="&#xf3;" horiz-adv-x="375" >
<path fill="black" d="M173 -10 C85 -10 42 93 42 265 C42 439.667 87 537 175 537 C265.745 537 304 425.048 304 264 C304 92 262.333 -10 173 -10 Z M173 15 C247.667 15 278 106.333 278 265 C278 409.892 249.589 512 175 512 C101.667 512 66 422.333 66 265 C66 109 99.6667 15 173 15 Z " /><g transform="translate(-4,0)" ><path fill="black" d="M151 606 L151 615 C181.667 661.667 212 717 232 765 L259 765 L259 758 C237.667 711.333 197.667 647.333 167 606 L151 606 Z " /></g></glyph>
<glyph glyph-name="ocircumflex" unicode="&#xf4;" horiz-adv-x="375" >
<path fill="black" d="M173 -10 C85 -10 42 93 42 265 C42 439.667 87 537 175 537 C265.745 537 304 425.048 304 264 C304 92 262.333 -10 173 -10 Z M173 15 C247.667 15 278 106.333 278 265 C278 409.892 249.589 512 175 512 C101.667 512 66 422.333 66 265 C66 109 99.6667 15 173 15 Z " /><path fill="black" d="M92 606 L92 613 C113.025 649.795 145.219 720.918 161 763 L184 763 C200.222 719.741 234.699 642.885 251 613 L251 606 L236 606 C214.667 642 192 693.333 172 732 C153.333 694.667 129.333 640.667 108 606 L92 606 Z " /></glyph>
<glyph glyph-name="otilde" unicode="&#xf5;" horiz-adv-x="375" >
<path fill="black" d="M173 -10 C85 -10 42 93 42 265 C42 439.667 87 537 175 537 C265.745 537 304 425.048 304 264 C304 92 262.333 -10 173 -10 Z M173 15 C247.667 15 278 106.333 278 265 C278 409.892 249.589 512 175 512 C101.667 512 66 422.333 66 265 C66 109 99.6667 15 173 15 Z " /><g transform="translate(1,0)" ><path fill="black" d="M73 625 C75.6667 689 95.3333 718 126 718 C166.222 718 183.778 648 216 648 C234.667 648 249.333 667.333 252 718 L271 718 C268.333 654 246.667 624 216 624 C175.778 624 158.222 694 126 694 C110 694 95 677 91 625 L73 625 Z " /></g></glyph>
<glyph glyph-name="odieresis" unicode="&#xf6;" horiz-adv-x="375" >
<g transform="translate(0,-12)" ><path fill="black" d="M116 635 C104 635 96 651.333 96 670 C96 688.667 104 706 116 706 C132 706 138 688.667 138 670 C138 650 132 635 116 635 Z M228 635 C213.333 635 207 651.333 207 670 C207 688.667 213.333 706 228 706 C242.667 706 248 690 248 670 C248 650 242.667 635 228 635 Z " /></g><path fill="black" d="M173 -10 C85 -10 42 93 42 265 C42 439.667 87 537 175 537 C265.745 537 304 425.048 304 264 C304 92 262.333 -10 173 -10 Z M173 15 C247.667 15 278 106.333 278 265 C278 409.892 249.589 512 175 512 C101.667 512 66 422.333 66 265 C66 109 99.6667 15 173 15 Z " /></glyph>
<glyph glyph-name="divide" unicode="&#xf7;" horiz-adv-x="375" d="M38 365 L306 365 L306 341 L38 341 L38 365 Z M172 142 C157.333 142 153 157.667 153 175 C153 193.667 157.333 209 172 209 C188 209 192 193.333 192 176 C192 157.333 188 142 172 142 Z M172 497 C157.333 497 153 512.667 153 530 C153 548.667 157.333 564 172 564 C188 564 192 548.333 192 531 C192 512.333 188 497 172 497 Z " />
<glyph glyph-name="oslash" unicode="&#xf8;" horiz-adv-x="375" d="M77 65 C55.6667 113 45 179.667 45 265 C45 439.667 90 537 178 537 C212.667 537 240.333 521 261 489 L297 570 L314 557 L274 466 C296.667 416.667 307 348 307 264 C307 92 265.333 -10 176 -10 C139.333 -10 110.333 7.33333 89 42 L47 -54 L31 -40 L77 65 Z M101 69 C118.333 33 143.333 15 176 15 C250.667 15 281 106.333 281 265 C281 333 275.667 392.333 261 435 L101 69 Z M250 461 C232.667 495 208.667 512 178 512 C104.667 512 69 422.333 69 265 C69 195 76 138.333 90 95 L250 461 Z " />
<glyph glyph-name="ugrave" unicode="&#xf9;" horiz-adv-x="375" >
<path fill="black" d="M55 528 L79 528 L79 177 C79 63.6667 108.667 15 162 15 C222 15 263 81.6667 263 227 L263 528 L286 528 L286 0 L267 0 L264 112 L262 112 C251.155 52.3544 218.604 -10 158 -10 C89.3333 -10 55 50.3333 55 171 L55 528 Z " /><g transform="translate(-15,0)" ><path fill="black" d="M197 606 C166.333 647.333 126.667 710 104 758 L104 765 L132 765 C152 715.667 187.333 657.667 214 615 L214 606 L197 606 Z " /></g></glyph>
<glyph glyph-name="uacute" unicode="&#xfa;" horiz-adv-x="375" >
<path fill="black" d="M55 528 L79 528 L79 177 C79 63.6667 108.667 15 162 15 C222 15 263 81.6667 263 227 L263 528 L286 528 L286 0 L267 0 L264 112 L262 112 C251.155 52.3544 218.604 -10 158 -10 C89.3333 -10 55 50.3333 55 171 L55 528 Z " /><g transform="translate(-4,0)" ><path fill="black" d="M151 606 L151 615 C181.667 661.667 212 717 232 765 L259 765 L259 758 C237.667 711.333 197.667 647.333 167 606 L151 606 Z " /></g></glyph>
<glyph glyph-name="ucircumflex" unicode="&#xfb;" horiz-adv-x="375" >
<path fill="black" d="M55 528 L79 528 L79 177 C79 63.6667 108.667 15 162 15 C222 15 263 81.6667 263 227 L263 528 L286 528 L286 0 L267 0 L264 112 L262 112 C251.155 52.3544 218.604 -10 158 -10 C89.3333 -10 55 50.3333 55 171 L55 528 Z " /><path fill="black" d="M92 606 L92 613 C113.025 649.795 145.219 720.918 161 763 L184 763 C200.222 719.741 234.699 642.885 251 613 L251 606 L236 606 C214.667 642 192 693.333 172 732 C153.333 694.667 129.333 640.667 108 606 L92 606 Z " /></glyph>
<glyph glyph-name="udieresis" unicode="&#xfc;" horiz-adv-x="375" >
<g transform="translate(0,-12)" ><path fill="black" d="M116 635 C104 635 96 651.333 96 670 C96 688.667 104 706 116 706 C132 706 138 688.667 138 670 C138 650 132 635 116 635 Z M228 635 C213.333 635 207 651.333 207 670 C207 688.667 213.333 706 228 706 C242.667 706 248 690 248 670 C248 650 242.667 635 228 635 Z " /></g><path fill="black" d="M55 528 L79 528 L79 177 C79 63.6667 108.667 15 162 15 C222 15 263 81.6667 263 227 L263 528 L286 528 L286 0 L267 0 L264 112 L262 112 C251.155 52.3544 218.604 -10 158 -10 C89.3333 -10 55 50.3333 55 171 L55 528 Z " /></glyph>
<glyph glyph-name="yacute" unicode="&#xfd;" horiz-adv-x="375" >
<path fill="black" d="M45 -207 C55 -213.667 65 -217 75 -217 C104.333 -217 126 -193.333 142 -112 L167 10 L49 528 L74 528 L154 156 C168.667 92 171.667 69.3333 177 48 L178 48 C184.667 82.6667 191 112.333 199 155 L275 528 L300 528 L166 -112 C147.333 -201.333 122.333 -243 77 -243 C67 -243 56.3333 -240 45 -234 L45 -207 Z " /><g transform="translate(-4,0)" ><path fill="black" d="M151 606 L151 615 C181.667 661.667 212 717 232 765 L259 765 L259 758 C237.667 711.333 197.667 647.333 167 606 L151 606 Z " /></g></glyph>
<glyph glyph-name="thorn" unicode="&#xfe;" horiz-adv-x="375" d="M58 -240 L58 714 L82 714 L82 527 C82 485.667 81.6667 444.333 79 403 L81 403 C94.3055 472.189 125.329 537 184 537 C263.333 537 303 448 303 270 C303 82 256 -10 180 -10 C124.047 -10 95.3402 50.6353 82 112 L81 112 C82.3333 82.6667 82 48.3333 82 11 L82 -240 L58 -240 Z M82 241 C82 94.3333 119.333 15 178 15 C238 15 278 90 278 270 C278 430 246.333 512 181 512 C116.974 512 82 419.13 82 279 L82 241 Z " />
<glyph glyph-name="ydieresis" unicode="&#xff;" horiz-adv-x="375" >
<g transform="translate(0,-12)" ><path fill="black" d="M116 635 C104 635 96 651.333 96 670 C96 688.667 104 706 116 706 C132 706 138 688.667 138 670 C138 650 132 635 116 635 Z M228 635 C213.333 635 207 651.333 207 670 C207 688.667 213.333 706 228 706 C242.667 706 248 690 248 670 C248 650 242.667 635 228 635 Z " /></g><path fill="black" d="M45 -207 C55 -213.667 65 -217 75 -217 C104.333 -217 126 -193.333 142 -112 L167 10 L49 528 L74 528 L154 156 C168.667 92 171.667 69.3333 177 48 L178 48 C184.667 82.6667 191 112.333 199 155 L275 528 L300 528 L166 -112 C147.333 -201.333 122.333 -243 77 -243 C67 -243 56.3333 -240 45 -234 L45 -207 Z " /></glyph>
<glyph glyph-name="Amacron" unicode="&#x100;" horiz-adv-x="375" >
<path fill="black" d="M156 715 L187 715 L328 0 L303 0 L251 276 L94 276 L42 0 L17 0 L156 715 Z M246 301 L189 603 L171 689 C165.667 658.333 161.667 633.667 155 603 L98 301 L246 301 Z " /><g transform="translate(-2,202)" ><path fill="black" d="M94 640 L250 640 L250 616 L94 616 L94 640 Z " /></g></glyph>
<glyph glyph-name="amacron" unicode="&#x101;" horiz-adv-x="375" >
<path fill="black" d="M255 98 L254 98 C238.025 42.0888 212.132 -10 151 -10 C87 -10 56 51.6667 56 129 C56 234.333 107.667 284.333 197 295 L254 302 L254 349 C254 469 228.667 512 178 512 C150 512 122.667 503.333 92 478 L83 502 C112.333 524.667 144.667 537 178 537 C246 537 278 486 278 354 L278 0 L258 0 L255 98 Z M254 278 L199 272 C123 264 81 221 81 129 C81 55.6667 107.333 14 154 14 C223.437 14 254 97.2814 254 220 L254 278 Z " /><g transform="translate(4,1)" ><path fill="black" d="M94 640 L250 640 L250 616 L94 616 L94 640 Z " /></g></glyph>
<glyph glyph-name="Abreve" unicode="&#x102;" horiz-adv-x="375" >
<path fill="black" d="M156 715 L187 715 L328 0 L303 0 L251 276 L94 276 L42 0 L17 0 L156 715 Z M246 301 L189 603 L171 689 C165.667 658.333 161.667 633.667 155 603 L98 301 L246 301 Z " /><g transform="translate(-2,201)" ><path fill="black" d="M116 716 C118.667 665.333 137.333 632 172 632 C209.333 632 227.333 665.333 230 716 L250 716 C246 648 218.667 608 172 608 C129.333 608 98.6667 644 96 716 L116 716 Z " /></g></glyph>
<glyph glyph-name="abreve" unicode="&#x103;" horiz-adv-x="375" >
<path fill="black" d="M255 98 L254 98 C238.025 42.0888 212.132 -10 151 -10 C87 -10 56 51.6667 56 129 C56 234.333 107.667 284.333 197 295 L254 302 L254 349 C254 469 228.667 512 178 512 C150 512 122.667 503.333 92 478 L83 502 C112.333 524.667 144.667 537 178 537 C246 537 278 486 278 354 L278 0 L258 0 L255 98 Z M254 278 L199 272 C123 264 81 221 81 129 C81 55.6667 107.333 14 154 14 C223.437 14 254 97.2814 254 220 L254 278 Z " /><g transform="translate(4,0)" ><path fill="black" d="M116 716 C118.667 665.333 137.333 632 172 632 C209.333 632 227.333 665.333 230 716 L250 716 C246 648 218.667 608 172 608 C129.333 608 98.6667 644 96 716 L116 716 Z " /></g></glyph>
<glyph glyph-name="Aogonek" unicode="&#x104;" horiz-adv-x="375" d="M156 715 L187 715 L327 7 C327 7.66667 327.667 8.66667 329 10 L345 0 C311.667 -42.6667 291 -83 291 -135 C291 -173.667 302.667 -193 326 -193 C335.333 -193 345.667 -189.667 351 -187 L351 -210 C344.333 -214 333.333 -217 324 -217 C289.333 -217 268 -190 268 -138 C268 -91.3333 285.667 -45.3333 321 0 L303 0 L251 276 L94 276 L42 0 L17 0 L156 715 Z M246 301 L189 603 L171 689 C165.667 658.333 161.667 633.667 155 603 L98 301 L246 301 Z " />
<glyph glyph-name="aogonek" unicode="&#x105;" horiz-adv-x="375" d="M298 -210 C291.333 -214 280.333 -217 271 -217 C236.333 -217 215 -190 215 -138 C215 -91.3333 232.667 -45.3333 268 0 L261 0 L258 98 L257 98 C241.025 42.0888 215.132 -10 154 -10 C90 -10 59 51.6667 59 129 C59 234.333 110.667 284.333 200 295 L257 302 L257 349 C257 469 231.667 512 181 512 C153 512 125.667 503.333 95 478 L86 502 C115.333 524.667 147.667 537 181 537 C249 537 281 486 281 354 L281 7 L292 0 C258.667 -42.6667 238 -83 238 -135 C238 -173.667 249.667 -193 273 -193 C282.333 -193 292.667 -189.667 298 -187 L298 -210 Z M257 278 L202 272 C126 264 84 221 84 129 C84 55.6667 110.333 14 157 14 C226.437 14 257 97.2814 257 220 L257 278 Z " />
<glyph glyph-name="Cacute" unicode="&#x106;" horiz-adv-x="375" >
<path fill="black" d="M313 17 C290.333 2.33333 255.667 -10 217 -10 C105.078 -10 42 135.13 42 359 C42 557.9 102.97 724 222 724 C257.333 724 290 713.333 320 692 L310 669 C280.667 694.333 251 699 223 699 C118.922 699 66 542.03 66 359 C66 153.563 120.407 15 218 15 C259.333 15 290.333 29.3333 313 44 L313 17 Z " /><g transform="translate(37,186)" ><path fill="black" d="M151 606 L151 615 C181.667 661.667 212 717 232 765 L259 765 L259 758 C237.667 711.333 197.667 647.333 167 606 L151 606 Z " /></g></glyph>
<glyph glyph-name="cacute" unicode="&#x107;" horiz-adv-x="375" >
<path fill="black" d="M287 11 C268.333 -1 236.667 -10 206 -10 C110.026 -10 65 99.026 65 259 C65 431.39 122.182 538 214 538 C244 538 269.333 531 290 517 L282 493 C262 507.667 237.667 513 215 513 C137.667 513 91 419 91 259 C91 120.437 125.463 15 208 15 C234.667 15 264.333 22.3333 287 37 L287 11 Z " /><g transform="translate(22,0)" ><path fill="black" d="M151 606 L151 615 C181.667 661.667 212 717 232 765 L259 765 L259 758 C237.667 711.333 197.667 647.333 167 606 L151 606 Z " /></g></glyph>
<glyph glyph-name="Ccircumflex" unicode="&#x108;" horiz-adv-x="375" >
<path fill="black" d="M313 17 C290.333 2.33333 255.667 -10 217 -10 C105.078 -10 42 135.13 42 359 C42 557.9 102.97 724 222 724 C257.333 724 290 713.333 320 692 L310 669 C280.667 694.333 251 699 223 699 C118.922 699 66 542.03 66 359 C66 153.563 120.407 15 218 15 C259.333 15 290.333 29.3333 313 44 L313 17 Z " /><g transform="translate(41,186)" ><path fill="black" d="M92 606 L92 613 C113.025 649.795 145.219 720.918 161 763 L184 763 C200.222 719.741 234.699 642.885 251 613 L251 606 L236 606 C214.667 642 192 693.333 172 732 C153.333 694.667 129.333 640.667 108 606 L92 606 Z " /></g></glyph>
<glyph glyph-name="ccircumflex" unicode="&#x109;" horiz-adv-x="375" >
<path fill="black" d="M287 11 C268.333 -1 236.667 -10 206 -10 C110.026 -10 65 99.026 65 259 C65 431.39 122.182 538 214 538 C244 538 269.333 531 290 517 L282 493 C262 507.667 237.667 513 215 513 C137.667 513 91 419 91 259 C91 120.437 125.463 15 208 15 C234.667 15 264.333 22.3333 287 37 L287 11 Z " /><g transform="translate(26,0)" ><path fill="black" d="M92 606 L92 613 C113.025 649.795 145.219 720.918 161 763 L184 763 C200.222 719.741 234.699 642.885 251 613 L251 606 L236 606 C214.667 642 192 693.333 172 732 C153.333 694.667 129.333 640.667 108 606 L92 606 Z " /></g></glyph>
<glyph glyph-name="Cdotaccent" unicode="&#x10a;" horiz-adv-x="375" >
<path fill="black" d="M313 17 C290.333 2.33333 255.667 -10 217 -10 C105.078 -10 42 135.13 42 359 C42 557.9 102.97 724 222 724 C257.333 724 290 713.333 320 692 L310 669 C280.667 694.333 251 699 223 699 C118.922 699 66 542.03 66 359 C66 153.563 120.407 15 218 15 C259.333 15 290.333 29.3333 313 44 L313 17 Z " /><g transform="translate(41,187)" ><path fill="black" d="M173 660 C154.333 660 149 677 149 697 C149 715.667 154.333 734 173 734 C191.667 734 197 715.667 197 697 C197 678.333 191.667 660 173 660 Z " /></g></glyph>
<glyph glyph-name="cdotaccent" unicode="&#x10b;" horiz-adv-x="375" >
<path fill="black" d="M287 11 C268.333 -1 236.667 -10 206 -10 C110.026 -10 65 99.026 65 259 C65 431.39 122.182 538 214 538 C244 538 269.333 531 290 517 L282 493 C262 507.667 237.667 513 215 513 C137.667 513 91 419 91 259 C91 120.437 125.463 15 208 15 C234.667 15 264.333 22.3333 287 37 L287 11 Z " /><g transform="translate(26,1)" ><path fill="black" d="M173 660 C154.333 660 149 677 149 697 C149 715.667 154.333 734 173 734 C191.667 734 197 715.667 197 697 C197 678.333 191.667 660 173 660 Z " /></g></glyph>
<glyph glyph-name="Ccaron" unicode="&#x10c;" horiz-adv-x="375" >
<path fill="black" d="M313 17 C290.333 2.33333 255.667 -10 217 -10 C105.078 -10 42 135.13 42 359 C42 557.9 102.97 724 222 724 C257.333 724 290 713.333 320 692 L310 669 C280.667 694.333 251 699 223 699 C118.922 699 66 542.03 66 359 C66 153.563 120.407 15 218 15 C259.333 15 290.333 29.3333 313 44 L313 17 Z " /><g transform="translate(41,186)" ><path fill="black" d="M161 606 C144.787 651.938 112.762 722.156 94 757 L94 763 L109 763 C130.333 728.333 152.333 679.333 171 638 C189.667 679.333 211 721.667 235 763 L251 763 L251 757 C228.333 714.333 200.333 650 183 606 L161 606 Z " /></g></glyph>
<glyph glyph-name="ccaron" unicode="&#x10d;" horiz-adv-x="375" >
<path fill="black" d="M287 11 C268.333 -1 236.667 -10 206 -10 C110.026 -10 65 99.026 65 259 C65 431.39 122.182 538 214 538 C244 538 269.333 531 290 517 L282 493 C262 507.667 237.667 513 215 513 C137.667 513 91 419 91 259 C91 120.437 125.463 15 208 15 C234.667 15 264.333 22.3333 287 37 L287 11 Z " /><g transform="translate(26,0)" ><path fill="black" d="M161 606 C144.787 651.938 112.762 722.156 94 757 L94 763 L109 763 C130.333 728.333 152.333 679.333 171 638 C189.667 679.333 211 721.667 235 763 L251 763 L251 757 C228.333 714.333 200.333 650 183 606 L161 606 Z " /></g></glyph>
<glyph glyph-name="Dcaron" unicode="&#x10e;" horiz-adv-x="375" >
<path fill="black" d="M45 0 L45 714 L136 714 C256 714 309 596.667 309 362 C309 122 255.333 0 134 0 L45 0 Z M70 25 L131 25 C239 25 284 138.667 284 360 C284 569.048 244 689 132 689 L70 689 L70 25 Z " /><g transform="translate(-11,186)" ><path fill="black" d="M161 606 C144.787 651.938 112.762 722.156 94 757 L94 763 L109 763 C130.333 728.333 152.333 679.333 171 638 C189.667 679.333 211 721.667 235 763 L251 763 L251 757 C228.333 714.333 200.333 650 183 606 L161 606 Z " /></g></glyph>
<glyph glyph-name="dcaron" unicode="&#x10f;" horiz-adv-x="375" d="M237 110 L236 110 C222.667 43.3333 196 -10 144 -10 C72 -10 35 81.6667 35 255 C35 440.333 76.3333 538 147 538 C196.52 538 225.53 482.201 236 422 L237 422 C235.667 456.667 236 488 236 520 L236 760 L260 760 L260 0 L240 0 L237 110 Z M236 291 C236 428.333 209.667 513 151 513 C91 513 59 428.333 59 255 C59 97.6667 87 15 147 15 C211 15 236 100.667 236 242 L236 291 Z M302 598 L302 608 C309.432 630.296 323.372 725.833 326 760 L352 760 L352 752 C344.035 709.518 331.531 636.827 316 598 L302 598 Z " />
<glyph glyph-name="Dcroat" unicode="&#x110;" horiz-adv-x="375" >
<path fill="black" d="M55 353 L3 353 L3 378 L55 378 L55 714 L146 714 C266 714 319 596.667 319 362 C319 122 265.333 0 144 0 L55 0 L55 353 Z M141 25 C249 25 294 138.667 294 360 C294 569.048 254 689 142 689 L80 689 L80 378 L179 378 L179 353 L80 353 L80 25 L141 25 Z " /></glyph>
<glyph glyph-name="dcroat" unicode="&#x111;" horiz-adv-x="375" d="M265 110 L263 110 C249.706 48.8468 220.096 -10 159 -10 C80.3333 -10 42 81.6667 42 255 C42 440.333 85.6667 538 163 538 C219.061 538 252.525 482.233 263 422 L265 422 C263.667 456.667 263 488 263 520 L263 632 L141 632 L141 657 L263 657 L263 760 L287 760 L287 657 L341 657 L341 632 L287 632 L287 0 L268 0 L265 110 Z M162 15 C234 15 263 100.667 263 242 L263 291 C263 429.667 232.667 513 166 513 C100 513 67 427 67 255 C67 97.6667 95.3333 15 162 15 Z " />
<glyph glyph-name="Emacron" unicode="&#x112;" horiz-adv-x="375" >
<path fill="black" d="M281 25 L281 0 L65 0 L65 714 L281 714 L281 689 L89 689 L89 389 L270 389 L270 364 L89 364 L89 25 L281 25 Z " /><g transform="translate(-1,187)" ><path fill="black" d="M94 640 L250 640 L250 616 L94 616 L94 640 Z " /></g></glyph>
<glyph glyph-name="emacron" unicode="&#x113;" horiz-adv-x="375" >
<path fill="black" d="M289 23 C262.333 1.66667 231.333 -10 194 -10 C95.3074 -10 51 99.4372 51 262 C51 419.333 92.9957 538 180 538 C265.411 538 301 426.719 301 296 L301 270 L75 270 C76.3333 100.667 116.667 15 194 15 C228.667 15 255.667 24.3333 289 51 L289 23 Z M277 294 C277 419.255 248.281 513 179 513 C120.333 513 82.6667 439.333 76 294 L277 294 Z " /><g transform="translate(8,1)" ><path fill="black" d="M94 640 L250 640 L250 616 L94 616 L94 640 Z " /></g></glyph>
<glyph glyph-name="Ebreve" unicode="&#x114;" horiz-adv-x="375" >
<path fill="black" d="M281 25 L281 0 L65 0 L65 714 L281 714 L281 689 L89 689 L89 389 L270 389 L270 364 L89 364 L89 25 L281 25 Z " /><g transform="translate(-1,186)" ><path fill="black" d="M116 716 C118.667 665.333 137.333 632 172 632 C209.333 632 227.333 665.333 230 716 L250 716 C246 648 218.667 608 172 608 C129.333 608 98.6667 644 96 716 L116 716 Z " /></g></glyph>
<glyph glyph-name="ebreve" unicode="&#x115;" horiz-adv-x="375" >
<path fill="black" d="M289 23 C262.333 1.66667 231.333 -10 194 -10 C95.3074 -10 51 99.4372 51 262 C51 419.333 92.9957 538 180 538 C265.411 538 301 426.719 301 296 L301 270 L75 270 C76.3333 100.667 116.667 15 194 15 C228.667 15 255.667 24.3333 289 51 L289 23 Z M277 294 C277 419.255 248.281 513 179 513 C120.333 513 82.6667 439.333 76 294 L277 294 Z " /><g transform="translate(8,0)" ><path fill="black" d="M116 716 C118.667 665.333 137.333 632 172 632 C209.333 632 227.333 665.333 230 716 L250 716 C246 648 218.667 608 172 608 C129.333 608 98.6667 644 96 716 L116 716 Z " /></g></glyph>
<glyph glyph-name="Edotaccent" unicode="&#x116;" horiz-adv-x="375" >
<path fill="black" d="M281 25 L281 0 L65 0 L65 714 L281 714 L281 689 L89 689 L89 389 L270 389 L270 364 L89 364 L89 25 L281 25 Z " /><g transform="translate(-1,187)" ><path fill="black" d="M173 660 C154.333 660 149 677 149 697 C149 715.667 154.333 734 173 734 C191.667 734 197 715.667 197 697 C197 678.333 191.667 660 173 660 Z " /></g></glyph>
<glyph glyph-name="edotaccent" unicode="&#x117;" horiz-adv-x="375" >
<path fill="black" d="M289 23 C262.333 1.66667 231.333 -10 194 -10 C95.3074 -10 51 99.4372 51 262 C51 419.333 92.9957 538 180 538 C265.411 538 301 426.719 301 296 L301 270 L75 270 C76.3333 100.667 116.667 15 194 15 C228.667 15 255.667 24.3333 289 51 L289 23 Z M277 294 C277 419.255 248.281 513 179 513 C120.333 513 82.6667 439.333 76 294 L277 294 Z " /><g transform="translate(8,1)" ><path fill="black" d="M173 660 C154.333 660 149 677 149 697 C149 715.667 154.333 734 173 734 C191.667 734 197 715.667 197 697 C197 678.333 191.667 660 173 660 Z " /></g></glyph>
<glyph glyph-name="Eogonek" unicode="&#x118;" horiz-adv-x="375" d="M68 714 L284 714 L284 689 L92 689 L92 389 L273 389 L273 364 L92 364 L92 25 L284 25 L284 2 L287 0 C253.667 -42.6667 233 -83 233 -135 C233 -173.667 244.667 -193 268 -193 C277.333 -193 287.667 -189.667 293 -187 L293 -210 C286.333 -214 275.333 -217 266 -217 C231.333 -217 210 -190 210 -138 C210 -91.3333 227.667 -45.3333 263 0 L68 0 L68 714 Z " />
<glyph glyph-name="eogonek" unicode="&#x119;" horiz-adv-x="375" d="M278 -209 C270 -213 257.667 -217 243 -217 C209.667 -217 186 -192 186 -132 C186 -82.6667 207.667 -41.3333 237 -4 C224.333 -8 210.333 -10 195 -10 C96.3074 -10 52 99.4372 52 262 C52 419.333 93.9957 538 181 538 C266.411 538 302 426.719 302 296 L302 270 L76 270 C77.3333 100.667 117.667 15 195 15 C229.667 15 256.667 24.3333 290 51 L290 23 L275 12 C240.333 -25.3333 209 -72 209 -132 C209 -170.667 220.333 -192 247 -192 C258.333 -192 268.667 -189.667 278 -185 L278 -209 Z M278 294 C278 419.255 249.281 513 180 513 C121.333 513 83.6667 439.333 77 294 L278 294 Z " />
<glyph glyph-name="Ecaron" unicode="&#x11a;" horiz-adv-x="375" >
<path fill="black" d="M281 25 L281 0 L65 0 L65 714 L281 714 L281 689 L89 689 L89 389 L270 389 L270 364 L89 364 L89 25 L281 25 Z " /><g transform="translate(-1,186)" ><path fill="black" d="M161 606 C144.787 651.938 112.762 722.156 94 757 L94 763 L109 763 C130.333 728.333 152.333 679.333 171 638 C189.667 679.333 211 721.667 235 763 L251 763 L251 757 C228.333 714.333 200.333 650 183 606 L161 606 Z " /></g></glyph>
<glyph glyph-name="ecaron" unicode="&#x11b;" horiz-adv-x="375" >
<path fill="black" d="M289 23 C262.333 1.66667 231.333 -10 194 -10 C95.3074 -10 51 99.4372 51 262 C51 419.333 92.9957 538 180 538 C265.411 538 301 426.719 301 296 L301 270 L75 270 C76.3333 100.667 116.667 15 194 15 C228.667 15 255.667 24.3333 289 51 L289 23 Z M277 294 C277 419.255 248.281 513 179 513 C120.333 513 82.6667 439.333 76 294 L277 294 Z " /><g transform="translate(8,0)" ><path fill="black" d="M161 606 C144.787 651.938 112.762 722.156 94 757 L94 763 L109 763 C130.333 728.333 152.333 679.333 171 638 C189.667 679.333 211 721.667 235 763 L251 763 L251 757 C228.333 714.333 200.333 650 183 606 L161 606 Z " /></g></glyph>
<glyph glyph-name="Gcircumflex" unicode="&#x11c;" horiz-adv-x="375" >
<path fill="black" d="M276 326 L187 326 L187 351 L299 351 L299 24 C275 1.33333 238 -10 202 -10 C82.9437 -10 35 140.926 35 358 C35 574.156 83.2035 724 198 724 C227.333 724 262.333 715.667 289 681 L279 661 C252.333 691.667 226.667 699 200 699 C97.0996 699 59 555.671 59 362 C59 156.537 100.074 15 203 15 C233.667 15 261.333 26.6667 276 40 L276 326 Z " /><g transform="translate(11,186)" ><path fill="black" d="M92 606 L92 613 C113.025 649.795 145.219 720.918 161 763 L184 763 C200.222 719.741 234.699 642.885 251 613 L251 606 L236 606 C214.667 642 192 693.333 172 732 C153.333 694.667 129.333 640.667 108 606 L92 606 Z " /></g></glyph>
<glyph glyph-name="gcircumflex" unicode="&#x11d;" horiz-adv-x="375" >
<path fill="black" d="M54 -179 C82 -201.667 112.667 -216 150 -216 C230 -216 263 -151.333 263 -30 L263 15 C263 49.6667 262.333 74 265 114 L263 114 C249.667 42 214.667 -10 160 -10 C84 -10 42 76.3333 42 259 C42 432.333 82 538 166 538 C220.667 538 247.333 492.333 262 439 L264 439 L268 528 L287 528 L287 -30 C287 -163.333 246.333 -241 149 -241 C110.333 -241 80.6667 -228 54 -208 L54 -179 Z M263 312 C263 423.108 237.208 513 169 513 C97 513 66 414 66 258 C66 96 98.6667 15 164 15 C240.494 15 263 130.078 263 234 L263 312 Z " /><path fill="black" d="M92 606 L92 613 C113.025 649.795 145.219 720.918 161 763 L184 763 C200.222 719.741 234.699 642.885 251 613 L251 606 L236 606 C214.667 642 192 693.333 172 732 C153.333 694.667 129.333 640.667 108 606 L92 606 Z " /></glyph>
<glyph glyph-name="Gbreve" unicode="&#x11e;" horiz-adv-x="375" >
<path fill="black" d="M276 326 L187 326 L187 351 L299 351 L299 24 C275 1.33333 238 -10 202 -10 C82.9437 -10 35 140.926 35 358 C35 574.156 83.2035 724 198 724 C227.333 724 262.333 715.667 289 681 L279 661 C252.333 691.667 226.667 699 200 699 C97.0996 699 59 555.671 59 362 C59 156.537 100.074 15 203 15 C233.667 15 261.333 26.6667 276 40 L276 326 Z " /><g transform="translate(11,186)" ><path fill="black" d="M116 716 C118.667 665.333 137.333 632 172 632 C209.333 632 227.333 665.333 230 716 L250 716 C246 648 218.667 608 172 608 C129.333 608 98.6667 644 96 716 L116 716 Z " /></g></glyph>
<glyph glyph-name="gbreve" unicode="&#x11f;" horiz-adv-x="375" >
<path fill="black" d="M54 -179 C82 -201.667 112.667 -216 150 -216 C230 -216 263 -151.333 263 -30 L263 15 C263 49.6667 262.333 74 265 114 L263 114 C249.667 42 214.667 -10 160 -10 C84 -10 42 76.3333 42 259 C42 432.333 82 538 166 538 C220.667 538 247.333 492.333 262 439 L264 439 L268 528 L287 528 L287 -30 C287 -163.333 246.333 -241 149 -241 C110.333 -241 80.6667 -228 54 -208 L54 -179 Z M263 312 C263 423.108 237.208 513 169 513 C97 513 66 414 66 258 C66 96 98.6667 15 164 15 C240.494 15 263 130.078 263 234 L263 312 Z " /><path fill="black" d="M116 716 C118.667 665.333 137.333 632 172 632 C209.333 632 227.333 665.333 230 716 L250 716 C246 648 218.667 608 172 608 C129.333 608 98.6667 644 96 716 L116 716 Z " /></glyph>
<glyph glyph-name="Gdotaccent" unicode="&#x120;" horiz-adv-x="375" >
<path fill="black" d="M276 326 L187 326 L187 351 L299 351 L299 24 C275 1.33333 238 -10 202 -10 C82.9437 -10 35 140.926 35 358 C35 574.156 83.2035 724 198 724 C227.333 724 262.333 715.667 289 681 L279 661 C252.333 691.667 226.667 699 200 699 C97.0996 699 59 555.671 59 362 C59 156.537 100.074 15 203 15 C233.667 15 261.333 26.6667 276 40 L276 326 Z " /><g transform="translate(11,187)" ><path fill="black" d="M173 660 C154.333 660 149 677 149 697 C149 715.667 154.333 734 173 734 C191.667 734 197 715.667 197 697 C197 678.333 191.667 660 173 660 Z " /></g></glyph>
<glyph glyph-name="gdotaccent" unicode="&#x121;" horiz-adv-x="375" >
<path fill="black" d="M54 -179 C82 -201.667 112.667 -216 150 -216 C230 -216 263 -151.333 263 -30 L263 15 C263 49.6667 262.333 74 265 114 L263 114 C249.667 42 214.667 -10 160 -10 C84 -10 42 76.3333 42 259 C42 432.333 82 538 166 538 C220.667 538 247.333 492.333 262 439 L264 439 L268 528 L287 528 L287 -30 C287 -163.333 246.333 -241 149 -241 C110.333 -241 80.6667 -228 54 -208 L54 -179 Z M263 312 C263 423.108 237.208 513 169 513 C97 513 66 414 66 258 C66 96 98.6667 15 164 15 C240.494 15 263 130.078 263 234 L263 312 Z " /><g transform="translate(0,1)" ><path fill="black" d="M173 660 C154.333 660 149 677 149 697 C149 715.667 154.333 734 173 734 C191.667 734 197 715.667 197 697 C197 678.333 191.667 660 173 660 Z " /></g></glyph>
<glyph glyph-name="uni0122" unicode="&#x122;" horiz-adv-x="375" >
<path fill="black" d="M276 326 L187 326 L187 351 L299 351 L299 24 C275 1.33333 238 -10 202 -10 C82.9437 -10 35 140.926 35 358 C35 574.156 83.2035 724 198 724 C227.333 724 262.333 715.667 289 681 L279 661 C252.333 691.667 226.667 699 200 699 C97.0996 699 59 555.671 59 362 C59 156.537 100.074 15 203 15 C233.667 15 261.333 26.6667 276 40 L276 326 Z " /><g transform="translate(568,0)" ><path fill="black" d="M-417 -221 L-417 -213 C-406.355 -181.064 -390.607 -102.716 -388 -61 L-362 -61 L-362 -69 C-370 -118.333 -383.333 -174.333 -402 -221 L-417 -221 Z " /></g></glyph>
<glyph glyph-name="uni0123" unicode="&#x123;" horiz-adv-x="375" d="M57 -179 C85 -201.667 115.667 -216 153 -216 C233 -216 266 -151.333 266 -30 L266 15 C266 49.6667 265.333 74 268 114 L266 114 C252.667 42 217.667 -10 163 -10 C87 -10 45 76.3333 45 259 C45 432.333 85 538 169 538 C223.667 538 250.333 492.333 265 439 L267 439 L271 528 L290 528 L290 -30 C290 -163.333 249.333 -241 152 -241 C113.333 -241 83.6667 -228 57 -208 L57 -179 Z M266 312 C266 423.108 240.208 513 172 513 C100 513 69 414 69 258 C69 96 101.667 15 167 15 C243.494 15 266 130.078 266 234 L266 312 Z M165 605 L165 613 C171.667 662.333 187.333 718.333 206 765 L220 765 L220 757 C209.618 725.855 193.62 644.299 191 605 L165 605 Z " />
<glyph glyph-name="Hcircumflex" unicode="&#x124;" horiz-adv-x="375" >
<path fill="black" d="M45 0 L45 714 L70 714 L70 388 L276 388 L276 714 L299 714 L299 0 L276 0 L276 363 L70 363 L70 0 L45 0 Z " /><g transform="translate(0,186)" ><path fill="black" d="M92 606 L92 613 C113.025 649.795 145.219 720.918 161 763 L184 763 C200.222 719.741 234.699 642.885 251 613 L251 606 L236 606 C214.667 642 192 693.333 172 732 C153.333 694.667 129.333 640.667 108 606 L92 606 Z " /></g></glyph>
<glyph glyph-name="hcircumflex" unicode="&#x125;" horiz-adv-x="375" >
<path fill="black" d="M58 0 L58 760 L83 760 L83 494 C83 463.333 82.3333 446.333 81 421 L82 421 C95.3542 477.087 125.525 538 188 538 C252 538 290 480 290 356 L290 0 L266 0 L266 353 C266 467.667 235.667 513 185 513 C125 513 83 448 83 300 L83 0 L58 0 Z " /><g transform="translate(-103,232)" ><path fill="black" d="M92 606 L92 613 C113.025 649.795 145.219 720.918 161 763 L184 763 C200.222 719.741 234.699 642.885 251 613 L251 606 L236 606 C214.667 642 192 693.333 172 732 C153.333 694.667 129.333 640.667 108 606 L92 606 Z " /></g></glyph>
<glyph glyph-name="Hbar" unicode="&#x126;" horiz-adv-x="375" d="M45 548 L3 548 L3 573 L45 573 L45 714 L69 714 L69 573 L275 573 L275 714 L299 714 L299 573 L341 573 L341 548 L299 548 L299 0 L275 0 L275 363 L69 363 L69 0 L45 0 L45 548 Z M275 388 L275 548 L69 548 L69 388 L275 388 Z " />
<glyph glyph-name="hbar" unicode="&#x127;" horiz-adv-x="375" d="M58 632 L3 632 L3 657 L58 657 L58 760 L83 760 L83 657 L204 657 L204 632 L83 632 L83 494 C83 463.333 82.3333 446.333 81 421 L83 421 C96.3262 476.97 125.832 538 188 538 C252 538 290 480 290 356 L290 0 L266 0 L266 353 C266 467.667 234.667 513 184 513 C125.333 513 83 448 83 300 L83 0 L58 0 L58 632 Z " />
<glyph glyph-name="Itilde" unicode="&#x128;" horiz-adv-x="375" >
<path fill="black" d="M80 20 L159 23 L159 690 L80 694 L80 714 L264 714 L264 694 L184 690 L184 23 L264 20 L264 0 L80 0 L80 20 Z " /><g transform="translate(1,186)" ><path fill="black" d="M73 625 C75.6667 689 95.3333 718 126 718 C166.222 718 183.778 648 216 648 C234.667 648 249.333 667.333 252 718 L271 718 C268.333 654 246.667 624 216 624 C175.778 624 158.222 694 126 694 C110 694 95 677 91 625 L73 625 Z " /></g></glyph>
<glyph glyph-name="itilde" unicode="&#x129;" horiz-adv-x="344" >
<path fill="black" d="M58 21 L168 25 L168 503 L70 507 L70 528 L192 528 L192 25 L295 21 L295 0 L58 0 L58 21 Z " /><g transform="translate(1,0)" ><path fill="black" d="M73 625 C75.6667 689 95.3333 718 126 718 C166.222 718 183.778 648 216 648 C234.667 648 249.333 667.333 252 718 L271 718 C268.333 654 246.667 624 216 624 C175.778 624 158.222 694 126 694 C110 694 95 677 91 625 L73 625 Z " /></g></glyph>
<glyph glyph-name="Imacron" unicode="&#x12a;" horiz-adv-x="375" >
<path fill="black" d="M80 20 L159 23 L159 690 L80 694 L80 714 L264 714 L264 694 L184 690 L184 23 L264 20 L264 0 L80 0 L80 20 Z " /><g transform="translate(0,187)" ><path fill="black" d="M94 640 L250 640 L250 616 L94 616 L94 640 Z " /></g></glyph>
<glyph glyph-name="imacron" unicode="&#x12b;" horiz-adv-x="344" >
<path fill="black" d="M58 21 L168 25 L168 503 L70 507 L70 528 L192 528 L192 25 L295 21 L295 0 L58 0 L58 21 Z " /><g transform="translate(0,1)" ><path fill="black" d="M94 640 L250 640 L250 616 L94 616 L94 640 Z " /></g></glyph>
<glyph glyph-name="Ibreve" unicode="&#x12c;" horiz-adv-x="375" >
<path fill="black" d="M80 20 L159 23 L159 690 L80 694 L80 714 L264 714 L264 694 L184 690 L184 23 L264 20 L264 0 L80 0 L80 20 Z " /><g transform="translate(0,186)" ><path fill="black" d="M116 716 C118.667 665.333 137.333 632 172 632 C209.333 632 227.333 665.333 230 716 L250 716 C246 648 218.667 608 172 608 C129.333 608 98.6667 644 96 716 L116 716 Z " /></g></glyph>
<glyph glyph-name="ibreve" unicode="&#x12d;" horiz-adv-x="344" >
<path fill="black" d="M58 21 L168 25 L168 503 L70 507 L70 528 L192 528 L192 25 L295 21 L295 0 L58 0 L58 21 Z " /><path fill="black" d="M116 716 C118.667 665.333 137.333 632 172 632 C209.333 632 227.333 665.333 230 716 L250 716 C246 648 218.667 608 172 608 C129.333 608 98.6667 644 96 716 L116 716 Z " /></glyph>
<glyph glyph-name="Iogonek" unicode="&#x12e;" horiz-adv-x="375" d="M244 -210 C237.333 -214 226.333 -217 217 -217 C182.333 -217 161 -190 161 -138 C161 -91.3333 178.667 -45.3333 214 0 L83 0 L83 20 L162 23 L162 690 L83 694 L83 714 L267 714 L267 694 L187 690 L187 23 L267 20 L267 0 L238 0 C204.667 -42.6667 184 -83 184 -135 C184 -173.667 195.667 -193 219 -193 C228.333 -193 238.667 -189.667 244 -187 L244 -210 Z " />
<glyph glyph-name="iogonek" unicode="&#x12f;" horiz-adv-x="375" d="M253 -210 C246.333 -214 235.333 -217 226 -217 C191.333 -217 170 -190 170 -138 C170 -91.3333 187.667 -45.3333 223 0 L61 0 L61 21 L171 25 L171 503 L73 507 L73 528 L195 528 L195 25 L298 21 L298 0 L247 0 C213.667 -42.6667 193 -83 193 -135 C193 -173.667 204.667 -193 228 -193 C237.333 -193 247.667 -189.667 253 -187 L253 -210 Z M181 660 C162.333 660 157 677 157 697 C157 715.667 162.333 734 181 734 C199.667 734 205 715.667 205 697 C205 678.333 199.667 660 181 660 Z " />
<glyph glyph-name="Idotaccent" unicode="&#x130;" horiz-adv-x="375" >
<path fill="black" d="M80 20 L159 23 L159 690 L80 694 L80 714 L264 714 L264 694 L184 690 L184 23 L264 20 L264 0 L80 0 L80 20 Z " /><g transform="translate(0,187)" ><path fill="black" d="M173 660 C154.333 660 149 677 149 697 C149 715.667 154.333 734 173 734 C191.667 734 197 715.667 197 697 C197 678.333 191.667 660 173 660 Z " /></g></glyph>
<glyph glyph-name="dotlessi" unicode="&#x131;" horiz-adv-x="344" d="M58 21 L168 25 L168 503 L70 507 L70 528 L192 528 L192 25 L295 21 L295 0 L58 0 L58 21 Z " />
<glyph glyph-name="IJ" unicode="&#x132;" horiz-adv-x="375" d="M76 55 C90.6667 36.3333 125.333 9 160 9 C218.667 9 240 66.6667 240 184 L240 714 L264 714 L264 176 C264 56 237 -15 161 -15 C126.333 -15 94.6667 4.33333 76 27 L76 55 Z M76 147 L76 714 L100 714 L100 147 L76 147 Z " />
<glyph glyph-name="ij" unicode="&#x133;" horiz-adv-x="375" d="M84 -201 C98.6667 -210.333 136.667 -222 162 -222 C212.667 -222 238 -169 238 -81 L238 528 L262 528 L262 -88 C262 -196 223.333 -248 162 -248 C131.333 -248 97.3333 -234.667 84 -228 L84 -201 Z M83 0 L83 528 L107 528 L107 0 L83 0 Z M96 650 C77.3333 650 72 667 72 687 C72 705.667 77.3333 724 96 724 C114.667 724 120 705.667 120 687 C120 668.333 114.667 650 96 650 Z M249 650 C230.333 650 225 667 225 687 C225 705.667 230.333 724 249 724 C267.667 724 273 705.667 273 687 C273 668.333 267.667 650 249 650 Z " />
<glyph glyph-name="Jcircumflex" unicode="&#x134;" horiz-adv-x="375" >
<path fill="black" d="M43 48 C69.6667 26.6667 98.6667 10 136 10 C202.667 10 226 70.6667 226 204 L226 714 L251 714 L251 196 C251 57.3333 221 -15 137 -15 C102.333 -15 71 -1 43 19 L43 48 Z " /><g transform="translate(67,186)" ><path fill="black" d="M92 606 L92 613 C113.025 649.795 145.219 720.918 161 763 L184 763 C200.222 719.741 234.699 642.885 251 613 L251 606 L236 606 C214.667 642 192 693.333 172 732 C153.333 694.667 129.333 640.667 108 606 L92 606 Z " /></g></glyph>
<glyph glyph-name="jcircumflex" unicode="&#x135;" horiz-adv-x="345" >
<path fill="black" d="M36 -201 C50.6667 -210.333 87.6667 -222 113 -222 C163.667 -222 189 -169 189 -81 L189 503 L76 507 L76 528 L214 528 L214 -88 C214 -196 175.333 -248 114 -248 C83.3333 -248 48 -234.667 36 -228 L36 -201 Z " /><g transform="translate(27,0)" ><path fill="black" d="M92 606 L92 613 C113.025 649.795 145.219 720.918 161 763 L184 763 C200.222 719.741 234.699 642.885 251 613 L251 606 L236 606 C214.667 642 192 693.333 172 732 C153.333 694.667 129.333 640.667 108 606 L92 606 Z " /></g></glyph>
<glyph glyph-name="uni0136" unicode="&#x136;" horiz-adv-x="375" >
<path fill="black" d="M45 0 L45 714 L69 714 L69 321 C83.6667 346.333 94.6667 361.667 112 395 L274 714 L304 714 L147 410 L304 0 L275 0 L128 389 L69 283 L69 0 L45 0 Z " /><g transform="translate(548,0)" ><path fill="black" d="M-417 -221 L-417 -213 C-406.355 -181.064 -390.607 -102.716 -388 -61 L-362 -61 L-362 -69 C-370 -118.333 -383.333 -174.333 -402 -221 L-417 -221 Z " /></g></glyph>
<glyph glyph-name="uni0137" unicode="&#x137;" horiz-adv-x="375" >
<path fill="black" d="M80 0 L80 760 L104 760 L104 373 C104 317 104.333 273 103 217 C115 239.667 124.333 258.333 135 277 L275 528 L305 528 L176 305 L315 0 L288 0 L159 286 L104 185 L104 0 L80 0 Z " /><g transform="translate(571,0)" ><path fill="black" d="M-417 -221 L-417 -213 C-406.355 -181.064 -390.607 -102.716 -388 -61 L-362 -61 L-362 -69 C-370 -118.333 -383.333 -174.333 -402 -221 L-417 -221 Z " /></g></glyph>
<glyph glyph-name="kgreenlandic" unicode="&#x138;" horiz-adv-x="375" d="M80 0 L80 528 L104 528 L104 373 C104 317 104.333 273 103 217 C115 239.667 124.333 258.333 135 277 L275 528 L305 528 L176 307 L315 0 L288 0 L160 286 L104 185 L104 0 L80 0 Z " />
<glyph glyph-name="Lacute" unicode="&#x139;" horiz-adv-x="375" >
<path fill="black" d="M280 25 L280 0 L64 0 L64 714 L88 714 L88 25 L280 25 Z " /><g transform="translate(-101,186)" ><path fill="black" d="M151 606 L151 615 C181.667 661.667 212 717 232 765 L259 765 L259 758 C237.667 711.333 197.667 647.333 167 606 L151 606 Z " /></g></glyph>
<glyph glyph-name="lacute" unicode="&#x13a;" horiz-adv-x="375" >
<path fill="black" d="M58 21 L165 25 L165 735 L65 739 L65 760 L188 760 L188 25 L295 21 L295 0 L58 0 L58 21 Z " /><g transform="translate(-4,232)" ><path fill="black" d="M151 606 L151 615 C181.667 661.667 212 717 232 765 L259 765 L259 758 C237.667 711.333 197.667 647.333 167 606 L151 606 Z " /></g></glyph>
<glyph glyph-name="uni013B" unicode="&#x13b;" horiz-adv-x="375" >
<path fill="black" d="M280 25 L280 0 L64 0 L64 714 L88 714 L88 25 L280 25 Z " /><g transform="translate(555,0)" ><path fill="black" d="M-417 -221 L-417 -213 C-406.355 -181.064 -390.607 -102.716 -388 -61 L-362 -61 L-362 -69 C-370 -118.333 -383.333 -174.333 -402 -221 L-417 -221 Z " /></g></glyph>
<glyph glyph-name="uni013C" unicode="&#x13c;" horiz-adv-x="375" >
<path fill="black" d="M58 21 L165 25 L165 735 L65 739 L65 760 L188 760 L188 25 L295 21 L295 0 L58 0 L58 21 Z " /><g transform="translate(550,0)" ><path fill="black" d="M-417 -221 L-417 -213 C-406.355 -181.064 -390.607 -102.716 -388 -61 L-362 -61 L-362 -69 C-370 -118.333 -383.333 -174.333 -402 -221 L-417 -221 Z " /></g></glyph>
<glyph glyph-name="Lcaron" unicode="&#x13d;" horiz-adv-x="375" >
<g transform="translate(1,0)" ><path fill="black" d="M280 25 L280 0 L64 0 L64 714 L88 714 L88 25 L280 25 Z " /></g><g transform="translate(262,0)" ><path fill="black" d="M-22 552 L-22 562 C-14.5681 584.296 -0.628219 679.833 2 714 L28 714 L28 706 C20.0347 663.518 7.53063 590.827 -8 552 L-22 552 Z " /></g></glyph>
<glyph glyph-name="lcaron" unicode="&#x13e;" horiz-adv-x="375" >
<g transform="translate(1,0)" ><path fill="black" d="M58 21 L165 25 L165 735 L65 739 L65 760 L188 760 L188 25 L295 21 L295 0 L58 0 L58 21 Z " /></g><g transform="translate(327,46)" ><path fill="black" d="M-22 552 L-22 562 C-14.5681 584.296 -0.628219 679.833 2 714 L28 714 L28 706 C20.0347 663.518 7.53063 590.827 -8 552 L-22 552 Z " /></g></glyph>
<glyph glyph-name="Ldot" unicode="&#x13f;" horiz-adv-x="375" >
<g transform="translate(3,0)" ><path fill="black" d="M280 25 L280 0 L64 0 L64 714 L88 714 L88 25 L280 25 Z " /></g><g transform="translate(103,347)" ><path fill="black" d="M173 -12 C154.333 -12 149 4.33333 149 23 C149 41.6667 154.333 58 173 58 C189 58 195 41.6667 195 23 C195 4.33333 189 -12 173 -12 Z " /></g></glyph>
<glyph glyph-name="ldot" unicode="&#x140;" horiz-adv-x="375" >
<path fill="black" d="M58 21 L165 25 L165 735 L65 739 L65 760 L188 760 L188 25 L295 21 L295 0 L58 0 L58 21 Z " /><g transform="translate(175,361)" ><path fill="black" d="M173 -12 C154.333 -12 149 4.33333 149 23 C149 41.6667 154.333 58 173 58 C189 58 195 41.6667 195 23 C195 4.33333 189 -12 173 -12 Z " /></g></glyph>
<glyph glyph-name="Lslash" unicode="&#x141;" horiz-adv-x="375" d="M64 359 L17 321 L17 346 L64 384 L64 714 L88 714 L88 403 L204 496 L204 472 L88 378 L88 25 L280 25 L280 0 L64 0 L64 359 Z " />
<glyph glyph-name="lslash" unicode="&#x142;" horiz-adv-x="375" d="M61 21 L168 25 L168 384 L90 321 L90 346 L168 409 L168 735 L68 739 L68 760 L191 760 L191 427 L277 496 L277 472 L191 403 L191 25 L298 21 L298 0 L61 0 L61 21 Z " />
<glyph glyph-name="Nacute" unicode="&#x143;" horiz-adv-x="375" >
<path fill="black" d="M45 0 L45 714 L75 714 L276 54 L278 54 C278 99.3333 276 151.667 276 181 L276 714 L299 714 L299 0 L271 0 L69 664 L68 664 C69.3333 637.333 69 604 69 548 L69 0 L45 0 Z " /><g transform="translate(0,186)" ><path fill="black" d="M151 606 L151 615 C181.667 661.667 212 717 232 765 L259 765 L259 758 C237.667 711.333 197.667 647.333 167 606 L151 606 Z " /></g></glyph>
<glyph glyph-name="nacute" unicode="&#x144;" horiz-adv-x="375" >
<path fill="black" d="M58 0 L58 528 L77 528 L80 416 L82 416 C95.0958 476.24 124.961 537 188 537 C252 537 290 483.667 290 361 L290 0 L266 0 L266 355 C266 468.333 236.667 512 186 512 C126 512 83 447 83 307 L83 0 L58 0 Z " /><path fill="black" d="M151 606 L151 615 C181.667 661.667 212 717 232 765 L259 765 L259 758 C237.667 711.333 197.667 647.333 167 606 L151 606 Z " /></glyph>
<glyph glyph-name="uni0145" unicode="&#x145;" horiz-adv-x="375" >
<path fill="black" d="M45 0 L45 714 L75 714 L276 54 L278 54 C278 99.3333 276 151.667 276 181 L276 714 L299 714 L299 0 L271 0 L69 664 L68 664 C69.3333 637.333 69 604 69 548 L69 0 L45 0 Z " /><g transform="translate(547,0)" ><path fill="black" d="M-417 -221 L-417 -213 C-406.355 -181.064 -390.607 -102.716 -388 -61 L-362 -61 L-362 -69 C-370 -118.333 -383.333 -174.333 -402 -221 L-417 -221 Z " /></g></glyph>
<glyph glyph-name="uni0146" unicode="&#x146;" horiz-adv-x="375" >
<path fill="black" d="M58 0 L58 528 L77 528 L80 416 L82 416 C95.0958 476.24 124.961 537 188 537 C252 537 290 483.667 290 361 L290 0 L266 0 L266 355 C266 468.333 236.667 512 186 512 C126 512 83 447 83 307 L83 0 L58 0 Z " /><g transform="translate(552,0)" ><path fill="black" d="M-417 -221 L-417 -213 C-406.355 -181.064 -390.607 -102.716 -388 -61 L-362 -61 L-362 -69 C-370 -118.333 -383.333 -174.333 -402 -221 L-417 -221 Z " /></g></glyph>
<glyph glyph-name="Ncaron" unicode="&#x147;" horiz-adv-x="375" >
<path fill="black" d="M45 0 L45 714 L75 714 L276 54 L278 54 C278 99.3333 276 151.667 276 181 L276 714 L299 714 L299 0 L271 0 L69 664 L68 664 C69.3333 637.333 69 604 69 548 L69 0 L45 0 Z " /><g transform="translate(4,186)" ><path fill="black" d="M161 606 C144.787 651.938 112.762 722.156 94 757 L94 763 L109 763 C130.333 728.333 152.333 679.333 171 638 C189.667 679.333 211 721.667 235 763 L251 763 L251 757 C228.333 714.333 200.333 650 183 606 L161 606 Z " /></g></glyph>
<glyph glyph-name="ncaron" unicode="&#x148;" horiz-adv-x="375" >
<path fill="black" d="M58 0 L58 528 L77 528 L80 416 L82 416 C95.0958 476.24 124.961 537 188 537 C252 537 290 483.667 290 361 L290 0 L266 0 L266 355 C266 468.333 236.667 512 186 512 C126 512 83 447 83 307 L83 0 L58 0 Z " /><g transform="translate(4,0)" ><path fill="black" d="M161 606 C144.787 651.938 112.762 722.156 94 757 L94 763 L109 763 C130.333 728.333 152.333 679.333 171 638 C189.667 679.333 211 721.667 235 763 L251 763 L251 757 C228.333 714.333 200.333 650 183 606 L161 606 Z " /></g></glyph>
<glyph glyph-name="napostrophe" unicode="&#x149;" horiz-adv-x="375" d="M65 0 L65 528 L85 528 L88 416 L90 416 C103.528 478.23 131.595 537 193 537 C254.333 537 291 483.667 291 361 L291 0 L266 0 L266 355 C266 467 236.667 512 190 512 C130 512 90 448.333 90 307 L90 0 L65 0 Z M-11 482 C7.66667 559.333 21.3333 642 28 714 L50 714 L54 704 C43.3333 629.333 28.3333 554 7 482 L-11 482 Z " />
<glyph glyph-name="Eng" unicode="&#x14a;" horiz-adv-x="375" d="M165 -137 C177 -143.667 194.333 -150 209 -150 C254.333 -150 278 -106.667 278 0 L271 0 L69 664 L68 664 C69.3333 637.333 69 604 69 548 L69 0 L45 0 L45 714 L75 714 L276 54 L278 54 C278 99.3333 276 151.667 276 181 L276 714 L299 714 L299 -2 C299 -126 269.333 -175 212 -175 C194.667 -175 175.667 -168.667 165 -162 L165 -137 Z " />
<glyph glyph-name="eng" unicode="&#x14b;" horiz-adv-x="375" d="M178 -207 C188.667 -213.667 204.333 -216 215 -216 C247 -216 261.333 -178 264 -114 L267 0 L266 0 L266 355 C266 468.333 236.667 512 186 512 C126 512 83 447 83 307 L83 0 L58 0 L58 528 L77 528 L80 416 L82 416 C95.0958 476.24 124.961 537 188 537 C252 537 290 483.667 290 361 L290 0 L282 0 L286 -116 C286 -202.667 258.667 -241 216 -241 C200 -241 187.333 -238.333 178 -233 L178 -207 Z " />
<glyph glyph-name="Omacron" unicode="&#x14c;" horiz-adv-x="375" >
<path fill="black" d="M173 -10 C65.2078 -10 35 172.926 35 358 C35 603.333 82.3333 724 173 724 C273.156 724 309 570.416 309 358 C309 166 280.636 -10 173 -10 Z M173 15 C249 15 285 134 285 358 C285 578 249 699 173 699 C95.6667 699 59 575.333 59 358 C59 139.333 98.3333 15 173 15 Z " /><g transform="translate(0,187)" ><path fill="black" d="M94 640 L250 640 L250 616 L94 616 L94 640 Z " /></g></glyph>
<glyph glyph-name="omacron" unicode="&#x14d;" horiz-adv-x="375" >
<path fill="black" d="M173 -10 C85 -10 42 93 42 265 C42 439.667 87 537 175 537 C265.745 537 304 425.048 304 264 C304 92 262.333 -10 173 -10 Z M173 15 C247.667 15 278 106.333 278 265 C278 409.892 249.589 512 175 512 C101.667 512 66 422.333 66 265 C66 109 99.6667 15 173 15 Z " /><g transform="translate(0,1)" ><path fill="black" d="M94 640 L250 640 L250 616 L94 616 L94 640 Z " /></g></glyph>
<glyph glyph-name="Obreve" unicode="&#x14e;" horiz-adv-x="375" >
<path fill="black" d="M173 -10 C65.2078 -10 35 172.926 35 358 C35 603.333 82.3333 724 173 724 C273.156 724 309 570.416 309 358 C309 166 280.636 -10 173 -10 Z M173 15 C249 15 285 134 285 358 C285 578 249 699 173 699 C95.6667 699 59 575.333 59 358 C59 139.333 98.3333 15 173 15 Z " /><g transform="translate(0,186)" ><path fill="black" d="M116 716 C118.667 665.333 137.333 632 172 632 C209.333 632 227.333 665.333 230 716 L250 716 C246 648 218.667 608 172 608 C129.333 608 98.6667 644 96 716 L116 716 Z " /></g></glyph>
<glyph glyph-name="obreve" unicode="&#x14f;" horiz-adv-x="375" >
<path fill="black" d="M173 -10 C85 -10 42 93 42 265 C42 439.667 87 537 175 537 C265.745 537 304 425.048 304 264 C304 92 262.333 -10 173 -10 Z M173 15 C247.667 15 278 106.333 278 265 C278 409.892 249.589 512 175 512 C101.667 512 66 422.333 66 265 C66 109 99.6667 15 173 15 Z " /><path fill="black" d="M116 716 C118.667 665.333 137.333 632 172 632 C209.333 632 227.333 665.333 230 716 L250 716 C246 648 218.667 608 172 608 C129.333 608 98.6667 644 96 716 L116 716 Z " /></glyph>
<glyph glyph-name="Ohungarumlaut" unicode="&#x150;" horiz-adv-x="375" d="M173 -10 C65.2078 -10 35 172.926 35 358 C35 603.333 82.3333 724 173 724 C273.156 724 309 570.416 309 358 C309 166 280.636 -10 173 -10 Z M173 15 C249 15 285 134 285 358 C285 578 249 699 173 699 C95.6667 699 59 575.333 59 358 C59 139.333 98.3333 15 173 15 Z M105 793 L105 800 C129.212 843.043 159.852 913.557 173 953 L199 953 L199 946 C182.609 907.755 149.348 835.688 120 793 L105 793 Z M198 793 L198 800 C222.212 843.043 252.852 913.557 266 953 L292 953 L292 946 C275.609 907.755 242.348 835.688 213 793 L198 793 Z " />
<glyph glyph-name="ohungarumlaut" unicode="&#x151;" horiz-adv-x="375" d="M173 -10 C85 -10 42 93 42 265 C42 439.667 87 537 175 537 C265.745 537 304 425.048 304 264 C304 92 262.333 -10 173 -10 Z M173 15 C247.667 15 278 106.333 278 265 C278 409.892 249.589 512 175 512 C101.667 512 66 422.333 66 265 C66 109 99.6667 15 173 15 Z M105 607 L105 614 C129.212 657.043 159.852 727.557 173 767 L199 767 L199 760 C182.609 721.755 149.348 649.688 120 607 L105 607 Z M198 607 L198 614 C222.212 657.043 252.852 727.557 266 767 L292 767 L292 760 C275.609 721.755 242.348 649.688 213 607 L198 607 Z " />
<glyph glyph-name="OE" unicode="&#x152;" horiz-adv-x="375" d="M324 25 L324 0 L214 0 C202 0 190 -2 174 -2 C78 -2 35 119 35 359 C35 571.182 69.3117 714 177 714 L217 714 L324 714 L324 690 L204 690 L204 388 L315 388 L315 363 L204 363 L204 25 L324 25 Z M180 23 L180 690 L172 690 C85.1255 690 58 545.693 58 359 C58 152.593 92.0519 23 172 23 L180 23 Z " />
<glyph glyph-name="oe" unicode="&#x153;" horiz-adv-x="375" d="M321 17 C303.667 -1 284.667 -10 264 -10 C214.667 -10 191 42.3333 179 145 C168.333 49 144.667 -10 102 -10 C40.6667 -10 18 94.8745 18 256 C18 446.667 48.3333 537 103 537 C147 537 172 469 180 373 C190.676 463.749 212.097 537 252 537 C305.281 537 326 425.671 326 296 L326 268 L192 268 C192 101.333 212.667 13 266 13 C286 13 298.333 20.3333 321 43 L321 17 Z M102 14 C146.338 14 167 123.537 167 265 C167 400.134 148.9 513 102 513 C60.6667 513 40 421.333 40 264 C40 112.918 58.3117 14 102 14 Z M301 294 C301 422.996 285.719 513 251 513 C211.078 513 192 384.693 192 294 L301 294 Z " />
<glyph glyph-name="Racute" unicode="&#x154;" horiz-adv-x="375" >
<path fill="black" d="M65 0 L65 714 L151 714 C247.052 714 301 671.745 301 525 C301 415.667 267.333 352 206 328 L321 0 L293 0 L183 321 L89 321 L89 0 L65 0 Z M89 347 L158 347 C228.667 347 277 403.333 277 526 C277 647.333 236 689 148 689 L89 689 L89 347 Z " /><g transform="translate(-4,186)" ><path fill="black" d="M151 606 L151 615 C181.667 661.667 212 717 232 765 L259 765 L259 758 C237.667 711.333 197.667 647.333 167 606 L151 606 Z " /></g></glyph>
<glyph glyph-name="racute" unicode="&#x155;" horiz-adv-x="375" >
<path fill="black" d="M45 21 L141 25 L141 503 L55 507 L55 528 L161 528 L164 427 L165 427 C178.575 484.014 206.408 536 261 536 C279.667 536 301.333 529.667 316 523 L311 497 C293.667 505.667 276.667 510 260 510 C198.667 510 165 435 165 303 L165 25 L268 21 L268 0 L45 0 L45 21 Z " /><g transform="translate(14,0)" ><path fill="black" d="M151 606 L151 615 C181.667 661.667 212 717 232 765 L259 765 L259 758 C237.667 711.333 197.667 647.333 167 606 L151 606 Z " /></g></glyph>
<glyph glyph-name="uni0156" unicode="&#x156;" horiz-adv-x="375" >
<path fill="black" d="M65 0 L65 714 L151 714 C247.052 714 301 671.745 301 525 C301 415.667 267.333 352 206 328 L321 0 L293 0 L183 321 L89 321 L89 0 L65 0 Z M89 347 L158 347 C228.667 347 277 403.333 277 526 C277 647.333 236 689 148 689 L89 689 L89 347 Z " /><g transform="translate(564,0)" ><path fill="black" d="M-417 -221 L-417 -213 C-406.355 -181.064 -390.607 -102.716 -388 -61 L-362 -61 L-362 -69 C-370 -118.333 -383.333 -174.333 -402 -221 L-417 -221 Z " /></g></glyph>
<glyph glyph-name="uni0157" unicode="&#x157;" horiz-adv-x="375" >
<path fill="black" d="M45 21 L141 25 L141 503 L55 507 L55 528 L161 528 L164 427 L165 427 C178.575 484.014 206.408 536 261 536 C279.667 536 301.333 529.667 316 523 L311 497 C293.667 505.667 276.667 510 260 510 C198.667 510 165 435 165 303 L165 25 L268 21 L268 0 L45 0 L45 21 Z " /><g transform="translate(529,0)" ><path fill="black" d="M-417 -221 L-417 -213 C-406.355 -181.064 -390.607 -102.716 -388 -61 L-362 -61 L-362 -69 C-370 -118.333 -383.333 -174.333 -402 -221 L-417 -221 Z " /></g></glyph>
<glyph glyph-name="Rcaron" unicode="&#x158;" horiz-adv-x="375" >
<path fill="black" d="M65 0 L65 714 L151 714 C247.052 714 301 671.745 301 525 C301 415.667 267.333 352 206 328 L321 0 L293 0 L183 321 L89 321 L89 0 L65 0 Z M89 347 L158 347 C228.667 347 277 403.333 277 526 C277 647.333 236 689 148 689 L89 689 L89 347 Z " /><g transform="translate(0,186)" ><path fill="black" d="M161 606 C144.787 651.938 112.762 722.156 94 757 L94 763 L109 763 C130.333 728.333 152.333 679.333 171 638 C189.667 679.333 211 721.667 235 763 L251 763 L251 757 C228.333 714.333 200.333 650 183 606 L161 606 Z " /></g></glyph>
<glyph glyph-name="rcaron" unicode="&#x159;" horiz-adv-x="375" >
<path fill="black" d="M45 21 L141 25 L141 503 L55 507 L55 528 L161 528 L164 427 L165 427 C178.575 484.014 206.408 536 261 536 C279.667 536 301.333 529.667 316 523 L311 497 C293.667 505.667 276.667 510 260 510 C198.667 510 165 435 165 303 L165 25 L268 21 L268 0 L45 0 L45 21 Z " /><g transform="translate(18,0)" ><path fill="black" d="M161 606 C144.787 651.938 112.762 722.156 94 757 L94 763 L109 763 C130.333 728.333 152.333 679.333 171 638 C189.667 679.333 211 721.667 235 763 L251 763 L251 757 C228.333 714.333 200.333 650 183 606 L161 606 Z " /></g></glyph>
<glyph glyph-name="Sacute" unicode="&#x15a;" horiz-adv-x="375" >
<path fill="black" d="M57 46 C85 30 122.333 16 157 16 C225 16 263 74 263 182 C263 281.834 230.661 306.99 163 353 C104.281 393.036 59 428.254 59 543 C59 664.333 107.667 724 181 724 C211.667 724 245.667 712 275 692 L265 669 C233 693 203.667 699 181 699 C119.667 699 84 647.333 84 546 C84 440.077 126.086 413.516 177 376 C248.049 328.634 288 298.125 288 183 C288 53.6667 237 -10 157 -10 C122.333 -10 87.6667 1 57 17 L57 46 Z " /><g transform="translate(1,186)" ><path fill="black" d="M151 606 L151 615 C181.667 661.667 212 717 232 765 L259 765 L259 758 C237.667 711.333 197.667 647.333 167 606 L151 606 Z " /></g></glyph>
<glyph glyph-name="sacute" unicode="&#x15b;" horiz-adv-x="375" >
<path fill="black" d="M73 53 C101 30.3333 133.333 16 168 16 C230.667 16 255 58 255 130 C255 202.835 221.211 225.859 173 258 C119.002 295.798 79 318.726 79 408 C79 484 116.333 537 187 537 C220.333 537 248.667 526.333 274 509 L264 485 C240.667 503 214.667 512 186 512 C136.667 512 104 477.667 104 407 C104 336.33 135.337 318.146 184 283 C235.789 247.566 279 222.108 279 129 C279 43.6667 243 -10 167 -10 C128.333 -10 94.3333 7 73 23 L73 53 Z " /><g transform="translate(2,0)" ><path fill="black" d="M151 606 L151 615 C181.667 661.667 212 717 232 765 L259 765 L259 758 C237.667 711.333 197.667 647.333 167 606 L151 606 Z " /></g></glyph>
<glyph glyph-name="Scircumflex" unicode="&#x15c;" horiz-adv-x="375" >
<path fill="black" d="M57 46 C85 30 122.333 16 157 16 C225 16 263 74 263 182 C263 281.834 230.661 306.99 163 353 C104.281 393.036 59 428.254 59 543 C59 664.333 107.667 724 181 724 C211.667 724 245.667 712 275 692 L265 669 C233 693 203.667 699 181 699 C119.667 699 84 647.333 84 546 C84 440.077 126.086 413.516 177 376 C248.049 328.634 288 298.125 288 183 C288 53.6667 237 -10 157 -10 C122.333 -10 87.6667 1 57 17 L57 46 Z " /><g transform="translate(5,186)" ><path fill="black" d="M92 606 L92 613 C113.025 649.795 145.219 720.918 161 763 L184 763 C200.222 719.741 234.699 642.885 251 613 L251 606 L236 606 C214.667 642 192 693.333 172 732 C153.333 694.667 129.333 640.667 108 606 L92 606 Z " /></g></glyph>
<glyph glyph-name="scircumflex" unicode="&#x15d;" horiz-adv-x="375" >
<path fill="black" d="M73 53 C101 30.3333 133.333 16 168 16 C230.667 16 255 58 255 130 C255 202.835 221.211 225.859 173 258 C119.002 295.798 79 318.726 79 408 C79 484 116.333 537 187 537 C220.333 537 248.667 526.333 274 509 L264 485 C240.667 503 214.667 512 186 512 C136.667 512 104 477.667 104 407 C104 336.33 135.337 318.146 184 283 C235.789 247.566 279 222.108 279 129 C279 43.6667 243 -10 167 -10 C128.333 -10 94.3333 7 73 23 L73 53 Z " /><g transform="translate(6,0)" ><path fill="black" d="M92 606 L92 613 C113.025 649.795 145.219 720.918 161 763 L184 763 C200.222 719.741 234.699 642.885 251 613 L251 606 L236 606 C214.667 642 192 693.333 172 732 C153.333 694.667 129.333 640.667 108 606 L92 606 Z " /></g></glyph>
<glyph glyph-name="Scedilla" unicode="&#x15e;" horiz-adv-x="375" d="M113 -210 C123 -214.667 134 -217 146 -217 C180.667 -217 203 -192.667 203 -146 C203 -100.667 180.333 -84.3333 139 -83 L161 -10 L157 -10 C122.333 -10 87.6667 1 57 17 L57 46 C85 30 122.333 16 157 16 C225 16 263 74 263 182 C263 281.834 230.661 306.99 163 353 C104.281 393.036 59 428.254 59 543 C59 664.333 107.667 724 181 724 C211.667 724 245.667 712 275 692 L265 669 C233 693 203.667 699 181 699 C119.667 699 84 647.333 84 546 C84 440.077 126.086 413.516 177 376 C248.049 328.634 288 298.125 288 183 C288 68.3333 248.333 5.33333 183 -8 L166 -64 C204.667 -69.3333 225 -99.3333 225 -146 C225 -203.333 193.667 -240 147 -240 C134.333 -240 123 -238 113 -234 L113 -210 Z " />
<glyph glyph-name="scedilla" unicode="&#x15f;" horiz-adv-x="375" d="M119 -210 C129 -214.667 140 -217 152 -217 C186.667 -217 209 -192.667 209 -146 C209 -100.667 186.333 -84.3333 145 -83 L167 -10 C128.333 -10 94.3333 7 73 23 L73 53 C101 30.3333 133.333 16 168 16 C230.667 16 255 58 255 130 C255 202.835 221.211 225.859 173 258 C119.002 295.798 79 318.726 79 408 C79 484 116.333 537 187 537 C220.333 537 248.667 526.333 274 509 L264 485 C240.667 503 214.667 512 186 512 C136.667 512 104 477.667 104 407 C104 336.33 135.337 318.146 184 283 C235.789 247.566 279 222.108 279 129 C279 53 249 1.33333 189 -8 L172 -64 C210.667 -69.3333 231 -99.3333 231 -146 C231 -203.333 199.667 -240 153 -240 C140.333 -240 129 -238 119 -234 L119 -210 Z " />
<glyph glyph-name="Scaron" unicode="&#x160;" horiz-adv-x="375" >
<path fill="black" d="M57 46 C85 30 122.333 16 157 16 C225 16 263 74 263 182 C263 281.834 230.661 306.99 163 353 C104.281 393.036 59 428.254 59 543 C59 664.333 107.667 724 181 724 C211.667 724 245.667 712 275 692 L265 669 C233 693 203.667 699 181 699 C119.667 699 84 647.333 84 546 C84 440.077 126.086 413.516 177 376 C248.049 328.634 288 298.125 288 183 C288 53.6667 237 -10 157 -10 C122.333 -10 87.6667 1 57 17 L57 46 Z " /><g transform="translate(5,186)" ><path fill="black" d="M161 606 C144.787 651.938 112.762 722.156 94 757 L94 763 L109 763 C130.333 728.333 152.333 679.333 171 638 C189.667 679.333 211 721.667 235 763 L251 763 L251 757 C228.333 714.333 200.333 650 183 606 L161 606 Z " /></g></glyph>
<glyph glyph-name="scaron" unicode="&#x161;" horiz-adv-x="375" >
<path fill="black" d="M73 53 C101 30.3333 133.333 16 168 16 C230.667 16 255 58 255 130 C255 202.835 221.211 225.859 173 258 C119.002 295.798 79 318.726 79 408 C79 484 116.333 537 187 537 C220.333 537 248.667 526.333 274 509 L264 485 C240.667 503 214.667 512 186 512 C136.667 512 104 477.667 104 407 C104 336.33 135.337 318.146 184 283 C235.789 247.566 279 222.108 279 129 C279 43.6667 243 -10 167 -10 C128.333 -10 94.3333 7 73 23 L73 53 Z " /><g transform="translate(6,0)" ><path fill="black" d="M161 606 C144.787 651.938 112.762 722.156 94 757 L94 763 L109 763 C130.333 728.333 152.333 679.333 171 638 C189.667 679.333 211 721.667 235 763 L251 763 L251 757 C228.333 714.333 200.333 650 183 606 L161 606 Z " /></g></glyph>
<glyph glyph-name="uni0162" unicode="&#x162;" horiz-adv-x="375" d="M113 -210 C123 -214.667 134 -217 146 -217 C180.667 -217 203 -192.667 203 -146 C203 -100.667 180.333 -84.3333 139 -83 L164 0 L160 0 L160 689 L33 689 L33 714 L312 714 L312 689 L184 689 L184 0 L185 0 L166 -64 C204.667 -69.3333 225 -99.3333 225 -146 C225 -203.333 193.667 -240 147 -240 C134.333 -240 123 -238 113 -234 L113 -210 Z " />
<glyph glyph-name="uni0163" unicode="&#x163;" horiz-adv-x="375" d="M162 -210 C172 -214.667 183 -217 195 -217 C229.667 -217 252 -192.667 252 -146 C252 -100.667 229.333 -84.3333 188 -83 L211 -5 C163 13.6667 145 80 145 180 L145 503 L56 503 L56 524 L144 528 L151 659 L169 659 L169 528 L289 528 L289 503 L169 503 L169 183 C169 75 185 15 241 15 C260.333 15 278.667 19.3333 296 28 L296 3 C280 -3.66667 262.667 -10 240 -10 L231 -10 L215 -64 C253.667 -69.3333 274 -99.3333 274 -146 C274 -203.333 242.667 -240 196 -240 C183.333 -240 172 -238 162 -234 L162 -210 Z " />
<glyph glyph-name="Tcaron" unicode="&#x164;" horiz-adv-x="375" >
<path fill="black" d="M160 0 L160 689 L33 689 L33 714 L312 714 L312 689 L184 689 L184 0 L160 0 Z " /><g transform="translate(0,186)" ><path fill="black" d="M161 606 C144.787 651.938 112.762 722.156 94 757 L94 763 L109 763 C130.333 728.333 152.333 679.333 171 638 C189.667 679.333 211 721.667 235 763 L251 763 L251 757 C228.333 714.333 200.333 650 183 606 L161 606 Z " /></g></glyph>
<glyph glyph-name="tcaron" unicode="&#x165;" horiz-adv-x="375" >
<g transform="translate(3,0)" ><path fill="black" d="M145 503 L56 503 L56 524 L144 528 L151 659 L169 659 L169 528 L289 528 L289 503 L169 503 L169 183 C169 75 185 15 241 15 C260.333 15 278.667 19.3333 296 28 L296 3 C280 -3.66667 262.667 -10 240 -10 C169.333 -10 145 61.3333 145 180 L145 503 Z " /></g><g transform="translate(312,46)" ><path fill="black" d="M-22 552 L-22 562 C-14.5681 584.296 -0.628219 679.833 2 714 L28 714 L28 706 C20.0347 663.518 7.53063 590.827 -8 552 L-22 552 Z " /></g></glyph>
<glyph glyph-name="Tbar" unicode="&#x166;" horiz-adv-x="375" d="M160 359 L59 359 L59 384 L160 384 L160 689 L33 689 L33 714 L312 714 L312 689 L184 689 L184 384 L287 384 L287 359 L184 359 L184 0 L160 0 L160 359 Z " />
<glyph glyph-name="tbar" unicode="&#x167;" horiz-adv-x="375" d="M145 285 L56 285 L56 310 L145 310 L145 503 L56 503 L56 524 L144 528 L151 659 L169 659 L169 528 L289 528 L289 503 L169 503 L169 310 L296 310 L296 285 L169 285 L169 183 C169 75 185 15 241 15 C260.333 15 278.667 19.3333 296 28 L296 3 C280 -3.66667 262.667 -10 240 -10 C169.333 -10 145 61.3333 145 180 L145 285 Z " />
<glyph glyph-name="Utilde" unicode="&#x168;" horiz-adv-x="375" >
<path fill="black" d="M45 714 L70 714 L70 239 C70 83 106.667 15 172 15 C236 15 276 78.3333 276 233 L276 714 L299 714 L299 230 C299 58 248 -10 172 -10 C90.6667 -10 45 69.3333 45 236 L45 714 Z " /><g transform="translate(1,186)" ><path fill="black" d="M73 625 C75.6667 689 95.3333 718 126 718 C166.222 718 183.778 648 216 648 C234.667 648 249.333 667.333 252 718 L271 718 C268.333 654 246.667 624 216 624 C175.778 624 158.222 694 126 694 C110 694 95 677 91 625 L73 625 Z " /></g></glyph>
<glyph glyph-name="utilde" unicode="&#x169;" horiz-adv-x="375" >
<path fill="black" d="M55 528 L79 528 L79 177 C79 63.6667 108.667 15 162 15 C222 15 263 81.6667 263 227 L263 528 L286 528 L286 0 L267 0 L264 112 L262 112 C251.155 52.3544 218.604 -10 158 -10 C89.3333 -10 55 50.3333 55 171 L55 528 Z " /><g transform="translate(1,0)" ><path fill="black" d="M73 625 C75.6667 689 95.3333 718 126 718 C166.222 718 183.778 648 216 648 C234.667 648 249.333 667.333 252 718 L271 718 C268.333 654 246.667 624 216 624 C175.778 624 158.222 694 126 694 C110 694 95 677 91 625 L73 625 Z " /></g></glyph>
<glyph glyph-name="Umacron" unicode="&#x16a;" horiz-adv-x="375" >
<path fill="black" d="M45 714 L70 714 L70 239 C70 83 106.667 15 172 15 C236 15 276 78.3333 276 233 L276 714 L299 714 L299 230 C299 58 248 -10 172 -10 C90.6667 -10 45 69.3333 45 236 L45 714 Z " /><g transform="translate(0,187)" ><path fill="black" d="M94 640 L250 640 L250 616 L94 616 L94 640 Z " /></g></glyph>
<glyph glyph-name="umacron" unicode="&#x16b;" horiz-adv-x="375" >
<path fill="black" d="M55 528 L79 528 L79 177 C79 63.6667 108.667 15 162 15 C222 15 263 81.6667 263 227 L263 528 L286 528 L286 0 L267 0 L264 112 L262 112 C251.155 52.3544 218.604 -10 158 -10 C89.3333 -10 55 50.3333 55 171 L55 528 Z " /><g transform="translate(0,1)" ><path fill="black" d="M94 640 L250 640 L250 616 L94 616 L94 640 Z " /></g></glyph>
<glyph glyph-name="Ubreve" unicode="&#x16c;" horiz-adv-x="375" >
<path fill="black" d="M45 714 L70 714 L70 239 C70 83 106.667 15 172 15 C236 15 276 78.3333 276 233 L276 714 L299 714 L299 230 C299 58 248 -10 172 -10 C90.6667 -10 45 69.3333 45 236 L45 714 Z " /><g transform="translate(0,186)" ><path fill="black" d="M116 716 C118.667 665.333 137.333 632 172 632 C209.333 632 227.333 665.333 230 716 L250 716 C246 648 218.667 608 172 608 C129.333 608 98.6667 644 96 716 L116 716 Z " /></g></glyph>
<glyph glyph-name="ubreve" unicode="&#x16d;" horiz-adv-x="375" >
<path fill="black" d="M55 528 L79 528 L79 177 C79 63.6667 108.667 15 162 15 C222 15 263 81.6667 263 227 L263 528 L286 528 L286 0 L267 0 L264 112 L262 112 C251.155 52.3544 218.604 -10 158 -10 C89.3333 -10 55 50.3333 55 171 L55 528 Z " /><path fill="black" d="M116 716 C118.667 665.333 137.333 632 172 632 C209.333 632 227.333 665.333 230 716 L250 716 C246 648 218.667 608 172 608 C129.333 608 98.6667 644 96 716 L116 716 Z " /></glyph>
<glyph glyph-name="Uring" unicode="&#x16e;" horiz-adv-x="375" >
<path fill="black" d="M45 714 L70 714 L70 239 C70 83 106.667 15 172 15 C236 15 276 78.3333 276 233 L276 714 L299 714 L299 230 C299 58 248 -10 172 -10 C90.6667 -10 45 69.3333 45 236 L45 714 Z " /><g transform="translate(0,186)" ><path fill="black" d="M173 614 C137 614 107 647 107 707 C107 764.333 136 800 172 800 C209.333 800 237 763.333 237 706 C237 650 210.333 614 173 614 Z M173 636 C199.667 636 218 664.667 218 706 C218 748.667 199 777 171 777 C144.333 777 127 748.333 127 707 C127 667 143.667 636 173 636 Z " /></g></glyph>
<glyph glyph-name="uring" unicode="&#x16f;" horiz-adv-x="375" >
<path fill="black" d="M55 528 L79 528 L79 177 C79 63.6667 108.667 15 162 15 C222 15 263 81.6667 263 227 L263 528 L286 528 L286 0 L267 0 L264 112 L262 112 C251.155 52.3544 218.604 -10 158 -10 C89.3333 -10 55 50.3333 55 171 L55 528 Z " /><path fill="black" d="M173 614 C137 614 107 647 107 707 C107 764.333 136 800 172 800 C209.333 800 237 763.333 237 706 C237 650 210.333 614 173 614 Z M173 636 C199.667 636 218 664.667 218 706 C218 748.667 199 777 171 777 C144.333 777 127 748.333 127 707 C127 667 143.667 636 173 636 Z " /></glyph>
<glyph glyph-name="Uhungarumlaut" unicode="&#x170;" horiz-adv-x="375" d="M45 714 L70 714 L70 239 C70 83 106.667 15 172 15 C236 15 276 78.3333 276 233 L276 714 L299 714 L299 230 C299 58 248 -10 172 -10 C90.6667 -10 45 69.3333 45 236 L45 714 Z M105 793 L105 800 C129.212 843.043 159.852 913.557 173 953 L199 953 L199 946 C182.609 907.755 149.348 835.688 120 793 L105 793 Z M198 793 L198 800 C222.212 843.043 252.852 913.557 266 953 L292 953 L292 946 C275.609 907.755 242.348 835.688 213 793 L198 793 Z " />
<glyph glyph-name="uhungarumlaut" unicode="&#x171;" horiz-adv-x="375" d="M55 528 L79 528 L79 177 C79 63.6667 108.667 15 162 15 C222 15 263 81.6667 263 227 L263 528 L286 528 L286 0 L267 0 L264 112 L262 112 C251.155 52.3544 218.604 -10 158 -10 C89.3333 -10 55 50.3333 55 171 L55 528 Z M105 607 L105 614 C129.212 657.043 159.852 727.557 173 767 L199 767 L199 760 C182.609 721.755 149.348 649.688 120 607 L105 607 Z M198 607 L198 614 C222.212 657.043 252.852 727.557 266 767 L292 767 L292 760 C275.609 721.755 242.348 649.688 213 607 L198 607 Z " />
<glyph glyph-name="Uogonek" unicode="&#x172;" horiz-adv-x="375" d="M214 -210 C206 -214.667 196.667 -217 186 -217 C151.333 -217 130 -190 130 -138 C130 -92.6667 147 -50 181 -10 L172 -10 C90.6667 -10 45 69.3333 45 236 L45 714 L70 714 L70 239 C70 83 106.667 15 172 15 C236 15 276 78.3333 276 233 L276 714 L299 714 L299 230 C299 94 267.667 24 217 0 C178.333 -41.3333 153 -84.3333 153 -135 C153 -173.667 165 -193 189 -193 C197 -193 207.333 -189.667 214 -187 L214 -210 Z " />
<glyph glyph-name="uogonek" unicode="&#x173;" horiz-adv-x="375" d="M307 -210 C300.333 -214 289.333 -217 280 -217 C245.333 -217 224 -190 224 -138 C224 -91.3333 241.667 -45.3333 277 0 L270 0 L267 112 L265 112 C254.155 52.3544 221.604 -10 161 -10 C92.3333 -10 58 50.3333 58 171 L58 528 L82 528 L82 177 C82 63.6667 111.667 15 165 15 C225 15 266 81.6667 266 227 L266 528 L289 528 L289 8 L301 0 C267.667 -42.6667 247 -83 247 -135 C247 -173.667 258.667 -193 282 -193 C291.333 -193 301.667 -189.667 307 -187 L307 -210 Z " />
<glyph glyph-name="Wcircumflex" unicode="&#x174;" horiz-adv-x="375" >
<path fill="black" d="M101 29 L115 151 L161 528 L184 528 L229 151 C235.667 108.333 240 68.6667 244 26 L246 26 C248.667 72.6667 251 108.333 255 151 C269.667 340.333 285.333 524.667 300 714 L325 714 L261 0 L230 0 L184 375 C180 409.667 176.667 432.333 174 475 L172 475 C168 432.333 165 411 161 375 L116 0 L83 0 L20 714 L43 714 C57.6667 524.667 75.6667 341.667 89 151 C91.6667 109.667 97.3333 75.6667 100 29 L101 29 Z " /><g transform="translate(0,186)" ><path fill="black" d="M92 606 L92 613 C113.025 649.795 145.219 720.918 161 763 L184 763 C200.222 719.741 234.699 642.885 251 613 L251 606 L236 606 C214.667 642 192 693.333 172 732 C153.333 694.667 129.333 640.667 108 606 L92 606 Z " /></g></glyph>
<glyph glyph-name="wcircumflex" unicode="&#x175;" horiz-adv-x="375" >
<path fill="black" d="M86 -1 L13 528 L36 528 L84 158 C90.6667 107.333 94 78.3333 98 45 L100 45 C104 73 111 110.667 119 160 L164 407 L187 407 L230 157 C238 113 244.667 77.3333 250 44 L251 44 C256.264 88.7398 258.585 106.262 264 155 L309 528 L332 528 L262 -1 L239 -1 L192 270 C186.667 304.667 181.333 335 176 367 L174 367 C170 335 164.667 301 158 269 L109 -1 L86 -1 Z " /><g transform="translate(4,0)" ><path fill="black" d="M92 606 L92 613 C113.025 649.795 145.219 720.918 161 763 L184 763 C200.222 719.741 234.699 642.885 251 613 L251 606 L236 606 C214.667 642 192 693.333 172 732 C153.333 694.667 129.333 640.667 108 606 L92 606 Z " /></g></glyph>
<glyph glyph-name="Ycircumflex" unicode="&#x176;" horiz-adv-x="375" >
<path fill="black" d="M161 0 L161 275 L26 714 L51 714 L173 305 L293 714 L319 714 L185 277 L185 0 L161 0 Z " /><g transform="translate(0,186)" ><path fill="black" d="M92 606 L92 613 C113.025 649.795 145.219 720.918 161 763 L184 763 C200.222 719.741 234.699 642.885 251 613 L251 606 L236 606 C214.667 642 192 693.333 172 732 C153.333 694.667 129.333 640.667 108 606 L92 606 Z " /></g></glyph>
<glyph glyph-name="ycircumflex" unicode="&#x177;" horiz-adv-x="375" >
<path fill="black" d="M45 -207 C55 -213.667 65 -217 75 -217 C104.333 -217 126 -193.333 142 -112 L167 10 L49 528 L74 528 L154 156 C168.667 92 171.667 69.3333 177 48 L178 48 C184.667 82.6667 191 112.333 199 155 L275 528 L300 528 L166 -112 C147.333 -201.333 122.333 -243 77 -243 C67 -243 56.3333 -240 45 -234 L45 -207 Z " /><path fill="black" d="M92 606 L92 613 C113.025 649.795 145.219 720.918 161 763 L184 763 C200.222 719.741 234.699 642.885 251 613 L251 606 L236 606 C214.667 642 192 693.333 172 732 C153.333 694.667 129.333 640.667 108 606 L92 606 Z " /></glyph>
<glyph glyph-name="Ydieresis" unicode="&#x178;" horiz-adv-x="375" >
<g transform="translate(0,174)" ><path fill="black" d="M116 635 C104 635 96 651.333 96 670 C96 688.667 104 706 116 706 C132 706 138 688.667 138 670 C138 650 132 635 116 635 Z M228 635 C213.333 635 207 651.333 207 670 C207 688.667 213.333 706 228 706 C242.667 706 248 690 248 670 C248 650 242.667 635 228 635 Z " /></g><path fill="black" d="M161 0 L161 275 L26 714 L51 714 L173 305 L293 714 L319 714 L185 277 L185 0 L161 0 Z " /></glyph>
<glyph glyph-name="Zacute" unicode="&#x179;" horiz-adv-x="375" >
<path fill="black" d="M65 21 L264 689 L78 689 L78 714 L290 714 L290 693 L93 25 L297 25 L297 0 L65 0 L65 21 Z " /><g transform="translate(6,186)" ><path fill="black" d="M151 606 L151 615 C181.667 661.667 212 717 232 765 L259 765 L259 758 C237.667 711.333 197.667 647.333 167 606 L151 606 Z " /></g></glyph>
<glyph glyph-name="zacute" unicode="&#x17a;" horiz-adv-x="375" >
<path fill="black" d="M65 21 L250 503 L79 503 L79 528 L280 528 L280 509 L95 25 L280 25 L280 0 L65 0 L65 21 Z " /><g transform="translate(3,0)" ><path fill="black" d="M151 606 L151 615 C181.667 661.667 212 717 232 765 L259 765 L259 758 C237.667 711.333 197.667 647.333 167 606 L151 606 Z " /></g></glyph>
<glyph glyph-name="Zdotaccent" unicode="&#x17b;" horiz-adv-x="375" >
<path fill="black" d="M65 21 L264 689 L78 689 L78 714 L290 714 L290 693 L93 25 L297 25 L297 0 L65 0 L65 21 Z " /><g transform="translate(10,187)" ><path fill="black" d="M173 660 C154.333 660 149 677 149 697 C149 715.667 154.333 734 173 734 C191.667 734 197 715.667 197 697 C197 678.333 191.667 660 173 660 Z " /></g></glyph>
<glyph glyph-name="zdotaccent" unicode="&#x17c;" horiz-adv-x="375" >
<path fill="black" d="M65 21 L250 503 L79 503 L79 528 L280 528 L280 509 L95 25 L280 25 L280 0 L65 0 L65 21 Z " /><g transform="translate(7,1)" ><path fill="black" d="M173 660 C154.333 660 149 677 149 697 C149 715.667 154.333 734 173 734 C191.667 734 197 715.667 197 697 C197 678.333 191.667 660 173 660 Z " /></g></glyph>
<glyph glyph-name="Zcaron" unicode="&#x17d;" horiz-adv-x="375" >
<path fill="black" d="M65 21 L264 689 L78 689 L78 714 L290 714 L290 693 L93 25 L297 25 L297 0 L65 0 L65 21 Z " /><g transform="translate(10,186)" ><path fill="black" d="M161 606 C144.787 651.938 112.762 722.156 94 757 L94 763 L109 763 C130.333 728.333 152.333 679.333 171 638 C189.667 679.333 211 721.667 235 763 L251 763 L251 757 C228.333 714.333 200.333 650 183 606 L161 606 Z " /></g></glyph>
<glyph glyph-name="zcaron" unicode="&#x17e;" horiz-adv-x="375" >
<path fill="black" d="M65 21 L250 503 L79 503 L79 528 L280 528 L280 509 L95 25 L280 25 L280 0 L65 0 L65 21 Z " /><g transform="translate(7,0)" ><path fill="black" d="M161 606 C144.787 651.938 112.762 722.156 94 757 L94 763 L109 763 C130.333 728.333 152.333 679.333 171 638 C189.667 679.333 211 721.667 235 763 L251 763 L251 757 C228.333 714.333 200.333 650 183 606 L161 606 Z " /></g></glyph>
<glyph glyph-name="longs" unicode="&#x17f;" horiz-adv-x="375" d="M155 0 L155 585 C155 698.333 185.667 765 259 765 C275 765 290 762.333 304 757 L300 732 C288 738 274.333 741 259 741 C207 741 179 696.667 179 582 L179 0 L155 0 Z " />
<glyph glyph-name="florin" unicode="&#x192;" horiz-adv-x="375" d="M48 -205 C63.3333 -211.667 77 -215 89 -215 C130.333 -215 147 -170 147 -86 L147 422 L70 422 L70 443 L147 447 L147 547 C147 660.333 172.333 724 235 724 C253.667 724 270 721.667 286 711 L280 687 C267.333 695.667 252.667 700 236 700 C189.333 700 171 652.333 171 543 L171 447 L250 447 L250 422 L171 422 L171 -83 C171 -176.333 151 -240 91 -240 C73.6667 -240 58.6667 -236 48 -232 L48 -205 Z " />
<glyph glyph-name="uni0218" unicode="&#x218;" horiz-adv-x="375" >
<path fill="black" d="M57 46 C85 30 122.333 16 157 16 C225 16 263 74 263 182 C263 281.834 230.661 306.99 163 353 C104.281 393.036 59 428.254 59 543 C59 664.333 107.667 724 181 724 C211.667 724 245.667 712 275 692 L265 669 C233 693 203.667 699 181 699 C119.667 699 84 647.333 84 546 C84 440.077 126.086 413.516 177 376 C248.049 328.634 288 298.125 288 183 C288 53.6667 237 -10 157 -10 C122.333 -10 87.6667 1 57 17 L57 46 Z " /><g transform="translate(547,0)" ><path fill="black" d="M-417 -221 L-417 -213 C-406.355 -181.064 -390.607 -102.716 -388 -61 L-362 -61 L-362 -69 C-370 -118.333 -383.333 -174.333 -402 -221 L-417 -221 Z " /></g></glyph>
<glyph glyph-name="uni0219" unicode="&#x219;" horiz-adv-x="375" >
<path fill="black" d="M73 53 C101 30.3333 133.333 16 168 16 C230.667 16 255 58 255 130 C255 202.835 221.211 225.859 173 258 C119.002 295.798 79 318.726 79 408 C79 484 116.333 537 187 537 C220.333 537 248.667 526.333 274 509 L264 485 C240.667 503 214.667 512 186 512 C136.667 512 104 477.667 104 407 C104 336.33 135.337 318.146 184 283 C235.789 247.566 279 222.108 279 129 C279 43.6667 243 -10 167 -10 C128.333 -10 94.3333 7 73 23 L73 53 Z " /><g transform="translate(553,0)" ><path fill="black" d="M-417 -221 L-417 -213 C-406.355 -181.064 -390.607 -102.716 -388 -61 L-362 -61 L-362 -69 C-370 -118.333 -383.333 -174.333 -402 -221 L-417 -221 Z " /></g></glyph>
<glyph glyph-name="uni021A" unicode="&#x21a;" horiz-adv-x="375" >
<path fill="black" d="M160 0 L160 689 L33 689 L33 714 L312 714 L312 689 L184 689 L184 0 L160 0 Z " /><g transform="translate(547,0)" ><path fill="black" d="M-417 -221 L-417 -213 C-406.355 -181.064 -390.607 -102.716 -388 -61 L-362 -61 L-362 -69 C-370 -118.333 -383.333 -174.333 -402 -221 L-417 -221 Z " /></g></glyph>
<glyph glyph-name="uni021B" unicode="&#x21b;" horiz-adv-x="375" >
<path fill="black" d="M145 503 L56 503 L56 524 L144 528 L151 659 L169 659 L169 528 L289 528 L289 503 L169 503 L169 183 C169 75 185 15 241 15 C260.333 15 278.667 19.3333 296 28 L296 3 C280 -3.66667 262.667 -10 240 -10 C169.333 -10 145 61.3333 145 180 L145 503 Z " /><g transform="translate(596,0)" ><path fill="black" d="M-417 -221 L-417 -213 C-406.355 -181.064 -390.607 -102.716 -388 -61 L-362 -61 L-362 -69 C-370 -118.333 -383.333 -174.333 -402 -221 L-417 -221 Z " /></g></glyph>
<glyph glyph-name="uni0237" unicode="&#x237;" horiz-adv-x="345" d="M36 -201 C50.6667 -210.333 87.6667 -222 113 -222 C163.667 -222 189 -169 189 -81 L189 503 L76 507 L76 528 L214 528 L214 -88 C214 -196 175.333 -248 114 -248 C83.3333 -248 48 -234.667 36 -228 L36 -201 Z " />
<glyph glyph-name="circumflex" unicode="&#x2c6;" horiz-adv-x="375" d="M92 606 L92 613 C113.025 649.795 145.219 720.918 161 763 L184 763 C200.222 719.741 234.699 642.885 251 613 L251 606 L236 606 C214.667 642 192 693.333 172 732 C153.333 694.667 129.333 640.667 108 606 L92 606 Z " />
<glyph glyph-name="caron" unicode="&#x2c7;" horiz-adv-x="375" d="M161 606 C144.787 651.938 112.762 722.156 94 757 L94 763 L109 763 C130.333 728.333 152.333 679.333 171 638 C189.667 679.333 211 721.667 235 763 L251 763 L251 757 C228.333 714.333 200.333 650 183 606 L161 606 Z " />
<glyph glyph-name="uni02C9" unicode="&#x2c9;" horiz-adv-x="375" >
<path fill="black" d="M94 640 L250 640 L250 616 L94 616 L94 640 Z " /></glyph>
<glyph glyph-name="breve" unicode="&#x2d8;" horiz-adv-x="375" d="M116 716 C118.667 665.333 137.333 632 172 632 C209.333 632 227.333 665.333 230 716 L250 716 C246 648 218.667 608 172 608 C129.333 608 98.6667 644 96 716 L116 716 Z " />
<glyph glyph-name="dotaccent" unicode="&#x2d9;" horiz-adv-x="375" d="M173 660 C154.333 660 149 677 149 697 C149 715.667 154.333 734 173 734 C191.667 734 197 715.667 197 697 C197 678.333 191.667 660 173 660 Z " />
<glyph glyph-name="ring" unicode="&#x2da;" horiz-adv-x="375" d="M173 614 C137 614 107 647 107 707 C107 764.333 136 800 172 800 C209.333 800 237 763.333 237 706 C237 650 210.333 614 173 614 Z M173 636 C199.667 636 218 664.667 218 706 C218 748.667 199 777 171 777 C144.333 777 127 748.333 127 707 C127 667 143.667 636 173 636 Z " />
<glyph glyph-name="ogonek" unicode="&#x2db;" horiz-adv-x="375" d="M213 -210 C206.333 -214 195.333 -217 186 -217 C151.333 -217 130 -190 130 -138 C130 -88 150.333 -38.6667 191 10 L207 0 C173.667 -42.6667 153 -83 153 -135 C153 -173.667 164.667 -193 188 -193 C197.333 -193 207.667 -189.667 213 -187 L213 -210 Z " />
<glyph glyph-name="tilde" unicode="&#x2dc;" horiz-adv-x="375" d="M73 625 C75.6667 689 95.3333 718 126 718 C166.222 718 183.778 648 216 648 C234.667 648 249.333 667.333 252 718 L271 718 C268.333 654 246.667 624 216 624 C175.778 624 158.222 694 126 694 C110 694 95 677 91 625 L73 625 Z " />
<glyph glyph-name="hungarumlaut" unicode="&#x2dd;" horiz-adv-x="375" d="M109 606 L109 613 C133.212 656.043 163.852 726.557 177 766 L203 766 L203 759 C186.609 720.755 153.348 648.688 124 606 L109 606 Z M202 606 L202 613 C226.212 656.043 256.852 726.557 270 766 L296 766 L296 759 C279.609 720.755 246.348 648.688 217 606 L202 606 Z " />
<glyph glyph-name="uni0394" unicode="&#x394;" horiz-adv-x="375" d="M17 19 L158 714 L185 714 L328 19 L328 0 L17 0 L17 19 Z M300 25 L200 534 C189.333 586 177.333 651.333 172 686 C165.333 646 154.333 585.333 145 536 L44 25 L300 25 Z " />
<glyph glyph-name="uni03A9" unicode="&#x3a9;" horiz-adv-x="375" d="M23 25 L117 25 C71.4274 83.9763 35 188.706 35 380 C35 620 86.3333 725 173 725 C257.364 725 309 629.364 309 377 C309 185 277 81 229 25 L322 25 L322 0 L195 0 L195 20 C259 80 284 192.667 284 378 C284 611.022 242.255 700 173 700 C103.667 700 60 605.667 60 383 C60 188.333 96 78.6667 148 20 L148 0 L23 0 L23 25 Z " />
<glyph glyph-name="uni03BC" unicode="&#x3bc;" horiz-adv-x="375" >
<path fill="black" d="M55 227 L58 227 L58 528 L82 528 L82 177 C82 63.6667 111.667 15 165 15 C225 15 266 81.6667 266 227 L266 528 L289 528 L289 0 L270 0 L267 112 L265 112 C254.155 52.3544 221.604 -10 161 -10 C123 -10 95.3333 9 78 47 L78 -240 L55 -240 L55 227 Z " /></glyph>
<glyph glyph-name="pi" unicode="&#x3c0;" horiz-adv-x="375" d="M76 504 L16 504 L16 523 L58 528 L327 528 L327 504 L265 504 L265 99 C265 41.6667 276 17 304 17 C312.667 17 320.333 18.6667 327 22 L327 -3 C321.667 -5.66667 311.333 -8 298 -8 C260 -8 241 25.3333 241 92 L241 504 L99 504 L99 0 L76 0 L76 504 Z " />
<glyph glyph-name="Wgrave" unicode="&#x1e80;" horiz-adv-x="375" >
<path fill="black" d="M101 29 L115 151 L161 528 L184 528 L229 151 C235.667 108.333 240 68.6667 244 26 L246 26 C248.667 72.6667 251 108.333 255 151 C269.667 340.333 285.333 524.667 300 714 L325 714 L261 0 L230 0 L184 375 C180 409.667 176.667 432.333 174 475 L172 475 C168 432.333 165 411 161 375 L116 0 L83 0 L20 714 L43 714 C57.6667 524.667 75.6667 341.667 89 151 C91.6667 109.667 97.3333 75.6667 100 29 L101 29 Z " /><g transform="translate(-15,186)" ><path fill="black" d="M197 606 C166.333 647.333 126.667 710 104 758 L104 765 L132 765 C152 715.667 187.333 657.667 214 615 L214 606 L197 606 Z " /></g></glyph>
<glyph glyph-name="wgrave" unicode="&#x1e81;" horiz-adv-x="375" >
<path fill="black" d="M86 -1 L13 528 L36 528 L84 158 C90.6667 107.333 94 78.3333 98 45 L100 45 C104 73 111 110.667 119 160 L164 407 L187 407 L230 157 C238 113 244.667 77.3333 250 44 L251 44 C256.264 88.7398 258.585 106.262 264 155 L309 528 L332 528 L262 -1 L239 -1 L192 270 C186.667 304.667 181.333 335 176 367 L174 367 C170 335 164.667 301 158 269 L109 -1 L86 -1 Z " /><g transform="translate(-11,0)" ><path fill="black" d="M197 606 C166.333 647.333 126.667 710 104 758 L104 765 L132 765 C152 715.667 187.333 657.667 214 615 L214 606 L197 606 Z " /></g></glyph>
<glyph glyph-name="Wacute" unicode="&#x1e82;" horiz-adv-x="375" >
<path fill="black" d="M101 29 L115 151 L161 528 L184 528 L229 151 C235.667 108.333 240 68.6667 244 26 L246 26 C248.667 72.6667 251 108.333 255 151 C269.667 340.333 285.333 524.667 300 714 L325 714 L261 0 L230 0 L184 375 C180 409.667 176.667 432.333 174 475 L172 475 C168 432.333 165 411 161 375 L116 0 L83 0 L20 714 L43 714 C57.6667 524.667 75.6667 341.667 89 151 C91.6667 109.667 97.3333 75.6667 100 29 L101 29 Z " /><g transform="translate(-4,186)" ><path fill="black" d="M151 606 L151 615 C181.667 661.667 212 717 232 765 L259 765 L259 758 C237.667 711.333 197.667 647.333 167 606 L151 606 Z " /></g></glyph>
<glyph glyph-name="wacute" unicode="&#x1e83;" horiz-adv-x="375" >
<path fill="black" d="M86 -1 L13 528 L36 528 L84 158 C90.6667 107.333 94 78.3333 98 45 L100 45 C104 73 111 110.667 119 160 L164 407 L187 407 L230 157 C238 113 244.667 77.3333 250 44 L251 44 C256.264 88.7398 258.585 106.262 264 155 L309 528 L332 528 L262 -1 L239 -1 L192 270 C186.667 304.667 181.333 335 176 367 L174 367 C170 335 164.667 301 158 269 L109 -1 L86 -1 Z " /><path fill="black" d="M151 606 L151 615 C181.667 661.667 212 717 232 765 L259 765 L259 758 C237.667 711.333 197.667 647.333 167 606 L151 606 Z " /></glyph>
<glyph glyph-name="Wdieresis" unicode="&#x1e84;" horiz-adv-x="375" >
<g transform="translate(0,174)" ><path fill="black" d="M116 635 C104 635 96 651.333 96 670 C96 688.667 104 706 116 706 C132 706 138 688.667 138 670 C138 650 132 635 116 635 Z M228 635 C213.333 635 207 651.333 207 670 C207 688.667 213.333 706 228 706 C242.667 706 248 690 248 670 C248 650 242.667 635 228 635 Z " /></g><path fill="black" d="M101 29 L115 151 L161 528 L184 528 L229 151 C235.667 108.333 240 68.6667 244 26 L246 26 C248.667 72.6667 251 108.333 255 151 C269.667 340.333 285.333 524.667 300 714 L325 714 L261 0 L230 0 L184 375 C180 409.667 176.667 432.333 174 475 L172 475 C168 432.333 165 411 161 375 L116 0 L83 0 L20 714 L43 714 C57.6667 524.667 75.6667 341.667 89 151 C91.6667 109.667 97.3333 75.6667 100 29 L101 29 Z " /></glyph>
<glyph glyph-name="wdieresis" unicode="&#x1e85;" horiz-adv-x="375" >
<g transform="translate(4,-12)" ><path fill="black" d="M116 635 C104 635 96 651.333 96 670 C96 688.667 104 706 116 706 C132 706 138 688.667 138 670 C138 650 132 635 116 635 Z M228 635 C213.333 635 207 651.333 207 670 C207 688.667 213.333 706 228 706 C242.667 706 248 690 248 670 C248 650 242.667 635 228 635 Z " /></g><path fill="black" d="M86 -1 L13 528 L36 528 L84 158 C90.6667 107.333 94 78.3333 98 45 L100 45 C104 73 111 110.667 119 160 L164 407 L187 407 L230 157 C238 113 244.667 77.3333 250 44 L251 44 C256.264 88.7398 258.585 106.262 264 155 L309 528 L332 528 L262 -1 L239 -1 L192 270 C186.667 304.667 181.333 335 176 367 L174 367 C170 335 164.667 301 158 269 L109 -1 L86 -1 Z " /></glyph>
<glyph glyph-name="uni2010" unicode="&#x2010;" horiz-adv-x="345" >
<g transform="translate(3,0)" ><path fill="black" d="M88 290 L257 290 L257 265 L88 265 L88 290 Z " /></g></glyph>
<glyph glyph-name="endash" unicode="&#x2013;" horiz-adv-x="375" d="M55 290 L291 290 L291 265 L55 265 L55 290 Z " />
<glyph glyph-name="emdash" unicode="&#x2014;" horiz-adv-x="375" >
<g transform="translate(0,378)" ><path fill="black" d="M3 -88 L341 -88 L341 -113 L3 -113 L3 -88 Z " /></g></glyph>
<glyph glyph-name="quoteleft" unicode="&#x2018;" horiz-adv-x="375" >
<g transform="translate(-1,0)" ><path fill="black" d="M145 482 L140 492 C150.667 568 165.667 643.333 187 714 L206 714 C187.333 638 174.667 554 168 482 L145 482 Z " /></g></glyph>
<glyph glyph-name="quoteright" unicode="&#x2019;" horiz-adv-x="375" >
<g transform="translate(3,0)" ><path fill="black" d="M139 482 C157.667 559.333 171.333 642 178 714 L200 714 L204 704 C193.333 629.333 178.333 554 157 482 L139 482 Z " /></g></glyph>
<glyph glyph-name="quotesinglbase" unicode="&#x201a;" horiz-adv-x="375" >
<g transform="translate(3,0)" ><path fill="black" d="M139 -129 C157.667 -31.6667 169.333 40 176 116 L201 116 L204 104 C193.333 29.3333 177.667 -59.6667 159 -129 L139 -129 Z " /></g></glyph>
<glyph glyph-name="quotedblleft" unicode="&#x201c;" horiz-adv-x="375" >
<g transform="translate(-46,0)" ><path fill="black" d="M145 482 L140 492 C150.667 568 165.667 643.333 187 714 L206 714 C187.333 638 174.667 554 168 482 L145 482 Z " /></g><g transform="translate(68,0)" ><path fill="black" d="M145 482 L140 492 C150.667 568 165.667 643.333 187 714 L206 714 C187.333 638 174.667 554 168 482 L145 482 Z " /></g></glyph>
<glyph glyph-name="quotedblright" unicode="&#x201d;" horiz-adv-x="375" >
<g transform="translate(-73,0)" ><path fill="black" d="M139 482 C157.667 559.333 171.333 642 178 714 L200 714 L204 704 C193.333 629.333 178.333 554 157 482 L139 482 Z " /></g><g transform="translate(41,0)" ><path fill="black" d="M139 482 C157.667 559.333 171.333 642 178 714 L200 714 L204 704 C193.333 629.333 178.333 554 157 482 L139 482 Z " /></g></glyph>
<glyph glyph-name="quotedblbase" unicode="&#x201e;" horiz-adv-x="375" >
<g transform="translate(-70,0)" ><path fill="black" d="M139 -129 C157.667 -31.6667 169.333 40 176 116 L201 116 L204 104 C193.333 29.3333 177.667 -59.6667 159 -129 L139 -129 Z " /></g><g transform="translate(51,0)" ><path fill="black" d="M139 -129 C157.667 -31.6667 169.333 40 176 116 L201 116 L204 104 C193.333 29.3333 177.667 -59.6667 159 -129 L139 -129 Z " /></g></glyph>
<glyph glyph-name="dagger" unicode="&#x2020;" horiz-adv-x="375" d="M158 0 L163 535 L60 533 L60 559 L163 555 L158 760 L185 760 L180 555 L284 559 L284 533 L180 535 L185 0 L158 0 Z " />
<glyph glyph-name="daggerdbl" unicode="&#x2021;" horiz-adv-x="375" d="M156 0 L160 194 L60 190 L60 216 L160 214 L158 384 L160 546 L60 544 L60 570 L160 566 L156 760 L183 760 L178 566 L284 570 L284 544 L178 546 L181 384 L178 214 L284 216 L284 190 L178 194 L183 0 L156 0 Z " />
<glyph glyph-name="bullet" unicode="&#x2022;" horiz-adv-x="375" d="M172 278 C136 278 117 311.333 117 366 C117 420.667 134.667 452 172 452 C208 452 228 420.667 228 366 C228 312.667 209.333 278 172 278 Z " />
<glyph glyph-name="ellipsis" unicode="&#x2026;" horiz-adv-x="375" >
<path fill="black" d="M174 -12 L173 -12 C154.333 -12 149 4.33333 149 23 C149 41.6667 154.333 58 173 58 L174 58 L176 58 C192 58 198 41.6667 198 23 C198 4.33333 192 -12 176 -12 L174 -12 Z " /></glyph>
<glyph glyph-name="perthousand" unicode="&#x2030;" horiz-adv-x="375" >
<g transform="translate(-85,-574)" ><path fill="black" d="M173 407 C115 407 86 482 86 632 C86 779.333 114.333 853 171 853 C229.667 853 259 782.667 259 632 C259 478.667 229 407 173 407 Z M173 432 C215.667 432 237 494.667 237 632 C237 770.667 213.667 829 171 829 C131 829 108 769.333 108 632 C108 493.333 130.333 432 173 432 Z " /></g><g transform="translate(88,-574)" ><path fill="black" d="M173 407 C115 407 86 482 86 632 C86 779.333 114.333 853 171 853 C229.667 853 259 782.667 259 632 C259 478.667 229 407 173 407 Z M173 432 C215.667 432 237 494.667 237 632 C237 770.667 213.667 829 171 829 C131 829 108 769.333 108 632 C108 493.333 130.333 432 173 432 Z " /></g><g transform="translate(0,50)" ><path fill="black" d="M173 407 C115 407 86 482 86 632 C86 779.333 114.333 853 171 853 C229.667 853 259 782.667 259 632 C259 478.667 229 407 173 407 Z M173 432 C215.667 432 237 494.667 237 632 C237 770.667 213.667 829 171 829 C131 829 108 769.333 108 632 C108 493.333 130.333 432 173 432 Z " /></g><path fill="black" d="M32 355 L309 400 L309 381 L32 336 L32 355 Z " /></glyph>
<glyph glyph-name="guilsinglleft" unicode="&#x2039;" horiz-adv-x="375" d="M213 83 L115 260 L115 272 L213 451 L228 439 L146 267 L229 93 L213 83 Z " />
<glyph glyph-name="guilsinglright" unicode="&#x203a;" horiz-adv-x="375" d="M196 292 L113 466 L129 476 L227 299 L227 287 L129 108 L114 120 L196 292 Z " />
<glyph glyph-name="fraction" unicode="&#x2044;" horiz-adv-x="375" d="M32 355 L309 400 L309 381 L32 336 L32 355 Z " />
<glyph glyph-name="franc" unicode="&#x20a3;" horiz-adv-x="375" d="M94 155 L36 155 L36 180 L94 180 L94 714 L288 714 L288 689 L118 689 L118 354 L275 354 L275 329 L118 329 L118 180 L212 180 L212 155 L118 155 L118 0 L94 0 L94 155 Z " />
<glyph glyph-name="lira" unicode="&#x20a4;" horiz-adv-x="375" d="M309 25 L309 0 L46 0 L46 23 C98.3578 43.9431 112 104.325 112 256 L50 256 L50 281 L112 281 L112 409 L50 409 L50 434 L112 434 L112 532 C112 652 143.667 724 217 724 C250.333 724 275.333 711 298 691 L288 669 C262.667 691.667 243.667 699 217 699 C161 699 136 645.667 136 527 L136 434 L241 434 L241 409 L136 409 L136 281 L241 281 L241 256 L136 256 C136 115.69 122.764 53.1001 87 25 L309 25 Z " />
<glyph glyph-name="peseta" unicode="&#x20a7;" horiz-adv-x="375" d="M30 0 L30 714 L83 714 C172.333 714 217 656.333 217 511 C217 365.667 174 302 78 302 L54 302 L54 0 L30 0 Z M244 307 L195 307 L195 327 L244 333 L250 441 L267 441 L267 332 L341 332 L341 307 L267 307 L267 114 C267 43.3333 276.667 15 314 15 C323.333 15 332.333 17 341 21 L341 -4 C332.333 -8 322.333 -10 311 -10 C263 -10 244 26.3333 244 105 L244 307 Z M54 327 L74 327 C158 327 193 386.667 193 512 C193 641.333 158.667 689 80 689 L54 689 L54 327 Z " />
<glyph glyph-name="Euro" unicode="&#x20ac;" horiz-adv-x="375" d="M26 291 L79 291 C77.6667 309.667 77 331.333 77 354 C77 374 76.6667 395.333 78 410 L26 410 L26 435 L80 435 C87.9976 600.284 135.742 725 228 725 C258.667 725 283 716.667 307 694 L297 672 C274.333 692 252 700 228 700 C153.23 700 114.666 586.987 104 435 L243 435 L243 410 L103 410 C101.667 395.333 102 375.667 102 357 C102 331.667 103 309.667 103 291 L237 291 L237 266 L104 266 C114.66 119.421 151.083 15 231 15 C256.333 15 279.333 25 302 41 L302 13 C280.667 -1.66667 257 -10 229 -10 C141 -10 92 90 80 266 L26 266 L26 291 Z " />
<glyph glyph-name="uni2113" unicode="&#x2113;" horiz-adv-x="375" d="M119 300 C104.333 290.667 86.6667 280 64 272 L64 297 C83.3333 305 101.667 315.333 119 328 L119 577 C119 679.667 143.333 724 186 724 C231.333 724 256 676 256 584 C256 466.667 218 370.667 142 312 L142 156 C142 60 159.333 17 198 17 C239.333 17 256.667 63.3333 258 138 L281 138 C278.333 48.6667 255.667 -9 197 -9 C141 -9 119 46.3333 119 145 L119 300 Z M142 340 C203.333 396 232 481.333 232 584 C232 662.667 214 699 186 699 C159.333 699 142 665.667 142 575 L142 340 Z " />
<glyph glyph-name="trademark" unicode="&#x2122;" horiz-adv-x="375" d="M158 373 L158 714 L187 714 L243 517 L302 714 L329 714 L329 373 L308 373 L308 552 C308 600 309 631 309 675 L308 675 L251 482 L236 482 L178 680 L177 680 L177 558 L177 373 L158 373 Z M57 373 L57 689 L-9 689 L-9 714 L143 714 L143 689 L78 689 L78 373 L57 373 Z " />
<glyph glyph-name="Omega" unicode="&#x2126;" horiz-adv-x="375" >
<g transform="translate(3,0)" ><path fill="black" d="M23 25 L117 25 C71.4274 83.9763 35 188.706 35 380 C35 620 86.3333 725 173 725 C257.364 725 309 629.364 309 377 C309 185 277 81 229 25 L322 25 L322 0 L195 0 L195 20 C259 80 284 192.667 284 378 C284 611.022 242.255 700 173 700 C103.667 700 60 605.667 60 383 C60 188.333 96 78.6667 148 20 L148 0 L23 0 L23 25 Z " /></g></glyph>
<glyph glyph-name="estimated" unicode="&#x212e;" horiz-adv-x="375" d="M81 83 C99.6667 52.3333 130 25 174 25 C238 25 274.333 74 301 142 L326 119 C293.599 43.3965 254.26 -17 175 -17 C61.9264 -17 3 110.896 3 263 C3 450.636 91.3636 535 175 535 C266.688 535 341 429.563 341 259 L81 259 L81 83 Z M81 301 L265 301 L265 436 C247.667 462.667 213.667 494 175 494 C132.333 494 102.333 469 81 437 L81 301 Z " />
<glyph glyph-name="uni2219" unicode="&#x2219;" horiz-adv-x="345" >
<g transform="translate(6,282)" ><path fill="black" d="M173 -12 C154.333 -12 149 4.33333 149 23 C149 41.6667 154.333 58 173 58 C189 58 195 41.6667 195 23 C195 4.33333 189 -12 173 -12 Z " /></g></glyph>
<glyph glyph-name="radical" unicode="&#x221a;" horiz-adv-x="375" d="M317 801 L341 801 L171 -7 L146 -7 L68 393 L11 393 L11 417 L85 417 L159 31 L317 801 Z " />
<glyph glyph-name="infinity" unicode="&#x221e;" horiz-adv-x="375" d="M91 204 C44.3333 204 10 265.333 10 356 C10 450.667 46.3333 504 89 504 C132.41 504 156.979 442.075 173 386 C188.962 439.206 212.367 505 256 505 C298.667 505 335 451 335 355 C335 259 298 205 254 205 C211.042 205 189.279 264.024 173 321 C150.333 245 129.667 204 91 204 Z M91 228 C128.31 228 145.33 288.321 164 355 C142.667 431 124.667 480 90 480 C56.6667 480 32 436 32 356 C32 276 56.3333 228 91 228 Z M254 229 C288.667 229 313 280.333 313 355 C313 431 288.667 481 254 481 C220.667 481 204.667 434.333 182 353 C202 283.667 218 229 254 229 Z " />
<glyph glyph-name="approxequal" unicode="&#x2248;" horiz-adv-x="375" >
<g transform="translate(0,99)" ><path fill="black" d="M306 356 C291.333 330.667 266.333 311 237 311 C210.333 311 192 323.667 172 341 C150.667 358.333 134.333 371 109 371 C83.6667 371 60.6667 353.667 38 311 L38 343 C56.6667 373.667 79.6667 396 109 396 C138.333 396 156.333 383.667 179 365 C199 347.667 215.333 336 238 336 C260.667 336 284.667 349.667 306 387 L306 356 Z " /></g><g transform="translate(0,-92)" ><path fill="black" d="M306 356 C291.333 330.667 266.333 311 237 311 C210.333 311 192 323.667 172 341 C150.667 358.333 134.333 371 109 371 C83.6667 371 60.6667 353.667 38 311 L38 343 C56.6667 373.667 79.6667 396 109 396 C138.333 396 156.333 383.667 179 365 C199 347.667 215.333 336 238 336 C260.667 336 284.667 349.667 306 387 L306 356 Z " /></g></glyph>
<glyph glyph-name="lessequal" unicode="&#x2264;" horiz-adv-x="375" d="M35 348 L35 368 L302 566 L302 539 L63 358 L302 164 L302 137 L35 348 Z M38 -1 L38 24 L302 24 L302 -1 L38 -1 Z " />
<glyph glyph-name="greaterequal" unicode="&#x2265;" horiz-adv-x="375" >
<g transform="translate(0,-6)" ><path fill="black" d="M38 170 L277 364 L38 545 L38 572 L305 374 L305 354 L38 143 L38 170 Z " /></g><g transform="translate(170,-635)" ><path fill="black" d="M-132 659 L132 659 L132 634 L-132 634 L-132 659 Z " /></g></glyph>
</font>
</svg>
