<?xml version="1.0" encoding="UTF-8"?>
<svg xmlns="http://www.w3.org/2000/svg" xmlns:xlink="http://www.w3.org/1999/xlink" version="1.1" >
<font id="Monoto-2ExCd700Bd" horiz-adv-x="372">
<font-face  font-family="Monoto 2 ExCd" units-per-em="1000" ascent="955" descent="-235" font-style="normal" font-weight="700" font-stretch="extra-condensed" cap-height="714" x-height="553" underline-position="-75" underline-thickness="50" />
<missing-glyph horiz-adv-x="375" d="M34 0 L34 714 L311 714 L311 0 L34 0 Z M277 51 L277 663 L68 663 L68 51 L277 51 Z " />
<glyph glyph-name="uni0000" horiz-adv-x="375" />
<glyph glyph-name="uni000D" unicode="&#xd;" horiz-adv-x="375" />
<glyph glyph-name="space" unicode="&#x20;" horiz-adv-x="375" />
<glyph glyph-name="exclam" unicode="&#x21;" horiz-adv-x="375" d="M125 226 L106 714 L239 714 L221 226 L125 226 Z M174 -12 C135.333 -12 108 16.3333 108 67 C108 119 131.333 146 174 146 C212.667 146 238 120.333 238 67 C238 16.3333 210 -12 174 -12 Z " />
<glyph glyph-name="quotedbl" unicode="&#x22;" horiz-adv-x="375" >
<g transform="translate(-79,0)" ><path fill="black" d="M127 456 L110 714 L236 714 L219 456 L127 456 Z " /></g><g transform="translate(76,0)" ><path fill="black" d="M127 456 L110 714 L236 714 L219 456 L127 456 Z " /></g></glyph>
<glyph glyph-name="numbersign" unicode="&#x23;" horiz-adv-x="375" d="M44 0 L60 204 L12 204 L12 290 L71 290 L78 431 L27 431 L27 519 L90 519 L106 714 L185 714 L168 519 L206 519 L221 714 L300 714 L283 519 L331 519 L331 431 L273 431 L264 290 L318 290 L318 204 L255 204 L238 0 L159 0 L176 204 L138 204 L123 0 L44 0 Z M185 290 L194 431 L157 431 L150 290 L185 290 Z " />
<glyph glyph-name="dollar" unicode="&#x24;" horiz-adv-x="375" d="M45 179 C75.6667 152.333 117 128.667 153 126 L153 325 C75.6667 369 40 421 40 517 C40 615.667 85 676.333 153 687 L153 760 L200 760 L200 688 C233.333 684.667 266.333 671.333 299 648 L276 561 C252 581 225.333 592 200 596 L200 405 C273.972 362.73 308 313.116 308 222 C308 127.333 269.333 58.3333 200 41 L200 -58 L153 -58 L153 37 C117 39.6667 77 52.6667 45 74 L45 179 Z M125 515 C125 472.333 130.333 453.333 153 428 L153 595 C130.333 588.333 125 557.667 125 515 Z M200 133 C220 143.667 225 175.333 225 214 C225 255.333 217.333 278.333 200 301 L200 133 Z " />
<glyph glyph-name="percent" unicode="&#x25;" horiz-adv-x="375" d="M1 168 L257 545 L343 545 L87 168 L1 168 Z M96 384 C38.6667 384 4 447.333 4 554 C4 662 37.3333 723 96 723 C156 723 191 662 191 554 C191 446 156 384 96 384 Z M246 -10 C188.667 -10 155 53.3333 155 160 C155 266.667 187.333 330 246 330 C306 330 341 268 341 160 C341 53.3333 306 -10 246 -10 Z M248 65 C256.667 65 261 96.6667 261 160 C261 223.333 256.667 255 248 255 C238.667 255 234 223.333 234 160 C234 96.6667 238.667 65 248 65 Z M97 458 C107.667 458 110 490 110 554 C110 618 107.667 649 97 649 C86.3333 649 84 618 84 554 C84 490 86.3333 458 97 458 Z " />
<glyph glyph-name="ampersand" unicode="&#x26;" horiz-adv-x="375" d="M225 23 C201 1 172.333 -10 139 -10 C51.026 -10 18 67.0823 18 172 C18 261.333 50 317.667 94 379 C71.3333 439 52 500 52 572 C52 669.333 90 724 158 724 C231.333 724 261 664.333 261 575 C261 491 227.667 427.333 189 370 L238 240 C246 278.667 251.333 320 254 356 L335 356 C327 270.667 312 183.333 284 114 L327 0 L234 0 L225 23 Z M130 281 C115.333 251.667 107 219 107 179 C107 116.333 127 86 151 86 C165.667 86 179.333 95 192 113 L130 281 Z M154 468 C168.667 496 181 532 181 576 C181 618.667 173.333 640 158 640 C143.333 640 136 618.333 136 575 C136 537.667 144.667 500 154 468 Z " />
<glyph glyph-name="quotesingle" unicode="&#x27;" horiz-adv-x="375" d="M127 456 L110 714 L236 714 L219 456 L127 456 Z " />
<glyph glyph-name="parenleft" unicode="&#x28;" horiz-adv-x="375" d="M184 -171 C128 -55 95 88.3333 95 267 C95 448.333 132 600.667 184 714 L286 714 C231.333 582.667 204 434 204 268 C204 105.333 234.333 -37.6667 285 -171 L184 -171 Z " />
<glyph glyph-name="parenright" unicode="&#x29;" horiz-adv-x="375" d="M62 -171 C116.667 -39.6667 144 109 144 275 C144 437.667 113.667 580.667 63 714 L164 714 C220 598 253 454.667 253 276 C253 94.6667 216 -57.6667 164 -171 L62 -171 Z " />
<glyph glyph-name="asterisk" unicode="&#x2a;" horiz-adv-x="375" d="M111 544 L30 559 L53 666 L134 621 L119 762 L226 762 L212 621 L293 667 L317 560 L235 544 L298 434 L211 370 L173 498 L134 370 L48 434 L111 544 Z " />
<glyph glyph-name="plus" unicode="&#x2b;" horiz-adv-x="375" d="M127 116 L127 304 L36 304 L36 402 L127 402 L127 592 L221 592 L221 402 L312 402 L312 304 L221 304 L221 116 L127 116 Z " />
<glyph glyph-name="comma" unicode="&#x2c;" horiz-adv-x="375" d="M97 -135 C105.031 -57.363 117.322 57.6918 120 130 L234 130 L238 119 C227.333 23 210 -63 190 -135 L97 -135 Z " />
<glyph glyph-name="hyphen" unicode="&#x2d;" horiz-adv-x="375" d="M87 329 L257 329 L257 212 L87 212 L87 329 Z " />
<glyph glyph-name="period" unicode="&#x2e;" horiz-adv-x="375" d="M173 -12 C134.333 -12 107 16.3333 107 67 C107 119 130.333 146 173 146 C211.667 146 237 120.333 237 67 C237 16.3333 209 -12 173 -12 Z " />
<glyph glyph-name="slash" unicode="&#x2f;" horiz-adv-x="375" d="M16 -7 L201 721 L301 721 L116 -7 L16 -7 Z " />
<glyph glyph-name="zero" unicode="0" horiz-adv-x="375" d="M172 -10 C62.6667 -10 11 118.333 11 357 C11 601 63 725 171 725 C279 725 333 597 333 357 C333 140.974 301.048 -10 172 -10 Z M220 374 L135 159 C142.333 121.667 154.333 103 171 103 C211 103 220 182.333 220 357 L220 374 Z M208 558 C201.333 594 189 612 171 612 C139.667 612 124 527 124 357 L124 341 L208 558 Z " />
<glyph glyph-name="one" unicode="1" horiz-adv-x="375" d="M36 95 L124 107 L124 407 C124 453.667 125.333 522 128 566 C116 551.333 105 541 93 525 L68 489 L9 591 L146 714 L250 714 L250 107 L328 95 L328 0 L36 0 L36 95 Z " />
<glyph glyph-name="two" unicode="2" horiz-adv-x="375" d="M25 102 L107 286 C157.353 394.657 176 449.96 176 517 C176 574.333 169 606 149 606 C123.667 606 101.333 580.667 72 534 L9 623 C54.3333 692.333 99 724 163 724 C248.333 724 306 652.333 306 523 C306 431.276 278.175 359.51 227 241 L181 126 L182 120 L312 120 L312 0 L26 0 L25 102 Z " />
<glyph glyph-name="three" unicode="3" horiz-adv-x="375" d="M26 154 C61.3333 122.667 95 107 127 107 C163 107 177 142.333 177 209 C177 281 162.667 311 104 311 L83 311 L83 424 L105 424 C159.667 424 176 461.333 176 528 C176 580 168 608 144 608 C122.667 608 100 592 76 560 L28 658 C64 702 108.667 724 162 724 C254 724 304 659.333 304 546 C304 458 280.333 401.333 223 376 L223 373 C285 355 316 298 316 202 C316 72.6667 252 -10 136 -10 C105.333 -10 70 -1.33333 26 28 L26 154 Z " />
<glyph glyph-name="four" unicode="4" horiz-adv-x="375" d="M16 256 L167 715 L279 715 L279 259 L329 259 L329 149 L279 149 L279 0 L166 0 L166 149 L16 149 L16 256 Z M166 259 L166 395 C166 433.216 169 505.549 169 548 L165 548 C161 516 151.667 478.667 145 452 L112 259 L166 259 Z " />
<glyph glyph-name="five" unicode="5" horiz-adv-x="375" d="M35 153 C65.6667 125 105.333 107 132 107 C160.667 107 175 146.667 175 226 C175 300.667 155.667 342 125 342 C113 342 96.6667 335.333 82 326 L40 358 L53 714 L283 714 L283 593 L163 593 L160 447 C178.667 453.667 189.667 457 191 457 C256.333 457 308 375 308 231 C308 80.3333 254.333 -10 141 -10 C101 -10 65.6667 2.66667 35 28 L35 153 Z " />
<glyph glyph-name="six" unicode="6" horiz-adv-x="375" d="M142 379 C159.333 429.667 181 463 213 463 C278.333 463 319 379.667 319 237 C319 86.3333 266.333 -10 177 -10 C85 -10 26 98.3333 26 305 C26 526.463 59.9004 724 229 724 C250.333 724 272.667 721.333 296 716 L296 605 C277.333 612.333 258.667 616 240 616 C168 616 140.667 528.333 138 379 L142 379 Z M175 101 C188.333 101 200 144.667 200 234 C200 312.667 191 356 175 356 C160.333 356 147 308.667 147 246 C147 174.026 161.667 101 175 101 Z " />
<glyph glyph-name="seven" unicode="7" horiz-adv-x="375" d="M55 0 L185 593 L27 593 L27 714 L318 714 L318 617 L193 0 L55 0 Z " />
<glyph glyph-name="eight" unicode="8" horiz-adv-x="375" d="M170 -10 C78 -10 26 58.3333 26 185 C26 271.667 41.3333 330 92 374 C52 419.333 37 475.333 37 550 C37 666 90 725 174 725 C256.667 725 307 666.333 307 549 C307 471.667 289.667 417 247 377 C303 323.667 319 269.667 319 187 C319 64.3333 264.667 -10 170 -10 Z M172 94 C196 94 205 128 205 188 C205 242.667 195.333 271.333 170 314 C144.667 279.333 140 240.667 140 186 C140 130 148 94 172 94 Z M172 438 C192 467.333 194 497 194 541 C194 593 182.667 620 172 620 C158.667 620 151 592.667 151 542 C151 494 157.333 466 172 438 Z " />
<glyph glyph-name="nine" unicode="9" horiz-adv-x="375" d="M47 110 C65 102 83.3333 98 102 98 C172.667 98 201.333 187 204 335 L200 335 C182.667 281.667 160.667 252 130 252 C62 252 23 334.333 23 477 C23 630.333 76 724 164 724 C256 724 315 614 315 406 C315 188.926 272.948 -10 113 -10 C91 -10 69 -7 47 -1 L47 110 Z M166 358 C186 358 195 410 195 470 C195 547.359 179.156 613 167 613 C149.667 613 141 568.667 141 480 C141 401.333 150 358 166 358 Z " />
<glyph glyph-name="colon" unicode="&#x3a;" horiz-adv-x="375" >
<g transform="translate(0,406)" ><path fill="black" d="M173 -12 C134.333 -12 107 16.3333 107 67 C107 119 130.333 146 173 146 C211.667 146 237 120.333 237 67 C237 16.3333 209 -12 173 -12 Z " /></g><path fill="black" d="M173 -12 C134.333 -12 107 16.3333 107 67 C107 119 130.333 146 173 146 C211.667 146 237 120.333 237 67 C237 16.3333 209 -12 173 -12 Z " /></glyph>
<glyph glyph-name="semicolon" unicode="&#x3b;" horiz-adv-x="375" d="M100 -135 C106.87 -135 122.373 56.4324 125 130 L239 130 L243 119 C231 23 214 -63 194 -135 L100 -135 Z M176 394 C137.333 394 110 422.333 110 473 C110 525 133.333 552 176 552 C214.667 552 240 526.333 240 473 C240 422.333 212 394 176 394 Z " />
<glyph glyph-name="less" unicode="&#x3c;" horiz-adv-x="375" d="M21 326 L21 391 L301 594 L301 483 L154 359 L301 232 L301 122 L21 326 Z " />
<glyph glyph-name="equal" unicode="&#x3d;" horiz-adv-x="375" d="M38 296 L307 296 L307 186 L38 186 L38 296 Z M38 511 L307 511 L307 401 L38 401 L38 511 Z " />
<glyph glyph-name="greater" unicode="&#x3e;" horiz-adv-x="375" d="M33 232 L180 359 L33 483 L33 594 L313 391 L313 326 L33 122 L33 232 Z " />
<glyph glyph-name="question" unicode="&#x3f;" horiz-adv-x="375" d="M114 226 L114 261 C114 330.333 126.333 368.667 157 418 C186.471 466.226 191 493.771 191 541 C191 591 180.667 616 160 616 C133.333 616 107.667 599 77 571 L40 667 C83.3333 705 126.667 724 170 724 C260.667 724 304 660 304 552 C304 463.422 284.492 422.088 244 360 C212.094 312.14 209 291.481 209 249 L209 226 L114 226 Z M164 -12 C125.333 -12 98 16.3333 98 67 C98 119 121.333 146 164 146 C202.667 146 228 120.333 228 67 C228 16.3333 200 -12 164 -12 Z " />
<glyph glyph-name="at" unicode="&#x40;" horiz-adv-x="375" d="M272 -44 C240 -72 206 -85 178 -85 C55.4113 -85 3 55.4113 3 290 C3 559.437 75.3074 714 182 714 C280.667 714 341 589 341 365 C341 221.052 314.641 107 256 107 C232 107 215.667 128.333 205 167 L203 167 C193.667 131 176 107 156 107 C110.667 107 82 179 82 299 C82 437.667 126.333 524 193 524 C219.667 524 244 514 264 502 C250.667 592.667 221.667 638 183 638 C121.667 638 72 514.333 72 293 C72 115.407 95.6926 -11 181 -11 C205 -11 237.333 3.33333 272 34 L272 -44 Z M189 445 C189 449 188.333 451 187 451 C169.667 451 157 393 157 297 C157 221 163.333 180 174 180 C183.333 180 183.333 221.333 186 336 L189 445 Z M257 298 C255.667 284.667 257 267.667 257 257 C257 205.667 258 180 260 180 C270.667 180 273 252 273 360 C273 413.333 270.333 458.333 265 497 L257 298 Z " />
<glyph glyph-name="A" unicode="A" horiz-adv-x="375" d="M84 715 L258 715 L338 0 L221 0 L208 183 L138 183 L126 0 L7 0 L84 715 Z M200 294 L187 476 C184.333 517.333 174.667 575.333 172 614 C169.333 575.333 160.667 517.333 158 476 L146 294 L200 294 Z " />
<glyph glyph-name="B" unicode="B" horiz-adv-x="375" d="M29 0 L29 714 L165 714 C261 714 316 660.333 316 539 C316 455 291.667 395 257 379 L257 374 C301 354 324 303 324 211 C324 77.6667 265 0 173 0 L29 0 Z M140 109 L166 109 C202 109 215 145.667 215 215 C215 283 201.333 321 164 321 L140 321 L140 109 Z M140 420 L159 420 C188.333 420 208 451 208 515 C208 577.667 187.333 606 158 606 L140 606 L140 420 Z " />
<glyph glyph-name="C" unicode="C" horiz-adv-x="375" d="M312 25 C278.667 1 240.667 -10 202 -10 C82 -10 19 122.667 19 348 C19 571.948 89.5628 726 207 726 C263 726 297 709.667 333 679 L297 574 C274.333 599.333 247.667 610 225 610 C168.03 610 141 505.944 141 353 C141 194.333 168.333 105 223 105 C253.667 105 281.333 121.667 312 143 L312 25 Z " />
<glyph glyph-name="D" unicode="D" horiz-adv-x="375" d="M16 0 L16 714 L169 714 C272.004 714 338 584.974 338 369 C338 135.225 258.364 0 166 0 L16 0 Z M135 116 L152 116 C194.667 116 214 206.667 214 360 C214 526.667 192 598 156 598 L135 598 L135 116 Z " />
<glyph glyph-name="E" unicode="E" horiz-adv-x="375" d="M324 116 L324 0 L26 0 L26 714 L324 714 L324 597 L147 597 L147 423 L312 423 L312 307 L147 307 L147 116 L324 116 Z " />
<glyph glyph-name="F" unicode="F" horiz-adv-x="375" d="M26 0 L26 714 L324 714 L324 598 L147 598 L147 396 L313 396 L313 280 L147 280 L147 0 L26 0 Z " />
<glyph glyph-name="G" unicode="G" horiz-adv-x="375" d="M217 287 L188 287 L188 400 L330 400 L330 29 C287.333 1 249.333 -10 208 -10 C72 -10 8 122.333 8 345 C8 584.004 88 726 216 726 C269.333 726 304 707.667 332 681 L298 577 C270 602.333 252.667 611 226 611 C162 611 128 521.333 128 348 C128 209.307 150.004 105 191 105 C198.333 105 207 108.333 217 115 L217 287 Z " />
<glyph glyph-name="H" unicode="H" horiz-adv-x="375" d="M16 0 L16 714 L135 714 L135 427 L211 427 L211 714 L330 714 L330 0 L211 0 L211 310 L135 310 L135 0 L16 0 Z " />
<glyph glyph-name="I" unicode="I" horiz-adv-x="375" d="M29 93 L115 107 L115 608 L29 621 L29 714 L316 714 L316 621 L233 608 L233 107 L316 93 L316 0 L29 0 L29 93 Z " />
<glyph glyph-name="J" unicode="J" horiz-adv-x="375" d="M28 124 C56 109.333 78.6667 103 88 103 C140 103 183 150.667 183 260 L183 714 L302 714 L302 232 C302 92.4156 230.874 -10 104 -10 C75.3333 -10 50 -2 28 14 L28 124 Z " />
<glyph glyph-name="K" unicode="K" horiz-adv-x="375" d="M18 0 L18 714 L130 714 L130 367 C140.667 403 157.333 440.333 168 483 L219 714 L342 714 L247 393 L342 0 L213 0 L160 296 L130 240 L130 0 L18 0 Z " />
<glyph glyph-name="L" unicode="L" horiz-adv-x="375" d="M323 117 L323 0 L35 0 L35 714 L157 714 L157 117 L323 117 Z " />
<glyph glyph-name="M" unicode="M" horiz-adv-x="375" d="M10 0 L10 714 L155 714 L174 287 L176 287 L190 714 L334 714 L334 0 L242 0 L244 278 C244 347.111 264 576.222 264 624 L258 624 L227 188 L121 188 L91 624 L84 624 C84 582.895 101 351.673 101 277 L103 0 L10 0 Z " />
<glyph glyph-name="N" unicode="N" horiz-adv-x="375" d="M20 0 L20 714 L171 714 L234 113 L239 113 C236.327 166.459 228 269.211 228 336 L228 714 L326 714 L326 0 L177 0 L110 606 L105 606 C107.667 522 117 450 117 374 L117 0 L20 0 Z " />
<glyph glyph-name="O" unicode="O" horiz-adv-x="375" d="M172 -8 C59.8961 -8 8 136 8 360 C8 591.948 51.0779 726 171 726 C285.823 726 337 584.563 337 358 C337 134.918 283.974 -8 172 -8 Z M174 108 C211.203 108 215 203.177 215 358 C215 524.667 207.667 609 173 609 C138.333 609 130 516.333 130 359 C130 203 138 108 174 108 Z " />
<glyph glyph-name="P" unicode="P" horiz-adv-x="375" d="M29 0 L29 714 L172 714 C278.667 714 324 636.667 324 494 C324 357.056 281.745 261 167 261 L143 261 L143 0 L29 0 Z M143 367 L157 367 C199.667 367 215 404 215 488 C215 572 198.333 608 169 608 L143 608 L143 367 Z " />
<glyph glyph-name="Q" unicode="Q" horiz-adv-x="375" d="M212 -180 L172 -8 L171 -8 C58.8961 -8 7 136 7 360 C7 591.948 50.0779 726 170 726 C284.823 726 336 584.563 336 358 C336 215.333 314 106.333 270 45 L337 -180 L212 -180 Z M173 108 C210.203 108 214 203.177 214 358 C214 524.667 206.667 609 172 609 C137.333 609 129 516.333 129 359 C129 203 137 108 173 108 Z " />
<glyph glyph-name="R" unicode="R" horiz-adv-x="375" d="M30 0 L30 714 L155 714 C263.667 714 318 645 318 507 C318 407 301.667 345 259 309 L339 0 L216 0 L163 277 L141 277 L141 0 L30 0 Z M141 384 L151 384 C189.667 384 209 422.333 209 499 C209 575 191.667 607 153 607 L141 607 L141 384 Z " />
<glyph glyph-name="S" unicode="S" horiz-adv-x="375" d="M30 159 C68.6667 125.667 105.333 105 148 105 C195.056 105 199 148.281 199 191 C199 249.446 176.947 271.491 128 315 C66.8948 370.792 25 419.934 25 530 C25 655.333 83 725 183 725 C229.667 725 271 708.667 315 678 L279 570 C244.333 599.333 217 611 189 611 C154.333 611 147 577.667 147 531 C147 478.882 161.663 459.628 205 419 C285.224 352.147 319 310.844 319 198 C319 56.6667 256 -10 152 -10 C109.333 -10 68.6667 1.66667 30 31 L30 159 Z " />
<glyph glyph-name="T" unicode="T" horiz-adv-x="375" d="M113 0 L113 598 L11 598 L11 714 L334 714 L334 598 L233 598 L233 0 L113 0 Z " />
<glyph glyph-name="U" unicode="U" horiz-adv-x="375" d="M16 714 L137 714 L137 267 C137 153.667 137 106 173 106 C213 106 209 154.874 209 268 L209 714 L330 714 L330 258 C330 76.5628 292.87 -10 173 -10 C55.6667 -10 16 75.6667 16 257 L16 714 Z " />
<glyph glyph-name="V" unicode="V" horiz-adv-x="375" d="M174 115 C176.627 162.294 184.367 234.98 187 285 L217 714 L340 714 L244 0 L98 0 L4 714 L125 714 L158 283 C160.667 235 168.333 163 171 115 L174 115 Z " />
<glyph glyph-name="W" unicode="W" horiz-adv-x="375" d="M106 117 C111.28 172.436 121 281.125 121 334 L124 546 L221 546 L228 333 C230.642 269.587 239.305 170.892 242 117 L246 117 C246 209.895 249 359.34 249 416 C246.333 516 244.667 614 242 714 L340 714 L327 0 L187 0 L183 243 C180.333 299 176 363.333 176 406 L171 406 C169.667 363.333 166.333 299 165 243 L160 0 L19 0 L4 714 L100 714 C98.6667 614 95.6667 516.333 97 415 C97 357.784 102 210.451 102 117 L106 117 Z " />
<glyph glyph-name="X" unicode="X" horiz-adv-x="375" d="M5 0 L101 367 L7 714 L132 714 L171 466 L208 714 L333 714 L240 364 L341 0 L215 0 L169 266 L126 0 L5 0 Z " />
<glyph glyph-name="Y" unicode="Y" horiz-adv-x="375" d="M111 0 L111 275 L2 714 L133 714 L171 408 L210 714 L340 714 L227 276 L227 0 L111 0 Z " />
<glyph glyph-name="Z" unicode="Z" horiz-adv-x="375" d="M27 96 L191 598 L28 598 L28 714 L321 714 L321 619 L165 116 L320 116 L320 0 L27 0 L27 96 Z " />
<glyph glyph-name="bracketleft" unicode="&#x5b;" horiz-adv-x="375" d="M278 -70 L278 -165 L112 -165 L112 727 L278 727 L278 632 L219 632 L219 -70 L278 -70 Z " />
<glyph glyph-name="backslash" unicode="&#x5c;" horiz-adv-x="375" d="M212 -7 L27 721 L127 721 L312 -7 L212 -7 Z " />
<glyph glyph-name="bracketright" unicode="&#x5d;" horiz-adv-x="375" d="M65 -76 L124 -76 L124 626 L65 626 L65 721 L231 721 L231 -171 L65 -171 L65 -76 Z " />
<glyph glyph-name="asciicircum" unicode="&#x5e;" horiz-adv-x="375" d="M10 288 L141 714 L198 714 L333 288 L227 288 L170 558 L118 288 L10 288 Z " />
<glyph glyph-name="underscore" unicode="&#x5f;" horiz-adv-x="375" d="M3 -72 L341 -72 L341 -182 L3 -182 L3 -72 Z " />
<glyph glyph-name="grave" unicode="&#x60;" horiz-adv-x="375" d="M64 766 L192 766 C199.981 723.437 226.029 650.914 237 618 L237 606 L157 606 C136.219 637.172 79.456 718.36 64 757 L64 766 Z " />
<glyph glyph-name="a" unicode="a" horiz-adv-x="375" d="M215 75 C189.667 18.3333 160.333 -10 127 -10 C64.3333 -10 25 51.3333 25 158 C25 279.333 72 334 148 338 L210 341 L210 360 C210 422.667 186.667 445 160 445 C130.667 445 106.667 430.333 84 409 L44 508 C82.6667 538.667 123.667 557 177 557 C271.667 557 325 496.333 325 371 L325 0 L234 0 L216 75 L215 75 Z M210 254 L182 250 C156.667 247.333 140 222.333 140 169 C140 122.333 155.667 103 169 103 C185 103 210 138.333 210 213 L210 254 Z " />
<glyph glyph-name="b" unicode="b" horiz-adv-x="375" d="M21 760 L138 760 L138 573 C138 537 134.667 512 132 476 L137 476 C158.333 529.333 187.667 557 217 557 C293.364 557 333 439.312 333 275 C333 95.4935 280.182 -10 216 -10 C190.667 -10 163.333 13 138 61 L130 61 L117 0 L21 0 L21 760 Z M175 104 C201.667 104 209 160.667 209 274 C209 387.333 196.667 444 172 444 C147.333 444 135 388 135 276 C135 161.333 148.333 104 175 104 Z " />
<glyph glyph-name="c" unicode="c" horiz-adv-x="375" d="M311 25 C280.333 1 240.667 -10 206 -10 C109.974 -10 27 76.3593 27 271 C27 445.874 78.6926 557 204 557 C246.667 557 291.333 545.333 326 520 L288 415 C265.333 433.667 245.667 443 215 443 C168.333 443 152 384.667 152 274 C152 154 182 104 222 104 C248.667 104 281.667 116.333 311 147 L311 25 Z " />
<glyph glyph-name="d" unicode="d" horiz-adv-x="375" d="M216 74 L210 74 C191.333 20.6667 162.667 -10 132 -10 C54.6926 -10 11 100.208 11 272 C11 452 57 557 133 557 C159.667 557 186.667 530.333 208 477 L213 477 C211.667 503.667 207 541.333 207 576 L207 760 L324 760 L324 0 L226 0 L216 74 Z M209 273 C209 393 202 444 174 444 C140.667 444 132 383.333 132 270 C132 156.667 142.667 104 172 104 C194.667 104 209 151 209 255 L209 273 Z " />
<glyph glyph-name="e" unicode="e" horiz-adv-x="375" d="M308 28 C281.333 5.33333 245.667 -10 191 -10 C77.6667 -10 12 87.3333 12 270 C12 443.359 71.2814 557 178 557 C266 557 328 470.667 328 304 L328 232 L135 232 C137.667 141.333 171.333 101 206 101 C251.333 101 284 116.667 308 142 L308 28 Z M213 325 C211 406.333 198.333 447 175 447 C148.333 447 135 405 135 325 L213 325 Z " />
<glyph glyph-name="f" unicode="f" horiz-adv-x="375" d="M93 0 L93 437 L16 437 L16 511 L93 547 L93 584 C93 712 135 766 223 766 C257.667 766 295 759.333 331 742 L298 638 C278 648.667 264.667 653 250 653 C227.333 653 214 635 214 575 L214 546 L310 546 L310 437 L214 437 L214 0 L93 0 Z " />
<glyph glyph-name="g" unicode="g" horiz-adv-x="375" d="M35 -90 C77.6667 -120.667 115.667 -132 141 -132 C179.667 -132 205 -92.3333 205 -15 L205 6 C205 27.3333 206 50.3333 206 69 L203 69 C179 10.3333 157 -10 133 -10 C54.3333 -10 11 95 11 271 C11 447.052 57.9264 557 131 557 C157.667 557 178.333 534.333 205 477 L212 477 L223 546 L324 546 L324 6 C324 -158 270 -245 150 -245 C104.667 -245 72.3333 -232.667 35 -206 L35 -90 Z M208 273 C208 394.333 200.667 444 178 444 C148.667 444 140 382.333 140 269 C140 161 146.333 104 177 104 C193 104 208 144.667 208 254 L208 273 Z " />
<glyph glyph-name="h" unicode="h" horiz-adv-x="375" d="M21 0 L21 760 L141 760 L141 588 C141 549.333 138.667 512.333 132 475 L139 475 C156.333 525.667 183 557 219 557 C287 557 327 489 327 357 L327 0 L208 0 L208 318 C208 396.667 210.667 440 176 440 C142.667 440 141 381.667 141 279 L141 0 L21 0 Z " />
<glyph glyph-name="i" unicode="i" horiz-adv-x="375" >
<path fill="black" d="M25 93 L119 108 L119 437 L43 448 L43 546 L238 546 L238 108 L316 93 L316 0 L25 0 L25 93 Z " /><g transform="translate(7,0)" ><path fill="black" d="M172 618 C129.333 618 104 643.333 104 694 C104 744.667 129.333 770 172 770 C216 770 238 744.667 238 694 C238 646 216 618 172 618 Z " /></g></glyph>
<glyph glyph-name="j" unicode="j" horiz-adv-x="375" >
<path fill="black" d="M19 -113 C49.6667 -125 89.3333 -132 104 -132 C138.667 -132 146 -103.333 146 -30 L146 436 L48 448 L48 546 L266 546 L266 -49 C266 -182.333 230 -245 122 -245 C95.3333 -245 53.6667 -238.667 19 -224 L19 -113 Z " /><g transform="translate(27,-1)" ><path fill="black" d="M172 618 C129.333 618 104 643.333 104 694 C104 744.667 129.333 770 172 770 C216 770 238 744.667 238 694 C238 646 216 618 172 618 Z " /></g></glyph>
<glyph glyph-name="k" unicode="k" horiz-adv-x="375" d="M19 0 L19 760 L130 760 L130 434 C130 387.333 124.667 341.667 122 295 L123 295 C133.667 320.333 146.667 345.333 156 372 L213 546 L342 546 L226 293 L342 0 L210 0 L147 214 L130 183 L130 0 L19 0 Z " />
<glyph glyph-name="l" unicode="l" horiz-adv-x="375" d="M25 93 L114 108 L114 656 L39 666 L39 760 L233 760 L233 108 L316 93 L316 0 L25 0 L25 93 Z " />
<glyph glyph-name="m" unicode="m" horiz-adv-x="375" d="M10 0 L10 546 L87 546 L101 488 L104 488 C117.333 536 135.333 556 162 556 C194 556 204.667 526.667 214 480 L216 480 C229.333 528 248.333 556 279 556 C332.411 556 336 493.9 336 375 L336 0 L245 0 L245 389 C245 437 245.333 459 232 459 C216 459 217 420 217 368 L217 0 L129 0 L129 387 C129 437.667 130.667 459 116 459 C100 459 100 412.667 100 362 L100 0 L10 0 Z " />
<glyph glyph-name="n" unicode="n" horiz-adv-x="375" d="M21 0 L21 546 L120 546 L134 480 L138 480 C158 529.333 184.333 557 219 557 C287 557 327 495.667 327 357 L327 0 L208 0 L208 337 C208 415.667 198.667 448 180 448 C149.333 448 141 400.333 141 291 L141 0 L21 0 Z " />
<glyph glyph-name="o" unicode="o" horiz-adv-x="375" d="M172 -10 C53.619 -10 11 118.719 11 276 C11 440.442 61.7706 557 171 557 C263.416 557 333 456.281 333 275 C333 119.39 296.13 -10 172 -10 Z M172 102 C196 102 208 159.667 208 275 C208 388.333 194.667 444 172 444 C148.667 444 137 387.667 137 275 C137 161.667 148 102 172 102 Z " />
<glyph glyph-name="p" unicode="p" horiz-adv-x="375" d="M21 -240 L21 546 L113 546 L130 472 L137 472 C154.333 525.333 181.333 557 220 557 C296.338 557 333 436.749 333 275 C333 95.4935 279.463 -10 218 -10 C186 -10 161.667 18.3333 139 61 L131 61 C133.667 42.3333 139 -5.33333 139 -48 L139 -240 L21 -240 Z M139 274 C139 152.667 148.333 104 179 104 C204.333 104 209 160.667 209 274 C209 388.667 202.667 444 176 444 C153.333 444 139 396.333 139 291 L139 274 Z " />
<glyph glyph-name="q" unicode="q" horiz-adv-x="375" d="M207 -240 L207 -35 C207 7.66667 213.333 43.3333 216 74 L210 74 C191.333 20.6667 161 -10 129 -10 C51.7186 -10 11 110.97 11 270 C11 451.463 67.9221 557 132 557 C156 557 185.333 531 208 475 L213 475 L225 546 L324 546 L324 -240 L207 -240 Z M210 273 C210 386.333 205.333 444 176 444 C148 444 139 384 139 272 C139 156 147.667 104 177 104 C203.667 104 210 152.333 210 255 L210 273 Z " />
<glyph glyph-name="r" unicode="r" horiz-adv-x="375" d="M14 93 L79 108 L79 437 L18 448 L18 546 L166 546 L176 454 L183 454 C197.667 514 227 557 275 557 C289.667 557 310.333 552.667 337 538 L306 407 C291.333 417.667 270.667 422 256 422 C214.667 422 193 363 193 275 L193 108 L275 93 L275 0 L14 0 L14 93 Z " />
<glyph glyph-name="s" unicode="s" horiz-adv-x="375" d="M36 142 C68 116.667 120.333 101 159 101 C192.333 101 196 121.333 196 152 C196 182.871 186.327 195.338 125 238 C65 278 35 325 35 401 C35 501 86 557 186 557 C231.333 557 272 545 320 517 L283 416 C243 438.667 217 448 193 448 C166.333 448 160 429.667 160 403 C160 372.333 177.667 357.667 227 323 C296.461 274.912 318 244.505 318 159 C318 48.3333 266.333 -10 153 -10 C107.667 -10 70.6667 1.66667 36 23 L36 142 Z " />
<glyph glyph-name="t" unicode="t" horiz-adv-x="375" d="M83 436 L1 436 L1 501 L91 547 L129 680 L204 680 L204 546 L336 546 L336 436 L203 436 L203 197 C203 123.9 233.771 106 255 106 C272.333 106 300 109.333 336 124 L336 13 C301.333 -1.66667 253 -10 217 -10 C142.281 -10 83 44.4069 83 174 L83 436 Z " />
<glyph glyph-name="u" unicode="u" horiz-adv-x="375" d="M17 546 L138 546 L138 222 C138 138 144 103 172 103 C202.667 103 204 153.667 204 271 L204 546 L324 546 L324 0 L225 0 L210 71 L204 71 C183.333 17 156.333 -10 123 -10 C59 -10 17 52.6667 17 186 L17 546 Z " />
<glyph glyph-name="v" unicode="v" horiz-adv-x="375" d="M174 113 C176.667 151.667 182 191 186 235 L220 546 L347 546 L242 0 L96 0 L-2 546 L122 546 L158 236 C163.333 190.667 168 151.667 172 113 L174 113 Z " />
<glyph glyph-name="w" unicode="w" horiz-adv-x="375" d="M35 0 L3 546 L100 546 L97 281 C97 234.784 96 169.118 96 132 L99 132 C101.667 162.667 103 219.333 107 258 L128 464 L214 464 L233 258 C237 216.667 240.333 164 243 132 L246 132 C246 168.451 245 233.451 245 279 L243 546 L339 546 L306 0 L187 0 L180 174 C177.333 224.667 174.667 279 172 327 L169 327 C166.333 280.333 160.667 223.667 158 173 L150 0 L35 0 Z " />
<glyph glyph-name="x" unicode="x" horiz-adv-x="375" d="M1 0 L100 279 L3 546 L133 546 L173 373 L212 546 L340 546 L245 278 L344 0 L212 0 L171 185 L128 0 L1 0 Z " />
<glyph glyph-name="y" unicode="y" horiz-adv-x="375" d="M14 -131 C24 -135 34.3333 -137 45 -137 C73.1587 -137 114.465 -122.912 125 -36 L127 -2 L-2 546 L130 546 L165 273 C171.667 229 175.333 192.667 178 162 L181 162 C182.333 191.333 188 231.667 192 273 L218 546 L350 546 L235 -52 C208.333 -188 153 -245 65 -245 C48.3333 -245 31.3333 -242.333 14 -237 L14 -131 Z " />
<glyph glyph-name="z" unicode="z" horiz-adv-x="375" d="M26 84 L169 437 L29 437 L29 546 L308 546 L308 450 L175 111 L319 111 L319 0 L26 0 L26 84 Z " />
<glyph glyph-name="braceleft" unicode="&#x7b;" horiz-adv-x="375" d="M124 139 C124 169.667 107 192 91 208 C81 216.667 70 224.333 58 231 L58 325 C70 331 81 338.333 91 347 C108.333 363 124 384 124 416 L124 559 C124 671.771 282 718.66 282 721 L282 624 C282 621.111 232 608.889 232 550 L232 405 C232 331.327 167 291.771 167 281 L167 276 C167 262.66 232 223.438 232 153 L232 7 C232 -46.549 282 -66.2157 282 -68 L282 -165 C282 -163.216 124 -124.882 124 -2 L124 139 Z " />
<glyph glyph-name="bar" unicode="&#x7c;" horiz-adv-x="375" d="M128 -240 L128 760 L228 760 L228 -240 L128 -240 Z " />
<glyph glyph-name="braceright" unicode="&#x7d;" horiz-adv-x="375" d="M59 -68 C59 -65.1111 109 -52.8889 109 6 L109 151 C109 224.673 174 264.229 174 275 L174 280 C174 293.34 109 332.562 109 403 L109 549 C109 602.549 59 622.216 59 624 L59 721 C59 719.216 217 680.882 217 558 L217 417 C217 386.333 234 363.667 250 349 C260 339.667 271 331.667 283 325 L283 231 C271 225 260 217.667 250 209 C232.667 193 217 172 217 140 L217 -3 C217 -115.771 59 -162.66 59 -165 L59 -68 Z " />
<glyph glyph-name="asciitilde" unicode="&#x7e;" horiz-adv-x="375" d="M315 326 C292.333 292 267.333 275 240 275 C213.333 275 186.333 285 159 305 C135 322.333 110 332 94 332 C74 332 52.6667 312.333 30 273 L30 379 C49.3333 413.667 74 431 104 431 C130.667 431 155.333 419.667 182 401 C207.333 383 229.667 374 249 374 C269 374 293.667 396 315 432 L315 326 Z " />
<glyph glyph-name="uni00A0" unicode="&#xa0;" horiz-adv-x="375" />
<glyph glyph-name="exclamdown" unicode="&#xa1;" horiz-adv-x="375" d="M121 303 L217 303 L236 -185 L103 -185 L121 303 Z M168 383 C129.333 383 104 408.667 104 462 C104 512.667 132 541 168 541 C206.667 541 234 512.667 234 462 C234 410 210.667 383 168 383 Z " />
<glyph glyph-name="cent" unicode="&#xa2;" horiz-adv-x="375" d="M169 -10 L169 86 C85 98 47 200.333 47 363 C47 520.333 84.6667 628.333 170 643 L170 724 L231 724 L231 646 C256.333 642 285.667 632.667 307 614 L277 516 C257 534.667 233 544 217 544 C178.333 544 158 489.667 158 363 C158 237.667 175.667 186 217 186 C242.333 186 271.333 200 298 224 L298 121 C279.333 102.333 253.667 89 231 85 L231 -10 L169 -10 Z " />
<glyph glyph-name="sterling" unicode="&#xa3;" horiz-adv-x="375" d="M318 110 L318 0 L51 0 L51 104 C75 130.667 85 162.333 85 233 L85 317 L46 317 L46 409 L85 409 L85 526 C85 655.333 136 724 224 724 C260 724 294 710.333 326 683 L295 584 C272.333 604 252.333 614 235 614 C220.333 614 200 586.333 200 513 L200 409 L279 409 L279 317 L200 317 L200 234 C200 176.667 189.333 136.667 160 110 L318 110 Z " />
<glyph glyph-name="currency" unicode="&#xa4;" horiz-adv-x="375" d="M18 184 L58 247 C46.6667 279.667 41 315 41 353 C41 391.667 47.3333 424.667 58 458 L17 524 L70 579 L109 515 C127.667 536.333 148.667 547 172 547 C196 547 216.667 536.333 234 515 L275 579 L328 525 L287 459 C297.667 428.333 304 393 304 353 C304 314.333 296.333 278 287 246 L326 182 L275 127 L234 190 C214.667 170 194 160 172 160 C145.333 160 124 170 108 190 L70 128 L18 184 Z M172 240 C209.333 240 230 289 230 357 C230 421 208 468 172 468 C136 468 115 419.667 115 353 C115 289 134.667 240 172 240 Z " />
<glyph glyph-name="yen" unicode="&#xa5;" horiz-adv-x="375" d="M41 197 L115 197 L115 270 L41 270 L41 351 L93 351 L16 714 L139 714 L172 423 L205 714 L328 714 L249 351 L304 351 L304 270 L231 270 L231 197 L304 197 L304 118 L231 118 L231 0 L115 0 L115 118 L41 118 L41 197 Z " />
<glyph glyph-name="brokenbar" unicode="&#xa6;" horiz-adv-x="375" d="M128 -235 L128 161 L228 161 L228 -235 L128 -235 Z M128 366 L128 762 L228 762 L228 366 L128 366 Z " />
<glyph glyph-name="section" unicode="&#xa7;" horiz-adv-x="375" d="M47 122 C73.6667 95.3333 111.333 74 146 74 C164.667 74 187 96 187 140 C187 178.667 175 198.333 143 225 C84.4718 275.547 49 308.382 49 385 C49 442.333 61.3333 479.667 100 509 C76 539.667 67 581 67 629 C67 717 121.667 766 195 766 C229.667 766 258.667 754 296 730 L267 648 C237.667 670.667 216.667 683 194 683 C172.667 683 162 665.333 162 630 C162 588.667 184.333 564.333 207 547 C263.258 504.137 296 470.544 296 387 C296 328.333 280.667 285 250 257 C271.333 225 282 186.667 282 142 C282 48.6667 228 -9 144 -9 C106.667 -9 74.3333 3.33333 47 28 L47 122 Z M194 298 C207.333 312.667 208 337.333 208 368 C208 408 200.667 433.667 154 471 C139.333 459 138 433.667 138 403 C138 361.667 152.667 341.667 178 315 L194 298 Z " />
<glyph glyph-name="dieresis" unicode="&#xa8;" horiz-adv-x="375" d="M105 619 C75.6667 619 56 642.333 56 685 C56 727.667 75.6667 750 105 750 C135.667 750 156 727.667 156 685 C156 642.333 135.667 619 105 619 Z M237 619 C207.667 619 188 642.333 188 685 C188 727.667 207.667 750 237 750 C267.667 750 288 727.667 288 685 C288 642.333 267.667 619 237 619 Z " />
<glyph glyph-name="copyright" unicode="&#xa9;" horiz-adv-x="375" d="M174 127 C74.3636 127 10 224.996 10 360 C10 501.437 83.2771 592 173 592 C263.615 592 335 497.697 335 360 C335 218.693 262.944 127 174 127 Z M173 180 C238.333 180 284 249.667 284 359 C284 472.333 234.667 539 172 539 C105.333 539 60 469.333 60 360 C60 247.134 111.693 180 173 180 Z M228 234 C211.333 222 193.333 216 174 216 C115.333 216 86 269.333 86 360 C86 446.667 116.667 502 170 502 C192.667 502 215 495 237 481 L216 428 C202 438 188.333 443 175 443 C157.667 443 145 413.667 145 359 C145 303 155.333 275 176 275 C194 275 211.333 281 228 293 L228 234 Z " />
<glyph glyph-name="ordfeminine" unicode="&#xaa;" horiz-adv-x="375" d="M202 428 C188.667 392 172.333 369 139 369 C97.6667 369 74 410 74 474 C74 558.162 123.69 585.394 168 588 L194 590 L193 604 C191.667 638.667 185.667 653 167 653 C148.333 653 129.333 642.667 108 628 L85 690 C114.333 712 144.667 723 176 723 C238.667 723 272 680 272 596 L272 375 L217 375 L202 428 Z M194 535 L175 531 C160.333 528.333 153 515.667 153 481 C153 453.667 157.667 440 167 440 C183 440 194 470.667 194 516 L194 535 Z " />
<glyph glyph-name="guillemotleft" unicode="&#xab;" horiz-adv-x="375" >
<g transform="translate(-80,-9)" ><path fill="black" d="M183 53 L80 266 L80 280 L183 492 L265 447 L202 273 L264 99 L183 53 Z " /></g><g transform="translate(81,-9)" ><path fill="black" d="M183 53 L80 266 L80 280 L183 492 L265 447 L202 273 L264 99 L183 53 Z " /></g></glyph>
<glyph glyph-name="logicalnot" unicode="&#xac;" horiz-adv-x="375" d="M39 402 L314 402 L314 118 L220 118 L220 304 L39 304 L39 402 Z " />
<glyph glyph-name="uni00AD" unicode="&#xad;" horiz-adv-x="375" >
<g transform="translate(3,0)" ><path fill="black" d="M87 329 L257 329 L257 212 L87 212 L87 329 Z " /></g></glyph>
<glyph glyph-name="registered" unicode="&#xae;" horiz-adv-x="375" d="M172 127 C77.0476 127 13 225.667 13 359 C13 501.329 85.1039 590 173 590 C263.745 590 334 497.636 334 358 C334 217.61 262.615 127 172 127 Z M173 180 C238.333 180 283 249.667 283 359 C283 468.333 235 537 171 537 C107 537 63 467.333 63 358 C63 246 113 180 173 180 Z M105 230 L105 492 L161 492 C211.667 492 233 465.333 233 412 C233 374.667 224.333 349.333 207 336 L248 230 L193 230 L164 325 L155 325 L155 230 L105 230 Z M156 371 L159 371 C174.333 371 182 384 182 410 C182 432.667 176.667 444 158 444 L156 444 L156 371 Z " />
<glyph glyph-name="macron" unicode="&#xaf;" horiz-adv-x="375" d="M67 723 L263 723 L263 637 L67 637 L67 723 Z " />
<glyph glyph-name="degree" unicode="&#xb0;" horiz-adv-x="375" d="M171 437 C113.667 437 70 492 70 580 C70 669.333 116 724 172 724 C229.333 724 274 668.333 274 579 C274 491 227 437 171 437 Z M172 507 C190.667 507 208 534.667 208 580 C208 624 190.667 652 172 652 C150.667 652 136 622.667 136 580 C136 534.667 152 507 172 507 Z " />
<glyph glyph-name="plusminus" unicode="&#xb1;" horiz-adv-x="375" d="M127 154 L127 342 L36 342 L36 440 L127 440 L127 630 L221 630 L221 440 L312 440 L312 342 L221 342 L221 154 L127 154 Z M36 98 L314 98 L314 0 L36 0 L36 98 Z " />
<glyph glyph-name="twosuperior" unicode="&#xb2;" horiz-adv-x="375" d="M83 493 L141 595 C177 659 187 691.667 187 729 C187 757 178.667 776 164 776 C148 776 132 761.667 116 733 L78 794 C92.6667 826 127.667 854 177 854 C237 854 272 808 272 736 C272 664.676 218.029 626.152 181 523 L175 493 L278 493 L278 415 L84 415 L83 493 Z " />
<glyph glyph-name="threesuperior" unicode="&#xb3;" horiz-adv-x="375" d="M86 523 C108 499.667 134 488 164 488 C192 488 198 509 198 541 C198 579 184.333 598 157 598 L129 598 L129 669 L151 669 C179 669 192 691.333 192 726 C192 756.667 185.333 775 164 775 C149.333 775 134.667 765.667 116 739 L80 800 C109.333 835.333 141.333 853 176 853 C230.667 853 270 813.333 270 744 C270 697.333 255.667 660.667 221 642 L221 638 C255.667 623.333 278 589.333 278 532 C278 452 232 407 168 407 C136.667 407 109.333 417 86 437 L86 523 Z " />
<glyph glyph-name="acute" unicode="&#xb4;" horiz-adv-x="375" d="M99 606 L99 618 C119 672.667 132.333 720.667 143 766 L271 766 L271 757 C255.257 717.642 207.822 646.666 178 606 L99 606 Z " />
<glyph glyph-name="mu" unicode="&#xb5;" horiz-adv-x="375" d="M17 227 L21 227 L21 546 L142 546 L142 222 C142 138 148 103 176 103 C206.667 103 208 153.667 208 271 L208 546 L328 546 L328 0 L229 0 L214 71 L208 71 C190 21.6667 165.667 -5 135 -9 L135 -240 L17 -240 L17 227 Z " />
<glyph glyph-name="paragraph" unicode="&#xb6;" horiz-adv-x="375" d="M155 -127 L155 276 C148.333 270 139 267 127 267 C61.6667 267 29 348 29 510 C29 676.667 62 760 138 760 L306 760 L306 -127 L244 -127 L244 694 L217 694 L217 -127 L155 -127 Z " />
<glyph glyph-name="periodcentered" unicode="&#xb7;" horiz-adv-x="375" >
<g transform="translate(3,270)" ><path fill="black" d="M173 -12 C134.333 -12 107 16.3333 107 67 C107 119 130.333 146 173 146 C211.667 146 237 120.333 237 67 C237 16.3333 209 -12 173 -12 Z " /></g></glyph>
<glyph glyph-name="cedilla" unicode="&#xb8;" horiz-adv-x="375" d="M102 -162 C114 -167.333 126.333 -169 133 -169 C151.667 -169 158 -152.667 158 -130 C158 -99.3333 142.333 -86.3333 117 -81 L138 0 L195 0 L188 -42 C224.667 -52.6667 243 -84 243 -136 C243 -200 213 -240 153 -240 C135.667 -240 116.667 -238.333 102 -233 L102 -162 Z " />
<glyph glyph-name="onesuperior" unicode="&#xb9;" horiz-adv-x="375" d="M88 479 L153 485 L153 636 C153 670.667 152.333 714.333 155 749 C147 738.333 134.333 726.667 129 720 L106 688 L65 752 L163 843 L231 843 L231 485 L290 480 L290 415 L88 415 L88 479 Z " />
<glyph glyph-name="ordmasculine" unicode="&#xba;" horiz-adv-x="375" d="M175 369 C109.667 369 69 438 69 546 C69 656.667 110 722 174 722 C235.333 722 278 659.333 278 546 C278 435.333 239 369 175 369 Z M175 443 C190.333 443 198 477.333 198 546 C198 618 191.333 649 174 649 C158 649 151 618 151 546 C151 477.333 159 443 175 443 Z " />
<glyph glyph-name="guillemotright" unicode="&#xbb;" horiz-adv-x="375" >
<g transform="translate(51,-21)" ><path fill="black" d="M170 286 L108 460 L189 506 L292 293 L292 279 L189 67 L107 112 L170 286 Z " /></g><g transform="translate(-109,-21)" ><path fill="black" d="M170 286 L108 460 L189 506 L292 293 L292 279 L189 67 L107 112 L170 286 Z " /></g></glyph>
<glyph glyph-name="onequarter" unicode="&#xbc;" horiz-adv-x="375" >
<g transform="translate(-4,-576)" ><path fill="black" d="M63 564 L159 845 L255 845 L255 569 L288 569 L288 496 L255 496 L255 415 L173 415 L173 496 L63 496 L63 564 Z M173 569 L173 671 C173 700.333 173.667 718.333 175 745 C168.333 722.333 157 701.667 153 683 L130 569 L173 569 Z " /></g><g transform="translate(-5,50)" ><path fill="black" d="M88 479 L153 485 L153 636 C153 670.667 152.333 714.333 155 749 C147 738.333 134.333 726.667 129 720 L106 688 L65 752 L163 843 L231 843 L231 485 L290 480 L290 415 L88 415 L88 479 Z " /></g><path fill="black" d="M11 374 L328 427 L328 363 L11 310 L11 374 Z " /></glyph>
<glyph glyph-name="onehalf" unicode="&#xbd;" horiz-adv-x="375" >
<g transform="translate(-5,50)" ><path fill="black" d="M88 479 L153 485 L153 636 C153 670.667 152.333 714.333 155 749 C147 738.333 134.333 726.667 129 720 L106 688 L65 752 L163 843 L231 843 L231 485 L290 480 L290 415 L88 415 L88 479 Z " /></g><g transform="translate(-6,-576)" ><path fill="black" d="M83 493 L141 595 C177 659 187 691.667 187 729 C187 757 178.667 776 164 776 C148 776 132 761.667 116 733 L78 794 C92.6667 826 127.667 854 177 854 C237 854 272 808 272 736 C272 664.676 218.029 626.152 181 523 L175 493 L278 493 L278 415 L84 415 L83 493 Z " /></g><path fill="black" d="M11 374 L328 427 L328 363 L11 310 L11 374 Z " /></glyph>
<glyph glyph-name="threequarters" unicode="&#xbe;" horiz-adv-x="375" >
<g transform="translate(-4,-576)" ><path fill="black" d="M63 564 L159 845 L255 845 L255 569 L288 569 L288 496 L255 496 L255 415 L173 415 L173 496 L63 496 L63 564 Z M173 569 L173 671 C173 700.333 173.667 718.333 175 745 C168.333 722.333 157 701.667 153 683 L130 569 L173 569 Z " /></g><g transform="translate(-7,50)" ><path fill="black" d="M86 523 C108 499.667 134 488 164 488 C192 488 198 509 198 541 C198 579 184.333 598 157 598 L129 598 L129 669 L151 669 C179 669 192 691.333 192 726 C192 756.667 185.333 775 164 775 C149.333 775 134.667 765.667 116 739 L80 800 C109.333 835.333 141.333 853 176 853 C230.667 853 270 813.333 270 744 C270 697.333 255.667 660.667 221 642 L221 638 C255.667 623.333 278 589.333 278 532 C278 452 232 407 168 407 C136.667 407 109.333 417 86 437 L86 523 Z " /></g><path fill="black" d="M11 374 L328 427 L328 363 L11 310 L11 374 Z " /></glyph>
<glyph glyph-name="questiondown" unicode="&#xbf;" horiz-adv-x="375" d="M304 -138 C260.667 -176 217.333 -195 174 -195 C83.3333 -195 40 -131 40 -23 C40 65.5781 59.508 106.912 100 169 C131.906 216.86 135 237.519 135 280 L135 303 L230 303 L230 268 C230 198.667 217.667 160.333 187 111 C157.529 62.7745 153 35.2291 153 -12 C153 -62 163.333 -87 184 -87 C210.667 -87 236.333 -70 267 -42 L304 -138 Z M181 383 C142.333 383 117 408.667 117 462 C117 512.667 145 541 181 541 C219.667 541 247 512.667 247 462 C247 410 223.667 383 181 383 Z " />
<glyph glyph-name="Agrave" unicode="&#xc0;" horiz-adv-x="375" >
<path fill="black" d="M84 715 L258 715 L338 0 L221 0 L208 183 L138 183 L126 0 L7 0 L84 715 Z M200 294 L187 476 C184.333 517.333 174.667 575.333 172 614 C169.333 575.333 160.667 517.333 158 476 L146 294 L200 294 Z " /><g transform="translate(-1,169)" ><path fill="black" d="M64 766 L192 766 C199.981 723.437 226.029 650.914 237 618 L237 606 L157 606 C136.219 637.172 79.456 718.36 64 757 L64 766 Z " /></g></glyph>
<glyph glyph-name="Aacute" unicode="&#xc1;" horiz-adv-x="375" d="M84 715 L258 715 L338 0 L221 0 L208 183 L138 183 L126 0 L7 0 L84 715 Z M118 787 C138 841.667 151.333 889.667 162 935 L290 935 L290 926 C274.257 886.642 226.822 815.666 197 775 L118 775 L118 787 Z M200 294 L187 476 C184.333 517.333 174.667 575.333 172 614 C169.333 575.333 160.667 517.333 158 476 L146 294 L200 294 Z " />
<glyph glyph-name="Acircumflex" unicode="&#xc2;" horiz-adv-x="375" d="M84 715 L258 715 L338 0 L221 0 L208 183 L138 183 L126 0 L7 0 L84 715 Z M56 787 C77.6194 830.239 107.271 894.765 118 935 L226 935 C240.667 891 260.333 835 287 787 L287 775 L219 775 C205.667 797.667 192 825.333 172 860 C150.667 825.333 136.667 793.667 126 775 L56 775 L56 787 Z M200 294 L187 476 C184.333 517.333 174.667 575.333 172 614 C169.333 575.333 160.667 517.333 158 476 L146 294 L200 294 Z " />
<glyph glyph-name="Atilde" unicode="&#xc3;" horiz-adv-x="375" >
<path fill="black" d="M84 715 L258 715 L338 0 L221 0 L208 183 L138 183 L126 0 L7 0 L84 715 Z M200 294 L187 476 C184.333 517.333 174.667 575.333 172 614 C169.333 575.333 160.667 517.333 158 476 L146 294 L200 294 Z " /><g transform="translate(-1,169)" ><path fill="black" d="M59 610 C59 672.952 65.5628 753 119 753 C155.556 753 184.111 701 210 701 C223.333 701 222.667 718 228 754 L286 754 C283.333 658 258.667 611 224 611 C188.902 611 153.569 664 134 664 C123.333 664 119.667 648.667 117 610 L59 610 Z " /></g></glyph>
<glyph glyph-name="Adieresis" unicode="&#xc4;" horiz-adv-x="375" >
<g transform="translate(0,154)" ><path fill="black" d="M105 619 C75.6667 619 56 642.333 56 685 C56 727.667 75.6667 750 105 750 C135.667 750 156 727.667 156 685 C156 642.333 135.667 619 105 619 Z M237 619 C207.667 619 188 642.333 188 685 C188 727.667 207.667 750 237 750 C267.667 750 288 727.667 288 685 C288 642.333 267.667 619 237 619 Z " /></g><path fill="black" d="M84 715 L258 715 L338 0 L221 0 L208 183 L138 183 L126 0 L7 0 L84 715 Z M200 294 L187 476 C184.333 517.333 174.667 575.333 172 614 C169.333 575.333 160.667 517.333 158 476 L146 294 L200 294 Z " /></glyph>
<glyph glyph-name="Aring" unicode="&#xc5;" horiz-adv-x="375" d="M84 715 L258 715 L338 0 L221 0 L208 183 L138 183 L126 0 L7 0 L84 715 Z M173 769 C114.333 769 80 817.333 80 888 C80 956 114.333 1005 173 1005 C229 1005 264 957.333 264 888 C264 818.667 230.333 769 173 769 Z M200 294 L187 476 C184.333 517.333 174.667 575.333 172 614 C169.333 575.333 160.667 517.333 158 476 L146 294 L200 294 Z M173 837 C189 837 201 857.333 201 888 C201 917.333 190.333 938 173 938 C155.667 938 144 918.667 144 888 C144 857.333 154.333 837 173 837 Z " />
<glyph glyph-name="AE" unicode="&#xc6;" horiz-adv-x="375" d="M82 714 L332 714 L332 597 L272 597 L272 429 L318 429 L318 312 L272 312 L272 117 L332 117 L332 0 L173 0 L173 180 L129 180 L115 0 L7 0 L82 714 Z M173 294 L173 603 L163 603 L138 294 L173 294 Z " />
<glyph glyph-name="Ccedilla" unicode="&#xc7;" horiz-adv-x="375" d="M148 -162 C160 -167.333 172.333 -169 179 -169 C197.667 -169 204 -152.667 204 -130 C204 -99.3333 188.333 -86.3333 163 -81 L182 -9 C74 5.66667 19 134.667 19 348 C19 571.948 89.5628 726 207 726 C263 726 297 709.667 333 679 L297 574 C274.333 599.333 247.667 610 225 610 C168.03 610 141 505.944 141 353 C141 194.333 168.333 105 223 105 C253.667 105 281.333 121.667 312 143 L312 25 C289.333 9 265.333 -0.666667 240 -6 L234 -42 C270.667 -52.6667 289 -84 289 -136 C289 -200 259 -240 199 -240 C181.667 -240 162.667 -238.333 148 -233 L148 -162 Z " />
<glyph glyph-name="Egrave" unicode="&#xc8;" horiz-adv-x="375" >
<path fill="black" d="M324 116 L324 0 L26 0 L26 714 L324 714 L324 597 L147 597 L147 423 L312 423 L312 307 L147 307 L147 116 L324 116 Z " /><g transform="translate(3,168)" ><path fill="black" d="M64 766 L192 766 C199.981 723.437 226.029 650.914 237 618 L237 606 L157 606 C136.219 637.172 79.456 718.36 64 757 L64 766 Z " /></g></glyph>
<glyph glyph-name="Eacute" unicode="&#xc9;" horiz-adv-x="375" >
<path fill="black" d="M324 116 L324 0 L26 0 L26 714 L324 714 L324 597 L147 597 L147 423 L312 423 L312 307 L147 307 L147 116 L324 116 Z " /><g transform="translate(23,168)" ><path fill="black" d="M99 606 L99 618 C119 672.667 132.333 720.667 143 766 L271 766 L271 757 C255.257 717.642 207.822 646.666 178 606 L99 606 Z " /></g></glyph>
<glyph glyph-name="Ecircumflex" unicode="&#xca;" horiz-adv-x="375" >
<path fill="black" d="M324 116 L324 0 L26 0 L26 714 L324 714 L324 597 L147 597 L147 423 L312 423 L312 307 L147 307 L147 116 L324 116 Z " /><g transform="translate(4,168)" ><path fill="black" d="M56 606 L56 618 C77.6194 661.239 107.271 725.765 118 766 L226 766 C240.667 722 260.333 666 287 618 L287 606 L219 606 C205.667 628.667 192 656.333 172 691 C150.667 656.333 136.667 624.667 126 606 L56 606 Z " /></g></glyph>
<glyph glyph-name="Edieresis" unicode="&#xcb;" horiz-adv-x="375" >
<g transform="translate(4,153)" ><path fill="black" d="M105 619 C75.6667 619 56 642.333 56 685 C56 727.667 75.6667 750 105 750 C135.667 750 156 727.667 156 685 C156 642.333 135.667 619 105 619 Z M237 619 C207.667 619 188 642.333 188 685 C188 727.667 207.667 750 237 750 C267.667 750 288 727.667 288 685 C288 642.333 267.667 619 237 619 Z " /></g><path fill="black" d="M324 116 L324 0 L26 0 L26 714 L324 714 L324 597 L147 597 L147 423 L312 423 L312 307 L147 307 L147 116 L324 116 Z " /></glyph>
<glyph glyph-name="Igrave" unicode="&#xcc;" horiz-adv-x="375" >
<path fill="black" d="M29 93 L115 107 L115 608 L29 621 L29 714 L316 714 L316 621 L233 608 L233 107 L316 93 L316 0 L29 0 L29 93 Z " /><g transform="translate(-1,168)" ><path fill="black" d="M64 766 L192 766 C199.981 723.437 226.029 650.914 237 618 L237 606 L157 606 C136.219 637.172 79.456 718.36 64 757 L64 766 Z " /></g></glyph>
<glyph glyph-name="Iacute" unicode="&#xcd;" horiz-adv-x="375" >
<path fill="black" d="M29 93 L115 107 L115 608 L29 621 L29 714 L316 714 L316 621 L233 608 L233 107 L316 93 L316 0 L29 0 L29 93 Z " /><g transform="translate(19,168)" ><path fill="black" d="M99 606 L99 618 C119 672.667 132.333 720.667 143 766 L271 766 L271 757 C255.257 717.642 207.822 646.666 178 606 L99 606 Z " /></g></glyph>
<glyph glyph-name="Icircumflex" unicode="&#xce;" horiz-adv-x="375" >
<path fill="black" d="M29 93 L115 107 L115 608 L29 621 L29 714 L316 714 L316 621 L233 608 L233 107 L316 93 L316 0 L29 0 L29 93 Z " /><g transform="translate(0,168)" ><path fill="black" d="M56 606 L56 618 C77.6194 661.239 107.271 725.765 118 766 L226 766 C240.667 722 260.333 666 287 618 L287 606 L219 606 C205.667 628.667 192 656.333 172 691 C150.667 656.333 136.667 624.667 126 606 L56 606 Z " /></g></glyph>
<glyph glyph-name="Idieresis" unicode="&#xcf;" horiz-adv-x="375" >
<g transform="translate(0,153)" ><path fill="black" d="M105 619 C75.6667 619 56 642.333 56 685 C56 727.667 75.6667 750 105 750 C135.667 750 156 727.667 156 685 C156 642.333 135.667 619 105 619 Z M237 619 C207.667 619 188 642.333 188 685 C188 727.667 207.667 750 237 750 C267.667 750 288 727.667 288 685 C288 642.333 267.667 619 237 619 Z " /></g><path fill="black" d="M29 93 L115 107 L115 608 L29 621 L29 714 L316 714 L316 621 L233 608 L233 107 L316 93 L316 0 L29 0 L29 93 Z " /></glyph>
<glyph glyph-name="Eth" unicode="&#xd0;" horiz-adv-x="375" d="M26 314 L3 314 L3 411 L26 411 L26 714 L179 714 C282.004 714 348 584.974 348 369 C348 135.225 268.364 0 176 0 L26 0 L26 314 Z M162 116 C204.667 116 224 206.667 224 360 C224 526.667 202 598 166 598 L145 598 L145 411 L181 411 L181 314 L145 314 L145 116 L162 116 Z " />
<glyph glyph-name="Ntilde" unicode="&#xd1;" horiz-adv-x="375" >
<path fill="black" d="M20 0 L20 714 L171 714 L234 113 L239 113 C236.327 166.459 228 269.211 228 336 L228 714 L326 714 L326 0 L177 0 L110 606 L105 606 C107.667 522 117 450 117 374 L117 0 L20 0 Z " /><g transform="translate(3,168)" ><path fill="black" d="M59 610 C59 672.952 65.5628 753 119 753 C155.556 753 184.111 701 210 701 C223.333 701 222.667 718 228 754 L286 754 C283.333 658 258.667 611 224 611 C188.902 611 153.569 664 134 664 C123.333 664 119.667 648.667 117 610 L59 610 Z " /></g></glyph>
<glyph glyph-name="Ograve" unicode="&#xd2;" horiz-adv-x="375" >
<path fill="black" d="M172 -8 C59.8961 -8 8 136 8 360 C8 591.948 51.0779 726 171 726 C285.823 726 337 584.563 337 358 C337 134.918 283.974 -8 172 -8 Z M174 108 C211.203 108 215 203.177 215 358 C215 524.667 207.667 609 173 609 C138.333 609 130 516.333 130 359 C130 203 138 108 174 108 Z " /><g transform="translate(-1,168)" ><path fill="black" d="M64 766 L192 766 C199.981 723.437 226.029 650.914 237 618 L237 606 L157 606 C136.219 637.172 79.456 718.36 64 757 L64 766 Z " /></g></glyph>
<glyph glyph-name="Oacute" unicode="&#xd3;" horiz-adv-x="375" >
<path fill="black" d="M172 -8 C59.8961 -8 8 136 8 360 C8 591.948 51.0779 726 171 726 C285.823 726 337 584.563 337 358 C337 134.918 283.974 -8 172 -8 Z M174 108 C211.203 108 215 203.177 215 358 C215 524.667 207.667 609 173 609 C138.333 609 130 516.333 130 359 C130 203 138 108 174 108 Z " /><g transform="translate(19,168)" ><path fill="black" d="M99 606 L99 618 C119 672.667 132.333 720.667 143 766 L271 766 L271 757 C255.257 717.642 207.822 646.666 178 606 L99 606 Z " /></g></glyph>
<glyph glyph-name="Ocircumflex" unicode="&#xd4;" horiz-adv-x="375" >
<path fill="black" d="M172 -8 C59.8961 -8 8 136 8 360 C8 591.948 51.0779 726 171 726 C285.823 726 337 584.563 337 358 C337 134.918 283.974 -8 172 -8 Z M174 108 C211.203 108 215 203.177 215 358 C215 524.667 207.667 609 173 609 C138.333 609 130 516.333 130 359 C130 203 138 108 174 108 Z " /><g transform="translate(0,168)" ><path fill="black" d="M56 606 L56 618 C77.6194 661.239 107.271 725.765 118 766 L226 766 C240.667 722 260.333 666 287 618 L287 606 L219 606 C205.667 628.667 192 656.333 172 691 C150.667 656.333 136.667 624.667 126 606 L56 606 Z " /></g></glyph>
<glyph glyph-name="Otilde" unicode="&#xd5;" horiz-adv-x="375" >
<path fill="black" d="M172 -8 C59.8961 -8 8 136 8 360 C8 591.948 51.0779 726 171 726 C285.823 726 337 584.563 337 358 C337 134.918 283.974 -8 172 -8 Z M174 108 C211.203 108 215 203.177 215 358 C215 524.667 207.667 609 173 609 C138.333 609 130 516.333 130 359 C130 203 138 108 174 108 Z " /><g transform="translate(-1,168)" ><path fill="black" d="M59 610 C59 672.952 65.5628 753 119 753 C155.556 753 184.111 701 210 701 C223.333 701 222.667 718 228 754 L286 754 C283.333 658 258.667 611 224 611 C188.902 611 153.569 664 134 664 C123.333 664 119.667 648.667 117 610 L59 610 Z " /></g></glyph>
<glyph glyph-name="Odieresis" unicode="&#xd6;" horiz-adv-x="375" >
<g transform="translate(0,153)" ><path fill="black" d="M105 619 C75.6667 619 56 642.333 56 685 C56 727.667 75.6667 750 105 750 C135.667 750 156 727.667 156 685 C156 642.333 135.667 619 105 619 Z M237 619 C207.667 619 188 642.333 188 685 C188 727.667 207.667 750 237 750 C267.667 750 288 727.667 288 685 C288 642.333 267.667 619 237 619 Z " /></g><path fill="black" d="M172 -8 C59.8961 -8 8 136 8 360 C8 591.948 51.0779 726 171 726 C285.823 726 337 584.563 337 358 C337 134.918 283.974 -8 172 -8 Z M174 108 C211.203 108 215 203.177 215 358 C215 524.667 207.667 609 173 609 C138.333 609 130 516.333 130 359 C130 203 138 108 174 108 Z " /></glyph>
<glyph glyph-name="multiply" unicode="&#xd7;" horiz-adv-x="375" d="M36 224 L110 353 L35 482 L97 551 L173 423 L250 552 L315 485 L239 353 L313 222 L249 155 L173 285 L97 154 L36 224 Z " />
<glyph glyph-name="Oslash" unicode="&#xd8;" horiz-adv-x="375" d="M51 92 C24.3333 156 11 246.667 11 360 C11 591.948 54.0779 726 174 726 C205.333 726 232.667 715.333 256 694 L277 757 L336 724 L302 623 C328.667 559 340 470 340 358 C340 134.918 286.974 -8 175 -8 C146.333 -8 120.333 2 97 22 L75 -43 L16 -11 L51 92 Z M133 334 L209 555 C202.333 591 191.333 609 176 609 C141.333 609 133 516.333 133 359 L133 334 Z M218 377 L144 160 C151.333 125.333 162.333 108 177 108 C214.203 108 218 203.177 218 358 L218 377 Z " />
<glyph glyph-name="Ugrave" unicode="&#xd9;" horiz-adv-x="375" >
<path fill="black" d="M16 714 L137 714 L137 267 C137 153.667 137 106 173 106 C213 106 209 154.874 209 268 L209 714 L330 714 L330 258 C330 76.5628 292.87 -10 173 -10 C55.6667 -10 16 75.6667 16 257 L16 714 Z " /><g transform="translate(0,168)" ><path fill="black" d="M64 766 L192 766 C199.981 723.437 226.029 650.914 237 618 L237 606 L157 606 C136.219 637.172 79.456 718.36 64 757 L64 766 Z " /></g></glyph>
<glyph glyph-name="Uacute" unicode="&#xda;" horiz-adv-x="375" >
<path fill="black" d="M16 714 L137 714 L137 267 C137 153.667 137 106 173 106 C213 106 209 154.874 209 268 L209 714 L330 714 L330 258 C330 76.5628 292.87 -10 173 -10 C55.6667 -10 16 75.6667 16 257 L16 714 Z " /><g transform="translate(20,168)" ><path fill="black" d="M99 606 L99 618 C119 672.667 132.333 720.667 143 766 L271 766 L271 757 C255.257 717.642 207.822 646.666 178 606 L99 606 Z " /></g></glyph>
<glyph glyph-name="Ucircumflex" unicode="&#xdb;" horiz-adv-x="375" >
<path fill="black" d="M16 714 L137 714 L137 267 C137 153.667 137 106 173 106 C213 106 209 154.874 209 268 L209 714 L330 714 L330 258 C330 76.5628 292.87 -10 173 -10 C55.6667 -10 16 75.6667 16 257 L16 714 Z " /><g transform="translate(1,168)" ><path fill="black" d="M56 606 L56 618 C77.6194 661.239 107.271 725.765 118 766 L226 766 C240.667 722 260.333 666 287 618 L287 606 L219 606 C205.667 628.667 192 656.333 172 691 C150.667 656.333 136.667 624.667 126 606 L56 606 Z " /></g></glyph>
<glyph glyph-name="Udieresis" unicode="&#xdc;" horiz-adv-x="375" >
<g transform="translate(1,153)" ><path fill="black" d="M105 619 C75.6667 619 56 642.333 56 685 C56 727.667 75.6667 750 105 750 C135.667 750 156 727.667 156 685 C156 642.333 135.667 619 105 619 Z M237 619 C207.667 619 188 642.333 188 685 C188 727.667 207.667 750 237 750 C267.667 750 288 727.667 288 685 C288 642.333 267.667 619 237 619 Z " /></g><path fill="black" d="M16 714 L137 714 L137 267 C137 153.667 137 106 173 106 C213 106 209 154.874 209 268 L209 714 L330 714 L330 258 C330 76.5628 292.87 -10 173 -10 C55.6667 -10 16 75.6667 16 257 L16 714 Z " /></glyph>
<glyph glyph-name="Yacute" unicode="&#xdd;" horiz-adv-x="375" >
<path fill="black" d="M111 0 L111 275 L2 714 L133 714 L171 408 L210 714 L340 714 L227 276 L227 0 L111 0 Z " /><g transform="translate(19,168)" ><path fill="black" d="M99 606 L99 618 C119 672.667 132.333 720.667 143 766 L271 766 L271 757 C255.257 717.642 207.822 646.666 178 606 L99 606 Z " /></g></glyph>
<glyph glyph-name="Thorn" unicode="&#xde;" horiz-adv-x="375" d="M26 0 L26 714 L147 714 L147 594 L172 594 C280 594 324 517 324 373 C324 235.9 284.355 138 166 138 L147 138 L147 0 L26 0 Z M147 248 L156 248 C196 248 209 283.333 209 366 C209 448.667 194 484 170 484 L147 484 L147 248 Z " />
<glyph glyph-name="germandbls" unicode="&#xdf;" horiz-adv-x="375" d="M14 560 C14 685.333 70.6667 765 164 765 C242.667 765 303 706.667 303 596 C303 488.562 271 463.007 271 402 C271 379.333 269.667 361.667 291 323 C310.001 279.57 332 242.711 332 161 C332 49 288 -10 216 -10 C192 -10 170.667 -2 148 18 L148 132 C166.667 108 180.333 96 199 96 C211 96 217 117.667 217 161 C217 186.333 219.333 204.333 198 247 C176.894 289.212 156 321.504 156 393 C156 491.673 188 508.229 188 592 C188 634.667 181 663 157 663 C134.333 663 128 622 128 538 L128 0 L14 0 L14 560 Z " />
<glyph glyph-name="agrave" unicode="&#xe0;" horiz-adv-x="375" >
<path fill="black" d="M215 75 C189.667 18.3333 160.333 -10 127 -10 C64.3333 -10 25 51.3333 25 158 C25 279.333 72 334 148 338 L210 341 L210 360 C210 422.667 186.667 445 160 445 C130.667 445 106.667 430.333 84 409 L44 508 C82.6667 538.667 123.667 557 177 557 C271.667 557 325 496.333 325 371 L325 0 L234 0 L216 75 L215 75 Z M210 254 L182 250 C156.667 247.333 140 222.333 140 169 C140 122.333 155.667 103 169 103 C185 103 210 138.333 210 213 L210 254 Z " /><g transform="translate(12,0)" ><path fill="black" d="M64 766 L192 766 C199.981 723.437 226.029 650.914 237 618 L237 606 L157 606 C136.219 637.172 79.456 718.36 64 757 L64 766 Z " /></g></glyph>
<glyph glyph-name="aacute" unicode="&#xe1;" horiz-adv-x="375" >
<path fill="black" d="M215 75 C189.667 18.3333 160.333 -10 127 -10 C64.3333 -10 25 51.3333 25 158 C25 279.333 72 334 148 338 L210 341 L210 360 C210 422.667 186.667 445 160 445 C130.667 445 106.667 430.333 84 409 L44 508 C82.6667 538.667 123.667 557 177 557 C271.667 557 325 496.333 325 371 L325 0 L234 0 L216 75 L215 75 Z M210 254 L182 250 C156.667 247.333 140 222.333 140 169 C140 122.333 155.667 103 169 103 C185 103 210 138.333 210 213 L210 254 Z " /><g transform="translate(32,0)" ><path fill="black" d="M99 606 L99 618 C119 672.667 132.333 720.667 143 766 L271 766 L271 757 C255.257 717.642 207.822 646.666 178 606 L99 606 Z " /></g></glyph>
<glyph glyph-name="acircumflex" unicode="&#xe2;" horiz-adv-x="375" >
<path fill="black" d="M215 75 C189.667 18.3333 160.333 -10 127 -10 C64.3333 -10 25 51.3333 25 158 C25 279.333 72 334 148 338 L210 341 L210 360 C210 422.667 186.667 445 160 445 C130.667 445 106.667 430.333 84 409 L44 508 C82.6667 538.667 123.667 557 177 557 C271.667 557 325 496.333 325 371 L325 0 L234 0 L216 75 L215 75 Z M210 254 L182 250 C156.667 247.333 140 222.333 140 169 C140 122.333 155.667 103 169 103 C185 103 210 138.333 210 213 L210 254 Z " /><g transform="translate(13,0)" ><path fill="black" d="M56 606 L56 618 C77.6194 661.239 107.271 725.765 118 766 L226 766 C240.667 722 260.333 666 287 618 L287 606 L219 606 C205.667 628.667 192 656.333 172 691 C150.667 656.333 136.667 624.667 126 606 L56 606 Z " /></g></glyph>
<glyph glyph-name="atilde" unicode="&#xe3;" horiz-adv-x="375" >
<path fill="black" d="M215 75 C189.667 18.3333 160.333 -10 127 -10 C64.3333 -10 25 51.3333 25 158 C25 279.333 72 334 148 338 L210 341 L210 360 C210 422.667 186.667 445 160 445 C130.667 445 106.667 430.333 84 409 L44 508 C82.6667 538.667 123.667 557 177 557 C271.667 557 325 496.333 325 371 L325 0 L234 0 L216 75 L215 75 Z M210 254 L182 250 C156.667 247.333 140 222.333 140 169 C140 122.333 155.667 103 169 103 C185 103 210 138.333 210 213 L210 254 Z " /><g transform="translate(12,0)" ><path fill="black" d="M59 610 C59 672.952 65.5628 753 119 753 C155.556 753 184.111 701 210 701 C223.333 701 222.667 718 228 754 L286 754 C283.333 658 258.667 611 224 611 C188.902 611 153.569 664 134 664 C123.333 664 119.667 648.667 117 610 L59 610 Z " /></g></glyph>
<glyph glyph-name="adieresis" unicode="&#xe4;" horiz-adv-x="375" >
<g transform="translate(13,-15)" ><path fill="black" d="M105 619 C75.6667 619 56 642.333 56 685 C56 727.667 75.6667 750 105 750 C135.667 750 156 727.667 156 685 C156 642.333 135.667 619 105 619 Z M237 619 C207.667 619 188 642.333 188 685 C188 727.667 207.667 750 237 750 C267.667 750 288 727.667 288 685 C288 642.333 267.667 619 237 619 Z " /></g><path fill="black" d="M215 75 C189.667 18.3333 160.333 -10 127 -10 C64.3333 -10 25 51.3333 25 158 C25 279.333 72 334 148 338 L210 341 L210 360 C210 422.667 186.667 445 160 445 C130.667 445 106.667 430.333 84 409 L44 508 C82.6667 538.667 123.667 557 177 557 C271.667 557 325 496.333 325 371 L325 0 L234 0 L216 75 L215 75 Z M210 254 L182 250 C156.667 247.333 140 222.333 140 169 C140 122.333 155.667 103 169 103 C185 103 210 138.333 210 213 L210 254 Z " /></glyph>
<glyph glyph-name="aring" unicode="&#xe5;" horiz-adv-x="375" >
<path fill="black" d="M215 75 C189.667 18.3333 160.333 -10 127 -10 C64.3333 -10 25 51.3333 25 158 C25 279.333 72 334 148 338 L210 341 L210 360 C210 422.667 186.667 445 160 445 C130.667 445 106.667 430.333 84 409 L44 508 C82.6667 538.667 123.667 557 177 557 C271.667 557 325 496.333 325 371 L325 0 L234 0 L216 75 L215 75 Z M210 254 L182 250 C156.667 247.333 140 222.333 140 169 C140 122.333 155.667 103 169 103 C185 103 210 138.333 210 213 L210 254 Z " /><g transform="translate(14,0)" ><path fill="black" d="M172 600 C113.333 600 79 648.333 79 719 C79 787 113.333 836 172 836 C228 836 263 788.333 263 719 C263 649.667 229.333 600 172 600 Z M172 668 C188 668 200 688.333 200 719 C200 748.333 189.333 769 172 769 C154.667 769 143 749.667 143 719 C143 688.333 153.333 668 172 668 Z " /></g></glyph>
<glyph glyph-name="ae" unicode="&#xe6;" horiz-adv-x="375" d="M131 332 L131 366 C131 434 113.667 455 95 455 C78.3333 455 63 445.667 49 427 L15 510 C44.3333 538 76.3333 555 107 555 C133.667 555 160.333 533 179 485 C200.333 529 221.333 555 244 555 C316.996 555 339 451.874 339 293 L339 242 L224 242 C224 135.333 247.333 94 278 94 C296.667 94 308.333 105 327 133 L327 28 C309.667 2.66667 288 -10 262 -10 C227.333 -10 196.667 17.3333 174 88 C150 17.3333 129.333 -10 96 -10 C37.3333 -10 6 53 6 157 C6 267.667 35.6667 321.333 97 328 L131 332 Z M130 247 L118 247 C104.667 247 94 219 94 163 C94 117.667 100 95 112 95 C122.667 95 130 126.667 130 208 L130 247 Z M255 329 C255 417 250.667 451 240 451 C229.333 451 225 417 225 329 L255 329 Z " />
<glyph glyph-name="ccedilla" unicode="&#xe7;" horiz-adv-x="375" d="M145 -162 C157 -167.333 169.333 -169 176 -169 C194.667 -169 201 -152.667 201 -130 C201 -99.3333 185.333 -86.3333 160 -81 L179 -8 C94.7317 7.8003 27 93.2915 27 271 C27 445.874 78.6926 557 204 557 C246.667 557 291.333 545.333 326 520 L288 415 C265.333 433.667 245.667 443 215 443 C168.333 443 152 384.667 152 274 C152 154 182 104 222 104 C248.667 104 281.667 116.333 311 147 L311 25 C289.667 7.66667 263.667 -3 237 -7 L231 -42 C267.667 -52.6667 286 -84 286 -136 C286 -200 256 -240 196 -240 C178.667 -240 159.667 -238.333 145 -233 L145 -162 Z " />
<glyph glyph-name="egrave" unicode="&#xe8;" horiz-adv-x="375" >
<path fill="black" d="M308 28 C281.333 5.33333 245.667 -10 191 -10 C77.6667 -10 12 87.3333 12 270 C12 443.359 71.2814 557 178 557 C266 557 328 470.667 328 304 L328 232 L135 232 C137.667 141.333 171.333 101 206 101 C251.333 101 284 116.667 308 142 L308 28 Z M213 325 C211 406.333 198.333 447 175 447 C148.333 447 135 405 135 325 L213 325 Z " /><g transform="translate(5,0)" ><path fill="black" d="M64 766 L192 766 C199.981 723.437 226.029 650.914 237 618 L237 606 L157 606 C136.219 637.172 79.456 718.36 64 757 L64 766 Z " /></g></glyph>
<glyph glyph-name="eacute" unicode="&#xe9;" horiz-adv-x="375" >
<path fill="black" d="M308 28 C281.333 5.33333 245.667 -10 191 -10 C77.6667 -10 12 87.3333 12 270 C12 443.359 71.2814 557 178 557 C266 557 328 470.667 328 304 L328 232 L135 232 C137.667 141.333 171.333 101 206 101 C251.333 101 284 116.667 308 142 L308 28 Z M213 325 C211 406.333 198.333 447 175 447 C148.333 447 135 405 135 325 L213 325 Z " /><g transform="translate(25,0)" ><path fill="black" d="M99 606 L99 618 C119 672.667 132.333 720.667 143 766 L271 766 L271 757 C255.257 717.642 207.822 646.666 178 606 L99 606 Z " /></g></glyph>
<glyph glyph-name="ecircumflex" unicode="&#xea;" horiz-adv-x="375" >
<path fill="black" d="M308 28 C281.333 5.33333 245.667 -10 191 -10 C77.6667 -10 12 87.3333 12 270 C12 443.359 71.2814 557 178 557 C266 557 328 470.667 328 304 L328 232 L135 232 C137.667 141.333 171.333 101 206 101 C251.333 101 284 116.667 308 142 L308 28 Z M213 325 C211 406.333 198.333 447 175 447 C148.333 447 135 405 135 325 L213 325 Z " /><g transform="translate(6,0)" ><path fill="black" d="M56 606 L56 618 C77.6194 661.239 107.271 725.765 118 766 L226 766 C240.667 722 260.333 666 287 618 L287 606 L219 606 C205.667 628.667 192 656.333 172 691 C150.667 656.333 136.667 624.667 126 606 L56 606 Z " /></g></glyph>
<glyph glyph-name="edieresis" unicode="&#xeb;" horiz-adv-x="375" >
<g transform="translate(6,-15)" ><path fill="black" d="M105 619 C75.6667 619 56 642.333 56 685 C56 727.667 75.6667 750 105 750 C135.667 750 156 727.667 156 685 C156 642.333 135.667 619 105 619 Z M237 619 C207.667 619 188 642.333 188 685 C188 727.667 207.667 750 237 750 C267.667 750 288 727.667 288 685 C288 642.333 267.667 619 237 619 Z " /></g><path fill="black" d="M308 28 C281.333 5.33333 245.667 -10 191 -10 C77.6667 -10 12 87.3333 12 270 C12 443.359 71.2814 557 178 557 C266 557 328 470.667 328 304 L328 232 L135 232 C137.667 141.333 171.333 101 206 101 C251.333 101 284 116.667 308 142 L308 28 Z M213 325 C211 406.333 198.333 447 175 447 C148.333 447 135 405 135 325 L213 325 Z " /></glyph>
<glyph glyph-name="igrave" unicode="&#xec;" horiz-adv-x="345" >
<path fill="black" d="M25 93 L119 108 L119 437 L43 448 L43 546 L238 546 L238 108 L316 93 L316 0 L25 0 L25 93 Z " /><g transform="translate(-1,0)" ><path fill="black" d="M64 766 L192 766 C199.981 723.437 226.029 650.914 237 618 L237 606 L157 606 C136.219 637.172 79.456 718.36 64 757 L64 766 Z " /></g></glyph>
<glyph glyph-name="iacute" unicode="&#xed;" horiz-adv-x="345" >
<path fill="black" d="M25 93 L119 108 L119 437 L43 448 L43 546 L238 546 L238 108 L316 93 L316 0 L25 0 L25 93 Z " /><g transform="translate(19,0)" ><path fill="black" d="M99 606 L99 618 C119 672.667 132.333 720.667 143 766 L271 766 L271 757 C255.257 717.642 207.822 646.666 178 606 L99 606 Z " /></g></glyph>
<glyph glyph-name="icircumflex" unicode="&#xee;" horiz-adv-x="345" >
<path fill="black" d="M25 93 L119 108 L119 437 L43 448 L43 546 L238 546 L238 108 L316 93 L316 0 L25 0 L25 93 Z " /><path fill="black" d="M56 606 L56 618 C77.6194 661.239 107.271 725.765 118 766 L226 766 C240.667 722 260.333 666 287 618 L287 606 L219 606 C205.667 628.667 192 656.333 172 691 C150.667 656.333 136.667 624.667 126 606 L56 606 Z " /></glyph>
<glyph glyph-name="idieresis" unicode="&#xef;" horiz-adv-x="345" >
<g transform="translate(0,-15)" ><path fill="black" d="M105 619 C75.6667 619 56 642.333 56 685 C56 727.667 75.6667 750 105 750 C135.667 750 156 727.667 156 685 C156 642.333 135.667 619 105 619 Z M237 619 C207.667 619 188 642.333 188 685 C188 727.667 207.667 750 237 750 C267.667 750 288 727.667 288 685 C288 642.333 267.667 619 237 619 Z " /></g><path fill="black" d="M25 93 L119 108 L119 437 L43 448 L43 546 L238 546 L238 108 L316 93 L316 0 L25 0 L25 93 Z " /></glyph>
<glyph glyph-name="eth" unicode="&#xf0;" horiz-adv-x="375" d="M189 456 C182.333 494.667 169.667 534.667 151 572 L118 536 L75 598 L115 641 C101.667 663.667 90.6667 681.333 80 696 L128 766 C148 751.333 166.667 735.667 184 717 L229 766 L273 704 L230 658 C296.667 558 333 421.667 333 275 C333 89.6667 273 -10 173 -10 C74.2814 -10 11 91.3896 11 239 C11 395.442 74.3853 484 149 484 C163.667 484 173.333 475.333 188 454 L189 456 Z M173 92 C207.667 92 216 145 216 241 C216 326.333 203 382 171 382 C137.667 382 128 333 128 237 C128 147.667 138.333 92 173 92 Z " />
<glyph glyph-name="ntilde" unicode="&#xf1;" horiz-adv-x="375" >
<path fill="black" d="M21 0 L21 546 L120 546 L134 480 L138 480 C158 529.333 184.333 557 219 557 C287 557 327 495.667 327 357 L327 0 L208 0 L208 337 C208 415.667 198.667 448 180 448 C149.333 448 141 400.333 141 291 L141 0 L21 0 Z " /><g transform="translate(9,0)" ><path fill="black" d="M59 610 C59 672.952 65.5628 753 119 753 C155.556 753 184.111 701 210 701 C223.333 701 222.667 718 228 754 L286 754 C283.333 658 258.667 611 224 611 C188.902 611 153.569 664 134 664 C123.333 664 119.667 648.667 117 610 L59 610 Z " /></g></glyph>
<glyph glyph-name="ograve" unicode="&#xf2;" horiz-adv-x="375" >
<path fill="black" d="M172 -10 C53.619 -10 11 118.719 11 276 C11 440.442 61.7706 557 171 557 C263.416 557 333 456.281 333 275 C333 119.39 296.13 -10 172 -10 Z M172 102 C196 102 208 159.667 208 275 C208 388.333 194.667 444 172 444 C148.667 444 137 387.667 137 275 C137 161.667 148 102 172 102 Z " /><g transform="translate(-1,0)" ><path fill="black" d="M64 766 L192 766 C199.981 723.437 226.029 650.914 237 618 L237 606 L157 606 C136.219 637.172 79.456 718.36 64 757 L64 766 Z " /></g></glyph>
<glyph glyph-name="oacute" unicode="&#xf3;" horiz-adv-x="375" >
<path fill="black" d="M172 -10 C53.619 -10 11 118.719 11 276 C11 440.442 61.7706 557 171 557 C263.416 557 333 456.281 333 275 C333 119.39 296.13 -10 172 -10 Z M172 102 C196 102 208 159.667 208 275 C208 388.333 194.667 444 172 444 C148.667 444 137 387.667 137 275 C137 161.667 148 102 172 102 Z " /><g transform="translate(19,0)" ><path fill="black" d="M99 606 L99 618 C119 672.667 132.333 720.667 143 766 L271 766 L271 757 C255.257 717.642 207.822 646.666 178 606 L99 606 Z " /></g></glyph>
<glyph glyph-name="ocircumflex" unicode="&#xf4;" horiz-adv-x="375" >
<path fill="black" d="M172 -10 C53.619 -10 11 118.719 11 276 C11 440.442 61.7706 557 171 557 C263.416 557 333 456.281 333 275 C333 119.39 296.13 -10 172 -10 Z M172 102 C196 102 208 159.667 208 275 C208 388.333 194.667 444 172 444 C148.667 444 137 387.667 137 275 C137 161.667 148 102 172 102 Z " /><path fill="black" d="M56 606 L56 618 C77.6194 661.239 107.271 725.765 118 766 L226 766 C240.667 722 260.333 666 287 618 L287 606 L219 606 C205.667 628.667 192 656.333 172 691 C150.667 656.333 136.667 624.667 126 606 L56 606 Z " /></glyph>
<glyph glyph-name="otilde" unicode="&#xf5;" horiz-adv-x="375" >
<path fill="black" d="M172 -10 C53.619 -10 11 118.719 11 276 C11 440.442 61.7706 557 171 557 C263.416 557 333 456.281 333 275 C333 119.39 296.13 -10 172 -10 Z M172 102 C196 102 208 159.667 208 275 C208 388.333 194.667 444 172 444 C148.667 444 137 387.667 137 275 C137 161.667 148 102 172 102 Z " /><g transform="translate(-1,0)" ><path fill="black" d="M59 610 C59 672.952 65.5628 753 119 753 C155.556 753 184.111 701 210 701 C223.333 701 222.667 718 228 754 L286 754 C283.333 658 258.667 611 224 611 C188.902 611 153.569 664 134 664 C123.333 664 119.667 648.667 117 610 L59 610 Z " /></g></glyph>
<glyph glyph-name="odieresis" unicode="&#xf6;" horiz-adv-x="375" >
<g transform="translate(0,-15)" ><path fill="black" d="M105 619 C75.6667 619 56 642.333 56 685 C56 727.667 75.6667 750 105 750 C135.667 750 156 727.667 156 685 C156 642.333 135.667 619 105 619 Z M237 619 C207.667 619 188 642.333 188 685 C188 727.667 207.667 750 237 750 C267.667 750 288 727.667 288 685 C288 642.333 267.667 619 237 619 Z " /></g><path fill="black" d="M172 -10 C53.619 -10 11 118.719 11 276 C11 440.442 61.7706 557 171 557 C263.416 557 333 456.281 333 275 C333 119.39 296.13 -10 172 -10 Z M172 102 C196 102 208 159.667 208 275 C208 388.333 194.667 444 172 444 C148.667 444 137 387.667 137 275 C137 161.667 148 102 172 102 Z " /></glyph>
<glyph glyph-name="divide" unicode="&#xf7;" horiz-adv-x="375" d="M34 402 L312 402 L312 304 L34 304 L34 402 Z M173 91 C138.333 91 115 117.333 115 164 C115 213.333 134.333 238 173 238 C209.667 238 228 213.333 228 164 C228 117.333 206.333 91 173 91 Z M173 467 C138.333 467 115 493.333 115 540 C115 589.333 134.333 614 173 614 C209.667 614 228 589.333 228 540 C228 493.333 206.333 467 173 467 Z " />
<glyph glyph-name="oslash" unicode="&#xf8;" horiz-adv-x="375" d="M70 43 C31.3333 93.6667 15 180 15 276 C15 440.442 65.7706 557 175 557 C193 557 211.333 552.667 230 544 L244 588 L301 556 L282 497 C316.667 449 337 375 337 275 C337 119.39 300.13 -10 176 -10 C156 -10 139 -6.66667 123 0 L105 -56 L49 -24 L70 43 Z M141 265 L193 429 C188.333 439 182.667 444 176 444 C152.667 444 141 387.667 141 275 L141 265 Z M212 278 L160 115 C164 106.333 169.333 102 176 102 C200 102 212 159.667 212 275 L212 278 Z " />
<glyph glyph-name="ugrave" unicode="&#xf9;" horiz-adv-x="375" >
<path fill="black" d="M17 546 L138 546 L138 222 C138 138 144 103 172 103 C202.667 103 204 153.667 204 271 L204 546 L324 546 L324 0 L225 0 L210 71 L204 71 C183.333 17 156.333 -10 123 -10 C59 -10 17 52.6667 17 186 L17 546 Z " /><g transform="translate(-1,0)" ><path fill="black" d="M64 766 L192 766 C199.981 723.437 226.029 650.914 237 618 L237 606 L157 606 C136.219 637.172 79.456 718.36 64 757 L64 766 Z " /></g></glyph>
<glyph glyph-name="uacute" unicode="&#xfa;" horiz-adv-x="375" >
<path fill="black" d="M17 546 L138 546 L138 222 C138 138 144 103 172 103 C202.667 103 204 153.667 204 271 L204 546 L324 546 L324 0 L225 0 L210 71 L204 71 C183.333 17 156.333 -10 123 -10 C59 -10 17 52.6667 17 186 L17 546 Z " /><g transform="translate(19,0)" ><path fill="black" d="M99 606 L99 618 C119 672.667 132.333 720.667 143 766 L271 766 L271 757 C255.257 717.642 207.822 646.666 178 606 L99 606 Z " /></g></glyph>
<glyph glyph-name="ucircumflex" unicode="&#xfb;" horiz-adv-x="375" >
<path fill="black" d="M17 546 L138 546 L138 222 C138 138 144 103 172 103 C202.667 103 204 153.667 204 271 L204 546 L324 546 L324 0 L225 0 L210 71 L204 71 C183.333 17 156.333 -10 123 -10 C59 -10 17 52.6667 17 186 L17 546 Z " /><path fill="black" d="M56 606 L56 618 C77.6194 661.239 107.271 725.765 118 766 L226 766 C240.667 722 260.333 666 287 618 L287 606 L219 606 C205.667 628.667 192 656.333 172 691 C150.667 656.333 136.667 624.667 126 606 L56 606 Z " /></glyph>
<glyph glyph-name="udieresis" unicode="&#xfc;" horiz-adv-x="375" >
<g transform="translate(0,-15)" ><path fill="black" d="M105 619 C75.6667 619 56 642.333 56 685 C56 727.667 75.6667 750 105 750 C135.667 750 156 727.667 156 685 C156 642.333 135.667 619 105 619 Z M237 619 C207.667 619 188 642.333 188 685 C188 727.667 207.667 750 237 750 C267.667 750 288 727.667 288 685 C288 642.333 267.667 619 237 619 Z " /></g><path fill="black" d="M17 546 L138 546 L138 222 C138 138 144 103 172 103 C202.667 103 204 153.667 204 271 L204 546 L324 546 L324 0 L225 0 L210 71 L204 71 C183.333 17 156.333 -10 123 -10 C59 -10 17 52.6667 17 186 L17 546 Z " /></glyph>
<glyph glyph-name="yacute" unicode="&#xfd;" horiz-adv-x="375" >
<path fill="black" d="M14 -131 C24 -135 34.3333 -137 45 -137 C73.1587 -137 114.465 -122.912 125 -36 L127 -2 L-2 546 L130 546 L165 273 C171.667 229 175.333 192.667 178 162 L181 162 C182.333 191.333 188 231.667 192 273 L218 546 L350 546 L235 -52 C208.333 -188 153 -245 65 -245 C48.3333 -245 31.3333 -242.333 14 -237 L14 -131 Z " /><g transform="translate(22,0)" ><path fill="black" d="M99 606 L99 618 C119 672.667 132.333 720.667 143 766 L271 766 L271 757 C255.257 717.642 207.822 646.666 178 606 L99 606 Z " /></g></glyph>
<glyph glyph-name="thorn" unicode="&#xfe;" horiz-adv-x="375" d="M21 -240 L21 730 L139 730 L139 571 C139 536.333 136.333 506.667 131 472 L137 472 C154.333 525.333 181.333 557 220 557 C296.338 557 333 436.749 333 275 C333 95.4935 279.463 -10 218 -10 C186 -10 161.667 18.3333 139 61 L131 61 C133.667 38.3333 139 -8.33333 139 -43 L139 -240 L21 -240 Z M139 274 C139 152.667 148.333 104 179 104 C204.333 104 209 160.667 209 274 C209 388.667 202.667 444 176 444 C153.333 444 139 396.333 139 291 L139 274 Z " />
<glyph glyph-name="ydieresis" unicode="&#xff;" horiz-adv-x="375" >
<g transform="translate(3,-15)" ><path fill="black" d="M105 619 C75.6667 619 56 642.333 56 685 C56 727.667 75.6667 750 105 750 C135.667 750 156 727.667 156 685 C156 642.333 135.667 619 105 619 Z M237 619 C207.667 619 188 642.333 188 685 C188 727.667 207.667 750 237 750 C267.667 750 288 727.667 288 685 C288 642.333 267.667 619 237 619 Z " /></g><path fill="black" d="M14 -131 C24 -135 34.3333 -137 45 -137 C73.1587 -137 114.465 -122.912 125 -36 L127 -2 L-2 546 L130 546 L165 273 C171.667 229 175.333 192.667 178 162 L181 162 C182.333 191.333 188 231.667 192 273 L218 546 L350 546 L235 -52 C208.333 -188 153 -245 65 -245 C48.3333 -245 31.3333 -242.333 14 -237 L14 -131 Z " /></glyph>
<glyph glyph-name="Amacron" unicode="&#x100;" horiz-adv-x="375" >
<path fill="black" d="M84 715 L258 715 L338 0 L221 0 L208 183 L138 183 L126 0 L7 0 L84 715 Z M200 294 L187 476 C184.333 517.333 174.667 575.333 172 614 C169.333 575.333 160.667 517.333 158 476 L146 294 L200 294 Z " /><g transform="translate(7,149)" ><path fill="black" d="M67 723 L263 723 L263 637 L67 637 L67 723 Z " /></g></glyph>
<glyph glyph-name="amacron" unicode="&#x101;" horiz-adv-x="375" >
<path fill="black" d="M215 75 C189.667 18.3333 160.333 -10 127 -10 C64.3333 -10 25 51.3333 25 158 C25 279.333 72 334 148 338 L210 341 L210 360 C210 422.667 186.667 445 160 445 C130.667 445 106.667 430.333 84 409 L44 508 C82.6667 538.667 123.667 557 177 557 C271.667 557 325 496.333 325 371 L325 0 L234 0 L216 75 L215 75 Z M210 254 L182 250 C156.667 247.333 140 222.333 140 169 C140 122.333 155.667 103 169 103 C185 103 210 138.333 210 213 L210 254 Z " /><g transform="translate(20,-20)" ><path fill="black" d="M67 723 L263 723 L263 637 L67 637 L67 723 Z " /></g></glyph>
<glyph glyph-name="Abreve" unicode="&#x102;" horiz-adv-x="375" >
<path fill="black" d="M84 715 L258 715 L338 0 L221 0 L208 183 L138 183 L126 0 L7 0 L84 715 Z M200 294 L187 476 C184.333 517.333 174.667 575.333 172 614 C169.333 575.333 160.667 517.333 158 476 L146 294 L200 294 Z " /><g transform="translate(0,169)" ><path fill="black" d="M133 762 C133.667 715.333 146.333 692 171 692 C193.667 692 209.333 712.667 212 762 L278 762 C280.667 666 236.333 608 171 608 C109.667 608 65 660.667 65 762 L133 762 Z " /></g></glyph>
<glyph glyph-name="abreve" unicode="&#x103;" horiz-adv-x="375" >
<path fill="black" d="M215 75 C189.667 18.3333 160.333 -10 127 -10 C64.3333 -10 25 51.3333 25 158 C25 279.333 72 334 148 338 L210 341 L210 360 C210 422.667 186.667 445 160 445 C130.667 445 106.667 430.333 84 409 L44 508 C82.6667 538.667 123.667 557 177 557 C271.667 557 325 496.333 325 371 L325 0 L234 0 L216 75 L215 75 Z M210 254 L182 250 C156.667 247.333 140 222.333 140 169 C140 122.333 155.667 103 169 103 C185 103 210 138.333 210 213 L210 254 Z " /><g transform="translate(13,0)" ><path fill="black" d="M133 762 C133.667 715.333 146.333 692 171 692 C193.667 692 209.333 712.667 212 762 L278 762 C280.667 666 236.333 608 171 608 C109.667 608 65 660.667 65 762 L133 762 Z " /></g></glyph>
<glyph glyph-name="Aogonek" unicode="&#x104;" horiz-adv-x="375" d="M84 715 L258 715 L338 2 L346 0 C318 -45.3333 317 -74.6667 317 -108 C317 -136 327 -154 343 -154 C355 -154 359.333 -150 366 -146 L366 -222 C353.333 -230 337.333 -234 318 -234 C258 -234 232 -198 232 -134 C232 -88.6667 245.333 -41.3333 276 0 L221 0 L208 183 L138 183 L126 0 L7 0 L84 715 Z M200 294 L187 476 C184.333 517.333 174.667 575.333 172 614 C169.333 575.333 160.667 517.333 158 476 L146 294 L200 294 Z " />
<glyph glyph-name="aogonek" unicode="&#x105;" horiz-adv-x="375" d="M219 75 L218 75 C192.667 18.3333 163.333 -10 130 -10 C67.3333 -10 28 51.3333 28 158 C28 279.333 75 334 151 338 L213 341 L213 360 C213 422.667 189.667 445 163 445 C133.667 445 109.667 430.333 87 409 L47 508 C85.6667 538.667 126.667 557 180 557 C274.667 557 328 496.333 328 371 L328 0 L329 0 C301 -45.3333 300 -74.6667 300 -108 C300 -136 310 -154 326 -154 C338 -154 342.333 -150 349 -146 L349 -222 C336.333 -230 320.333 -234 301 -234 C241 -234 215 -198 215 -134 C215 -88.6667 228.333 -41.3333 259 0 L237 0 L219 75 Z M213 254 L185 250 C159.667 247.333 143 222.333 143 169 C143 122.333 158.667 103 172 103 C188 103 213 138.333 213 213 L213 254 Z " />
<glyph glyph-name="Cacute" unicode="&#x106;" horiz-adv-x="375" >
<path fill="black" d="M312 25 C278.667 1 240.667 -10 202 -10 C82 -10 19 122.667 19 348 C19 571.948 89.5628 726 207 726 C263 726 297 709.667 333 679 L297 574 C274.333 599.333 247.667 610 225 610 C168.03 610 141 505.944 141 353 C141 194.333 168.333 105 223 105 C253.667 105 281.333 121.667 312 143 L312 25 Z " /><g transform="translate(50,168)" ><path fill="black" d="M99 606 L99 618 C119 672.667 132.333 720.667 143 766 L271 766 L271 757 C255.257 717.642 207.822 646.666 178 606 L99 606 Z " /></g></glyph>
<glyph glyph-name="cacute" unicode="&#x107;" horiz-adv-x="375" >
<path fill="black" d="M311 25 C280.333 1 240.667 -10 206 -10 C109.974 -10 27 76.3593 27 271 C27 445.874 78.6926 557 204 557 C246.667 557 291.333 545.333 326 520 L288 415 C265.333 433.667 245.667 443 215 443 C168.333 443 152 384.667 152 274 C152 154 182 104 222 104 C248.667 104 281.667 116.333 311 147 L311 25 Z " /><g transform="translate(46,0)" ><path fill="black" d="M99 606 L99 618 C119 672.667 132.333 720.667 143 766 L271 766 L271 757 C255.257 717.642 207.822 646.666 178 606 L99 606 Z " /></g></glyph>
<glyph glyph-name="Ccircumflex" unicode="&#x108;" horiz-adv-x="375" >
<path fill="black" d="M312 25 C278.667 1 240.667 -10 202 -10 C82 -10 19 122.667 19 348 C19 571.948 89.5628 726 207 726 C263 726 297 709.667 333 679 L297 574 C274.333 599.333 247.667 610 225 610 C168.03 610 141 505.944 141 353 C141 194.333 168.333 105 223 105 C253.667 105 281.333 121.667 312 143 L312 25 Z " /><g transform="translate(31,168)" ><path fill="black" d="M56 606 L56 618 C77.6194 661.239 107.271 725.765 118 766 L226 766 C240.667 722 260.333 666 287 618 L287 606 L219 606 C205.667 628.667 192 656.333 172 691 C150.667 656.333 136.667 624.667 126 606 L56 606 Z " /></g></glyph>
<glyph glyph-name="ccircumflex" unicode="&#x109;" horiz-adv-x="375" >
<path fill="black" d="M311 25 C280.333 1 240.667 -10 206 -10 C109.974 -10 27 76.3593 27 271 C27 445.874 78.6926 557 204 557 C246.667 557 291.333 545.333 326 520 L288 415 C265.333 433.667 245.667 443 215 443 C168.333 443 152 384.667 152 274 C152 154 182 104 222 104 C248.667 104 281.667 116.333 311 147 L311 25 Z " /><g transform="translate(27,0)" ><path fill="black" d="M56 606 L56 618 C77.6194 661.239 107.271 725.765 118 766 L226 766 C240.667 722 260.333 666 287 618 L287 606 L219 606 C205.667 628.667 192 656.333 172 691 C150.667 656.333 136.667 624.667 126 606 L56 606 Z " /></g></glyph>
<glyph glyph-name="Cdotaccent" unicode="&#x10a;" horiz-adv-x="375" >
<path fill="black" d="M312 25 C278.667 1 240.667 -10 202 -10 C82 -10 19 122.667 19 348 C19 571.948 89.5628 726 207 726 C263 726 297 709.667 333 679 L297 574 C274.333 599.333 247.667 610 225 610 C168.03 610 141 505.944 141 353 C141 194.333 168.333 105 223 105 C253.667 105 281.333 121.667 312 143 L312 25 Z " /><g transform="translate(31,167)" ><path fill="black" d="M172 618 C129.333 618 104 643.333 104 694 C104 744.667 129.333 770 172 770 C216 770 238 744.667 238 694 C238 646 216 618 172 618 Z " /></g></glyph>
<glyph glyph-name="cdotaccent" unicode="&#x10b;" horiz-adv-x="375" >
<path fill="black" d="M311 25 C280.333 1 240.667 -10 206 -10 C109.974 -10 27 76.3593 27 271 C27 445.874 78.6926 557 204 557 C246.667 557 291.333 545.333 326 520 L288 415 C265.333 433.667 245.667 443 215 443 C168.333 443 152 384.667 152 274 C152 154 182 104 222 104 C248.667 104 281.667 116.333 311 147 L311 25 Z " /><g transform="translate(27,-1)" ><path fill="black" d="M172 618 C129.333 618 104 643.333 104 694 C104 744.667 129.333 770 172 770 C216 770 238 744.667 238 694 C238 646 216 618 172 618 Z " /></g></glyph>
<glyph glyph-name="Ccaron" unicode="&#x10c;" horiz-adv-x="375" >
<path fill="black" d="M312 25 C278.667 1 240.667 -10 202 -10 C82 -10 19 122.667 19 348 C19 571.948 89.5628 726 207 726 C263 726 297 709.667 333 679 L297 574 C274.333 599.333 247.667 610 225 610 C168.03 610 141 505.944 141 353 C141 194.333 168.333 105 223 105 C253.667 105 281.333 121.667 312 143 L312 25 Z " /><g transform="translate(31,168)" ><path fill="black" d="M56 766 L126 766 C139.333 744.667 153 715.667 173 681 C193 718.333 204.333 740.667 219 766 L288 766 L288 754 C269.35 714.036 240.322 648.63 227 606 L118 606 C107.29 646.161 77.4005 713.874 56 754 L56 766 Z " /></g></glyph>
<glyph glyph-name="ccaron" unicode="&#x10d;" horiz-adv-x="375" >
<path fill="black" d="M311 25 C280.333 1 240.667 -10 206 -10 C109.974 -10 27 76.3593 27 271 C27 445.874 78.6926 557 204 557 C246.667 557 291.333 545.333 326 520 L288 415 C265.333 433.667 245.667 443 215 443 C168.333 443 152 384.667 152 274 C152 154 182 104 222 104 C248.667 104 281.667 116.333 311 147 L311 25 Z " /><g transform="translate(27,0)" ><path fill="black" d="M56 766 L126 766 C139.333 744.667 153 715.667 173 681 C193 718.333 204.333 740.667 219 766 L288 766 L288 754 C269.35 714.036 240.322 648.63 227 606 L118 606 C107.29 646.161 77.4005 713.874 56 754 L56 766 Z " /></g></glyph>
<glyph glyph-name="Dcaron" unicode="&#x10e;" horiz-adv-x="375" >
<path fill="black" d="M16 0 L16 714 L169 714 C272.004 714 338 584.974 338 369 C338 135.225 258.364 0 166 0 L16 0 Z M135 116 L152 116 C194.667 116 214 206.667 214 360 C214 526.667 192 598 156 598 L135 598 L135 116 Z " /><g transform="translate(-4,168)" ><path fill="black" d="M56 766 L126 766 C139.333 744.667 153 715.667 173 681 C193 718.333 204.333 740.667 219 766 L288 766 L288 754 C269.35 714.036 240.322 648.63 227 606 L118 606 C107.29 646.161 77.4005 713.874 56 754 L56 766 Z " /></g></glyph>
<glyph glyph-name="dcaron" unicode="&#x10f;" horiz-adv-x="375" d="M191 74 L185 74 C170.333 20.6667 146.667 -10 116 -10 C44.1818 -10 5 100.255 5 271 C5 451 47.3333 557 118 557 C140.667 557 163.333 533 182 477 L189 477 C186.333 503.667 182 540 182 576 L182 760 L299 760 L299 0 L201 0 L191 74 Z M184 280 C184 401.333 172.667 444 154 444 C124.667 444 122 383.333 122 270 C122 156.667 126.667 104 152 104 C170.667 104 184 151.333 184 262 L184 280 Z M307 600 L307 608 C312.213 639.276 318 723.221 318 760 L428 760 L428 753 C417.333 705 400.667 642.667 382 600 L307 600 Z " />
<glyph glyph-name="Dcroat" unicode="&#x110;" horiz-adv-x="375" >
<path fill="black" d="M26 314 L3 314 L3 411 L26 411 L26 714 L179 714 C282.004 714 348 584.974 348 369 C348 135.225 268.364 0 176 0 L26 0 L26 314 Z M162 116 C204.667 116 224 206.667 224 360 C224 526.667 202 598 166 598 L145 598 L145 411 L181 411 L181 314 L145 314 L145 116 L162 116 Z " /></glyph>
<glyph glyph-name="dcroat" unicode="&#x111;" horiz-adv-x="375" d="M216 74 L210 74 C191.333 20.6667 162.667 -10 132 -10 C54.6926 -10 11 96.9177 11 264 C11 438.667 57 543 133 543 C159.667 543 186.667 515.333 208 462 L213 462 C211.667 488.667 207 527.667 207 573 L207 591 L136 591 L136 679 L207 679 L207 760 L324 760 L324 679 L341 679 L341 591 L324 591 L324 0 L226 0 L216 74 Z M172 104 C194.667 104 209 148.667 209 246 L209 264 C209 380 202 429 174 429 C140.667 429 132 371.333 132 262 C132 155.333 142.667 104 172 104 Z " />
<glyph glyph-name="Emacron" unicode="&#x112;" horiz-adv-x="375" >
<path fill="black" d="M324 116 L324 0 L26 0 L26 714 L324 714 L324 597 L147 597 L147 423 L312 423 L312 307 L147 307 L147 116 L324 116 Z " /><g transform="translate(11,148)" ><path fill="black" d="M67 723 L263 723 L263 637 L67 637 L67 723 Z " /></g></glyph>
<glyph glyph-name="emacron" unicode="&#x113;" horiz-adv-x="375" >
<path fill="black" d="M308 28 C281.333 5.33333 245.667 -10 191 -10 C77.6667 -10 12 87.3333 12 270 C12 443.359 71.2814 557 178 557 C266 557 328 470.667 328 304 L328 232 L135 232 C137.667 141.333 171.333 101 206 101 C251.333 101 284 116.667 308 142 L308 28 Z M213 325 C211 406.333 198.333 447 175 447 C148.333 447 135 405 135 325 L213 325 Z " /><g transform="translate(13,-20)" ><path fill="black" d="M67 723 L263 723 L263 637 L67 637 L67 723 Z " /></g></glyph>
<glyph glyph-name="Ebreve" unicode="&#x114;" horiz-adv-x="375" >
<path fill="black" d="M324 116 L324 0 L26 0 L26 714 L324 714 L324 597 L147 597 L147 423 L312 423 L312 307 L147 307 L147 116 L324 116 Z " /><g transform="translate(4,168)" ><path fill="black" d="M133 762 C133.667 715.333 146.333 692 171 692 C193.667 692 209.333 712.667 212 762 L278 762 C280.667 666 236.333 608 171 608 C109.667 608 65 660.667 65 762 L133 762 Z " /></g></glyph>
<glyph glyph-name="ebreve" unicode="&#x115;" horiz-adv-x="375" >
<path fill="black" d="M308 28 C281.333 5.33333 245.667 -10 191 -10 C77.6667 -10 12 87.3333 12 270 C12 443.359 71.2814 557 178 557 C266 557 328 470.667 328 304 L328 232 L135 232 C137.667 141.333 171.333 101 206 101 C251.333 101 284 116.667 308 142 L308 28 Z M213 325 C211 406.333 198.333 447 175 447 C148.333 447 135 405 135 325 L213 325 Z " /><g transform="translate(6,0)" ><path fill="black" d="M133 762 C133.667 715.333 146.333 692 171 692 C193.667 692 209.333 712.667 212 762 L278 762 C280.667 666 236.333 608 171 608 C109.667 608 65 660.667 65 762 L133 762 Z " /></g></glyph>
<glyph glyph-name="Edotaccent" unicode="&#x116;" horiz-adv-x="375" >
<path fill="black" d="M324 116 L324 0 L26 0 L26 714 L324 714 L324 597 L147 597 L147 423 L312 423 L312 307 L147 307 L147 116 L324 116 Z " /><g transform="translate(4,167)" ><path fill="black" d="M172 618 C129.333 618 104 643.333 104 694 C104 744.667 129.333 770 172 770 C216 770 238 744.667 238 694 C238 646 216 618 172 618 Z " /></g></glyph>
<glyph glyph-name="edotaccent" unicode="&#x117;" horiz-adv-x="375" >
<path fill="black" d="M308 28 C281.333 5.33333 245.667 -10 191 -10 C77.6667 -10 12 87.3333 12 270 C12 443.359 71.2814 557 178 557 C266 557 328 470.667 328 304 L328 232 L135 232 C137.667 141.333 171.333 101 206 101 C251.333 101 284 116.667 308 142 L308 28 Z M213 325 C211 406.333 198.333 447 175 447 C148.333 447 135 405 135 325 L213 325 Z " /><g transform="translate(6,-1)" ><path fill="black" d="M172 618 C129.333 618 104 643.333 104 694 C104 744.667 129.333 770 172 770 C216 770 238 744.667 238 694 C238 646 216 618 172 618 Z " /></g></glyph>
<glyph glyph-name="Eogonek" unicode="&#x118;" horiz-adv-x="375" d="M29 714 L327 714 L327 597 L150 597 L150 423 L315 423 L315 307 L150 307 L150 116 L327 116 L327 0 L319 0 C291 -45.3333 290 -74.6667 290 -108 C290 -136 300 -154 316 -154 C328 -154 332.333 -150 339 -146 L339 -222 C326.333 -230 310.333 -234 291 -234 C231 -234 205 -198 205 -134 C205 -88.6667 218.333 -41.3333 249 0 L29 0 L29 714 Z " />
<glyph glyph-name="eogonek" unicode="&#x119;" horiz-adv-x="375" d="M190 -10 C76.6667 -10 11 87.3333 11 270 C11 443.359 70.2814 557 177 557 C265 557 327 470.667 327 304 L327 232 L134 232 C136.667 141.333 170.333 101 205 101 C250.333 101 283 116.667 307 142 L307 28 C304.333 25.3333 299.667 22.6667 297 20 C258.333 -29.3333 254 -66.3333 254 -101 C254 -135.667 263 -153 281 -153 C287.667 -153 294 -150.667 300 -146 L300 -222 C290 -230 274.667 -234 254 -234 C195.333 -234 170 -188.667 170 -122 C170 -74 184.667 -39.3333 206 -10 L190 -10 Z M212 325 C210 406.333 197.333 447 174 447 C147.333 447 134 405 134 325 L212 325 Z " />
<glyph glyph-name="Ecaron" unicode="&#x11a;" horiz-adv-x="375" >
<path fill="black" d="M324 116 L324 0 L26 0 L26 714 L324 714 L324 597 L147 597 L147 423 L312 423 L312 307 L147 307 L147 116 L324 116 Z " /><g transform="translate(4,168)" ><path fill="black" d="M56 766 L126 766 C139.333 744.667 153 715.667 173 681 C193 718.333 204.333 740.667 219 766 L288 766 L288 754 C269.35 714.036 240.322 648.63 227 606 L118 606 C107.29 646.161 77.4005 713.874 56 754 L56 766 Z " /></g></glyph>
<glyph glyph-name="ecaron" unicode="&#x11b;" horiz-adv-x="375" >
<path fill="black" d="M308 28 C281.333 5.33333 245.667 -10 191 -10 C77.6667 -10 12 87.3333 12 270 C12 443.359 71.2814 557 178 557 C266 557 328 470.667 328 304 L328 232 L135 232 C137.667 141.333 171.333 101 206 101 C251.333 101 284 116.667 308 142 L308 28 Z M213 325 C211 406.333 198.333 447 175 447 C148.333 447 135 405 135 325 L213 325 Z " /><g transform="translate(6,0)" ><path fill="black" d="M56 766 L126 766 C139.333 744.667 153 715.667 173 681 C193 718.333 204.333 740.667 219 766 L288 766 L288 754 C269.35 714.036 240.322 648.63 227 606 L118 606 C107.29 646.161 77.4005 713.874 56 754 L56 766 Z " /></g></glyph>
<glyph glyph-name="Gcircumflex" unicode="&#x11c;" horiz-adv-x="375" >
<path fill="black" d="M217 287 L188 287 L188 400 L330 400 L330 29 C287.333 1 249.333 -10 208 -10 C72 -10 8 122.333 8 345 C8 584.004 88 726 216 726 C269.333 726 304 707.667 332 681 L298 577 C270 602.333 252.667 611 226 611 C162 611 128 521.333 128 348 C128 209.307 150.004 105 191 105 C198.333 105 207 108.333 217 115 L217 287 Z " /><g transform="translate(29,168)" ><path fill="black" d="M56 606 L56 618 C77.6194 661.239 107.271 725.765 118 766 L226 766 C240.667 722 260.333 666 287 618 L287 606 L219 606 C205.667 628.667 192 656.333 172 691 C150.667 656.333 136.667 624.667 126 606 L56 606 Z " /></g></glyph>
<glyph glyph-name="gcircumflex" unicode="&#x11d;" horiz-adv-x="375" >
<path fill="black" d="M35 -90 C77.6667 -120.667 115.667 -132 141 -132 C179.667 -132 205 -92.3333 205 -15 L205 6 C205 27.3333 206 50.3333 206 69 L203 69 C179 10.3333 157 -10 133 -10 C54.3333 -10 11 95 11 271 C11 447.052 57.9264 557 131 557 C157.667 557 178.333 534.333 205 477 L212 477 L223 546 L324 546 L324 6 C324 -158 270 -245 150 -245 C104.667 -245 72.3333 -232.667 35 -206 L35 -90 Z M208 273 C208 394.333 200.667 444 178 444 C148.667 444 140 382.333 140 269 C140 161 146.333 104 177 104 C193 104 208 144.667 208 254 L208 273 Z " /><path fill="black" d="M56 606 L56 618 C77.6194 661.239 107.271 725.765 118 766 L226 766 C240.667 722 260.333 666 287 618 L287 606 L219 606 C205.667 628.667 192 656.333 172 691 C150.667 656.333 136.667 624.667 126 606 L56 606 Z " /></glyph>
<glyph glyph-name="Gbreve" unicode="&#x11e;" horiz-adv-x="375" >
<path fill="black" d="M217 287 L188 287 L188 400 L330 400 L330 29 C287.333 1 249.333 -10 208 -10 C72 -10 8 122.333 8 345 C8 584.004 88 726 216 726 C269.333 726 304 707.667 332 681 L298 577 C270 602.333 252.667 611 226 611 C162 611 128 521.333 128 348 C128 209.307 150.004 105 191 105 C198.333 105 207 108.333 217 115 L217 287 Z " /><g transform="translate(29,168)" ><path fill="black" d="M133 762 C133.667 715.333 146.333 692 171 692 C193.667 692 209.333 712.667 212 762 L278 762 C280.667 666 236.333 608 171 608 C109.667 608 65 660.667 65 762 L133 762 Z " /></g></glyph>
<glyph glyph-name="gbreve" unicode="&#x11f;" horiz-adv-x="375" >
<path fill="black" d="M35 -90 C77.6667 -120.667 115.667 -132 141 -132 C179.667 -132 205 -92.3333 205 -15 L205 6 C205 27.3333 206 50.3333 206 69 L203 69 C179 10.3333 157 -10 133 -10 C54.3333 -10 11 95 11 271 C11 447.052 57.9264 557 131 557 C157.667 557 178.333 534.333 205 477 L212 477 L223 546 L324 546 L324 6 C324 -158 270 -245 150 -245 C104.667 -245 72.3333 -232.667 35 -206 L35 -90 Z M208 273 C208 394.333 200.667 444 178 444 C148.667 444 140 382.333 140 269 C140 161 146.333 104 177 104 C193 104 208 144.667 208 254 L208 273 Z " /><path fill="black" d="M133 762 C133.667 715.333 146.333 692 171 692 C193.667 692 209.333 712.667 212 762 L278 762 C280.667 666 236.333 608 171 608 C109.667 608 65 660.667 65 762 L133 762 Z " /></glyph>
<glyph glyph-name="Gdotaccent" unicode="&#x120;" horiz-adv-x="375" >
<path fill="black" d="M217 287 L188 287 L188 400 L330 400 L330 29 C287.333 1 249.333 -10 208 -10 C72 -10 8 122.333 8 345 C8 584.004 88 726 216 726 C269.333 726 304 707.667 332 681 L298 577 C270 602.333 252.667 611 226 611 C162 611 128 521.333 128 348 C128 209.307 150.004 105 191 105 C198.333 105 207 108.333 217 115 L217 287 Z " /><g transform="translate(29,167)" ><path fill="black" d="M172 618 C129.333 618 104 643.333 104 694 C104 744.667 129.333 770 172 770 C216 770 238 744.667 238 694 C238 646 216 618 172 618 Z " /></g></glyph>
<glyph glyph-name="gdotaccent" unicode="&#x121;" horiz-adv-x="375" >
<path fill="black" d="M35 -90 C77.6667 -120.667 115.667 -132 141 -132 C179.667 -132 205 -92.3333 205 -15 L205 6 C205 27.3333 206 50.3333 206 69 L203 69 C179 10.3333 157 -10 133 -10 C54.3333 -10 11 95 11 271 C11 447.052 57.9264 557 131 557 C157.667 557 178.333 534.333 205 477 L212 477 L223 546 L324 546 L324 6 C324 -158 270 -245 150 -245 C104.667 -245 72.3333 -232.667 35 -206 L35 -90 Z M208 273 C208 394.333 200.667 444 178 444 C148.667 444 140 382.333 140 269 C140 161 146.333 104 177 104 C193 104 208 144.667 208 254 L208 273 Z " /><g transform="translate(0,-1)" ><path fill="black" d="M172 618 C129.333 618 104 643.333 104 694 C104 744.667 129.333 770 172 770 C216 770 238 744.667 238 694 C238 646 216 618 172 618 Z " /></g></glyph>
<glyph glyph-name="uni0122" unicode="&#x122;" horiz-adv-x="375" >
<path fill="black" d="M217 287 L188 287 L188 400 L330 400 L330 29 C287.333 1 249.333 -10 208 -10 C72 -10 8 122.333 8 345 C8 584.004 88 726 216 726 C269.333 726 304 707.667 332 681 L298 577 C270 602.333 252.667 611 226 611 C162 611 128 521.333 128 348 C128 209.307 150.004 105 191 105 C198.333 105 207 108.333 217 115 L217 287 Z " /><g transform="translate(574,0)" ><path fill="black" d="M-442 -221 L-442 -213 C-439.331 -180.974 -431 -98.3531 -431 -61 L-321 -61 L-321 -68 C-331.667 -116 -348.333 -178.333 -367 -221 L-442 -221 Z " /></g></glyph>
<glyph glyph-name="uni0123" unicode="&#x123;" horiz-adv-x="375" d="M38 -90 C80.6667 -120.667 118.667 -132 144 -132 C182.667 -132 208 -92.3333 208 -15 L208 6 C208 27.3333 209 50.3333 209 69 L206 69 C182 10.3333 160 -10 136 -10 C57.3333 -10 14 95 14 271 C14 447.052 60.9264 557 134 557 C160.667 557 181.333 534.333 208 477 L215 477 L226 546 L327 546 L327 6 C327 -158 273 -245 153 -245 C107.667 -245 75.3333 -232.667 38 -206 L38 -90 Z M211 273 C211 394.333 203.667 444 181 444 C151.667 444 143 382.333 143 269 C143 161 149.333 104 180 104 C196 104 211 144.667 211 254 L211 273 Z M110 606 L110 614 C118 660.667 136.667 719.333 158 766 L233 766 L233 757 C226.333 707.667 221.333 644.667 220 606 L110 606 Z " />
<glyph glyph-name="Hcircumflex" unicode="&#x124;" horiz-adv-x="375" >
<path fill="black" d="M16 0 L16 714 L135 714 L135 427 L211 427 L211 714 L330 714 L330 0 L211 0 L211 310 L135 310 L135 0 L16 0 Z " /><g transform="translate(1,168)" ><path fill="black" d="M56 606 L56 618 C77.6194 661.239 107.271 725.765 118 766 L226 766 C240.667 722 260.333 666 287 618 L287 606 L219 606 C205.667 628.667 192 656.333 172 691 C150.667 656.333 136.667 624.667 126 606 L56 606 Z " /></g></glyph>
<glyph glyph-name="hcircumflex" unicode="&#x125;" horiz-adv-x="375" >
<path fill="black" d="M21 0 L21 760 L141 760 L141 588 C141 549.333 138.667 512.333 132 475 L139 475 C156.333 525.667 183 557 219 557 C287 557 327 489 327 357 L327 0 L208 0 L208 318 C208 396.667 210.667 440 176 440 C142.667 440 141 381.667 141 279 L141 0 L21 0 Z " /><g transform="translate(-91,214)" ><path fill="black" d="M56 606 L56 618 C77.6194 661.239 107.271 725.765 118 766 L226 766 C240.667 722 260.333 666 287 618 L287 606 L219 606 C205.667 628.667 192 656.333 172 691 C150.667 656.333 136.667 624.667 126 606 L56 606 Z " /></g></glyph>
<glyph glyph-name="Hbar" unicode="&#x126;" horiz-adv-x="375" d="M21 525 L3 525 L3 615 L21 615 L21 714 L141 714 L141 615 L202 615 L202 714 L322 714 L322 615 L341 615 L341 525 L322 525 L322 0 L202 0 L202 310 L141 310 L141 0 L21 0 L21 525 Z M202 427 L202 525 L141 525 L141 427 L202 427 Z " />
<glyph glyph-name="hbar" unicode="&#x127;" horiz-adv-x="375" d="M20 591 L3 591 L3 679 L20 679 L20 760 L141 760 L141 679 L208 679 L208 591 L141 591 L141 581 C141 542.333 137.333 505 132 469 L139 469 C155 518.333 183 550 219 550 C285.667 550 327 483.333 327 350 L327 0 L207 0 L207 312 C207 389.333 209.667 433 175 433 C141.667 433 141 374.667 141 272 L141 0 L20 0 L20 591 Z " />
<glyph glyph-name="Itilde" unicode="&#x128;" horiz-adv-x="375" >
<path fill="black" d="M29 93 L115 107 L115 608 L29 621 L29 714 L316 714 L316 621 L233 608 L233 107 L316 93 L316 0 L29 0 L29 93 Z " /><g transform="translate(-1,168)" ><path fill="black" d="M59 610 C59 672.952 65.5628 753 119 753 C155.556 753 184.111 701 210 701 C223.333 701 222.667 718 228 754 L286 754 C283.333 658 258.667 611 224 611 C188.902 611 153.569 664 134 664 C123.333 664 119.667 648.667 117 610 L59 610 Z " /></g></glyph>
<glyph glyph-name="itilde" unicode="&#x129;" horiz-adv-x="345" >
<path fill="black" d="M25 93 L119 108 L119 437 L43 448 L43 546 L238 546 L238 108 L316 93 L316 0 L25 0 L25 93 Z " /><g transform="translate(-1,0)" ><path fill="black" d="M59 610 C59 672.952 65.5628 753 119 753 C155.556 753 184.111 701 210 701 C223.333 701 222.667 718 228 754 L286 754 C283.333 658 258.667 611 224 611 C188.902 611 153.569 664 134 664 C123.333 664 119.667 648.667 117 610 L59 610 Z " /></g></glyph>
<glyph glyph-name="Imacron" unicode="&#x12a;" horiz-adv-x="375" >
<path fill="black" d="M29 93 L115 107 L115 608 L29 621 L29 714 L316 714 L316 621 L233 608 L233 107 L316 93 L316 0 L29 0 L29 93 Z " /><g transform="translate(7,148)" ><path fill="black" d="M67 723 L263 723 L263 637 L67 637 L67 723 Z " /></g></glyph>
<glyph glyph-name="imacron" unicode="&#x12b;" horiz-adv-x="345" >
<path fill="black" d="M25 93 L119 108 L119 437 L43 448 L43 546 L238 546 L238 108 L316 93 L316 0 L25 0 L25 93 Z " /><g transform="translate(7,-20)" ><path fill="black" d="M67 723 L263 723 L263 637 L67 637 L67 723 Z " /></g></glyph>
<glyph glyph-name="Ibreve" unicode="&#x12c;" horiz-adv-x="375" >
<path fill="black" d="M29 93 L115 107 L115 608 L29 621 L29 714 L316 714 L316 621 L233 608 L233 107 L316 93 L316 0 L29 0 L29 93 Z " /><g transform="translate(0,168)" ><path fill="black" d="M133 762 C133.667 715.333 146.333 692 171 692 C193.667 692 209.333 712.667 212 762 L278 762 C280.667 666 236.333 608 171 608 C109.667 608 65 660.667 65 762 L133 762 Z " /></g></glyph>
<glyph glyph-name="ibreve" unicode="&#x12d;" horiz-adv-x="345" >
<path fill="black" d="M25 93 L119 108 L119 437 L43 448 L43 546 L238 546 L238 108 L316 93 L316 0 L25 0 L25 93 Z " /><path fill="black" d="M133 762 C133.667 715.333 146.333 692 171 692 C193.667 692 209.333 712.667 212 762 L278 762 C280.667 666 236.333 608 171 608 C109.667 608 65 660.667 65 762 L133 762 Z " /></glyph>
<glyph glyph-name="Iogonek" unicode="&#x12e;" horiz-adv-x="375" d="M32 93 L118 107 L118 608 L32 621 L32 714 L319 714 L319 621 L236 608 L236 107 L319 93 L319 0 L254 0 C226 -45.3333 225 -74.6667 225 -108 C225 -136 235 -154 251 -154 C263 -154 267.333 -150 274 -146 L274 -222 C261.333 -230 245.333 -234 226 -234 C166 -234 140 -198 140 -134 C140 -88.6667 153.333 -41.3333 184 0 L32 0 L32 93 Z " />
<glyph glyph-name="iogonek" unicode="&#x12f;" horiz-adv-x="375" d="M28 93 L122 108 L122 437 L46 448 L46 546 L241 546 L241 108 L319 93 L319 0 L249 0 C221 -45.3333 220 -74.6667 220 -108 C220 -136 230 -154 246 -154 C258 -154 262.333 -150 269 -146 L269 -222 C256.333 -230 240.333 -234 221 -234 C161 -234 135 -198 135 -134 C135 -88.6667 148.333 -41.3333 179 0 L28 0 L28 93 Z M182 618 C139.333 618 114 643.333 114 694 C114 744.667 139.333 770 182 770 C226 770 248 744.667 248 694 C248 646 226 618 182 618 Z " />
<glyph glyph-name="Idotaccent" unicode="&#x130;" horiz-adv-x="375" >
<path fill="black" d="M29 93 L115 107 L115 608 L29 621 L29 714 L316 714 L316 621 L233 608 L233 107 L316 93 L316 0 L29 0 L29 93 Z " /><g transform="translate(0,167)" ><path fill="black" d="M172 618 C129.333 618 104 643.333 104 694 C104 744.667 129.333 770 172 770 C216 770 238 744.667 238 694 C238 646 216 618 172 618 Z " /></g></glyph>
<glyph glyph-name="dotlessi" unicode="&#x131;" horiz-adv-x="345" d="M25 93 L119 108 L119 437 L43 448 L43 546 L238 546 L238 108 L316 93 L316 0 L25 0 L25 93 Z " />
<glyph glyph-name="IJ" unicode="&#x132;" horiz-adv-x="375" d="M37 124 C65 109.333 87.6667 103 97 103 C149 103 192 150.667 192 260 L192 714 L311 714 L311 232 C311 92.4156 239.874 -10 113 -10 C84.3333 -10 59 -2 37 14 L37 124 Z M36 207 L36 714 L155 714 L155 207 L36 207 Z " />
<glyph glyph-name="ij" unicode="&#x133;" horiz-adv-x="375" d="M77 -113 C106.333 -125.667 129.333 -132 146 -132 C182 -132 191 -102 191 -30 L191 546 L311 546 L311 -49 C311 -179.667 274 -245 170 -245 C142 -245 111 -238 77 -224 L77 -113 Z M38 0 L38 546 L157 546 L157 0 L38 0 Z M245 617 C202.333 617 177 643.333 177 694 C177 744.667 202.333 769 245 769 C291.667 769 315 744 315 694 C315 644.667 289 617 245 617 Z M98 617 C55.3333 617 30 642.333 30 693 C30 743.667 55.3333 769 98 769 C142 769 164 743.667 164 693 C164 645 142 617 98 617 Z " />
<glyph glyph-name="Jcircumflex" unicode="&#x134;" horiz-adv-x="375" >
<path fill="black" d="M28 124 C56 109.333 78.6667 103 88 103 C140 103 183 150.667 183 260 L183 714 L302 714 L302 232 C302 92.4156 230.874 -10 104 -10 C75.3333 -10 50 -2 28 14 L28 124 Z " /><g transform="translate(69,168)" ><path fill="black" d="M56 606 L56 618 C77.6194 661.239 107.271 725.765 118 766 L226 766 C240.667 722 260.333 666 287 618 L287 606 L219 606 C205.667 628.667 192 656.333 172 691 C150.667 656.333 136.667 624.667 126 606 L56 606 Z " /></g></glyph>
<glyph glyph-name="jcircumflex" unicode="&#x135;" horiz-adv-x="345" >
<path fill="black" d="M19 -113 C49.6667 -125 89.3333 -132 104 -132 C138.667 -132 146 -103.333 146 -30 L146 436 L48 448 L48 546 L266 546 L266 -49 C266 -182.333 230 -245 122 -245 C95.3333 -245 53.6667 -238.667 19 -224 L19 -113 Z " /><g transform="translate(31,0)" ><path fill="black" d="M56 606 L56 618 C77.6194 661.239 107.271 725.765 118 766 L226 766 C240.667 722 260.333 666 287 618 L287 606 L219 606 C205.667 628.667 192 656.333 172 691 C150.667 656.333 136.667 624.667 126 606 L56 606 Z " /></g></glyph>
<glyph glyph-name="uni0136" unicode="&#x136;" horiz-adv-x="375" >
<path fill="black" d="M18 0 L18 714 L130 714 L130 367 C140.667 403 157.333 440.333 168 483 L219 714 L342 714 L247 393 L342 0 L213 0 L160 296 L130 240 L130 0 L18 0 Z " /><g transform="translate(550,0)" ><path fill="black" d="M-442 -221 L-442 -213 C-439.331 -180.974 -431 -98.3531 -431 -61 L-321 -61 L-321 -68 C-331.667 -116 -348.333 -178.333 -367 -221 L-442 -221 Z " /></g></glyph>
<glyph glyph-name="uni0137" unicode="&#x137;" horiz-adv-x="375" >
<path fill="black" d="M19 0 L19 760 L130 760 L130 434 C130 387.333 124.667 341.667 122 295 L123 295 C133.667 320.333 146.667 345.333 156 372 L213 546 L342 546 L226 293 L342 0 L210 0 L147 214 L130 183 L130 0 L19 0 Z " /><g transform="translate(546,0)" ><path fill="black" d="M-442 -221 L-442 -213 C-439.331 -180.974 -431 -98.3531 -431 -61 L-321 -61 L-321 -68 C-331.667 -116 -348.333 -178.333 -367 -221 L-442 -221 Z " /></g></glyph>
<glyph glyph-name="kgreenlandic" unicode="&#x138;" horiz-adv-x="375" d="M13 0 L13 546 L130 546 L130 437 C130 390.333 124.667 343.667 122 297 C134 323.667 146.667 348.333 156 375 L208 546 L343 546 L227 292 L343 0 L203 0 L143 212 L130 182 L130 0 L13 0 Z " />
<glyph glyph-name="Lacute" unicode="&#x139;" horiz-adv-x="375" >
<path fill="black" d="M323 117 L323 0 L35 0 L35 714 L157 714 L157 117 L323 117 Z " /><g transform="translate(-57,168)" ><path fill="black" d="M99 606 L99 618 C119 672.667 132.333 720.667 143 766 L271 766 L271 757 C255.257 717.642 207.822 646.666 178 606 L99 606 Z " /></g></glyph>
<glyph glyph-name="lacute" unicode="&#x13a;" horiz-adv-x="375" >
<path fill="black" d="M25 93 L114 108 L114 656 L39 666 L39 760 L233 760 L233 108 L316 93 L316 0 L25 0 L25 93 Z " /><g transform="translate(19,214)" ><path fill="black" d="M99 606 L99 618 C119 672.667 132.333 720.667 143 766 L271 766 L271 757 C255.257 717.642 207.822 646.666 178 606 L99 606 Z " /></g></glyph>
<glyph glyph-name="uni013B" unicode="&#x13b;" horiz-adv-x="375" >
<path fill="black" d="M323 117 L323 0 L35 0 L35 714 L157 714 L157 117 L323 117 Z " /><g transform="translate(562,0)" ><path fill="black" d="M-442 -221 L-442 -213 C-439.331 -180.974 -431 -98.3531 -431 -61 L-321 -61 L-321 -68 C-331.667 -116 -348.333 -178.333 -367 -221 L-442 -221 Z " /></g></glyph>
<glyph glyph-name="uni013C" unicode="&#x13c;" horiz-adv-x="375" >
<path fill="black" d="M25 93 L114 108 L114 656 L39 666 L39 760 L233 760 L233 108 L316 93 L316 0 L25 0 L25 93 Z " /><g transform="translate(551,0)" ><path fill="black" d="M-442 -221 L-442 -213 C-439.331 -180.974 -431 -98.3531 -431 -61 L-321 -61 L-321 -68 C-331.667 -116 -348.333 -178.333 -367 -221 L-442 -221 Z " /></g></glyph>
<glyph glyph-name="Lcaron" unicode="&#x13d;" horiz-adv-x="375" >
<g transform="translate(-1,0)" ><path fill="black" d="M323 117 L323 0 L35 0 L35 714 L157 714 L157 117 L323 117 Z " /></g><g transform="translate(693,775)" ><path fill="black" d="M-442 -221 L-442 -213 C-439.331 -180.974 -431 -98.3531 -431 -61 L-321 -61 L-321 -68 C-331.667 -116 -348.333 -178.333 -367 -221 L-442 -221 Z " /></g></glyph>
<glyph glyph-name="lcaron" unicode="&#x13e;" horiz-adv-x="375" >
<g transform="translate(-1,0)" ><path fill="black" d="M25 93 L114 108 L114 656 L39 666 L39 760 L233 760 L233 108 L316 93 L316 0 L25 0 L25 93 Z " /></g><g transform="translate(742,821)" ><path fill="black" d="M-442 -221 L-442 -213 C-439.331 -180.974 -431 -98.3531 -431 -61 L-321 -61 L-321 -68 C-331.667 -116 -348.333 -178.333 -367 -221 L-442 -221 Z " /></g></glyph>
<glyph glyph-name="Ldot" unicode="&#x13f;" horiz-adv-x="375" >
<g transform="translate(3,0)" ><path fill="black" d="M323 117 L323 0 L35 0 L35 714 L157 714 L157 117 L323 117 Z " /></g><g transform="translate(132,327)" ><path fill="black" d="M173 -12 C134.333 -12 107 16.3333 107 67 C107 119 130.333 146 173 146 C211.667 146 237 120.333 237 67 C237 16.3333 209 -12 173 -12 Z " /></g></glyph>
<glyph glyph-name="ldot" unicode="&#x140;" horiz-adv-x="375" >
<path fill="black" d="M25 93 L114 108 L114 656 L39 666 L39 760 L233 760 L233 108 L316 93 L316 0 L25 0 L25 93 Z " /><g transform="translate(176,332)" ><path fill="black" d="M173 -12 C134.333 -12 107 16.3333 107 67 C107 119 130.333 146 173 146 C211.667 146 237 120.333 237 67 C237 16.3333 209 -12 173 -12 Z " /></g></glyph>
<glyph glyph-name="Lslash" unicode="&#x141;" horiz-adv-x="375" d="M35 282 L-1 256 L-1 350 L35 376 L35 714 L157 714 L157 463 L264 540 L264 446 L157 369 L157 117 L323 117 L323 0 L35 0 L35 282 Z " />
<glyph glyph-name="lslash" unicode="&#x142;" horiz-adv-x="375" d="M28 93 L117 108 L117 306 L47 256 L47 350 L117 400 L117 656 L42 666 L42 760 L236 760 L236 486 L311 540 L311 446 L236 392 L236 108 L319 93 L319 0 L28 0 L28 93 Z " />
<glyph glyph-name="Nacute" unicode="&#x143;" horiz-adv-x="375" >
<path fill="black" d="M20 0 L20 714 L171 714 L234 113 L239 113 C236.327 166.459 228 269.211 228 336 L228 714 L326 714 L326 0 L177 0 L110 606 L105 606 C107.667 522 117 450 117 374 L117 0 L20 0 Z " /><g transform="translate(23,168)" ><path fill="black" d="M99 606 L99 618 C119 672.667 132.333 720.667 143 766 L271 766 L271 757 C255.257 717.642 207.822 646.666 178 606 L99 606 Z " /></g></glyph>
<glyph glyph-name="nacute" unicode="&#x144;" horiz-adv-x="375" >
<path fill="black" d="M21 0 L21 546 L120 546 L134 480 L138 480 C158 529.333 184.333 557 219 557 C287 557 327 495.667 327 357 L327 0 L208 0 L208 337 C208 415.667 198.667 448 180 448 C149.333 448 141 400.333 141 291 L141 0 L21 0 Z " /><g transform="translate(29,0)" ><path fill="black" d="M99 606 L99 618 C119 672.667 132.333 720.667 143 766 L271 766 L271 757 C255.257 717.642 207.822 646.666 178 606 L99 606 Z " /></g></glyph>
<glyph glyph-name="uni0145" unicode="&#x145;" horiz-adv-x="375" >
<path fill="black" d="M20 0 L20 714 L171 714 L234 113 L239 113 C236.327 166.459 228 269.211 228 336 L228 714 L326 714 L326 0 L177 0 L110 606 L105 606 C107.667 522 117 450 117 374 L117 0 L20 0 Z " /><g transform="translate(547,0)" ><path fill="black" d="M-442 -221 L-442 -213 C-439.331 -180.974 -431 -98.3531 -431 -61 L-321 -61 L-321 -68 C-331.667 -116 -348.333 -178.333 -367 -221 L-442 -221 Z " /></g></glyph>
<glyph glyph-name="uni0146" unicode="&#x146;" horiz-adv-x="375" >
<path fill="black" d="M21 0 L21 546 L120 546 L134 480 L138 480 C158 529.333 184.333 557 219 557 C287 557 327 495.667 327 357 L327 0 L208 0 L208 337 C208 415.667 198.667 448 180 448 C149.333 448 141 400.333 141 291 L141 0 L21 0 Z " /><g transform="translate(550,0)" ><path fill="black" d="M-442 -221 L-442 -213 C-439.331 -180.974 -431 -98.3531 -431 -61 L-321 -61 L-321 -68 C-331.667 -116 -348.333 -178.333 -367 -221 L-442 -221 Z " /></g></glyph>
<glyph glyph-name="Ncaron" unicode="&#x147;" horiz-adv-x="375" >
<path fill="black" d="M20 0 L20 714 L171 714 L234 113 L239 113 C236.327 166.459 228 269.211 228 336 L228 714 L326 714 L326 0 L177 0 L110 606 L105 606 C107.667 522 117 450 117 374 L117 0 L20 0 Z " /><g transform="translate(4,168)" ><path fill="black" d="M56 766 L126 766 C139.333 744.667 153 715.667 173 681 C193 718.333 204.333 740.667 219 766 L288 766 L288 754 C269.35 714.036 240.322 648.63 227 606 L118 606 C107.29 646.161 77.4005 713.874 56 754 L56 766 Z " /></g></glyph>
<glyph glyph-name="ncaron" unicode="&#x148;" horiz-adv-x="375" >
<path fill="black" d="M21 0 L21 546 L120 546 L134 480 L138 480 C158 529.333 184.333 557 219 557 C287 557 327 495.667 327 357 L327 0 L208 0 L208 337 C208 415.667 198.667 448 180 448 C149.333 448 141 400.333 141 291 L141 0 L21 0 Z " /><g transform="translate(10,0)" ><path fill="black" d="M56 766 L126 766 C139.333 744.667 153 715.667 173 681 C193 718.333 204.333 740.667 219 766 L288 766 L288 754 C269.35 714.036 240.322 648.63 227 606 L118 606 C107.29 646.161 77.4005 713.874 56 754 L56 766 Z " /></g></glyph>
<glyph glyph-name="napostrophe" unicode="&#x149;" horiz-adv-x="375" d="M27 543 C20.3333 509.667 14 478.333 6 449 L-88 449 C-80.1244 522.505 -68.7075 646.313 -66 714 L48 714 L52 703 C45.3333 647 37.3333 594 28 546 L126 546 L141 475 L148 475 C166.667 529.667 189.333 557 224 557 C288 557 327 495.667 327 357 L327 0 L207 0 L207 322 C207 404.667 198.333 440 177 440 C150.333 440 148 384.333 148 263 L148 0 L27 0 L27 543 Z " />
<glyph glyph-name="Eng" unicode="&#x14a;" horiz-adv-x="375" d="M136 -106 C147.333 -112.667 159 -116 171 -116 C209.667 -116 229 -77.3333 229 0 L177 0 L110 606 L105 606 C107.667 522 117 450 117 374 L117 0 L20 0 L20 714 L171 714 L234 113 L239 113 C236.327 166.459 228 269.211 228 336 L228 714 L326 714 L326 0 L325 0 L325 -1 C325 -134.333 283.333 -208 190 -208 C170.667 -208 152.667 -204.333 136 -197 L136 -106 Z " />
<glyph glyph-name="eng" unicode="&#x14b;" horiz-adv-x="375" d="M143 -125 C154.333 -131 163.667 -134 171 -134 C185.68 -133.784 85.4575 -62.1176 185 113 L208 154 L208 337 C208 415.667 198.667 448 180 448 C149.333 448 141 400.333 141 291 L141 0 L21 0 L21 546 L120 546 L134 480 L138 480 C158 529.333 184.333 557 219 557 C287 557 327 495.667 327 357 L327 0 L322 0 L322 -63 C322 -164.411 284.87 -240 197 -240 C179 -240 161 -236.667 143 -230 L143 -125 Z " />
<glyph glyph-name="Omacron" unicode="&#x14c;" horiz-adv-x="375" >
<path fill="black" d="M172 -8 C59.8961 -8 8 136 8 360 C8 591.948 51.0779 726 171 726 C285.823 726 337 584.563 337 358 C337 134.918 283.974 -8 172 -8 Z M174 108 C211.203 108 215 203.177 215 358 C215 524.667 207.667 609 173 609 C138.333 609 130 516.333 130 359 C130 203 138 108 174 108 Z " /><g transform="translate(7,148)" ><path fill="black" d="M67 723 L263 723 L263 637 L67 637 L67 723 Z " /></g></glyph>
<glyph glyph-name="omacron" unicode="&#x14d;" horiz-adv-x="375" >
<path fill="black" d="M172 -10 C53.619 -10 11 118.719 11 276 C11 440.442 61.7706 557 171 557 C263.416 557 333 456.281 333 275 C333 119.39 296.13 -10 172 -10 Z M172 102 C196 102 208 159.667 208 275 C208 388.333 194.667 444 172 444 C148.667 444 137 387.667 137 275 C137 161.667 148 102 172 102 Z " /><g transform="translate(7,-20)" ><path fill="black" d="M67 723 L263 723 L263 637 L67 637 L67 723 Z " /></g></glyph>
<glyph glyph-name="Obreve" unicode="&#x14e;" horiz-adv-x="375" >
<path fill="black" d="M172 -8 C59.8961 -8 8 136 8 360 C8 591.948 51.0779 726 171 726 C285.823 726 337 584.563 337 358 C337 134.918 283.974 -8 172 -8 Z M174 108 C211.203 108 215 203.177 215 358 C215 524.667 207.667 609 173 609 C138.333 609 130 516.333 130 359 C130 203 138 108 174 108 Z " /><g transform="translate(0,168)" ><path fill="black" d="M133 762 C133.667 715.333 146.333 692 171 692 C193.667 692 209.333 712.667 212 762 L278 762 C280.667 666 236.333 608 171 608 C109.667 608 65 660.667 65 762 L133 762 Z " /></g></glyph>
<glyph glyph-name="obreve" unicode="&#x14f;" horiz-adv-x="375" >
<path fill="black" d="M172 -10 C53.619 -10 11 118.719 11 276 C11 440.442 61.7706 557 171 557 C263.416 557 333 456.281 333 275 C333 119.39 296.13 -10 172 -10 Z M172 102 C196 102 208 159.667 208 275 C208 388.333 194.667 444 172 444 C148.667 444 137 387.667 137 275 C137 161.667 148 102 172 102 Z " /><path fill="black" d="M133 762 C133.667 715.333 146.333 692 171 692 C193.667 692 209.333 712.667 212 762 L278 762 C280.667 666 236.333 608 171 608 C109.667 608 65 660.667 65 762 L133 762 Z " /></glyph>
<glyph glyph-name="Ohungarumlaut" unicode="&#x150;" horiz-adv-x="375" d="M172 -8 C59.8961 -8 8 136 8 360 C8 591.948 51.0779 726 171 726 C285.823 726 337 584.563 337 358 C337 134.918 283.974 -8 172 -8 Z M174 108 C211.203 108 215 203.177 215 358 C215 524.667 207.667 609 173 609 C138.333 609 130 516.333 130 359 C130 203 138 108 174 108 Z M195 773 L195 785 C217.667 842.333 231.333 905 238 933 L337 933 L337 924 C320.671 883.178 277.621 810.269 251 773 L195 773 Z M79 773 L79 785 C101.667 845 114.667 903.667 120 933 L220 933 L220 924 C204.191 881.844 165.959 815.238 129 773 L79 773 Z " />
<glyph glyph-name="ohungarumlaut" unicode="&#x151;" horiz-adv-x="375" d="M172 -10 C53.619 -10 11 118.719 11 276 C11 440.442 61.7706 557 171 557 C263.416 557 333 456.281 333 275 C333 119.39 296.13 -10 172 -10 Z M172 102 C196 102 208 159.667 208 275 C208 388.333 194.667 444 172 444 C148.667 444 137 387.667 137 275 C137 161.667 148 102 172 102 Z M195 605 L195 617 C217.667 674.333 231.333 737 238 765 L337 765 L337 756 C320.671 715.178 277.621 642.269 251 605 L195 605 Z M79 605 L79 617 C101.667 677 114.667 735.667 120 765 L220 765 L220 756 C204.191 713.844 165.959 647.238 129 605 L79 605 Z " />
<glyph glyph-name="OE" unicode="&#x152;" horiz-adv-x="375" d="M332 117 L332 0 L183 0 C166.333 -7.33333 150.333 -11 135 -11 C31.1818 -11 8 133.411 8 360 C8 577.671 33.1818 725 125 725 C139.667 725 154 720.667 178 714 L332 714 L332 597 L274 597 L274 429 L319 429 L319 312 L274 312 L274 117 L332 117 Z M171 603 C161.667 612.333 154 614 146 614 C123.333 614 115 517.667 115 355 C115 192.333 120.333 104 143 104 C153.667 104 160.333 105 171 113 L171 603 Z " />
<glyph glyph-name="oe" unicode="&#x153;" horiz-adv-x="375" d="M333 26 C314.333 2 292 -10 266 -10 C238 -10 208.333 13.6667 187 67 C165.667 15.6667 141 -10 113 -10 C37 -10 11 92.6667 11 278 C11 449.61 28.381 555 110 555 C139.333 555 165.333 531 184 475 C198 528.333 218.333 555 245 555 C320.688 555 339 445.974 339 286 L339 240 L233 240 C234.333 144 249 92 281 92 C295.667 92 315.667 104.333 333 127 L333 26 Z M118 94 C136.667 94 135 158.333 135 277 C135 394.333 135.333 452 118 452 C102 452 100 395.667 100 277 C100 158.333 102 94 118 94 Z M257 329 C257 417 250.333 451 241 451 C231.667 451 226 405 226 329 L257 329 Z " />
<glyph glyph-name="Racute" unicode="&#x154;" horiz-adv-x="375" >
<path fill="black" d="M30 0 L30 714 L155 714 C263.667 714 318 645 318 507 C318 407 301.667 345 259 309 L339 0 L216 0 L163 277 L141 277 L141 0 L30 0 Z M141 384 L151 384 C189.667 384 209 422.333 209 499 C209 575 191.667 607 153 607 L141 607 L141 384 Z " /><g transform="translate(19,168)" ><path fill="black" d="M99 606 L99 618 C119 672.667 132.333 720.667 143 766 L271 766 L271 757 C255.257 717.642 207.822 646.666 178 606 L99 606 Z " /></g></glyph>
<glyph glyph-name="racute" unicode="&#x155;" horiz-adv-x="375" >
<path fill="black" d="M14 93 L79 108 L79 437 L18 448 L18 546 L166 546 L176 454 L183 454 C197.667 514 227 557 275 557 C289.667 557 310.333 552.667 337 538 L306 407 C291.333 417.667 270.667 422 256 422 C214.667 422 193 363 193 275 L193 108 L275 93 L275 0 L14 0 L14 93 Z " /><g transform="translate(29,0)" ><path fill="black" d="M99 606 L99 618 C119 672.667 132.333 720.667 143 766 L271 766 L271 757 C255.257 717.642 207.822 646.666 178 606 L99 606 Z " /></g></glyph>
<glyph glyph-name="uni0156" unicode="&#x156;" horiz-adv-x="375" >
<path fill="black" d="M30 0 L30 714 L155 714 C263.667 714 318 645 318 507 C318 407 301.667 345 259 309 L339 0 L216 0 L163 277 L141 277 L141 0 L30 0 Z M141 384 L151 384 C189.667 384 209 422.333 209 499 C209 575 191.667 607 153 607 L141 607 L141 384 Z " /><g transform="translate(556,0)" ><path fill="black" d="M-442 -221 L-442 -213 C-439.331 -180.974 -431 -98.3531 -431 -61 L-321 -61 L-321 -68 C-331.667 -116 -348.333 -178.333 -367 -221 L-442 -221 Z " /></g></glyph>
<glyph glyph-name="uni0157" unicode="&#x157;" horiz-adv-x="375" >
<path fill="black" d="M14 93 L79 108 L79 437 L18 448 L18 546 L166 546 L176 454 L183 454 C197.667 514 227 557 275 557 C289.667 557 310.333 552.667 337 538 L306 407 C291.333 417.667 270.667 422 256 422 C214.667 422 193 363 193 275 L193 108 L275 93 L275 0 L14 0 L14 93 Z " /><g transform="translate(516,0)" ><path fill="black" d="M-442 -221 L-442 -213 C-439.331 -180.974 -431 -98.3531 -431 -61 L-321 -61 L-321 -68 C-331.667 -116 -348.333 -178.333 -367 -221 L-442 -221 Z " /></g></glyph>
<glyph glyph-name="Rcaron" unicode="&#x158;" horiz-adv-x="375" >
<path fill="black" d="M30 0 L30 714 L155 714 C263.667 714 318 645 318 507 C318 407 301.667 345 259 309 L339 0 L216 0 L163 277 L141 277 L141 0 L30 0 Z M141 384 L151 384 C189.667 384 209 422.333 209 499 C209 575 191.667 607 153 607 L141 607 L141 384 Z " /><g transform="translate(0,168)" ><path fill="black" d="M56 766 L126 766 C139.333 744.667 153 715.667 173 681 C193 718.333 204.333 740.667 219 766 L288 766 L288 754 C269.35 714.036 240.322 648.63 227 606 L118 606 C107.29 646.161 77.4005 713.874 56 754 L56 766 Z " /></g></glyph>
<glyph glyph-name="rcaron" unicode="&#x159;" horiz-adv-x="375" >
<path fill="black" d="M14 93 L79 108 L79 437 L18 448 L18 546 L166 546 L176 454 L183 454 C197.667 514 227 557 275 557 C289.667 557 310.333 552.667 337 538 L306 407 C291.333 417.667 270.667 422 256 422 C214.667 422 193 363 193 275 L193 108 L275 93 L275 0 L14 0 L14 93 Z " /><g transform="translate(10,0)" ><path fill="black" d="M56 766 L126 766 C139.333 744.667 153 715.667 173 681 C193 718.333 204.333 740.667 219 766 L288 766 L288 754 C269.35 714.036 240.322 648.63 227 606 L118 606 C107.29 646.161 77.4005 713.874 56 754 L56 766 Z " /></g></glyph>
<glyph glyph-name="Sacute" unicode="&#x15a;" horiz-adv-x="375" >
<path fill="black" d="M30 159 C68.6667 125.667 105.333 105 148 105 C195.056 105 199 148.281 199 191 C199 249.446 176.947 271.491 128 315 C66.8948 370.792 25 419.934 25 530 C25 655.333 83 725 183 725 C229.667 725 271 708.667 315 678 L279 570 C244.333 599.333 217 611 189 611 C154.333 611 147 577.667 147 531 C147 478.882 161.663 459.628 205 419 C285.224 352.147 319 310.844 319 198 C319 56.6667 256 -10 152 -10 C109.333 -10 68.6667 1.66667 30 31 L30 159 Z " /><g transform="translate(26,168)" ><path fill="black" d="M99 606 L99 618 C119 672.667 132.333 720.667 143 766 L271 766 L271 757 C255.257 717.642 207.822 646.666 178 606 L99 606 Z " /></g></glyph>
<glyph glyph-name="sacute" unicode="&#x15b;" horiz-adv-x="375" >
<path fill="black" d="M36 142 C68 116.667 120.333 101 159 101 C192.333 101 196 121.333 196 152 C196 182.871 186.327 195.338 125 238 C65 278 35 325 35 401 C35 501 86 557 186 557 C231.333 557 272 545 320 517 L283 416 C243 438.667 217 448 193 448 C166.333 448 160 429.667 160 403 C160 372.333 177.667 357.667 227 323 C296.461 274.912 318 244.505 318 159 C318 48.3333 266.333 -10 153 -10 C107.667 -10 70.6667 1.66667 36 23 L36 142 Z " /><g transform="translate(28,0)" ><path fill="black" d="M99 606 L99 618 C119 672.667 132.333 720.667 143 766 L271 766 L271 757 C255.257 717.642 207.822 646.666 178 606 L99 606 Z " /></g></glyph>
<glyph glyph-name="Scircumflex" unicode="&#x15c;" horiz-adv-x="375" >
<path fill="black" d="M30 159 C68.6667 125.667 105.333 105 148 105 C195.056 105 199 148.281 199 191 C199 249.446 176.947 271.491 128 315 C66.8948 370.792 25 419.934 25 530 C25 655.333 83 725 183 725 C229.667 725 271 708.667 315 678 L279 570 C244.333 599.333 217 611 189 611 C154.333 611 147 577.667 147 531 C147 478.882 161.663 459.628 205 419 C285.224 352.147 319 310.844 319 198 C319 56.6667 256 -10 152 -10 C109.333 -10 68.6667 1.66667 30 31 L30 159 Z " /><g transform="translate(7,168)" ><path fill="black" d="M56 606 L56 618 C77.6194 661.239 107.271 725.765 118 766 L226 766 C240.667 722 260.333 666 287 618 L287 606 L219 606 C205.667 628.667 192 656.333 172 691 C150.667 656.333 136.667 624.667 126 606 L56 606 Z " /></g></glyph>
<glyph glyph-name="scircumflex" unicode="&#x15d;" horiz-adv-x="375" >
<path fill="black" d="M36 142 C68 116.667 120.333 101 159 101 C192.333 101 196 121.333 196 152 C196 182.871 186.327 195.338 125 238 C65 278 35 325 35 401 C35 501 86 557 186 557 C231.333 557 272 545 320 517 L283 416 C243 438.667 217 448 193 448 C166.333 448 160 429.667 160 403 C160 372.333 177.667 357.667 227 323 C296.461 274.912 318 244.505 318 159 C318 48.3333 266.333 -10 153 -10 C107.667 -10 70.6667 1.66667 36 23 L36 142 Z " /><g transform="translate(9,0)" ><path fill="black" d="M56 606 L56 618 C77.6194 661.239 107.271 725.765 118 766 L226 766 C240.667 722 260.333 666 287 618 L287 606 L219 606 C205.667 628.667 192 656.333 172 691 C150.667 656.333 136.667 624.667 126 606 L56 606 Z " /></g></glyph>
<glyph glyph-name="Scedilla" unicode="&#x15e;" horiz-adv-x="375" d="M113 -162 C125 -167.333 137.333 -169 144 -169 C162.667 -169 169 -152.667 169 -130 C169 -99.3333 153.333 -86.3333 128 -81 L146 -10 C106 -8.66667 67.3333 3 30 31 L30 159 C68.6667 125.667 105.333 105 148 105 C195.056 105 199 148.281 199 191 C199 249.446 176.947 271.491 128 315 C66.8948 370.792 25 419.934 25 530 C25 655.333 83 725 183 725 C229.667 725 271 708.667 315 678 L279 570 C244.333 599.333 217 611 189 611 C154.333 611 147 577.667 147 531 C147 478.882 161.663 459.628 205 419 C285.224 352.147 319 310.844 319 198 C319 82 278 18.3333 206 -3 L199 -42 C235.667 -52.6667 254 -84 254 -136 C254 -200 224 -240 164 -240 C146.667 -240 127.667 -238.333 113 -233 L113 -162 Z " />
<glyph glyph-name="scedilla" unicode="&#x15f;" horiz-adv-x="375" d="M122 -162 C134 -167.333 146.333 -169 153 -169 C171.667 -169 178 -152.667 178 -130 C178 -99.3333 162.333 -86.3333 137 -81 L155 -10 L153 -10 C107.667 -10 70.6667 1.66667 36 23 L36 142 C68 116.667 120.333 101 159 101 C192.333 101 196 121.333 196 152 C196 182.871 186.327 195.338 125 238 C65 278 35 325 35 401 C35 501 86 557 186 557 C231.333 557 272 545 320 517 L283 416 C243 438.667 217 448 193 448 C166.333 448 160 429.667 160 403 C160 372.333 177.667 357.667 227 323 C296.461 274.912 318 244.505 318 159 C318 69.6667 283.667 15.6667 215 -3 L208 -42 C244.667 -52.6667 263 -84 263 -136 C263 -200 233 -240 173 -240 C155.667 -240 136.667 -238.333 122 -233 L122 -162 Z " />
<glyph glyph-name="Scaron" unicode="&#x160;" horiz-adv-x="375" >
<path fill="black" d="M30 159 C68.6667 125.667 105.333 105 148 105 C195.056 105 199 148.281 199 191 C199 249.446 176.947 271.491 128 315 C66.8948 370.792 25 419.934 25 530 C25 655.333 83 725 183 725 C229.667 725 271 708.667 315 678 L279 570 C244.333 599.333 217 611 189 611 C154.333 611 147 577.667 147 531 C147 478.882 161.663 459.628 205 419 C285.224 352.147 319 310.844 319 198 C319 56.6667 256 -10 152 -10 C109.333 -10 68.6667 1.66667 30 31 L30 159 Z " /><g transform="translate(7,168)" ><path fill="black" d="M56 766 L126 766 C139.333 744.667 153 715.667 173 681 C193 718.333 204.333 740.667 219 766 L288 766 L288 754 C269.35 714.036 240.322 648.63 227 606 L118 606 C107.29 646.161 77.4005 713.874 56 754 L56 766 Z " /></g></glyph>
<glyph glyph-name="scaron" unicode="&#x161;" horiz-adv-x="375" >
<path fill="black" d="M36 142 C68 116.667 120.333 101 159 101 C192.333 101 196 121.333 196 152 C196 182.871 186.327 195.338 125 238 C65 278 35 325 35 401 C35 501 86 557 186 557 C231.333 557 272 545 320 517 L283 416 C243 438.667 217 448 193 448 C166.333 448 160 429.667 160 403 C160 372.333 177.667 357.667 227 323 C296.461 274.912 318 244.505 318 159 C318 48.3333 266.333 -10 153 -10 C107.667 -10 70.6667 1.66667 36 23 L36 142 Z " /><g transform="translate(9,0)" ><path fill="black" d="M56 766 L126 766 C139.333 744.667 153 715.667 173 681 C193 718.333 204.333 740.667 219 766 L288 766 L288 754 C269.35 714.036 240.322 648.63 227 606 L118 606 C107.29 646.161 77.4005 713.874 56 754 L56 766 Z " /></g></glyph>
<glyph glyph-name="uni0162" unicode="&#x162;" horiz-adv-x="375" d="M113 -162 C125 -167.333 137.333 -169 144 -169 C162.667 -169 169 -152.667 169 -130 C169 -99.3333 153.333 -86.3333 128 -81 L149 0 L113 0 L113 598 L11 598 L11 714 L334 714 L334 598 L233 598 L233 0 L206 0 L199 -42 C235.667 -52.6667 254 -84 254 -136 C254 -200 224 -240 164 -240 C146.667 -240 127.667 -238.333 113 -233 L113 -162 Z " />
<glyph glyph-name="uni0163" unicode="&#x163;" horiz-adv-x="375" d="M150 -162 C162 -167.333 174.333 -169 181 -169 C199.667 -169 206 -152.667 206 -130 C206 -99.3333 190.333 -86.3333 165 -81 L184 -6 C125.333 8.66667 83 63.3333 83 174 L83 436 L1 436 L1 501 L91 547 L129 680 L204 680 L204 546 L336 546 L336 436 L203 436 L203 197 C203 123.9 233.771 106 255 106 C272.333 106 300 109.333 336 124 L336 13 C309.333 2.33333 272.667 -6.33333 242 -9 L236 -42 C272.667 -52.6667 291 -84 291 -136 C291 -200 261 -240 201 -240 C183.667 -240 164.667 -238.333 150 -233 L150 -162 Z " />
<glyph glyph-name="Tcaron" unicode="&#x164;" horiz-adv-x="375" >
<path fill="black" d="M113 0 L113 598 L11 598 L11 714 L334 714 L334 598 L233 598 L233 0 L113 0 Z " /><g transform="translate(0,168)" ><path fill="black" d="M56 766 L126 766 C139.333 744.667 153 715.667 173 681 C193 718.333 204.333 740.667 219 766 L288 766 L288 754 C269.35 714.036 240.322 648.63 227 606 L118 606 C107.29 646.161 77.4005 713.874 56 754 L56 766 Z " /></g></glyph>
<glyph glyph-name="tcaron" unicode="&#x165;" horiz-adv-x="375" >
<g transform="translate(3,0)" ><path fill="black" d="M83 436 L1 436 L1 501 L91 547 L129 680 L204 680 L204 546 L336 546 L336 436 L203 436 L203 197 C203 123.9 233.771 106 255 106 C272.333 106 300 109.333 336 124 L336 13 C301.333 -1.66667 253 -10 217 -10 C142.281 -10 83 44.4069 83 174 L83 436 Z " /></g><g transform="translate(749,821)" ><path fill="black" d="M-442 -221 L-442 -213 C-439.331 -180.974 -431 -98.3531 -431 -61 L-321 -61 L-321 -68 C-331.667 -116 -348.333 -178.333 -367 -221 L-442 -221 Z " /></g></glyph>
<glyph glyph-name="Tbar" unicode="&#x166;" horiz-adv-x="375" d="M113 305 L64 305 L64 402 L113 402 L113 598 L11 598 L11 714 L334 714 L334 598 L233 598 L233 402 L280 402 L280 305 L233 305 L233 0 L113 0 L113 305 Z " />
<glyph glyph-name="tbar" unicode="&#x167;" horiz-adv-x="375" d="M83 248 L1 248 L1 336 L83 336 L83 436 L1 436 L1 501 L91 547 L129 680 L204 680 L204 546 L336 546 L336 436 L203 436 L203 336 L336 336 L336 248 L203 248 L203 197 C203 123.9 233.771 106 255 106 C272.333 106 300 109.333 336 124 L336 13 C301.333 -1.66667 253 -10 217 -10 C142.281 -10 83 44.4069 83 174 L83 248 Z " />
<glyph glyph-name="Utilde" unicode="&#x168;" horiz-adv-x="375" >
<path fill="black" d="M16 714 L137 714 L137 267 C137 153.667 137 106 173 106 C213 106 209 154.874 209 268 L209 714 L330 714 L330 258 C330 76.5628 292.87 -10 173 -10 C55.6667 -10 16 75.6667 16 257 L16 714 Z " /><g transform="translate(0,168)" ><path fill="black" d="M59 610 C59 672.952 65.5628 753 119 753 C155.556 753 184.111 701 210 701 C223.333 701 222.667 718 228 754 L286 754 C283.333 658 258.667 611 224 611 C188.902 611 153.569 664 134 664 C123.333 664 119.667 648.667 117 610 L59 610 Z " /></g></glyph>
<glyph glyph-name="utilde" unicode="&#x169;" horiz-adv-x="375" >
<path fill="black" d="M17 546 L138 546 L138 222 C138 138 144 103 172 103 C202.667 103 204 153.667 204 271 L204 546 L324 546 L324 0 L225 0 L210 71 L204 71 C183.333 17 156.333 -10 123 -10 C59 -10 17 52.6667 17 186 L17 546 Z " /><g transform="translate(-1,0)" ><path fill="black" d="M59 610 C59 672.952 65.5628 753 119 753 C155.556 753 184.111 701 210 701 C223.333 701 222.667 718 228 754 L286 754 C283.333 658 258.667 611 224 611 C188.902 611 153.569 664 134 664 C123.333 664 119.667 648.667 117 610 L59 610 Z " /></g></glyph>
<glyph glyph-name="Umacron" unicode="&#x16a;" horiz-adv-x="375" >
<path fill="black" d="M16 714 L137 714 L137 267 C137 153.667 137 106 173 106 C213 106 209 154.874 209 268 L209 714 L330 714 L330 258 C330 76.5628 292.87 -10 173 -10 C55.6667 -10 16 75.6667 16 257 L16 714 Z " /><g transform="translate(8,148)" ><path fill="black" d="M67 723 L263 723 L263 637 L67 637 L67 723 Z " /></g></glyph>
<glyph glyph-name="umacron" unicode="&#x16b;" horiz-adv-x="375" >
<path fill="black" d="M17 546 L138 546 L138 222 C138 138 144 103 172 103 C202.667 103 204 153.667 204 271 L204 546 L324 546 L324 0 L225 0 L210 71 L204 71 C183.333 17 156.333 -10 123 -10 C59 -10 17 52.6667 17 186 L17 546 Z " /><g transform="translate(7,-20)" ><path fill="black" d="M67 723 L263 723 L263 637 L67 637 L67 723 Z " /></g></glyph>
<glyph glyph-name="Ubreve" unicode="&#x16c;" horiz-adv-x="375" >
<path fill="black" d="M16 714 L137 714 L137 267 C137 153.667 137 106 173 106 C213 106 209 154.874 209 268 L209 714 L330 714 L330 258 C330 76.5628 292.87 -10 173 -10 C55.6667 -10 16 75.6667 16 257 L16 714 Z " /><g transform="translate(1,168)" ><path fill="black" d="M133 762 C133.667 715.333 146.333 692 171 692 C193.667 692 209.333 712.667 212 762 L278 762 C280.667 666 236.333 608 171 608 C109.667 608 65 660.667 65 762 L133 762 Z " /></g></glyph>
<glyph glyph-name="ubreve" unicode="&#x16d;" horiz-adv-x="375" >
<path fill="black" d="M17 546 L138 546 L138 222 C138 138 144 103 172 103 C202.667 103 204 153.667 204 271 L204 546 L324 546 L324 0 L225 0 L210 71 L204 71 C183.333 17 156.333 -10 123 -10 C59 -10 17 52.6667 17 186 L17 546 Z " /><path fill="black" d="M133 762 C133.667 715.333 146.333 692 171 692 C193.667 692 209.333 712.667 212 762 L278 762 C280.667 666 236.333 608 171 608 C109.667 608 65 660.667 65 762 L133 762 Z " /></glyph>
<glyph glyph-name="Uring" unicode="&#x16e;" horiz-adv-x="375" >
<path fill="black" d="M16 714 L137 714 L137 267 C137 153.667 137 106 173 106 C213 106 209 154.874 209 268 L209 714 L330 714 L330 258 C330 76.5628 292.87 -10 173 -10 C55.6667 -10 16 75.6667 16 257 L16 714 Z " /><g transform="translate(2,168)" ><path fill="black" d="M172 600 C113.333 600 79 648.333 79 719 C79 787 113.333 836 172 836 C228 836 263 788.333 263 719 C263 649.667 229.333 600 172 600 Z M172 668 C188 668 200 688.333 200 719 C200 748.333 189.333 769 172 769 C154.667 769 143 749.667 143 719 C143 688.333 153.333 668 172 668 Z " /></g></glyph>
<glyph glyph-name="uring" unicode="&#x16f;" horiz-adv-x="375" >
<path fill="black" d="M17 546 L138 546 L138 222 C138 138 144 103 172 103 C202.667 103 204 153.667 204 271 L204 546 L324 546 L324 0 L225 0 L210 71 L204 71 C183.333 17 156.333 -10 123 -10 C59 -10 17 52.6667 17 186 L17 546 Z " /><g transform="translate(1,0)" ><path fill="black" d="M172 600 C113.333 600 79 648.333 79 719 C79 787 113.333 836 172 836 C228 836 263 788.333 263 719 C263 649.667 229.333 600 172 600 Z M172 668 C188 668 200 688.333 200 719 C200 748.333 189.333 769 172 769 C154.667 769 143 749.667 143 719 C143 688.333 153.333 668 172 668 Z " /></g></glyph>
<glyph glyph-name="Uhungarumlaut" unicode="&#x170;" horiz-adv-x="375" d="M16 714 L137 714 L137 267 C137 153.667 137 106 173 106 C213 106 209 154.874 209 268 L209 714 L330 714 L330 258 C330 76.5628 292.87 -10 173 -10 C55.6667 -10 16 75.6667 16 257 L16 714 Z M196 773 L196 785 C218.667 842.333 232.333 905 239 933 L338 933 L338 924 C321.671 883.178 278.621 810.269 252 773 L196 773 Z M80 773 L80 785 C102.667 845 115.667 903.667 121 933 L221 933 L221 924 C205.191 881.844 166.959 815.238 130 773 L80 773 Z " />
<glyph glyph-name="uhungarumlaut" unicode="&#x171;" horiz-adv-x="375" d="M17 546 L138 546 L138 222 C138 138 144 103 172 103 C202.667 103 204 153.667 204 271 L204 546 L324 546 L324 0 L225 0 L210 71 L204 71 C183.333 17 156.333 -10 123 -10 C59 -10 17 52.6667 17 186 L17 546 Z M195 605 L195 617 C217.667 674.333 231.333 737 238 765 L337 765 L337 756 C320.671 715.178 277.621 642.269 251 605 L195 605 Z M79 605 L79 617 C101.667 677 114.667 735.667 120 765 L220 765 L220 756 C204.191 713.844 165.959 647.238 129 605 L79 605 Z " />
<glyph glyph-name="Uogonek" unicode="&#x172;" horiz-adv-x="375" d="M242 -222 C230.667 -230 214.333 -234 193 -234 C135.667 -234 108 -196.667 108 -134 C108 -86 124 -43.6667 152 -9 C50.6667 0.333333 16 86.3333 16 257 L16 714 L137 714 L137 267 C137 153.667 137 106 173 106 C213 106 209 154.874 209 268 L209 714 L330 714 L330 258 C330 118 309 35.6667 245 5 C210.333 -31.6667 193 -69.6667 193 -109 C193 -135.667 202.333 -154 221 -154 C230.333 -154 236.667 -150 242 -146 L242 -222 Z " />
<glyph glyph-name="uogonek" unicode="&#x173;" horiz-adv-x="375" d="M213 71 L207 71 C186.333 17 159.333 -10 126 -10 C62 -10 20 52.6667 20 186 L20 546 L141 546 L141 222 C141 138 147 103 175 103 C205.667 103 207 153.667 207 271 L207 546 L327 546 L327 0 L324 0 C296 -45.3333 295 -74.6667 295 -108 C295 -136 305 -154 321 -154 C333 -154 337.333 -150 344 -146 L344 -222 C331.333 -230 315.333 -234 296 -234 C236 -234 210 -198 210 -134 C210 -88.6667 223.333 -41.3333 254 0 L228 0 L213 71 Z " />
<glyph glyph-name="Wcircumflex" unicode="&#x174;" horiz-adv-x="375" >
<path fill="black" d="M106 117 C111.28 172.436 121 281.125 121 334 L124 546 L221 546 L228 333 C230.642 269.587 239.305 170.892 242 117 L246 117 C246 209.895 249 359.34 249 416 C246.333 516 244.667 614 242 714 L340 714 L327 0 L187 0 L183 243 C180.333 299 176 363.333 176 406 L171 406 C169.667 363.333 166.333 299 165 243 L160 0 L19 0 L4 714 L100 714 C98.6667 614 95.6667 516.333 97 415 C97 357.784 102 210.451 102 117 L106 117 Z " /><g transform="translate(0,168)" ><path fill="black" d="M56 606 L56 618 C77.6194 661.239 107.271 725.765 118 766 L226 766 C240.667 722 260.333 666 287 618 L287 606 L219 606 C205.667 628.667 192 656.333 172 691 C150.667 656.333 136.667 624.667 126 606 L56 606 Z " /></g></glyph>
<glyph glyph-name="wcircumflex" unicode="&#x175;" horiz-adv-x="375" >
<path fill="black" d="M35 0 L3 546 L100 546 L97 281 C97 234.784 96 169.118 96 132 L99 132 C101.667 162.667 103 219.333 107 258 L128 464 L214 464 L233 258 C237 216.667 240.333 164 243 132 L246 132 C246 168.451 245 233.451 245 279 L243 546 L339 546 L306 0 L187 0 L180 174 C177.333 224.667 174.667 279 172 327 L169 327 C166.333 280.333 160.667 223.667 158 173 L150 0 L35 0 Z " /><path fill="black" d="M56 606 L56 618 C77.6194 661.239 107.271 725.765 118 766 L226 766 C240.667 722 260.333 666 287 618 L287 606 L219 606 C205.667 628.667 192 656.333 172 691 C150.667 656.333 136.667 624.667 126 606 L56 606 Z " /></glyph>
<glyph glyph-name="Ycircumflex" unicode="&#x176;" horiz-adv-x="375" >
<path fill="black" d="M111 0 L111 275 L2 714 L133 714 L171 408 L210 714 L340 714 L227 276 L227 0 L111 0 Z " /><g transform="translate(0,168)" ><path fill="black" d="M56 606 L56 618 C77.6194 661.239 107.271 725.765 118 766 L226 766 C240.667 722 260.333 666 287 618 L287 606 L219 606 C205.667 628.667 192 656.333 172 691 C150.667 656.333 136.667 624.667 126 606 L56 606 Z " /></g></glyph>
<glyph glyph-name="ycircumflex" unicode="&#x177;" horiz-adv-x="375" >
<path fill="black" d="M14 -131 C24 -135 34.3333 -137 45 -137 C73.1587 -137 114.465 -122.912 125 -36 L127 -2 L-2 546 L130 546 L165 273 C171.667 229 175.333 192.667 178 162 L181 162 C182.333 191.333 188 231.667 192 273 L218 546 L350 546 L235 -52 C208.333 -188 153 -245 65 -245 C48.3333 -245 31.3333 -242.333 14 -237 L14 -131 Z " /><g transform="translate(3,0)" ><path fill="black" d="M56 606 L56 618 C77.6194 661.239 107.271 725.765 118 766 L226 766 C240.667 722 260.333 666 287 618 L287 606 L219 606 C205.667 628.667 192 656.333 172 691 C150.667 656.333 136.667 624.667 126 606 L56 606 Z " /></g></glyph>
<glyph glyph-name="Ydieresis" unicode="&#x178;" horiz-adv-x="375" >
<g transform="translate(0,153)" ><path fill="black" d="M105 619 C75.6667 619 56 642.333 56 685 C56 727.667 75.6667 750 105 750 C135.667 750 156 727.667 156 685 C156 642.333 135.667 619 105 619 Z M237 619 C207.667 619 188 642.333 188 685 C188 727.667 207.667 750 237 750 C267.667 750 288 727.667 288 685 C288 642.333 267.667 619 237 619 Z " /></g><path fill="black" d="M111 0 L111 275 L2 714 L133 714 L171 408 L210 714 L340 714 L227 276 L227 0 L111 0 Z " /></glyph>
<glyph glyph-name="Zacute" unicode="&#x179;" horiz-adv-x="375" >
<path fill="black" d="M27 96 L191 598 L28 598 L28 714 L321 714 L321 619 L165 116 L320 116 L320 0 L27 0 L27 96 Z " /><g transform="translate(23,168)" ><path fill="black" d="M99 606 L99 618 C119 672.667 132.333 720.667 143 766 L271 766 L271 757 C255.257 717.642 207.822 646.666 178 606 L99 606 Z " /></g></glyph>
<glyph glyph-name="zacute" unicode="&#x17a;" horiz-adv-x="375" >
<path fill="black" d="M26 84 L169 437 L29 437 L29 546 L308 546 L308 450 L175 111 L319 111 L319 0 L26 0 L26 84 Z " /><g transform="translate(15,0)" ><path fill="black" d="M99 606 L99 618 C119 672.667 132.333 720.667 143 766 L271 766 L271 757 C255.257 717.642 207.822 646.666 178 606 L99 606 Z " /></g></glyph>
<glyph glyph-name="Zdotaccent" unicode="&#x17b;" horiz-adv-x="375" >
<path fill="black" d="M27 96 L191 598 L28 598 L28 714 L321 714 L321 619 L165 116 L320 116 L320 0 L27 0 L27 96 Z " /><g transform="translate(4,167)" ><path fill="black" d="M172 618 C129.333 618 104 643.333 104 694 C104 744.667 129.333 770 172 770 C216 770 238 744.667 238 694 C238 646 216 618 172 618 Z " /></g></glyph>
<glyph glyph-name="zdotaccent" unicode="&#x17c;" horiz-adv-x="375" >
<path fill="black" d="M26 84 L169 437 L29 437 L29 546 L308 546 L308 450 L175 111 L319 111 L319 0 L26 0 L26 84 Z " /><g transform="translate(-4,-1)" ><path fill="black" d="M172 618 C129.333 618 104 643.333 104 694 C104 744.667 129.333 770 172 770 C216 770 238 744.667 238 694 C238 646 216 618 172 618 Z " /></g></glyph>
<glyph glyph-name="Zcaron" unicode="&#x17d;" horiz-adv-x="375" >
<path fill="black" d="M27 96 L191 598 L28 598 L28 714 L321 714 L321 619 L165 116 L320 116 L320 0 L27 0 L27 96 Z " /><g transform="translate(4,168)" ><path fill="black" d="M56 766 L126 766 C139.333 744.667 153 715.667 173 681 C193 718.333 204.333 740.667 219 766 L288 766 L288 754 C269.35 714.036 240.322 648.63 227 606 L118 606 C107.29 646.161 77.4005 713.874 56 754 L56 766 Z " /></g></glyph>
<glyph glyph-name="zcaron" unicode="&#x17e;" horiz-adv-x="375" >
<path fill="black" d="M26 84 L169 437 L29 437 L29 546 L308 546 L308 450 L175 111 L319 111 L319 0 L26 0 L26 84 Z " /><g transform="translate(-4,0)" ><path fill="black" d="M56 766 L126 766 C139.333 744.667 153 715.667 173 681 C193 718.333 204.333 740.667 219 766 L288 766 L288 754 C269.35 714.036 240.322 648.63 227 606 L118 606 C107.29 646.161 77.4005 713.874 56 754 L56 766 Z " /></g></glyph>
<glyph glyph-name="longs" unicode="&#x17f;" horiz-adv-x="375" d="M95 0 L95 566 C95 707.333 132 765 224 765 C248 765 272.333 760.667 307 746 L283 649 C268.333 655.667 256.333 660 243 660 C227 660 216 637 216 557 L216 0 L95 0 Z " />
<glyph glyph-name="florin" unicode="&#x192;" horiz-adv-x="375" d="M36 -128 C48.6667 -134.667 60.6667 -138 72 -138 C102.667 -138 113 -113 113 -57 L113 389 L43 389 L43 455 L113 490 L113 530 C113 667.333 151.667 724 237 724 C267.667 724 288 718.333 320 701 L297 610 C282.333 618 274 622 262 622 C238 622 226 597.333 226 536 L226 489 L307 489 L307 389 L226 389 L226 -43 C226 -179 190.333 -240 97 -240 C70.3333 -240 52 -234.667 36 -228 L36 -128 Z " />
<glyph glyph-name="uni0218" unicode="&#x218;" horiz-adv-x="375" >
<path fill="black" d="M30 159 C68.6667 125.667 105.333 105 148 105 C195.056 105 199 148.281 199 191 C199 249.446 176.947 271.491 128 315 C66.8948 370.792 25 419.934 25 530 C25 655.333 83 725 183 725 C229.667 725 271 708.667 315 678 L279 570 C244.333 599.333 217 611 189 611 C154.333 611 147 577.667 147 531 C147 478.882 161.663 459.628 205 419 C285.224 352.147 319 310.844 319 198 C319 56.6667 256 -10 152 -10 C109.333 -10 68.6667 1.66667 30 31 L30 159 Z " /><g transform="translate(547,0)" ><path fill="black" d="M-442 -221 L-442 -213 C-439.331 -180.974 -431 -98.3531 -431 -61 L-321 -61 L-321 -68 C-331.667 -116 -348.333 -178.333 -367 -221 L-442 -221 Z " /></g></glyph>
<glyph glyph-name="uni0219" unicode="&#x219;" horiz-adv-x="375" >
<path fill="black" d="M36 142 C68 116.667 120.333 101 159 101 C192.333 101 196 121.333 196 152 C196 182.871 186.327 195.338 125 238 C65 278 35 325 35 401 C35 501 86 557 186 557 C231.333 557 272 545 320 517 L283 416 C243 438.667 217 448 193 448 C166.333 448 160 429.667 160 403 C160 372.333 177.667 357.667 227 323 C296.461 274.912 318 244.505 318 159 C318 48.3333 266.333 -10 153 -10 C107.667 -10 70.6667 1.66667 36 23 L36 142 Z " /><g transform="translate(556,0)" ><path fill="black" d="M-442 -221 L-442 -213 C-439.331 -180.974 -431 -98.3531 -431 -61 L-321 -61 L-321 -68 C-331.667 -116 -348.333 -178.333 -367 -221 L-442 -221 Z " /></g></glyph>
<glyph glyph-name="uni021A" unicode="&#x21a;" horiz-adv-x="375" >
<path fill="black" d="M113 0 L113 598 L11 598 L11 714 L334 714 L334 598 L233 598 L233 0 L113 0 Z " /><g transform="translate(547,0)" ><path fill="black" d="M-442 -221 L-442 -213 C-439.331 -180.974 -431 -98.3531 -431 -61 L-321 -61 L-321 -68 C-331.667 -116 -348.333 -178.333 -367 -221 L-442 -221 Z " /></g></glyph>
<glyph glyph-name="uni021B" unicode="&#x21b;" horiz-adv-x="375" >
<path fill="black" d="M83 436 L1 436 L1 501 L91 547 L129 680 L204 680 L204 546 L336 546 L336 436 L203 436 L203 197 C203 123.9 233.771 106 255 106 C272.333 106 300 109.333 336 124 L336 13 C301.333 -1.66667 253 -10 217 -10 C142.281 -10 83 44.4069 83 174 L83 436 Z " /><g transform="translate(584,0)" ><path fill="black" d="M-442 -221 L-442 -213 C-439.331 -180.974 -431 -98.3531 -431 -61 L-321 -61 L-321 -68 C-331.667 -116 -348.333 -178.333 -367 -221 L-442 -221 Z " /></g></glyph>
<glyph glyph-name="uni0237" unicode="&#x237;" horiz-adv-x="345" d="M19 -113 C49.6667 -125 89.3333 -132 104 -132 C138.667 -132 146 -103.333 146 -30 L146 436 L48 448 L48 546 L266 546 L266 -49 C266 -182.333 230 -245 122 -245 C95.3333 -245 53.6667 -238.667 19 -224 L19 -113 Z " />
<glyph glyph-name="circumflex" unicode="&#x2c6;" horiz-adv-x="375" d="M56 606 L56 618 C77.6194 661.239 107.271 725.765 118 766 L226 766 C240.667 722 260.333 666 287 618 L287 606 L219 606 C205.667 628.667 192 656.333 172 691 C150.667 656.333 136.667 624.667 126 606 L56 606 Z " />
<glyph glyph-name="caron" unicode="&#x2c7;" horiz-adv-x="375" d="M56 766 L126 766 C139.333 744.667 153 715.667 173 681 C193 718.333 204.333 740.667 219 766 L288 766 L288 754 C269.35 714.036 240.322 648.63 227 606 L118 606 C107.29 646.161 77.4005 713.874 56 754 L56 766 Z " />
<glyph glyph-name="uni02C9" unicode="&#x2c9;" horiz-adv-x="375" >
<g transform="translate(7,-19)" ><path fill="black" d="M67 723 L263 723 L263 637 L67 637 L67 723 Z " /></g></glyph>
<glyph glyph-name="breve" unicode="&#x2d8;" horiz-adv-x="375" d="M133 762 C133.667 715.333 146.333 692 171 692 C193.667 692 209.333 712.667 212 762 L278 762 C280.667 666 236.333 608 171 608 C109.667 608 65 660.667 65 762 L133 762 Z " />
<glyph glyph-name="dotaccent" unicode="&#x2d9;" horiz-adv-x="375" d="M172 618 C129.333 618 104 643.333 104 694 C104 744.667 129.333 770 172 770 C216 770 238 744.667 238 694 C238 646 216 618 172 618 Z " />
<glyph glyph-name="ring" unicode="&#x2da;" horiz-adv-x="375" d="M172 600 C113.333 600 79 648.333 79 719 C79 787 113.333 836 172 836 C228 836 263 788.333 263 719 C263 649.667 229.333 600 172 600 Z M172 668 C188 668 200 688.333 200 719 C200 748.333 189.333 769 172 769 C154.667 769 143 749.667 143 719 C143 688.333 153.333 668 172 668 Z " />
<glyph glyph-name="ogonek" unicode="&#x2db;" horiz-adv-x="375" d="M239 -222 C226.333 -230 210.333 -234 191 -234 C131 -234 105 -198 105 -134 C105 -83.3333 122.333 -29 161 15 L219 0 C191 -45.3333 190 -74.6667 190 -108 C190 -136 200 -154 216 -154 C228 -154 232.333 -150 239 -146 L239 -222 Z " />
<glyph glyph-name="tilde" unicode="&#x2dc;" horiz-adv-x="375" d="M59 610 C59 672.952 65.5628 753 119 753 C155.556 753 184.111 701 210 701 C223.333 701 222.667 718 228 754 L286 754 C283.333 658 258.667 611 224 611 C188.902 611 153.569 664 134 664 C123.333 664 119.667 648.667 117 610 L59 610 Z " />
<glyph glyph-name="hungarumlaut" unicode="&#x2dd;" horiz-adv-x="375" d="M167 606 L167 618 C189.667 675.333 203.333 738 210 766 L309 766 L309 757 C292.671 716.178 249.621 643.269 223 606 L167 606 Z M51 606 L51 618 C73.6667 678 86.6667 736.667 92 766 L192 766 L192 757 C176.191 714.844 137.959 648.238 101 606 L51 606 Z " />
<glyph glyph-name="uni0394" unicode="&#x394;" horiz-adv-x="375" d="M8 75 L101 714 L244 714 L338 72 L338 0 L8 0 L8 75 Z M217 104 L181 495 C178.333 529.667 176 570 172 606 C170.667 568.667 166.667 528.333 164 495 L129 105 L217 104 Z " />
<glyph glyph-name="uni03A9" unicode="&#x3a9;" horiz-adv-x="375" d="M4 110 L75 110 C43.1995 163.001 8 255.644 8 411 C8 613.667 68 725 172 725 C272 725 335 617.667 335 407 C335 257.667 309.667 166 267 110 L340 110 L340 0 L187 0 L187 117 C211 173 222 255.667 222 389 C222 538.333 210.667 616 172 616 C134.667 616 123 541 123 389 C123 255.667 130.667 170.333 156 117 L156 0 L4 0 L4 110 Z " />
<glyph glyph-name="uni03BC" unicode="&#x3bc;" horiz-adv-x="375" >
<path fill="black" d="M17 227 L21 227 L21 546 L142 546 L142 222 C142 138 148 103 176 103 C206.667 103 208 153.667 208 271 L208 546 L328 546 L328 0 L229 0 L214 71 L208 71 C190 21.6667 165.667 -5 135 -9 L135 -240 L17 -240 L17 227 Z " /></glyph>
<glyph glyph-name="pi" unicode="&#x3c0;" horiz-adv-x="375" d="M48 444 L3 444 L3 500 L50 545 L339 545 L339 444 L290 444 L290 157 C290 114.333 294.667 97 308 97 C317.333 97 325.667 101.333 333 110 L333 14 C319.667 2 296.667 -9 266 -9 C210 -9 190 42 190 142 L190 444 L149 444 L149 0 L48 0 L48 444 Z " />
<glyph glyph-name="Wgrave" unicode="&#x1e80;" horiz-adv-x="375" >
<path fill="black" d="M106 117 C111.28 172.436 121 281.125 121 334 L124 546 L221 546 L228 333 C230.642 269.587 239.305 170.892 242 117 L246 117 C246 209.895 249 359.34 249 416 C246.333 516 244.667 614 242 714 L340 714 L327 0 L187 0 L183 243 C180.333 299 176 363.333 176 406 L171 406 C169.667 363.333 166.333 299 165 243 L160 0 L19 0 L4 714 L100 714 C98.6667 614 95.6667 516.333 97 415 C97 357.784 102 210.451 102 117 L106 117 Z " /><g transform="translate(-1,168)" ><path fill="black" d="M64 766 L192 766 C199.981 723.437 226.029 650.914 237 618 L237 606 L157 606 C136.219 637.172 79.456 718.36 64 757 L64 766 Z " /></g></glyph>
<glyph glyph-name="wgrave" unicode="&#x1e81;" horiz-adv-x="375" >
<path fill="black" d="M35 0 L3 546 L100 546 L97 281 C97 234.784 96 169.118 96 132 L99 132 C101.667 162.667 103 219.333 107 258 L128 464 L214 464 L233 258 C237 216.667 240.333 164 243 132 L246 132 C246 168.451 245 233.451 245 279 L243 546 L339 546 L306 0 L187 0 L180 174 C177.333 224.667 174.667 279 172 327 L169 327 C166.333 280.333 160.667 223.667 158 173 L150 0 L35 0 Z " /><g transform="translate(-1,0)" ><path fill="black" d="M64 766 L192 766 C199.981 723.437 226.029 650.914 237 618 L237 606 L157 606 C136.219 637.172 79.456 718.36 64 757 L64 766 Z " /></g></glyph>
<glyph glyph-name="Wacute" unicode="&#x1e82;" horiz-adv-x="375" >
<path fill="black" d="M106 117 C111.28 172.436 121 281.125 121 334 L124 546 L221 546 L228 333 C230.642 269.587 239.305 170.892 242 117 L246 117 C246 209.895 249 359.34 249 416 C246.333 516 244.667 614 242 714 L340 714 L327 0 L187 0 L183 243 C180.333 299 176 363.333 176 406 L171 406 C169.667 363.333 166.333 299 165 243 L160 0 L19 0 L4 714 L100 714 C98.6667 614 95.6667 516.333 97 415 C97 357.784 102 210.451 102 117 L106 117 Z " /><g transform="translate(19,168)" ><path fill="black" d="M99 606 L99 618 C119 672.667 132.333 720.667 143 766 L271 766 L271 757 C255.257 717.642 207.822 646.666 178 606 L99 606 Z " /></g></glyph>
<glyph glyph-name="wacute" unicode="&#x1e83;" horiz-adv-x="375" >
<path fill="black" d="M35 0 L3 546 L100 546 L97 281 C97 234.784 96 169.118 96 132 L99 132 C101.667 162.667 103 219.333 107 258 L128 464 L214 464 L233 258 C237 216.667 240.333 164 243 132 L246 132 C246 168.451 245 233.451 245 279 L243 546 L339 546 L306 0 L187 0 L180 174 C177.333 224.667 174.667 279 172 327 L169 327 C166.333 280.333 160.667 223.667 158 173 L150 0 L35 0 Z " /><g transform="translate(19,0)" ><path fill="black" d="M99 606 L99 618 C119 672.667 132.333 720.667 143 766 L271 766 L271 757 C255.257 717.642 207.822 646.666 178 606 L99 606 Z " /></g></glyph>
<glyph glyph-name="Wdieresis" unicode="&#x1e84;" horiz-adv-x="375" >
<g transform="translate(0,153)" ><path fill="black" d="M105 619 C75.6667 619 56 642.333 56 685 C56 727.667 75.6667 750 105 750 C135.667 750 156 727.667 156 685 C156 642.333 135.667 619 105 619 Z M237 619 C207.667 619 188 642.333 188 685 C188 727.667 207.667 750 237 750 C267.667 750 288 727.667 288 685 C288 642.333 267.667 619 237 619 Z " /></g><path fill="black" d="M106 117 C111.28 172.436 121 281.125 121 334 L124 546 L221 546 L228 333 C230.642 269.587 239.305 170.892 242 117 L246 117 C246 209.895 249 359.34 249 416 C246.333 516 244.667 614 242 714 L340 714 L327 0 L187 0 L183 243 C180.333 299 176 363.333 176 406 L171 406 C169.667 363.333 166.333 299 165 243 L160 0 L19 0 L4 714 L100 714 C98.6667 614 95.6667 516.333 97 415 C97 357.784 102 210.451 102 117 L106 117 Z " /></glyph>
<glyph glyph-name="wdieresis" unicode="&#x1e85;" horiz-adv-x="375" >
<g transform="translate(0,-15)" ><path fill="black" d="M105 619 C75.6667 619 56 642.333 56 685 C56 727.667 75.6667 750 105 750 C135.667 750 156 727.667 156 685 C156 642.333 135.667 619 105 619 Z M237 619 C207.667 619 188 642.333 188 685 C188 727.667 207.667 750 237 750 C267.667 750 288 727.667 288 685 C288 642.333 267.667 619 237 619 Z " /></g><path fill="black" d="M35 0 L3 546 L100 546 L97 281 C97 234.784 96 169.118 96 132 L99 132 C101.667 162.667 103 219.333 107 258 L128 464 L214 464 L233 258 C237 216.667 240.333 164 243 132 L246 132 C246 168.451 245 233.451 245 279 L243 546 L339 546 L306 0 L187 0 L180 174 C177.333 224.667 174.667 279 172 327 L169 327 C166.333 280.333 160.667 223.667 158 173 L150 0 L35 0 Z " /></glyph>
<glyph glyph-name="uni2010" unicode="&#x2010;" horiz-adv-x="345" >
<g transform="translate(3,0)" ><path fill="black" d="M87 329 L257 329 L257 212 L87 212 L87 329 Z " /></g></glyph>
<glyph glyph-name="endash" unicode="&#x2013;" horiz-adv-x="375" d="M55 329 L291 329 L291 212 L55 212 L55 329 Z " />
<glyph glyph-name="emdash" unicode="&#x2014;" horiz-adv-x="375" d="M3 329 L341 329 L341 212 L3 212 L3 329 Z " />
<glyph glyph-name="quoteleft" unicode="&#x2018;" horiz-adv-x="375" >
<g transform="translate(1,0)" ><path fill="black" d="M106 449 L102 460 C114 556 129.667 640.667 149 714 L243 714 C232.406 631.893 223.646 520.438 221 449 L106 449 Z " /></g></glyph>
<glyph glyph-name="quoteright" unicode="&#x2019;" horiz-adv-x="375" >
<g transform="translate(8,584)" ><path fill="black" d="M97 -135 C105.031 -57.363 117.322 57.6918 120 130 L234 130 L238 119 C227.333 23 210 -63 190 -135 L97 -135 Z " /></g></glyph>
<glyph glyph-name="quotesinglbase" unicode="&#x201a;" horiz-adv-x="375" >
<g transform="translate(3,0)" ><path fill="black" d="M97 -135 C105.031 -57.363 117.322 57.6918 120 130 L234 130 L238 119 C227.333 23 210 -63 190 -135 L97 -135 Z " /></g></glyph>
<glyph glyph-name="quotedblleft" unicode="&#x201c;" horiz-adv-x="375" >
<g transform="translate(-81,0)" ><path fill="black" d="M106 449 L102 460 C114 556 129.667 640.667 149 714 L243 714 C232.406 631.893 223.646 520.438 221 449 L106 449 Z " /></g><g transform="translate(98,0)" ><path fill="black" d="M106 449 L102 460 C114 556 129.667 640.667 149 714 L243 714 C232.406 631.893 223.646 520.438 221 449 L106 449 Z " /></g></glyph>
<glyph glyph-name="quotedblright" unicode="&#x201d;" horiz-adv-x="375" >
<g transform="translate(-113,584)" ><path fill="black" d="M97 -135 C105.031 -57.363 117.322 57.6918 120 130 L234 130 L238 119 C227.333 23 210 -63 190 -135 L97 -135 Z " /></g><g transform="translate(66,584)" ><path fill="black" d="M97 -135 C105.031 -57.363 117.322 57.6918 120 130 L234 130 L238 119 C227.333 23 210 -63 190 -135 L97 -135 Z " /></g></glyph>
<glyph glyph-name="quotedblbase" unicode="&#x201e;" horiz-adv-x="375" >
<g transform="translate(-100,0)" ><path fill="black" d="M97 -135 C105.031 -57.363 117.322 57.6918 120 130 L234 130 L238 119 C227.333 23 210 -63 190 -135 L97 -135 Z " /></g><g transform="translate(76,0)" ><path fill="black" d="M97 -135 C105.031 -57.363 117.322 57.6918 120 130 L234 130 L238 119 C227.333 23 210 -63 190 -135 L97 -135 Z " /></g></glyph>
<glyph glyph-name="dagger" unicode="&#x2020;" horiz-adv-x="375" d="M115 0 L135 475 L35 461 L35 566 L135 552 L115 760 L229 760 L208 552 L308 566 L308 461 L208 475 L229 0 L115 0 Z " />
<glyph glyph-name="daggerdbl" unicode="&#x2021;" horiz-adv-x="375" d="M35 278 L140 264 L123 384 L140 496 L35 482 L35 588 L140 574 L119 760 L233 760 L212 574 L308 588 L308 482 L212 496 L229 384 L212 264 L308 278 L308 173 L212 187 L233 0 L119 0 L140 187 L35 173 L35 278 Z " />
<glyph glyph-name="bullet" unicode="&#x2022;" horiz-adv-x="375" d="M172 211 C98.6667 211 57 265 57 365 C57 466.333 97.3333 520 172 520 C246.667 520 287 465 287 365 C287 265 244 211 172 211 Z " />
<glyph glyph-name="ellipsis" unicode="&#x2026;" horiz-adv-x="375" >
<path fill="black" d="M173 -12 C134.333 -12 107 16.3333 107 67 C107 119 130.333 146 173 146 C211.667 146 237 120.333 237 67 C237 16.3333 209 -12 173 -12 Z " /></glyph>
<glyph glyph-name="perthousand" unicode="&#x2030;" horiz-adv-x="375" d="M94 -168 C30 -168 -4 -86.3333 -4 59 C-4 206.333 28 280 92 280 C122 280 146.333 262.667 165 228 C181 262.667 204.333 280 235 280 C300.333 280 338 201.333 338 56 C338 -92 302.333 -168 237 -168 C206.333 -168 183 -150.333 167 -115 C149.667 -150.333 125.333 -168 94 -168 Z M168 456 C104 456 70 537.667 70 683 C70 830.333 102 904 166 904 C231.333 904 269 825.333 269 680 C269 532 233.333 456 168 456 Z M24 374 L309 427 L309 363 L24 310 L24 374 Z M94 -90 C110 -90 120 -44 120 56 C120 156 110.333 200 93 200 C77 200 70 155.667 70 57 C70 -44.3333 78 -90 94 -90 Z M237 -90 C253 -90 263 -44 263 56 C263 156 253.333 200 236 200 C220 200 213 155.667 213 57 C213 -44.3333 221 -90 237 -90 Z M168 534 C184 534 194 580 194 680 C194 780 184.333 824 167 824 C151 824 144 779.667 144 681 C144 579.667 152 534 168 534 Z " />
<glyph glyph-name="guilsinglleft" unicode="&#x2039;" horiz-adv-x="375" d="M183 53 L80 266 L80 280 L183 492 L265 447 L202 273 L264 99 L183 53 Z " />
<glyph glyph-name="guilsinglright" unicode="&#x203a;" horiz-adv-x="375" d="M170 286 L108 460 L189 506 L292 293 L292 279 L189 67 L107 112 L170 286 Z " />
<glyph glyph-name="fraction" unicode="&#x2044;" horiz-adv-x="375" d="M11 374 L328 427 L328 363 L11 310 L11 374 Z " />
<glyph glyph-name="franc" unicode="&#x20a3;" horiz-adv-x="375" d="M52 119 L14 119 L14 212 L52 212 L52 714 L310 714 L310 597 L173 597 L173 435 L299 435 L299 320 L173 320 L173 212 L271 212 L271 119 L173 119 L173 0 L52 0 L52 119 Z " />
<glyph glyph-name="lira" unicode="&#x20a4;" horiz-adv-x="375" d="M307 110 L307 0 L38 0 L38 104 C68.6667 133.333 72.3333 165.333 75 232 L34 232 L34 313 L76 313 L76 384 L34 384 L34 464 L76 464 L76 522 C76 655.333 125 724 209 724 C243.667 724 278.667 711 312 683 L280 584 C257.333 604 240.667 614 222 614 C199.333 614 193 587.333 193 522 L193 464 L268 464 L268 384 L193 384 L193 313 L268 313 L268 232 L190 232 C184.667 168 173.333 134 152 110 L307 110 Z " />
<glyph glyph-name="peseta" unicode="&#x20a7;" horiz-adv-x="375" d="M7 714 L147 714 C245.667 714 291 642 291 510 C291 480 288.667 453.667 284 431 L288 431 L288 322 L341 322 L341 241 L288 241 L288 147 C288 104.333 293.667 83 305 83 C317 83 331.667 89.3333 341 96 L341 14 C327.667 3.33333 310.667 -5 280 -5 C220 -5 191 36.3333 191 127 L191 241 L160 241 L160 297 C153.333 295.667 145.667 296 139 296 L123 296 L123 0 L7 0 L7 714 Z M133 406 C157 406 175 433.667 175 507 C175 572.333 163.667 605 141 605 L123 605 L123 406 L133 406 Z " />
<glyph glyph-name="Euro" unicode="&#x20ac;" horiz-adv-x="375" d="M25 315 L61 315 L61 351 C61 361.667 60.6667 373.333 62 384 L25 384 L25 459 L66 459 C79.2507 610.058 121.046 725 211 725 C245.667 725 284.333 710.667 323 680 L288 575 C261.333 601.667 235.667 614 217 614 C183.212 614 184.339 547.086 179 459 L255 459 L255 384 L176 384 L176 351 L176 315 L237 315 L237 240 L181 240 C187.667 144 200 101 224 101 C249.333 101 274.333 116.333 309 139 L309 23 C278.333 0.333333 239.333 -10 210 -10 C115.056 -10 77.6554 98.8154 67 240 L25 240 L25 315 Z " />
<glyph glyph-name="uni2113" unicode="&#x2113;" horiz-adv-x="375" d="M75 254 C61.6667 247.333 46 240.333 30 231 L30 322 C44.6667 328.667 60.3333 336.667 75 346 L75 541 C75 662.333 116.667 723 200 723 C273.333 723 315 661.667 315 551 C315 429.667 273 342.667 185 292 L185 179 C185 111 191 83 207 83 C223 83 228 119.333 228 186 L316 186 C317.333 47.3333 274.667 -9 188 -9 C116 -9 75 61.6667 75 187 L75 254 Z M185 387 C207.667 416.333 219 470.667 219 550 C219 605.333 213.333 633 202 633 C188.667 633 185 613.333 185 556 L185 387 Z " />
<glyph glyph-name="trademark" unicode="&#x2122;" horiz-adv-x="375" d="M150 368 L150 714 L229 714 L247 566 L265 714 L343 714 L343 368 L286 368 L286 561 C286 581 288 605.333 288 624 L287 624 L265 482 L228 482 L207 625 L205 625 C206.333 603.667 206 579 206 563 L206 368 L150 368 Z M42 368 L42 650 L6 650 L6 714 L135 714 L135 650 L103 650 L103 368 L42 368 Z " />
<glyph glyph-name="Omega" unicode="&#x2126;" horiz-adv-x="375" >
<g transform="translate(3,0)" ><path fill="black" d="M4 110 L75 110 C43.1995 163.001 8 255.644 8 411 C8 613.667 68 725 172 725 C272 725 335 617.667 335 407 C335 257.667 309.667 166 267 110 L340 110 L340 0 L187 0 L187 117 C211 173 222 255.667 222 389 C222 538.333 210.667 616 172 616 C134.667 616 123 541 123 389 C123 255.667 130.667 170.333 156 117 L156 0 L4 0 L4 110 Z " /></g></glyph>
<glyph glyph-name="estimated" unicode="&#x212e;" horiz-adv-x="375" d="M81 83 C99.6667 52.3333 130 25 174 25 C238 25 274 74 302 142 L326 119 C293.599 43.3965 254.26 -17 175 -17 C61.9264 -17 3 110.896 3 263 C3 450.636 91.3636 535 175 535 C266.688 535 341 429.563 341 259 L81 259 L81 83 Z M81 301 L265 301 L265 436 C247.667 462.667 213.667 494 175 494 C132.333 494 103.667 469 81 437 L81 301 Z " />
<glyph glyph-name="uni2219" unicode="&#x2219;" horiz-adv-x="345" >
<g transform="translate(6,270)" ><path fill="black" d="M173 -12 C134.333 -12 107 16.3333 107 67 C107 119 130.333 146 173 146 C211.667 146 237 120.333 237 67 C237 16.3333 209 -12 173 -12 Z " /></g></glyph>
<glyph glyph-name="radical" unicode="&#x221a;" horiz-adv-x="375" d="M118 -7 L74 355 L18 355 L18 456 L147 456 L169 164 L240 846 L342 846 L225 -7 L118 -7 Z " />
<glyph glyph-name="infinity" unicode="&#x221e;" horiz-adv-x="375" d="M105 189 C47.6667 189 6 254 6 354 C6 444.615 36.1558 516 100 516 C129.333 516 149.333 494.333 172 445 C189.333 483.667 210.667 514 244 514 C300.918 514 338 445.589 338 355 C338 259.97 298.355 187 244 187 C212 187 187.667 216.333 169 255 C147.667 209.667 131.667 189 105 189 Z M233 281 C243.667 281 250 312.333 250 351 C250 389.667 243.333 420 234 420 C226 420 222.333 397.667 205 347 C215.667 309.667 223.667 281 233 281 Z M112 283 C124 283 128.333 307 139 347 C128.333 389.667 123.667 423 109 423 C99.6667 423 95 391.667 95 353 C95 315.667 97.3333 283 112 283 Z " />
<glyph glyph-name="approxequal" unicode="&#x2248;" horiz-adv-x="375" >
<g transform="translate(0,-111)" ><path fill="black" d="M315 326 C292.333 292 267.333 275 240 275 C213.333 275 186.333 285 159 305 C135 322.333 110 332 94 332 C74 332 52.6667 312.333 30 273 L30 379 C49.3333 413.667 74 431 104 431 C130.667 431 155.333 419.667 182 401 C207.333 383 229.667 374 249 374 C269 374 293.667 396 315 432 L315 326 Z " /></g><g transform="translate(0,107)" ><path fill="black" d="M315 326 C292.333 292 267.333 275 240 275 C213.333 275 186.333 285 159 305 C135 322.333 110 332 94 332 C74 332 52.6667 312.333 30 273 L30 379 C49.3333 413.667 74 431 104 431 C130.667 431 155.333 419.667 182 401 C207.333 383 229.667 374 249 374 C269 374 293.667 396 315 432 L315 326 Z " /></g></glyph>
<glyph glyph-name="lessequal" unicode="&#x2264;" horiz-adv-x="375" d="M28 365 L28 430 L308 633 L308 522 L161 398 L308 271 L308 161 L28 365 Z M26 0 L26 98 L304 98 L304 0 L26 0 Z " />
<glyph glyph-name="greaterequal" unicode="&#x2265;" horiz-adv-x="375" d="M32 271 L179 398 L32 522 L32 633 L312 430 L312 365 L32 161 L32 271 Z M36 98 L314 98 L314 0 L36 0 L36 98 Z " />
</font>
</svg>
