<?xml version="1.0" encoding="UTF-8"?>
<svg xmlns="http://www.w3.org/2000/svg" xmlns:xlink="http://www.w3.org/1999/xlink" version="1.1" >
<font id="Monoto-3Cd300Lt" horiz-adv-x="433">
<font-face  font-family="Monoto 3 Cd" units-per-em="1000" ascent="955" descent="-235" font-style="normal" font-weight="300" font-stretch="condensed" cap-height="714" x-height="533" underline-position="-75" underline-thickness="50" />
<missing-glyph horiz-adv-x="437" d="M39 0 L39 714 L369 714 L369 0 L39 0 Z M328 51 L328 663 L79 663 L79 51 L328 51 Z " />
<glyph glyph-name="uni0000" horiz-adv-x="437" />
<glyph glyph-name="uni000D" unicode="&#xd;" horiz-adv-x="437" />
<glyph glyph-name="space" unicode="&#x20;" horiz-adv-x="437" />
<glyph glyph-name="exclam" unicode="&#x21;" horiz-adv-x="437" d="M185 188 L174 714 L238 714 L229 188 L185 188 Z M206 -12 C180 -12 167 5.33333 167 40 C167 74 180 91 206 91 C232 91 245 74 245 40 C245 5.33333 232 -12 206 -12 Z " />
<glyph glyph-name="quotedbl" unicode="&#x22;" horiz-adv-x="437" >
<g transform="translate(-66,0)" ><path fill="black" d="M183 456 L173 714 L233 714 L223 456 L183 456 Z " /></g><g transform="translate(67,0)" ><path fill="black" d="M183 456 L173 714 L233 714 L223 456 L183 456 Z " /></g></glyph>
<glyph glyph-name="numbersign" unicode="&#x23;" horiz-adv-x="437" d="M79 0 L103 223 L26 223 L26 269 L108 269 L128 459 L47 459 L47 505 L134 505 L156 714 L197 714 L174 505 L263 505 L286 714 L326 714 L304 505 L381 505 L381 459 L299 459 L279 269 L360 269 L360 223 L274 223 L249 0 L208 0 L232 223 L143 223 L119 0 L79 0 Z M238 269 L258 459 L169 459 L149 269 L238 269 Z " />
<glyph glyph-name="dollar" unicode="&#x24;" horiz-adv-x="437" d="M69 119 C101 99 148.333 82.6667 195 80 L195 344 C107.784 386.287 63 433.261 63 528 C63 622.667 116.333 682 195 690 L195 760 L227 760 L227 691 C269 689 307.333 677.333 342 656 L326 610 C295.333 629.333 262.333 640 227 642 L227 382 C314.879 336.729 362 293.337 362 200 C362 108 312.333 46 227 34 L227 -58 L195 -58 L195 32 C144.333 33.3333 99.6667 46.6667 69 64 L69 119 Z M227 83 C283 91 316 131.333 316 198 C316 262 287 293.333 227 328 L227 83 Z M110 530 C110 459.333 139 430 195 398 L195 641 C144.333 634.333 110 595.333 110 530 Z " />
<glyph glyph-name="percent" unicode="&#x25;" horiz-adv-x="437" d="M20 168 L332 545 L384 545 L72 168 L20 168 Z M293 -9 C223.667 -9 182 58 182 162 C182 264.667 222 330 294 330 C362 330 404 264.667 404 162 C404 58 365 -9 293 -9 Z M113 383 C43.6667 383 2 450 2 554 C2 656.667 42 722 114 722 C182 722 224 656.667 224 554 C224 450 185 383 113 383 Z M293 31 C338.333 31 359 79.3333 359 162 C359 242 339.667 290 293 290 C246.333 290 227 242 227 162 C227 80.6667 247.667 31 293 31 Z M113 423 C158.333 423 179 471.333 179 554 C179 634 159.667 682 113 682 C66.3333 682 47 634 47 554 C47 472.667 67.6667 423 113 423 Z " />
<glyph glyph-name="ampersand" unicode="&#x26;" horiz-adv-x="437" d="M336 0 L297 73 C263.667 22.3333 220.333 -10 163 -10 C77.7965 -10 34 66 34 170 C34 266 73.6667 330.333 131 389 C97.6667 454.333 73 514.333 73 581 C73 669 113.333 724 176 724 C238.667 724 276 671 276 579 C276 493.667 238 431 190 379 L296 181 C312 229 321.333 282.333 324 329 L372 329 C366.667 258.333 351.667 186.333 325 125 L392 0 L336 0 Z M155 344 C113.667 297.333 83 244.667 83 170 C83 86 117.667 39 167 39 C209.667 39 244.333 73.6667 271 123 L155 344 Z M166 424 C199.333 458.667 230 509 230 581 C230 645.667 212.333 678 177 678 C141 678 120 642 120 582 C120 524.667 142 470.667 166 424 Z " />
<glyph glyph-name="quotesingle" unicode="&#x27;" horiz-adv-x="437" d="M183 456 L173 714 L233 714 L223 456 L183 456 Z " />
<glyph glyph-name="parenleft" unicode="&#x28;" horiz-adv-x="437" d="M251 -161 C176.333 -47.6667 136 101.333 136 272 C136 446.667 179 600.667 251 714 L299 714 C224.333 588.667 189 437 189 273 C189 111.667 226 -39.6667 298 -161 L251 -161 Z " />
<glyph glyph-name="parenright" unicode="&#x29;" horiz-adv-x="437" d="M91 -161 C165.667 -35.6667 201 116 201 280 C201 441.333 164 592.667 92 714 L139 714 C213.667 600.667 254 451.667 254 281 C254 106.333 211 -47.6667 139 -161 L91 -161 Z " />
<glyph glyph-name="asterisk" unicode="&#x2a;" horiz-adv-x="437" d="M173 579 L66 606 L77 658 L184 614 L175 760 L228 760 L219 614 L325 659 L336 607 L229 579 L304 458 L261 429 L201 558 L141 429 L99 458 L173 579 Z " />
<glyph glyph-name="plus" unicode="&#x2b;" horiz-adv-x="437" d="M179 121 L179 329 L47 329 L47 376 L179 376 L179 586 L224 586 L224 376 L355 376 L355 329 L224 329 L224 121 L179 121 Z " />
<glyph glyph-name="comma" unicode="&#x2c;" horiz-adv-x="437" d="M144 -130 C162.667 -42 177 41.6667 185 115 L241 115 L246 104 C231.333 28 210 -58 186 -130 L144 -130 Z " />
<glyph glyph-name="hyphen" unicode="&#x2d;" horiz-adv-x="437" d="M102 301 L304 301 L304 247 L102 247 L102 301 Z " />
<glyph glyph-name="period" unicode="&#x2e;" horiz-adv-x="437" d="M203 -12 C177 -12 164 5.33333 164 40 C164 74 177 91 203 91 C229 91 242 74 242 40 C242 5.33333 229 -12 203 -12 Z " />
<glyph glyph-name="slash" unicode="&#x2f;" horiz-adv-x="437" d="M44 -2 L258 716 L307 716 L94 -2 L44 -2 Z " />
<glyph glyph-name="zero" unicode="0" horiz-adv-x="437" d="M203 -9 C88.3333 -9 37 127.333 37 358 C37 580.952 81.2035 725 204 725 C323.948 725 370 580.952 370 358 C370 128.745 324.619 -9 203 -9 Z M290 597 C272.667 647.667 246.667 675 204 675 C122.407 675 92 554.338 92 358 C92 294 95.3333 239.667 102 193 L290 597 Z M120 120 C138.667 67.3333 166.667 41 204 41 C284 41 315 151.333 315 358 C315 420.667 313.667 473.333 307 520 L120 120 Z " />
<glyph glyph-name="one" unicode="1" horiz-adv-x="437" d="M89 41 L192 48 L192 502 C192 555.333 192.667 612 194 652 C179.333 634.667 170.333 627 153 611 L87 549 L59 592 L202 714 L247 714 L247 48 L346 41 L346 0 L89 0 L89 41 Z " />
<glyph glyph-name="two" unicode="2" horiz-adv-x="437" d="M51 50 L179 259 C240.111 357.309 285 428.357 285 533 C285 626.333 249 673 193 673 C151.667 673 112.667 647 82 615 L53 655 C93 697.667 140.667 724 198 724 C286 724 340 654.333 340 537 C340 419.572 291.701 340.39 225 231 L121 58 L121 54 L358 54 L358 0 L51 0 L51 50 Z " />
<glyph glyph-name="three" unicode="3" horiz-adv-x="437" d="M48 84 C84 57.3333 130.667 41 176 41 C258.667 41 298 101 298 197 C298 303.667 249 345 165 345 L121 345 L121 395 L165 395 C238.333 395 287 451 287 547 C287 628.333 252.333 674 191 674 C149.667 674 111.667 653.667 77 619 L51 660 C89.6667 698.667 136.667 724 194 724 C286 724 344 656 344 548 C344 456 303 391 239 375 L239 373 C317.667 356.333 357 297 357 195 C357 75.1299 294.9 -10 176 -10 C132 -10 86.6667 1.33333 48 28 L48 84 Z " />
<glyph glyph-name="four" unicode="4" horiz-adv-x="437" d="M36 223 L239 718 L302 718 L302 226 L370 226 L370 172 L302 172 L302 0 L248 0 L248 172 L36 172 L36 223 Z M248 226 L248 484 C248 549.333 249.667 607.333 251 650 L249 650 C238.333 614 224.333 573.333 211 540 L90 226 L248 226 Z " />
<glyph glyph-name="five" unicode="5" horiz-adv-x="437" d="M54 85 C87.3333 58.3333 130.333 41 173 41 C253 41 296 105.667 296 219 C296 321.667 257.333 381 180 381 C148 381 115 372 91 364 L65 385 L85 714 L321 714 L321 660 L134 660 L120 418 C141.333 424.667 166.333 432 197 432 C293 432 354 358.333 354 225 C354 82.3333 288.667 -10 174 -10 C124.667 -10 84.6667 4 54 28 L54 85 Z " />
<glyph glyph-name="six" unicode="6" horiz-adv-x="437" d="M103 347 C121.266 393.971 156.389 443 221 443 C306.333 443 357 359.667 357 225 C357 81 301.667 -11 207 -11 C103 -11 46 101 46 309 C46 569.494 116.108 724 261 724 C285.667 724 306.333 720.333 323 713 L323 661 C304.333 669.667 284 674 262 674 C152.667 674 104 551 100 347 L103 347 Z M208 40 C266.667 40 302 104 302 224 C302 329.333 274 394 210 394 C146.052 394 104 325.693 104 243 C104 164.152 128 40 208 40 Z " />
<glyph glyph-name="seven" unicode="7" horiz-adv-x="437" d="M107 0 L298 660 L43 660 L43 714 L357 714 L357 668 L167 0 L107 0 Z " />
<glyph glyph-name="eight" unicode="8" horiz-adv-x="437" d="M200 -10 C109.333 -10 47 58 47 178 C47 279.333 88.3333 337 155 377 C99 415.667 63 469.333 63 556 C63 665.333 124 725 204 725 C284 725 344 665 344 557 C344 467.667 306 417.667 246 379 C316.667 333.667 359 279.333 359 182 C359 66.4675 294.329 -10 200 -10 Z M202 41 C267.333 41 305 94 305 182 C305 257.87 278.187 300.209 199 353 C139 314.333 101 263.333 101 178 C101 94 138 41 202 41 Z M203 404 C256.333 438.667 290 479 290 555 C290 632.333 257.667 673 203 673 C151 673 117 631.333 117 554 C117 479.333 149.667 441.333 203 404 Z " />
<glyph glyph-name="nine" unicode="9" horiz-adv-x="437" d="M80 54 C96 44.6667 119.333 40 142 40 C244.087 40 302.333 163.993 305 364 L302 364 C282 317.333 246.667 272 184 272 C97.3333 272 48 353.333 48 488 C48 634.667 102 724 198 724 C303.333 724 358 611.667 358 409 C358 152.974 289.693 -10 143 -10 C120.333 -10 96 -5.66667 80 1 L80 54 Z M195 320 C256.333 320 301 382 301 474 C301 547.697 278.082 674 199 674 C137.667 674 102 607.333 102 490 C102 384.667 133.667 320 195 320 Z " />
<glyph glyph-name="colon" unicode="&#x3a;" horiz-adv-x="437" >
<path fill="black" d="M203 -12 C177 -12 164 5.33333 164 40 C164 74 177 91 203 91 C229 91 242 74 242 40 C242 5.33333 229 -12 203 -12 Z " /><g transform="translate(0,448)" ><path fill="black" d="M203 -12 C177 -12 164 5.33333 164 40 C164 74 177 91 203 91 C229 91 242 74 242 40 C242 5.33333 229 -12 203 -12 Z " /></g></glyph>
<glyph glyph-name="semicolon" unicode="&#x3b;" horiz-adv-x="437" d="M136 -130 C154.667 -42 169 41.6667 177 115 L233 115 L238 104 C223.333 28 202 -58 178 -130 L136 -130 Z M201 438 C175.667 438 163 454.667 163 488 C163 522 175.667 539 201 539 C227 539 240 522 240 488 C240 453.333 225 438 201 438 Z " />
<glyph glyph-name="less" unicode="&#x3c;" horiz-adv-x="437" d="M40 342 L40 377 L349 575 L349 521 L99 359 L349 191 L349 137 L40 342 Z " />
<glyph glyph-name="equal" unicode="&#x3d;" horiz-adv-x="437" d="M42 276 L364 276 L364 223 L42 223 L42 276 Z M42 482 L364 482 L364 429 L42 429 L42 482 Z " />
<glyph glyph-name="greater" unicode="&#x3e;" horiz-adv-x="437" d="M48 191 L298 359 L48 521 L48 575 L357 377 L357 342 L48 137 L48 191 Z " />
<glyph glyph-name="question" unicode="&#x3f;" horiz-adv-x="437" d="M154 188 L154 211 C154 291.447 166.837 328.349 210 385 C257.116 445.203 278 482.948 278 555 C278 635 246.667 672 192 672 C154.667 672 124.667 658.333 94 637 L74 684 C111.333 709.333 149.333 724 196 724 C281.333 724 332 666.333 332 557 C332 463.907 300.268 418.851 250 358 C209.453 303.937 199 272.152 199 206 L199 188 L154 188 Z M177 -12 C151 -12 138 5.33333 138 40 C138 74 151 91 177 91 C203 91 216 74 216 40 C216 5.33333 203 -12 177 -12 Z " />
<glyph glyph-name="at" unicode="&#x40;" horiz-adv-x="437" d="M340 -49 C302.667 -75.6667 264 -89 220 -89 C77.0216 -89 2 56.6407 2 294 C2 558 85.3377 714 217 714 C335.329 714 404 575.641 404 357 C404 228.948 380.662 111 321 111 C290.333 111 269 142.667 265 192 L263 193 C248.333 139.667 221.667 111 187 111 C133.667 111 102 178.667 102 292 C102 425.411 150.468 517 226 517 C251.333 517 280 507 300 495 L293 318 C291.667 300.667 292 274.667 292 256 C292 186 301.667 151 321 151 C351.667 151 365 230.667 365 356 C365 550.667 314.074 672 217 672 C109.312 672 43 532.307 43 295 C43 80.3333 102.333 -47 221 -47 C260.333 -47 300 -33.6667 340 -7 L340 -49 Z M256 464 C246.667 472.667 236 477 224 477 C176 477 146 407 146 291 C146 201.667 162.667 151 196 151 C229.333 151 245.667 205.667 251 323 L256 464 Z " />
<glyph glyph-name="A" unicode="A" horiz-adv-x="437" d="M167 714 L238 714 L389 0 L335 0 L285 249 L122 249 L73 0 L18 0 L167 714 Z M274 301 L221 567 L202 667 C196.667 636.333 190.667 600.333 184 567 L132 301 L274 301 Z " />
<glyph glyph-name="B" unicode="B" horiz-adv-x="437" d="M63 0 L63 714 L186 714 C299.333 714 356 660.333 356 543 C356 455 323 392.667 263 378 L263 375 C332.333 357.667 370 303 370 203 C370 69.6667 304.333 0 199 0 L63 0 Z M114 52 L192 52 C274 52 315 102.667 315 204 C315 305.333 271.333 349 186 349 L114 349 L114 52 Z M114 400 L183 400 C262.333 400 302 445 302 535 C302 624.333 265 662 177 662 L114 662 L114 400 Z " />
<glyph glyph-name="C" unicode="C" horiz-adv-x="437" d="M369 16 C335.667 -1.33333 300 -10 252 -10 C116 -10 40 131.437 40 358 C40 563.359 113.844 725 258 725 C304.667 725 344.333 712.667 383 690 L362 642 C331.333 664.667 295.667 673 261 673 C148.108 673 94 531.463 94 358 C94 167.074 151.39 42 259 42 C301.667 42 337 54.3333 369 69 L369 16 Z " />
<glyph glyph-name="D" unicode="D" horiz-adv-x="437" d="M43 0 L43 714 L178 714 C310 714 378 596 378 364 C378 122.667 310 0 170 0 L43 0 Z M97 54 L166 54 C275.333 54 322 157.667 322 363 C322 565.667 279.333 661 166 661 L97 661 L97 54 Z " />
<glyph glyph-name="E" unicode="E" horiz-adv-x="437" d="M347 54 L347 0 L63 0 L63 714 L347 714 L347 661 L117 661 L117 400 L333 400 L333 346 L117 346 L117 54 L347 54 Z " />
<glyph glyph-name="F" unicode="F" horiz-adv-x="437" d="M63 0 L63 714 L347 714 L347 661 L117 661 L117 370 L336 370 L336 316 L117 316 L117 0 L63 0 Z " />
<glyph glyph-name="G" unicode="G" horiz-adv-x="437" d="M310 312 L220 312 L220 365 L362 365 L362 25 C322.667 1.66667 280 -10 234 -10 C89.0563 -10 29 144.619 29 359 C29 573.355 94.1818 725 234 725 C276.667 725 323.333 712.667 358 682 L337 635 C302.333 664.333 273 673 237 673 C131.433 673 84 550.948 84 359 C84 175.892 127.952 42 233 42 C263.667 42 290 50.3333 310 61 L310 312 Z " />
<glyph glyph-name="H" unicode="H" horiz-adv-x="437" d="M43 0 L43 714 L98 714 L98 399 L310 399 L310 714 L363 714 L363 0 L310 0 L310 345 L98 345 L98 0 L43 0 Z " />
<glyph glyph-name="I" unicode="I" horiz-adv-x="437" d="M75 41 L176 48 L176 666 L75 673 L75 714 L332 714 L332 673 L229 666 L229 48 L332 41 L332 0 L75 0 L75 41 Z " />
<glyph glyph-name="J" unicode="J" horiz-adv-x="437" d="M45 73 C75.6667 53 111 40 147 40 C219.667 40 256 97.3333 256 212 L256 714 L309 714 L309 200 C309 68 260.333 -12 151 -12 C111 -12 74.3333 0.333333 45 19 L45 73 Z " />
<glyph glyph-name="K" unicode="K" horiz-adv-x="437" d="M44 0 L44 714 L96 714 L96 339 C114.667 367 131 394.333 155 437 L309 714 L371 714 L195 401 L374 0 L314 0 L157 359 L96 273 L96 0 L44 0 Z " />
<glyph glyph-name="L" unicode="L" horiz-adv-x="437" d="M347 55 L347 0 L66 0 L66 714 L120 714 L120 55 L347 55 Z " />
<glyph glyph-name="M" unicode="M" horiz-adv-x="437" d="M29 0 L29 714 L104 714 L201 259 L203 259 L301 714 L378 714 L378 0 L329 0 L329 476 C329 536 332.333 598.667 335 656 L332 656 L229 196 L174 196 L73 657 L70 657 C72.6667 601 78 542.333 78 477 L78 0 L29 0 Z " />
<glyph glyph-name="N" unicode="N" horiz-adv-x="437" d="M44 0 L44 714 L115 714 L317 71 L320 71 C320 104.111 314 171.889 314 221 L314 714 L363 714 L363 0 L294 0 L91 646 L87 646 C89.6667 599.333 92 553.333 92 488 L92 0 L44 0 Z " />
<glyph glyph-name="O" unicode="O" horiz-adv-x="437" d="M204 -10 C70.7446 -10 29 163.39 29 359 C29 600.333 85.6667 725 203 725 C329.952 725 378 565.922 378 358 C378 157.896 336.208 -10 204 -10 Z M204 42 C284 42 323 150 323 358 C323 563.333 284 673 204 673 C120 673 84 560.667 84 358 C84 154 124 42 204 42 Z " />
<glyph glyph-name="P" unicode="P" horiz-adv-x="437" d="M63 0 L63 714 L201 714 C314.333 714 370 651.333 370 510 C370 372.667 319.333 291 198 291 L116 291 L116 0 L63 0 Z M116 344 L191 344 C275 344 315 389.667 315 507 C315 617.667 278.333 661 197 661 L116 661 L116 344 Z " />
<glyph glyph-name="Q" unicode="Q" horiz-adv-x="437" d="M247 -4 C234.333 -8 220.333 -10 205 -10 C71.7446 -10 30 163.39 30 359 C30 600.333 86.6667 725 204 725 C330.952 725 379 565.922 379 358 C379 209.775 355.691 81.2997 291 22 L366 -175 L308 -175 L247 -4 Z M205 42 C285 42 324 150 324 358 C324 563.333 285 673 205 673 C121 673 85 560.667 85 358 C85 154 125 42 205 42 Z " />
<glyph glyph-name="R" unicode="R" horiz-adv-x="437" d="M63 0 L63 714 L180 714 C294.667 714 356 658.333 356 517 C356 405 317 346 257 322 L386 0 L326 0 L208 307 L115 307 L115 0 L63 0 Z M115 359 L183 359 C259 359 301 410.667 301 516 C301 622.667 261.333 662 176 662 L115 662 L115 359 Z " />
<glyph glyph-name="S" unicode="S" horiz-adv-x="437" d="M57 76 C94.3333 56 139.667 42 181 42 C261 42 296 98.3333 296 185 C296 271.81 257.528 297.751 183 343 C115.391 383.566 60 426.818 60 541 C60 666.333 123 725 215 725 C257.667 725 299.333 713.333 340 690 L320 641 C284 663.667 248 673 216 673 C148 673 114 626.333 114 545 C114 454.597 157.28 427.825 221 388 C301.311 339.813 351 304.667 351 189 C351 58.3333 285 -10 181 -10 C138.333 -10 91.6667 2.33333 57 21 L57 76 Z " />
<glyph glyph-name="T" unicode="T" horiz-adv-x="437" d="M176 0 L176 661 L32 661 L32 714 L375 714 L375 661 L230 661 L230 0 L176 0 Z " />
<glyph glyph-name="U" unicode="U" horiz-adv-x="437" d="M43 714 L98 714 L98 230 C98 96.6667 134.667 42 204 42 C272 42 310 94.6667 310 228 L310 714 L363 714 L363 224 C363 60 306.667 -10 204 -10 C97.3333 -10 43 65.6667 43 227 L43 714 Z " />
<glyph glyph-name="V" unicode="V" horiz-adv-x="437" d="M203 59 C209.667 99 218.333 149 229 201 L337 714 L390 714 L231 0 L173 0 L17 714 L69 714 L176 200 C186.667 149.333 196.667 100.333 202 59 L203 59 Z " />
<glyph glyph-name="W" unicode="W" horiz-adv-x="437" d="M115 56 C120.373 98.9813 126.951 181.024 135 232 L177 532 L230 532 L272 232 C280.199 174.604 291.379 99.5559 294 55 L297 55 C299.664 100.283 304.333 234.988 307 283 C317.667 428.333 330.333 568.667 341 714 L390 714 L331 0 L266 0 L220 349 C213.333 398.333 209 423.333 205 458 L203 458 C199 423.333 194.667 398.333 188 349 L142 0 L77 0 L17 714 L63 714 C73.6667 568.667 88.3333 427.333 99 282 C104.401 230.694 110.295 101.977 113 56 L115 56 Z " />
<glyph glyph-name="X" unicode="X" horiz-adv-x="437" d="M22 0 L172 373 L36 714 L94 714 L204 422 L318 714 L376 714 L235 371 L385 0 L326 0 L202 323 L79 0 L22 0 Z " />
<glyph glyph-name="Y" unicode="Y" horiz-adv-x="437" d="M177 0 L177 274 L22 714 L80 714 L204 330 L327 714 L385 714 L230 275 L230 0 L177 0 Z " />
<glyph glyph-name="Z" unicode="Z" horiz-adv-x="437" d="M63 47 L292 661 L75 661 L75 714 L351 714 L351 667 L123 54 L357 54 L357 0 L63 0 L63 47 Z " />
<glyph glyph-name="bracketleft" unicode="&#x5b;" horiz-adv-x="437" d="M320 -112 L320 -160 L155 -160 L155 717 L320 717 L320 670 L205 670 L205 -112 L320 -112 Z " />
<glyph glyph-name="backslash" unicode="&#x5c;" horiz-adv-x="437" d="M282 -2 L69 716 L118 716 L332 -2 L282 -2 Z " />
<glyph glyph-name="bracketright" unicode="&#x5d;" horiz-adv-x="437" d="M86 -114 L201 -114 L201 668 L86 668 L86 716 L251 716 L251 -161 L86 -161 L86 -114 Z " />
<glyph glyph-name="asciicircum" unicode="&#x5e;" horiz-adv-x="437" d="M35 329 L189 714 L222 714 L372 329 L320 329 L205 644 L86 329 L35 329 Z " />
<glyph glyph-name="underscore" unicode="&#x5f;" horiz-adv-x="437" d="M2 -83 L404 -83 L404 -137 L2 -137 L2 -83 Z " />
<glyph glyph-name="grave" unicode="&#x60;" horiz-adv-x="437" d="M211 606 C178.4 644.033 126.138 711.406 102 757 L102 766 L164 766 C184 718 219.333 656 246 616 L246 606 L211 606 Z " />
<glyph glyph-name="a" unicode="a" horiz-adv-x="437" d="M295 86 L293 86 C267.667 31.3333 233 -10 173 -10 C101 -10 55 45.3333 55 140 C55 249.333 113 301.333 221 308 L293 313 L293 353 C293 455.667 260.667 492 206 492 C170 492 135.667 476.667 101 454 L81 500 C121 526.667 161 542 209 542 C298.333 542 346 489 346 361 L346 0 L305 0 L295 86 Z M293 269 L233 265 C151.667 258.333 110 221 110 141 C110 73 142 40 186 40 C250 40 293 103.667 293 217 L293 269 Z " />
<glyph glyph-name="b" unicode="b" horiz-adv-x="437" d="M56 760 L110 760 L110 542 C110 510 109.333 471.667 108 441 L110 441 C130 501 167.667 543 225 543 C317 543 368 449 368 269 C368 90.3333 316.667 -10 222 -10 C168.667 -10 134 27 110 83 L106 83 L97 0 L56 0 L56 760 Z M208 41 C276 41 312 117.667 312 267 C312 417 278 492 210 492 C142.667 492 109 417.333 109 268 C109 116.667 142 41 208 41 Z " />
<glyph glyph-name="c" unicode="c" horiz-adv-x="437" d="M346 16 C318 0 281.667 -10 243 -10 C129.667 -10 65 83.3333 65 262 C65 451.333 138.667 543 248 543 C286.667 543 321.333 534.333 352 517 L335 469 C308.333 486.333 282.667 492 252 492 C166.667 492 121 413.667 121 263 C121 121.667 161.667 41 247 41 C281.667 41 316.667 52 346 68 L346 16 Z " />
<glyph glyph-name="d" unicode="d" horiz-adv-x="437" d="M300 90 L298 90 C279.333 36.6667 244.667 -10 182 -10 C90 -10 39 82.3333 39 261 C39 446.333 93.3333 543 184 543 C244 543 279.333 498 298 446 L301 446 C298.333 476.667 297 507.333 297 534 L297 760 L350 760 L350 0 L309 0 L300 90 Z M298 278 C298 412.667 272 492 200 492 C130 492 95 413.667 95 257 C95 114.333 124 41 196 41 C270.667 41 298 118.333 298 245 L298 278 Z " />
<glyph glyph-name="e" unicode="e" horiz-adv-x="437" d="M348 25 C312 2.33333 276.667 -10 230 -10 C110 -10 46 92.3333 46 263 C46 430.896 103.437 543 210 543 C312.251 543 364 436.892 364 300 L364 259 L101 259 C102.333 113.667 146 41 232 41 C274.667 41 309.333 53.3333 348 80 L348 25 Z M311 308 C311 413.697 278.177 492 209 492 C146.333 492 108.667 429.333 102 308 L311 308 Z " />
<glyph glyph-name="f" unicode="f" horiz-adv-x="437" d="M163 0 L163 482 L51 482 L51 523 L163 534 L163 594 C163 719.333 203.333 765 290 765 C320.667 765 347.333 759.333 370 750 L357 703 C337 711.667 317 716 297 716 C241 716 217 685 217 593 L217 532 L352 532 L352 482 L217 482 L217 0 L163 0 Z " />
<glyph glyph-name="g" unicode="g" horiz-adv-x="437" d="M62 -153 C98 -177 143.333 -192 182 -192 C262 -192 297 -131.667 297 -25 L297 10 C297 34 297.333 65.6667 300 91 L297 91 C275.667 27 237.333 -9 184 -9 C92 -9 39 84.3333 39 263 C39 436.333 91 543 187 543 C240.333 543 275.333 507.667 298 453 L301 453 L307 532 L350 532 L350 -21 C350 -166.333 298 -243 182 -243 C136.667 -243 96.6667 -231.333 62 -210 L62 -153 Z M299 288 C299 417.333 271.667 492 201 492 C127.667 492 95 407 95 263 C95 115 130 41 200 41 C272.13 41 299 125.307 299 240 L299 288 Z " />
<glyph glyph-name="h" unicode="h" horiz-adv-x="437" d="M56 0 L56 760 L110 760 L110 514 C110 487.333 108.333 467 107 443 L110 443 C128.667 497.667 163 543 227 543 C303 543 354 483.667 354 353 L354 0 L301 0 L301 342 C301 446 272.333 492 215 492 C148.333 492 110 423.667 110 289 L110 0 L56 0 Z " />
<glyph glyph-name="i" unicode="i" horiz-adv-x="437" >
<path fill="black" d="M62 41 L184 49 L184 482 L72 491 L72 532 L237 532 L237 49 L348 41 L348 0 L62 0 L62 41 Z " /><g transform="translate(4,658)" ><path fill="black" d="M203 -12 C177 -12 164 5.33333 164 40 C164 74 177 91 203 91 C229 91 242 74 242 40 C242 5.33333 229 -12 203 -12 Z " /></g></glyph>
<glyph glyph-name="j" unicode="j" horiz-adv-x="437" >
<path fill="black" d="M39 -175 C61.6667 -185.667 102.333 -195 129 -195 C185 -195 213 -151.333 213 -74 L213 482 L77 491 L77 532 L266 532 L266 -74 C266 -191.333 218.333 -246 133 -246 C98.3333 -246 60.3333 -236 39 -228 L39 -175 Z " /><g transform="translate(30,653)" ><path fill="black" d="M204 -12 C177.333 -12 164 8 164 40 C164 73.3333 177.333 93 204 93 C230.667 93 244 73.3333 244 40 C244 8 230.667 -12 204 -12 Z " /></g></glyph>
<glyph glyph-name="k" unicode="k" horiz-adv-x="437" d="M70 0 L70 760 L123 760 L123 393 C123 342.333 121.667 301.333 119 248 L120 248 C134.667 272 145.333 290.667 160 312 L306 532 L371 532 L212 304 L381 0 L319 0 L176 262 L123 194 L123 0 L70 0 Z " />
<glyph glyph-name="l" unicode="l" horiz-adv-x="437" d="M62 41 L179 49 L179 711 L69 719 L69 760 L232 760 L232 49 L348 41 L348 0 L62 0 L62 41 Z " />
<glyph glyph-name="m" unicode="m" horiz-adv-x="437" d="M32 0 L32 532 L69 532 L76 470 L79 470 C91 510 114.333 542 153 542 C194.333 542 210.667 511.333 220 470 L222 470 C236.667 514 260 542 300 542 C350.667 542 376 504.667 376 402 L376 0 L327 0 L327 396 C327 468 313.333 492 284 492 C242.667 492 229 433 229 353 L229 0 L178 0 L178 388 C178 469.333 164.667 492 138 492 C94.2078 492 80 416.411 80 347 L80 0 L32 0 Z " />
<glyph glyph-name="n" unicode="n" horiz-adv-x="437" d="M56 0 L56 532 L100 532 L107 442 L110 442 C128.667 500.667 169 542 229 542 C309 542 354 485.667 354 355 L354 0 L301 0 L301 350 C301 447.333 273.667 492 219 492 C151 492 110 425.333 110 292 L110 0 L56 0 Z " />
<glyph glyph-name="o" unicode="o" horiz-adv-x="437" d="M204 -10 C97.3333 -10 39 90.6667 39 268 C39 442.667 97.3333 542 204 542 C310.667 542 368 436.667 368 266 C368 91.3333 312 -10 204 -10 Z M204 40 C277.333 40 312 119 312 267 C312 408.333 278.667 493 204 493 C132 493 95 413.667 95 267 C95 121.667 130.667 40 204 40 Z " />
<glyph glyph-name="p" unicode="p" horiz-adv-x="437" d="M56 -240 L56 532 L99 532 L106 436 L109 436 C130.196 491.64 163.01 542 225 542 C317 542 368 451.667 368 269 C368 83.6667 311 -10 223 -10 C165.667 -10 130 37.3333 110 88 L106 88 C108.667 65.3333 110 29.6667 110 -1 L110 -240 L56 -240 Z M110 256 C110 118.667 144 41 212 41 C274.667 41 312 114 312 270 C312 418 279 492 213 492 C141 492 110 413.333 110 284 L110 256 Z " />
<glyph glyph-name="q" unicode="q" horiz-adv-x="437" d="M297 -236 L297 2 C297 28.6667 298.333 61.3333 301 92 L298 92 C278 33.3333 242 -10 186 -10 C92.6667 -10 39 82.6667 39 264 C39 438.667 92.6667 542 190 542 C246 542 278.333 499.333 297 446 L300 446 L307 532 L350 532 L350 -236 L297 -236 Z M299 282 C299 412.667 268.667 491 202 491 C132.667 491 95 409.333 95 264 C95 113.333 133 41 197 41 C266.177 41 299 123.918 299 243 L299 282 Z " />
<glyph glyph-name="r" unicode="r" horiz-adv-x="437" d="M40 41 L145 49 L145 482 L48 491 L48 532 L188 532 L193 435 L196 435 C214.667 496.333 251.667 542 313 542 C334.333 542 359 536.333 379 527 L365 471 C347.667 480.333 325.667 484 307 484 C237.667 484 198 402.667 198 284 L198 49 L309 41 L309 0 L40 0 L40 41 Z " />
<glyph glyph-name="s" unicode="s" horiz-adv-x="437" d="M73 79 C107.667 56.3333 149.667 40 195 40 C264.333 40 288 76.3333 288 135 C288 191.517 260.374 208.924 192 251 C126.272 290.437 79 321.176 79 406 C79 492.667 129 542 221 542 C262.333 542 296.667 532.333 334 511 L315 464 C282.333 483.333 250.667 493 220 493 C164 493 133 464 133 408 C133 352.768 164.44 333.336 230 294 C294.161 253.899 341 229.462 341 136 C341 42.6667 292 -10 192 -10 C142.667 -10 102.333 4 73 24 L73 79 Z " />
<glyph glyph-name="t" unicode="t" horiz-adv-x="437" d="M157 482 L50 482 L50 519 L159 534 L176 670 L211 670 L211 532 L354 532 L354 482 L210 482 L210 169 C210 83.6667 232 41 288 41 C310.667 41 333.667 45.3333 357 54 L357 4 C333 -5.33333 307 -10 279 -10 C199 -10 157 42.6667 157 160 L157 482 Z " />
<glyph glyph-name="u" unicode="u" horiz-adv-x="437" d="M53 532 L106 532 L106 184 C106 80 135.333 40 194 40 C260.667 40 297 108.333 297 243 L297 532 L350 532 L350 0 L306 0 L299 91 L295 91 C276.333 32.3333 238 -10 178 -10 C96.6667 -10 53 49 53 173 L53 532 Z " />
<glyph glyph-name="v" unicode="v" horiz-adv-x="437" d="M205 54 C213 95.3333 224.333 144.333 235 187 L318 532 L371 532 L234 0 L171 0 L35 532 L88 532 L172 187 C182.667 144.333 193.667 95.3333 203 54 L205 54 Z " />
<glyph glyph-name="w" unicode="w" horiz-adv-x="437" d="M113 58 C118.198 91.7854 127.093 160.193 135 205 L178 428 L231 428 L273 204 C281.09 160.855 290.93 92.4909 296 57 L298 57 C300.667 95.6667 304.333 156 311 212 L348 532 L396 532 L327 0 L266 0 L226 234 C218 279.333 210.333 324 205 368 L203 368 C197.667 324 189.667 276 183 232 L141 0 L80 0 L11 532 L59 532 L97 213 C103.667 157 108.333 94 111 58 L113 58 Z " />
<glyph glyph-name="x" unicode="x" horiz-adv-x="437" d="M35 0 L171 273 L43 532 L103 532 L203 315 L305 532 L365 532 L234 271 L371 0 L309 0 L203 231 L96 0 L35 0 Z " />
<glyph glyph-name="y" unicode="y" horiz-adv-x="437" d="M44 -186 C54.6667 -190 69.6667 -194 83 -194 C120.333 -194 143.333 -170 162 -94 L185 1 L38 532 L94 532 L180 193 C194.667 134.333 202.333 98.6667 209 64 L211 64 C217.667 102.667 227.667 150.333 237 193 L315 532 L372 532 L215 -90 C189.667 -187.333 153 -244 89 -244 C73.6667 -244 58.6667 -241.333 44 -236 L44 -186 Z " />
<glyph glyph-name="z" unicode="z" horiz-adv-x="437" d="M63 42 L280 482 L76 482 L76 532 L341 532 L341 486 L125 50 L345 50 L345 0 L63 0 L63 42 Z " />
<glyph glyph-name="braceleft" unicode="&#x7b;" horiz-adv-x="437" d="M178 149 C178 226.333 158.667 256 96 256 L96 300 C152 300 178 323.333 178 406 L178 567 C178 665 224.333 714.667 317 716 L317 671 C258.333 668.333 229 640.667 229 562 L229 402 C229 328.667 209.667 289.667 159 279 L159 276 C209.667 265.333 229 227.333 229 154 L229 -7 C229 -85.6667 254.333 -113.667 317 -115 L317 -160 C225 -157.333 178 -116.333 178 -11 L178 149 Z " />
<glyph glyph-name="bar" unicode="&#x7c;" horiz-adv-x="437" d="M172 -240 L172 760 L221 760 L221 -240 L172 -240 Z " />
<glyph glyph-name="braceright" unicode="&#x7d;" horiz-adv-x="437" d="M80 -115 C138.667 -112.333 168 -84.6667 168 -6 L168 154 C168 227.333 187.333 266.333 238 277 L238 280 C187.333 290.667 168 328.667 168 402 L168 563 C168 641.667 142.667 669.667 80 671 L80 716 C172 713.333 219 672.333 219 567 L219 407 C219 329.667 238.333 300 301 300 L301 256 C245 256 219 232.667 219 150 L219 -11 C219 -109 172.667 -158.667 80 -160 L80 -115 Z " />
<glyph glyph-name="asciitilde" unicode="&#x7e;" horiz-adv-x="437" d="M358 347 C339.333 319 310 300 278 300 C246 300 224.667 311.333 198 330 C172.667 347.333 151 358 127 358 C99.6667 358 73.3333 338.333 48 299 L48 355 C69.3333 387 95.6667 407 129 407 C161 407 183 394.667 211 376 C237.667 358.667 257 348 281 348 C306.333 348 335.333 368.333 358 403 L358 347 Z " />
<glyph glyph-name="uni00A0" unicode="&#xa0;" horiz-adv-x="437" />
<glyph glyph-name="exclamdown" unicode="&#xa1;" horiz-adv-x="437" d="M178 341 L222 341 L233 -185 L169 -185 L178 341 Z M201 438 C175 438 162 455 162 489 C162 523.667 175 541 201 541 C227 541 240 523.667 240 489 C240 455 227 438 201 438 Z " />
<glyph glyph-name="cent" unicode="&#xa2;" horiz-adv-x="437" d="M225 -10 L225 90 C119.667 102 72 200.667 72 362 C72 523.333 124 624.333 224 639 L224 724 L259 724 L259 641 C289.667 638.333 316.667 632.667 338 618 L322 572 C298 586.667 274 592 254 592 C166 592 124 507.333 124 362 C124 218 163 139 251 139 C277.667 139 308.667 148.333 334 163 L334 113 C315.333 102.333 290.333 92.6667 261 90 L261 -10 L225 -10 Z " />
<glyph glyph-name="sterling" unicode="&#xa3;" horiz-adv-x="437" d="M360 52 L360 0 L51 0 L51 48 C93.6667 68 116 115 116 199 L116 332 L51 332 L51 378 L116 378 L116 538 C116 656.667 160 724 256 724 C296 724 326.667 710 356 686 L337 641 C307.667 663.667 285.667 672 259 672 C196.333 672 169 629.333 169 532 L169 378 L292 378 L292 332 L169 332 L169 199 C169 123 150.333 77.3333 117 52 L360 52 Z " />
<glyph glyph-name="currency" unicode="&#xa4;" horiz-adv-x="437" d="M25 162 L80 231 C58 267 47 307.667 47 353 C47 399.667 58 440.333 80 475 L24 546 L51 575 L107 504 C134.333 533.333 166.333 548 203 548 C237.667 548 271 535.667 299 505 L355 575 L382 546 L327 476 C349 440 360 399 360 353 C360 310.333 350.667 266 328 230 L382 160 L355 131 L299 201 C272.333 173 237.667 159 203 159 C165.667 159 133.667 173.333 107 202 L52 133 L25 162 Z M203 203 C271.39 203 318 270.13 318 354 C318 440.433 270.719 505 204 505 C137.411 505 89 439.303 89 353 C89 267.615 136.281 203 203 203 Z " />
<glyph glyph-name="yen" unicode="&#xa5;" horiz-adv-x="437" d="M76 186 L177 186 L177 284 L76 284 L76 327 L166 327 L43 714 L99 714 L204 359 L307 714 L363 714 L240 327 L332 327 L332 284 L230 284 L230 186 L332 186 L332 143 L230 143 L230 0 L177 0 L177 143 L76 143 L76 186 Z " />
<glyph glyph-name="brokenbar" unicode="&#xa6;" horiz-adv-x="437" d="M172 -242 L172 143 L221 143 L221 -242 L172 -242 Z M172 376 L172 761 L221 761 L221 376 L172 376 Z " />
<glyph glyph-name="section" unicode="&#xa7;" horiz-adv-x="437" d="M70 71 C96.6667 48.3333 140.333 33 179 33 C235 33 274 69.6667 274 131 C274 189.991 237.152 212.509 183 245 C115.704 290.761 78 319.144 78 388 C78 456 111.667 495.667 157 517 C122.333 547.667 98 582.667 98 640 C98 720 147.333 766 226 766 C264.667 766 293.333 756 324 736 L307 695 C280.333 713.667 255.667 723 225 723 C175.667 723 145 696.333 145 643 C145 591 176.333 557 223 529 C277.92 495.002 336 465.92 336 376 C336 313.333 309.667 266 271 242 C305.667 208.667 322 181 322 133 C322 45 268.667 -10 178 -10 C135.333 -10 96.6667 1.33333 70 20 L70 71 Z M239 265 C271 282.333 291 320 291 368 C291 425.333 263.333 455 190 495 C148.667 480.333 124 445.667 124 395 C124 335.016 163.37 315.086 204 288 L239 265 Z " />
<glyph glyph-name="dieresis" unicode="&#xa8;" horiz-adv-x="437" d="M131 630 C111 630 97 648.333 97 679 C97 709.667 111 727 131 727 C152.333 727 166 709.667 166 679 C166 647 152.333 630 131 630 Z M274 630 C254 630 240 648.333 240 679 C240 709.667 254 727 274 727 C295.333 727 309 709.667 309 679 C309 647 295.333 630 274 630 Z " />
<glyph glyph-name="copyright" unicode="&#xa9;" horiz-adv-x="437" d="M202 138 C94.1299 138 23 229.225 23 359 C23 492.255 98.329 582 204 582 C312.364 582 384 489.022 384 360 C384 228.416 306.918 138 202 138 Z M203 172 C289.407 172 351 246.974 351 359 C351 470.134 291.97 547 203 547 C116.593 547 55 474.589 55 360 C55 250.667 115.97 172 203 172 Z M265 232 C247.667 224 230.333 219 209 219 C141 219 104 272 104 356 C104 444 141.667 500 211 500 C233.667 500 254.333 495 273 483 L261 450 C245 460 228.333 465 211 465 C165.667 465 139 428 139 356 C139 287.333 163 253 211 253 C227 253 245 257.667 265 267 L265 232 Z " />
<glyph glyph-name="ordfeminine" unicode="&#xaa;" horiz-adv-x="437" d="M258 442 C242 406 216.333 388 181 388 C134.333 388 100 420.667 100 482 C100 548.667 140 579.333 216 586 L254 590 L254 619 C254 665.667 235 685 199 685 C175 685 155.333 677.667 134 663 L121 697 C146.333 713 171.333 723 202 723 C264 723 295 688 295 618 L295 394 L265 394 L258 442 Z M254 553 L223 550 C169.667 546 141 529.667 141 483 C141 445.667 159.333 427 190 427 C231.333 427 254 465 254 521 L254 553 Z " />
<glyph glyph-name="guillemotleft" unicode="&#xab;" horiz-adv-x="437" >
<g transform="translate(-75,0)" ><path fill="black" d="M245 72 L127 259 L127 272 L245 460 L281 440 L189 266 L281 93 L245 72 Z " /></g><g transform="translate(74,0)" ><path fill="black" d="M245 72 L127 259 L127 272 L245 460 L281 440 L189 266 L281 93 L245 72 Z " /></g></glyph>
<glyph glyph-name="logicalnot" unicode="&#xac;" horiz-adv-x="437" d="M49 376 L349 376 L349 123 L304 123 L304 329 L49 329 L49 376 Z " />
<glyph glyph-name="uni00AD" unicode="&#xad;" horiz-adv-x="437" >
<g transform="translate(2,0)" ><path fill="black" d="M102 301 L304 301 L304 247 L102 247 L102 301 Z " /></g></glyph>
<glyph glyph-name="registered" unicode="&#xae;" horiz-adv-x="437" d="M202 138 C94.1299 138 23 229.225 23 359 C23 492.255 98.9524 582 204 582 C312.494 582 383 489.022 383 360 C383 228.416 307.671 138 202 138 Z M203 172 C289.407 172 351 246.974 351 359 C351 470.134 291.97 547 203 547 C116.593 547 55 474.589 55 360 C55 250.667 115.97 172 203 172 Z M135 222 L135 500 L199 500 C249.667 500 277 471 277 419 C277 372.333 256.667 351.667 234 341 L291 222 L254 222 L203 333 L167 333 L167 222 L135 222 Z M167 365 L198 365 C224.667 365 245 378.667 245 416 C245 452 228.667 467 198 467 L167 467 L167 365 Z " />
<glyph glyph-name="macron" unicode="&#xaf;" horiz-adv-x="437" d="M106 670 L299 670 L299 626 L106 626 L106 670 Z " />
<glyph glyph-name="degree" unicode="&#xb0;" horiz-adv-x="437" d="M203 457 C143 457 95 506 95 590 C95 674 143 723 203 723 C263 723 311 674 311 590 C311 507.333 263 457 203 457 Z M203 496 C243 496 274 530 274 590 C274 648.667 245.667 685 203 685 C160.333 685 132 646 132 590 C132 530 164.333 496 203 496 Z " />
<glyph glyph-name="plusminus" unicode="&#xb1;" horiz-adv-x="437" d="M178 131 L178 339 L46 339 L46 386 L178 386 L178 596 L223 596 L223 386 L354 386 L354 339 L223 339 L223 131 L178 131 Z M46 48 L353 48 L353 0 L46 0 L46 48 Z " />
<glyph glyph-name="twosuperior" unicode="&#xb2;" horiz-adv-x="437" d="M100 455 L178 569 C228.759 641.131 259 681.821 259 738 C259 780.667 238 811 198 811 C171.333 811 147 797.333 125 770 L102 803 C126 833.667 160.667 853 202 853 C266 853 304 808 304 740 C304 671.072 265.119 631.007 204 538 L151 457 L312 457 L312 415 L100 415 L100 455 Z " />
<glyph glyph-name="threesuperior" unicode="&#xb3;" horiz-adv-x="437" d="M102 479 C127.333 461 155 452 185 452 C238.333 452 263 483 263 535 C263 589.667 236 617 182 617 L149 617 L149 658 L180 658 C228 658 255 690.667 255 740 C255 784 232.667 809 194 809 C166 809 144.667 795.667 122 773 L101 808 C129 836 159.333 852 198 852 C258 852 296 813 296 745 C296 693 274.667 656.667 240 642 L240 640 C282.667 625.333 306 590.333 306 533 C306 453 258 409 186 409 C155.333 409 127.333 416.333 102 431 L102 479 Z " />
<glyph glyph-name="acute" unicode="&#xb4;" horiz-adv-x="437" d="M175 606 L175 616 C207 666.667 236 719.333 256 766 L318 766 L318 757 C293.808 713.992 244.367 644.088 209 606 L175 606 Z " />
<glyph glyph-name="mu" unicode="&#xb5;" horiz-adv-x="437" d="M53 227 L55 227 L55 532 L108 532 L108 184 C108 80 137.333 40 196 40 C262.667 40 299 108.333 299 243 L299 532 L352 532 L352 0 L308 0 L301 91 L297 91 C278.333 32.3333 240 -10 180 -10 C150 -10 125.333 -2 106 14 L106 -240 L53 -240 L53 227 Z " />
<glyph glyph-name="paragraph" unicode="&#xb6;" horiz-adv-x="437" d="M185 -127 L185 311 C174.333 305 163 302 151 302 C81.6667 302 51 387 51 531 C51 680.333 86 760 166 760 L327 760 L327 -127 L289 -127 L289 717 L223 717 L223 -127 L185 -127 Z " />
<glyph glyph-name="periodcentered" unicode="&#xb7;" horiz-adv-x="437" >
<g transform="translate(2,282)" ><path fill="black" d="M203 -12 C177 -12 164 5.33333 164 40 C164 74 177 91 203 91 C229 91 242 74 242 40 C242 5.33333 229 -12 203 -12 Z " /></g></glyph>
<glyph glyph-name="cedilla" unicode="&#xb8;" horiz-adv-x="437" d="M135 -194 C146.333 -198 158.333 -200 171 -200 C208.333 -200 229 -178.333 229 -141 C229 -102.333 204.667 -85 162 -81 L190 0 L224 0 L205 -56 C250.333 -65.3333 273 -94.3333 273 -143 C273 -204.333 237 -240 177 -240 C162.333 -240 145.667 -238 135 -234 L135 -194 Z " />
<glyph glyph-name="onesuperior" unicode="&#xb9;" horiz-adv-x="437" d="M114 449 L194 453 L194 691 C194 723 193.333 758.333 196 789 L167 762 L121 723 L99 756 L201 843 L236 843 L236 453 L312 449 L312 415 L114 415 L114 449 Z " />
<glyph glyph-name="ordmasculine" unicode="&#xba;" horiz-adv-x="437" d="M207 388 C136.333 388 100 453.333 100 556 C100 660 140 723 208 723 C276 723 313 661 313 557 C313 454.333 277.667 388 207 388 Z M207 427 C252.333 427 272 474.667 272 556 C272 637.333 251 685 207 685 C165.667 685 142 642.667 142 556 C142 473.333 164.333 427 207 427 Z " />
<glyph glyph-name="guillemotright" unicode="&#xbb;" horiz-adv-x="437" >
<g transform="translate(69,-31)" ><path fill="black" d="M218 294 L126 467 L162 488 L280 301 L280 288 L162 100 L126 120 L218 294 Z " /></g><g transform="translate(-79,-31)" ><path fill="black" d="M218 294 L126 467 L162 488 L280 301 L280 288 L162 100 L126 120 L218 294 Z " /></g></glyph>
<glyph glyph-name="onequarter" unicode="&#xbc;" horiz-adv-x="437" >
<g transform="translate(-2,-576)" ><path fill="black" d="M89 556 L229 845 L272 845 L272 561 L323 561 L323 522 L272 522 L272 415 L231 415 L231 522 L89 522 L89 556 Z M231 561 L231 711 C231 739 230.667 759 232 783 C226.667 768.333 219 754.667 211 736 L131 561 L231 561 Z " /></g><g transform="translate(-3,50)" ><path fill="black" d="M114 449 L194 453 L194 691 C194 723 193.333 758.333 196 789 L167 762 L121 723 L99 756 L201 843 L236 843 L236 453 L312 449 L312 415 L114 415 L114 449 Z " /></g><path fill="black" d="M35 357 L365 405 L365 373 L35 324 L35 357 Z " /></glyph>
<glyph glyph-name="onehalf" unicode="&#xbd;" horiz-adv-x="437" >
<g transform="translate(-2,-576)" ><path fill="black" d="M100 455 L178 569 C228.759 641.131 259 681.821 259 738 C259 780.667 238 811 198 811 C171.333 811 147 797.333 125 770 L102 803 C126 833.667 160.667 853 202 853 C266 853 304 808 304 740 C304 671.072 265.119 631.007 204 538 L151 457 L312 457 L312 415 L100 415 L100 455 Z " /></g><g transform="translate(-3,50)" ><path fill="black" d="M114 449 L194 453 L194 691 C194 723 193.333 758.333 196 789 L167 762 L121 723 L99 756 L201 843 L236 843 L236 453 L312 449 L312 415 L114 415 L114 449 Z " /></g><path fill="black" d="M35 357 L365 405 L365 373 L35 324 L35 357 Z " /></glyph>
<glyph glyph-name="threequarters" unicode="&#xbe;" horiz-adv-x="437" >
<g transform="translate(-2,-576)" ><path fill="black" d="M89 556 L229 845 L272 845 L272 561 L323 561 L323 522 L272 522 L272 415 L231 415 L231 522 L89 522 L89 556 Z M231 561 L231 711 C231 739 230.667 759 232 783 C226.667 768.333 219 754.667 211 736 L131 561 L231 561 Z " /></g><g transform="translate(0,50)" ><path fill="black" d="M102 479 C127.333 461 155 452 185 452 C238.333 452 263 483 263 535 C263 589.667 236 617 182 617 L149 617 L149 658 L180 658 C228 658 255 690.667 255 740 C255 784 232.667 809 194 809 C166 809 144.667 795.667 122 773 L101 808 C129 836 159.333 852 198 852 C258 852 296 813 296 745 C296 693 274.667 656.667 240 642 L240 640 C282.667 625.333 306 590.333 306 533 C306 453 258 409 186 409 C155.333 409 127.333 416.333 102 431 L102 479 Z " /></g><path fill="black" d="M35 357 L365 405 L365 373 L35 324 L35 357 Z " /></glyph>
<glyph glyph-name="questiondown" unicode="&#xbf;" horiz-adv-x="437" d="M332 -155 C294.667 -180.333 256.667 -195 210 -195 C124.667 -195 74 -137.333 74 -28 C74 65.0933 105.732 110.149 156 171 C196.547 225.063 207 256.848 207 323 L207 341 L252 341 L252 318 C252 237.553 239.163 200.651 196 144 C148.884 83.7966 128 46.0519 128 -26 C128 -106 159.333 -143 214 -143 C251.333 -143 281.333 -129.333 312 -108 L332 -155 Z M229 438 C203 438 190 455 190 489 C190 523.667 203 541 229 541 C255 541 268 523.667 268 489 C268 455 255 438 229 438 Z " />
<glyph glyph-name="Agrave" unicode="&#xc0;" horiz-adv-x="437" d="M167 714 L238 714 L389 0 L335 0 L285 249 L122 249 L73 0 L18 0 L167 714 Z M274 301 L221 567 L202 667 C196.667 636.333 190.667 600.333 184 567 L132 301 L274 301 Z M238 793 L203 793 C170.4 831.033 118.138 898.406 94 944 L94 953 L156 953 C176 905 211.333 843 238 803 L238 793 Z " />
<glyph glyph-name="Aacute" unicode="&#xc1;" horiz-adv-x="437" d="M167 714 L238 714 L389 0 L335 0 L285 249 L122 249 L73 0 L18 0 L167 714 Z M274 301 L221 567 L202 667 C196.667 636.333 190.667 600.333 184 567 L132 301 L274 301 Z M166 803 C198 853.667 227 906.333 247 953 L309 953 L309 944 C284.808 900.992 235.367 831.088 200 793 L166 793 L166 803 Z " />
<glyph glyph-name="Acircumflex" unicode="&#xc2;" horiz-adv-x="437" d="M167 714 L238 714 L389 0 L335 0 L285 249 L122 249 L73 0 L18 0 L167 714 Z M274 301 L221 567 L202 667 C196.667 636.333 190.667 600.333 184 567 L132 301 L274 301 Z M101 802 C127.112 843.779 162.023 909.395 178 952 L228 952 C246.894 906.115 281.954 839.405 306 802 L306 793 L275 793 C252.333 823.667 227 864.667 203 902 C180.333 866 153.667 822.333 131 793 L101 793 L101 802 Z " />
<glyph glyph-name="Atilde" unicode="&#xc3;" horiz-adv-x="437" >
<path fill="black" d="M167 714 L238 714 L389 0 L335 0 L285 249 L122 249 L73 0 L18 0 L167 714 Z M274 301 L221 567 L202 667 C196.667 636.333 190.667 600.333 184 567 L132 301 L274 301 Z " /><g transform="translate(0,187)" ><path fill="black" d="M84 616 C88 680 107.667 725 149 725 C191.556 725 219.444 662 254 662 C272.667 662 284 683.333 288 726 L323 726 C319 654 293 616 257 616 C214.34 616 182.895 680 152 680 C133.333 680 121.667 658.667 117 616 L84 616 Z " /></g></glyph>
<glyph glyph-name="Adieresis" unicode="&#xc4;" horiz-adv-x="437" >
<g transform="translate(0,176)" ><path fill="black" d="M131 630 C111 630 97 648.333 97 679 C97 709.667 111 727 131 727 C152.333 727 166 709.667 166 679 C166 647 152.333 630 131 630 Z M274 630 C254 630 240 648.333 240 679 C240 709.667 254 727 274 727 C295.333 727 309 709.667 309 679 C309 647 295.333 630 274 630 Z " /></g><path fill="black" d="M167 714 L238 714 L389 0 L335 0 L285 249 L122 249 L73 0 L18 0 L167 714 Z M274 301 L221 567 L202 667 C196.667 636.333 190.667 600.333 184 567 L132 301 L274 301 Z " /></glyph>
<glyph glyph-name="Aring" unicode="&#xc5;" horiz-adv-x="437" >
<path fill="black" d="M167 714 L238 714 L389 0 L335 0 L285 249 L122 249 L73 0 L18 0 L167 714 Z M274 301 L221 567 L202 667 C196.667 636.333 190.667 600.333 184 567 L132 301 L274 301 Z " /><g transform="translate(0,187)" ><path fill="black" d="M204 611 C154.667 611 121 649 121 709 C121 767.667 153.333 805 204 805 C250.667 805 286 768 286 708 C286 649.333 253.333 611 204 611 Z M204 648 C232 648 251 672 251 708 C251 744 233.667 769 203 769 C175 769 156 743.667 156 709 C156 673 174.667 648 204 648 Z " /></g></glyph>
<glyph glyph-name="AE" unicode="&#xc6;" horiz-adv-x="437" d="M145 714 L385 714 L385 659 L252 659 L252 401 L372 401 L372 347 L252 347 L252 55 L385 55 L385 0 L202 0 L202 249 L112 249 L69 0 L18 0 L145 714 Z M202 302 L202 659 L182 659 L121 302 L202 302 Z " />
<glyph glyph-name="Ccedilla" unicode="&#xc7;" horiz-adv-x="437" d="M170 -194 C181.333 -198 193.333 -200 206 -200 C243.333 -200 264 -178.333 264 -141 C264 -102.333 239.667 -85 197 -81 L222 -8 C104.572 10.6817 40 149.833 40 358 C40 563.359 113.844 725 258 725 C304.667 725 344.333 712.667 383 690 L362 642 C331.333 664.667 295.667 673 261 673 C148.108 673 94 531.463 94 358 C94 167.074 151.39 42 259 42 C301.667 42 337 54.3333 369 69 L369 16 C337 -1.33333 302.667 -10 256 -10 L240 -56 C285.333 -65.3333 308 -94.3333 308 -143 C308 -204.333 272 -240 212 -240 C197.333 -240 180.667 -238 170 -234 L170 -194 Z " />
<glyph glyph-name="Egrave" unicode="&#xc8;" horiz-adv-x="437" >
<path fill="black" d="M347 54 L347 0 L63 0 L63 714 L347 714 L347 661 L117 661 L117 400 L333 400 L333 346 L117 346 L117 54 L347 54 Z " /><g transform="translate(-8,182)" ><path fill="black" d="M211 606 C178.4 644.033 126.138 711.406 102 757 L102 766 L164 766 C184 718 219.333 656 246 616 L246 606 L211 606 Z " /></g></glyph>
<glyph glyph-name="Eacute" unicode="&#xc9;" horiz-adv-x="437" >
<path fill="black" d="M347 54 L347 0 L63 0 L63 714 L347 714 L347 661 L117 661 L117 400 L333 400 L333 346 L117 346 L117 54 L347 54 Z " /><g transform="translate(-9,182)" ><path fill="black" d="M175 606 L175 616 C207 666.667 236 719.333 256 766 L318 766 L318 757 C293.808 713.992 244.367 644.088 209 606 L175 606 Z " /></g></glyph>
<glyph glyph-name="Ecircumflex" unicode="&#xca;" horiz-adv-x="437" >
<path fill="black" d="M347 54 L347 0 L63 0 L63 714 L347 714 L347 661 L117 661 L117 400 L333 400 L333 346 L117 346 L117 54 L347 54 Z " /><g transform="translate(0,182)" ><path fill="black" d="M101 606 L101 615 C127.112 656.779 162.023 722.395 178 765 L228 765 C246.894 719.115 281.954 652.405 306 615 L306 606 L275 606 C252.333 636.667 227 677.667 203 715 C180.333 679 153.667 635.333 131 606 L101 606 Z " /></g></glyph>
<glyph glyph-name="Edieresis" unicode="&#xcb;" horiz-adv-x="437" >
<g transform="translate(0,171)" ><path fill="black" d="M131 630 C111 630 97 648.333 97 679 C97 709.667 111 727 131 727 C152.333 727 166 709.667 166 679 C166 647 152.333 630 131 630 Z M274 630 C254 630 240 648.333 240 679 C240 709.667 254 727 274 727 C295.333 727 309 709.667 309 679 C309 647 295.333 630 274 630 Z " /></g><path fill="black" d="M347 54 L347 0 L63 0 L63 714 L347 714 L347 661 L117 661 L117 400 L333 400 L333 346 L117 346 L117 54 L347 54 Z " /></glyph>
<glyph glyph-name="Igrave" unicode="&#xcc;" horiz-adv-x="437" >
<path fill="black" d="M75 41 L176 48 L176 666 L75 673 L75 714 L332 714 L332 673 L229 666 L229 48 L332 41 L332 0 L75 0 L75 41 Z " /><g transform="translate(-8,182)" ><path fill="black" d="M211 606 C178.4 644.033 126.138 711.406 102 757 L102 766 L164 766 C184 718 219.333 656 246 616 L246 606 L211 606 Z " /></g></glyph>
<glyph glyph-name="Iacute" unicode="&#xcd;" horiz-adv-x="437" >
<path fill="black" d="M75 41 L176 48 L176 666 L75 673 L75 714 L332 714 L332 673 L229 666 L229 48 L332 41 L332 0 L75 0 L75 41 Z " /><g transform="translate(-9,182)" ><path fill="black" d="M175 606 L175 616 C207 666.667 236 719.333 256 766 L318 766 L318 757 C293.808 713.992 244.367 644.088 209 606 L175 606 Z " /></g></glyph>
<glyph glyph-name="Icircumflex" unicode="&#xce;" horiz-adv-x="437" >
<path fill="black" d="M75 41 L176 48 L176 666 L75 673 L75 714 L332 714 L332 673 L229 666 L229 48 L332 41 L332 0 L75 0 L75 41 Z " /><g transform="translate(0,182)" ><path fill="black" d="M101 606 L101 615 C127.112 656.779 162.023 722.395 178 765 L228 765 C246.894 719.115 281.954 652.405 306 615 L306 606 L275 606 C252.333 636.667 227 677.667 203 715 C180.333 679 153.667 635.333 131 606 L101 606 Z " /></g></glyph>
<glyph glyph-name="Idieresis" unicode="&#xcf;" horiz-adv-x="437" >
<g transform="translate(0,171)" ><path fill="black" d="M131 630 C111 630 97 648.333 97 679 C97 709.667 111 727 131 727 C152.333 727 166 709.667 166 679 C166 647 152.333 630 131 630 Z M274 630 C254 630 240 648.333 240 679 C240 709.667 254 727 274 727 C295.333 727 309 709.667 309 679 C309 647 295.333 630 274 630 Z " /></g><path fill="black" d="M75 41 L176 48 L176 666 L75 673 L75 714 L332 714 L332 673 L229 666 L229 48 L332 41 L332 0 L75 0 L75 41 Z " /></glyph>
<glyph glyph-name="Eth" unicode="&#xd0;" horiz-adv-x="437" d="M53 341 L2 341 L2 392 L53 392 L53 714 L188 714 C320 714 388 596 388 364 C388 122.667 320 0 180 0 L53 0 L53 341 Z M176 54 C285.333 54 332 157.667 332 363 C332 565.667 289.333 661 176 661 L107 661 L107 392 L223 392 L223 341 L107 341 L107 54 L176 54 Z " />
<glyph glyph-name="Ntilde" unicode="&#xd1;" horiz-adv-x="437" >
<path fill="black" d="M44 0 L44 714 L115 714 L317 71 L320 71 C320 104.111 314 171.889 314 221 L314 714 L363 714 L363 0 L294 0 L91 646 L87 646 C89.6667 599.333 92 553.333 92 488 L92 0 L44 0 Z " /><g transform="translate(5,182)" ><path fill="black" d="M84 616 C88 680 107.667 725 149 725 C191.556 725 219.444 662 254 662 C272.667 662 284 683.333 288 726 L323 726 C319 654 293 616 257 616 C214.34 616 182.895 680 152 680 C133.333 680 121.667 658.667 117 616 L84 616 Z " /></g></glyph>
<glyph glyph-name="Ograve" unicode="&#xd2;" horiz-adv-x="437" >
<path fill="black" d="M204 -10 C70.7446 -10 29 163.39 29 359 C29 600.333 85.6667 725 203 725 C329.952 725 378 565.922 378 358 C378 157.896 336.208 -10 204 -10 Z M204 42 C284 42 323 150 323 358 C323 563.333 284 673 204 673 C120 673 84 560.667 84 358 C84 154 124 42 204 42 Z " /><g transform="translate(-8,182)" ><path fill="black" d="M211 606 C178.4 644.033 126.138 711.406 102 757 L102 766 L164 766 C184 718 219.333 656 246 616 L246 606 L211 606 Z " /></g></glyph>
<glyph glyph-name="Oacute" unicode="&#xd3;" horiz-adv-x="437" >
<path fill="black" d="M204 -10 C70.7446 -10 29 163.39 29 359 C29 600.333 85.6667 725 203 725 C329.952 725 378 565.922 378 358 C378 157.896 336.208 -10 204 -10 Z M204 42 C284 42 323 150 323 358 C323 563.333 284 673 204 673 C120 673 84 560.667 84 358 C84 154 124 42 204 42 Z " /><g transform="translate(-9,182)" ><path fill="black" d="M175 606 L175 616 C207 666.667 236 719.333 256 766 L318 766 L318 757 C293.808 713.992 244.367 644.088 209 606 L175 606 Z " /></g></glyph>
<glyph glyph-name="Ocircumflex" unicode="&#xd4;" horiz-adv-x="437" >
<path fill="black" d="M204 -10 C70.7446 -10 29 163.39 29 359 C29 600.333 85.6667 725 203 725 C329.952 725 378 565.922 378 358 C378 157.896 336.208 -10 204 -10 Z M204 42 C284 42 323 150 323 358 C323 563.333 284 673 204 673 C120 673 84 560.667 84 358 C84 154 124 42 204 42 Z " /><g transform="translate(0,182)" ><path fill="black" d="M101 606 L101 615 C127.112 656.779 162.023 722.395 178 765 L228 765 C246.894 719.115 281.954 652.405 306 615 L306 606 L275 606 C252.333 636.667 227 677.667 203 715 C180.333 679 153.667 635.333 131 606 L101 606 Z " /></g></glyph>
<glyph glyph-name="Otilde" unicode="&#xd5;" horiz-adv-x="437" >
<path fill="black" d="M204 -10 C70.7446 -10 29 163.39 29 359 C29 600.333 85.6667 725 203 725 C329.952 725 378 565.922 378 358 C378 157.896 336.208 -10 204 -10 Z M204 42 C284 42 323 150 323 358 C323 563.333 284 673 204 673 C120 673 84 560.667 84 358 C84 154 124 42 204 42 Z " /><g transform="translate(0,182)" ><path fill="black" d="M84 616 C88 680 107.667 725 149 725 C191.556 725 219.444 662 254 662 C272.667 662 284 683.333 288 726 L323 726 C319 654 293 616 257 616 C214.34 616 182.895 680 152 680 C133.333 680 121.667 658.667 117 616 L84 616 Z " /></g></glyph>
<glyph glyph-name="Odieresis" unicode="&#xd6;" horiz-adv-x="437" >
<g transform="translate(0,171)" ><path fill="black" d="M131 630 C111 630 97 648.333 97 679 C97 709.667 111 727 131 727 C152.333 727 166 709.667 166 679 C166 647 152.333 630 131 630 Z M274 630 C254 630 240 648.333 240 679 C240 709.667 254 727 274 727 C295.333 727 309 709.667 309 679 C309 647 295.333 630 274 630 Z " /></g><path fill="black" d="M204 -10 C70.7446 -10 29 163.39 29 359 C29 600.333 85.6667 725 203 725 C329.952 725 378 565.922 378 358 C378 157.896 336.208 -10 204 -10 Z M204 42 C284 42 323 150 323 358 C323 563.333 284 673 204 673 C120 673 84 560.667 84 358 C84 154 124 42 204 42 Z " /></glyph>
<glyph glyph-name="multiply" unicode="&#xd7;" horiz-adv-x="437" d="M50 201 L169 353 L50 505 L80 538 L199 386 L318 539 L350 507 L230 353 L348 201 L318 169 L199 320 L80 168 L50 201 Z " />
<glyph glyph-name="Oslash" unicode="&#xd8;" horiz-adv-x="437" d="M64 114 C40 182 31 267 31 359 C31 600.333 87.6667 725 205 725 C254.333 725 292.333 701.667 319 659 L359 744 L395 720 L344 611 C369.333 545.667 380 458 380 358 C380 157.896 338.208 -10 206 -10 C152.667 -10 113.667 17.3333 87 64 L41 -34 L5 -11 L64 114 Z M116 125 C136.667 69.6667 166.667 42 206 42 C286 42 325 150 325 358 C325 430.667 320 491 310 539 L116 125 Z M292 601 C271.333 649 242.667 673 206 673 C122 673 86 560.667 86 358 C86 291.333 89.6667 235.667 99 189 L292 601 Z " />
<glyph glyph-name="Ugrave" unicode="&#xd9;" horiz-adv-x="437" >
<path fill="black" d="M43 714 L98 714 L98 230 C98 96.6667 134.667 42 204 42 C272 42 310 94.6667 310 228 L310 714 L363 714 L363 224 C363 60 306.667 -10 204 -10 C97.3333 -10 43 65.6667 43 227 L43 714 Z " /><g transform="translate(-8,182)" ><path fill="black" d="M211 606 C178.4 644.033 126.138 711.406 102 757 L102 766 L164 766 C184 718 219.333 656 246 616 L246 606 L211 606 Z " /></g></glyph>
<glyph glyph-name="Uacute" unicode="&#xda;" horiz-adv-x="437" >
<path fill="black" d="M43 714 L98 714 L98 230 C98 96.6667 134.667 42 204 42 C272 42 310 94.6667 310 228 L310 714 L363 714 L363 224 C363 60 306.667 -10 204 -10 C97.3333 -10 43 65.6667 43 227 L43 714 Z " /><g transform="translate(-9,182)" ><path fill="black" d="M175 606 L175 616 C207 666.667 236 719.333 256 766 L318 766 L318 757 C293.808 713.992 244.367 644.088 209 606 L175 606 Z " /></g></glyph>
<glyph glyph-name="Ucircumflex" unicode="&#xdb;" horiz-adv-x="437" >
<path fill="black" d="M43 714 L98 714 L98 230 C98 96.6667 134.667 42 204 42 C272 42 310 94.6667 310 228 L310 714 L363 714 L363 224 C363 60 306.667 -10 204 -10 C97.3333 -10 43 65.6667 43 227 L43 714 Z " /><g transform="translate(0,182)" ><path fill="black" d="M101 606 L101 615 C127.112 656.779 162.023 722.395 178 765 L228 765 C246.894 719.115 281.954 652.405 306 615 L306 606 L275 606 C252.333 636.667 227 677.667 203 715 C180.333 679 153.667 635.333 131 606 L101 606 Z " /></g></glyph>
<glyph glyph-name="Udieresis" unicode="&#xdc;" horiz-adv-x="437" >
<g transform="translate(0,171)" ><path fill="black" d="M131 630 C111 630 97 648.333 97 679 C97 709.667 111 727 131 727 C152.333 727 166 709.667 166 679 C166 647 152.333 630 131 630 Z M274 630 C254 630 240 648.333 240 679 C240 709.667 254 727 274 727 C295.333 727 309 709.667 309 679 C309 647 295.333 630 274 630 Z " /></g><path fill="black" d="M43 714 L98 714 L98 230 C98 96.6667 134.667 42 204 42 C272 42 310 94.6667 310 228 L310 714 L363 714 L363 224 C363 60 306.667 -10 204 -10 C97.3333 -10 43 65.6667 43 227 L43 714 Z " /></glyph>
<glyph glyph-name="Yacute" unicode="&#xdd;" horiz-adv-x="437" >
<path fill="black" d="M177 0 L177 274 L22 714 L80 714 L204 330 L327 714 L385 714 L230 275 L230 0 L177 0 Z " /><g transform="translate(-9,182)" ><path fill="black" d="M175 606 L175 616 C207 666.667 236 719.333 256 766 L318 766 L318 757 C293.808 713.992 244.367 644.088 209 606 L175 606 Z " /></g></glyph>
<glyph glyph-name="Thorn" unicode="&#xde;" horiz-adv-x="437" d="M63 0 L63 714 L116 714 L116 589 L201 589 C314.333 589 370 526.333 370 385 C370 247.667 319.333 166 198 166 L116 166 L116 0 L63 0 Z M116 219 L191 219 C275 219 315 264.333 315 383 C315 493.667 277.333 537 196 537 L116 537 L116 219 Z " />
<glyph glyph-name="germandbls" unicode="&#xdf;" horiz-adv-x="437" d="M72 581 C72 694.333 117.667 765 207 765 C284.333 765 331 711.333 331 630 C331 515.111 253 504.222 253 416 C253 373.333 269.333 349.333 300 308 C344.622 250.254 368 213.29 368 141 C368 53 328.333 -10 251 -10 C219 -10 191.667 -1.33333 169 16 L169 72 C191.667 53.3333 217 41 245 41 C291.667 41 315 80 315 140 C315 198.667 294.667 229.667 260 271 C228 312.333 197 350 197 414 C197 517.34 276 527.895 276 627 C276 681.667 251.667 715 205 715 C147.667 715 125 664.333 125 571 L125 0 L72 0 L72 581 Z " />
<glyph glyph-name="agrave" unicode="&#xe0;" horiz-adv-x="437" >
<path fill="black" d="M295 86 L293 86 C267.667 31.3333 233 -10 173 -10 C101 -10 55 45.3333 55 140 C55 249.333 113 301.333 221 308 L293 313 L293 353 C293 455.667 260.667 492 206 492 C170 492 135.667 476.667 101 454 L81 500 C121 526.667 161 542 209 542 C298.333 542 346 489 346 361 L346 0 L305 0 L295 86 Z M293 269 L233 265 C151.667 258.333 110 221 110 141 C110 73 142 40 186 40 C250 40 293 103.667 293 217 L293 269 Z " /><g transform="translate(1,0)" ><path fill="black" d="M211 606 C178.4 644.033 126.138 711.406 102 757 L102 766 L164 766 C184 718 219.333 656 246 616 L246 606 L211 606 Z " /></g></glyph>
<glyph glyph-name="aacute" unicode="&#xe1;" horiz-adv-x="437" >
<path fill="black" d="M295 86 L293 86 C267.667 31.3333 233 -10 173 -10 C101 -10 55 45.3333 55 140 C55 249.333 113 301.333 221 308 L293 313 L293 353 C293 455.667 260.667 492 206 492 C170 492 135.667 476.667 101 454 L81 500 C121 526.667 161 542 209 542 C298.333 542 346 489 346 361 L346 0 L305 0 L295 86 Z M293 269 L233 265 C151.667 258.333 110 221 110 141 C110 73 142 40 186 40 C250 40 293 103.667 293 217 L293 269 Z " /><path fill="black" d="M175 606 L175 616 C207 666.667 236 719.333 256 766 L318 766 L318 757 C293.808 713.992 244.367 644.088 209 606 L175 606 Z " /></glyph>
<glyph glyph-name="acircumflex" unicode="&#xe2;" horiz-adv-x="437" >
<path fill="black" d="M295 86 L293 86 C267.667 31.3333 233 -10 173 -10 C101 -10 55 45.3333 55 140 C55 249.333 113 301.333 221 308 L293 313 L293 353 C293 455.667 260.667 492 206 492 C170 492 135.667 476.667 101 454 L81 500 C121 526.667 161 542 209 542 C298.333 542 346 489 346 361 L346 0 L305 0 L295 86 Z M293 269 L233 265 C151.667 258.333 110 221 110 141 C110 73 142 40 186 40 C250 40 293 103.667 293 217 L293 269 Z " /><g transform="translate(9,0)" ><path fill="black" d="M101 606 L101 615 C127.112 656.779 162.023 722.395 178 765 L228 765 C246.894 719.115 281.954 652.405 306 615 L306 606 L275 606 C252.333 636.667 227 677.667 203 715 C180.333 679 153.667 635.333 131 606 L101 606 Z " /></g></glyph>
<glyph glyph-name="atilde" unicode="&#xe3;" horiz-adv-x="437" >
<path fill="black" d="M295 86 L293 86 C267.667 31.3333 233 -10 173 -10 C101 -10 55 45.3333 55 140 C55 249.333 113 301.333 221 308 L293 313 L293 353 C293 455.667 260.667 492 206 492 C170 492 135.667 476.667 101 454 L81 500 C121 526.667 161 542 209 542 C298.333 542 346 489 346 361 L346 0 L305 0 L295 86 Z M293 269 L233 265 C151.667 258.333 110 221 110 141 C110 73 142 40 186 40 C250 40 293 103.667 293 217 L293 269 Z " /><g transform="translate(9,0)" ><path fill="black" d="M84 616 C88 680 107.667 725 149 725 C191.556 725 219.444 662 254 662 C272.667 662 284 683.333 288 726 L323 726 C319 654 293 616 257 616 C214.34 616 182.895 680 152 680 C133.333 680 121.667 658.667 117 616 L84 616 Z " /></g></glyph>
<glyph glyph-name="adieresis" unicode="&#xe4;" horiz-adv-x="437" >
<g transform="translate(9,-11)" ><path fill="black" d="M131 630 C111 630 97 648.333 97 679 C97 709.667 111 727 131 727 C152.333 727 166 709.667 166 679 C166 647 152.333 630 131 630 Z M274 630 C254 630 240 648.333 240 679 C240 709.667 254 727 274 727 C295.333 727 309 709.667 309 679 C309 647 295.333 630 274 630 Z " /></g><path fill="black" d="M295 86 L293 86 C267.667 31.3333 233 -10 173 -10 C101 -10 55 45.3333 55 140 C55 249.333 113 301.333 221 308 L293 313 L293 353 C293 455.667 260.667 492 206 492 C170 492 135.667 476.667 101 454 L81 500 C121 526.667 161 542 209 542 C298.333 542 346 489 346 361 L346 0 L305 0 L295 86 Z M293 269 L233 265 C151.667 258.333 110 221 110 141 C110 73 142 40 186 40 C250 40 293 103.667 293 217 L293 269 Z " /></glyph>
<glyph glyph-name="aring" unicode="&#xe5;" horiz-adv-x="437" >
<path fill="black" d="M295 86 L293 86 C267.667 31.3333 233 -10 173 -10 C101 -10 55 45.3333 55 140 C55 249.333 113 301.333 221 308 L293 313 L293 353 C293 455.667 260.667 492 206 492 C170 492 135.667 476.667 101 454 L81 500 C121 526.667 161 542 209 542 C298.333 542 346 489 346 361 L346 0 L305 0 L295 86 Z M293 269 L233 265 C151.667 258.333 110 221 110 141 C110 73 142 40 186 40 C250 40 293 103.667 293 217 L293 269 Z " /><g transform="translate(9,0)" ><path fill="black" d="M204 611 C154.667 611 121 649 121 709 C121 767.667 153.333 805 204 805 C250.667 805 286 768 286 708 C286 649.333 253.333 611 204 611 Z M204 648 C232 648 251 672 251 708 C251 744 233.667 769 203 769 C175 769 156 743.667 156 709 C156 673 174.667 648 204 648 Z " /></g></glyph>
<glyph glyph-name="ae" unicode="&#xe6;" horiz-adv-x="437" d="M174 310 L174 356 C174 453.333 155 491 115 491 C92.3333 491 70 479.667 48 457 L30 500 C55.3333 524 87.3333 542 122 542 C164.667 542 194.667 508 208 432 C222.667 496 249.333 542 292 542 C358.667 542 390 447.333 390 302 L390 260 L226 260 C227.333 114 254.667 41 308 41 C328 41 349 49.6667 377 79 L377 24 C351.667 -1.33333 328.667 -10 302 -10 C252.667 -10 219 32.6667 201 118 C186.333 32.6667 159.667 -10 109 -10 C49 -10 17 46 17 138 C17 248.667 61 302.667 137 308 L174 310 Z M174 264 L147 262 C93.6667 258 64 219.333 64 138 C64 74 83.3333 41 114 41 C155.333 41 174 104 174 208 L174 264 Z M344 310 C344 422 327.333 492 290 492 C254 492 229.667 427.333 227 310 L344 310 Z " />
<glyph glyph-name="ccedilla" unicode="&#xe7;" horiz-adv-x="437" d="M169 -194 C180.333 -198 192.333 -200 205 -200 C242.333 -200 263 -178.333 263 -141 C263 -102.333 238.667 -85 196 -81 L221 -9 C121 3 65 95.3333 65 262 C65 451.333 138.667 543 248 543 C286.667 543 321.333 534.333 352 517 L335 469 C308.333 486.333 282.667 492 252 492 C166.667 492 121 413.667 121 263 C121 121.667 161.667 41 247 41 C281.667 41 316.667 52 346 68 L346 16 C320.667 1.33333 289.667 -7.33333 255 -10 L239 -56 C284.333 -65.3333 307 -94.3333 307 -143 C307 -204.333 271 -240 211 -240 C196.333 -240 179.667 -238 169 -234 L169 -194 Z " />
<glyph glyph-name="egrave" unicode="&#xe8;" horiz-adv-x="437" >
<path fill="black" d="M348 25 C312 2.33333 276.667 -10 230 -10 C110 -10 46 92.3333 46 263 C46 430.896 103.437 543 210 543 C312.251 543 364 436.892 364 300 L364 259 L101 259 C102.333 113.667 146 41 232 41 C274.667 41 309.333 53.3333 348 80 L348 25 Z M311 308 C311 413.697 278.177 492 209 492 C146.333 492 108.667 429.333 102 308 L311 308 Z " /><g transform="translate(-2,0)" ><path fill="black" d="M211 606 C178.4 644.033 126.138 711.406 102 757 L102 766 L164 766 C184 718 219.333 656 246 616 L246 606 L211 606 Z " /></g></glyph>
<glyph glyph-name="eacute" unicode="&#xe9;" horiz-adv-x="437" >
<path fill="black" d="M348 25 C312 2.33333 276.667 -10 230 -10 C110 -10 46 92.3333 46 263 C46 430.896 103.437 543 210 543 C312.251 543 364 436.892 364 300 L364 259 L101 259 C102.333 113.667 146 41 232 41 C274.667 41 309.333 53.3333 348 80 L348 25 Z M311 308 C311 413.697 278.177 492 209 492 C146.333 492 108.667 429.333 102 308 L311 308 Z " /><g transform="translate(-3,0)" ><path fill="black" d="M175 606 L175 616 C207 666.667 236 719.333 256 766 L318 766 L318 757 C293.808 713.992 244.367 644.088 209 606 L175 606 Z " /></g></glyph>
<glyph glyph-name="ecircumflex" unicode="&#xea;" horiz-adv-x="437" >
<path fill="black" d="M348 25 C312 2.33333 276.667 -10 230 -10 C110 -10 46 92.3333 46 263 C46 430.896 103.437 543 210 543 C312.251 543 364 436.892 364 300 L364 259 L101 259 C102.333 113.667 146 41 232 41 C274.667 41 309.333 53.3333 348 80 L348 25 Z M311 308 C311 413.697 278.177 492 209 492 C146.333 492 108.667 429.333 102 308 L311 308 Z " /><g transform="translate(6,0)" ><path fill="black" d="M101 606 L101 615 C127.112 656.779 162.023 722.395 178 765 L228 765 C246.894 719.115 281.954 652.405 306 615 L306 606 L275 606 C252.333 636.667 227 677.667 203 715 C180.333 679 153.667 635.333 131 606 L101 606 Z " /></g></glyph>
<glyph glyph-name="edieresis" unicode="&#xeb;" horiz-adv-x="437" >
<g transform="translate(6,-11)" ><path fill="black" d="M131 630 C111 630 97 648.333 97 679 C97 709.667 111 727 131 727 C152.333 727 166 709.667 166 679 C166 647 152.333 630 131 630 Z M274 630 C254 630 240 648.333 240 679 C240 709.667 254 727 274 727 C295.333 727 309 709.667 309 679 C309 647 295.333 630 274 630 Z " /></g><path fill="black" d="M348 25 C312 2.33333 276.667 -10 230 -10 C110 -10 46 92.3333 46 263 C46 430.896 103.437 543 210 543 C312.251 543 364 436.892 364 300 L364 259 L101 259 C102.333 113.667 146 41 232 41 C274.667 41 309.333 53.3333 348 80 L348 25 Z M311 308 C311 413.697 278.177 492 209 492 C146.333 492 108.667 429.333 102 308 L311 308 Z " /></glyph>
<glyph glyph-name="igrave" unicode="&#xec;" horiz-adv-x="407" >
<path fill="black" d="M62 41 L184 49 L184 482 L72 491 L72 532 L237 532 L237 49 L348 41 L348 0 L62 0 L62 41 Z " /><g transform="translate(-8,0)" ><path fill="black" d="M211 606 C178.4 644.033 126.138 711.406 102 757 L102 766 L164 766 C184 718 219.333 656 246 616 L246 606 L211 606 Z " /></g></glyph>
<glyph glyph-name="iacute" unicode="&#xed;" horiz-adv-x="407" >
<path fill="black" d="M62 41 L184 49 L184 482 L72 491 L72 532 L237 532 L237 49 L348 41 L348 0 L62 0 L62 41 Z " /><g transform="translate(-9,0)" ><path fill="black" d="M175 606 L175 616 C207 666.667 236 719.333 256 766 L318 766 L318 757 C293.808 713.992 244.367 644.088 209 606 L175 606 Z " /></g></glyph>
<glyph glyph-name="icircumflex" unicode="&#xee;" horiz-adv-x="407" >
<path fill="black" d="M62 41 L184 49 L184 482 L72 491 L72 532 L237 532 L237 49 L348 41 L348 0 L62 0 L62 41 Z " /><path fill="black" d="M101 606 L101 615 C127.112 656.779 162.023 722.395 178 765 L228 765 C246.894 719.115 281.954 652.405 306 615 L306 606 L275 606 C252.333 636.667 227 677.667 203 715 C180.333 679 153.667 635.333 131 606 L101 606 Z " /></glyph>
<glyph glyph-name="idieresis" unicode="&#xef;" horiz-adv-x="407" >
<g transform="translate(0,-11)" ><path fill="black" d="M131 630 C111 630 97 648.333 97 679 C97 709.667 111 727 131 727 C152.333 727 166 709.667 166 679 C166 647 152.333 630 131 630 Z M274 630 C254 630 240 648.333 240 679 C240 709.667 254 727 274 727 C295.333 727 309 709.667 309 679 C309 647 295.333 630 274 630 Z " /></g><path fill="black" d="M62 41 L184 49 L184 482 L72 491 L72 532 L237 532 L237 49 L348 41 L348 0 L62 0 L62 41 Z " /></glyph>
<glyph glyph-name="eth" unicode="&#xf0;" horiz-adv-x="437" d="M306 408 C291.333 497.333 256.667 574.333 210 637 L130 577 L108 615 L182 670 C163.333 691.333 143.333 709.333 122 724 L146 761 C174 743.667 199.333 722.667 222 700 L302 760 L324 722 L250 667 C330 563 368 422.333 368 269 C368 85 308 -10 204 -10 C98.329 -10 39 93.1818 39 229 C39 379.667 103 469 199 469 C247 469 281.667 445.667 303 407 L306 408 Z M204 40 C277.333 40 313 117.333 313 244 C313 344.364 280.182 420 208 420 C132 420 93 349.333 93 228 C93 117.333 130.667 40 204 40 Z " />
<glyph glyph-name="ntilde" unicode="&#xf1;" horiz-adv-x="437" >
<path fill="black" d="M56 0 L56 532 L100 532 L107 442 L110 442 C128.667 500.667 169 542 229 542 C309 542 354 485.667 354 355 L354 0 L301 0 L301 350 C301 447.333 273.667 492 219 492 C151 492 110 425.333 110 292 L110 0 L56 0 Z " /><g transform="translate(8,0)" ><path fill="black" d="M84 616 C88 680 107.667 725 149 725 C191.556 725 219.444 662 254 662 C272.667 662 284 683.333 288 726 L323 726 C319 654 293 616 257 616 C214.34 616 182.895 680 152 680 C133.333 680 121.667 658.667 117 616 L84 616 Z " /></g></glyph>
<glyph glyph-name="ograve" unicode="&#xf2;" horiz-adv-x="437" >
<path fill="black" d="M204 -10 C97.3333 -10 39 90.6667 39 268 C39 442.667 97.3333 542 204 542 C310.667 542 368 436.667 368 266 C368 91.3333 312 -10 204 -10 Z M204 40 C277.333 40 312 119 312 267 C312 408.333 278.667 493 204 493 C132 493 95 413.667 95 267 C95 121.667 130.667 40 204 40 Z " /><g transform="translate(-8,0)" ><path fill="black" d="M211 606 C178.4 644.033 126.138 711.406 102 757 L102 766 L164 766 C184 718 219.333 656 246 616 L246 606 L211 606 Z " /></g></glyph>
<glyph glyph-name="oacute" unicode="&#xf3;" horiz-adv-x="437" >
<path fill="black" d="M204 -10 C97.3333 -10 39 90.6667 39 268 C39 442.667 97.3333 542 204 542 C310.667 542 368 436.667 368 266 C368 91.3333 312 -10 204 -10 Z M204 40 C277.333 40 312 119 312 267 C312 408.333 278.667 493 204 493 C132 493 95 413.667 95 267 C95 121.667 130.667 40 204 40 Z " /><g transform="translate(-9,0)" ><path fill="black" d="M175 606 L175 616 C207 666.667 236 719.333 256 766 L318 766 L318 757 C293.808 713.992 244.367 644.088 209 606 L175 606 Z " /></g></glyph>
<glyph glyph-name="ocircumflex" unicode="&#xf4;" horiz-adv-x="437" >
<path fill="black" d="M204 -10 C97.3333 -10 39 90.6667 39 268 C39 442.667 97.3333 542 204 542 C310.667 542 368 436.667 368 266 C368 91.3333 312 -10 204 -10 Z M204 40 C277.333 40 312 119 312 267 C312 408.333 278.667 493 204 493 C132 493 95 413.667 95 267 C95 121.667 130.667 40 204 40 Z " /><path fill="black" d="M101 606 L101 615 C127.112 656.779 162.023 722.395 178 765 L228 765 C246.894 719.115 281.954 652.405 306 615 L306 606 L275 606 C252.333 636.667 227 677.667 203 715 C180.333 679 153.667 635.333 131 606 L101 606 Z " /></glyph>
<glyph glyph-name="otilde" unicode="&#xf5;" horiz-adv-x="437" >
<path fill="black" d="M204 -10 C97.3333 -10 39 90.6667 39 268 C39 442.667 97.3333 542 204 542 C310.667 542 368 436.667 368 266 C368 91.3333 312 -10 204 -10 Z M204 40 C277.333 40 312 119 312 267 C312 408.333 278.667 493 204 493 C132 493 95 413.667 95 267 C95 121.667 130.667 40 204 40 Z " /><path fill="black" d="M84 616 C88 680 107.667 725 149 725 C191.556 725 219.444 662 254 662 C272.667 662 284 683.333 288 726 L323 726 C319 654 293 616 257 616 C214.34 616 182.895 680 152 680 C133.333 680 121.667 658.667 117 616 L84 616 Z " /></glyph>
<glyph glyph-name="odieresis" unicode="&#xf6;" horiz-adv-x="437" >
<g transform="translate(0,-11)" ><path fill="black" d="M131 630 C111 630 97 648.333 97 679 C97 709.667 111 727 131 727 C152.333 727 166 709.667 166 679 C166 647 152.333 630 131 630 Z M274 630 C254 630 240 648.333 240 679 C240 709.667 254 727 274 727 C295.333 727 309 709.667 309 679 C309 647 295.333 630 274 630 Z " /></g><path fill="black" d="M204 -10 C97.3333 -10 39 90.6667 39 268 C39 442.667 97.3333 542 204 542 C310.667 542 368 436.667 368 266 C368 91.3333 312 -10 204 -10 Z M204 40 C277.333 40 312 119 312 267 C312 408.333 278.667 493 204 493 C132 493 95 413.667 95 267 C95 121.667 130.667 40 204 40 Z " /></glyph>
<glyph glyph-name="divide" unicode="&#xf7;" horiz-adv-x="437" d="M49 377 L356 377 L356 329 L49 329 L49 377 Z M204 126 C184 126 170 144.333 170 175 C170 205.667 184 223 204 223 C225.333 223 239 205.667 239 175 C239 143 225.333 126 204 126 Z M204 482 C184 482 170 500.333 170 531 C170 561.667 184 579 204 579 C225.333 579 239 561.667 239 531 C239 499 225.333 482 204 482 Z " />
<glyph glyph-name="oslash" unicode="&#xf8;" horiz-adv-x="437" d="M86 59 C56.6667 107 41 177.333 41 268 C41 442.667 99.3333 542 206 542 C244.667 542 277.333 528 304 500 L340 573 L375 551 L331 462 C357 414 370 348.667 370 266 C370 91.3333 314 -10 206 -10 C170 -10 139.667 1.33333 115 24 L77 -52 L43 -28 L86 59 Z M279 449 C261.667 478.333 237.333 493 206 493 C134 493 97 413.667 97 267 C97 205 103.333 156 116 120 L279 449 Z M139 74 C156.333 51.3333 178.667 40 206 40 C279.333 40 314 119 314 267 C314 317.667 309.333 361.667 300 399 L139 74 Z " />
<glyph glyph-name="ugrave" unicode="&#xf9;" horiz-adv-x="437" >
<path fill="black" d="M53 532 L106 532 L106 184 C106 80 135.333 40 194 40 C260.667 40 297 108.333 297 243 L297 532 L350 532 L350 0 L306 0 L299 91 L295 91 C276.333 32.3333 238 -10 178 -10 C96.6667 -10 53 49 53 173 L53 532 Z " /><g transform="translate(-8,0)" ><path fill="black" d="M211 606 C178.4 644.033 126.138 711.406 102 757 L102 766 L164 766 C184 718 219.333 656 246 616 L246 606 L211 606 Z " /></g></glyph>
<glyph glyph-name="uacute" unicode="&#xfa;" horiz-adv-x="437" >
<path fill="black" d="M53 532 L106 532 L106 184 C106 80 135.333 40 194 40 C260.667 40 297 108.333 297 243 L297 532 L350 532 L350 0 L306 0 L299 91 L295 91 C276.333 32.3333 238 -10 178 -10 C96.6667 -10 53 49 53 173 L53 532 Z " /><g transform="translate(-9,0)" ><path fill="black" d="M175 606 L175 616 C207 666.667 236 719.333 256 766 L318 766 L318 757 C293.808 713.992 244.367 644.088 209 606 L175 606 Z " /></g></glyph>
<glyph glyph-name="ucircumflex" unicode="&#xfb;" horiz-adv-x="437" >
<path fill="black" d="M53 532 L106 532 L106 184 C106 80 135.333 40 194 40 C260.667 40 297 108.333 297 243 L297 532 L350 532 L350 0 L306 0 L299 91 L295 91 C276.333 32.3333 238 -10 178 -10 C96.6667 -10 53 49 53 173 L53 532 Z " /><path fill="black" d="M101 606 L101 615 C127.112 656.779 162.023 722.395 178 765 L228 765 C246.894 719.115 281.954 652.405 306 615 L306 606 L275 606 C252.333 636.667 227 677.667 203 715 C180.333 679 153.667 635.333 131 606 L101 606 Z " /></glyph>
<glyph glyph-name="udieresis" unicode="&#xfc;" horiz-adv-x="437" >
<g transform="translate(0,-11)" ><path fill="black" d="M131 630 C111 630 97 648.333 97 679 C97 709.667 111 727 131 727 C152.333 727 166 709.667 166 679 C166 647 152.333 630 131 630 Z M274 630 C254 630 240 648.333 240 679 C240 709.667 254 727 274 727 C295.333 727 309 709.667 309 679 C309 647 295.333 630 274 630 Z " /></g><path fill="black" d="M53 532 L106 532 L106 184 C106 80 135.333 40 194 40 C260.667 40 297 108.333 297 243 L297 532 L350 532 L350 0 L306 0 L299 91 L295 91 C276.333 32.3333 238 -10 178 -10 C96.6667 -10 53 49 53 173 L53 532 Z " /></glyph>
<glyph glyph-name="yacute" unicode="&#xfd;" horiz-adv-x="437" >
<path fill="black" d="M44 -186 C54.6667 -190 69.6667 -194 83 -194 C120.333 -194 143.333 -170 162 -94 L185 1 L38 532 L94 532 L180 193 C194.667 134.333 202.333 98.6667 209 64 L211 64 C217.667 102.667 227.667 150.333 237 193 L315 532 L372 532 L215 -90 C189.667 -187.333 153 -244 89 -244 C73.6667 -244 58.6667 -241.333 44 -236 L44 -186 Z " /><g transform="translate(-9,0)" ><path fill="black" d="M175 606 L175 616 C207 666.667 236 719.333 256 766 L318 766 L318 757 C293.808 713.992 244.367 644.088 209 606 L175 606 Z " /></g></glyph>
<glyph glyph-name="thorn" unicode="&#xfe;" horiz-adv-x="437" d="M56 -240 L56 739 L110 739 L110 537 C110 499.667 108.667 470.667 106 436 L109 436 C130.196 491.64 163.01 542 225 542 C317 542 368 451.667 368 269 C368 83.6667 311 -10 223 -10 C165.667 -10 130 37.3333 110 88 L106 88 C108.667 61.3333 110 29.6667 110 -1 L110 -240 L56 -240 Z M110 256 C110 118.667 144 41 212 41 C274.667 41 312 114 312 270 C312 418 279 492 213 492 C141 492 110 413.333 110 284 L110 256 Z " />
<glyph glyph-name="ydieresis" unicode="&#xff;" horiz-adv-x="437" >
<g transform="translate(0,-11)" ><path fill="black" d="M131 630 C111 630 97 648.333 97 679 C97 709.667 111 727 131 727 C152.333 727 166 709.667 166 679 C166 647 152.333 630 131 630 Z M274 630 C254 630 240 648.333 240 679 C240 709.667 254 727 274 727 C295.333 727 309 709.667 309 679 C309 647 295.333 630 274 630 Z " /></g><path fill="black" d="M44 -186 C54.6667 -190 69.6667 -194 83 -194 C120.333 -194 143.333 -170 162 -94 L185 1 L38 532 L94 532 L180 193 C194.667 134.333 202.333 98.6667 209 64 L211 64 C217.667 102.667 227.667 150.333 237 193 L315 532 L372 532 L215 -90 C189.667 -187.333 153 -244 89 -244 C73.6667 -244 58.6667 -241.333 44 -236 L44 -186 Z " /></glyph>
<glyph glyph-name="Amacron" unicode="&#x100;" horiz-adv-x="437" >
<path fill="black" d="M167 714 L238 714 L389 0 L335 0 L285 249 L122 249 L73 0 L18 0 L167 714 Z M274 301 L221 567 L202 667 C196.667 636.333 190.667 600.333 184 567 L132 301 L274 301 Z " /><g transform="translate(0,184)" ><path fill="black" d="M106 670 L299 670 L299 626 L106 626 L106 670 Z " /></g></glyph>
<glyph glyph-name="amacron" unicode="&#x101;" horiz-adv-x="437" >
<path fill="black" d="M295 86 L293 86 C267.667 31.3333 233 -10 173 -10 C101 -10 55 45.3333 55 140 C55 249.333 113 301.333 221 308 L293 313 L293 353 C293 455.667 260.667 492 206 492 C170 492 135.667 476.667 101 454 L81 500 C121 526.667 161 542 209 542 C298.333 542 346 489 346 361 L346 0 L305 0 L295 86 Z M293 269 L233 265 C151.667 258.333 110 221 110 141 C110 73 142 40 186 40 C250 40 293 103.667 293 217 L293 269 Z " /><g transform="translate(9,-3)" ><path fill="black" d="M106 670 L299 670 L299 626 L106 626 L106 670 Z " /></g></glyph>
<glyph glyph-name="Abreve" unicode="&#x102;" horiz-adv-x="437" >
<path fill="black" d="M167 714 L238 714 L389 0 L335 0 L285 249 L122 249 L73 0 L18 0 L167 714 Z M274 301 L221 567 L202 667 C196.667 636.333 190.667 600.333 184 567 L132 301 L274 301 Z " /><g transform="translate(0,187)" ><path fill="black" d="M143 729 C145.667 679.667 167 652 203 652 C240.333 652 261 679.667 265 729 L300 729 C297.333 653 261.667 610 203 610 C147 610 109.667 649 107 729 L143 729 Z " /></g></glyph>
<glyph glyph-name="abreve" unicode="&#x103;" horiz-adv-x="437" >
<path fill="black" d="M295 86 L293 86 C267.667 31.3333 233 -10 173 -10 C101 -10 55 45.3333 55 140 C55 249.333 113 301.333 221 308 L293 313 L293 353 C293 455.667 260.667 492 206 492 C170 492 135.667 476.667 101 454 L81 500 C121 526.667 161 542 209 542 C298.333 542 346 489 346 361 L346 0 L305 0 L295 86 Z M293 269 L233 265 C151.667 258.333 110 221 110 141 C110 73 142 40 186 40 C250 40 293 103.667 293 217 L293 269 Z " /><g transform="translate(9,0)" ><path fill="black" d="M143 729 C145.667 679.667 167 652 203 652 C240.333 652 261 679.667 265 729 L300 729 C297.333 653 261.667 610 203 610 C147 610 109.667 649 107 729 L143 729 Z " /></g></glyph>
<glyph glyph-name="Aogonek" unicode="&#x104;" horiz-adv-x="437" d="M167 714 L238 714 L388 4 L398 0 C360.667 -44 343 -81.3333 343 -124 C343 -160.667 356 -179 382 -179 C392.667 -179 402.333 -175.667 409 -173 L409 -213 C399.667 -218.333 387.333 -221 372 -221 C323.333 -221 299 -192.667 299 -136 C299 -85.3333 319.667 -40 357 0 L335 0 L285 249 L122 249 L73 0 L18 0 L167 714 Z M274 301 L221 567 L202 667 C196.667 636.333 190.667 600.333 184 567 L132 301 L274 301 Z " />
<glyph glyph-name="aogonek" unicode="&#x105;" horiz-adv-x="437" d="M364 -213 C354.667 -218.333 342.333 -221 327 -221 C278.333 -221 254 -192.667 254 -136 C254 -85.3333 274.667 -40 312 0 L307 0 L297 86 L295 86 C269.667 31.3333 235 -10 175 -10 C103 -10 57 45.3333 57 140 C57 249.333 115 301.333 223 308 L295 313 L295 353 C295 455.667 262.667 492 208 492 C172 492 137.667 476.667 103 454 L83 500 C123 526.667 163 542 211 542 C300.333 542 348 489 348 361 L348 2 L353 0 C315.667 -44 298 -81.3333 298 -124 C298 -160.667 311 -179 337 -179 C347.667 -179 357.333 -175.667 364 -173 L364 -213 Z M295 269 L235 265 C153.667 258.333 112 221 112 141 C112 73 144 40 188 40 C252 40 295 103.667 295 217 L295 269 Z " />
<glyph glyph-name="Cacute" unicode="&#x106;" horiz-adv-x="437" >
<path fill="black" d="M369 16 C335.667 -1.33333 300 -10 252 -10 C116 -10 40 131.437 40 358 C40 563.359 113.844 725 258 725 C304.667 725 344.333 712.667 383 690 L362 642 C331.333 664.667 295.667 673 261 673 C148.108 673 94 531.463 94 358 C94 167.074 151.39 42 259 42 C301.667 42 337 54.3333 369 69 L369 16 Z " /><g transform="translate(38,182)" ><path fill="black" d="M175 606 L175 616 C207 666.667 236 719.333 256 766 L318 766 L318 757 C293.808 713.992 244.367 644.088 209 606 L175 606 Z " /></g></glyph>
<glyph glyph-name="cacute" unicode="&#x107;" horiz-adv-x="437" >
<path fill="black" d="M346 16 C318 0 281.667 -10 243 -10 C129.667 -10 65 83.3333 65 262 C65 451.333 138.667 543 248 543 C286.667 543 321.333 534.333 352 517 L335 469 C308.333 486.333 282.667 492 252 492 C166.667 492 121 413.667 121 263 C121 121.667 161.667 41 247 41 C281.667 41 316.667 52 346 68 L346 16 Z " /><g transform="translate(21,0)" ><path fill="black" d="M175 606 L175 616 C207 666.667 236 719.333 256 766 L318 766 L318 757 C293.808 713.992 244.367 644.088 209 606 L175 606 Z " /></g></glyph>
<glyph glyph-name="Ccircumflex" unicode="&#x108;" horiz-adv-x="437" >
<path fill="black" d="M369 16 C335.667 -1.33333 300 -10 252 -10 C116 -10 40 131.437 40 358 C40 563.359 113.844 725 258 725 C304.667 725 344.333 712.667 383 690 L362 642 C331.333 664.667 295.667 673 261 673 C148.108 673 94 531.463 94 358 C94 167.074 151.39 42 259 42 C301.667 42 337 54.3333 369 69 L369 16 Z " /><g transform="translate(47,182)" ><path fill="black" d="M101 606 L101 615 C127.112 656.779 162.023 722.395 178 765 L228 765 C246.894 719.115 281.954 652.405 306 615 L306 606 L275 606 C252.333 636.667 227 677.667 203 715 C180.333 679 153.667 635.333 131 606 L101 606 Z " /></g></glyph>
<glyph glyph-name="ccircumflex" unicode="&#x109;" horiz-adv-x="437" >
<path fill="black" d="M346 16 C318 0 281.667 -10 243 -10 C129.667 -10 65 83.3333 65 262 C65 451.333 138.667 543 248 543 C286.667 543 321.333 534.333 352 517 L335 469 C308.333 486.333 282.667 492 252 492 C166.667 492 121 413.667 121 263 C121 121.667 161.667 41 247 41 C281.667 41 316.667 52 346 68 L346 16 Z " /><g transform="translate(30,0)" ><path fill="black" d="M101 606 L101 615 C127.112 656.779 162.023 722.395 178 765 L228 765 C246.894 719.115 281.954 652.405 306 615 L306 606 L275 606 C252.333 636.667 227 677.667 203 715 C180.333 679 153.667 635.333 131 606 L101 606 Z " /></g></glyph>
<glyph glyph-name="Cdotaccent" unicode="&#x10a;" horiz-adv-x="437" >
<path fill="black" d="M369 16 C335.667 -1.33333 300 -10 252 -10 C116 -10 40 131.437 40 358 C40 563.359 113.844 725 258 725 C304.667 725 344.333 712.667 383 690 L362 642 C331.333 664.667 295.667 673 261 673 C148.108 673 94 531.463 94 358 C94 167.074 151.39 42 259 42 C301.667 42 337 54.3333 369 69 L369 16 Z " /><g transform="translate(47,840)" ><path fill="black" d="M203 -12 C177 -12 164 5.33333 164 40 C164 74 177 91 203 91 C229 91 242 74 242 40 C242 5.33333 229 -12 203 -12 Z " /></g></glyph>
<glyph glyph-name="cdotaccent" unicode="&#x10b;" horiz-adv-x="437" >
<path fill="black" d="M346 16 C318 0 281.667 -10 243 -10 C129.667 -10 65 83.3333 65 262 C65 451.333 138.667 543 248 543 C286.667 543 321.333 534.333 352 517 L335 469 C308.333 486.333 282.667 492 252 492 C166.667 492 121 413.667 121 263 C121 121.667 161.667 41 247 41 C281.667 41 316.667 52 346 68 L346 16 Z " /><g transform="translate(30,658)" ><path fill="black" d="M203 -12 C177 -12 164 5.33333 164 40 C164 74 177 91 203 91 C229 91 242 74 242 40 C242 5.33333 229 -12 203 -12 Z " /></g></glyph>
<glyph glyph-name="Ccaron" unicode="&#x10c;" horiz-adv-x="437" >
<path fill="black" d="M369 16 C335.667 -1.33333 300 -10 252 -10 C116 -10 40 131.437 40 358 C40 563.359 113.844 725 258 725 C304.667 725 344.333 712.667 383 690 L362 642 C331.333 664.667 295.667 673 261 673 C148.108 673 94 531.463 94 358 C94 167.074 151.39 42 259 42 C301.667 42 337 54.3333 369 69 L369 16 Z " /><g transform="translate(47,182)" ><path fill="black" d="M178 606 C159.333 651.333 127.333 714.667 102 756 L102 765 L132 765 C154.667 735.667 180.333 693.333 203 656 C228.333 697.333 247.333 726.333 274 765 L305 765 L305 756 C280.605 715.342 246.207 650.217 228 606 L178 606 Z " /></g></glyph>
<glyph glyph-name="ccaron" unicode="&#x10d;" horiz-adv-x="437" >
<path fill="black" d="M346 16 C318 0 281.667 -10 243 -10 C129.667 -10 65 83.3333 65 262 C65 451.333 138.667 543 248 543 C286.667 543 321.333 534.333 352 517 L335 469 C308.333 486.333 282.667 492 252 492 C166.667 492 121 413.667 121 263 C121 121.667 161.667 41 247 41 C281.667 41 316.667 52 346 68 L346 16 Z " /><g transform="translate(30,0)" ><path fill="black" d="M178 606 C159.333 651.333 127.333 714.667 102 756 L102 765 L132 765 C154.667 735.667 180.333 693.333 203 656 C228.333 697.333 247.333 726.333 274 765 L305 765 L305 756 C280.605 715.342 246.207 650.217 228 606 L178 606 Z " /></g></glyph>
<glyph glyph-name="Dcaron" unicode="&#x10e;" horiz-adv-x="437" >
<path fill="black" d="M43 0 L43 714 L178 714 C310 714 378 596 378 364 C378 122.667 310 0 170 0 L43 0 Z M97 54 L166 54 C275.333 54 322 157.667 322 363 C322 565.667 279.333 661 166 661 L97 661 L97 54 Z " /><g transform="translate(-12,182)" ><path fill="black" d="M178 606 C159.333 651.333 127.333 714.667 102 756 L102 765 L132 765 C154.667 735.667 180.333 693.333 203 656 C228.333 697.333 247.333 726.333 274 765 L305 765 L305 756 C280.605 715.342 246.207 650.217 228 606 L178 606 Z " /></g></glyph>
<glyph glyph-name="dcaron" unicode="&#x10f;" horiz-adv-x="437" d="M273 90 L270 90 C251.333 34 219 -10 163 -10 C79 -10 31 84 31 260 C31 446.667 83 543 167 543 C221.667 543 251.333 498 270 446 L273 446 C271 477.333 270 506.667 270 534 L270 760 L323 760 L323 0 L281 0 L273 90 Z M271 278 C271 411.333 245 492 181 492 C117.667 492 86 414.333 86 259 C86 113.667 112.667 41 178 41 C246 41 271 119.667 271 245 L271 278 Z M358 599 L358 608 C365.836 634.12 379.278 724.618 382 760 L438 760 L438 753 C429.949 710.06 407.788 639.259 389 599 L358 599 Z " />
<glyph glyph-name="Dcroat" unicode="&#x110;" horiz-adv-x="437" >
<path fill="black" d="M53 341 L2 341 L2 392 L53 392 L53 714 L188 714 C320 714 388 596 388 364 C388 122.667 320 0 180 0 L53 0 L53 341 Z M176 54 C285.333 54 332 157.667 332 363 C332 565.667 289.333 661 176 661 L107 661 L107 392 L223 392 L223 341 L107 341 L107 54 L176 54 Z " /></glyph>
<glyph glyph-name="dcroat" unicode="&#x111;" horiz-adv-x="437" d="M300 90 L298 90 C279.333 36.6667 244.667 -10 182 -10 C90 -10 39 81.6667 39 259 C39 443 93.3333 540 184 540 C244 540 279.333 495 298 443 L301 443 C299.667 472.333 297 505.333 297 532 L297 618 L158 618 L158 664 L297 664 L297 760 L350 760 L350 664 L405 664 L405 618 L350 618 L350 0 L309 0 L300 90 Z M196 41 C270.667 41 298 116.667 298 242 L298 275 C298 411 272 489 200 489 C130 489 95 410.667 95 254 C95 112.667 124 41 196 41 Z " />
<glyph glyph-name="Emacron" unicode="&#x112;" horiz-adv-x="437" >
<path fill="black" d="M347 54 L347 0 L63 0 L63 714 L347 714 L347 661 L117 661 L117 400 L333 400 L333 346 L117 346 L117 54 L347 54 Z " /><g transform="translate(0,179)" ><path fill="black" d="M106 670 L299 670 L299 626 L106 626 L106 670 Z " /></g></glyph>
<glyph glyph-name="emacron" unicode="&#x113;" horiz-adv-x="437" >
<path fill="black" d="M348 25 C312 2.33333 276.667 -10 230 -10 C110 -10 46 92.3333 46 263 C46 430.896 103.437 543 210 543 C312.251 543 364 436.892 364 300 L364 259 L101 259 C102.333 113.667 146 41 232 41 C274.667 41 309.333 53.3333 348 80 L348 25 Z M311 308 C311 413.697 278.177 492 209 492 C146.333 492 108.667 429.333 102 308 L311 308 Z " /><g transform="translate(6,-3)" ><path fill="black" d="M106 670 L299 670 L299 626 L106 626 L106 670 Z " /></g></glyph>
<glyph glyph-name="Ebreve" unicode="&#x114;" horiz-adv-x="437" >
<path fill="black" d="M347 54 L347 0 L63 0 L63 714 L347 714 L347 661 L117 661 L117 400 L333 400 L333 346 L117 346 L117 54 L347 54 Z " /><g transform="translate(0,182)" ><path fill="black" d="M143 729 C145.667 679.667 167 652 203 652 C240.333 652 261 679.667 265 729 L300 729 C297.333 653 261.667 610 203 610 C147 610 109.667 649 107 729 L143 729 Z " /></g></glyph>
<glyph glyph-name="ebreve" unicode="&#x115;" horiz-adv-x="437" >
<path fill="black" d="M348 25 C312 2.33333 276.667 -10 230 -10 C110 -10 46 92.3333 46 263 C46 430.896 103.437 543 210 543 C312.251 543 364 436.892 364 300 L364 259 L101 259 C102.333 113.667 146 41 232 41 C274.667 41 309.333 53.3333 348 80 L348 25 Z M311 308 C311 413.697 278.177 492 209 492 C146.333 492 108.667 429.333 102 308 L311 308 Z " /><g transform="translate(6,0)" ><path fill="black" d="M143 729 C145.667 679.667 167 652 203 652 C240.333 652 261 679.667 265 729 L300 729 C297.333 653 261.667 610 203 610 C147 610 109.667 649 107 729 L143 729 Z " /></g></glyph>
<glyph glyph-name="Edotaccent" unicode="&#x116;" horiz-adv-x="437" >
<path fill="black" d="M347 54 L347 0 L63 0 L63 714 L347 714 L347 661 L117 661 L117 400 L333 400 L333 346 L117 346 L117 54 L347 54 Z " /><g transform="translate(0,840)" ><path fill="black" d="M203 -12 C177 -12 164 5.33333 164 40 C164 74 177 91 203 91 C229 91 242 74 242 40 C242 5.33333 229 -12 203 -12 Z " /></g></glyph>
<glyph glyph-name="edotaccent" unicode="&#x117;" horiz-adv-x="437" >
<path fill="black" d="M348 25 C312 2.33333 276.667 -10 230 -10 C110 -10 46 92.3333 46 263 C46 430.896 103.437 543 210 543 C312.251 543 364 436.892 364 300 L364 259 L101 259 C102.333 113.667 146 41 232 41 C274.667 41 309.333 53.3333 348 80 L348 25 Z M311 308 C311 413.697 278.177 492 209 492 C146.333 492 108.667 429.333 102 308 L311 308 Z " /><g transform="translate(6,658)" ><path fill="black" d="M203 -12 C177 -12 164 5.33333 164 40 C164 74 177 91 203 91 C229 91 242 74 242 40 C242 5.33333 229 -12 203 -12 Z " /></g></glyph>
<glyph glyph-name="Eogonek" unicode="&#x118;" horiz-adv-x="437" d="M65 714 L349 714 L349 661 L119 661 L119 400 L335 400 L335 346 L119 346 L119 54 L349 54 L349 0 L338 0 C300.667 -44 283 -81.3333 283 -124 C283 -160.667 296 -179 322 -179 C332.667 -179 342.333 -175.667 349 -173 L349 -213 C339.667 -218.333 327.333 -221 312 -221 C263.333 -221 239 -192.667 239 -136 C239 -85.3333 259.667 -40 297 0 L65 0 L65 714 Z " />
<glyph glyph-name="eogonek" unicode="&#x119;" horiz-adv-x="437" d="M346 -213 C336.667 -217 321.667 -221 307 -221 C259 -221 232 -185.667 232 -123 C232 -76.3333 249.333 -39.3333 276 -6 C263.333 -8.66667 248.333 -10 231 -10 C111 -10 47 92.3333 47 263 C47 430.896 104.437 543 211 543 C313.251 543 365 436.892 365 300 L365 259 L102 259 C103.333 113.667 147 41 233 41 C275.667 41 310.333 53.3333 349 80 L349 25 L341 20 C302.333 -18.6667 276 -67.3333 276 -118 C276 -155.333 289 -178 317 -178 C327.667 -178 339.333 -174.667 346 -172 L346 -213 Z M312 308 C312 413.697 279.177 492 210 492 C147.333 492 109.667 429.333 103 308 L312 308 Z " />
<glyph glyph-name="Ecaron" unicode="&#x11a;" horiz-adv-x="437" >
<path fill="black" d="M347 54 L347 0 L63 0 L63 714 L347 714 L347 661 L117 661 L117 400 L333 400 L333 346 L117 346 L117 54 L347 54 Z " /><g transform="translate(0,182)" ><path fill="black" d="M178 606 C159.333 651.333 127.333 714.667 102 756 L102 765 L132 765 C154.667 735.667 180.333 693.333 203 656 C228.333 697.333 247.333 726.333 274 765 L305 765 L305 756 C280.605 715.342 246.207 650.217 228 606 L178 606 Z " /></g></glyph>
<glyph glyph-name="ecaron" unicode="&#x11b;" horiz-adv-x="437" >
<path fill="black" d="M348 25 C312 2.33333 276.667 -10 230 -10 C110 -10 46 92.3333 46 263 C46 430.896 103.437 543 210 543 C312.251 543 364 436.892 364 300 L364 259 L101 259 C102.333 113.667 146 41 232 41 C274.667 41 309.333 53.3333 348 80 L348 25 Z M311 308 C311 413.697 278.177 492 209 492 C146.333 492 108.667 429.333 102 308 L311 308 Z " /><g transform="translate(6,0)" ><path fill="black" d="M178 606 C159.333 651.333 127.333 714.667 102 756 L102 765 L132 765 C154.667 735.667 180.333 693.333 203 656 C228.333 697.333 247.333 726.333 274 765 L305 765 L305 756 C280.605 715.342 246.207 650.217 228 606 L178 606 Z " /></g></glyph>
<glyph glyph-name="Gcircumflex" unicode="&#x11c;" horiz-adv-x="437" >
<path fill="black" d="M310 312 L220 312 L220 365 L362 365 L362 25 C322.667 1.66667 280 -10 234 -10 C89.0563 -10 29 144.619 29 359 C29 573.355 94.1818 725 234 725 C276.667 725 323.333 712.667 358 682 L337 635 C302.333 664.333 273 673 237 673 C131.433 673 84 550.948 84 359 C84 175.892 127.952 42 233 42 C263.667 42 290 50.3333 310 61 L310 312 Z " /><g transform="translate(17,182)" ><path fill="black" d="M101 606 L101 615 C127.112 656.779 162.023 722.395 178 765 L228 765 C246.894 719.115 281.954 652.405 306 615 L306 606 L275 606 C252.333 636.667 227 677.667 203 715 C180.333 679 153.667 635.333 131 606 L101 606 Z " /></g></glyph>
<glyph glyph-name="gcircumflex" unicode="&#x11d;" horiz-adv-x="437" >
<path fill="black" d="M62 -153 C98 -177 143.333 -192 182 -192 C262 -192 297 -131.667 297 -25 L297 10 C297 34 297.333 65.6667 300 91 L297 91 C275.667 27 237.333 -9 184 -9 C92 -9 39 84.3333 39 263 C39 436.333 91 543 187 543 C240.333 543 275.333 507.667 298 453 L301 453 L307 532 L350 532 L350 -21 C350 -166.333 298 -243 182 -243 C136.667 -243 96.6667 -231.333 62 -210 L62 -153 Z M299 288 C299 417.333 271.667 492 201 492 C127.667 492 95 407 95 263 C95 115 130 41 200 41 C272.13 41 299 125.307 299 240 L299 288 Z " /><path fill="black" d="M101 606 L101 615 C127.112 656.779 162.023 722.395 178 765 L228 765 C246.894 719.115 281.954 652.405 306 615 L306 606 L275 606 C252.333 636.667 227 677.667 203 715 C180.333 679 153.667 635.333 131 606 L101 606 Z " /></glyph>
<glyph glyph-name="Gbreve" unicode="&#x11e;" horiz-adv-x="437" >
<path fill="black" d="M310 312 L220 312 L220 365 L362 365 L362 25 C322.667 1.66667 280 -10 234 -10 C89.0563 -10 29 144.619 29 359 C29 573.355 94.1818 725 234 725 C276.667 725 323.333 712.667 358 682 L337 635 C302.333 664.333 273 673 237 673 C131.433 673 84 550.948 84 359 C84 175.892 127.952 42 233 42 C263.667 42 290 50.3333 310 61 L310 312 Z " /><g transform="translate(17,182)" ><path fill="black" d="M143 729 C145.667 679.667 167 652 203 652 C240.333 652 261 679.667 265 729 L300 729 C297.333 653 261.667 610 203 610 C147 610 109.667 649 107 729 L143 729 Z " /></g></glyph>
<glyph glyph-name="gbreve" unicode="&#x11f;" horiz-adv-x="437" >
<path fill="black" d="M62 -153 C98 -177 143.333 -192 182 -192 C262 -192 297 -131.667 297 -25 L297 10 C297 34 297.333 65.6667 300 91 L297 91 C275.667 27 237.333 -9 184 -9 C92 -9 39 84.3333 39 263 C39 436.333 91 543 187 543 C240.333 543 275.333 507.667 298 453 L301 453 L307 532 L350 532 L350 -21 C350 -166.333 298 -243 182 -243 C136.667 -243 96.6667 -231.333 62 -210 L62 -153 Z M299 288 C299 417.333 271.667 492 201 492 C127.667 492 95 407 95 263 C95 115 130 41 200 41 C272.13 41 299 125.307 299 240 L299 288 Z " /><path fill="black" d="M143 729 C145.667 679.667 167 652 203 652 C240.333 652 261 679.667 265 729 L300 729 C297.333 653 261.667 610 203 610 C147 610 109.667 649 107 729 L143 729 Z " /></glyph>
<glyph glyph-name="Gdotaccent" unicode="&#x120;" horiz-adv-x="437" >
<path fill="black" d="M310 312 L220 312 L220 365 L362 365 L362 25 C322.667 1.66667 280 -10 234 -10 C89.0563 -10 29 144.619 29 359 C29 573.355 94.1818 725 234 725 C276.667 725 323.333 712.667 358 682 L337 635 C302.333 664.333 273 673 237 673 C131.433 673 84 550.948 84 359 C84 175.892 127.952 42 233 42 C263.667 42 290 50.3333 310 61 L310 312 Z " /><g transform="translate(17,840)" ><path fill="black" d="M203 -12 C177 -12 164 5.33333 164 40 C164 74 177 91 203 91 C229 91 242 74 242 40 C242 5.33333 229 -12 203 -12 Z " /></g></glyph>
<glyph glyph-name="gdotaccent" unicode="&#x121;" horiz-adv-x="437" >
<path fill="black" d="M62 -153 C98 -177 143.333 -192 182 -192 C262 -192 297 -131.667 297 -25 L297 10 C297 34 297.333 65.6667 300 91 L297 91 C275.667 27 237.333 -9 184 -9 C92 -9 39 84.3333 39 263 C39 436.333 91 543 187 543 C240.333 543 275.333 507.667 298 453 L301 453 L307 532 L350 532 L350 -21 C350 -166.333 298 -243 182 -243 C136.667 -243 96.6667 -231.333 62 -210 L62 -153 Z M299 288 C299 417.333 271.667 492 201 492 C127.667 492 95 407 95 263 C95 115 130 41 200 41 C272.13 41 299 125.307 299 240 L299 288 Z " /><g transform="translate(0,658)" ><path fill="black" d="M203 -12 C177 -12 164 5.33333 164 40 C164 74 177 91 203 91 C229 91 242 74 242 40 C242 5.33333 229 -12 203 -12 Z " /></g></glyph>
<glyph glyph-name="uni0122" unicode="&#x122;" horiz-adv-x="437" >
<path fill="black" d="M310 312 L220 312 L220 365 L362 365 L362 25 C322.667 1.66667 280 -10 234 -10 C89.0563 -10 29 144.619 29 359 C29 573.355 94.1818 725 234 725 C276.667 725 323.333 712.667 358 682 L337 635 C302.333 664.333 273 673 237 673 C131.433 673 84 550.948 84 359 C84 175.892 127.952 42 233 42 C263.667 42 290 50.3333 310 61 L310 312 Z " /><g transform="translate(665,0)" ><path fill="black" d="M-494 -221 L-494 -211 C-483.386 -176.504 -465.655 -103.484 -463 -61 L-408 -61 L-408 -69 C-418.667 -114.333 -439 -178.333 -463 -221 L-494 -221 Z " /></g></glyph>
<glyph glyph-name="uni0123" unicode="&#x123;" horiz-adv-x="437" d="M64 -153 C100 -177 145.333 -192 184 -192 C264 -192 299 -131.667 299 -25 L299 10 C299 34 299.333 65.6667 302 91 L299 91 C277.667 27 239.333 -9 186 -9 C94 -9 41 84.3333 41 263 C41 436.333 93 543 189 543 C242.333 543 277.333 507.667 300 453 L303 453 L309 532 L352 532 L352 -21 C352 -166.333 300 -243 184 -243 C138.667 -243 98.6667 -231.333 64 -210 L64 -153 Z M301 288 C301 417.333 273.667 492 203 492 C129.667 492 97 407 97 263 C97 115 132 41 202 41 C274.13 41 301 125.307 301 240 L301 288 Z M168 606 L168 614 C177.333 658 198.333 722 225 766 L256 766 L256 756 C242.832 721.764 226.652 645.779 224 606 L168 606 Z " />
<glyph glyph-name="Hcircumflex" unicode="&#x124;" horiz-adv-x="437" >
<path fill="black" d="M43 0 L43 714 L98 714 L98 399 L310 399 L310 714 L363 714 L363 0 L310 0 L310 345 L98 345 L98 0 L43 0 Z " /><g transform="translate(0,182)" ><path fill="black" d="M101 606 L101 615 C127.112 656.779 162.023 722.395 178 765 L228 765 C246.894 719.115 281.954 652.405 306 615 L306 606 L275 606 C252.333 636.667 227 677.667 203 715 C180.333 679 153.667 635.333 131 606 L101 606 Z " /></g></glyph>
<glyph glyph-name="hcircumflex" unicode="&#x125;" horiz-adv-x="437" >
<path fill="black" d="M56 0 L56 760 L110 760 L110 514 C110 487.333 108.333 467 107 443 L110 443 C128.667 497.667 163 543 227 543 C303 543 354 483.667 354 353 L354 0 L301 0 L301 342 C301 446 272.333 492 215 492 C148.333 492 110 423.667 110 289 L110 0 L56 0 Z " /><g transform="translate(-121,228)" ><path fill="black" d="M101 606 L101 615 C127.112 656.779 162.023 722.395 178 765 L228 765 C246.894 719.115 281.954 652.405 306 615 L306 606 L275 606 C252.333 636.667 227 677.667 203 715 C180.333 679 153.667 635.333 131 606 L101 606 Z " /></g></glyph>
<glyph glyph-name="Hbar" unicode="&#x126;" horiz-adv-x="437" d="M44 537 L2 537 L2 585 L44 585 L44 714 L98 714 L98 585 L309 585 L309 714 L363 714 L363 585 L404 585 L404 537 L363 537 L363 0 L309 0 L309 345 L98 345 L98 0 L44 0 L44 537 Z M309 399 L309 537 L98 537 L98 399 L309 399 Z " />
<glyph glyph-name="hbar" unicode="&#x127;" horiz-adv-x="437" d="M56 618 L2 618 L2 664 L56 664 L56 760 L110 760 L110 664 L248 664 L248 618 L110 618 L110 514 C110 487.333 108.333 467 107 443 L110 443 C128.667 497.667 163 543 227 543 C303 543 354 483.667 354 353 L354 0 L301 0 L301 342 C301 446 272.333 492 215 492 C147 492 110 423.667 110 289 L110 0 L56 0 L56 618 Z " />
<glyph glyph-name="Itilde" unicode="&#x128;" horiz-adv-x="437" >
<path fill="black" d="M75 41 L176 48 L176 666 L75 673 L75 714 L332 714 L332 673 L229 666 L229 48 L332 41 L332 0 L75 0 L75 41 Z " /><g transform="translate(0,182)" ><path fill="black" d="M84 616 C88 680 107.667 725 149 725 C191.556 725 219.444 662 254 662 C272.667 662 284 683.333 288 726 L323 726 C319 654 293 616 257 616 C214.34 616 182.895 680 152 680 C133.333 680 121.667 658.667 117 616 L84 616 Z " /></g></glyph>
<glyph glyph-name="itilde" unicode="&#x129;" horiz-adv-x="407" >
<path fill="black" d="M62 41 L184 49 L184 482 L72 491 L72 532 L237 532 L237 49 L348 41 L348 0 L62 0 L62 41 Z " /><path fill="black" d="M84 616 C88 680 107.667 725 149 725 C191.556 725 219.444 662 254 662 C272.667 662 284 683.333 288 726 L323 726 C319 654 293 616 257 616 C214.34 616 182.895 680 152 680 C133.333 680 121.667 658.667 117 616 L84 616 Z " /></glyph>
<glyph glyph-name="Imacron" unicode="&#x12a;" horiz-adv-x="437" >
<path fill="black" d="M75 41 L176 48 L176 666 L75 673 L75 714 L332 714 L332 673 L229 666 L229 48 L332 41 L332 0 L75 0 L75 41 Z " /><g transform="translate(0,179)" ><path fill="black" d="M106 670 L299 670 L299 626 L106 626 L106 670 Z " /></g></glyph>
<glyph glyph-name="imacron" unicode="&#x12b;" horiz-adv-x="407" >
<path fill="black" d="M62 41 L184 49 L184 482 L72 491 L72 532 L237 532 L237 49 L348 41 L348 0 L62 0 L62 41 Z " /><g transform="translate(0,-3)" ><path fill="black" d="M106 670 L299 670 L299 626 L106 626 L106 670 Z " /></g></glyph>
<glyph glyph-name="Ibreve" unicode="&#x12c;" horiz-adv-x="437" >
<path fill="black" d="M75 41 L176 48 L176 666 L75 673 L75 714 L332 714 L332 673 L229 666 L229 48 L332 41 L332 0 L75 0 L75 41 Z " /><g transform="translate(0,182)" ><path fill="black" d="M143 729 C145.667 679.667 167 652 203 652 C240.333 652 261 679.667 265 729 L300 729 C297.333 653 261.667 610 203 610 C147 610 109.667 649 107 729 L143 729 Z " /></g></glyph>
<glyph glyph-name="ibreve" unicode="&#x12d;" horiz-adv-x="407" >
<path fill="black" d="M62 41 L184 49 L184 482 L72 491 L72 532 L237 532 L237 49 L348 41 L348 0 L62 0 L62 41 Z " /><path fill="black" d="M143 729 C145.667 679.667 167 652 203 652 C240.333 652 261 679.667 265 729 L300 729 C297.333 653 261.667 610 203 610 C147 610 109.667 649 107 729 L143 729 Z " /></glyph>
<glyph glyph-name="Iogonek" unicode="&#x12e;" horiz-adv-x="437" d="M287 -213 C277.667 -218.333 265.333 -221 250 -221 C201.333 -221 177 -192.667 177 -136 C177 -85.3333 197.667 -40 235 0 L77 0 L77 41 L178 48 L178 666 L77 673 L77 714 L334 714 L334 673 L231 666 L231 48 L334 41 L334 0 L276 0 C238.667 -44 221 -81.3333 221 -124 C221 -160.667 234 -179 260 -179 C270.667 -179 280.333 -175.667 287 -173 L287 -213 Z " />
<glyph glyph-name="iogonek" unicode="&#x12f;" horiz-adv-x="437" d="M64 41 L186 49 L186 482 L74 491 L74 532 L239 532 L239 49 L350 41 L350 0 L284 0 C246.667 -44 229 -81.3333 229 -124 C229 -160.667 242 -179 268 -179 C278.667 -179 288.333 -175.667 295 -173 L295 -213 C285.667 -218.333 273.333 -221 258 -221 C209.333 -221 185 -192.667 185 -136 C185 -85.3333 205.667 -40 243 0 L64 0 L64 41 Z M209 646 C183 646 170 663.333 170 698 C170 732 183 749 209 749 C235 749 248 732 248 698 C248 663.333 235 646 209 646 Z " />
<glyph glyph-name="Idotaccent" unicode="&#x130;" horiz-adv-x="437" >
<path fill="black" d="M75 41 L176 48 L176 666 L75 673 L75 714 L332 714 L332 673 L229 666 L229 48 L332 41 L332 0 L75 0 L75 41 Z " /><g transform="translate(0,840)" ><path fill="black" d="M203 -12 C177 -12 164 5.33333 164 40 C164 74 177 91 203 91 C229 91 242 74 242 40 C242 5.33333 229 -12 203 -12 Z " /></g></glyph>
<glyph glyph-name="dotlessi" unicode="&#x131;" horiz-adv-x="407" d="M62 41 L184 49 L184 482 L72 491 L72 532 L237 532 L237 49 L348 41 L348 0 L62 0 L62 41 Z " />
<glyph glyph-name="IJ" unicode="&#x132;" horiz-adv-x="437" d="M82 79 C99.3333 64.3333 142.667 41 184 41 C244 41 274 89.6667 274 203 L274 714 L327 714 L327 193 C327 62.3333 285 -12 189 -12 C150.333 -12 104.667 3 82 23 L82 79 Z M81 165 L81 714 L135 714 L135 165 L81 165 Z " />
<glyph glyph-name="ij" unicode="&#x133;" horiz-adv-x="437" d="M92 -175 C114.667 -185.667 156 -195 184 -195 C241.333 -195 270 -151.333 270 -74 L270 532 L323 532 L323 -74 C323 -191.333 273.667 -246 187 -246 C152.333 -246 114.667 -236 92 -228 L92 -175 Z M84 0 L84 532 L138 532 L138 0 L84 0 Z M112 641 C85.3333 641 72 661 72 693 C72 726.333 85.3333 746 112 746 C138.667 746 152 726.333 152 693 C152 661 138.667 641 112 641 Z M295 641 C268.333 641 255 661 255 693 C255 726.333 268.333 746 295 746 C321.667 746 335 726.333 335 693 C335 661 321.667 641 295 641 Z " />
<glyph glyph-name="Jcircumflex" unicode="&#x134;" horiz-adv-x="437" >
<path fill="black" d="M45 73 C75.6667 53 111 40 147 40 C219.667 40 256 97.3333 256 212 L256 714 L309 714 L309 200 C309 68 260.333 -12 151 -12 C111 -12 74.3333 0.333333 45 19 L45 73 Z " /><g transform="translate(80,182)" ><path fill="black" d="M101 606 L101 615 C127.112 656.779 162.023 722.395 178 765 L228 765 C246.894 719.115 281.954 652.405 306 615 L306 606 L275 606 C252.333 636.667 227 677.667 203 715 C180.333 679 153.667 635.333 131 606 L101 606 Z " /></g></glyph>
<glyph glyph-name="jcircumflex" unicode="&#x135;" horiz-adv-x="407" >
<path fill="black" d="M39 -175 C61.6667 -185.667 102.333 -195 129 -195 C185 -195 213 -151.333 213 -74 L213 482 L77 491 L77 532 L266 532 L266 -74 C266 -191.333 218.333 -246 133 -246 C98.3333 -246 60.3333 -236 39 -228 L39 -175 Z " /><g transform="translate(33,0)" ><path fill="black" d="M101 606 L101 615 C127.112 656.779 162.023 722.395 178 765 L228 765 C246.894 719.115 281.954 652.405 306 615 L306 606 L275 606 C252.333 636.667 227 677.667 203 715 C180.333 679 153.667 635.333 131 606 L101 606 Z " /></g></glyph>
<glyph glyph-name="uni0136" unicode="&#x136;" horiz-adv-x="437" >
<path fill="black" d="M44 0 L44 714 L96 714 L96 339 C114.667 367 131 394.333 155 437 L309 714 L371 714 L195 401 L374 0 L314 0 L157 359 L96 273 L96 0 L44 0 Z " /><g transform="translate(645,0)" ><path fill="black" d="M-494 -221 L-494 -211 C-483.386 -176.504 -465.655 -103.484 -463 -61 L-408 -61 L-408 -69 C-418.667 -114.333 -439 -178.333 -463 -221 L-494 -221 Z " /></g></glyph>
<glyph glyph-name="uni0137" unicode="&#x137;" horiz-adv-x="437" >
<path fill="black" d="M70 0 L70 760 L123 760 L123 393 C123 342.333 121.667 301.333 119 248 L120 248 C134.667 272 145.333 290.667 160 312 L306 532 L371 532 L212 304 L381 0 L319 0 L176 262 L123 194 L123 0 L70 0 Z " /><g transform="translate(662,0)" ><path fill="black" d="M-494 -221 L-494 -211 C-483.386 -176.504 -465.655 -103.484 -463 -61 L-408 -61 L-408 -69 C-418.667 -114.333 -439 -178.333 -463 -221 L-494 -221 Z " /></g></glyph>
<glyph glyph-name="kgreenlandic" unicode="&#x138;" horiz-adv-x="437" d="M69 0 L69 532 L122 532 L122 393 C122 342.333 121.667 301.333 119 248 L120 248 C134.667 272 145.333 290.667 160 312 L306 532 L371 532 L212 305 L381 0 L319 0 L176 262 L122 194 L122 0 L69 0 Z " />
<glyph glyph-name="Lacute" unicode="&#x139;" horiz-adv-x="437" >
<path fill="black" d="M347 55 L347 0 L66 0 L66 714 L120 714 L120 55 L347 55 Z " /><g transform="translate(-118,182)" ><path fill="black" d="M175 606 L175 616 C207 666.667 236 719.333 256 766 L318 766 L318 757 C293.808 713.992 244.367 644.088 209 606 L175 606 Z " /></g></glyph>
<glyph glyph-name="lacute" unicode="&#x13a;" horiz-adv-x="437" >
<path fill="black" d="M62 41 L179 49 L179 711 L69 719 L69 760 L232 760 L232 49 L348 41 L348 0 L62 0 L62 41 Z " /><g transform="translate(-9,228)" ><path fill="black" d="M175 606 L175 616 C207 666.667 236 719.333 256 766 L318 766 L318 757 C293.808 713.992 244.367 644.088 209 606 L175 606 Z " /></g></glyph>
<glyph glyph-name="uni013B" unicode="&#x13b;" horiz-adv-x="437" >
<path fill="black" d="M347 55 L347 0 L66 0 L66 714 L120 714 L120 55 L347 55 Z " /><g transform="translate(653,0)" ><path fill="black" d="M-494 -221 L-494 -211 C-483.386 -176.504 -465.655 -103.484 -463 -61 L-408 -61 L-408 -69 C-418.667 -114.333 -439 -178.333 -463 -221 L-494 -221 Z " /></g></glyph>
<glyph glyph-name="uni013C" unicode="&#x13c;" horiz-adv-x="437" >
<path fill="black" d="M62 41 L179 49 L179 711 L69 719 L69 760 L232 760 L232 49 L348 41 L348 0 L62 0 L62 41 Z " /><g transform="translate(643,0)" ><path fill="black" d="M-494 -221 L-494 -211 C-483.386 -176.504 -465.655 -103.484 -463 -61 L-408 -61 L-408 -69 C-418.667 -114.333 -439 -178.333 -463 -221 L-494 -221 Z " /></g></glyph>
<glyph glyph-name="Lcaron" unicode="&#x13d;" horiz-adv-x="437" >
<g transform="translate(1,0)" ><path fill="black" d="M347 55 L347 0 L66 0 L66 714 L120 714 L120 55 L347 55 Z " /></g><g transform="translate(324,0)" ><path fill="black" d="M-38 553 L-38 562 C-30.164 588.12 -16.7217 678.618 -14 714 L42 714 L42 707 C33.9488 664.06 11.7877 593.259 -7 553 L-38 553 Z " /></g></glyph>
<glyph glyph-name="lcaron" unicode="&#x13e;" horiz-adv-x="437" >
<g transform="translate(1,0)" ><path fill="black" d="M62 41 L179 49 L179 711 L69 719 L69 760 L232 760 L232 49 L348 41 L348 0 L62 0 L62 41 Z " /></g><g transform="translate(362,46)" ><path fill="black" d="M-38 553 L-38 562 C-30.164 588.12 -16.7217 678.618 -14 714 L42 714 L42 707 C33.9488 664.06 11.7877 593.259 -7 553 L-38 553 Z " /></g></glyph>
<glyph glyph-name="Ldot" unicode="&#x13f;" horiz-adv-x="437" >
<g transform="translate(2,0)" ><path fill="black" d="M347 55 L347 0 L66 0 L66 714 L120 714 L120 55 L347 55 Z " /></g><g transform="translate(109,333)" ><path fill="black" d="M203 -12 C177 -12 164 5.33333 164 40 C164 74 177 91 203 91 C229 91 242 74 242 40 C242 5.33333 229 -12 203 -12 Z " /></g></glyph>
<glyph glyph-name="ldot" unicode="&#x140;" horiz-adv-x="437" >
<path fill="black" d="M62 41 L179 49 L179 711 L69 719 L69 760 L232 760 L232 49 L348 41 L348 0 L62 0 L62 41 Z " /><g transform="translate(206,352)" ><path fill="black" d="M203 -12 C177 -12 164 5.33333 164 40 C164 74 177 91 203 91 C229 91 242 74 242 40 C242 5.33333 229 -12 203 -12 Z " /></g></glyph>
<glyph glyph-name="Lslash" unicode="&#x141;" horiz-adv-x="437" d="M66 340 L11 303 L11 348 L66 385 L66 714 L120 714 L120 421 L251 508 L251 463 L120 376 L120 55 L347 55 L347 0 L66 0 L66 340 Z " />
<glyph glyph-name="lslash" unicode="&#x142;" horiz-adv-x="437" d="M64 41 L181 49 L181 361 L94 303 L94 348 L181 406 L181 711 L71 719 L71 760 L234 760 L234 442 L333 508 L333 463 L234 397 L234 49 L350 41 L350 0 L64 0 L64 41 Z " />
<glyph glyph-name="Nacute" unicode="&#x143;" horiz-adv-x="437" >
<path fill="black" d="M44 0 L44 714 L115 714 L317 71 L320 71 C320 104.111 314 171.889 314 221 L314 714 L363 714 L363 0 L294 0 L91 646 L87 646 C89.6667 599.333 92 553.333 92 488 L92 0 L44 0 Z " /><g transform="translate(-4,182)" ><path fill="black" d="M175 606 L175 616 C207 666.667 236 719.333 256 766 L318 766 L318 757 C293.808 713.992 244.367 644.088 209 606 L175 606 Z " /></g></glyph>
<glyph glyph-name="nacute" unicode="&#x144;" horiz-adv-x="437" >
<path fill="black" d="M56 0 L56 532 L100 532 L107 442 L110 442 C128.667 500.667 169 542 229 542 C309 542 354 485.667 354 355 L354 0 L301 0 L301 350 C301 447.333 273.667 492 219 492 C151 492 110 425.333 110 292 L110 0 L56 0 Z " /><g transform="translate(-1,0)" ><path fill="black" d="M175 606 L175 616 C207 666.667 236 719.333 256 766 L318 766 L318 757 C293.808 713.992 244.367 644.088 209 606 L175 606 Z " /></g></glyph>
<glyph glyph-name="uni0145" unicode="&#x145;" horiz-adv-x="437" >
<path fill="black" d="M44 0 L44 714 L115 714 L317 71 L320 71 C320 104.111 314 171.889 314 221 L314 714 L363 714 L363 0 L294 0 L91 646 L87 646 C89.6667 599.333 92 553.333 92 488 L92 0 L44 0 Z " /><g transform="translate(640,0)" ><path fill="black" d="M-494 -221 L-494 -211 C-483.386 -176.504 -465.655 -103.484 -463 -61 L-408 -61 L-408 -69 C-418.667 -114.333 -439 -178.333 -463 -221 L-494 -221 Z " /></g></glyph>
<glyph glyph-name="uni0146" unicode="&#x146;" horiz-adv-x="437" >
<path fill="black" d="M56 0 L56 532 L100 532 L107 442 L110 442 C128.667 500.667 169 542 229 542 C309 542 354 485.667 354 355 L354 0 L301 0 L301 350 C301 447.333 273.667 492 219 492 C151 492 110 425.333 110 292 L110 0 L56 0 Z " /><g transform="translate(645,0)" ><path fill="black" d="M-494 -221 L-494 -211 C-483.386 -176.504 -465.655 -103.484 -463 -61 L-408 -61 L-408 -69 C-418.667 -114.333 -439 -178.333 -463 -221 L-494 -221 Z " /></g></glyph>
<glyph glyph-name="Ncaron" unicode="&#x147;" horiz-adv-x="437" >
<path fill="black" d="M44 0 L44 714 L115 714 L317 71 L320 71 C320 104.111 314 171.889 314 221 L314 714 L363 714 L363 0 L294 0 L91 646 L87 646 C89.6667 599.333 92 553.333 92 488 L92 0 L44 0 Z " /><g transform="translate(5,182)" ><path fill="black" d="M178 606 C159.333 651.333 127.333 714.667 102 756 L102 765 L132 765 C154.667 735.667 180.333 693.333 203 656 C228.333 697.333 247.333 726.333 274 765 L305 765 L305 756 C280.605 715.342 246.207 650.217 228 606 L178 606 Z " /></g></glyph>
<glyph glyph-name="ncaron" unicode="&#x148;" horiz-adv-x="437" >
<path fill="black" d="M56 0 L56 532 L100 532 L107 442 L110 442 C128.667 500.667 169 542 229 542 C309 542 354 485.667 354 355 L354 0 L301 0 L301 350 C301 447.333 273.667 492 219 492 C151 492 110 425.333 110 292 L110 0 L56 0 Z " /><g transform="translate(8,0)" ><path fill="black" d="M178 606 C159.333 651.333 127.333 714.667 102 756 L102 765 L132 765 C154.667 735.667 180.333 693.333 203 656 C228.333 697.333 247.333 726.333 274 765 L305 765 L305 756 C280.605 715.342 246.207 650.217 228 606 L178 606 Z " /></g></glyph>
<glyph glyph-name="napostrophe" unicode="&#x149;" horiz-adv-x="437" d="M65 0 L65 532 L108 532 L116 442 L119 442 C137.667 500.667 175 542 235 542 C311 542 355 485.667 355 355 L355 0 L301 0 L301 350 C301 447.333 271 492 219 492 C153.667 492 118 425.333 118 292 L118 0 L65 0 Z M-37 474 C-18.3333 554 -3.66667 643.333 3 714 L57 714 L62 703 C47.3333 624.333 29.6667 548.667 3 474 L-37 474 Z " />
<glyph glyph-name="Eng" unicode="&#x14a;" horiz-adv-x="437" d="M187 -127 C201.667 -133.667 219.667 -139 237 -139 C286.333 -139 318 -98.6667 318 0 L294 0 L91 646 L87 646 C89.6667 599.333 92 553.333 92 488 L92 0 L44 0 L44 714 L115 714 L317 71 L320 71 C320 104.111 314 171.889 314 221 L314 714 L363 714 L363 0 C363 -129.333 322 -184 242 -184 C220.667 -184 200.333 -178.667 187 -172 L187 -127 Z " />
<glyph glyph-name="eng" unicode="&#x14b;" horiz-adv-x="437" d="M210 -181 C222 -187 235.333 -190 250 -190 C282 -190 298.333 -159 299 -97 L301 22 L301 350 C301 447.333 273.667 492 219 492 C151 492 110 425.333 110 292 L110 0 L56 0 L56 532 L100 532 L107 442 L110 442 C128.667 500.667 169 542 229 542 C309 542 354 485.667 354 355 L354 0 L351 0 L352 -97 C353.333 -190.333 322 -240 258 -240 C238 -240 222 -237 210 -231 L210 -181 Z " />
<glyph glyph-name="Omacron" unicode="&#x14c;" horiz-adv-x="437" >
<path fill="black" d="M204 -10 C70.7446 -10 29 163.39 29 359 C29 600.333 85.6667 725 203 725 C329.952 725 378 565.922 378 358 C378 157.896 336.208 -10 204 -10 Z M204 42 C284 42 323 150 323 358 C323 563.333 284 673 204 673 C120 673 84 560.667 84 358 C84 154 124 42 204 42 Z " /><g transform="translate(0,179)" ><path fill="black" d="M106 670 L299 670 L299 626 L106 626 L106 670 Z " /></g></glyph>
<glyph glyph-name="omacron" unicode="&#x14d;" horiz-adv-x="437" >
<path fill="black" d="M204 -10 C97.3333 -10 39 90.6667 39 268 C39 442.667 97.3333 542 204 542 C310.667 542 368 436.667 368 266 C368 91.3333 312 -10 204 -10 Z M204 40 C277.333 40 312 119 312 267 C312 408.333 278.667 493 204 493 C132 493 95 413.667 95 267 C95 121.667 130.667 40 204 40 Z " /><g transform="translate(0,-3)" ><path fill="black" d="M106 670 L299 670 L299 626 L106 626 L106 670 Z " /></g></glyph>
<glyph glyph-name="Obreve" unicode="&#x14e;" horiz-adv-x="437" >
<path fill="black" d="M204 -10 C70.7446 -10 29 163.39 29 359 C29 600.333 85.6667 725 203 725 C329.952 725 378 565.922 378 358 C378 157.896 336.208 -10 204 -10 Z M204 42 C284 42 323 150 323 358 C323 563.333 284 673 204 673 C120 673 84 560.667 84 358 C84 154 124 42 204 42 Z " /><g transform="translate(0,182)" ><path fill="black" d="M143 729 C145.667 679.667 167 652 203 652 C240.333 652 261 679.667 265 729 L300 729 C297.333 653 261.667 610 203 610 C147 610 109.667 649 107 729 L143 729 Z " /></g></glyph>
<glyph glyph-name="obreve" unicode="&#x14f;" horiz-adv-x="437" >
<path fill="black" d="M204 -10 C97.3333 -10 39 90.6667 39 268 C39 442.667 97.3333 542 204 542 C310.667 542 368 436.667 368 266 C368 91.3333 312 -10 204 -10 Z M204 40 C277.333 40 312 119 312 267 C312 408.333 278.667 493 204 493 C132 493 95 413.667 95 267 C95 121.667 130.667 40 204 40 Z " /><path fill="black" d="M143 729 C145.667 679.667 167 652 203 652 C240.333 652 261 679.667 265 729 L300 729 C297.333 653 261.667 610 203 610 C147 610 109.667 649 107 729 L143 729 Z " /></glyph>
<glyph glyph-name="Ohungarumlaut" unicode="&#x150;" horiz-adv-x="437" d="M204 -10 C70.7446 -10 29 163.39 29 359 C29 600.333 85.6667 725 203 725 C329.952 725 378 565.922 378 358 C378 157.896 336.208 -10 204 -10 Z M204 42 C284 42 323 150 323 358 C323 563.333 284 673 204 673 C120 673 84 560.667 84 358 C84 154 124 42 204 42 Z M117 788 L117 797 C143.45 839.32 177.61 914.234 188 948 L242 948 L242 940 C223.214 899.743 177.176 825.539 145 788 L117 788 Z M231 788 L231 797 C257.45 839.32 291.61 914.234 302 948 L356 948 L356 940 C337.214 899.743 291.176 825.539 259 788 L231 788 Z " />
<glyph glyph-name="ohungarumlaut" unicode="&#x151;" horiz-adv-x="437" d="M204 -10 C97.3333 -10 39 90.6667 39 268 C39 442.667 97.3333 542 204 542 C310.667 542 368 436.667 368 266 C368 91.3333 312 -10 204 -10 Z M204 40 C277.333 40 312 119 312 267 C312 408.333 278.667 493 204 493 C132 493 95 413.667 95 267 C95 121.667 130.667 40 204 40 Z M117 606 L117 615 C143.45 657.32 177.61 732.234 188 766 L242 766 L242 758 C223.214 717.743 177.176 643.539 145 606 L117 606 Z M231 606 L231 615 C257.45 657.32 291.61 732.234 302 766 L356 766 L356 758 C337.214 717.743 291.176 643.539 259 606 L231 606 Z " />
<glyph glyph-name="OE" unicode="&#x152;" horiz-adv-x="437" d="M385 55 L385 0 L233 0 C218.333 -2.66667 203.333 -6 186 -6 C73.8182 -6 29 130.662 29 359 C29 575.104 71.6667 719 189 719 C203.667 719 219.333 716.667 238 714 L385 714 L385 660 L263 660 L263 401 L373 401 L373 346 L263 346 L263 55 L385 55 Z M210 661 C204.667 667.667 197.667 669 187 669 C108.022 669 81 541.056 81 358 C81 166.97 111.208 46 187 46 C195.667 46 203.333 48.3333 210 53 L210 661 Z " />
<glyph glyph-name="oe" unicode="&#x153;" horiz-adv-x="437" d="M381 22 C360.333 0.666667 336.333 -10 309 -10 C259 -10 226.333 31 211 113 C195 31.6667 168 -10 124 -10 C48 -10 18 83.6667 18 261 C18 461 56 542 124 542 C168 542 196.333 497.667 211 415 C227 492.333 253.333 542 296 542 C359.844 542 390 443.277 390 301 L390 259 L234 259 C235.333 113 262.333 40 315 40 C337.667 40 358.333 51.3333 381 74 L381 22 Z M124 40 C166.667 40 185 128.667 185 266 C185 406 166.667 492 124 492 C84.6667 492 65 416.667 65 266 C65 124.667 81.3333 40 124 40 Z M343 310 C341.667 424.667 324 492 292 492 C254.797 492 235 392.823 235 310 L343 310 Z " />
<glyph glyph-name="Racute" unicode="&#x154;" horiz-adv-x="437" >
<path fill="black" d="M63 0 L63 714 L180 714 C294.667 714 356 658.333 356 517 C356 405 317 346 257 322 L386 0 L326 0 L208 307 L115 307 L115 0 L63 0 Z M115 359 L183 359 C259 359 301 410.667 301 516 C301 622.667 261.333 662 176 662 L115 662 L115 359 Z " /><g transform="translate(-9,182)" ><path fill="black" d="M175 606 L175 616 C207 666.667 236 719.333 256 766 L318 766 L318 757 C293.808 713.992 244.367 644.088 209 606 L175 606 Z " /></g></glyph>
<glyph glyph-name="racute" unicode="&#x155;" horiz-adv-x="437" >
<path fill="black" d="M40 41 L145 49 L145 482 L48 491 L48 532 L188 532 L193 435 L196 435 C214.667 496.333 251.667 542 313 542 C334.333 542 359 536.333 379 527 L365 471 C347.667 480.333 325.667 484 307 484 C237.667 484 198 402.667 198 284 L198 49 L309 41 L309 0 L40 0 L40 41 Z " /><g transform="translate(6,0)" ><path fill="black" d="M175 606 L175 616 C207 666.667 236 719.333 256 766 L318 766 L318 757 C293.808 713.992 244.367 644.088 209 606 L175 606 Z " /></g></glyph>
<glyph glyph-name="uni0156" unicode="&#x156;" horiz-adv-x="437" >
<path fill="black" d="M63 0 L63 714 L180 714 C294.667 714 356 658.333 356 517 C356 405 317 346 257 322 L386 0 L326 0 L208 307 L115 307 L115 0 L63 0 Z M115 359 L183 359 C259 359 301 410.667 301 516 C301 622.667 261.333 662 176 662 L115 662 L115 359 Z " /><g transform="translate(655,0)" ><path fill="black" d="M-494 -221 L-494 -211 C-483.386 -176.504 -465.655 -103.484 -463 -61 L-408 -61 L-408 -69 C-418.667 -114.333 -439 -178.333 -463 -221 L-494 -221 Z " /></g></glyph>
<glyph glyph-name="uni0157" unicode="&#x157;" horiz-adv-x="437" >
<path fill="black" d="M40 41 L145 49 L145 482 L48 491 L48 532 L188 532 L193 435 L196 435 C214.667 496.333 251.667 542 313 542 C334.333 542 359 536.333 379 527 L365 471 C347.667 480.333 325.667 484 307 484 C237.667 484 198 402.667 198 284 L198 49 L309 41 L309 0 L40 0 L40 41 Z " /><g transform="translate(610,0)" ><path fill="black" d="M-494 -221 L-494 -211 C-483.386 -176.504 -465.655 -103.484 -463 -61 L-408 -61 L-408 -69 C-418.667 -114.333 -439 -178.333 -463 -221 L-494 -221 Z " /></g></glyph>
<glyph glyph-name="Rcaron" unicode="&#x158;" horiz-adv-x="437" >
<path fill="black" d="M63 0 L63 714 L180 714 C294.667 714 356 658.333 356 517 C356 405 317 346 257 322 L386 0 L326 0 L208 307 L115 307 L115 0 L63 0 Z M115 359 L183 359 C259 359 301 410.667 301 516 C301 622.667 261.333 662 176 662 L115 662 L115 359 Z " /><g transform="translate(0,182)" ><path fill="black" d="M178 606 C159.333 651.333 127.333 714.667 102 756 L102 765 L132 765 C154.667 735.667 180.333 693.333 203 656 C228.333 697.333 247.333 726.333 274 765 L305 765 L305 756 C280.605 715.342 246.207 650.217 228 606 L178 606 Z " /></g></glyph>
<glyph glyph-name="rcaron" unicode="&#x159;" horiz-adv-x="437" >
<path fill="black" d="M40 41 L145 49 L145 482 L48 491 L48 532 L188 532 L193 435 L196 435 C214.667 496.333 251.667 542 313 542 C334.333 542 359 536.333 379 527 L365 471 C347.667 480.333 325.667 484 307 484 C237.667 484 198 402.667 198 284 L198 49 L309 41 L309 0 L40 0 L40 41 Z " /><g transform="translate(15,0)" ><path fill="black" d="M178 606 C159.333 651.333 127.333 714.667 102 756 L102 765 L132 765 C154.667 735.667 180.333 693.333 203 656 C228.333 697.333 247.333 726.333 274 765 L305 765 L305 756 C280.605 715.342 246.207 650.217 228 606 L178 606 Z " /></g></glyph>
<glyph glyph-name="Sacute" unicode="&#x15a;" horiz-adv-x="437" >
<path fill="black" d="M57 76 C94.3333 56 139.667 42 181 42 C261 42 296 98.3333 296 185 C296 271.81 257.528 297.751 183 343 C115.391 383.566 60 426.818 60 541 C60 666.333 123 725 215 725 C257.667 725 299.333 713.333 340 690 L320 641 C284 663.667 248 673 216 673 C148 673 114 626.333 114 545 C114 454.597 157.28 427.825 221 388 C301.311 339.813 351 304.667 351 189 C351 58.3333 285 -10 181 -10 C138.333 -10 91.6667 2.33333 57 21 L57 76 Z " /><g transform="translate(-2,182)" ><path fill="black" d="M175 606 L175 616 C207 666.667 236 719.333 256 766 L318 766 L318 757 C293.808 713.992 244.367 644.088 209 606 L175 606 Z " /></g></glyph>
<glyph glyph-name="sacute" unicode="&#x15b;" horiz-adv-x="437" >
<path fill="black" d="M73 79 C107.667 56.3333 149.667 40 195 40 C264.333 40 288 76.3333 288 135 C288 191.517 260.374 208.924 192 251 C126.272 290.437 79 321.176 79 406 C79 492.667 129 542 221 542 C262.333 542 296.667 532.333 334 511 L315 464 C282.333 483.333 250.667 493 220 493 C164 493 133 464 133 408 C133 352.768 164.44 333.336 230 294 C294.161 253.899 341 229.462 341 136 C341 42.6667 292 -10 192 -10 C142.667 -10 102.333 4 73 24 L73 79 Z " /><g transform="translate(-3,0)" ><path fill="black" d="M175 606 L175 616 C207 666.667 236 719.333 256 766 L318 766 L318 757 C293.808 713.992 244.367 644.088 209 606 L175 606 Z " /></g></glyph>
<glyph glyph-name="Scircumflex" unicode="&#x15c;" horiz-adv-x="437" >
<path fill="black" d="M57 76 C94.3333 56 139.667 42 181 42 C261 42 296 98.3333 296 185 C296 271.81 257.528 297.751 183 343 C115.391 383.566 60 426.818 60 541 C60 666.333 123 725 215 725 C257.667 725 299.333 713.333 340 690 L320 641 C284 663.667 248 673 216 673 C148 673 114 626.333 114 545 C114 454.597 157.28 427.825 221 388 C301.311 339.813 351 304.667 351 189 C351 58.3333 285 -10 181 -10 C138.333 -10 91.6667 2.33333 57 21 L57 76 Z " /><g transform="translate(7,182)" ><path fill="black" d="M101 606 L101 615 C127.112 656.779 162.023 722.395 178 765 L228 765 C246.894 719.115 281.954 652.405 306 615 L306 606 L275 606 C252.333 636.667 227 677.667 203 715 C180.333 679 153.667 635.333 131 606 L101 606 Z " /></g></glyph>
<glyph glyph-name="scircumflex" unicode="&#x15d;" horiz-adv-x="437" >
<path fill="black" d="M73 79 C107.667 56.3333 149.667 40 195 40 C264.333 40 288 76.3333 288 135 C288 191.517 260.374 208.924 192 251 C126.272 290.437 79 321.176 79 406 C79 492.667 129 542 221 542 C262.333 542 296.667 532.333 334 511 L315 464 C282.333 483.333 250.667 493 220 493 C164 493 133 464 133 408 C133 352.768 164.44 333.336 230 294 C294.161 253.899 341 229.462 341 136 C341 42.6667 292 -10 192 -10 C142.667 -10 102.333 4 73 24 L73 79 Z " /><g transform="translate(6,0)" ><path fill="black" d="M101 606 L101 615 C127.112 656.779 162.023 722.395 178 765 L228 765 C246.894 719.115 281.954 652.405 306 615 L306 606 L275 606 C252.333 636.667 227 677.667 203 715 C180.333 679 153.667 635.333 131 606 L101 606 Z " /></g></glyph>
<glyph glyph-name="Scedilla" unicode="&#x15e;" horiz-adv-x="437" d="M134 -194 C145.333 -198 157.333 -200 170 -200 C207.333 -200 228 -178.333 228 -141 C228 -102.333 203.667 -85 161 -81 L186 -10 L181 -10 C138.333 -10 91.6667 2.33333 57 21 L57 76 C94.3333 56 139.667 42 181 42 C261 42 296 98.3333 296 185 C296 271.81 257.528 297.751 183 343 C115.391 383.566 60 426.818 60 541 C60 666.333 123 725 215 725 C257.667 725 299.333 713.333 340 690 L320 641 C284 663.667 248 673 216 673 C148 673 114 626.333 114 545 C114 454.597 157.28 427.825 221 388 C301.311 339.813 351 304.667 351 189 C351 75.6667 302.333 10 221 -6 L204 -56 C249.333 -65.3333 272 -94.3333 272 -143 C272 -204.333 236 -240 176 -240 C161.333 -240 144.667 -238 134 -234 L134 -194 Z " />
<glyph glyph-name="scedilla" unicode="&#x15f;" horiz-adv-x="437" d="M140 -194 C151.333 -198 163.333 -200 176 -200 C213.333 -200 234 -178.333 234 -141 C234 -102.333 209.667 -85 167 -81 L192 -10 C142.667 -10 102.333 4 73 24 L73 79 C107.667 56.3333 149.667 40 195 40 C264.333 40 288 76.3333 288 135 C288 191.517 260.374 208.924 192 251 C126.272 290.437 79 321.176 79 406 C79 492.667 129 542 221 542 C262.333 542 296.667 532.333 334 511 L315 464 C282.333 483.333 250.667 493 220 493 C164 493 133 464 133 408 C133 352.768 164.44 333.336 230 294 C294.161 253.899 341 229.462 341 136 C341 53.3333 303.333 4 226 -8 L210 -56 C255.333 -65.3333 278 -94.3333 278 -143 C278 -204.333 242 -240 182 -240 C167.333 -240 150.667 -238 140 -234 L140 -194 Z " />
<glyph glyph-name="Scaron" unicode="&#x160;" horiz-adv-x="437" >
<path fill="black" d="M57 76 C94.3333 56 139.667 42 181 42 C261 42 296 98.3333 296 185 C296 271.81 257.528 297.751 183 343 C115.391 383.566 60 426.818 60 541 C60 666.333 123 725 215 725 C257.667 725 299.333 713.333 340 690 L320 641 C284 663.667 248 673 216 673 C148 673 114 626.333 114 545 C114 454.597 157.28 427.825 221 388 C301.311 339.813 351 304.667 351 189 C351 58.3333 285 -10 181 -10 C138.333 -10 91.6667 2.33333 57 21 L57 76 Z " /><g transform="translate(7,182)" ><path fill="black" d="M178 606 C159.333 651.333 127.333 714.667 102 756 L102 765 L132 765 C154.667 735.667 180.333 693.333 203 656 C228.333 697.333 247.333 726.333 274 765 L305 765 L305 756 C280.605 715.342 246.207 650.217 228 606 L178 606 Z " /></g></glyph>
<glyph glyph-name="scaron" unicode="&#x161;" horiz-adv-x="437" >
<path fill="black" d="M73 79 C107.667 56.3333 149.667 40 195 40 C264.333 40 288 76.3333 288 135 C288 191.517 260.374 208.924 192 251 C126.272 290.437 79 321.176 79 406 C79 492.667 129 542 221 542 C262.333 542 296.667 532.333 334 511 L315 464 C282.333 483.333 250.667 493 220 493 C164 493 133 464 133 408 C133 352.768 164.44 333.336 230 294 C294.161 253.899 341 229.462 341 136 C341 42.6667 292 -10 192 -10 C142.667 -10 102.333 4 73 24 L73 79 Z " /><g transform="translate(6,0)" ><path fill="black" d="M178 606 C159.333 651.333 127.333 714.667 102 756 L102 765 L132 765 C154.667 735.667 180.333 693.333 203 656 C228.333 697.333 247.333 726.333 274 765 L305 765 L305 756 C280.605 715.342 246.207 650.217 228 606 L178 606 Z " /></g></glyph>
<glyph glyph-name="uni0162" unicode="&#x162;" horiz-adv-x="437" d="M134 -194 C145.333 -198 157.333 -200 170 -200 C207.333 -200 228 -178.333 228 -141 C228 -102.333 203.667 -85 161 -81 L189 0 L176 0 L176 661 L32 661 L32 714 L375 714 L375 661 L230 661 L230 0 L223 0 L204 -56 C249.333 -65.3333 272 -94.3333 272 -143 C272 -204.333 236 -240 176 -240 C161.333 -240 144.667 -238 134 -234 L134 -194 Z " />
<glyph glyph-name="uni0163" unicode="&#x163;" horiz-adv-x="437" d="M192 -194 C203.333 -198 215.333 -200 228 -200 C265.333 -200 286 -178.333 286 -141 C286 -102.333 261.667 -85 219 -81 L245 -6 C187.667 8.66667 157 60 157 160 L157 482 L50 482 L50 519 L159 534 L176 670 L211 670 L211 532 L354 532 L354 482 L210 482 L210 169 C210 83.6667 232 41 288 41 C310.667 41 333.667 45.3333 357 54 L357 4 C333 -5.33333 307 -10 279 -10 L278 -10 L262 -56 C307.333 -65.3333 330 -94.3333 330 -143 C330 -204.333 294 -240 234 -240 C219.333 -240 202.667 -238 192 -234 L192 -194 Z " />
<glyph glyph-name="Tcaron" unicode="&#x164;" horiz-adv-x="437" >
<path fill="black" d="M176 0 L176 661 L32 661 L32 714 L375 714 L375 661 L230 661 L230 0 L176 0 Z " /><g transform="translate(0,182)" ><path fill="black" d="M178 606 C159.333 651.333 127.333 714.667 102 756 L102 765 L132 765 C154.667 735.667 180.333 693.333 203 656 C228.333 697.333 247.333 726.333 274 765 L305 765 L305 756 C280.605 715.342 246.207 650.217 228 606 L178 606 Z " /></g></glyph>
<glyph glyph-name="tcaron" unicode="&#x165;" horiz-adv-x="437" >
<g transform="translate(2,0)" ><path fill="black" d="M157 482 L50 482 L50 519 L159 534 L176 670 L211 670 L211 532 L354 532 L354 482 L210 482 L210 169 C210 83.6667 232 41 288 41 C310.667 41 333.667 45.3333 357 54 L357 4 C333 -5.33333 307 -10 279 -10 C199 -10 157 42.6667 157 160 L157 482 Z " /></g><g transform="translate(356,46)" ><path fill="black" d="M-38 553 L-38 562 C-30.164 588.12 -16.7217 678.618 -14 714 L42 714 L42 707 C33.9488 664.06 11.7877 593.259 -7 553 L-38 553 Z " /></g></glyph>
<glyph glyph-name="Tbar" unicode="&#x166;" horiz-adv-x="437" d="M176 341 L69 341 L69 390 L176 390 L176 661 L32 661 L32 714 L375 714 L375 661 L230 661 L230 390 L340 390 L340 341 L230 341 L230 0 L176 0 L176 341 Z " />
<glyph glyph-name="tbar" unicode="&#x167;" horiz-adv-x="437" d="M157 281 L50 281 L50 327 L157 327 L157 482 L50 482 L50 519 L159 534 L176 670 L211 670 L211 532 L354 532 L354 482 L210 482 L210 327 L358 327 L358 281 L210 281 L210 169 C210 83.6667 232 41 288 41 C310.667 41 333.667 45.3333 357 54 L357 4 C333 -5.33333 307 -10 279 -10 C199 -10 157 42.6667 157 160 L157 281 Z " />
<glyph glyph-name="Utilde" unicode="&#x168;" horiz-adv-x="437" >
<path fill="black" d="M43 714 L98 714 L98 230 C98 96.6667 134.667 42 204 42 C272 42 310 94.6667 310 228 L310 714 L363 714 L363 224 C363 60 306.667 -10 204 -10 C97.3333 -10 43 65.6667 43 227 L43 714 Z " /><g transform="translate(0,182)" ><path fill="black" d="M84 616 C88 680 107.667 725 149 725 C191.556 725 219.444 662 254 662 C272.667 662 284 683.333 288 726 L323 726 C319 654 293 616 257 616 C214.34 616 182.895 680 152 680 C133.333 680 121.667 658.667 117 616 L84 616 Z " /></g></glyph>
<glyph glyph-name="utilde" unicode="&#x169;" horiz-adv-x="437" >
<path fill="black" d="M53 532 L106 532 L106 184 C106 80 135.333 40 194 40 C260.667 40 297 108.333 297 243 L297 532 L350 532 L350 0 L306 0 L299 91 L295 91 C276.333 32.3333 238 -10 178 -10 C96.6667 -10 53 49 53 173 L53 532 Z " /><path fill="black" d="M84 616 C88 680 107.667 725 149 725 C191.556 725 219.444 662 254 662 C272.667 662 284 683.333 288 726 L323 726 C319 654 293 616 257 616 C214.34 616 182.895 680 152 680 C133.333 680 121.667 658.667 117 616 L84 616 Z " /></glyph>
<glyph glyph-name="Umacron" unicode="&#x16a;" horiz-adv-x="437" >
<path fill="black" d="M43 714 L98 714 L98 230 C98 96.6667 134.667 42 204 42 C272 42 310 94.6667 310 228 L310 714 L363 714 L363 224 C363 60 306.667 -10 204 -10 C97.3333 -10 43 65.6667 43 227 L43 714 Z " /><g transform="translate(0,179)" ><path fill="black" d="M106 670 L299 670 L299 626 L106 626 L106 670 Z " /></g></glyph>
<glyph glyph-name="umacron" unicode="&#x16b;" horiz-adv-x="437" >
<path fill="black" d="M53 532 L106 532 L106 184 C106 80 135.333 40 194 40 C260.667 40 297 108.333 297 243 L297 532 L350 532 L350 0 L306 0 L299 91 L295 91 C276.333 32.3333 238 -10 178 -10 C96.6667 -10 53 49 53 173 L53 532 Z " /><g transform="translate(0,-3)" ><path fill="black" d="M106 670 L299 670 L299 626 L106 626 L106 670 Z " /></g></glyph>
<glyph glyph-name="Ubreve" unicode="&#x16c;" horiz-adv-x="437" >
<path fill="black" d="M43 714 L98 714 L98 230 C98 96.6667 134.667 42 204 42 C272 42 310 94.6667 310 228 L310 714 L363 714 L363 224 C363 60 306.667 -10 204 -10 C97.3333 -10 43 65.6667 43 227 L43 714 Z " /><g transform="translate(0,182)" ><path fill="black" d="M143 729 C145.667 679.667 167 652 203 652 C240.333 652 261 679.667 265 729 L300 729 C297.333 653 261.667 610 203 610 C147 610 109.667 649 107 729 L143 729 Z " /></g></glyph>
<glyph glyph-name="ubreve" unicode="&#x16d;" horiz-adv-x="437" >
<path fill="black" d="M53 532 L106 532 L106 184 C106 80 135.333 40 194 40 C260.667 40 297 108.333 297 243 L297 532 L350 532 L350 0 L306 0 L299 91 L295 91 C276.333 32.3333 238 -10 178 -10 C96.6667 -10 53 49 53 173 L53 532 Z " /><path fill="black" d="M143 729 C145.667 679.667 167 652 203 652 C240.333 652 261 679.667 265 729 L300 729 C297.333 653 261.667 610 203 610 C147 610 109.667 649 107 729 L143 729 Z " /></glyph>
<glyph glyph-name="Uring" unicode="&#x16e;" horiz-adv-x="437" >
<path fill="black" d="M43 714 L98 714 L98 230 C98 96.6667 134.667 42 204 42 C272 42 310 94.6667 310 228 L310 714 L363 714 L363 224 C363 60 306.667 -10 204 -10 C97.3333 -10 43 65.6667 43 227 L43 714 Z " /><g transform="translate(0,182)" ><path fill="black" d="M204 611 C154.667 611 121 649 121 709 C121 767.667 153.333 805 204 805 C250.667 805 286 768 286 708 C286 649.333 253.333 611 204 611 Z M204 648 C232 648 251 672 251 708 C251 744 233.667 769 203 769 C175 769 156 743.667 156 709 C156 673 174.667 648 204 648 Z " /></g></glyph>
<glyph glyph-name="uring" unicode="&#x16f;" horiz-adv-x="437" >
<path fill="black" d="M53 532 L106 532 L106 184 C106 80 135.333 40 194 40 C260.667 40 297 108.333 297 243 L297 532 L350 532 L350 0 L306 0 L299 91 L295 91 C276.333 32.3333 238 -10 178 -10 C96.6667 -10 53 49 53 173 L53 532 Z " /><path fill="black" d="M204 611 C154.667 611 121 649 121 709 C121 767.667 153.333 805 204 805 C250.667 805 286 768 286 708 C286 649.333 253.333 611 204 611 Z M204 648 C232 648 251 672 251 708 C251 744 233.667 769 203 769 C175 769 156 743.667 156 709 C156 673 174.667 648 204 648 Z " /></glyph>
<glyph glyph-name="Uhungarumlaut" unicode="&#x170;" horiz-adv-x="437" d="M43 714 L98 714 L98 230 C98 96.6667 134.667 42 204 42 C272 42 310 94.6667 310 228 L310 714 L363 714 L363 224 C363 60 306.667 -10 204 -10 C97.3333 -10 43 65.6667 43 227 L43 714 Z M117 788 L117 797 C143.45 839.32 177.61 914.234 188 948 L242 948 L242 940 C223.214 899.743 177.176 825.539 145 788 L117 788 Z M231 788 L231 797 C257.45 839.32 291.61 914.234 302 948 L356 948 L356 940 C337.214 899.743 291.176 825.539 259 788 L231 788 Z " />
<glyph glyph-name="uhungarumlaut" unicode="&#x171;" horiz-adv-x="437" d="M53 532 L106 532 L106 184 C106 80 135.333 40 194 40 C260.667 40 297 108.333 297 243 L297 532 L350 532 L350 0 L306 0 L299 91 L295 91 C276.333 32.3333 238 -10 178 -10 C96.6667 -10 53 49 53 173 L53 532 Z M117 606 L117 615 C143.45 657.32 177.61 732.234 188 766 L242 766 L242 758 C223.214 717.743 177.176 643.539 145 606 L117 606 Z M231 606 L231 615 C257.45 657.32 291.61 732.234 302 766 L356 766 L356 758 C337.214 717.743 291.176 643.539 259 606 L231 606 Z " />
<glyph glyph-name="Uogonek" unicode="&#x172;" horiz-adv-x="437" d="M263 -213 C254.333 -218.333 242 -221 226 -221 C179.333 -221 153 -190.333 153 -137 C153 -89 174 -46 210 -10 L204 -10 C97.3333 -10 43 65.6667 43 227 L43 714 L98 714 L98 230 C98 96.6667 134.667 42 204 42 C272 42 310 94.6667 310 228 L310 714 L363 714 L363 224 C363 102.667 333 33.3333 273 4 C226.333 -34.6667 197 -75.6667 197 -125 C197 -159.667 210.333 -179 237 -179 C247.667 -179 256.333 -175.667 263 -173 L263 -213 Z " />
<glyph glyph-name="uogonek" unicode="&#x173;" horiz-adv-x="437" d="M373 -213 C363.667 -218.333 351.333 -221 336 -221 C287.333 -221 263 -192.667 263 -136 C263 -85.3333 283.667 -40 321 0 L308 0 L301 91 L297 91 C278.333 32.3333 240 -10 180 -10 C98.6667 -10 55 49 55 173 L55 532 L108 532 L108 184 C108 80 137.333 40 196 40 C262.667 40 299 108.333 299 243 L299 532 L352 532 L352 4 L362 0 C324.667 -44 307 -81.3333 307 -124 C307 -160.667 320 -179 346 -179 C356.667 -179 366.333 -175.667 373 -173 L373 -213 Z " />
<glyph glyph-name="Wcircumflex" unicode="&#x174;" horiz-adv-x="437" >
<path fill="black" d="M115 56 C120.373 98.9813 126.951 181.024 135 232 L177 532 L230 532 L272 232 C280.199 174.604 291.379 99.5559 294 55 L297 55 C299.664 100.283 304.333 234.988 307 283 C317.667 428.333 330.333 568.667 341 714 L390 714 L331 0 L266 0 L220 349 C213.333 398.333 209 423.333 205 458 L203 458 C199 423.333 194.667 398.333 188 349 L142 0 L77 0 L17 714 L63 714 C73.6667 568.667 88.3333 427.333 99 282 C104.401 230.694 110.295 101.977 113 56 L115 56 Z " /><g transform="translate(0,182)" ><path fill="black" d="M101 606 L101 615 C127.112 656.779 162.023 722.395 178 765 L228 765 C246.894 719.115 281.954 652.405 306 615 L306 606 L275 606 C252.333 636.667 227 677.667 203 715 C180.333 679 153.667 635.333 131 606 L101 606 Z " /></g></glyph>
<glyph glyph-name="wcircumflex" unicode="&#x175;" horiz-adv-x="437" >
<path fill="black" d="M113 58 C118.198 91.7854 127.093 160.193 135 205 L178 428 L231 428 L273 204 C281.09 160.855 290.93 92.4909 296 57 L298 57 C300.667 95.6667 304.333 156 311 212 L348 532 L396 532 L327 0 L266 0 L226 234 C218 279.333 210.333 324 205 368 L203 368 C197.667 324 189.667 276 183 232 L141 0 L80 0 L11 532 L59 532 L97 213 C103.667 157 108.333 94 111 58 L113 58 Z " /><g transform="translate(3,0)" ><path fill="black" d="M101 606 L101 615 C127.112 656.779 162.023 722.395 178 765 L228 765 C246.894 719.115 281.954 652.405 306 615 L306 606 L275 606 C252.333 636.667 227 677.667 203 715 C180.333 679 153.667 635.333 131 606 L101 606 Z " /></g></glyph>
<glyph glyph-name="Ycircumflex" unicode="&#x176;" horiz-adv-x="437" >
<path fill="black" d="M177 0 L177 274 L22 714 L80 714 L204 330 L327 714 L385 714 L230 275 L230 0 L177 0 Z " /><g transform="translate(0,182)" ><path fill="black" d="M101 606 L101 615 C127.112 656.779 162.023 722.395 178 765 L228 765 C246.894 719.115 281.954 652.405 306 615 L306 606 L275 606 C252.333 636.667 227 677.667 203 715 C180.333 679 153.667 635.333 131 606 L101 606 Z " /></g></glyph>
<glyph glyph-name="ycircumflex" unicode="&#x177;" horiz-adv-x="437" >
<path fill="black" d="M44 -186 C54.6667 -190 69.6667 -194 83 -194 C120.333 -194 143.333 -170 162 -94 L185 1 L38 532 L94 532 L180 193 C194.667 134.333 202.333 98.6667 209 64 L211 64 C217.667 102.667 227.667 150.333 237 193 L315 532 L372 532 L215 -90 C189.667 -187.333 153 -244 89 -244 C73.6667 -244 58.6667 -241.333 44 -236 L44 -186 Z " /><path fill="black" d="M101 606 L101 615 C127.112 656.779 162.023 722.395 178 765 L228 765 C246.894 719.115 281.954 652.405 306 615 L306 606 L275 606 C252.333 636.667 227 677.667 203 715 C180.333 679 153.667 635.333 131 606 L101 606 Z " /></glyph>
<glyph glyph-name="Ydieresis" unicode="&#x178;" horiz-adv-x="437" >
<g transform="translate(0,171)" ><path fill="black" d="M131 630 C111 630 97 648.333 97 679 C97 709.667 111 727 131 727 C152.333 727 166 709.667 166 679 C166 647 152.333 630 131 630 Z M274 630 C254 630 240 648.333 240 679 C240 709.667 254 727 274 727 C295.333 727 309 709.667 309 679 C309 647 295.333 630 274 630 Z " /></g><path fill="black" d="M177 0 L177 274 L22 714 L80 714 L204 330 L327 714 L385 714 L230 275 L230 0 L177 0 Z " /></glyph>
<glyph glyph-name="Zacute" unicode="&#x179;" horiz-adv-x="437" >
<path fill="black" d="M63 47 L292 661 L75 661 L75 714 L351 714 L351 667 L123 54 L357 54 L357 0 L63 0 L63 47 Z " /><g transform="translate(1,182)" ><path fill="black" d="M175 606 L175 616 C207 666.667 236 719.333 256 766 L318 766 L318 757 C293.808 713.992 244.367 644.088 209 606 L175 606 Z " /></g></glyph>
<glyph glyph-name="zacute" unicode="&#x17a;" horiz-adv-x="437" >
<path fill="black" d="M63 42 L280 482 L76 482 L76 532 L341 532 L341 486 L125 50 L345 50 L345 0 L63 0 L63 42 Z " /><g transform="translate(-3,0)" ><path fill="black" d="M175 606 L175 616 C207 666.667 236 719.333 256 766 L318 766 L318 757 C293.808 713.992 244.367 644.088 209 606 L175 606 Z " /></g></glyph>
<glyph glyph-name="Zdotaccent" unicode="&#x17b;" horiz-adv-x="437" >
<path fill="black" d="M63 47 L292 661 L75 661 L75 714 L351 714 L351 667 L123 54 L357 54 L357 0 L63 0 L63 47 Z " /><g transform="translate(10,840)" ><path fill="black" d="M203 -12 C177 -12 164 5.33333 164 40 C164 74 177 91 203 91 C229 91 242 74 242 40 C242 5.33333 229 -12 203 -12 Z " /></g></glyph>
<glyph glyph-name="zdotaccent" unicode="&#x17c;" horiz-adv-x="437" >
<path fill="black" d="M63 42 L280 482 L76 482 L76 532 L341 532 L341 486 L125 50 L345 50 L345 0 L63 0 L63 42 Z " /><g transform="translate(6,658)" ><path fill="black" d="M203 -12 C177 -12 164 5.33333 164 40 C164 74 177 91 203 91 C229 91 242 74 242 40 C242 5.33333 229 -12 203 -12 Z " /></g></glyph>
<glyph glyph-name="Zcaron" unicode="&#x17d;" horiz-adv-x="437" >
<path fill="black" d="M63 47 L292 661 L75 661 L75 714 L351 714 L351 667 L123 54 L357 54 L357 0 L63 0 L63 47 Z " /><g transform="translate(10,182)" ><path fill="black" d="M178 606 C159.333 651.333 127.333 714.667 102 756 L102 765 L132 765 C154.667 735.667 180.333 693.333 203 656 C228.333 697.333 247.333 726.333 274 765 L305 765 L305 756 C280.605 715.342 246.207 650.217 228 606 L178 606 Z " /></g></glyph>
<glyph glyph-name="zcaron" unicode="&#x17e;" horiz-adv-x="437" >
<path fill="black" d="M63 42 L280 482 L76 482 L76 532 L341 532 L341 486 L125 50 L345 50 L345 0 L63 0 L63 42 Z " /><g transform="translate(6,0)" ><path fill="black" d="M178 606 C159.333 651.333 127.333 714.667 102 756 L102 765 L132 765 C154.667 735.667 180.333 693.333 203 656 C228.333 697.333 247.333 726.333 274 765 L305 765 L305 756 C280.605 715.342 246.207 650.217 228 606 L178 606 Z " /></g></glyph>
<glyph glyph-name="longs" unicode="&#x17f;" horiz-adv-x="437" d="M165 0 L165 579 C165 701.667 205.667 765 295 765 C320.333 765 340.667 760 362 752 L349 705 C333.667 711.667 316.667 715 298 715 C246 715 219 677.667 219 571 L219 0 L165 0 Z " />
<glyph glyph-name="florin" unicode="&#x192;" horiz-adv-x="437" d="M56 -181 C73.3333 -187 89.3333 -190 104 -190 C150.667 -190 169 -152.333 169 -75 L169 411 L78 411 L78 445 L169 461 L169 543 C169 664.333 201.333 724 280 724 C304 724 327.333 718.333 350 707 L336 661 C320 670.333 305.667 675 287 675 C240.333 675 222 637 222 541 L222 459 L314 459 L314 411 L222 411 L222 -65 C222 -175.667 195 -240 111 -240 C91.6667 -240 73.3333 -237.333 56 -232 L56 -181 Z " />
<glyph glyph-name="uni0218" unicode="&#x218;" horiz-adv-x="437" >
<path fill="black" d="M57 76 C94.3333 56 139.667 42 181 42 C261 42 296 98.3333 296 185 C296 271.81 257.528 297.751 183 343 C115.391 383.566 60 426.818 60 541 C60 666.333 123 725 215 725 C257.667 725 299.333 713.333 340 690 L320 641 C284 663.667 248 673 216 673 C148 673 114 626.333 114 545 C114 454.597 157.28 427.825 221 388 C301.311 339.813 351 304.667 351 189 C351 58.3333 285 -10 181 -10 C138.333 -10 91.6667 2.33333 57 21 L57 76 Z " /><g transform="translate(640,0)" ><path fill="black" d="M-494 -221 L-494 -211 C-483.386 -176.504 -465.655 -103.484 -463 -61 L-408 -61 L-408 -69 C-418.667 -114.333 -439 -178.333 -463 -221 L-494 -221 Z " /></g></glyph>
<glyph glyph-name="uni0219" unicode="&#x219;" horiz-adv-x="437" >
<path fill="black" d="M73 79 C107.667 56.3333 149.667 40 195 40 C264.333 40 288 76.3333 288 135 C288 191.517 260.374 208.924 192 251 C126.272 290.437 79 321.176 79 406 C79 492.667 129 542 221 542 C262.333 542 296.667 532.333 334 511 L315 464 C282.333 483.333 250.667 493 220 493 C164 493 133 464 133 408 C133 352.768 164.44 333.336 230 294 C294.161 253.899 341 229.462 341 136 C341 42.6667 292 -10 192 -10 C142.667 -10 102.333 4 73 24 L73 79 Z " /><g transform="translate(646,0)" ><path fill="black" d="M-494 -221 L-494 -211 C-483.386 -176.504 -465.655 -103.484 -463 -61 L-408 -61 L-408 -69 C-418.667 -114.333 -439 -178.333 -463 -221 L-494 -221 Z " /></g></glyph>
<glyph glyph-name="uni021A" unicode="&#x21a;" horiz-adv-x="437" >
<path fill="black" d="M176 0 L176 661 L32 661 L32 714 L375 714 L375 661 L230 661 L230 0 L176 0 Z " /><g transform="translate(640,0)" ><path fill="black" d="M-494 -221 L-494 -211 C-483.386 -176.504 -465.655 -103.484 -463 -61 L-408 -61 L-408 -69 C-418.667 -114.333 -439 -178.333 -463 -221 L-494 -221 Z " /></g></glyph>
<glyph glyph-name="uni021B" unicode="&#x21b;" horiz-adv-x="437" >
<path fill="black" d="M157 482 L50 482 L50 519 L159 534 L176 670 L211 670 L211 532 L354 532 L354 482 L210 482 L210 169 C210 83.6667 232 41 288 41 C310.667 41 333.667 45.3333 357 54 L357 4 C333 -5.33333 307 -10 279 -10 C199 -10 157 42.6667 157 160 L157 482 Z " /><g transform="translate(698,0)" ><path fill="black" d="M-494 -221 L-494 -211 C-483.386 -176.504 -465.655 -103.484 -463 -61 L-408 -61 L-408 -69 C-418.667 -114.333 -439 -178.333 -463 -221 L-494 -221 Z " /></g></glyph>
<glyph glyph-name="uni0237" unicode="&#x237;" horiz-adv-x="407" d="M39 -175 C61.6667 -185.667 102.333 -195 129 -195 C185 -195 213 -151.333 213 -74 L213 482 L77 491 L77 532 L266 532 L266 -74 C266 -191.333 218.333 -246 133 -246 C98.3333 -246 60.3333 -236 39 -228 L39 -175 Z " />
<glyph glyph-name="circumflex" unicode="&#x2c6;" horiz-adv-x="437" d="M101 606 L101 615 C127.112 656.779 162.023 722.395 178 765 L228 765 C246.894 719.115 281.954 652.405 306 615 L306 606 L275 606 C252.333 636.667 227 677.667 203 715 C180.333 679 153.667 635.333 131 606 L101 606 Z " />
<glyph glyph-name="caron" unicode="&#x2c7;" horiz-adv-x="437" d="M178 606 C159.333 651.333 127.333 714.667 102 756 L102 765 L132 765 C154.667 735.667 180.333 693.333 203 656 C228.333 697.333 247.333 726.333 274 765 L305 765 L305 756 C280.605 715.342 246.207 650.217 228 606 L178 606 Z " />
<glyph glyph-name="uni02C9" unicode="&#x2c9;" horiz-adv-x="437" >
<g transform="translate(0,-3)" ><path fill="black" d="M106 670 L299 670 L299 626 L106 626 L106 670 Z " /></g></glyph>
<glyph glyph-name="breve" unicode="&#x2d8;" horiz-adv-x="437" d="M143 729 C145.667 679.667 167 652 203 652 C240.333 652 261 679.667 265 729 L300 729 C297.333 653 261.667 610 203 610 C147 610 109.667 649 107 729 L143 729 Z " />
<glyph glyph-name="dotaccent" unicode="&#x2d9;" horiz-adv-x="437" >
<g transform="translate(0,658)" ><path fill="black" d="M203 -12 C177 -12 164 5.33333 164 40 C164 74 177 91 203 91 C229 91 242 74 242 40 C242 5.33333 229 -12 203 -12 Z " /></g></glyph>
<glyph glyph-name="ring" unicode="&#x2da;" horiz-adv-x="437" d="M204 611 C154.667 611 121 649 121 709 C121 767.667 153.333 805 204 805 C250.667 805 286 768 286 708 C286 649.333 253.333 611 204 611 Z M204 648 C232 648 251 672 251 708 C251 744 233.667 769 203 769 C175 769 156 743.667 156 709 C156 673 174.667 648 204 648 Z " />
<glyph glyph-name="ogonek" unicode="&#x2db;" horiz-adv-x="437" d="M258 -213 C248.667 -218.333 236.333 -221 221 -221 C172.333 -221 148 -192.667 148 -136 C148 -80 173 -31.6667 217 11 L247 0 C209.667 -44 192 -81.3333 192 -124 C192 -160.667 205 -179 231 -179 C241.667 -179 251.333 -175.667 258 -173 L258 -213 Z " />
<glyph glyph-name="tilde" unicode="&#x2dc;" horiz-adv-x="437" d="M84 616 C88 680 107.667 725 149 725 C191.556 725 219.444 662 254 662 C272.667 662 284 683.333 288 726 L323 726 C319 654 293 616 257 616 C214.34 616 182.895 680 152 680 C133.333 680 121.667 658.667 117 616 L84 616 Z " />
<glyph glyph-name="hungarumlaut" unicode="&#x2dd;" horiz-adv-x="437" d="M120 606 L120 615 C146.45 657.32 180.61 732.234 191 766 L245 766 L245 758 C226.214 717.743 180.176 643.539 148 606 L120 606 Z M234 606 L234 615 C260.45 657.32 294.61 732.234 305 766 L359 766 L359 758 C340.214 717.743 294.176 643.539 262 606 L234 606 Z " />
<glyph glyph-name="uni0394" unicode="&#x394;" horiz-adv-x="437" d="M18 42 L171 714 L235 714 L389 39 L389 0 L18 0 L18 42 Z M329 52 L230 511 C219.333 557.667 208.667 617.333 202 656 C195.333 613.333 185.667 556 175 512 L77 52 L329 52 Z " />
<glyph glyph-name="uni03A9" unicode="&#x3a9;" horiz-adv-x="437" d="M21 52 L119 52 C65.6667 116 29 220 29 392 C29 618.667 93 724 205 724 C315.667 724 378 621.667 378 391 C378 217.667 342.667 113.333 288 52 L387 52 L387 0 L232 0 L232 45 C297.333 114.333 323 222.667 323 388 C323 584 282.333 674 205 674 C127.667 674 84 584.667 84 390 C84 220.667 116.667 113 174 45 L174 0 L21 0 L21 52 Z " />
<glyph glyph-name="uni03BC" unicode="&#x3bc;" horiz-adv-x="437" >
<path fill="black" d="M53 227 L55 227 L55 532 L108 532 L108 184 C108 80 137.333 40 196 40 C262.667 40 299 108.333 299 243 L299 532 L352 532 L352 0 L308 0 L301 91 L297 91 C278.333 32.3333 240 -10 180 -10 C150 -10 125.333 -2 106 14 L106 -240 L53 -240 L53 227 Z " /></glyph>
<glyph glyph-name="pi" unicode="&#x3c0;" horiz-adv-x="437" d="M86 484 L15 484 L15 511 L61 532 L386 532 L386 484 L317 484 L317 117 C317 63.6667 327.333 43 354 43 C364.667 43 374 45 382 49 L382 1 C372.667 -4.33333 358 -7 338 -7 C289.333 -7 265 30.6667 265 106 L265 484 L137 484 L137 0 L86 0 L86 484 Z " />
<glyph glyph-name="Wgrave" unicode="&#x1e80;" horiz-adv-x="437" >
<path fill="black" d="M115 56 C120.373 98.9813 126.951 181.024 135 232 L177 532 L230 532 L272 232 C280.199 174.604 291.379 99.5559 294 55 L297 55 C299.664 100.283 304.333 234.988 307 283 C317.667 428.333 330.333 568.667 341 714 L390 714 L331 0 L266 0 L220 349 C213.333 398.333 209 423.333 205 458 L203 458 C199 423.333 194.667 398.333 188 349 L142 0 L77 0 L17 714 L63 714 C73.6667 568.667 88.3333 427.333 99 282 C104.401 230.694 110.295 101.977 113 56 L115 56 Z " /><g transform="translate(-8,182)" ><path fill="black" d="M211 606 C178.4 644.033 126.138 711.406 102 757 L102 766 L164 766 C184 718 219.333 656 246 616 L246 606 L211 606 Z " /></g></glyph>
<glyph glyph-name="wgrave" unicode="&#x1e81;" horiz-adv-x="437" >
<path fill="black" d="M113 58 C118.198 91.7854 127.093 160.193 135 205 L178 428 L231 428 L273 204 C281.09 160.855 290.93 92.4909 296 57 L298 57 C300.667 95.6667 304.333 156 311 212 L348 532 L396 532 L327 0 L266 0 L226 234 C218 279.333 210.333 324 205 368 L203 368 C197.667 324 189.667 276 183 232 L141 0 L80 0 L11 532 L59 532 L97 213 C103.667 157 108.333 94 111 58 L113 58 Z " /><g transform="translate(-5,0)" ><path fill="black" d="M211 606 C178.4 644.033 126.138 711.406 102 757 L102 766 L164 766 C184 718 219.333 656 246 616 L246 606 L211 606 Z " /></g></glyph>
<glyph glyph-name="Wacute" unicode="&#x1e82;" horiz-adv-x="437" >
<path fill="black" d="M115 56 C120.373 98.9813 126.951 181.024 135 232 L177 532 L230 532 L272 232 C280.199 174.604 291.379 99.5559 294 55 L297 55 C299.664 100.283 304.333 234.988 307 283 C317.667 428.333 330.333 568.667 341 714 L390 714 L331 0 L266 0 L220 349 C213.333 398.333 209 423.333 205 458 L203 458 C199 423.333 194.667 398.333 188 349 L142 0 L77 0 L17 714 L63 714 C73.6667 568.667 88.3333 427.333 99 282 C104.401 230.694 110.295 101.977 113 56 L115 56 Z " /><g transform="translate(-9,182)" ><path fill="black" d="M175 606 L175 616 C207 666.667 236 719.333 256 766 L318 766 L318 757 C293.808 713.992 244.367 644.088 209 606 L175 606 Z " /></g></glyph>
<glyph glyph-name="wacute" unicode="&#x1e83;" horiz-adv-x="437" >
<path fill="black" d="M113 58 C118.198 91.7854 127.093 160.193 135 205 L178 428 L231 428 L273 204 C281.09 160.855 290.93 92.4909 296 57 L298 57 C300.667 95.6667 304.333 156 311 212 L348 532 L396 532 L327 0 L266 0 L226 234 C218 279.333 210.333 324 205 368 L203 368 C197.667 324 189.667 276 183 232 L141 0 L80 0 L11 532 L59 532 L97 213 C103.667 157 108.333 94 111 58 L113 58 Z " /><g transform="translate(-6,0)" ><path fill="black" d="M175 606 L175 616 C207 666.667 236 719.333 256 766 L318 766 L318 757 C293.808 713.992 244.367 644.088 209 606 L175 606 Z " /></g></glyph>
<glyph glyph-name="Wdieresis" unicode="&#x1e84;" horiz-adv-x="437" >
<g transform="translate(0,171)" ><path fill="black" d="M131 630 C111 630 97 648.333 97 679 C97 709.667 111 727 131 727 C152.333 727 166 709.667 166 679 C166 647 152.333 630 131 630 Z M274 630 C254 630 240 648.333 240 679 C240 709.667 254 727 274 727 C295.333 727 309 709.667 309 679 C309 647 295.333 630 274 630 Z " /></g><path fill="black" d="M115 56 C120.373 98.9813 126.951 181.024 135 232 L177 532 L230 532 L272 232 C280.199 174.604 291.379 99.5559 294 55 L297 55 C299.664 100.283 304.333 234.988 307 283 C317.667 428.333 330.333 568.667 341 714 L390 714 L331 0 L266 0 L220 349 C213.333 398.333 209 423.333 205 458 L203 458 C199 423.333 194.667 398.333 188 349 L142 0 L77 0 L17 714 L63 714 C73.6667 568.667 88.3333 427.333 99 282 C104.401 230.694 110.295 101.977 113 56 L115 56 Z " /></glyph>
<glyph glyph-name="wdieresis" unicode="&#x1e85;" horiz-adv-x="437" >
<g transform="translate(3,-11)" ><path fill="black" d="M131 630 C111 630 97 648.333 97 679 C97 709.667 111 727 131 727 C152.333 727 166 709.667 166 679 C166 647 152.333 630 131 630 Z M274 630 C254 630 240 648.333 240 679 C240 709.667 254 727 274 727 C295.333 727 309 709.667 309 679 C309 647 295.333 630 274 630 Z " /></g><path fill="black" d="M113 58 C118.198 91.7854 127.093 160.193 135 205 L178 428 L231 428 L273 204 C281.09 160.855 290.93 92.4909 296 57 L298 57 C300.667 95.6667 304.333 156 311 212 L348 532 L396 532 L327 0 L266 0 L226 234 C218 279.333 210.333 324 205 368 L203 368 C197.667 324 189.667 276 183 232 L141 0 L80 0 L11 532 L59 532 L97 213 C103.667 157 108.333 94 111 58 L113 58 Z " /></glyph>
<glyph glyph-name="uni2010" unicode="&#x2010;" horiz-adv-x="407" >
<g transform="translate(2,0)" ><path fill="black" d="M102 301 L304 301 L304 247 L102 247 L102 301 Z " /></g></glyph>
<glyph glyph-name="endash" unicode="&#x2013;" horiz-adv-x="437" d="M63 301 L345 301 L345 247 L63 247 L63 301 Z " />
<glyph glyph-name="emdash" unicode="&#x2014;" horiz-adv-x="437" >
<g transform="translate(0,384)" ><path fill="black" d="M2 -83 L404 -83 L404 -137 L2 -137 L2 -83 Z " /></g></glyph>
<glyph glyph-name="quoteleft" unicode="&#x2018;" horiz-adv-x="437" >
<path fill="black" d="M159 474 L154 485 C168.667 565 186.333 642 213 714 L253 714 C234.333 634 219.667 546 213 474 L159 474 Z " /></glyph>
<glyph glyph-name="quoteright" unicode="&#x2019;" horiz-adv-x="437" >
<g transform="translate(3,0)" ><path fill="black" d="M154 474 C172.667 554 187.333 643.333 194 714 L248 714 L253 703 C238.333 624.333 220.667 548.667 194 474 L154 474 Z " /></g></glyph>
<glyph glyph-name="quotesinglbase" unicode="&#x201a;" horiz-adv-x="437" >
<g transform="translate(2,0)" ><path fill="black" d="M144 -130 C162.667 -42 177 41.6667 185 115 L241 115 L246 104 C231.333 28 210 -58 186 -130 L144 -130 Z " /></g></glyph>
<glyph glyph-name="quotedblleft" unicode="&#x201c;" horiz-adv-x="437" >
<g transform="translate(-62,0)" ><path fill="black" d="M159 474 L154 485 C168.667 565 186.333 642 213 714 L253 714 C234.333 634 219.667 546 213 474 L159 474 Z " /></g><g transform="translate(77,0)" ><path fill="black" d="M159 474 L154 485 C168.667 565 186.333 642 213 714 L253 714 C234.333 634 219.667 546 213 474 L159 474 Z " /></g></glyph>
<glyph glyph-name="quotedblright" unicode="&#x201d;" horiz-adv-x="437" >
<g transform="translate(-79,1)" ><path fill="black" d="M154 474 C172.667 554 187.333 643.333 194 714 L248 714 L253 703 C238.333 624.333 220.667 548.667 194 474 L154 474 Z " /></g><g transform="translate(60,1)" ><path fill="black" d="M154 474 C172.667 554 187.333 643.333 194 714 L248 714 L253 703 C238.333 624.333 220.667 548.667 194 474 L154 474 Z " /></g></glyph>
<glyph glyph-name="quotedblbase" unicode="&#x201e;" horiz-adv-x="437" >
<g transform="translate(-64,0)" ><path fill="black" d="M144 -130 C162.667 -42 177 41.6667 185 115 L241 115 L246 104 C231.333 28 210 -58 186 -130 L144 -130 Z " /></g><g transform="translate(76,0)" ><path fill="black" d="M144 -130 C162.667 -42 177 41.6667 185 115 L241 115 L246 104 C231.333 28 210 -58 186 -130 L144 -130 Z " /></g></glyph>
<glyph glyph-name="dagger" unicode="&#x2020;" horiz-adv-x="437" d="M174 0 L185 516 L66 510 L66 561 L185 553 L174 760 L232 760 L220 553 L340 561 L340 510 L220 516 L232 0 L174 0 Z " />
<glyph glyph-name="daggerdbl" unicode="&#x2021;" horiz-adv-x="437" d="M173 0 L183 190 L66 182 L66 233 L183 227 L177 384 L183 533 L66 527 L66 578 L183 570 L173 760 L230 760 L219 570 L340 578 L340 527 L219 533 L226 384 L219 227 L340 233 L340 182 L219 190 L230 0 L173 0 Z " />
<glyph glyph-name="bullet" unicode="&#x2022;" horiz-adv-x="437" d="M203 252 C148.333 252 118 293 118 365 C118 438.333 147 478 203 478 C259 478 289 438.333 289 365 C289 293 259 252 203 252 Z " />
<glyph glyph-name="ellipsis" unicode="&#x2026;" horiz-adv-x="437" >
<path fill="black" d="M204 -12 C177.333 -12 164 8 164 40 C164 73.3333 177.333 93 204 93 C230.667 93 244 73.3333 244 40 C244 8 230.667 -12 204 -12 Z " /></glyph>
<glyph glyph-name="perthousand" unicode="&#x2030;" horiz-adv-x="437" d="M112 -168 C40 -168 3 -89.6667 3 57 C3 205 39 279 111 279 C157 279 188.667 249.333 206 190 C223.333 249.333 254.667 279 300 279 C372 279 411 205 411 57 C411 -93 374.333 -168 301 -168 C255.667 -168 224.333 -137.667 207 -77 C190.333 -137.667 158.667 -168 112 -168 Z M204 456 C132 456 95 534.333 95 681 C95 829 131 903 203 903 C275 903 314 829 314 681 C314 531 277.333 456 204 456 Z M112 -125 C154.667 -125 179 -68.3333 179 57 C179 182.333 153.667 236 111 236 C68.3333 236 46 181 46 57 C46 -68.3333 69.3333 -125 112 -125 Z M301 -125 C343.667 -125 368 -68.3333 368 57 C368 182.333 342.667 236 300 236 C257.333 236 235 181 235 57 C235 -68.3333 258.333 -125 301 -125 Z M204 499 C246.667 499 271 555.667 271 681 C271 806.333 245.667 860 203 860 C160.333 860 138 805 138 681 C138 555.667 161.333 499 204 499 Z M36 357 L366 405 L366 373 L36 324 L36 357 Z " />
<glyph glyph-name="guilsinglleft" unicode="&#x2039;" horiz-adv-x="437" d="M245 72 L127 259 L127 272 L245 460 L281 440 L189 266 L281 93 L245 72 Z " />
<glyph glyph-name="guilsinglright" unicode="&#x203a;" horiz-adv-x="437" d="M218 294 L126 467 L162 488 L280 301 L280 288 L162 100 L126 120 L218 294 Z " />
<glyph glyph-name="fraction" unicode="&#x2044;" horiz-adv-x="437" d="M35 357 L365 405 L365 373 L35 324 L35 357 Z " />
<glyph glyph-name="franc" unicode="&#x20a3;" horiz-adv-x="437" d="M95 142 L36 142 L36 188 L95 188 L95 714 L346 714 L346 659 L150 659 L150 380 L331 380 L331 325 L150 325 L150 188 L262 188 L262 142 L150 142 L150 0 L95 0 L95 142 Z " />
<glyph glyph-name="lira" unicode="&#x20a4;" horiz-adv-x="437" d="M364 52 L364 0 L58 0 L58 48 C110.315 71.5419 124 122.355 124 243 L59 243 L59 287 L124 287 L124 391 L59 391 L59 435 L124 435 L124 534 C124 658 166.333 724 257 724 C295.667 724 327.667 710 357 686 L337 641 C310.333 663.667 285.667 672 259 672 C201.667 672 177 629.333 177 532 L177 435 L295 435 L295 391 L177 391 L177 287 L295 287 L295 243 L177 243 C174.325 127.967 162.084 81.9228 124 52 L364 52 Z " />
<glyph glyph-name="peseta" unicode="&#x20a7;" horiz-adv-x="437" d="M28 714 L119 714 C236.333 714 288 651 288 519 C288 490.333 285.667 465.667 281 445 L317 445 L317 323 L405 323 L405 280 L317 280 L317 120 C317 64 329 37 365 37 C377 37 394.333 41 405 45 L405 2 C393 -3.33333 374.667 -8 356 -8 C298 -8 269 31.6667 269 111 L269 280 L213 280 L213 308 L270 328 L281 444 C262.333 361.333 211.333 311 110 311 L84 311 L84 0 L28 0 L28 714 Z M105 364 C193 364 233 410.667 233 516 C233 620 196.333 661 115 661 L84 661 L84 364 L105 364 Z " />
<glyph glyph-name="Euro" unicode="&#x20ac;" horiz-adv-x="437" d="M37 300 L94 300 C92.6667 316 92 333.333 92 352 C92 369.333 93 385.333 93 400 L37 400 L37 443 L96 443 C106.678 597.831 159.013 725 262 725 C299.333 725 333 713 363 689 L343 640 C316.333 661.333 290 672 264 672 C194.667 672 159.667 581.667 149 443 L289 443 L289 400 L147 400 L147 354 L147 300 L277 300 L277 258 L150 258 C160.667 120.667 195.333 44 270 44 C300.667 44 325.667 53.6667 355 71 L355 15 C327 -1.66667 297 -10 265 -10 C163.667 -10 110.667 87.3333 96 258 L37 258 L37 300 Z " />
<glyph glyph-name="uni2113" unicode="&#x2113;" horiz-adv-x="437" d="M127 286 C112.333 279.333 93.3333 269.333 68 260 L68 306 C88 314 108.333 323.333 127 334 L127 569 C127 674.333 161 723 221 723 C281 723 314 671 314 575 C314 455 268.333 362 179 306 L179 163 C179 79.6667 197.333 38 234 38 C275.333 38 292.667 80 294 152 L338 152 C336.667 48 302.333 -9 229 -9 C159.667 -9 127 49 127 157 L127 286 Z M178 354 C238 400.667 266 478 266 574 C266 644.667 247.667 678 221 678 C194.333 678 178 649.333 178 572 L178 354 Z " />
<glyph glyph-name="trademark" unicode="&#x2122;" horiz-adv-x="437" d="M184 367 L184 714 L235 714 L289 531 L344 714 L394 714 L394 367 L359 367 L359 560 C359 590.667 359.667 626.667 361 660 L358 660 L304 482 L273 482 L220 662 L217 662 C218.333 630 219 594.333 219 565 L219 367 L184 367 Z M60 367 L60 675 L-8 675 L-8 714 L165 714 L165 675 L97 675 L97 367 L60 367 Z " />
<glyph glyph-name="Omega" unicode="&#x2126;" horiz-adv-x="437" >
<g transform="translate(2,0)" ><path fill="black" d="M21 52 L119 52 C65.6667 116 29 220 29 392 C29 618.667 93 724 205 724 C315.667 724 378 621.667 378 391 C378 217.667 342.667 113.333 288 52 L387 52 L387 0 L232 0 L232 45 C297.333 114.333 323 222.667 323 388 C323 584 282.333 674 205 674 C127.667 674 84 584.667 84 390 C84 220.667 116.667 113 174 45 L174 0 L21 0 L21 52 Z " /></g></glyph>
<glyph glyph-name="estimated" unicode="&#x212e;" horiz-adv-x="437" d="M94 83 C116.667 52.3333 152.667 25 206 25 C280.667 25 324.667 74 358 142 L387 119 C349.176 43.3516 299.74 -17 207 -17 C72.0996 -17 2 110.896 2 263 C2 450.636 108.463 535 207 535 C315.234 535 404 429.563 404 259 L94 259 L94 83 Z M94 301 L314 301 L314 436 C295.333 462.667 253.667 494 207 494 C155 494 120.667 469 94 437 L94 301 Z " />
<glyph glyph-name="uni2219" unicode="&#x2219;" horiz-adv-x="407" >
<g transform="translate(4,282)" ><path fill="black" d="M203 -12 C177 -12 164 5.33333 164 40 C164 74 177 91 203 91 C229 91 242 74 242 40 C242 5.33333 229 -12 203 -12 Z " /></g></glyph>
<glyph glyph-name="radical" unicode="&#x221a;" horiz-adv-x="437" d="M357 815 L406 815 L218 -7 L169 -7 L84 383 L14 383 L14 431 L118 431 L194 70 L357 815 Z " />
<glyph glyph-name="infinity" unicode="&#x221e;" horiz-adv-x="437" d="M108 201 C49.3333 201 8 262 8 354 C8 444.667 45 506 105 506 C151.667 506 180 460.667 204 402 C224.977 454.442 251.762 505 302 505 C359.333 505 399 445.333 399 356 C399 261.333 356.333 200 299 200 C252.333 200 225.667 245 203 301 C179 239.667 154.667 201 108 201 Z M111 247 C148.333 247 164.667 289.667 186 351 C163.333 415 145.333 460 108 460 C74.6667 460 52 419.333 52 354 C52 290 73.6667 247 111 247 Z M296 246 C332 246 355 290.333 355 353 C355 415.667 330.667 460 296 460 C262.667 460 247 417.333 223 352 C244.333 292 260 246 296 246 Z " />
<glyph glyph-name="approxequal" unicode="&#x2248;" horiz-adv-x="437" >
<g transform="translate(0,-101)" ><path fill="black" d="M358 347 C339.333 319 310 300 278 300 C246 300 224.667 311.333 198 330 C172.667 347.333 151 358 127 358 C99.6667 358 73.3333 338.333 48 299 L48 355 C69.3333 387 95.6667 407 129 407 C161 407 183 394.667 211 376 C237.667 358.667 257 348 281 348 C306.333 348 335.333 368.333 358 403 L358 347 Z " /></g><g transform="translate(0,102)" ><path fill="black" d="M358 347 C339.333 319 310 300 278 300 C246 300 224.667 311.333 198 330 C172.667 347.333 151 358 127 358 C99.6667 358 73.3333 338.333 48 299 L48 355 C69.3333 387 95.6667 407 129 407 C161 407 183 394.667 211 376 C237.667 358.667 257 348 281 348 C306.333 348 335.333 368.333 358 403 L358 347 Z " /></g></glyph>
<glyph glyph-name="lessequal" unicode="&#x2264;" horiz-adv-x="437" d="M47 349 L47 384 L356 582 L356 528 L106 366 L356 198 L356 144 L47 349 Z M48 0 L48 48 L355 48 L355 0 L48 0 Z " />
<glyph glyph-name="greaterequal" unicode="&#x2265;" horiz-adv-x="437" d="M48 198 L298 366 L48 528 L48 582 L357 384 L357 349 L48 144 L48 198 Z M49 48 L356 48 L356 0 L49 0 L49 48 Z " />
</font>
</svg>
