<?xml version="1.0" encoding="UTF-8"?>
<svg xmlns="http://www.w3.org/2000/svg" xmlns:xlink="http://www.w3.org/1999/xlink" version="1.1" >
<font id="Monoto-44Cd400Rg" horiz-adv-x="436">
<font-face  font-family="Monoto 44 Cd" units-per-em="1000" ascent="955" descent="-235" font-style="normal" font-weight="400" font-stretch="condensed" cap-height="714" x-height="536" underline-position="-75" underline-thickness="50" />
<missing-glyph horiz-adv-x="440" d="M39 0 L39 714 L372 714 L372 0 L39 0 Z M331 51 L331 663 L80 663 L80 51 L331 51 Z " />
<glyph glyph-name="uni0000" horiz-adv-x="440" />
<glyph glyph-name="uni000D" unicode="&#xd;" horiz-adv-x="440" />
<glyph glyph-name="space" unicode="&#x20;" horiz-adv-x="440" />
<glyph glyph-name="exclam" unicode="&#x21;" horiz-adv-x="440" d="M180 199 L164 714 L254 714 L240 199 L180 199 Z M209 -12 C178.333 -12 160 9 160 53 C160 95.6667 178.333 115 209 115 C238.333 115 259 97 259 53 C259 9 237 -12 209 -12 Z " />
<glyph glyph-name="quotedbl" unicode="&#x22;" horiz-adv-x="440" >
<g transform="translate(-71,0)" ><path fill="black" d="M177 456 L163 714 L246 714 L232 456 L177 456 Z " /></g><g transform="translate(72,0)" ><path fill="black" d="M177 456 L163 714 L246 714 L232 456 L177 456 Z " /></g></glyph>
<glyph glyph-name="numbersign" unicode="&#x23;" horiz-adv-x="440" d="M76 0 L98 218 L30 218 L30 280 L104 280 L120 451 L49 451 L49 512 L128 512 L147 714 L202 714 L181 512 L259 512 L279 714 L332 714 L312 512 L379 512 L379 451 L306 451 L290 280 L361 280 L361 218 L283 218 L261 0 L206 0 L228 218 L151 218 L130 0 L76 0 Z M235 280 L252 451 L174 451 L159 280 L235 280 Z " />
<glyph glyph-name="dollar" unicode="&#x24;" horiz-adv-x="440" d="M68 143 C98.6667 120.333 143.333 103.667 190 101 L190 337 C96.6667 381 59 428.667 59 522 C59 615.333 111.333 676.667 190 686 L190 760 L231 760 L231 688 C273.667 684.667 311.333 673 344 653 L325 591 C295.667 609.667 265.667 618.333 231 621 L231 390 C319 346 362 300.667 362 210 C362 119.333 315 54.6667 231 40 L231 -58 L190 -58 L190 36 C140.667 37.3333 98.6667 50.3333 68 69 L68 143 Z M231 105 C277.667 115.667 301 154.333 301 205 C301 261 280.333 290.333 231 317 L231 105 Z M121 524 C121 464 139.333 440.333 190 411 L190 620 C146 613.333 121 576 121 524 Z " />
<glyph glyph-name="percent" unicode="&#x25;" horiz-adv-x="440" d="M13 168 L329 545 L395 545 L80 168 L13 168 Z M295 -9 C229.667 -9 184 53 184 161 C184 269 225 330 297 330 C361 330 408 269 408 161 C408 53 364.333 -9 295 -9 Z M113 383 C47.6667 383 2 445 2 553 C2 661 43 722 115 722 C179 722 226 661 226 553 C226 445 182.333 383 113 383 Z M296 42 C330.667 42 348 81.6667 348 161 C348 239 330.667 278 296 278 C260.667 278 243 239 243 161 C243 81.6667 260.667 42 296 42 Z M114 434 C148.667 434 166 473.667 166 553 C166 631 148.667 670 114 670 C78.6667 670 61 631 61 553 C61 473.667 78.6667 434 114 434 Z " />
<glyph glyph-name="ampersand" unicode="&#x26;" horiz-adv-x="440" d="M324 0 L294 61 C260.667 18.3333 219.667 -10 165 -10 C73.3377 -10 34 70 34 166 C34 262 76.6667 327 130 387 C99.3333 451 77 514.667 77 580 C77 666.667 116 724 180 724 C245.333 724 281 667.333 281 578 C281 494 248.333 428 207 376 L293 208 C306.333 252 313.667 299.333 315 338 L380 338 C376 270 361 194 333 130 L400 0 L324 0 Z M162 323 C128.667 281.667 102 233 102 165 C102 95.6667 128.333 57 171 57 C208.333 57 237.333 85.6667 260 127 L162 323 Z M175 439 C197.667 469.667 220 515.667 220 581 C220 634.333 207 661 181 661 C153.667 661 140 634.667 140 582 C140 530 156.333 477.667 175 439 Z " />
<glyph glyph-name="quotesingle" unicode="&#x27;" horiz-adv-x="440" d="M177 456 L163 714 L246 714 L232 456 L177 456 Z " />
<glyph glyph-name="parenleft" unicode="&#x28;" horiz-adv-x="440" d="M244 -163 C168 -49.6667 130 103 130 271 C130 441.667 170.667 598 244 714 L307 714 C237.667 583.333 202 432 202 272 C202 114.667 239 -39 307 -163 L244 -163 Z " />
<glyph glyph-name="parenright" unicode="&#x29;" horiz-adv-x="440" d="M87 -163 C156.333 -32.3333 192 119 192 279 C192 436.333 155 590 87 714 L150 714 C226 600.667 264 448 264 280 C264 109.333 223.333 -47 150 -163 L87 -163 Z " />
<glyph glyph-name="asterisk" unicode="&#x2a;" horiz-adv-x="440" d="M164 580 L69 591 L83 665 L181 629 L168 761 L242 761 L229 629 L328 666 L341 592 L243 580 L314 467 L253 428 L205 552 L155 428 L97 467 L164 580 Z " />
<glyph glyph-name="plus" unicode="&#x2b;" horiz-adv-x="440" d="M175 119 L175 321 L53 321 L53 385 L175 385 L175 588 L236 588 L236 385 L357 385 L357 321 L236 321 L236 119 L175 119 Z " />
<glyph glyph-name="comma" unicode="&#x2c;" horiz-adv-x="440" d="M130 -131 C146 -49.6667 161.333 43 168 115 L246 115 L252 104 C237.333 26.6667 213.667 -59 187 -131 L130 -131 Z " />
<glyph glyph-name="hyphen" unicode="&#x2d;" horiz-adv-x="440" d="M103 308 L307 308 L307 234 L103 234 L103 308 Z " />
<glyph glyph-name="period" unicode="&#x2e;" horiz-adv-x="440" d="M204 -12 C173.333 -12 155 9 155 53 C155 95.6667 173.333 115 204 115 C233.333 115 254 97 254 53 C254 9 232 -12 204 -12 Z " />
<glyph glyph-name="slash" unicode="&#x2f;" horiz-adv-x="440" d="M19 -3 L234 717 L301 717 L87 -3 L19 -3 Z " />
<glyph glyph-name="zero" unicode="0" horiz-adv-x="440" d="M204 -10 C76.8918 -10 27 127.074 27 358 C27 588.433 74.329 725 204 725 C330.848 725 383 588.433 383 358 C383 127.074 336.39 -10 204 -10 Z M129 130 C145.667 82.6667 170.667 59 204 59 C280 59 308 159.333 308 358 C308 412 306 458.333 302 497 L129 130 Z M279 600 C263 637.333 238 656 204 656 C130.667 656 103 554 103 358 C103 311.333 105.333 270.333 108 233 L279 600 Z " />
<glyph glyph-name="one" unicode="1" horiz-adv-x="440" d="M81 56 L186 66 L186 456 C186 511.439 186.368 586.895 189 629 C174.333 611.667 163.667 603.667 145 589 L88 542 L52 601 L200 714 L262 714 L262 66 L263 66 L359 56 L359 0 L81 0 L81 56 Z " />
<glyph glyph-name="two" unicode="2" horiz-adv-x="440" d="M47 71 L163 262 C221.653 357.978 271 427.658 271 529 C271 611.667 239 655 191 655 C148.333 655 111.333 624.333 82 591 L42 645 C84.6667 691.667 134 724 198 724 C290 724 347 653.333 347 536 C347 422.394 295.677 342.684 229 228 L143 80 L143 75 L364 75 L364 0 L47 0 L47 71 Z " />
<glyph glyph-name="three" unicode="3" horiz-adv-x="440" d="M44 106 C82.6667 76.6667 128.333 60 171 60 C247 60 280 115.333 280 202 C280 296.667 240.333 335 159 335 L118 335 L118 403 L159 403 C231 403 268 459 268 543 C268 613.667 242.667 655 188 655 C152 655 117 638 83 604 L48 662 C86.6667 700.667 137 724 193 724 C290.333 724 348 653 348 545 C348 457 312 390.667 244 376 L244 373 C322.667 358.333 362 298.667 362 200 C362 77.3853 295.39 -10 171 -10 C128.333 -10 84 -0.333333 44 29 L44 106 Z " />
<glyph glyph-name="four" unicode="4" horiz-adv-x="440" d="M33 235 L224 718 L310 718 L310 238 L377 238 L377 163 L310 163 L310 0 L236 0 L236 163 L33 163 L33 235 Z M236 238 L236 420 C236 492.771 239 580.993 239 626 L237 626 C229 591.333 212.667 540 202 508 L104 238 L236 238 Z " />
<glyph glyph-name="five" unicode="5" horiz-adv-x="440" d="M52 107 C86.6667 77.6667 132.333 60 171 60 C239 60 276 111 276 219 C276 315 238.333 366 173 366 C146.333 366 114.667 358.333 96 353 L62 380 L80 714 L323 714 L323 639 L148 639 L136 425 C158.667 430.333 178.333 436 201 436 C293 436 356 365.333 356 228 C356 78.6667 290.333 -10 173 -10 C125 -10 82.6667 2.33333 52 29 L52 107 Z " />
<glyph glyph-name="six" unicode="6" horiz-adv-x="440" d="M123 361 C144.333 409 175.333 446 230 446 C314 446 364 367 364 227 C364 81.6667 306 -10 210 -10 C111.333 -10 44 89.6667 44 311 C44 534.974 105.39 724 269 724 C290.333 724 314.333 721.667 329 715 L329 644 C312.333 652 293.333 656 272 656 C159.186 656 124.299 525.271 119 361 L123 361 Z M211 59 C257.667 59 289 115.667 289 225 C289 323.667 263.667 380 213 380 C161.234 380 122 319.182 122 239 C122 160.697 146.922 59 211 59 Z " />
<glyph glyph-name="seven" unicode="7" horiz-adv-x="440" d="M101 0 L283 639 L41 639 L41 714 L366 714 L366 648 L184 0 L101 0 Z " />
<glyph glyph-name="eight" unicode="8" horiz-adv-x="440" d="M200 -10 C110.667 -10 45 54 45 182 C45 279.333 78.6667 336.333 140 375 C89.3333 413.667 60 468.333 60 551 C60 669.355 126.723 725 205 725 C284.922 725 348 668.13 348 552 C348 466.667 318 414 262 378 C326 336.667 364 282 364 186 C364 64.6667 298.667 -10 200 -10 Z M204 60 C260 60 290 107 290 187 C290 254.558 268.626 292.119 199 343 C144.333 304.333 119 255.333 119 182 C119 107.333 146.667 60 204 60 Z M205 411 C250.333 441.667 274 481 274 549 C274 619.667 246.667 655 204 655 C161.333 655 135 620 135 548 C135 477.333 163.667 444.333 205 411 Z " />
<glyph glyph-name="nine" unicode="9" horiz-adv-x="440" d="M79 71 C95 61.6667 116.333 58 135 58 C238.869 58 283.634 189.347 289 353 L285 353 C261 302.333 230 269 178 269 C94 269 44 346 44 486 C44 634 101.667 724 199 724 C300.333 724 363 622 363 410 C363 195.593 305.974 -10 138 -10 C116.667 -10 93.6667 -7.66667 79 -1 L79 71 Z M195 334 C241.667 334 286 384 286 480 C286 550.433 262.922 655 199 655 C149.667 655 119 597 119 489 C119 390.333 145.667 334 195 334 Z " />
<glyph glyph-name="colon" unicode="&#x3a;" horiz-adv-x="440" >
<path fill="black" d="M204 -12 C173.333 -12 155 9 155 53 C155 95.6667 173.333 115 204 115 C233.333 115 254 97 254 53 C254 9 232 -12 204 -12 Z " /><g transform="translate(0,429)" ><path fill="black" d="M204 -12 C173.333 -12 155 9 155 53 C155 95.6667 173.333 115 204 115 C233.333 115 254 97 254 53 C254 9 232 -12 204 -12 Z " /></g></glyph>
<glyph glyph-name="semicolon" unicode="&#x3b;" horiz-adv-x="440" >
<g transform="translate(-3,0)" ><path fill="black" d="M130 -131 C146 -49.6667 161.333 43 168 115 L246 115 L252 104 C237.333 26.6667 213.667 -59 187 -131 L130 -131 Z " /></g><g transform="translate(-4,429)" ><path fill="black" d="M204 -12 C173.333 -12 155 9 155 53 C155 95.6667 173.333 115 204 115 C233.333 115 254 97 254 53 C254 9 232 -12 204 -12 Z " /></g></glyph>
<glyph glyph-name="less" unicode="&#x3c;" horiz-adv-x="440" d="M43 334 L43 379 L348 577 L348 503 L125 356 L348 207 L348 133 L43 334 Z " />
<glyph glyph-name="equal" unicode="&#x3d;" horiz-adv-x="440" d="M43 287 L367 287 L367 213 L43 213 L43 287 Z M43 491 L367 491 L367 417 L43 417 L43 491 Z " />
<glyph glyph-name="greater" unicode="&#x3e;" horiz-adv-x="440" d="M52 207 L275 356 L52 503 L52 577 L357 379 L357 334 L52 133 L52 207 Z " />
<glyph glyph-name="question" unicode="&#x3f;" horiz-adv-x="440" d="M151 199 L151 226 C151 299.333 165.667 340.667 207 394 C255.209 458.278 271 488.614 271 551 C271 617.667 244.333 653 195 653 C155 653 124.333 636.667 91 614 L65 678 C105 707.333 149.333 724 200 724 C293.333 724 344 663 344 555 C344 466.135 316.238 423.298 264 358 C221.427 302.123 212 274.979 212 218 L212 199 L151 199 Z M183 -12 C152.333 -12 134 9 134 53 C134 95.6667 152.333 115 183 115 C212.333 115 233 97 233 53 C233 9 211 -12 183 -12 Z " />
<glyph glyph-name="at" unicode="&#x40;" horiz-adv-x="440" d="M342 -49 C304.667 -75.6667 264.333 -89 221 -89 C74.4113 -89 2 54.0779 2 294 C2 555.437 82.8658 714 218 714 C338.918 714 408 575.641 408 357 C408 233.156 384.874 109 322 109 C292.667 109 271.667 141 265 189 L263 190 C248.333 138 221.333 109 188 109 C132 109 98 179 98 295 C98 429.926 151.745 519 229 519 C259.667 519 291.333 507.667 310 497 L302 297 C300.667 283.667 301 268 301 256 C301 191.333 308.333 159 323 159 C347 159 357 230 357 358 C357 542.918 308.693 660 218 660 C112.667 660 54 525 54 297 C54 85 105.667 -34 223 -34 C262.333 -34 302 -21.6667 342 3 L342 -49 Z M252 458 C244.667 465.333 236.333 469 227 469 C184.333 469 157 402.333 157 293 C157 206.333 172 159 200 159 C229.333 159 242 212.333 246 323 L252 458 Z " />
<glyph glyph-name="A" unicode="A" horiz-adv-x="440" d="M155 714 L253 714 L393 0 L318 0 L277 230 L133 230 L93 0 L17 0 L155 714 Z M265 301 L222 541 C215.333 575.667 208 619.333 204 650 C200 619.333 192.667 575.667 186 541 L145 301 L265 301 Z " />
<glyph glyph-name="B" unicode="B" horiz-adv-x="440" d="M53 0 L53 714 L183 714 C296.333 714 359 662.333 359 541 C359 453 326.333 393.667 269 379 L269 374 C333 358 373 310.333 373 205 C373 74.3333 308 0 200 0 L53 0 Z M124 71 L189 71 C265 71 298 120.667 298 206 C298 291.333 264.333 338 183 338 L124 338 L124 71 Z M124 409 L179 409 C252.333 409 284 448 284 528 C284 608 250 643 174 643 L124 643 L124 409 Z " />
<glyph glyph-name="C" unicode="C" horiz-adv-x="440" d="M370 16 C334 -2.66667 299.333 -10 250 -10 C110.494 -10 33 130.26 33 358 C33 566.97 111.407 726 257 726 C307.667 726 350.333 712 389 688 L360 622 C332 642 298.333 655 261 655 C157.866 655 109 523.874 109 357 C109 177.26 159.667 61 261 61 C301 61 335.333 73.3333 370 88 L370 16 Z " />
<glyph glyph-name="D" unicode="D" horiz-adv-x="440" d="M37 0 L37 714 L193 714 C318.333 714 389 594 389 366 C389 123.333 318.333 0 181 0 L37 0 Z M111 74 L177 74 C269 74 311 173 311 365 C311 561 273.333 640 176 640 L111 640 L111 74 Z " />
<glyph glyph-name="E" unicode="E" horiz-adv-x="440" d="M361 74 L361 0 L53 0 L53 714 L361 714 L361 640 L128 640 L128 407 L347 407 L347 333 L128 333 L128 74 L361 74 Z " />
<glyph glyph-name="F" unicode="F" horiz-adv-x="440" d="M53 0 L53 714 L361 714 L361 640 L128 640 L128 381 L351 381 L351 307 L128 307 L128 0 L53 0 Z " />
<glyph glyph-name="G" unicode="G" horiz-adv-x="440" d="M298 301 L221 301 L221 375 L371 375 L371 25 C323 2.33333 282.333 -10 233 -10 C83.7706 -10 21 147.182 21 359 C21 572.463 93 726 237 726 C287.667 726 334.333 712.667 373 682 L345 617 C309 645 280 655 240 655 C146.667 655 97 547.667 97 357 C97 191.667 139.359 61 230 61 C256.667 61 276.667 66.3333 298 77 L298 301 Z " />
<glyph glyph-name="H" unicode="H" horiz-adv-x="440" d="M37 0 L37 714 L112 714 L112 406 L299 406 L299 714 L373 714 L373 0 L299 0 L299 332 L112 332 L112 0 L37 0 Z " />
<glyph glyph-name="I" unicode="I" horiz-adv-x="440" d="M61 56 L168 66 L168 648 L61 658 L61 714 L349 714 L349 658 L241 648 L241 66 L349 56 L349 0 L61 0 L61 56 Z " />
<glyph glyph-name="J" unicode="J" horiz-adv-x="440" d="M42 92 C72.6667 72 107.667 61 137 61 C209 61 249 117 249 217 L249 714 L323 714 L323 202 C323 76.6667 261.359 -10 144 -10 C105.333 -10 68.6667 0.333333 42 19 L42 92 Z " />
<glyph glyph-name="K" unicode="K" horiz-adv-x="440" d="M37 0 L37 714 L110 714 L110 352 C128.667 382.667 147.333 418.667 174 468 L298 714 L382 714 L215 395 L389 0 L306 0 L163 338 L110 266 L110 0 L37 0 Z " />
<glyph glyph-name="L" unicode="L" horiz-adv-x="440" d="M361 76 L361 0 L61 0 L61 714 L136 714 L136 76 L361 76 Z " />
<glyph glyph-name="M" unicode="M" horiz-adv-x="440" d="M25 0 L25 714 L128 714 L203 289 L205 289 L280 714 L385 714 L385 0 L318 0 L318 403 C318 483 324 571 328 647 L324 647 L239 203 L166 203 L84 647 L80 647 C84 587 92 491.667 92 401 L92 0 L25 0 Z " />
<glyph glyph-name="N" unicode="N" horiz-adv-x="440" d="M37 0 L37 714 L139 714 L310 84 L315 84 C312.444 107.005 305 187.944 305 251 L305 714 L373 714 L373 0 L275 0 L100 633 L95 633 C99 573 103 516 103 444 L103 0 L37 0 Z " />
<glyph glyph-name="O" unicode="O" horiz-adv-x="440" d="M206 -10 C68.4329 -10 21 157.225 21 359 C21 599 78.3333 726 205 726 C338.333 726 389 564.407 389 358 C389 152.771 342.026 -10 206 -10 Z M206 61 C278 61 313 162 313 358 C313 552.667 277 655 205 655 C126.333 655 97 550 97 358 C97 164.667 132.667 61 206 61 Z " />
<glyph glyph-name="P" unicode="P" horiz-adv-x="440" d="M53 0 L53 714 L204 714 C321.333 714 373 640.667 373 506 C373 375.281 325 280 197 280 L126 280 L126 0 L53 0 Z M126 353 L190 353 C264.667 353 298 393 298 501 C298 597 268.667 641 202 641 L126 641 L126 353 Z " />
<glyph glyph-name="Q" unicode="Q" horiz-adv-x="440" d="M244 -6 C232 -8.66667 220.333 -10 207 -10 C69.4329 -10 22 157.225 22 359 C22 599 79.3333 726 206 726 C339.333 726 390 564.407 390 358 C390 212.667 367.333 91.3333 306 30 L383 -179 L303 -179 L244 -6 Z M207 61 C279 61 314 162 314 358 C314 552.667 278 655 206 655 C127.333 655 98 550 98 358 C98 164.667 133.667 61 207 61 Z " />
<glyph glyph-name="R" unicode="R" horiz-adv-x="440" d="M53 0 L53 714 L182 714 C299.333 714 359 649.333 359 512 C359 398.667 320.667 342.333 270 317 L393 0 L311 0 L204 296 L126 296 L126 0 L53 0 Z M126 367 L182 367 C248.667 367 282 414.333 282 509 C282 605 248.333 643 179 643 L126 643 L126 367 Z " />
<glyph glyph-name="S" unicode="S" horiz-adv-x="440" d="M50 97 C90 74.3333 135.333 61 178 61 C256.225 61 285 117.615 285 187 C285 263.858 247.382 291.688 177 335 C110.335 377.666 53 426.434 53 540 C53 668 119.667 726 217 726 C263 726 308.333 713.333 353 688 L327 621 C292.333 642.333 254.667 655 220 655 C156 655 128 612 128 544 C128 466.175 166.028 437.607 231 397 C308.251 346.387 361 311.262 361 193 C361 59.6667 293.333 -10 180 -10 C133.333 -10 84.6667 1.66667 50 23 L50 97 Z " />
<glyph glyph-name="T" unicode="T" horiz-adv-x="440" d="M167 0 L167 640 L29 640 L29 714 L382 714 L382 640 L242 640 L242 0 L167 0 Z " />
<glyph glyph-name="U" unicode="U" horiz-adv-x="440" d="M37 714 L112 714 L112 223 C112 107 142 61 206 61 C270 61 298 108 298 224 L298 714 L373 714 L373 220 C373 62.6667 319.333 -10 206 -10 C92.6667 -10 37 62.6667 37 220 L37 714 Z " />
<glyph glyph-name="V" unicode="V" horiz-adv-x="440" d="M204 78 C210.667 123.333 220 184.667 232 246 L324 714 L397 714 L244 0 L164 0 L13 714 L86 714 L176 243 C188 185.667 197.667 124.667 203 78 L204 78 Z " />
<glyph glyph-name="W" unicode="W" horiz-adv-x="440" d="M112 75 C117.255 119.664 128.944 232.922 137 292 L168 535 L241 535 L275 290 C285.53 224.185 297.32 120.564 300 75 L304 75 C304 120.331 310.334 328.337 313 379 L331 714 L397 714 L352 0 L264 0 L223 330 C216.333 390 211 416.667 207 446 L204 446 C201.333 416.667 195.667 390 189 330 L148 0 L61 0 L13 714 L75 714 C81.6667 600.667 89.3333 491.333 96 378 C98.6476 319.752 110 121.008 110 75 L112 75 Z " />
<glyph glyph-name="X" unicode="X" horiz-adv-x="440" d="M17 0 L160 373 L28 714 L108 714 L205 441 L303 714 L383 714 L246 370 L394 0 L312 0 L201 304 L96 0 L17 0 Z " />
<glyph glyph-name="Y" unicode="Y" horiz-adv-x="440" d="M167 0 L167 273 L17 714 L98 714 L205 348 L312 714 L393 714 L241 273 L241 0 L167 0 Z " />
<glyph glyph-name="Z" unicode="Z" horiz-adv-x="440" d="M53 66 L279 640 L62 640 L62 714 L360 714 L360 648 L136 74 L365 74 L365 0 L53 0 L53 66 Z " />
<glyph glyph-name="bracketleft" unicode="&#x5b;" horiz-adv-x="440" d="M321 -96 L321 -161 L148 -161 L148 719 L321 719 L321 655 L217 655 L217 -96 L321 -96 Z " />
<glyph glyph-name="backslash" unicode="&#x5c;" horiz-adv-x="440" d="M275 -3 L61 717 L128 717 L343 -3 L275 -3 Z " />
<glyph glyph-name="bracketright" unicode="&#x5d;" horiz-adv-x="440" d="M89 -99 L193 -99 L193 652 L89 652 L89 717 L262 717 L262 -163 L89 -163 L89 -99 Z " />
<glyph glyph-name="asciicircum" unicode="&#x5e;" horiz-adv-x="440" d="M34 331 L184 713 L225 713 L375 331 L305 331 L204 614 L104 331 L34 331 Z " />
<glyph glyph-name="underscore" unicode="&#x5f;" horiz-adv-x="440" d="M2 -80 L408 -80 L408 -154 L2 -154 L2 -80 Z " />
<glyph glyph-name="grave" unicode="&#x60;" horiz-adv-x="440" d="M88 766 L173 766 C189.382 719.583 222.589 654.469 244 617 L244 606 L197 606 C164.875 640.802 109.011 714.978 88 757 L88 766 Z " />
<glyph glyph-name="a" unicode="a" horiz-adv-x="440" d="M291 78 L289 78 C258.333 23.3333 222 -10 170 -10 C100.667 -10 49 41.3333 49 148 C49 261.333 105 313 213 317 L289 320 L289 356 C289 445.333 253.333 477 204 477 C165.333 477 129 458.667 97 436 L70 499 C114 528.333 154 546 210 546 C306 546 361 491.333 361 366 L361 0 L306 0 L291 78 Z M288 263 L232 260 C158.667 254.667 124 222 124 150 C124 86 155 59 191 59 C239.078 59 288 109.407 288 215 L288 263 Z " />
<glyph glyph-name="b" unicode="b" horiz-adv-x="440" d="M48 760 L122 760 L122 571 C122 533.667 121 497 119 461 L122 461 C146 510.333 182 546 234 546 C326 546 377 451.667 377 269 C377 86.3333 323.667 -10 233 -10 C185 -10 150 20.6667 122 70 L116 70 L104 0 L48 0 L48 760 Z M211 60 C271 60 300 132.333 300 267 C300 407 269.667 477 209 477 C150.333 477 121 409 121 273 C121 127.667 151 60 211 60 Z " />
<glyph glyph-name="c" unicode="c" horiz-adv-x="440" d="M354 19 C322 0.333333 286.333 -10 245 -10 C131.926 -10 57 71.8442 57 264 C57 466.615 134.948 546 247 546 C289 546 327.667 536.333 363 517 L338 451 C310 471 284 477 252 477 C172 477 134 410.333 134 265 C134 123.667 174 60 250 60 C286 60 322 72.3333 354 91 L354 19 Z " />
<glyph glyph-name="d" unicode="d" horiz-adv-x="440" d="M292 75 L289 75 C267.667 28.3333 233.667 -10 179 -10 C88.3333 -10 33 83.3333 33 266 C33 450 88 546 180 546 C232 546 266.333 509.333 289 464 L294 464 C290 492 288 521 288 545 L288 760 L361 760 L361 0 L304 0 L292 75 Z M290 269 C290 399.667 270.667 477 204 477 C137.333 477 109 403 109 259 C109 125.667 134 60 202 60 C267.333 60 290 131 290 247 L290 269 Z " />
<glyph glyph-name="e" unicode="e" horiz-adv-x="440" d="M356 27 C317.333 1.66667 281 -10 233 -10 C110.333 -10 36 88 36 264 C36 438.667 101 546 209 546 C313 546 373 445.433 373 303 L373 251 L112 251 C114.667 123.667 156 60 236 60 C281.333 60 316 74.6667 356 100 L356 27 Z M208 477 C152 477 119.333 420.667 114 318 L300 318 C298.667 411.333 268 477 208 477 Z " />
<glyph glyph-name="f" unicode="f" horiz-adv-x="440" d="M151 0 L151 467 L41 467 L41 523 L151 538 L151 588 C151 723.974 196.641 765 282 765 C318 765 350.333 758.667 377 748 L359 684 C337 692.667 315 697 293 697 C249 697 225 674.667 225 588 L225 535 L362 535 L362 467 L225 467 L225 0 L151 0 Z " />
<glyph glyph-name="g" unicode="g" horiz-adv-x="440" d="M62 -135 C100.667 -160.333 151 -175 187 -175 C256.333 -175 288 -116.667 288 -22 L288 6 C288 23.3333 288.333 59.3333 291 74 L288 74 C263.333 18.6667 227.667 -9 181 -9 C87.6667 -9 33 90.3333 33 265 C33 438.307 87.6667 546 181 546 C226.333 546 262.667 518.333 290 463 L294 463 L301 535 L361 535 L361 -15 C361 -168.333 303 -245 187 -245 C141.667 -245 100 -233.667 62 -211 L62 -135 Z M291 270 C291 411.333 265 477 205 477 C141 477 110 402 110 266 C110 130 140.667 60 206 60 C262.667 60 291 121.667 291 245 L291 270 Z " />
<glyph glyph-name="h" unicode="h" horiz-adv-x="440" d="M48 0 L48 760 L122 760 L122 529 C122 506.333 120.667 482.667 118 460 L123 460 C144.333 510.667 177 546 233 546 C310.333 546 366 485.667 366 351 L366 0 L292 0 L292 335 C292 429.667 270 477 214 477 C150 477 122 406.333 122 281 L122 0 L48 0 Z " />
<glyph glyph-name="i" unicode="i" horiz-adv-x="440" >
<path fill="black" d="M59 56 L174 66 L174 466 L65 479 L65 535 L248 535 L248 66 L350 56 L350 0 L59 0 L59 56 Z " /><g transform="translate(3,647)" ><path fill="black" d="M204 -12 C173.333 -12 155 9 155 53 C155 95.6667 173.333 115 204 115 C233.333 115 254 97 254 53 C254 9 232 -12 204 -12 Z " /></g></glyph>
<glyph glyph-name="j" unicode="j" horiz-adv-x="440" >
<path fill="black" d="M37 -157 C63.6667 -166.333 101.333 -176 128 -176 C178.667 -176 206 -138.333 206 -69 L206 466 L68 479 L68 535 L279 535 L279 -64 C279 -188 229 -245 133 -245 C101 -245 63.6667 -238.667 37 -228 L37 -157 Z " /><g transform="translate(31,646)" ><path fill="black" d="M204 -12 C173.333 -12 155 9 155 53 C155 95.6667 173.333 115 204 115 C233.333 115 254 97 254 53 C254 9 232 -12 204 -12 Z " /></g></glyph>
<glyph glyph-name="k" unicode="k" horiz-adv-x="440" d="M53 0 L53 760 L125 760 L125 408 C125 360 122.667 321.667 120 271 L121 271 C135.667 295 146 315.333 162 338 L293 535 L382 535 L218 304 L391 0 L304 0 L168 245 L125 200 L125 0 L53 0 Z " />
<glyph glyph-name="l" unicode="l" horiz-adv-x="440" d="M59 56 L169 66 L169 694 L64 704 L64 760 L243 760 L243 66 L350 56 L350 0 L59 0 L59 56 Z " />
<glyph glyph-name="m" unicode="m" horiz-adv-x="440" d="M22 0 L22 535 L73 535 L83 480 L87 480 C102.333 524 126.667 546 160 546 C198.667 546 217 522.333 229 477 L232 477 C248.667 523 274.333 546 309 546 C366.333 546 389 505 389 401 L389 0 L321 0 L321 392 C321 449.333 314 477 286 477 C245.004 477 239 415.156 239 343 L239 0 L170 0 L170 390 C170 450 163.667 477 137 477 C94.3333 477 89 399.563 89 333 L89 0 L22 0 Z " />
<glyph glyph-name="n" unicode="n" horiz-adv-x="440" d="M48 0 L48 535 L109 535 L119 461 L123 461 C145.667 517 186.333 546 237 546 C319.667 546 366 488.333 366 351 L366 0 L292 0 L292 347 C292 433.667 268 477 220 477 C156 477 122 407.667 122 281 L122 0 L48 0 Z " />
<glyph glyph-name="o" unicode="o" horiz-adv-x="440" d="M206 -10 C95.3333 -10 33 90 33 270 C33 446 95 546 203 546 C311 546 377 445.667 377 267 C377 89.6667 316.667 -10 206 -10 Z M205 58 C267.667 58 300 129.333 300 268 C300 406.667 266.667 478 204 478 C141.333 478 110 408.333 110 269 C110 128.333 141.667 58 205 58 Z " />
<glyph glyph-name="p" unicode="p" horiz-adv-x="440" d="M48 -240 L48 535 L107 535 L119 459 L122 459 C144.667 507 179.333 546 234 546 C326 546 377 453 377 269 C377 85 318.333 -10 233 -10 C181 -10 146 28.3333 122 71 L117 71 C119.667 52.3333 122 16.3333 122 -9 L122 -240 L48 -240 Z M122 267 C122 135 149.667 60 215 60 C271 60 300 132.667 300 270 C300 408 271 477 213 477 C147.667 477 122 408 122 288 L122 267 Z " />
<glyph glyph-name="q" unicode="q" horiz-adv-x="440" d="M288 -239 L288 -9 C288 19 290.333 44.3333 293 75 L289 75 C267.667 28.3333 233.333 -10 184 -10 C89.3333 -10 33 83.3333 33 266 C33 448.667 91.3333 546 186 546 C236.667 546 266.333 507.667 289 461 L293 461 L301 535 L361 535 L361 -239 L288 -239 Z M291 269 C291 397 266 476 206 476 C143.333 476 110 403.333 110 266 C110 128.667 145.333 60 204 60 C265.359 60 291 139.385 291 246 L291 269 Z " />
<glyph glyph-name="r" unicode="r" horiz-adv-x="440" d="M32 56 L128 66 L128 466 L36 479 L36 535 L187 535 L195 440 L199 440 C220.333 504 259 546 319 546 C339 546 362.333 541 385 529 L365 452 C349 462.667 325 466 309 466 C241.442 466 202 380.974 202 269 L202 66 L305 56 L305 0 L32 0 L32 56 Z " />
<glyph glyph-name="s" unicode="s" horiz-adv-x="440" d="M64 98 C98.6667 75.3333 145.667 58 195 58 C260.333 58 279 92.3333 279 139 C279 184.05 261.504 197.273 183 246 C116.488 288.567 69 318.851 69 405 C69 497 124.667 546 222 546 C266 546 301.333 535.667 344 513 L319 449 C280.333 470.333 251.667 478 221 478 C169 478 143 454.667 143 408 C143 364.145 169.861 344.749 242 302 C310.687 262.373 353 230.385 353 141 C353 42.3333 298.333 -10 189 -10 C138.333 -10 96.6667 1.33333 64 24 L64 98 Z " />
<glyph glyph-name="t" unicode="t" horiz-adv-x="440" d="M147 467 L39 467 L39 516 L150 538 L175 677 L222 677 L222 535 L367 535 L367 467 L220 467 L220 159 C220 91 246.333 60 293 60 C311.667 60 337 63.6667 365 73 L365 4 C338.333 -5.33333 306.333 -10 277 -10 C202.177 -10 147 29.2338 147 145 L147 467 Z " />
<glyph glyph-name="u" unicode="u" horiz-adv-x="440" d="M44 535 L118 535 L118 189 C118 91.6667 143.333 59 198 59 C259.333 59 288 127 288 255 L288 535 L362 535 L362 0 L300 0 L289 75 L285 75 C263.667 17.6667 222.667 -10 172 -10 C90.6667 -10 44 48.6667 44 174 L44 535 Z " />
<glyph glyph-name="v" unicode="v" horiz-adv-x="440" d="M207 67 C215 111 229.333 175.333 240 218 L313 535 L386 535 L248 0 L160 0 L24 535 L96 535 L171 218 C181.667 175.333 195.667 111 205 67 L207 67 Z " />
<glyph glyph-name="w" unicode="w" horiz-adv-x="440" d="M111 67 C113.652 106.781 123.865 194.616 132 238 L167 443 L242 443 L276 238 C284.013 195.262 292.656 104.406 298 67 L300 67 C302.609 100.918 306.739 193.504 312 254 L337 535 L401 535 L343 0 L255 0 L226 208 C218 260 210.333 317 205 369 L202 369 C198 317 188.667 258 182 206 L152 0 L65 0 L10 535 L74 535 L98 254 C103.306 195.635 106.283 105.032 109 67 L111 67 Z " />
<glyph glyph-name="x" unicode="x" horiz-adv-x="440" d="M24 0 L160 275 L31 535 L115 535 L204 333 L296 535 L379 535 L247 272 L385 0 L300 0 L205 216 L108 0 L24 0 Z " />
<glyph glyph-name="y" unicode="y" horiz-adv-x="440" d="M37 -170 C49 -172.667 65.3333 -177 80 -177 C118.667 -177 139.333 -153 158 -81 L177 -5 L24 535 L102 535 L181 220 C194.333 167.333 204.333 119.333 211 76 L213 76 C218.333 118.667 230.667 178.333 240 221 L308 535 L387 535 L232 -73 C205.333 -177 161.333 -245 88 -245 C70.6667 -245 53 -241 37 -237 L37 -170 Z " />
<glyph glyph-name="z" unicode="z" horiz-adv-x="440" d="M53 57 L270 467 L63 467 L63 535 L352 535 L352 469 L139 69 L358 69 L358 0 L53 0 L53 57 Z " />
<glyph glyph-name="braceleft" unicode="&#x7b;" horiz-adv-x="440" d="M172 149 C172 217 148.667 249 90 249 L90 307 C143.333 307 172 331 172 407 L172 560 C172 662.667 221.333 715 320 717 L320 654 C269.333 651.333 242 626.667 242 556 L242 404 C242 330.667 218 292 166 280 L166 276 C219.333 262.667 242 222.667 242 152 L242 0 C242 -68 265.333 -96.6667 320 -98 L320 -161 C225.333 -158.333 172 -111 172 -3 L172 149 Z " />
<glyph glyph-name="bar" unicode="&#x7c;" horiz-adv-x="440" d="M172 -240 L172 760 L238 760 L238 -240 L172 -240 Z " />
<glyph glyph-name="braceright" unicode="&#x7d;" horiz-adv-x="440" d="M80 -98 C130.667 -95.3333 158 -70.6667 158 0 L158 152 C158 225.333 182 264 234 276 L234 280 C180.667 293.333 158 333.333 158 404 L158 556 C158 624 134.667 652.667 80 654 L80 717 C174.667 714.333 228 667 228 559 L228 407 C228 339 251.333 307 310 307 L310 249 C256.667 249 228 225 228 149 L228 -4 C228 -106.667 178.667 -159 80 -161 L80 -98 Z " />
<glyph glyph-name="asciitilde" unicode="&#x7e;" horiz-adv-x="440" d="M358 341 C336.667 310.333 309.667 293 279 293 C245.667 293 225.333 302 196 322 C168.667 340 145.667 349 127 349 C103 349 76.3333 327.333 51 290 L51 363 C72.3333 397 99 414 131 414 C161.667 414 183.667 402.667 213 384 C241 365.333 261.667 357 283 357 C307 357 335.333 380.333 358 415 L358 341 Z " />
<glyph glyph-name="uni00A0" unicode="&#xa0;" horiz-adv-x="440" />
<glyph glyph-name="exclamdown" unicode="&#xa1;" horiz-adv-x="440" d="M172 330 L232 330 L248 -185 L158 -185 L172 330 Z M203 414 C173.667 414 153 432 153 476 C153 520 175 541 203 541 C233.667 541 252 520 252 476 C252 433.333 233.667 414 203 414 Z " />
<glyph glyph-name="cent" unicode="&#xa2;" horiz-adv-x="440" d="M218 -10 L218 90 C115.333 104.667 69 201.667 69 363 C69 524.333 118 623.667 218 641 L218 724 L264 724 L264 643 C293.333 640.333 323 633.667 343 619 L322 556 C298 570.667 273.667 576 255 576 C175 576 141 505.333 141 364 C141 222.667 175.333 156 254 156 C280.667 156 311.333 166 338 182 L338 115 C319.333 101.667 293.333 93 264 89 L264 -10 L218 -10 Z " />
<glyph glyph-name="sterling" unicode="&#xa3;" horiz-adv-x="440" d="M368 72 L368 0 L61 0 L61 67 C97.6667 88.3333 116 135.667 116 209 L116 327 L58 327 L58 389 L116 389 L116 543 C116 660.333 166 724 262 724 C300.667 724 335.667 710.333 367 683 L341 620 C315 642 290.333 653 267 653 C213.667 653 190 617.667 190 535 L190 389 L304 389 L304 327 L190 327 L190 210 C190 144.667 173.333 98.6667 140 72 L368 72 Z " />
<glyph glyph-name="currency" unicode="&#xa4;" horiz-adv-x="440" d="M26 173 L78 238 C58 272 48 310.333 48 353 C48 395.667 58 434 78 468 L25 534 L62 573 L113 506 C139.667 532.667 170.333 546 205 546 C239.667 546 270 533 296 507 L348 573 L385 535 L333 469 C352.333 434.333 362 395.667 362 353 C362 310.333 352.333 271.667 333 237 L385 171 L349 132 L296 198 C268.667 172.667 238 160 204 160 C169.333 160 139 173 113 199 L62 133 L26 173 Z M205 219 C268.896 219 305 281.974 305 354 C305 430 266 488 206 488 C144.641 488 103 425.697 103 352 C103 280.13 142.749 219 205 219 Z " />
<glyph glyph-name="yen" unicode="&#xa5;" horiz-adv-x="440" d="M77 188 L168 188 L168 277 L77 277 L77 333 L153 333 L45 714 L122 714 L206 375 L288 714 L365 714 L256 333 L335 333 L335 277 L242 277 L242 188 L335 188 L335 132 L242 132 L242 0 L168 0 L168 132 L77 132 L77 188 Z " />
<glyph glyph-name="brokenbar" unicode="&#xa6;" horiz-adv-x="440" d="M172 -238 L172 153 L238 153 L238 -238 L172 -238 Z M172 370 L172 761 L238 761 L238 370 L172 370 Z " />
<glyph glyph-name="section" unicode="&#xa7;" horiz-adv-x="440" d="M68 90 C94.6667 66 138.333 49 177 49 C219.667 49 259 75 259 131 C259 184.333 224 209 180 241 C107.298 292.16 75 325.799 75 389 C75 453 105.333 493.667 148 515 C117.333 545.667 99 580.333 99 635 C99 720.333 152.333 766 231 766 C265.667 766 293.333 757.667 328 735 L305 680 C277 700 254.333 708 229 708 C187.667 708 163 683 163 639 C163 588.333 195.333 558.667 230 536 C282.435 499.295 341 469.159 341 379 C341 319 315.333 268.667 278 246 C310 207.333 324 178.333 324 133 C324 43.6667 266.667 -9 176 -9 C133.333 -9 94.6667 2 68 22 L68 90 Z M237 277 C267.667 293 280 328 280 368 C280 417.22 259.936 440.272 190 486 C154 474 136 440 136 400 C136 343.79 178.142 323.144 209 300 L237 277 Z " />
<glyph glyph-name="dieresis" unicode="&#xa8;" horiz-adv-x="440" d="M128 626 C102.667 626 85 646 85 686 C85 724.667 102.667 743 128 743 C152 743 170 724.667 170 686 C170 644.667 152 626 128 626 Z M282 626 C256.667 626 239 646 239 686 C239 724.667 256.667 743 282 743 C306 743 324 724.667 324 686 C324 644.667 306 626 282 626 Z " />
<glyph glyph-name="copyright" unicode="&#xa9;" horiz-adv-x="440" d="M205 132 C89.2338 132 18 226.61 18 359 C18 495 92.9264 587 206 587 C320.719 587 392 494.329 392 360 C392 224 315.225 132 205 132 Z M205 173 C291.667 173 351 242 351 358 C351 472.667 292 545 204 545 C117.333 545 58 476 58 360 C58 247.974 117.078 173 205 173 Z M268 230 C250.667 222 234.667 217 212 217 C142.667 217 109 273.333 109 356 C109 442.667 145.333 502 212 502 C234 502 255.667 495.667 277 483 L261 443 C244.333 453 228.333 458 213 458 C174.333 458 153 424 153 356 C153 293.333 171.667 259 213 259 C230.333 259 249.333 265 268 273 L268 230 Z " />
<glyph glyph-name="ordfeminine" unicode="&#xaa;" horiz-adv-x="440" d="M252 435 C233.333 399 210.667 383 176 383 C129.333 383 94 418.333 94 481 C94 549 136 583.333 212 590 L245 594 L245 616 C245 657.333 230.667 673 196 673 C173.333 673 154.667 665.667 132 651 L115 695 C143 713.667 169 722 201 722 C267 722 300 685 300 611 L300 389 L261 389 L252 435 Z M245 546 L220 542 C173.333 536.667 150 526.667 150 484 C150 449.333 166 434 190 434 C224.667 434 245 467 245 519 L245 546 Z " />
<glyph glyph-name="guillemotleft" unicode="&#xab;" horiz-adv-x="440" >
<g transform="translate(-78,0)" ><path fill="black" d="M238 65 L120 257 L120 271 L238 464 L289 437 L204 264 L289 94 L238 65 Z " /></g><g transform="translate(79,0)" ><path fill="black" d="M238 65 L120 257 L120 271 L238 464 L289 437 L204 264 L289 94 L238 65 Z " /></g></glyph>
<glyph glyph-name="logicalnot" unicode="&#xac;" horiz-adv-x="440" d="M57 385 L354 385 L354 121 L293 121 L293 321 L57 321 L57 385 Z " />
<glyph glyph-name="uni00AD" unicode="&#xad;" horiz-adv-x="440" >
<g transform="translate(2,0)" ><path fill="black" d="M103 308 L307 308 L307 234 L103 234 L103 308 Z " /></g></glyph>
<glyph glyph-name="registered" unicode="&#xae;" horiz-adv-x="440" d="M205 132 C90.2814 132 19 226.61 19 359 C19 495 93.974 587 206 587 C320.719 587 392 494.329 392 360 C392 224 315.848 132 205 132 Z M205 173 C293 173 351 242 351 358 C351 472.667 292 545 204 545 C117.333 545 58 476 58 360 C58 247.974 117.078 173 205 173 Z M130 220 L130 502 L195 502 C251 502 278 471 278 419 C278 372.333 257 349.667 237 339 L296 220 L249 220 L199 328 L170 328 L170 220 L130 220 Z M170 367 L194 367 C220.667 367 237 383 237 415 C237 445.667 222.333 461 193 461 L170 461 L170 367 Z " />
<glyph glyph-name="macron" unicode="&#xaf;" horiz-adv-x="440" d="M103 692 L304 692 L304 633 L103 633 L103 692 Z " />
<glyph glyph-name="degree" unicode="&#xb0;" horiz-adv-x="440" d="M204 455 C141.333 455 94 505 94 589 C94 673 142.667 723 204 723 C265.333 723 315 672 315 588 C315 506.225 264.39 455 204 455 Z M205 505 C239.667 505 267 535.667 267 589 C267 641 239.667 673 205 673 C166.333 673 141 638.667 141 588 C141 534.667 170.333 505 205 505 Z " />
<glyph glyph-name="plusminus" unicode="&#xb1;" horiz-adv-x="440" d="M175 136 L175 338 L53 338 L53 402 L175 402 L175 605 L236 605 L236 402 L357 402 L357 338 L236 338 L236 136 L175 136 Z M53 65 L357 65 L357 0 L53 0 L53 65 Z " />
<glyph glyph-name="twosuperior" unicode="&#xb2;" horiz-adv-x="440" d="M103 468 L177 577 C227.85 649.26 255 683.411 255 736 C255 772 235.667 796 201 796 C174.333 796 151.333 782.333 132 755 L102 798 C124.667 832.667 163 853 207 853 C275 853 314 808.333 314 739 C314 667.047 274.737 632.803 210 533 L169 470 L321 470 L321 415 L103 415 L103 468 Z " />
<glyph glyph-name="threesuperior" unicode="&#xb3;" horiz-adv-x="440" d="M107 494 C131 474.667 159 465 191 465 C239 465 259 489.667 259 535 C259 583 232.667 610 182 610 L154 610 L154 662 L180 662 C226.667 662 251 692.333 251 735 C251 773.667 229.667 796 195 796 C173 796 151.667 784.333 131 761 L103 806 C132.333 836.667 163.333 853 202 853 C263.333 853 305 812.333 305 743 C305 693 287 659.333 251 642 L251 638 C292.333 623.333 316 588 316 532 C316 452 264 407 192 407 C161.333 407 133 415 107 431 L107 494 Z " />
<glyph glyph-name="acute" unicode="&#xb4;" horiz-adv-x="440" d="M172 606 L172 617 C202.667 670.333 225.667 720.667 243 766 L328 766 L328 757 C309.282 714.216 252.297 641.859 219 606 L172 606 Z " />
<glyph glyph-name="mu" unicode="&#xb5;" horiz-adv-x="440" d="M44 227 L46 227 L46 535 L120 535 L120 189 C120 91.6667 145.333 59 200 59 C261.333 59 290 127 290 255 L290 535 L364 535 L364 0 L302 0 L291 75 L287 75 C265.667 17.6667 224.667 -10 174 -10 C152.667 -10 134 -6 118 2 L118 -240 L44 -240 L44 227 Z " />
<glyph glyph-name="paragraph" unicode="&#xb6;" horiz-adv-x="440" d="M181 -127 L181 279 C172.333 273 161.667 270 149 270 C81 270 50 350.667 50 512 C50 677.333 84.6667 760 166 760 L332 760 L332 -127 L282 -127 L282 705 L230 705 L230 -127 L181 -127 Z " />
<glyph glyph-name="periodcentered" unicode="&#xb7;" horiz-adv-x="440" >
<g transform="translate(2,282)" ><path fill="black" d="M204 -12 C173.333 -12 155 9 155 53 C155 95.6667 173.333 115 204 115 C233.333 115 254 97 254 53 C254 9 232 -12 204 -12 Z " /></g></glyph>
<glyph glyph-name="cedilla" unicode="&#xb8;" horiz-adv-x="440" d="M133 -182 C144.333 -186 156 -188 168 -188 C202.667 -188 218 -168.667 218 -138 C218 -102 195.667 -85.6667 157 -79 L185 0 L227 0 L210 -51 C254.667 -63 277 -93 277 -141 C277 -205 241 -240 177 -240 C162.333 -240 143.667 -238 133 -234 L133 -182 Z " />
<glyph glyph-name="onesuperior" unicode="&#xb9;" horiz-adv-x="440" d="M113 459 L190 463 L190 679 C190 709.667 191 740.333 193 771 L170 747 L125 704 L96 748 L199 843 L247 843 L247 463 L319 459 L319 415 L113 415 L113 459 Z " />
<glyph glyph-name="ordmasculine" unicode="&#xba;" horiz-adv-x="440" d="M211 383 C139 383 100 446 100 554 C100 660.667 140.333 722 211 722 C279 722 320 664.667 320 554 C320 446 281.667 383 211 383 Z M210 434 C248.667 434 265 472.667 265 554 C265 635.333 247.333 671 210 671 C175.333 671 156 636.667 156 554 C156 474 174 434 210 434 Z " />
<glyph glyph-name="guillemotright" unicode="&#xbb;" horiz-adv-x="440" >
<g transform="translate(-82,-30)" ><path fill="black" d="M206 295 L122 465 L172 494 L291 302 L291 288 L172 95 L122 122 L206 295 Z " /></g><g transform="translate(75,-30)" ><path fill="black" d="M206 295 L122 465 L172 494 L291 302 L291 288 L172 95 L122 122 L206 295 Z " /></g></glyph>
<glyph glyph-name="onequarter" unicode="&#xbc;" horiz-adv-x="440" >
<g transform="translate(-5,-576)" ><path fill="black" d="M88 555 L224 845 L283 845 L283 559 L331 559 L331 508 L283 508 L283 415 L228 415 L228 508 L88 508 L88 555 Z M228 559 L228 688 C228 721.333 227.667 739.667 229 765 C225 751.667 216.333 736 207 716 L141 559 L228 559 Z " /></g><g transform="translate(-3,50)" ><path fill="black" d="M113 459 L190 463 L190 679 C190 709.667 191 740.333 193 771 L170 747 L125 704 L96 748 L199 843 L247 843 L247 463 L319 459 L319 415 L113 415 L113 459 Z " /></g><path fill="black" d="M33 360 L369 409 L369 367 L33 317 L33 360 Z " /></glyph>
<glyph glyph-name="onehalf" unicode="&#xbd;" horiz-adv-x="440" >
<g transform="translate(-6,-576)" ><path fill="black" d="M103 468 L177 577 C227.85 649.26 255 683.411 255 736 C255 772 235.667 796 201 796 C174.333 796 151.333 782.333 132 755 L102 798 C124.667 832.667 163 853 207 853 C275 853 314 808.333 314 739 C314 667.047 274.737 632.803 210 533 L169 470 L321 470 L321 415 L103 415 L103 468 Z " /></g><g transform="translate(-3,50)" ><path fill="black" d="M113 459 L190 463 L190 679 C190 709.667 191 740.333 193 771 L170 747 L125 704 L96 748 L199 843 L247 843 L247 463 L319 459 L319 415 L113 415 L113 459 Z " /></g><path fill="black" d="M33 360 L369 409 L369 367 L33 317 L33 360 Z " /></glyph>
<glyph glyph-name="threequarters" unicode="&#xbe;" horiz-adv-x="440" >
<g transform="translate(-5,-576)" ><path fill="black" d="M88 555 L224 845 L283 845 L283 559 L331 559 L331 508 L283 508 L283 415 L228 415 L228 508 L88 508 L88 555 Z M228 559 L228 688 C228 721.333 227.667 739.667 229 765 C225 751.667 216.333 736 207 716 L141 559 L228 559 Z " /></g><g transform="translate(-5,50)" ><path fill="black" d="M107 494 C131 474.667 159 465 191 465 C239 465 259 489.667 259 535 C259 583 232.667 610 182 610 L154 610 L154 662 L180 662 C226.667 662 251 692.333 251 735 C251 773.667 229.667 796 195 796 C173 796 151.667 784.333 131 761 L103 806 C132.333 836.667 163.333 853 202 853 C263.333 853 305 812.333 305 743 C305 693 287 659.333 251 642 L251 638 C292.333 623.333 316 588 316 532 C316 452 264 407 192 407 C161.333 407 133 415 107 431 L107 494 Z " /></g><path fill="black" d="M33 360 L369 409 L369 367 L33 317 L33 360 Z " /></glyph>
<glyph glyph-name="questiondown" unicode="&#xbf;" horiz-adv-x="440" d="M343 -149 C303 -178.333 258.667 -195 208 -195 C114.667 -195 64 -134 64 -26 C64 64.0362 93.2115 104.173 144 171 C186.573 226.877 196 254.021 196 311 L196 330 L257 330 L257 303 C257 229.667 243.667 188.333 201 135 C152.791 70.7219 137 40.3862 137 -22 C137 -88.6667 163.667 -124 213 -124 C253 -124 283.667 -107.667 317 -85 L343 -149 Z M225 414 C195.667 414 175 432 175 476 C175 520 197 541 225 541 C255.667 541 274 520 274 476 C274 433.333 255.667 414 225 414 Z " />
<glyph glyph-name="Agrave" unicode="&#xc0;" horiz-adv-x="440" >
<path fill="black" d="M155 714 L253 714 L393 0 L318 0 L277 230 L133 230 L93 0 L17 0 L155 714 Z M265 301 L222 541 C215.333 575.667 208 619.333 204 650 C200 619.333 192.667 575.667 186 541 L145 301 L265 301 Z " /><g transform="translate(0,181)" ><path fill="black" d="M88 766 L173 766 C189.382 719.583 222.589 654.469 244 617 L244 606 L197 606 C164.875 640.802 109.011 714.978 88 757 L88 766 Z " /></g></glyph>
<glyph glyph-name="Aacute" unicode="&#xc1;" horiz-adv-x="440" d="M155 714 L253 714 L393 0 L318 0 L277 230 L133 230 L93 0 L17 0 L155 714 Z M265 301 L222 541 C215.333 575.667 208 619.333 204 650 C200 619.333 192.667 575.667 186 541 L145 301 L265 301 Z M160 798 C190.667 851.333 213.667 901.667 231 947 L316 947 L316 938 C297.282 895.216 240.297 822.859 207 787 L160 787 L160 798 Z " />
<glyph glyph-name="Acircumflex" unicode="&#xc2;" horiz-adv-x="440" d="M155 714 L253 714 L393 0 L318 0 L277 230 L133 230 L93 0 L17 0 L155 714 Z M265 301 L222 541 C215.333 575.667 208 619.333 204 650 C200 619.333 192.667 575.667 186 541 L145 301 L265 301 Z M96 797 C124 845 155.333 904.333 170 947 L239 947 C256.333 901.667 287.333 839.667 314 797 L314 787 L273 787 C250.333 813.667 229 848.333 205 883 C179.667 848.333 154.667 811 136 787 L96 787 L96 797 Z " />
<glyph glyph-name="Atilde" unicode="&#xc3;" horiz-adv-x="440" >
<path fill="black" d="M155 714 L253 714 L393 0 L318 0 L277 230 L133 230 L93 0 L17 0 L155 714 Z M265 301 L222 541 C215.333 575.667 208 619.333 204 650 C200 619.333 192.667 575.667 186 541 L145 301 L265 301 Z " /><g transform="translate(0,181)" ><path fill="black" d="M83 610 C88.2515 673.018 103.167 730 151 730 C191 730 225.667 672 255 672 C273.667 672 277.667 695 283 731 L327 731 C323 652.333 296.333 611 259 611 C220.431 611 180.765 670 156 670 C138.667 670 131.333 648.667 126 610 L83 610 Z " /></g></glyph>
<glyph glyph-name="Adieresis" unicode="&#xc4;" horiz-adv-x="440" >
<g transform="translate(0,170)" ><path fill="black" d="M128 626 C102.667 626 85 646 85 686 C85 724.667 102.667 743 128 743 C152 743 170 724.667 170 686 C170 644.667 152 626 128 626 Z M282 626 C256.667 626 239 646 239 686 C239 724.667 256.667 743 282 743 C306 743 324 724.667 324 686 C324 644.667 306 626 282 626 Z " /></g><path fill="black" d="M155 714 L253 714 L393 0 L318 0 L277 230 L133 230 L93 0 L17 0 L155 714 Z M265 301 L222 541 C215.333 575.667 208 619.333 204 650 C200 619.333 192.667 575.667 186 541 L145 301 L265 301 Z " /></glyph>
<glyph glyph-name="Aring" unicode="&#xc5;" horiz-adv-x="440" d="M155 714 L253 714 L393 0 L318 0 L277 230 L133 230 L93 0 L17 0 L155 714 Z M265 301 L222 541 C215.333 575.667 208 619.333 204 650 C200 619.333 192.667 575.667 186 541 L145 301 L265 301 Z M206 790 C150 790 117 829.667 117 891 C117 951 150 990 206 990 C256.667 990 292 951 292 891 C292 831 258 790 206 790 Z M206 837 C230 837 248 857.667 248 891 C248 921.667 232.667 944 206 944 C179.333 944 163 921.667 163 891 C163 857.667 179.333 837 206 837 Z " />
<glyph glyph-name="AE" unicode="&#xc6;" horiz-adv-x="440" d="M133 714 L389 714 L389 638 L267 638 L267 410 L376 410 L376 334 L267 334 L267 76 L389 76 L389 0 L200 0 L200 231 L122 231 L87 0 L17 0 L133 714 Z M200 304 L200 638 L184 638 L133 304 L200 304 Z " />
<glyph glyph-name="Ccedilla" unicode="&#xc7;" horiz-adv-x="440" d="M168 -182 C179.333 -186 191 -188 203 -188 C237.667 -188 253 -168.667 253 -138 C253 -102 230.667 -85.6667 192 -79 L217 -7 C98.3333 13 33 148.667 33 358 C33 566.97 111.407 726 257 726 C307.667 726 350.333 712 389 688 L360 622 C332 642 298.333 655 261 655 C157.866 655 109 523.874 109 357 C109 177.26 159.667 61 261 61 C301 61 335.333 73.3333 370 88 L370 16 C335.333 -2.66667 303 -8.66667 259 -10 L245 -51 C289.667 -63 312 -93 312 -141 C312 -205 276 -240 212 -240 C197.333 -240 178.667 -238 168 -234 L168 -182 Z " />
<glyph glyph-name="Egrave" unicode="&#xc8;" horiz-adv-x="440" >
<path fill="black" d="M361 74 L361 0 L53 0 L53 714 L361 714 L361 640 L128 640 L128 407 L347 407 L347 333 L128 333 L128 74 L361 74 Z " /><g transform="translate(0,179)" ><path fill="black" d="M88 766 L173 766 C189.382 719.583 222.589 654.469 244 617 L244 606 L197 606 C164.875 640.802 109.011 714.978 88 757 L88 766 Z " /></g></glyph>
<glyph glyph-name="Eacute" unicode="&#xc9;" horiz-adv-x="440" >
<path fill="black" d="M361 74 L361 0 L53 0 L53 714 L361 714 L361 640 L128 640 L128 407 L347 407 L347 333 L128 333 L128 74 L361 74 Z " /><g transform="translate(-12,179)" ><path fill="black" d="M172 606 L172 617 C202.667 670.333 225.667 720.667 243 766 L328 766 L328 757 C309.282 714.216 252.297 641.859 219 606 L172 606 Z " /></g></glyph>
<glyph glyph-name="Ecircumflex" unicode="&#xca;" horiz-adv-x="440" >
<path fill="black" d="M361 74 L361 0 L53 0 L53 714 L361 714 L361 640 L128 640 L128 407 L347 407 L347 333 L128 333 L128 74 L361 74 Z " /><g transform="translate(0,179)" ><path fill="black" d="M96 606 L96 616 C124 664 155.333 723.333 170 766 L239 766 C256.333 720.667 287.333 658.667 314 616 L314 606 L273 606 C250.333 632.667 229 667.333 205 702 C179.667 667.333 154.667 630 136 606 L96 606 Z " /></g></glyph>
<glyph glyph-name="Edieresis" unicode="&#xcb;" horiz-adv-x="440" >
<g transform="translate(0,168)" ><path fill="black" d="M128 626 C102.667 626 85 646 85 686 C85 724.667 102.667 743 128 743 C152 743 170 724.667 170 686 C170 644.667 152 626 128 626 Z M282 626 C256.667 626 239 646 239 686 C239 724.667 256.667 743 282 743 C306 743 324 724.667 324 686 C324 644.667 306 626 282 626 Z " /></g><path fill="black" d="M361 74 L361 0 L53 0 L53 714 L361 714 L361 640 L128 640 L128 407 L347 407 L347 333 L128 333 L128 74 L361 74 Z " /></glyph>
<glyph glyph-name="Igrave" unicode="&#xcc;" horiz-adv-x="440" >
<path fill="black" d="M61 56 L168 66 L168 648 L61 658 L61 714 L349 714 L349 658 L241 648 L241 66 L349 56 L349 0 L61 0 L61 56 Z " /><g transform="translate(0,179)" ><path fill="black" d="M88 766 L173 766 C189.382 719.583 222.589 654.469 244 617 L244 606 L197 606 C164.875 640.802 109.011 714.978 88 757 L88 766 Z " /></g></glyph>
<glyph glyph-name="Iacute" unicode="&#xcd;" horiz-adv-x="440" >
<path fill="black" d="M61 56 L168 66 L168 648 L61 658 L61 714 L349 714 L349 658 L241 648 L241 66 L349 56 L349 0 L61 0 L61 56 Z " /><g transform="translate(-12,179)" ><path fill="black" d="M172 606 L172 617 C202.667 670.333 225.667 720.667 243 766 L328 766 L328 757 C309.282 714.216 252.297 641.859 219 606 L172 606 Z " /></g></glyph>
<glyph glyph-name="Icircumflex" unicode="&#xce;" horiz-adv-x="440" >
<path fill="black" d="M61 56 L168 66 L168 648 L61 658 L61 714 L349 714 L349 658 L241 648 L241 66 L349 56 L349 0 L61 0 L61 56 Z " /><g transform="translate(0,179)" ><path fill="black" d="M96 606 L96 616 C124 664 155.333 723.333 170 766 L239 766 C256.333 720.667 287.333 658.667 314 616 L314 606 L273 606 C250.333 632.667 229 667.333 205 702 C179.667 667.333 154.667 630 136 606 L96 606 Z " /></g></glyph>
<glyph glyph-name="Idieresis" unicode="&#xcf;" horiz-adv-x="440" >
<g transform="translate(0,168)" ><path fill="black" d="M128 626 C102.667 626 85 646 85 686 C85 724.667 102.667 743 128 743 C152 743 170 724.667 170 686 C170 644.667 152 626 128 626 Z M282 626 C256.667 626 239 646 239 686 C239 724.667 256.667 743 282 743 C306 743 324 724.667 324 686 C324 644.667 306 626 282 626 Z " /></g><path fill="black" d="M61 56 L168 66 L168 648 L61 658 L61 714 L349 714 L349 658 L241 648 L241 66 L349 56 L349 0 L61 0 L61 56 Z " /></glyph>
<glyph glyph-name="Eth" unicode="&#xd0;" horiz-adv-x="440" d="M47 333 L2 333 L2 402 L47 402 L47 714 L203 714 C328.333 714 399 594 399 366 C399 123.333 328.333 0 191 0 L47 0 L47 333 Z M187 74 C279 74 321 173 321 365 C321 561 283.333 640 186 640 L121 640 L121 402 L232 402 L232 333 L121 333 L121 74 L187 74 Z " />
<glyph glyph-name="Ntilde" unicode="&#xd1;" horiz-adv-x="440" >
<path fill="black" d="M37 0 L37 714 L139 714 L310 84 L315 84 C312.444 107.005 305 187.944 305 251 L305 714 L373 714 L373 0 L275 0 L100 633 L95 633 C99 573 103 516 103 444 L103 0 L37 0 Z " /><g transform="translate(4,179)" ><path fill="black" d="M83 610 C88.2515 673.018 103.167 730 151 730 C191 730 225.667 672 255 672 C273.667 672 277.667 695 283 731 L327 731 C323 652.333 296.333 611 259 611 C220.431 611 180.765 670 156 670 C138.667 670 131.333 648.667 126 610 L83 610 Z " /></g></glyph>
<glyph glyph-name="Ograve" unicode="&#xd2;" horiz-adv-x="440" >
<path fill="black" d="M206 -10 C68.4329 -10 21 157.225 21 359 C21 599 78.3333 726 205 726 C338.333 726 389 564.407 389 358 C389 152.771 342.026 -10 206 -10 Z M206 61 C278 61 313 162 313 358 C313 552.667 277 655 205 655 C126.333 655 97 550 97 358 C97 164.667 132.667 61 206 61 Z " /><g transform="translate(0,179)" ><path fill="black" d="M88 766 L173 766 C189.382 719.583 222.589 654.469 244 617 L244 606 L197 606 C164.875 640.802 109.011 714.978 88 757 L88 766 Z " /></g></glyph>
<glyph glyph-name="Oacute" unicode="&#xd3;" horiz-adv-x="440" >
<path fill="black" d="M206 -10 C68.4329 -10 21 157.225 21 359 C21 599 78.3333 726 205 726 C338.333 726 389 564.407 389 358 C389 152.771 342.026 -10 206 -10 Z M206 61 C278 61 313 162 313 358 C313 552.667 277 655 205 655 C126.333 655 97 550 97 358 C97 164.667 132.667 61 206 61 Z " /><g transform="translate(-12,179)" ><path fill="black" d="M172 606 L172 617 C202.667 670.333 225.667 720.667 243 766 L328 766 L328 757 C309.282 714.216 252.297 641.859 219 606 L172 606 Z " /></g></glyph>
<glyph glyph-name="Ocircumflex" unicode="&#xd4;" horiz-adv-x="440" >
<path fill="black" d="M206 -10 C68.4329 -10 21 157.225 21 359 C21 599 78.3333 726 205 726 C338.333 726 389 564.407 389 358 C389 152.771 342.026 -10 206 -10 Z M206 61 C278 61 313 162 313 358 C313 552.667 277 655 205 655 C126.333 655 97 550 97 358 C97 164.667 132.667 61 206 61 Z " /><g transform="translate(0,179)" ><path fill="black" d="M96 606 L96 616 C124 664 155.333 723.333 170 766 L239 766 C256.333 720.667 287.333 658.667 314 616 L314 606 L273 606 C250.333 632.667 229 667.333 205 702 C179.667 667.333 154.667 630 136 606 L96 606 Z " /></g></glyph>
<glyph glyph-name="Otilde" unicode="&#xd5;" horiz-adv-x="440" >
<path fill="black" d="M206 -10 C68.4329 -10 21 157.225 21 359 C21 599 78.3333 726 205 726 C338.333 726 389 564.407 389 358 C389 152.771 342.026 -10 206 -10 Z M206 61 C278 61 313 162 313 358 C313 552.667 277 655 205 655 C126.333 655 97 550 97 358 C97 164.667 132.667 61 206 61 Z " /><g transform="translate(0,179)" ><path fill="black" d="M83 610 C88.2515 673.018 103.167 730 151 730 C191 730 225.667 672 255 672 C273.667 672 277.667 695 283 731 L327 731 C323 652.333 296.333 611 259 611 C220.431 611 180.765 670 156 670 C138.667 670 131.333 648.667 126 610 L83 610 Z " /></g></glyph>
<glyph glyph-name="Odieresis" unicode="&#xd6;" horiz-adv-x="440" >
<g transform="translate(0,168)" ><path fill="black" d="M128 626 C102.667 626 85 646 85 686 C85 724.667 102.667 743 128 743 C152 743 170 724.667 170 686 C170 644.667 152 626 128 626 Z M282 626 C256.667 626 239 646 239 686 C239 724.667 256.667 743 282 743 C306 743 324 724.667 324 686 C324 644.667 306 626 282 626 Z " /></g><path fill="black" d="M206 -10 C68.4329 -10 21 157.225 21 359 C21 599 78.3333 726 205 726 C338.333 726 389 564.407 389 358 C389 152.771 342.026 -10 206 -10 Z M206 61 C278 61 313 162 313 358 C313 552.667 277 655 205 655 C126.333 655 97 550 97 358 C97 164.667 132.667 61 206 61 Z " /></glyph>
<glyph glyph-name="multiply" unicode="&#xd7;" horiz-adv-x="440" d="M54 215 L162 353 L54 490 L95 536 L204 398 L314 537 L357 493 L247 353 L354 215 L313 171 L204 308 L95 170 L54 215 Z " />
<glyph glyph-name="Oslash" unicode="&#xd8;" horiz-adv-x="440" d="M57 116 C33 181.333 23 267 23 359 C23 599 80.3333 726 207 726 C255 726 293 705 321 669 L359 749 L406 718 L354 609 C380.667 542.333 391 456.667 391 358 C391 152.771 344.026 -10 208 -10 C156 -10 117.333 14 88 54 L44 -39 L-3 -9 L57 116 Z M127 135 C145 85.6667 172 61 208 61 C280 61 315 162 315 358 C315 416.667 311.667 465.667 305 507 L127 135 Z M283 591 C265.667 633.667 240.333 655 207 655 C128.333 655 99 550 99 358 C99 306 101.667 259.667 107 221 L283 591 Z " />
<glyph glyph-name="Ugrave" unicode="&#xd9;" horiz-adv-x="440" >
<path fill="black" d="M37 714 L112 714 L112 223 C112 107 142 61 206 61 C270 61 298 108 298 224 L298 714 L373 714 L373 220 C373 62.6667 319.333 -10 206 -10 C92.6667 -10 37 62.6667 37 220 L37 714 Z " /><g transform="translate(0,179)" ><path fill="black" d="M88 766 L173 766 C189.382 719.583 222.589 654.469 244 617 L244 606 L197 606 C164.875 640.802 109.011 714.978 88 757 L88 766 Z " /></g></glyph>
<glyph glyph-name="Uacute" unicode="&#xda;" horiz-adv-x="440" >
<path fill="black" d="M37 714 L112 714 L112 223 C112 107 142 61 206 61 C270 61 298 108 298 224 L298 714 L373 714 L373 220 C373 62.6667 319.333 -10 206 -10 C92.6667 -10 37 62.6667 37 220 L37 714 Z " /><g transform="translate(-12,179)" ><path fill="black" d="M172 606 L172 617 C202.667 670.333 225.667 720.667 243 766 L328 766 L328 757 C309.282 714.216 252.297 641.859 219 606 L172 606 Z " /></g></glyph>
<glyph glyph-name="Ucircumflex" unicode="&#xdb;" horiz-adv-x="440" >
<path fill="black" d="M37 714 L112 714 L112 223 C112 107 142 61 206 61 C270 61 298 108 298 224 L298 714 L373 714 L373 220 C373 62.6667 319.333 -10 206 -10 C92.6667 -10 37 62.6667 37 220 L37 714 Z " /><g transform="translate(0,179)" ><path fill="black" d="M96 606 L96 616 C124 664 155.333 723.333 170 766 L239 766 C256.333 720.667 287.333 658.667 314 616 L314 606 L273 606 C250.333 632.667 229 667.333 205 702 C179.667 667.333 154.667 630 136 606 L96 606 Z " /></g></glyph>
<glyph glyph-name="Udieresis" unicode="&#xdc;" horiz-adv-x="440" >
<g transform="translate(0,168)" ><path fill="black" d="M128 626 C102.667 626 85 646 85 686 C85 724.667 102.667 743 128 743 C152 743 170 724.667 170 686 C170 644.667 152 626 128 626 Z M282 626 C256.667 626 239 646 239 686 C239 724.667 256.667 743 282 743 C306 743 324 724.667 324 686 C324 644.667 306 626 282 626 Z " /></g><path fill="black" d="M37 714 L112 714 L112 223 C112 107 142 61 206 61 C270 61 298 108 298 224 L298 714 L373 714 L373 220 C373 62.6667 319.333 -10 206 -10 C92.6667 -10 37 62.6667 37 220 L37 714 Z " /></glyph>
<glyph glyph-name="Yacute" unicode="&#xdd;" horiz-adv-x="440" >
<path fill="black" d="M167 0 L167 273 L17 714 L98 714 L205 348 L312 714 L393 714 L241 273 L241 0 L167 0 Z " /><g transform="translate(-12,179)" ><path fill="black" d="M172 606 L172 617 C202.667 670.333 225.667 720.667 243 766 L328 766 L328 757 C309.282 714.216 252.297 641.859 219 606 L172 606 Z " /></g></glyph>
<glyph glyph-name="Thorn" unicode="&#xde;" horiz-adv-x="440" d="M53 0 L53 714 L126 714 L126 593 L204 593 C321.333 593 373 519.667 373 385 C373 253.39 323.87 160 196 160 L126 160 L126 0 L53 0 Z M126 233 L190 233 C264.667 233 297 271.667 297 381 C297 477 267.667 520 201 520 L126 520 L126 233 Z " />
<glyph glyph-name="germandbls" unicode="&#xdf;" horiz-adv-x="440" d="M61 587 C61 693.667 108.333 765 203 765 C285.667 765 338 710.667 338 620 C338 508.222 269 495.111 269 410 C269 376.667 278.333 355.333 305 314 C352.72 247.723 373 214.169 373 146 C373 50 329 -10 253 -10 C225 -10 195.667 -1.66667 173 17 L173 92 C195.667 73.3333 218.333 60 245 60 C281 60 300 90.6667 300 144 C300 196 283.333 222.667 250 264 C222 302.667 191 344 191 408 C191 506.667 262 522.667 262 616 C262 666.667 241.333 697 200 697 C152 697 133 655 133 571 L133 0 L61 0 L61 587 Z " />
<glyph glyph-name="agrave" unicode="&#xe0;" horiz-adv-x="440" >
<path fill="black" d="M291 78 L289 78 C258.333 23.3333 222 -10 170 -10 C100.667 -10 49 41.3333 49 148 C49 261.333 105 313 213 317 L289 320 L289 356 C289 445.333 253.333 477 204 477 C165.333 477 129 458.667 97 436 L70 499 C114 528.333 154 546 210 546 C306 546 361 491.333 361 366 L361 0 L306 0 L291 78 Z M288 263 L232 260 C158.667 254.667 124 222 124 150 C124 86 155 59 191 59 C239.078 59 288 109.407 288 215 L288 263 Z " /><g transform="translate(12,0)" ><path fill="black" d="M88 766 L173 766 C189.382 719.583 222.589 654.469 244 617 L244 606 L197 606 C164.875 640.802 109.011 714.978 88 757 L88 766 Z " /></g></glyph>
<glyph glyph-name="aacute" unicode="&#xe1;" horiz-adv-x="440" >
<path fill="black" d="M291 78 L289 78 C258.333 23.3333 222 -10 170 -10 C100.667 -10 49 41.3333 49 148 C49 261.333 105 313 213 317 L289 320 L289 356 C289 445.333 253.333 477 204 477 C165.333 477 129 458.667 97 436 L70 499 C114 528.333 154 546 210 546 C306 546 361 491.333 361 366 L361 0 L306 0 L291 78 Z M288 263 L232 260 C158.667 254.667 124 222 124 150 C124 86 155 59 191 59 C239.078 59 288 109.407 288 215 L288 263 Z " /><path fill="black" d="M172 606 L172 617 C202.667 670.333 225.667 720.667 243 766 L328 766 L328 757 C309.282 714.216 252.297 641.859 219 606 L172 606 Z " /></glyph>
<glyph glyph-name="acircumflex" unicode="&#xe2;" horiz-adv-x="440" >
<path fill="black" d="M291 78 L289 78 C258.333 23.3333 222 -10 170 -10 C100.667 -10 49 41.3333 49 148 C49 261.333 105 313 213 317 L289 320 L289 356 C289 445.333 253.333 477 204 477 C165.333 477 129 458.667 97 436 L70 499 C114 528.333 154 546 210 546 C306 546 361 491.333 361 366 L361 0 L306 0 L291 78 Z M288 263 L232 260 C158.667 254.667 124 222 124 150 C124 86 155 59 191 59 C239.078 59 288 109.407 288 215 L288 263 Z " /><g transform="translate(12,0)" ><path fill="black" d="M96 606 L96 616 C124 664 155.333 723.333 170 766 L239 766 C256.333 720.667 287.333 658.667 314 616 L314 606 L273 606 C250.333 632.667 229 667.333 205 702 C179.667 667.333 154.667 630 136 606 L96 606 Z " /></g></glyph>
<glyph glyph-name="atilde" unicode="&#xe3;" horiz-adv-x="440" >
<path fill="black" d="M291 78 L289 78 C258.333 23.3333 222 -10 170 -10 C100.667 -10 49 41.3333 49 148 C49 261.333 105 313 213 317 L289 320 L289 356 C289 445.333 253.333 477 204 477 C165.333 477 129 458.667 97 436 L70 499 C114 528.333 154 546 210 546 C306 546 361 491.333 361 366 L361 0 L306 0 L291 78 Z M288 263 L232 260 C158.667 254.667 124 222 124 150 C124 86 155 59 191 59 C239.078 59 288 109.407 288 215 L288 263 Z " /><g transform="translate(12,0)" ><path fill="black" d="M83 610 C88.2515 673.018 103.167 730 151 730 C191 730 225.667 672 255 672 C273.667 672 277.667 695 283 731 L327 731 C323 652.333 296.333 611 259 611 C220.431 611 180.765 670 156 670 C138.667 670 131.333 648.667 126 610 L83 610 Z " /></g></glyph>
<glyph glyph-name="adieresis" unicode="&#xe4;" horiz-adv-x="440" >
<g transform="translate(12,-11)" ><path fill="black" d="M128 626 C102.667 626 85 646 85 686 C85 724.667 102.667 743 128 743 C152 743 170 724.667 170 686 C170 644.667 152 626 128 626 Z M282 626 C256.667 626 239 646 239 686 C239 724.667 256.667 743 282 743 C306 743 324 724.667 324 686 C324 644.667 306 626 282 626 Z " /></g><path fill="black" d="M291 78 L289 78 C258.333 23.3333 222 -10 170 -10 C100.667 -10 49 41.3333 49 148 C49 261.333 105 313 213 317 L289 320 L289 356 C289 445.333 253.333 477 204 477 C165.333 477 129 458.667 97 436 L70 499 C114 528.333 154 546 210 546 C306 546 361 491.333 361 366 L361 0 L306 0 L291 78 Z M288 263 L232 260 C158.667 254.667 124 222 124 150 C124 86 155 59 191 59 C239.078 59 288 109.407 288 215 L288 263 Z " /></glyph>
<glyph glyph-name="aring" unicode="&#xe5;" horiz-adv-x="440" >
<path fill="black" d="M291 78 L289 78 C258.333 23.3333 222 -10 170 -10 C100.667 -10 49 41.3333 49 148 C49 261.333 105 313 213 317 L289 320 L289 356 C289 445.333 253.333 477 204 477 C165.333 477 129 458.667 97 436 L70 499 C114 528.333 154 546 210 546 C306 546 361 491.333 361 366 L361 0 L306 0 L291 78 Z M288 263 L232 260 C158.667 254.667 124 222 124 150 C124 86 155 59 191 59 C239.078 59 288 109.407 288 215 L288 263 Z " /><g transform="translate(12,0)" ><path fill="black" d="M206 609 C150 609 117 648.667 117 710 C117 770 150 809 206 809 C256.667 809 292 770 292 710 C292 650 258 609 206 609 Z M206 656 C230 656 248 676.667 248 710 C248 740.667 232.667 763 206 763 C179.333 763 163 740.667 163 710 C163 676.667 179.333 656 206 656 Z " /></g></glyph>
<glyph glyph-name="ae" unicode="&#xe6;" horiz-adv-x="440" d="M167 321 L167 357 C167 445 149.667 476 115 476 C92.3333 476 68.6667 462.667 50 440 L27 499 C51 525.667 86.6667 545 124 545 C162.667 545 193.667 522 211 458 C227 511.333 254.333 545 293 545 C361 545 397 458.333 397 305 L397 254 L236 254 C238.685 106.316 269.683 60 316 60 C338.667 60 359.667 69.3333 385 100 L385 26 C359.667 -0.666667 334.667 -10 308 -10 C261.333 -10 224.667 19.6667 202 105 C183.333 21 154.333 -10 109 -10 C49 -10 13 43.6667 13 145 C13 255.667 53 312.667 125 318 L167 321 Z M167 259 L143 257 C104.333 254.333 77 222 77 146 C77 86 96.3333 60 119 60 C147 60 167 102.333 167 213 L167 259 Z M335 321 C335 424.333 319.333 476 288 476 C256.667 476 240 424.333 238 321 L335 321 Z " />
<glyph glyph-name="ccedilla" unicode="&#xe7;" horiz-adv-x="440" d="M169 -182 C180.333 -186 192 -188 204 -188 C238.667 -188 254 -168.667 254 -138 C254 -102 231.667 -85.6667 193 -79 L218 -8 C120.667 4 57 88 57 264 C57 466.615 134.948 546 247 546 C289 546 327.667 536.333 363 517 L338 451 C310 471 284 477 252 477 C172 477 134 410.333 134 265 C134 123.667 174 60 250 60 C286 60 322 72.3333 354 91 L354 19 C325.333 2.33333 294 -7.33333 260 -10 L246 -51 C290.667 -63 313 -93 313 -141 C313 -205 277 -240 213 -240 C198.333 -240 179.667 -238 169 -234 L169 -182 Z " />
<glyph glyph-name="egrave" unicode="&#xe8;" horiz-adv-x="440" >
<path fill="black" d="M356 27 C317.333 1.66667 281 -10 233 -10 C110.333 -10 36 88 36 264 C36 438.667 101 546 209 546 C313 546 373 445.433 373 303 L373 251 L112 251 C114.667 123.667 156 60 236 60 C281.333 60 316 74.6667 356 100 L356 27 Z M208 477 C152 477 119.333 420.667 114 318 L300 318 C298.667 411.333 268 477 208 477 Z " /><g transform="translate(4,0)" ><path fill="black" d="M88 766 L173 766 C189.382 719.583 222.589 654.469 244 617 L244 606 L197 606 C164.875 640.802 109.011 714.978 88 757 L88 766 Z " /></g></glyph>
<glyph glyph-name="eacute" unicode="&#xe9;" horiz-adv-x="440" >
<path fill="black" d="M356 27 C317.333 1.66667 281 -10 233 -10 C110.333 -10 36 88 36 264 C36 438.667 101 546 209 546 C313 546 373 445.433 373 303 L373 251 L112 251 C114.667 123.667 156 60 236 60 C281.333 60 316 74.6667 356 100 L356 27 Z M208 477 C152 477 119.333 420.667 114 318 L300 318 C298.667 411.333 268 477 208 477 Z " /><g transform="translate(-8,0)" ><path fill="black" d="M172 606 L172 617 C202.667 670.333 225.667 720.667 243 766 L328 766 L328 757 C309.282 714.216 252.297 641.859 219 606 L172 606 Z " /></g></glyph>
<glyph glyph-name="ecircumflex" unicode="&#xea;" horiz-adv-x="440" >
<path fill="black" d="M356 27 C317.333 1.66667 281 -10 233 -10 C110.333 -10 36 88 36 264 C36 438.667 101 546 209 546 C313 546 373 445.433 373 303 L373 251 L112 251 C114.667 123.667 156 60 236 60 C281.333 60 316 74.6667 356 100 L356 27 Z M208 477 C152 477 119.333 420.667 114 318 L300 318 C298.667 411.333 268 477 208 477 Z " /><g transform="translate(4,0)" ><path fill="black" d="M96 606 L96 616 C124 664 155.333 723.333 170 766 L239 766 C256.333 720.667 287.333 658.667 314 616 L314 606 L273 606 C250.333 632.667 229 667.333 205 702 C179.667 667.333 154.667 630 136 606 L96 606 Z " /></g></glyph>
<glyph glyph-name="edieresis" unicode="&#xeb;" horiz-adv-x="440" >
<g transform="translate(4,-11)" ><path fill="black" d="M128 626 C102.667 626 85 646 85 686 C85 724.667 102.667 743 128 743 C152 743 170 724.667 170 686 C170 644.667 152 626 128 626 Z M282 626 C256.667 626 239 646 239 686 C239 724.667 256.667 743 282 743 C306 743 324 724.667 324 686 C324 644.667 306 626 282 626 Z " /></g><path fill="black" d="M356 27 C317.333 1.66667 281 -10 233 -10 C110.333 -10 36 88 36 264 C36 438.667 101 546 209 546 C313 546 373 445.433 373 303 L373 251 L112 251 C114.667 123.667 156 60 236 60 C281.333 60 316 74.6667 356 100 L356 27 Z M208 477 C152 477 119.333 420.667 114 318 L300 318 C298.667 411.333 268 477 208 477 Z " /></glyph>
<glyph glyph-name="igrave" unicode="&#xec;" horiz-adv-x="410" >
<path fill="black" d="M59 56 L174 66 L174 466 L65 479 L65 535 L248 535 L248 66 L350 56 L350 0 L59 0 L59 56 Z " /><path fill="black" d="M88 766 L173 766 C189.382 719.583 222.589 654.469 244 617 L244 606 L197 606 C164.875 640.802 109.011 714.978 88 757 L88 766 Z " /></glyph>
<glyph glyph-name="iacute" unicode="&#xed;" horiz-adv-x="410" >
<path fill="black" d="M59 56 L174 66 L174 466 L65 479 L65 535 L248 535 L248 66 L350 56 L350 0 L59 0 L59 56 Z " /><g transform="translate(-12,0)" ><path fill="black" d="M172 606 L172 617 C202.667 670.333 225.667 720.667 243 766 L328 766 L328 757 C309.282 714.216 252.297 641.859 219 606 L172 606 Z " /></g></glyph>
<glyph glyph-name="icircumflex" unicode="&#xee;" horiz-adv-x="410" >
<path fill="black" d="M59 56 L174 66 L174 466 L65 479 L65 535 L248 535 L248 66 L350 56 L350 0 L59 0 L59 56 Z " /><path fill="black" d="M96 606 L96 616 C124 664 155.333 723.333 170 766 L239 766 C256.333 720.667 287.333 658.667 314 616 L314 606 L273 606 C250.333 632.667 229 667.333 205 702 C179.667 667.333 154.667 630 136 606 L96 606 Z " /></glyph>
<glyph glyph-name="idieresis" unicode="&#xef;" horiz-adv-x="410" >
<g transform="translate(0,-11)" ><path fill="black" d="M128 626 C102.667 626 85 646 85 686 C85 724.667 102.667 743 128 743 C152 743 170 724.667 170 686 C170 644.667 152 626 128 626 Z M282 626 C256.667 626 239 646 239 686 C239 724.667 256.667 743 282 743 C306 743 324 724.667 324 686 C324 644.667 306 626 282 626 Z " /></g><path fill="black" d="M59 56 L174 66 L174 466 L65 479 L65 535 L248 535 L248 66 L350 56 L350 0 L59 0 L59 56 Z " /></glyph>
<glyph glyph-name="eth" unicode="&#xf0;" horiz-adv-x="440" d="M295 422 C280.333 498 249.333 561 208 617 L131 558 L101 610 L170 662 C152 681.333 134 698 116 712 L148 763 C176 745.667 201.333 724.667 224 702 L306 764 L336 714 L262 658 C338 558 377 423 377 267 C377 83 316.333 -10 207 -10 C99.3117 -10 33 92.4156 33 232 C33 385.333 96.3333 473 195 473 C239 473 271.333 455.333 292 420 L295 422 Z M208 58 C274.667 58 302 122.333 302 245 C302 332.896 271.844 405 208 405 C138.667 405 108 344.667 108 230 C108 131.333 138.563 58 208 58 Z " />
<glyph glyph-name="ntilde" unicode="&#xf1;" horiz-adv-x="440" >
<path fill="black" d="M48 0 L48 535 L109 535 L119 461 L123 461 C145.667 517 186.333 546 237 546 C319.667 546 366 488.333 366 351 L366 0 L292 0 L292 347 C292 433.667 268 477 220 477 C156 477 122 407.667 122 281 L122 0 L48 0 Z " /><g transform="translate(9,0)" ><path fill="black" d="M83 610 C88.2515 673.018 103.167 730 151 730 C191 730 225.667 672 255 672 C273.667 672 277.667 695 283 731 L327 731 C323 652.333 296.333 611 259 611 C220.431 611 180.765 670 156 670 C138.667 670 131.333 648.667 126 610 L83 610 Z " /></g></glyph>
<glyph glyph-name="ograve" unicode="&#xf2;" horiz-adv-x="440" >
<path fill="black" d="M206 -10 C95.3333 -10 33 90 33 270 C33 446 95 546 203 546 C311 546 377 445.667 377 267 C377 89.6667 316.667 -10 206 -10 Z M205 58 C267.667 58 300 129.333 300 268 C300 406.667 266.667 478 204 478 C141.333 478 110 408.333 110 269 C110 128.333 141.667 58 205 58 Z " /><path fill="black" d="M88 766 L173 766 C189.382 719.583 222.589 654.469 244 617 L244 606 L197 606 C164.875 640.802 109.011 714.978 88 757 L88 766 Z " /></glyph>
<glyph glyph-name="oacute" unicode="&#xf3;" horiz-adv-x="440" >
<path fill="black" d="M206 -10 C95.3333 -10 33 90 33 270 C33 446 95 546 203 546 C311 546 377 445.667 377 267 C377 89.6667 316.667 -10 206 -10 Z M205 58 C267.667 58 300 129.333 300 268 C300 406.667 266.667 478 204 478 C141.333 478 110 408.333 110 269 C110 128.333 141.667 58 205 58 Z " /><g transform="translate(-12,0)" ><path fill="black" d="M172 606 L172 617 C202.667 670.333 225.667 720.667 243 766 L328 766 L328 757 C309.282 714.216 252.297 641.859 219 606 L172 606 Z " /></g></glyph>
<glyph glyph-name="ocircumflex" unicode="&#xf4;" horiz-adv-x="440" >
<path fill="black" d="M206 -10 C95.3333 -10 33 90 33 270 C33 446 95 546 203 546 C311 546 377 445.667 377 267 C377 89.6667 316.667 -10 206 -10 Z M205 58 C267.667 58 300 129.333 300 268 C300 406.667 266.667 478 204 478 C141.333 478 110 408.333 110 269 C110 128.333 141.667 58 205 58 Z " /><path fill="black" d="M96 606 L96 616 C124 664 155.333 723.333 170 766 L239 766 C256.333 720.667 287.333 658.667 314 616 L314 606 L273 606 C250.333 632.667 229 667.333 205 702 C179.667 667.333 154.667 630 136 606 L96 606 Z " /></glyph>
<glyph glyph-name="otilde" unicode="&#xf5;" horiz-adv-x="440" >
<path fill="black" d="M206 -10 C95.3333 -10 33 90 33 270 C33 446 95 546 203 546 C311 546 377 445.667 377 267 C377 89.6667 316.667 -10 206 -10 Z M205 58 C267.667 58 300 129.333 300 268 C300 406.667 266.667 478 204 478 C141.333 478 110 408.333 110 269 C110 128.333 141.667 58 205 58 Z " /><path fill="black" d="M83 610 C88.2515 673.018 103.167 730 151 730 C191 730 225.667 672 255 672 C273.667 672 277.667 695 283 731 L327 731 C323 652.333 296.333 611 259 611 C220.431 611 180.765 670 156 670 C138.667 670 131.333 648.667 126 610 L83 610 Z " /></glyph>
<glyph glyph-name="odieresis" unicode="&#xf6;" horiz-adv-x="440" >
<g transform="translate(0,-11)" ><path fill="black" d="M128 626 C102.667 626 85 646 85 686 C85 724.667 102.667 743 128 743 C152 743 170 724.667 170 686 C170 644.667 152 626 128 626 Z M282 626 C256.667 626 239 646 239 686 C239 724.667 256.667 743 282 743 C306 743 324 724.667 324 686 C324 644.667 306 626 282 626 Z " /></g><path fill="black" d="M206 -10 C95.3333 -10 33 90 33 270 C33 446 95 546 203 546 C311 546 377 445.667 377 267 C377 89.6667 316.667 -10 206 -10 Z M205 58 C267.667 58 300 129.333 300 268 C300 406.667 266.667 478 204 478 C141.333 478 110 408.333 110 269 C110 128.333 141.667 58 205 58 Z " /></glyph>
<glyph glyph-name="divide" unicode="&#xf7;" horiz-adv-x="440" d="M53 386 L357 386 L357 321 L53 321 L53 386 Z M207 114 C177.667 114 163 134 163 174 C163 214 177.667 234 207 234 C235 234 249 214 249 174 C249 134 232.333 114 207 114 Z M207 471 C177.667 471 163 491 163 531 C163 571 177.667 591 207 591 C235 591 249 571 249 531 C249 491 232.333 471 207 471 Z " />
<glyph glyph-name="oslash" unicode="&#xf8;" horiz-adv-x="440" d="M86 55 C52 103.667 35 175.333 35 270 C35 446 97 546 205 546 C241.667 546 274 533.667 302 509 L333 575 L379 546 L339 462 C365.667 414 379 349 379 267 C379 89.6667 318.667 -10 208 -10 C176.667 -10 149.333 -2 126 14 L95 -50 L50 -20 L86 55 Z M269 440 C253 465.333 232 478 206 478 C143.333 478 112 408.333 112 269 C112 217 116.667 174 126 140 L269 440 Z M157 80 C171 65.3333 187.667 58 207 58 C269.667 58 302 129.333 302 268 C302 306.667 299.333 340 294 368 L157 80 Z " />
<glyph glyph-name="ugrave" unicode="&#xf9;" horiz-adv-x="440" >
<path fill="black" d="M44 535 L118 535 L118 189 C118 91.6667 143.333 59 198 59 C259.333 59 288 127 288 255 L288 535 L362 535 L362 0 L300 0 L289 75 L285 75 C263.667 17.6667 222.667 -10 172 -10 C90.6667 -10 44 48.6667 44 174 L44 535 Z " /><path fill="black" d="M88 766 L173 766 C189.382 719.583 222.589 654.469 244 617 L244 606 L197 606 C164.875 640.802 109.011 714.978 88 757 L88 766 Z " /></glyph>
<glyph glyph-name="uacute" unicode="&#xfa;" horiz-adv-x="440" >
<path fill="black" d="M44 535 L118 535 L118 189 C118 91.6667 143.333 59 198 59 C259.333 59 288 127 288 255 L288 535 L362 535 L362 0 L300 0 L289 75 L285 75 C263.667 17.6667 222.667 -10 172 -10 C90.6667 -10 44 48.6667 44 174 L44 535 Z " /><g transform="translate(-12,0)" ><path fill="black" d="M172 606 L172 617 C202.667 670.333 225.667 720.667 243 766 L328 766 L328 757 C309.282 714.216 252.297 641.859 219 606 L172 606 Z " /></g></glyph>
<glyph glyph-name="ucircumflex" unicode="&#xfb;" horiz-adv-x="440" >
<path fill="black" d="M44 535 L118 535 L118 189 C118 91.6667 143.333 59 198 59 C259.333 59 288 127 288 255 L288 535 L362 535 L362 0 L300 0 L289 75 L285 75 C263.667 17.6667 222.667 -10 172 -10 C90.6667 -10 44 48.6667 44 174 L44 535 Z " /><path fill="black" d="M96 606 L96 616 C124 664 155.333 723.333 170 766 L239 766 C256.333 720.667 287.333 658.667 314 616 L314 606 L273 606 C250.333 632.667 229 667.333 205 702 C179.667 667.333 154.667 630 136 606 L96 606 Z " /></glyph>
<glyph glyph-name="udieresis" unicode="&#xfc;" horiz-adv-x="440" >
<g transform="translate(0,-11)" ><path fill="black" d="M128 626 C102.667 626 85 646 85 686 C85 724.667 102.667 743 128 743 C152 743 170 724.667 170 686 C170 644.667 152 626 128 626 Z M282 626 C256.667 626 239 646 239 686 C239 724.667 256.667 743 282 743 C306 743 324 724.667 324 686 C324 644.667 306 626 282 626 Z " /></g><path fill="black" d="M44 535 L118 535 L118 189 C118 91.6667 143.333 59 198 59 C259.333 59 288 127 288 255 L288 535 L362 535 L362 0 L300 0 L289 75 L285 75 C263.667 17.6667 222.667 -10 172 -10 C90.6667 -10 44 48.6667 44 174 L44 535 Z " /></glyph>
<glyph glyph-name="yacute" unicode="&#xfd;" horiz-adv-x="440" >
<path fill="black" d="M37 -170 C49 -172.667 65.3333 -177 80 -177 C118.667 -177 139.333 -153 158 -81 L177 -5 L24 535 L102 535 L181 220 C194.333 167.333 204.333 119.333 211 76 L213 76 C218.333 118.667 230.667 178.333 240 221 L308 535 L387 535 L232 -73 C205.333 -177 161.333 -245 88 -245 C70.6667 -245 53 -241 37 -237 L37 -170 Z " /><g transform="translate(-12,0)" ><path fill="black" d="M172 606 L172 617 C202.667 670.333 225.667 720.667 243 766 L328 766 L328 757 C309.282 714.216 252.297 641.859 219 606 L172 606 Z " /></g></glyph>
<glyph glyph-name="thorn" unicode="&#xfe;" horiz-adv-x="440" d="M48 -240 L48 757 L122 757 L122 544 C122 509.333 121.667 489.667 119 459 L122 459 C144.667 507 179.333 546 234 546 C326 546 377 453 377 269 C377 85 318.333 -10 233 -10 C181 -10 146 28.3333 122 71 L117 71 C121 44.3333 122 17.6667 122 -9 L122 -240 L48 -240 Z M122 267 C122 135 149.667 60 215 60 C271 60 300 132.667 300 270 C300 408 271 477 213 477 C147.667 477 122 408 122 288 L122 267 Z " />
<glyph glyph-name="ydieresis" unicode="&#xff;" horiz-adv-x="440" >
<g transform="translate(0,-11)" ><path fill="black" d="M128 626 C102.667 626 85 646 85 686 C85 724.667 102.667 743 128 743 C152 743 170 724.667 170 686 C170 644.667 152 626 128 626 Z M282 626 C256.667 626 239 646 239 686 C239 724.667 256.667 743 282 743 C306 743 324 724.667 324 686 C324 644.667 306 626 282 626 Z " /></g><path fill="black" d="M37 -170 C49 -172.667 65.3333 -177 80 -177 C118.667 -177 139.333 -153 158 -81 L177 -5 L24 535 L102 535 L181 220 C194.333 167.333 204.333 119.333 211 76 L213 76 C218.333 118.667 230.667 178.333 240 221 L308 535 L387 535 L232 -73 C205.333 -177 161.333 -245 88 -245 C70.6667 -245 53 -241 37 -237 L37 -170 Z " /></glyph>
<glyph glyph-name="Amacron" unicode="&#x100;" horiz-adv-x="440" >
<path fill="black" d="M155 714 L253 714 L393 0 L318 0 L277 230 L133 230 L93 0 L17 0 L155 714 Z M265 301 L222 541 C215.333 575.667 208 619.333 204 650 C200 619.333 192.667 575.667 186 541 L145 301 L265 301 Z " /><g transform="translate(1,175)" ><path fill="black" d="M103 692 L304 692 L304 633 L103 633 L103 692 Z " /></g></glyph>
<glyph glyph-name="amacron" unicode="&#x101;" horiz-adv-x="440" >
<path fill="black" d="M291 78 L289 78 C258.333 23.3333 222 -10 170 -10 C100.667 -10 49 41.3333 49 148 C49 261.333 105 313 213 317 L289 320 L289 356 C289 445.333 253.333 477 204 477 C165.333 477 129 458.667 97 436 L70 499 C114 528.333 154 546 210 546 C306 546 361 491.333 361 366 L361 0 L306 0 L291 78 Z M288 263 L232 260 C158.667 254.667 124 222 124 150 C124 86 155 59 191 59 C239.078 59 288 109.407 288 215 L288 263 Z " /><g transform="translate(13,-6)" ><path fill="black" d="M103 692 L304 692 L304 633 L103 633 L103 692 Z " /></g></glyph>
<glyph glyph-name="Abreve" unicode="&#x102;" horiz-adv-x="440" >
<path fill="black" d="M155 714 L253 714 L393 0 L318 0 L277 230 L133 230 L93 0 L17 0 L155 714 Z M265 301 L222 541 C215.333 575.667 208 619.333 204 650 C200 619.333 192.667 575.667 186 541 L145 301 L265 301 Z " /><g transform="translate(0,181)" ><path fill="black" d="M149 739 C152.333 691 171 667 205 667 C238.333 667 257 691 261 739 L307 739 C305.667 659 266.333 611 205 611 C143.667 611 105.667 653.667 103 739 L149 739 Z " /></g></glyph>
<glyph glyph-name="abreve" unicode="&#x103;" horiz-adv-x="440" >
<path fill="black" d="M291 78 L289 78 C258.333 23.3333 222 -10 170 -10 C100.667 -10 49 41.3333 49 148 C49 261.333 105 313 213 317 L289 320 L289 356 C289 445.333 253.333 477 204 477 C165.333 477 129 458.667 97 436 L70 499 C114 528.333 154 546 210 546 C306 546 361 491.333 361 366 L361 0 L306 0 L291 78 Z M288 263 L232 260 C158.667 254.667 124 222 124 150 C124 86 155 59 191 59 C239.078 59 288 109.407 288 215 L288 263 Z " /><g transform="translate(12,0)" ><path fill="black" d="M149 739 C152.333 691 171 667 205 667 C238.333 667 257 691 261 739 L307 739 C305.667 659 266.333 611 205 611 C143.667 611 105.667 653.667 103 739 L149 739 Z " /></g></glyph>
<glyph glyph-name="Aogonek" unicode="&#x104;" horiz-adv-x="440" d="M155 714 L253 714 L393 2 L401 0 C363.667 -45.3333 353 -79.6667 353 -117 C353 -151 365.333 -168 390 -168 C400.667 -168 408.333 -164.667 415 -162 L415 -215 C404.333 -220.333 390.667 -223 374 -223 C320.667 -223 294 -191.333 294 -134 C294 -83.3333 314.333 -38.6667 349 0 L318 0 L277 230 L133 230 L93 0 L17 0 L155 714 Z M265 301 L222 541 C215.333 575.667 208 619.333 204 650 C200 619.333 192.667 575.667 186 541 L145 301 L265 301 Z " />
<glyph glyph-name="aogonek" unicode="&#x105;" horiz-adv-x="440" d="M382 -215 C371.333 -220.333 357.667 -223 341 -223 C287.667 -223 261 -191.333 261 -134 C261 -83.3333 281.333 -38.6667 316 0 L308 0 L293 78 L291 78 C260.333 23.3333 224 -10 172 -10 C102.667 -10 51 41.3333 51 148 C51 261.333 107 313 215 317 L291 320 L291 356 C291 445.333 255.333 477 206 477 C167.333 477 131 458.667 99 436 L72 499 C116 528.333 156 546 212 546 C308 546 363 491.333 363 366 L363 1 L368 0 C330.667 -45.3333 320 -79.6667 320 -117 C320 -151 332.333 -168 357 -168 C367.667 -168 375.333 -164.667 382 -162 L382 -215 Z M290 263 L234 260 C160.667 254.667 126 222 126 150 C126 86 157 59 193 59 C241.078 59 290 109.407 290 215 L290 263 Z " />
<glyph glyph-name="Cacute" unicode="&#x106;" horiz-adv-x="440" >
<path fill="black" d="M370 16 C334 -2.66667 299.333 -10 250 -10 C110.494 -10 33 130.26 33 358 C33 566.97 111.407 726 257 726 C307.667 726 350.333 712 389 688 L360 622 C332 642 298.333 655 261 655 C157.866 655 109 523.874 109 357 C109 177.26 159.667 61 261 61 C301 61 335.333 73.3333 370 88 L370 16 Z " /><g transform="translate(34,179)" ><path fill="black" d="M172 606 L172 617 C202.667 670.333 225.667 720.667 243 766 L328 766 L328 757 C309.282 714.216 252.297 641.859 219 606 L172 606 Z " /></g></glyph>
<glyph glyph-name="cacute" unicode="&#x107;" horiz-adv-x="440" >
<path fill="black" d="M354 19 C322 0.333333 286.333 -10 245 -10 C131.926 -10 57 71.8442 57 264 C57 466.615 134.948 546 247 546 C289 546 327.667 536.333 363 517 L338 451 C310 471 284 477 252 477 C172 477 134 410.333 134 265 C134 123.667 174 60 250 60 C286 60 322 72.3333 354 91 L354 19 Z " /><g transform="translate(17,0)" ><path fill="black" d="M172 606 L172 617 C202.667 670.333 225.667 720.667 243 766 L328 766 L328 757 C309.282 714.216 252.297 641.859 219 606 L172 606 Z " /></g></glyph>
<glyph glyph-name="Ccircumflex" unicode="&#x108;" horiz-adv-x="440" >
<path fill="black" d="M370 16 C334 -2.66667 299.333 -10 250 -10 C110.494 -10 33 130.26 33 358 C33 566.97 111.407 726 257 726 C307.667 726 350.333 712 389 688 L360 622 C332 642 298.333 655 261 655 C157.866 655 109 523.874 109 357 C109 177.26 159.667 61 261 61 C301 61 335.333 73.3333 370 88 L370 16 Z " /><g transform="translate(46,179)" ><path fill="black" d="M96 606 L96 616 C124 664 155.333 723.333 170 766 L239 766 C256.333 720.667 287.333 658.667 314 616 L314 606 L273 606 C250.333 632.667 229 667.333 205 702 C179.667 667.333 154.667 630 136 606 L96 606 Z " /></g></glyph>
<glyph glyph-name="ccircumflex" unicode="&#x109;" horiz-adv-x="440" >
<path fill="black" d="M354 19 C322 0.333333 286.333 -10 245 -10 C131.926 -10 57 71.8442 57 264 C57 466.615 134.948 546 247 546 C289 546 327.667 536.333 363 517 L338 451 C310 471 284 477 252 477 C172 477 134 410.333 134 265 C134 123.667 174 60 250 60 C286 60 322 72.3333 354 91 L354 19 Z " /><g transform="translate(29,0)" ><path fill="black" d="M96 606 L96 616 C124 664 155.333 723.333 170 766 L239 766 C256.333 720.667 287.333 658.667 314 616 L314 606 L273 606 C250.333 632.667 229 667.333 205 702 C179.667 667.333 154.667 630 136 606 L96 606 Z " /></g></glyph>
<glyph glyph-name="Cdotaccent" unicode="&#x10a;" horiz-adv-x="440" >
<path fill="black" d="M370 16 C334 -2.66667 299.333 -10 250 -10 C110.494 -10 33 130.26 33 358 C33 566.97 111.407 726 257 726 C307.667 726 350.333 712 389 688 L360 622 C332 642 298.333 655 261 655 C157.866 655 109 523.874 109 357 C109 177.26 159.667 61 261 61 C301 61 335.333 73.3333 370 88 L370 16 Z " /><g transform="translate(47,825)" ><path fill="black" d="M204 -12 C173.333 -12 155 9 155 53 C155 95.6667 173.333 115 204 115 C233.333 115 254 97 254 53 C254 9 232 -12 204 -12 Z " /></g></glyph>
<glyph glyph-name="cdotaccent" unicode="&#x10b;" horiz-adv-x="440" >
<path fill="black" d="M354 19 C322 0.333333 286.333 -10 245 -10 C131.926 -10 57 71.8442 57 264 C57 466.615 134.948 546 247 546 C289 546 327.667 536.333 363 517 L338 451 C310 471 284 477 252 477 C172 477 134 410.333 134 265 C134 123.667 174 60 250 60 C286 60 322 72.3333 354 91 L354 19 Z " /><g transform="translate(30,646)" ><path fill="black" d="M204 -12 C173.333 -12 155 9 155 53 C155 95.6667 173.333 115 204 115 C233.333 115 254 97 254 53 C254 9 232 -12 204 -12 Z " /></g></glyph>
<glyph glyph-name="Ccaron" unicode="&#x10c;" horiz-adv-x="440" >
<path fill="black" d="M370 16 C334 -2.66667 299.333 -10 250 -10 C110.494 -10 33 130.26 33 358 C33 566.97 111.407 726 257 726 C307.667 726 350.333 712 389 688 L360 622 C332 642 298.333 655 261 655 C157.866 655 109 523.874 109 357 C109 177.26 159.667 61 261 61 C301 61 335.333 73.3333 370 88 L370 16 Z " /><g transform="translate(46,179)" ><path fill="black" d="M170 606 C152.667 650 122.667 709.333 96 756 L96 766 L136 766 C156 742 179.667 704.667 205 670 C231.667 710 247.667 730 273 766 L314 766 L314 756 C290 714.667 256.333 652.667 239 606 L170 606 Z " /></g></glyph>
<glyph glyph-name="ccaron" unicode="&#x10d;" horiz-adv-x="440" >
<path fill="black" d="M354 19 C322 0.333333 286.333 -10 245 -10 C131.926 -10 57 71.8442 57 264 C57 466.615 134.948 546 247 546 C289 546 327.667 536.333 363 517 L338 451 C310 471 284 477 252 477 C172 477 134 410.333 134 265 C134 123.667 174 60 250 60 C286 60 322 72.3333 354 91 L354 19 Z " /><g transform="translate(29,0)" ><path fill="black" d="M170 606 C152.667 650 122.667 709.333 96 756 L96 766 L136 766 C156 742 179.667 704.667 205 670 C231.667 710 247.667 730 273 766 L314 766 L314 756 C290 714.667 256.333 652.667 239 606 L170 606 Z " /></g></glyph>
<glyph glyph-name="Dcaron" unicode="&#x10e;" horiz-adv-x="440" >
<path fill="black" d="M37 0 L37 714 L193 714 C318.333 714 389 594 389 366 C389 123.333 318.333 0 181 0 L37 0 Z M111 74 L177 74 C269 74 311 173 311 365 C311 561 273.333 640 176 640 L111 640 L111 74 Z " /><g transform="translate(-12,179)" ><path fill="black" d="M170 606 C152.667 650 122.667 709.333 96 756 L96 766 L136 766 C156 742 179.667 704.667 205 670 C231.667 710 247.667 730 273 766 L314 766 L314 756 C290 714.667 256.333 652.667 239 606 L170 606 Z " /></g></glyph>
<glyph glyph-name="dcaron" unicode="&#x10f;" horiz-adv-x="440" d="M267 75 L264 75 C242.667 28.3333 209.667 -10 159 -10 C75 -10 25 85.3333 25 264 C25 450.667 79 546 163 546 C212.333 546 242.667 509.333 264 464 L268 464 C265.333 492 263 518.333 263 545 L263 760 L337 760 L337 0 L279 0 L267 75 Z M265 269 C265 397 245 477 185 477 C125 477 101 405 101 261 C101 125 122 60 182 60 C244.667 60 265 133.667 265 247 L265 269 Z M362 600 L362 608 C369.98 637.259 380.325 722.554 383 760 L459 760 L459 753 C450.882 712.411 425.944 639.27 405 600 L362 600 Z " />
<glyph glyph-name="Dcroat" unicode="&#x110;" horiz-adv-x="440" >
<path fill="black" d="M47 333 L2 333 L2 402 L47 402 L47 714 L203 714 C328.333 714 399 594 399 366 C399 123.333 328.333 0 191 0 L47 0 L47 333 Z M187 74 C279 74 321 173 321 365 C321 561 283.333 640 186 640 L121 640 L121 402 L232 402 L232 333 L121 333 L121 74 L187 74 Z " /></glyph>
<glyph glyph-name="dcroat" unicode="&#x111;" horiz-adv-x="440" d="M292 75 L289 75 C267.667 28.3333 233.667 -10 179 -10 C88.3333 -10 33 82.3333 33 261 C33 445 88 542 180 542 C232 542 266.333 504.333 289 459 L294 459 C291.333 483 288 517.333 288 540 L288 607 L154 607 L154 669 L288 669 L288 760 L361 760 L361 669 L408 669 L408 607 L361 607 L361 0 L304 0 L292 75 Z M202 60 C267.333 60 290 128.667 290 242 L290 264 C290 394.667 270.667 472 204 472 C137.333 472 109 398 109 254 C109 124.667 134 60 202 60 Z " />
<glyph glyph-name="Emacron" unicode="&#x112;" horiz-adv-x="440" >
<path fill="black" d="M361 74 L361 0 L53 0 L53 714 L361 714 L361 640 L128 640 L128 407 L347 407 L347 333 L128 333 L128 74 L361 74 Z " /><g transform="translate(1,173)" ><path fill="black" d="M103 692 L304 692 L304 633 L103 633 L103 692 Z " /></g></glyph>
<glyph glyph-name="emacron" unicode="&#x113;" horiz-adv-x="440" >
<path fill="black" d="M356 27 C317.333 1.66667 281 -10 233 -10 C110.333 -10 36 88 36 264 C36 438.667 101 546 209 546 C313 546 373 445.433 373 303 L373 251 L112 251 C114.667 123.667 156 60 236 60 C281.333 60 316 74.6667 356 100 L356 27 Z M208 477 C152 477 119.333 420.667 114 318 L300 318 C298.667 411.333 268 477 208 477 Z " /><g transform="translate(5,-6)" ><path fill="black" d="M103 692 L304 692 L304 633 L103 633 L103 692 Z " /></g></glyph>
<glyph glyph-name="Ebreve" unicode="&#x114;" horiz-adv-x="440" >
<path fill="black" d="M361 74 L361 0 L53 0 L53 714 L361 714 L361 640 L128 640 L128 407 L347 407 L347 333 L128 333 L128 74 L361 74 Z " /><g transform="translate(0,179)" ><path fill="black" d="M149 739 C152.333 691 171 667 205 667 C238.333 667 257 691 261 739 L307 739 C305.667 659 266.333 611 205 611 C143.667 611 105.667 653.667 103 739 L149 739 Z " /></g></glyph>
<glyph glyph-name="ebreve" unicode="&#x115;" horiz-adv-x="440" >
<path fill="black" d="M356 27 C317.333 1.66667 281 -10 233 -10 C110.333 -10 36 88 36 264 C36 438.667 101 546 209 546 C313 546 373 445.433 373 303 L373 251 L112 251 C114.667 123.667 156 60 236 60 C281.333 60 316 74.6667 356 100 L356 27 Z M208 477 C152 477 119.333 420.667 114 318 L300 318 C298.667 411.333 268 477 208 477 Z " /><g transform="translate(4,0)" ><path fill="black" d="M149 739 C152.333 691 171 667 205 667 C238.333 667 257 691 261 739 L307 739 C305.667 659 266.333 611 205 611 C143.667 611 105.667 653.667 103 739 L149 739 Z " /></g></glyph>
<glyph glyph-name="Edotaccent" unicode="&#x116;" horiz-adv-x="440" >
<path fill="black" d="M361 74 L361 0 L53 0 L53 714 L361 714 L361 640 L128 640 L128 407 L347 407 L347 333 L128 333 L128 74 L361 74 Z " /><g transform="translate(1,825)" ><path fill="black" d="M204 -12 C173.333 -12 155 9 155 53 C155 95.6667 173.333 115 204 115 C233.333 115 254 97 254 53 C254 9 232 -12 204 -12 Z " /></g></glyph>
<glyph glyph-name="edotaccent" unicode="&#x117;" horiz-adv-x="440" >
<path fill="black" d="M356 27 C317.333 1.66667 281 -10 233 -10 C110.333 -10 36 88 36 264 C36 438.667 101 546 209 546 C313 546 373 445.433 373 303 L373 251 L112 251 C114.667 123.667 156 60 236 60 C281.333 60 316 74.6667 356 100 L356 27 Z M208 477 C152 477 119.333 420.667 114 318 L300 318 C298.667 411.333 268 477 208 477 Z " /><g transform="translate(5,646)" ><path fill="black" d="M204 -12 C173.333 -12 155 9 155 53 C155 95.6667 173.333 115 204 115 C233.333 115 254 97 254 53 C254 9 232 -12 204 -12 Z " /></g></glyph>
<glyph glyph-name="Eogonek" unicode="&#x118;" horiz-adv-x="440" d="M55 714 L363 714 L363 640 L130 640 L130 407 L349 407 L349 333 L130 333 L130 74 L363 74 L363 0 L351 0 C313.667 -45.3333 303 -79.6667 303 -117 C303 -151 315.333 -168 340 -168 C350.667 -168 358.333 -164.667 365 -162 L365 -215 C354.333 -220.333 340.667 -223 324 -223 C270.667 -223 244 -191.333 244 -134 C244 -83.3333 264.333 -38.6667 299 0 L55 0 L55 714 Z " />
<glyph glyph-name="eogonek" unicode="&#x119;" horiz-adv-x="440" d="M361 -215 C351.667 -220.333 338.667 -223 322 -223 C266 -223 240 -181 240 -117 C240 -74.3333 254 -37.6667 274 -7 C262 -9 248.667 -10 234 -10 C111.333 -10 37 88 37 264 C37 438.667 102 546 210 546 C314 546 374 445.433 374 303 L374 251 L113 251 C115.667 123.667 157 60 237 60 C282.333 60 317 74.6667 357 100 L357 27 C354.333 25.6667 352.667 24.6667 352 24 C314.667 -14.6667 299 -65.3333 299 -108 C299 -144 310.333 -168 337 -168 C346.333 -168 354.333 -164.667 361 -162 L361 -215 Z M209 477 C153 477 120.333 420.667 115 318 L301 318 C299.667 411.333 269 477 209 477 Z " />
<glyph glyph-name="Ecaron" unicode="&#x11a;" horiz-adv-x="440" >
<path fill="black" d="M361 74 L361 0 L53 0 L53 714 L361 714 L361 640 L128 640 L128 407 L347 407 L347 333 L128 333 L128 74 L361 74 Z " /><g transform="translate(0,179)" ><path fill="black" d="M170 606 C152.667 650 122.667 709.333 96 756 L96 766 L136 766 C156 742 179.667 704.667 205 670 C231.667 710 247.667 730 273 766 L314 766 L314 756 C290 714.667 256.333 652.667 239 606 L170 606 Z " /></g></glyph>
<glyph glyph-name="ecaron" unicode="&#x11b;" horiz-adv-x="440" >
<path fill="black" d="M356 27 C317.333 1.66667 281 -10 233 -10 C110.333 -10 36 88 36 264 C36 438.667 101 546 209 546 C313 546 373 445.433 373 303 L373 251 L112 251 C114.667 123.667 156 60 236 60 C281.333 60 316 74.6667 356 100 L356 27 Z M208 477 C152 477 119.333 420.667 114 318 L300 318 C298.667 411.333 268 477 208 477 Z " /><g transform="translate(4,0)" ><path fill="black" d="M170 606 C152.667 650 122.667 709.333 96 756 L96 766 L136 766 C156 742 179.667 704.667 205 670 C231.667 710 247.667 730 273 766 L314 766 L314 756 C290 714.667 256.333 652.667 239 606 L170 606 Z " /></g></glyph>
<glyph glyph-name="Gcircumflex" unicode="&#x11c;" horiz-adv-x="440" >
<path fill="black" d="M298 301 L221 301 L221 375 L371 375 L371 25 C323 2.33333 282.333 -10 233 -10 C83.7706 -10 21 147.182 21 359 C21 572.463 93 726 237 726 C287.667 726 334.333 712.667 373 682 L345 617 C309 645 280 655 240 655 C146.667 655 97 547.667 97 357 C97 191.667 139.359 61 230 61 C256.667 61 276.667 66.3333 298 77 L298 301 Z " /><g transform="translate(19,179)" ><path fill="black" d="M96 606 L96 616 C124 664 155.333 723.333 170 766 L239 766 C256.333 720.667 287.333 658.667 314 616 L314 606 L273 606 C250.333 632.667 229 667.333 205 702 C179.667 667.333 154.667 630 136 606 L96 606 Z " /></g></glyph>
<glyph glyph-name="gcircumflex" unicode="&#x11d;" horiz-adv-x="440" >
<path fill="black" d="M62 -135 C100.667 -160.333 151 -175 187 -175 C256.333 -175 288 -116.667 288 -22 L288 6 C288 23.3333 288.333 59.3333 291 74 L288 74 C263.333 18.6667 227.667 -9 181 -9 C87.6667 -9 33 90.3333 33 265 C33 438.307 87.6667 546 181 546 C226.333 546 262.667 518.333 290 463 L294 463 L301 535 L361 535 L361 -15 C361 -168.333 303 -245 187 -245 C141.667 -245 100 -233.667 62 -211 L62 -135 Z M291 270 C291 411.333 265 477 205 477 C141 477 110 402 110 266 C110 130 140.667 60 206 60 C262.667 60 291 121.667 291 245 L291 270 Z " /><path fill="black" d="M96 606 L96 616 C124 664 155.333 723.333 170 766 L239 766 C256.333 720.667 287.333 658.667 314 616 L314 606 L273 606 C250.333 632.667 229 667.333 205 702 C179.667 667.333 154.667 630 136 606 L96 606 Z " /></glyph>
<glyph glyph-name="Gbreve" unicode="&#x11e;" horiz-adv-x="440" >
<path fill="black" d="M298 301 L221 301 L221 375 L371 375 L371 25 C323 2.33333 282.333 -10 233 -10 C83.7706 -10 21 147.182 21 359 C21 572.463 93 726 237 726 C287.667 726 334.333 712.667 373 682 L345 617 C309 645 280 655 240 655 C146.667 655 97 547.667 97 357 C97 191.667 139.359 61 230 61 C256.667 61 276.667 66.3333 298 77 L298 301 Z " /><g transform="translate(19,179)" ><path fill="black" d="M149 739 C152.333 691 171 667 205 667 C238.333 667 257 691 261 739 L307 739 C305.667 659 266.333 611 205 611 C143.667 611 105.667 653.667 103 739 L149 739 Z " /></g></glyph>
<glyph glyph-name="gbreve" unicode="&#x11f;" horiz-adv-x="440" >
<path fill="black" d="M62 -135 C100.667 -160.333 151 -175 187 -175 C256.333 -175 288 -116.667 288 -22 L288 6 C288 23.3333 288.333 59.3333 291 74 L288 74 C263.333 18.6667 227.667 -9 181 -9 C87.6667 -9 33 90.3333 33 265 C33 438.307 87.6667 546 181 546 C226.333 546 262.667 518.333 290 463 L294 463 L301 535 L361 535 L361 -15 C361 -168.333 303 -245 187 -245 C141.667 -245 100 -233.667 62 -211 L62 -135 Z M291 270 C291 411.333 265 477 205 477 C141 477 110 402 110 266 C110 130 140.667 60 206 60 C262.667 60 291 121.667 291 245 L291 270 Z " /><path fill="black" d="M149 739 C152.333 691 171 667 205 667 C238.333 667 257 691 261 739 L307 739 C305.667 659 266.333 611 205 611 C143.667 611 105.667 653.667 103 739 L149 739 Z " /></glyph>
<glyph glyph-name="Gdotaccent" unicode="&#x120;" horiz-adv-x="440" >
<path fill="black" d="M298 301 L221 301 L221 375 L371 375 L371 25 C323 2.33333 282.333 -10 233 -10 C83.7706 -10 21 147.182 21 359 C21 572.463 93 726 237 726 C287.667 726 334.333 712.667 373 682 L345 617 C309 645 280 655 240 655 C146.667 655 97 547.667 97 357 C97 191.667 139.359 61 230 61 C256.667 61 276.667 66.3333 298 77 L298 301 Z " /><g transform="translate(20,825)" ><path fill="black" d="M204 -12 C173.333 -12 155 9 155 53 C155 95.6667 173.333 115 204 115 C233.333 115 254 97 254 53 C254 9 232 -12 204 -12 Z " /></g></glyph>
<glyph glyph-name="gdotaccent" unicode="&#x121;" horiz-adv-x="440" >
<path fill="black" d="M62 -135 C100.667 -160.333 151 -175 187 -175 C256.333 -175 288 -116.667 288 -22 L288 6 C288 23.3333 288.333 59.3333 291 74 L288 74 C263.333 18.6667 227.667 -9 181 -9 C87.6667 -9 33 90.3333 33 265 C33 438.307 87.6667 546 181 546 C226.333 546 262.667 518.333 290 463 L294 463 L301 535 L361 535 L361 -15 C361 -168.333 303 -245 187 -245 C141.667 -245 100 -233.667 62 -211 L62 -135 Z M291 270 C291 411.333 265 477 205 477 C141 477 110 402 110 266 C110 130 140.667 60 206 60 C262.667 60 291 121.667 291 245 L291 270 Z " /><g transform="translate(1,646)" ><path fill="black" d="M204 -12 C173.333 -12 155 9 155 53 C155 95.6667 173.333 115 204 115 C233.333 115 254 97 254 53 C254 9 232 -12 204 -12 Z " /></g></glyph>
<glyph glyph-name="uni0122" unicode="&#x122;" horiz-adv-x="440" >
<path fill="black" d="M298 301 L221 301 L221 375 L371 375 L371 25 C323 2.33333 282.333 -10 233 -10 C83.7706 -10 21 147.182 21 359 C21 572.463 93 726 237 726 C287.667 726 334.333 712.667 373 682 L345 617 C309 645 280 655 240 655 C146.667 655 97 547.667 97 357 C97 191.667 139.359 61 230 61 C256.667 61 276.667 66.3333 298 77 L298 301 Z " /><g transform="translate(669,0)" ><path fill="black" d="M-503 -221 L-503 -210 C-494.872 -174.777 -480.222 -102.777 -475 -61 L-401 -61 L-401 -69 C-408.977 -111.545 -435.51 -180.184 -460 -221 L-503 -221 Z " /></g></glyph>
<glyph glyph-name="uni0123" unicode="&#x123;" horiz-adv-x="440" d="M64 -135 C102.667 -160.333 153 -175 189 -175 C258.333 -175 290 -116.667 290 -22 L290 6 C290 23.3333 290.333 59.3333 293 74 L290 74 C265.333 18.6667 229.667 -9 183 -9 C89.6667 -9 35 90.3333 35 265 C35 438.307 89.6667 546 183 546 C228.333 546 264.667 518.333 292 463 L296 463 L303 535 L363 535 L363 -15 C363 -168.333 305 -245 189 -245 C143.667 -245 102 -233.667 64 -211 L64 -135 Z M293 270 C293 411.333 267 477 207 477 C143 477 112 402 112 266 C112 130 142.667 60 208 60 C264.667 60 293 121.667 293 245 L293 270 Z M152 606 L152 614 C159.936 656.324 187.301 723.281 214 766 L257 766 L257 755 C246.081 719.514 229.639 645.578 227 606 L152 606 Z " />
<glyph glyph-name="Hcircumflex" unicode="&#x124;" horiz-adv-x="440" >
<path fill="black" d="M37 0 L37 714 L112 714 L112 406 L299 406 L299 714 L373 714 L373 0 L299 0 L299 332 L112 332 L112 0 L37 0 Z " /><g transform="translate(0,179)" ><path fill="black" d="M96 606 L96 616 C124 664 155.333 723.333 170 766 L239 766 C256.333 720.667 287.333 658.667 314 616 L314 606 L273 606 C250.333 632.667 229 667.333 205 702 C179.667 667.333 154.667 630 136 606 L96 606 Z " /></g></glyph>
<glyph glyph-name="hcircumflex" unicode="&#x125;" horiz-adv-x="440" >
<path fill="black" d="M48 0 L48 760 L122 760 L122 529 C122 506.333 120.667 482.667 118 460 L123 460 C144.333 510.667 177 546 233 546 C310.333 546 366 485.667 366 351 L366 0 L292 0 L292 335 C292 429.667 270 477 214 477 C150 477 122 406.333 122 281 L122 0 L48 0 Z " /><g transform="translate(-121,225)" ><path fill="black" d="M96 606 L96 616 C124 664 155.333 723.333 170 766 L239 766 C256.333 720.667 287.333 658.667 314 616 L314 606 L273 606 C250.333 632.667 229 667.333 205 702 C179.667 667.333 154.667 630 136 606 L96 606 Z " /></g></glyph>
<glyph glyph-name="Hbar" unicode="&#x126;" horiz-adv-x="440" d="M38 529 L2 529 L2 593 L38 593 L38 714 L113 714 L113 593 L297 593 L297 714 L372 714 L372 593 L408 593 L408 529 L372 529 L372 0 L297 0 L297 332 L113 332 L113 0 L38 0 L38 529 Z M297 406 L297 529 L113 529 L113 406 L297 406 Z " />
<glyph glyph-name="hbar" unicode="&#x127;" horiz-adv-x="440" d="M48 607 L2 607 L2 669 L48 669 L48 760 L122 760 L122 669 L256 669 L256 607 L122 607 L122 529 C122 506.333 119.333 482.667 118 460 L122 460 C144.667 510.667 177 546 233 546 C310.333 546 366 485.667 366 351 L366 0 L292 0 L292 335 C292 429.667 268.667 477 214 477 C150 477 122 406.333 122 281 L122 0 L48 0 L48 607 Z " />
<glyph glyph-name="Itilde" unicode="&#x128;" horiz-adv-x="440" >
<path fill="black" d="M61 56 L168 66 L168 648 L61 658 L61 714 L349 714 L349 658 L241 648 L241 66 L349 56 L349 0 L61 0 L61 56 Z " /><g transform="translate(0,179)" ><path fill="black" d="M83 610 C88.2515 673.018 103.167 730 151 730 C191 730 225.667 672 255 672 C273.667 672 277.667 695 283 731 L327 731 C323 652.333 296.333 611 259 611 C220.431 611 180.765 670 156 670 C138.667 670 131.333 648.667 126 610 L83 610 Z " /></g></glyph>
<glyph glyph-name="itilde" unicode="&#x129;" horiz-adv-x="410" >
<path fill="black" d="M59 56 L174 66 L174 466 L65 479 L65 535 L248 535 L248 66 L350 56 L350 0 L59 0 L59 56 Z " /><path fill="black" d="M83 610 C88.2515 673.018 103.167 730 151 730 C191 730 225.667 672 255 672 C273.667 672 277.667 695 283 731 L327 731 C323 652.333 296.333 611 259 611 C220.431 611 180.765 670 156 670 C138.667 670 131.333 648.667 126 610 L83 610 Z " /></glyph>
<glyph glyph-name="Imacron" unicode="&#x12a;" horiz-adv-x="440" >
<path fill="black" d="M61 56 L168 66 L168 648 L61 658 L61 714 L349 714 L349 658 L241 648 L241 66 L349 56 L349 0 L61 0 L61 56 Z " /><g transform="translate(1,173)" ><path fill="black" d="M103 692 L304 692 L304 633 L103 633 L103 692 Z " /></g></glyph>
<glyph glyph-name="imacron" unicode="&#x12b;" horiz-adv-x="410" >
<path fill="black" d="M59 56 L174 66 L174 466 L65 479 L65 535 L248 535 L248 66 L350 56 L350 0 L59 0 L59 56 Z " /><g transform="translate(1,-6)" ><path fill="black" d="M103 692 L304 692 L304 633 L103 633 L103 692 Z " /></g></glyph>
<glyph glyph-name="Ibreve" unicode="&#x12c;" horiz-adv-x="440" >
<path fill="black" d="M61 56 L168 66 L168 648 L61 658 L61 714 L349 714 L349 658 L241 648 L241 66 L349 56 L349 0 L61 0 L61 56 Z " /><g transform="translate(0,179)" ><path fill="black" d="M149 739 C152.333 691 171 667 205 667 C238.333 667 257 691 261 739 L307 739 C305.667 659 266.333 611 205 611 C143.667 611 105.667 653.667 103 739 L149 739 Z " /></g></glyph>
<glyph glyph-name="ibreve" unicode="&#x12d;" horiz-adv-x="410" >
<path fill="black" d="M59 56 L174 66 L174 466 L65 479 L65 535 L248 535 L248 66 L350 56 L350 0 L59 0 L59 56 Z " /><path fill="black" d="M149 739 C152.333 691 171 667 205 667 C238.333 667 257 691 261 739 L307 739 C305.667 659 266.333 611 205 611 C143.667 611 105.667 653.667 103 739 L149 739 Z " /></glyph>
<glyph glyph-name="Iogonek" unicode="&#x12e;" horiz-adv-x="440" d="M63 56 L170 66 L170 648 L63 658 L63 714 L351 714 L351 658 L243 648 L243 66 L351 56 L351 0 L278 0 C240.667 -45.3333 230 -79.6667 230 -117 C230 -151 242.333 -168 267 -168 C277.667 -168 285.333 -164.667 292 -162 L292 -215 C281.333 -220.333 267.667 -223 251 -223 C197.667 -223 171 -191.333 171 -134 C171 -83.3333 191.333 -38.6667 226 0 L63 0 L63 56 Z " />
<glyph glyph-name="iogonek" unicode="&#x12f;" horiz-adv-x="440" d="M61 56 L176 66 L176 466 L67 479 L67 535 L250 535 L250 66 L352 56 L352 0 L283 0 C245.667 -45.3333 235 -79.6667 235 -117 C235 -151 247.333 -168 272 -168 C282.667 -168 290.333 -164.667 297 -162 L297 -215 C286.333 -220.333 272.667 -223 256 -223 C202.667 -223 176 -191.333 176 -134 C176 -83.3333 196.333 -38.6667 231 0 L61 0 L61 56 Z M209 635 C178.333 635 160 656 160 700 C160 742.667 178.333 762 209 762 C238.333 762 259 744 259 700 C259 656 237 635 209 635 Z " />
<glyph glyph-name="Idotaccent" unicode="&#x130;" horiz-adv-x="440" >
<path fill="black" d="M61 56 L168 66 L168 648 L61 658 L61 714 L349 714 L349 658 L241 648 L241 66 L349 56 L349 0 L61 0 L61 56 Z " /><g transform="translate(1,825)" ><path fill="black" d="M204 -12 C173.333 -12 155 9 155 53 C155 95.6667 173.333 115 204 115 C233.333 115 254 97 254 53 C254 9 232 -12 204 -12 Z " /></g></glyph>
<glyph glyph-name="dotlessi" unicode="&#x131;" horiz-adv-x="410" d="M59 56 L174 66 L174 466 L65 479 L65 535 L248 535 L248 66 L350 56 L350 0 L59 0 L59 56 Z " />
<glyph glyph-name="IJ" unicode="&#x132;" horiz-adv-x="440" d="M77 97 C95.7871 86.2645 140.955 65 180 65 C233.333 65 267 106.333 267 217 L267 714 L342 714 L342 205 C342 66.3333 290 -10 190 -10 C151.333 -10 102.333 1.33333 77 20 L77 97 Z M75 178 L75 714 L150 714 L150 178 L75 178 Z " />
<glyph glyph-name="ij" unicode="&#x133;" horiz-adv-x="440" d="M88 -157 C114.667 -166.333 153.333 -176 180 -176 C234.667 -176 262 -138.333 262 -69 L262 535 L336 535 L336 -64 C336 -188 285 -245 185 -245 C151.667 -245 116 -238.667 88 -228 L88 -157 Z M75 0 L75 536 L150 536 L150 0 L75 0 Z M113 634 C82.3333 634 64 655 64 699 C64 741.667 82.3333 761 113 761 C142.333 761 163 743 163 699 C163 655 141 634 113 634 Z M297 634 C266.333 634 248 655 248 699 C248 741.667 266.333 761 297 761 C326.333 761 347 743 347 699 C347 655 325 634 297 634 Z " />
<glyph glyph-name="Jcircumflex" unicode="&#x134;" horiz-adv-x="440" >
<path fill="black" d="M42 92 C72.6667 72 107.667 61 137 61 C209 61 249 117 249 217 L249 714 L323 714 L323 202 C323 76.6667 261.359 -10 144 -10 C105.333 -10 68.6667 0.333333 42 19 L42 92 Z " /><g transform="translate(80,179)" ><path fill="black" d="M96 606 L96 616 C124 664 155.333 723.333 170 766 L239 766 C256.333 720.667 287.333 658.667 314 616 L314 606 L273 606 C250.333 632.667 229 667.333 205 702 C179.667 667.333 154.667 630 136 606 L96 606 Z " /></g></glyph>
<glyph glyph-name="jcircumflex" unicode="&#x135;" horiz-adv-x="410" >
<path fill="black" d="M37 -157 C63.6667 -166.333 101.333 -176 128 -176 C178.667 -176 206 -138.333 206 -69 L206 466 L68 479 L68 535 L279 535 L279 -64 C279 -188 229 -245 133 -245 C101 -245 63.6667 -238.667 37 -228 L37 -157 Z " /><g transform="translate(33,0)" ><path fill="black" d="M96 606 L96 616 C124 664 155.333 723.333 170 766 L239 766 C256.333 720.667 287.333 658.667 314 616 L314 606 L273 606 C250.333 632.667 229 667.333 205 702 C179.667 667.333 154.667 630 136 606 L96 606 Z " /></g></glyph>
<glyph glyph-name="uni0136" unicode="&#x136;" horiz-adv-x="440" >
<path fill="black" d="M37 0 L37 714 L110 714 L110 352 C128.667 382.667 147.333 418.667 174 468 L298 714 L382 714 L215 395 L389 0 L306 0 L163 338 L110 266 L110 0 L37 0 Z " /><g transform="translate(652,0)" ><path fill="black" d="M-503 -221 L-503 -210 C-494.872 -174.777 -480.222 -102.777 -475 -61 L-401 -61 L-401 -69 C-408.977 -111.545 -435.51 -180.184 -460 -221 L-503 -221 Z " /></g></glyph>
<glyph glyph-name="uni0137" unicode="&#x137;" horiz-adv-x="440" >
<path fill="black" d="M53 0 L53 760 L125 760 L125 408 C125 360 122.667 321.667 120 271 L121 271 C135.667 295 146 315.333 162 338 L293 535 L382 535 L218 304 L391 0 L304 0 L168 245 L125 200 L125 0 L53 0 Z " /><g transform="translate(662,0)" ><path fill="black" d="M-503 -221 L-503 -210 C-494.872 -174.777 -480.222 -102.777 -475 -61 L-401 -61 L-401 -69 C-408.977 -111.545 -435.51 -180.184 -460 -221 L-503 -221 Z " /></g></glyph>
<glyph glyph-name="kgreenlandic" unicode="&#x138;" horiz-adv-x="440" d="M51 0 L51 535 L125 535 L125 408 C125 360 123 321.667 119 271 L120 271 C134.667 295 146 315.333 162 338 L292 535 L382 535 L218 304 L391 0 L303 0 L167 245 L125 200 L125 0 L51 0 Z " />
<glyph glyph-name="Lacute" unicode="&#x139;" horiz-adv-x="440" >
<path fill="black" d="M361 76 L361 0 L61 0 L61 714 L136 714 L136 76 L361 76 Z " /><g transform="translate(-117,179)" ><path fill="black" d="M172 606 L172 617 C202.667 670.333 225.667 720.667 243 766 L328 766 L328 757 C309.282 714.216 252.297 641.859 219 606 L172 606 Z " /></g></glyph>
<glyph glyph-name="lacute" unicode="&#x13a;" horiz-adv-x="440" >
<path fill="black" d="M59 56 L169 66 L169 694 L64 704 L64 760 L243 760 L243 66 L350 56 L350 0 L59 0 L59 56 Z " /><g transform="translate(-12,225)" ><path fill="black" d="M172 606 L172 617 C202.667 670.333 225.667 720.667 243 766 L328 766 L328 757 C309.282 714.216 252.297 641.859 219 606 L172 606 Z " /></g></glyph>
<glyph glyph-name="uni013B" unicode="&#x13b;" horiz-adv-x="440" >
<path fill="black" d="M361 76 L361 0 L61 0 L61 714 L136 714 L136 76 L361 76 Z " /><g transform="translate(661,0)" ><path fill="black" d="M-503 -221 L-503 -210 C-494.872 -174.777 -480.222 -102.777 -475 -61 L-401 -61 L-401 -69 C-408.977 -111.545 -435.51 -180.184 -460 -221 L-503 -221 Z " /></g></glyph>
<glyph glyph-name="uni013C" unicode="&#x13c;" horiz-adv-x="440" >
<path fill="black" d="M59 56 L169 66 L169 694 L64 704 L64 760 L243 760 L243 66 L350 56 L350 0 L59 0 L59 56 Z " /><g transform="translate(647,0)" ><path fill="black" d="M-503 -221 L-503 -210 C-494.872 -174.777 -480.222 -102.777 -475 -61 L-401 -61 L-401 -69 C-408.977 -111.545 -435.51 -180.184 -460 -221 L-503 -221 Z " /></g></glyph>
<glyph glyph-name="Lcaron" unicode="&#x13d;" horiz-adv-x="440" >
<g transform="translate(1,0)" ><path fill="black" d="M361 76 L361 0 L61 0 L61 714 L136 714 L136 76 L361 76 Z " /></g><g transform="translate(347,0)" ><path fill="black" d="M-47 554 L-47 562 C-39.0201 591.259 -28.6747 676.554 -26 714 L50 714 L50 707 C41.8822 666.411 16.9441 593.27 -4 554 L-47 554 Z " /></g></glyph>
<glyph glyph-name="lcaron" unicode="&#x13e;" horiz-adv-x="440" >
<g transform="translate(1,0)" ><path fill="black" d="M59 56 L169 66 L169 694 L64 704 L64 760 L243 760 L243 66 L350 56 L350 0 L59 0 L59 56 Z " /></g><g transform="translate(366,46)" ><path fill="black" d="M-47 554 L-47 562 C-39.0201 591.259 -28.6747 676.554 -26 714 L50 714 L50 707 C41.8822 666.411 16.9441 593.27 -4 554 L-47 554 Z " /></g></glyph>
<glyph glyph-name="Ldot" unicode="&#x13f;" horiz-adv-x="440" >
<g transform="translate(2,0)" ><path fill="black" d="M361 76 L361 0 L61 0 L61 714 L136 714 L136 76 L361 76 Z " /></g><g transform="translate(114,323)" ><path fill="black" d="M204 -12 C173.333 -12 155 9 155 53 C155 95.6667 173.333 115 204 115 C233.333 115 254 97 254 53 C254 9 232 -12 204 -12 Z " /></g></glyph>
<glyph glyph-name="ldot" unicode="&#x140;" horiz-adv-x="440" >
<path fill="black" d="M59 56 L169 66 L169 694 L64 704 L64 760 L243 760 L243 66 L350 56 L350 0 L59 0 L59 56 Z " /><g transform="translate(208,346)" ><path fill="black" d="M204 -12 C173.333 -12 155 9 155 53 C155 95.6667 173.333 115 204 115 C233.333 115 254 97 254 53 C254 9 232 -12 204 -12 Z " /></g></glyph>
<glyph glyph-name="Lslash" unicode="&#x141;" horiz-adv-x="440" d="M61 325 L5 289 L5 350 L61 386 L61 714 L136 714 L136 435 L262 517 L262 456 L136 374 L136 76 L361 76 L361 0 L61 0 L61 325 Z " />
<glyph glyph-name="lslash" unicode="&#x142;" horiz-adv-x="440" d="M61 56 L171 66 L171 344 L86 289 L86 350 L171 405 L171 694 L66 704 L66 760 L245 760 L245 453 L343 517 L343 456 L245 392 L245 66 L352 56 L352 0 L61 0 L61 56 Z " />
<glyph glyph-name="Nacute" unicode="&#x143;" horiz-adv-x="440" >
<path fill="black" d="M37 0 L37 714 L139 714 L310 84 L315 84 C312.444 107.005 305 187.944 305 251 L305 714 L373 714 L373 0 L275 0 L100 633 L95 633 C99 573 103 516 103 444 L103 0 L37 0 Z " /><g transform="translate(-8,179)" ><path fill="black" d="M172 606 L172 617 C202.667 670.333 225.667 720.667 243 766 L328 766 L328 757 C309.282 714.216 252.297 641.859 219 606 L172 606 Z " /></g></glyph>
<glyph glyph-name="nacute" unicode="&#x144;" horiz-adv-x="440" >
<path fill="black" d="M48 0 L48 535 L109 535 L119 461 L123 461 C145.667 517 186.333 546 237 546 C319.667 546 366 488.333 366 351 L366 0 L292 0 L292 347 C292 433.667 268 477 220 477 C156 477 122 407.667 122 281 L122 0 L48 0 Z " /><g transform="translate(-3,0)" ><path fill="black" d="M172 606 L172 617 C202.667 670.333 225.667 720.667 243 766 L328 766 L328 757 C309.282 714.216 252.297 641.859 219 606 L172 606 Z " /></g></glyph>
<glyph glyph-name="uni0145" unicode="&#x145;" horiz-adv-x="440" >
<path fill="black" d="M37 0 L37 714 L139 714 L310 84 L315 84 C312.444 107.005 305 187.944 305 251 L305 714 L373 714 L373 0 L275 0 L100 633 L95 633 C99 573 103 516 103 444 L103 0 L37 0 Z " /><g transform="translate(645,0)" ><path fill="black" d="M-503 -221 L-503 -210 C-494.872 -174.777 -480.222 -102.777 -475 -61 L-401 -61 L-401 -69 C-408.977 -111.545 -435.51 -180.184 -460 -221 L-503 -221 Z " /></g></glyph>
<glyph glyph-name="uni0146" unicode="&#x146;" horiz-adv-x="440" >
<path fill="black" d="M48 0 L48 535 L109 535 L119 461 L123 461 C145.667 517 186.333 546 237 546 C319.667 546 366 488.333 366 351 L366 0 L292 0 L292 347 C292 433.667 268 477 220 477 C156 477 122 407.667 122 281 L122 0 L48 0 Z " /><g transform="translate(649,0)" ><path fill="black" d="M-503 -221 L-503 -210 C-494.872 -174.777 -480.222 -102.777 -475 -61 L-401 -61 L-401 -69 C-408.977 -111.545 -435.51 -180.184 -460 -221 L-503 -221 Z " /></g></glyph>
<glyph glyph-name="Ncaron" unicode="&#x147;" horiz-adv-x="440" >
<path fill="black" d="M37 0 L37 714 L139 714 L310 84 L315 84 C312.444 107.005 305 187.944 305 251 L305 714 L373 714 L373 0 L275 0 L100 633 L95 633 C99 573 103 516 103 444 L103 0 L37 0 Z " /><g transform="translate(4,179)" ><path fill="black" d="M170 606 C152.667 650 122.667 709.333 96 756 L96 766 L136 766 C156 742 179.667 704.667 205 670 C231.667 710 247.667 730 273 766 L314 766 L314 756 C290 714.667 256.333 652.667 239 606 L170 606 Z " /></g></glyph>
<glyph glyph-name="ncaron" unicode="&#x148;" horiz-adv-x="440" >
<path fill="black" d="M48 0 L48 535 L109 535 L119 461 L123 461 C145.667 517 186.333 546 237 546 C319.667 546 366 488.333 366 351 L366 0 L292 0 L292 347 C292 433.667 268 477 220 477 C156 477 122 407.667 122 281 L122 0 L48 0 Z " /><g transform="translate(9,0)" ><path fill="black" d="M170 606 C152.667 650 122.667 709.333 96 756 L96 766 L136 766 C156 742 179.667 704.667 205 670 C231.667 710 247.667 730 273 766 L314 766 L314 756 C290 714.667 256.333 652.667 239 606 L170 606 Z " /></g></glyph>
<glyph glyph-name="napostrophe" unicode="&#x149;" horiz-adv-x="440" d="M57 0 L57 535 L117 535 L127 461 L132 461 C153.333 517 192.333 546 243 546 C320.333 546 366 488.333 366 351 L366 0 L292 0 L292 347 C292 432.333 265 477 217 477 C155.667 477 130 407.667 130 281 L130 0 L57 0 Z M-54 469 C-38 549 -23.3333 644.667 -18 714 L57 714 L63 703 C48.3333 621 28 543 2 469 L-54 469 Z " />
<glyph glyph-name="Eng" unicode="&#x14a;" horiz-adv-x="440" d="M181 -121 C197.667 -127.667 214 -131 230 -131 C276.667 -131 312 -93.3333 312 0 L275 0 L100 633 L95 633 C99 573 103 516 103 444 L103 0 L37 0 L37 714 L139 714 L310 84 L315 84 C312.444 107.005 305 187.944 305 251 L305 714 L373 714 L373 0 L372 0 C371.333 -127.333 326.667 -191 238 -191 C215.333 -191 197 -185.667 181 -179 L181 -121 Z " />
<glyph glyph-name="eng" unicode="&#x14b;" horiz-adv-x="440" d="M209 -162 C221 -168 234 -171 248 -171 C274.667 -171 289 -146.333 289 -85 L292 120 L292 347 C292 433.667 268 477 220 477 C156 477 122 407.667 122 281 L122 0 L48 0 L48 535 L109 535 L119 461 L123 461 C145.667 517 186.333 546 237 546 C319.667 546 366 488.333 366 351 L366 0 L365 0 L365 -83 C365 -183 333.333 -240 260 -240 C238.667 -240 223.667 -236.667 209 -230 L209 -162 Z " />
<glyph glyph-name="Omacron" unicode="&#x14c;" horiz-adv-x="440" >
<path fill="black" d="M206 -10 C68.4329 -10 21 157.225 21 359 C21 599 78.3333 726 205 726 C338.333 726 389 564.407 389 358 C389 152.771 342.026 -10 206 -10 Z M206 61 C278 61 313 162 313 358 C313 552.667 277 655 205 655 C126.333 655 97 550 97 358 C97 164.667 132.667 61 206 61 Z " /><g transform="translate(1,173)" ><path fill="black" d="M103 692 L304 692 L304 633 L103 633 L103 692 Z " /></g></glyph>
<glyph glyph-name="omacron" unicode="&#x14d;" horiz-adv-x="440" >
<path fill="black" d="M206 -10 C95.3333 -10 33 90 33 270 C33 446 95 546 203 546 C311 546 377 445.667 377 267 C377 89.6667 316.667 -10 206 -10 Z M205 58 C267.667 58 300 129.333 300 268 C300 406.667 266.667 478 204 478 C141.333 478 110 408.333 110 269 C110 128.333 141.667 58 205 58 Z " /><g transform="translate(1,-6)" ><path fill="black" d="M103 692 L304 692 L304 633 L103 633 L103 692 Z " /></g></glyph>
<glyph glyph-name="Obreve" unicode="&#x14e;" horiz-adv-x="440" >
<path fill="black" d="M206 -10 C68.4329 -10 21 157.225 21 359 C21 599 78.3333 726 205 726 C338.333 726 389 564.407 389 358 C389 152.771 342.026 -10 206 -10 Z M206 61 C278 61 313 162 313 358 C313 552.667 277 655 205 655 C126.333 655 97 550 97 358 C97 164.667 132.667 61 206 61 Z " /><g transform="translate(0,179)" ><path fill="black" d="M149 739 C152.333 691 171 667 205 667 C238.333 667 257 691 261 739 L307 739 C305.667 659 266.333 611 205 611 C143.667 611 105.667 653.667 103 739 L149 739 Z " /></g></glyph>
<glyph glyph-name="obreve" unicode="&#x14f;" horiz-adv-x="440" >
<path fill="black" d="M206 -10 C95.3333 -10 33 90 33 270 C33 446 95 546 203 546 C311 546 377 445.667 377 267 C377 89.6667 316.667 -10 206 -10 Z M205 58 C267.667 58 300 129.333 300 268 C300 406.667 266.667 478 204 478 C141.333 478 110 408.333 110 269 C110 128.333 141.667 58 205 58 Z " /><path fill="black" d="M149 739 C152.333 691 171 667 205 667 C238.333 667 257 691 261 739 L307 739 C305.667 659 266.333 611 205 611 C143.667 611 105.667 653.667 103 739 L149 739 Z " /></glyph>
<glyph glyph-name="Ohungarumlaut" unicode="&#x150;" horiz-adv-x="440" d="M206 -10 C68.4329 -10 21 157.225 21 359 C21 599 78.3333 726 205 726 C338.333 726 389 564.407 389 358 C389 152.771 342.026 -10 206 -10 Z M206 61 C278 61 313 162 313 358 C313 552.667 277 655 205 655 C126.333 655 97 550 97 358 C97 164.667 132.667 61 206 61 Z M112 784 L112 795 C136.506 841.289 164.313 909.268 175 944 L248 944 L248 935 C229.559 890.216 185.794 823.794 146 784 L112 784 Z M231 784 L231 795 C255.506 841.289 283.313 909.268 294 944 L367 944 L367 935 C348.559 890.216 304.794 823.794 265 784 L231 784 Z " />
<glyph glyph-name="ohungarumlaut" unicode="&#x151;" horiz-adv-x="440" d="M206 -10 C95.3333 -10 33 90 33 270 C33 446 95 546 203 546 C311 546 377 445.667 377 267 C377 89.6667 316.667 -10 206 -10 Z M205 58 C267.667 58 300 129.333 300 268 C300 406.667 266.667 478 204 478 C141.333 478 110 408.333 110 269 C110 128.333 141.667 58 205 58 Z M112 605 L112 616 C136.506 662.289 164.313 730.268 175 765 L248 765 L248 756 C229.559 711.216 185.794 644.794 146 605 L112 605 Z M231 605 L231 616 C255.506 662.289 283.313 730.268 294 765 L367 765 L367 756 C348.559 711.216 304.794 644.794 265 605 L231 605 Z " />
<glyph glyph-name="OE" unicode="&#x152;" horiz-adv-x="440" d="M389 76 L389 0 L220 0 C204 -5.33333 188 -9 172 -9 C61.0476 -9 21 135 21 359 C21 577.563 64.0216 723 175 723 C189.667 723 206.333 719.333 225 714 L389 714 L389 638 L282 638 L282 410 L376 410 L376 334 L282 334 L282 76 L389 76 Z M209 640 C202.333 650.667 191.667 654 177 654 C115.667 654 93 538.364 93 358 C93 176.745 113.823 63 175 63 C189.667 63 201 67 209 75 L209 640 Z " />
<glyph glyph-name="oe" unicode="&#x153;" horiz-adv-x="440" d="M385 25 C363 1.66667 337.667 -10 309 -10 C266.333 -10 229 22 213 90 C193 18 168 -10 128 -10 C50.6667 -10 17 78.3333 17 265 C17 473 56.9437 545 128 545 C166.667 545 193.333 518 212 446 C231.333 512 259.333 545 296 545 C361.333 545 397 457 397 305 L397 252 L243 252 C244.333 118.667 274 59 318 59 C340.667 59 362.333 74.3333 385 97 L385 25 Z M129 59 C162.333 59 177 132.333 177 267 C177 406.333 160.667 476 128 476 C94.6667 476 80 412.333 80 267 C80 133.667 93 59 129 59 Z M334 321 C332.667 425 316.333 476 291 476 C261.563 476 243 398.463 243 321 L334 321 Z " />
<glyph glyph-name="Racute" unicode="&#x154;" horiz-adv-x="440" >
<path fill="black" d="M53 0 L53 714 L182 714 C299.333 714 359 649.333 359 512 C359 398.667 320.667 342.333 270 317 L393 0 L311 0 L204 296 L126 296 L126 0 L53 0 Z M126 367 L182 367 C248.667 367 282 414.333 282 509 C282 605 248.333 643 179 643 L126 643 L126 367 Z " /><g transform="translate(-12,179)" ><path fill="black" d="M172 606 L172 617 C202.667 670.333 225.667 720.667 243 766 L328 766 L328 757 C309.282 714.216 252.297 641.859 219 606 L172 606 Z " /></g></glyph>
<glyph glyph-name="racute" unicode="&#x155;" horiz-adv-x="440" >
<path fill="black" d="M32 56 L128 66 L128 466 L36 479 L36 535 L187 535 L195 440 L199 440 C220.333 504 259 546 319 546 C339 546 362.333 541 385 529 L365 452 C349 462.667 325 466 309 466 C241.442 466 202 380.974 202 269 L202 66 L305 56 L305 0 L32 0 L32 56 Z " /><g transform="translate(-3,0)" ><path fill="black" d="M172 606 L172 617 C202.667 670.333 225.667 720.667 243 766 L328 766 L328 757 C309.282 714.216 252.297 641.859 219 606 L172 606 Z " /></g></glyph>
<glyph glyph-name="uni0156" unicode="&#x156;" horiz-adv-x="440" >
<path fill="black" d="M53 0 L53 714 L182 714 C299.333 714 359 649.333 359 512 C359 398.667 320.667 342.333 270 317 L393 0 L311 0 L204 296 L126 296 L126 0 L53 0 Z M126 367 L182 367 C248.667 367 282 414.333 282 509 C282 605 248.333 643 179 643 L126 643 L126 367 Z " /><g transform="translate(655,0)" ><path fill="black" d="M-503 -221 L-503 -210 C-494.872 -174.777 -480.222 -102.777 -475 -61 L-401 -61 L-401 -69 C-408.977 -111.545 -435.51 -180.184 -460 -221 L-503 -221 Z " /></g></glyph>
<glyph glyph-name="uni0157" unicode="&#x157;" horiz-adv-x="440" >
<path fill="black" d="M32 56 L128 66 L128 466 L36 479 L36 535 L187 535 L195 440 L199 440 C220.333 504 259 546 319 546 C339 546 362.333 541 385 529 L365 452 C349 462.667 325 466 309 466 C241.442 466 202 380.974 202 269 L202 66 L305 56 L305 0 L32 0 L32 56 Z " /><g transform="translate(607,0)" ><path fill="black" d="M-503 -221 L-503 -210 C-494.872 -174.777 -480.222 -102.777 -475 -61 L-401 -61 L-401 -69 C-408.977 -111.545 -435.51 -180.184 -460 -221 L-503 -221 Z " /></g></glyph>
<glyph glyph-name="Rcaron" unicode="&#x158;" horiz-adv-x="440" >
<path fill="black" d="M53 0 L53 714 L182 714 C299.333 714 359 649.333 359 512 C359 398.667 320.667 342.333 270 317 L393 0 L311 0 L204 296 L126 296 L126 0 L53 0 Z M126 367 L182 367 C248.667 367 282 414.333 282 509 C282 605 248.333 643 179 643 L126 643 L126 367 Z " /><g transform="translate(0,179)" ><path fill="black" d="M170 606 C152.667 650 122.667 709.333 96 756 L96 766 L136 766 C156 742 179.667 704.667 205 670 C231.667 710 247.667 730 273 766 L314 766 L314 756 C290 714.667 256.333 652.667 239 606 L170 606 Z " /></g></glyph>
<glyph glyph-name="rcaron" unicode="&#x159;" horiz-adv-x="440" >
<path fill="black" d="M32 56 L128 66 L128 466 L36 479 L36 535 L187 535 L195 440 L199 440 C220.333 504 259 546 319 546 C339 546 362.333 541 385 529 L365 452 C349 462.667 325 466 309 466 C241.442 466 202 380.974 202 269 L202 66 L305 56 L305 0 L32 0 L32 56 Z " /><g transform="translate(9,0)" ><path fill="black" d="M170 606 C152.667 650 122.667 709.333 96 756 L96 766 L136 766 C156 742 179.667 704.667 205 670 C231.667 710 247.667 730 273 766 L314 766 L314 756 C290 714.667 256.333 652.667 239 606 L170 606 Z " /></g></glyph>
<glyph glyph-name="Sacute" unicode="&#x15a;" horiz-adv-x="440" >
<path fill="black" d="M50 97 C90 74.3333 135.333 61 178 61 C256.225 61 285 117.615 285 187 C285 263.858 247.382 291.688 177 335 C110.335 377.666 53 426.434 53 540 C53 668 119.667 726 217 726 C263 726 308.333 713.333 353 688 L327 621 C292.333 642.333 254.667 655 220 655 C156 655 128 612 128 544 C128 466.175 166.028 437.607 231 397 C308.251 346.387 361 311.262 361 193 C361 59.6667 293.333 -10 180 -10 C133.333 -10 84.6667 1.66667 50 23 L50 97 Z " /><g transform="translate(-4,179)" ><path fill="black" d="M172 606 L172 617 C202.667 670.333 225.667 720.667 243 766 L328 766 L328 757 C309.282 714.216 252.297 641.859 219 606 L172 606 Z " /></g></glyph>
<glyph glyph-name="sacute" unicode="&#x15b;" horiz-adv-x="440" >
<path fill="black" d="M64 98 C98.6667 75.3333 145.667 58 195 58 C260.333 58 279 92.3333 279 139 C279 184.05 261.504 197.273 183 246 C116.488 288.567 69 318.851 69 405 C69 497 124.667 546 222 546 C266 546 301.333 535.667 344 513 L319 449 C280.333 470.333 251.667 478 221 478 C169 478 143 454.667 143 408 C143 364.145 169.861 344.749 242 302 C310.687 262.373 353 230.385 353 141 C353 42.3333 298.333 -10 189 -10 C138.333 -10 96.6667 1.33333 64 24 L64 98 Z " /><g transform="translate(-7,0)" ><path fill="black" d="M172 606 L172 617 C202.667 670.333 225.667 720.667 243 766 L328 766 L328 757 C309.282 714.216 252.297 641.859 219 606 L172 606 Z " /></g></glyph>
<glyph glyph-name="Scircumflex" unicode="&#x15c;" horiz-adv-x="440" >
<path fill="black" d="M50 97 C90 74.3333 135.333 61 178 61 C256.225 61 285 117.615 285 187 C285 263.858 247.382 291.688 177 335 C110.335 377.666 53 426.434 53 540 C53 668 119.667 726 217 726 C263 726 308.333 713.333 353 688 L327 621 C292.333 642.333 254.667 655 220 655 C156 655 128 612 128 544 C128 466.175 166.028 437.607 231 397 C308.251 346.387 361 311.262 361 193 C361 59.6667 293.333 -10 180 -10 C133.333 -10 84.6667 1.66667 50 23 L50 97 Z " /><g transform="translate(8,179)" ><path fill="black" d="M96 606 L96 616 C124 664 155.333 723.333 170 766 L239 766 C256.333 720.667 287.333 658.667 314 616 L314 606 L273 606 C250.333 632.667 229 667.333 205 702 C179.667 667.333 154.667 630 136 606 L96 606 Z " /></g></glyph>
<glyph glyph-name="scircumflex" unicode="&#x15d;" horiz-adv-x="440" >
<path fill="black" d="M64 98 C98.6667 75.3333 145.667 58 195 58 C260.333 58 279 92.3333 279 139 C279 184.05 261.504 197.273 183 246 C116.488 288.567 69 318.851 69 405 C69 497 124.667 546 222 546 C266 546 301.333 535.667 344 513 L319 449 C280.333 470.333 251.667 478 221 478 C169 478 143 454.667 143 408 C143 364.145 169.861 344.749 242 302 C310.687 262.373 353 230.385 353 141 C353 42.3333 298.333 -10 189 -10 C138.333 -10 96.6667 1.33333 64 24 L64 98 Z " /><g transform="translate(5,0)" ><path fill="black" d="M96 606 L96 616 C124 664 155.333 723.333 170 766 L239 766 C256.333 720.667 287.333 658.667 314 616 L314 606 L273 606 C250.333 632.667 229 667.333 205 702 C179.667 667.333 154.667 630 136 606 L96 606 Z " /></g></glyph>
<glyph glyph-name="Scedilla" unicode="&#x15e;" horiz-adv-x="440" d="M136 -182 C147.333 -186 159 -188 171 -188 C205.667 -188 221 -168.667 221 -138 C221 -102 198.667 -85.6667 160 -79 L184 -10 L180 -10 C133.333 -10 84.6667 1.66667 50 23 L50 97 C90 74.3333 135.333 61 178 61 C256.225 61 285 117.615 285 187 C285 263.858 247.382 291.688 177 335 C110.335 377.666 53 426.434 53 540 C53 668 119.667 726 217 726 C263 726 308.333 713.333 353 688 L327 621 C292.333 642.333 254.667 655 220 655 C156 655 128 612 128 544 C128 466.175 166.028 437.607 231 397 C308.251 346.387 361 311.262 361 193 C361 79.6667 312 13.6667 228 -5 L213 -51 C257.667 -63 280 -93 280 -141 C280 -205 244 -240 180 -240 C165.333 -240 146.667 -238 136 -234 L136 -182 Z " />
<glyph glyph-name="scedilla" unicode="&#x15f;" horiz-adv-x="440" d="M141 -182 C152.333 -186 164 -188 176 -188 C210.667 -188 226 -168.667 226 -138 C226 -102 203.667 -85.6667 165 -79 L189 -10 C138.333 -10 96.6667 1.33333 64 24 L64 98 C98.6667 75.3333 145.667 58 195 58 C260.333 58 279 92.3333 279 139 C279 184.05 261.504 197.273 183 246 C116.488 288.567 69 318.851 69 405 C69 497 124.667 546 222 546 C266 546 301.333 535.667 344 513 L319 449 C280.333 470.333 251.667 478 221 478 C169 478 143 454.667 143 408 C143 364.145 169.861 344.749 242 302 C310.687 262.373 353 230.385 353 141 C353 55.6667 313 6.33333 233 -7 L218 -51 C262.667 -63 285 -93 285 -141 C285 -205 249 -240 185 -240 C170.333 -240 151.667 -238 141 -234 L141 -182 Z " />
<glyph glyph-name="Scaron" unicode="&#x160;" horiz-adv-x="440" >
<path fill="black" d="M50 97 C90 74.3333 135.333 61 178 61 C256.225 61 285 117.615 285 187 C285 263.858 247.382 291.688 177 335 C110.335 377.666 53 426.434 53 540 C53 668 119.667 726 217 726 C263 726 308.333 713.333 353 688 L327 621 C292.333 642.333 254.667 655 220 655 C156 655 128 612 128 544 C128 466.175 166.028 437.607 231 397 C308.251 346.387 361 311.262 361 193 C361 59.6667 293.333 -10 180 -10 C133.333 -10 84.6667 1.66667 50 23 L50 97 Z " /><g transform="translate(8,179)" ><path fill="black" d="M170 606 C152.667 650 122.667 709.333 96 756 L96 766 L136 766 C156 742 179.667 704.667 205 670 C231.667 710 247.667 730 273 766 L314 766 L314 756 C290 714.667 256.333 652.667 239 606 L170 606 Z " /></g></glyph>
<glyph glyph-name="scaron" unicode="&#x161;" horiz-adv-x="440" >
<path fill="black" d="M64 98 C98.6667 75.3333 145.667 58 195 58 C260.333 58 279 92.3333 279 139 C279 184.05 261.504 197.273 183 246 C116.488 288.567 69 318.851 69 405 C69 497 124.667 546 222 546 C266 546 301.333 535.667 344 513 L319 449 C280.333 470.333 251.667 478 221 478 C169 478 143 454.667 143 408 C143 364.145 169.861 344.749 242 302 C310.687 262.373 353 230.385 353 141 C353 42.3333 298.333 -10 189 -10 C138.333 -10 96.6667 1.33333 64 24 L64 98 Z " /><g transform="translate(5,0)" ><path fill="black" d="M170 606 C152.667 650 122.667 709.333 96 756 L96 766 L136 766 C156 742 179.667 704.667 205 670 C231.667 710 247.667 730 273 766 L314 766 L314 756 C290 714.667 256.333 652.667 239 606 L170 606 Z " /></g></glyph>
<glyph glyph-name="uni0162" unicode="&#x162;" horiz-adv-x="440" d="M136 -182 C147.333 -186 159 -188 171 -188 C205.667 -188 221 -168.667 221 -138 C221 -102 198.667 -85.6667 160 -79 L188 0 L167 0 L167 640 L29 640 L29 714 L382 714 L382 640 L242 640 L242 0 L230 0 L213 -51 C257.667 -63 280 -93 280 -141 C280 -205 244 -240 180 -240 C165.333 -240 146.667 -238 136 -234 L136 -182 Z " />
<glyph glyph-name="uni0163" unicode="&#x163;" horiz-adv-x="440" d="M194 -182 C205.333 -186 217 -188 229 -188 C263.667 -188 279 -168.667 279 -138 C279 -102 256.667 -85.6667 218 -79 L244 -7 C185.333 3.66667 147 46.3333 147 145 L147 467 L39 467 L39 516 L150 538 L175 677 L222 677 L222 535 L367 535 L367 467 L220 467 L220 159 C220 91 246.333 60 293 60 C311.667 60 337 63.6667 365 73 L365 4 C340.333 -4 313.667 -8.66667 285 -10 L271 -51 C315.667 -63 338 -93 338 -141 C338 -205 302 -240 238 -240 C223.333 -240 204.667 -238 194 -234 L194 -182 Z " />
<glyph glyph-name="Tcaron" unicode="&#x164;" horiz-adv-x="440" >
<path fill="black" d="M167 0 L167 640 L29 640 L29 714 L382 714 L382 640 L242 640 L242 0 L167 0 Z " /><g transform="translate(0,179)" ><path fill="black" d="M170 606 C152.667 650 122.667 709.333 96 756 L96 766 L136 766 C156 742 179.667 704.667 205 670 C231.667 710 247.667 730 273 766 L314 766 L314 756 C290 714.667 256.333 652.667 239 606 L170 606 Z " /></g></glyph>
<glyph glyph-name="tcaron" unicode="&#x165;" horiz-adv-x="440" >
<g transform="translate(2,0)" ><path fill="black" d="M147 467 L39 467 L39 516 L150 538 L175 677 L222 677 L222 535 L367 535 L367 467 L220 467 L220 159 C220 91 246.333 60 293 60 C311.667 60 337 63.6667 365 73 L365 4 C338.333 -5.33333 306.333 -10 277 -10 C202.177 -10 147 29.2338 147 145 L147 467 Z " /></g><g transform="translate(367,46)" ><path fill="black" d="M-47 554 L-47 562 C-39.0201 591.259 -28.6747 676.554 -26 714 L50 714 L50 707 C41.8822 666.411 16.9441 593.27 -4 554 L-47 554 Z " /></g></glyph>
<glyph glyph-name="Tbar" unicode="&#x166;" horiz-adv-x="440" d="M167 327 L70 327 L70 395 L167 395 L167 640 L29 640 L29 714 L382 714 L382 640 L242 640 L242 395 L342 395 L342 327 L242 327 L242 0 L167 0 L167 327 Z " />
<glyph glyph-name="tbar" unicode="&#x167;" horiz-adv-x="440" d="M147 278 L39 278 L39 339 L147 339 L147 467 L39 467 L39 516 L150 538 L175 677 L222 677 L222 535 L367 535 L367 467 L220 467 L220 339 L367 339 L367 278 L220 278 L220 159 C220 91 246.333 60 293 60 C311.667 60 337 63.6667 365 73 L365 4 C338.333 -5.33333 306.333 -10 277 -10 C202.177 -10 147 29.2338 147 145 L147 278 Z " />
<glyph glyph-name="Utilde" unicode="&#x168;" horiz-adv-x="440" >
<path fill="black" d="M37 714 L112 714 L112 223 C112 107 142 61 206 61 C270 61 298 108 298 224 L298 714 L373 714 L373 220 C373 62.6667 319.333 -10 206 -10 C92.6667 -10 37 62.6667 37 220 L37 714 Z " /><g transform="translate(0,179)" ><path fill="black" d="M83 610 C88.2515 673.018 103.167 730 151 730 C191 730 225.667 672 255 672 C273.667 672 277.667 695 283 731 L327 731 C323 652.333 296.333 611 259 611 C220.431 611 180.765 670 156 670 C138.667 670 131.333 648.667 126 610 L83 610 Z " /></g></glyph>
<glyph glyph-name="utilde" unicode="&#x169;" horiz-adv-x="440" >
<path fill="black" d="M44 535 L118 535 L118 189 C118 91.6667 143.333 59 198 59 C259.333 59 288 127 288 255 L288 535 L362 535 L362 0 L300 0 L289 75 L285 75 C263.667 17.6667 222.667 -10 172 -10 C90.6667 -10 44 48.6667 44 174 L44 535 Z " /><path fill="black" d="M83 610 C88.2515 673.018 103.167 730 151 730 C191 730 225.667 672 255 672 C273.667 672 277.667 695 283 731 L327 731 C323 652.333 296.333 611 259 611 C220.431 611 180.765 670 156 670 C138.667 670 131.333 648.667 126 610 L83 610 Z " /></glyph>
<glyph glyph-name="Umacron" unicode="&#x16a;" horiz-adv-x="440" >
<path fill="black" d="M37 714 L112 714 L112 223 C112 107 142 61 206 61 C270 61 298 108 298 224 L298 714 L373 714 L373 220 C373 62.6667 319.333 -10 206 -10 C92.6667 -10 37 62.6667 37 220 L37 714 Z " /><g transform="translate(1,173)" ><path fill="black" d="M103 692 L304 692 L304 633 L103 633 L103 692 Z " /></g></glyph>
<glyph glyph-name="umacron" unicode="&#x16b;" horiz-adv-x="440" >
<path fill="black" d="M44 535 L118 535 L118 189 C118 91.6667 143.333 59 198 59 C259.333 59 288 127 288 255 L288 535 L362 535 L362 0 L300 0 L289 75 L285 75 C263.667 17.6667 222.667 -10 172 -10 C90.6667 -10 44 48.6667 44 174 L44 535 Z " /><g transform="translate(1,-6)" ><path fill="black" d="M103 692 L304 692 L304 633 L103 633 L103 692 Z " /></g></glyph>
<glyph glyph-name="Ubreve" unicode="&#x16c;" horiz-adv-x="440" >
<path fill="black" d="M37 714 L112 714 L112 223 C112 107 142 61 206 61 C270 61 298 108 298 224 L298 714 L373 714 L373 220 C373 62.6667 319.333 -10 206 -10 C92.6667 -10 37 62.6667 37 220 L37 714 Z " /><g transform="translate(0,179)" ><path fill="black" d="M149 739 C152.333 691 171 667 205 667 C238.333 667 257 691 261 739 L307 739 C305.667 659 266.333 611 205 611 C143.667 611 105.667 653.667 103 739 L149 739 Z " /></g></glyph>
<glyph glyph-name="ubreve" unicode="&#x16d;" horiz-adv-x="440" >
<path fill="black" d="M44 535 L118 535 L118 189 C118 91.6667 143.333 59 198 59 C259.333 59 288 127 288 255 L288 535 L362 535 L362 0 L300 0 L289 75 L285 75 C263.667 17.6667 222.667 -10 172 -10 C90.6667 -10 44 48.6667 44 174 L44 535 Z " /><path fill="black" d="M149 739 C152.333 691 171 667 205 667 C238.333 667 257 691 261 739 L307 739 C305.667 659 266.333 611 205 611 C143.667 611 105.667 653.667 103 739 L149 739 Z " /></glyph>
<glyph glyph-name="Uring" unicode="&#x16e;" horiz-adv-x="440" >
<path fill="black" d="M37 714 L112 714 L112 223 C112 107 142 61 206 61 C270 61 298 108 298 224 L298 714 L373 714 L373 220 C373 62.6667 319.333 -10 206 -10 C92.6667 -10 37 62.6667 37 220 L37 714 Z " /><g transform="translate(0,179)" ><path fill="black" d="M206 609 C150 609 117 648.667 117 710 C117 770 150 809 206 809 C256.667 809 292 770 292 710 C292 650 258 609 206 609 Z M206 656 C230 656 248 676.667 248 710 C248 740.667 232.667 763 206 763 C179.333 763 163 740.667 163 710 C163 676.667 179.333 656 206 656 Z " /></g></glyph>
<glyph glyph-name="uring" unicode="&#x16f;" horiz-adv-x="440" >
<path fill="black" d="M44 535 L118 535 L118 189 C118 91.6667 143.333 59 198 59 C259.333 59 288 127 288 255 L288 535 L362 535 L362 0 L300 0 L289 75 L285 75 C263.667 17.6667 222.667 -10 172 -10 C90.6667 -10 44 48.6667 44 174 L44 535 Z " /><path fill="black" d="M206 609 C150 609 117 648.667 117 710 C117 770 150 809 206 809 C256.667 809 292 770 292 710 C292 650 258 609 206 609 Z M206 656 C230 656 248 676.667 248 710 C248 740.667 232.667 763 206 763 C179.333 763 163 740.667 163 710 C163 676.667 179.333 656 206 656 Z " /></glyph>
<glyph glyph-name="Uhungarumlaut" unicode="&#x170;" horiz-adv-x="440" d="M37 714 L112 714 L112 223 C112 107 142 61 206 61 C270 61 298 108 298 224 L298 714 L373 714 L373 220 C373 62.6667 319.333 -10 206 -10 C92.6667 -10 37 62.6667 37 220 L37 714 Z M112 784 L112 795 C136.506 841.289 164.313 909.268 175 944 L248 944 L248 935 C229.559 890.216 185.794 823.794 146 784 L112 784 Z M231 784 L231 795 C255.506 841.289 283.313 909.268 294 944 L367 944 L367 935 C348.559 890.216 304.794 823.794 265 784 L231 784 Z " />
<glyph glyph-name="uhungarumlaut" unicode="&#x171;" horiz-adv-x="440" d="M44 535 L118 535 L118 189 C118 91.6667 143.333 59 198 59 C259.333 59 288 127 288 255 L288 535 L362 535 L362 0 L300 0 L289 75 L285 75 C263.667 17.6667 222.667 -10 172 -10 C90.6667 -10 44 48.6667 44 174 L44 535 Z M112 605 L112 616 C136.506 662.289 164.313 730.268 175 765 L248 765 L248 756 C229.559 711.216 185.794 644.794 146 605 L112 605 Z M231 605 L231 616 C255.506 662.289 283.313 730.268 294 765 L367 765 L367 756 C348.559 711.216 304.794 644.794 265 605 L231 605 Z " />
<glyph glyph-name="Uogonek" unicode="&#x172;" horiz-adv-x="440" d="M272 -215 C262.667 -220.333 249.333 -223 232 -223 C178.667 -223 152 -190.667 152 -136 C152 -85.3333 173.333 -43.3333 208 -10 L206 -10 C92.6667 -10 37 62.6667 37 220 L37 714 L112 714 L112 223 C112 107 142 61 206 61 C270 61 298 108 298 224 L298 714 L373 714 L373 220 C373 107.333 344 36.3333 286 7 C239.333 -31.6667 210 -69.6667 210 -119 C210 -151.667 222.667 -168 248 -168 C258.667 -168 266.667 -164.667 272 -162 L272 -215 Z " />
<glyph glyph-name="uogonek" unicode="&#x173;" horiz-adv-x="440" d="M291 75 L287 75 C265.667 17.6667 224.667 -10 174 -10 C92.6667 -10 46 48.6667 46 174 L46 535 L120 535 L120 189 C120 91.6667 145.333 59 200 59 C261.333 59 290 127 290 255 L290 535 L364 535 L364 4 L377 0 C339.667 -45.3333 329 -79.6667 329 -117 C329 -151 341.333 -168 366 -168 C376.667 -168 384.333 -164.667 391 -162 L391 -215 C380.333 -220.333 366.667 -223 350 -223 C296.667 -223 270 -191.333 270 -134 C270 -83.3333 290.333 -38.6667 325 0 L302 0 L291 75 Z " />
<glyph glyph-name="Wcircumflex" unicode="&#x174;" horiz-adv-x="440" >
<path fill="black" d="M112 75 C117.255 119.664 128.944 232.922 137 292 L168 535 L241 535 L275 290 C285.53 224.185 297.32 120.564 300 75 L304 75 C304 120.331 310.334 328.337 313 379 L331 714 L397 714 L352 0 L264 0 L223 330 C216.333 390 211 416.667 207 446 L204 446 C201.333 416.667 195.667 390 189 330 L148 0 L61 0 L13 714 L75 714 C81.6667 600.667 89.3333 491.333 96 378 C98.6476 319.752 110 121.008 110 75 L112 75 Z " /><g transform="translate(0,179)" ><path fill="black" d="M96 606 L96 616 C124 664 155.333 723.333 170 766 L239 766 C256.333 720.667 287.333 658.667 314 616 L314 606 L273 606 C250.333 632.667 229 667.333 205 702 C179.667 667.333 154.667 630 136 606 L96 606 Z " /></g></glyph>
<glyph glyph-name="wcircumflex" unicode="&#x175;" horiz-adv-x="440" >
<path fill="black" d="M111 67 C113.652 106.781 123.865 194.616 132 238 L167 443 L242 443 L276 238 C284.013 195.262 292.656 104.406 298 67 L300 67 C302.609 100.918 306.739 193.504 312 254 L337 535 L401 535 L343 0 L255 0 L226 208 C218 260 210.333 317 205 369 L202 369 C198 317 188.667 258 182 206 L152 0 L65 0 L10 535 L74 535 L98 254 C103.306 195.635 106.283 105.032 109 67 L111 67 Z " /><g transform="translate(2,0)" ><path fill="black" d="M96 606 L96 616 C124 664 155.333 723.333 170 766 L239 766 C256.333 720.667 287.333 658.667 314 616 L314 606 L273 606 C250.333 632.667 229 667.333 205 702 C179.667 667.333 154.667 630 136 606 L96 606 Z " /></g></glyph>
<glyph glyph-name="Ycircumflex" unicode="&#x176;" horiz-adv-x="440" >
<path fill="black" d="M167 0 L167 273 L17 714 L98 714 L205 348 L312 714 L393 714 L241 273 L241 0 L167 0 Z " /><g transform="translate(0,179)" ><path fill="black" d="M96 606 L96 616 C124 664 155.333 723.333 170 766 L239 766 C256.333 720.667 287.333 658.667 314 616 L314 606 L273 606 C250.333 632.667 229 667.333 205 702 C179.667 667.333 154.667 630 136 606 L96 606 Z " /></g></glyph>
<glyph glyph-name="ycircumflex" unicode="&#x177;" horiz-adv-x="440" >
<path fill="black" d="M37 -170 C49 -172.667 65.3333 -177 80 -177 C118.667 -177 139.333 -153 158 -81 L177 -5 L24 535 L102 535 L181 220 C194.333 167.333 204.333 119.333 211 76 L213 76 C218.333 118.667 230.667 178.333 240 221 L308 535 L387 535 L232 -73 C205.333 -177 161.333 -245 88 -245 C70.6667 -245 53 -241 37 -237 L37 -170 Z " /><path fill="black" d="M96 606 L96 616 C124 664 155.333 723.333 170 766 L239 766 C256.333 720.667 287.333 658.667 314 616 L314 606 L273 606 C250.333 632.667 229 667.333 205 702 C179.667 667.333 154.667 630 136 606 L96 606 Z " /></glyph>
<glyph glyph-name="Ydieresis" unicode="&#x178;" horiz-adv-x="440" >
<g transform="translate(0,168)" ><path fill="black" d="M128 626 C102.667 626 85 646 85 686 C85 724.667 102.667 743 128 743 C152 743 170 724.667 170 686 C170 644.667 152 626 128 626 Z M282 626 C256.667 626 239 646 239 686 C239 724.667 256.667 743 282 743 C306 743 324 724.667 324 686 C324 644.667 306 626 282 626 Z " /></g><path fill="black" d="M167 0 L167 273 L17 714 L98 714 L205 348 L312 714 L393 714 L241 273 L241 0 L167 0 Z " /></glyph>
<glyph glyph-name="Zacute" unicode="&#x179;" horiz-adv-x="440" >
<path fill="black" d="M53 66 L279 640 L62 640 L62 714 L360 714 L360 648 L136 74 L365 74 L365 0 L53 0 L53 66 Z " /><g transform="translate(-4,179)" ><path fill="black" d="M172 606 L172 617 C202.667 670.333 225.667 720.667 243 766 L328 766 L328 757 C309.282 714.216 252.297 641.859 219 606 L172 606 Z " /></g></glyph>
<glyph glyph-name="zacute" unicode="&#x17a;" horiz-adv-x="440" >
<path fill="black" d="M53 57 L270 467 L63 467 L63 535 L352 535 L352 469 L139 69 L358 69 L358 0 L53 0 L53 57 Z " /><g transform="translate(-8,0)" ><path fill="black" d="M172 606 L172 617 C202.667 670.333 225.667 720.667 243 766 L328 766 L328 757 C309.282 714.216 252.297 641.859 219 606 L172 606 Z " /></g></glyph>
<glyph glyph-name="Zdotaccent" unicode="&#x17b;" horiz-adv-x="440" >
<path fill="black" d="M53 66 L279 640 L62 640 L62 714 L360 714 L360 648 L136 74 L365 74 L365 0 L53 0 L53 66 Z " /><g transform="translate(9,825)" ><path fill="black" d="M204 -12 C173.333 -12 155 9 155 53 C155 95.6667 173.333 115 204 115 C233.333 115 254 97 254 53 C254 9 232 -12 204 -12 Z " /></g></glyph>
<glyph glyph-name="zdotaccent" unicode="&#x17c;" horiz-adv-x="440" >
<path fill="black" d="M53 57 L270 467 L63 467 L63 535 L352 535 L352 469 L139 69 L358 69 L358 0 L53 0 L53 57 Z " /><g transform="translate(5,646)" ><path fill="black" d="M204 -12 C173.333 -12 155 9 155 53 C155 95.6667 173.333 115 204 115 C233.333 115 254 97 254 53 C254 9 232 -12 204 -12 Z " /></g></glyph>
<glyph glyph-name="Zcaron" unicode="&#x17d;" horiz-adv-x="440" >
<path fill="black" d="M53 66 L279 640 L62 640 L62 714 L360 714 L360 648 L136 74 L365 74 L365 0 L53 0 L53 66 Z " /><g transform="translate(8,179)" ><path fill="black" d="M170 606 C152.667 650 122.667 709.333 96 756 L96 766 L136 766 C156 742 179.667 704.667 205 670 C231.667 710 247.667 730 273 766 L314 766 L314 756 C290 714.667 256.333 652.667 239 606 L170 606 Z " /></g></glyph>
<glyph glyph-name="zcaron" unicode="&#x17e;" horiz-adv-x="440" >
<path fill="black" d="M53 57 L270 467 L63 467 L63 535 L352 535 L352 469 L139 69 L358 69 L358 0 L53 0 L53 57 Z " /><g transform="translate(4,0)" ><path fill="black" d="M170 606 C152.667 650 122.667 709.333 96 756 L96 766 L136 766 C156 742 179.667 704.667 205 670 C231.667 710 247.667 730 273 766 L314 766 L314 756 C290 714.667 256.333 652.667 239 606 L170 606 Z " /></g></glyph>
<glyph glyph-name="longs" unicode="&#x17f;" horiz-adv-x="440" d="M151 0 L151 575 C151 701.667 196.667 765 288 765 C318.667 765 341 758.333 365 749 L346 685 C331.333 691.667 314 697 294 697 C248.667 697 226 662.667 226 564 L226 0 L151 0 Z " />
<glyph glyph-name="florin" unicode="&#x192;" horiz-adv-x="440" d="M57 -163 C75 -169 90.6667 -172 104 -172 C149.333 -172 167 -139 167 -67 L167 404 L76 404 L76 446 L167 471 L167 541 C167 666.333 201.333 724 284 724 C312 724 333 718.667 361 704 L342 642 C327.333 651.333 312 656 296 656 C256 656 240 624.333 240 539 L240 468 L331 468 L331 404 L240 404 L240 -51 C240 -176.333 208.333 -240 115 -240 C94.3333 -240 75 -237.333 57 -232 L57 -163 Z " />
<glyph glyph-name="uni0218" unicode="&#x218;" horiz-adv-x="440" >
<path fill="black" d="M50 97 C90 74.3333 135.333 61 178 61 C256.225 61 285 117.615 285 187 C285 263.858 247.382 291.688 177 335 C110.335 377.666 53 426.434 53 540 C53 668 119.667 726 217 726 C263 726 308.333 713.333 353 688 L327 621 C292.333 642.333 254.667 655 220 655 C156 655 128 612 128 544 C128 466.175 166.028 437.607 231 397 C308.251 346.387 361 311.262 361 193 C361 59.6667 293.333 -10 180 -10 C133.333 -10 84.6667 1.66667 50 23 L50 97 Z " /><g transform="translate(645,0)" ><path fill="black" d="M-503 -221 L-503 -210 C-494.872 -174.777 -480.222 -102.777 -475 -61 L-401 -61 L-401 -69 C-408.977 -111.545 -435.51 -180.184 -460 -221 L-503 -221 Z " /></g></glyph>
<glyph glyph-name="uni0219" unicode="&#x219;" horiz-adv-x="440" >
<path fill="black" d="M64 98 C98.6667 75.3333 145.667 58 195 58 C260.333 58 279 92.3333 279 139 C279 184.05 261.504 197.273 183 246 C116.488 288.567 69 318.851 69 405 C69 497 124.667 546 222 546 C266 546 301.333 535.667 344 513 L319 449 C280.333 470.333 251.667 478 221 478 C169 478 143 454.667 143 408 C143 364.145 169.861 344.749 242 302 C310.687 262.373 353 230.385 353 141 C353 42.3333 298.333 -10 189 -10 C138.333 -10 96.6667 1.33333 64 24 L64 98 Z " /><g transform="translate(650,0)" ><path fill="black" d="M-503 -221 L-503 -210 C-494.872 -174.777 -480.222 -102.777 -475 -61 L-401 -61 L-401 -69 C-408.977 -111.545 -435.51 -180.184 -460 -221 L-503 -221 Z " /></g></glyph>
<glyph glyph-name="uni021A" unicode="&#x21a;" horiz-adv-x="440" >
<path fill="black" d="M167 0 L167 640 L29 640 L29 714 L382 714 L382 640 L242 640 L242 0 L167 0 Z " /><g transform="translate(645,0)" ><path fill="black" d="M-503 -221 L-503 -210 C-494.872 -174.777 -480.222 -102.777 -475 -61 L-401 -61 L-401 -69 C-408.977 -111.545 -435.51 -180.184 -460 -221 L-503 -221 Z " /></g></glyph>
<glyph glyph-name="uni021B" unicode="&#x21b;" horiz-adv-x="440" >
<path fill="black" d="M147 467 L39 467 L39 516 L150 538 L175 677 L222 677 L222 535 L367 535 L367 467 L220 467 L220 159 C220 91 246.333 60 293 60 C311.667 60 337 63.6667 365 73 L365 4 C338.333 -5.33333 306.333 -10 277 -10 C202.177 -10 147 29.2338 147 145 L147 467 Z " /><g transform="translate(703,0)" ><path fill="black" d="M-503 -221 L-503 -210 C-494.872 -174.777 -480.222 -102.777 -475 -61 L-401 -61 L-401 -69 C-408.977 -111.545 -435.51 -180.184 -460 -221 L-503 -221 Z " /></g></glyph>
<glyph glyph-name="uni0237" unicode="&#x237;" horiz-adv-x="410" d="M37 -157 C63.6667 -166.333 101.333 -176 128 -176 C178.667 -176 206 -138.333 206 -69 L206 466 L68 479 L68 535 L279 535 L279 -64 C279 -188 229 -245 133 -245 C101 -245 63.6667 -238.667 37 -228 L37 -157 Z " />
<glyph glyph-name="circumflex" unicode="&#x2c6;" horiz-adv-x="440" d="M96 606 L96 616 C124 664 155.333 723.333 170 766 L239 766 C256.333 720.667 287.333 658.667 314 616 L314 606 L273 606 C250.333 632.667 229 667.333 205 702 C179.667 667.333 154.667 630 136 606 L96 606 Z " />
<glyph glyph-name="caron" unicode="&#x2c7;" horiz-adv-x="440" d="M170 606 C152.667 650 122.667 709.333 96 756 L96 766 L136 766 C156 742 179.667 704.667 205 670 C231.667 710 247.667 730 273 766 L314 766 L314 756 C290 714.667 256.333 652.667 239 606 L170 606 Z " />
<glyph glyph-name="uni02C9" unicode="&#x2c9;" horiz-adv-x="440" >
<g transform="translate(1,-5)" ><path fill="black" d="M103 692 L304 692 L304 633 L103 633 L103 692 Z " /></g></glyph>
<glyph glyph-name="breve" unicode="&#x2d8;" horiz-adv-x="440" d="M149 739 C152.333 691 171 667 205 667 C238.333 667 257 691 261 739 L307 739 C305.667 659 266.333 611 205 611 C143.667 611 105.667 653.667 103 739 L149 739 Z " />
<glyph glyph-name="dotaccent" unicode="&#x2d9;" horiz-adv-x="440" >
<g transform="translate(1,647)" ><path fill="black" d="M204 -12 C173.333 -12 155 9 155 53 C155 95.6667 173.333 115 204 115 C233.333 115 254 97 254 53 C254 9 232 -12 204 -12 Z " /></g></glyph>
<glyph glyph-name="ring" unicode="&#x2da;" horiz-adv-x="440" d="M206 609 C150 609 117 648.667 117 710 C117 770 150 809 206 809 C256.667 809 292 770 292 710 C292 650 258 609 206 609 Z M206 656 C230 656 248 676.667 248 710 C248 740.667 232.667 763 206 763 C179.333 763 163 740.667 163 710 C163 676.667 179.333 656 206 656 Z " />
<glyph glyph-name="ogonek" unicode="&#x2db;" horiz-adv-x="440" d="M265 -215 C254.333 -220.333 240.667 -223 224 -223 C170.667 -223 144 -191.333 144 -134 C144 -76.6667 170 -28 210 12 L251 0 C213.667 -45.3333 203 -79.6667 203 -117 C203 -151 215.333 -168 240 -168 C250.667 -168 258.333 -164.667 265 -162 L265 -215 Z " />
<glyph glyph-name="tilde" unicode="&#x2dc;" horiz-adv-x="440" d="M83 610 C88.2515 673.018 103.167 730 151 730 C191 730 225.667 672 255 672 C273.667 672 277.667 695 283 731 L327 731 C323 652.333 296.333 611 259 611 C220.431 611 180.765 670 156 670 C138.667 670 131.333 648.667 126 610 L83 610 Z " />
<glyph glyph-name="hungarumlaut" unicode="&#x2dd;" horiz-adv-x="440" d="M113 606 L113 617 C137.506 663.289 165.313 731.268 176 766 L249 766 L249 757 C230.559 712.216 186.794 645.794 147 606 L113 606 Z M232 606 L232 617 C256.506 663.289 284.313 731.268 295 766 L368 766 L368 757 C349.559 712.216 305.794 645.794 266 606 L232 606 Z " />
<glyph glyph-name="uni0394" unicode="&#x394;" horiz-adv-x="440" d="M17 59 L159 714 L250 714 L393 54 L393 0 L17 0 L17 59 Z M311 72 L227 494 C217.667 538 209.667 592.333 203 635 C197.667 591 187.667 536.667 181 494 L100 72 L311 72 Z " />
<glyph glyph-name="uni03A9" unicode="&#x3a9;" horiz-adv-x="440" d="M17 72 L106 72 C55.3333 138.667 21 243.667 21 401 C21 621 87 724 207 724 C324.333 724 389 616.667 389 402 C389 240.667 356.333 136 303 72 L394 72 L394 0 L234 0 L234 64 C292.667 140 313 244.333 313 395 C313 564.333 280.333 655 207 655 C133.667 655 97 568.333 97 395 C97 245.667 121.333 137.333 176 64 L176 0 L17 0 L17 72 Z " />
<glyph glyph-name="uni03BC" unicode="&#x3bc;" horiz-adv-x="440" >
<path fill="black" d="M44 227 L46 227 L46 535 L120 535 L120 189 C120 91.6667 145.333 59 200 59 C261.333 59 290 127 290 255 L290 535 L364 535 L364 0 L302 0 L291 75 L287 75 C265.667 17.6667 224.667 -10 174 -10 C152.667 -10 134 -6 118 2 L118 -240 L44 -240 L44 227 Z " /></glyph>
<glyph glyph-name="pi" unicode="&#x3c0;" horiz-adv-x="440" d="M84 469 L14 469 L14 502 L56 535 L388 535 L388 469 L322 469 L322 130 C322 80.6667 330.667 62 352 62 C362.667 62 372.333 64 381 68 L381 4 C369.667 -3.33333 352.333 -7 329 -7 C275.667 -7 251 37 251 117 L251 469 L154 469 L154 0 L84 0 L84 469 Z " />
<glyph glyph-name="Wgrave" unicode="&#x1e80;" horiz-adv-x="440" >
<path fill="black" d="M112 75 C117.255 119.664 128.944 232.922 137 292 L168 535 L241 535 L275 290 C285.53 224.185 297.32 120.564 300 75 L304 75 C304 120.331 310.334 328.337 313 379 L331 714 L397 714 L352 0 L264 0 L223 330 C216.333 390 211 416.667 207 446 L204 446 C201.333 416.667 195.667 390 189 330 L148 0 L61 0 L13 714 L75 714 C81.6667 600.667 89.3333 491.333 96 378 C98.6476 319.752 110 121.008 110 75 L112 75 Z " /><g transform="translate(0,179)" ><path fill="black" d="M88 766 L173 766 C189.382 719.583 222.589 654.469 244 617 L244 606 L197 606 C164.875 640.802 109.011 714.978 88 757 L88 766 Z " /></g></glyph>
<glyph glyph-name="wgrave" unicode="&#x1e81;" horiz-adv-x="440" >
<path fill="black" d="M111 67 C113.652 106.781 123.865 194.616 132 238 L167 443 L242 443 L276 238 C284.013 195.262 292.656 104.406 298 67 L300 67 C302.609 100.918 306.739 193.504 312 254 L337 535 L401 535 L343 0 L255 0 L226 208 C218 260 210.333 317 205 369 L202 369 C198 317 188.667 258 182 206 L152 0 L65 0 L10 535 L74 535 L98 254 C103.306 195.635 106.283 105.032 109 67 L111 67 Z " /><g transform="translate(2,0)" ><path fill="black" d="M88 766 L173 766 C189.382 719.583 222.589 654.469 244 617 L244 606 L197 606 C164.875 640.802 109.011 714.978 88 757 L88 766 Z " /></g></glyph>
<glyph glyph-name="Wacute" unicode="&#x1e82;" horiz-adv-x="440" >
<path fill="black" d="M112 75 C117.255 119.664 128.944 232.922 137 292 L168 535 L241 535 L275 290 C285.53 224.185 297.32 120.564 300 75 L304 75 C304 120.331 310.334 328.337 313 379 L331 714 L397 714 L352 0 L264 0 L223 330 C216.333 390 211 416.667 207 446 L204 446 C201.333 416.667 195.667 390 189 330 L148 0 L61 0 L13 714 L75 714 C81.6667 600.667 89.3333 491.333 96 378 C98.6476 319.752 110 121.008 110 75 L112 75 Z " /><g transform="translate(-12,179)" ><path fill="black" d="M172 606 L172 617 C202.667 670.333 225.667 720.667 243 766 L328 766 L328 757 C309.282 714.216 252.297 641.859 219 606 L172 606 Z " /></g></glyph>
<glyph glyph-name="wacute" unicode="&#x1e83;" horiz-adv-x="440" >
<path fill="black" d="M111 67 C113.652 106.781 123.865 194.616 132 238 L167 443 L242 443 L276 238 C284.013 195.262 292.656 104.406 298 67 L300 67 C302.609 100.918 306.739 193.504 312 254 L337 535 L401 535 L343 0 L255 0 L226 208 C218 260 210.333 317 205 369 L202 369 C198 317 188.667 258 182 206 L152 0 L65 0 L10 535 L74 535 L98 254 C103.306 195.635 106.283 105.032 109 67 L111 67 Z " /><g transform="translate(-10,0)" ><path fill="black" d="M172 606 L172 617 C202.667 670.333 225.667 720.667 243 766 L328 766 L328 757 C309.282 714.216 252.297 641.859 219 606 L172 606 Z " /></g></glyph>
<glyph glyph-name="Wdieresis" unicode="&#x1e84;" horiz-adv-x="440" >
<g transform="translate(0,168)" ><path fill="black" d="M128 626 C102.667 626 85 646 85 686 C85 724.667 102.667 743 128 743 C152 743 170 724.667 170 686 C170 644.667 152 626 128 626 Z M282 626 C256.667 626 239 646 239 686 C239 724.667 256.667 743 282 743 C306 743 324 724.667 324 686 C324 644.667 306 626 282 626 Z " /></g><path fill="black" d="M112 75 C117.255 119.664 128.944 232.922 137 292 L168 535 L241 535 L275 290 C285.53 224.185 297.32 120.564 300 75 L304 75 C304 120.331 310.334 328.337 313 379 L331 714 L397 714 L352 0 L264 0 L223 330 C216.333 390 211 416.667 207 446 L204 446 C201.333 416.667 195.667 390 189 330 L148 0 L61 0 L13 714 L75 714 C81.6667 600.667 89.3333 491.333 96 378 C98.6476 319.752 110 121.008 110 75 L112 75 Z " /></glyph>
<glyph glyph-name="wdieresis" unicode="&#x1e85;" horiz-adv-x="440" >
<g transform="translate(2,-11)" ><path fill="black" d="M128 626 C102.667 626 85 646 85 686 C85 724.667 102.667 743 128 743 C152 743 170 724.667 170 686 C170 644.667 152 626 128 626 Z M282 626 C256.667 626 239 646 239 686 C239 724.667 256.667 743 282 743 C306 743 324 724.667 324 686 C324 644.667 306 626 282 626 Z " /></g><path fill="black" d="M111 67 C113.652 106.781 123.865 194.616 132 238 L167 443 L242 443 L276 238 C284.013 195.262 292.656 104.406 298 67 L300 67 C302.609 100.918 306.739 193.504 312 254 L337 535 L401 535 L343 0 L255 0 L226 208 C218 260 210.333 317 205 369 L202 369 C198 317 188.667 258 182 206 L152 0 L65 0 L10 535 L74 535 L98 254 C103.306 195.635 106.283 105.032 109 67 L111 67 Z " /></glyph>
<glyph glyph-name="uni2010" unicode="&#x2010;" horiz-adv-x="410" >
<g transform="translate(2,0)" ><path fill="black" d="M103 308 L307 308 L307 234 L103 234 L103 308 Z " /></g></glyph>
<glyph glyph-name="endash" unicode="&#x2013;" horiz-adv-x="440" d="M63 308 L348 308 L348 234 L63 234 L63 308 Z " />
<glyph glyph-name="emdash" unicode="&#x2014;" horiz-adv-x="440" >
<g transform="translate(0,388)" ><path fill="black" d="M2 -80 L408 -80 L408 -154 L2 -154 L2 -80 Z " /></g></glyph>
<glyph glyph-name="quoteleft" unicode="&#x2018;" horiz-adv-x="440" >
<path fill="black" d="M152 469 L147 480 C161.667 564 182.667 642 208 714 L264 714 C245.333 631.333 233.333 541 228 469 L152 469 Z " /></glyph>
<glyph glyph-name="quoteright" unicode="&#x2019;" horiz-adv-x="440" >
<g transform="translate(3,0)" ><path fill="black" d="M147 469 C163 549 177.667 644.667 183 714 L258 714 L264 703 C249.333 621 229 543 203 469 L147 469 Z " /></g></glyph>
<glyph glyph-name="quotesinglbase" unicode="&#x201a;" horiz-adv-x="440" >
<g transform="translate(2,0)" ><path fill="black" d="M130 -131 C146 -49.6667 161.333 43 168 115 L246 115 L252 104 C237.333 26.6667 213.667 -59 187 -131 L130 -131 Z " /></g></glyph>
<glyph glyph-name="quotedblleft" unicode="&#x201c;" horiz-adv-x="440" >
<g transform="translate(-69,0)" ><path fill="black" d="M152 469 L147 480 C161.667 564 182.667 642 208 714 L264 714 C245.333 631.333 233.333 541 228 469 L152 469 Z " /></g><g transform="translate(83,0)" ><path fill="black" d="M152 469 L147 480 C161.667 564 182.667 642 208 714 L264 714 C245.333 631.333 233.333 541 228 469 L152 469 Z " /></g></glyph>
<glyph glyph-name="quotedblright" unicode="&#x201d;" horiz-adv-x="440" >
<g transform="translate(-85,1)" ><path fill="black" d="M147 469 C163 549 177.667 644.667 183 714 L258 714 L264 703 C249.333 621 229 543 203 469 L147 469 Z " /></g><g transform="translate(67,1)" ><path fill="black" d="M147 469 C163 549 177.667 644.667 183 714 L258 714 L264 703 C249.333 621 229 543 203 469 L147 469 Z " /></g></glyph>
<glyph glyph-name="quotedblbase" unicode="&#x201e;" horiz-adv-x="440" >
<g transform="translate(-60,0)" ><path fill="black" d="M130 -131 C146 -49.6667 161.333 43 168 115 L246 115 L252 104 C237.333 26.6667 213.667 -59 187 -131 L130 -131 Z " /></g><g transform="translate(89,0)" ><path fill="black" d="M130 -131 C146 -49.6667 161.333 43 168 115 L246 115 L252 104 C237.333 26.6667 213.667 -59 187 -131 L130 -131 Z " /></g></glyph>
<glyph glyph-name="dagger" unicode="&#x2020;" horiz-adv-x="440" d="M165 0 L180 501 L63 493 L63 563 L180 551 L165 760 L244 760 L228 551 L345 563 L345 493 L228 501 L244 0 L165 0 Z " />
<glyph glyph-name="daggerdbl" unicode="&#x2021;" horiz-adv-x="440" d="M63 246 L180 237 L170 384 L180 523 L63 514 L63 584 L180 572 L165 760 L242 760 L228 572 L345 584 L345 514 L228 523 L238 384 L228 237 L345 246 L345 176 L228 187 L242 0 L165 0 L180 187 L63 176 L63 246 Z " />
<glyph glyph-name="bullet" unicode="&#x2022;" horiz-adv-x="440" d="M205 234 C141 234 103 278.333 103 365 C103 453 138.333 497 205 497 C270.333 497 307 451.667 307 365 C307 279.667 269 234 205 234 Z " />
<glyph glyph-name="ellipsis" unicode="&#x2026;" horiz-adv-x="440" >
<path fill="black" d="M205 -12 L204 -12 C174.667 -12 155 9 155 53 C155 95.6667 174.667 115 204 115 L205 115 L206 115 C236.667 115 257 97 257 53 C257 9 235.333 -12 206 -12 L205 -12 Z " /></glyph>
<glyph glyph-name="perthousand" unicode="&#x2030;" horiz-adv-x="440" d="M115 -168 C41.6667 -168 1 -88.3333 1 57 C1 205 39 279 115 279 C156.333 279 187.333 256 208 210 C227.333 256 258 279 300 279 C376 279 418 202.333 418 57 C418 -92.3333 378.667 -168 300 -168 C259.333 -168 229.333 -144.333 210 -97 C190 -144.333 158.333 -168 115 -168 Z M204 456 C130.667 456 90 535.667 90 681 C90 829 128 903 204 903 C280 903 322 826.333 322 681 C322 531.667 282.667 456 204 456 Z M116 -112 C153.333 -112 176 -60 176 56 C176 170.667 152.333 222 115 222 C76.3333 222 58 170.667 58 56 C58 -60 77.3333 -112 116 -112 Z M301 -112 C338.333 -112 361 -60 361 56 C361 170.667 337.333 222 300 222 C261.333 222 243 170.667 243 56 C243 -60 262.333 -112 301 -112 Z M205 512 C242.333 512 265 564 265 680 C265 794.667 241.333 846 204 846 C165.333 846 147 794.667 147 680 C147 564 166.333 512 205 512 Z M34 360 L370 409 L370 367 L34 317 L34 360 Z " />
<glyph glyph-name="guilsinglleft" unicode="&#x2039;" horiz-adv-x="440" d="M238 65 L120 257 L120 271 L238 464 L289 437 L204 264 L289 94 L238 65 Z " />
<glyph glyph-name="guilsinglright" unicode="&#x203a;" horiz-adv-x="440" d="M206 295 L122 465 L172 494 L291 302 L291 288 L172 95 L122 122 L206 295 Z " />
<glyph glyph-name="fraction" unicode="&#x2044;" horiz-adv-x="440" d="M33 360 L369 409 L369 367 L33 317 L33 360 Z " />
<glyph glyph-name="franc" unicode="&#x20a3;" horiz-adv-x="440" d="M85 132 L33 132 L33 194 L85 194 L85 714 L353 714 L353 638 L161 638 L161 399 L338 399 L338 323 L161 323 L161 194 L274 194 L274 132 L161 132 L161 0 L85 0 L85 132 Z " />
<glyph glyph-name="lira" unicode="&#x20a4;" horiz-adv-x="440" d="M365 72 L365 0 L63 0 L63 67 C107 91 117.667 135.333 119 234 L60 234 L60 291 L119 291 L119 377 L60 377 L60 435 L119 435 L119 535 C119 661 165.667 724 259 724 C295.667 724 330.333 710.333 363 683 L337 620 C312.333 642 287.667 653 263 653 C213.667 653 193 617.667 193 535 L193 435 L305 435 L305 377 L193 377 L193 291 L305 291 L305 234 L192 234 C190.667 140.667 177.667 100 143 72 L365 72 Z " />
<glyph glyph-name="peseta" unicode="&#x20a7;" horiz-adv-x="440" d="M25 714 L138 714 C263.333 714 315 645.333 315 524 C315 497.333 312 472 306 448 L321 448 L321 317 L408 317 L408 260 L321 260 L321 125 C321 78.3333 331.667 54 361 54 C375.667 54 397.333 59 408 63 L408 7 C394.667 0.333333 373.333 -6 348 -6 C286.667 -6 256 31 256 115 L256 260 L202 260 L202 293 L257 325 L262 365 C231.333 334.333 188.667 317 126 317 L101 317 L101 0 L25 0 L25 714 Z M121 390 C199.667 390 238 427.333 238 518 C238 602 205 641 133 641 L101 641 L101 390 L121 390 Z " />
<glyph glyph-name="Euro" unicode="&#x20ac;" horiz-adv-x="440" d="M44 306 L95 306 C95 320.667 94 336.333 94 351 C94 365.667 95 379.333 95 394 L44 394 L44 448 L99 448 C106.947 596.339 160.374 725 259 725 C296.333 725 332 712 366 686 L339 617 C312.333 639.667 287 651 263 651 C205.667 651 179.667 577.333 173 448 L293 448 L293 394 L170 394 C170 379.333 169 365.333 169 352 C169 336 170 320.667 170 306 L277 306 L277 252 L173 252 C181 122.667 210 64 270 64 C299.333 64 323.667 74.3333 357 93 L357 17 C328.333 -1 297 -10 263 -10 C163 -10 112.333 85.3333 99 252 L44 252 L44 306 Z " />
<glyph glyph-name="uni2113" unicode="&#x2113;" horiz-adv-x="440" d="M119 276 C108.333 270.667 89.6667 262.667 63 252 L63 313 C81.6667 319.667 100.333 328 119 338 L119 563 C119 669.667 154 723 224 723 C288 723 326 668 326 568 C326 446.667 279.667 355.333 189 302 L189 168 C189 91.3333 204.667 53 236 53 C270 53 287 89.6667 287 163 L346 163 C345.333 48.3333 305.667 -9 227 -9 C155 -9 119 51.3333 119 166 L119 276 Z M188 365 C236.667 405.667 261 473.333 261 568 C261 632 247.667 662 225 662 C199.667 662 188 638 188 570 L188 365 Z " />
<glyph glyph-name="trademark" unicode="&#x2122;" horiz-adv-x="440" d="M184 363 L184 714 L249 714 L292 541 L337 714 L401 714 L401 363 L357 363 L357 565 C357 585 357.667 623.667 359 649 L356 649 L312 482 L272 482 L229 649 L226 649 C227.333 623.667 228 586 228 570 L228 363 L184 363 Z M56 363 L56 664 L-5 664 L-5 714 L163 714 L163 664 L103 664 L103 363 L56 363 Z " />
<glyph glyph-name="Omega" unicode="&#x2126;" horiz-adv-x="440" >
<g transform="translate(2,0)" ><path fill="black" d="M17 72 L106 72 C55.3333 138.667 21 243.667 21 401 C21 621 87 724 207 724 C324.333 724 389 616.667 389 402 C389 240.667 356.333 136 303 72 L394 72 L394 0 L234 0 L234 64 C292.667 140 313 244.333 313 395 C313 564.333 280.333 655 207 655 C133.667 655 97 568.333 97 395 C97 245.667 121.333 137.333 176 64 L176 0 L17 0 L17 72 Z " /></g></glyph>
<glyph glyph-name="estimated" unicode="&#x212e;" horiz-adv-x="440" d="M95 83 C117.667 52.3333 153.667 25 207 25 C283 25 327.667 75.3333 361 142 L390 119 C352.155 43.31 303.474 -17 208 -17 C72.0519 -17 2 110.896 2 263 C2 450.636 109.177 535 208 535 C317.437 535 408 429.563 408 259 L95 259 L95 83 Z M95 301 L316 301 L316 436 C297.333 462.667 256 494 208 494 C156 494 121.667 469 95 437 L95 301 Z " />
<glyph glyph-name="uni2219" unicode="&#x2219;" horiz-adv-x="410" >
<g transform="translate(4,282)" ><path fill="black" d="M204 -12 C173.333 -12 155 9 155 53 C155 95.6667 173.333 115 204 115 C233.333 115 254 97 254 53 C254 9 232 -12 204 -12 Z " /></g></glyph>
<glyph glyph-name="radical" unicode="&#x221a;" horiz-adv-x="440" d="M345 825 L410 825 L233 -7 L168 -7 L88 376 L17 376 L17 441 L134 441 L201 99 L345 825 Z " />
<glyph glyph-name="infinity" unicode="&#x221e;" horiz-adv-x="440" d="M110 199 C48.6667 199 6 261 6 353 C6 440.082 42.1039 507 106 507 C148.667 507 179.333 472.667 206 414 C227.333 464.667 256 505 304 505 C366.667 505 403 442.667 403 356 C403 264.234 361.312 197 301 197 C255.667 197 227.667 233.667 205 287 C181 235 156.667 199 110 199 Z M116 261 C146.667 261 162.333 293 181 349 C161 405 144 445 112 445 C82.6667 445 65 409 65 353 C65 301 81.3333 261 116 261 Z M295 259 C325.667 259 345 297.667 345 351 C345 404.333 325.333 444 296 444 C268 444 253.667 404.667 231 350 C249.667 299.333 264.333 259 295 259 Z " />
<glyph glyph-name="approxequal" unicode="&#x2248;" horiz-adv-x="440" >
<g transform="translate(0,104)" ><path fill="black" d="M358 341 C336.667 310.333 309.667 293 279 293 C245.667 293 225.333 302 196 322 C168.667 340 145.667 349 127 349 C103 349 76.3333 327.333 51 290 L51 363 C72.3333 397 99 414 131 414 C161.667 414 183.667 402.667 213 384 C241 365.333 261.667 357 283 357 C307 357 335.333 380.333 358 415 L358 341 Z " /></g><g transform="translate(0,-108)" ><path fill="black" d="M358 341 C336.667 310.333 309.667 293 279 293 C245.667 293 225.333 302 196 322 C168.667 340 145.667 349 127 349 C103 349 76.3333 327.333 51 290 L51 363 C72.3333 397 99 414 131 414 C161.667 414 183.667 402.667 213 384 C241 365.333 261.667 357 283 357 C307 357 335.333 380.333 358 415 L358 341 Z " /></g></glyph>
<glyph glyph-name="lessequal" unicode="&#x2264;" horiz-adv-x="440" d="M50 350 L50 395 L355 593 L355 519 L132 372 L355 223 L355 149 L50 350 Z M50 0 L50 65 L354 65 L354 0 L50 0 Z " />
<glyph glyph-name="greaterequal" unicode="&#x2265;" horiz-adv-x="440" d="M52 223 L275 372 L52 519 L52 593 L357 395 L357 350 L52 149 L52 223 Z M53 65 L357 65 L357 0 L53 0 L53 65 Z " />
</font>
</svg>
