<?xml version="1.0" encoding="UTF-8"?>
<svg xmlns="http://www.w3.org/2000/svg" xmlns:xlink="http://www.w3.org/1999/xlink" version="1.1" >
<font id="Monoto-3Cd600SmBd" horiz-adv-x="434">
<font-face  font-family="Monoto 3 Cd" units-per-em="1000" ascent="955" descent="-235" font-style="normal" font-weight="600" font-stretch="condensed" cap-height="714" x-height="547" underline-position="-75" underline-thickness="50" />
<missing-glyph horiz-adv-x="437" d="M39 0 L39 714 L369 714 L369 0 L39 0 Z M328 51 L328 663 L79 663 L79 51 L328 51 Z " />
<glyph glyph-name="uni0000" horiz-adv-x="437" />
<glyph glyph-name="uni000D" unicode="&#xd;" horiz-adv-x="437" />
<glyph glyph-name="space" unicode="&#x20;" horiz-adv-x="437" />
<glyph glyph-name="exclam" unicode="&#x21;" horiz-adv-x="437" d="M159 222 L140 714 L269 714 L251 222 L159 222 Z M205 -12 C165 -12 139 14.3333 139 65 C139 115.667 162.333 141 205 141 C245 141 270 115.667 270 65 C270 14.3333 243.667 -12 205 -12 Z " />
<glyph glyph-name="quotedbl" unicode="&#x22;" horiz-adv-x="437" >
<g transform="translate(-85,0)" ><path fill="black" d="M159 456 L143 714 L264 714 L247 456 L159 456 Z " /></g><g transform="translate(84,0)" ><path fill="black" d="M159 456 L143 714 L264 714 L247 456 L159 456 Z " /></g></glyph>
<glyph glyph-name="numbersign" unicode="&#x23;" horiz-adv-x="437" d="M59 0 L80 206 L16 206 L16 288 L91 288 L103 434 L34 434 L34 517 L115 517 L134 714 L212 714 L191 517 L250 517 L269 714 L346 714 L326 517 L390 517 L390 434 L315 434 L303 288 L372 288 L372 206 L293 206 L272 0 L194 0 L215 206 L156 206 L137 0 L59 0 Z M225 288 L238 434 L180 434 L168 288 L225 288 Z " />
<glyph glyph-name="dollar" unicode="&#x24;" horiz-adv-x="437" d="M56 176 C90.6667 149.333 140.333 127.667 183 125 L183 326 C92.3333 370 50 421 50 517 C50 615.667 103 676.333 183 687 L183 760 L234 760 L234 688 C276 684.667 315 671.333 351 648 L327 563 C296.333 583 266 593 234 597 L234 403 C322 360.333 363 314.333 363 221 C363 126.333 316.667 58.3333 234 41 L234 -58 L183 -58 L183 37 C139 39.6667 92 52.6667 56 74 L56 176 Z M137 516 C137 473.333 148.333 452.333 183 427 L183 596 C149.667 589.333 137 558.667 137 516 Z M234 131 C266 141.667 278 173 278 213 C278 255.667 264.667 279.333 234 302 L234 131 Z " />
<glyph glyph-name="percent" unicode="&#x25;" horiz-adv-x="437" d="M5 168 L312 545 L402 545 L94 168 L5 168 Z M292 -10 C224 -10 182 53.3333 182 160 C182 266.667 222.333 329 293 329 C362.333 329 405 268 405 160 C405 52 364 -10 292 -10 Z M112 384 C44 384 2 447.333 2 554 C2 660.667 42.3333 723 113 723 C182.333 723 225 662 225 554 C225 446 184 384 112 384 Z M294 63 C312.667 63 322 95.3333 322 160 C322 224 315.333 256 294 256 C271.333 256 265 224 265 160 C265 96 271.333 63 294 63 Z M114 457 C132.667 457 142 489.333 142 554 C142 618 135.333 650 114 650 C91.3333 650 85 618 85 554 C85 490 91.3333 457 114 457 Z " />
<glyph glyph-name="ampersand" unicode="&#x26;" horiz-adv-x="437" d="M276 34 C245.333 7.33333 209.667 -10 163 -10 C64.3333 -10 23 67.1299 23 171 C23 263 59.6667 320.667 113 382 C86.3333 440.667 63 501 63 573 C63 669 108 724 184 724 C264 724 301 665.333 301 576 C301 490.667 263.667 427 217 371 L284 228 C294.667 270.667 303.333 316.333 306 355 L390 355 C382 272.333 366 187 334 119 L390 0 L292 0 L276 34 Z M154 295 C131.333 260.333 115 224.667 115 178 C115 115.333 141.667 84 175 84 C197.667 84 218.667 97.3333 236 120 L154 295 Z M178 457 C198 486.333 217 525.333 217 576 C217 619.333 206 641 184 641 C161.333 641 150 619 150 575 C150 532.333 163.333 491.667 178 457 Z " />
<glyph glyph-name="quotesingle" unicode="&#x27;" horiz-adv-x="437" d="M159 456 L143 714 L264 714 L247 456 L159 456 Z " />
<glyph glyph-name="parenleft" unicode="&#x28;" horiz-adv-x="437" d="M229 -170 C159.667 -54 119 90.6667 119 268 C119 446.667 162.333 600.667 229 714 L327 714 C259 584 225 435.667 225 269 C225 106.333 262 -38 326 -170 L229 -170 Z " />
<glyph glyph-name="parenright" unicode="&#x29;" horiz-adv-x="437" d="M79 -170 C147 -40 181 108.333 181 275 C181 437.667 144 582 80 714 L177 714 C246.333 598 287 453.333 287 276 C287 97.3333 243.667 -56.6667 177 -170 L79 -170 Z " />
<glyph glyph-name="asterisk" unicode="&#x2a;" horiz-adv-x="437" d="M144 549 L43 564 L66 666 L166 622 L151 762 L256 762 L241 622 L342 667 L364 564 L262 549 L338 438 L254 378 L203 506 L152 378 L69 438 L144 549 Z " />
<glyph glyph-name="plus" unicode="&#x2b;" horiz-adv-x="437" d="M42 400 L159 400 L159 592 L250 592 L250 400 L366 400 L366 306 L250 306 L250 116 L159 116 L159 306 L42 306 L42 400 Z " />
<glyph glyph-name="comma" unicode="&#x2c;" horiz-adv-x="437" d="M124 -134 C137.253 -57.1318 152.342 56.2375 155 128 L266 128 L271 117 C256.333 25 237 -62 213 -134 L124 -134 Z " />
<glyph glyph-name="hyphen" unicode="&#x2d;" horiz-adv-x="437" d="M102 325 L304 325 L304 216 L102 216 L102 325 Z " />
<glyph glyph-name="period" unicode="&#x2e;" horiz-adv-x="437" d="M204 -12 C164 -12 138 14.3333 138 65 C138 115.667 161.333 141 204 141 C244 141 269 115.667 269 65 C269 14.3333 242.667 -12 204 -12 Z " />
<glyph glyph-name="slash" unicode="&#x2f;" horiz-adv-x="437" d="M27 -6 L246 720 L344 720 L125 -6 L27 -6 Z " />
<glyph glyph-name="zero" unicode="0" horiz-adv-x="437" d="M203 -10 C75 -10 18 118.333 18 357 C18 601 72.6667 725 202 725 C328.667 725 389 595.667 389 357 C389 138.411 347.918 -10 203 -10 Z M148 157 C159.333 118.333 177.333 99 202 99 C258 99 275 181 275 357 C275 379.667 275.333 399 274 419 L148 157 Z M257 563 C245.667 598.333 227.333 616 202 616 C151.333 616 131 529 131 357 C131 337 130.667 317.667 132 299 L257 563 Z " />
<glyph glyph-name="one" unicode="1" horiz-adv-x="437" d="M56 89 L161 101 L161 415 C161 463 161.333 532 164 576 C149.333 560 138 549.667 122 535 L81 497 L24 592 L181 714 L281 714 L281 101 L376 89 L376 0 L56 0 L56 89 Z " />
<glyph glyph-name="two" unicode="2" horiz-adv-x="437" d="M35 97 L142 283 C203.181 389.402 232 446.233 232 519 C232 579 215.667 613 181 613 C147.667 613 117.667 587.333 83 542 L22 626 C72.6667 692.667 124.667 724 194 724 C290 724 356 653 356 525 C356 429.695 321.818 356.461 253 240 L185 119 L185 113 L366 113 L366 0 L36 0 L35 97 Z " />
<glyph glyph-name="three" unicode="3" horiz-adv-x="437" d="M35 147 C75.6667 115.667 116.667 100 158 100 C214 100 238 138.667 238 208 C238 284 209.333 314 136 314 L105 314 L105 420 L137 420 C203.667 420 233 462 233 530 C233 584.667 215.667 614 177 614 C147.667 614 116.667 598.333 84 567 L37 659 C78.3333 700.333 130.333 724 193 724 C297 724 356 658 356 546 C356 458 322.667 400 256 376 L256 373 C331.333 356.333 369 299.333 369 202 C369 72.6667 298 -10 166 -10 C126 -10 83 -1.33333 35 28 L35 147 Z " />
<glyph glyph-name="four" unicode="4" horiz-adv-x="437" d="M22 254 L208 716 L323 716 L323 257 L385 257 L385 150 L323 150 L323 0 L209 0 L209 150 L22 150 L22 254 Z M209 257 L209 397 C209 438.216 212 512.216 212 555 L209 555 C202.333 521.667 190.333 482.667 181 456 L121 257 L209 257 Z " />
<glyph glyph-name="five" unicode="5" horiz-adv-x="437" d="M44 146 C80 118 126.333 100 161 100 C207.667 100 235 141 235 225 C235 303.667 207.667 345 157 345 C137 345 114 338 94 330 L51 361 L68 714 L331 714 L331 600 L174 600 L167 444 C189 450 205.667 453 217 453 C301 453 362 372.333 362 231 C362 80.3333 297.333 -10 168 -10 C120 -10 78.6667 2.66667 44 28 L44 146 Z " />
<glyph glyph-name="six" unicode="6" horiz-adv-x="437" d="M150 377 C170 429 199 462 243 462 C324.333 462 373 378.667 373 236 C373 86.6147 313 -10 209 -10 C101 -10 34 96.6667 34 306 C34 526.416 81.1775 724 268 724 C293.333 724 318.333 721.333 343 716 L343 609 C323.667 615.667 302 619 278 619 C187.333 619 150 527.667 146 377 L150 377 Z M207 98 C233.667 98 254 141 254 233 C254 313 238.667 358 208 358 C177.333 358 155 310 155 246 C155 174 173.303 98 207 98 Z " />
<glyph glyph-name="seven" unicode="7" horiz-adv-x="437" d="M77 0 L243 600 L34 600 L34 714 L371 714 L371 621 L209 0 L77 0 Z " />
<glyph glyph-name="eight" unicode="8" horiz-adv-x="437" d="M201 -10 C97 -10 33 57 33 185 C33 273 58.6667 331.333 120 374 C72 418 48 476.667 48 550 C48 666 110.667 725 204 725 C298.667 725 359 666 359 550 C359 472.667 332.667 415 280 377 C346.667 326.333 373 271 373 187 C373 64.3333 309 -10 201 -10 Z M203 92 C241.667 92 259 126.667 259 188 C259 244 242.667 273.333 200 316 C161.333 281.333 148 242 148 186 C148 127.333 164.333 92 203 92 Z M203 436 C235 465.333 245 495.333 245 542 C245 596.667 227 623 203 623 C177.667 623 161 593.667 161 543 C161 492.333 176.333 464 203 436 Z " />
<glyph glyph-name="nine" unicode="9" horiz-adv-x="437" d="M61 106 C81 98 102.333 95 125 95 C214.333 95 254 187.667 258 337 L254 337 C232.667 283.667 203.667 253 161 253 C78.3333 253 31 335.333 31 478 C31 628.667 93.6667 724 195 724 C303 724 370 615.333 370 406 C370 190.104 315.39 -10 135 -10 C109 -10 84.3333 -7 61 -1 L61 106 Z M195 356 C229.667 356 250 407 250 471 C250 547.338 229.944 616 197 616 C166.333 616 149 571.667 149 481 C149 401 164.333 356 195 356 Z " />
<glyph glyph-name="colon" unicode="&#x3a;" horiz-adv-x="437" >
<g transform="translate(0,409)" ><path fill="black" d="M204 -12 C164 -12 138 14.3333 138 65 C138 115.667 161.333 141 204 141 C244 141 269 115.667 269 65 C269 14.3333 242.667 -12 204 -12 Z " /></g><path fill="black" d="M204 -12 C164 -12 138 14.3333 138 65 C138 115.667 161.333 141 204 141 C244 141 269 115.667 269 65 C269 14.3333 242.667 -12 204 -12 Z " /></glyph>
<glyph glyph-name="semicolon" unicode="&#x3b;" horiz-adv-x="437" d="M124 -134 C136.971 -108.057 151.647 54.7389 157 127 L267 127 L273 116 C258.333 24 238 -62 214 -134 L124 -134 Z M207 398 C167 398 141 424.333 141 475 C141 525.667 164.333 551 207 551 C247 551 272 525.667 272 475 C272 424.333 245.667 398 207 398 Z " />
<glyph glyph-name="less" unicode="&#x3c;" horiz-adv-x="437" d="M30 327 L30 389 L358 591 L358 486 L158 358 L358 228 L358 124 L30 327 Z " />
<glyph glyph-name="equal" unicode="&#x3d;" horiz-adv-x="437" d="M43 294 L364 294 L364 190 L43 190 L43 294 Z M43 508 L364 508 L364 404 L43 404 L43 508 Z " />
<glyph glyph-name="greater" unicode="&#x3e;" horiz-adv-x="437" d="M39 228 L239 358 L39 486 L39 591 L367 389 L367 327 L39 124 L39 228 Z " />
<glyph glyph-name="question" unicode="&#x3f;" horiz-adv-x="437" d="M140 222 L140 256 C140 325.333 154.333 364.667 193 414 C230.484 464.871 242 492.099 242 543 C242 595 224.667 621 190 621 C156.667 621 125.667 603.667 91 577 L55 668 C101.667 705.333 149.667 724 199 724 C299 724 351 660 351 552 C351 463.985 324.016 421.353 276 360 C236.723 310.249 232 288.528 232 244 L232 222 L140 222 Z M188 -12 C148 -12 122 14.3333 122 65 C122 115.667 145.333 141 188 141 C228 141 253 115.667 253 65 C253 14.3333 226.667 -12 188 -12 Z " />
<glyph glyph-name="at" unicode="&#x40;" horiz-adv-x="437" d="M327 -44 C289.667 -72 249 -86 213 -86 C69.1818 -86 2 54.3636 2 290 C2 558.26 87.9957 714 215 714 C333.667 714 404 585.333 404 364 C404 223.662 375.693 107 309 107 C279.667 107 259.667 131.333 249 170 L247 170 C235 131.333 212.667 107 186 107 C131.333 107 98 179.333 98 298 C98 436.667 149.667 523 227 523 C256.333 523 286.333 513.333 309 500 L301 298 C299.667 284.667 300 267.667 300 257 C300 203.667 304 177 312 177 C330.667 177 337 248 337 360 C337 545.333 293 641 217 641 C132.688 641 71 515.255 71 294 C71 110.97 109.463 -14 216 -14 C249.333 -14 286.333 0.333333 327 29 L327 -44 Z M234 447 C231.333 451 227.333 453 222 453 C192.667 453 173 394.333 173 297 C173 219.667 183.333 177 202 177 C220.667 177 224.667 220.667 230 334 L234 447 Z " />
<glyph glyph-name="A" unicode="A" horiz-adv-x="437" d="M119 715 L284 715 L398 0 L285 0 L260 189 L148 189 L124 0 L9 0 L119 715 Z M246 295 L221 485 C215.667 526.333 207 580.333 203 619 C199 580.333 190.333 526.333 185 485 L161 295 L246 295 Z " />
<glyph glyph-name="B" unicode="B" horiz-adv-x="437" d="M41 0 L41 714 L192 714 C306.667 714 369 660.333 369 539 C369 455 339.667 395 293 379 L293 374 C350.333 354 380 303 380 211 C380 77.6667 311 0 203 0 L41 0 Z M150 105 L195 105 C248.333 105 271 143.333 271 214 C271 284.667 248 322 192 322 L150 322 L150 105 Z M150 419 L187 419 C233.667 419 261 452 261 516 C261 580 233.333 609 184 609 L150 609 L150 419 Z " />
<glyph glyph-name="C" unicode="C" horiz-adv-x="437" d="M371 24 C332.333 0 289.667 -10 243 -10 C101.667 -10 26 123.667 26 349 C26 571.277 107.641 726 249 726 C310.333 726 349.667 710.667 391 680 L356 581 C326.667 606.333 294.667 617 264 617 C182.952 617 143 508.797 143 354 C143 191.333 183.333 98 262 98 C300.667 98 335 115 371 135 L371 24 Z " />
<glyph glyph-name="D" unicode="D" horiz-adv-x="437" d="M25 0 L25 714 L191 714 C318.948 714 393 586.152 393 369 C393 133.286 305.978 0 187 0 L25 0 Z M139 110 L174 110 C244.667 110 275 201 275 361 C275 531.667 243.333 604 178 604 L139 604 L139 110 Z " />
<glyph glyph-name="E" unicode="E" horiz-adv-x="437" d="M372 110 L372 0 L40 0 L40 714 L372 714 L372 604 L156 604 L156 421 L358 421 L358 311 L156 311 L156 110 L372 110 Z " />
<glyph glyph-name="F" unicode="F" horiz-adv-x="437" d="M40 0 L40 714 L372 714 L372 604 L156 604 L156 394 L359 394 L359 284 L156 284 L156 0 L40 0 Z " />
<glyph glyph-name="G" unicode="G" horiz-adv-x="437" d="M274 289 L222 289 L222 397 L382 397 L382 29 C335.333 1 289.667 -10 243 -10 C85.7965 -10 14 125.797 14 347 C14 582.662 101.234 726 249 726 C306.333 726 347.333 707.667 382 681 L348 583 C314.667 609.667 291.333 618 258 618 C171.333 618 130 523.667 130 349 C130 207.537 161.281 98 228 98 C244 98 260.667 103.333 274 110 L274 289 Z " />
<glyph glyph-name="H" unicode="H" horiz-adv-x="437" d="M25 0 L25 714 L140 714 L140 423 L268 423 L268 714 L383 714 L383 0 L268 0 L268 314 L140 314 L140 0 L25 0 Z " />
<glyph glyph-name="I" unicode="I" horiz-adv-x="437" d="M46 88 L148 101 L148 614 L46 626 L46 714 L361 714 L361 626 L261 614 L261 101 L361 88 L361 0 L46 0 L46 88 Z " />
<glyph glyph-name="J" unicode="J" horiz-adv-x="437" d="M35 119 C68.3333 104.333 98.3333 97 117 97 C183.667 97 229 146 229 254 L229 714 L343 714 L343 228 C343 88.3117 269.563 -10 131 -10 C96.3333 -10 63 -0.666667 35 14 L35 119 Z " />
<glyph glyph-name="K" unicode="K" horiz-adv-x="437" d="M26 0 L26 714 L137 714 L137 365 C151.667 401 169.667 438.333 187 481 L272 714 L396 714 L265 393 L396 0 L269 0 L180 301 L137 242 L137 0 L26 0 Z " />
<glyph glyph-name="L" unicode="L" horiz-adv-x="437" d="M372 111 L372 0 L49 0 L49 714 L165 714 L165 111 L372 111 Z " />
<glyph glyph-name="M" unicode="M" horiz-adv-x="437" d="M14 0 L14 714 L165 714 L204 287 L207 287 L243 714 L392 714 L392 0 L297 0 L298 282 C298 350.903 315.359 577.46 318 625 L312 625 L259 189 L149 189 L99 625 L92 625 C94.6233 583.027 109 356.105 109 281 L111 0 L14 0 Z " />
<glyph glyph-name="N" unicode="N" horiz-adv-x="437" d="M26 0 L26 714 L181 714 L287 112 L292 112 C289.388 164.242 280 264.23 280 332 L280 714 L381 714 L381 0 L230 0 L119 608 L114 608 C118 524 126 453 126 377 L126 0 L26 0 Z " />
<glyph glyph-name="O" unicode="O" horiz-adv-x="437" d="M203 -8 C70.6623 -8 14 138.563 14 360 C14 593.333 68.3333 726 203 726 C336.385 726 393 582 393 358 C393 136.719 336.385 -8 203 -8 Z M205 101 C259.667 101 275 198 275 358 C275 528.667 258.667 616 204 616 C148 616 131 521.667 131 359 C131 197.667 149 101 205 101 Z " />
<glyph glyph-name="P" unicode="P" horiz-adv-x="437" d="M41 0 L41 714 L203 714 C325.667 714 380 637.667 380 495 C380 358.818 330.416 262 198 262 L154 262 L154 0 L41 0 Z M154 366 L187 366 C248.333 366 271 402.333 271 489 C271 574.333 245.667 611 199 611 L154 611 L154 366 Z " />
<glyph glyph-name="Q" unicode="Q" horiz-adv-x="437" d="M220 -7 C213.333 -8.33333 209.667 -8 203 -8 C70.6623 -8 14 138.563 14 360 C14 593.333 68.3333 726 203 726 C336.385 726 393 582 393 358 C393 212.667 369.667 102 315 42 L391 -180 L270 -180 L220 -7 Z M205 101 C259.667 101 275 198 275 358 C275 528.667 258.667 616 204 616 C148 616 131 521.667 131 359 C131 197.667 149 101 205 101 Z " />
<glyph glyph-name="R" unicode="R" horiz-adv-x="437" d="M41 0 L41 714 L182 714 C308 714 371 645 371 507 C371 407 347.333 344.667 294 310 L398 0 L274 0 L196 278 L152 278 L152 0 L41 0 Z M152 383 L179 383 C233 383 260 422 260 500 C260 576 236.333 610 179 610 L152 610 L152 383 Z " />
<glyph glyph-name="S" unicode="S" horiz-adv-x="437" d="M41 150 C83.6667 118 128 98 176 98 C239.844 98 254 142.104 254 190 C254 251.322 224.978 272.682 161 318 C89.339 371.082 38 421.019 38 531 C38 656.333 104.333 725 215 725 C267 725 314 710.667 362 680 L327 578 C287.667 604.667 252.333 618 221 618 C173 618 154 582.333 154 533 C154 477.817 180.066 455.239 235 416 C324.617 350.105 370 310.894 370 197 C370 55.6667 298.333 -10 181 -10 C131.667 -10 85 2 41 30 L41 150 Z " />
<glyph glyph-name="T" unicode="T" horiz-adv-x="437" d="M146 0 L146 604 L17 604 L17 714 L390 714 L390 604 L261 604 L261 0 L146 0 Z " />
<glyph glyph-name="U" unicode="U" horiz-adv-x="437" d="M25 714 L141 714 L141 260 C141 145.333 152.333 100 203 100 C257.667 100 266 148.667 266 262 L266 714 L383 714 L383 253 C383 74.3333 334.667 -10 204 -10 C74.6667 -10 25 73.6667 25 251 L25 714 Z " />
<glyph glyph-name="V" unicode="V" horiz-adv-x="437" d="M204 110 C208 156.667 217.333 227.333 224 278 L282 714 L400 714 L271 0 L133 0 L7 714 L123 714 L183 277 C189.667 227.667 198 156.667 202 110 L204 110 Z " />
<glyph glyph-name="W" unicode="W" horiz-adv-x="437" d="M122 111 C127.387 164.874 137.298 272.955 140 327 L156 545 L251 545 L269 326 C274.428 260.869 285.332 164.37 288 111 L292 111 C292 198.013 298 352.791 298 410 C300.667 511.333 302.667 611.333 304 714 L400 714 L370 0 L235 0 L217 256 C213 312 208.667 372.333 206 411 L202 411 C199.333 372.333 196 312 192 256 L174 0 L38 0 L7 714 L100 714 L109 409 C111.631 351.124 115.324 196.64 118 111 L122 111 Z " />
<glyph glyph-name="X" unicode="X" horiz-adv-x="437" d="M9 0 L133 367 L14 714 L138 714 L203 464 L266 714 L389 714 L270 365 L399 0 L274 0 L200 270 L129 0 L9 0 Z " />
<glyph glyph-name="Y" unicode="Y" horiz-adv-x="437" d="M146 0 L146 275 L7 714 L133 714 L203 399 L273 714 L398 714 L257 275 L257 0 L146 0 Z " />
<glyph glyph-name="Z" unicode="Z" horiz-adv-x="437" d="M40 92 L246 604 L44 604 L44 714 L371 714 L371 623 L172 110 L372 110 L372 0 L40 0 L40 92 Z " />
<glyph glyph-name="bracketleft" unicode="&#x5b;" horiz-adv-x="437" d="M327 -74 L327 -164 L139 -164 L139 726 L327 726 L327 635 L242 635 L242 -74 L327 -74 Z " />
<glyph glyph-name="backslash" unicode="&#x5c;" horiz-adv-x="437" d="M262 -6 L43 720 L141 720 L360 -6 L262 -6 Z " />
<glyph glyph-name="bracketright" unicode="&#x5d;" horiz-adv-x="437" d="M79 -79 L164 -79 L164 630 L79 630 L79 720 L267 720 L267 -170 L79 -170 L79 -79 Z " />
<glyph glyph-name="asciicircum" unicode="&#x5e;" horiz-adv-x="437" d="M17 294 L174 714 L231 714 L389 294 L285 294 L202 566 L122 294 L17 294 Z " />
<glyph glyph-name="underscore" unicode="&#x5f;" horiz-adv-x="437" d="M2 -73 L404 -73 L404 -178 L2 -178 L2 -73 Z " />
<glyph glyph-name="grave" unicode="&#x60;" horiz-adv-x="437" d="M84 766 L208 766 C221.539 722.674 254.974 652.723 271 618 L271 606 L195 606 C167.381 639.143 104.878 717.853 84 757 L84 766 Z " />
<glyph glyph-name="a" unicode="a" horiz-adv-x="437" d="M266 75 C238 19 203.667 -10 157 -10 C82.3333 -10 36 50.3333 36 157 C36 277 93 330 189 334 L262 337 L262 359 C262 425.667 232.667 449 194 449 C159.333 449 128 434.333 100 413 L61 507 C105 537.667 150.333 555 209 555 C314.333 555 372 495.333 372 370 L372 0 L285 0 L268 75 L266 75 Z M262 255 L221 252 C174.333 249.333 148 222 148 166 C148 116.667 169.667 96 195 96 C228.333 96 262 134.333 262 213 L262 255 Z " />
<glyph glyph-name="b" unicode="b" horiz-adv-x="437" d="M33 760 L146 760 L146 572 C146 536 144 509 140 473 L145 473 C167.667 526.333 204.333 555 247 555 C337.563 555 387 442.182 387 274 C387 94.3636 325.723 -10 244 -10 C206.667 -10 174 14.3333 146 63 L138 63 L125 0 L33 0 L33 760 Z M206 97 C248.667 97 267 155.667 267 273 C267 393 247.667 448 205 448 C164.333 448 144 390.333 144 275 C144 156.333 164.667 97 206 97 Z " />
<glyph glyph-name="c" unicode="c" horiz-adv-x="437" d="M362 24 C328.667 1.33333 284 -10 244 -10 C129.411 -10 41 75.2294 41 270 C41 448.667 105.667 555 243 555 C291 555 337.333 543 376 519 L340 420 C314.667 438.667 286 448 254 448 C188.667 448 161 389.333 161 272 C161 150.667 198 97 258 97 C290 97 328.667 108.667 362 138 L362 24 Z " />
<glyph glyph-name="d" unicode="d" horiz-adv-x="437" d="M269 74 L264 74 C242.667 22 209.333 -10 164 -10 C70.6667 -10 20 97.6667 20 271 C20 451 74.3333 555 165 555 C206.333 555 238.667 528.333 262 475 L268 475 C265.333 501.667 261 539 261 571 L261 760 L374 760 L374 0 L280 0 L269 74 Z M263 272 C263 393.333 248 448 204 448 C153.333 448 136 385.333 136 268 C136 153.333 154.333 97 201 97 C242.333 97 263 149 263 253 L263 272 Z " />
<glyph glyph-name="e" unicode="e" horiz-adv-x="437" d="M360 28 C326.667 4 287 -10 227 -10 C96.3333 -10 23 87.6667 23 269 C23 443.251 88.4372 555 211 555 C315 555 382 467 382 303 L382 235 L141 235 C143.667 139 184 95 240 95 C290.667 95 328 110.667 360 136 L360 28 Z M270 323 C268.667 407 246.667 451 208 451 C165.333 451 143 408.333 141 323 L270 323 Z " />
<glyph glyph-name="f" unicode="f" horiz-adv-x="437" d="M126 0 L126 441 L27 441 L27 513 L126 546 L126 585 C126 714.333 173 766 273 766 C310.333 766 348.667 759 386 743 L354 645 C331.333 655.667 313.333 660 296 660 C261.333 660 242 639.667 242 577 L242 545 L362 545 L362 441 L242 441 L242 0 L126 0 Z " />
<glyph glyph-name="g" unicode="g" horiz-adv-x="437" d="M46 -97 C92.6667 -126.333 136.667 -138 170 -138 C229.333 -138 259 -97.3333 259 -16 L259 6 C259 26 259.667 51.3333 261 70 L258 70 C231.333 12.6667 201 -10 165 -10 C73 -10 20 94 20 270 C20 445.004 74.2554 555 165 555 C203.667 555 232 531 260 475 L267 475 L277 545 L374 545 L374 3 C374 -158.333 314 -245 178 -245 C126 -245 87.3333 -232.333 46 -207 L46 -97 Z M262 273 C262 398.333 247 448 207 448 C160.333 448 143 385 143 269 C143 155.667 159.333 97 206 97 C242 97 262 141 262 253 L262 273 Z " />
<glyph glyph-name="h" unicode="h" horiz-adv-x="437" d="M33 0 L33 760 L149 760 L149 579 C149 542.333 146 507 140 473 L147 473 C165.667 522.333 199.667 555 249 555 C329 555 378 489.333 378 356 L378 0 L263 0 L263 320 C263 401.333 256.667 445 210 445 C162 445 149 385.667 149 279 L149 0 L33 0 Z " />
<glyph glyph-name="i" unicode="i" horiz-adv-x="437" d="M38 88 L154 102 L154 441 L56 453 L56 545 L268 545 L268 102 L368 88 L368 0 L38 0 L38 88 Z M210 621 C167.333 621 142 644.667 142 694 C142 743.333 167.333 769 210 769 C254.667 769 277 744 277 694 C277 645.333 254.667 621 210 621 Z " />
<glyph glyph-name="j" unicode="j" horiz-adv-x="437" d="M26 -120 C59.3333 -130.667 104 -139 124 -139 C170.667 -139 185 -108 185 -36 L185 440 L62 452 L62 545 L300 545 L300 -52 C300 -184 256 -245 140 -245 C108 -245 60.6667 -238.333 26 -225 L26 -120 Z M235 620 C192.333 620 167 643.667 167 693 C167 742.333 192.333 768 235 768 C279.667 768 302 743 302 693 C302 644.333 279.667 620 235 620 Z " />
<glyph glyph-name="k" unicode="k" horiz-adv-x="437" d="M34 0 L34 760 L144 760 L144 432 C144 385.333 138.667 338.667 136 292 L137 292 L178 368 L267 545 L396 545 L251 294 L398 0 L267 0 L174 218 L144 185 L144 0 L34 0 Z " />
<glyph glyph-name="l" unicode="l" horiz-adv-x="437" d="M38 87 L148 102 L148 661 L52 671 L52 760 L262 760 L262 102 L368 87 L368 0 L38 0 L38 87 Z " />
<glyph glyph-name="m" unicode="m" horiz-adv-x="437" d="M15 0 L15 544 L93 544 L107 487 L110 487 C124.667 535 146.333 555 181 555 C219.667 555 233.333 526.667 244 480 L247 480 C261.667 526.667 283.333 555 322 555 C382 555 392 495.667 392 377 L392 0 L300 0 L300 390 C300 438 295.667 460 277 460 C251.667 460 249 420.667 249 366 L249 0 L158 0 L158 387 C158 437.667 155.667 460 137 460 C110.281 460 107 412.468 107 360 L107 0 L15 0 Z " />
<glyph glyph-name="n" unicode="n" horiz-adv-x="437" d="M33 0 L33 545 L128 545 L142 477 L146 477 C168.667 527.667 202.333 555 249 555 C330.333 555 378 493.333 378 356 L378 0 L263 0 L263 338 C263 418 247.333 452 214 452 C167.333 452 149 402.333 149 289 L149 0 L33 0 Z " />
<glyph glyph-name="o" unicode="o" horiz-adv-x="437" d="M204 -10 C73.2294 -10 20 113.848 20 275 C20 440.333 78.3117 555 202 555 C312.667 555 386 454 386 274 C386 115.074 340.156 -10 204 -10 Z M203 96 C245.667 96 267 155.333 267 274 C267 390.667 245.667 449 203 449 C161 449 140 390.667 140 274 C140 155.333 161 96 203 96 Z " />
<glyph glyph-name="p" unicode="p" horiz-adv-x="437" d="M33 -240 L33 545 L122 545 L138 470 L144 470 C165.333 522 198.333 555 249 555 C339.823 555 387 439.203 387 274 C387 92.5628 324.333 -10 247 -10 C201.667 -10 171.333 19 146 63 L139 63 C141.667 43 146 -3.33333 146 -42 L146 -240 L33 -240 Z M146 272 C146 149.333 165.667 97 211 97 C251 97 267 156.667 267 274 C267 391.333 251.667 448 209 448 C167.667 448 146 399 146 291 L146 272 Z " />
<glyph glyph-name="q" unicode="q" horiz-adv-x="437" d="M261 -240 L261 -31 C261 9 266 43.3333 270 74 L264 74 C242.667 22 206 -10 162 -10 C68.7186 -10 20 106.468 20 270 C20 450.13 82.3117 555 166 555 C204 555 236 527.667 262 473 L268 473 L279 545 L374 545 L374 -240 L261 -240 Z M264 273 C264 387.667 250.333 448 205 448 C162.333 448 143 387 143 271 C143 152.333 161 97 205 97 C247.667 97 264 150.333 264 253 L264 273 Z " />
<glyph glyph-name="r" unicode="r" horiz-adv-x="437" d="M22 88 L109 102 L109 441 L29 453 L29 545 L193 545 L204 452 L210 452 C227.333 512 262 555 322 555 C340.667 555 366 550.667 394 536 L364 414 C346.667 424.667 323.667 429 305 429 C249 429 219 366 219 274 L219 102 L321 88 L321 0 L22 0 L22 88 Z " />
<glyph glyph-name="s" unicode="s" horiz-adv-x="437" d="M51 135 C88.3333 111 143.333 94 190 94 C239.333 94 250 116.667 250 150 C250 184.651 232.022 196.321 160 239 C92 279 52 324.667 52 402 C52 500.667 109 555 221 555 C270.333 555 315.333 543.667 366 517 L329 420 C286.333 444 255.333 453 226 453 C187.333 453 171 433.333 171 404 C171 370.667 197 356 257 320 C334.221 272.07 366 243.947 366 156 C366 48 309.333 -10 184 -10 C132 -10 89.6667 1.66667 51 23 L51 135 Z " />
<glyph glyph-name="t" unicode="t" horiz-adv-x="437" d="M115 440 L15 440 L15 503 L123 546 L159 680 L232 680 L232 545 L385 545 L385 440 L230 440 L230 192 C230 119.922 262.411 99 297 99 C318.333 99 349 102.667 385 116 L385 12 C350.333 -2.66667 301.667 -10 263 -10 C177.771 -10 115 42.1039 115 170 L115 440 Z " />
<glyph glyph-name="u" unicode="u" horiz-adv-x="437" d="M29 545 L145 545 L145 217 C145 133 158.667 97 200 97 C245.333 97 258 149.333 258 268 L258 545 L374 545 L374 0 L279 0 L264 72 L258 72 C236 17.3333 201.667 -10 155 -10 C76.3333 -10 29 50.6667 29 184 L29 545 Z " />
<glyph glyph-name="v" unicode="v" horiz-adv-x="437" d="M205 106 C209 146 217.333 189.333 224 232 L278 545 L399 545 L270 0 L131 0 L8 545 L126 545 L182 233 C190 189 196.333 146 203 106 L205 106 Z " />
<glyph glyph-name="w" unicode="w" horiz-adv-x="437" d="M51 0 L4 544 L102 544 L109 278 L112 127 L115 127 C117.667 159 121.333 217.333 128 256 L157 462 L248 462 L275 256 C281.667 216 286 160.333 290 127 L293 127 C293 164.556 296 228.778 296 277 L304 544 L401 544 L353 0 L233 0 L216 176 C210.667 226.667 205.667 283.333 203 330 L200 330 C197.333 283.333 190.333 226.667 185 176 L167 0 L51 0 Z " />
<glyph glyph-name="x" unicode="x" horiz-adv-x="437" d="M9 0 L132 278 L13 545 L142 545 L203 369 L265 545 L393 545 L274 277 L397 0 L267 0 L202 188 L136 0 L9 0 Z " />
<glyph glyph-name="y" unicode="y" horiz-adv-x="437" d="M23 -137 C33.6667 -139.667 48 -143 60 -143 C94.7601 -143 133.347 -128.271 152 -43 L160 -2 L8 545 L134 545 L189 265 C199.667 218.333 203.667 182 209 150 L212 150 C214.667 180.667 222.333 222.333 229 265 L274 545 L400 545 L259 -55 C228.333 -185.667 170 -245 78 -245 C59.3333 -245 41 -242.333 23 -237 L23 -137 Z " />
<glyph glyph-name="z" unicode="z" horiz-adv-x="437" d="M40 80 L224 441 L46 441 L46 545 L358 545 L358 453 L181 105 L368 105 L368 0 L40 0 L40 80 Z " />
<glyph glyph-name="braceleft" unicode="&#x7b;" horiz-adv-x="437" d="M156 141 C156 201.364 92.9697 233 76 233 L76 322 C91.0303 322 156 349.225 156 415 L156 559 C156 671.078 299.589 720 329 720 L329 628 C314.069 625.511 261 612.171 261 551 L261 405 C261 330.674 201.13 291.087 186 281 L186 276 C201.107 263.411 261 222.863 261 153 L261 6 C261 -48.9784 312.896 -72 329 -72 L329 -164 C301.39 -164 156 -122.052 156 -2 L156 141 Z " />
<glyph glyph-name="bar" unicode="&#x7c;" horiz-adv-x="437" d="M157 -240 L157 760 L254 760 L254 -240 L157 -240 Z " />
<glyph glyph-name="braceright" unicode="&#x7d;" horiz-adv-x="437" d="M73 -72 C87.931 -69.5115 141 -56.1708 141 5 L141 151 C141 225.326 200.87 264.913 216 275 L216 280 C200.893 292.589 141 333.137 141 403 L141 550 C141 604.978 89.1039 628 73 628 L73 720 C101.234 720 246 678.052 246 558 L246 415 C246 354.636 309.03 323 326 323 L326 234 C310.97 234 246 207.537 246 141 L246 -3 C246 -115.078 102.411 -164 73 -164 L73 -72 Z " />
<glyph glyph-name="asciitilde" unicode="&#x7e;" horiz-adv-x="437" d="M369 328 C345.667 294.667 317 278 283 278 C249.667 278 221.667 288.333 191 307 C163 325 137.667 334 115 334 C90.3333 334 64.3333 314.333 37 275 L37 377 C60.3333 411.667 89.3333 429 124 429 C154.667 429 183.333 416.667 214 398 C244 380 269.667 371 291 371 C315 371 345 393 369 429 L369 328 Z " />
<glyph glyph-name="uni00A0" unicode="&#xa0;" horiz-adv-x="437" />
<glyph glyph-name="exclamdown" unicode="&#xa1;" horiz-adv-x="437" d="M155 307 L247 307 L266 -185 L137 -185 L155 307 Z M201 388 C161 388 136 413.333 136 464 C136 514.667 162.333 541 201 541 C241 541 267 514.667 267 464 C267 413.333 243.667 388 201 388 Z " />
<glyph glyph-name="cent" unicode="&#xa2;" horiz-adv-x="437" d="M207 -10 L207 86 C104.333 99.3333 60 200.333 60 363 C60 521.667 108 627 208 643 L208 724 L269 724 L269 645 C299.667 642.333 332 632.667 356 614 L327 522 C303 540.667 276 548 256 548 C196 548 167 492.333 167 363 C167 235 193.667 182 255 182 C284.333 182 318.667 195.333 348 218 L348 120 C326.667 102.667 297 90 269 86 L269 -10 L207 -10 Z " />
<glyph glyph-name="sterling" unicode="&#xa3;" horiz-adv-x="437" d="M372 104 L372 0 L55 0 L55 99 C88.3333 125.667 104 158.333 104 229 L104 318 L52 318 L52 406 L104 406 L104 528 C104 657.333 160.667 724 262 724 C303.333 724 341.667 710.333 377 683 L346 589 C317.333 609.667 292.667 620 272 620 C241.333 620 215 590.667 215 516 L215 406 L318 406 L318 318 L215 318 L215 230 C215 172.667 198.333 130.667 165 104 L372 104 Z " />
<glyph glyph-name="currency" unicode="&#xa4;" horiz-adv-x="437" d="M21 182 L71 246 C55 278 47 313.667 47 353 C47 391.667 55 427.333 71 460 L20 525 L71 578 L121 514 C146.333 536 173.667 547 203 547 C233 547 260.333 536 285 514 L335 578 L387 527 L337 461 C351.667 429 360 393 360 353 C360 313 351.667 277 337 245 L386 181 L336 127 L285 191 C260.333 170.333 233 160 203 160 C169.667 160 142 170.667 120 192 L71 128 L21 182 Z M203 236 C255 236 287 288 287 356 C287 424 254.667 471 204 471 C153.333 471 120 421 120 353 C120 286.333 152.333 236 203 236 Z " />
<glyph glyph-name="yen" unicode="&#xa5;" horiz-adv-x="437" d="M55 196 L148 196 L148 271 L55 271 L55 348 L127 348 L24 714 L142 714 L204 416 L263 714 L382 714 L278 348 L352 348 L352 271 L259 271 L259 196 L352 196 L352 120 L259 120 L259 0 L148 0 L148 120 L55 120 L55 196 Z " />
<glyph glyph-name="brokenbar" unicode="&#xa6;" horiz-adv-x="437" d="M157 -235 L157 159 L254 159 L254 -235 L157 -235 Z M157 366 L157 760 L254 760 L254 366 L157 366 Z " />
<glyph glyph-name="section" unicode="&#xa7;" horiz-adv-x="437" d="M59 117 C89.6667 90.3333 135 70 175 70 C209.667 70 238 91.3333 238 138 C238 180.667 216.667 198.667 174 228 C104.519 276.102 64 311.251 64 385 C64 443.667 83.3333 482 130 510 C98.6667 541.333 83 581.333 83 630 C83 716.667 143.667 766 229 766 C270.333 766 304.333 755 343 731 L314 653 C282 675.667 256 687 228 687 C193.333 687 176 668.333 176 631 C176 588.333 205.333 563.667 236 545 C300.804 501.798 347 470.696 347 386 C347 328.667 327.333 285 288 255 C318.667 220.333 331 185.333 331 140 C331 48 269 -9 173 -9 C128.333 -9 90.3333 3 59 27 L59 117 Z M233 294 C253 310 261 336 261 368 C261 410.667 245 435.667 185 473 C159.667 461 150 435 150 403 C150 359 174.333 338.333 209 313 L233 294 Z " />
<glyph glyph-name="dieresis" unicode="&#xa8;" horiz-adv-x="437" d="M126 620 C95.3333 620 75 642.333 75 685 C75 727.667 95.3333 749 126 749 C156.667 749 178 726.333 178 685 C178 642.333 156.667 620 126 620 Z M279 620 C248.333 620 228 642.333 228 685 C228 727.667 248.333 749 279 749 C309.667 749 331 726.333 331 685 C331 642.333 309.667 620 279 620 Z " />
<glyph glyph-name="copyright" unicode="&#xa9;" horiz-adv-x="437" d="M204 128 C89.3853 128 14 224.866 14 360 C14 500.39 98.2511 591 204 591 C312.442 591 393 498.589 393 360 C393 218.563 308.078 128 204 128 Z M204 179 C284 179 341 248.333 341 359 C341 470.974 281.355 540 203 540 C121.667 540 65 470.667 65 360 C65 246.848 126.537 179 204 179 Z M268 233 C248.667 221.667 228 216 206 216 C138 216 101 271 101 359 C101 447 137.333 502 204 502 C229.333 502 254 495 278 481 L257 430 C240.333 440 224 445 208 445 C178.667 445 160 415.333 160 358 C160 300.667 176.333 272 209 272 C229 272 249.333 279.333 268 290 L268 233 Z " />
<glyph glyph-name="ordfeminine" unicode="&#xaa;" horiz-adv-x="437" d="M246 429 C230 393 208.667 371 170 371 C120.667 371 91 411 91 475 C91 556.805 144.478 585.294 204 588 L237 591 L237 606 C237 640.667 226 656 198 656 C176.667 656 154 647.667 130 631 L107 691 C139 712.333 172.333 723 207 723 C278.333 723 314 681.333 314 598 L314 377 L260 377 L246 429 Z M237 536 L212 533 C182.667 529 168 516.667 168 482 C168 453.333 177 439 195 439 C221.667 439 237 470.333 237 517 L237 536 Z " />
<glyph glyph-name="guillemotleft" unicode="&#xab;" horiz-adv-x="437" >
<g transform="translate(-88,-8)" ><path fill="black" d="M224 55 L103 265 L103 279 L224 488 L302 446 L222 272 L302 99 L224 55 Z " /></g><g transform="translate(90,-8)" ><path fill="black" d="M224 55 L103 265 L103 279 L224 488 L302 446 L222 272 L302 99 L224 55 Z " /></g></glyph>
<glyph glyph-name="logicalnot" unicode="&#xac;" horiz-adv-x="437" d="M45 400 L365 400 L365 119 L274 119 L274 306 L45 306 L45 400 Z " />
<glyph glyph-name="uni00AD" unicode="&#xad;" horiz-adv-x="437" >
<g transform="translate(2,0)" ><path fill="black" d="M102 325 L304 325 L304 216 L102 216 L102 325 Z " /></g></glyph>
<glyph glyph-name="registered" unicode="&#xae;" horiz-adv-x="437" d="M203 128 C90.974 128 16 225.537 16 359 C16 499.39 100.97 590 204 590 C312.156 590 392 497.636 392 358 C392 219.281 309.641 128 203 128 Z M204 179 C284 179 340 248.333 340 359 C340 469.433 280.307 538 203 538 C123 538 67 468.667 67 358 C67 246.944 126.693 179 204 179 Z M127 228 L127 494 L193 494 C251.667 494 276 466.333 276 413 C276 375.667 264.667 350.333 242 337 L292 228 L236 228 L197 325 L178 325 L178 228 L127 228 Z M178 370 L191 370 C213.667 370 225 383.333 225 410 C225 434.667 213.333 447 190 447 L178 447 L178 370 Z " />
<glyph glyph-name="macron" unicode="&#xaf;" horiz-adv-x="437" d="M86 718 L307 718 L307 636 L86 636 L86 718 Z " />
<glyph glyph-name="degree" unicode="&#xb0;" horiz-adv-x="437" d="M202 439 C136.667 439 85 493 85 581 C85 669 137.667 724 203 724 C267.052 724 321 667.896 321 580 C321 492.892 265.922 439 202 439 Z M203 507 C232.333 507 255 534.333 255 581 C255 627.667 231 655 203 655 C172.333 655 151 626.333 151 581 C151 534.333 173.667 507 203 507 Z " />
<glyph glyph-name="plusminus" unicode="&#xb1;" horiz-adv-x="437" d="M42 435 L159 435 L159 627 L250 627 L250 435 L366 435 L366 341 L250 341 L250 151 L159 151 L159 341 L42 341 L42 435 Z M42 93 L367 93 L367 0 L42 0 L42 93 Z " />
<glyph glyph-name="twosuperior" unicode="&#xb2;" horiz-adv-x="437" d="M98 490 L169 592 C215.667 658.667 233 690 233 730 C233 760.667 219 779 195 779 C172.333 779 153.333 767.667 132 737 L94 794 C112.667 827.333 152.333 854 207 854 C275 854 316 809 316 737 C316 665.167 268.263 627.217 207 526 L188 490 L324 490 L324 415 L98 415 L98 490 Z " />
<glyph glyph-name="threesuperior" unicode="&#xb3;" horiz-adv-x="437" d="M100 519 C125.333 496.333 155.333 485 190 485 C230 485 243 505.333 243 540 C243 580 223.333 600 184 600 L150 600 L150 668 L178 668 C216.667 668 236 690.667 236 728 C236 761.333 222 778 194 778 C171.333 778 153.667 768.333 131 743 L95 801 C128.333 835.667 161.333 853 204 853 C268 853 312 813.333 312 744 C312 697.333 292.667 660.667 254 642 L254 638 C295.333 623.333 322 589.333 322 532 C322 452 270 407 194 407 C158.667 407 127.333 416.667 100 436 L100 519 Z " />
<glyph glyph-name="acute" unicode="&#xb4;" horiz-adv-x="437" d="M133 606 L133 618 C159.667 671.333 180 720.667 196 766 L319 766 L319 757 C300.762 717.918 245.444 645.047 209 606 L133 606 Z " />
<glyph glyph-name="mu" unicode="&#xb5;" horiz-adv-x="437" d="M29 227 L31 227 L31 545 L147 545 L147 217 C147 133 160.667 97 202 97 C247.333 97 260 149.333 260 268 L260 545 L376 545 L376 0 L281 0 L266 72 L260 72 C238 17.3333 203.667 -10 157 -10 C150.333 -10 145.333 -9.66667 142 -9 L142 -240 L29 -240 L29 227 Z " />
<glyph glyph-name="paragraph" unicode="&#xb6;" horiz-adv-x="437" d="M184 -127 L184 276 C175.333 270 164 267 150 267 C72.6667 267 38 347 38 511 C38 676.333 75 760 163 760 L352 760 L352 -127 L290 -127 L290 695 L246 695 L246 -127 L184 -127 Z " />
<glyph glyph-name="periodcentered" unicode="&#xb7;" horiz-adv-x="437" >
<g transform="translate(2,272)" ><path fill="black" d="M204 -12 C164 -12 138 14.3333 138 65 C138 115.667 161.333 141 204 141 C244 141 269 115.667 269 65 C269 14.3333 242.667 -12 204 -12 Z " /></g></glyph>
<glyph glyph-name="cedilla" unicode="&#xb8;" horiz-adv-x="437" d="M124 -165 C137.333 -169.667 149.667 -172 161 -172 C187.667 -172 200 -156.333 200 -131 C200 -100.333 178.333 -86.3333 145 -81 L172 0 L229 0 L217 -44 C261 -55.3333 283 -86.3333 283 -137 C283 -201 247 -240 179 -240 C160.333 -240 138.667 -238.333 124 -233 L124 -165 Z " />
<glyph glyph-name="onesuperior" unicode="&#xb9;" horiz-adv-x="437" d="M107 476 L185 482 L185 642 C185 675.333 184.333 717.333 187 752 C176.333 742.667 163.667 732 157 724 L123 690 L83 751 L196 843 L262 843 L262 482 L334 477 L334 415 L107 415 L107 476 Z " />
<glyph glyph-name="ordmasculine" unicode="&#xba;" horiz-adv-x="437" d="M207 371 C131 371 87 439 87 547 C87 657.667 131 722 207 722 C277.667 722 324 660.333 324 547 C324 436.333 281.667 371 207 371 Z M207 441 C235 441 246 475 246 547 C246 617.667 232.667 653 206 653 C179.333 653 166 620.333 166 547 C166 476.333 179.667 441 207 441 Z " />
<glyph glyph-name="guillemotright" unicode="&#xbb;" horiz-adv-x="437" >
<g transform="translate(-115,-22)" ><path fill="black" d="M207 287 L128 460 L206 504 L327 294 L327 280 L206 71 L128 113 L207 287 Z " /></g><g transform="translate(63,-22)" ><path fill="black" d="M207 287 L128 460 L206 504 L327 294 L327 280 L206 71 L128 113 L207 287 Z " /></g></glyph>
<glyph glyph-name="onequarter" unicode="&#xbc;" horiz-adv-x="437" >
<g transform="translate(-4,-576)" ><path fill="black" d="M78 562 L201 845 L292 845 L292 567 L336 567 L336 498 L292 498 L292 415 L213 415 L213 498 L78 498 L78 562 Z M213 567 L213 674 C213 703.333 212.333 721.333 215 748 C207 726.667 195.667 706.667 189 688 L146 567 L213 567 Z " /></g><g transform="translate(-5,50)" ><path fill="black" d="M107 476 L185 482 L185 642 C185 675.333 184.333 717.333 187 752 C176.333 742.667 163.667 732 157 724 L123 690 L83 751 L196 843 L262 843 L262 482 L334 477 L334 415 L107 415 L107 476 Z " /></g><path fill="black" d="M19 372 L380 423 L380 362 L19 311 L19 372 Z " /></glyph>
<glyph glyph-name="onehalf" unicode="&#xbd;" horiz-adv-x="437" >
<g transform="translate(-5,50)" ><path fill="black" d="M107 476 L185 482 L185 642 C185 675.333 184.333 717.333 187 752 C176.333 742.667 163.667 732 157 724 L123 690 L83 751 L196 843 L262 843 L262 482 L334 477 L334 415 L107 415 L107 476 Z " /></g><g transform="translate(-5,-576)" ><path fill="black" d="M98 490 L169 592 C215.667 658.667 233 690 233 730 C233 760.667 219 779 195 779 C172.333 779 153.333 767.667 132 737 L94 794 C112.667 827.333 152.333 854 207 854 C275 854 316 809 316 737 C316 665.167 268.263 627.217 207 526 L188 490 L324 490 L324 415 L98 415 L98 490 Z " /></g><path fill="black" d="M19 372 L380 423 L380 362 L19 311 L19 372 Z " /></glyph>
<glyph glyph-name="threequarters" unicode="&#xbe;" horiz-adv-x="437" >
<g transform="translate(-4,-576)" ><path fill="black" d="M78 562 L201 845 L292 845 L292 567 L336 567 L336 498 L292 498 L292 415 L213 415 L213 498 L78 498 L78 562 Z M213 567 L213 674 C213 703.333 212.333 721.333 215 748 C207 726.667 195.667 706.667 189 688 L146 567 L213 567 Z " /></g><g transform="translate(-6,50)" ><path fill="black" d="M100 519 C125.333 496.333 155.333 485 190 485 C230 485 243 505.333 243 540 C243 580 223.333 600 184 600 L150 600 L150 668 L178 668 C216.667 668 236 690.667 236 728 C236 761.333 222 778 194 778 C171.333 778 153.667 768.333 131 743 L95 801 C128.333 835.667 161.333 853 204 853 C268 853 312 813.333 312 744 C312 697.333 292.667 660.667 254 642 L254 638 C295.333 623.333 322 589.333 322 532 C322 452 270 407 194 407 C158.667 407 127.333 416.667 100 436 L100 519 Z " /></g><path fill="black" d="M19 372 L380 423 L380 362 L19 311 L19 372 Z " /></glyph>
<glyph glyph-name="questiondown" unicode="&#xbf;" horiz-adv-x="437" d="M353 -139 C306.333 -176.333 258.333 -195 209 -195 C109 -195 57 -131 57 -23 C57 65.0152 83.9845 107.647 132 169 C171.071 218.49 176 241.295 176 285 L176 307 L268 307 L268 273 C268 203.667 253.667 164.333 215 115 C177.516 64.1293 166 36.9009 166 -14 C166 -66 183.333 -92 218 -92 C251.333 -92 282.333 -74.6667 317 -48 L353 -139 Z M221 388 C181 388 156 413.333 156 464 C156 514.667 182.333 541 221 541 C261 541 287 514.667 287 464 C287 413.333 263.667 388 221 388 Z " />
<glyph glyph-name="Agrave" unicode="&#xc0;" horiz-adv-x="437" >
<path fill="black" d="M119 715 L284 715 L398 0 L285 0 L260 189 L148 189 L124 0 L9 0 L119 715 Z M246 295 L221 485 C215.667 526.333 207 580.333 203 619 C199 580.333 190.333 526.333 185 485 L161 295 L246 295 Z " /><g transform="translate(-7,170)" ><path fill="black" d="M84 766 L208 766 C221.539 722.674 254.974 652.723 271 618 L271 606 L195 606 C167.381 639.143 104.878 717.853 84 757 L84 766 Z " /></g></glyph>
<glyph glyph-name="Aacute" unicode="&#xc1;" horiz-adv-x="437" d="M119 715 L284 715 L398 0 L285 0 L260 189 L148 189 L124 0 L9 0 L119 715 Z M147 788 C173.667 841.333 194 890.667 210 936 L333 936 L333 927 C314.762 887.918 259.444 815.047 223 776 L147 776 L147 788 Z M246 295 L221 485 C215.667 526.333 207 580.333 203 619 C199 580.333 190.333 526.333 185 485 L161 295 L246 295 Z " />
<glyph glyph-name="Acircumflex" unicode="&#xc2;" horiz-adv-x="437" d="M119 715 L284 715 L398 0 L285 0 L260 189 L148 189 L124 0 L9 0 L119 715 Z M76 788 C102.445 830.312 137.655 895.966 151 936 L255 936 C273.667 892 299.333 834.667 330 788 L330 776 L264 776 C245.333 798.667 225.667 828.333 203 863 C179 828.333 159 796 143 776 L76 776 L76 788 Z M246 295 L221 485 C215.667 526.333 207 580.333 203 619 C199 580.333 190.333 526.333 185 485 L161 295 L246 295 Z " />
<glyph glyph-name="Atilde" unicode="&#xc3;" horiz-adv-x="437" >
<path fill="black" d="M119 715 L284 715 L398 0 L285 0 L260 189 L148 189 L124 0 L9 0 L119 715 Z M246 295 L221 485 C215.667 526.333 207 580.333 203 619 C199 580.333 190.333 526.333 185 485 L161 295 L246 295 Z " /><g transform="translate(-1,170)" ><path fill="black" d="M73 611 C75.7142 673.426 85.9419 750 143 750 C186.111 750 218.556 696 251 696 C267 696 270.667 715 276 751 L334 751 C331.333 656.333 303 611 263 611 C219.124 611 181.68 665 156 665 C142 665 133.667 647 131 611 L73 611 Z " /></g></glyph>
<glyph glyph-name="Adieresis" unicode="&#xc4;" horiz-adv-x="437" >
<g transform="translate(0,157)" ><path fill="black" d="M126 620 C95.3333 620 75 642.333 75 685 C75 727.667 95.3333 749 126 749 C156.667 749 178 726.333 178 685 C178 642.333 156.667 620 126 620 Z M279 620 C248.333 620 228 642.333 228 685 C228 727.667 248.333 749 279 749 C309.667 749 331 726.333 331 685 C331 642.333 309.667 620 279 620 Z " /></g><path fill="black" d="M119 715 L284 715 L398 0 L285 0 L260 189 L148 189 L124 0 L9 0 L119 715 Z M246 295 L221 485 C215.667 526.333 207 580.333 203 619 C199 580.333 190.333 526.333 185 485 L161 295 L246 295 Z " /></glyph>
<glyph glyph-name="Aring" unicode="&#xc5;" horiz-adv-x="437" d="M119 715 L284 715 L398 0 L285 0 L260 189 L148 189 L124 0 L9 0 L119 715 Z M205 771 C141 771 102 818.667 102 888 C102 956 141 1002 205 1002 C265 1002 304 956 304 888 C304 820 266.333 771 205 771 Z M246 295 L221 485 C215.667 526.333 207 580.333 203 619 C199 580.333 190.333 526.333 185 485 L161 295 L246 295 Z M204 836 C226.667 836 242 857.333 242 888 C242 917.333 226.667 938 204 938 C181.333 938 165 918.667 165 888 C165 857.333 180 836 204 836 Z " />
<glyph glyph-name="AE" unicode="&#xc6;" horiz-adv-x="437" d="M112 714 L391 714 L391 603 L301 603 L301 426 L376 426 L376 315 L301 315 L301 111 L391 111 L391 0 L204 0 L204 187 L137 187 L114 0 L9 0 L112 714 Z M204 296 L204 608 L189 608 L151 296 L204 296 Z " />
<glyph glyph-name="Ccedilla" unicode="&#xc7;" horiz-adv-x="437" d="M171 -165 C184.333 -169.667 196.667 -172 208 -172 C234.667 -172 247 -156.333 247 -131 C247 -100.333 225.333 -86.3333 192 -81 L216 -8 C90.6667 8 26 138.333 26 349 C26 571.277 107.641 726 249 726 C310.333 726 349.667 710.667 391 680 L356 581 C326.667 606.333 294.667 617 264 617 C182.952 617 143 508.797 143 354 C143 191.333 183.333 98 262 98 C300.667 98 335 115 371 135 L371 24 C342.333 6 310 -4.66667 274 -8 L264 -44 C308 -55.3333 330 -86.3333 330 -137 C330 -201 294 -240 226 -240 C207.333 -240 185.667 -238.333 171 -233 L171 -165 Z " />
<glyph glyph-name="Egrave" unicode="&#xc8;" horiz-adv-x="437" >
<path fill="black" d="M372 110 L372 0 L40 0 L40 714 L372 714 L372 604 L156 604 L156 421 L358 421 L358 311 L156 311 L156 110 L372 110 Z " /><g transform="translate(-4,169)" ><path fill="black" d="M84 766 L208 766 C221.539 722.674 254.974 652.723 271 618 L271 606 L195 606 C167.381 639.143 104.878 717.853 84 757 L84 766 Z " /></g></glyph>
<glyph glyph-name="Eacute" unicode="&#xc9;" horiz-adv-x="437" >
<path fill="black" d="M372 110 L372 0 L40 0 L40 714 L372 714 L372 604 L156 604 L156 421 L358 421 L358 311 L156 311 L156 110 L372 110 Z " /><g transform="translate(17,169)" ><path fill="black" d="M133 606 L133 618 C159.667 671.333 180 720.667 196 766 L319 766 L319 757 C300.762 717.918 245.444 645.047 209 606 L133 606 Z " /></g></glyph>
<glyph glyph-name="Ecircumflex" unicode="&#xca;" horiz-adv-x="437" >
<path fill="black" d="M372 110 L372 0 L40 0 L40 714 L372 714 L372 604 L156 604 L156 421 L358 421 L358 311 L156 311 L156 110 L372 110 Z " /><g transform="translate(3,169)" ><path fill="black" d="M76 606 L76 618 C102.445 660.312 137.655 725.966 151 766 L255 766 C273.667 722 299.333 664.667 330 618 L330 606 L264 606 C245.333 628.667 225.667 658.333 203 693 C179 658.333 159 626 143 606 L76 606 Z " /></g></glyph>
<glyph glyph-name="Edieresis" unicode="&#xcb;" horiz-adv-x="437" >
<g transform="translate(3,156)" ><path fill="black" d="M126 620 C95.3333 620 75 642.333 75 685 C75 727.667 95.3333 749 126 749 C156.667 749 178 726.333 178 685 C178 642.333 156.667 620 126 620 Z M279 620 C248.333 620 228 642.333 228 685 C228 727.667 248.333 749 279 749 C309.667 749 331 726.333 331 685 C331 642.333 309.667 620 279 620 Z " /></g><path fill="black" d="M372 110 L372 0 L40 0 L40 714 L372 714 L372 604 L156 604 L156 421 L358 421 L358 311 L156 311 L156 110 L372 110 Z " /></glyph>
<glyph glyph-name="Igrave" unicode="&#xcc;" horiz-adv-x="437" >
<path fill="black" d="M46 88 L148 101 L148 614 L46 626 L46 714 L361 714 L361 626 L261 614 L261 101 L361 88 L361 0 L46 0 L46 88 Z " /><g transform="translate(-7,169)" ><path fill="black" d="M84 766 L208 766 C221.539 722.674 254.974 652.723 271 618 L271 606 L195 606 C167.381 639.143 104.878 717.853 84 757 L84 766 Z " /></g></glyph>
<glyph glyph-name="Iacute" unicode="&#xcd;" horiz-adv-x="437" >
<path fill="black" d="M46 88 L148 101 L148 614 L46 626 L46 714 L361 714 L361 626 L261 614 L261 101 L361 88 L361 0 L46 0 L46 88 Z " /><g transform="translate(14,169)" ><path fill="black" d="M133 606 L133 618 C159.667 671.333 180 720.667 196 766 L319 766 L319 757 C300.762 717.918 245.444 645.047 209 606 L133 606 Z " /></g></glyph>
<glyph glyph-name="Icircumflex" unicode="&#xce;" horiz-adv-x="437" >
<path fill="black" d="M46 88 L148 101 L148 614 L46 626 L46 714 L361 714 L361 626 L261 614 L261 101 L361 88 L361 0 L46 0 L46 88 Z " /><g transform="translate(0,169)" ><path fill="black" d="M76 606 L76 618 C102.445 660.312 137.655 725.966 151 766 L255 766 C273.667 722 299.333 664.667 330 618 L330 606 L264 606 C245.333 628.667 225.667 658.333 203 693 C179 658.333 159 626 143 606 L76 606 Z " /></g></glyph>
<glyph glyph-name="Idieresis" unicode="&#xcf;" horiz-adv-x="437" >
<g transform="translate(0,156)" ><path fill="black" d="M126 620 C95.3333 620 75 642.333 75 685 C75 727.667 95.3333 749 126 749 C156.667 749 178 726.333 178 685 C178 642.333 156.667 620 126 620 Z M279 620 C248.333 620 228 642.333 228 685 C228 727.667 248.333 749 279 749 C309.667 749 331 726.333 331 685 C331 642.333 309.667 620 279 620 Z " /></g><path fill="black" d="M46 88 L148 101 L148 614 L46 626 L46 714 L361 714 L361 626 L261 614 L261 101 L361 88 L361 0 L46 0 L46 88 Z " /></glyph>
<glyph glyph-name="Eth" unicode="&#xd0;" horiz-adv-x="437" d="M35 317 L2 317 L2 409 L35 409 L35 714 L201 714 C328.948 714 403 586.152 403 369 C403 133.286 315.978 0 197 0 L35 0 L35 317 Z M184 110 C254.667 110 285 201 285 361 C285 531.667 253.333 604 188 604 L149 604 L149 409 L216 409 L216 317 L149 317 L149 110 L184 110 Z " />
<glyph glyph-name="Ntilde" unicode="&#xd1;" horiz-adv-x="437" >
<path fill="black" d="M26 0 L26 714 L181 714 L287 112 L292 112 C289.388 164.242 280 264.23 280 332 L280 714 L381 714 L381 0 L230 0 L119 608 L114 608 C118 524 126 453 126 377 L126 0 L26 0 Z " /><g transform="translate(4,169)" ><path fill="black" d="M73 611 C75.7142 673.426 85.9419 750 143 750 C186.111 750 218.556 696 251 696 C267 696 270.667 715 276 751 L334 751 C331.333 656.333 303 611 263 611 C219.124 611 181.68 665 156 665 C142 665 133.667 647 131 611 L73 611 Z " /></g></glyph>
<glyph glyph-name="Ograve" unicode="&#xd2;" horiz-adv-x="437" >
<path fill="black" d="M203 -8 C70.6623 -8 14 138.563 14 360 C14 593.333 68.3333 726 203 726 C336.385 726 393 582 393 358 C393 136.719 336.385 -8 203 -8 Z M205 101 C259.667 101 275 198 275 358 C275 528.667 258.667 616 204 616 C148 616 131 521.667 131 359 C131 197.667 149 101 205 101 Z " /><g transform="translate(-7,169)" ><path fill="black" d="M84 766 L208 766 C221.539 722.674 254.974 652.723 271 618 L271 606 L195 606 C167.381 639.143 104.878 717.853 84 757 L84 766 Z " /></g></glyph>
<glyph glyph-name="Oacute" unicode="&#xd3;" horiz-adv-x="437" >
<path fill="black" d="M203 -8 C70.6623 -8 14 138.563 14 360 C14 593.333 68.3333 726 203 726 C336.385 726 393 582 393 358 C393 136.719 336.385 -8 203 -8 Z M205 101 C259.667 101 275 198 275 358 C275 528.667 258.667 616 204 616 C148 616 131 521.667 131 359 C131 197.667 149 101 205 101 Z " /><g transform="translate(14,169)" ><path fill="black" d="M133 606 L133 618 C159.667 671.333 180 720.667 196 766 L319 766 L319 757 C300.762 717.918 245.444 645.047 209 606 L133 606 Z " /></g></glyph>
<glyph glyph-name="Ocircumflex" unicode="&#xd4;" horiz-adv-x="437" >
<path fill="black" d="M203 -8 C70.6623 -8 14 138.563 14 360 C14 593.333 68.3333 726 203 726 C336.385 726 393 582 393 358 C393 136.719 336.385 -8 203 -8 Z M205 101 C259.667 101 275 198 275 358 C275 528.667 258.667 616 204 616 C148 616 131 521.667 131 359 C131 197.667 149 101 205 101 Z " /><g transform="translate(0,169)" ><path fill="black" d="M76 606 L76 618 C102.445 660.312 137.655 725.966 151 766 L255 766 C273.667 722 299.333 664.667 330 618 L330 606 L264 606 C245.333 628.667 225.667 658.333 203 693 C179 658.333 159 626 143 606 L76 606 Z " /></g></glyph>
<glyph glyph-name="Otilde" unicode="&#xd5;" horiz-adv-x="437" >
<path fill="black" d="M203 -8 C70.6623 -8 14 138.563 14 360 C14 593.333 68.3333 726 203 726 C336.385 726 393 582 393 358 C393 136.719 336.385 -8 203 -8 Z M205 101 C259.667 101 275 198 275 358 C275 528.667 258.667 616 204 616 C148 616 131 521.667 131 359 C131 197.667 149 101 205 101 Z " /><g transform="translate(-1,169)" ><path fill="black" d="M73 611 C75.7142 673.426 85.9419 750 143 750 C186.111 750 218.556 696 251 696 C267 696 270.667 715 276 751 L334 751 C331.333 656.333 303 611 263 611 C219.124 611 181.68 665 156 665 C142 665 133.667 647 131 611 L73 611 Z " /></g></glyph>
<glyph glyph-name="Odieresis" unicode="&#xd6;" horiz-adv-x="437" >
<g transform="translate(0,156)" ><path fill="black" d="M126 620 C95.3333 620 75 642.333 75 685 C75 727.667 95.3333 749 126 749 C156.667 749 178 726.333 178 685 C178 642.333 156.667 620 126 620 Z M279 620 C248.333 620 228 642.333 228 685 C228 727.667 248.333 749 279 749 C309.667 749 331 726.333 331 685 C331 642.333 309.667 620 279 620 Z " /></g><path fill="black" d="M203 -8 C70.6623 -8 14 138.563 14 360 C14 593.333 68.3333 726 203 726 C336.385 726 393 582 393 358 C393 136.719 336.385 -8 203 -8 Z M205 101 C259.667 101 275 198 275 358 C275 528.667 258.667 616 204 616 C148 616 131 521.667 131 359 C131 197.667 149 101 205 101 Z " /></glyph>
<glyph glyph-name="multiply" unicode="&#xd7;" horiz-adv-x="437" d="M43 222 L141 353 L42 483 L103 549 L202 419 L304 550 L366 486 L266 353 L364 221 L303 157 L202 288 L102 156 L43 222 Z " />
<glyph glyph-name="Oslash" unicode="&#xd8;" horiz-adv-x="437" d="M59 96 C29.6667 160 16 250.667 16 360 C16 593.333 70.3333 726 205 726 C245 726 279.333 712.667 308 686 L337 756 L396 723 L353 620 C382.333 556 395 466 395 358 C395 136.719 338.385 -8 205 -8 C165.667 -8 132 5 104 31 L73 -43 L14 -11 L59 96 Z M257 566 C245.667 599.333 228.667 616 206 616 C150 616 133 521.667 133 359 C133 328.333 133.667 302.667 135 276 L257 566 Z M155 151 C167.667 117.667 185 101 207 101 C261.667 101 277 198 277 358 C277 387.333 277.667 413 275 437 L155 151 Z " />
<glyph glyph-name="Ugrave" unicode="&#xd9;" horiz-adv-x="437" >
<path fill="black" d="M25 714 L141 714 L141 260 C141 145.333 152.333 100 203 100 C257.667 100 266 148.667 266 262 L266 714 L383 714 L383 253 C383 74.3333 334.667 -10 204 -10 C74.6667 -10 25 73.6667 25 251 L25 714 Z " /><g transform="translate(-6,169)" ><path fill="black" d="M84 766 L208 766 C221.539 722.674 254.974 652.723 271 618 L271 606 L195 606 C167.381 639.143 104.878 717.853 84 757 L84 766 Z " /></g></glyph>
<glyph glyph-name="Uacute" unicode="&#xda;" horiz-adv-x="437" >
<path fill="black" d="M25 714 L141 714 L141 260 C141 145.333 152.333 100 203 100 C257.667 100 266 148.667 266 262 L266 714 L383 714 L383 253 C383 74.3333 334.667 -10 204 -10 C74.6667 -10 25 73.6667 25 251 L25 714 Z " /><g transform="translate(15,169)" ><path fill="black" d="M133 606 L133 618 C159.667 671.333 180 720.667 196 766 L319 766 L319 757 C300.762 717.918 245.444 645.047 209 606 L133 606 Z " /></g></glyph>
<glyph glyph-name="Ucircumflex" unicode="&#xdb;" horiz-adv-x="437" >
<path fill="black" d="M25 714 L141 714 L141 260 C141 145.333 152.333 100 203 100 C257.667 100 266 148.667 266 262 L266 714 L383 714 L383 253 C383 74.3333 334.667 -10 204 -10 C74.6667 -10 25 73.6667 25 251 L25 714 Z " /><g transform="translate(1,169)" ><path fill="black" d="M76 606 L76 618 C102.445 660.312 137.655 725.966 151 766 L255 766 C273.667 722 299.333 664.667 330 618 L330 606 L264 606 C245.333 628.667 225.667 658.333 203 693 C179 658.333 159 626 143 606 L76 606 Z " /></g></glyph>
<glyph glyph-name="Udieresis" unicode="&#xdc;" horiz-adv-x="437" >
<g transform="translate(1,156)" ><path fill="black" d="M126 620 C95.3333 620 75 642.333 75 685 C75 727.667 95.3333 749 126 749 C156.667 749 178 726.333 178 685 C178 642.333 156.667 620 126 620 Z M279 620 C248.333 620 228 642.333 228 685 C228 727.667 248.333 749 279 749 C309.667 749 331 726.333 331 685 C331 642.333 309.667 620 279 620 Z " /></g><path fill="black" d="M25 714 L141 714 L141 260 C141 145.333 152.333 100 203 100 C257.667 100 266 148.667 266 262 L266 714 L383 714 L383 253 C383 74.3333 334.667 -10 204 -10 C74.6667 -10 25 73.6667 25 251 L25 714 Z " /></glyph>
<glyph glyph-name="Yacute" unicode="&#xdd;" horiz-adv-x="437" >
<path fill="black" d="M146 0 L146 275 L7 714 L133 714 L203 399 L273 714 L398 714 L257 275 L257 0 L146 0 Z " /><g transform="translate(14,169)" ><path fill="black" d="M133 606 L133 618 C159.667 671.333 180 720.667 196 766 L319 766 L319 757 C300.762 717.918 245.444 645.047 209 606 L133 606 Z " /></g></glyph>
<glyph glyph-name="Thorn" unicode="&#xde;" horiz-adv-x="437" d="M40 0 L40 714 L155 714 L155 594 L202 594 C327.333 594 380 516.333 380 375 C380 238.948 330.463 141 197 141 L155 141 L155 0 L40 0 Z M155 245 L187 245 C247 245 269 281.333 269 368 C269 452 244.333 490 199 490 L155 490 L155 245 Z " />
<glyph glyph-name="germandbls" unicode="&#xdf;" horiz-adv-x="437" d="M33 564 C33 686.667 94 765 198 765 C286 765 350 708 350 600 C350 492.556 300 467.778 300 403 C300 379 304.333 360.667 331 322 C360.312 274.035 386 239.047 386 158 C386 50 338 -10 254 -10 C223.333 -10 198.667 -2 172 18 L172 126 C196 103.333 215.333 90 238 90 C262.667 90 275 112.667 275 158 C275 187.333 271.333 207.333 242 250 C214.554 291.169 188 324.589 188 395 C188 496.118 239 509.784 239 596 C239 638.667 226.667 668 192 668 C153.333 668 142 627.333 142 542 L142 0 L33 0 L33 564 Z " />
<glyph glyph-name="agrave" unicode="&#xe0;" horiz-adv-x="437" >
<path fill="black" d="M266 75 C238 19 203.667 -10 157 -10 C82.3333 -10 36 50.3333 36 157 C36 277 93 330 189 334 L262 337 L262 359 C262 425.667 232.667 449 194 449 C159.333 449 128 434.333 100 413 L61 507 C105 537.667 150.333 555 209 555 C314.333 555 372 495.333 372 370 L372 0 L285 0 L268 75 L266 75 Z M262 255 L221 252 C174.333 249.333 148 222 148 166 C148 116.667 169.667 96 195 96 C228.333 96 262 134.333 262 213 L262 255 Z " /><g transform="translate(6,0)" ><path fill="black" d="M84 766 L208 766 C221.539 722.674 254.974 652.723 271 618 L271 606 L195 606 C167.381 639.143 104.878 717.853 84 757 L84 766 Z " /></g></glyph>
<glyph glyph-name="aacute" unicode="&#xe1;" horiz-adv-x="437" >
<path fill="black" d="M266 75 C238 19 203.667 -10 157 -10 C82.3333 -10 36 50.3333 36 157 C36 277 93 330 189 334 L262 337 L262 359 C262 425.667 232.667 449 194 449 C159.333 449 128 434.333 100 413 L61 507 C105 537.667 150.333 555 209 555 C314.333 555 372 495.333 372 370 L372 0 L285 0 L268 75 L266 75 Z M262 255 L221 252 C174.333 249.333 148 222 148 166 C148 116.667 169.667 96 195 96 C228.333 96 262 134.333 262 213 L262 255 Z " /><g transform="translate(27,0)" ><path fill="black" d="M133 606 L133 618 C159.667 671.333 180 720.667 196 766 L319 766 L319 757 C300.762 717.918 245.444 645.047 209 606 L133 606 Z " /></g></glyph>
<glyph glyph-name="acircumflex" unicode="&#xe2;" horiz-adv-x="437" >
<path fill="black" d="M266 75 C238 19 203.667 -10 157 -10 C82.3333 -10 36 50.3333 36 157 C36 277 93 330 189 334 L262 337 L262 359 C262 425.667 232.667 449 194 449 C159.333 449 128 434.333 100 413 L61 507 C105 537.667 150.333 555 209 555 C314.333 555 372 495.333 372 370 L372 0 L285 0 L268 75 L266 75 Z M262 255 L221 252 C174.333 249.333 148 222 148 166 C148 116.667 169.667 96 195 96 C228.333 96 262 134.333 262 213 L262 255 Z " /><g transform="translate(13,0)" ><path fill="black" d="M76 606 L76 618 C102.445 660.312 137.655 725.966 151 766 L255 766 C273.667 722 299.333 664.667 330 618 L330 606 L264 606 C245.333 628.667 225.667 658.333 203 693 C179 658.333 159 626 143 606 L76 606 Z " /></g></glyph>
<glyph glyph-name="atilde" unicode="&#xe3;" horiz-adv-x="437" >
<path fill="black" d="M266 75 C238 19 203.667 -10 157 -10 C82.3333 -10 36 50.3333 36 157 C36 277 93 330 189 334 L262 337 L262 359 C262 425.667 232.667 449 194 449 C159.333 449 128 434.333 100 413 L61 507 C105 537.667 150.333 555 209 555 C314.333 555 372 495.333 372 370 L372 0 L285 0 L268 75 L266 75 Z M262 255 L221 252 C174.333 249.333 148 222 148 166 C148 116.667 169.667 96 195 96 C228.333 96 262 134.333 262 213 L262 255 Z " /><g transform="translate(12,0)" ><path fill="black" d="M73 611 C75.7142 673.426 85.9419 750 143 750 C186.111 750 218.556 696 251 696 C267 696 270.667 715 276 751 L334 751 C331.333 656.333 303 611 263 611 C219.124 611 181.68 665 156 665 C142 665 133.667 647 131 611 L73 611 Z " /></g></glyph>
<glyph glyph-name="adieresis" unicode="&#xe4;" horiz-adv-x="437" >
<g transform="translate(13,-13)" ><path fill="black" d="M126 620 C95.3333 620 75 642.333 75 685 C75 727.667 95.3333 749 126 749 C156.667 749 178 726.333 178 685 C178 642.333 156.667 620 126 620 Z M279 620 C248.333 620 228 642.333 228 685 C228 727.667 248.333 749 279 749 C309.667 749 331 726.333 331 685 C331 642.333 309.667 620 279 620 Z " /></g><path fill="black" d="M266 75 C238 19 203.667 -10 157 -10 C82.3333 -10 36 50.3333 36 157 C36 277 93 330 189 334 L262 337 L262 359 C262 425.667 232.667 449 194 449 C159.333 449 128 434.333 100 413 L61 507 C105 537.667 150.333 555 209 555 C314.333 555 372 495.333 372 370 L372 0 L285 0 L268 75 L266 75 Z M262 255 L221 252 C174.333 249.333 148 222 148 166 C148 116.667 169.667 96 195 96 C228.333 96 262 134.333 262 213 L262 255 Z " /></glyph>
<glyph glyph-name="aring" unicode="&#xe5;" horiz-adv-x="437" >
<path fill="black" d="M266 75 C238 19 203.667 -10 157 -10 C82.3333 -10 36 50.3333 36 157 C36 277 93 330 189 334 L262 337 L262 359 C262 425.667 232.667 449 194 449 C159.333 449 128 434.333 100 413 L61 507 C105 537.667 150.333 555 209 555 C314.333 555 372 495.333 372 370 L372 0 L285 0 L268 75 L266 75 Z M262 255 L221 252 C174.333 249.333 148 222 148 166 C148 116.667 169.667 96 195 96 C228.333 96 262 134.333 262 213 L262 255 Z " /><g transform="translate(14,0)" ><path fill="black" d="M204 601 C140 601 101 648.667 101 718 C101 786 140 832 204 832 C264 832 303 786 303 718 C303 650 265.333 601 204 601 Z M203 666 C225.667 666 241 687.333 241 718 C241 747.333 225.667 768 203 768 C180.333 768 164 748.667 164 718 C164 687.333 179 666 203 666 Z " /></g></glyph>
<glyph glyph-name="ae" unicode="&#xe6;" horiz-adv-x="437" d="M159 331 L159 365 C159 434.333 138.667 456 112 456 C92 456 72.6667 446.667 54 428 L20 509 C50.6667 537 89.3333 554 124 554 C158.667 554 189.667 532 211 484 C232.333 528 258 554 290 554 C370.944 554 399 452.004 399 293 L399 242 L255 242 C256.333 134 284 91 324 91 C346.667 91 362.333 103.333 385 130 L385 27 C364.333 2.33333 338.667 -10 308 -10 C265.333 -10 230.667 17 204 89 C178.667 17 153.667 -10 111 -10 C44.3333 -10 8 52 8 156 C8 264.667 45 322 119 328 L159 331 Z M158 248 L140 248 C116 246.667 99 219.333 99 162 C99 115.333 108.333 92 127 92 C147 92 158 125 158 209 L158 248 Z M313 328 C313 416 303.667 453 285 453 C266.333 453 256 417.333 256 328 L313 328 Z " />
<glyph glyph-name="ccedilla" unicode="&#xe7;" horiz-adv-x="437" d="M168 -165 C181.333 -169.667 193.667 -172 205 -172 C231.667 -172 244 -156.333 244 -131 C244 -100.333 222.333 -86.3333 189 -81 L213 -8 C114.296 5.33832 41 93.8403 41 270 C41 448.667 105.667 555 243 555 C291 555 337.333 543 376 519 L340 420 C314.667 438.667 286 448 254 448 C188.667 448 161 389.333 161 272 C161 150.667 198 97 258 97 C290 97 328.667 108.667 362 138 L362 24 C335.333 5.33333 303 -5.33333 271 -8 L261 -44 C305 -55.3333 327 -86.3333 327 -137 C327 -201 291 -240 223 -240 C204.333 -240 182.667 -238.333 168 -233 L168 -165 Z " />
<glyph glyph-name="egrave" unicode="&#xe8;" horiz-adv-x="437" >
<path fill="black" d="M360 28 C326.667 4 287 -10 227 -10 C96.3333 -10 23 87.6667 23 269 C23 443.251 88.4372 555 211 555 C315 555 382 467 382 303 L382 235 L141 235 C143.667 139 184 95 240 95 C290.667 95 328 110.667 360 136 L360 28 Z M270 323 C268.667 407 246.667 451 208 451 C165.333 451 143 408.333 141 323 L270 323 Z " /><path fill="black" d="M84 766 L208 766 C221.539 722.674 254.974 652.723 271 618 L271 606 L195 606 C167.381 639.143 104.878 717.853 84 757 L84 766 Z " /></glyph>
<glyph glyph-name="eacute" unicode="&#xe9;" horiz-adv-x="437" >
<path fill="black" d="M360 28 C326.667 4 287 -10 227 -10 C96.3333 -10 23 87.6667 23 269 C23 443.251 88.4372 555 211 555 C315 555 382 467 382 303 L382 235 L141 235 C143.667 139 184 95 240 95 C290.667 95 328 110.667 360 136 L360 28 Z M270 323 C268.667 407 246.667 451 208 451 C165.333 451 143 408.333 141 323 L270 323 Z " /><g transform="translate(21,0)" ><path fill="black" d="M133 606 L133 618 C159.667 671.333 180 720.667 196 766 L319 766 L319 757 C300.762 717.918 245.444 645.047 209 606 L133 606 Z " /></g></glyph>
<glyph glyph-name="ecircumflex" unicode="&#xea;" horiz-adv-x="437" >
<path fill="black" d="M360 28 C326.667 4 287 -10 227 -10 C96.3333 -10 23 87.6667 23 269 C23 443.251 88.4372 555 211 555 C315 555 382 467 382 303 L382 235 L141 235 C143.667 139 184 95 240 95 C290.667 95 328 110.667 360 136 L360 28 Z M270 323 C268.667 407 246.667 451 208 451 C165.333 451 143 408.333 141 323 L270 323 Z " /><g transform="translate(7,0)" ><path fill="black" d="M76 606 L76 618 C102.445 660.312 137.655 725.966 151 766 L255 766 C273.667 722 299.333 664.667 330 618 L330 606 L264 606 C245.333 628.667 225.667 658.333 203 693 C179 658.333 159 626 143 606 L76 606 Z " /></g></glyph>
<glyph glyph-name="edieresis" unicode="&#xeb;" horiz-adv-x="437" >
<g transform="translate(7,-13)" ><path fill="black" d="M126 620 C95.3333 620 75 642.333 75 685 C75 727.667 95.3333 749 126 749 C156.667 749 178 726.333 178 685 C178 642.333 156.667 620 126 620 Z M279 620 C248.333 620 228 642.333 228 685 C228 727.667 248.333 749 279 749 C309.667 749 331 726.333 331 685 C331 642.333 309.667 620 279 620 Z " /></g><path fill="black" d="M360 28 C326.667 4 287 -10 227 -10 C96.3333 -10 23 87.6667 23 269 C23 443.251 88.4372 555 211 555 C315 555 382 467 382 303 L382 235 L141 235 C143.667 139 184 95 240 95 C290.667 95 328 110.667 360 136 L360 28 Z M270 323 C268.667 407 246.667 451 208 451 C165.333 451 143 408.333 141 323 L270 323 Z " /></glyph>
<glyph glyph-name="igrave" unicode="&#xec;" horiz-adv-x="407" >
<path fill="black" d="M38 88 L154 102 L154 441 L56 453 L56 545 L268 545 L268 102 L368 88 L368 0 L38 0 L38 88 Z " /><g transform="translate(-7,0)" ><path fill="black" d="M84 766 L208 766 C221.539 722.674 254.974 652.723 271 618 L271 606 L195 606 C167.381 639.143 104.878 717.853 84 757 L84 766 Z " /></g></glyph>
<glyph glyph-name="iacute" unicode="&#xed;" horiz-adv-x="407" >
<path fill="black" d="M38 88 L154 102 L154 441 L56 453 L56 545 L268 545 L268 102 L368 88 L368 0 L38 0 L38 88 Z " /><g transform="translate(14,0)" ><path fill="black" d="M133 606 L133 618 C159.667 671.333 180 720.667 196 766 L319 766 L319 757 C300.762 717.918 245.444 645.047 209 606 L133 606 Z " /></g></glyph>
<glyph glyph-name="icircumflex" unicode="&#xee;" horiz-adv-x="407" >
<path fill="black" d="M38 88 L154 102 L154 441 L56 453 L56 545 L268 545 L268 102 L368 88 L368 0 L38 0 L38 88 Z " /><path fill="black" d="M76 606 L76 618 C102.445 660.312 137.655 725.966 151 766 L255 766 C273.667 722 299.333 664.667 330 618 L330 606 L264 606 C245.333 628.667 225.667 658.333 203 693 C179 658.333 159 626 143 606 L76 606 Z " /></glyph>
<glyph glyph-name="idieresis" unicode="&#xef;" horiz-adv-x="407" >
<g transform="translate(0,-13)" ><path fill="black" d="M126 620 C95.3333 620 75 642.333 75 685 C75 727.667 95.3333 749 126 749 C156.667 749 178 726.333 178 685 C178 642.333 156.667 620 126 620 Z M279 620 C248.333 620 228 642.333 228 685 C228 727.667 248.333 749 279 749 C309.667 749 331 726.333 331 685 C331 642.333 309.667 620 279 620 Z " /></g><path fill="black" d="M38 88 L154 102 L154 441 L56 453 L56 545 L268 545 L268 102 L368 88 L368 0 L38 0 L38 88 Z " /></glyph>
<glyph glyph-name="eth" unicode="&#xf0;" horiz-adv-x="437" d="M249 451 C239.667 499 217.667 546.333 191 589 L136 539 L94 600 L148 648 C132 666.667 116.667 683.333 102 698 L149 765 C175 749.667 198.333 732 219 712 L280 766 L323 706 L269 657 C345 557 386 422 386 274 C386 88.6667 320 -10 204 -10 C89.4372 -10 20 91.4372 20 238 C20 392.641 91.3377 483 183 483 C209 483 230.333 471.667 247 449 L249 451 Z M204 87 C254.667 87 274 142 274 242 C274 328.667 253.667 385 203 385 C153.667 385 133 336 133 236 C133 144 153.333 87 204 87 Z " />
<glyph glyph-name="ntilde" unicode="&#xf1;" horiz-adv-x="437" >
<path fill="black" d="M33 0 L33 545 L128 545 L142 477 L146 477 C168.667 527.667 202.333 555 249 555 C330.333 555 378 493.333 378 356 L378 0 L263 0 L263 338 C263 418 247.333 452 214 452 C167.333 452 149 402.333 149 289 L149 0 L33 0 Z " /><g transform="translate(9,0)" ><path fill="black" d="M73 611 C75.7142 673.426 85.9419 750 143 750 C186.111 750 218.556 696 251 696 C267 696 270.667 715 276 751 L334 751 C331.333 656.333 303 611 263 611 C219.124 611 181.68 665 156 665 C142 665 133.667 647 131 611 L73 611 Z " /></g></glyph>
<glyph glyph-name="ograve" unicode="&#xf2;" horiz-adv-x="437" >
<path fill="black" d="M204 -10 C73.2294 -10 20 113.848 20 275 C20 440.333 78.3117 555 202 555 C312.667 555 386 454 386 274 C386 115.074 340.156 -10 204 -10 Z M203 96 C245.667 96 267 155.333 267 274 C267 390.667 245.667 449 203 449 C161 449 140 390.667 140 274 C140 155.333 161 96 203 96 Z " /><g transform="translate(-7,0)" ><path fill="black" d="M84 766 L208 766 C221.539 722.674 254.974 652.723 271 618 L271 606 L195 606 C167.381 639.143 104.878 717.853 84 757 L84 766 Z " /></g></glyph>
<glyph glyph-name="oacute" unicode="&#xf3;" horiz-adv-x="437" >
<path fill="black" d="M204 -10 C73.2294 -10 20 113.848 20 275 C20 440.333 78.3117 555 202 555 C312.667 555 386 454 386 274 C386 115.074 340.156 -10 204 -10 Z M203 96 C245.667 96 267 155.333 267 274 C267 390.667 245.667 449 203 449 C161 449 140 390.667 140 274 C140 155.333 161 96 203 96 Z " /><g transform="translate(14,0)" ><path fill="black" d="M133 606 L133 618 C159.667 671.333 180 720.667 196 766 L319 766 L319 757 C300.762 717.918 245.444 645.047 209 606 L133 606 Z " /></g></glyph>
<glyph glyph-name="ocircumflex" unicode="&#xf4;" horiz-adv-x="437" >
<path fill="black" d="M204 -10 C73.2294 -10 20 113.848 20 275 C20 440.333 78.3117 555 202 555 C312.667 555 386 454 386 274 C386 115.074 340.156 -10 204 -10 Z M203 96 C245.667 96 267 155.333 267 274 C267 390.667 245.667 449 203 449 C161 449 140 390.667 140 274 C140 155.333 161 96 203 96 Z " /><path fill="black" d="M76 606 L76 618 C102.445 660.312 137.655 725.966 151 766 L255 766 C273.667 722 299.333 664.667 330 618 L330 606 L264 606 C245.333 628.667 225.667 658.333 203 693 C179 658.333 159 626 143 606 L76 606 Z " /></glyph>
<glyph glyph-name="otilde" unicode="&#xf5;" horiz-adv-x="437" >
<path fill="black" d="M204 -10 C73.2294 -10 20 113.848 20 275 C20 440.333 78.3117 555 202 555 C312.667 555 386 454 386 274 C386 115.074 340.156 -10 204 -10 Z M203 96 C245.667 96 267 155.333 267 274 C267 390.667 245.667 449 203 449 C161 449 140 390.667 140 274 C140 155.333 161 96 203 96 Z " /><g transform="translate(-1,0)" ><path fill="black" d="M73 611 C75.7142 673.426 85.9419 750 143 750 C186.111 750 218.556 696 251 696 C267 696 270.667 715 276 751 L334 751 C331.333 656.333 303 611 263 611 C219.124 611 181.68 665 156 665 C142 665 133.667 647 131 611 L73 611 Z " /></g></glyph>
<glyph glyph-name="odieresis" unicode="&#xf6;" horiz-adv-x="437" >
<g transform="translate(0,-13)" ><path fill="black" d="M126 620 C95.3333 620 75 642.333 75 685 C75 727.667 95.3333 749 126 749 C156.667 749 178 726.333 178 685 C178 642.333 156.667 620 126 620 Z M279 620 C248.333 620 228 642.333 228 685 C228 727.667 248.333 749 279 749 C309.667 749 331 726.333 331 685 C331 642.333 309.667 620 279 620 Z " /></g><path fill="black" d="M204 -10 C73.2294 -10 20 113.848 20 275 C20 440.333 78.3117 555 202 555 C312.667 555 386 454 386 274 C386 115.074 340.156 -10 204 -10 Z M203 96 C245.667 96 267 155.333 267 274 C267 390.667 245.667 449 203 449 C161 449 140 390.667 140 274 C140 155.333 161 96 203 96 Z " /></glyph>
<glyph glyph-name="divide" unicode="&#xf7;" horiz-adv-x="437" d="M41 399 L366 399 L366 306 L41 306 L41 399 Z M205 94 C169 94 146 118.333 146 165 C146 211.667 166.333 237 205 237 C241 237 260 211.667 260 165 C260 118.333 238.333 94 205 94 Z M205 468 C169 468 146 492.333 146 539 C146 585.667 166.333 611 205 611 C241 611 260 585.667 260 539 C260 492.333 238.333 468 205 468 Z " />
<glyph glyph-name="oslash" unicode="&#xf8;" horiz-adv-x="437" d="M81 49 C39.6667 99.6667 22 180.333 22 275 C22 440.333 80.3117 555 204 555 C234 555 260.333 548 283 534 L305 586 L362 555 L334 487 C368.667 439 388 367.333 388 274 C388 115.074 342.156 -10 206 -10 C180 -10 155.667 -4.66667 133 6 L108 -55 L51 -23 L81 49 Z M240 430 C230 442.667 218.333 449 205 449 C163 449 142 390.667 142 274 C142 248 143 224.333 145 203 L240 430 Z M176 108 C184 100 193.667 96 205 96 C247.667 96 269 155.333 269 274 C269 292.667 268.333 311 267 327 L176 108 Z " />
<glyph glyph-name="ugrave" unicode="&#xf9;" horiz-adv-x="437" >
<path fill="black" d="M29 545 L145 545 L145 217 C145 133 158.667 97 200 97 C245.333 97 258 149.333 258 268 L258 545 L374 545 L374 0 L279 0 L264 72 L258 72 C236 17.3333 201.667 -10 155 -10 C76.3333 -10 29 50.6667 29 184 L29 545 Z " /><g transform="translate(-7,0)" ><path fill="black" d="M84 766 L208 766 C221.539 722.674 254.974 652.723 271 618 L271 606 L195 606 C167.381 639.143 104.878 717.853 84 757 L84 766 Z " /></g></glyph>
<glyph glyph-name="uacute" unicode="&#xfa;" horiz-adv-x="437" >
<path fill="black" d="M29 545 L145 545 L145 217 C145 133 158.667 97 200 97 C245.333 97 258 149.333 258 268 L258 545 L374 545 L374 0 L279 0 L264 72 L258 72 C236 17.3333 201.667 -10 155 -10 C76.3333 -10 29 50.6667 29 184 L29 545 Z " /><g transform="translate(14,0)" ><path fill="black" d="M133 606 L133 618 C159.667 671.333 180 720.667 196 766 L319 766 L319 757 C300.762 717.918 245.444 645.047 209 606 L133 606 Z " /></g></glyph>
<glyph glyph-name="ucircumflex" unicode="&#xfb;" horiz-adv-x="437" >
<path fill="black" d="M29 545 L145 545 L145 217 C145 133 158.667 97 200 97 C245.333 97 258 149.333 258 268 L258 545 L374 545 L374 0 L279 0 L264 72 L258 72 C236 17.3333 201.667 -10 155 -10 C76.3333 -10 29 50.6667 29 184 L29 545 Z " /><path fill="black" d="M76 606 L76 618 C102.445 660.312 137.655 725.966 151 766 L255 766 C273.667 722 299.333 664.667 330 618 L330 606 L264 606 C245.333 628.667 225.667 658.333 203 693 C179 658.333 159 626 143 606 L76 606 Z " /></glyph>
<glyph glyph-name="udieresis" unicode="&#xfc;" horiz-adv-x="437" >
<g transform="translate(0,-13)" ><path fill="black" d="M126 620 C95.3333 620 75 642.333 75 685 C75 727.667 95.3333 749 126 749 C156.667 749 178 726.333 178 685 C178 642.333 156.667 620 126 620 Z M279 620 C248.333 620 228 642.333 228 685 C228 727.667 248.333 749 279 749 C309.667 749 331 726.333 331 685 C331 642.333 309.667 620 279 620 Z " /></g><path fill="black" d="M29 545 L145 545 L145 217 C145 133 158.667 97 200 97 C245.333 97 258 149.333 258 268 L258 545 L374 545 L374 0 L279 0 L264 72 L258 72 C236 17.3333 201.667 -10 155 -10 C76.3333 -10 29 50.6667 29 184 L29 545 Z " /></glyph>
<glyph glyph-name="yacute" unicode="&#xfd;" horiz-adv-x="437" >
<path fill="black" d="M23 -137 C33.6667 -139.667 48 -143 60 -143 C94.7601 -143 133.347 -128.271 152 -43 L160 -2 L8 545 L134 545 L189 265 C199.667 218.333 203.667 182 209 150 L212 150 C214.667 180.667 222.333 222.333 229 265 L274 545 L400 545 L259 -55 C228.333 -185.667 170 -245 78 -245 C59.3333 -245 41 -242.333 23 -237 L23 -137 Z " /><g transform="translate(15,0)" ><path fill="black" d="M133 606 L133 618 C159.667 671.333 180 720.667 196 766 L319 766 L319 757 C300.762 717.918 245.444 645.047 209 606 L133 606 Z " /></g></glyph>
<glyph glyph-name="thorn" unicode="&#xfe;" horiz-adv-x="437" d="M33 -240 L33 733 L146 733 L146 567 C146 532.333 144.333 503.333 139 470 L144 470 C165.333 522 198.333 555 249 555 C339.823 555 387 439.203 387 274 C387 92.5628 324.333 -10 247 -10 C201.667 -10 171.333 19 146 63 L139 63 C141.667 39 146 -3.33333 146 -38 L146 -240 L33 -240 Z M146 272 C146 149.333 165.667 97 211 97 C251 97 267 156.667 267 274 C267 391.333 251.667 448 209 448 C167.667 448 146 399 146 291 L146 272 Z " />
<glyph glyph-name="ydieresis" unicode="&#xff;" horiz-adv-x="437" >
<g transform="translate(1,-13)" ><path fill="black" d="M126 620 C95.3333 620 75 642.333 75 685 C75 727.667 95.3333 749 126 749 C156.667 749 178 726.333 178 685 C178 642.333 156.667 620 126 620 Z M279 620 C248.333 620 228 642.333 228 685 C228 727.667 248.333 749 279 749 C309.667 749 331 726.333 331 685 C331 642.333 309.667 620 279 620 Z " /></g><path fill="black" d="M23 -137 C33.6667 -139.667 48 -143 60 -143 C94.7601 -143 133.347 -128.271 152 -43 L160 -2 L8 545 L134 545 L189 265 C199.667 218.333 203.667 182 209 150 L212 150 C214.667 180.667 222.333 222.333 229 265 L274 545 L400 545 L259 -55 C228.333 -185.667 170 -245 78 -245 C59.3333 -245 41 -242.333 23 -237 L23 -137 Z " /></glyph>
<glyph glyph-name="Amacron" unicode="&#x100;" horiz-adv-x="437" >
<path fill="black" d="M119 715 L284 715 L398 0 L285 0 L260 189 L148 189 L124 0 L9 0 L119 715 Z M246 295 L221 485 C215.667 526.333 207 580.333 203 619 C199 580.333 190.333 526.333 185 485 L161 295 L246 295 Z " /><g transform="translate(6,153)" ><path fill="black" d="M86 718 L307 718 L307 636 L86 636 L86 718 Z " /></g></glyph>
<glyph glyph-name="amacron" unicode="&#x101;" horiz-adv-x="437" >
<path fill="black" d="M266 75 C238 19 203.667 -10 157 -10 C82.3333 -10 36 50.3333 36 157 C36 277 93 330 189 334 L262 337 L262 359 C262 425.667 232.667 449 194 449 C159.333 449 128 434.333 100 413 L61 507 C105 537.667 150.333 555 209 555 C314.333 555 372 495.333 372 370 L372 0 L285 0 L268 75 L266 75 Z M262 255 L221 252 C174.333 249.333 148 222 148 166 C148 116.667 169.667 96 195 96 C228.333 96 262 134.333 262 213 L262 255 Z " /><g transform="translate(19,-17)" ><path fill="black" d="M86 718 L307 718 L307 636 L86 636 L86 718 Z " /></g></glyph>
<glyph glyph-name="Abreve" unicode="&#x102;" horiz-adv-x="437" >
<path fill="black" d="M119 715 L284 715 L398 0 L285 0 L260 189 L148 189 L124 0 L9 0 L119 715 Z M246 295 L221 485 C215.667 526.333 207 580.333 203 619 C199 580.333 190.333 526.333 185 485 L161 295 L246 295 Z " /><g transform="translate(0,170)" ><path fill="black" d="M152 759 C154 711.667 171 688 203 688 C233.667 688 252.333 708.333 255 759 L321 759 C321 665.667 275 609 203 609 C135 609 86.3333 659 85 759 L152 759 Z " /></g></glyph>
<glyph glyph-name="abreve" unicode="&#x103;" horiz-adv-x="437" >
<path fill="black" d="M266 75 C238 19 203.667 -10 157 -10 C82.3333 -10 36 50.3333 36 157 C36 277 93 330 189 334 L262 337 L262 359 C262 425.667 232.667 449 194 449 C159.333 449 128 434.333 100 413 L61 507 C105 537.667 150.333 555 209 555 C314.333 555 372 495.333 372 370 L372 0 L285 0 L268 75 L266 75 Z M262 255 L221 252 C174.333 249.333 148 222 148 166 C148 116.667 169.667 96 195 96 C228.333 96 262 134.333 262 213 L262 255 Z " /><g transform="translate(13,0)" ><path fill="black" d="M152 759 C154 711.667 171 688 203 688 C233.667 688 252.333 708.333 255 759 L321 759 C321 665.667 275 609 203 609 C135 609 86.3333 659 85 759 L152 759 Z " /></g></glyph>
<glyph glyph-name="Aogonek" unicode="&#x104;" horiz-adv-x="437" d="M119 715 L284 715 L398 1 L403 0 C368.333 -45.3333 362 -75.6667 362 -109 C362 -138.333 373.333 -156 396 -156 C409.333 -156 416.333 -152 423 -148 L423 -221 C412.333 -227.667 394.667 -232 372 -232 C308 -232 279 -196.667 279 -134 C279 -87.3333 296 -40 332 0 L285 0 L260 189 L148 189 L124 0 L9 0 L119 715 Z M246 295 L221 485 C215.667 526.333 207 580.333 203 619 C199 580.333 190.333 526.333 185 485 L161 295 L246 295 Z " />
<glyph glyph-name="aogonek" unicode="&#x105;" horiz-adv-x="437" d="M270 75 L268 75 C240 19 205.667 -10 159 -10 C84.3333 -10 38 50.3333 38 157 C38 277 95 330 191 334 L264 337 L264 359 C264 425.667 234.667 449 196 449 C161.333 449 130 434.333 102 413 L63 507 C107 537.667 152.333 555 211 555 C316.333 555 374 495.333 374 370 L374 0 L369 0 C334.333 -45.3333 328 -75.6667 328 -109 C328 -138.333 339.333 -156 362 -156 C375.333 -156 382.333 -152 389 -148 L389 -221 C378.333 -227.667 360.667 -232 338 -232 C274 -232 245 -196.667 245 -134 C245 -87.3333 262 -40 298 0 L287 0 L270 75 Z M264 255 L223 252 C176.333 249.333 150 222 150 166 C150 116.667 171.667 96 197 96 C230.333 96 264 134.333 264 213 L264 255 Z " />
<glyph glyph-name="Cacute" unicode="&#x106;" horiz-adv-x="437" >
<path fill="black" d="M371 24 C332.333 0 289.667 -10 243 -10 C101.667 -10 26 123.667 26 349 C26 571.277 107.641 726 249 726 C310.333 726 349.667 710.667 391 680 L356 581 C326.667 606.333 294.667 617 264 617 C182.952 617 143 508.797 143 354 C143 191.333 183.333 98 262 98 C300.667 98 335 115 371 135 L371 24 Z " /><g transform="translate(55,169)" ><path fill="black" d="M133 606 L133 618 C159.667 671.333 180 720.667 196 766 L319 766 L319 757 C300.762 717.918 245.444 645.047 209 606 L133 606 Z " /></g></glyph>
<glyph glyph-name="cacute" unicode="&#x107;" horiz-adv-x="437" >
<path fill="black" d="M362 24 C328.667 1.33333 284 -10 244 -10 C129.411 -10 41 75.2294 41 270 C41 448.667 105.667 555 243 555 C291 555 337.333 543 376 519 L340 420 C314.667 438.667 286 448 254 448 C188.667 448 161 389.333 161 272 C161 150.667 198 97 258 97 C290 97 328.667 108.667 362 138 L362 24 Z " /><g transform="translate(46,0)" ><path fill="black" d="M133 606 L133 618 C159.667 671.333 180 720.667 196 766 L319 766 L319 757 C300.762 717.918 245.444 645.047 209 606 L133 606 Z " /></g></glyph>
<glyph glyph-name="Ccircumflex" unicode="&#x108;" horiz-adv-x="437" >
<path fill="black" d="M371 24 C332.333 0 289.667 -10 243 -10 C101.667 -10 26 123.667 26 349 C26 571.277 107.641 726 249 726 C310.333 726 349.667 710.667 391 680 L356 581 C326.667 606.333 294.667 617 264 617 C182.952 617 143 508.797 143 354 C143 191.333 183.333 98 262 98 C300.667 98 335 115 371 135 L371 24 Z " /><g transform="translate(41,169)" ><path fill="black" d="M76 606 L76 618 C102.445 660.312 137.655 725.966 151 766 L255 766 C273.667 722 299.333 664.667 330 618 L330 606 L264 606 C245.333 628.667 225.667 658.333 203 693 C179 658.333 159 626 143 606 L76 606 Z " /></g></glyph>
<glyph glyph-name="ccircumflex" unicode="&#x109;" horiz-adv-x="437" >
<path fill="black" d="M362 24 C328.667 1.33333 284 -10 244 -10 C129.411 -10 41 75.2294 41 270 C41 448.667 105.667 555 243 555 C291 555 337.333 543 376 519 L340 420 C314.667 438.667 286 448 254 448 C188.667 448 161 389.333 161 272 C161 150.667 198 97 258 97 C290 97 328.667 108.667 362 138 L362 24 Z " /><g transform="translate(32,0)" ><path fill="black" d="M76 606 L76 618 C102.445 660.312 137.655 725.966 151 766 L255 766 C273.667 722 299.333 664.667 330 618 L330 606 L264 606 C245.333 628.667 225.667 658.333 203 693 C179 658.333 159 626 143 606 L76 606 Z " /></g></glyph>
<glyph glyph-name="Cdotaccent" unicode="&#x10a;" horiz-adv-x="437" >
<path fill="black" d="M371 24 C332.333 0 289.667 -10 243 -10 C101.667 -10 26 123.667 26 349 C26 571.277 107.641 726 249 726 C310.333 726 349.667 710.667 391 680 L356 581 C326.667 606.333 294.667 617 264 617 C182.952 617 143 508.797 143 354 C143 191.333 183.333 98 262 98 C300.667 98 335 115 371 135 L371 24 Z " /><g transform="translate(39,802)" ><path fill="black" d="M204 -12 C164 -12 138 14.3333 138 65 C138 115.667 161.333 141 204 141 C244 141 269 115.667 269 65 C269 14.3333 242.667 -12 204 -12 Z " /></g></glyph>
<glyph glyph-name="cdotaccent" unicode="&#x10b;" horiz-adv-x="437" >
<path fill="black" d="M362 24 C328.667 1.33333 284 -10 244 -10 C129.411 -10 41 75.2294 41 270 C41 448.667 105.667 555 243 555 C291 555 337.333 543 376 519 L340 420 C314.667 438.667 286 448 254 448 C188.667 448 161 389.333 161 272 C161 150.667 198 97 258 97 C290 97 328.667 108.667 362 138 L362 24 Z " /><g transform="translate(30,633)" ><path fill="black" d="M204 -12 C164 -12 138 14.3333 138 65 C138 115.667 161.333 141 204 141 C244 141 269 115.667 269 65 C269 14.3333 242.667 -12 204 -12 Z " /></g></glyph>
<glyph glyph-name="Ccaron" unicode="&#x10c;" horiz-adv-x="437" >
<path fill="black" d="M371 24 C332.333 0 289.667 -10 243 -10 C101.667 -10 26 123.667 26 349 C26 571.277 107.641 726 249 726 C310.333 726 349.667 710.667 391 680 L356 581 C326.667 606.333 294.667 617 264 617 C182.952 617 143 508.797 143 354 C143 191.333 183.333 98 262 98 C300.667 98 335 115 371 135 L371 24 Z " /><g transform="translate(41,169)" ><path fill="black" d="M76 766 L143 766 C160.333 744.667 181.333 713.667 204 679 C228 717.667 244 739.333 264 766 L330 766 L330 754 C309.042 714.704 271.912 648.431 256 606 L151 606 C137.535 646.395 100.213 713.645 76 754 L76 766 Z " /></g></glyph>
<glyph glyph-name="ccaron" unicode="&#x10d;" horiz-adv-x="437" >
<path fill="black" d="M362 24 C328.667 1.33333 284 -10 244 -10 C129.411 -10 41 75.2294 41 270 C41 448.667 105.667 555 243 555 C291 555 337.333 543 376 519 L340 420 C314.667 438.667 286 448 254 448 C188.667 448 161 389.333 161 272 C161 150.667 198 97 258 97 C290 97 328.667 108.667 362 138 L362 24 Z " /><g transform="translate(32,0)" ><path fill="black" d="M76 766 L143 766 C160.333 744.667 181.333 713.667 204 679 C228 717.667 244 739.333 264 766 L330 766 L330 754 C309.042 714.704 271.912 648.431 256 606 L151 606 C137.535 646.395 100.213 713.645 76 754 L76 766 Z " /></g></glyph>
<glyph glyph-name="Dcaron" unicode="&#x10e;" horiz-adv-x="437" >
<path fill="black" d="M25 0 L25 714 L191 714 C318.948 714 393 586.152 393 369 C393 133.286 305.978 0 187 0 L25 0 Z M139 110 L174 110 C244.667 110 275 201 275 361 C275 531.667 243.333 604 178 604 L139 604 L139 110 Z " /><g transform="translate(-7,169)" ><path fill="black" d="M76 766 L143 766 C160.333 744.667 181.333 713.667 204 679 C228 717.667 244 739.333 264 766 L330 766 L330 754 C309.042 714.704 271.912 648.431 256 606 L151 606 C137.535 646.395 100.213 713.645 76 754 L76 766 Z " /></g></glyph>
<glyph glyph-name="dcaron" unicode="&#x10f;" horiz-adv-x="437" d="M240 74 L234 74 C215.333 22 187.667 -10 145 -10 C60.6623 -10 12 98.3636 12 270 C12 451.333 63 555 147 555 C183.667 555 212 528.333 232 475 L239 475 C236.333 501.667 232 536.333 232 571 L232 760 L345 760 L345 0 L251 0 L240 74 Z M234 278 C234 400.667 216.667 448 182 448 C138 448 125 387.667 125 269 C125 153 137.667 97 179 97 C215 97 234 148.333 234 259 L234 278 Z M361 600 L361 608 C366.391 640.346 375.318 722.456 378 760 L485 760 L485 753 C474.333 706.333 453.333 641.333 432 600 L361 600 Z " />
<glyph glyph-name="Dcroat" unicode="&#x110;" horiz-adv-x="437" >
<path fill="black" d="M35 317 L2 317 L2 409 L35 409 L35 714 L201 714 C328.948 714 403 586.152 403 369 C403 133.286 315.978 0 197 0 L35 0 L35 317 Z M184 110 C254.667 110 285 201 285 361 C285 531.667 253.333 604 188 604 L149 604 L149 409 L216 409 L216 317 L149 317 L149 110 L184 110 Z " /></glyph>
<glyph glyph-name="dcroat" unicode="&#x111;" horiz-adv-x="437" d="M269 74 L264 74 C242.667 22 209.333 -10 164 -10 C70.6667 -10 20 95 20 263 C20 440.333 74.3333 543 165 543 C205.667 543 238 515.667 262 461 L268 461 C265.333 487.667 261 526.333 261 569 L261 593 L160 593 L160 677 L261 677 L261 760 L374 760 L374 677 L404 677 L404 593 L374 593 L374 0 L280 0 L269 74 Z M201 97 C242.333 97 263 146.667 263 246 L263 265 C263 382.333 248 435 204 435 C153.333 435 136 374.333 136 261 C136 150.333 154.333 97 201 97 Z " />
<glyph glyph-name="Emacron" unicode="&#x112;" horiz-adv-x="437" >
<path fill="black" d="M372 110 L372 0 L40 0 L40 714 L372 714 L372 604 L156 604 L156 421 L358 421 L358 311 L156 311 L156 110 L372 110 Z " /><g transform="translate(9,152)" ><path fill="black" d="M86 718 L307 718 L307 636 L86 636 L86 718 Z " /></g></glyph>
<glyph glyph-name="emacron" unicode="&#x113;" horiz-adv-x="437" >
<path fill="black" d="M360 28 C326.667 4 287 -10 227 -10 C96.3333 -10 23 87.6667 23 269 C23 443.251 88.4372 555 211 555 C315 555 382 467 382 303 L382 235 L141 235 C143.667 139 184 95 240 95 C290.667 95 328 110.667 360 136 L360 28 Z M270 323 C268.667 407 246.667 451 208 451 C165.333 451 143 408.333 141 323 L270 323 Z " /><g transform="translate(13,-17)" ><path fill="black" d="M86 718 L307 718 L307 636 L86 636 L86 718 Z " /></g></glyph>
<glyph glyph-name="Ebreve" unicode="&#x114;" horiz-adv-x="437" >
<path fill="black" d="M372 110 L372 0 L40 0 L40 714 L372 714 L372 604 L156 604 L156 421 L358 421 L358 311 L156 311 L156 110 L372 110 Z " /><g transform="translate(3,169)" ><path fill="black" d="M152 759 C154 711.667 171 688 203 688 C233.667 688 252.333 708.333 255 759 L321 759 C321 665.667 275 609 203 609 C135 609 86.3333 659 85 759 L152 759 Z " /></g></glyph>
<glyph glyph-name="ebreve" unicode="&#x115;" horiz-adv-x="437" >
<path fill="black" d="M360 28 C326.667 4 287 -10 227 -10 C96.3333 -10 23 87.6667 23 269 C23 443.251 88.4372 555 211 555 C315 555 382 467 382 303 L382 235 L141 235 C143.667 139 184 95 240 95 C290.667 95 328 110.667 360 136 L360 28 Z M270 323 C268.667 407 246.667 451 208 451 C165.333 451 143 408.333 141 323 L270 323 Z " /><g transform="translate(7,0)" ><path fill="black" d="M152 759 C154 711.667 171 688 203 688 C233.667 688 252.333 708.333 255 759 L321 759 C321 665.667 275 609 203 609 C135 609 86.3333 659 85 759 L152 759 Z " /></g></glyph>
<glyph glyph-name="Edotaccent" unicode="&#x116;" horiz-adv-x="437" >
<path fill="black" d="M372 110 L372 0 L40 0 L40 714 L372 714 L372 604 L156 604 L156 421 L358 421 L358 311 L156 311 L156 110 L372 110 Z " /><g transform="translate(1,802)" ><path fill="black" d="M204 -12 C164 -12 138 14.3333 138 65 C138 115.667 161.333 141 204 141 C244 141 269 115.667 269 65 C269 14.3333 242.667 -12 204 -12 Z " /></g></glyph>
<glyph glyph-name="edotaccent" unicode="&#x117;" horiz-adv-x="437" >
<path fill="black" d="M360 28 C326.667 4 287 -10 227 -10 C96.3333 -10 23 87.6667 23 269 C23 443.251 88.4372 555 211 555 C315 555 382 467 382 303 L382 235 L141 235 C143.667 139 184 95 240 95 C290.667 95 328 110.667 360 136 L360 28 Z M270 323 C268.667 407 246.667 451 208 451 C165.333 451 143 408.333 141 323 L270 323 Z " /><g transform="translate(5,633)" ><path fill="black" d="M204 -12 C164 -12 138 14.3333 138 65 C138 115.667 161.333 141 204 141 C244 141 269 115.667 269 65 C269 14.3333 242.667 -12 204 -12 Z " /></g></glyph>
<glyph glyph-name="Eogonek" unicode="&#x118;" horiz-adv-x="437" d="M42 714 L374 714 L374 604 L158 604 L158 421 L360 421 L360 311 L158 311 L158 110 L374 110 L374 0 L355 0 C320.333 -45.3333 314 -75.6667 314 -109 C314 -138.333 325.333 -156 348 -156 C361.333 -156 368.333 -152 375 -148 L375 -221 C364.333 -227.667 346.667 -232 324 -232 C260 -232 231 -196.667 231 -134 C231 -87.3333 248 -40 284 0 L42 0 L42 714 Z " />
<glyph glyph-name="eogonek" unicode="&#x119;" horiz-adv-x="437" d="M355 -221 C344.333 -227.667 326.667 -232 304 -232 C240 -232 211 -187.667 211 -121 C211 -74.3333 227.667 -39.6667 253 -9 C245 -10.3333 236.333 -10 227 -10 C96.3333 -10 23 87.6667 23 269 C23 443.251 88.4372 555 211 555 C315 555 382 467 382 303 L382 235 L141 235 C143.667 139 184 95 240 95 C290.667 95 328 110.667 360 136 L360 28 L354 24 C307.333 -26.6667 294 -64.3333 294 -103 C294 -136.333 306.333 -156 329 -156 C339.667 -156 348.333 -152 355 -148 L355 -221 Z M270 323 C268.667 407 246.667 451 208 451 C165.333 451 143 408.333 141 323 L270 323 Z " />
<glyph glyph-name="Ecaron" unicode="&#x11a;" horiz-adv-x="437" >
<path fill="black" d="M372 110 L372 0 L40 0 L40 714 L372 714 L372 604 L156 604 L156 421 L358 421 L358 311 L156 311 L156 110 L372 110 Z " /><g transform="translate(3,169)" ><path fill="black" d="M76 766 L143 766 C160.333 744.667 181.333 713.667 204 679 C228 717.667 244 739.333 264 766 L330 766 L330 754 C309.042 714.704 271.912 648.431 256 606 L151 606 C137.535 646.395 100.213 713.645 76 754 L76 766 Z " /></g></glyph>
<glyph glyph-name="ecaron" unicode="&#x11b;" horiz-adv-x="437" >
<path fill="black" d="M360 28 C326.667 4 287 -10 227 -10 C96.3333 -10 23 87.6667 23 269 C23 443.251 88.4372 555 211 555 C315 555 382 467 382 303 L382 235 L141 235 C143.667 139 184 95 240 95 C290.667 95 328 110.667 360 136 L360 28 Z M270 323 C268.667 407 246.667 451 208 451 C165.333 451 143 408.333 141 323 L270 323 Z " /><g transform="translate(7,0)" ><path fill="black" d="M76 766 L143 766 C160.333 744.667 181.333 713.667 204 679 C228 717.667 244 739.333 264 766 L330 766 L330 754 C309.042 714.704 271.912 648.431 256 606 L151 606 C137.535 646.395 100.213 713.645 76 754 L76 766 Z " /></g></glyph>
<glyph glyph-name="Gcircumflex" unicode="&#x11c;" horiz-adv-x="437" >
<path fill="black" d="M274 289 L222 289 L222 397 L382 397 L382 29 C335.333 1 289.667 -10 243 -10 C85.7965 -10 14 125.797 14 347 C14 582.662 101.234 726 249 726 C306.333 726 347.333 707.667 382 681 L348 583 C314.667 609.667 291.333 618 258 618 C171.333 618 130 523.667 130 349 C130 207.537 161.281 98 228 98 C244 98 260.667 103.333 274 110 L274 289 Z " /><g transform="translate(28,169)" ><path fill="black" d="M76 606 L76 618 C102.445 660.312 137.655 725.966 151 766 L255 766 C273.667 722 299.333 664.667 330 618 L330 606 L264 606 C245.333 628.667 225.667 658.333 203 693 C179 658.333 159 626 143 606 L76 606 Z " /></g></glyph>
<glyph glyph-name="gcircumflex" unicode="&#x11d;" horiz-adv-x="437" >
<path fill="black" d="M46 -97 C92.6667 -126.333 136.667 -138 170 -138 C229.333 -138 259 -97.3333 259 -16 L259 6 C259 26 259.667 51.3333 261 70 L258 70 C231.333 12.6667 201 -10 165 -10 C73 -10 20 94 20 270 C20 445.004 74.2554 555 165 555 C203.667 555 232 531 260 475 L267 475 L277 545 L374 545 L374 3 C374 -158.333 314 -245 178 -245 C126 -245 87.3333 -232.333 46 -207 L46 -97 Z M262 273 C262 398.333 247 448 207 448 C160.333 448 143 385 143 269 C143 155.667 159.333 97 206 97 C242 97 262 141 262 253 L262 273 Z " /><path fill="black" d="M76 606 L76 618 C102.445 660.312 137.655 725.966 151 766 L255 766 C273.667 722 299.333 664.667 330 618 L330 606 L264 606 C245.333 628.667 225.667 658.333 203 693 C179 658.333 159 626 143 606 L76 606 Z " /></glyph>
<glyph glyph-name="Gbreve" unicode="&#x11e;" horiz-adv-x="437" >
<path fill="black" d="M274 289 L222 289 L222 397 L382 397 L382 29 C335.333 1 289.667 -10 243 -10 C85.7965 -10 14 125.797 14 347 C14 582.662 101.234 726 249 726 C306.333 726 347.333 707.667 382 681 L348 583 C314.667 609.667 291.333 618 258 618 C171.333 618 130 523.667 130 349 C130 207.537 161.281 98 228 98 C244 98 260.667 103.333 274 110 L274 289 Z " /><g transform="translate(28,169)" ><path fill="black" d="M152 759 C154 711.667 171 688 203 688 C233.667 688 252.333 708.333 255 759 L321 759 C321 665.667 275 609 203 609 C135 609 86.3333 659 85 759 L152 759 Z " /></g></glyph>
<glyph glyph-name="gbreve" unicode="&#x11f;" horiz-adv-x="437" >
<path fill="black" d="M46 -97 C92.6667 -126.333 136.667 -138 170 -138 C229.333 -138 259 -97.3333 259 -16 L259 6 C259 26 259.667 51.3333 261 70 L258 70 C231.333 12.6667 201 -10 165 -10 C73 -10 20 94 20 270 C20 445.004 74.2554 555 165 555 C203.667 555 232 531 260 475 L267 475 L277 545 L374 545 L374 3 C374 -158.333 314 -245 178 -245 C126 -245 87.3333 -232.333 46 -207 L46 -97 Z M262 273 C262 398.333 247 448 207 448 C160.333 448 143 385 143 269 C143 155.667 159.333 97 206 97 C242 97 262 141 262 253 L262 273 Z " /><path fill="black" d="M152 759 C154 711.667 171 688 203 688 C233.667 688 252.333 708.333 255 759 L321 759 C321 665.667 275 609 203 609 C135 609 86.3333 659 85 759 L152 759 Z " /></glyph>
<glyph glyph-name="Gdotaccent" unicode="&#x120;" horiz-adv-x="437" >
<path fill="black" d="M274 289 L222 289 L222 397 L382 397 L382 29 C335.333 1 289.667 -10 243 -10 C85.7965 -10 14 125.797 14 347 C14 582.662 101.234 726 249 726 C306.333 726 347.333 707.667 382 681 L348 583 C314.667 609.667 291.333 618 258 618 C171.333 618 130 523.667 130 349 C130 207.537 161.281 98 228 98 C244 98 260.667 103.333 274 110 L274 289 Z " /><g transform="translate(26,802)" ><path fill="black" d="M204 -12 C164 -12 138 14.3333 138 65 C138 115.667 161.333 141 204 141 C244 141 269 115.667 269 65 C269 14.3333 242.667 -12 204 -12 Z " /></g></glyph>
<glyph glyph-name="gdotaccent" unicode="&#x121;" horiz-adv-x="437" >
<path fill="black" d="M46 -97 C92.6667 -126.333 136.667 -138 170 -138 C229.333 -138 259 -97.3333 259 -16 L259 6 C259 26 259.667 51.3333 261 70 L258 70 C231.333 12.6667 201 -10 165 -10 C73 -10 20 94 20 270 C20 445.004 74.2554 555 165 555 C203.667 555 232 531 260 475 L267 475 L277 545 L374 545 L374 3 C374 -158.333 314 -245 178 -245 C126 -245 87.3333 -232.333 46 -207 L46 -97 Z M262 273 C262 398.333 247 448 207 448 C160.333 448 143 385 143 269 C143 155.667 159.333 97 206 97 C242 97 262 141 262 253 L262 273 Z " /><g transform="translate(-2,633)" ><path fill="black" d="M204 -12 C164 -12 138 14.3333 138 65 C138 115.667 161.333 141 204 141 C244 141 269 115.667 269 65 C269 14.3333 242.667 -12 204 -12 Z " /></g></glyph>
<glyph glyph-name="uni0122" unicode="&#x122;" horiz-adv-x="437" >
<path fill="black" d="M274 289 L222 289 L222 397 L382 397 L382 29 C335.333 1 289.667 -10 243 -10 C85.7965 -10 14 125.797 14 347 C14 582.662 101.234 726 249 726 C306.333 726 347.333 707.667 382 681 L348 583 C314.667 609.667 291.333 618 258 618 C171.333 618 130 523.667 130 349 C130 207.537 161.281 98 228 98 C244 98 260.667 103.333 274 110 L274 289 Z " /><g transform="translate(670,0)" ><path fill="black" d="M-510 -221 L-510 -213 C-504.609 -180.654 -495.682 -98.544 -493 -61 L-386 -61 L-386 -68 C-396.667 -114.667 -417.667 -179.667 -439 -221 L-510 -221 Z " /></g></glyph>
<glyph glyph-name="uni0123" unicode="&#x123;" horiz-adv-x="437" d="M48 -97 C94.6667 -126.333 138.667 -138 172 -138 C231.333 -138 261 -97.3333 261 -16 L261 6 C261 26 261.667 51.3333 263 70 L260 70 C233.333 12.6667 203 -10 167 -10 C75 -10 22 94 22 270 C22 445.004 76.2554 555 167 555 C205.667 555 234 531 262 475 L269 475 L279 545 L376 545 L376 3 C376 -158.333 316 -245 180 -245 C128 -245 89.3333 -232.333 48 -207 L48 -97 Z M264 273 C264 398.333 249 448 209 448 C162.333 448 145 385 145 269 C145 155.667 161.333 97 208 97 C244 97 264 141 264 253 L264 273 Z M139 606 L139 614 C149.667 660.667 169.333 720.667 196 766 L266 766 L266 757 C256.667 710.333 248.667 644.667 246 606 L139 606 Z " />
<glyph glyph-name="Hcircumflex" unicode="&#x124;" horiz-adv-x="437" >
<path fill="black" d="M25 0 L25 714 L140 714 L140 423 L268 423 L268 714 L383 714 L383 0 L268 0 L268 314 L140 314 L140 0 L25 0 Z " /><g transform="translate(1,169)" ><path fill="black" d="M76 606 L76 618 C102.445 660.312 137.655 725.966 151 766 L255 766 C273.667 722 299.333 664.667 330 618 L330 606 L264 606 C245.333 628.667 225.667 658.333 203 693 C179 658.333 159 626 143 606 L76 606 Z " /></g></glyph>
<glyph glyph-name="hcircumflex" unicode="&#x125;" horiz-adv-x="437" >
<path fill="black" d="M33 0 L33 760 L149 760 L149 579 C149 542.333 146 507 140 473 L147 473 C165.667 522.333 199.667 555 249 555 C329 555 378 489.333 378 356 L378 0 L263 0 L263 320 C263 401.333 256.667 445 210 445 C162 445 149 385.667 149 279 L149 0 L33 0 Z " /><g transform="translate(-113,215)" ><path fill="black" d="M76 606 L76 618 C102.445 660.312 137.655 725.966 151 766 L255 766 C273.667 722 299.333 664.667 330 618 L330 606 L264 606 C245.333 628.667 225.667 658.333 203 693 C179 658.333 159 626 143 606 L76 606 Z " /></g></glyph>
<glyph glyph-name="Hbar" unicode="&#x126;" horiz-adv-x="437" d="M30 526 L2 526 L2 612 L30 612 L30 714 L145 714 L145 612 L260 612 L260 714 L376 714 L376 612 L404 612 L404 526 L376 526 L376 0 L260 0 L260 314 L145 314 L145 0 L30 0 L30 526 Z M260 423 L260 526 L145 526 L145 423 L260 423 Z " />
<glyph glyph-name="hbar" unicode="&#x127;" horiz-adv-x="437" d="M33 593 L2 593 L2 677 L33 677 L33 760 L148 760 L148 677 L246 677 L246 593 L148 593 L148 574 C148 538 145.333 501.667 140 467 L146 467 C166 517.667 199.667 550 249 550 C327.667 550 378 483.333 378 350 L378 0 L262 0 L262 315 C262 395 256.667 440 210 440 C162 440 148 379.333 148 274 L148 0 L33 0 L33 593 Z " />
<glyph glyph-name="Itilde" unicode="&#x128;" horiz-adv-x="437" >
<path fill="black" d="M46 88 L148 101 L148 614 L46 626 L46 714 L361 714 L361 626 L261 614 L261 101 L361 88 L361 0 L46 0 L46 88 Z " /><g transform="translate(-1,169)" ><path fill="black" d="M73 611 C75.7142 673.426 85.9419 750 143 750 C186.111 750 218.556 696 251 696 C267 696 270.667 715 276 751 L334 751 C331.333 656.333 303 611 263 611 C219.124 611 181.68 665 156 665 C142 665 133.667 647 131 611 L73 611 Z " /></g></glyph>
<glyph glyph-name="itilde" unicode="&#x129;" horiz-adv-x="407" >
<path fill="black" d="M38 88 L154 102 L154 441 L56 453 L56 545 L268 545 L268 102 L368 88 L368 0 L38 0 L38 88 Z " /><g transform="translate(-1,0)" ><path fill="black" d="M73 611 C75.7142 673.426 85.9419 750 143 750 C186.111 750 218.556 696 251 696 C267 696 270.667 715 276 751 L334 751 C331.333 656.333 303 611 263 611 C219.124 611 181.68 665 156 665 C142 665 133.667 647 131 611 L73 611 Z " /></g></glyph>
<glyph glyph-name="Imacron" unicode="&#x12a;" horiz-adv-x="437" >
<path fill="black" d="M46 88 L148 101 L148 614 L46 626 L46 714 L361 714 L361 626 L261 614 L261 101 L361 88 L361 0 L46 0 L46 88 Z " /><g transform="translate(6,152)" ><path fill="black" d="M86 718 L307 718 L307 636 L86 636 L86 718 Z " /></g></glyph>
<glyph glyph-name="imacron" unicode="&#x12b;" horiz-adv-x="407" >
<path fill="black" d="M38 88 L154 102 L154 441 L56 453 L56 545 L268 545 L268 102 L368 88 L368 0 L38 0 L38 88 Z " /><g transform="translate(6,-17)" ><path fill="black" d="M86 718 L307 718 L307 636 L86 636 L86 718 Z " /></g></glyph>
<glyph glyph-name="Ibreve" unicode="&#x12c;" horiz-adv-x="437" >
<path fill="black" d="M46 88 L148 101 L148 614 L46 626 L46 714 L361 714 L361 626 L261 614 L261 101 L361 88 L361 0 L46 0 L46 88 Z " /><g transform="translate(0,169)" ><path fill="black" d="M152 759 C154 711.667 171 688 203 688 C233.667 688 252.333 708.333 255 759 L321 759 C321 665.667 275 609 203 609 C135 609 86.3333 659 85 759 L152 759 Z " /></g></glyph>
<glyph glyph-name="ibreve" unicode="&#x12d;" horiz-adv-x="407" >
<path fill="black" d="M38 88 L154 102 L154 441 L56 453 L56 545 L268 545 L268 102 L368 88 L368 0 L38 0 L38 88 Z " /><path fill="black" d="M152 759 C154 711.667 171 688 203 688 C233.667 688 252.333 708.333 255 759 L321 759 C321 665.667 275 609 203 609 C135 609 86.3333 659 85 759 L152 759 Z " /></glyph>
<glyph glyph-name="Iogonek" unicode="&#x12e;" horiz-adv-x="437" d="M48 88 L150 101 L150 614 L48 626 L48 714 L363 714 L363 626 L263 614 L263 101 L363 88 L363 0 L286 0 C251.333 -45.3333 245 -75.6667 245 -109 C245 -138.333 256.333 -156 279 -156 C292.333 -156 299.333 -152 306 -148 L306 -221 C295.333 -227.667 277.667 -232 255 -232 C191 -232 162 -196.667 162 -134 C162 -87.3333 179 -40 215 0 L48 0 L48 88 Z " />
<glyph glyph-name="iogonek" unicode="&#x12f;" horiz-adv-x="437" d="M40 88 L156 102 L156 441 L58 453 L58 545 L270 545 L270 102 L370 88 L370 0 L286 0 C251.333 -45.3333 245 -75.6667 245 -109 C245 -138.333 256.333 -156 279 -156 C292.333 -156 299.333 -152 306 -148 L306 -221 C295.333 -227.667 277.667 -232 255 -232 C191 -232 162 -196.667 162 -134 C162 -87.3333 179 -40 215 0 L40 0 L40 88 Z M212 621 C169.333 621 144 644.667 144 694 C144 743.333 169.333 769 212 769 C256.667 769 279 744 279 694 C279 645.333 256.667 621 212 621 Z " />
<glyph glyph-name="Idotaccent" unicode="&#x130;" horiz-adv-x="437" >
<path fill="black" d="M46 88 L148 101 L148 614 L46 626 L46 714 L361 714 L361 626 L261 614 L261 101 L361 88 L361 0 L46 0 L46 88 Z " /><g transform="translate(-2,802)" ><path fill="black" d="M204 -12 C164 -12 138 14.3333 138 65 C138 115.667 161.333 141 204 141 C244 141 269 115.667 269 65 C269 14.3333 242.667 -12 204 -12 Z " /></g></glyph>
<glyph glyph-name="dotlessi" unicode="&#x131;" horiz-adv-x="407" d="M38 88 L154 102 L154 441 L56 453 L56 545 L268 545 L268 102 L368 88 L368 0 L38 0 L38 88 Z " />
<glyph glyph-name="IJ" unicode="&#x132;" horiz-adv-x="437" d="M54 119 C87.3333 104.333 117.333 97 136 97 C202.667 97 248 146 248 254 L248 714 L362 714 L362 228 C362 88.3117 288.563 -10 150 -10 C115.333 -10 82 -0.666667 54 14 L54 119 Z M53 203 L53 714 L167 714 L167 203 L53 203 Z " />
<glyph glyph-name="ij" unicode="&#x133;" horiz-adv-x="437" d="M90 -120 C120.667 -130.667 152.333 -139 175 -139 C223 -139 240 -108 240 -36 L240 545 L354 545 L354 -52 C354 -181.333 310.333 -245 197 -245 C162.333 -245 126.667 -238.333 90 -225 L90 -120 Z M56 0 L56 545 L170 545 L170 0 L56 0 Z M112 620 C72 620 46 646.333 46 697 C46 747.667 69.3333 773 112 773 C152 773 177 747.667 177 697 C177 646.333 150.667 620 112 620 Z M292 620 C249.333 620 224 643.667 224 693 C224 742.333 249.333 768 292 768 C336.667 768 359 743 359 693 C359 644.333 336.667 620 292 620 Z " />
<glyph glyph-name="Jcircumflex" unicode="&#x134;" horiz-adv-x="437" >
<path fill="black" d="M35 119 C68.3333 104.333 98.3333 97 117 97 C183.667 97 229 146 229 254 L229 714 L343 714 L343 228 C343 88.3117 269.563 -10 131 -10 C96.3333 -10 63 -0.666667 35 14 L35 119 Z " /><g transform="translate(82,169)" ><path fill="black" d="M76 606 L76 618 C102.445 660.312 137.655 725.966 151 766 L255 766 C273.667 722 299.333 664.667 330 618 L330 606 L264 606 C245.333 628.667 225.667 658.333 203 693 C179 658.333 159 626 143 606 L76 606 Z " /></g></glyph>
<glyph glyph-name="jcircumflex" unicode="&#x135;" horiz-adv-x="407" >
<path fill="black" d="M26 -120 C59.3333 -130.667 104 -139 124 -139 C170.667 -139 185 -108 185 -36 L185 440 L62 452 L62 545 L300 545 L300 -52 C300 -184 256 -245 140 -245 C108 -245 60.6667 -238.333 26 -225 L26 -120 Z " /><g transform="translate(36,0)" ><path fill="black" d="M76 606 L76 618 C102.445 660.312 137.655 725.966 151 766 L255 766 C273.667 722 299.333 664.667 330 618 L330 606 L264 606 C245.333 628.667 225.667 658.333 203 693 C179 658.333 159 626 143 606 L76 606 Z " /></g></glyph>
<glyph glyph-name="uni0136" unicode="&#x136;" horiz-adv-x="437" >
<path fill="black" d="M26 0 L26 714 L137 714 L137 365 C151.667 401 169.667 438.333 187 481 L272 714 L396 714 L265 393 L396 0 L269 0 L180 301 L137 242 L137 0 L26 0 Z " /><g transform="translate(644,0)" ><path fill="black" d="M-510 -221 L-510 -213 C-504.609 -180.654 -495.682 -98.544 -493 -61 L-386 -61 L-386 -68 C-396.667 -114.667 -417.667 -179.667 -439 -221 L-510 -221 Z " /></g></glyph>
<glyph glyph-name="uni0137" unicode="&#x137;" horiz-adv-x="437" >
<path fill="black" d="M34 0 L34 760 L144 760 L144 432 C144 385.333 138.667 338.667 136 292 L137 292 L178 368 L267 545 L396 545 L251 294 L398 0 L267 0 L174 218 L144 185 L144 0 L34 0 Z " /><g transform="translate(645,0)" ><path fill="black" d="M-510 -221 L-510 -213 C-504.609 -180.654 -495.682 -98.544 -493 -61 L-386 -61 L-386 -68 C-396.667 -114.667 -417.667 -179.667 -439 -221 L-510 -221 Z " /></g></glyph>
<glyph glyph-name="kgreenlandic" unicode="&#x138;" horiz-adv-x="437" d="M31 0 L31 545 L143 545 L143 433 C143 386.333 138.667 339.667 136 293 L137 293 C150.333 319.667 163.667 342.333 177 369 L265 545 L396 545 L252 294 L399 0 L265 0 L172 217 L143 184 L143 0 L31 0 Z " />
<glyph glyph-name="Lacute" unicode="&#x139;" horiz-adv-x="437" >
<path fill="black" d="M372 111 L372 0 L49 0 L49 714 L165 714 L165 111 L372 111 Z " /><g transform="translate(-82,169)" ><path fill="black" d="M133 606 L133 618 C159.667 671.333 180 720.667 196 766 L319 766 L319 757 C300.762 717.918 245.444 645.047 209 606 L133 606 Z " /></g></glyph>
<glyph glyph-name="lacute" unicode="&#x13a;" horiz-adv-x="437" >
<path fill="black" d="M38 87 L148 102 L148 661 L52 671 L52 760 L262 760 L262 102 L368 87 L368 0 L38 0 L38 87 Z " /><g transform="translate(14,215)" ><path fill="black" d="M133 606 L133 618 C159.667 671.333 180 720.667 196 766 L319 766 L319 757 C300.762 717.918 245.444 645.047 209 606 L133 606 Z " /></g></glyph>
<glyph glyph-name="uni013B" unicode="&#x13b;" horiz-adv-x="437" >
<path fill="black" d="M372 111 L372 0 L49 0 L49 714 L165 714 L165 111 L372 111 Z " /><g transform="translate(657,0)" ><path fill="black" d="M-510 -221 L-510 -213 C-504.609 -180.654 -495.682 -98.544 -493 -61 L-386 -61 L-386 -68 C-396.667 -114.667 -417.667 -179.667 -439 -221 L-510 -221 Z " /></g></glyph>
<glyph glyph-name="uni013C" unicode="&#x13c;" horiz-adv-x="437" >
<path fill="black" d="M38 87 L148 102 L148 661 L52 671 L52 760 L262 760 L262 102 L368 87 L368 0 L38 0 L38 87 Z " /><g transform="translate(644,0)" ><path fill="black" d="M-510 -221 L-510 -213 C-504.609 -180.654 -495.682 -98.544 -493 -61 L-386 -61 L-386 -68 C-396.667 -114.667 -417.667 -179.667 -439 -221 L-510 -221 Z " /></g></glyph>
<glyph glyph-name="Lcaron" unicode="&#x13d;" horiz-adv-x="437" >
<path fill="black" d="M372 111 L372 0 L49 0 L49 714 L165 714 L165 111 L372 111 Z " /><g transform="translate(793,775)" ><path fill="black" d="M-510 -221 L-510 -213 C-504.609 -180.654 -495.682 -98.544 -493 -61 L-386 -61 L-386 -68 C-396.667 -114.667 -417.667 -179.667 -439 -221 L-510 -221 Z " /></g></glyph>
<glyph glyph-name="lcaron" unicode="&#x13e;" horiz-adv-x="437" >
<path fill="black" d="M38 87 L148 102 L148 661 L52 671 L52 760 L262 760 L262 102 L368 87 L368 0 L38 0 L38 87 Z " /><g transform="translate(832,821)" ><path fill="black" d="M-510 -221 L-510 -213 C-504.609 -180.654 -495.682 -98.544 -493 -61 L-386 -61 L-386 -68 C-396.667 -114.667 -417.667 -179.667 -439 -221 L-510 -221 Z " /></g></glyph>
<glyph glyph-name="Ldot" unicode="&#x13f;" horiz-adv-x="437" >
<g transform="translate(2,0)" ><path fill="black" d="M372 111 L372 0 L49 0 L49 714 L165 714 L165 111 L372 111 Z " /></g><g transform="translate(125,324)" ><path fill="black" d="M204 -12 C164 -12 138 14.3333 138 65 C138 115.667 161.333 141 204 141 C244 141 269 115.667 269 65 C269 14.3333 242.667 -12 204 -12 Z " /></g></glyph>
<glyph glyph-name="ldot" unicode="&#x140;" horiz-adv-x="437" >
<path fill="black" d="M38 87 L148 102 L148 661 L52 671 L52 760 L262 760 L262 102 L368 87 L368 0 L38 0 L38 87 Z " /><g transform="translate(206,334)" ><path fill="black" d="M204 -12 C164 -12 138 14.3333 138 65 C138 115.667 161.333 141 204 141 C244 141 269 115.667 269 65 C269 14.3333 242.667 -12 204 -12 Z " /></g></glyph>
<glyph glyph-name="Lslash" unicode="&#x141;" horiz-adv-x="437" d="M49 294 L0 264 L0 350 L49 380 L49 714 L165 714 L165 453 L296 534 L296 448 L165 367 L165 111 L372 111 L372 0 L49 0 L49 294 Z " />
<glyph glyph-name="lslash" unicode="&#x142;" horiz-adv-x="437" d="M40 87 L150 102 L150 318 L64 264 L64 350 L150 404 L150 661 L54 671 L54 760 L264 760 L264 475 L359 534 L359 448 L264 389 L264 102 L370 87 L370 0 L40 0 L40 87 Z " />
<glyph glyph-name="Nacute" unicode="&#x143;" horiz-adv-x="437" >
<path fill="black" d="M26 0 L26 714 L181 714 L287 112 L292 112 C289.388 164.242 280 264.23 280 332 L280 714 L381 714 L381 0 L230 0 L119 608 L114 608 C118 524 126 453 126 377 L126 0 L26 0 Z " /><g transform="translate(19,169)" ><path fill="black" d="M133 606 L133 618 C159.667 671.333 180 720.667 196 766 L319 766 L319 757 C300.762 717.918 245.444 645.047 209 606 L133 606 Z " /></g></glyph>
<glyph glyph-name="nacute" unicode="&#x144;" horiz-adv-x="437" >
<path fill="black" d="M33 0 L33 545 L128 545 L142 477 L146 477 C168.667 527.667 202.333 555 249 555 C330.333 555 378 493.333 378 356 L378 0 L263 0 L263 338 C263 418 247.333 452 214 452 C167.333 452 149 402.333 149 289 L149 0 L33 0 Z " /><g transform="translate(24,0)" ><path fill="black" d="M133 606 L133 618 C159.667 671.333 180 720.667 196 766 L319 766 L319 757 C300.762 717.918 245.444 645.047 209 606 L133 606 Z " /></g></glyph>
<glyph glyph-name="uni0145" unicode="&#x145;" horiz-adv-x="437" >
<path fill="black" d="M26 0 L26 714 L181 714 L287 112 L292 112 C289.388 164.242 280 264.23 280 332 L280 714 L381 714 L381 0 L230 0 L119 608 L114 608 C118 524 126 453 126 377 L126 0 L26 0 Z " /><g transform="translate(640,0)" ><path fill="black" d="M-510 -221 L-510 -213 C-504.609 -180.654 -495.682 -98.544 -493 -61 L-386 -61 L-386 -68 C-396.667 -114.667 -417.667 -179.667 -439 -221 L-510 -221 Z " /></g></glyph>
<glyph glyph-name="uni0146" unicode="&#x146;" horiz-adv-x="437" >
<path fill="black" d="M33 0 L33 545 L128 545 L142 477 L146 477 C168.667 527.667 202.333 555 249 555 C330.333 555 378 493.333 378 356 L378 0 L263 0 L263 338 C263 418 247.333 452 214 452 C167.333 452 149 402.333 149 289 L149 0 L33 0 Z " /><g transform="translate(644,0)" ><path fill="black" d="M-510 -221 L-510 -213 C-504.609 -180.654 -495.682 -98.544 -493 -61 L-386 -61 L-386 -68 C-396.667 -114.667 -417.667 -179.667 -439 -221 L-510 -221 Z " /></g></glyph>
<glyph glyph-name="Ncaron" unicode="&#x147;" horiz-adv-x="437" >
<path fill="black" d="M26 0 L26 714 L181 714 L287 112 L292 112 C289.388 164.242 280 264.23 280 332 L280 714 L381 714 L381 0 L230 0 L119 608 L114 608 C118 524 126 453 126 377 L126 0 L26 0 Z " /><g transform="translate(5,169)" ><path fill="black" d="M76 766 L143 766 C160.333 744.667 181.333 713.667 204 679 C228 717.667 244 739.333 264 766 L330 766 L330 754 C309.042 714.704 271.912 648.431 256 606 L151 606 C137.535 646.395 100.213 713.645 76 754 L76 766 Z " /></g></glyph>
<glyph glyph-name="ncaron" unicode="&#x148;" horiz-adv-x="437" >
<path fill="black" d="M33 0 L33 545 L128 545 L142 477 L146 477 C168.667 527.667 202.333 555 249 555 C330.333 555 378 493.333 378 356 L378 0 L263 0 L263 338 C263 418 247.333 452 214 452 C167.333 452 149 402.333 149 289 L149 0 L33 0 Z " /><g transform="translate(10,0)" ><path fill="black" d="M76 766 L143 766 C160.333 744.667 181.333 713.667 204 679 C228 717.667 244 739.333 264 766 L330 766 L330 754 C309.042 714.704 271.912 648.431 256 606 L151 606 C137.535 646.395 100.213 713.645 76 754 L76 766 Z " /></g></glyph>
<glyph glyph-name="napostrophe" unicode="&#x149;" horiz-adv-x="437" d="M41 0 L41 545 L136 545 L150 473 L157 473 C177 527.667 208 555 256 555 C332 555 378 493.333 378 356 L378 0 L262 0 L262 326 C262 408.667 246.333 445 213 445 C171.667 445 157 387.333 157 266 L157 0 L41 0 Z M-87 452 C-76.2572 529.886 -61.3576 641.672 -56 714 L55 714 L60 703 C45.3333 611 26 524 2 452 L-87 452 Z " />
<glyph glyph-name="Eng" unicode="&#x14a;" horiz-adv-x="437" d="M170 -108 C184.667 -114.667 199.667 -118 215 -118 C261.667 -118 286.667 -81.3333 288 0 L230 0 L119 608 L114 608 C118 524 126 453 126 377 L126 0 L26 0 L26 714 L181 714 L287 112 L292 112 C289.388 164.242 280 264.23 280 332 L280 714 L381 714 L381 0 L380 0 C380 -133.333 333.333 -205 232 -205 C208 -205 187.333 -201.333 170 -194 L170 -108 Z " />
<glyph glyph-name="eng" unicode="&#x14b;" horiz-adv-x="437" d="M183 -130 C196.333 -136 208 -139 218 -139 C241.238 -139 175.198 -74.2616 250 70 L263 114 L263 338 C263 418 247.333 452 214 452 C167.333 452 149 402.333 149 289 L149 0 L33 0 L33 545 L128 545 L142 477 L146 477 C168.667 527.667 202.333 555 249 555 C330.333 555 378 493.333 378 356 L378 0 L375 0 L375 -67 C375 -167.338 332.593 -240 243 -240 C221 -240 201 -236.667 183 -230 L183 -130 Z " />
<glyph glyph-name="Omacron" unicode="&#x14c;" horiz-adv-x="437" >
<path fill="black" d="M203 -8 C70.6623 -8 14 138.563 14 360 C14 593.333 68.3333 726 203 726 C336.385 726 393 582 393 358 C393 136.719 336.385 -8 203 -8 Z M205 101 C259.667 101 275 198 275 358 C275 528.667 258.667 616 204 616 C148 616 131 521.667 131 359 C131 197.667 149 101 205 101 Z " /><g transform="translate(6,152)" ><path fill="black" d="M86 718 L307 718 L307 636 L86 636 L86 718 Z " /></g></glyph>
<glyph glyph-name="omacron" unicode="&#x14d;" horiz-adv-x="437" >
<path fill="black" d="M204 -10 C73.2294 -10 20 113.848 20 275 C20 440.333 78.3117 555 202 555 C312.667 555 386 454 386 274 C386 115.074 340.156 -10 204 -10 Z M203 96 C245.667 96 267 155.333 267 274 C267 390.667 245.667 449 203 449 C161 449 140 390.667 140 274 C140 155.333 161 96 203 96 Z " /><g transform="translate(6,-17)" ><path fill="black" d="M86 718 L307 718 L307 636 L86 636 L86 718 Z " /></g></glyph>
<glyph glyph-name="Obreve" unicode="&#x14e;" horiz-adv-x="437" >
<path fill="black" d="M203 -8 C70.6623 -8 14 138.563 14 360 C14 593.333 68.3333 726 203 726 C336.385 726 393 582 393 358 C393 136.719 336.385 -8 203 -8 Z M205 101 C259.667 101 275 198 275 358 C275 528.667 258.667 616 204 616 C148 616 131 521.667 131 359 C131 197.667 149 101 205 101 Z " /><g transform="translate(0,169)" ><path fill="black" d="M152 759 C154 711.667 171 688 203 688 C233.667 688 252.333 708.333 255 759 L321 759 C321 665.667 275 609 203 609 C135 609 86.3333 659 85 759 L152 759 Z " /></g></glyph>
<glyph glyph-name="obreve" unicode="&#x14f;" horiz-adv-x="437" >
<path fill="black" d="M204 -10 C73.2294 -10 20 113.848 20 275 C20 440.333 78.3117 555 202 555 C312.667 555 386 454 386 274 C386 115.074 340.156 -10 204 -10 Z M203 96 C245.667 96 267 155.333 267 274 C267 390.667 245.667 449 203 449 C161 449 140 390.667 140 274 C140 155.333 161 96 203 96 Z " /><path fill="black" d="M152 759 C154 711.667 171 688 203 688 C233.667 688 252.333 708.333 255 759 L321 759 C321 665.667 275 609 203 609 C135 609 86.3333 659 85 759 L152 759 Z " /></glyph>
<glyph glyph-name="Ohungarumlaut" unicode="&#x150;" horiz-adv-x="437" d="M203 -8 C70.6623 -8 14 138.563 14 360 C14 593.333 68.3333 726 203 726 C336.385 726 393 582 393 358 C393 136.719 336.385 -8 203 -8 Z M205 101 C259.667 101 275 198 275 358 C275 528.667 258.667 616 204 616 C148 616 131 521.667 131 359 C131 197.667 149 101 205 101 Z M99 775 L99 787 C125.561 842.778 148.595 906.985 157 935 L255 935 L255 926 C236.095 885.49 185.749 812.04 154 775 L99 775 Z M230 775 L230 787 C256.561 842.778 279.595 906.985 288 935 L386 935 L386 926 C367.095 885.49 316.749 812.04 285 775 L230 775 Z " />
<glyph glyph-name="ohungarumlaut" unicode="&#x151;" horiz-adv-x="437" d="M204 -10 C73.2294 -10 20 113.848 20 275 C20 440.333 78.3117 555 202 555 C312.667 555 386 454 386 274 C386 115.074 340.156 -10 204 -10 Z M203 96 C245.667 96 267 155.333 267 274 C267 390.667 245.667 449 203 449 C161 449 140 390.667 140 274 C140 155.333 161 96 203 96 Z M99 606 L99 618 C125.561 673.778 148.595 737.985 157 766 L255 766 L255 757 C236.095 716.49 185.749 643.04 154 606 L99 606 Z M230 606 L230 618 C256.561 673.778 279.595 737.985 288 766 L386 766 L386 757 C367.095 716.49 316.749 643.04 285 606 L230 606 Z " />
<glyph glyph-name="OE" unicode="&#x152;" horiz-adv-x="437" d="M391 111 L391 0 L222 0 C204.667 -6.66667 186.667 -10 168 -10 C46.9784 -10 14 133.281 14 360 C14 578.563 48.0043 724 161 724 C175.667 724 195 720.667 219 714 L391 714 L391 603 L305 603 L305 426 L377 426 L377 316 L305 316 L305 111 L391 111 Z M204 608 C196 618.667 187.333 619 178 619 C134 619 118 521.333 118 356 C118 189.333 131 98 175 98 C185.667 98 193.333 99 204 107 L204 608 Z " />
<glyph glyph-name="oe" unicode="&#x153;" horiz-adv-x="437" d="M391 26 C369.667 2 343.667 -10 313 -10 C275.667 -10 240.667 13 218 69 C194 13 167 -10 131 -10 C43 -10 12 90.6667 12 276 C12 449.281 37.2771 554 127 554 C164.333 554 195 530.667 215 472 C231.667 526.667 257.333 554 292 554 C374.589 554 399 445.433 399 287 L399 241 L264 241 C266.667 142.333 285.333 90 328 90 C350 90 371 101.667 391 125 L391 26 Z M135 92 C161.667 92 165 157.333 165 276 C165 394.667 160.333 453 135 453 C109.667 453 104 397.333 104 276 C104 156 109.667 92 135 92 Z M314 328 C314 417.333 303 453 287 453 C268.333 453 259 404 259 328 L314 328 Z " />
<glyph glyph-name="Racute" unicode="&#x154;" horiz-adv-x="437" >
<path fill="black" d="M41 0 L41 714 L182 714 C308 714 371 645 371 507 C371 407 347.333 344.667 294 310 L398 0 L274 0 L196 278 L152 278 L152 0 L41 0 Z M152 383 L179 383 C233 383 260 422 260 500 C260 576 236.333 610 179 610 L152 610 L152 383 Z " /><g transform="translate(14,169)" ><path fill="black" d="M133 606 L133 618 C159.667 671.333 180 720.667 196 766 L319 766 L319 757 C300.762 717.918 245.444 645.047 209 606 L133 606 Z " /></g></glyph>
<glyph glyph-name="racute" unicode="&#x155;" horiz-adv-x="437" >
<path fill="black" d="M22 88 L109 102 L109 441 L29 453 L29 545 L193 545 L204 452 L210 452 C227.333 512 262 555 322 555 C340.667 555 366 550.667 394 536 L364 414 C346.667 424.667 323.667 429 305 429 C249 429 219 366 219 274 L219 102 L321 88 L321 0 L22 0 L22 88 Z " /><g transform="translate(27,0)" ><path fill="black" d="M133 606 L133 618 C159.667 671.333 180 720.667 196 766 L319 766 L319 757 C300.762 717.918 245.444 645.047 209 606 L133 606 Z " /></g></glyph>
<glyph glyph-name="uni0156" unicode="&#x156;" horiz-adv-x="437" >
<path fill="black" d="M41 0 L41 714 L182 714 C308 714 371 645 371 507 C371 407 347.333 344.667 294 310 L398 0 L274 0 L196 278 L152 278 L152 0 L41 0 Z M152 383 L179 383 C233 383 260 422 260 500 C260 576 236.333 610 179 610 L152 610 L152 383 Z " /><g transform="translate(652,0)" ><path fill="black" d="M-510 -221 L-510 -213 C-504.609 -180.654 -495.682 -98.544 -493 -61 L-386 -61 L-386 -68 C-396.667 -114.667 -417.667 -179.667 -439 -221 L-510 -221 Z " /></g></glyph>
<glyph glyph-name="uni0157" unicode="&#x157;" horiz-adv-x="437" >
<path fill="black" d="M22 88 L109 102 L109 441 L29 453 L29 545 L193 545 L204 452 L210 452 C227.333 512 262 555 322 555 C340.667 555 366 550.667 394 536 L364 414 C346.667 424.667 323.667 429 305 429 C249 429 219 366 219 274 L219 102 L321 88 L321 0 L22 0 L22 88 Z " /><g transform="translate(606,0)" ><path fill="black" d="M-510 -221 L-510 -213 C-504.609 -180.654 -495.682 -98.544 -493 -61 L-386 -61 L-386 -68 C-396.667 -114.667 -417.667 -179.667 -439 -221 L-510 -221 Z " /></g></glyph>
<glyph glyph-name="Rcaron" unicode="&#x158;" horiz-adv-x="437" >
<path fill="black" d="M41 0 L41 714 L182 714 C308 714 371 645 371 507 C371 407 347.333 344.667 294 310 L398 0 L274 0 L196 278 L152 278 L152 0 L41 0 Z M152 383 L179 383 C233 383 260 422 260 500 C260 576 236.333 610 179 610 L152 610 L152 383 Z " /><g transform="translate(0,169)" ><path fill="black" d="M76 766 L143 766 C160.333 744.667 181.333 713.667 204 679 C228 717.667 244 739.333 264 766 L330 766 L330 754 C309.042 714.704 271.912 648.431 256 606 L151 606 C137.535 646.395 100.213 713.645 76 754 L76 766 Z " /></g></glyph>
<glyph glyph-name="rcaron" unicode="&#x159;" horiz-adv-x="437" >
<path fill="black" d="M22 88 L109 102 L109 441 L29 453 L29 545 L193 545 L204 452 L210 452 C227.333 512 262 555 322 555 C340.667 555 366 550.667 394 536 L364 414 C346.667 424.667 323.667 429 305 429 C249 429 219 366 219 274 L219 102 L321 88 L321 0 L22 0 L22 88 Z " /><g transform="translate(13,0)" ><path fill="black" d="M76 766 L143 766 C160.333 744.667 181.333 713.667 204 679 C228 717.667 244 739.333 264 766 L330 766 L330 754 C309.042 714.704 271.912 648.431 256 606 L151 606 C137.535 646.395 100.213 713.645 76 754 L76 766 Z " /></g></glyph>
<glyph glyph-name="Sacute" unicode="&#x15a;" horiz-adv-x="437" >
<path fill="black" d="M41 150 C83.6667 118 128 98 176 98 C239.844 98 254 142.104 254 190 C254 251.322 224.978 272.682 161 318 C89.339 371.082 38 421.019 38 531 C38 656.333 104.333 725 215 725 C267 725 314 710.667 362 680 L327 578 C287.667 604.667 252.333 618 221 618 C173 618 154 582.333 154 533 C154 477.817 180.066 455.239 235 416 C324.617 350.105 370 310.894 370 197 C370 55.6667 298.333 -10 181 -10 C131.667 -10 85 2 41 30 L41 150 Z " /><g transform="translate(22,169)" ><path fill="black" d="M133 606 L133 618 C159.667 671.333 180 720.667 196 766 L319 766 L319 757 C300.762 717.918 245.444 645.047 209 606 L133 606 Z " /></g></glyph>
<glyph glyph-name="sacute" unicode="&#x15b;" horiz-adv-x="437" >
<path fill="black" d="M51 135 C88.3333 111 143.333 94 190 94 C239.333 94 250 116.667 250 150 C250 184.651 232.022 196.321 160 239 C92 279 52 324.667 52 402 C52 500.667 109 555 221 555 C270.333 555 315.333 543.667 366 517 L329 420 C286.333 444 255.333 453 226 453 C187.333 453 171 433.333 171 404 C171 370.667 197 356 257 320 C334.221 272.07 366 243.947 366 156 C366 48 309.333 -10 184 -10 C132 -10 89.6667 1.66667 51 23 L51 135 Z " /><g transform="translate(24,0)" ><path fill="black" d="M133 606 L133 618 C159.667 671.333 180 720.667 196 766 L319 766 L319 757 C300.762 717.918 245.444 645.047 209 606 L133 606 Z " /></g></glyph>
<glyph glyph-name="Scircumflex" unicode="&#x15c;" horiz-adv-x="437" >
<path fill="black" d="M41 150 C83.6667 118 128 98 176 98 C239.844 98 254 142.104 254 190 C254 251.322 224.978 272.682 161 318 C89.339 371.082 38 421.019 38 531 C38 656.333 104.333 725 215 725 C267 725 314 710.667 362 680 L327 578 C287.667 604.667 252.333 618 221 618 C173 618 154 582.333 154 533 C154 477.817 180.066 455.239 235 416 C324.617 350.105 370 310.894 370 197 C370 55.6667 298.333 -10 181 -10 C131.667 -10 85 2 41 30 L41 150 Z " /><g transform="translate(8,169)" ><path fill="black" d="M76 606 L76 618 C102.445 660.312 137.655 725.966 151 766 L255 766 C273.667 722 299.333 664.667 330 618 L330 606 L264 606 C245.333 628.667 225.667 658.333 203 693 C179 658.333 159 626 143 606 L76 606 Z " /></g></glyph>
<glyph glyph-name="scircumflex" unicode="&#x15d;" horiz-adv-x="437" >
<path fill="black" d="M51 135 C88.3333 111 143.333 94 190 94 C239.333 94 250 116.667 250 150 C250 184.651 232.022 196.321 160 239 C92 279 52 324.667 52 402 C52 500.667 109 555 221 555 C270.333 555 315.333 543.667 366 517 L329 420 C286.333 444 255.333 453 226 453 C187.333 453 171 433.333 171 404 C171 370.667 197 356 257 320 C334.221 272.07 366 243.947 366 156 C366 48 309.333 -10 184 -10 C132 -10 89.6667 1.66667 51 23 L51 135 Z " /><g transform="translate(10,0)" ><path fill="black" d="M76 606 L76 618 C102.445 660.312 137.655 725.966 151 766 L255 766 C273.667 722 299.333 664.667 330 618 L330 606 L264 606 C245.333 628.667 225.667 658.333 203 693 C179 658.333 159 626 143 606 L76 606 Z " /></g></glyph>
<glyph glyph-name="Scedilla" unicode="&#x15e;" horiz-adv-x="437" d="M131 -165 C144.333 -169.667 156.667 -172 168 -172 C194.667 -172 207 -156.333 207 -131 C207 -100.333 185.333 -86.3333 152 -81 L176 -10 C129.333 -8.66667 83.6667 3.33333 41 30 L41 150 C83.6667 118 128 98 176 98 C239.844 98 254 142.104 254 190 C254 251.322 224.978 272.682 161 318 C89.339 371.082 38 421.019 38 531 C38 656.333 104.333 725 215 725 C267 725 314 710.667 362 680 L327 578 C287.667 604.667 252.333 618 221 618 C173 618 154 582.333 154 533 C154 477.817 180.066 455.239 235 416 C324.617 350.105 370 310.894 370 197 C370 79.6667 319 13.6667 235 -5 L224 -44 C268 -55.3333 290 -86.3333 290 -137 C290 -201 254 -240 186 -240 C167.333 -240 145.667 -238.333 131 -233 L131 -165 Z " />
<glyph glyph-name="scedilla" unicode="&#x15f;" horiz-adv-x="437" d="M141 -165 C154.333 -169.667 166.667 -172 178 -172 C204.667 -172 217 -156.333 217 -131 C217 -100.333 195.333 -86.3333 162 -81 L186 -10 L184 -10 C132 -10 89.6667 1.66667 51 23 L51 135 C88.3333 111 143.333 94 190 94 C239.333 94 250 116.667 250 150 C250 184.651 232.022 196.321 160 239 C92 279 52 324.667 52 402 C52 500.667 109 555 221 555 C270.333 555 315.333 543.667 366 517 L329 420 C286.333 444 255.333 453 226 453 C187.333 453 171 433.333 171 404 C171 370.667 197 356 257 320 C334.221 272.07 366 243.947 366 156 C366 68 327.667 13.3333 245 -4 L234 -44 C278 -55.3333 300 -86.3333 300 -137 C300 -201 264 -240 196 -240 C177.333 -240 155.667 -238.333 141 -233 L141 -165 Z " />
<glyph glyph-name="Scaron" unicode="&#x160;" horiz-adv-x="437" >
<path fill="black" d="M41 150 C83.6667 118 128 98 176 98 C239.844 98 254 142.104 254 190 C254 251.322 224.978 272.682 161 318 C89.339 371.082 38 421.019 38 531 C38 656.333 104.333 725 215 725 C267 725 314 710.667 362 680 L327 578 C287.667 604.667 252.333 618 221 618 C173 618 154 582.333 154 533 C154 477.817 180.066 455.239 235 416 C324.617 350.105 370 310.894 370 197 C370 55.6667 298.333 -10 181 -10 C131.667 -10 85 2 41 30 L41 150 Z " /><g transform="translate(8,169)" ><path fill="black" d="M76 766 L143 766 C160.333 744.667 181.333 713.667 204 679 C228 717.667 244 739.333 264 766 L330 766 L330 754 C309.042 714.704 271.912 648.431 256 606 L151 606 C137.535 646.395 100.213 713.645 76 754 L76 766 Z " /></g></glyph>
<glyph glyph-name="scaron" unicode="&#x161;" horiz-adv-x="437" >
<path fill="black" d="M51 135 C88.3333 111 143.333 94 190 94 C239.333 94 250 116.667 250 150 C250 184.651 232.022 196.321 160 239 C92 279 52 324.667 52 402 C52 500.667 109 555 221 555 C270.333 555 315.333 543.667 366 517 L329 420 C286.333 444 255.333 453 226 453 C187.333 453 171 433.333 171 404 C171 370.667 197 356 257 320 C334.221 272.07 366 243.947 366 156 C366 48 309.333 -10 184 -10 C132 -10 89.6667 1.66667 51 23 L51 135 Z " /><g transform="translate(10,0)" ><path fill="black" d="M76 766 L143 766 C160.333 744.667 181.333 713.667 204 679 C228 717.667 244 739.333 264 766 L330 766 L330 754 C309.042 714.704 271.912 648.431 256 606 L151 606 C137.535 646.395 100.213 713.645 76 754 L76 766 Z " /></g></glyph>
<glyph glyph-name="uni0162" unicode="&#x162;" horiz-adv-x="437" d="M131 -165 C144.333 -169.667 156.667 -172 168 -172 C194.667 -172 207 -156.333 207 -131 C207 -100.333 185.333 -86.3333 152 -81 L179 0 L146 0 L146 604 L17 604 L17 714 L390 714 L390 604 L261 604 L261 0 L236 0 L224 -44 C268 -55.3333 290 -86.3333 290 -137 C290 -201 254 -240 186 -240 C167.333 -240 145.667 -238.333 131 -233 L131 -165 Z " />
<glyph glyph-name="uni0163" unicode="&#x163;" horiz-adv-x="437" d="M179 -165 C192.333 -169.667 204.667 -172 216 -172 C242.667 -172 255 -156.333 255 -131 C255 -100.333 233.333 -86.3333 200 -81 L225 -6 C159.667 8.66667 115 62 115 170 L115 440 L15 440 L15 503 L123 546 L159 680 L232 680 L232 545 L385 545 L385 440 L230 440 L230 192 C230 119.922 262.411 99 297 99 C318.333 99 349 102.667 385 116 L385 12 C355.667 0 317 -6.33333 281 -9 L272 -44 C316 -55.3333 338 -86.3333 338 -137 C338 -201 302 -240 234 -240 C215.333 -240 193.667 -238.333 179 -233 L179 -165 Z " />
<glyph glyph-name="Tcaron" unicode="&#x164;" horiz-adv-x="437" >
<path fill="black" d="M146 0 L146 604 L17 604 L17 714 L390 714 L390 604 L261 604 L261 0 L146 0 Z " /><g transform="translate(0,169)" ><path fill="black" d="M76 766 L143 766 C160.333 744.667 181.333 713.667 204 679 C228 717.667 244 739.333 264 766 L330 766 L330 754 C309.042 714.704 271.912 648.431 256 606 L151 606 C137.535 646.395 100.213 713.645 76 754 L76 766 Z " /></g></glyph>
<glyph glyph-name="tcaron" unicode="&#x165;" horiz-adv-x="437" >
<g transform="translate(2,0)" ><path fill="black" d="M115 440 L15 440 L15 503 L123 546 L159 680 L232 680 L232 545 L385 545 L385 440 L230 440 L230 192 C230 119.922 262.411 99 297 99 C318.333 99 349 102.667 385 116 L385 12 C350.333 -2.66667 301.667 -10 263 -10 C177.771 -10 115 42.1039 115 170 L115 440 Z " /></g><g transform="translate(836,821)" ><path fill="black" d="M-510 -221 L-510 -213 C-504.609 -180.654 -495.682 -98.544 -493 -61 L-386 -61 L-386 -68 C-396.667 -114.667 -417.667 -179.667 -439 -221 L-510 -221 Z " /></g></glyph>
<glyph glyph-name="Tbar" unicode="&#x166;" horiz-adv-x="437" d="M146 308 L73 308 L73 401 L146 401 L146 604 L17 604 L17 714 L390 714 L390 604 L261 604 L261 401 L335 401 L335 308 L261 308 L261 0 L146 0 L146 308 Z " />
<glyph glyph-name="tbar" unicode="&#x167;" horiz-adv-x="437" d="M115 252 L15 252 L15 336 L115 336 L115 440 L15 440 L15 503 L123 546 L159 680 L232 680 L232 545 L385 545 L385 440 L230 440 L230 336 L386 336 L386 252 L230 252 L230 192 C230 119.922 262.411 99 297 99 C318.333 99 349 102.667 385 116 L385 12 C350.333 -2.66667 301.667 -10 263 -10 C177.771 -10 115 42.1039 115 170 L115 252 Z " />
<glyph glyph-name="Utilde" unicode="&#x168;" horiz-adv-x="437" >
<path fill="black" d="M25 714 L141 714 L141 260 C141 145.333 152.333 100 203 100 C257.667 100 266 148.667 266 262 L266 714 L383 714 L383 253 C383 74.3333 334.667 -10 204 -10 C74.6667 -10 25 73.6667 25 251 L25 714 Z " /><g transform="translate(0,169)" ><path fill="black" d="M73 611 C75.7142 673.426 85.9419 750 143 750 C186.111 750 218.556 696 251 696 C267 696 270.667 715 276 751 L334 751 C331.333 656.333 303 611 263 611 C219.124 611 181.68 665 156 665 C142 665 133.667 647 131 611 L73 611 Z " /></g></glyph>
<glyph glyph-name="utilde" unicode="&#x169;" horiz-adv-x="437" >
<path fill="black" d="M29 545 L145 545 L145 217 C145 133 158.667 97 200 97 C245.333 97 258 149.333 258 268 L258 545 L374 545 L374 0 L279 0 L264 72 L258 72 C236 17.3333 201.667 -10 155 -10 C76.3333 -10 29 50.6667 29 184 L29 545 Z " /><g transform="translate(-1,0)" ><path fill="black" d="M73 611 C75.7142 673.426 85.9419 750 143 750 C186.111 750 218.556 696 251 696 C267 696 270.667 715 276 751 L334 751 C331.333 656.333 303 611 263 611 C219.124 611 181.68 665 156 665 C142 665 133.667 647 131 611 L73 611 Z " /></g></glyph>
<glyph glyph-name="Umacron" unicode="&#x16a;" horiz-adv-x="437" >
<path fill="black" d="M25 714 L141 714 L141 260 C141 145.333 152.333 100 203 100 C257.667 100 266 148.667 266 262 L266 714 L383 714 L383 253 C383 74.3333 334.667 -10 204 -10 C74.6667 -10 25 73.6667 25 251 L25 714 Z " /><g transform="translate(7,152)" ><path fill="black" d="M86 718 L307 718 L307 636 L86 636 L86 718 Z " /></g></glyph>
<glyph glyph-name="umacron" unicode="&#x16b;" horiz-adv-x="437" >
<path fill="black" d="M29 545 L145 545 L145 217 C145 133 158.667 97 200 97 C245.333 97 258 149.333 258 268 L258 545 L374 545 L374 0 L279 0 L264 72 L258 72 C236 17.3333 201.667 -10 155 -10 C76.3333 -10 29 50.6667 29 184 L29 545 Z " /><g transform="translate(6,-17)" ><path fill="black" d="M86 718 L307 718 L307 636 L86 636 L86 718 Z " /></g></glyph>
<glyph glyph-name="Ubreve" unicode="&#x16c;" horiz-adv-x="437" >
<path fill="black" d="M25 714 L141 714 L141 260 C141 145.333 152.333 100 203 100 C257.667 100 266 148.667 266 262 L266 714 L383 714 L383 253 C383 74.3333 334.667 -10 204 -10 C74.6667 -10 25 73.6667 25 251 L25 714 Z " /><g transform="translate(1,169)" ><path fill="black" d="M152 759 C154 711.667 171 688 203 688 C233.667 688 252.333 708.333 255 759 L321 759 C321 665.667 275 609 203 609 C135 609 86.3333 659 85 759 L152 759 Z " /></g></glyph>
<glyph glyph-name="ubreve" unicode="&#x16d;" horiz-adv-x="437" >
<path fill="black" d="M29 545 L145 545 L145 217 C145 133 158.667 97 200 97 C245.333 97 258 149.333 258 268 L258 545 L374 545 L374 0 L279 0 L264 72 L258 72 C236 17.3333 201.667 -10 155 -10 C76.3333 -10 29 50.6667 29 184 L29 545 Z " /><path fill="black" d="M152 759 C154 711.667 171 688 203 688 C233.667 688 252.333 708.333 255 759 L321 759 C321 665.667 275 609 203 609 C135 609 86.3333 659 85 759 L152 759 Z " /></glyph>
<glyph glyph-name="Uring" unicode="&#x16e;" horiz-adv-x="437" >
<path fill="black" d="M25 714 L141 714 L141 260 C141 145.333 152.333 100 203 100 C257.667 100 266 148.667 266 262 L266 714 L383 714 L383 253 C383 74.3333 334.667 -10 204 -10 C74.6667 -10 25 73.6667 25 251 L25 714 Z " /><g transform="translate(2,169)" ><path fill="black" d="M204 601 C140 601 101 648.667 101 718 C101 786 140 832 204 832 C264 832 303 786 303 718 C303 650 265.333 601 204 601 Z M203 666 C225.667 666 241 687.333 241 718 C241 747.333 225.667 768 203 768 C180.333 768 164 748.667 164 718 C164 687.333 179 666 203 666 Z " /></g></glyph>
<glyph glyph-name="uring" unicode="&#x16f;" horiz-adv-x="437" >
<path fill="black" d="M29 545 L145 545 L145 217 C145 133 158.667 97 200 97 C245.333 97 258 149.333 258 268 L258 545 L374 545 L374 0 L279 0 L264 72 L258 72 C236 17.3333 201.667 -10 155 -10 C76.3333 -10 29 50.6667 29 184 L29 545 Z " /><g transform="translate(1,0)" ><path fill="black" d="M204 601 C140 601 101 648.667 101 718 C101 786 140 832 204 832 C264 832 303 786 303 718 C303 650 265.333 601 204 601 Z M203 666 C225.667 666 241 687.333 241 718 C241 747.333 225.667 768 203 768 C180.333 768 164 748.667 164 718 C164 687.333 179 666 203 666 Z " /></g></glyph>
<glyph glyph-name="Uhungarumlaut" unicode="&#x170;" horiz-adv-x="437" d="M25 714 L141 714 L141 260 C141 145.333 152.333 100 203 100 C257.667 100 266 148.667 266 262 L266 714 L383 714 L383 253 C383 74.3333 334.667 -10 204 -10 C74.6667 -10 25 73.6667 25 251 L25 714 Z M100 775 L100 787 C126.561 842.778 149.595 906.985 158 935 L256 935 L256 926 C237.095 885.49 186.749 812.04 155 775 L100 775 Z M231 775 L231 787 C257.561 842.778 280.595 906.985 289 935 L387 935 L387 926 C368.095 885.49 317.749 812.04 286 775 L231 775 Z " />
<glyph glyph-name="uhungarumlaut" unicode="&#x171;" horiz-adv-x="437" d="M29 545 L145 545 L145 217 C145 133 158.667 97 200 97 C245.333 97 258 149.333 258 268 L258 545 L374 545 L374 0 L279 0 L264 72 L258 72 C236 17.3333 201.667 -10 155 -10 C76.3333 -10 29 50.6667 29 184 L29 545 Z M99 606 L99 618 C125.561 673.778 148.595 737.985 157 766 L255 766 L255 757 C236.095 716.49 185.749 643.04 154 606 L99 606 Z M230 606 L230 618 C256.561 673.778 279.595 737.985 288 766 L386 766 L386 757 C367.095 716.49 316.749 643.04 285 606 L230 606 Z " />
<glyph glyph-name="Uogonek" unicode="&#x172;" horiz-adv-x="437" d="M280 -221 C268 -227.667 250.667 -232 228 -232 C165.333 -232 135 -195.333 135 -134 C135 -85.3333 152.333 -43.6667 187 -9 C69.6667 -2.33333 25 80.3333 25 251 L25 714 L141 714 L141 260 C141 145.333 152.333 100 203 100 C257.667 100 266 148.667 266 262 L266 714 L383 714 L383 253 C383 117 355.667 37 285 5 C242.333 -33.6667 218 -67.3333 218 -110 C218 -136.667 228.667 -156 254 -156 C264.667 -156 273.333 -152 280 -148 L280 -221 Z " />
<glyph glyph-name="uogonek" unicode="&#x173;" horiz-adv-x="437" d="M266 72 L260 72 C238 17.3333 203.667 -10 157 -10 C78.3333 -10 31 50.6667 31 184 L31 545 L147 545 L147 217 C147 133 160.667 97 202 97 C247.333 97 260 149.333 260 268 L260 545 L376 545 L376 0 L370 0 C335.333 -45.3333 329 -75.6667 329 -109 C329 -138.333 340.333 -156 363 -156 C376.333 -156 383.333 -152 390 -148 L390 -221 C379.333 -227.667 361.667 -232 339 -232 C275 -232 246 -196.667 246 -134 C246 -87.3333 263 -40 299 0 L281 0 L266 72 Z " />
<glyph glyph-name="Wcircumflex" unicode="&#x174;" horiz-adv-x="437" >
<path fill="black" d="M122 111 C127.387 164.874 137.298 272.955 140 327 L156 545 L251 545 L269 326 C274.428 260.869 285.332 164.37 288 111 L292 111 C292 198.013 298 352.791 298 410 C300.667 511.333 302.667 611.333 304 714 L400 714 L370 0 L235 0 L217 256 C213 312 208.667 372.333 206 411 L202 411 C199.333 372.333 196 312 192 256 L174 0 L38 0 L7 714 L100 714 L109 409 C111.631 351.124 115.324 196.64 118 111 L122 111 Z " /><g transform="translate(0,169)" ><path fill="black" d="M76 606 L76 618 C102.445 660.312 137.655 725.966 151 766 L255 766 C273.667 722 299.333 664.667 330 618 L330 606 L264 606 C245.333 628.667 225.667 658.333 203 693 C179 658.333 159 626 143 606 L76 606 Z " /></g></glyph>
<glyph glyph-name="wcircumflex" unicode="&#x175;" horiz-adv-x="437" >
<path fill="black" d="M51 0 L4 544 L102 544 L109 278 L112 127 L115 127 C117.667 159 121.333 217.333 128 256 L157 462 L248 462 L275 256 C281.667 216 286 160.333 290 127 L293 127 C293 164.556 296 228.778 296 277 L304 544 L401 544 L353 0 L233 0 L216 176 C210.667 226.667 205.667 283.333 203 330 L200 330 C197.333 283.333 190.333 226.667 185 176 L167 0 L51 0 Z " /><g transform="translate(1,-1)" ><path fill="black" d="M76 606 L76 618 C102.445 660.312 137.655 725.966 151 766 L255 766 C273.667 722 299.333 664.667 330 618 L330 606 L264 606 C245.333 628.667 225.667 658.333 203 693 C179 658.333 159 626 143 606 L76 606 Z " /></g></glyph>
<glyph glyph-name="Ycircumflex" unicode="&#x176;" horiz-adv-x="437" >
<path fill="black" d="M146 0 L146 275 L7 714 L133 714 L203 399 L273 714 L398 714 L257 275 L257 0 L146 0 Z " /><g transform="translate(0,169)" ><path fill="black" d="M76 606 L76 618 C102.445 660.312 137.655 725.966 151 766 L255 766 C273.667 722 299.333 664.667 330 618 L330 606 L264 606 C245.333 628.667 225.667 658.333 203 693 C179 658.333 159 626 143 606 L76 606 Z " /></g></glyph>
<glyph glyph-name="ycircumflex" unicode="&#x177;" horiz-adv-x="437" >
<path fill="black" d="M23 -137 C33.6667 -139.667 48 -143 60 -143 C94.7601 -143 133.347 -128.271 152 -43 L160 -2 L8 545 L134 545 L189 265 C199.667 218.333 203.667 182 209 150 L212 150 C214.667 180.667 222.333 222.333 229 265 L274 545 L400 545 L259 -55 C228.333 -185.667 170 -245 78 -245 C59.3333 -245 41 -242.333 23 -237 L23 -137 Z " /><g transform="translate(1,0)" ><path fill="black" d="M76 606 L76 618 C102.445 660.312 137.655 725.966 151 766 L255 766 C273.667 722 299.333 664.667 330 618 L330 606 L264 606 C245.333 628.667 225.667 658.333 203 693 C179 658.333 159 626 143 606 L76 606 Z " /></g></glyph>
<glyph glyph-name="Ydieresis" unicode="&#x178;" horiz-adv-x="437" >
<g transform="translate(0,156)" ><path fill="black" d="M126 620 C95.3333 620 75 642.333 75 685 C75 727.667 95.3333 749 126 749 C156.667 749 178 726.333 178 685 C178 642.333 156.667 620 126 620 Z M279 620 C248.333 620 228 642.333 228 685 C228 727.667 248.333 749 279 749 C309.667 749 331 726.333 331 685 C331 642.333 309.667 620 279 620 Z " /></g><path fill="black" d="M146 0 L146 275 L7 714 L133 714 L203 399 L273 714 L398 714 L257 275 L257 0 L146 0 Z " /></glyph>
<glyph glyph-name="Zacute" unicode="&#x179;" horiz-adv-x="437" >
<path fill="black" d="M40 92 L246 604 L44 604 L44 714 L371 714 L371 623 L172 110 L372 110 L372 0 L40 0 L40 92 Z " /><g transform="translate(19,169)" ><path fill="black" d="M133 606 L133 618 C159.667 671.333 180 720.667 196 766 L319 766 L319 757 C300.762 717.918 245.444 645.047 209 606 L133 606 Z " /></g></glyph>
<glyph glyph-name="zacute" unicode="&#x17a;" horiz-adv-x="437" >
<path fill="black" d="M40 80 L224 441 L46 441 L46 545 L358 545 L358 453 L181 105 L368 105 L368 0 L40 0 L40 80 Z " /><g transform="translate(13,0)" ><path fill="black" d="M133 606 L133 618 C159.667 671.333 180 720.667 196 766 L319 766 L319 757 C300.762 717.918 245.444 645.047 209 606 L133 606 Z " /></g></glyph>
<glyph glyph-name="Zdotaccent" unicode="&#x17b;" horiz-adv-x="437" >
<path fill="black" d="M40 92 L246 604 L44 604 L44 714 L371 714 L371 623 L172 110 L372 110 L372 0 L40 0 L40 92 Z " /><g transform="translate(3,802)" ><path fill="black" d="M204 -12 C164 -12 138 14.3333 138 65 C138 115.667 161.333 141 204 141 C244 141 269 115.667 269 65 C269 14.3333 242.667 -12 204 -12 Z " /></g></glyph>
<glyph glyph-name="zdotaccent" unicode="&#x17c;" horiz-adv-x="437" >
<path fill="black" d="M40 80 L224 441 L46 441 L46 545 L358 545 L358 453 L181 105 L368 105 L368 0 L40 0 L40 80 Z " /><g transform="translate(-3,633)" ><path fill="black" d="M204 -12 C164 -12 138 14.3333 138 65 C138 115.667 161.333 141 204 141 C244 141 269 115.667 269 65 C269 14.3333 242.667 -12 204 -12 Z " /></g></glyph>
<glyph glyph-name="Zcaron" unicode="&#x17d;" horiz-adv-x="437" >
<path fill="black" d="M40 92 L246 604 L44 604 L44 714 L371 714 L371 623 L172 110 L372 110 L372 0 L40 0 L40 92 Z " /><g transform="translate(5,169)" ><path fill="black" d="M76 766 L143 766 C160.333 744.667 181.333 713.667 204 679 C228 717.667 244 739.333 264 766 L330 766 L330 754 C309.042 714.704 271.912 648.431 256 606 L151 606 C137.535 646.395 100.213 713.645 76 754 L76 766 Z " /></g></glyph>
<glyph glyph-name="zcaron" unicode="&#x17e;" horiz-adv-x="437" >
<path fill="black" d="M40 80 L224 441 L46 441 L46 545 L358 545 L358 453 L181 105 L368 105 L368 0 L40 0 L40 80 Z " /><g transform="translate(-1,0)" ><path fill="black" d="M76 766 L143 766 C160.333 744.667 181.333 713.667 204 679 C228 717.667 244 739.333 264 766 L330 766 L330 754 C309.042 714.704 271.912 648.431 256 606 L151 606 C137.535 646.395 100.213 713.645 76 754 L76 766 Z " /></g></glyph>
<glyph glyph-name="longs" unicode="&#x17f;" horiz-adv-x="437" d="M128 0 L128 568 C128 706.667 171 765 275 765 C301.667 765 328.333 760.667 363 746 L340 654 C324 660.667 308.333 665 291 665 C261.667 665 244 642 244 558 L244 0 L128 0 Z " />
<glyph glyph-name="florin" unicode="&#x192;" horiz-adv-x="437" d="M45 -133 C60.3333 -139.667 75 -143 89 -143 C129 -143 144 -117.667 144 -59 L144 391 L59 391 L59 453 L144 487 L144 531 C144 665.667 185.333 724 280 724 C313.333 724 336.333 718.333 371 701 L347 615 C331 623 319 627 303 627 C268.333 627 253 601 253 537 L253 486 L348 486 L348 391 L253 391 L253 -44 C253 -177.333 214.667 -240 112 -240 C84 -240 63.6667 -235.667 45 -229 L45 -133 Z " />
<glyph glyph-name="uni0218" unicode="&#x218;" horiz-adv-x="437" >
<path fill="black" d="M41 150 C83.6667 118 128 98 176 98 C239.844 98 254 142.104 254 190 C254 251.322 224.978 272.682 161 318 C89.339 371.082 38 421.019 38 531 C38 656.333 104.333 725 215 725 C267 725 314 710.667 362 680 L327 578 C287.667 604.667 252.333 618 221 618 C173 618 154 582.333 154 533 C154 477.817 180.066 455.239 235 416 C324.617 350.105 370 310.894 370 197 C370 55.6667 298.333 -10 181 -10 C131.667 -10 85 2 41 30 L41 150 Z " /><g transform="translate(640,0)" ><path fill="black" d="M-510 -221 L-510 -213 C-504.609 -180.654 -495.682 -98.544 -493 -61 L-386 -61 L-386 -68 C-396.667 -114.667 -417.667 -179.667 -439 -221 L-510 -221 Z " /></g></glyph>
<glyph glyph-name="uni0219" unicode="&#x219;" horiz-adv-x="437" >
<path fill="black" d="M51 135 C88.3333 111 143.333 94 190 94 C239.333 94 250 116.667 250 150 C250 184.651 232.022 196.321 160 239 C92 279 52 324.667 52 402 C52 500.667 109 555 221 555 C270.333 555 315.333 543.667 366 517 L329 420 C286.333 444 255.333 453 226 453 C187.333 453 171 433.333 171 404 C171 370.667 197 356 257 320 C334.221 272.07 366 243.947 366 156 C366 48 309.333 -10 184 -10 C132 -10 89.6667 1.66667 51 23 L51 135 Z " /><g transform="translate(650,0)" ><path fill="black" d="M-510 -221 L-510 -213 C-504.609 -180.654 -495.682 -98.544 -493 -61 L-386 -61 L-386 -68 C-396.667 -114.667 -417.667 -179.667 -439 -221 L-510 -221 Z " /></g></glyph>
<glyph glyph-name="uni021A" unicode="&#x21a;" horiz-adv-x="437" >
<path fill="black" d="M146 0 L146 604 L17 604 L17 714 L390 714 L390 604 L261 604 L261 0 L146 0 Z " /><g transform="translate(640,0)" ><path fill="black" d="M-510 -221 L-510 -213 C-504.609 -180.654 -495.682 -98.544 -493 -61 L-386 -61 L-386 -68 C-396.667 -114.667 -417.667 -179.667 -439 -221 L-510 -221 Z " /></g></glyph>
<glyph glyph-name="uni021B" unicode="&#x21b;" horiz-adv-x="437" >
<path fill="black" d="M115 440 L15 440 L15 503 L123 546 L159 680 L232 680 L232 545 L385 545 L385 440 L230 440 L230 192 C230 119.922 262.411 99 297 99 C318.333 99 349 102.667 385 116 L385 12 C350.333 -2.66667 301.667 -10 263 -10 C177.771 -10 115 42.1039 115 170 L115 440 Z " /><g transform="translate(688,0)" ><path fill="black" d="M-510 -221 L-510 -213 C-504.609 -180.654 -495.682 -98.544 -493 -61 L-386 -61 L-386 -68 C-396.667 -114.667 -417.667 -179.667 -439 -221 L-510 -221 Z " /></g></glyph>
<glyph glyph-name="uni0237" unicode="&#x237;" horiz-adv-x="407" d="M26 -120 C59.3333 -130.667 104 -139 124 -139 C170.667 -139 185 -108 185 -36 L185 440 L62 452 L62 545 L300 545 L300 -52 C300 -184 256 -245 140 -245 C108 -245 60.6667 -238.333 26 -225 L26 -120 Z " />
<glyph glyph-name="circumflex" unicode="&#x2c6;" horiz-adv-x="437" d="M76 606 L76 618 C102.445 660.312 137.655 725.966 151 766 L255 766 C273.667 722 299.333 664.667 330 618 L330 606 L264 606 C245.333 628.667 225.667 658.333 203 693 C179 658.333 159 626 143 606 L76 606 Z " />
<glyph glyph-name="caron" unicode="&#x2c7;" horiz-adv-x="437" d="M76 766 L143 766 C160.333 744.667 181.333 713.667 204 679 C228 717.667 244 739.333 264 766 L330 766 L330 754 C309.042 714.704 271.912 648.431 256 606 L151 606 C137.535 646.395 100.213 713.645 76 754 L76 766 Z " />
<glyph glyph-name="uni02C9" unicode="&#x2c9;" horiz-adv-x="437" >
<g transform="translate(6,-17)" ><path fill="black" d="M86 718 L307 718 L307 636 L86 636 L86 718 Z " /></g></glyph>
<glyph glyph-name="breve" unicode="&#x2d8;" horiz-adv-x="437" d="M152 759 C154 711.667 171 688 203 688 C233.667 688 252.333 708.333 255 759 L321 759 C321 665.667 275 609 203 609 C135 609 86.3333 659 85 759 L152 759 Z " />
<glyph glyph-name="dotaccent" unicode="&#x2d9;" horiz-adv-x="437" >
<g transform="translate(-2,633)" ><path fill="black" d="M204 -12 C164 -12 138 14.3333 138 65 C138 115.667 161.333 141 204 141 C244 141 269 115.667 269 65 C269 14.3333 242.667 -12 204 -12 Z " /></g></glyph>
<glyph glyph-name="ring" unicode="&#x2da;" horiz-adv-x="437" d="M204 601 C140 601 101 648.667 101 718 C101 786 140 832 204 832 C264 832 303 786 303 718 C303 650 265.333 601 204 601 Z M203 666 C225.667 666 241 687.333 241 718 C241 747.333 225.667 768 203 768 C180.333 768 164 748.667 164 718 C164 687.333 179 666 203 666 Z " />
<glyph glyph-name="ogonek" unicode="&#x2db;" horiz-adv-x="437" d="M275 -221 C264.333 -227.667 246.667 -232 224 -232 C160 -232 131 -196.667 131 -134 C131 -82 151.333 -28.6667 198 14 L255 0 C220.333 -45.3333 214 -75.6667 214 -109 C214 -138.333 225.333 -156 248 -156 C261.333 -156 268.333 -152 275 -148 L275 -221 Z " />
<glyph glyph-name="tilde" unicode="&#x2dc;" horiz-adv-x="437" d="M73 611 C75.7142 673.426 85.9419 750 143 750 C186.111 750 218.556 696 251 696 C267 696 270.667 715 276 751 L334 751 C331.333 656.333 303 611 263 611 C219.124 611 181.68 665 156 665 C142 665 133.667 647 131 611 L73 611 Z " />
<glyph glyph-name="hungarumlaut" unicode="&#x2dd;" horiz-adv-x="437" d="M77 606 L77 618 C103.561 673.778 126.595 737.985 135 766 L233 766 L233 757 C214.095 716.49 163.749 643.04 132 606 L77 606 Z M208 606 L208 618 C234.561 673.778 257.595 737.985 266 766 L364 766 L364 757 C345.095 716.49 294.749 643.04 263 606 L208 606 Z " />
<glyph glyph-name="uni0394" unicode="&#x394;" horiz-adv-x="437" d="M10 74 L132 714 L275 714 L397 71 L397 0 L10 0 L10 74 Z M274 102 L217 495 C213 529.667 207 571 203 607 C200.333 569.667 194.333 528.333 189 495 L133 103 L274 102 Z " />
<glyph glyph-name="uni03A9" unicode="&#x3a9;" horiz-adv-x="437" d="M8 104 L98 104 C55.3333 158.667 15 253 15 409 C15 615.667 83 725 203 725 C320.333 725 391 618 391 406 C391 255.333 359.333 161.333 306 104 L399 104 L399 0 L224 0 L224 109 C264 167.667 282 252.667 282 390 C282 542 260 622 204 622 C149.333 622 126 544.667 126 390 C126 254 143.333 165 182 109 L182 0 L8 0 L8 104 Z " />
<glyph glyph-name="uni03BC" unicode="&#x3bc;" horiz-adv-x="437" >
<path fill="black" d="M29 227 L31 227 L31 545 L147 545 L147 217 C147 133 160.667 97 202 97 C247.333 97 260 149.333 260 268 L260 545 L376 545 L376 0 L281 0 L266 72 L260 72 C238 17.3333 203.667 -10 157 -10 C150.333 -10 145.333 -9.66667 142 -9 L142 -240 L29 -240 L29 227 Z " /></glyph>
<glyph glyph-name="pi" unicode="&#x3c0;" horiz-adv-x="437" d="M64 445 L6 445 L6 500 L58 544 L398 544 L398 445 L337 445 L337 155 C337 112.333 343.333 95 362 95 C373.333 95 383 99 391 107 L391 14 C376.333 0.666667 353.333 -9 320 -9 C257.333 -9 234 41 234 141 L234 445 L166 445 L166 0 L64 0 L64 445 Z " />
<glyph glyph-name="Wgrave" unicode="&#x1e80;" horiz-adv-x="437" >
<path fill="black" d="M122 111 C127.387 164.874 137.298 272.955 140 327 L156 545 L251 545 L269 326 C274.428 260.869 285.332 164.37 288 111 L292 111 C292 198.013 298 352.791 298 410 C300.667 511.333 302.667 611.333 304 714 L400 714 L370 0 L235 0 L217 256 C213 312 208.667 372.333 206 411 L202 411 C199.333 372.333 196 312 192 256 L174 0 L38 0 L7 714 L100 714 L109 409 C111.631 351.124 115.324 196.64 118 111 L122 111 Z " /><g transform="translate(-7,169)" ><path fill="black" d="M84 766 L208 766 C221.539 722.674 254.974 652.723 271 618 L271 606 L195 606 C167.381 639.143 104.878 717.853 84 757 L84 766 Z " /></g></glyph>
<glyph glyph-name="wgrave" unicode="&#x1e81;" horiz-adv-x="437" >
<path fill="black" d="M51 0 L4 544 L102 544 L109 278 L112 127 L115 127 C117.667 159 121.333 217.333 128 256 L157 462 L248 462 L275 256 C281.667 216 286 160.333 290 127 L293 127 C293 164.556 296 228.778 296 277 L304 544 L401 544 L353 0 L233 0 L216 176 C210.667 226.667 205.667 283.333 203 330 L200 330 C197.333 283.333 190.333 226.667 185 176 L167 0 L51 0 Z " /><g transform="translate(-6,-1)" ><path fill="black" d="M84 766 L208 766 C221.539 722.674 254.974 652.723 271 618 L271 606 L195 606 C167.381 639.143 104.878 717.853 84 757 L84 766 Z " /></g></glyph>
<glyph glyph-name="Wacute" unicode="&#x1e82;" horiz-adv-x="437" >
<path fill="black" d="M122 111 C127.387 164.874 137.298 272.955 140 327 L156 545 L251 545 L269 326 C274.428 260.869 285.332 164.37 288 111 L292 111 C292 198.013 298 352.791 298 410 C300.667 511.333 302.667 611.333 304 714 L400 714 L370 0 L235 0 L217 256 C213 312 208.667 372.333 206 411 L202 411 C199.333 372.333 196 312 192 256 L174 0 L38 0 L7 714 L100 714 L109 409 C111.631 351.124 115.324 196.64 118 111 L122 111 Z " /><g transform="translate(14,169)" ><path fill="black" d="M133 606 L133 618 C159.667 671.333 180 720.667 196 766 L319 766 L319 757 C300.762 717.918 245.444 645.047 209 606 L133 606 Z " /></g></glyph>
<glyph glyph-name="wacute" unicode="&#x1e83;" horiz-adv-x="437" >
<path fill="black" d="M51 0 L4 544 L102 544 L109 278 L112 127 L115 127 C117.667 159 121.333 217.333 128 256 L157 462 L248 462 L275 256 C281.667 216 286 160.333 290 127 L293 127 C293 164.556 296 228.778 296 277 L304 544 L401 544 L353 0 L233 0 L216 176 C210.667 226.667 205.667 283.333 203 330 L200 330 C197.333 283.333 190.333 226.667 185 176 L167 0 L51 0 Z " /><g transform="translate(15,-1)" ><path fill="black" d="M133 606 L133 618 C159.667 671.333 180 720.667 196 766 L319 766 L319 757 C300.762 717.918 245.444 645.047 209 606 L133 606 Z " /></g></glyph>
<glyph glyph-name="Wdieresis" unicode="&#x1e84;" horiz-adv-x="437" >
<g transform="translate(0,156)" ><path fill="black" d="M126 620 C95.3333 620 75 642.333 75 685 C75 727.667 95.3333 749 126 749 C156.667 749 178 726.333 178 685 C178 642.333 156.667 620 126 620 Z M279 620 C248.333 620 228 642.333 228 685 C228 727.667 248.333 749 279 749 C309.667 749 331 726.333 331 685 C331 642.333 309.667 620 279 620 Z " /></g><path fill="black" d="M122 111 C127.387 164.874 137.298 272.955 140 327 L156 545 L251 545 L269 326 C274.428 260.869 285.332 164.37 288 111 L292 111 C292 198.013 298 352.791 298 410 C300.667 511.333 302.667 611.333 304 714 L400 714 L370 0 L235 0 L217 256 C213 312 208.667 372.333 206 411 L202 411 C199.333 372.333 196 312 192 256 L174 0 L38 0 L7 714 L100 714 L109 409 C111.631 351.124 115.324 196.64 118 111 L122 111 Z " /></glyph>
<glyph glyph-name="wdieresis" unicode="&#x1e85;" horiz-adv-x="437" >
<g transform="translate(1,-14)" ><path fill="black" d="M126 620 C95.3333 620 75 642.333 75 685 C75 727.667 95.3333 749 126 749 C156.667 749 178 726.333 178 685 C178 642.333 156.667 620 126 620 Z M279 620 C248.333 620 228 642.333 228 685 C228 727.667 248.333 749 279 749 C309.667 749 331 726.333 331 685 C331 642.333 309.667 620 279 620 Z " /></g><path fill="black" d="M51 0 L4 544 L102 544 L109 278 L112 127 L115 127 C117.667 159 121.333 217.333 128 256 L157 462 L248 462 L275 256 C281.667 216 286 160.333 290 127 L293 127 C293 164.556 296 228.778 296 277 L304 544 L401 544 L353 0 L233 0 L216 176 C210.667 226.667 205.667 283.333 203 330 L200 330 C197.333 283.333 190.333 226.667 185 176 L167 0 L51 0 Z " /></glyph>
<glyph glyph-name="uni2010" unicode="&#x2010;" horiz-adv-x="407" >
<g transform="translate(2,0)" ><path fill="black" d="M102 325 L304 325 L304 216 L102 216 L102 325 Z " /></g></glyph>
<glyph glyph-name="endash" unicode="&#x2013;" horiz-adv-x="437" d="M63 320 L348 320 L348 216 L63 216 L63 320 Z " />
<glyph glyph-name="emdash" unicode="&#x2014;" horiz-adv-x="437" >
<g transform="translate(0,394)" ><path fill="black" d="M2 -73 L404 -73 L404 -178 L2 -178 L2 -73 Z " /></g></glyph>
<glyph glyph-name="quoteleft" unicode="&#x2018;" horiz-adv-x="437" >
<path fill="black" d="M136 452 L131 463 C145.667 557.667 164 642 188 714 L277 714 C260.929 630.966 251.292 523.437 246 452 L136 452 Z " /></glyph>
<glyph glyph-name="quoteright" unicode="&#x2019;" horiz-adv-x="437" >
<g transform="translate(10,586)" ><path fill="black" d="M124 -134 C137.253 -57.1318 152.342 56.2375 155 128 L266 128 L271 117 C256.333 25 237 -62 213 -134 L124 -134 Z " /></g></glyph>
<glyph glyph-name="quotesinglbase" unicode="&#x201a;" horiz-adv-x="437" >
<g transform="translate(2,0)" ><path fill="black" d="M124 -134 C137.253 -57.1318 152.342 56.2375 155 128 L266 128 L271 117 C256.333 25 237 -62 213 -134 L124 -134 Z " /></g></glyph>
<glyph glyph-name="quotedblleft" unicode="&#x201c;" horiz-adv-x="437" >
<g transform="translate(-89,0)" ><path fill="black" d="M136 452 L131 463 C145.667 557.667 164 642 188 714 L277 714 C260.929 630.966 251.292 523.437 246 452 L136 452 Z " /></g><g transform="translate(92,0)" ><path fill="black" d="M136 452 L131 463 C145.667 557.667 164 642 188 714 L277 714 C260.929 630.966 251.292 523.437 246 452 L136 452 Z " /></g></glyph>
<glyph glyph-name="quotedblright" unicode="&#x201d;" horiz-adv-x="437" >
<g transform="translate(-102,586)" ><path fill="black" d="M124 -134 C137.253 -57.1318 152.342 56.2375 155 128 L266 128 L271 117 C256.333 25 237 -62 213 -134 L124 -134 Z " /></g><g transform="translate(79,586)" ><path fill="black" d="M124 -134 C137.253 -57.1318 152.342 56.2375 155 128 L266 128 L271 117 C256.333 25 237 -62 213 -134 L124 -134 Z " /></g></glyph>
<glyph glyph-name="quotedblbase" unicode="&#x201e;" horiz-adv-x="437" >
<g transform="translate(-87,0)" ><path fill="black" d="M124 -134 C137.253 -57.1318 152.342 56.2375 155 128 L266 128 L271 117 C256.333 25 237 -62 213 -134 L124 -134 Z " /></g><g transform="translate(83,0)" ><path fill="black" d="M124 -134 C137.253 -57.1318 152.342 56.2375 155 128 L266 128 L271 117 C256.333 25 237 -62 213 -134 L124 -134 Z " /></g></glyph>
<glyph glyph-name="dagger" unicode="&#x2020;" horiz-adv-x="437" d="M147 0 L167 479 L48 466 L48 566 L167 552 L147 760 L259 760 L238 552 L358 566 L358 466 L238 479 L259 0 L147 0 Z " />
<glyph glyph-name="daggerdbl" unicode="&#x2021;" horiz-adv-x="437" d="M48 273 L171 260 L155 384 L171 500 L48 487 L48 587 L171 573 L151 760 L262 760 L241 573 L358 587 L358 487 L241 500 L257 384 L241 260 L358 273 L358 173 L241 187 L262 0 L151 0 L171 187 L48 173 L48 273 Z " />
<glyph glyph-name="bullet" unicode="&#x2022;" horiz-adv-x="437" d="M203 214 C127 214 83 266.333 83 365 C83 465 124.333 516 203 516 C281.667 516 324 462.333 324 365 C324 267.667 279 214 203 214 Z " />
<glyph glyph-name="ellipsis" unicode="&#x2026;" horiz-adv-x="437" >
<path fill="black" d="M204 -12 C164 -12 138 14.3333 138 65 C138 115.667 161.333 141 204 141 C244 141 269 115.667 269 65 C269 14.3333 242.667 -12 204 -12 Z " /></glyph>
<glyph glyph-name="perthousand" unicode="&#x2030;" horiz-adv-x="437" d="M116 -168 C40 -168 2 -86.3333 2 59 C2 206.333 39.3333 280 114 280 C150 280 178.333 263 199 229 C218.333 263 245.667 280 281 280 C358.333 280 401 201.333 401 56 C401 -92 359 -168 283 -168 C247.667 -168 220.333 -150.333 201 -115 C181 -150.333 152.667 -168 116 -168 Z M200 456 C124 456 86 537.667 86 683 C86 830.333 123.333 904 198 904 C275.333 904 318 825.333 318 680 C318 532 276 456 200 456 Z M30 372 L366 423 L366 362 L30 311 L30 372 Z M116 -93 C142.667 -93 158 -48 158 56 C158 158.667 142.667 203 116 203 C88 203 77 158.333 77 57 C77 -47 89.3333 -93 116 -93 Z M283 -93 C309.667 -93 325 -48 325 56 C325 158.667 309.667 203 283 203 C255 203 244 158.333 244 57 C244 -47 256.333 -93 283 -93 Z M200 531 C226.667 531 242 576 242 680 C242 782.667 226.667 827 200 827 C172 827 161 782.333 161 681 C161 577 173.333 531 200 531 Z " />
<glyph glyph-name="guilsinglleft" unicode="&#x2039;" horiz-adv-x="437" d="M224 55 L103 265 L103 279 L224 488 L302 446 L222 272 L302 99 L224 55 Z " />
<glyph glyph-name="guilsinglright" unicode="&#x203a;" horiz-adv-x="437" d="M207 287 L128 460 L206 504 L327 294 L327 280 L206 71 L128 113 L207 287 Z " />
<glyph glyph-name="fraction" unicode="&#x2044;" horiz-adv-x="437" d="M19 372 L380 423 L380 362 L19 311 L19 372 Z " />
<glyph glyph-name="franc" unicode="&#x20a3;" horiz-adv-x="437" d="M71 121 L21 121 L21 210 L71 210 L71 714 L361 714 L361 603 L188 603 L188 429 L347 429 L347 321 L188 321 L188 210 L303 210 L303 121 L188 121 L188 0 L71 0 L71 121 Z " />
<glyph glyph-name="lira" unicode="&#x20a4;" horiz-adv-x="437" d="M365 104 L365 0 L47 0 L47 99 C89.4887 128.211 96.3095 159.356 99 232 L45 232 L45 310 L100 310 L100 383 L45 383 L45 460 L100 460 L100 524 C100 657.333 153.667 724 251 724 C291.667 724 330 710.333 366 683 L334 589 C307.333 609.667 283.333 620 262 620 C226 620 212 592 212 524 L212 460 L310 460 L310 383 L212 383 L212 310 L310 310 L310 232 L209 232 C205 164 190.333 129.333 161 104 L365 104 Z " />
<glyph glyph-name="peseta" unicode="&#x20a7;" horiz-adv-x="437" d="M13 714 L156 714 C272 714 326 641.333 326 512 C326 483.333 323 457 317 433 L334 433 L334 322 L405 322 L405 244 L334 244 L334 144 C334 100.667 343.667 79 363 79 C377.667 79 394.333 84.3333 405 91 L405 13 C390.333 2.33333 370.667 -5 340 -5 C272 -5 240 35.6667 240 125 L240 244 L198 244 L198 298 L243 323 L243 324 C217 308 184.667 300 146 300 L125 300 L125 0 L13 0 L13 714 Z M140 403 C186.667 403 213 433 213 509 C213 576.333 192 610 150 610 L125 610 L125 403 L140 403 Z " />
<glyph glyph-name="Euro" unicode="&#x20ac;" horiz-adv-x="437" d="M30 314 L78 314 C76.6667 327.333 77 337.667 77 351 C77 363 76.6667 374 78 386 L30 386 L30 458 L82 458 C95.4219 608.326 147.265 725 254 725 C294 725 337 711.667 377 681 L343 581 C312.333 606.333 284.667 619 260 619 C210.304 619 197.333 551.32 192 458 L298 458 L298 386 L188 386 L188 351 L188 314 L280 314 L280 242 L193 242 C201 140.667 223.333 96 266 96 C296.667 96 326.667 110.667 364 132 L364 22 C329.333 -0.666667 288.667 -10 254 -10 C143.675 -10 97.4297 96.9596 84 242 L30 242 L30 314 Z " />
<glyph glyph-name="uni2113" unicode="&#x2113;" horiz-adv-x="437" d="M100 258 C84 250 65.3333 243.333 44 234 L44 321 C62.6667 327.667 81.3333 335.667 100 345 L100 544 C100 663.333 143.667 723 231 723 C311 723 355 662.333 355 553 C355 431.667 306 344.667 206 294 L206 177 C206 109 215.667 79 241 79 C267.667 79 276.667 115 278 183 L363 183 C363 47 318.667 -9 224 -9 C144 -9 100 59 100 183 L100 258 Z M206 383 C242.667 415.667 261 472.333 261 553 C261 611.667 250.333 637 233 637 C214.333 637 206 616.667 206 558 L206 383 Z " />
<glyph glyph-name="trademark" unicode="&#x2122;" horiz-adv-x="437" d="M180 367 L180 714 L260 714 L292 562 L324 714 L403 714 L403 367 L346 367 L346 562 C346 580.667 348 608.333 348 627 L346 627 L310 482 L271 482 L237 628 L235 628 C236.333 606.667 236 580 236 564 L236 367 L180 367 Z M53 367 L53 653 L1 653 L1 714 L161 714 L161 653 L114 653 L114 367 L53 367 Z " />
<glyph glyph-name="Omega" unicode="&#x2126;" horiz-adv-x="437" >
<g transform="translate(2,0)" ><path fill="black" d="M8 104 L98 104 C55.3333 158.667 15 253 15 409 C15 615.667 83 725 203 725 C320.333 725 391 618 391 406 C391 255.333 359.333 161.333 306 104 L399 104 L399 0 L224 0 L224 109 C264 167.667 282 252.667 282 390 C282 542 260 622 204 622 C149.333 622 126 544.667 126 390 C126 254 143.333 165 182 109 L182 0 L8 0 L8 104 Z " /></g></glyph>
<glyph glyph-name="estimated" unicode="&#x212e;" horiz-adv-x="437" d="M94 83 C116.667 52.3333 152.667 25 206 25 C280.667 25 324.667 74 358 142 L387 119 C349.176 43.3516 299.74 -17 207 -17 C72.0996 -17 2 110.896 2 263 C2 450.636 108.463 535 207 535 C315.234 535 404 429.563 404 259 L94 259 L94 83 Z M94 301 L314 301 L314 436 C295.333 462.667 253.667 494 207 494 C155 494 120.667 469 94 437 L94 301 Z " />
<glyph glyph-name="uni2219" unicode="&#x2219;" horiz-adv-x="407" >
<g transform="translate(4,272)" ><path fill="black" d="M204 -12 C164 -12 138 14.3333 138 65 C138 115.667 161.333 141 204 141 C244 141 269 115.667 269 65 C269 14.3333 242.667 -12 204 -12 Z " /></g></glyph>
<glyph glyph-name="radical" unicode="&#x221a;" horiz-adv-x="437" d="M148 -7 L85 359 L18 359 L18 453 L155 453 L197 155 L307 843 L406 843 L251 -7 L148 -7 Z " />
<glyph glyph-name="infinity" unicode="&#x221e;" horiz-adv-x="437" d="M118 191 C54 191 6 255.333 6 354 C6 442.944 42.9697 515 114 515 C151.333 515 176.333 490.333 203 437 C224.333 479.667 250.333 513 293 513 C357.104 513 401 445.719 401 355 C401 261.641 353.411 188 292 188 C250.667 188 221.333 221.333 200 264 C174.667 214.667 154 191 118 191 Z M283 278 C301.667 278 315 311 315 351 C315 393.667 301.667 424 283 424 C267 424 260.667 399.667 238 349 C252.667 309 264.333 278 283 278 Z M125 280 C145 280 154.333 305.333 169 348 C154.333 392 143.333 426 122 426 C103.333 426 92 395.667 92 353 C92 314.333 101 280 125 280 Z " />
<glyph glyph-name="approxequal" unicode="&#x2248;" horiz-adv-x="437" >
<g transform="translate(0,-109)" ><path fill="black" d="M369 328 C345.667 294.667 317 278 283 278 C249.667 278 221.667 288.333 191 307 C163 325 137.667 334 115 334 C90.3333 334 64.3333 314.333 37 275 L37 377 C60.3333 411.667 89.3333 429 124 429 C154.667 429 183.333 416.667 214 398 C244 380 269.667 371 291 371 C315 371 345 393 369 429 L369 328 Z " /></g><g transform="translate(0,108)" ><path fill="black" d="M369 328 C345.667 294.667 317 278 283 278 C249.667 278 221.667 288.333 191 307 C163 325 137.667 334 115 334 C90.3333 334 64.3333 314.333 37 275 L37 377 C60.3333 411.667 89.3333 429 124 429 C154.667 429 183.333 416.667 214 398 C244 380 269.667 371 291 371 C315 371 345 393 369 429 L369 328 Z " /></g></glyph>
<glyph glyph-name="lessequal" unicode="&#x2264;" horiz-adv-x="437" d="M37 362 L37 424 L365 626 L365 521 L165 393 L365 263 L365 159 L37 362 Z M36 0 L36 93 L362 93 L362 0 L36 0 Z " />
<glyph glyph-name="greaterequal" unicode="&#x2265;" horiz-adv-x="437" d="M39 263 L239 393 L39 521 L39 626 L367 424 L367 362 L39 159 L39 263 Z M42 93 L367 93 L367 0 L42 0 L42 93 Z " />
</font>
</svg>
