<?xml version="1.0" encoding="UTF-8"?>
<svg xmlns="http://www.w3.org/2000/svg" xmlns:xlink="http://www.w3.org/1999/xlink" version="1.1" >
<font id="Monoto-6SmWd700Bd" horiz-adv-x="716">
<font-face  font-family="Monoto 6 SmWd" units-per-em="1000" ascent="955" descent="-235" font-style="normal" font-weight="700" font-stretch="semi-expanded" cap-height="714" x-height="553" underline-position="-75" underline-thickness="50" />
<missing-glyph horiz-adv-x="720" d="M89 0 L89 714 L632 714 L632 0 L89 0 Z M565 51 L565 663 L157 663 L157 51 L565 51 Z " />
<glyph glyph-name="uni0000" horiz-adv-x="720" />
<glyph glyph-name="uni000D" unicode="&#xd;" horiz-adv-x="720" />
<glyph glyph-name="space" unicode="&#x20;" horiz-adv-x="720" />
<glyph glyph-name="exclam" unicode="&#x21;" horiz-adv-x="720" d="M281 258 L252 714 L475 714 L447 258 L281 258 Z M250 83 C250 152.333 297.667 180 363 180 C427 180 474 152.333 474 83 C474 16.3333 425.667 -12 363 -12 C299 -12 250 16.3333 250 83 Z " />
<glyph glyph-name="quotedbl" unicode="&#x22;" horiz-adv-x="720" >
<g transform="translate(-140,0)" ><path fill="black" d="M293 456 L266 714 L457 714 L430 456 L293 456 Z " /></g><g transform="translate(138,0)" ><path fill="black" d="M293 456 L266 714 L457 714 L430 456 L293 456 Z " /></g></glyph>
<glyph glyph-name="numbersign" unicode="&#x23;" horiz-adv-x="720" d="M-5 311 L155 311 L182 402 L35 402 L35 527 L204 527 L248 714 L382 714 L338 527 L454 527 L498 714 L632 714 L587 527 L727 527 L727 402 L566 402 L538 311 L689 311 L689 189 L518 189 L473 0 L338 0 L383 189 L266 189 L223 0 L90 0 L133 189 L-5 189 L-5 311 Z M288 311 L405 311 L432 402 L316 402 L288 311 Z " />
<glyph glyph-name="dollar" unicode="&#x24;" horiz-adv-x="720" d="M77 222 C143.667 190 235 163.667 315 161 L315 299 C157.811 341.628 71 395.909 71 506 C71 623.307 168.337 684.334 315 695 L315 760 L410 760 L410 696 C494 692 562.333 674.333 633 649 L587 517 C531 539.667 470 551.667 410 557 L410 429 C570.974 386.074 652 338.281 652 235 C652 127 568.667 46.6667 410 28 L410 -58 L315 -58 L315 25 C225.667 27.6667 142.333 44 77 68 L77 222 Z M410 167 C470 177.667 497 192 497 220 C497 244 474 256.667 410 270 L410 167 Z M229 507 C229 484.333 251 472.667 315 458 L315 557 C253.667 549 229 535 229 507 Z " />
<glyph glyph-name="percent" unicode="&#x25;" horiz-adv-x="720" d="M44 35 L529 679 L676 679 L191 35 L44 35 Z M368 159 C368 268.333 437.667 329 555 329 C675 329 744 267 744 159 C744 51 676.333 -10 555 -10 C439 -10 368 49.6667 368 159 Z M-22 554 C-22 664.667 47.6667 724 165 724 C283.667 724 354 662 354 554 C354 446 285.333 385 164 385 C49.3333 385 -22 446 -22 554 Z M558 99 C591.333 99 606 115 606 159 C606 203 591.333 220 558 220 C522 220 505 203 505 159 C505 115 522 99 558 99 Z M166 495 C200.667 495 216 511.333 216 554 C216 599.333 200.667 616 166 616 C131.333 616 115 599.333 115 554 C115 511.333 131.333 495 166 495 Z " />
<glyph glyph-name="ampersand" unicode="&#x26;" horiz-adv-x="720" d="M537 0 L481 57 C419.667 15.6667 347.333 -10 262 -10 C99.3593 -10 13 76.4632 13 183 C13 278.386 77.9486 339.299 157 392 C121 436 90 488 90 552 C90 660 172 723 308 723 C445.333 723 521 656.667 521 558 C521 469.375 455.731 423.154 376 370 L482 257 C518 307.667 541.333 362.333 548 401 L697 401 C685 321 646 228.333 582 151 L724 0 L537 0 Z M251 291 C205.667 260.333 177 236.667 177 206 C177 164.667 217.667 138 287 138 C320.333 138 350 147.333 378 162 L251 291 Z M285 467 C330.333 493.667 374 526 374 562 C374 586 347.667 601 309 601 C267.667 601 241 585.667 241 555 C241 523 262.333 493.667 285 467 Z " />
<glyph glyph-name="quotesingle" unicode="&#x27;" horiz-adv-x="720" d="M293 456 L266 714 L457 714 L430 456 L293 456 Z " />
<glyph glyph-name="parenleft" unicode="&#x28;" horiz-adv-x="720" d="M399 -180 C276.333 -64.6667 215 83 215 263 C215 444.333 277.667 599.333 399 714 L565 714 C446.333 584.667 391 434.667 391 264 C391 98.6667 450.333 -46.6667 565 -180 L399 -180 Z " />
<glyph glyph-name="parenright" unicode="&#x29;" horiz-adv-x="720" d="M182 -180 C300.667 -50.6667 356 99.3333 356 270 C356 435.333 296.667 580.667 182 714 L348 714 C470.667 598.667 532 451 532 271 C532 89.6667 469.333 -65.3333 348 -180 L182 -180 Z " />
<glyph glyph-name="asterisk" unicode="&#x2a;" horiz-adv-x="720" d="M263 501 L67 521 L100 656 L302 610 L280 765 L439 765 L419 610 L624 657 L655 523 L460 501 L593 383 L463 304 L359 433 L261 306 L130 379 L263 501 Z " />
<glyph glyph-name="plus" unicode="&#x2b;" horiz-adv-x="720" d="M67 422 L288 422 L288 599 L434 599 L434 422 L655 422 L655 284 L434 284 L434 110 L288 110 L288 284 L67 284 L67 422 Z " />
<glyph glyph-name="comma" unicode="&#x2c;" horiz-adv-x="720" d="M226 -157 C250.942 -137.601 277.76 73.0669 307 198 L478 148 L488 142 C463.959 61.8624 419.399 -138.306 374 -157 L226 -157 Z " />
<glyph glyph-name="hyphen" unicode="&#x2d;" horiz-adv-x="720" d="M169 350 L553 350 L553 190 L169 190 L169 350 Z " />
<glyph glyph-name="period" unicode="&#x2e;" horiz-adv-x="720" d="M250 88 C250 157.333 297.667 185 363 185 C427 185 474 157.333 474 88 C474 21.3333 425.667 -7 363 -7 C299 -7 250 21.3333 250 88 Z " />
<glyph glyph-name="slash" unicode="&#x2f;" horiz-adv-x="720" d="M93 -11 L462 725 L629 725 L260 -11 L93 -11 Z " />
<glyph glyph-name="zero" unicode="0" horiz-adv-x="720" d="M359 -10 C137.667 -10 33 118.667 33 356 C33 602.667 129.667 724 359 724 C583 724 688 597.333 688 356 C688 144.208 606.974 -10 359 -10 Z M276 167 C298 155 325.667 149 359 149 C475 149 516 212 516 356 C516 389.333 513.667 417.667 509 441 L276 167 Z M441 548 C420.333 560 393 566 359 566 C245.667 566 206 496 206 356 C206 325.333 208.333 299.667 211 277 L441 548 Z " />
<glyph glyph-name="one" unicode="1" horiz-adv-x="720" d="M111 138 L294 151 L294 355 C294 386.667 295.215 472.44 298 517 C268.667 502.333 249 488.667 217 478 L130 448 L51 589 L319 714 L482 714 L482 151 L664 138 L664 0 L111 0 L111 138 Z " />
<glyph glyph-name="two" unicode="2" horiz-adv-x="720" d="M47 129 L255 282 C409.403 393.809 468 439.181 468 497 C468 543.667 420 565 344 565 C269.333 565 211 540 143 480 L42 604 C134 690.667 230 724 358 724 C534.866 724 666 652 666 508 C666 427.401 612.781 354.781 451 254 L304 165 L304 160 L686 160 L686 0 L48 0 L47 129 Z " />
<glyph glyph-name="three" unicode="3" horiz-adv-x="720" d="M59 188 C136.333 157.333 227.667 141 301 141 C415.667 141 469 168.333 469 215 C469 263 407 284 251 284 L184 284 L184 436 L251 436 C395 436 453 457 453 509 C453 554.333 409 568 333 568 C262.333 568 194 551.667 138 525 L59 656 C135 700 232.333 724 351 724 C533.667 724 636 665.333 636 548 C636 452.254 559.668 400.036 462 371 L462 368 C584.667 352 664 306.667 664 208 C664 77.3593 533.286 -9 305 -9 C229 -9 143 1.33333 59 28 L59 188 Z " />
<glyph glyph-name="four" unicode="4" horiz-adv-x="720" d="M24 282 L391 713 L577 713 L577 285 L698 285 L698 138 L577 138 L577 0 L396 0 L396 138 L24 138 L24 282 Z M190 285 L396 285 L396 368 C396 378.667 398.667 419.333 400 466 L394 466 C379.333 435.333 355 407 335 391 L190 285 Z " />
<glyph glyph-name="five" unicode="5" horiz-adv-x="720" d="M60 193 C124 170.333 205.667 148 291 148 C399 148 462 178 462 234 C462 286 398.333 317 289 317 C243.667 317 189.667 310.667 147 300 L76 336 L108 714 L607 714 L607 554 L285 554 L269 464 C310.333 470.667 351.667 473 385 473 C550.437 473 661 382.13 661 246 C661 76.6667 528 -10 300 -10 C212 -10 126.667 2.66667 60 28 L60 193 Z " />
<glyph glyph-name="six" unicode="6" horiz-adv-x="720" d="M231 397 C263 450.333 329.333 480 424 480 C581.307 480 681 395.281 681 246 C681 88.5628 558.641 -10 372 -10 C172.078 -10 41 100.974 41 301 C41 513.494 120.022 724 479 724 C520.333 724 575.333 721.333 618 716 L618 560 C579.333 566.667 536 569 496 569 C309.312 569 232.993 519.566 225 397 L231 397 Z M237 236 C237 178.667 284 150 368 150 C440 150 489 177 489 237 C489 294.333 452.333 325 371 325 C287 325 237 285.333 237 236 Z " />
<glyph glyph-name="seven" unicode="7" horiz-adv-x="720" d="M150 0 L482 553 L38 553 L38 714 L682 714 L682 592 L355 0 L150 0 Z " />
<glyph glyph-name="eight" unicode="8" horiz-adv-x="720" d="M47 189 C47 273 113.333 326.333 216 373 C132 422.333 76 478 76 550 C76 662.052 192.251 724 362 724 C532.667 724 650 662.723 650 549 C650 470.333 588 415 484 375 C601.333 321.667 673 267.667 673 185 C673 67.6667 560.333 -10 355 -10 C156.333 -10 47 65 47 189 Z M230 195 C230 152.333 270.667 135 360 135 C441.333 135 492 154 492 190 C492 232.667 438 252.333 350 283 C276.667 256.333 230 229.667 230 195 Z M258 534 C258 507.333 303.667 488.667 361 466 C425 488.667 467 507.333 467 534 C467 566 422 580 362 580 C299.333 580 258 560.667 258 534 Z " />
<glyph glyph-name="nine" unicode="9" horiz-adv-x="720" d="M107 154 C145.667 147.333 188 145 228 145 C410.667 145 489 194.333 497 317 L490 317 C458 263.667 390 234 298 234 C140.823 234 40 321.329 40 467 C40 626.108 159.749 724 350 724 C546.312 724 680 613.026 680 413 C680 196.004 598.156 -10 246 -10 C202 -10 148.333 -7.33333 107 -2 L107 154 Z M231 476 C231 420 273 389 349 389 C433.494 389 484 433.364 484 477 C484 537 439.667 564 353 564 C279.667 564 231 538.667 231 476 Z " />
<glyph glyph-name="colon" unicode="&#x3a;" horiz-adv-x="720" >
<g transform="translate(1,379)" ><path fill="black" d="M250 88 C250 157.333 297.667 185 363 185 C427 185 474 157.333 474 88 C474 21.3333 425.667 -7 363 -7 C299 -7 250 21.3333 250 88 Z " /></g><path fill="black" d="M250 88 C250 157.333 297.667 185 363 185 C427 185 474 157.333 474 88 C474 21.3333 425.667 -7 363 -7 C299 -7 250 21.3333 250 88 Z " /></glyph>
<glyph glyph-name="semicolon" unicode="&#x3b;" horiz-adv-x="720" >
<g transform="translate(-6,-1)" ><path fill="black" d="M226 -157 C250.942 -137.601 277.76 73.0669 307 198 L478 148 L488 142 C463.959 61.8624 419.399 -138.306 374 -157 L226 -157 Z " /></g><g transform="translate(22,378)" ><path fill="black" d="M250 88 C250 157.333 297.667 185 363 185 C427 185 474 157.333 474 88 C474 21.3333 425.667 -7 363 -7 C299 -7 250 21.3333 250 88 Z " /></g></glyph>
<glyph glyph-name="less" unicode="&#x3c;" horiz-adv-x="720" d="M97 314 L97 401 L665 620 L665 468 L293 360 L665 253 L665 101 L97 314 Z " />
<glyph glyph-name="equal" unicode="&#x3d;" horiz-adv-x="720" d="M65 297 L656 297 L656 150 L65 150 L65 297 Z M65 534 L656 534 L656 387 L65 387 L65 534 Z " />
<glyph glyph-name="greater" unicode="&#x3e;" horiz-adv-x="720" d="M77 253 L449 360 L77 468 L77 620 L645 401 L645 314 L77 101 L77 253 Z " />
<glyph glyph-name="question" unicode="&#x3f;" horiz-adv-x="720" d="M78 653 C162 698.333 249 724 361 724 C539.667 724 643 654 643 546 C643 470 604.667 410 506 366 C426.898 331.722 412 313.143 412 285 L412 258 L245 258 L245 302 C245 362 273.667 402.667 363 444 C440.333 480 457 506.333 457 529 C457 555.667 419 571 351 571 C283 571 222 553.667 146 515 L78 653 Z M218 83 C218 152.333 265.667 180 331 180 C395 180 442 152.333 442 83 C442 16.3333 393.667 -12 331 -12 C267 -12 218 16.3333 218 83 Z " />
<glyph glyph-name="at" unicode="&#x40;" horiz-adv-x="720" d="M456 157 C428 123.667 385.667 107 329 107 C225 107 167 183.333 167 298 C167 430.364 251.615 522 393 522 C453 522 515 506.667 555 492 L544 300 C542.667 286.667 543 266 543 258 C543 223.333 555 206 571 206 C607.416 206 625 274 625 362 C625 519.333 537 612 385 612 C209.078 612 98 486.563 98 292 C98 128.338 190.671 13 389 13 C465 13 535.333 25.3333 606 52 L606 -47 C541.333 -73.6667 468 -87 386 -87 C127.281 -87 -16 56.6926 -16 286 C-16 548.407 137.537 714 383 714 C598.922 714 738 577.952 738 371 C738 229.563 686 107 566 107 C515.333 107 477 118.333 461 157 L456 157 Z M431 420 C417.667 421.333 405.667 422 391 422 C319 422 290 372.333 290 299 C290 236.333 313.667 206 351 206 C400.333 206 416.667 244 426 352 L431 420 Z " />
<glyph glyph-name="A" unicode="A" horiz-adv-x="720" d="M239 717 L481 717 L730 0 L544 0 L498 137 L223 137 L176 0 L-9 0 L239 717 Z M274 287 L448 287 L406 414 C387.378 464.545 369.841 547.57 362 592 C351.397 546.939 336.223 466.065 318 414 L274 287 Z " />
<glyph glyph-name="B" unicode="B" horiz-adv-x="720" d="M69 0 L69 714 L353 714 C566.333 714 675 655 675 539 C675 447 612.333 393.667 531 379 L531 374 C625.667 354 695 305 695 213 C695 79.6926 575.922 0 384 0 L69 0 Z M242 147 L366 147 C472.667 147 513 184.667 513 226 C513 268.667 471.667 301 361 301 L242 301 L242 147 Z M242 436 L356 436 C452 436 496 467.333 496 506 C496 543.333 452.667 567 346 567 L242 567 L242 436 Z " />
<glyph glyph-name="C" unicode="C" horiz-adv-x="720" d="M660 33 C584 3.66667 504.333 -10 423 -10 C164.307 -10 40 125.338 40 345 C40 583.848 192.615 724 454 724 C543.333 724 619.667 712.333 697 683 L641 528 C583.667 552 518 561 462 561 C300.667 561 230 477.667 230 347 C230 205.667 298.333 152 449 152 C515.667 152 592 170 660 202 L660 33 Z " />
<glyph glyph-name="D" unicode="D" horiz-adv-x="720" d="M40 0 L40 714 L303 714 C556.203 714 708 589.078 708 373 C708 133.026 542.723 0 285 0 L40 0 Z M222 155 L277 155 C442.333 155 517 229.333 517 364 C517 497.333 438 559 294 559 L222 559 L222 155 Z " />
<glyph glyph-name="E" unicode="E" horiz-adv-x="720" d="M659 159 L659 0 L69 0 L69 714 L659 714 L659 555 L254 555 L254 444 L638 444 L638 285 L254 285 L254 159 L659 159 Z " />
<glyph glyph-name="F" unicode="F" horiz-adv-x="720" d="M69 0 L69 714 L659 714 L659 556 L254 556 L254 418 L638 418 L638 259 L254 259 L254 0 L69 0 Z " />
<glyph glyph-name="G" unicode="G" horiz-adv-x="720" d="M386 424 L682 424 L682 33 C598 1 516.667 -10 426 -10 C146 -10 14 123.996 14 347 C14 585.667 162.667 724 432 724 C532 724 610.667 704.333 676 679 L619 530 C568.333 553.333 511 565 447 565 C283.667 565 202 494.333 202 353 C202 231.978 263.381 151 417 151 C450.333 151 480.667 152.333 510 159 L510 276 L386 276 L386 424 Z " />
<glyph glyph-name="H" unicode="H" horiz-adv-x="720" d="M40 0 L40 714 L228 714 L228 450 L493 450 L493 714 L681 714 L681 0 L493 0 L493 291 L228 291 L228 0 L40 0 Z " />
<glyph glyph-name="I" unicode="I" horiz-adv-x="720" d="M84 133 L269 149 L269 565 L84 581 L84 714 L637 714 L637 581 L452 565 L452 149 L637 133 L637 0 L84 0 L84 133 Z " />
<glyph glyph-name="J" unicode="J" horiz-adv-x="720" d="M73 164 C141 149.333 208.667 149 254 149 C375.333 149 428 200 428 300 L428 714 L614 714 L614 270 C614 80.6667 513.667 -10 283 -10 C219 -10 139.667 -6 73 6 L73 164 Z " />
<glyph glyph-name="K" unicode="K" horiz-adv-x="720" d="M40 0 L40 714 L224 714 L224 395 C246.667 427 270.667 453.333 296 484 L496 714 L701 714 L435 394 L703 0 L491 0 L302 252 L224 217 L224 0 L40 0 Z " />
<glyph glyph-name="L" unicode="L" horiz-adv-x="720" d="M659 163 L659 0 L90 0 L90 714 L278 714 L278 163 L659 163 Z " />
<glyph glyph-name="M" unicode="M" horiz-adv-x="720" d="M21 0 L21 714 L272 714 L358 305 L363 305 L450 714 L701 714 L701 0 L537 0 L538 122 C538 164.466 564.15 532.75 568 552 L562 552 L451 159 L271 159 L159 553 L152 553 C156.2 527.802 183 165.91 183 122 L184 0 L21 0 Z " />
<glyph glyph-name="N" unicode="N" horiz-adv-x="720" d="M40 0 L40 714 L295 714 L520 159 L525 159 C517 248.333 509 329.333 509 392 L509 714 L681 714 L681 0 L436 0 L201 549 L194 549 C204.728 409.538 212 371.458 212 312 L212 0 L40 0 Z " />
<glyph glyph-name="O" unicode="O" horiz-adv-x="720" d="M361 -9 C121 -9 14 119 14 359 C14 597.667 121 725 361 725 C601 725 708 595.667 708 357 C708 122.333 602.333 -9 361 -9 Z M362 150 C479.333 150 516 217.667 516 359 C516 502.004 479.281 564 362 564 C247.333 564 206 504.667 206 358 C206 212.667 246 150 362 150 Z " />
<glyph glyph-name="P" unicode="P" horiz-adv-x="720" d="M69 0 L69 714 L375 714 C593.667 714 695 632.333 695 483 C695 344.385 605.156 233 365 233 L250 233 L250 0 L69 0 Z M250 385 L345 385 C453 385 508 419 508 479 C508 529.667 460 562 356 562 L250 562 L250 385 Z " />
<glyph glyph-name="Q" unicode="Q" horiz-adv-x="720" d="M501 -180 L398 -6 C380 -8 360.333 -9 339 -9 C99 -9 -8 119 -8 359 C-8 597.667 99 725 339 725 C579 725 686 595.667 686 357 C686 210.333 645.333 105 556 45 L701 -180 L501 -180 Z M340 150 C457.333 150 494 217.667 494 359 C494 502.004 457.281 564 340 564 C225.333 564 184 504.667 184 358 C184 212.667 224 150 340 150 Z " />
<glyph glyph-name="R" unicode="R" horiz-adv-x="720" d="M69 0 L69 714 L327 714 C555 714 663 642.667 663 504 C663 418.667 608 356.333 512 307 L726 0 L523 0 L353 254 L249 254 L249 0 L69 0 Z M249 407 L325 407 C426.333 407 481 428 481 488 C481 532 436 560 328 560 L249 560 L249 407 Z " />
<glyph glyph-name="S" unicode="S" horiz-adv-x="720" d="M65 215 C151.667 165.667 245 149 333 149 C433 149 482 161.333 482 196 C482 241.26 427.605 247.361 297 306 C167.391 366.837 78 418.744 78 526 C78 651.333 178.667 725 388 725 C497.333 725 587 702.667 663 672 L604 524 C532 556 461.333 566 400 566 C320 566 270 552.667 270 518 C270 485.995 310.228 471.708 441 421 C577.767 362.002 674 318.531 674 200 C674 86.8745 575.494 -10 331 -10 C235 -10 147.667 1.33333 65 36 L65 215 Z " />
<glyph glyph-name="T" unicode="T" horiz-adv-x="720" d="M267 0 L267 556 L14 556 L14 714 L708 714 L708 556 L455 556 L455 0 L267 0 Z " />
<glyph glyph-name="U" unicode="U" horiz-adv-x="720" d="M40 714 L228 714 L228 280 C228 182.355 260.411 154 359 154 C460.177 154 493 181.13 493 281 L493 714 L681 714 L681 269 C681 89 583 -10 359 -10 C146.333 -10 40 81.3333 40 264 L40 714 Z " />
<glyph glyph-name="V" unicode="V" horiz-adv-x="720" d="M367 148 C377.786 193.842 395.113 269.896 406 308 L538 714 L728 714 L478 0 L246 0 L-7 714 L183 714 L320 308 C333.324 268.029 350.34 193.305 361 148 L367 148 Z " />
<glyph glyph-name="W" unicode="W" horiz-adv-x="720" d="M194 148 C202.11 210.18 224.755 345.85 241 400 L281 555 L442 555 L483 399 C499.048 342.832 518.118 207.425 526 147 L532 147 C533.333 259 537 335 541 387 C546.374 475.672 553.693 501.089 567 714 L728 714 L662 0 L441 0 L397 128 C376.167 180.083 368.407 301.528 363 361 L358 361 C355.314 301.904 346.025 179.501 328 128 L286 0 L61 0 L-7 714 L150 714 C165.954 485.332 173.635 449.427 179 377 C184.333 323.667 187.667 250.667 189 148 L194 148 Z " />
<glyph glyph-name="X" unicode="X" horiz-adv-x="720" d="M4 0 L265 366 L21 714 L219 714 L361 536 L499 714 L699 714 L456 367 L718 0 L517 0 L360 198 L202 0 L4 0 Z " />
<glyph glyph-name="Y" unicode="Y" horiz-adv-x="720" d="M269 276 L4 714 L205 714 L363 473 L520 714 L718 714 L453 276 L453 0 L269 0 L269 276 Z " />
<glyph glyph-name="Z" unicode="Z" horiz-adv-x="720" d="M69 126 L455 559 L88 559 L88 714 L656 714 L656 588 L281 159 L661 159 L661 0 L69 0 L69 126 Z " />
<glyph glyph-name="bracketleft" unicode="&#x5b;" horiz-adv-x="720" d="M583 -40 L583 -169 L264 -169 L264 736 L583 736 L583 607 L432 607 L432 -40 L583 -40 Z " />
<glyph glyph-name="backslash" unicode="&#x5c;" horiz-adv-x="720" d="M484 -11 L115 725 L282 725 L651 -11 L484 -11 Z " />
<glyph glyph-name="bracketright" unicode="&#x5d;" horiz-adv-x="720" d="M162 -44 L313 -44 L313 603 L162 603 L162 732 L481 732 L481 -173 L162 -173 L162 -44 Z " />
<glyph glyph-name="asciicircum" unicode="&#x5e;" horiz-adv-x="720" d="M21 246 L305 715 L397 715 L701 246 L540 246 L353 496 L180 246 L21 246 Z " />
<glyph glyph-name="underscore" unicode="&#x5f;" horiz-adv-x="720" d="M-22 -44 L744 -44 L744 -191 L-22 -191 L-22 -44 Z " />
<glyph glyph-name="grave" unicode="&#x60;" horiz-adv-x="720" d="M182 766 L391 766 C423.523 725.346 483.31 652.021 518 620 L518 606 L390 606 C333.7 638.172 222.753 720.68 182 756 L182 766 Z " />
<glyph glyph-name="a" unicode="a" horiz-adv-x="720" d="M95 515 C175 551 263 566 367 566 C561.667 566 659 503.667 659 379 L659 0 L517 0 L495 66 L491 66 C426.606 -1.07673 349.137 -10 275 -10 C125.745 -10 44 64.1558 44 168 C44 295.197 158.408 347.32 338 350 L483 354 L482 371 C482 401.667 435 419 347 419 C284.333 419 217.667 409.667 155 387 L95 515 Z M483 242 L393 241 C273 241 219 226.667 219 184 C219 152 259 136 323 136 C408.333 136 483 162.667 483 216 L483 242 Z " />
<glyph glyph-name="b" unicode="b" horiz-adv-x="720" d="M51 760 L234 760 L234 585 C234 569 232.667 537.667 226 483 L234 483 C276.667 544.333 346 566 434 566 C611.022 566 696 419.688 696 280 C696 131.688 603.896 -10 428 -10 C349.333 -10 282 3.33333 234 54 L221 54 L195 0 L51 0 L51 760 Z M369 141 C461 141 506 182.667 506 280 C506 374.667 463.667 414 369 414 C281 414 233 380.333 233 279 C233 173.667 279.667 141 369 141 Z " />
<glyph glyph-name="c" unicode="c" horiz-adv-x="720" d="M630 33 C566 1 485.333 -10 408 -10 C188 -10 64 86.6667 64 272 C64 442.719 183.134 566 416 566 C502.667 566 580.667 552.667 650 522 L594 385 C530 407.667 484.667 415 430 415 C307.333 415 252 370 252 282 C252 179.333 321 140 433 140 C494.333 140 566 150 630 194 L630 33 Z " />
<glyph glyph-name="d" unicode="d" horiz-adv-x="720" d="M488 71 C444 12.3333 378 -10 290 -10 C110.26 -10 26 131.948 26 276 C26 433.177 113.385 566 300 566 C384 566 450.333 545.667 493 483 L500 483 C491.955 544.677 487 571.659 487 612 L487 760 L671 760 L671 0 L526 0 L497 71 L488 71 Z M497 274 C497 366 465 414 361 414 C265 414 215 363 215 275 C215 179 264 141 356 141 C454.667 141 497 185 497 261 L497 274 Z " />
<glyph glyph-name="e" unicode="e" horiz-adv-x="720" d="M654 29 C575.333 1 487 -10 407 -10 C164.333 -10 35 94 35 278 C35 451.229 158.078 566 374 566 C570 566 685 470.667 685 300 L685 217 L218 217 C223.326 161.078 310.006 134 430 134 C510 134 586 148.333 654 179 L654 29 Z M372 429 C281.333 429 230.667 392.333 220 339 L509 339 C506.333 397.667 457.333 429 372 429 Z " />
<glyph glyph-name="f" unicode="f" horiz-adv-x="720" d="M245 0 L245 406 L42 406 L42 505 L245 555 L245 578 C245 691.333 341 765 529 765 C594.333 765 655 760.333 719 739 L675 596 C631 610.667 585 612 549 612 C471.667 612 433 594 433 558 L433 556 L662 556 L662 406 L433 406 L433 0 L245 0 Z " />
<glyph glyph-name="g" unicode="g" horiz-adv-x="720" d="M66 -57 C151.333 -86.3333 233 -96 305 -96 C433 -96 492 -71.3333 492 -2 L492 4 C492 30.6667 491.333 47 494 67 L488 67 C438.667 7 380 -10 300 -10 C125.333 -10 26 93.3333 26 276 C26 466.978 132.416 566 296 566 C380 566 438.333 541 489 485 L496 485 L529 555 L671 555 L671 30 C671 -150 564.667 -245 310 -245 C224.667 -245 146 -238.333 66 -213 L66 -57 Z M499 274 C499 367.333 452.667 414 360 414 C260 414 216 369.333 216 272 C216 190.667 258.333 141 361 141 C451.667 141 499 180.333 499 259 L499 274 Z " />
<glyph glyph-name="h" unicode="h" horiz-adv-x="720" d="M51 0 L51 760 L239 760 L239 655 C239 597.667 233.333 545.333 228 488 L239 488 C281.667 540 348.667 566 440 566 C593.333 566 679 486.333 679 361 L679 0 L490 0 L490 298 C490 370 460 413 376 413 C285.463 413 239 373.97 239 245 L239 0 L51 0 Z " />
<glyph glyph-name="i" unicode="i" horiz-adv-x="720" >
<path fill="black" d="M47 132 L286 148 L286 406 L88 421 L88 556 L472 556 L472 148 L683 132 L683 0 L47 0 L47 132 Z " /><g transform="translate(13,0)" ><path fill="black" d="M246 690 C246 746 286.333 779 361 779 C437 779 476 746 476 690 C476 632.667 437 598 361 598 C289 598 246 628.667 246 690 Z " /></g></glyph>
<glyph glyph-name="j" unicode="j" horiz-adv-x="720" >
<path fill="black" d="M29 -73 C89 -87.6667 160 -92 204 -92 C306.848 -92 339 -67.0779 339 29 L339 406 L118 419 L118 556 L527 556 L527 -13 C527 -169 440 -245 236 -245 C173.333 -245 94.3333 -237.667 29 -219 L29 -73 Z " /><g transform="translate(59,0)" ><path fill="black" d="M246 690 C246 746 286.333 779 361 779 C437 779 476 746 476 690 C476 632.667 437 598 361 598 C289 598 246 628.667 246 690 Z " /></g></glyph>
<glyph glyph-name="k" unicode="k" horiz-adv-x="720" d="M58 0 L58 760 L245 760 L245 470 C245 422.19 240.95 348.051 233 303 L237 303 C267.667 337.667 290 368.333 330 403 L502 556 L714 556 L472 321 L726 0 L515 0 L344 199 L245 144 L245 0 L58 0 Z " />
<glyph glyph-name="l" unicode="l" horiz-adv-x="720" d="M47 130 L286 148 L286 613 L80 625 L80 760 L473 760 L473 148 L683 130 L683 0 L47 0 L47 130 Z " />
<glyph glyph-name="m" unicode="m" horiz-adv-x="720" d="M16 0 L16 556 L145 556 L166 485 L175 485 C203 539.667 242 566 306 566 C382 566 413.333 529 428 473 L433 473 C463.667 529 501.667 566 575 566 C686.056 566 706 485.329 706 359 L706 0 L548 0 L548 367 C548 409.667 540 420 500 420 C454.667 420 439 399.667 439 377 L439 0 L285 0 L285 366 C285 408.667 273.667 420 235 420 C187 420 175 399.667 175 377 L175 0 L16 0 Z " />
<glyph glyph-name="n" unicode="n" horiz-adv-x="720" d="M51 0 L51 556 L195 556 L220 490 L230 490 C271.333 536.667 340.333 566 443 566 C596.333 566 679 492.333 679 359 L679 0 L490 0 L490 302 C490 386 456.333 416 379 416 C273.667 416 239 359.333 239 250 L239 0 L51 0 Z " />
<glyph glyph-name="o" unicode="o" horiz-adv-x="720" d="M26 282 C26 440.926 142.671 566 357 566 C562.255 566 696 449.645 696 272 C696 114.615 583.693 -10 365 -10 C145.338 -10 26 118.364 26 282 Z M212 277 C212 193 258.333 141 361 141 C465 141 510 193 510 277 C510 361 464 414 360 414 C256 414 212 357 212 277 Z " />
<glyph glyph-name="p" unicode="p" horiz-adv-x="720" d="M51 -240 L51 556 L190 556 L225 483 L234 483 C276.667 543 343.333 566 434 566 C614.208 566 696 420.052 696 284 C696 110.719 591.338 -10 427 -10 C345.667 -10 281.667 4.66667 235 54 L224 54 C229.117 38.6501 235 -15.5717 235 -46 L235 -240 L51 -240 Z M235 279 C235 176.333 278.333 141 373 141 C466.333 141 506 189.333 506 280 C506 370.667 468.333 414 371 414 C281.667 414 235 378.333 235 293 L235 279 Z " />
<glyph glyph-name="q" unicode="q" horiz-adv-x="720" d="M488 71 C449.333 11 377 -10 289 -10 C112.108 -10 26 135.641 26 277 C26 421.078 116.208 566 296 566 C376 566 445 550 493 486 L499 486 L530 556 L671 556 L671 -240 L487 -240 L487 -21 C487 3.63485 490.594 19.6404 496 71 L488 71 Z M496 274 C496 374 456 414 356 414 C260 414 217 369.667 217 275 C217 183 259 141 355 141 C453.667 141 496 190 496 258 L496 274 Z " />
<glyph glyph-name="r" unicode="r" horiz-adv-x="720" d="M30 132 L220 148 L220 406 L55 421 L55 556 L354 556 L380 467 L389 467 C423.667 523 484.333 566 583 566 C619 566 665.333 566 720 550 L674 372 C644.667 382.667 599.667 386 565 386 C463.667 386 397 347 397 251 L397 148 L596 132 L596 0 L30 0 L30 132 Z " />
<glyph glyph-name="s" unicode="s" horiz-adv-x="720" d="M83 184 C160.333 149.333 245.333 135 332 135 C412 135 453 140.333 453 163 C453 192.362 402.568 198.363 288 233 C162.667 270.333 93 316 93 396 C93 509.333 199 566 383 566 C467 566 544.667 554 634 522 L576 383 C504 411 443.667 422 389 422 C315 422 278 413.333 278 396 C278 375.605 321.31 369.007 436 337 C572.015 296.996 639 259.419 639 175 C639 65.6926 541.61 -10 322 -10 C236.667 -10 155 -1.66667 83 21 L83 184 Z " />
<glyph glyph-name="t" unicode="t" horiz-adv-x="720" d="M202 406 L20 406 L20 492 L216 554 L252 678 L390 678 L390 556 L651 556 L651 406 L389 406 L389 235 C389 145.848 449.978 146 515 146 C557.667 146 604 150.333 660 169 L660 20 C596 -1.33333 533.333 -10 468 -10 C289.333 -10 202 65.6667 202 207 L202 406 Z " />
<glyph glyph-name="u" unicode="u" horiz-adv-x="720" d="M43 556 L232 556 L232 254 C232 179.333 261.333 141 348 141 C456.39 141 483 197.411 483 280 L483 556 L671 556 L671 0 L526 0 L502 68 L491 68 C447 17.3333 379.667 -11 281 -11 C118.333 -11 43 61.6667 43 195 L43 556 Z " />
<glyph glyph-name="v" unicode="v" horiz-adv-x="720" d="M362 161 C375.692 193.862 385.409 203.021 401 242 L518 556 L716 556 L464 0 L250 0 L5 556 L201 556 L320 243 C333.26 203.22 344.508 193.381 358 161 L362 161 Z " />
<glyph glyph-name="w" unicode="w" horiz-adv-x="720" d="M193 173 C197 203.667 209.667 229 219 261 L282 492 L442 492 L501 261 C510.333 226.333 521.333 206.333 528 173 L534 173 C536.683 202.512 540.401 256.817 543 288 L572 556 L737 556 L643 0 L435 0 L394 157 C382 205 371 257 363 297 L357 297 C350.333 258.333 335 205 323 157 L280 0 L78 0 L-15 556 L152 556 L179 290 C181.697 260.336 184.3 199.997 187 173 L193 173 Z " />
<glyph glyph-name="x" unicode="x" horiz-adv-x="720" d="M5 0 L237 283 L15 556 L229 556 L360 415 L492 556 L705 556 L481 283 L716 0 L501 0 L357 151 L219 0 L5 0 Z " />
<glyph glyph-name="y" unicode="y" horiz-adv-x="720" d="M41 -95 C63.6667 -99 89.3333 -101 112 -101 C186.667 -101 234.667 -74.6667 272 -16 L292 7 L5 556 L204 556 L336 281 C348 253 363.333 230.667 374 196 L378 196 C388.667 226.667 404.333 262 411 282 L521 556 L716 556 L444 -50 C385.775 -182.33 303.913 -245 138 -245 C104.667 -245 71.6667 -243.667 41 -237 L41 -95 Z " />
<glyph glyph-name="z" unicode="z" horiz-adv-x="720" d="M64 109 L424 408 L82 408 L82 556 L646 556 L646 437 L298 148 L659 148 L659 0 L64 0 L64 109 Z " />
<glyph glyph-name="braceleft" unicode="&#x7b;" horiz-adv-x="720" d="M287 124 C287 179.922 214.693 207 140 207 L140 349 C214.693 349 287 376.126 287 431 L287 558 C287 678.996 407.719 725 581 725 L581 588 C522.305 585.332 458 586.927 458 540 L458 404 C458 325.675 397.577 291.797 322 281 L322 275 C398.324 264.473 458 226.028 458 155 L458 17 C458 -24.0174 517.947 -29.3728 581 -32 L581 -169 C410.281 -169 287 -133.203 287 0 L287 124 Z " />
<glyph glyph-name="bar" unicode="&#x7c;" horiz-adv-x="720" d="M287 -240 L287 760 L436 760 L436 -240 L287 -240 Z " />
<glyph glyph-name="braceright" unicode="&#x7d;" horiz-adv-x="720" d="M163 -32 C221.695 -29.3321 286 -30.9274 286 16 L286 152 C286 230.325 346.423 264.203 422 275 L422 281 C346.416 294.497 286 327.905 286 401 L286 539 C286 580.017 226.053 585.373 163 588 L163 725 C333.719 725 457 689.203 457 556 L457 432 C457 376.078 529.307 349 604 349 L604 207 C529.307 207 457 179.874 457 125 L457 -2 C457 -122.996 336.281 -169 163 -169 L163 -32 Z " />
<glyph glyph-name="asciitilde" unicode="&#x7e;" horiz-adv-x="720" d="M657 307 C615.667 272.333 563 255 499 255 C448.333 255 404.667 262 338 286 C283.333 306 246.667 312 208 312 C161.333 312 109 291.667 65 253 L65 397 C106.333 432.333 158.667 450 222 450 C272.667 450 317.667 441.667 383 419 C437.667 400.333 475.667 393 513 393 C559.667 393 614.333 414.667 657 452 L657 307 Z " />
<glyph glyph-name="uni00A0" unicode="&#xa0;" horiz-adv-x="720" />
<glyph glyph-name="exclamdown" unicode="&#xa1;" horiz-adv-x="720" d="M297 271 L463 271 L492 -185 L269 -185 L297 271 Z M270 444 C270 513.333 317.667 541 383 541 C447 541 494 513.333 494 444 C494 377.333 445.667 349 383 349 C319 349 270 377.333 270 444 Z " />
<glyph glyph-name="cent" unicode="&#xa2;" horiz-adv-x="720" d="M356 -10 L356 80 C169.333 94.6667 66.6667 198.333 68 361 C68 520.858 176.51 626.247 356 645 L356 724 L465 724 L465 649 C533 645 612.333 631 659 607 L608 467 C561.333 489.667 496.667 500 442 500 C320.667 500 250 463.333 250 362 C250 262 316.333 227 439 227 C511 227 586 244.667 642 278 L642 127 C599.333 104.333 533 85.6667 465 79 L465 -10 L356 -10 Z " />
<glyph glyph-name="sterling" unicode="&#xa3;" horiz-adv-x="720" d="M668 159 L668 0 L76 0 L76 153 C145.295 184.982 184 204.035 184 267 L184 305 L82 305 L82 440 L184 440 L184 508 C184 653.671 292.048 725 459 725 C539 725 604.333 710.333 667 685 L614 540 C563.333 558.667 525 567 481 567 C409 567 369 551.333 369 502 L369 440 L573 440 L573 305 L369 305 L369 268 C369 212 328.667 181.667 274 159 L668 159 Z " />
<glyph glyph-name="currency" unicode="&#xa4;" horiz-adv-x="720" d="M131 279 C105.667 309.667 93 341.667 93 375 C93 409.667 107 440 131 472 L44 536 L137 624 L223 559 C263 575 310.667 582 360 582 C410 582 455.667 573.667 497 557 L584 624 L678 539 L591 473 C615 445 629 411 629 375 C629 341 616.333 308.667 591 278 L675 214 L584 128 L497 193 C456.333 177 410.667 169 360 169 C308 169 260.667 175.333 222 190 L137 129 L45 215 L131 279 Z M223 375 C223 329.667 278.667 293 360 293 C442.667 293 500 330.333 500 377 C500 421.208 441.074 459 360 459 C280.892 459 223 421.303 223 375 Z " />
<glyph glyph-name="yen" unicode="&#xa5;" horiz-adv-x="720" d="M89 203 L270 203 L270 263 L89 263 L89 370 L234 370 L7 714 L203 714 L362 481 L519 714 L715 714 L485 370 L633 370 L633 263 L452 263 L452 203 L633 203 L633 96 L452 96 L452 0 L270 0 L270 96 L89 96 L89 203 Z " />
<glyph glyph-name="brokenbar" unicode="&#xa6;" horiz-adv-x="720" d="M286 -223 L286 182 L435 182 L435 -223 L286 -223 Z M286 354 L286 759 L435 759 L435 354 L286 354 Z " />
<glyph glyph-name="section" unicode="&#xa7;" horiz-adv-x="720" d="M102 159 C164.19 127.905 258.885 105 326 105 C410 105 447 117.667 447 147 C447 172.381 423.102 174.966 318 210 C181.924 255.359 104 297.777 104 383 C104 431 149 470.667 213 500 C149 533.333 117 573.333 117 620 C117 708 217.333 765 380 765 C470.667 765 543 749.667 611 723 L560 608 C502.667 634.667 444 652 380 652 C314.667 652 282 640.667 282 618 C282 592.667 320 576.667 412 550 C553.333 506 624 462.667 624 388 C624 332 583 297.333 523 264 C579 236 610 197.667 610 151 C610 57.6926 506.26 -10 326 -10 C234.667 -10 160 4.66667 102 34 L102 159 Z M419 316 C445.667 328 471 343 471 363 C471 400.063 434.226 423.585 318 450 C283.333 439.333 255 426.667 255 404 C255 374.667 293.333 359 388 327 L419 316 Z " />
<glyph glyph-name="dieresis" unicode="&#xa8;" horiz-adv-x="720" d="M118 690 C118 746 156.667 775 210 775 C263.333 775 305 744.667 305 690 C305 636.667 263.333 608 210 608 C156.667 608 118 635.333 118 690 Z M419 690 C419 746 457.667 775 511 775 C564.333 775 606 744.667 606 690 C606 636.667 564.333 608 511 608 C457.667 608 419 635.333 419 690 Z " />
<glyph glyph-name="copyright" unicode="&#xa9;" horiz-adv-x="720" d="M13 361 C13 529.996 168.225 632 362 632 C560.874 632 708 523.693 708 361 C708 191.225 555.749 88 362 88 C151.255 88 13 205.494 13 361 Z M102 361 C102 229.182 214.156 160 362 160 C511.203 160 619 239.848 619 361 C619 486.359 506.749 560 361 560 C209.078 560 102 480.056 102 361 Z M480 217 C444 201 409.667 195 367 195 C239 195 171 252.667 171 362 C171 466 241.333 524 364 524 C410.667 524 455.333 516.667 498 498 L463 425 C430.333 436.333 399.333 442 370 442 C310 442 272 413 272 361 C272 301 305.667 277 371 277 C406.333 277 442.667 285.333 480 302 L480 217 Z " />
<glyph glyph-name="ordfeminine" unicode="&#xaa;" horiz-adv-x="720" d="M185 683 C238.333 705.667 299 722 371 722 C493.667 722 556 671.667 556 581 L556 363 L471 363 L449 424 C414.333 381.333 369 357 301 357 C214.333 357 159 395.333 159 470 C159 559.776 238.274 584.332 369 587 L433 589 L433 592 C442.333 613.333 404.667 632 354 632 C311.333 632 269.667 621.667 223 603 L185 683 Z M433 523 L375 520 C303 516 283 498 283 478 C283 455.333 302.333 444 341 444 C401 444 433 476.333 433 511 L433 523 Z " />
<glyph glyph-name="guillemotleft" unicode="&#xab;" horiz-adv-x="720" d="M38 271 L38 285 L260 520 L389 452 L230 278 L389 104 L260 36 L38 271 Z M334 272 L334 286 L556 521 L685 453 L526 279 L685 105 L556 37 L334 272 Z " />
<glyph glyph-name="logicalnot" unicode="&#xac;" horiz-adv-x="720" d="M62 422 L649 422 L649 114 L504 114 L504 284 L62 284 L62 422 Z " />
<glyph glyph-name="uni00AD" unicode="&#xad;" horiz-adv-x="720" >
<g transform="translate(-22,0)" ><path fill="black" d="M169 350 L553 350 L553 190 L169 190 L169 350 Z " /></g></glyph>
<glyph glyph-name="registered" unicode="&#xae;" horiz-adv-x="720" d="M14 359 C14 529.667 167.333 631 362 631 C559.203 631 707 522.952 707 356 C707 186.978 554.338 82 358 82 C150 82 14 201.797 14 359 Z M103 356 C103 228.078 213.359 157 360 157 C510.874 157 618 237.355 618 359 C618 484.359 504.619 558 359 558 C209.667 558 103 477.022 103 356 Z M228 216 L228 506 L350 506 C452.667 506 500 477 500 413 C500 378.333 476.667 348.667 434 330 L527 216 L430 216 L356 316 L315 316 L315 216 L228 216 Z M315 377 L343 377 C385.667 377 412 386 412 410 C412 434 391 441 343 441 L315 441 L315 377 Z " />
<glyph glyph-name="macron" unicode="&#xaf;" horiz-adv-x="720" d="M155 748 L562 748 L562 629 L155 629 L155 748 Z " />
<glyph glyph-name="degree" unicode="&#xb0;" horiz-adv-x="720" d="M151 559 C151 657.745 244.688 724 361 724 C477.312 724 571 657.745 571 559 C571 460.385 479.874 393 361 393 C240.948 393 151 460.385 151 559 Z M266 559 C266 524.333 307.333 500 362 500 C418 500 458 527 458 559 C458 597.667 415.333 618 362 618 C306 618 266 596.333 266 559 Z " />
<glyph glyph-name="plusminus" unicode="&#xb1;" horiz-adv-x="720" d="M65 482 L286 482 L286 659 L432 659 L432 482 L653 482 L653 344 L432 344 L432 170 L286 170 L286 344 L65 344 L65 482 Z M67 137 L655 137 L655 0 L67 0 L67 137 Z " />
<glyph glyph-name="twosuperior" unicode="&#xb2;" horiz-adv-x="720" d="M171 523 L308 621 C387.998 676.999 412 695.1 412 718 C412 738 389.667 748 345 748 C303.667 748 271.667 737.667 233 707 L167 788 C211 825.333 278 857 366 857 C484.667 857 548 807 548 735 C548 663 496.333 594.667 375 540 L331 524 L570 524 L570 416 L171 416 L171 523 Z " />
<glyph glyph-name="threesuperior" unicode="&#xb3;" horiz-adv-x="720" d="M170 559 C220.667 528.333 279 516 335 516 C399 516 428 525.667 428 551 C428 569.667 399 584 327 584 L260 584 L260 679 L318 679 C387.333 679 415 692.333 415 715 C415 733.667 392.333 750 347 750 C304.333 750 268.667 739.667 226 713 L166 795 C220.667 831 281.333 853 360 853 C473.333 853 542 814.667 542 748 C542 698.667 510.333 663.667 453 641 L453 637 C521 619.667 559 588.333 559 531 C559 451 479.333 408 342 408 C274.667 408 217.333 419.333 170 442 L170 559 Z " />
<glyph glyph-name="acute" unicode="&#xb4;" horiz-adv-x="720" d="M248 606 L248 620 C290.667 668 341.667 722 375 766 L584 766 L584 756 C542.877 720.36 441.87 648.157 376 606 L248 606 Z " />
<glyph glyph-name="mu" unicode="&#xb5;" horiz-adv-x="720" d="M43 90 C28.3333 118.667 21 153.667 21 195 L21 556 L210 556 L210 254 C210 243.333 210.667 235 212 227 L230 227 L230 177 C248.667 153 278 141 326 141 C434.39 141 461 197.411 461 280 L461 556 L649 556 L649 0 L504 0 L480 68 L469 68 C425 17.3333 357.667 -11 259 -11 C248.333 -11 239.333 -11.3333 230 -10 L230 -240 L43 -240 L43 90 Z " />
<glyph glyph-name="paragraph" unicode="&#xb6;" horiz-adv-x="720" d="M375 -127 L375 273 C351 267 324 264 294 264 C123.333 264 29 338.333 29 509 C29 682.333 132 760 312 760 L678 760 L678 -127 L578 -127 L578 664 L475 664 L475 -127 L375 -127 Z " />
<glyph glyph-name="periodcentered" unicode="&#xb7;" horiz-adv-x="720" >
<g transform="translate(-23,257)" ><path fill="black" d="M250 88 C250 157.333 297.667 185 363 185 C427 185 474 157.333 474 88 C474 21.3333 425.667 -7 363 -7 C299 -7 250 21.3333 250 88 Z " /></g></glyph>
<glyph glyph-name="cedilla" unicode="&#xb8;" horiz-adv-x="720" d="M219 -132 C241.667 -138.667 269.333 -142 292 -142 C336 -142 361 -130.667 361 -116 C361 -93.3333 327.667 -80 261 -76 L308 4 L406 4 L383 -30 C455 -40.6667 501 -69.6667 501 -127 C501 -195 437.333 -240 316 -240 C281.333 -240 244.333 -235 219 -227 L219 -132 Z " />
<glyph glyph-name="onesuperior" unicode="&#xb9;" horiz-adv-x="720" d="M192 509 L325 519 L325 584 C325 613.333 326 667.667 330 705 C312.667 695.667 292.667 688.667 278 682 L214 655 L152 749 L346 844 L453 844 L453 519 L581 509 L581 416 L192 416 L192 509 Z " />
<glyph glyph-name="ordmasculine" unicode="&#xba;" horiz-adv-x="720" d="M152 539 C152 656.333 231.333 722 362 722 C483.074 722 570 655.494 570 539 C570 424.333 488.333 357 359 357 C234.61 357 152 427.156 152 539 Z M360 454 C418.667 454 443 481.667 443 539 C443 597.667 418.667 627 360 627 C301.333 627 276 599 276 539 C276 481.667 300 454 360 454 Z " />
<glyph glyph-name="guillemotright" unicode="&#xbb;" horiz-adv-x="720" d="M218 279 L59 453 L188 521 L410 286 L410 272 L188 37 L59 105 L218 279 Z M515 279 L356 453 L485 521 L707 286 L707 272 L485 37 L356 105 L515 279 Z " />
<glyph glyph-name="onequarter" unicode="&#xbc;" horiz-adv-x="720" d="M131 -2 L364 269 L504 269 L504 5 L590 5 L590 -95 L504 -95 L504 -160 L376 -160 L376 -95 L131 -95 L131 -2 Z M186 559 L319 569 L319 634 C319 663.333 320 717.667 324 755 C306.667 745.667 286.667 738.667 272 732 L208 705 L146 799 L340 894 L447 894 L447 569 L575 559 L575 466 L186 466 L186 559 Z M70 382 L643 439 L643 356 L70 299 L70 382 Z M376 5 L376 85 C376 109 377.333 124.333 380 147 C368 117.667 342.667 96.3333 328 83 L245 5 L376 5 Z " />
<glyph glyph-name="onehalf" unicode="&#xbd;" horiz-adv-x="720" >
<g transform="translate(-6,50)" ><path fill="black" d="M192 509 L325 519 L325 584 C325 613.333 326 667.667 330 705 C312.667 695.667 292.667 688.667 278 682 L214 655 L152 749 L346 844 L453 844 L453 519 L581 509 L581 416 L192 416 L192 509 Z " /></g><g transform="translate(-8,-576)" ><path fill="black" d="M171 523 L308 621 C387.998 676.999 412 695.1 412 718 C412 738 389.667 748 345 748 C303.667 748 271.667 737.667 233 707 L167 788 C211 825.333 278 857 366 857 C484.667 857 548 807 548 735 C548 663 496.333 594.667 375 540 L331 524 L570 524 L570 416 L171 416 L171 523 Z " /></g><path fill="black" d="M70 382 L643 439 L643 356 L70 299 L70 382 Z " /></glyph>
<glyph glyph-name="threequarters" unicode="&#xbe;" horiz-adv-x="720" >
<g transform="translate(4,-576)" ><path fill="black" d="M127 574 L360 845 L500 845 L500 581 L586 581 L586 481 L500 481 L500 416 L372 416 L372 481 L127 481 L127 574 Z M241 581 L372 581 L372 661 C372 685 373.333 700.333 376 723 C364 693.667 338.667 672.333 324 659 L241 581 Z " /></g><g transform="translate(-2,50)" ><path fill="black" d="M170 559 C220.667 528.333 279 516 335 516 C399 516 428 525.667 428 551 C428 569.667 399 584 327 584 L260 584 L260 679 L318 679 C387.333 679 415 692.333 415 715 C415 733.667 392.333 750 347 750 C304.333 750 268.667 739.667 226 713 L166 795 C220.667 831 281.333 853 360 853 C473.333 853 542 814.667 542 748 C542 698.667 510.333 663.667 453 641 L453 637 C521 619.667 559 588.333 559 531 C559 451 479.333 408 342 408 C274.667 408 217.333 419.333 170 442 L170 559 Z " /></g><path fill="black" d="M70 382 L643 439 L643 356 L70 299 L70 382 Z " /></glyph>
<glyph glyph-name="questiondown" unicode="&#xbf;" horiz-adv-x="720" d="M308 271 L475 271 L475 227 C475 167 447.667 126.333 357 85 C279.667 49 263 22.6667 263 0 C263 -26.6667 301 -42 369 -42 C437 -42 498 -24.6667 574 14 L642 -124 C558 -169.333 471 -195 359 -195 C180.333 -195 77 -125 77 -17 C77 59 115.333 119 214 163 C292.993 197.23 308 216.516 308 244 L308 271 Z M277 444 C277 513.333 324.667 541 390 541 C454 541 501 513.333 501 444 C501 377.333 452.667 349 390 349 C326 349 277 377.333 277 444 Z " />
<glyph glyph-name="Agrave" unicode="&#xc0;" horiz-adv-x="720" >
<path fill="black" d="M239 717 L481 717 L730 0 L544 0 L498 137 L223 137 L176 0 L-9 0 L239 717 Z M274 287 L448 287 L406 414 C387.378 464.545 369.841 547.57 362 592 C351.397 546.939 336.223 466.065 318 414 L274 287 Z " /><g transform="translate(-53,158)" ><path fill="black" d="M182 766 L391 766 C423.523 725.346 483.31 652.021 518 620 L518 606 L390 606 C333.7 638.172 222.753 720.68 182 756 L182 766 Z " /></g></glyph>
<glyph glyph-name="Aacute" unicode="&#xc1;" horiz-adv-x="720" d="M239 717 L481 717 L730 0 L544 0 L498 137 L223 137 L176 0 L-9 0 L239 717 Z M262 778 C304.667 826 355.667 880 389 924 L598 924 L598 914 C556.877 878.36 455.87 806.157 390 764 L262 764 L262 778 Z M274 287 L448 287 L406 414 C387.378 464.545 369.841 547.57 362 592 C351.397 546.939 336.223 466.065 318 414 L274 287 Z " />
<glyph glyph-name="Acircumflex" unicode="&#xc2;" horiz-adv-x="720" d="M239 717 L481 717 L730 0 L544 0 L498 137 L223 137 L176 0 L-9 0 L239 717 Z M123 778 C167.641 814.763 239.075 886.754 271 924 L451 924 C482.805 878.943 549.618 824.783 599 778 L599 764 L479 764 C440.333 782.667 402.667 804.333 360 835 C316 803 280.333 781.333 243 764 L123 764 L123 778 Z M274 287 L448 287 L406 414 C387.378 464.545 369.841 547.57 362 592 C351.397 546.939 336.223 466.065 318 414 L274 287 Z " />
<glyph glyph-name="Atilde" unicode="&#xc3;" horiz-adv-x="720" >
<path fill="black" d="M239 717 L481 717 L730 0 L544 0 L498 137 L223 137 L176 0 L-9 0 L239 717 Z M274 287 L448 287 L406 414 C387.378 464.545 369.841 547.57 362 592 C351.397 546.939 336.223 466.065 318 414 L274 287 Z " /><g transform="translate(0,158)" ><path fill="black" d="M114 606 C119.342 696.822 160.66 776 254 776 C331.444 776 394.222 730 453 730 C490.333 730 499.667 746.333 509 777 L608 777 C601.333 658.333 547 607 467 607 C392.444 607 321.889 652 266 652 C235.333 652 221 644.667 213 606 L114 606 Z " /></g></glyph>
<glyph glyph-name="Adieresis" unicode="&#xc4;" horiz-adv-x="720" >
<g transform="translate(-1,154)" ><path fill="black" d="M118 690 C118 746 156.667 775 210 775 C263.333 775 305 744.667 305 690 C305 636.667 263.333 608 210 608 C156.667 608 118 635.333 118 690 Z M419 690 C419 746 457.667 775 511 775 C564.333 775 606 744.667 606 690 C606 636.667 564.333 608 511 608 C457.667 608 419 635.333 419 690 Z " /></g><path fill="black" d="M239 717 L481 717 L730 0 L544 0 L498 137 L223 137 L176 0 L-9 0 L239 717 Z M274 287 L448 287 L406 414 C387.378 464.545 369.841 547.57 362 592 C351.397 546.939 336.223 466.065 318 414 L274 287 Z " /></glyph>
<glyph glyph-name="Aring" unicode="&#xc5;" horiz-adv-x="720" >
<path fill="black" d="M239 717 L481 717 L730 0 L544 0 L498 137 L223 137 L176 0 L-9 0 L239 717 Z M274 287 L448 287 L406 414 C387.378 464.545 369.841 547.57 362 592 C351.397 546.939 336.223 466.065 318 414 L274 287 Z " /><g transform="translate(1,158)" ><path fill="black" d="M198 728 C198 805.333 262.667 856 360 856 C453.307 856 521 803.797 521 729 C521 655.381 453.307 602 360 602 C262.667 602 198 653.333 198 728 Z M297 730 C297 706 320.333 688 359 688 C395 688 421 706 421 730 C421 752.667 395 771 359 771 C324.333 771 297 752.667 297 730 Z " /></g></glyph>
<glyph glyph-name="AE" unicode="&#xc6;" horiz-adv-x="720" d="M197 714 L708 714 L708 556 L532 556 L532 448 L684 448 L684 289 L532 289 L532 159 L708 159 L708 0 L359 0 L359 140 L210 140 L171 0 L-9 0 L197 714 Z M359 298 L359 558 L325 558 L253 298 L359 298 Z " />
<glyph glyph-name="Ccedilla" unicode="&#xc7;" horiz-adv-x="720" d="M267 -132 C289.667 -138.667 317.333 -142 340 -142 C384 -142 409 -130.667 409 -116 C409 -93.3333 375.667 -80 309 -76 L350 -6 C140.667 18 40 147.667 40 345 C40 583.848 192.615 724 454 724 C543.333 724 619.667 712.333 697 683 L641 528 C583.667 552 518 561 462 561 C300.667 561 230 477.667 230 347 C230 205.667 298.333 152 449 152 C515.667 152 592 170 660 202 L660 33 C592 6.33333 518.333 -7.33333 445 -10 L431 -30 C503 -40.6667 549 -69.6667 549 -127 C549 -195 485.333 -240 364 -240 C329.333 -240 292.333 -235 267 -227 L267 -132 Z " />
<glyph glyph-name="Egrave" unicode="&#xc8;" horiz-adv-x="720" >
<path fill="black" d="M659 159 L659 0 L69 0 L69 714 L659 714 L659 555 L254 555 L254 444 L638 444 L638 285 L254 285 L254 159 L659 159 Z " /><g transform="translate(-48,158)" ><path fill="black" d="M182 766 L391 766 C423.523 725.346 483.31 652.021 518 620 L518 606 L390 606 C333.7 638.172 222.753 720.68 182 756 L182 766 Z " /></g></glyph>
<glyph glyph-name="Eacute" unicode="&#xc9;" horiz-adv-x="720" >
<path fill="black" d="M659 159 L659 0 L69 0 L69 714 L659 714 L659 555 L254 555 L254 444 L638 444 L638 285 L254 285 L254 159 L659 159 Z " /><g transform="translate(19,158)" ><path fill="black" d="M248 606 L248 620 C290.667 668 341.667 722 375 766 L584 766 L584 756 C542.877 720.36 441.87 648.157 376 606 L248 606 Z " /></g></glyph>
<glyph glyph-name="Ecircumflex" unicode="&#xca;" horiz-adv-x="720" >
<path fill="black" d="M659 159 L659 0 L69 0 L69 714 L659 714 L659 555 L254 555 L254 444 L638 444 L638 285 L254 285 L254 159 L659 159 Z " /><g transform="translate(5,158)" ><path fill="black" d="M123 606 L123 620 C167.641 656.763 239.075 728.754 271 766 L451 766 C482.805 720.943 549.618 666.783 599 620 L599 606 L479 606 C440.333 624.667 402.667 646.333 360 677 C316 645 280.333 623.333 243 606 L123 606 Z " /></g></glyph>
<glyph glyph-name="Edieresis" unicode="&#xcb;" horiz-adv-x="720" >
<g transform="translate(4,154)" ><path fill="black" d="M118 690 C118 746 156.667 775 210 775 C263.333 775 305 744.667 305 690 C305 636.667 263.333 608 210 608 C156.667 608 118 635.333 118 690 Z M419 690 C419 746 457.667 775 511 775 C564.333 775 606 744.667 606 690 C606 636.667 564.333 608 511 608 C457.667 608 419 635.333 419 690 Z " /></g><path fill="black" d="M659 159 L659 0 L69 0 L69 714 L659 714 L659 555 L254 555 L254 444 L638 444 L638 285 L254 285 L254 159 L659 159 Z " /></glyph>
<glyph glyph-name="Igrave" unicode="&#xcc;" horiz-adv-x="720" >
<path fill="black" d="M84 133 L269 149 L269 565 L84 581 L84 714 L637 714 L637 581 L452 565 L452 149 L637 133 L637 0 L84 0 L84 133 Z " /><g transform="translate(-54,158)" ><path fill="black" d="M182 766 L391 766 C423.523 725.346 483.31 652.021 518 620 L518 606 L390 606 C333.7 638.172 222.753 720.68 182 756 L182 766 Z " /></g></glyph>
<glyph glyph-name="Iacute" unicode="&#xcd;" horiz-adv-x="720" >
<path fill="black" d="M84 133 L269 149 L269 565 L84 581 L84 714 L637 714 L637 581 L452 565 L452 149 L637 133 L637 0 L84 0 L84 133 Z " /><g transform="translate(13,158)" ><path fill="black" d="M248 606 L248 620 C290.667 668 341.667 722 375 766 L584 766 L584 756 C542.877 720.36 441.87 648.157 376 606 L248 606 Z " /></g></glyph>
<glyph glyph-name="Icircumflex" unicode="&#xce;" horiz-adv-x="720" >
<path fill="black" d="M84 133 L269 149 L269 565 L84 581 L84 714 L637 714 L637 581 L452 565 L452 149 L637 133 L637 0 L84 0 L84 133 Z " /><g transform="translate(-1,158)" ><path fill="black" d="M123 606 L123 620 C167.641 656.763 239.075 728.754 271 766 L451 766 C482.805 720.943 549.618 666.783 599 620 L599 606 L479 606 C440.333 624.667 402.667 646.333 360 677 C316 645 280.333 623.333 243 606 L123 606 Z " /></g></glyph>
<glyph glyph-name="Idieresis" unicode="&#xcf;" horiz-adv-x="720" >
<g transform="translate(-2,154)" ><path fill="black" d="M118 690 C118 746 156.667 775 210 775 C263.333 775 305 744.667 305 690 C305 636.667 263.333 608 210 608 C156.667 608 118 635.333 118 690 Z M419 690 C419 746 457.667 775 511 775 C564.333 775 606 744.667 606 690 C606 636.667 564.333 608 511 608 C457.667 608 419 635.333 419 690 Z " /></g><path fill="black" d="M84 133 L269 149 L269 565 L84 581 L84 714 L637 714 L637 581 L452 565 L452 149 L637 133 L637 0 L84 0 L84 133 Z " /></glyph>
<glyph glyph-name="Eth" unicode="&#xd0;" horiz-adv-x="720" d="M25 282 L-22 282 L-22 428 L25 428 L25 714 L288 714 C541.203 714 693 589.078 693 373 C693 133.026 527.723 0 270 0 L25 0 L25 282 Z M262 155 C427.333 155 502 229.333 502 364 C502 497.333 423 559 279 559 L207 559 L207 428 L356 428 L356 282 L207 282 L207 155 L262 155 Z " />
<glyph glyph-name="Ntilde" unicode="&#xd1;" horiz-adv-x="720" >
<path fill="black" d="M40 0 L40 714 L295 714 L520 159 L525 159 C517 248.333 509 329.333 509 392 L509 714 L681 714 L681 0 L436 0 L201 549 L194 549 C204.728 409.538 212 371.458 212 312 L212 0 L40 0 Z " /><g transform="translate(6,158)" ><path fill="black" d="M114 606 C119.342 696.822 160.66 776 254 776 C331.444 776 394.222 730 453 730 C490.333 730 499.667 746.333 509 777 L608 777 C601.333 658.333 547 607 467 607 C392.444 607 321.889 652 266 652 C235.333 652 221 644.667 213 606 L114 606 Z " /></g></glyph>
<glyph glyph-name="Ograve" unicode="&#xd2;" horiz-adv-x="720" >
<path fill="black" d="M361 -9 C121 -9 14 119 14 359 C14 597.667 121 725 361 725 C601 725 708 595.667 708 357 C708 122.333 602.333 -9 361 -9 Z M362 150 C479.333 150 516 217.667 516 359 C516 502.004 479.281 564 362 564 C247.333 564 206 504.667 206 358 C206 212.667 246 150 362 150 Z " /><g transform="translate(-53,158)" ><path fill="black" d="M182 766 L391 766 C423.523 725.346 483.31 652.021 518 620 L518 606 L390 606 C333.7 638.172 222.753 720.68 182 756 L182 766 Z " /></g></glyph>
<glyph glyph-name="Oacute" unicode="&#xd3;" horiz-adv-x="720" >
<path fill="black" d="M361 -9 C121 -9 14 119 14 359 C14 597.667 121 725 361 725 C601 725 708 595.667 708 357 C708 122.333 602.333 -9 361 -9 Z M362 150 C479.333 150 516 217.667 516 359 C516 502.004 479.281 564 362 564 C247.333 564 206 504.667 206 358 C206 212.667 246 150 362 150 Z " /><g transform="translate(14,158)" ><path fill="black" d="M248 606 L248 620 C290.667 668 341.667 722 375 766 L584 766 L584 756 C542.877 720.36 441.87 648.157 376 606 L248 606 Z " /></g></glyph>
<glyph glyph-name="Ocircumflex" unicode="&#xd4;" horiz-adv-x="720" >
<path fill="black" d="M361 -9 C121 -9 14 119 14 359 C14 597.667 121 725 361 725 C601 725 708 595.667 708 357 C708 122.333 602.333 -9 361 -9 Z M362 150 C479.333 150 516 217.667 516 359 C516 502.004 479.281 564 362 564 C247.333 564 206 504.667 206 358 C206 212.667 246 150 362 150 Z " /><g transform="translate(0,158)" ><path fill="black" d="M123 606 L123 620 C167.641 656.763 239.075 728.754 271 766 L451 766 C482.805 720.943 549.618 666.783 599 620 L599 606 L479 606 C440.333 624.667 402.667 646.333 360 677 C316 645 280.333 623.333 243 606 L123 606 Z " /></g></glyph>
<glyph glyph-name="Otilde" unicode="&#xd5;" horiz-adv-x="720" >
<path fill="black" d="M361 -9 C121 -9 14 119 14 359 C14 597.667 121 725 361 725 C601 725 708 595.667 708 357 C708 122.333 602.333 -9 361 -9 Z M362 150 C479.333 150 516 217.667 516 359 C516 502.004 479.281 564 362 564 C247.333 564 206 504.667 206 358 C206 212.667 246 150 362 150 Z " /><g transform="translate(0,158)" ><path fill="black" d="M114 606 C119.342 696.822 160.66 776 254 776 C331.444 776 394.222 730 453 730 C490.333 730 499.667 746.333 509 777 L608 777 C601.333 658.333 547 607 467 607 C392.444 607 321.889 652 266 652 C235.333 652 221 644.667 213 606 L114 606 Z " /></g></glyph>
<glyph glyph-name="Odieresis" unicode="&#xd6;" horiz-adv-x="720" >
<g transform="translate(-1,154)" ><path fill="black" d="M118 690 C118 746 156.667 775 210 775 C263.333 775 305 744.667 305 690 C305 636.667 263.333 608 210 608 C156.667 608 118 635.333 118 690 Z M419 690 C419 746 457.667 775 511 775 C564.333 775 606 744.667 606 690 C606 636.667 564.333 608 511 608 C457.667 608 419 635.333 419 690 Z " /></g><path fill="black" d="M361 -9 C121 -9 14 119 14 359 C14 597.667 121 725 361 725 C601 725 708 595.667 708 357 C708 122.333 602.333 -9 361 -9 Z M362 150 C479.333 150 516 217.667 516 359 C516 502.004 479.281 564 362 564 C247.333 564 206 504.667 206 358 C206 212.667 246 150 362 150 Z " /></glyph>
<glyph glyph-name="multiply" unicode="&#xd7;" horiz-adv-x="720" d="M74 231 L258 353 L73 475 L172 574 L359 453 L547 574 L649 479 L460 353 L646 229 L547 133 L358 256 L172 132 L74 231 Z " />
<glyph glyph-name="Oslash" unicode="&#xd8;" horiz-adv-x="720" d="M72 89 C18.6667 150.333 -8 240.333 -8 359 C-8 597.667 99 725 339 725 C421 725 488.667 709.667 542 679 L608 761 L713 702 L629 596 C667 537.333 686 457.667 686 357 C686 122.333 580.333 -9 339 -9 C273.667 -9 217.667 0.666667 171 20 L117 -48 L11 12 L72 89 Z M433 542 C410.333 556.667 379.333 564 340 564 C225.333 564 184 504.667 184 358 C184 311.333 188.333 273.667 197 245 L433 542 Z M280 157 C296 152.333 316 150 340 150 C457.333 150 494 217.667 494 359 C494 382.333 493 403.333 491 422 L280 157 Z " />
<glyph glyph-name="Ugrave" unicode="&#xd9;" horiz-adv-x="720" >
<path fill="black" d="M40 714 L228 714 L228 280 C228 182.355 260.411 154 359 154 C460.177 154 493 181.13 493 281 L493 714 L681 714 L681 269 C681 89 583 -10 359 -10 C146.333 -10 40 81.3333 40 264 L40 714 Z " /><g transform="translate(-54,158)" ><path fill="black" d="M182 766 L391 766 C423.523 725.346 483.31 652.021 518 620 L518 606 L390 606 C333.7 638.172 222.753 720.68 182 756 L182 766 Z " /></g></glyph>
<glyph glyph-name="Uacute" unicode="&#xda;" horiz-adv-x="720" >
<path fill="black" d="M40 714 L228 714 L228 280 C228 182.355 260.411 154 359 154 C460.177 154 493 181.13 493 281 L493 714 L681 714 L681 269 C681 89 583 -10 359 -10 C146.333 -10 40 81.3333 40 264 L40 714 Z " /><g transform="translate(13,158)" ><path fill="black" d="M248 606 L248 620 C290.667 668 341.667 722 375 766 L584 766 L584 756 C542.877 720.36 441.87 648.157 376 606 L248 606 Z " /></g></glyph>
<glyph glyph-name="Ucircumflex" unicode="&#xdb;" horiz-adv-x="720" >
<path fill="black" d="M40 714 L228 714 L228 280 C228 182.355 260.411 154 359 154 C460.177 154 493 181.13 493 281 L493 714 L681 714 L681 269 C681 89 583 -10 359 -10 C146.333 -10 40 81.3333 40 264 L40 714 Z " /><g transform="translate(-1,158)" ><path fill="black" d="M123 606 L123 620 C167.641 656.763 239.075 728.754 271 766 L451 766 C482.805 720.943 549.618 666.783 599 620 L599 606 L479 606 C440.333 624.667 402.667 646.333 360 677 C316 645 280.333 623.333 243 606 L123 606 Z " /></g></glyph>
<glyph glyph-name="Udieresis" unicode="&#xdc;" horiz-adv-x="720" >
<g transform="translate(-2,154)" ><path fill="black" d="M118 690 C118 746 156.667 775 210 775 C263.333 775 305 744.667 305 690 C305 636.667 263.333 608 210 608 C156.667 608 118 635.333 118 690 Z M419 690 C419 746 457.667 775 511 775 C564.333 775 606 744.667 606 690 C606 636.667 564.333 608 511 608 C457.667 608 419 635.333 419 690 Z " /></g><path fill="black" d="M40 714 L228 714 L228 280 C228 182.355 260.411 154 359 154 C460.177 154 493 181.13 493 281 L493 714 L681 714 L681 269 C681 89 583 -10 359 -10 C146.333 -10 40 81.3333 40 264 L40 714 Z " /></glyph>
<glyph glyph-name="Yacute" unicode="&#xdd;" horiz-adv-x="720" >
<path fill="black" d="M269 276 L4 714 L205 714 L363 473 L520 714 L718 714 L453 276 L453 0 L269 0 L269 276 Z " /><g transform="translate(14,158)" ><path fill="black" d="M248 606 L248 620 C290.667 668 341.667 722 375 766 L584 766 L584 756 C542.877 720.36 441.87 648.157 376 606 L248 606 Z " /></g></glyph>
<glyph glyph-name="Thorn" unicode="&#xde;" horiz-adv-x="720" d="M69 0 L69 714 L250 714 L250 595 L375 595 C593.667 595 695 514.333 695 365 C695 226.385 605.156 115 365 115 L250 115 L250 0 L69 0 Z M250 267 L345 267 C453 267 508 300.667 508 362 C508 412.667 460 443 356 443 L250 443 L250 267 Z " />
<glyph glyph-name="germandbls" unicode="&#xdf;" horiz-adv-x="720" d="M47 531 C47 675.156 169.359 765 356 765 C528.234 765 649 698.892 649 578 C649 460.667 502 431.333 502 394 C502 374 532.667 358.333 598 325 C674.835 290.557 726 250.379 726 167 C726 52.3333 638 -10 474 -10 C411.333 -10 346.667 -4.66667 296 18 L296 172 C340 149.333 401.333 134 456 134 C516 134 545 143.333 545 170 C545 184.333 527.607 192.029 445 232 C367.667 270.667 321 303.667 321 369 C321 475.229 469 487.34 469 560 C469 594.667 426 616 350 616 C266 616 223 576.333 223 507 L223 0 L47 0 L47 531 Z " />
<glyph glyph-name="agrave" unicode="&#xe0;" horiz-adv-x="720" >
<path fill="black" d="M95 515 C175 551 263 566 367 566 C561.667 566 659 503.667 659 379 L659 0 L517 0 L495 66 L491 66 C426.606 -1.07673 349.137 -10 275 -10 C125.745 -10 44 64.1558 44 168 C44 295.197 158.408 347.32 338 350 L483 354 L482 371 C482 401.667 435 419 347 419 C284.333 419 217.667 409.667 155 387 L95 515 Z M483 242 L393 241 C273 241 219 226.667 219 184 C219 152 259 136 323 136 C408.333 136 483 162.667 483 216 L483 242 Z " /><g transform="translate(-42,0)" ><path fill="black" d="M182 766 L391 766 C423.523 725.346 483.31 652.021 518 620 L518 606 L390 606 C333.7 638.172 222.753 720.68 182 756 L182 766 Z " /></g></glyph>
<glyph glyph-name="aacute" unicode="&#xe1;" horiz-adv-x="720" >
<path fill="black" d="M95 515 C175 551 263 566 367 566 C561.667 566 659 503.667 659 379 L659 0 L517 0 L495 66 L491 66 C426.606 -1.07673 349.137 -10 275 -10 C125.745 -10 44 64.1558 44 168 C44 295.197 158.408 347.32 338 350 L483 354 L482 371 C482 401.667 435 419 347 419 C284.333 419 217.667 409.667 155 387 L95 515 Z M483 242 L393 241 C273 241 219 226.667 219 184 C219 152 259 136 323 136 C408.333 136 483 162.667 483 216 L483 242 Z " /><g transform="translate(25,0)" ><path fill="black" d="M248 606 L248 620 C290.667 668 341.667 722 375 766 L584 766 L584 756 C542.877 720.36 441.87 648.157 376 606 L248 606 Z " /></g></glyph>
<glyph glyph-name="acircumflex" unicode="&#xe2;" horiz-adv-x="720" >
<path fill="black" d="M95 515 C175 551 263 566 367 566 C561.667 566 659 503.667 659 379 L659 0 L517 0 L495 66 L491 66 C426.606 -1.07673 349.137 -10 275 -10 C125.745 -10 44 64.1558 44 168 C44 295.197 158.408 347.32 338 350 L483 354 L482 371 C482 401.667 435 419 347 419 C284.333 419 217.667 409.667 155 387 L95 515 Z M483 242 L393 241 C273 241 219 226.667 219 184 C219 152 259 136 323 136 C408.333 136 483 162.667 483 216 L483 242 Z " /><g transform="translate(11,0)" ><path fill="black" d="M123 606 L123 620 C167.641 656.763 239.075 728.754 271 766 L451 766 C482.805 720.943 549.618 666.783 599 620 L599 606 L479 606 C440.333 624.667 402.667 646.333 360 677 C316 645 280.333 623.333 243 606 L123 606 Z " /></g></glyph>
<glyph glyph-name="atilde" unicode="&#xe3;" horiz-adv-x="720" >
<path fill="black" d="M95 515 C175 551 263 566 367 566 C561.667 566 659 503.667 659 379 L659 0 L517 0 L495 66 L491 66 C426.606 -1.07673 349.137 -10 275 -10 C125.745 -10 44 64.1558 44 168 C44 295.197 158.408 347.32 338 350 L483 354 L482 371 C482 401.667 435 419 347 419 C284.333 419 217.667 409.667 155 387 L95 515 Z M483 242 L393 241 C273 241 219 226.667 219 184 C219 152 259 136 323 136 C408.333 136 483 162.667 483 216 L483 242 Z " /><g transform="translate(11,0)" ><path fill="black" d="M114 606 C119.342 696.822 160.66 776 254 776 C331.444 776 394.222 730 453 730 C490.333 730 499.667 746.333 509 777 L608 777 C601.333 658.333 547 607 467 607 C392.444 607 321.889 652 266 652 C235.333 652 221 644.667 213 606 L114 606 Z " /></g></glyph>
<glyph glyph-name="adieresis" unicode="&#xe4;" horiz-adv-x="720" >
<g transform="translate(10,-4)" ><path fill="black" d="M118 690 C118 746 156.667 775 210 775 C263.333 775 305 744.667 305 690 C305 636.667 263.333 608 210 608 C156.667 608 118 635.333 118 690 Z M419 690 C419 746 457.667 775 511 775 C564.333 775 606 744.667 606 690 C606 636.667 564.333 608 511 608 C457.667 608 419 635.333 419 690 Z " /></g><path fill="black" d="M95 515 C175 551 263 566 367 566 C561.667 566 659 503.667 659 379 L659 0 L517 0 L495 66 L491 66 C426.606 -1.07673 349.137 -10 275 -10 C125.745 -10 44 64.1558 44 168 C44 295.197 158.408 347.32 338 350 L483 354 L482 371 C482 401.667 435 419 347 419 C284.333 419 217.667 409.667 155 387 L95 515 Z M483 242 L393 241 C273 241 219 226.667 219 184 C219 152 259 136 323 136 C408.333 136 483 162.667 483 216 L483 242 Z " /></glyph>
<glyph glyph-name="aring" unicode="&#xe5;" horiz-adv-x="720" >
<path fill="black" d="M95 515 C175 551 263 566 367 566 C561.667 566 659 503.667 659 379 L659 0 L517 0 L495 66 L491 66 C426.606 -1.07673 349.137 -10 275 -10 C125.745 -10 44 64.1558 44 168 C44 295.197 158.408 347.32 338 350 L483 354 L482 371 C482 401.667 435 419 347 419 C284.333 419 217.667 409.667 155 387 L95 515 Z M483 242 L393 241 C273 241 219 226.667 219 184 C219 152 259 136 323 136 C408.333 136 483 162.667 483 216 L483 242 Z " /><g transform="translate(12,0)" ><path fill="black" d="M198 728 C198 805.333 262.667 856 360 856 C453.307 856 521 803.797 521 729 C521 655.381 453.307 602 360 602 C262.667 602 198 653.333 198 728 Z M297 730 C297 706 320.333 688 359 688 C395 688 421 706 421 730 C421 752.667 395 771 359 771 C324.333 771 297 752.667 297 730 Z " /></g></glyph>
<glyph glyph-name="ae" unicode="&#xe6;" horiz-adv-x="720" d="M288 342 L288 367 C288 409.667 255 420 199 420 C160.333 420 122.333 414.333 89 405 L30 528 C87.3333 554.667 152.333 565 215 565 C286.333 565 340.333 554 377 532 C419.667 556 464 565 524 565 C676.918 565 730 443.108 730 300 L730 229 L445 229 C447.667 169 496 133 580 133 C626.667 133 660.667 142.333 702 165 L702 30 C662 3.33333 610.667 -10 548 -10 C461.333 -10 400.667 16.6667 358 62 C312.667 16.6667 263.667 -10 177 -10 C63.6667 -10 -9 56 -9 160 C-9 283.415 76.9723 332.707 204 338 L288 342 Z M288 242 L249 242 C185 244.667 152 212.667 152 174 C152 147.333 174.667 128 212 128 C262.667 128 288 162 288 202 L288 242 Z M516 417 C472 417 448.333 390.333 445 337 L582 337 C580.667 394.333 562.667 417 516 417 Z " />
<glyph glyph-name="ccedilla" unicode="&#xe7;" horiz-adv-x="720" d="M250 -132 C272.667 -138.667 300.333 -142 323 -142 C367 -142 392 -130.667 392 -116 C392 -93.3333 358.667 -80 292 -76 L333 -6 C159.667 15.3333 64 109.333 64 272 C64 442.719 183.134 566 416 566 C502.667 566 580.667 552.667 650 522 L594 385 C530 407.667 484.667 415 430 415 C307.333 415 252 370 252 282 C252 179.333 321 140 433 140 C494.333 140 566 150 630 194 L630 33 C571.333 3.66667 500 -7.33333 428 -10 L414 -30 C486 -40.6667 532 -69.6667 532 -127 C532 -195 468.333 -240 347 -240 C312.333 -240 275.333 -235 250 -227 L250 -132 Z " />
<glyph glyph-name="egrave" unicode="&#xe8;" horiz-adv-x="720" >
<path fill="black" d="M654 29 C575.333 1 487 -10 407 -10 C164.333 -10 35 94 35 278 C35 451.229 158.078 566 374 566 C570 566 685 470.667 685 300 L685 217 L218 217 C223.326 161.078 310.006 134 430 134 C510 134 586 148.333 654 179 L654 29 Z M372 429 C281.333 429 230.667 392.333 220 339 L509 339 C506.333 397.667 457.333 429 372 429 Z " /><g transform="translate(-46,0)" ><path fill="black" d="M182 766 L391 766 C423.523 725.346 483.31 652.021 518 620 L518 606 L390 606 C333.7 638.172 222.753 720.68 182 756 L182 766 Z " /></g></glyph>
<glyph glyph-name="eacute" unicode="&#xe9;" horiz-adv-x="720" >
<path fill="black" d="M654 29 C575.333 1 487 -10 407 -10 C164.333 -10 35 94 35 278 C35 451.229 158.078 566 374 566 C570 566 685 470.667 685 300 L685 217 L218 217 C223.326 161.078 310.006 134 430 134 C510 134 586 148.333 654 179 L654 29 Z M372 429 C281.333 429 230.667 392.333 220 339 L509 339 C506.333 397.667 457.333 429 372 429 Z " /><g transform="translate(21,0)" ><path fill="black" d="M248 606 L248 620 C290.667 668 341.667 722 375 766 L584 766 L584 756 C542.877 720.36 441.87 648.157 376 606 L248 606 Z " /></g></glyph>
<glyph glyph-name="ecircumflex" unicode="&#xea;" horiz-adv-x="720" >
<path fill="black" d="M654 29 C575.333 1 487 -10 407 -10 C164.333 -10 35 94 35 278 C35 451.229 158.078 566 374 566 C570 566 685 470.667 685 300 L685 217 L218 217 C223.326 161.078 310.006 134 430 134 C510 134 586 148.333 654 179 L654 29 Z M372 429 C281.333 429 230.667 392.333 220 339 L509 339 C506.333 397.667 457.333 429 372 429 Z " /><g transform="translate(7,0)" ><path fill="black" d="M123 606 L123 620 C167.641 656.763 239.075 728.754 271 766 L451 766 C482.805 720.943 549.618 666.783 599 620 L599 606 L479 606 C440.333 624.667 402.667 646.333 360 677 C316 645 280.333 623.333 243 606 L123 606 Z " /></g></glyph>
<glyph glyph-name="edieresis" unicode="&#xeb;" horiz-adv-x="720" >
<g transform="translate(6,-4)" ><path fill="black" d="M118 690 C118 746 156.667 775 210 775 C263.333 775 305 744.667 305 690 C305 636.667 263.333 608 210 608 C156.667 608 118 635.333 118 690 Z M419 690 C419 746 457.667 775 511 775 C564.333 775 606 744.667 606 690 C606 636.667 564.333 608 511 608 C457.667 608 419 635.333 419 690 Z " /></g><path fill="black" d="M654 29 C575.333 1 487 -10 407 -10 C164.333 -10 35 94 35 278 C35 451.229 158.078 566 374 566 C570 566 685 470.667 685 300 L685 217 L218 217 C223.326 161.078 310.006 134 430 134 C510 134 586 148.333 654 179 L654 29 Z M372 429 C281.333 429 230.667 392.333 220 339 L509 339 C506.333 397.667 457.333 429 372 429 Z " /></glyph>
<glyph glyph-name="igrave" unicode="&#xec;" horiz-adv-x="722" >
<path fill="black" d="M47 132 L286 148 L286 406 L88 421 L88 556 L472 556 L472 148 L683 132 L683 0 L47 0 L47 132 Z " /><g transform="translate(-54,0)" ><path fill="black" d="M182 766 L391 766 C423.523 725.346 483.31 652.021 518 620 L518 606 L390 606 C333.7 638.172 222.753 720.68 182 756 L182 766 Z " /></g></glyph>
<glyph glyph-name="iacute" unicode="&#xed;" horiz-adv-x="722" >
<path fill="black" d="M47 132 L286 148 L286 406 L88 421 L88 556 L472 556 L472 148 L683 132 L683 0 L47 0 L47 132 Z " /><g transform="translate(13,0)" ><path fill="black" d="M248 606 L248 620 C290.667 668 341.667 722 375 766 L584 766 L584 756 C542.877 720.36 441.87 648.157 376 606 L248 606 Z " /></g></glyph>
<glyph glyph-name="icircumflex" unicode="&#xee;" horiz-adv-x="722" >
<path fill="black" d="M47 132 L286 148 L286 406 L88 421 L88 556 L472 556 L472 148 L683 132 L683 0 L47 0 L47 132 Z " /><g transform="translate(-1,0)" ><path fill="black" d="M123 606 L123 620 C167.641 656.763 239.075 728.754 271 766 L451 766 C482.805 720.943 549.618 666.783 599 620 L599 606 L479 606 C440.333 624.667 402.667 646.333 360 677 C316 645 280.333 623.333 243 606 L123 606 Z " /></g></glyph>
<glyph glyph-name="idieresis" unicode="&#xef;" horiz-adv-x="722" >
<g transform="translate(-2,-4)" ><path fill="black" d="M118 690 C118 746 156.667 775 210 775 C263.333 775 305 744.667 305 690 C305 636.667 263.333 608 210 608 C156.667 608 118 635.333 118 690 Z M419 690 C419 746 457.667 775 511 775 C564.333 775 606 744.667 606 690 C606 636.667 564.333 608 511 608 C457.667 608 419 635.333 419 690 Z " /></g><path fill="black" d="M47 132 L286 148 L286 406 L88 421 L88 556 L472 556 L472 148 L683 132 L683 0 L47 0 L47 132 Z " /></glyph>
<glyph glyph-name="eth" unicode="&#xf0;" horiz-adv-x="720" d="M171 587 L273 637 C245 651.667 215.667 665.333 185 676 L248 767 C303.333 749.667 355.333 728 404 702 L538 768 L603 683 L506 635 C630 539 696 417.333 696 284 C696 100.052 569.593 -10 360 -10 C162.615 -10 26 81.5887 26 247 C26 406.03 151.9 495 329 495 C405 495 456 482.667 484 460 L489 462 C466.333 496.667 427.333 534.667 378 572 L236 502 L171 587 Z M214 246 C214 168.667 257.667 124 363 124 C467 124 508 169 508 237 C508 315.667 465 360 361 360 C257 360 214 320.667 214 246 Z " />
<glyph glyph-name="ntilde" unicode="&#xf1;" horiz-adv-x="720" >
<path fill="black" d="M51 0 L51 556 L195 556 L220 490 L230 490 C271.333 536.667 340.333 566 443 566 C596.333 566 679 492.333 679 359 L679 0 L490 0 L490 302 C490 386 456.333 416 379 416 C273.667 416 239 359.333 239 250 L239 0 L51 0 Z " /><g transform="translate(17,0)" ><path fill="black" d="M114 606 C119.342 696.822 160.66 776 254 776 C331.444 776 394.222 730 453 730 C490.333 730 499.667 746.333 509 777 L608 777 C601.333 658.333 547 607 467 607 C392.444 607 321.889 652 266 652 C235.333 652 221 644.667 213 606 L114 606 Z " /></g></glyph>
<glyph glyph-name="ograve" unicode="&#xf2;" horiz-adv-x="720" >
<path fill="black" d="M26 282 C26 440.926 142.671 566 357 566 C562.255 566 696 449.645 696 272 C696 114.615 583.693 -10 365 -10 C145.338 -10 26 118.364 26 282 Z M212 277 C212 193 258.333 141 361 141 C465 141 510 193 510 277 C510 361 464 414 360 414 C256 414 212 357 212 277 Z " /><g transform="translate(-53,0)" ><path fill="black" d="M182 766 L391 766 C423.523 725.346 483.31 652.021 518 620 L518 606 L390 606 C333.7 638.172 222.753 720.68 182 756 L182 766 Z " /></g></glyph>
<glyph glyph-name="oacute" unicode="&#xf3;" horiz-adv-x="720" >
<path fill="black" d="M26 282 C26 440.926 142.671 566 357 566 C562.255 566 696 449.645 696 272 C696 114.615 583.693 -10 365 -10 C145.338 -10 26 118.364 26 282 Z M212 277 C212 193 258.333 141 361 141 C465 141 510 193 510 277 C510 361 464 414 360 414 C256 414 212 357 212 277 Z " /><g transform="translate(14,0)" ><path fill="black" d="M248 606 L248 620 C290.667 668 341.667 722 375 766 L584 766 L584 756 C542.877 720.36 441.87 648.157 376 606 L248 606 Z " /></g></glyph>
<glyph glyph-name="ocircumflex" unicode="&#xf4;" horiz-adv-x="720" >
<path fill="black" d="M26 282 C26 440.926 142.671 566 357 566 C562.255 566 696 449.645 696 272 C696 114.615 583.693 -10 365 -10 C145.338 -10 26 118.364 26 282 Z M212 277 C212 193 258.333 141 361 141 C465 141 510 193 510 277 C510 361 464 414 360 414 C256 414 212 357 212 277 Z " /><path fill="black" d="M123 606 L123 620 C167.641 656.763 239.075 728.754 271 766 L451 766 C482.805 720.943 549.618 666.783 599 620 L599 606 L479 606 C440.333 624.667 402.667 646.333 360 677 C316 645 280.333 623.333 243 606 L123 606 Z " /></glyph>
<glyph glyph-name="otilde" unicode="&#xf5;" horiz-adv-x="720" >
<path fill="black" d="M26 282 C26 440.926 142.671 566 357 566 C562.255 566 696 449.645 696 272 C696 114.615 583.693 -10 365 -10 C145.338 -10 26 118.364 26 282 Z M212 277 C212 193 258.333 141 361 141 C465 141 510 193 510 277 C510 361 464 414 360 414 C256 414 212 357 212 277 Z " /><path fill="black" d="M114 606 C119.342 696.822 160.66 776 254 776 C331.444 776 394.222 730 453 730 C490.333 730 499.667 746.333 509 777 L608 777 C601.333 658.333 547 607 467 607 C392.444 607 321.889 652 266 652 C235.333 652 221 644.667 213 606 L114 606 Z " /></glyph>
<glyph glyph-name="odieresis" unicode="&#xf6;" horiz-adv-x="720" >
<g transform="translate(-1,-4)" ><path fill="black" d="M118 690 C118 746 156.667 775 210 775 C263.333 775 305 744.667 305 690 C305 636.667 263.333 608 210 608 C156.667 608 118 635.333 118 690 Z M419 690 C419 746 457.667 775 511 775 C564.333 775 606 744.667 606 690 C606 636.667 564.333 608 511 608 C457.667 608 419 635.333 419 690 Z " /></g><path fill="black" d="M26 282 C26 440.926 142.671 566 357 566 C562.255 566 696 449.645 696 272 C696 114.615 583.693 -10 365 -10 C145.338 -10 26 118.364 26 282 Z M212 277 C212 193 258.333 141 361 141 C465 141 510 193 510 277 C510 361 464 414 360 414 C256 414 212 357 212 277 Z " /></glyph>
<glyph glyph-name="divide" unicode="&#xf7;" horiz-adv-x="720" d="M61 422 L661 422 L661 284 L61 284 L61 422 Z M269 155 C269 215 305 243 361 243 C415.667 243 452 215 452 155 C452 97.6667 414.333 68 361 68 C307.667 68 269 97.6667 269 155 Z M269 550 C269 610 305 638 361 638 C415.667 638 452 610 452 550 C452 492.667 414.333 463 361 463 C307.667 463 269 492.667 269 550 Z " />
<glyph glyph-name="oslash" unicode="&#xf8;" horiz-adv-x="720" d="M114 56 C42 110.667 4 190 4 282 C4 440.926 120.671 566 335 566 C400.333 566 458 554.333 506 533 L561 599 L654 550 L593 475 C645 424.333 674 356 674 272 C674 114.615 561.693 -10 343 -10 C292.333 -10 248 -3 208 9 L161 -48 L68 1 L114 56 Z M401 405 C383 411 362 414 338 414 C234 414 190 357 190 277 C190 239 199.667 208.333 219 185 L401 405 Z M317 142 C323.667 140.667 332.333 141 339 141 C443 141 488 193 488 277 C488 299.667 484.667 319.667 478 337 L317 142 Z " />
<glyph glyph-name="ugrave" unicode="&#xf9;" horiz-adv-x="720" >
<path fill="black" d="M43 556 L232 556 L232 254 C232 179.333 261.333 141 348 141 C456.39 141 483 197.411 483 280 L483 556 L671 556 L671 0 L526 0 L502 68 L491 68 C447 17.3333 379.667 -11 281 -11 C118.333 -11 43 61.6667 43 195 L43 556 Z " /><g transform="translate(-54,0)" ><path fill="black" d="M182 766 L391 766 C423.523 725.346 483.31 652.021 518 620 L518 606 L390 606 C333.7 638.172 222.753 720.68 182 756 L182 766 Z " /></g></glyph>
<glyph glyph-name="uacute" unicode="&#xfa;" horiz-adv-x="720" >
<path fill="black" d="M43 556 L232 556 L232 254 C232 179.333 261.333 141 348 141 C456.39 141 483 197.411 483 280 L483 556 L671 556 L671 0 L526 0 L502 68 L491 68 C447 17.3333 379.667 -11 281 -11 C118.333 -11 43 61.6667 43 195 L43 556 Z " /><g transform="translate(13,0)" ><path fill="black" d="M248 606 L248 620 C290.667 668 341.667 722 375 766 L584 766 L584 756 C542.877 720.36 441.87 648.157 376 606 L248 606 Z " /></g></glyph>
<glyph glyph-name="ucircumflex" unicode="&#xfb;" horiz-adv-x="720" >
<path fill="black" d="M43 556 L232 556 L232 254 C232 179.333 261.333 141 348 141 C456.39 141 483 197.411 483 280 L483 556 L671 556 L671 0 L526 0 L502 68 L491 68 C447 17.3333 379.667 -11 281 -11 C118.333 -11 43 61.6667 43 195 L43 556 Z " /><g transform="translate(-1,0)" ><path fill="black" d="M123 606 L123 620 C167.641 656.763 239.075 728.754 271 766 L451 766 C482.805 720.943 549.618 666.783 599 620 L599 606 L479 606 C440.333 624.667 402.667 646.333 360 677 C316 645 280.333 623.333 243 606 L123 606 Z " /></g></glyph>
<glyph glyph-name="udieresis" unicode="&#xfc;" horiz-adv-x="720" >
<g transform="translate(-2,-4)" ><path fill="black" d="M118 690 C118 746 156.667 775 210 775 C263.333 775 305 744.667 305 690 C305 636.667 263.333 608 210 608 C156.667 608 118 635.333 118 690 Z M419 690 C419 746 457.667 775 511 775 C564.333 775 606 744.667 606 690 C606 636.667 564.333 608 511 608 C457.667 608 419 635.333 419 690 Z " /></g><path fill="black" d="M43 556 L232 556 L232 254 C232 179.333 261.333 141 348 141 C456.39 141 483 197.411 483 280 L483 556 L671 556 L671 0 L526 0 L502 68 L491 68 C447 17.3333 379.667 -11 281 -11 C118.333 -11 43 61.6667 43 195 L43 556 Z " /></glyph>
<glyph glyph-name="yacute" unicode="&#xfd;" horiz-adv-x="720" >
<path fill="black" d="M41 -95 C63.6667 -99 89.3333 -101 112 -101 C186.667 -101 234.667 -74.6667 272 -16 L292 7 L5 556 L204 556 L336 281 C348 253 363.333 230.667 374 196 L378 196 C388.667 226.667 404.333 262 411 282 L521 556 L716 556 L444 -50 C385.775 -182.33 303.913 -245 138 -245 C104.667 -245 71.6667 -243.667 41 -237 L41 -95 Z " /><g transform="translate(13,0)" ><path fill="black" d="M248 606 L248 620 C290.667 668 341.667 722 375 766 L584 766 L584 756 C542.877 720.36 441.87 648.157 376 606 L248 606 Z " /></g></glyph>
<glyph glyph-name="thorn" unicode="&#xfe;" horiz-adv-x="720" d="M51 -240 L51 748 L236 748 L236 624 C236 576 231.667 540.333 225 483 L234 483 C276.667 543 343.333 566 434 566 C614.208 566 696 420.052 696 284 C696 110.719 591.338 -10 427 -10 C345.667 -10 281.667 4.66667 235 54 L224 54 C229.002 38.9952 235 -16.5071 235 -45 L235 -240 L51 -240 Z M235 279 C235 176.333 278.333 141 373 141 C466.333 141 506 189.333 506 280 C506 370.667 468.333 414 371 414 C281.667 414 235 378.333 235 293 L235 279 Z " />
<glyph glyph-name="ydieresis" unicode="&#xff;" horiz-adv-x="720" >
<g transform="translate(-2,-4)" ><path fill="black" d="M118 690 C118 746 156.667 775 210 775 C263.333 775 305 744.667 305 690 C305 636.667 263.333 608 210 608 C156.667 608 118 635.333 118 690 Z M419 690 C419 746 457.667 775 511 775 C564.333 775 606 744.667 606 690 C606 636.667 564.333 608 511 608 C457.667 608 419 635.333 419 690 Z " /></g><path fill="black" d="M41 -95 C63.6667 -99 89.3333 -101 112 -101 C186.667 -101 234.667 -74.6667 272 -16 L292 7 L5 556 L204 556 L336 281 C348 253 363.333 230.667 374 196 L378 196 C388.667 226.667 404.333 262 411 282 L521 556 L716 556 L444 -50 C385.775 -182.33 303.913 -245 138 -245 C104.667 -245 71.6667 -243.667 41 -237 L41 -95 Z " /></glyph>
<glyph glyph-name="Amacron" unicode="&#x100;" horiz-adv-x="720" >
<path fill="black" d="M239 717 L481 717 L730 0 L544 0 L498 137 L223 137 L176 0 L-9 0 L239 717 Z M274 287 L448 287 L406 414 C387.378 464.545 369.841 547.57 362 592 C351.397 546.939 336.223 466.065 318 414 L274 287 Z " /><g transform="translate(3,151)" ><path fill="black" d="M155 748 L562 748 L562 629 L155 629 L155 748 Z " /></g></glyph>
<glyph glyph-name="amacron" unicode="&#x101;" horiz-adv-x="720" >
<path fill="black" d="M95 515 C175 551 263 566 367 566 C561.667 566 659 503.667 659 379 L659 0 L517 0 L495 66 L491 66 C426.606 -1.07673 349.137 -10 275 -10 C125.745 -10 44 64.1558 44 168 C44 295.197 158.408 347.32 338 350 L483 354 L482 371 C482 401.667 435 419 347 419 C284.333 419 217.667 409.667 155 387 L95 515 Z M483 242 L393 241 C273 241 219 226.667 219 184 C219 152 259 136 323 136 C408.333 136 483 162.667 483 216 L483 242 Z " /><g transform="translate(14,-7)" ><path fill="black" d="M155 748 L562 748 L562 629 L155 629 L155 748 Z " /></g></glyph>
<glyph glyph-name="Abreve" unicode="&#x102;" horiz-adv-x="720" >
<path fill="black" d="M239 717 L481 717 L730 0 L544 0 L498 137 L223 137 L176 0 L-9 0 L239 717 Z M274 287 L448 287 L406 414 C387.378 464.545 369.841 547.57 362 592 C351.397 546.939 336.223 466.065 318 414 L274 287 Z " /><g transform="translate(0,158)" ><path fill="black" d="M251 791 C263 741.667 307 725 359 725 C415 725 457.333 741.667 468 791 L580 791 C576 672.333 493.667 606 359 606 C225.667 606 144.667 669.667 142 791 L251 791 Z " /></g></glyph>
<glyph glyph-name="abreve" unicode="&#x103;" horiz-adv-x="720" >
<path fill="black" d="M95 515 C175 551 263 566 367 566 C561.667 566 659 503.667 659 379 L659 0 L517 0 L495 66 L491 66 C426.606 -1.07673 349.137 -10 275 -10 C125.745 -10 44 64.1558 44 168 C44 295.197 158.408 347.32 338 350 L483 354 L482 371 C482 401.667 435 419 347 419 C284.333 419 217.667 409.667 155 387 L95 515 Z M483 242 L393 241 C273 241 219 226.667 219 184 C219 152 259 136 323 136 C408.333 136 483 162.667 483 216 L483 242 Z " /><g transform="translate(11,0)" ><path fill="black" d="M251 791 C263 741.667 307 725 359 725 C415 725 457.333 741.667 468 791 L580 791 C576 672.333 493.667 606 359 606 C225.667 606 144.667 669.667 142 791 L251 791 Z " /></g></glyph>
<glyph glyph-name="Aogonek" unicode="&#x104;" horiz-adv-x="720" d="M239 717 L481 717 L730 0 L682 0 C624.667 -44 603 -66 603 -94 C603 -115.333 622.667 -131 660 -131 C682.667 -131 704.333 -125.333 719 -120 L719 -228 C693.667 -236 664 -243 624 -243 C522.667 -243 466 -201 466 -129 C466 -92.3333 498.667 -49.3333 564 0 L544 0 L498 137 L223 137 L176 0 L-9 0 L239 717 Z M274 287 L448 287 L406 414 C387.378 464.545 369.841 547.57 362 592 C351.397 546.939 336.223 466.065 318 414 L274 287 Z " />
<glyph glyph-name="aogonek" unicode="&#x105;" horiz-adv-x="720" d="M473 66 L469 66 C404.606 -1.07673 327.137 -10 253 -10 C103.745 -10 22 64.1558 22 168 C22 295.197 136.408 347.32 316 350 L461 354 L460 371 C460 401.667 413 419 325 419 C262.333 419 195.667 409.667 133 387 L73 515 C153 551 241 566 345 566 C539.667 566 637 503.667 637 379 L637 0 L612 0 C554.667 -44 533 -66 533 -94 C533 -115.333 552.667 -131 590 -131 C612.667 -131 634.333 -125.333 649 -120 L649 -228 C623.667 -236 594 -243 554 -243 C452.667 -243 396 -201 396 -129 C396 -91 429 -48 495 0 L473 66 Z M461 242 L371 241 C251 241 197 226.667 197 184 C197 152 237 136 301 136 C386.333 136 461 162.667 461 216 L461 242 Z " />
<glyph glyph-name="Cacute" unicode="&#x106;" horiz-adv-x="720" >
<path fill="black" d="M660 33 C584 3.66667 504.333 -10 423 -10 C164.307 -10 40 125.338 40 345 C40 583.848 192.615 724 454 724 C543.333 724 619.667 712.333 697 683 L641 528 C583.667 552 518 561 462 561 C300.667 561 230 477.667 230 347 C230 205.667 298.333 152 449 152 C515.667 152 592 170 660 202 L660 33 Z " /><g transform="translate(88,158)" ><path fill="black" d="M248 606 L248 620 C290.667 668 341.667 722 375 766 L584 766 L584 756 C542.877 720.36 441.87 648.157 376 606 L248 606 Z " /></g></glyph>
<glyph glyph-name="cacute" unicode="&#x107;" horiz-adv-x="720" >
<path fill="black" d="M630 33 C566 1 485.333 -10 408 -10 C188 -10 64 86.6667 64 272 C64 442.719 183.134 566 416 566 C502.667 566 580.667 552.667 650 522 L594 385 C530 407.667 484.667 415 430 415 C307.333 415 252 370 252 282 C252 179.333 321 140 433 140 C494.333 140 566 150 630 194 L630 33 Z " /><g transform="translate(45,0)" ><path fill="black" d="M248 606 L248 620 C290.667 668 341.667 722 375 766 L584 766 L584 756 C542.877 720.36 441.87 648.157 376 606 L248 606 Z " /></g></glyph>
<glyph glyph-name="Ccircumflex" unicode="&#x108;" horiz-adv-x="720" >
<path fill="black" d="M660 33 C584 3.66667 504.333 -10 423 -10 C164.307 -10 40 125.338 40 345 C40 583.848 192.615 724 454 724 C543.333 724 619.667 712.333 697 683 L641 528 C583.667 552 518 561 462 561 C300.667 561 230 477.667 230 347 C230 205.667 298.333 152 449 152 C515.667 152 592 170 660 202 L660 33 Z " /><g transform="translate(74,158)" ><path fill="black" d="M123 606 L123 620 C167.641 656.763 239.075 728.754 271 766 L451 766 C482.805 720.943 549.618 666.783 599 620 L599 606 L479 606 C440.333 624.667 402.667 646.333 360 677 C316 645 280.333 623.333 243 606 L123 606 Z " /></g></glyph>
<glyph glyph-name="ccircumflex" unicode="&#x109;" horiz-adv-x="720" >
<path fill="black" d="M630 33 C566 1 485.333 -10 408 -10 C188 -10 64 86.6667 64 272 C64 442.719 183.134 566 416 566 C502.667 566 580.667 552.667 650 522 L594 385 C530 407.667 484.667 415 430 415 C307.333 415 252 370 252 282 C252 179.333 321 140 433 140 C494.333 140 566 150 630 194 L630 33 Z " /><g transform="translate(31,0)" ><path fill="black" d="M123 606 L123 620 C167.641 656.763 239.075 728.754 271 766 L451 766 C482.805 720.943 549.618 666.783 599 620 L599 606 L479 606 C440.333 624.667 402.667 646.333 360 677 C316 645 280.333 623.333 243 606 L123 606 Z " /></g></glyph>
<glyph glyph-name="Cdotaccent" unicode="&#x10a;" horiz-adv-x="720" >
<path fill="black" d="M660 33 C584 3.66667 504.333 -10 423 -10 C164.307 -10 40 125.338 40 345 C40 583.848 192.615 724 454 724 C543.333 724 619.667 712.333 697 683 L641 528 C583.667 552 518 561 462 561 C300.667 561 230 477.667 230 347 C230 205.667 298.333 152 449 152 C515.667 152 592 170 660 202 L660 33 Z " /><g transform="translate(73,158)" ><path fill="black" d="M246 690 C246 746 286.333 779 361 779 C437 779 476 746 476 690 C476 632.667 437 598 361 598 C289 598 246 628.667 246 690 Z " /></g></glyph>
<glyph glyph-name="cdotaccent" unicode="&#x10b;" horiz-adv-x="720" >
<path fill="black" d="M630 33 C566 1 485.333 -10 408 -10 C188 -10 64 86.6667 64 272 C64 442.719 183.134 566 416 566 C502.667 566 580.667 552.667 650 522 L594 385 C530 407.667 484.667 415 430 415 C307.333 415 252 370 252 282 C252 179.333 321 140 433 140 C494.333 140 566 150 630 194 L630 33 Z " /><g transform="translate(30,0)" ><path fill="black" d="M246 690 C246 746 286.333 779 361 779 C437 779 476 746 476 690 C476 632.667 437 598 361 598 C289 598 246 628.667 246 690 Z " /></g></glyph>
<glyph glyph-name="Ccaron" unicode="&#x10c;" horiz-adv-x="720" >
<path fill="black" d="M660 33 C584 3.66667 504.333 -10 423 -10 C164.307 -10 40 125.338 40 345 C40 583.848 192.615 724 454 724 C543.333 724 619.667 712.333 697 683 L641 528 C583.667 552 518 561 462 561 C300.667 561 230 477.667 230 347 C230 205.667 298.333 152 449 152 C515.667 152 592 170 660 202 L660 33 Z " /><g transform="translate(74,158)" ><path fill="black" d="M123 766 L243 766 C281 748 320 724.333 360 695 C402.667 727 440.333 747.333 479 766 L599 766 L599 752 C555.327 716.515 482.361 647.814 451 606 L271 606 C239.4 645.5 166.39 716.745 123 752 L123 766 Z " /></g></glyph>
<glyph glyph-name="ccaron" unicode="&#x10d;" horiz-adv-x="720" >
<path fill="black" d="M630 33 C566 1 485.333 -10 408 -10 C188 -10 64 86.6667 64 272 C64 442.719 183.134 566 416 566 C502.667 566 580.667 552.667 650 522 L594 385 C530 407.667 484.667 415 430 415 C307.333 415 252 370 252 282 C252 179.333 321 140 433 140 C494.333 140 566 150 630 194 L630 33 Z " /><g transform="translate(31,0)" ><path fill="black" d="M123 766 L243 766 C281 748 320 724.333 360 695 C402.667 727 440.333 747.333 479 766 L599 766 L599 752 C555.327 716.515 482.361 647.814 451 606 L271 606 C239.4 645.5 166.39 716.745 123 752 L123 766 Z " /></g></glyph>
<glyph glyph-name="Dcaron" unicode="&#x10e;" horiz-adv-x="720" >
<path fill="black" d="M40 0 L40 714 L303 714 C556.203 714 708 589.078 708 373 C708 133.026 542.723 0 285 0 L40 0 Z M222 155 L277 155 C442.333 155 517 229.333 517 364 C517 497.333 438 559 294 559 L222 559 L222 155 Z " /><g transform="translate(-22,158)" ><path fill="black" d="M123 766 L243 766 C281 748 320 724.333 360 695 C402.667 727 440.333 747.333 479 766 L599 766 L599 752 C555.327 716.515 482.361 647.814 451 606 L271 606 C239.4 645.5 166.39 716.745 123 752 L123 766 Z " /></g></glyph>
<glyph glyph-name="dcaron" unicode="&#x10f;" horiz-adv-x="720" d="M436 71 C393.333 12.3333 337 -10 257 -10 C93.3636 -10 13 131.996 13 275 C13 432.463 96.0303 566 265 566 C345 566 397.333 547 440 483 L448 483 C438.667 544.333 435 573.333 435 612 L435 760 L619 760 L619 0 L473 0 L445 71 L436 71 Z M444 277 C444 363.667 413.667 414 319 414 C232.333 414 197 368.667 197 274 C197 175.333 231.333 141 314 141 C402 141 444 184 444 264 L444 277 Z M634 600 L634 608 C647.254 645.11 665.592 719.442 671 760 L844 760 L844 749 C821.333 699.667 785.667 656 743 600 L634 600 Z " />
<glyph glyph-name="Dcroat" unicode="&#x110;" horiz-adv-x="720" >
<path fill="black" d="M25 282 L-22 282 L-22 428 L25 428 L25 714 L288 714 C541.203 714 693 589.078 693 373 C693 133.026 527.723 0 270 0 L25 0 L25 282 Z M262 155 C427.333 155 502 229.333 502 364 C502 497.333 423 559 279 559 L207 559 L207 428 L356 428 L356 282 L207 282 L207 155 L262 155 Z " /></glyph>
<glyph glyph-name="dcroat" unicode="&#x111;" horiz-adv-x="720" d="M488 71 C444 12.3333 378 -10 290 -10 C110.26 -10 26 126.307 26 265 C26 414.385 113.385 543 300 543 C384 543 450.333 524 493 460 L500 460 C493.333 506.667 489.333 533.333 488 572 L306 572 L306 687 L487 687 L487 760 L671 760 L671 687 L744 687 L744 572 L671 572 L671 0 L526 0 L497 71 L488 71 Z M215 263 C215 176.333 264 141 356 141 C454.667 141 497 180.667 497 250 L497 264 C497 348 465 391 361 391 C265 391 215 345.667 215 263 Z " />
<glyph glyph-name="Emacron" unicode="&#x112;" horiz-adv-x="720" >
<path fill="black" d="M659 159 L659 0 L69 0 L69 714 L659 714 L659 555 L254 555 L254 444 L638 444 L638 285 L254 285 L254 159 L659 159 Z " /><g transform="translate(8,151)" ><path fill="black" d="M155 748 L562 748 L562 629 L155 629 L155 748 Z " /></g></glyph>
<glyph glyph-name="emacron" unicode="&#x113;" horiz-adv-x="720" >
<path fill="black" d="M654 29 C575.333 1 487 -10 407 -10 C164.333 -10 35 94 35 278 C35 451.229 158.078 566 374 566 C570 566 685 470.667 685 300 L685 217 L218 217 C223.326 161.078 310.006 134 430 134 C510 134 586 148.333 654 179 L654 29 Z M372 429 C281.333 429 230.667 392.333 220 339 L509 339 C506.333 397.667 457.333 429 372 429 Z " /><g transform="translate(10,-7)" ><path fill="black" d="M155 748 L562 748 L562 629 L155 629 L155 748 Z " /></g></glyph>
<glyph glyph-name="Ebreve" unicode="&#x114;" horiz-adv-x="720" >
<path fill="black" d="M659 159 L659 0 L69 0 L69 714 L659 714 L659 555 L254 555 L254 444 L638 444 L638 285 L254 285 L254 159 L659 159 Z " /><g transform="translate(5,158)" ><path fill="black" d="M251 791 C263 741.667 307 725 359 725 C415 725 457.333 741.667 468 791 L580 791 C576 672.333 493.667 606 359 606 C225.667 606 144.667 669.667 142 791 L251 791 Z " /></g></glyph>
<glyph glyph-name="ebreve" unicode="&#x115;" horiz-adv-x="720" >
<path fill="black" d="M654 29 C575.333 1 487 -10 407 -10 C164.333 -10 35 94 35 278 C35 451.229 158.078 566 374 566 C570 566 685 470.667 685 300 L685 217 L218 217 C223.326 161.078 310.006 134 430 134 C510 134 586 148.333 654 179 L654 29 Z M372 429 C281.333 429 230.667 392.333 220 339 L509 339 C506.333 397.667 457.333 429 372 429 Z " /><g transform="translate(7,0)" ><path fill="black" d="M251 791 C263 741.667 307 725 359 725 C415 725 457.333 741.667 468 791 L580 791 C576 672.333 493.667 606 359 606 C225.667 606 144.667 669.667 142 791 L251 791 Z " /></g></glyph>
<glyph glyph-name="Edotaccent" unicode="&#x116;" horiz-adv-x="720" >
<path fill="black" d="M659 159 L659 0 L69 0 L69 714 L659 714 L659 555 L254 555 L254 444 L638 444 L638 285 L254 285 L254 159 L659 159 Z " /><g transform="translate(4,158)" ><path fill="black" d="M246 690 C246 746 286.333 779 361 779 C437 779 476 746 476 690 C476 632.667 437 598 361 598 C289 598 246 628.667 246 690 Z " /></g></glyph>
<glyph glyph-name="edotaccent" unicode="&#x117;" horiz-adv-x="720" >
<path fill="black" d="M654 29 C575.333 1 487 -10 407 -10 C164.333 -10 35 94 35 278 C35 451.229 158.078 566 374 566 C570 566 685 470.667 685 300 L685 217 L218 217 C223.326 161.078 310.006 134 430 134 C510 134 586 148.333 654 179 L654 29 Z M372 429 C281.333 429 230.667 392.333 220 339 L509 339 C506.333 397.667 457.333 429 372 429 Z " /><g transform="translate(6,0)" ><path fill="black" d="M246 690 C246 746 286.333 779 361 779 C437 779 476 746 476 690 C476 632.667 437 598 361 598 C289 598 246 628.667 246 690 Z " /></g></glyph>
<glyph glyph-name="Eogonek" unicode="&#x118;" horiz-adv-x="720" d="M47 714 L637 714 L637 555 L232 555 L232 444 L616 444 L616 285 L232 285 L232 159 L637 159 L637 0 L556 0 C498.667 -44 477 -66 477 -94 C477 -115.333 496.667 -131 534 -131 C556.667 -131 578.333 -125.333 593 -120 L593 -228 C567.667 -236 538 -243 498 -243 C396.667 -243 340 -201 340 -129 C340 -92.3333 372.667 -49.3333 438 0 L47 0 L47 714 Z " />
<glyph glyph-name="eogonek" unicode="&#x119;" horiz-adv-x="720" d="M644 -228 C620 -236 589.667 -243 551 -243 C447 -243 392 -202.333 392 -125 C392 -74.3333 422 -38 466 -6 C439.333 -8.66667 411.667 -10 385 -10 C142.333 -10 13 94 13 278 C13 451.229 136.078 566 352 566 C548 566 663 470.667 663 300 L663 217 L196 217 C201.326 161.078 288.006 134 408 134 C488 134 564 148.333 632 179 L632 36 L655 30 C571 -18 528 -56.3333 528 -91 C528 -117.667 547.667 -131 587 -131 C605.667 -131 629.333 -125.333 644 -120 L644 -228 Z M350 429 C259.333 429 208.667 392.333 198 339 L487 339 C484.333 397.667 435.333 429 350 429 Z " />
<glyph glyph-name="Ecaron" unicode="&#x11a;" horiz-adv-x="720" >
<path fill="black" d="M659 159 L659 0 L69 0 L69 714 L659 714 L659 555 L254 555 L254 444 L638 444 L638 285 L254 285 L254 159 L659 159 Z " /><g transform="translate(5,158)" ><path fill="black" d="M123 766 L243 766 C281 748 320 724.333 360 695 C402.667 727 440.333 747.333 479 766 L599 766 L599 752 C555.327 716.515 482.361 647.814 451 606 L271 606 C239.4 645.5 166.39 716.745 123 752 L123 766 Z " /></g></glyph>
<glyph glyph-name="ecaron" unicode="&#x11b;" horiz-adv-x="720" >
<path fill="black" d="M654 29 C575.333 1 487 -10 407 -10 C164.333 -10 35 94 35 278 C35 451.229 158.078 566 374 566 C570 566 685 470.667 685 300 L685 217 L218 217 C223.326 161.078 310.006 134 430 134 C510 134 586 148.333 654 179 L654 29 Z M372 429 C281.333 429 230.667 392.333 220 339 L509 339 C506.333 397.667 457.333 429 372 429 Z " /><g transform="translate(7,0)" ><path fill="black" d="M123 766 L243 766 C281 748 320 724.333 360 695 C402.667 727 440.333 747.333 479 766 L599 766 L599 752 C555.327 716.515 482.361 647.814 451 606 L271 606 C239.4 645.5 166.39 716.745 123 752 L123 766 Z " /></g></glyph>
<glyph glyph-name="Gcircumflex" unicode="&#x11c;" horiz-adv-x="720" >
<path fill="black" d="M386 424 L682 424 L682 33 C598 1 516.667 -10 426 -10 C146 -10 14 123.996 14 347 C14 585.667 162.667 724 432 724 C532 724 610.667 704.333 676 679 L619 530 C568.333 553.333 511 565 447 565 C283.667 565 202 494.333 202 353 C202 231.978 263.381 151 417 151 C450.333 151 480.667 152.333 510 159 L510 276 L386 276 L386 424 Z " /><g transform="translate(38,158)" ><path fill="black" d="M123 606 L123 620 C167.641 656.763 239.075 728.754 271 766 L451 766 C482.805 720.943 549.618 666.783 599 620 L599 606 L479 606 C440.333 624.667 402.667 646.333 360 677 C316 645 280.333 623.333 243 606 L123 606 Z " /></g></glyph>
<glyph glyph-name="gcircumflex" unicode="&#x11d;" horiz-adv-x="720" >
<path fill="black" d="M66 -57 C151.333 -86.3333 233 -96 305 -96 C433 -96 492 -71.3333 492 -2 L492 4 C492 30.6667 491.333 47 494 67 L488 67 C438.667 7 380 -10 300 -10 C125.333 -10 26 93.3333 26 276 C26 466.978 132.416 566 296 566 C380 566 438.333 541 489 485 L496 485 L529 555 L671 555 L671 30 C671 -150 564.667 -245 310 -245 C224.667 -245 146 -238.333 66 -213 L66 -57 Z M499 274 C499 367.333 452.667 414 360 414 C260 414 216 369.333 216 272 C216 190.667 258.333 141 361 141 C451.667 141 499 180.333 499 259 L499 274 Z " /><path fill="black" d="M123 606 L123 620 C167.641 656.763 239.075 728.754 271 766 L451 766 C482.805 720.943 549.618 666.783 599 620 L599 606 L479 606 C440.333 624.667 402.667 646.333 360 677 C316 645 280.333 623.333 243 606 L123 606 Z " /></glyph>
<glyph glyph-name="Gbreve" unicode="&#x11e;" horiz-adv-x="720" >
<path fill="black" d="M386 424 L682 424 L682 33 C598 1 516.667 -10 426 -10 C146 -10 14 123.996 14 347 C14 585.667 162.667 724 432 724 C532 724 610.667 704.333 676 679 L619 530 C568.333 553.333 511 565 447 565 C283.667 565 202 494.333 202 353 C202 231.978 263.381 151 417 151 C450.333 151 480.667 152.333 510 159 L510 276 L386 276 L386 424 Z " /><g transform="translate(38,158)" ><path fill="black" d="M251 791 C263 741.667 307 725 359 725 C415 725 457.333 741.667 468 791 L580 791 C576 672.333 493.667 606 359 606 C225.667 606 144.667 669.667 142 791 L251 791 Z " /></g></glyph>
<glyph glyph-name="gbreve" unicode="&#x11f;" horiz-adv-x="720" >
<path fill="black" d="M66 -57 C151.333 -86.3333 233 -96 305 -96 C433 -96 492 -71.3333 492 -2 L492 4 C492 30.6667 491.333 47 494 67 L488 67 C438.667 7 380 -10 300 -10 C125.333 -10 26 93.3333 26 276 C26 466.978 132.416 566 296 566 C380 566 438.333 541 489 485 L496 485 L529 555 L671 555 L671 30 C671 -150 564.667 -245 310 -245 C224.667 -245 146 -238.333 66 -213 L66 -57 Z M499 274 C499 367.333 452.667 414 360 414 C260 414 216 369.333 216 272 C216 190.667 258.333 141 361 141 C451.667 141 499 180.333 499 259 L499 274 Z " /><path fill="black" d="M251 791 C263 741.667 307 725 359 725 C415 725 457.333 741.667 468 791 L580 791 C576 672.333 493.667 606 359 606 C225.667 606 144.667 669.667 142 791 L251 791 Z " /></glyph>
<glyph glyph-name="Gdotaccent" unicode="&#x120;" horiz-adv-x="720" >
<path fill="black" d="M386 424 L682 424 L682 33 C598 1 516.667 -10 426 -10 C146 -10 14 123.996 14 347 C14 585.667 162.667 724 432 724 C532 724 610.667 704.333 676 679 L619 530 C568.333 553.333 511 565 447 565 C283.667 565 202 494.333 202 353 C202 231.978 263.381 151 417 151 C450.333 151 480.667 152.333 510 159 L510 276 L386 276 L386 424 Z " /><g transform="translate(37,158)" ><path fill="black" d="M246 690 C246 746 286.333 779 361 779 C437 779 476 746 476 690 C476 632.667 437 598 361 598 C289 598 246 628.667 246 690 Z " /></g></glyph>
<glyph glyph-name="gdotaccent" unicode="&#x121;" horiz-adv-x="720" >
<path fill="black" d="M66 -57 C151.333 -86.3333 233 -96 305 -96 C433 -96 492 -71.3333 492 -2 L492 4 C492 30.6667 491.333 47 494 67 L488 67 C438.667 7 380 -10 300 -10 C125.333 -10 26 93.3333 26 276 C26 466.978 132.416 566 296 566 C380 566 438.333 541 489 485 L496 485 L529 555 L671 555 L671 30 C671 -150 564.667 -245 310 -245 C224.667 -245 146 -238.333 66 -213 L66 -57 Z M499 274 C499 367.333 452.667 414 360 414 C260 414 216 369.333 216 272 C216 190.667 258.333 141 361 141 C451.667 141 499 180.333 499 259 L499 274 Z " /><g transform="translate(-1,0)" ><path fill="black" d="M246 690 C246 746 286.333 779 361 779 C437 779 476 746 476 690 C476 632.667 437 598 361 598 C289 598 246 628.667 246 690 Z " /></g></glyph>
<glyph glyph-name="uni0122" unicode="&#x122;" horiz-adv-x="720" >
<path fill="black" d="M386 424 L682 424 L682 33 C598 1 516.667 -10 426 -10 C146 -10 14 123.996 14 347 C14 585.667 162.667 724 432 724 C532 724 610.667 704.333 676 679 L619 530 C568.333 553.333 511 565 447 565 C283.667 565 202 494.333 202 353 C202 231.978 263.381 151 417 151 C450.333 151 480.667 152.333 510 159 L510 276 L386 276 L386 424 Z " /><g transform="translate(1134,0)" ><path fill="black" d="M-848 -221 L-848 -209 C-831.769 -168.423 -813.237 -100.275 -808 -61 L-634 -61 L-634 -72 C-656.667 -125.333 -690.333 -167.667 -737 -221 L-848 -221 Z " /></g></glyph>
<glyph glyph-name="uni0123" unicode="&#x123;" horiz-adv-x="720" d="M44 -57 C129.333 -86.3333 211 -96 283 -96 C411 -96 470 -71.3333 470 -2 L470 4 C470 30.6667 469.333 47 472 67 L466 67 C416.667 7 358 -10 278 -10 C103.333 -10 4 93.3333 4 276 C4 466.978 110.416 566 274 566 C358 566 416.333 541 467 485 L474 485 L507 555 L649 555 L649 30 C649 -150 542.667 -245 288 -245 C202.667 -245 124 -238.333 44 -213 L44 -57 Z M477 274 C477 367.333 430.667 414 338 414 C238 414 194 369.333 194 272 C194 190.667 236.333 141 339 141 C429.667 141 477 180.333 477 259 L477 274 Z M265 597 L265 607 C285 660.333 319.667 708.667 365 766 L475 766 L475 759 C459.068 713.859 441.338 639.701 436 597 L265 597 Z " />
<glyph glyph-name="Hcircumflex" unicode="&#x124;" horiz-adv-x="720" >
<path fill="black" d="M40 0 L40 714 L228 714 L228 450 L493 450 L493 714 L681 714 L681 0 L493 0 L493 291 L228 291 L228 0 L40 0 Z " /><g transform="translate(-1,158)" ><path fill="black" d="M123 606 L123 620 C167.641 656.763 239.075 728.754 271 766 L451 766 C482.805 720.943 549.618 666.783 599 620 L599 606 L479 606 C440.333 624.667 402.667 646.333 360 677 C316 645 280.333 623.333 243 606 L123 606 Z " /></g></glyph>
<glyph glyph-name="hcircumflex" unicode="&#x125;" horiz-adv-x="720" >
<path fill="black" d="M51 0 L51 760 L239 760 L239 655 C239 597.667 233.333 545.333 228 488 L239 488 C281.667 540 348.667 566 440 566 C593.333 566 679 486.333 679 361 L679 0 L490 0 L490 298 C490 370 460 413 376 413 C285.463 413 239 373.97 239 245 L239 0 L51 0 Z " /><g transform="translate(-217,204)" ><path fill="black" d="M123 606 L123 620 C167.641 656.763 239.075 728.754 271 766 L451 766 C482.805 720.943 549.618 666.783 599 620 L599 606 L479 606 C440.333 624.667 402.667 646.333 360 677 C316 645 280.333 623.333 243 606 L123 606 Z " /></g></glyph>
<glyph glyph-name="Hbar" unicode="&#x126;" horiz-adv-x="720" d="M49 522 L-22 522 L-22 634 L49 634 L49 714 L238 714 L238 634 L484 634 L484 714 L673 714 L673 634 L744 634 L744 522 L673 522 L673 0 L484 0 L484 291 L238 291 L238 0 L49 0 L49 522 Z M484 450 L484 522 L238 522 L238 450 L484 450 Z " />
<glyph glyph-name="hbar" unicode="&#x127;" horiz-adv-x="720" d="M51 572 L-22 572 L-22 687 L51 687 L51 760 L238 760 L238 687 L443 687 L443 572 L236 572 C233.333 528 229.667 484.667 227 450 L239 450 C281.667 500.667 345.333 527 440 527 C593.333 527 678 447.333 678 322 L678 0 L490 0 L490 259 C490 331 460.333 374 375 374 C285.225 374 238 334.97 238 206 L238 0 L51 0 L51 572 Z " />
<glyph glyph-name="Itilde" unicode="&#x128;" horiz-adv-x="720" >
<path fill="black" d="M84 133 L269 149 L269 565 L84 581 L84 714 L637 714 L637 581 L452 565 L452 149 L637 133 L637 0 L84 0 L84 133 Z " /><g transform="translate(-1,158)" ><path fill="black" d="M114 606 C119.342 696.822 160.66 776 254 776 C331.444 776 394.222 730 453 730 C490.333 730 499.667 746.333 509 777 L608 777 C601.333 658.333 547 607 467 607 C392.444 607 321.889 652 266 652 C235.333 652 221 644.667 213 606 L114 606 Z " /></g></glyph>
<glyph glyph-name="itilde" unicode="&#x129;" horiz-adv-x="722" >
<path fill="black" d="M47 132 L286 148 L286 406 L88 421 L88 556 L472 556 L472 148 L683 132 L683 0 L47 0 L47 132 Z " /><g transform="translate(-1,0)" ><path fill="black" d="M114 606 C119.342 696.822 160.66 776 254 776 C331.444 776 394.222 730 453 730 C490.333 730 499.667 746.333 509 777 L608 777 C601.333 658.333 547 607 467 607 C392.444 607 321.889 652 266 652 C235.333 652 221 644.667 213 606 L114 606 Z " /></g></glyph>
<glyph glyph-name="Imacron" unicode="&#x12a;" horiz-adv-x="720" >
<path fill="black" d="M84 133 L269 149 L269 565 L84 581 L84 714 L637 714 L637 581 L452 565 L452 149 L637 133 L637 0 L84 0 L84 133 Z " /><g transform="translate(2,151)" ><path fill="black" d="M155 748 L562 748 L562 629 L155 629 L155 748 Z " /></g></glyph>
<glyph glyph-name="imacron" unicode="&#x12b;" horiz-adv-x="722" >
<path fill="black" d="M47 132 L286 148 L286 406 L88 421 L88 556 L472 556 L472 148 L683 132 L683 0 L47 0 L47 132 Z " /><g transform="translate(2,-7)" ><path fill="black" d="M155 748 L562 748 L562 629 L155 629 L155 748 Z " /></g></glyph>
<glyph glyph-name="Ibreve" unicode="&#x12c;" horiz-adv-x="720" >
<path fill="black" d="M84 133 L269 149 L269 565 L84 581 L84 714 L637 714 L637 581 L452 565 L452 149 L637 133 L637 0 L84 0 L84 133 Z " /><g transform="translate(-1,158)" ><path fill="black" d="M251 791 C263 741.667 307 725 359 725 C415 725 457.333 741.667 468 791 L580 791 C576 672.333 493.667 606 359 606 C225.667 606 144.667 669.667 142 791 L251 791 Z " /></g></glyph>
<glyph glyph-name="ibreve" unicode="&#x12d;" horiz-adv-x="722" >
<path fill="black" d="M47 132 L286 148 L286 406 L88 421 L88 556 L472 556 L472 148 L683 132 L683 0 L47 0 L47 132 Z " /><g transform="translate(-1,0)" ><path fill="black" d="M251 791 C263 741.667 307 725 359 725 C415 725 457.333 741.667 468 791 L580 791 C576 672.333 493.667 606 359 606 C225.667 606 144.667 669.667 142 791 L251 791 Z " /></g></glyph>
<glyph glyph-name="Iogonek" unicode="&#x12e;" horiz-adv-x="720" d="M62 133 L247 149 L247 565 L62 581 L62 714 L615 714 L615 581 L430 565 L430 149 L615 133 L615 0 L479 0 C421.667 -44 400 -66 400 -94 C400 -115.333 419.667 -131 457 -131 C479.667 -131 501.333 -125.333 516 -120 L516 -228 C490.667 -236 461 -243 421 -243 C319.667 -243 263 -201 263 -129 C263 -92.3333 295.667 -49.3333 361 0 L62 0 L62 133 Z " />
<glyph glyph-name="iogonek" unicode="&#x12f;" horiz-adv-x="720" d="M25 132 L264 148 L264 406 L66 421 L66 556 L450 556 L450 148 L661 132 L661 0 L486 0 C428.667 -44 407 -66 407 -94 C407 -115.333 426.667 -131 464 -131 C486.667 -131 508.333 -125.333 523 -120 L523 -228 C497.667 -236 468 -243 428 -243 C326.667 -243 270 -201 270 -129 C270 -92.3333 302.667 -49.3333 368 0 L25 0 L25 132 Z M237 690 C237 746 277.333 779 352 779 C428 779 467 746 467 690 C467 632.667 428 598 352 598 C280 598 237 628.667 237 690 Z " />
<glyph glyph-name="Idotaccent" unicode="&#x130;" horiz-adv-x="720" >
<path fill="black" d="M84 133 L269 149 L269 565 L84 581 L84 714 L637 714 L637 581 L452 565 L452 149 L637 133 L637 0 L84 0 L84 133 Z " /><g transform="translate(-2,158)" ><path fill="black" d="M246 690 C246 746 286.333 779 361 779 C437 779 476 746 476 690 C476 632.667 437 598 361 598 C289 598 246 628.667 246 690 Z " /></g></glyph>
<glyph glyph-name="dotlessi" unicode="&#x131;" horiz-adv-x="722" d="M47 132 L286 148 L286 406 L88 421 L88 556 L472 556 L472 148 L683 132 L683 0 L47 0 L47 132 Z " />
<glyph glyph-name="IJ" unicode="&#x132;" horiz-adv-x="720" d="M83 164 C151 149.333 218.667 149 264 149 C385.333 149 438 200 438 300 L438 714 L624 714 L624 270 C624 80.6667 523.667 -10 293 -10 C229 -10 149.667 -6 83 6 L83 164 Z M82 252 L82 714 L266 714 L266 252 L82 252 Z " />
<glyph glyph-name="ij" unicode="&#x133;" horiz-adv-x="720" d="M145 -73 C201 -87.6667 262 -92 306 -92 C412.771 -92 446 -65.9004 446 29 L446 556 L633 556 L633 -13 C633 -167.667 545.333 -245 340 -245 C280 -245 206.333 -237.667 145 -219 L145 -73 Z M89 0 L89 556 L276 556 L276 0 L89 0 Z M69 690 C69 746 109.333 779 184 779 C260 779 299 746 299 690 C299 632.667 260 598 184 598 C112 598 69 628.667 69 690 Z M422 690 C422 746 462.333 779 537 779 C613 779 652 746 652 690 C652 632.667 613 598 537 598 C465 598 422 628.667 422 690 Z " />
<glyph glyph-name="Jcircumflex" unicode="&#x134;" horiz-adv-x="720" >
<path fill="black" d="M73 164 C141 149.333 208.667 149 254 149 C375.333 149 428 200 428 300 L428 714 L614 714 L614 270 C614 80.6667 513.667 -10 283 -10 C219 -10 139.667 -6 73 6 L73 164 Z " /><g transform="translate(159,158)" ><path fill="black" d="M123 606 L123 620 C167.641 656.763 239.075 728.754 271 766 L451 766 C482.805 720.943 549.618 666.783 599 620 L599 606 L479 606 C440.333 624.667 402.667 646.333 360 677 C316 645 280.333 623.333 243 606 L123 606 Z " /></g></glyph>
<glyph glyph-name="jcircumflex" unicode="&#x135;" horiz-adv-x="722" >
<path fill="black" d="M29 -73 C89 -87.6667 160 -92 204 -92 C306.848 -92 339 -67.0779 339 29 L339 406 L118 419 L118 556 L527 556 L527 -13 C527 -169 440 -245 236 -245 C173.333 -245 94.3333 -237.667 29 -219 L29 -73 Z " /><g transform="translate(67,0)" ><path fill="black" d="M123 606 L123 620 C167.641 656.763 239.075 728.754 271 766 L451 766 C482.805 720.943 549.618 666.783 599 620 L599 606 L479 606 C440.333 624.667 402.667 646.333 360 677 C316 645 280.333 623.333 243 606 L123 606 Z " /></g></glyph>
<glyph glyph-name="uni0136" unicode="&#x136;" horiz-adv-x="720" >
<path fill="black" d="M40 0 L40 714 L224 714 L224 395 C246.667 427 270.667 453.333 296 484 L496 714 L701 714 L435 394 L703 0 L491 0 L302 252 L224 217 L224 0 L40 0 Z " /><g transform="translate(1088,0)" ><path fill="black" d="M-848 -221 L-848 -209 C-831.769 -168.423 -813.237 -100.275 -808 -61 L-634 -61 L-634 -72 C-656.667 -125.333 -690.333 -167.667 -737 -221 L-848 -221 Z " /></g></glyph>
<glyph glyph-name="uni0137" unicode="&#x137;" horiz-adv-x="720" >
<path fill="black" d="M58 0 L58 760 L245 760 L245 470 C245 422.19 240.95 348.051 233 303 L237 303 C267.667 337.667 290 368.333 330 403 L502 556 L714 556 L472 321 L726 0 L515 0 L344 199 L245 144 L245 0 L58 0 Z " /><g transform="translate(1108,0)" ><path fill="black" d="M-848 -221 L-848 -209 C-831.769 -168.423 -813.237 -100.275 -808 -61 L-634 -61 L-634 -72 C-656.667 -125.333 -690.333 -167.667 -737 -221 L-848 -221 Z " /></g></glyph>
<glyph glyph-name="kgreenlandic" unicode="&#x138;" horiz-adv-x="720" d="M58 0 L58 556 L245 556 L245 470 C245 422.19 240.95 348.051 233 303 L237 303 C267.667 337.667 290.333 368.333 329 403 L502 556 L714 556 L472 321 L726 0 L515 0 L344 199 L245 144 L245 0 L58 0 Z " />
<glyph glyph-name="Lacute" unicode="&#x139;" horiz-adv-x="720" >
<path fill="black" d="M659 163 L659 0 L90 0 L90 714 L278 714 L278 163 L659 163 Z " /><g transform="translate(-166,158)" ><path fill="black" d="M248 606 L248 620 C290.667 668 341.667 722 375 766 L584 766 L584 756 C542.877 720.36 441.87 648.157 376 606 L248 606 Z " /></g></glyph>
<glyph glyph-name="lacute" unicode="&#x13a;" horiz-adv-x="720" >
<path fill="black" d="M47 130 L286 148 L286 613 L80 625 L80 760 L473 760 L473 148 L683 130 L683 0 L47 0 L47 130 Z " /><g transform="translate(13,204)" ><path fill="black" d="M248 606 L248 620 C290.667 668 341.667 722 375 766 L584 766 L584 756 C542.877 720.36 441.87 648.157 376 606 L248 606 Z " /></g></glyph>
<glyph glyph-name="uni013B" unicode="&#x13b;" horiz-adv-x="720" >
<path fill="black" d="M659 163 L659 0 L90 0 L90 714 L278 714 L278 163 L659 163 Z " /><g transform="translate(1112,0)" ><path fill="black" d="M-848 -221 L-848 -209 C-831.769 -168.423 -813.237 -100.275 -808 -61 L-634 -61 L-634 -72 C-656.667 -125.333 -690.333 -167.667 -737 -221 L-848 -221 Z " /></g></glyph>
<glyph glyph-name="uni013C" unicode="&#x13c;" horiz-adv-x="720" >
<path fill="black" d="M47 130 L286 148 L286 613 L80 625 L80 760 L473 760 L473 148 L683 130 L683 0 L47 0 L47 130 Z " /><g transform="translate(1103,0)" ><path fill="black" d="M-848 -221 L-848 -209 C-831.769 -168.423 -813.237 -100.275 -808 -61 L-634 -61 L-634 -72 C-656.667 -125.333 -690.333 -167.667 -737 -221 L-848 -221 Z " /></g></glyph>
<glyph glyph-name="Lcaron" unicode="&#x13d;" horiz-adv-x="720" >
<g transform="translate(-22,0)" ><path fill="black" d="M659 163 L659 0 L90 0 L90 714 L278 714 L278 163 L659 163 Z " /></g><g transform="translate(527,9)" ><path fill="black" d="M-127 552 L-127 560 C-113.746 597.11 -95.4077 671.442 -90 712 L83 712 L83 701 C60.3333 651.667 24.6667 608 -18 552 L-127 552 Z " /></g></glyph>
<glyph glyph-name="lcaron" unicode="&#x13e;" horiz-adv-x="720" >
<g transform="translate(-22,0)" ><path fill="black" d="M47 130 L286 148 L286 613 L80 625 L80 760 L473 760 L473 148 L683 130 L683 0 L47 0 L47 130 Z " /></g><g transform="translate(613,55)" ><path fill="black" d="M-127 552 L-127 560 C-113.746 597.11 -95.4077 671.442 -90 712 L83 712 L83 701 C60.3333 651.667 24.6667 608 -18 552 L-127 552 Z " /></g></glyph>
<glyph glyph-name="Ldot" unicode="&#x13f;" horiz-adv-x="720" >
<g transform="translate(-22,0)" ><path fill="black" d="M659 163 L659 0 L90 0 L90 714 L278 714 L278 163 L659 163 Z " /></g><g transform="translate(126,316)" ><path fill="black" d="M250 88 C250 157.333 297.667 185 363 185 C427 185 474 157.333 474 88 C474 21.3333 425.667 -7 363 -7 C299 -7 250 21.3333 250 88 Z " /></g></glyph>
<glyph glyph-name="ldot" unicode="&#x140;" horiz-adv-x="720" >
<path fill="black" d="M47 130 L286 148 L286 613 L80 625 L80 760 L473 760 L473 148 L683 130 L683 0 L47 0 L47 130 Z " /><g transform="translate(339,304)" ><path fill="black" d="M250 88 C250 157.333 297.667 185 363 185 C427 185 474 157.333 474 88 C474 21.3333 425.667 -7 363 -7 C299 -7 250 21.3333 250 88 Z " /></g></glyph>
<glyph glyph-name="Lslash" unicode="&#x141;" horiz-adv-x="720" d="M90 273 L-3 240 L-3 356 L90 389 L90 714 L278 714 L278 456 L566 559 L566 443 L278 340 L278 163 L659 163 L659 0 L90 0 L90 273 Z " />
<glyph glyph-name="lslash" unicode="&#x142;" horiz-adv-x="720" d="M47 130 L286 148 L286 307 L97 240 L97 356 L286 423 L286 613 L80 625 L80 760 L473 760 L473 490 L666 559 L666 443 L473 374 L473 148 L683 130 L683 0 L47 0 L47 130 Z " />
<glyph glyph-name="Nacute" unicode="&#x143;" horiz-adv-x="720" >
<path fill="black" d="M40 0 L40 714 L295 714 L520 159 L525 159 C517 248.333 509 329.333 509 392 L509 714 L681 714 L681 0 L436 0 L201 549 L194 549 C204.728 409.538 212 371.458 212 312 L212 0 L40 0 Z " /><g transform="translate(20,158)" ><path fill="black" d="M248 606 L248 620 C290.667 668 341.667 722 375 766 L584 766 L584 756 C542.877 720.36 441.87 648.157 376 606 L248 606 Z " /></g></glyph>
<glyph glyph-name="nacute" unicode="&#x144;" horiz-adv-x="720" >
<path fill="black" d="M51 0 L51 556 L195 556 L220 490 L230 490 C271.333 536.667 340.333 566 443 566 C596.333 566 679 492.333 679 359 L679 0 L490 0 L490 302 C490 386 456.333 416 379 416 C273.667 416 239 359.333 239 250 L239 0 L51 0 Z " /><g transform="translate(31,0)" ><path fill="black" d="M248 606 L248 620 C290.667 668 341.667 722 375 766 L584 766 L584 756 C542.877 720.36 441.87 648.157 376 606 L248 606 Z " /></g></glyph>
<glyph glyph-name="uni0145" unicode="&#x145;" horiz-adv-x="720" >
<path fill="black" d="M40 0 L40 714 L295 714 L520 159 L525 159 C517 248.333 509 329.333 509 392 L509 714 L681 714 L681 0 L436 0 L201 549 L194 549 C204.728 409.538 212 371.458 212 312 L212 0 L40 0 Z " /><g transform="translate(1080,0)" ><path fill="black" d="M-848 -221 L-848 -209 C-831.769 -168.423 -813.237 -100.275 -808 -61 L-634 -61 L-634 -72 C-656.667 -125.333 -690.333 -167.667 -737 -221 L-848 -221 Z " /></g></glyph>
<glyph glyph-name="uni0146" unicode="&#x146;" horiz-adv-x="720" >
<path fill="black" d="M51 0 L51 556 L195 556 L220 490 L230 490 C271.333 536.667 340.333 566 443 566 C596.333 566 679 492.333 679 359 L679 0 L490 0 L490 302 C490 386 456.333 416 379 416 C273.667 416 239 359.333 239 250 L239 0 L51 0 Z " /><g transform="translate(1090,0)" ><path fill="black" d="M-848 -221 L-848 -209 C-831.769 -168.423 -813.237 -100.275 -808 -61 L-634 -61 L-634 -72 C-656.667 -125.333 -690.333 -167.667 -737 -221 L-848 -221 Z " /></g></glyph>
<glyph glyph-name="Ncaron" unicode="&#x147;" horiz-adv-x="720" >
<path fill="black" d="M40 0 L40 714 L295 714 L520 159 L525 159 C517 248.333 509 329.333 509 392 L509 714 L681 714 L681 0 L436 0 L201 549 L194 549 C204.728 409.538 212 371.458 212 312 L212 0 L40 0 Z " /><g transform="translate(6,158)" ><path fill="black" d="M123 766 L243 766 C281 748 320 724.333 360 695 C402.667 727 440.333 747.333 479 766 L599 766 L599 752 C555.327 716.515 482.361 647.814 451 606 L271 606 C239.4 645.5 166.39 716.745 123 752 L123 766 Z " /></g></glyph>
<glyph glyph-name="ncaron" unicode="&#x148;" horiz-adv-x="720" >
<path fill="black" d="M51 0 L51 556 L195 556 L220 490 L230 490 C271.333 536.667 340.333 566 443 566 C596.333 566 679 492.333 679 359 L679 0 L490 0 L490 302 C490 386 456.333 416 379 416 C273.667 416 239 359.333 239 250 L239 0 L51 0 Z " /><g transform="translate(17,0)" ><path fill="black" d="M123 766 L243 766 C281 748 320 724.333 360 695 C402.667 727 440.333 747.333 479 766 L599 766 L599 752 C555.327 716.515 482.361 647.814 451 606 L271 606 C239.4 645.5 166.39 716.745 123 752 L123 766 Z " /></g></glyph>
<glyph glyph-name="napostrophe" unicode="&#x149;" horiz-adv-x="720" d="M66 0 L66 556 L210 556 L235 488 L246 488 C287.333 537.333 351.333 566 450 566 C599.333 566 678 492.333 678 359 L678 0 L490 0 L490 296 C490 372 456 413 384 413 C288 413 254 352.333 254 239 L254 0 L66 0 Z M-194 424 C-170.081 501.072 -145.019 641.829 -137 714 L41 714 L49 703 C26.3333 605.667 -12.6667 497.333 -54 424 L-194 424 Z " />
<glyph glyph-name="Eng" unicode="&#x14a;" horiz-adv-x="720" d="M40 714 L295 714 L520 159 L525 159 C517 248.333 509 329.333 509 392 L509 714 L681 714 L681 -4 C681 -153.333 578.333 -231 401 -231 C357 -231 316.333 -227.667 287 -221 L287 -90 C316.333 -94 348 -100 384 -100 C472 -100 526 -68 526 0 L436 0 L201 549 L194 549 C204.728 409.538 212 371.458 212 312 L212 0 L40 0 L40 714 Z " />
<glyph glyph-name="eng" unicode="&#x14b;" horiz-adv-x="720" d="M51 556 L195 556 L220 490 L230 490 C271.333 536.667 340.333 566 443 566 C596.333 566 679 492.333 679 359 L679 0 L678 0 L678 -45 C678 -145.39 610.203 -240 445 -240 C406.333 -240 362.333 -236 333 -228 L333 -83 C358.333 -89.6667 379.333 -92 406 -92 C449.967 -92 456.315 -54.3374 488 46 L490 56 L490 302 C490 386 456.333 416 379 416 C273.667 416 239 359.333 239 250 L239 0 L51 0 L51 556 Z " />
<glyph glyph-name="Omacron" unicode="&#x14c;" horiz-adv-x="720" >
<path fill="black" d="M361 -9 C121 -9 14 119 14 359 C14 597.667 121 725 361 725 C601 725 708 595.667 708 357 C708 122.333 602.333 -9 361 -9 Z M362 150 C479.333 150 516 217.667 516 359 C516 502.004 479.281 564 362 564 C247.333 564 206 504.667 206 358 C206 212.667 246 150 362 150 Z " /><g transform="translate(3,151)" ><path fill="black" d="M155 748 L562 748 L562 629 L155 629 L155 748 Z " /></g></glyph>
<glyph glyph-name="omacron" unicode="&#x14d;" horiz-adv-x="720" >
<path fill="black" d="M26 282 C26 440.926 142.671 566 357 566 C562.255 566 696 449.645 696 272 C696 114.615 583.693 -10 365 -10 C145.338 -10 26 118.364 26 282 Z M212 277 C212 193 258.333 141 361 141 C465 141 510 193 510 277 C510 361 464 414 360 414 C256 414 212 357 212 277 Z " /><g transform="translate(3,-7)" ><path fill="black" d="M155 748 L562 748 L562 629 L155 629 L155 748 Z " /></g></glyph>
<glyph glyph-name="Obreve" unicode="&#x14e;" horiz-adv-x="720" >
<path fill="black" d="M361 -9 C121 -9 14 119 14 359 C14 597.667 121 725 361 725 C601 725 708 595.667 708 357 C708 122.333 602.333 -9 361 -9 Z M362 150 C479.333 150 516 217.667 516 359 C516 502.004 479.281 564 362 564 C247.333 564 206 504.667 206 358 C206 212.667 246 150 362 150 Z " /><g transform="translate(0,158)" ><path fill="black" d="M251 791 C263 741.667 307 725 359 725 C415 725 457.333 741.667 468 791 L580 791 C576 672.333 493.667 606 359 606 C225.667 606 144.667 669.667 142 791 L251 791 Z " /></g></glyph>
<glyph glyph-name="obreve" unicode="&#x14f;" horiz-adv-x="720" >
<path fill="black" d="M26 282 C26 440.926 142.671 566 357 566 C562.255 566 696 449.645 696 272 C696 114.615 583.693 -10 365 -10 C145.338 -10 26 118.364 26 282 Z M212 277 C212 193 258.333 141 361 141 C465 141 510 193 510 277 C510 361 464 414 360 414 C256 414 212 357 212 277 Z " /><path fill="black" d="M251 791 C263 741.667 307 725 359 725 C415 725 457.333 741.667 468 791 L580 791 C576 672.333 493.667 606 359 606 C225.667 606 144.667 669.667 142 791 L251 791 Z " /></glyph>
<glyph glyph-name="Ohungarumlaut" unicode="&#x150;" horiz-adv-x="720" d="M361 -9 C121 -9 14 119 14 359 C14 597.667 121 725 361 725 C601 725 708 595.667 708 357 C708 122.333 602.333 -9 361 -9 Z M362 150 C479.333 150 516 217.667 516 359 C516 502.004 479.281 564 362 564 C247.333 564 206 504.667 206 358 C206 212.667 246 150 362 150 Z M167 764 L167 778 C215 838 260 893.333 284 924 L460 924 L460 914 C427.605 876.205 331.141 801.216 270 764 L167 764 Z M413 764 L413 778 C461 838 506 893.333 530 924 L706 924 L706 914 C673.605 876.205 577.141 801.216 516 764 L413 764 Z " />
<glyph glyph-name="ohungarumlaut" unicode="&#x151;" horiz-adv-x="720" d="M26 282 C26 440.926 142.671 566 357 566 C562.255 566 696 449.645 696 272 C696 114.615 583.693 -10 365 -10 C145.338 -10 26 118.364 26 282 Z M212 277 C212 193 258.333 141 361 141 C465 141 510 193 510 277 C510 361 464 414 360 414 C256 414 212 357 212 277 Z M167 606 L167 620 C215 680 260 735.333 284 766 L460 766 L460 756 C427.605 718.205 331.141 643.216 270 606 L167 606 Z M413 606 L413 620 C461 680 506 735.333 530 766 L706 766 L706 756 C673.605 718.205 577.141 643.216 516 606 L413 606 Z " />
<glyph glyph-name="OE" unicode="&#x152;" horiz-adv-x="720" d="M721 159 L721 0 L393 0 C358.333 -8 327.667 -10 293 -10 C87.6926 -10 12 128.918 12 360 C12 584.104 89.1299 724 289 724 C319.667 724 356.333 722 395 714 L721 714 L721 556 L532 556 L532 448 L697 448 L697 290 L532 290 L532 159 L721 159 Z M365 559 C351.667 563 334.667 564 316 564 C229.333 564 194 498.333 194 357 C194 214.333 221 151 313 151 C335.667 151 350.333 152 365 156 L365 559 Z " />
<glyph glyph-name="oe" unicode="&#x153;" horiz-adv-x="720" d="M704 29 C656 2.33333 604.333 -10 551 -10 C473.667 -10 419.667 11 381 51 C343 10.3333 288.667 -10 218 -10 C67.619 -10 -7 109.13 -7 281 C-7 438.385 59.5628 563 217 563 C291.667 563 342 543.333 378 502 C414 542 460 562 528 562 C668 562 731 463 731 299 L731 227 L448 227 C450.667 147 487.667 116 569 116 C610.333 116 653.333 126.667 704 156 L704 29 Z M223 121 C283 121 303 173.333 303 280 C303 384 282 434 222 434 C163.333 434 139 384.333 139 279 C139 173.667 164.333 121 223 121 Z M525 439 C483.251 439 447 418.645 447 337 L595 337 C595 414.333 571.667 439 525 439 Z " />
<glyph glyph-name="Racute" unicode="&#x154;" horiz-adv-x="720" >
<path fill="black" d="M69 0 L69 714 L327 714 C555 714 663 642.667 663 504 C663 418.667 608 356.333 512 307 L726 0 L523 0 L353 254 L249 254 L249 0 L69 0 Z M249 407 L325 407 C426.333 407 481 428 481 488 C481 532 436 560 328 560 L249 560 L249 407 Z " /><g transform="translate(14,158)" ><path fill="black" d="M248 606 L248 620 C290.667 668 341.667 722 375 766 L584 766 L584 756 C542.877 720.36 441.87 648.157 376 606 L248 606 Z " /></g></glyph>
<glyph glyph-name="racute" unicode="&#x155;" horiz-adv-x="720" >
<path fill="black" d="M30 132 L220 148 L220 406 L55 421 L55 556 L354 556 L380 467 L389 467 C423.667 523 484.333 566 583 566 C619 566 665.333 566 720 550 L674 372 C644.667 382.667 599.667 386 565 386 C463.667 386 397 347 397 251 L397 148 L596 132 L596 0 L30 0 L30 132 Z " /><g transform="translate(45,0)" ><path fill="black" d="M248 606 L248 620 C290.667 668 341.667 722 375 766 L584 766 L584 756 C542.877 720.36 441.87 648.157 376 606 L248 606 Z " /></g></glyph>
<glyph glyph-name="uni0156" unicode="&#x156;" horiz-adv-x="720" >
<path fill="black" d="M69 0 L69 714 L327 714 C555 714 663 642.667 663 504 C663 418.667 608 356.333 512 307 L726 0 L523 0 L353 254 L249 254 L249 0 L69 0 Z M249 407 L325 407 C426.333 407 481 428 481 488 C481 532 436 560 328 560 L249 560 L249 407 Z " /><g transform="translate(1112,0)" ><path fill="black" d="M-848 -221 L-848 -209 C-831.769 -168.423 -813.237 -100.275 -808 -61 L-634 -61 L-634 -72 C-656.667 -125.333 -690.333 -167.667 -737 -221 L-848 -221 Z " /></g></glyph>
<glyph glyph-name="uni0157" unicode="&#x157;" horiz-adv-x="720" >
<path fill="black" d="M30 132 L220 148 L220 406 L55 421 L55 556 L354 556 L380 467 L389 467 C423.667 523 484.333 566 583 566 C619 566 665.333 566 720 550 L674 372 C644.667 382.667 599.667 386 565 386 C463.667 386 397 347 397 251 L397 148 L596 132 L596 0 L30 0 L30 132 Z " /><g transform="translate(1040,0)" ><path fill="black" d="M-848 -221 L-848 -209 C-831.769 -168.423 -813.237 -100.275 -808 -61 L-634 -61 L-634 -72 C-656.667 -125.333 -690.333 -167.667 -737 -221 L-848 -221 Z " /></g></glyph>
<glyph glyph-name="Rcaron" unicode="&#x158;" horiz-adv-x="720" >
<path fill="black" d="M69 0 L69 714 L327 714 C555 714 663 642.667 663 504 C663 418.667 608 356.333 512 307 L726 0 L523 0 L353 254 L249 254 L249 0 L69 0 Z M249 407 L325 407 C426.333 407 481 428 481 488 C481 532 436 560 328 560 L249 560 L249 407 Z " /><g transform="translate(0,158)" ><path fill="black" d="M123 766 L243 766 C281 748 320 724.333 360 695 C402.667 727 440.333 747.333 479 766 L599 766 L599 752 C555.327 716.515 482.361 647.814 451 606 L271 606 C239.4 645.5 166.39 716.745 123 752 L123 766 Z " /></g></glyph>
<glyph glyph-name="rcaron" unicode="&#x159;" horiz-adv-x="720" >
<path fill="black" d="M30 132 L220 148 L220 406 L55 421 L55 556 L354 556 L380 467 L389 467 C423.667 523 484.333 566 583 566 C619 566 665.333 566 720 550 L674 372 C644.667 382.667 599.667 386 565 386 C463.667 386 397 347 397 251 L397 148 L596 132 L596 0 L30 0 L30 132 Z " /><g transform="translate(31,0)" ><path fill="black" d="M123 766 L243 766 C281 748 320 724.333 360 695 C402.667 727 440.333 747.333 479 766 L599 766 L599 752 C555.327 716.515 482.361 647.814 451 606 L271 606 C239.4 645.5 166.39 716.745 123 752 L123 766 Z " /></g></glyph>
<glyph glyph-name="Sacute" unicode="&#x15a;" horiz-adv-x="720" >
<path fill="black" d="M65 215 C151.667 165.667 245 149 333 149 C433 149 482 161.333 482 196 C482 241.26 427.605 247.361 297 306 C167.391 366.837 78 418.744 78 526 C78 651.333 178.667 725 388 725 C497.333 725 587 702.667 663 672 L604 524 C532 556 461.333 566 400 566 C320 566 270 552.667 270 518 C270 485.995 310.228 471.708 441 421 C577.767 362.002 674 318.531 674 200 C674 86.8745 575.494 -10 331 -10 C235 -10 147.667 1.33333 65 36 L65 215 Z " /><g transform="translate(35,158)" ><path fill="black" d="M248 606 L248 620 C290.667 668 341.667 722 375 766 L584 766 L584 756 C542.877 720.36 441.87 648.157 376 606 L248 606 Z " /></g></glyph>
<glyph glyph-name="sacute" unicode="&#x15b;" horiz-adv-x="720" >
<path fill="black" d="M83 184 C160.333 149.333 245.333 135 332 135 C412 135 453 140.333 453 163 C453 192.362 402.568 198.363 288 233 C162.667 270.333 93 316 93 396 C93 509.333 199 566 383 566 C467 566 544.667 554 634 522 L576 383 C504 411 443.667 422 389 422 C315 422 278 413.333 278 396 C278 375.605 321.31 369.007 436 337 C572.015 296.996 639 259.419 639 175 C639 65.6926 541.61 -10 322 -10 C236.667 -10 155 -1.66667 83 21 L83 184 Z " /><g transform="translate(23,0)" ><path fill="black" d="M248 606 L248 620 C290.667 668 341.667 722 375 766 L584 766 L584 756 C542.877 720.36 441.87 648.157 376 606 L248 606 Z " /></g></glyph>
<glyph glyph-name="Scircumflex" unicode="&#x15c;" horiz-adv-x="720" >
<path fill="black" d="M65 215 C151.667 165.667 245 149 333 149 C433 149 482 161.333 482 196 C482 241.26 427.605 247.361 297 306 C167.391 366.837 78 418.744 78 526 C78 651.333 178.667 725 388 725 C497.333 725 587 702.667 663 672 L604 524 C532 556 461.333 566 400 566 C320 566 270 552.667 270 518 C270 485.995 310.228 471.708 441 421 C577.767 362.002 674 318.531 674 200 C674 86.8745 575.494 -10 331 -10 C235 -10 147.667 1.33333 65 36 L65 215 Z " /><g transform="translate(21,158)" ><path fill="black" d="M123 606 L123 620 C167.641 656.763 239.075 728.754 271 766 L451 766 C482.805 720.943 549.618 666.783 599 620 L599 606 L479 606 C440.333 624.667 402.667 646.333 360 677 C316 645 280.333 623.333 243 606 L123 606 Z " /></g></glyph>
<glyph glyph-name="scircumflex" unicode="&#x15d;" horiz-adv-x="720" >
<path fill="black" d="M83 184 C160.333 149.333 245.333 135 332 135 C412 135 453 140.333 453 163 C453 192.362 402.568 198.363 288 233 C162.667 270.333 93 316 93 396 C93 509.333 199 566 383 566 C467 566 544.667 554 634 522 L576 383 C504 411 443.667 422 389 422 C315 422 278 413.333 278 396 C278 375.605 321.31 369.007 436 337 C572.015 296.996 639 259.419 639 175 C639 65.6926 541.61 -10 322 -10 C236.667 -10 155 -1.66667 83 21 L83 184 Z " /><g transform="translate(9,0)" ><path fill="black" d="M123 606 L123 620 C167.641 656.763 239.075 728.754 271 766 L451 766 C482.805 720.943 549.618 666.783 599 620 L599 606 L479 606 C440.333 624.667 402.667 646.333 360 677 C316 645 280.333 623.333 243 606 L123 606 Z " /></g></glyph>
<glyph glyph-name="Scedilla" unicode="&#x15e;" horiz-adv-x="720" d="M205 -132 C227.667 -138.667 255.333 -142 278 -142 C322 -142 347 -130.667 347 -116 C347 -93.3333 313.667 -80 247 -76 L286 -9 C206 -6.33333 134.333 6.66667 65 36 L65 215 C151.667 165.667 245 149 333 149 C433 149 482 161.333 482 196 C482 241.26 427.605 247.361 297 306 C167.391 366.837 78 418.744 78 526 C78 651.333 178.667 725 388 725 C497.333 725 587 702.667 663 672 L604 524 C532 556 461.333 566 400 566 C320 566 270 552.667 270 518 C270 485.995 310.228 471.708 441 421 C577.767 362.002 674 318.531 674 200 C674 95.9974 589.385 5.3367 384 -8 L369 -30 C441 -40.6667 487 -69.6667 487 -127 C487 -195 423.333 -240 302 -240 C267.333 -240 230.333 -235 205 -227 L205 -132 Z " />
<glyph glyph-name="scedilla" unicode="&#x15f;" horiz-adv-x="720" d="M214 -132 C236.667 -138.667 264.333 -142 287 -142 C331 -142 356 -130.667 356 -116 C356 -93.3333 322.667 -80 256 -76 L295 -10 C219 -7.33333 147 1 83 21 L83 184 C160.333 149.333 245.333 135 332 135 C412 135 453 140.333 453 163 C453 192.362 402.568 198.363 288 233 C162.667 270.333 93 316 93 396 C93 509.333 199 566 383 566 C467 566 544.667 554 634 522 L576 383 C504 411 443.667 422 389 422 C315 422 278 413.333 278 396 C278 375.605 321.31 369.007 436 337 C572.015 296.996 639 259.419 639 175 C639 77.6667 563.333 7.66667 394 -7 L378 -30 C450 -40.6667 496 -69.6667 496 -127 C496 -195 432.333 -240 311 -240 C276.333 -240 239.333 -235 214 -227 L214 -132 Z " />
<glyph glyph-name="Scaron" unicode="&#x160;" horiz-adv-x="720" >
<path fill="black" d="M65 215 C151.667 165.667 245 149 333 149 C433 149 482 161.333 482 196 C482 241.26 427.605 247.361 297 306 C167.391 366.837 78 418.744 78 526 C78 651.333 178.667 725 388 725 C497.333 725 587 702.667 663 672 L604 524 C532 556 461.333 566 400 566 C320 566 270 552.667 270 518 C270 485.995 310.228 471.708 441 421 C577.767 362.002 674 318.531 674 200 C674 86.8745 575.494 -10 331 -10 C235 -10 147.667 1.33333 65 36 L65 215 Z " /><g transform="translate(21,158)" ><path fill="black" d="M123 766 L243 766 C281 748 320 724.333 360 695 C402.667 727 440.333 747.333 479 766 L599 766 L599 752 C555.327 716.515 482.361 647.814 451 606 L271 606 C239.4 645.5 166.39 716.745 123 752 L123 766 Z " /></g></glyph>
<glyph glyph-name="scaron" unicode="&#x161;" horiz-adv-x="720" >
<path fill="black" d="M83 184 C160.333 149.333 245.333 135 332 135 C412 135 453 140.333 453 163 C453 192.362 402.568 198.363 288 233 C162.667 270.333 93 316 93 396 C93 509.333 199 566 383 566 C467 566 544.667 554 634 522 L576 383 C504 411 443.667 422 389 422 C315 422 278 413.333 278 396 C278 375.605 321.31 369.007 436 337 C572.015 296.996 639 259.419 639 175 C639 65.6926 541.61 -10 322 -10 C236.667 -10 155 -1.66667 83 21 L83 184 Z " /><g transform="translate(9,0)" ><path fill="black" d="M123 766 L243 766 C281 748 320 724.333 360 695 C402.667 727 440.333 747.333 479 766 L599 766 L599 752 C555.327 716.515 482.361 647.814 451 606 L271 606 C239.4 645.5 166.39 716.745 123 752 L123 766 Z " /></g></glyph>
<glyph glyph-name="uni0162" unicode="&#x162;" horiz-adv-x="720" d="M206 -132 C228.667 -138.667 256.333 -142 279 -142 C323 -142 348 -130.667 348 -116 C348 -93.3333 314.667 -80 248 -76 L293 0 L267 0 L267 556 L14 556 L14 714 L708 714 L708 556 L455 556 L455 0 L390 0 L370 -30 C442 -40.6667 488 -69.6667 488 -127 C488 -195 424.333 -240 303 -240 C268.333 -240 231.333 -235 206 -227 L206 -132 Z " />
<glyph glyph-name="uni0163" unicode="&#x163;" horiz-adv-x="720" d="M287 -132 C309.667 -138.667 337.333 -142 360 -142 C404 -142 429 -130.667 429 -116 C429 -93.3333 395.667 -80 329 -76 L373 -1 C259 23 202 92.3333 202 207 L202 406 L20 406 L20 492 L216 554 L252 678 L390 678 L390 556 L651 556 L651 406 L389 406 L389 235 C389 145.848 449.978 146 515 146 C557.667 146 604 150.333 660 169 L660 20 C596 -1.33333 533.333 -10 468 -10 L465 -10 L451 -30 C523 -40.6667 569 -69.6667 569 -127 C569 -195 505.333 -240 384 -240 C349.333 -240 312.333 -235 287 -227 L287 -132 Z " />
<glyph glyph-name="Tcaron" unicode="&#x164;" horiz-adv-x="720" >
<path fill="black" d="M267 0 L267 556 L14 556 L14 714 L708 714 L708 556 L455 556 L455 0 L267 0 Z " /><g transform="translate(0,158)" ><path fill="black" d="M123 766 L243 766 C281 748 320 724.333 360 695 C402.667 727 440.333 747.333 479 766 L599 766 L599 752 C555.327 716.515 482.361 647.814 451 606 L271 606 C239.4 645.5 166.39 716.745 123 752 L123 766 Z " /></g></glyph>
<glyph glyph-name="tcaron" unicode="&#x165;" horiz-adv-x="720" >
<g transform="translate(-22,0)" ><path fill="black" d="M202 406 L20 406 L20 492 L216 554 L252 678 L390 678 L390 556 L651 556 L651 406 L389 406 L389 235 C389 145.848 449.978 146 515 146 C557.667 146 604 150.333 660 169 L660 20 C596 -1.33333 533.333 -10 468 -10 C289.333 -10 202 65.6667 202 207 L202 406 Z " /></g><g transform="translate(574,55)" ><path fill="black" d="M-127 552 L-127 560 C-113.746 597.11 -95.4077 671.442 -90 712 L83 712 L83 701 C60.3333 651.667 24.6667 608 -18 552 L-127 552 Z " /></g></glyph>
<glyph glyph-name="Tbar" unicode="&#x166;" horiz-adv-x="720" d="M267 272 L111 272 L111 422 L267 422 L267 556 L14 556 L14 714 L708 714 L708 556 L455 556 L455 422 L611 422 L611 272 L455 272 L455 0 L267 0 L267 272 Z " />
<glyph glyph-name="tbar" unicode="&#x167;" horiz-adv-x="720" d="M28 335 L202 335 L202 406 L20 406 L20 492 L216 554 L252 678 L390 678 L390 556 L651 556 L651 406 L389 406 L389 335 L652 335 L652 219 L390 219 C398.101 146.091 452.646 146 515 146 C557.667 146 604 150.333 660 169 L660 20 C596 -1.33333 533.333 -10 468 -10 C289.333 -10 202 65.6667 202 207 L202 219 L28 219 L28 335 Z " />
<glyph glyph-name="Utilde" unicode="&#x168;" horiz-adv-x="720" >
<path fill="black" d="M40 714 L228 714 L228 280 C228 182.355 260.411 154 359 154 C460.177 154 493 181.13 493 281 L493 714 L681 714 L681 269 C681 89 583 -10 359 -10 C146.333 -10 40 81.3333 40 264 L40 714 Z " /><g transform="translate(-1,158)" ><path fill="black" d="M114 606 C119.342 696.822 160.66 776 254 776 C331.444 776 394.222 730 453 730 C490.333 730 499.667 746.333 509 777 L608 777 C601.333 658.333 547 607 467 607 C392.444 607 321.889 652 266 652 C235.333 652 221 644.667 213 606 L114 606 Z " /></g></glyph>
<glyph glyph-name="utilde" unicode="&#x169;" horiz-adv-x="720" >
<path fill="black" d="M43 556 L232 556 L232 254 C232 179.333 261.333 141 348 141 C456.39 141 483 197.411 483 280 L483 556 L671 556 L671 0 L526 0 L502 68 L491 68 C447 17.3333 379.667 -11 281 -11 C118.333 -11 43 61.6667 43 195 L43 556 Z " /><g transform="translate(-1,0)" ><path fill="black" d="M114 606 C119.342 696.822 160.66 776 254 776 C331.444 776 394.222 730 453 730 C490.333 730 499.667 746.333 509 777 L608 777 C601.333 658.333 547 607 467 607 C392.444 607 321.889 652 266 652 C235.333 652 221 644.667 213 606 L114 606 Z " /></g></glyph>
<glyph glyph-name="Umacron" unicode="&#x16a;" horiz-adv-x="720" >
<path fill="black" d="M40 714 L228 714 L228 280 C228 182.355 260.411 154 359 154 C460.177 154 493 181.13 493 281 L493 714 L681 714 L681 269 C681 89 583 -10 359 -10 C146.333 -10 40 81.3333 40 264 L40 714 Z " /><g transform="translate(2,151)" ><path fill="black" d="M155 748 L562 748 L562 629 L155 629 L155 748 Z " /></g></glyph>
<glyph glyph-name="umacron" unicode="&#x16b;" horiz-adv-x="720" >
<path fill="black" d="M43 556 L232 556 L232 254 C232 179.333 261.333 141 348 141 C456.39 141 483 197.411 483 280 L483 556 L671 556 L671 0 L526 0 L502 68 L491 68 C447 17.3333 379.667 -11 281 -11 C118.333 -11 43 61.6667 43 195 L43 556 Z " /><g transform="translate(2,-7)" ><path fill="black" d="M155 748 L562 748 L562 629 L155 629 L155 748 Z " /></g></glyph>
<glyph glyph-name="Ubreve" unicode="&#x16c;" horiz-adv-x="720" >
<path fill="black" d="M40 714 L228 714 L228 280 C228 182.355 260.411 154 359 154 C460.177 154 493 181.13 493 281 L493 714 L681 714 L681 269 C681 89 583 -10 359 -10 C146.333 -10 40 81.3333 40 264 L40 714 Z " /><g transform="translate(-1,158)" ><path fill="black" d="M251 791 C263 741.667 307 725 359 725 C415 725 457.333 741.667 468 791 L580 791 C576 672.333 493.667 606 359 606 C225.667 606 144.667 669.667 142 791 L251 791 Z " /></g></glyph>
<glyph glyph-name="ubreve" unicode="&#x16d;" horiz-adv-x="720" >
<path fill="black" d="M43 556 L232 556 L232 254 C232 179.333 261.333 141 348 141 C456.39 141 483 197.411 483 280 L483 556 L671 556 L671 0 L526 0 L502 68 L491 68 C447 17.3333 379.667 -11 281 -11 C118.333 -11 43 61.6667 43 195 L43 556 Z " /><g transform="translate(-1,0)" ><path fill="black" d="M251 791 C263 741.667 307 725 359 725 C415 725 457.333 741.667 468 791 L580 791 C576 672.333 493.667 606 359 606 C225.667 606 144.667 669.667 142 791 L251 791 Z " /></g></glyph>
<glyph glyph-name="Uring" unicode="&#x16e;" horiz-adv-x="720" >
<path fill="black" d="M40 714 L228 714 L228 280 C228 182.355 260.411 154 359 154 C460.177 154 493 181.13 493 281 L493 714 L681 714 L681 269 C681 89 583 -10 359 -10 C146.333 -10 40 81.3333 40 264 L40 714 Z " /><g transform="translate(0,158)" ><path fill="black" d="M198 728 C198 805.333 262.667 856 360 856 C453.307 856 521 803.797 521 729 C521 655.381 453.307 602 360 602 C262.667 602 198 653.333 198 728 Z M297 730 C297 706 320.333 688 359 688 C395 688 421 706 421 730 C421 752.667 395 771 359 771 C324.333 771 297 752.667 297 730 Z " /></g></glyph>
<glyph glyph-name="uring" unicode="&#x16f;" horiz-adv-x="720" >
<path fill="black" d="M43 556 L232 556 L232 254 C232 179.333 261.333 141 348 141 C456.39 141 483 197.411 483 280 L483 556 L671 556 L671 0 L526 0 L502 68 L491 68 C447 17.3333 379.667 -11 281 -11 C118.333 -11 43 61.6667 43 195 L43 556 Z " /><path fill="black" d="M198 728 C198 805.333 262.667 856 360 856 C453.307 856 521 803.797 521 729 C521 655.381 453.307 602 360 602 C262.667 602 198 653.333 198 728 Z M297 730 C297 706 320.333 688 359 688 C395 688 421 706 421 730 C421 752.667 395 771 359 771 C324.333 771 297 752.667 297 730 Z " /></glyph>
<glyph glyph-name="Uhungarumlaut" unicode="&#x170;" horiz-adv-x="720" d="M40 714 L228 714 L228 280 C228 182.355 260.411 154 359 154 C460.177 154 493 181.13 493 281 L493 714 L681 714 L681 269 C681 89 583 -10 359 -10 C146.333 -10 40 81.3333 40 264 L40 714 Z M166 764 L166 778 C214 838 259 893.333 283 924 L459 924 L459 914 C426.605 876.205 330.141 801.216 269 764 L166 764 Z M412 764 L412 778 C460 838 505 893.333 529 924 L705 924 L705 914 C672.605 876.205 576.141 801.216 515 764 L412 764 Z " />
<glyph glyph-name="uhungarumlaut" unicode="&#x171;" horiz-adv-x="720" d="M43 556 L232 556 L232 254 C232 179.333 261.333 141 348 141 C456.39 141 483 197.411 483 280 L483 556 L671 556 L671 0 L526 0 L502 68 L491 68 C447 17.3333 379.667 -11 281 -11 C118.333 -11 43 61.6667 43 195 L43 556 Z M166 606 L166 620 C214 680 259 735.333 283 766 L459 766 L459 756 C426.605 718.205 330.141 643.216 269 606 L166 606 Z M412 606 L412 620 C460 680 505 735.333 529 766 L705 766 L705 756 C672.605 718.205 576.141 643.216 515 606 L412 606 Z " />
<glyph glyph-name="Uogonek" unicode="&#x172;" horiz-adv-x="720" d="M503 -228 C479 -236 449.333 -243 408 -243 C306.667 -243 251 -204.333 251 -127 C251 -84.3333 280 -45.3333 338 -10 C139.333 -4 40 87.3333 40 264 L40 714 L228 714 L228 280 C228 182.355 260.411 154 359 154 C460.177 154 493 181.13 493 281 L493 714 L681 714 L681 269 C681 131.667 625.667 41.6667 499 7 C420.333 -30.3333 387 -61.3333 387 -92 C387 -116 407.333 -131 446 -131 C466 -131 488.333 -125.333 503 -120 L503 -228 Z " />
<glyph glyph-name="uogonek" unicode="&#x173;" horiz-adv-x="720" d="M21 556 L210 556 L210 254 C210 179.333 239.333 141 326 141 C434.39 141 461 197.411 461 280 L461 556 L649 556 L649 0 L618 0 C560.667 -44 539 -66 539 -94 C539 -115.333 558.667 -131 596 -131 C618.667 -131 640.333 -125.333 655 -120 L655 -228 C629.667 -236 600 -243 560 -243 C458.667 -243 402 -201 402 -129 C402 -90.3333 435.667 -46.6667 503 2 L480 68 L469 68 C425 17.3333 357.667 -11 259 -11 C96.3333 -11 21 61.6667 21 195 L21 556 Z " />
<glyph glyph-name="Wcircumflex" unicode="&#x174;" horiz-adv-x="720" >
<path fill="black" d="M194 148 C202.11 210.18 224.755 345.85 241 400 L281 555 L442 555 L483 399 C499.048 342.832 518.118 207.425 526 147 L532 147 C533.333 259 537 335 541 387 C546.374 475.672 553.693 501.089 567 714 L728 714 L662 0 L441 0 L397 128 C376.167 180.083 368.407 301.528 363 361 L358 361 C355.314 301.904 346.025 179.501 328 128 L286 0 L61 0 L-7 714 L150 714 C165.954 485.332 173.635 449.427 179 377 C184.333 323.667 187.667 250.667 189 148 L194 148 Z " /><g transform="translate(0,158)" ><path fill="black" d="M123 606 L123 620 C167.641 656.763 239.075 728.754 271 766 L451 766 C482.805 720.943 549.618 666.783 599 620 L599 606 L479 606 C440.333 624.667 402.667 646.333 360 677 C316 645 280.333 623.333 243 606 L123 606 Z " /></g></glyph>
<glyph glyph-name="wcircumflex" unicode="&#x175;" horiz-adv-x="720" >
<path fill="black" d="M193 173 C197 203.667 209.667 229 219 261 L282 492 L442 492 L501 261 C510.333 226.333 521.333 206.333 528 173 L534 173 C536.683 202.512 540.401 256.817 543 288 L572 556 L737 556 L643 0 L435 0 L394 157 C382 205 371 257 363 297 L357 297 C350.333 258.333 335 205 323 157 L280 0 L78 0 L-15 556 L152 556 L179 290 C181.697 260.336 184.3 199.997 187 173 L193 173 Z " /><g transform="translate(2,0)" ><path fill="black" d="M123 606 L123 620 C167.641 656.763 239.075 728.754 271 766 L451 766 C482.805 720.943 549.618 666.783 599 620 L599 606 L479 606 C440.333 624.667 402.667 646.333 360 677 C316 645 280.333 623.333 243 606 L123 606 Z " /></g></glyph>
<glyph glyph-name="Ycircumflex" unicode="&#x176;" horiz-adv-x="720" >
<path fill="black" d="M269 276 L4 714 L205 714 L363 473 L520 714 L718 714 L453 276 L453 0 L269 0 L269 276 Z " /><g transform="translate(0,158)" ><path fill="black" d="M123 606 L123 620 C167.641 656.763 239.075 728.754 271 766 L451 766 C482.805 720.943 549.618 666.783 599 620 L599 606 L479 606 C440.333 624.667 402.667 646.333 360 677 C316 645 280.333 623.333 243 606 L123 606 Z " /></g></glyph>
<glyph glyph-name="ycircumflex" unicode="&#x177;" horiz-adv-x="720" >
<path fill="black" d="M41 -95 C63.6667 -99 89.3333 -101 112 -101 C186.667 -101 234.667 -74.6667 272 -16 L292 7 L5 556 L204 556 L336 281 C348 253 363.333 230.667 374 196 L378 196 C388.667 226.667 404.333 262 411 282 L521 556 L716 556 L444 -50 C385.775 -182.33 303.913 -245 138 -245 C104.667 -245 71.6667 -243.667 41 -237 L41 -95 Z " /><g transform="translate(-1,0)" ><path fill="black" d="M123 606 L123 620 C167.641 656.763 239.075 728.754 271 766 L451 766 C482.805 720.943 549.618 666.783 599 620 L599 606 L479 606 C440.333 624.667 402.667 646.333 360 677 C316 645 280.333 623.333 243 606 L123 606 Z " /></g></glyph>
<glyph glyph-name="Ydieresis" unicode="&#x178;" horiz-adv-x="720" >
<g transform="translate(-1,154)" ><path fill="black" d="M118 690 C118 746 156.667 775 210 775 C263.333 775 305 744.667 305 690 C305 636.667 263.333 608 210 608 C156.667 608 118 635.333 118 690 Z M419 690 C419 746 457.667 775 511 775 C564.333 775 606 744.667 606 690 C606 636.667 564.333 608 511 608 C457.667 608 419 635.333 419 690 Z " /></g><path fill="black" d="M269 276 L4 714 L205 714 L363 473 L520 714 L718 714 L453 276 L453 0 L269 0 L269 276 Z " /></glyph>
<glyph glyph-name="Zacute" unicode="&#x179;" horiz-adv-x="720" >
<path fill="black" d="M69 126 L455 559 L88 559 L88 714 L656 714 L656 588 L281 159 L661 159 L661 0 L69 0 L69 126 Z " /><g transform="translate(25,158)" ><path fill="black" d="M248 606 L248 620 C290.667 668 341.667 722 375 766 L584 766 L584 756 C542.877 720.36 441.87 648.157 376 606 L248 606 Z " /></g></glyph>
<glyph glyph-name="zacute" unicode="&#x17a;" horiz-adv-x="720" >
<path fill="black" d="M64 109 L424 408 L82 408 L82 556 L646 556 L646 437 L298 148 L659 148 L659 0 L64 0 L64 109 Z " /><g transform="translate(22,0)" ><path fill="black" d="M248 606 L248 620 C290.667 668 341.667 722 375 766 L584 766 L584 756 C542.877 720.36 441.87 648.157 376 606 L248 606 Z " /></g></glyph>
<glyph glyph-name="Zdotaccent" unicode="&#x17b;" horiz-adv-x="720" >
<path fill="black" d="M69 126 L455 559 L88 559 L88 714 L656 714 L656 588 L281 159 L661 159 L661 0 L69 0 L69 126 Z " /><g transform="translate(10,158)" ><path fill="black" d="M246 690 C246 746 286.333 779 361 779 C437 779 476 746 476 690 C476 632.667 437 598 361 598 C289 598 246 628.667 246 690 Z " /></g></glyph>
<glyph glyph-name="zdotaccent" unicode="&#x17c;" horiz-adv-x="720" >
<path fill="black" d="M64 109 L424 408 L82 408 L82 556 L646 556 L646 437 L298 148 L659 148 L659 0 L64 0 L64 109 Z " /><g transform="translate(7,0)" ><path fill="black" d="M246 690 C246 746 286.333 779 361 779 C437 779 476 746 476 690 C476 632.667 437 598 361 598 C289 598 246 628.667 246 690 Z " /></g></glyph>
<glyph glyph-name="Zcaron" unicode="&#x17d;" horiz-adv-x="720" >
<path fill="black" d="M69 126 L455 559 L88 559 L88 714 L656 714 L656 588 L281 159 L661 159 L661 0 L69 0 L69 126 Z " /><g transform="translate(11,158)" ><path fill="black" d="M123 766 L243 766 C281 748 320 724.333 360 695 C402.667 727 440.333 747.333 479 766 L599 766 L599 752 C555.327 716.515 482.361 647.814 451 606 L271 606 C239.4 645.5 166.39 716.745 123 752 L123 766 Z " /></g></glyph>
<glyph glyph-name="zcaron" unicode="&#x17e;" horiz-adv-x="720" >
<path fill="black" d="M64 109 L424 408 L82 408 L82 556 L646 556 L646 437 L298 148 L659 148 L659 0 L64 0 L64 109 Z " /><g transform="translate(8,0)" ><path fill="black" d="M123 766 L243 766 C281 748 320 724.333 360 695 C402.667 727 440.333 747.333 479 766 L599 766 L599 752 C555.327 716.515 482.361 647.814 451 606 L271 606 C239.4 645.5 166.39 716.745 123 752 L123 766 Z " /></g></glyph>
<glyph glyph-name="longs" unicode="&#x17f;" horiz-adv-x="720" d="M233 0 L233 566 C233 712.693 331.255 765 494 765 C567.333 765 623.667 754.667 669 740 L629 604 C599.667 613.333 560.333 617 523 617 C454.333 617 420 595.667 420 553 L420 0 L233 0 Z " />
<glyph glyph-name="florin" unicode="&#x192;" horiz-adv-x="720" d="M84 -85 C110.667 -93 136 -96 164 -96 C230.667 -96 256 -75.6667 256 -37 L256 388 L115 388 L115 500 L257 530 L257 539 C257 684.333 335.333 743 502 743 C570 743 621.333 735.667 672 717 L634 587 C606 594.333 575 598 541 598 C473 598 439 581 439 541 L439 533 L607 533 L607 388 L439 388 L439 -5 C439 -155.225 389.619 -244 212 -244 C149.333 -244 113.333 -238 84 -230 L84 -85 Z " />
<glyph glyph-name="uni0218" unicode="&#x218;" horiz-adv-x="720" >
<path fill="black" d="M65 215 C151.667 165.667 245 149 333 149 C433 149 482 161.333 482 196 C482 241.26 427.605 247.361 297 306 C167.391 366.837 78 418.744 78 526 C78 651.333 178.667 725 388 725 C497.333 725 587 702.667 663 672 L604 524 C532 556 461.333 566 400 566 C320 566 270 552.667 270 518 C270 485.995 310.228 471.708 441 421 C577.767 362.002 674 318.531 674 200 C674 86.8745 575.494 -10 331 -10 C235 -10 147.667 1.33333 65 36 L65 215 Z " /><g transform="translate(1081,0)" ><path fill="black" d="M-848 -221 L-848 -209 C-831.769 -168.423 -813.237 -100.275 -808 -61 L-634 -61 L-634 -72 C-656.667 -125.333 -690.333 -167.667 -737 -221 L-848 -221 Z " /></g></glyph>
<glyph glyph-name="uni0219" unicode="&#x219;" horiz-adv-x="720" >
<path fill="black" d="M83 184 C160.333 149.333 245.333 135 332 135 C412 135 453 140.333 453 163 C453 192.362 402.568 198.363 288 233 C162.667 270.333 93 316 93 396 C93 509.333 199 566 383 566 C467 566 544.667 554 634 522 L576 383 C504 411 443.667 422 389 422 C315 422 278 413.333 278 396 C278 375.605 321.31 369.007 436 337 C572.015 296.996 639 259.419 639 175 C639 65.6926 541.61 -10 322 -10 C236.667 -10 155 -1.66667 83 21 L83 184 Z " /><g transform="translate(1090,0)" ><path fill="black" d="M-848 -221 L-848 -209 C-831.769 -168.423 -813.237 -100.275 -808 -61 L-634 -61 L-634 -72 C-656.667 -125.333 -690.333 -167.667 -737 -221 L-848 -221 Z " /></g></glyph>
<glyph glyph-name="uni021A" unicode="&#x21a;" horiz-adv-x="720" >
<path fill="black" d="M267 0 L267 556 L14 556 L14 714 L708 714 L708 556 L455 556 L455 0 L267 0 Z " /><g transform="translate(1082,0)" ><path fill="black" d="M-848 -221 L-848 -209 C-831.769 -168.423 -813.237 -100.275 -808 -61 L-634 -61 L-634 -72 C-656.667 -125.333 -690.333 -167.667 -737 -221 L-848 -221 Z " /></g></glyph>
<glyph glyph-name="uni021B" unicode="&#x21b;" horiz-adv-x="720" >
<path fill="black" d="M202 406 L20 406 L20 492 L216 554 L252 678 L390 678 L390 556 L651 556 L651 406 L389 406 L389 235 C389 145.848 449.978 146 515 146 C557.667 146 604 150.333 660 169 L660 20 C596 -1.33333 533.333 -10 468 -10 C289.333 -10 202 65.6667 202 207 L202 406 Z " /><g transform="translate(1163,0)" ><path fill="black" d="M-848 -221 L-848 -209 C-831.769 -168.423 -813.237 -100.275 -808 -61 L-634 -61 L-634 -72 C-656.667 -125.333 -690.333 -167.667 -737 -221 L-848 -221 Z " /></g></glyph>
<glyph glyph-name="uni0237" unicode="&#x237;" horiz-adv-x="722" d="M29 -73 C89 -87.6667 160 -92 204 -92 C306.848 -92 339 -67.0779 339 29 L339 406 L118 419 L118 556 L527 556 L527 -13 C527 -169 440 -245 236 -245 C173.333 -245 94.3333 -237.667 29 -219 L29 -73 Z " />
<glyph glyph-name="circumflex" unicode="&#x2c6;" horiz-adv-x="720" d="M123 606 L123 620 C167.641 656.763 239.075 728.754 271 766 L451 766 C482.805 720.943 549.618 666.783 599 620 L599 606 L479 606 C440.333 624.667 402.667 646.333 360 677 C316 645 280.333 623.333 243 606 L123 606 Z " />
<glyph glyph-name="caron" unicode="&#x2c7;" horiz-adv-x="720" d="M123 766 L243 766 C281 748 320 724.333 360 695 C402.667 727 440.333 747.333 479 766 L599 766 L599 752 C555.327 716.515 482.361 647.814 451 606 L271 606 C239.4 645.5 166.39 716.745 123 752 L123 766 Z " />
<glyph glyph-name="uni02C9" unicode="&#x2c9;" horiz-adv-x="720" >
<g transform="translate(3,-7)" ><path fill="black" d="M155 748 L562 748 L562 629 L155 629 L155 748 Z " /></g></glyph>
<glyph glyph-name="breve" unicode="&#x2d8;" horiz-adv-x="720" d="M251 791 C263 741.667 307 725 359 725 C415 725 457.333 741.667 468 791 L580 791 C576 672.333 493.667 606 359 606 C225.667 606 144.667 669.667 142 791 L251 791 Z " />
<glyph glyph-name="dotaccent" unicode="&#x2d9;" horiz-adv-x="720" d="M246 690 C246 746 286.333 779 361 779 C437 779 476 746 476 690 C476 632.667 437 598 361 598 C289 598 246 628.667 246 690 Z " />
<glyph glyph-name="ring" unicode="&#x2da;" horiz-adv-x="720" d="M198 728 C198 805.333 262.667 856 360 856 C453.307 856 521 803.797 521 729 C521 655.381 453.307 602 360 602 C262.667 602 198 653.333 198 728 Z M297 730 C297 706 320.333 688 359 688 C395 688 421 706 421 730 C421 752.667 395 771 359 771 C324.333 771 297 752.667 297 730 Z " />
<glyph glyph-name="ogonek" unicode="&#x2db;" horiz-adv-x="720" d="M493 -228 C467.667 -236 438 -243 398 -243 C296.667 -243 240 -201 240 -129 C240 -86.3333 283 -36 367 20 L456 0 C398.667 -44 377 -66 377 -94 C377 -115.333 396.667 -131 434 -131 C456.667 -131 478.333 -125.333 493 -120 L493 -228 Z " />
<glyph glyph-name="tilde" unicode="&#x2dc;" horiz-adv-x="720" d="M114 606 C119.342 696.822 160.66 776 254 776 C331.444 776 394.222 730 453 730 C490.333 730 499.667 746.333 509 777 L608 777 C601.333 658.333 547 607 467 607 C392.444 607 321.889 652 266 652 C235.333 652 221 644.667 213 606 L114 606 Z " />
<glyph glyph-name="hungarumlaut" unicode="&#x2dd;" horiz-adv-x="720" d="M115 606 L115 620 C163 680 208 735.333 232 766 L408 766 L408 756 C375.605 718.205 279.141 643.216 218 606 L115 606 Z M361 606 L361 620 C409 680 454 735.333 478 766 L654 766 L654 756 C621.605 718.205 525.141 643.216 464 606 L361 606 Z " />
<glyph glyph-name="uni0394" unicode="&#x394;" horiz-adv-x="720" d="M-9 106 L251 718 L471 718 L730 104 L730 0 L-9 0 L-9 106 Z M530 151 L396 504 C389.333 520 369.333 552.333 360 571 C352 552.333 332.333 518 327 502 L189 151 L530 151 Z " />
<glyph glyph-name="uni03A9" unicode="&#x3a9;" horiz-adv-x="720" d="M-9 141 L159 141 C76.3333 190.333 14 282.333 14 417 C14 618.333 139 725 359 725 C572.281 725 705 624.693 705 414 C705 288.667 648.667 194.333 558 141 L730 141 L730 0 L420 0 L420 160 C500 200 534 277.333 534 388 C534 521.333 482.333 584 361 584 C241 584 188 521.667 188 387 C188 273.667 223 198.667 299 160 L299 0 L-9 0 L-9 141 Z " />
<glyph glyph-name="uni03BC" unicode="&#x3bc;" horiz-adv-x="720" >
<path fill="black" d="M43 90 C28.3333 118.667 21 153.667 21 195 L21 556 L210 556 L210 254 C210 243.333 210.667 235 212 227 L230 227 L230 177 C248.667 153 278 141 326 141 C434.39 141 461 197.411 461 280 L461 556 L649 556 L649 0 L504 0 L480 68 L469 68 C425 17.3333 357.667 -11 259 -11 C248.333 -11 239.333 -11.3333 230 -10 L230 -240 L43 -240 L43 90 Z " /></glyph>
<glyph glyph-name="pi" unicode="&#x3c0;" horiz-adv-x="720" d="M119 415 L-7 415 L-7 496 L102 556 L723 556 L723 415 L590 415 L590 188 C590 153.333 612.333 137 647 137 C672.333 137 700.333 145.333 719 156 L719 26 C692.333 6 641.667 -10 583 -10 C479 -10 418 49.6667 418 171 L418 415 L290 415 L290 0 L119 0 L119 415 Z " />
<glyph glyph-name="Wgrave" unicode="&#x1e80;" horiz-adv-x="720" >
<path fill="black" d="M194 148 C202.11 210.18 224.755 345.85 241 400 L281 555 L442 555 L483 399 C499.048 342.832 518.118 207.425 526 147 L532 147 C533.333 259 537 335 541 387 C546.374 475.672 553.693 501.089 567 714 L728 714 L662 0 L441 0 L397 128 C376.167 180.083 368.407 301.528 363 361 L358 361 C355.314 301.904 346.025 179.501 328 128 L286 0 L61 0 L-7 714 L150 714 C165.954 485.332 173.635 449.427 179 377 C184.333 323.667 187.667 250.667 189 148 L194 148 Z " /><g transform="translate(-53,158)" ><path fill="black" d="M182 766 L391 766 C423.523 725.346 483.31 652.021 518 620 L518 606 L390 606 C333.7 638.172 222.753 720.68 182 756 L182 766 Z " /></g></glyph>
<glyph glyph-name="wgrave" unicode="&#x1e81;" horiz-adv-x="720" >
<path fill="black" d="M193 173 C197 203.667 209.667 229 219 261 L282 492 L442 492 L501 261 C510.333 226.333 521.333 206.333 528 173 L534 173 C536.683 202.512 540.401 256.817 543 288 L572 556 L737 556 L643 0 L435 0 L394 157 C382 205 371 257 363 297 L357 297 C350.333 258.333 335 205 323 157 L280 0 L78 0 L-15 556 L152 556 L179 290 C181.697 260.336 184.3 199.997 187 173 L193 173 Z " /><g transform="translate(-51,0)" ><path fill="black" d="M182 766 L391 766 C423.523 725.346 483.31 652.021 518 620 L518 606 L390 606 C333.7 638.172 222.753 720.68 182 756 L182 766 Z " /></g></glyph>
<glyph glyph-name="Wacute" unicode="&#x1e82;" horiz-adv-x="720" >
<path fill="black" d="M194 148 C202.11 210.18 224.755 345.85 241 400 L281 555 L442 555 L483 399 C499.048 342.832 518.118 207.425 526 147 L532 147 C533.333 259 537 335 541 387 C546.374 475.672 553.693 501.089 567 714 L728 714 L662 0 L441 0 L397 128 C376.167 180.083 368.407 301.528 363 361 L358 361 C355.314 301.904 346.025 179.501 328 128 L286 0 L61 0 L-7 714 L150 714 C165.954 485.332 173.635 449.427 179 377 C184.333 323.667 187.667 250.667 189 148 L194 148 Z " /><g transform="translate(14,158)" ><path fill="black" d="M248 606 L248 620 C290.667 668 341.667 722 375 766 L584 766 L584 756 C542.877 720.36 441.87 648.157 376 606 L248 606 Z " /></g></glyph>
<glyph glyph-name="wacute" unicode="&#x1e83;" horiz-adv-x="720" >
<path fill="black" d="M193 173 C197 203.667 209.667 229 219 261 L282 492 L442 492 L501 261 C510.333 226.333 521.333 206.333 528 173 L534 173 C536.683 202.512 540.401 256.817 543 288 L572 556 L737 556 L643 0 L435 0 L394 157 C382 205 371 257 363 297 L357 297 C350.333 258.333 335 205 323 157 L280 0 L78 0 L-15 556 L152 556 L179 290 C181.697 260.336 184.3 199.997 187 173 L193 173 Z " /><g transform="translate(16,0)" ><path fill="black" d="M248 606 L248 620 C290.667 668 341.667 722 375 766 L584 766 L584 756 C542.877 720.36 441.87 648.157 376 606 L248 606 Z " /></g></glyph>
<glyph glyph-name="Wdieresis" unicode="&#x1e84;" horiz-adv-x="720" >
<g transform="translate(-1,154)" ><path fill="black" d="M118 690 C118 746 156.667 775 210 775 C263.333 775 305 744.667 305 690 C305 636.667 263.333 608 210 608 C156.667 608 118 635.333 118 690 Z M419 690 C419 746 457.667 775 511 775 C564.333 775 606 744.667 606 690 C606 636.667 564.333 608 511 608 C457.667 608 419 635.333 419 690 Z " /></g><path fill="black" d="M194 148 C202.11 210.18 224.755 345.85 241 400 L281 555 L442 555 L483 399 C499.048 342.832 518.118 207.425 526 147 L532 147 C533.333 259 537 335 541 387 C546.374 475.672 553.693 501.089 567 714 L728 714 L662 0 L441 0 L397 128 C376.167 180.083 368.407 301.528 363 361 L358 361 C355.314 301.904 346.025 179.501 328 128 L286 0 L61 0 L-7 714 L150 714 C165.954 485.332 173.635 449.427 179 377 C184.333 323.667 187.667 250.667 189 148 L194 148 Z " /></glyph>
<glyph glyph-name="wdieresis" unicode="&#x1e85;" horiz-adv-x="720" >
<g transform="translate(1,-4)" ><path fill="black" d="M118 690 C118 746 156.667 775 210 775 C263.333 775 305 744.667 305 690 C305 636.667 263.333 608 210 608 C156.667 608 118 635.333 118 690 Z M419 690 C419 746 457.667 775 511 775 C564.333 775 606 744.667 606 690 C606 636.667 564.333 608 511 608 C457.667 608 419 635.333 419 690 Z " /></g><path fill="black" d="M193 173 C197 203.667 209.667 229 219 261 L282 492 L442 492 L501 261 C510.333 226.333 521.333 206.333 528 173 L534 173 C536.683 202.512 540.401 256.817 543 288 L572 556 L737 556 L643 0 L435 0 L394 157 C382 205 371 257 363 297 L357 297 C350.333 258.333 335 205 323 157 L280 0 L78 0 L-15 556 L152 556 L179 290 C181.697 260.336 184.3 199.997 187 173 L193 173 Z " /></glyph>
<glyph glyph-name="uni2010" unicode="&#x2010;" horiz-adv-x="722" >
<g transform="translate(-22,0)" ><path fill="black" d="M169 350 L553 350 L553 190 L169 190 L169 350 Z " /></g></glyph>
<glyph glyph-name="endash" unicode="&#x2013;" horiz-adv-x="720" d="M103 350 L618 350 L618 190 L103 190 L103 350 Z " />
<glyph glyph-name="emdash" unicode="&#x2014;" horiz-adv-x="720" d="M-22 350 L744 350 L744 190 L-22 190 L-22 350 Z " />
<glyph glyph-name="quoteleft" unicode="&#x2018;" horiz-adv-x="720" >
<g transform="translate(-1,0)" ><path fill="black" d="M247 438 L238 449 C261.824 528.413 306.584 640.251 347 713 L484 713 C459.631 626.354 435.118 514.082 422 438 L247 438 Z " /></g></glyph>
<glyph glyph-name="quoteright" unicode="&#x2019;" horiz-adv-x="720" >
<g transform="translate(-4,0)" ><path fill="black" d="M240 424 C263.919 501.072 288.981 641.829 297 714 L475 714 L483 703 C460.333 605.667 421.333 497.333 380 424 L240 424 Z " /></g></glyph>
<glyph glyph-name="quotesinglbase" unicode="&#x201a;" horiz-adv-x="720" >
<g transform="translate(-22,0)" ><path fill="black" d="M226 -157 C250.942 -137.601 277.76 73.0669 307 198 L478 148 L488 142 C463.959 61.8624 419.399 -138.306 374 -157 L226 -157 Z " /></g></glyph>
<glyph glyph-name="quotedblleft" unicode="&#x201c;" horiz-adv-x="720" >
<g transform="translate(-169,0)" ><path fill="black" d="M247 438 L238 449 C261.824 528.413 306.584 640.251 347 713 L484 713 C459.631 626.354 435.118 514.082 422 438 L247 438 Z " /></g><g transform="translate(113,0)" ><path fill="black" d="M247 438 L238 449 C261.824 528.413 306.584 640.251 347 713 L484 713 C459.631 626.354 435.118 514.082 422 438 L247 438 Z " /></g></glyph>
<glyph glyph-name="quotedblright" unicode="&#x201d;" horiz-adv-x="720" >
<g transform="translate(43,0)" ><path fill="black" d="M96 438 C120.066 523.569 147.3 638.102 158 713 L333 713 L342 702 C318.176 622.587 273.416 510.749 233 438 L96 438 Z M378 438 C402.066 523.569 429.3 638.102 440 713 L615 713 L624 702 C600.176 622.587 555.416 510.749 515 438 L378 438 Z " /></g></glyph>
<glyph glyph-name="quotedblbase" unicode="&#x201e;" horiz-adv-x="720" >
<g transform="translate(-93,0)" ><path fill="black" d="M226 -157 C250.942 -137.601 277.76 73.0669 307 198 L478 148 L488 142 C463.959 61.8624 419.399 -138.306 374 -157 L226 -157 Z " /></g><g transform="translate(130,0)" ><path fill="black" d="M226 -157 C250.942 -137.601 277.76 73.0669 307 198 L478 148 L488 142 C463.959 61.8624 419.399 -138.306 374 -157 L226 -157 Z " /></g></glyph>
<glyph glyph-name="dagger" unicode="&#x2020;" horiz-adv-x="720" d="M267 0 L303 448 L100 433 L100 570 L303 555 L267 760 L444 760 L408 555 L621 570 L621 433 L408 448 L444 0 L267 0 Z " />
<glyph glyph-name="daggerdbl" unicode="&#x2021;" horiz-adv-x="720" d="M95 306 L309 291 L280 384 L309 469 L95 454 L95 592 L309 577 L274 760 L449 760 L414 577 L627 592 L627 454 L414 469 L444 384 L414 291 L627 306 L627 168 L414 184 L449 0 L274 0 L309 184 L95 168 L95 306 Z " />
<glyph glyph-name="bullet" unicode="&#x2022;" horiz-adv-x="720" d="M179 365 C179 487.589 254.281 540 361 540 C465.918 540 543 487.589 543 365 C543 244.974 465.156 190 361 190 C254.281 190 179 242.411 179 365 Z " />
<glyph glyph-name="ellipsis" unicode="&#x2026;" horiz-adv-x="720" >
<path fill="black" d="M351 -7 L340 -7 C276 -7 228 20.6667 228 86 C228 154 276 181 340 181 L351 181 L362 181 C424.667 181 472 154 472 86 C472 20.6667 424.667 -7 362 -7 L351 -7 Z " /></glyph>
<glyph glyph-name="perthousand" unicode="&#x2030;" horiz-adv-x="720" d="M217 -171 C83.6667 -171 14 -85.6667 14 57 C14 205 77.6667 280 215 280 C275 280 322.333 264.667 357 234 C391 264.667 438.333 280 499 280 C636.333 280 707 199 707 55 C707 -90.3333 641 -171 501 -171 C442.333 -171 396 -155 362 -123 C326.667 -155 278.333 -171 217 -171 Z M344 454 C210.667 454 141 539.333 141 682 C141 830 204.667 905 342 905 C479.333 905 550 824 550 680 C550 534.667 484 454 344 454 Z M83 382 L599 439 L599 356 L83 299 L83 382 Z M346 562 C402 562 429 591 429 679 C429 768.333 401 797 345 797 C289 797 264 768 264 680 C264 592 288.667 562 346 562 Z M503 -63 C559 -63 586 -34 586 54 C586 143.333 558 172 502 172 C451.333 172 427.333 149.667 422 83 C423.333 73.6667 423 65.6667 423 55 C423 44.3333 423.333 35.3333 422 26 C427.333 -40.6667 452.333 -63 503 -63 Z M219 -63 C265.667 -63 293.333 -43 300 17 C298.667 30.3333 298 42.3333 298 57 C298 70.3333 298.667 83 300 95 C292 152.333 264.667 172 218 172 C162 172 137 143 137 55 C137 -33 161.667 -63 219 -63 Z " />
<glyph glyph-name="guilsinglleft" unicode="&#x2039;" horiz-adv-x="720" d="M179 273 L179 286 L409 521 L541 452 L369 280 L541 109 L409 41 L179 273 Z " />
<glyph glyph-name="guilsinglright" unicode="&#x203a;" horiz-adv-x="720" d="M385 279 L213 450 L345 518 L575 286 L575 273 L345 38 L213 107 L385 279 Z " />
<glyph glyph-name="fraction" unicode="&#x2044;" horiz-adv-x="720" d="M70 382 L643 439 L643 356 L70 299 L70 382 Z " />
<glyph glyph-name="franc" unicode="&#x20a3;" horiz-adv-x="720" d="M135 122 L34 122 L34 228 L135 228 L135 714 L658 714 L658 564 L320 564 L320 445 L638 445 L638 297 L320 297 L320 228 L508 228 L508 122 L320 122 L320 0 L135 0 L135 122 Z " />
<glyph glyph-name="lira" unicode="&#x20a4;" horiz-adv-x="720" d="M46 336 L158 336 L158 383 L46 383 L46 482 L158 482 L158 515 C158 672.177 269.078 725 445 725 C537 725 614 709.333 682 684 L626 547 C566 565.667 515.667 574 461 574 C383.667 574 341 555 341 511 L341 482 L563 482 L563 383 L341 383 L341 336 L563 336 L563 237 L340 237 C333.333 209 304.333 175.333 247 154 L692 154 L692 0 L44 0 L44 148 C121.333 173.333 152.667 202.333 158 237 L46 237 L46 336 Z " />
<glyph glyph-name="peseta" unicode="&#x20a7;" horiz-adv-x="720" d="M21 714 L251 714 C445.667 714 536 637.667 536 499 C536 467.667 531.667 440.333 523 417 L621 417 L621 326 L744 326 L744 218 L621 218 L621 173 C621 134.333 635.333 116 678 116 C699.333 116 726.667 122.667 744 132 L744 19 C721.333 4.33333 691.333 -4 642 -4 C526.667 -4 469 43 469 137 L469 218 L385 218 L385 298 C344.333 286 295 280 237 280 L200 280 L200 0 L21 0 L21 714 Z M226 426 C310 426 352 446.333 352 497 C352 543.667 315.333 567 242 567 L200 567 L200 426 L226 426 Z " />
<glyph glyph-name="Euro" unicode="&#x20ac;" horiz-adv-x="720" d="M21 327 L106 327 C104.667 332.333 105 343.333 105 350 C105 358 104.667 368 106 372 L21 372 L21 470 L115 470 C149.667 624.667 272 723 484 723 C564 723 639.667 708.333 709 683 L649 542 C596.333 561.333 541.667 571 485 571 C377 571 318 526 298 470 L551 470 L551 372 L289 372 C287.667 368 288 360.667 288 350 C288 340.667 287.667 333.667 289 327 L545 327 L545 229 L301 229 C323.667 166.333 385.667 144 499 144 C561.667 144 622 155.333 678 174 L678 20 C626 -1.33333 559 -10 487 -10 C271 -10 154 79.6667 118 229 L21 229 L21 327 Z " />
<glyph glyph-name="uni2113" unicode="&#x2113;" horiz-adv-x="720" d="M67 333 C105.667 341 143.667 348 181 356 L181 523 C181 649.667 250 722 418 722 C552.667 722 633 659 633 539 C633 425.667 540.667 342 358 286 L358 192 C358 136 380.667 114 438 114 C490 114 520 149 524 209 L655 209 C651 67.6667 584.333 -8 411 -8 C274.082 -8 181 72.4113 181 203 L181 235 C143.667 227 105.667 220 67 212 L67 333 Z M358 412 C438 433.333 477 477 477 541 C477 585 457.333 607 418 607 C371.333 607 358 588.667 358 550 L358 412 Z " />
<glyph glyph-name="trademark" unicode="&#x2122;" horiz-adv-x="720" d="M328 375 L328 714 L466 714 L534 596 L600 714 L740 714 L740 375 L643 375 L643 548 C643 569.333 644.667 586.333 646 601 L641 601 L562 490 L499 490 L423 602 L420 602 C422.667 584.667 422 568.667 422 550 L422 375 L328 375 Z M83 375 L83 632 L-27 632 L-27 714 L290 714 L290 632 L186 632 L186 375 L83 375 Z " />
<glyph glyph-name="Omega" unicode="&#x2126;" horiz-adv-x="720" >
<g transform="translate(-22,0)" ><path fill="black" d="M-9 141 L159 141 C76.3333 190.333 14 282.333 14 417 C14 618.333 139 725 359 725 C572.281 725 705 624.693 705 414 C705 288.667 648.667 194.333 558 141 L730 141 L730 0 L420 0 L420 160 C500 200 534 277.333 534 388 C534 521.333 482.333 584 361 584 C241 584 188 521.667 188 387 C188 273.667 223 198.667 299 160 L299 0 L-9 0 L-9 141 Z " /></g></glyph>
<glyph glyph-name="estimated" unicode="&#x212e;" horiz-adv-x="720" d="M177 84 C215.667 53.3333 280.667 25 374 25 C494 25 567.667 73.3333 621 140 L667 119 C604.851 43.3409 527.066 -17 370 -17 C144.9 -17 27 110.896 27 263 C27 450.636 204.996 535 372 535 C556.156 535 706 429.563 706 259 L177 259 L177 84 Z M177 301 L556 301 L556 436 C525.333 462.667 455.667 494 365 494 C282.333 494 221 469 177 437 L177 301 Z " />
<glyph glyph-name="uni2219" unicode="&#x2219;" horiz-adv-x="722" >
<g transform="translate(-45,257)" ><path fill="black" d="M250 88 C250 157.333 297.667 185 363 185 C427 185 474 157.333 474 88 C474 21.3333 425.667 -7 363 -7 C299 -7 250 21.3333 250 88 Z " /></g></glyph>
<glyph glyph-name="radical" unicode="&#x221a;" horiz-adv-x="720" d="M1 466 L218 466 L333 216 L613 863 L764 863 L406 -7 L267 -7 L114 340 L1 340 L1 466 Z " />
<glyph glyph-name="infinity" unicode="&#x221e;" horiz-adv-x="720" d="M-16 351 C-16 447.866 61.6407 523 179 523 C256.333 523 306 489 362 433 C404.667 481 458.667 521 544 521 C656.078 521 737 449.922 737 354 C737 257.87 655.619 179 542 179 C463.333 179 410.333 219.333 365 262 C306.333 198 262.333 182 185 182 C65.026 182 -16 252.359 -16 351 Z M114 352 C114 328 138.333 302 189 302 C231.667 302 260 317 288 345 C261.333 375.667 230.667 404 188 404 C141.333 404 114 378.667 114 352 Z M439 350 C464.333 323.333 493.333 299 532 299 C578.667 299 607 323 607 351 C607 379 576 400 532 400 C494.667 400 468.333 382 439 350 Z " />
<glyph glyph-name="approxequal" unicode="&#x2248;" horiz-adv-x="720" d="M672 201 C628 166.333 581 148 505 148 C447.667 148 407.333 157.667 338 179 C286 195 246.667 206 204 206 C140 206 94.6667 181.667 48 147 L48 282 C92 316.667 137.333 335 216 335 C269.376 335 310.979 327.007 383 303 C440.333 284.333 476 277 516 277 C578.667 277 624 296 672 336 L672 201 Z M672 420 C628 385.333 581 367 505 367 C447.667 367 407.333 376.667 338 398 C286 414 246.667 425 204 425 C140 425 94.6667 400.667 48 366 L48 501 C92 535.667 137.333 554 216 554 C269.376 554 310.979 546.007 383 522 C440.333 503.333 476 496 516 496 C578.667 496 624 515 672 555 L672 420 Z " />
<glyph glyph-name="lessequal" unicode="&#x2264;" horiz-adv-x="720" d="M73 366 L73 449 L695 685 L695 543 L268 413 L695 293 L695 151 L73 366 Z M73 0 L73 129 L694 129 L694 0 L73 0 Z " />
<glyph glyph-name="greaterequal" unicode="&#x2265;" horiz-adv-x="720" d="M49 293 L476 413 L49 543 L49 685 L671 449 L671 366 L49 151 L49 293 Z M50 129 L671 129 L671 0 L50 0 L50 129 Z " />
</font>
</svg>
