<?xml version="1.0" encoding="UTF-8"?>
<svg xmlns="http://www.w3.org/2000/svg" xmlns:xlink="http://www.w3.org/1999/xlink" version="1.1" >
<font id="Monoto-53SmCd100Th" horiz-adv-x="526">
<font-face  font-family="Monoto 53 SmCd" units-per-em="1000" ascent="955" descent="-235" font-style="normal" font-weight="100" font-stretch="semi-condensed" cap-height="714" x-height="528" underline-position="-75" underline-thickness="50" />
<missing-glyph horiz-adv-x="530" d="M45 0 L45 714 L456 714 L456 0 L45 0 Z M405 51 L405 663 L96 663 L96 51 L405 51 Z " />
<glyph glyph-name="uni0000" horiz-adv-x="530" />
<glyph glyph-name="uni000D" unicode="&#xd;" horiz-adv-x="530" />
<glyph glyph-name="space" unicode="&#x20;" horiz-adv-x="530" />
<glyph glyph-name="exclam" unicode="&#x21;" horiz-adv-x="530" d="M239 174 L237 714 L265 714 L263 174 L239 174 Z M249 -12 C226.333 -12 221 4.33333 221 23 C221 41.6667 226.333 58 249 58 C275.667 58 279 41.6667 279 23 C279 4.33333 275.667 -12 249 -12 Z " />
<glyph glyph-name="quotedbl" unicode="&#x22;" horiz-adv-x="530" >
<g transform="translate(-73,0)" ><path fill="black" d="M240 456 L236 714 L264 714 L260 456 L240 456 Z " /></g><g transform="translate(73,0)" ><path fill="black" d="M240 456 L236 714 L264 714 L260 456 L240 456 Z " /></g></glyph>
<glyph glyph-name="numbersign" unicode="&#x23;" horiz-adv-x="530" d="M103 0 L138 231 L21 231 L21 255 L141 255 L174 471 L52 471 L52 495 L178 495 L212 714 L236 714 L203 495 L337 495 L371 714 L395 714 L362 495 L480 495 L480 471 L359 471 L326 255 L447 255 L447 231 L323 231 L287 0 L262 0 L298 231 L163 231 L127 0 L103 0 Z M302 255 L334 471 L199 471 L166 255 L302 255 Z " />
<glyph glyph-name="dollar" unicode="&#x24;" horiz-adv-x="530" d="M87 86 C128.333 67.3333 192 52.3333 252 51 L252 354 C155.967 394.014 85 436.6 85 537 C85 633.049 156.073 689.671 252 695 L252 760 L276 760 L276 696 C327.333 695.333 376.333 683.333 423 660 L411 636 C365.667 658.667 320.667 670 276 670 L276 371 C387.04 326.055 453 282.806 453 187 C453 91 385.333 34 276 26 L276 -58 L252 -58 L252 26 C184 27.3333 125.667 42.3333 87 57 L87 86 Z M276 52 C364 57.3333 427 100.333 427 187 C427 265.898 373.955 300.641 276 343 L276 52 Z M112 538 C112 451.238 172.731 415.35 252 381 L252 670 C174.682 664.668 112 621.636 112 538 Z " />
<glyph glyph-name="percent" unicode="&#x25;" horiz-adv-x="530" d="M36 168 L423 545 L458 545 L71 168 L36 168 Z M363 -9 C268.333 -9 224 63 224 163 C224 258.922 267.944 330 363 330 C455.338 330 500 258.922 500 163 C500 63 456.333 -9 363 -9 Z M139 383 C44.3333 383 0 455 0 555 C0 650.922 43.9437 722 139 722 C231.338 722 276 650.922 276 555 C276 455 232.333 383 139 383 Z M363 15 C439 15 474 76.3333 474 163 C474 244.333 439 306 363 306 C284.333 306 250 247 250 163 C250 77.6667 285.667 15 363 15 Z M139 407 C215 407 250 468.333 250 555 C250 636.333 215 698 139 698 C60.3333 698 26 639 26 555 C26 469.667 61.6667 407 139 407 Z " />
<glyph glyph-name="ampersand" unicode="&#x26;" horiz-adv-x="530" d="M475 0 L444 0 L376 96 C333.333 32 275.667 -10 197 -10 C103.667 -10 38 58.6667 38 176 C38 273.333 82.3333 337.333 165 392 C118.333 458.667 83 514 83 582 C83 670 133.667 725 211 725 C283 725 334 675.667 334 581 C334 493 277.333 435.667 200 385 L373 143 C401 196.333 417.667 257 423 317 L448 317 C440 245 420.667 176.333 390 119 L475 0 Z M180 371 C106.667 320.333 64 261.333 64 176 C64 74.6667 121.667 15 199 15 C267 15 320.333 57.6667 359 119 L180 371 Z M186 405 C259.333 453 308 509 308 581 C308 655.667 272.333 700 211 700 C145.667 700 108 654 108 582 C108 519.333 143.333 465 186 405 Z " />
<glyph glyph-name="quotesingle" unicode="&#x27;" horiz-adv-x="530" d="M240 456 L236 714 L264 714 L260 456 L240 456 Z " />
<glyph glyph-name="parenleft" unicode="&#x28;" horiz-adv-x="530" d="M327 -158 C235 -44.6667 182 98 182 274 C182 452.667 235 606 327 714 L356 714 C252 595.333 209 444.333 209 275 C209 108.333 254.667 -38 356 -158 L327 -158 Z " />
<glyph glyph-name="parenright" unicode="&#x29;" horiz-adv-x="530" d="M124 -158 C228 -39.3333 271 111.667 271 281 C271 447.667 225.333 594 124 714 L153 714 C245 600.667 298 458 298 282 C298 103.333 245 -50 153 -158 L124 -158 Z " />
<glyph glyph-name="asterisk" unicode="&#x2a;" horiz-adv-x="530" d="M230 578 L75 627 L83 649 L235 594 L231 759 L256 759 L252 594 L402 650 L409 627 L257 578 L360 446 L341 431 L243 568 L145 431 L125 445 L230 578 Z " />
<glyph glyph-name="plus" unicode="&#x2b;" horiz-adv-x="530" d="M231 123 L231 340 L42 340 L42 364 L231 364 L231 583 L255 583 L255 364 L442 364 L442 340 L255 340 L255 123 L231 123 Z " />
<glyph glyph-name="comma" unicode="&#x2c;" horiz-adv-x="530" d="M208 -129 C237.333 -31.6667 253.333 40 264 116 L292 116 L295 104 C280.333 29.3333 258 -59.6667 230 -129 L208 -129 Z " />
<glyph glyph-name="hyphen" unicode="&#x2d;" horiz-adv-x="530" d="M125 290 L375 290 L375 265 L125 265 L125 290 Z " />
<glyph glyph-name="period" unicode="&#x2e;" horiz-adv-x="530" d="M251 -12 C227 -12 221 4.33333 221 23 C221 41.6667 227 58 251 58 C273.667 58 279 41.6667 279 23 C279 4.33333 273.667 -12 251 -12 Z " />
<glyph glyph-name="slash" unicode="&#x2f;" horiz-adv-x="530" d="M102 0 L370 714 L398 714 L130 0 L102 0 Z " />
<glyph glyph-name="zero" unicode="0" horiz-adv-x="530" d="M252 -8 C129.333 -8 64 124.667 64 358 C64 572.225 113.182 725 253 725 C389.026 725 436 571.416 436 359 C436 129.745 380.97 -8 252 -8 Z M382 589 C359.333 659.667 319.667 700 253 700 C132.948 700 91 558.108 91 359 C91 267 100.333 193 119 137 L382 589 Z M130 108 C158 47.3333 199 17 253 17 C366.074 17 409 143.052 409 359 C409 435 404.333 500 391 556 L130 108 Z " />
<glyph glyph-name="one" unicode="1" horiz-adv-x="530" d="M126 20 L251 23 L251 565 C251 614.333 250.667 648.333 252 683 C237.333 668.333 224 658.333 204 641 L104 560 L87 580 L255 714 L278 714 L278 23 L406 20 L406 0 L126 0 L126 20 Z " />
<glyph glyph-name="two" unicode="2" horiz-adv-x="530" d="M68 21 L256 254 C338.616 355.271 385 427.074 385 539 C385 647 330.667 699 244 699 C193.333 699 142.333 680 101 648 L86 668 C132.667 705.333 189 724 245 724 C345 724 412 657.667 412 539 C412 418.471 355.308 335.894 273 235 L104 27 L104 25 L437 25 L437 0 L68 0 L68 21 Z " />
<glyph glyph-name="three" unicode="3" horiz-adv-x="530" d="M64 53 C106.667 33 168 15 228 15 C348 15 411 81 411 189 C411 314.385 326.385 359 217 359 L155 359 L155 384 L218 384 C312.355 384 396 441.13 396 553 C396 649 335.667 700 245 700 C181 700 130.333 676.667 81 638 L66 658 C112.667 696.667 169 724 245 724 C348.844 724 423 660.662 423 553 C423 454.275 361.163 392.709 289 374 L289 372 C381 354.667 438 297 438 189 C438 71.6667 368 -10 228 -10 C168 -10 109.333 4.66667 64 26 L64 53 Z " />
<glyph glyph-name="four" unicode="4" horiz-adv-x="530" d="M50 207 L329 718 L362 718 L362 210 L450 210 L450 185 L362 185 L362 0 L336 0 L336 185 L50 185 L50 207 Z M336 210 L336 571 C336 626.562 337 644.007 337 682 L336 682 C317.333 646 302 619.333 282 582 L80 210 L336 210 Z " />
<glyph glyph-name="five" unicode="5" horiz-adv-x="530" d="M71 55 C107 32.3333 158 15 218 15 C343.307 15 411 98.9524 411 220 C411 332 358.333 401 237 401 C185 401 141.333 391.333 104 378 L87 393 L114 714 L398 714 L398 689 L137 689 L114 408 C142 414.667 183.333 426 238 426 C368.667 426 438 349.333 438 220 C438 83.8442 359.333 -10 218 -10 C155.333 -10 105.667 6 71 26 L71 55 Z " />
<glyph glyph-name="six" unicode="6" horiz-adv-x="530" d="M86 328 C102.33 374.268 156.31 438 258 438 C370.052 438 432 349.078 432 221 C432 79.6926 366.667 -12 252 -12 C113.463 -12 59 119.329 59 305 C59 617.052 166.693 723 308 723 C341.333 723 370.333 718 393 710 L393 684 C370.333 692 340 698 308 698 C177.411 698 87.6672 586.717 85 328 L86 328 Z M252 13 C352 13 405 88.6667 405 222 C405 336.667 361.667 413 255 413 C151.892 413 90 334.9 90 248 C90 169.152 118.719 13 252 13 Z " />
<glyph glyph-name="seven" unicode="7" horiz-adv-x="530" d="M144 0 L400 689 L53 689 L53 714 L428 714 L428 695 L173 0 L144 0 Z " />
<glyph glyph-name="eight" unicode="8" horiz-adv-x="530" d="M60 173 C60 279.07 127.608 339.546 222 380 C141.766 420.117 80 472.01 80 563 C80 659 147 724 251 724 C355 724 420 661.667 420 563 C420 469.678 360.236 422.618 275 380 C376.228 329.386 440 276.622 440 177 C440 64.974 361.641 -10 247 -10 C136.152 -10 60 66.4113 60 173 Z M87 172 C87 74.6667 152 15 248 15 C346.667 15 412 77.3333 412 176 C412 261.725 366.335 310.522 248 367 C158.24 327.4 87 274.75 87 172 Z M250 393 C331.847 432.603 393 477.919 393 563 C393 651 339 698 251 698 C164.333 698 107 647 107 563 C107 481.667 158 435.667 250 393 Z " />
<glyph glyph-name="nine" unicode="9" horiz-adv-x="530" d="M100 30 C121.333 22 155.333 16 190 16 C319.827 16 410.333 131.995 413 380 L411 380 C391.948 336.453 343.602 276 242 276 C127.229 276 66 363.03 66 492 C66 637.333 130 725 246 725 C384.537 725 439 593.671 439 408 C439 95.9481 331.307 -10 190 -10 C155.333 -10 122.667 -5 100 3 L100 30 Z M242 301 C348.719 301 408 379.1 408 466 C408 544.978 380.411 700 247 700 C147 700 93 624.333 93 491 C93 375 140.667 301 242 301 Z " />
<glyph glyph-name="colon" unicode="&#x3a;" horiz-adv-x="530" >
<path fill="black" d="M251 -12 C227 -12 221 4.33333 221 23 C221 41.6667 227 58 251 58 C273.667 58 279 41.6667 279 23 C279 4.33333 273.667 -12 251 -12 Z " /><g transform="translate(0,475)" ><path fill="black" d="M251 -12 C227 -12 221 4.33333 221 23 C221 41.6667 227 58 251 58 C273.667 58 279 41.6667 279 23 C279 4.33333 273.667 -12 251 -12 Z " /></g></glyph>
<glyph glyph-name="semicolon" unicode="&#x3b;" horiz-adv-x="530" d="M188 -129 C219.818 -22.9392 231.274 31.2334 242 109 L270 109 L273 96 C259.667 28 238 -58.3333 210 -129 L188 -129 Z M253 466 C233 466 228 480.333 228 499 C228 517.667 233 532 253 532 C274.333 532 279 519 279 499 C279 479 274.333 466 253 466 Z " />
<glyph glyph-name="less" unicode="&#x3c;" horiz-adv-x="530" d="M42 354 L42 374 L441 572 L441 545 L73 364 L441 170 L441 143 L42 354 Z " />
<glyph glyph-name="equal" unicode="&#x3d;" horiz-adv-x="530" d="M50 261 L450 261 L450 236 L50 236 L50 261 Z M50 470 L450 470 L450 445 L50 445 L50 470 Z " />
<glyph glyph-name="greater" unicode="&#x3e;" horiz-adv-x="530" d="M50 170 L418 364 L50 545 L50 572 L449 374 L449 354 L50 143 L50 170 Z " />
<glyph glyph-name="question" unicode="&#x3f;" horiz-adv-x="530" d="M197 174 L197 190 C197 279.76 209.849 315.849 266 372 C324.078 430.078 362 473.373 362 561 C362 657 311.667 699 233 699 C194.333 699 157 689 121 669 L110 692 C150 713.333 187.333 724 234 724 C327.333 724 389 672 389 560 C389 461.353 342.604 412.94 284 357 C233.981 304.348 221 268.478 221 189 L221 174 L197 174 Z M207 -12 C184.333 -12 179 4.33333 179 23 C179 41.6667 184.333 58 207 58 C233.667 58 237 41.6667 237 23 C237 4.33333 233.667 -12 207 -12 Z " />
<glyph glyph-name="at" unicode="&#x40;" horiz-adv-x="530" d="M422 -49 C379.333 -74.3333 325.333 -89 272 -89 C100.156 -89 0 59.2035 0 294 C0 562.494 111.177 713 266 713 C412.719 713 500 576.442 500 356 C500 220.918 467.636 114 400 114 C360 114 333 146.333 329 197 L327 197 C311 143.667 274.667 114 232 114 C168 114 133 179 133 287 C133 420.281 184.281 513 275 513 C300.333 513 327 506.333 355 493 L349 348 C347.667 324 346 285 346 257 C346 179.667 359.333 139 398 139 C450.39 139 473 231.874 473 353 C473 558.359 402.277 688 268 688 C127.662 688 27 544.364 27 292 C27 72.4675 118.078 -64 270 -64 C322 -64 372.667 -49.6667 422 -21 L422 -49 Z M329 473 C311 483 293 488 275 488 C203 488 160 413.333 160 288 C160 194.667 183.333 139 234 139 C284.667 139 315.333 193.667 322 323 L329 473 Z " />
<glyph glyph-name="A" unicode="A" horiz-adv-x="530" d="M234 715 L266 715 L480 0 L453 0 L372 276 L128 276 L47 0 L20 0 L234 715 Z M364 301 L275 603 C267 631 259.667 655.667 249 689 C241 658.333 233.333 633.667 224 603 L135 301 L364 301 Z " />
<glyph glyph-name="B" unicode="B" horiz-adv-x="530" d="M95 0 L95 714 L237 714 C378.333 714 439 659.333 439 546 C439 459.333 397 391.667 317 377 L317 376 C417 357.333 455 293.333 455 200 C455 66.6667 371.667 0 245 0 L95 0 Z M121 25 L245 25 C359.667 25 428 78.6667 428 200 C428 324.286 352.615 363 238 363 L121 363 L121 25 Z M121 388 L238 388 C354 388 412 440.667 412 546 C412 644.667 361.333 689 228 689 L121 689 L121 388 Z " />
<glyph glyph-name="C" unicode="C" horiz-adv-x="530" d="M460 17 C425.333 2.33333 376.667 -10 318 -10 C154.234 -10 59 135.13 59 359 C59 557.9 146.281 724 325 724 C377 724 424.333 713.333 467 692 L456 669 C410.667 694.333 366.333 699 325 699 C164.108 699 86 542.03 86 359 C86 153.563 167.697 15 318 15 C379.333 15 425.333 29.3333 460 44 L460 17 Z " />
<glyph glyph-name="D" unicode="D" horiz-adv-x="530" d="M65 0 L65 714 L190 714 C371.333 714 450 596.667 450 362 C450 122 371.667 0 189 0 L65 0 Z M91 25 L184 25 C353.333 25 423 140 423 360 C423 569.048 361.052 689 185 689 L91 689 L91 25 Z " />
<glyph glyph-name="E" unicode="E" horiz-adv-x="530" d="M405 25 L405 0 L95 0 L95 714 L405 714 L405 689 L121 689 L121 389 L388 389 L388 364 L121 364 L121 25 L405 25 Z " />
<glyph glyph-name="F" unicode="F" horiz-adv-x="530" d="M95 0 L95 714 L405 714 L405 689 L121 689 L121 354 L389 354 L389 329 L121 329 L121 0 L95 0 Z " />
<glyph glyph-name="G" unicode="G" horiz-adv-x="530" d="M410 326 L272 326 L272 351 L435 351 L435 24 C403 1.33333 347 -10 295 -10 C119.026 -10 50 140.926 50 358 C50 574.156 118.922 724 287 724 C328.333 724 379.333 715.667 418 681 L405 661 C369 691.667 327.333 699 290 699 C131.126 699 76 555.671 76 362 C76 156.537 137.026 15 297 15 C345 15 390 26.6667 410 40 L410 326 Z " />
<glyph glyph-name="H" unicode="H" horiz-adv-x="530" d="M65 0 L65 714 L91 714 L91 388 L409 388 L409 714 L435 714 L435 0 L409 0 L409 363 L91 363 L91 0 L65 0 Z " />
<glyph glyph-name="I" unicode="I" horiz-adv-x="530" d="M120 20 L237 23 L237 690 L120 694 L120 714 L380 714 L380 694 L263 690 L263 23 L380 20 L380 0 L120 0 L120 20 Z " />
<glyph glyph-name="J" unicode="J" horiz-adv-x="530" d="M60 48 C98.6667 26.6667 143.667 10 201 10 C301 10 334 70.6667 334 204 L334 714 L360 714 L360 196 C360 58.6667 321 -15 201 -15 C149 -15 102.667 -1 60 19 L60 48 Z " />
<glyph glyph-name="K" unicode="K" horiz-adv-x="530" d="M65 0 L65 714 L91 714 L91 321 C112.333 346.333 126.333 363 153 395 L407 714 L440 714 L202 410 L438 0 L408 0 L181 389 L91 283 L91 0 L65 0 Z " />
<glyph glyph-name="L" unicode="L" horiz-adv-x="530" d="M405 25 L405 0 L92 0 L92 714 L118 714 L118 25 L405 25 Z " />
<glyph glyph-name="M" unicode="M" horiz-adv-x="530" d="M40 0 L40 714 L78 714 L246 219 L249 219 L420 714 L460 714 L460 0 L434 0 L434 577 L434 669 L432 669 L264 187 L231 187 L66 670 L64 670 C66.6609 622.103 66 610.228 66 581 L66 0 L40 0 Z " />
<glyph glyph-name="N" unicode="N" horiz-adv-x="530" d="M65 0 L65 714 L94 714 L408 54 L410 54 C410 99.3333 409 151.667 409 181 L409 714 L435 714 L435 0 L407 0 L92 664 L90 664 C91.3333 637.333 91 604 91 548 L91 0 L65 0 Z " />
<glyph glyph-name="O" unicode="O" horiz-adv-x="530" d="M251 -10 C92.7229 -10 50 172.926 50 358 C50 603.333 120.333 724 251 724 C397.693 724 450 570.416 450 358 C450 166 408.359 -10 251 -10 Z M251 15 C368.333 15 424 134 424 358 C424 578 368.333 699 251 699 C132.333 699 76 574 76 358 C76 139.333 137.667 15 251 15 Z " />
<glyph glyph-name="P" unicode="P" horiz-adv-x="530" d="M95 0 L95 714 L243 714 C379 714 455 663.494 455 515 C455 371 386 306 250 306 L121 306 L121 0 L95 0 Z M121 331 L241 331 C366.333 331 428 384 428 516 C428 645.333 367.333 689 234 689 L121 689 L121 331 Z " />
<glyph glyph-name="Q" unicode="Q" horiz-adv-x="530" d="M427 -170 L397 -170 L316 2 C297.333 -6 275.667 -10 251 -10 C92.7229 -10 50 172.926 50 358 C50 603.333 120.333 724 251 724 C397.693 724 450 570.416 450 358 C450 208.215 425.463 66.0077 338 13 L427 -170 Z M251 15 C368.333 15 424 134 424 358 C424 578 368.333 699 251 699 C132.333 699 76 574 76 358 C76 139.333 137.667 15 251 15 Z " />
<glyph glyph-name="R" unicode="R" horiz-adv-x="530" d="M95 0 L95 714 L219 714 C360.203 714 440 671.745 440 525 C440 415.667 388.333 352 295 328 L468 0 L436 0 L268 321 L121 321 L121 0 L95 0 Z M121 347 L229 347 C336.636 347 413 404.277 413 526 C413 647.333 352 689 212 689 L121 689 L121 347 Z " />
<glyph glyph-name="S" unicode="S" horiz-adv-x="530" d="M83 46 C123 30 179.667 16 229 16 C331.667 16 391 74 391 182 C391 283.144 341.313 305.01 240 353 C151.842 393.072 85 428.226 85 543 C85 664.333 156.667 724 262 724 C308.667 724 355.333 712 398 692 L387 669 C336.333 693 293.667 699 263 699 C171 699 112 647.333 112 546 C112 442.106 175.825 410.596 253 376 C358.635 328.464 418 298.255 418 183 C418 53.6667 345.333 -10 228 -10 C180 -10 129.667 1 83 17 L83 46 Z " />
<glyph glyph-name="T" unicode="T" horiz-adv-x="530" d="M236 0 L236 689 L45 689 L45 714 L455 714 L455 689 L262 689 L262 0 L236 0 Z " />
<glyph glyph-name="U" unicode="U" horiz-adv-x="530" d="M65 714 L91 714 L91 239 C91 83 148.667 15 250 15 C344.667 15 409 78.3333 409 233 L409 714 L435 714 L435 230 C435 58.1558 355.615 -10 249 -10 C131.667 -10 65 69.3333 65 236 L65 714 Z " />
<glyph glyph-name="V" unicode="V" horiz-adv-x="530" d="M250 34 C258 66.6667 267.667 102 279 140 L448 714 L475 714 L263 0 L234 0 L25 714 L52 714 L219 140 C229.667 101.333 241 68.6667 249 34 L250 34 Z " />
<glyph glyph-name="W" unicode="W" horiz-adv-x="530" d="M146 29 C152.667 70.3333 157 109.667 165 151 L237 528 L263 528 L334 151 C342 108.333 348.333 68.6667 355 26 L357 26 C361 72.6667 364.333 108.333 371 151 C396.333 340.333 421.667 524.667 447 714 L475 714 L373 0 L337 0 L267 375 C260.333 409.667 257.333 432.333 252 475 L250 475 C243.333 432.333 239.667 411 233 375 L163 0 L125 0 L25 714 L52 714 C77.3333 524.667 105.333 341.667 128 151 C133.333 109.667 138.667 75.6667 144 29 L146 29 Z " />
<glyph glyph-name="X" unicode="X" horiz-adv-x="530" d="M35 0 L239 372 L59 714 L87 714 L254 396 L428 714 L458 714 L270 372 L465 0 L437 0 L255 348 L64 0 L35 0 Z " />
<glyph glyph-name="Y" unicode="Y" horiz-adv-x="530" d="M238 0 L238 275 L35 714 L62 714 L251 305 L437 714 L465 714 L264 277 L264 0 L238 0 Z " />
<glyph glyph-name="Z" unicode="Z" horiz-adv-x="530" d="M95 21 L392 689 L115 689 L115 714 L421 714 L421 693 L125 25 L431 25 L431 0 L95 0 L95 21 Z " />
<glyph glyph-name="bracketleft" unicode="&#x5b;" horiz-adv-x="530" d="M399 -134 L399 -158 L206 -158 L206 714 L399 714 L399 690 L231 690 L231 -134 L399 -134 Z " />
<glyph glyph-name="backslash" unicode="&#x5c;" horiz-adv-x="530" d="M370 0 L102 714 L130 714 L398 0 L370 0 Z " />
<glyph glyph-name="bracketright" unicode="&#x5d;" horiz-adv-x="530" d="M103 -134 L271 -134 L271 690 L103 690 L103 714 L296 714 L296 -158 L103 -158 L103 -134 Z " />
<glyph glyph-name="asciicircum" unicode="&#x5e;" horiz-adv-x="530" d="M41 325 L247 716 L270 716 L460 325 L430 325 L257 684 L71 325 L41 325 Z " />
<glyph glyph-name="underscore" unicode="&#x5f;" horiz-adv-x="530" d="M0 -88 L500 -88 L500 -113 L0 -113 L0 -88 Z " />
<glyph glyph-name="grave" unicode="&#x60;" horiz-adv-x="530" d="M156 765 L186 765 C218 715.667 270.333 657.667 313 615 L313 606 L294 606 C248.389 646.245 189.969 710.966 156 758 L156 765 Z " />
<glyph glyph-name="a" unicode="a" horiz-adv-x="530" d="M376 98 L374 98 C355.256 41.7678 311.609 -10 220 -10 C125.333 -10 80 51.6667 80 129 C80 234.333 157.333 284.333 292 295 L374 302 L374 349 C374 469 338 512 258 512 C219.333 512 178.667 503.333 132 478 L122 502 C164.667 524.667 211.333 537 258 537 C354 537 400 486 400 354 L400 0 L378 0 L376 98 Z M374 278 L292 272 C174.667 262.667 107 221 107 129 C107 55.6667 148 14 220 14 C328.416 14 374 97.2814 374 220 L374 278 Z " />
<glyph glyph-name="b" unicode="b" horiz-adv-x="530" d="M85 760 L111 760 L111 503 C111 476.333 111.333 437.333 110 412 L112 412 C128 486.667 183 538 263 538 C381.667 538 440 446.667 440 268 C440 99.0823 380.818 -10 253 -10 C177 -10 133 35.6667 113 101 L111 101 L107 0 L85 0 L85 760 Z M253 16 C357 16 413 100 413 268 C413 430.667 367 513 263 513 C159 513 111 427.333 111 262 C111 96.6667 155.667 16 253 16 Z " />
<glyph glyph-name="c" unicode="c" horiz-adv-x="530" d="M417 11 C390.333 -1 344.333 -10 299 -10 C157.667 -10 95 99.026 95 259 C95 431.39 176.996 538 312 538 C355.333 538 391.333 531 420 517 L412 493 C382.667 507.667 346.333 513 313 513 C194.333 513 122 419 122 259 C122 120.437 174.152 15 301 15 C339.667 15 385 22.3333 417 37 L417 11 Z " />
<glyph glyph-name="d" unicode="d" horiz-adv-x="530" d="M391 110 L389 110 C370.388 48.8466 326.235 -10 232 -10 C114.667 -10 60 81.6667 60 255 C60 440.333 123.333 538 238 538 C324.615 538 373.305 482.164 389 422 L391 422 C389.667 456.667 389 488 389 520 L389 760 L415 760 L415 0 L394 0 L391 110 Z M389 291 C389 429.667 339 513 239 513 C139 513 87 427 87 255 C87 97.6667 131.667 15 233 15 C343.667 15 389 102 389 242 L389 291 Z " />
<glyph glyph-name="e" unicode="e" horiz-adv-x="530" d="M419 23 C380.333 1.66667 336 -10 280 -10 C136.078 -10 73 99.4372 73 262 C73 419.333 134.074 538 261 538 C389 538 437 426.719 437 296 L437 270 L100 270 C100 100.667 162.667 15 280 15 C332 15 372.333 24.3333 419 51 L419 23 Z M261 513 C169 513 110.333 439.333 101 294 L411 294 C411 419.255 365.918 513 261 513 Z " />
<glyph glyph-name="f" unicode="f" horiz-adv-x="530" d="M227 0 L227 503 L81 503 L81 524 L227 528 L227 604 C227 712 267.333 765 378 765 C406 765 428 759.667 448 753 L441 729 C421 737 399.667 741 377 741 C285 741 253 701 253 601 L253 528 L421 528 L421 503 L253 503 L253 0 L227 0 Z " />
<glyph glyph-name="g" unicode="g" horiz-adv-x="530" d="M75 -179 C113.667 -201.667 157.333 -216 216 -216 C337.333 -216 389 -151.333 389 -30 L389 15 C389 49.6667 389.333 74 392 114 L389 114 C371.667 42 317 -10 233 -10 C122.333 -10 60 76.3333 60 259 C60 432.333 118.667 538 244 538 C327.493 538 366.718 492.204 388 439 L390 439 L394 528 L415 528 L415 -30 C415 -163.333 357.667 -241 215 -241 C156.333 -241 113.667 -228 75 -208 L75 -179 Z M389 312 C389 423.108 350.537 513 244 513 C131.948 513 86 414.39 86 258 C86 96 135.667 15 235 15 C354.082 15 389 130.078 389 234 L389 312 Z " />
<glyph glyph-name="h" unicode="h" horiz-adv-x="530" d="M85 0 L85 760 L111 760 L111 494 C111 463.333 110.333 446.333 109 421 L111 421 C129.696 477.088 176.051 538 271 538 C367 538 420 480 420 356 L420 0 L394 0 L394 353 C394 467.667 346 513 270 513 C179.411 513 111 446.537 111 300 L111 0 L85 0 Z " />
<glyph glyph-name="i" unicode="i" horiz-adv-x="530" >
<path fill="black" d="M82 21 L249 25 L249 503 L100 507 L100 528 L275 528 L275 25 L432 21 L432 0 L82 0 L82 21 Z " /><g transform="translate(8,0)" ><path fill="black" d="M251 660 C225.667 660 219 677 219 697 C219 715.667 224.333 734 251 734 C275 734 281 715.667 281 697 C281 678.333 277.667 660 251 660 Z " /></g></glyph>
<glyph glyph-name="j" unicode="j" horiz-adv-x="530" >
<path fill="black" d="M50 -201 C69.5731 -209.388 125.92 -222 164 -222 C242.667 -222 280 -169 280 -81 L280 503 L111 507 L111 528 L306 528 L306 -88 C306 -196 249.333 -248 164 -248 C116.88 -248 65.1906 -233.064 50 -228 L50 -201 Z " /><g transform="translate(39,-10)" ><path fill="black" d="M251 660 C225.667 660 219 677 219 697 C219 715.667 224.333 734 251 734 C275 734 281 715.667 281 697 C281 678.333 277.667 660 251 660 Z " /></g></glyph>
<glyph glyph-name="k" unicode="k" horiz-adv-x="530" d="M121 0 L121 760 L147 760 L147 373 C147 317 147.333 273 146 217 L148 217 C165.333 239.667 179 258.333 195 277 L411 528 L442 528 L252 305 L458 0 L429 0 L234 286 L147 185 L147 0 L121 0 Z " />
<glyph glyph-name="l" unicode="l" horiz-adv-x="530" d="M82 21 L243 25 L243 735 L94 739 L94 760 L269 760 L269 25 L432 21 L432 0 L82 0 L82 21 Z " />
<glyph glyph-name="m" unicode="m" horiz-adv-x="530" d="M56 0 L56 528 L75 528 L78 457 L80 457 C90.603 491.46 113.391 537 174 537 C229.865 537 249.809 496.339 255 460 L258 460 C271.333 501.333 298 537 354 537 C410 537 444 505.667 444 403 L444 0 L418 0 L418 401 C418 493.26 387.39 513 351 513 C297.667 513 264 458 264 366 L264 0 L238 0 L238 384 C238 496.078 209.281 513 172 513 C113.177 513 82 440.693 82 366 L82 0 L56 0 Z " />
<glyph glyph-name="n" unicode="n" horiz-adv-x="530" d="M85 0 L85 528 L105 528 L108 416 L110 416 C128.379 476.387 175.294 537 270 537 C366 537 420 483.667 420 361 L420 0 L394 0 L394 355 C394 468.333 348.667 512 270 512 C179.411 512 111 445.641 111 307 L111 0 L85 0 Z " />
<glyph glyph-name="o" unicode="o" horiz-adv-x="530" d="M251 -10 C123 -10 60 94.3333 60 265 C60 439.667 126.333 537 253 537 C388.922 537 440 425.048 440 264 C440 93.3333 381.667 -10 251 -10 Z M251 15 C365.667 15 414 106.333 414 265 C414 409.892 372.004 512 253 512 C139.667 512 86 422.333 86 265 C86 110.333 137.667 15 251 15 Z " />
<glyph glyph-name="p" unicode="p" horiz-adv-x="530" d="M85 -240 L85 528 L106 528 L107 403 L109 403 C130.229 471.995 172.578 537 265 537 C381.667 537 440 448 440 270 C440 82 371.333 -10 258 -10 C172.713 -10 128.007 50.6394 112 112 L109 112 C111.667 82.6667 111 48.3333 111 11 L111 -240 L85 -240 Z M111 241 C111 94.3333 171 15 259 15 C349.693 15 414 90.3377 414 270 C414 430 364 512 264 512 C165.359 512 111 419.13 111 279 L111 241 Z " />
<glyph glyph-name="q" unicode="q" horiz-adv-x="530" d="M389 -232 L389 17 C389 39.6667 389.667 85.3333 391 116 L389 116 C367.667 42.6667 315.667 -11 233 -11 C119.667 -11 60 82.3333 60 261 C60 425.26 117.641 537 243 537 C323 537 370.667 488.667 388 426 L390 426 L394 528 L415 528 L415 -232 L389 -232 Z M389 299 C389 435 337.667 511 243 511 C140.333 511 87 421 87 261 C87 94.3333 141 15 233 15 C334.333 15 389 104.333 389 239 L389 299 Z " />
<glyph glyph-name="r" unicode="r" horiz-adv-x="530" d="M65 21 L212 25 L212 503 L83 507 L83 528 L234 528 L238 427 L240 427 C256.286 484.001 300.807 536 381 536 C409 536 443.333 529.667 462 523 L456 497 C433.333 505 405 510 381 510 C287.667 510 238 435 238 303 L238 25 L395 21 L395 0 L65 0 L65 21 Z " />
<glyph glyph-name="s" unicode="s" horiz-adv-x="530" d="M107 53 C148.333 30.3333 193.333 16 244 16 C337.333 16 377 58 377 130 C377 204.335 323.394 226.433 255 258 C176.875 295.716 117 318.789 117 408 C117 484 171 537 271 537 C319 537 361.333 526.333 396 509 L384 485 C353.333 502.333 311.333 512 270 512 C194 512 143 477.667 143 407 C143 336.691 192.652 317.674 262 283 C336.038 248.625 404 221.296 404 129 C404 43.6667 352 -10 244 -10 C184 -10 137.667 7 107 23 L107 53 Z " />
<glyph glyph-name="t" unicode="t" horiz-adv-x="530" d="M215 503 L84 503 L84 524 L214 528 L219 659 L241 659 L241 528 L418 528 L418 503 L241 503 L241 183 C241 75 265.667 15 351 15 C384.333 15 407.333 20 430 28 L430 3 C407.333 -3.66667 385.667 -10 351 -10 C245.926 -10 215 61.645 215 180 L215 503 Z " />
<glyph glyph-name="u" unicode="u" horiz-adv-x="530" d="M80 528 L106 528 L106 177 C106 63.6667 154 15 234 15 C324.667 15 389 81.6667 389 227 L389 528 L415 528 L415 0 L395 0 L392 112 L390 112 C371.08 52.5357 327.472 -10 233 -10 C131 -10 80 50.3333 80 171 L80 528 Z " />
<glyph glyph-name="v" unicode="v" horiz-adv-x="530" d="M251 36 C261.667 73.3333 270.667 105 284 145 L409 528 L435 528 L263 0 L236 0 L65 528 L91 528 L216 145 C229.333 105 238.667 73.3333 248 36 L251 36 Z " />
<glyph glyph-name="w" unicode="w" horiz-adv-x="530" d="M143 45 C149.667 73 159.333 110.667 174 160 L244 407 L267 407 L335 157 C347 113 357.333 77.3333 364 44 L366 44 C373.883 88.6718 378.871 106.229 387 155 L460 528 L486 528 L377 -1 L355 -1 L281 270 C271.667 304.667 262.667 335 256 367 L254 367 C247.333 335 238.333 301 229 269 L152 -1 L129 -1 L14 528 L41 528 L118 158 C128.667 107.333 134.333 78.3333 141 45 L143 45 Z " />
<glyph glyph-name="x" unicode="x" horiz-adv-x="530" d="M65 0 L234 271 L74 528 L103 528 L251 291 L398 528 L427 528 L266 270 L435 0 L405 0 L250 252 L94 0 L65 0 Z " />
<glyph glyph-name="y" unicode="y" horiz-adv-x="530" d="M65 -207 C79.6667 -213.667 94 -217 110 -217 C151.333 -217 183.667 -193.333 209 -112 L247 10 L75 528 L101 528 L224 156 C245.333 92 252.667 69.3333 258 48 L260 48 C269.333 82.6667 278.667 112.333 292 155 L409 528 L435 528 L236 -112 C208 -201.333 174 -243 110 -243 C94 -243 81 -240.667 65 -234 L65 -207 Z " />
<glyph glyph-name="z" unicode="z" horiz-adv-x="530" d="M95 21 L371 503 L116 503 L116 528 L404 528 L404 509 L127 25 L404 25 L404 0 L95 0 L95 21 Z " />
<glyph glyph-name="braceleft" unicode="&#x7b;" horiz-adv-x="530" d="M235 150 C235 238.97 214.281 266 129 266 L129 289 C205 289 235 314.333 235 405 L235 578 C235 672.667 288 714 388 714 L388 693 C300 693 260 659 260 571 L260 398 C260 326 240.667 288.667 182 278 L182 277 C240.667 266.333 260 234.333 260 157 L260 -16 C260 -108 294.667 -137 388 -137 L388 -158 C280 -156.667 235 -125.667 235 -23 L235 150 Z " />
<glyph glyph-name="bar" unicode="&#x7c;" horiz-adv-x="530" d="M215 -240 L215 760 L240 760 L240 -240 L215 -240 Z " />
<glyph glyph-name="braceright" unicode="&#x7d;" horiz-adv-x="530" d="M102 -137 C190 -137 230 -103 230 -15 L230 158 C230 230 249.333 267.333 308 278 L308 279 C249.333 289.667 230 321.667 230 399 L230 572 C230 664 196.667 693 102 693 L102 714 C210 712.667 255 681.667 255 579 L255 406 C255 318.97 275.719 290 361 290 L361 267 C285 267 255 241.667 255 151 L255 -22 C255 -116.667 202 -158 102 -158 L102 -137 Z " />
<glyph glyph-name="asciitilde" unicode="&#x7e;" horiz-adv-x="530" d="M449 356 C426.333 330.667 389.667 311 347 311 C269.895 311 229.34 371 156 371 C118.667 371 84.3333 353.667 51 311 L51 343 C77.6667 373.667 113.333 396 156 396 C201.333 396 227 383.667 259 365 C289.667 347.667 312.333 336 347 336 C381.667 336 417 349.667 449 387 L449 356 Z " />
<glyph glyph-name="uni00A0" unicode="&#xa0;" horiz-adv-x="530" />
<glyph glyph-name="exclamdown" unicode="&#xa1;" horiz-adv-x="530" d="M237 355 L261 355 L263 -185 L235 -185 L237 355 Z M251 471 C227 471 221 487.333 221 506 C221 524.667 227 541 251 541 C273.667 541 279 524.667 279 506 C279 487.333 273.667 471 251 471 Z " />
<glyph glyph-name="cent" unicode="&#xa2;" horiz-adv-x="530" d="M293 -10 L293 91 C155.667 99 94 202.667 94 360 C94 521.333 164.667 623.667 290 637 L290 724 L315 724 L315 638 C353.667 636.667 383 630.333 411 617 L404 593 C373.333 607.667 343.333 613 314 613 C187.022 613 120 509.307 120 360 C120 213.203 178.052 117 306 117 C344.667 117 379.333 125 410 137 L410 111 C387.333 101.667 356.667 93.6667 318 91 L318 -10 L293 -10 Z " />
<glyph glyph-name="sterling" unicode="&#xa3;" horiz-adv-x="530" d="M433 25 L433 0 L41 0 L41 23 C109 40.3333 143 89 143 185 L143 338 L49 338 L49 363 L143 363 L143 532 C143 652 190 724 306 724 C356.667 724 392 711 424 691 L412 669 C374.667 691.667 344.667 699 306 699 C211.333 699 169 645.667 169 527 L169 363 L339 363 L339 338 L169 338 L169 183 C169 95 138.667 47.6667 96 25 L433 25 Z " />
<glyph glyph-name="currency" unicode="&#xa4;" horiz-adv-x="530" d="M27 148 L102 222 C70 260.667 54 307.333 54 354 C54 402 71.3333 450.333 102 485 L26 562 L41 578 L118 501 C156.667 535.667 201 551 249 551 C295.667 551 342.333 536.667 381 502 L458 577 L473 561 L397 486 C431.667 447.333 447 402 447 354 C447 310 432.667 259.667 398 221 L474 145 L458 130 L382 205 C344.667 171.667 296.667 157 250 157 C203.333 157 156.667 172.667 118 206 L42 132 L27 148 Z M250 181 C345.974 181 423 254.333 423 353 C423 453.494 347.152 528 250 528 C156.745 528 79 457.948 79 354 C79 251.1 156.745 181 250 181 Z " />
<glyph glyph-name="yen" unicode="&#xa5;" horiz-adv-x="530" d="M91 183 L237 183 L237 295 L91 295 L91 319 L232 319 L47 714 L76 714 L250 338 L424 714 L452 714 L268 319 L410 319 L410 295 L263 295 L263 183 L410 183 L410 159 L263 159 L263 0 L237 0 L237 159 L91 159 L91 183 Z " />
<glyph glyph-name="brokenbar" unicode="&#xa6;" horiz-adv-x="530" d="M215 -248 L215 130 L240 130 L240 -248 L215 -248 Z M215 386 L215 762 L240 762 L240 386 L215 386 Z " />
<glyph glyph-name="section" unicode="&#xa7;" horiz-adv-x="530" d="M89 45 C126.333 25 175.333 11 226 11 C324.667 11 373 63 373 131 C373 197.857 323.693 214.656 233 252 C157.214 284.48 102 310.866 102 387 C102 459 149.667 498.667 211 520 C157.667 549.333 117 585.667 117 647 C117 720.333 173 766 273 766 C323.667 766 366.667 754 400 738 L388 716 C361.333 730.667 320.333 743 271 743 C195 743 142 713.333 142 648 C142 592 180.333 554.333 263 521 C342.045 489.382 411 459.785 411 372 C411 306.667 374.333 263.667 325 237 C374.333 210.333 399 186.667 399 132 C399 48 339.667 -12 225 -12 C170.333 -12 119.667 2.33333 89 17 L89 45 Z M303 249 C345.667 267.667 386 307.667 386 369 C386 437 336.667 472.333 238 507 C175.333 489.667 127 457 127 389 C127 323.695 172.175 301.669 245 272 L303 249 Z " />
<glyph glyph-name="dieresis" unicode="&#xa8;" horiz-adv-x="530" d="M169 635 C150.333 635 143 651.333 143 670 C143 688.667 150.333 706 169 706 C189 706 197 688.667 197 670 C197 650 189 635 169 635 Z M329 635 C310.333 635 303 651.333 303 670 C303 688.667 310.333 706 329 706 C349 706 357 688.667 357 670 C357 650 349 635 329 635 Z " />
<glyph glyph-name="copyright" unicode="&#xa9;" horiz-adv-x="530" d="M246 147 C124.9 147 35 233.667 35 359 C35 488.593 132.745 575 250 575 C374.312 575 464 482.797 464 360 C464 232.996 367.645 147 246 147 Z M248 171 C357.359 171 439 249.619 439 360 C439 467.688 360.381 550 250 550 C142.312 550 60 472.004 60 361 C60 253.312 136.866 171 248 171 Z M324 235 C302.667 227 279.667 222 253 222 C173 222 119 269 119 357 C119 445 169 498 261 498 C287.667 498 312.667 493.667 334 483 L327 461 C307 469 283 475 259 475 C187 475 144 433 144 357 C144 281 187 244 259 244 C277.667 244 298.667 247.333 324 258 L324 235 Z " />
<glyph glyph-name="ordfeminine" unicode="&#xaa;" horiz-adv-x="530" d="M335 451 C317.667 416.333 283.667 396 233 396 C174.333 396 135 424.333 135 483 C135 547 183 575.667 279 581 L335 584 L335 623 C335 679 305.333 702 252 702 C220 702 194 694.667 170 680 L161 700 C187.667 714.667 215.333 724 254 724 C326 724 358 689 358 629 L358 400 L338 400 L335 451 Z M335 563 L284 561 C200 558.333 157 536.667 157 482 C157 439.333 188.333 417 235 417 C300.333 417 335 460 335 524 L335 563 Z " />
<glyph glyph-name="guillemotleft" unicode="&#xab;" horiz-adv-x="530" d="M230 82 L83 261 L83 274 L230 455 L246 444 L116 268 L247 92 L230 82 Z M400 82 L253 261 L253 274 L400 455 L416 444 L286 268 L417 92 L400 82 Z " />
<glyph glyph-name="logicalnot" unicode="&#xac;" horiz-adv-x="530" d="M42 364 L426 364 L426 126 L401 126 L401 340 L42 340 L42 364 Z " />
<glyph glyph-name="uni00AD" unicode="&#xad;" horiz-adv-x="530" >
<path fill="black" d="M125 290 L375 290 L375 265 L125 265 L125 290 Z " /></glyph>
<glyph glyph-name="registered" unicode="&#xae;" horiz-adv-x="530" d="M246 147 C124.9 147 35 233.667 35 359 C35 488.593 132.745 575 250 575 C374.312 575 464 482.797 464 360 C464 232.996 367.645 147 246 147 Z M248 171 C357.359 171 439 249.619 439 360 C439 467.688 360.381 550 250 550 C142.312 550 60 472.004 60 361 C60 253.312 136.866 171 248 171 Z M177 224 L177 497 L258 497 C310 497 347 472.667 347 418 C347 372.667 321.667 353.667 287 343 L353 224 L326 224 L262 339 L202 339 L202 224 L177 224 Z M201 361 L255 361 C293.667 361 322 374 322 418 C322 460.667 296 476 256 476 L201 476 L201 361 Z " />
<glyph glyph-name="macron" unicode="&#xaf;" horiz-adv-x="530" d="M136 640 L364 640 L364 616 L136 616 L136 640 Z " />
<glyph glyph-name="degree" unicode="&#xb0;" horiz-adv-x="530" d="M118 592 C118 677.229 178.048 724 249 724 C321 724 381 674.667 381 592 C381 510.667 326 460 250 460 C180.563 460 118 505.593 118 592 Z M249 483 C311.667 483 356 523 356 591 C356 657.667 314.333 701 249 701 C185 701 143 657.333 143 592 C143 524 189 483 249 483 Z " />
<glyph glyph-name="plusminus" unicode="&#xb1;" horiz-adv-x="530" d="M231 123 L231 340 L42 340 L42 364 L231 364 L231 583 L255 583 L255 364 L442 364 L442 340 L255 340 L255 123 L231 123 Z M42 26 L436 26 L436 1 L42 1 L42 26 Z " />
<glyph glyph-name="twosuperior" unicode="&#xb2;" horiz-adv-x="530" d="M117 437 L223 558 C286.397 629.322 333 681.186 333 742 C333 792.667 302.333 830 241 830 C202.333 830 172 816.667 140 790 L126 809 C158 837 195.667 854 241 854 C317 854 359 807.333 359 742 C359 676.011 315.952 628.516 242 544 L150 439 L371 439 L371 415 L117 415 L117 437 Z " />
<glyph glyph-name="threesuperior" unicode="&#xb3;" horiz-adv-x="530" d="M115 460 C148.333 444 180.333 435 219 435 C296.333 435 337 472.333 337 535 C337 595 299 628 223 628 L173 628 L173 652 L223 652 C288.333 652 326 688 326 748 C326 797.333 295.333 827 238 827 C195.333 827 162.667 812.667 132 790 L120 811 C152 835 190 851 238 851 C306 851 352 814.667 352 748 C352 690.667 320.667 655 278 643 L278 642 C332.667 627.333 363 593.667 363 535 C363 455 309.667 411 219 411 C180.333 411 143 418.667 115 432 L115 460 Z " />
<glyph glyph-name="acute" unicode="&#xb4;" horiz-adv-x="530" d="M222 606 L222 615 C267.333 661.667 316.333 717 347 765 L377 765 L377 758 C342.881 710.758 286.412 646.952 240 606 L222 606 Z " />
<glyph glyph-name="mu" unicode="&#xb5;" horiz-adv-x="530" d="M80 528 L106 528 L106 177 C106 63.6667 154 15 234 15 C324.667 15 389 81.6667 389 227 L389 528 L415 528 L415 0 L395 0 L392 112 L390 112 C371.08 52.5357 327.472 -10 233 -10 C173.667 -10 131.333 11 106 53 L106 -240 L80 -240 L80 528 Z " />
<glyph glyph-name="paragraph" unicode="&#xb6;" horiz-adv-x="530" d="M237 -127 L237 355 C220.333 349 204.667 346 190 346 C101.082 346 64 437.749 64 556 C64 685.333 106 760 206 760 L400 760 L400 -127 L375 -127 L375 734 L262 734 L262 -127 L237 -127 Z " />
<glyph glyph-name="periodcentered" unicode="&#xb7;" horiz-adv-x="530" >
<g transform="translate(0,282)" ><path fill="black" d="M251 -12 C227 -12 221 4.33333 221 23 C221 41.6667 227 58 251 58 C273.667 58 279 41.6667 279 23 C279 4.33333 273.667 -12 251 -12 Z " /></g></glyph>
<glyph glyph-name="cedilla" unicode="&#xb8;" horiz-adv-x="530" d="M169 -210 C185 -215.333 203.333 -217 218 -217 C271.333 -217 307 -192.667 307 -146 C307 -100.667 273 -84.3333 209 -83 L248 0 L274 0 L244 -64 C301.333 -69.3333 332 -99.3333 332 -146 C332 -203.333 287 -240 219 -240 C203 -240 183.667 -238 169 -234 L169 -210 Z " />
<glyph glyph-name="onesuperior" unicode="&#xb9;" horiz-adv-x="530" d="M142 435 L248 440 L248 708 C248 742.667 248.667 783.333 250 814 C232.667 802 220.333 795 199 783 L140 748 L129 768 L255 843 L274 843 L274 440 L377 435 L377 416 L142 416 L142 435 Z " />
<glyph glyph-name="ordmasculine" unicode="&#xba;" horiz-adv-x="530" d="M250 396 C166 396 124 464.333 124 559 C124 661.667 171.667 725 253 725 C337.39 725 376 654.286 376 562 C376 467.126 336.355 396 250 396 Z M250 417 C319.333 417 353 476 353 560 C353 640.97 321.307 704 252 704 C188 704 147 651 147 559 C147 475 182 417 250 417 Z " />
<glyph glyph-name="guillemotright" unicode="&#xbb;" horiz-adv-x="530" d="M204 261 L73 437 L90 447 L237 268 L237 255 L90 74 L74 85 L204 261 Z M373 261 L242 437 L259 447 L406 268 L406 255 L259 74 L243 85 L373 261 Z " />
<glyph glyph-name="onequarter" unicode="&#xbc;" horiz-adv-x="530" >
<g transform="translate(2,-576)" ><path fill="black" d="M111 558 L296 846 L319 846 L319 563 L386 563 L386 540 L319 540 L319 415 L295 415 L295 540 L111 540 L111 558 Z M295 563 L295 742 L295 808 C285.667 790.667 279.667 781.667 269 763 L141 563 L295 563 Z " /></g><g transform="translate(-3,50)" ><path fill="black" d="M142 435 L248 440 L248 708 C248 742.667 248.667 783.333 250 814 C232.667 802 220.333 795 199 783 L140 748 L129 768 L255 843 L274 843 L274 440 L377 435 L377 416 L142 416 L142 435 Z " /></g><path fill="black" d="M48 350 L443 400 L443 381 L48 331 L48 350 Z " /></glyph>
<glyph glyph-name="onehalf" unicode="&#xbd;" horiz-adv-x="530" >
<g transform="translate(6,-576)" ><path fill="black" d="M117 437 L223 558 C286.397 629.322 333 681.186 333 742 C333 792.667 302.333 830 241 830 C202.333 830 172 816.667 140 790 L126 809 C158 837 195.667 854 241 854 C317 854 359 807.333 359 742 C359 676.011 315.952 628.516 242 544 L150 439 L371 439 L371 415 L117 415 L117 437 Z " /></g><g transform="translate(-3,50)" ><path fill="black" d="M142 435 L248 440 L248 708 C248 742.667 248.667 783.333 250 814 C232.667 802 220.333 795 199 783 L140 748 L129 768 L255 843 L274 843 L274 440 L377 435 L377 416 L142 416 L142 435 Z " /></g><path fill="black" d="M48 350 L443 400 L443 381 L48 331 L48 350 Z " /></glyph>
<glyph glyph-name="threequarters" unicode="&#xbe;" horiz-adv-x="530" >
<g transform="translate(2,-576)" ><path fill="black" d="M111 558 L296 846 L319 846 L319 563 L386 563 L386 540 L319 540 L319 415 L295 415 L295 540 L111 540 L111 558 Z M295 563 L295 742 L295 808 C285.667 790.667 279.667 781.667 269 763 L141 563 L295 563 Z " /></g><g transform="translate(11,50)" ><path fill="black" d="M115 460 C148.333 444 180.333 435 219 435 C296.333 435 337 472.333 337 535 C337 595 299 628 223 628 L173 628 L173 652 L223 652 C288.333 652 326 688 326 748 C326 797.333 295.333 827 238 827 C195.333 827 162.667 812.667 132 790 L120 811 C152 835 190 851 238 851 C306 851 352 814.667 352 748 C352 690.667 320.667 655 278 643 L278 642 C332.667 627.333 363 593.667 363 535 C363 455 309.667 411 219 411 C180.333 411 143 418.667 115 432 L115 460 Z " /></g><path fill="black" d="M48 350 L443 400 L443 381 L48 331 L48 350 Z " /></glyph>
<glyph glyph-name="questiondown" unicode="&#xbf;" horiz-adv-x="530" d="M396 -163 C356 -184.333 318.667 -195 272 -195 C178.667 -195 117 -143 117 -31 C117 67.6469 163.396 116.06 222 172 C272.019 224.652 285 260.522 285 340 L285 355 L309 355 L309 339 C309 249.24 296.151 213.151 240 157 C182.342 99.3424 144 56.0666 144 -32 C144 -128 194.333 -170 273 -170 C311.667 -170 349 -160 385 -140 L396 -163 Z M299 471 C275 471 269 487.333 269 506 C269 524.667 275 541 299 541 C321.667 541 327 524.667 327 506 C327 487.333 321.667 471 299 471 Z " />
<glyph glyph-name="Agrave" unicode="&#xc0;" horiz-adv-x="530" >
<path fill="black" d="M234 715 L266 715 L480 0 L453 0 L372 276 L128 276 L47 0 L20 0 L234 715 Z M364 301 L275 603 C267 631 259.667 655.667 249 689 C241 658.333 233.333 633.667 224 603 L135 301 L364 301 Z " /><g transform="translate(-26,186)" ><path fill="black" d="M156 765 L186 765 C218 715.667 270.333 657.667 313 615 L313 606 L294 606 C248.389 646.245 189.969 710.966 156 758 L156 765 Z " /></g></glyph>
<glyph glyph-name="Aacute" unicode="&#xc1;" horiz-adv-x="530" d="M234 715 L266 715 L480 0 L453 0 L372 276 L128 276 L47 0 L20 0 L234 715 Z M364 301 L275 603 C267 631 259.667 655.667 249 689 C241 658.333 233.333 633.667 224 603 L135 301 L364 301 Z M220 801 C265.333 847.667 314.333 903 345 951 L375 951 L375 944 C340.881 896.758 284.412 832.952 238 792 L220 792 L220 801 Z " />
<glyph glyph-name="Acircumflex" unicode="&#xc2;" horiz-adv-x="530" d="M234 715 L266 715 L480 0 L453 0 L372 276 L128 276 L47 0 L20 0 L234 715 Z M364 301 L275 603 C267 631 259.667 655.667 249 689 C241 658.333 233.333 633.667 224 603 L135 301 L364 301 Z M135 799 C164.081 836.013 213.206 906.699 237 949 L263 949 C287.545 905.365 340.288 829.203 365 799 L365 792 L347 792 C313.667 828 278 879.333 250 918 C223.333 880.667 185 826.667 153 792 L135 792 L135 799 Z " />
<glyph glyph-name="Atilde" unicode="&#xc3;" horiz-adv-x="530" >
<path fill="black" d="M234 715 L266 715 L480 0 L453 0 L372 276 L128 276 L47 0 L20 0 L234 715 Z M364 301 L275 603 C267 631 259.667 655.667 249 689 C241 658.333 233.333 633.667 224 603 L135 301 L364 301 Z " /><g transform="translate(1,186)" ><path fill="black" d="M103 625 C108.333 689 139.333 718 182 718 C242.569 718 265.569 648 315 648 C343 648 366.667 667.333 372 718 L395 718 C392.333 654 357.667 624 315 624 C252.895 624 231.34 694 181 694 C155.667 694 131 677 127 625 L103 625 Z " /></g></glyph>
<glyph glyph-name="Adieresis" unicode="&#xc4;" horiz-adv-x="530" >
<g transform="translate(0,174)" ><path fill="black" d="M169 635 C150.333 635 143 651.333 143 670 C143 688.667 150.333 706 169 706 C189 706 197 688.667 197 670 C197 650 189 635 169 635 Z M329 635 C310.333 635 303 651.333 303 670 C303 688.667 310.333 706 329 706 C349 706 357 688.667 357 670 C357 650 349 635 329 635 Z " /></g><path fill="black" d="M234 715 L266 715 L480 0 L453 0 L372 276 L128 276 L47 0 L20 0 L234 715 Z M364 301 L275 603 C267 631 259.667 655.667 249 689 C241 658.333 233.333 633.667 224 603 L135 301 L364 301 Z " /></glyph>
<glyph glyph-name="Aring" unicode="&#xc5;" horiz-adv-x="530" d="M234 715 L266 715 L480 0 L453 0 L372 276 L128 276 L47 0 L20 0 L234 715 Z M364 301 L275 603 C267 631 259.667 655.667 249 689 C241 658.333 233.333 633.667 224 603 L135 301 L364 301 Z M156 893 C156 950.333 198 986 250 986 C302 986 344 949.333 344 892 C344 836 303 800 251 800 C200.333 800 156 833 156 893 Z M251 822 C293.667 822 320 850.667 320 892 C320 934.667 290.333 963 249 963 C207.667 963 180 934.333 180 893 C180 853 207 822 251 822 Z " />
<glyph glyph-name="AE" unicode="&#xc6;" horiz-adv-x="530" d="M204 714 L475 714 L475 689 L283 689 L283 389 L459 389 L459 364 L283 364 L283 25 L475 25 L475 0 L257 0 L257 275 L117 275 L47 0 L20 0 L204 714 Z M257 300 L257 689 L222 689 L123 300 L257 300 Z " />
<glyph glyph-name="Ccedilla" unicode="&#xc7;" horiz-adv-x="530" d="M209 -210 C225 -215.333 243.333 -217 258 -217 C311.333 -217 347 -192.667 347 -146 C347 -100.667 313 -84.3333 249 -83 L284 -8 C141.086 10.5259 59 151.082 59 359 C59 557.9 146.281 724 325 724 C377 724 424.333 713.333 467 692 L456 669 C410.667 694.333 366.333 699 325 699 C164.108 699 86 542.03 86 359 C86 153.563 167.697 15 318 15 C379.333 15 425.333 29.3333 460 44 L460 17 C425.333 2.33333 376.667 -10 318 -10 L309 -10 L284 -64 C341.333 -69.3333 372 -99.3333 372 -146 C372 -203.333 327 -240 259 -240 C243 -240 223.667 -238 209 -234 L209 -210 Z " />
<glyph glyph-name="Egrave" unicode="&#xc8;" horiz-adv-x="530" >
<path fill="black" d="M405 25 L405 0 L95 0 L95 714 L405 714 L405 689 L121 689 L121 389 L388 389 L388 364 L121 364 L121 25 L405 25 Z " /><g transform="translate(-29,186)" ><path fill="black" d="M156 765 L186 765 C218 715.667 270.333 657.667 313 615 L313 606 L294 606 C248.389 646.245 189.969 710.966 156 758 L156 765 Z " /></g></glyph>
<glyph glyph-name="Eacute" unicode="&#xc9;" horiz-adv-x="530" >
<path fill="black" d="M405 25 L405 0 L95 0 L95 714 L405 714 L405 689 L121 689 L121 389 L388 389 L388 364 L121 364 L121 25 L405 25 Z " /><g transform="translate(-5,186)" ><path fill="black" d="M222 606 L222 615 C267.333 661.667 316.333 717 347 765 L377 765 L377 758 C342.881 710.758 286.412 646.952 240 606 L222 606 Z " /></g></glyph>
<glyph glyph-name="Ecircumflex" unicode="&#xca;" horiz-adv-x="530" >
<path fill="black" d="M405 25 L405 0 L95 0 L95 714 L405 714 L405 689 L121 689 L121 389 L388 389 L388 364 L121 364 L121 25 L405 25 Z " /><g transform="translate(-3,186)" ><path fill="black" d="M135 606 L135 613 C164.081 650.013 213.206 720.699 237 763 L263 763 C287.545 719.365 340.288 643.203 365 613 L365 606 L347 606 C313.667 642 278 693.333 250 732 C223.333 694.667 185 640.667 153 606 L135 606 Z " /></g></glyph>
<glyph glyph-name="Edieresis" unicode="&#xcb;" horiz-adv-x="530" >
<g transform="translate(-3,174)" ><path fill="black" d="M169 635 C150.333 635 143 651.333 143 670 C143 688.667 150.333 706 169 706 C189 706 197 688.667 197 670 C197 650 189 635 169 635 Z M329 635 C310.333 635 303 651.333 303 670 C303 688.667 310.333 706 329 706 C349 706 357 688.667 357 670 C357 650 349 635 329 635 Z " /></g><path fill="black" d="M405 25 L405 0 L95 0 L95 714 L405 714 L405 689 L121 689 L121 389 L388 389 L388 364 L121 364 L121 25 L405 25 Z " /></glyph>
<glyph glyph-name="Igrave" unicode="&#xcc;" horiz-adv-x="530" >
<path fill="black" d="M120 20 L237 23 L237 690 L120 694 L120 714 L380 714 L380 694 L263 690 L263 23 L380 20 L380 0 L120 0 L120 20 Z " /><g transform="translate(-26,186)" ><path fill="black" d="M156 765 L186 765 C218 715.667 270.333 657.667 313 615 L313 606 L294 606 C248.389 646.245 189.969 710.966 156 758 L156 765 Z " /></g></glyph>
<glyph glyph-name="Iacute" unicode="&#xcd;" horiz-adv-x="530" >
<path fill="black" d="M120 20 L237 23 L237 690 L120 694 L120 714 L380 714 L380 694 L263 690 L263 23 L380 20 L380 0 L120 0 L120 20 Z " /><g transform="translate(-2,186)" ><path fill="black" d="M222 606 L222 615 C267.333 661.667 316.333 717 347 765 L377 765 L377 758 C342.881 710.758 286.412 646.952 240 606 L222 606 Z " /></g></glyph>
<glyph glyph-name="Icircumflex" unicode="&#xce;" horiz-adv-x="530" >
<path fill="black" d="M120 20 L237 23 L237 690 L120 694 L120 714 L380 714 L380 694 L263 690 L263 23 L380 20 L380 0 L120 0 L120 20 Z " /><g transform="translate(0,186)" ><path fill="black" d="M135 606 L135 613 C164.081 650.013 213.206 720.699 237 763 L263 763 C287.545 719.365 340.288 643.203 365 613 L365 606 L347 606 C313.667 642 278 693.333 250 732 C223.333 694.667 185 640.667 153 606 L135 606 Z " /></g></glyph>
<glyph glyph-name="Idieresis" unicode="&#xcf;" horiz-adv-x="530" >
<g transform="translate(0,174)" ><path fill="black" d="M169 635 C150.333 635 143 651.333 143 670 C143 688.667 150.333 706 169 706 C189 706 197 688.667 197 670 C197 650 189 635 169 635 Z M329 635 C310.333 635 303 651.333 303 670 C303 688.667 310.333 706 329 706 C349 706 357 688.667 357 670 C357 650 349 635 329 635 Z " /></g><path fill="black" d="M120 20 L237 23 L237 690 L120 694 L120 714 L380 714 L380 694 L263 690 L263 23 L380 20 L380 0 L120 0 L120 20 Z " /></glyph>
<glyph glyph-name="Eth" unicode="&#xd0;" horiz-adv-x="530" d="M74 353 L0 353 L0 378 L74 378 L74 714 L199 714 C380.333 714 459 596.667 459 362 C459 122 380.667 0 198 0 L74 0 L74 353 Z M193 25 C362.333 25 432 140 432 360 C432 569.048 370.052 689 194 689 L100 689 L100 378 L258 378 L258 353 L100 353 L100 25 L193 25 Z " />
<glyph glyph-name="Ntilde" unicode="&#xd1;" horiz-adv-x="530" >
<path fill="black" d="M65 0 L65 714 L94 714 L408 54 L410 54 C410 99.3333 409 151.667 409 181 L409 714 L435 714 L435 0 L407 0 L92 664 L90 664 C91.3333 637.333 91 604 91 548 L91 0 L65 0 Z " /><g transform="translate(6,186)" ><path fill="black" d="M103 625 C108.333 689 139.333 718 182 718 C242.569 718 265.569 648 315 648 C343 648 366.667 667.333 372 718 L395 718 C392.333 654 357.667 624 315 624 C252.895 624 231.34 694 181 694 C155.667 694 131 677 127 625 L103 625 Z " /></g></glyph>
<glyph glyph-name="Ograve" unicode="&#xd2;" horiz-adv-x="530" >
<path fill="black" d="M251 -10 C92.7229 -10 50 172.926 50 358 C50 603.333 120.333 724 251 724 C397.693 724 450 570.416 450 358 C450 166 408.359 -10 251 -10 Z M251 15 C368.333 15 424 134 424 358 C424 578 368.333 699 251 699 C132.333 699 76 574 76 358 C76 139.333 137.667 15 251 15 Z " /><g transform="translate(-26,186)" ><path fill="black" d="M156 765 L186 765 C218 715.667 270.333 657.667 313 615 L313 606 L294 606 C248.389 646.245 189.969 710.966 156 758 L156 765 Z " /></g></glyph>
<glyph glyph-name="Oacute" unicode="&#xd3;" horiz-adv-x="530" >
<path fill="black" d="M251 -10 C92.7229 -10 50 172.926 50 358 C50 603.333 120.333 724 251 724 C397.693 724 450 570.416 450 358 C450 166 408.359 -10 251 -10 Z M251 15 C368.333 15 424 134 424 358 C424 578 368.333 699 251 699 C132.333 699 76 574 76 358 C76 139.333 137.667 15 251 15 Z " /><g transform="translate(-2,186)" ><path fill="black" d="M222 606 L222 615 C267.333 661.667 316.333 717 347 765 L377 765 L377 758 C342.881 710.758 286.412 646.952 240 606 L222 606 Z " /></g></glyph>
<glyph glyph-name="Ocircumflex" unicode="&#xd4;" horiz-adv-x="530" >
<path fill="black" d="M251 -10 C92.7229 -10 50 172.926 50 358 C50 603.333 120.333 724 251 724 C397.693 724 450 570.416 450 358 C450 166 408.359 -10 251 -10 Z M251 15 C368.333 15 424 134 424 358 C424 578 368.333 699 251 699 C132.333 699 76 574 76 358 C76 139.333 137.667 15 251 15 Z " /><g transform="translate(0,186)" ><path fill="black" d="M135 606 L135 613 C164.081 650.013 213.206 720.699 237 763 L263 763 C287.545 719.365 340.288 643.203 365 613 L365 606 L347 606 C313.667 642 278 693.333 250 732 C223.333 694.667 185 640.667 153 606 L135 606 Z " /></g></glyph>
<glyph glyph-name="Otilde" unicode="&#xd5;" horiz-adv-x="530" >
<path fill="black" d="M251 -10 C92.7229 -10 50 172.926 50 358 C50 603.333 120.333 724 251 724 C397.693 724 450 570.416 450 358 C450 166 408.359 -10 251 -10 Z M251 15 C368.333 15 424 134 424 358 C424 578 368.333 699 251 699 C132.333 699 76 574 76 358 C76 139.333 137.667 15 251 15 Z " /><g transform="translate(1,186)" ><path fill="black" d="M103 625 C108.333 689 139.333 718 182 718 C242.569 718 265.569 648 315 648 C343 648 366.667 667.333 372 718 L395 718 C392.333 654 357.667 624 315 624 C252.895 624 231.34 694 181 694 C155.667 694 131 677 127 625 L103 625 Z " /></g></glyph>
<glyph glyph-name="Odieresis" unicode="&#xd6;" horiz-adv-x="530" >
<g transform="translate(0,174)" ><path fill="black" d="M169 635 C150.333 635 143 651.333 143 670 C143 688.667 150.333 706 169 706 C189 706 197 688.667 197 670 C197 650 189 635 169 635 Z M329 635 C310.333 635 303 651.333 303 670 C303 688.667 310.333 706 329 706 C349 706 357 688.667 357 670 C357 650 349 635 329 635 Z " /></g><path fill="black" d="M251 -10 C92.7229 -10 50 172.926 50 358 C50 603.333 120.333 724 251 724 C397.693 724 450 570.416 450 358 C450 166 408.359 -10 251 -10 Z M251 15 C368.333 15 424 134 424 358 C424 578 368.333 699 251 699 C132.333 699 76 574 76 358 C76 139.333 137.667 15 251 15 Z " /></glyph>
<glyph glyph-name="multiply" unicode="&#xd7;" horiz-adv-x="530" d="M50 183 L221 354 L51 524 L68 541 L237 370 L407 541 L424 525 L253 354 L423 183 L406 167 L237 337 L66 166 L50 183 Z " />
<glyph glyph-name="Oslash" unicode="&#xd8;" horiz-adv-x="530" d="M90 108 C59.3333 177.333 50 266 50 358 C50 603.333 120.333 724 251 724 C316.333 724 362 694.333 394 641 L449 737 L470 724 L408 615 C437.333 549.667 450 462 450 358 C450 166 408.359 -10 251 -10 C180.333 -10 133.667 25 103 81 L41 -28 L19 -15 L90 108 Z M119 109 C149.667 46.3333 193.667 15 251 15 C368.333 15 424 134 424 358 C424 453.333 413.333 529.333 392 586 L119 109 Z M379 615 C349.667 671 307 699 251 699 C132.333 699 76 574 76 358 C76 268.667 87 195 107 139 L379 615 Z " />
<glyph glyph-name="Ugrave" unicode="&#xd9;" horiz-adv-x="530" >
<path fill="black" d="M65 714 L91 714 L91 239 C91 83 148.667 15 250 15 C344.667 15 409 78.3333 409 233 L409 714 L435 714 L435 230 C435 58.1558 355.615 -10 249 -10 C131.667 -10 65 69.3333 65 236 L65 714 Z " /><g transform="translate(-26,186)" ><path fill="black" d="M156 765 L186 765 C218 715.667 270.333 657.667 313 615 L313 606 L294 606 C248.389 646.245 189.969 710.966 156 758 L156 765 Z " /></g></glyph>
<glyph glyph-name="Uacute" unicode="&#xda;" horiz-adv-x="530" >
<path fill="black" d="M65 714 L91 714 L91 239 C91 83 148.667 15 250 15 C344.667 15 409 78.3333 409 233 L409 714 L435 714 L435 230 C435 58.1558 355.615 -10 249 -10 C131.667 -10 65 69.3333 65 236 L65 714 Z " /><g transform="translate(-2,186)" ><path fill="black" d="M222 606 L222 615 C267.333 661.667 316.333 717 347 765 L377 765 L377 758 C342.881 710.758 286.412 646.952 240 606 L222 606 Z " /></g></glyph>
<glyph glyph-name="Ucircumflex" unicode="&#xdb;" horiz-adv-x="530" >
<path fill="black" d="M65 714 L91 714 L91 239 C91 83 148.667 15 250 15 C344.667 15 409 78.3333 409 233 L409 714 L435 714 L435 230 C435 58.1558 355.615 -10 249 -10 C131.667 -10 65 69.3333 65 236 L65 714 Z " /><g transform="translate(0,186)" ><path fill="black" d="M135 606 L135 613 C164.081 650.013 213.206 720.699 237 763 L263 763 C287.545 719.365 340.288 643.203 365 613 L365 606 L347 606 C313.667 642 278 693.333 250 732 C223.333 694.667 185 640.667 153 606 L135 606 Z " /></g></glyph>
<glyph glyph-name="Udieresis" unicode="&#xdc;" horiz-adv-x="530" >
<g transform="translate(0,174)" ><path fill="black" d="M169 635 C150.333 635 143 651.333 143 670 C143 688.667 150.333 706 169 706 C189 706 197 688.667 197 670 C197 650 189 635 169 635 Z M329 635 C310.333 635 303 651.333 303 670 C303 688.667 310.333 706 329 706 C349 706 357 688.667 357 670 C357 650 349 635 329 635 Z " /></g><path fill="black" d="M65 714 L91 714 L91 239 C91 83 148.667 15 250 15 C344.667 15 409 78.3333 409 233 L409 714 L435 714 L435 230 C435 58.1558 355.615 -10 249 -10 C131.667 -10 65 69.3333 65 236 L65 714 Z " /></glyph>
<glyph glyph-name="Yacute" unicode="&#xdd;" horiz-adv-x="530" >
<path fill="black" d="M238 0 L238 275 L35 714 L62 714 L251 305 L437 714 L465 714 L264 277 L264 0 L238 0 Z " /><g transform="translate(-2,186)" ><path fill="black" d="M222 606 L222 615 C267.333 661.667 316.333 717 347 765 L377 765 L377 758 C342.881 710.758 286.412 646.952 240 606 L222 606 Z " /></g></glyph>
<glyph glyph-name="Thorn" unicode="&#xde;" horiz-adv-x="530" d="M95 0 L95 714 L121 714 L121 584 L243 584 C379 584 455 533.494 455 385 C455 241 386 176 250 176 L121 176 L121 0 L95 0 Z M121 201 L241 201 C366.333 201 428 254 428 386 C428 515.333 367.333 559 234 559 L121 559 L121 201 Z " />
<glyph glyph-name="germandbls" unicode="&#xdf;" horiz-adv-x="530" d="M110 572 C110 696 163 765 267 765 C353.667 765 398 713.667 398 643 C398 522.444 284 520.556 284 424 C284 367.726 316.945 339.827 364 298 C414.866 252.488 452 212.704 452 135 C452 58.6623 406.61 -10 307 -10 C260.333 -10 228 0.333333 200 15 L200 43 C234.667 24.3333 270.333 15 307 15 C384.333 15 425 64.3333 425 135 C425 203.133 390.222 241.098 345 281 C297.378 325.976 257 359.486 257 424 C257 532.791 371 534.68 371 643 C371 700.333 336.333 740 267 740 C175 740 136 676.333 136 571 L136 0 L110 0 L110 572 Z " />
<glyph glyph-name="agrave" unicode="&#xe0;" horiz-adv-x="530" >
<path fill="black" d="M376 98 L374 98 C355.256 41.7678 311.609 -10 220 -10 C125.333 -10 80 51.6667 80 129 C80 234.333 157.333 284.333 292 295 L374 302 L374 349 C374 469 338 512 258 512 C219.333 512 178.667 503.333 132 478 L122 502 C164.667 524.667 211.333 537 258 537 C354 537 400 486 400 354 L400 0 L378 0 L376 98 Z M374 278 L292 272 C174.667 262.667 107 221 107 129 C107 55.6667 148 14 220 14 C328.416 14 374 97.2814 374 220 L374 278 Z " /><g transform="translate(-22,0)" ><path fill="black" d="M156 765 L186 765 C218 715.667 270.333 657.667 313 615 L313 606 L294 606 C248.389 646.245 189.969 710.966 156 758 L156 765 Z " /></g></glyph>
<glyph glyph-name="aacute" unicode="&#xe1;" horiz-adv-x="530" >
<path fill="black" d="M376 98 L374 98 C355.256 41.7678 311.609 -10 220 -10 C125.333 -10 80 51.6667 80 129 C80 234.333 157.333 284.333 292 295 L374 302 L374 349 C374 469 338 512 258 512 C219.333 512 178.667 503.333 132 478 L122 502 C164.667 524.667 211.333 537 258 537 C354 537 400 486 400 354 L400 0 L378 0 L376 98 Z M374 278 L292 272 C174.667 262.667 107 221 107 129 C107 55.6667 148 14 220 14 C328.416 14 374 97.2814 374 220 L374 278 Z " /><g transform="translate(2,0)" ><path fill="black" d="M222 606 L222 615 C267.333 661.667 316.333 717 347 765 L377 765 L377 758 C342.881 710.758 286.412 646.952 240 606 L222 606 Z " /></g></glyph>
<glyph glyph-name="acircumflex" unicode="&#xe2;" horiz-adv-x="530" >
<path fill="black" d="M376 98 L374 98 C355.256 41.7678 311.609 -10 220 -10 C125.333 -10 80 51.6667 80 129 C80 234.333 157.333 284.333 292 295 L374 302 L374 349 C374 469 338 512 258 512 C219.333 512 178.667 503.333 132 478 L122 502 C164.667 524.667 211.333 537 258 537 C354 537 400 486 400 354 L400 0 L378 0 L376 98 Z M374 278 L292 272 C174.667 262.667 107 221 107 129 C107 55.6667 148 14 220 14 C328.416 14 374 97.2814 374 220 L374 278 Z " /><g transform="translate(4,0)" ><path fill="black" d="M135 606 L135 613 C164.081 650.013 213.206 720.699 237 763 L263 763 C287.545 719.365 340.288 643.203 365 613 L365 606 L347 606 C313.667 642 278 693.333 250 732 C223.333 694.667 185 640.667 153 606 L135 606 Z " /></g></glyph>
<glyph glyph-name="atilde" unicode="&#xe3;" horiz-adv-x="530" >
<path fill="black" d="M376 98 L374 98 C355.256 41.7678 311.609 -10 220 -10 C125.333 -10 80 51.6667 80 129 C80 234.333 157.333 284.333 292 295 L374 302 L374 349 C374 469 338 512 258 512 C219.333 512 178.667 503.333 132 478 L122 502 C164.667 524.667 211.333 537 258 537 C354 537 400 486 400 354 L400 0 L378 0 L376 98 Z M374 278 L292 272 C174.667 262.667 107 221 107 129 C107 55.6667 148 14 220 14 C328.416 14 374 97.2814 374 220 L374 278 Z " /><g transform="translate(5,0)" ><path fill="black" d="M103 625 C108.333 689 139.333 718 182 718 C242.569 718 265.569 648 315 648 C343 648 366.667 667.333 372 718 L395 718 C392.333 654 357.667 624 315 624 C252.895 624 231.34 694 181 694 C155.667 694 131 677 127 625 L103 625 Z " /></g></glyph>
<glyph glyph-name="adieresis" unicode="&#xe4;" horiz-adv-x="530" >
<g transform="translate(4,-12)" ><path fill="black" d="M169 635 C150.333 635 143 651.333 143 670 C143 688.667 150.333 706 169 706 C189 706 197 688.667 197 670 C197 650 189 635 169 635 Z M329 635 C310.333 635 303 651.333 303 670 C303 688.667 310.333 706 329 706 C349 706 357 688.667 357 670 C357 650 349 635 329 635 Z " /></g><path fill="black" d="M376 98 L374 98 C355.256 41.7678 311.609 -10 220 -10 C125.333 -10 80 51.6667 80 129 C80 234.333 157.333 284.333 292 295 L374 302 L374 349 C374 469 338 512 258 512 C219.333 512 178.667 503.333 132 478 L122 502 C164.667 524.667 211.333 537 258 537 C354 537 400 486 400 354 L400 0 L378 0 L376 98 Z M374 278 L292 272 C174.667 262.667 107 221 107 129 C107 55.6667 148 14 220 14 C328.416 14 374 97.2814 374 220 L374 278 Z " /></glyph>
<glyph glyph-name="aring" unicode="&#xe5;" horiz-adv-x="530" >
<path fill="black" d="M376 98 L374 98 C355.256 41.7678 311.609 -10 220 -10 C125.333 -10 80 51.6667 80 129 C80 234.333 157.333 284.333 292 295 L374 302 L374 349 C374 469 338 512 258 512 C219.333 512 178.667 503.333 132 478 L122 502 C164.667 524.667 211.333 537 258 537 C354 537 400 486 400 354 L400 0 L378 0 L376 98 Z M374 278 L292 272 C174.667 262.667 107 221 107 129 C107 55.6667 148 14 220 14 C328.416 14 374 97.2814 374 220 L374 278 Z " /><g transform="translate(4,0)" ><path fill="black" d="M156 707 C156 764.333 198 800 250 800 C302 800 344 763.333 344 706 C344 650 303 614 251 614 C200.333 614 156 647 156 707 Z M180 707 C180 667 207 636 251 636 C293.667 636 320 664.667 320 706 C320 748.667 290.333 777 249 777 C207.667 777 180 748.333 180 707 Z " /></g></glyph>
<glyph glyph-name="ae" unicode="&#xe6;" horiz-adv-x="530" d="M230 296 L230 354 C230 466 202 512 142 512 C115.333 512 87.6667 504.333 53 479 L43 502 C73.6667 523.333 106 537 146 537 C210.667 537 246 489.667 252 395 C267.983 474.915 301.606 538 364 538 C443.922 538 475 434.152 475 297 L475 270 L261 270 C261 126.078 289.818 15 370 15 C388.667 15 414.333 20.6667 457 50 L457 22 C427 0.666667 397.333 -10 368 -10 C298.667 -10 263.667 48.3333 249 135 C238.333 49.6667 208.667 -10 134 -10 C58 -10 24 48 24 128 C24 237.333 88.3333 287.333 195 294 L230 296 Z M230 271 L191 269 C95 263.667 52 216.333 52 127 C52 60.3333 78.6667 15 132 15 C208.208 15 230 107.662 230 200 L230 271 Z M449 295 C449 417.823 422.641 513 364 513 C308 513 266.333 431 261 295 L449 295 Z " />
<glyph glyph-name="ccedilla" unicode="&#xe7;" horiz-adv-x="530" d="M204 -210 C220 -215.333 238.333 -217 253 -217 C306.333 -217 342 -192.667 342 -146 C342 -100.667 308 -84.3333 244 -83 L279 -9 C151.967 1.58609 95 107.062 95 259 C95 431.39 176.996 538 312 538 C355.333 538 391.333 531 420 517 L412 493 C382.667 507.667 346.333 513 313 513 C194.333 513 122 419 122 259 C122 120.437 174.152 15 301 15 C339.667 15 385 22.3333 417 37 L417 11 C390.333 -1 348 -8.66667 304 -10 L279 -64 C336.333 -69.3333 367 -99.3333 367 -146 C367 -203.333 322 -240 254 -240 C238 -240 218.667 -238 204 -234 L204 -210 Z " />
<glyph glyph-name="egrave" unicode="&#xe8;" horiz-adv-x="530" >
<path fill="black" d="M419 23 C380.333 1.66667 336 -10 280 -10 C136.078 -10 73 99.4372 73 262 C73 419.333 134.074 538 261 538 C389 538 437 426.719 437 296 L437 270 L100 270 C100 100.667 162.667 15 280 15 C332 15 372.333 24.3333 419 51 L419 23 Z M261 513 C169 513 110.333 439.333 101 294 L411 294 C411 419.255 365.918 513 261 513 Z " /><g transform="translate(-16,0)" ><path fill="black" d="M156 765 L186 765 C218 715.667 270.333 657.667 313 615 L313 606 L294 606 C248.389 646.245 189.969 710.966 156 758 L156 765 Z " /></g></glyph>
<glyph glyph-name="eacute" unicode="&#xe9;" horiz-adv-x="530" >
<path fill="black" d="M419 23 C380.333 1.66667 336 -10 280 -10 C136.078 -10 73 99.4372 73 262 C73 419.333 134.074 538 261 538 C389 538 437 426.719 437 296 L437 270 L100 270 C100 100.667 162.667 15 280 15 C332 15 372.333 24.3333 419 51 L419 23 Z M261 513 C169 513 110.333 439.333 101 294 L411 294 C411 419.255 365.918 513 261 513 Z " /><g transform="translate(8,0)" ><path fill="black" d="M222 606 L222 615 C267.333 661.667 316.333 717 347 765 L377 765 L377 758 C342.881 710.758 286.412 646.952 240 606 L222 606 Z " /></g></glyph>
<glyph glyph-name="ecircumflex" unicode="&#xea;" horiz-adv-x="530" >
<path fill="black" d="M419 23 C380.333 1.66667 336 -10 280 -10 C136.078 -10 73 99.4372 73 262 C73 419.333 134.074 538 261 538 C389 538 437 426.719 437 296 L437 270 L100 270 C100 100.667 162.667 15 280 15 C332 15 372.333 24.3333 419 51 L419 23 Z M261 513 C169 513 110.333 439.333 101 294 L411 294 C411 419.255 365.918 513 261 513 Z " /><g transform="translate(10,0)" ><path fill="black" d="M135 606 L135 613 C164.081 650.013 213.206 720.699 237 763 L263 763 C287.545 719.365 340.288 643.203 365 613 L365 606 L347 606 C313.667 642 278 693.333 250 732 C223.333 694.667 185 640.667 153 606 L135 606 Z " /></g></glyph>
<glyph glyph-name="edieresis" unicode="&#xeb;" horiz-adv-x="530" >
<g transform="translate(10,-12)" ><path fill="black" d="M169 635 C150.333 635 143 651.333 143 670 C143 688.667 150.333 706 169 706 C189 706 197 688.667 197 670 C197 650 189 635 169 635 Z M329 635 C310.333 635 303 651.333 303 670 C303 688.667 310.333 706 329 706 C349 706 357 688.667 357 670 C357 650 349 635 329 635 Z " /></g><path fill="black" d="M419 23 C380.333 1.66667 336 -10 280 -10 C136.078 -10 73 99.4372 73 262 C73 419.333 134.074 538 261 538 C389 538 437 426.719 437 296 L437 270 L100 270 C100 100.667 162.667 15 280 15 C332 15 372.333 24.3333 419 51 L419 23 Z M261 513 C169 513 110.333 439.333 101 294 L411 294 C411 419.255 365.918 513 261 513 Z " /></glyph>
<glyph glyph-name="igrave" unicode="&#xec;" horiz-adv-x="500" >
<path fill="black" d="M82 21 L249 25 L249 503 L100 507 L100 528 L275 528 L275 25 L432 21 L432 0 L82 0 L82 21 Z " /><g transform="translate(-26,0)" ><path fill="black" d="M156 765 L186 765 C218 715.667 270.333 657.667 313 615 L313 606 L294 606 C248.389 646.245 189.969 710.966 156 758 L156 765 Z " /></g></glyph>
<glyph glyph-name="iacute" unicode="&#xed;" horiz-adv-x="500" >
<path fill="black" d="M82 21 L249 25 L249 503 L100 507 L100 528 L275 528 L275 25 L432 21 L432 0 L82 0 L82 21 Z " /><g transform="translate(-2,0)" ><path fill="black" d="M222 606 L222 615 C267.333 661.667 316.333 717 347 765 L377 765 L377 758 C342.881 710.758 286.412 646.952 240 606 L222 606 Z " /></g></glyph>
<glyph glyph-name="icircumflex" unicode="&#xee;" horiz-adv-x="500" >
<path fill="black" d="M82 21 L249 25 L249 503 L100 507 L100 528 L275 528 L275 25 L432 21 L432 0 L82 0 L82 21 Z " /><path fill="black" d="M135 606 L135 613 C164.081 650.013 213.206 720.699 237 763 L263 763 C287.545 719.365 340.288 643.203 365 613 L365 606 L347 606 C313.667 642 278 693.333 250 732 C223.333 694.667 185 640.667 153 606 L135 606 Z " /></glyph>
<glyph glyph-name="idieresis" unicode="&#xef;" horiz-adv-x="500" >
<g transform="translate(0,-12)" ><path fill="black" d="M169 635 C150.333 635 143 651.333 143 670 C143 688.667 150.333 706 169 706 C189 706 197 688.667 197 670 C197 650 189 635 169 635 Z M329 635 C310.333 635 303 651.333 303 670 C303 688.667 310.333 706 329 706 C349 706 357 688.667 357 670 C357 650 349 635 329 635 Z " /></g><path fill="black" d="M82 21 L249 25 L249 503 L100 507 L100 528 L275 528 L275 25 L432 21 L432 0 L82 0 L82 21 Z " /></glyph>
<glyph glyph-name="eth" unicode="&#xf0;" horiz-adv-x="530" d="M403 390 C384.333 498 337 594.333 265 665 L159 602 L147 622 L247 682 C220.333 704.667 192.667 725.333 162 740 L178 757 C212.667 741 244.333 719.667 271 697 L368 755 L380 734 L289 680 C395.739 575.929 440 416.158 440 272 C440 88 372.333 -10 247 -10 C119.182 -10 60 94.8745 60 224 C60 373.333 137.593 464 256 464 C325.333 464 376 432.667 400 390 L403 390 Z M245 15 C352.636 15 413 111.364 413 243 C413 357.667 365.615 439 259 439 C151 439 86 358.333 86 225 C86 95.6667 146.333 15 245 15 Z " />
<glyph glyph-name="ntilde" unicode="&#xf1;" horiz-adv-x="530" >
<path fill="black" d="M85 0 L85 528 L105 528 L108 416 L110 416 C128.379 476.387 175.294 537 270 537 C366 537 420 483.667 420 361 L420 0 L394 0 L394 355 C394 468.333 348.667 512 270 512 C179.411 512 111 445.641 111 307 L111 0 L85 0 Z " /><g transform="translate(6,0)" ><path fill="black" d="M103 625 C108.333 689 139.333 718 182 718 C242.569 718 265.569 648 315 648 C343 648 366.667 667.333 372 718 L395 718 C392.333 654 357.667 624 315 624 C252.895 624 231.34 694 181 694 C155.667 694 131 677 127 625 L103 625 Z " /></g></glyph>
<glyph glyph-name="ograve" unicode="&#xf2;" horiz-adv-x="530" >
<path fill="black" d="M251 -10 C123 -10 60 94.3333 60 265 C60 439.667 126.333 537 253 537 C388.922 537 440 425.048 440 264 C440 93.3333 381.667 -10 251 -10 Z M251 15 C365.667 15 414 106.333 414 265 C414 409.892 372.004 512 253 512 C139.667 512 86 422.333 86 265 C86 110.333 137.667 15 251 15 Z " /><g transform="translate(-26,0)" ><path fill="black" d="M156 765 L186 765 C218 715.667 270.333 657.667 313 615 L313 606 L294 606 C248.389 646.245 189.969 710.966 156 758 L156 765 Z " /></g></glyph>
<glyph glyph-name="oacute" unicode="&#xf3;" horiz-adv-x="530" >
<path fill="black" d="M251 -10 C123 -10 60 94.3333 60 265 C60 439.667 126.333 537 253 537 C388.922 537 440 425.048 440 264 C440 93.3333 381.667 -10 251 -10 Z M251 15 C365.667 15 414 106.333 414 265 C414 409.892 372.004 512 253 512 C139.667 512 86 422.333 86 265 C86 110.333 137.667 15 251 15 Z " /><g transform="translate(-2,0)" ><path fill="black" d="M222 606 L222 615 C267.333 661.667 316.333 717 347 765 L377 765 L377 758 C342.881 710.758 286.412 646.952 240 606 L222 606 Z " /></g></glyph>
<glyph glyph-name="ocircumflex" unicode="&#xf4;" horiz-adv-x="530" >
<path fill="black" d="M251 -10 C123 -10 60 94.3333 60 265 C60 439.667 126.333 537 253 537 C388.922 537 440 425.048 440 264 C440 93.3333 381.667 -10 251 -10 Z M251 15 C365.667 15 414 106.333 414 265 C414 409.892 372.004 512 253 512 C139.667 512 86 422.333 86 265 C86 110.333 137.667 15 251 15 Z " /><path fill="black" d="M135 606 L135 613 C164.081 650.013 213.206 720.699 237 763 L263 763 C287.545 719.365 340.288 643.203 365 613 L365 606 L347 606 C313.667 642 278 693.333 250 732 C223.333 694.667 185 640.667 153 606 L135 606 Z " /></glyph>
<glyph glyph-name="otilde" unicode="&#xf5;" horiz-adv-x="530" >
<path fill="black" d="M251 -10 C123 -10 60 94.3333 60 265 C60 439.667 126.333 537 253 537 C388.922 537 440 425.048 440 264 C440 93.3333 381.667 -10 251 -10 Z M251 15 C365.667 15 414 106.333 414 265 C414 409.892 372.004 512 253 512 C139.667 512 86 422.333 86 265 C86 110.333 137.667 15 251 15 Z " /><g transform="translate(1,0)" ><path fill="black" d="M103 625 C108.333 689 139.333 718 182 718 C242.569 718 265.569 648 315 648 C343 648 366.667 667.333 372 718 L395 718 C392.333 654 357.667 624 315 624 C252.895 624 231.34 694 181 694 C155.667 694 131 677 127 625 L103 625 Z " /></g></glyph>
<glyph glyph-name="odieresis" unicode="&#xf6;" horiz-adv-x="530" >
<g transform="translate(0,-12)" ><path fill="black" d="M169 635 C150.333 635 143 651.333 143 670 C143 688.667 150.333 706 169 706 C189 706 197 688.667 197 670 C197 650 189 635 169 635 Z M329 635 C310.333 635 303 651.333 303 670 C303 688.667 310.333 706 329 706 C349 706 357 688.667 357 670 C357 650 349 635 329 635 Z " /></g><path fill="black" d="M251 -10 C123 -10 60 94.3333 60 265 C60 439.667 126.333 537 253 537 C388.922 537 440 425.048 440 264 C440 93.3333 381.667 -10 251 -10 Z M251 15 C365.667 15 414 106.333 414 265 C414 409.892 372.004 512 253 512 C139.667 512 86 422.333 86 265 C86 110.333 137.667 15 251 15 Z " /></glyph>
<glyph glyph-name="divide" unicode="&#xf7;" horiz-adv-x="530" d="M50 366 L450 366 L450 341 L50 341 L50 366 Z M250 142 C230 142 225 156.333 225 175 C225 193.667 230 208 250 208 C271.333 208 276 195 276 175 C276 155 271.333 142 250 142 Z M250 497 C230 497 225 511.333 225 530 C225 548.667 230 563 250 563 C271.333 563 276 550 276 530 C276 510 271.333 497 250 497 Z " />
<glyph glyph-name="oslash" unicode="&#xf8;" horiz-adv-x="530" d="M107 64 C75.6667 112.667 60 179.667 60 265 C60 439.667 126.333 537 253 537 C311.667 537 352.333 516.667 383 482 L441 570 L461 557 L398 461 C427.333 413 440 344 440 264 C440 93.3333 381.667 -10 251 -10 C197.667 -10 155 8 123 44 L58 -54 L38 -40 L107 64 Z M368 459 C341.333 493.667 305 512 253 512 C139.667 512 86 422.333 86 265 C86 190.333 98 131.333 122 88 L368 459 Z M137 66 C165 32 203 15 251 15 C365.667 15 414 106.333 414 265 C414 334.333 404.667 393 382 437 L137 66 Z " />
<glyph glyph-name="ugrave" unicode="&#xf9;" horiz-adv-x="530" >
<path fill="black" d="M80 528 L106 528 L106 177 C106 63.6667 154 15 234 15 C324.667 15 389 81.6667 389 227 L389 528 L415 528 L415 0 L395 0 L392 112 L390 112 C371.08 52.5357 327.472 -10 233 -10 C131 -10 80 50.3333 80 171 L80 528 Z " /><g transform="translate(-26,0)" ><path fill="black" d="M156 765 L186 765 C218 715.667 270.333 657.667 313 615 L313 606 L294 606 C248.389 646.245 189.969 710.966 156 758 L156 765 Z " /></g></glyph>
<glyph glyph-name="uacute" unicode="&#xfa;" horiz-adv-x="530" >
<path fill="black" d="M80 528 L106 528 L106 177 C106 63.6667 154 15 234 15 C324.667 15 389 81.6667 389 227 L389 528 L415 528 L415 0 L395 0 L392 112 L390 112 C371.08 52.5357 327.472 -10 233 -10 C131 -10 80 50.3333 80 171 L80 528 Z " /><g transform="translate(-2,0)" ><path fill="black" d="M222 606 L222 615 C267.333 661.667 316.333 717 347 765 L377 765 L377 758 C342.881 710.758 286.412 646.952 240 606 L222 606 Z " /></g></glyph>
<glyph glyph-name="ucircumflex" unicode="&#xfb;" horiz-adv-x="530" >
<path fill="black" d="M80 528 L106 528 L106 177 C106 63.6667 154 15 234 15 C324.667 15 389 81.6667 389 227 L389 528 L415 528 L415 0 L395 0 L392 112 L390 112 C371.08 52.5357 327.472 -10 233 -10 C131 -10 80 50.3333 80 171 L80 528 Z " /><path fill="black" d="M135 606 L135 613 C164.081 650.013 213.206 720.699 237 763 L263 763 C287.545 719.365 340.288 643.203 365 613 L365 606 L347 606 C313.667 642 278 693.333 250 732 C223.333 694.667 185 640.667 153 606 L135 606 Z " /></glyph>
<glyph glyph-name="udieresis" unicode="&#xfc;" horiz-adv-x="530" >
<g transform="translate(0,-12)" ><path fill="black" d="M169 635 C150.333 635 143 651.333 143 670 C143 688.667 150.333 706 169 706 C189 706 197 688.667 197 670 C197 650 189 635 169 635 Z M329 635 C310.333 635 303 651.333 303 670 C303 688.667 310.333 706 329 706 C349 706 357 688.667 357 670 C357 650 349 635 329 635 Z " /></g><path fill="black" d="M80 528 L106 528 L106 177 C106 63.6667 154 15 234 15 C324.667 15 389 81.6667 389 227 L389 528 L415 528 L415 0 L395 0 L392 112 L390 112 C371.08 52.5357 327.472 -10 233 -10 C131 -10 80 50.3333 80 171 L80 528 Z " /></glyph>
<glyph glyph-name="yacute" unicode="&#xfd;" horiz-adv-x="530" >
<path fill="black" d="M65 -207 C79.6667 -213.667 94 -217 110 -217 C151.333 -217 183.667 -193.333 209 -112 L247 10 L75 528 L101 528 L224 156 C245.333 92 252.667 69.3333 258 48 L260 48 C269.333 82.6667 278.667 112.333 292 155 L409 528 L435 528 L236 -112 C208 -201.333 174 -243 110 -243 C94 -243 81 -240.667 65 -234 L65 -207 Z " /><g transform="translate(-2,0)" ><path fill="black" d="M222 606 L222 615 C267.333 661.667 316.333 717 347 765 L377 765 L377 758 C342.881 710.758 286.412 646.952 240 606 L222 606 Z " /></g></glyph>
<glyph glyph-name="thorn" unicode="&#xfe;" horiz-adv-x="530" d="M85 -240 L85 714 L111 714 L111 527 C111 485.667 109.667 444.333 107 403 L109 403 C130.229 471.995 172.578 537 265 537 C381.667 537 440 448 440 270 C440 82 371.333 -10 258 -10 C172.713 -10 128.007 50.6394 112 112 L109 112 C111.667 82.6667 111 48.3333 111 11 L111 -240 L85 -240 Z M111 241 C111 94.3333 171 15 259 15 C349.693 15 414 90.3377 414 270 C414 430 364 512 264 512 C165.359 512 111 419.13 111 279 L111 241 Z " />
<glyph glyph-name="ydieresis" unicode="&#xff;" horiz-adv-x="530" >
<g transform="translate(0,-12)" ><path fill="black" d="M169 635 C150.333 635 143 651.333 143 670 C143 688.667 150.333 706 169 706 C189 706 197 688.667 197 670 C197 650 189 635 169 635 Z M329 635 C310.333 635 303 651.333 303 670 C303 688.667 310.333 706 329 706 C349 706 357 688.667 357 670 C357 650 349 635 329 635 Z " /></g><path fill="black" d="M65 -207 C79.6667 -213.667 94 -217 110 -217 C151.333 -217 183.667 -193.333 209 -112 L247 10 L75 528 L101 528 L224 156 C245.333 92 252.667 69.3333 258 48 L260 48 C269.333 82.6667 278.667 112.333 292 155 L409 528 L435 528 L236 -112 C208 -201.333 174 -243 110 -243 C94 -243 81 -240.667 65 -234 L65 -207 Z " /></glyph>
<glyph glyph-name="Amacron" unicode="&#x100;" horiz-adv-x="530" >
<path fill="black" d="M234 715 L266 715 L480 0 L453 0 L372 276 L128 276 L47 0 L20 0 L234 715 Z M364 301 L275 603 C267 631 259.667 655.667 249 689 C241 658.333 233.333 633.667 224 603 L135 301 L364 301 Z " /><g transform="translate(0,187)" ><path fill="black" d="M136 640 L364 640 L364 616 L136 616 L136 640 Z " /></g></glyph>
<glyph glyph-name="amacron" unicode="&#x101;" horiz-adv-x="530" >
<path fill="black" d="M376 98 L374 98 C355.256 41.7678 311.609 -10 220 -10 C125.333 -10 80 51.6667 80 129 C80 234.333 157.333 284.333 292 295 L374 302 L374 349 C374 469 338 512 258 512 C219.333 512 178.667 503.333 132 478 L122 502 C164.667 524.667 211.333 537 258 537 C354 537 400 486 400 354 L400 0 L378 0 L376 98 Z M374 278 L292 272 C174.667 262.667 107 221 107 129 C107 55.6667 148 14 220 14 C328.416 14 374 97.2814 374 220 L374 278 Z " /><g transform="translate(4,1)" ><path fill="black" d="M136 640 L364 640 L364 616 L136 616 L136 640 Z " /></g></glyph>
<glyph glyph-name="Abreve" unicode="&#x102;" horiz-adv-x="530" >
<path fill="black" d="M234 715 L266 715 L480 0 L453 0 L372 276 L128 276 L47 0 L20 0 L234 715 Z M364 301 L275 603 C267 631 259.667 655.667 249 689 C241 658.333 233.333 633.667 224 603 L135 301 L364 301 Z " /><g transform="translate(0,186)" ><path fill="black" d="M163 716 C167 665.333 195.333 632 250 632 C306 632 333 665.333 337 716 L361 716 C355.667 648 315.333 608 250 608 C186 608 143 644 139 716 L163 716 Z " /></g></glyph>
<glyph glyph-name="abreve" unicode="&#x103;" horiz-adv-x="530" >
<path fill="black" d="M376 98 L374 98 C355.256 41.7678 311.609 -10 220 -10 C125.333 -10 80 51.6667 80 129 C80 234.333 157.333 284.333 292 295 L374 302 L374 349 C374 469 338 512 258 512 C219.333 512 178.667 503.333 132 478 L122 502 C164.667 524.667 211.333 537 258 537 C354 537 400 486 400 354 L400 0 L378 0 L376 98 Z M374 278 L292 272 C174.667 262.667 107 221 107 129 C107 55.6667 148 14 220 14 C328.416 14 374 97.2814 374 220 L374 278 Z " /><g transform="translate(4,0)" ><path fill="black" d="M163 716 C167 665.333 195.333 632 250 632 C306 632 333 665.333 337 716 L361 716 C355.667 648 315.333 608 250 608 C186 608 143 644 139 716 L163 716 Z " /></g></glyph>
<glyph glyph-name="Aogonek" unicode="&#x104;" horiz-adv-x="530" d="M234 715 L266 715 L480 0 C430.667 -42.6667 396 -83 396 -135 C396 -173.667 413.667 -193 449 -193 C462.333 -193 480 -189.667 488 -187 L488 -210 C477.333 -214.667 464 -217 448 -217 C401.333 -217 369 -190 369 -138 C369 -90 396.667 -43 452 3 L372 276 L128 276 L47 0 L20 0 L234 715 Z M364 301 L275 603 C267 631 259.667 655.667 249 689 C241 658.333 233.333 633.667 224 603 L135 301 L364 301 Z " />
<glyph glyph-name="aogonek" unicode="&#x105;" horiz-adv-x="530" d="M408 -210 C397.333 -214.667 384 -217 368 -217 C321.333 -217 289 -190 289 -138 C289 -88.6667 318.667 -40.3333 378 7 L376 98 L374 98 C355.256 41.7678 311.609 -10 220 -10 C125.333 -10 80 51.6667 80 129 C80 234.333 157.333 284.333 292 295 L374 302 L374 349 C374 469 338 512 258 512 C219.333 512 178.667 503.333 132 478 L122 502 C164.667 524.667 211.333 537 258 537 C354 537 400 486 400 354 L400 0 C350.667 -42.6667 316 -83 316 -135 C316 -173.667 333.667 -193 369 -193 C382.333 -193 400 -189.667 408 -187 L408 -210 Z M374 278 L292 272 C174.667 262.667 107 221 107 129 C107 55.6667 148 14 220 14 C328.416 14 374 97.2814 374 220 L374 278 Z " />
<glyph glyph-name="Cacute" unicode="&#x106;" horiz-adv-x="530" >
<path fill="black" d="M460 17 C425.333 2.33333 376.667 -10 318 -10 C154.234 -10 59 135.13 59 359 C59 557.9 146.281 724 325 724 C377 724 424.333 713.333 467 692 L456 669 C410.667 694.333 366.333 699 325 699 C164.108 699 86 542.03 86 359 C86 153.563 167.697 15 318 15 C379.333 15 425.333 29.3333 460 44 L460 17 Z " /><g transform="translate(58,186)" ><path fill="black" d="M222 606 L222 615 C267.333 661.667 316.333 717 347 765 L377 765 L377 758 C342.881 710.758 286.412 646.952 240 606 L222 606 Z " /></g></glyph>
<glyph glyph-name="cacute" unicode="&#x107;" horiz-adv-x="530" >
<path fill="black" d="M417 11 C390.333 -1 344.333 -10 299 -10 C157.667 -10 95 99.026 95 259 C95 431.39 176.996 538 312 538 C355.333 538 391.333 531 420 517 L412 493 C382.667 507.667 346.333 513 313 513 C194.333 513 122 419 122 259 C122 120.437 174.152 15 301 15 C339.667 15 385 22.3333 417 37 L417 11 Z " /><g transform="translate(36,0)" ><path fill="black" d="M222 606 L222 615 C267.333 661.667 316.333 717 347 765 L377 765 L377 758 C342.881 710.758 286.412 646.952 240 606 L222 606 Z " /></g></glyph>
<glyph glyph-name="Ccircumflex" unicode="&#x108;" horiz-adv-x="530" >
<path fill="black" d="M460 17 C425.333 2.33333 376.667 -10 318 -10 C154.234 -10 59 135.13 59 359 C59 557.9 146.281 724 325 724 C377 724 424.333 713.333 467 692 L456 669 C410.667 694.333 366.333 699 325 699 C164.108 699 86 542.03 86 359 C86 153.563 167.697 15 318 15 C379.333 15 425.333 29.3333 460 44 L460 17 Z " /><g transform="translate(60,186)" ><path fill="black" d="M135 606 L135 613 C164.081 650.013 213.206 720.699 237 763 L263 763 C287.545 719.365 340.288 643.203 365 613 L365 606 L347 606 C313.667 642 278 693.333 250 732 C223.333 694.667 185 640.667 153 606 L135 606 Z " /></g></glyph>
<glyph glyph-name="ccircumflex" unicode="&#x109;" horiz-adv-x="530" >
<path fill="black" d="M417 11 C390.333 -1 344.333 -10 299 -10 C157.667 -10 95 99.026 95 259 C95 431.39 176.996 538 312 538 C355.333 538 391.333 531 420 517 L412 493 C382.667 507.667 346.333 513 313 513 C194.333 513 122 419 122 259 C122 120.437 174.152 15 301 15 C339.667 15 385 22.3333 417 37 L417 11 Z " /><g transform="translate(38,0)" ><path fill="black" d="M135 606 L135 613 C164.081 650.013 213.206 720.699 237 763 L263 763 C287.545 719.365 340.288 643.203 365 613 L365 606 L347 606 C313.667 642 278 693.333 250 732 C223.333 694.667 185 640.667 153 606 L135 606 Z " /></g></glyph>
<glyph glyph-name="Cdotaccent" unicode="&#x10a;" horiz-adv-x="530" >
<path fill="black" d="M460 17 C425.333 2.33333 376.667 -10 318 -10 C154.234 -10 59 135.13 59 359 C59 557.9 146.281 724 325 724 C377 724 424.333 713.333 467 692 L456 669 C410.667 694.333 366.333 699 325 699 C164.108 699 86 542.03 86 359 C86 153.563 167.697 15 318 15 C379.333 15 425.333 29.3333 460 44 L460 17 Z " /><g transform="translate(60,187)" ><path fill="black" d="M251 660 C225.667 660 219 677 219 697 C219 715.667 224.333 734 251 734 C275 734 281 715.667 281 697 C281 678.333 277.667 660 251 660 Z " /></g></glyph>
<glyph glyph-name="cdotaccent" unicode="&#x10b;" horiz-adv-x="530" >
<path fill="black" d="M417 11 C390.333 -1 344.333 -10 299 -10 C157.667 -10 95 99.026 95 259 C95 431.39 176.996 538 312 538 C355.333 538 391.333 531 420 517 L412 493 C382.667 507.667 346.333 513 313 513 C194.333 513 122 419 122 259 C122 120.437 174.152 15 301 15 C339.667 15 385 22.3333 417 37 L417 11 Z " /><g transform="translate(38,1)" ><path fill="black" d="M251 660 C225.667 660 219 677 219 697 C219 715.667 224.333 734 251 734 C275 734 281 715.667 281 697 C281 678.333 277.667 660 251 660 Z " /></g></glyph>
<glyph glyph-name="Ccaron" unicode="&#x10c;" horiz-adv-x="530" >
<path fill="black" d="M460 17 C425.333 2.33333 376.667 -10 318 -10 C154.234 -10 59 135.13 59 359 C59 557.9 146.281 724 325 724 C377 724 424.333 713.333 467 692 L456 669 C410.667 694.333 366.333 699 325 699 C164.108 699 86 542.03 86 359 C86 153.563 167.697 15 318 15 C379.333 15 425.333 29.3333 460 44 L460 17 Z " /><g transform="translate(60,186)" ><path fill="black" d="M238 606 C211.022 651.863 166.73 721.865 137 757 L137 763 L155 763 C187 728.333 222.333 679.333 249 638 C276.333 680 308.333 721.667 345 763 L363 763 L363 757 C331.445 714.926 284.651 650.674 261 606 L238 606 Z " /></g></glyph>
<glyph glyph-name="ccaron" unicode="&#x10d;" horiz-adv-x="530" >
<path fill="black" d="M417 11 C390.333 -1 344.333 -10 299 -10 C157.667 -10 95 99.026 95 259 C95 431.39 176.996 538 312 538 C355.333 538 391.333 531 420 517 L412 493 C382.667 507.667 346.333 513 313 513 C194.333 513 122 419 122 259 C122 120.437 174.152 15 301 15 C339.667 15 385 22.3333 417 37 L417 11 Z " /><g transform="translate(38,0)" ><path fill="black" d="M238 606 C211.022 651.863 166.73 721.865 137 757 L137 763 L155 763 C187 728.333 222.333 679.333 249 638 C276.333 680 308.333 721.667 345 763 L363 763 L363 757 C331.445 714.926 284.651 650.674 261 606 L238 606 Z " /></g></glyph>
<glyph glyph-name="Dcaron" unicode="&#x10e;" horiz-adv-x="530" >
<path fill="black" d="M65 0 L65 714 L190 714 C371.333 714 450 596.667 450 362 C450 122 371.667 0 189 0 L65 0 Z M91 25 L184 25 C353.333 25 423 140 423 360 C423 569.048 361.052 689 185 689 L91 689 L91 25 Z " /><g transform="translate(-17,186)" ><path fill="black" d="M238 606 C211.022 651.863 166.73 721.865 137 757 L137 763 L155 763 C187 728.333 222.333 679.333 249 638 C276.333 680 308.333 721.667 345 763 L363 763 L363 757 C331.445 714.926 284.651 650.674 261 606 L238 606 Z " /></g></glyph>
<glyph glyph-name="dcaron" unicode="&#x10f;" horiz-adv-x="530" d="M351 110 L349 110 C330.281 43.1463 290.122 -10 211 -10 C103 -10 50 81.6667 50 255 C50 440.333 111 538 215 538 C293.643 538 333.302 482.176 349 422 L351 422 C349.667 456.667 349 488 349 520 L349 760 L375 760 L375 0 L354 0 L351 110 Z M349 291 C349 428.333 307.333 513 218 513 C127.333 513 77 428.333 77 255 C77 97.6667 118.333 15 213 15 C309 15 349 102 349 242 L349 291 Z M437 598 L437 608 C446.931 630.344 470.37 725.807 473 760 L504 760 L504 752 C493.358 709.431 475.41 637.017 452 598 L437 598 Z " />
<glyph glyph-name="Dcroat" unicode="&#x110;" horiz-adv-x="530" >
<path fill="black" d="M74 353 L0 353 L0 378 L74 378 L74 714 L199 714 C380.333 714 459 596.667 459 362 C459 122 380.667 0 198 0 L74 0 L74 353 Z M193 25 C362.333 25 432 140 432 360 C432 569.048 370.052 689 194 689 L100 689 L100 378 L258 378 L258 353 L100 353 L100 25 L193 25 Z " /></glyph>
<glyph glyph-name="dcroat" unicode="&#x111;" horiz-adv-x="530" d="M391 110 L389 110 C370.388 48.8466 326.235 -10 232 -10 C114.667 -10 60 81.6667 60 255 C60 440.333 123.333 538 238 538 C324.615 538 373.305 482.164 389 422 L391 422 C389.667 456.667 389 488 389 520 L389 632 L205 632 L205 657 L389 657 L389 760 L415 760 L415 657 L500 657 L500 632 L415 632 L415 0 L394 0 L391 110 Z M233 15 C343.667 15 389 102 389 242 L389 291 C389 429.667 339 513 239 513 C139 513 87 427 87 255 C87 97.6667 131.667 15 233 15 Z " />
<glyph glyph-name="Emacron" unicode="&#x112;" horiz-adv-x="530" >
<path fill="black" d="M405 25 L405 0 L95 0 L95 714 L405 714 L405 689 L121 689 L121 389 L388 389 L388 364 L121 364 L121 25 L405 25 Z " /><g transform="translate(-3,187)" ><path fill="black" d="M136 640 L364 640 L364 616 L136 616 L136 640 Z " /></g></glyph>
<glyph glyph-name="emacron" unicode="&#x113;" horiz-adv-x="530" >
<path fill="black" d="M419 23 C380.333 1.66667 336 -10 280 -10 C136.078 -10 73 99.4372 73 262 C73 419.333 134.074 538 261 538 C389 538 437 426.719 437 296 L437 270 L100 270 C100 100.667 162.667 15 280 15 C332 15 372.333 24.3333 419 51 L419 23 Z M261 513 C169 513 110.333 439.333 101 294 L411 294 C411 419.255 365.918 513 261 513 Z " /><g transform="translate(10,1)" ><path fill="black" d="M136 640 L364 640 L364 616 L136 616 L136 640 Z " /></g></glyph>
<glyph glyph-name="Ebreve" unicode="&#x114;" horiz-adv-x="530" >
<path fill="black" d="M405 25 L405 0 L95 0 L95 714 L405 714 L405 689 L121 689 L121 389 L388 389 L388 364 L121 364 L121 25 L405 25 Z " /><g transform="translate(-3,186)" ><path fill="black" d="M163 716 C167 665.333 195.333 632 250 632 C306 632 333 665.333 337 716 L361 716 C355.667 648 315.333 608 250 608 C186 608 143 644 139 716 L163 716 Z " /></g></glyph>
<glyph glyph-name="ebreve" unicode="&#x115;" horiz-adv-x="530" >
<path fill="black" d="M419 23 C380.333 1.66667 336 -10 280 -10 C136.078 -10 73 99.4372 73 262 C73 419.333 134.074 538 261 538 C389 538 437 426.719 437 296 L437 270 L100 270 C100 100.667 162.667 15 280 15 C332 15 372.333 24.3333 419 51 L419 23 Z M261 513 C169 513 110.333 439.333 101 294 L411 294 C411 419.255 365.918 513 261 513 Z " /><g transform="translate(10,0)" ><path fill="black" d="M163 716 C167 665.333 195.333 632 250 632 C306 632 333 665.333 337 716 L361 716 C355.667 648 315.333 608 250 608 C186 608 143 644 139 716 L163 716 Z " /></g></glyph>
<glyph glyph-name="Edotaccent" unicode="&#x116;" horiz-adv-x="530" >
<path fill="black" d="M405 25 L405 0 L95 0 L95 714 L405 714 L405 689 L121 689 L121 389 L388 389 L388 364 L121 364 L121 25 L405 25 Z " /><g transform="translate(-3,187)" ><path fill="black" d="M251 660 C225.667 660 219 677 219 697 C219 715.667 224.333 734 251 734 C275 734 281 715.667 281 697 C281 678.333 277.667 660 251 660 Z " /></g></glyph>
<glyph glyph-name="edotaccent" unicode="&#x117;" horiz-adv-x="530" >
<path fill="black" d="M419 23 C380.333 1.66667 336 -10 280 -10 C136.078 -10 73 99.4372 73 262 C73 419.333 134.074 538 261 538 C389 538 437 426.719 437 296 L437 270 L100 270 C100 100.667 162.667 15 280 15 C332 15 372.333 24.3333 419 51 L419 23 Z M261 513 C169 513 110.333 439.333 101 294 L411 294 C411 419.255 365.918 513 261 513 Z " /><g transform="translate(10,1)" ><path fill="black" d="M251 660 C225.667 660 219 677 219 697 C219 715.667 224.333 734 251 734 C275 734 281 715.667 281 697 C281 678.333 277.667 660 251 660 Z " /></g></glyph>
<glyph glyph-name="Eogonek" unicode="&#x118;" horiz-adv-x="530" d="M95 714 L405 714 L405 689 L121 689 L121 389 L388 389 L388 364 L121 364 L121 25 L405 25 L405 0 L381 0 C331.667 -42.6667 297 -83 297 -135 C297 -173.667 314.667 -193 350 -193 C363.333 -193 381 -189.667 389 -187 L389 -210 C378.333 -214.667 365 -217 349 -217 C302.333 -217 270 -190 270 -138 C270 -91.3333 296.667 -45.3333 350 0 L95 0 L95 714 Z " />
<glyph glyph-name="eogonek" unicode="&#x119;" horiz-adv-x="530" d="M406 -209 C395.333 -213 375.667 -217 357 -217 C310.333 -217 274 -192 274 -132 C274 -81.3333 306.333 -40.6667 353 -2 C329.667 -7.33333 305.333 -10 280 -10 C136.078 -10 73 99.4372 73 262 C73 419.333 134.074 538 261 538 C389 538 437 426.719 437 296 L437 270 L100 270 C100 100.667 162.667 15 280 15 C332 15 372.333 24.3333 419 51 L419 23 C361.396 -16.2755 300 -66.0703 300 -132 C300 -170.667 318.333 -192 361 -192 C375.667 -192 395.333 -189 406 -185 L406 -209 Z M261 513 C169 513 110.333 439.333 101 294 L411 294 C411 419.255 365.918 513 261 513 Z " />
<glyph glyph-name="Ecaron" unicode="&#x11a;" horiz-adv-x="530" >
<path fill="black" d="M405 25 L405 0 L95 0 L95 714 L405 714 L405 689 L121 689 L121 389 L388 389 L388 364 L121 364 L121 25 L405 25 Z " /><g transform="translate(-3,186)" ><path fill="black" d="M238 606 C211.022 651.863 166.73 721.865 137 757 L137 763 L155 763 C187 728.333 222.333 679.333 249 638 C276.333 680 308.333 721.667 345 763 L363 763 L363 757 C331.445 714.926 284.651 650.674 261 606 L238 606 Z " /></g></glyph>
<glyph glyph-name="ecaron" unicode="&#x11b;" horiz-adv-x="530" >
<path fill="black" d="M419 23 C380.333 1.66667 336 -10 280 -10 C136.078 -10 73 99.4372 73 262 C73 419.333 134.074 538 261 538 C389 538 437 426.719 437 296 L437 270 L100 270 C100 100.667 162.667 15 280 15 C332 15 372.333 24.3333 419 51 L419 23 Z M261 513 C169 513 110.333 439.333 101 294 L411 294 C411 419.255 365.918 513 261 513 Z " /><g transform="translate(10,0)" ><path fill="black" d="M238 606 C211.022 651.863 166.73 721.865 137 757 L137 763 L155 763 C187 728.333 222.333 679.333 249 638 C276.333 680 308.333 721.667 345 763 L363 763 L363 757 C331.445 714.926 284.651 650.674 261 606 L238 606 Z " /></g></glyph>
<glyph glyph-name="Gcircumflex" unicode="&#x11c;" horiz-adv-x="530" >
<path fill="black" d="M410 326 L272 326 L272 351 L435 351 L435 24 C403 1.33333 347 -10 295 -10 C119.026 -10 50 140.926 50 358 C50 574.156 118.922 724 287 724 C328.333 724 379.333 715.667 418 681 L405 661 C369 691.667 327.333 699 290 699 C131.126 699 76 555.671 76 362 C76 156.537 137.026 15 297 15 C345 15 390 26.6667 410 40 L410 326 Z " /><g transform="translate(15,186)" ><path fill="black" d="M135 606 L135 613 C164.081 650.013 213.206 720.699 237 763 L263 763 C287.545 719.365 340.288 643.203 365 613 L365 606 L347 606 C313.667 642 278 693.333 250 732 C223.333 694.667 185 640.667 153 606 L135 606 Z " /></g></glyph>
<glyph glyph-name="gcircumflex" unicode="&#x11d;" horiz-adv-x="530" >
<path fill="black" d="M75 -179 C113.667 -201.667 157.333 -216 216 -216 C337.333 -216 389 -151.333 389 -30 L389 15 C389 49.6667 389.333 74 392 114 L389 114 C371.667 42 317 -10 233 -10 C122.333 -10 60 76.3333 60 259 C60 432.333 118.667 538 244 538 C327.493 538 366.718 492.204 388 439 L390 439 L394 528 L415 528 L415 -30 C415 -163.333 357.667 -241 215 -241 C156.333 -241 113.667 -228 75 -208 L75 -179 Z M389 312 C389 423.108 350.537 513 244 513 C131.948 513 86 414.39 86 258 C86 96 135.667 15 235 15 C354.082 15 389 130.078 389 234 L389 312 Z " /><path fill="black" d="M135 606 L135 613 C164.081 650.013 213.206 720.699 237 763 L263 763 C287.545 719.365 340.288 643.203 365 613 L365 606 L347 606 C313.667 642 278 693.333 250 732 C223.333 694.667 185 640.667 153 606 L135 606 Z " /></glyph>
<glyph glyph-name="Gbreve" unicode="&#x11e;" horiz-adv-x="530" >
<path fill="black" d="M410 326 L272 326 L272 351 L435 351 L435 24 C403 1.33333 347 -10 295 -10 C119.026 -10 50 140.926 50 358 C50 574.156 118.922 724 287 724 C328.333 724 379.333 715.667 418 681 L405 661 C369 691.667 327.333 699 290 699 C131.126 699 76 555.671 76 362 C76 156.537 137.026 15 297 15 C345 15 390 26.6667 410 40 L410 326 Z " /><g transform="translate(15,186)" ><path fill="black" d="M163 716 C167 665.333 195.333 632 250 632 C306 632 333 665.333 337 716 L361 716 C355.667 648 315.333 608 250 608 C186 608 143 644 139 716 L163 716 Z " /></g></glyph>
<glyph glyph-name="gbreve" unicode="&#x11f;" horiz-adv-x="530" >
<path fill="black" d="M75 -179 C113.667 -201.667 157.333 -216 216 -216 C337.333 -216 389 -151.333 389 -30 L389 15 C389 49.6667 389.333 74 392 114 L389 114 C371.667 42 317 -10 233 -10 C122.333 -10 60 76.3333 60 259 C60 432.333 118.667 538 244 538 C327.493 538 366.718 492.204 388 439 L390 439 L394 528 L415 528 L415 -30 C415 -163.333 357.667 -241 215 -241 C156.333 -241 113.667 -228 75 -208 L75 -179 Z M389 312 C389 423.108 350.537 513 244 513 C131.948 513 86 414.39 86 258 C86 96 135.667 15 235 15 C354.082 15 389 130.078 389 234 L389 312 Z " /><path fill="black" d="M163 716 C167 665.333 195.333 632 250 632 C306 632 333 665.333 337 716 L361 716 C355.667 648 315.333 608 250 608 C186 608 143 644 139 716 L163 716 Z " /></glyph>
<glyph glyph-name="Gdotaccent" unicode="&#x120;" horiz-adv-x="530" >
<path fill="black" d="M410 326 L272 326 L272 351 L435 351 L435 24 C403 1.33333 347 -10 295 -10 C119.026 -10 50 140.926 50 358 C50 574.156 118.922 724 287 724 C328.333 724 379.333 715.667 418 681 L405 661 C369 691.667 327.333 699 290 699 C131.126 699 76 555.671 76 362 C76 156.537 137.026 15 297 15 C345 15 390 26.6667 410 40 L410 326 Z " /><g transform="translate(15,187)" ><path fill="black" d="M251 660 C225.667 660 219 677 219 697 C219 715.667 224.333 734 251 734 C275 734 281 715.667 281 697 C281 678.333 277.667 660 251 660 Z " /></g></glyph>
<glyph glyph-name="gdotaccent" unicode="&#x121;" horiz-adv-x="530" >
<path fill="black" d="M75 -179 C113.667 -201.667 157.333 -216 216 -216 C337.333 -216 389 -151.333 389 -30 L389 15 C389 49.6667 389.333 74 392 114 L389 114 C371.667 42 317 -10 233 -10 C122.333 -10 60 76.3333 60 259 C60 432.333 118.667 538 244 538 C327.493 538 366.718 492.204 388 439 L390 439 L394 528 L415 528 L415 -30 C415 -163.333 357.667 -241 215 -241 C156.333 -241 113.667 -228 75 -208 L75 -179 Z M389 312 C389 423.108 350.537 513 244 513 C131.948 513 86 414.39 86 258 C86 96 135.667 15 235 15 C354.082 15 389 130.078 389 234 L389 312 Z " /><g transform="translate(0,1)" ><path fill="black" d="M251 660 C225.667 660 219 677 219 697 C219 715.667 224.333 734 251 734 C275 734 281 715.667 281 697 C281 678.333 277.667 660 251 660 Z " /></g></glyph>
<glyph glyph-name="uni0122" unicode="&#x122;" horiz-adv-x="530" >
<path fill="black" d="M410 326 L272 326 L272 351 L435 351 L435 24 C403 1.33333 347 -10 295 -10 C119.026 -10 50 140.926 50 358 C50 574.156 118.922 724 287 724 C328.333 724 379.333 715.667 418 681 L405 661 C369 691.667 327.333 699 290 699 C131.126 699 76 555.671 76 362 C76 156.537 137.026 15 297 15 C345 15 390 26.6667 410 40 L410 326 Z " /><g transform="translate(810,0)" ><path fill="black" d="M-588 -221 L-588 -213 C-572.216 -181.431 -549.184 -102.473 -544 -61 L-514 -61 L-514 -69 C-526 -118.333 -546.333 -174.333 -573 -221 L-588 -221 Z " /></g></glyph>
<glyph glyph-name="uni0123" unicode="&#x123;" horiz-adv-x="530" d="M75 -179 C113.667 -201.667 157.333 -216 216 -216 C337.333 -216 389 -151.333 389 -30 L389 15 C389 49.6667 389.333 74 392 114 L389 114 C371.667 42 317 -10 233 -10 C122.333 -10 60 76.3333 60 259 C60 432.333 118.667 538 244 538 C327.493 538 366.718 492.204 388 439 L390 439 L394 528 L415 528 L415 -30 C415 -163.333 357.667 -241 215 -241 C156.333 -241 113.667 -228 75 -208 L75 -179 Z M389 312 C389 423.108 350.537 513 244 513 C131.948 513 86 414.39 86 258 C86 96 135.667 15 235 15 C354.082 15 389 130.078 389 234 L389 312 Z M233 605 L233 613 C245 662.333 265.333 718.333 292 765 L307 765 L307 757 C291.532 726.064 268.221 644.157 263 605 L233 605 Z " />
<glyph glyph-name="Hcircumflex" unicode="&#x124;" horiz-adv-x="530" >
<path fill="black" d="M65 0 L65 714 L91 714 L91 388 L409 388 L409 714 L435 714 L435 0 L409 0 L409 363 L91 363 L91 0 L65 0 Z " /><g transform="translate(0,186)" ><path fill="black" d="M135 606 L135 613 C164.081 650.013 213.206 720.699 237 763 L263 763 C287.545 719.365 340.288 643.203 365 613 L365 606 L347 606 C313.667 642 278 693.333 250 732 C223.333 694.667 185 640.667 153 606 L135 606 Z " /></g></glyph>
<glyph glyph-name="hcircumflex" unicode="&#x125;" horiz-adv-x="530" >
<path fill="black" d="M85 0 L85 760 L111 760 L111 494 C111 463.333 110.333 446.333 109 421 L111 421 C129.696 477.088 176.051 538 271 538 C367 538 420 480 420 356 L420 0 L394 0 L394 353 C394 467.667 346 513 270 513 C179.411 513 111 446.537 111 300 L111 0 L85 0 Z " /><g transform="translate(-154,232)" ><path fill="black" d="M135 606 L135 613 C164.081 650.013 213.206 720.699 237 763 L263 763 C287.545 719.365 340.288 643.203 365 613 L365 606 L347 606 C313.667 642 278 693.333 250 732 C223.333 694.667 185 640.667 153 606 L135 606 Z " /></g></glyph>
<glyph glyph-name="Hbar" unicode="&#x126;" horiz-adv-x="530" d="M65 548 L0 548 L0 573 L65 573 L65 714 L91 714 L91 573 L409 573 L409 714 L435 714 L435 573 L500 573 L500 548 L435 548 L435 0 L409 0 L409 363 L91 363 L91 0 L65 0 L65 548 Z M409 388 L409 548 L91 548 L91 388 L409 388 Z " />
<glyph glyph-name="hbar" unicode="&#x127;" horiz-adv-x="530" d="M85 632 L0 632 L0 657 L85 657 L85 760 L111 760 L111 657 L295 657 L295 632 L111 632 L111 494 C111 463.333 110.333 446.333 109 421 L111 421 C129.696 477.088 176.051 538 271 538 C367 538 420 480 420 356 L420 0 L394 0 L394 353 C394 467.667 346 513 270 513 C179.411 513 111 446.537 111 300 L111 0 L85 0 L85 632 Z " />
<glyph glyph-name="Itilde" unicode="&#x128;" horiz-adv-x="530" >
<path fill="black" d="M120 20 L237 23 L237 690 L120 694 L120 714 L380 714 L380 694 L263 690 L263 23 L380 20 L380 0 L120 0 L120 20 Z " /><g transform="translate(1,186)" ><path fill="black" d="M103 625 C108.333 689 139.333 718 182 718 C242.569 718 265.569 648 315 648 C343 648 366.667 667.333 372 718 L395 718 C392.333 654 357.667 624 315 624 C252.895 624 231.34 694 181 694 C155.667 694 131 677 127 625 L103 625 Z " /></g></glyph>
<glyph glyph-name="itilde" unicode="&#x129;" horiz-adv-x="500" >
<path fill="black" d="M82 21 L249 25 L249 503 L100 507 L100 528 L275 528 L275 25 L432 21 L432 0 L82 0 L82 21 Z " /><g transform="translate(1,0)" ><path fill="black" d="M103 625 C108.333 689 139.333 718 182 718 C242.569 718 265.569 648 315 648 C343 648 366.667 667.333 372 718 L395 718 C392.333 654 357.667 624 315 624 C252.895 624 231.34 694 181 694 C155.667 694 131 677 127 625 L103 625 Z " /></g></glyph>
<glyph glyph-name="Imacron" unicode="&#x12a;" horiz-adv-x="530" >
<path fill="black" d="M120 20 L237 23 L237 690 L120 694 L120 714 L380 714 L380 694 L263 690 L263 23 L380 20 L380 0 L120 0 L120 20 Z " /><g transform="translate(0,187)" ><path fill="black" d="M136 640 L364 640 L364 616 L136 616 L136 640 Z " /></g></glyph>
<glyph glyph-name="imacron" unicode="&#x12b;" horiz-adv-x="500" >
<path fill="black" d="M82 21 L249 25 L249 503 L100 507 L100 528 L275 528 L275 25 L432 21 L432 0 L82 0 L82 21 Z " /><g transform="translate(0,1)" ><path fill="black" d="M136 640 L364 640 L364 616 L136 616 L136 640 Z " /></g></glyph>
<glyph glyph-name="Ibreve" unicode="&#x12c;" horiz-adv-x="530" >
<path fill="black" d="M120 20 L237 23 L237 690 L120 694 L120 714 L380 714 L380 694 L263 690 L263 23 L380 20 L380 0 L120 0 L120 20 Z " /><g transform="translate(0,186)" ><path fill="black" d="M163 716 C167 665.333 195.333 632 250 632 C306 632 333 665.333 337 716 L361 716 C355.667 648 315.333 608 250 608 C186 608 143 644 139 716 L163 716 Z " /></g></glyph>
<glyph glyph-name="ibreve" unicode="&#x12d;" horiz-adv-x="500" >
<path fill="black" d="M82 21 L249 25 L249 503 L100 507 L100 528 L275 528 L275 25 L432 21 L432 0 L82 0 L82 21 Z " /><path fill="black" d="M163 716 C167 665.333 195.333 632 250 632 C306 632 333 665.333 337 716 L361 716 C355.667 648 315.333 608 250 608 C186 608 143 644 139 716 L163 716 Z " /></glyph>
<glyph glyph-name="Iogonek" unicode="&#x12e;" horiz-adv-x="530" d="M120 20 L237 23 L237 690 L120 694 L120 714 L380 714 L380 694 L263 690 L263 23 L380 20 L380 0 L333 0 C283.667 -42.6667 249 -83 249 -135 C249 -173.667 266.667 -193 302 -193 C315.333 -193 333 -189.667 341 -187 L341 -210 C330.333 -214.667 317 -217 301 -217 C254.333 -217 222 -190 222 -138 C222 -91.3333 248.667 -45.3333 302 0 L120 0 L120 20 Z " />
<glyph glyph-name="iogonek" unicode="&#x12f;" horiz-adv-x="530" d="M82 21 L249 25 L249 503 L100 507 L100 528 L275 528 L275 25 L432 21 L432 0 L351 0 C301.667 -42.6667 267 -83 267 -135 C267 -173.667 284.667 -193 320 -193 C333.333 -193 351 -189.667 359 -187 L359 -210 C348.333 -214.667 335 -217 319 -217 C272.333 -217 240 -190 240 -138 C240 -91.3333 266.667 -45.3333 320 0 L82 0 L82 21 Z M259 660 C233.667 660 227 677 227 697 C227 715.667 232.333 734 259 734 C283 734 289 715.667 289 697 C289 678.333 285.667 660 259 660 Z " />
<glyph glyph-name="Idotaccent" unicode="&#x130;" horiz-adv-x="530" >
<path fill="black" d="M120 20 L237 23 L237 690 L120 694 L120 714 L380 714 L380 694 L263 690 L263 23 L380 20 L380 0 L120 0 L120 20 Z " /><g transform="translate(0,187)" ><path fill="black" d="M251 660 C225.667 660 219 677 219 697 C219 715.667 224.333 734 251 734 C275 734 281 715.667 281 697 C281 678.333 277.667 660 251 660 Z " /></g></glyph>
<glyph glyph-name="dotlessi" unicode="&#x131;" horiz-adv-x="500" d="M82 21 L249 25 L249 503 L100 507 L100 528 L275 528 L275 25 L432 21 L432 0 L82 0 L82 21 Z " />
<glyph glyph-name="IJ" unicode="&#x132;" horiz-adv-x="530" d="M110 55 C130 36.3333 179.333 9 234 9 C323.333 9 354 66.6667 354 184 L354 714 L380 714 L380 176 C380 57.3333 343.667 -15 233 -15 C182.333 -15 135.333 4.33333 110 27 L110 55 Z M110 147 L110 714 L136 714 L136 147 L110 147 Z " />
<glyph glyph-name="ij" unicode="&#x133;" horiz-adv-x="530" d="M122 -201 C141.573 -209.388 197.92 -222 236 -222 C314.667 -222 352 -169 352 -81 L352 528 L378 528 L378 -88 C378 -196 321.333 -248 236 -248 C188.88 -248 137.191 -233.064 122 -228 L122 -201 Z M122 0 L122 528 L148 528 L148 0 L122 0 Z M137 650 C111.667 650 105 667 105 687 C105 705.667 110.333 724 137 724 C161 724 167 705.667 167 687 C167 668.333 163.667 650 137 650 Z M365 650 C339.667 650 333 667 333 687 C333 705.667 338.333 724 365 724 C389 724 395 705.667 395 687 C395 668.333 391.667 650 365 650 Z " />
<glyph glyph-name="Jcircumflex" unicode="&#x134;" horiz-adv-x="530" >
<path fill="black" d="M60 48 C98.6667 26.6667 143.667 10 201 10 C301 10 334 70.6667 334 204 L334 714 L360 714 L360 196 C360 58.6667 321 -15 201 -15 C149 -15 102.667 -1 60 19 L60 48 Z " /><g transform="translate(98,186)" ><path fill="black" d="M135 606 L135 613 C164.081 650.013 213.206 720.699 237 763 L263 763 C287.545 719.365 340.288 643.203 365 613 L365 606 L347 606 C313.667 642 278 693.333 250 732 C223.333 694.667 185 640.667 153 606 L135 606 Z " /></g></glyph>
<glyph glyph-name="jcircumflex" unicode="&#x135;" horiz-adv-x="500" >
<path fill="black" d="M50 -201 C69.5731 -209.388 125.92 -222 164 -222 C242.667 -222 280 -169 280 -81 L280 503 L111 507 L111 528 L306 528 L306 -88 C306 -196 249.333 -248 164 -248 C116.88 -248 65.1906 -233.064 50 -228 L50 -201 Z " /><g transform="translate(40,0)" ><path fill="black" d="M135 606 L135 613 C164.081 650.013 213.206 720.699 237 763 L263 763 C287.545 719.365 340.288 643.203 365 613 L365 606 L347 606 C313.667 642 278 693.333 250 732 C223.333 694.667 185 640.667 153 606 L135 606 Z " /></g></glyph>
<glyph glyph-name="uni0136" unicode="&#x136;" horiz-adv-x="530" >
<path fill="black" d="M65 0 L65 714 L91 714 L91 321 C112.333 346.333 126.333 363 153 395 L407 714 L440 714 L202 410 L438 0 L408 0 L181 389 L91 283 L91 0 L65 0 Z " /><g transform="translate(780,0)" ><path fill="black" d="M-588 -221 L-588 -213 C-572.216 -181.431 -549.184 -102.473 -544 -61 L-514 -61 L-514 -69 C-526 -118.333 -546.333 -174.333 -573 -221 L-588 -221 Z " /></g></glyph>
<glyph glyph-name="uni0137" unicode="&#x137;" horiz-adv-x="530" >
<path fill="black" d="M121 0 L121 760 L147 760 L147 373 C147 317 147.333 273 146 217 L148 217 C165.333 239.667 179 258.333 195 277 L411 528 L442 528 L252 305 L458 0 L429 0 L234 286 L147 185 L147 0 L121 0 Z " /><g transform="translate(817,0)" ><path fill="black" d="M-588 -221 L-588 -213 C-572.216 -181.431 -549.184 -102.473 -544 -61 L-514 -61 L-514 -69 C-526 -118.333 -546.333 -174.333 -573 -221 L-588 -221 Z " /></g></glyph>
<glyph glyph-name="kgreenlandic" unicode="&#x138;" horiz-adv-x="530" d="M121 0 L121 528 L147 528 L147 373 C147 317 147.333 273 146 217 L148 217 C165.333 239.667 179 258.333 195 277 L411 528 L442 528 L252 307 L458 0 L430 0 L235 286 L147 185 L147 0 L121 0 Z " />
<glyph glyph-name="Lacute" unicode="&#x139;" horiz-adv-x="530" >
<path fill="black" d="M405 25 L405 0 L92 0 L92 714 L118 714 L118 25 L405 25 Z " /><g transform="translate(-148,186)" ><path fill="black" d="M222 606 L222 615 C267.333 661.667 316.333 717 347 765 L377 765 L377 758 C342.881 710.758 286.412 646.952 240 606 L222 606 Z " /></g></glyph>
<glyph glyph-name="lacute" unicode="&#x13a;" horiz-adv-x="530" >
<path fill="black" d="M82 21 L243 25 L243 735 L94 739 L94 760 L269 760 L269 25 L432 21 L432 0 L82 0 L82 21 Z " /><g transform="translate(-2,232)" ><path fill="black" d="M222 606 L222 615 C267.333 661.667 316.333 717 347 765 L377 765 L377 758 C342.881 710.758 286.412 646.952 240 606 L222 606 Z " /></g></glyph>
<glyph glyph-name="uni013B" unicode="&#x13b;" horiz-adv-x="530" >
<path fill="black" d="M405 25 L405 0 L92 0 L92 714 L118 714 L118 25 L405 25 Z " /><g transform="translate(790,0)" ><path fill="black" d="M-588 -221 L-588 -213 C-572.216 -181.431 -549.184 -102.473 -544 -61 L-514 -61 L-514 -69 C-526 -118.333 -546.333 -174.333 -573 -221 L-588 -221 Z " /></g></glyph>
<glyph glyph-name="uni013C" unicode="&#x13c;" horiz-adv-x="530" >
<path fill="black" d="M82 21 L243 25 L243 735 L94 739 L94 760 L269 760 L269 25 L432 21 L432 0 L82 0 L82 21 Z " /><g transform="translate(785,0)" ><path fill="black" d="M-588 -221 L-588 -213 C-572.216 -181.431 -549.184 -102.473 -544 -61 L-514 -61 L-514 -69 C-526 -118.333 -546.333 -174.333 -573 -221 L-588 -221 Z " /></g></glyph>
<glyph glyph-name="Lcaron" unicode="&#x13d;" horiz-adv-x="530" >
<path fill="black" d="M405 25 L405 0 L92 0 L92 714 L118 714 L118 25 L405 25 Z " /><g transform="translate(348,0)" ><path fill="black" d="M-34 552 L-34 562 C-24.0694 584.344 -0.630269 679.807 2 714 L33 714 L33 706 C22.3578 663.431 4.41037 591.017 -19 552 L-34 552 Z " /></g></glyph>
<glyph glyph-name="lcaron" unicode="&#x13e;" horiz-adv-x="530" >
<path fill="black" d="M82 21 L243 25 L243 735 L94 739 L94 760 L269 760 L269 25 L432 21 L432 0 L82 0 L82 21 Z " /><g transform="translate(413,46)" ><path fill="black" d="M-34 552 L-34 562 C-24.0694 584.344 -0.630269 679.807 2 714 L33 714 L33 706 C22.3578 663.431 4.41037 591.017 -19 552 L-34 552 Z " /></g></glyph>
<glyph glyph-name="Ldot" unicode="&#x13f;" horiz-adv-x="530" >
<path fill="black" d="M405 25 L405 0 L92 0 L92 714 L118 714 L118 25 L405 25 Z " /><g transform="translate(100,347)" ><path fill="black" d="M251 -12 C227 -12 221 4.33333 221 23 C221 41.6667 227 58 251 58 C273.667 58 279 41.6667 279 23 C279 4.33333 273.667 -12 251 -12 Z " /></g></glyph>
<glyph glyph-name="ldot" unicode="&#x140;" horiz-adv-x="530" >
<path fill="black" d="M82 21 L243 25 L243 735 L94 739 L94 760 L269 760 L269 25 L432 21 L432 0 L82 0 L82 21 Z " /><g transform="translate(249,361)" ><path fill="black" d="M251 -12 C227 -12 221 4.33333 221 23 C221 41.6667 227 58 251 58 C273.667 58 279 41.6667 279 23 C279 4.33333 273.667 -12 251 -12 Z " /></g></glyph>
<glyph glyph-name="Lslash" unicode="&#x141;" horiz-adv-x="530" d="M92 360 L26 322 L26 346 L92 384 L92 714 L118 714 L118 398 L290 496 L290 473 L118 375 L118 25 L405 25 L405 0 L92 0 L92 360 Z " />
<glyph glyph-name="lslash" unicode="&#x142;" horiz-adv-x="530" d="M82 21 L243 25 L243 387 L129 322 L129 346 L243 411 L243 735 L94 739 L94 760 L269 760 L269 426 L393 496 L393 473 L269 402 L269 25 L432 21 L432 0 L82 0 L82 21 Z " />
<glyph glyph-name="Nacute" unicode="&#x143;" horiz-adv-x="530" >
<path fill="black" d="M65 0 L65 714 L94 714 L408 54 L410 54 C410 99.3333 409 151.667 409 181 L409 714 L435 714 L435 0 L407 0 L92 664 L90 664 C91.3333 637.333 91 604 91 548 L91 0 L65 0 Z " /><g transform="translate(3,186)" ><path fill="black" d="M222 606 L222 615 C267.333 661.667 316.333 717 347 765 L377 765 L377 758 C342.881 710.758 286.412 646.952 240 606 L222 606 Z " /></g></glyph>
<glyph glyph-name="nacute" unicode="&#x144;" horiz-adv-x="530" >
<path fill="black" d="M85 0 L85 528 L105 528 L108 416 L110 416 C128.379 476.387 175.294 537 270 537 C366 537 420 483.667 420 361 L420 0 L394 0 L394 355 C394 468.333 348.667 512 270 512 C179.411 512 111 445.641 111 307 L111 0 L85 0 Z " /><g transform="translate(3,0)" ><path fill="black" d="M222 606 L222 615 C267.333 661.667 316.333 717 347 765 L377 765 L377 758 C342.881 710.758 286.412 646.952 240 606 L222 606 Z " /></g></glyph>
<glyph glyph-name="uni0145" unicode="&#x145;" horiz-adv-x="530" >
<path fill="black" d="M65 0 L65 714 L94 714 L408 54 L410 54 C410 99.3333 409 151.667 409 181 L409 714 L435 714 L435 0 L407 0 L92 664 L90 664 C91.3333 637.333 91 604 91 548 L91 0 L65 0 Z " /><g transform="translate(780,0)" ><path fill="black" d="M-588 -221 L-588 -213 C-572.216 -181.431 -549.184 -102.473 -544 -61 L-514 -61 L-514 -69 C-526 -118.333 -546.333 -174.333 -573 -221 L-588 -221 Z " /></g></glyph>
<glyph glyph-name="uni0146" unicode="&#x146;" horiz-adv-x="530" >
<path fill="black" d="M85 0 L85 528 L105 528 L108 416 L110 416 C128.379 476.387 175.294 537 270 537 C366 537 420 483.667 420 361 L420 0 L394 0 L394 355 C394 468.333 348.667 512 270 512 C179.411 512 111 445.641 111 307 L111 0 L85 0 Z " /><g transform="translate(788,0)" ><path fill="black" d="M-588 -221 L-588 -213 C-572.216 -181.431 -549.184 -102.473 -544 -61 L-514 -61 L-514 -69 C-526 -118.333 -546.333 -174.333 -573 -221 L-588 -221 Z " /></g></glyph>
<glyph glyph-name="Ncaron" unicode="&#x147;" horiz-adv-x="530" >
<path fill="black" d="M65 0 L65 714 L94 714 L408 54 L410 54 C410 99.3333 409 151.667 409 181 L409 714 L435 714 L435 0 L407 0 L92 664 L90 664 C91.3333 637.333 91 604 91 548 L91 0 L65 0 Z " /><g transform="translate(5,186)" ><path fill="black" d="M238 606 C211.022 651.863 166.73 721.865 137 757 L137 763 L155 763 C187 728.333 222.333 679.333 249 638 C276.333 680 308.333 721.667 345 763 L363 763 L363 757 C331.445 714.926 284.651 650.674 261 606 L238 606 Z " /></g></glyph>
<glyph glyph-name="ncaron" unicode="&#x148;" horiz-adv-x="530" >
<path fill="black" d="M85 0 L85 528 L105 528 L108 416 L110 416 C128.379 476.387 175.294 537 270 537 C366 537 420 483.667 420 361 L420 0 L394 0 L394 355 C394 468.333 348.667 512 270 512 C179.411 512 111 445.641 111 307 L111 0 L85 0 Z " /><g transform="translate(5,0)" ><path fill="black" d="M238 606 C211.022 651.863 166.73 721.865 137 757 L137 763 L155 763 C187 728.333 222.333 679.333 249 638 C276.333 680 308.333 721.667 345 763 L363 763 L363 757 C331.445 714.926 284.651 650.674 261 606 L238 606 Z " /></g></glyph>
<glyph glyph-name="napostrophe" unicode="&#x149;" horiz-adv-x="530" d="M95 0 L95 528 L115 528 L118 416 L120 416 C138.972 478.336 183.251 537 277 537 C367.667 537 420 483.667 420 361 L420 0 L394 0 L394 355 C394 467 350.667 512 276 512 C186.667 512 121 447 121 307 L121 0 L95 0 Z M-21 482 C7 559.333 27.6667 642 37 714 L61 714 L68 704 C53.3333 629.333 28.6667 554 -2 482 L-21 482 Z " />
<glyph glyph-name="Eng" unicode="&#x14a;" horiz-adv-x="530" d="M65 714 L94 714 L408 54 L410 54 C410 99.3333 409 151.667 409 181 L409 714 L435 714 L435 -2 C435 -126 393.333 -175 312 -175 C285.333 -175 257.667 -168.667 243 -162 L243 -137 C260.333 -143.667 287.333 -150 310 -150 C378 -150 410 -106.667 410 0 L407 0 L92 664 L90 664 C91.3333 637.333 91 604 91 548 L91 0 L65 0 L65 714 Z " />
<glyph glyph-name="eng" unicode="&#x14b;" horiz-adv-x="530" d="M266 -207 C280.667 -213.667 303.667 -216 321 -216 C371.667 -216 393.333 -178 396 -114 L398 0 L394 0 L394 355 C394 468.333 348.667 512 270 512 C179.411 512 111 445.641 111 307 L111 0 L85 0 L85 528 L105 528 L108 416 L110 416 C128.379 476.387 175.294 537 270 537 C366 537 420 483.667 420 361 L420 0 L415 0 L420 -116 C420 -202.667 381 -241 321 -241 C297 -241 278.667 -238.333 266 -233 L266 -207 Z " />
<glyph glyph-name="Omacron" unicode="&#x14c;" horiz-adv-x="530" >
<path fill="black" d="M251 -10 C92.7229 -10 50 172.926 50 358 C50 603.333 120.333 724 251 724 C397.693 724 450 570.416 450 358 C450 166 408.359 -10 251 -10 Z M251 15 C368.333 15 424 134 424 358 C424 578 368.333 699 251 699 C132.333 699 76 574 76 358 C76 139.333 137.667 15 251 15 Z " /><g transform="translate(0,187)" ><path fill="black" d="M136 640 L364 640 L364 616 L136 616 L136 640 Z " /></g></glyph>
<glyph glyph-name="omacron" unicode="&#x14d;" horiz-adv-x="530" >
<path fill="black" d="M251 -10 C123 -10 60 94.3333 60 265 C60 439.667 126.333 537 253 537 C388.922 537 440 425.048 440 264 C440 93.3333 381.667 -10 251 -10 Z M251 15 C365.667 15 414 106.333 414 265 C414 409.892 372.004 512 253 512 C139.667 512 86 422.333 86 265 C86 110.333 137.667 15 251 15 Z " /><g transform="translate(0,1)" ><path fill="black" d="M136 640 L364 640 L364 616 L136 616 L136 640 Z " /></g></glyph>
<glyph glyph-name="Obreve" unicode="&#x14e;" horiz-adv-x="530" >
<path fill="black" d="M251 -10 C92.7229 -10 50 172.926 50 358 C50 603.333 120.333 724 251 724 C397.693 724 450 570.416 450 358 C450 166 408.359 -10 251 -10 Z M251 15 C368.333 15 424 134 424 358 C424 578 368.333 699 251 699 C132.333 699 76 574 76 358 C76 139.333 137.667 15 251 15 Z " /><g transform="translate(0,186)" ><path fill="black" d="M163 716 C167 665.333 195.333 632 250 632 C306 632 333 665.333 337 716 L361 716 C355.667 648 315.333 608 250 608 C186 608 143 644 139 716 L163 716 Z " /></g></glyph>
<glyph glyph-name="obreve" unicode="&#x14f;" horiz-adv-x="530" >
<path fill="black" d="M251 -10 C123 -10 60 94.3333 60 265 C60 439.667 126.333 537 253 537 C388.922 537 440 425.048 440 264 C440 93.3333 381.667 -10 251 -10 Z M251 15 C365.667 15 414 106.333 414 265 C414 409.892 372.004 512 253 512 C139.667 512 86 422.333 86 265 C86 110.333 137.667 15 251 15 Z " /><path fill="black" d="M163 716 C167 665.333 195.333 632 250 632 C306 632 333 665.333 337 716 L361 716 C355.667 648 315.333 608 250 608 C186 608 143 644 139 716 L163 716 Z " /></glyph>
<glyph glyph-name="Ohungarumlaut" unicode="&#x150;" horiz-adv-x="530" d="M251 -10 C92.7229 -10 50 172.926 50 358 C50 603.333 120.333 724 251 724 C397.693 724 450 570.416 450 358 C450 166 408.359 -10 251 -10 Z M251 15 C368.333 15 424 134 424 358 C424 578 368.333 699 251 699 C132.333 699 76 574 76 358 C76 139.333 137.667 15 251 15 Z M152 793 L152 800 C189.089 842.387 235.979 913.585 257 953 L286 953 L286 946 C264.047 907.582 211.253 835.936 171 793 L152 793 Z M287 793 L287 800 C324.089 842.387 370.979 913.585 392 953 L421 953 L421 946 C399.047 907.582 346.253 835.936 306 793 L287 793 Z " />
<glyph glyph-name="ohungarumlaut" unicode="&#x151;" horiz-adv-x="530" d="M251 -10 C123 -10 60 94.3333 60 265 C60 439.667 126.333 537 253 537 C388.922 537 440 425.048 440 264 C440 93.3333 381.667 -10 251 -10 Z M251 15 C365.667 15 414 106.333 414 265 C414 409.892 372.004 512 253 512 C139.667 512 86 422.333 86 265 C86 110.333 137.667 15 251 15 Z M152 607 L152 614 C189.089 656.387 235.979 727.585 257 767 L286 767 L286 760 C264.047 721.582 211.253 649.936 171 607 L152 607 Z M287 607 L287 614 C324.089 656.387 370.979 727.585 392 767 L421 767 L421 760 C399.047 721.582 346.253 649.936 306 607 L287 607 Z " />
<glyph glyph-name="OE" unicode="&#x152;" horiz-adv-x="530" d="M475 25 L475 0 L318 0 C300.667 0 282.667 -2 260 -2 C116 -2 50 119 50 359 C50 571.182 100.255 714 263 714 L323 714 L475 714 L475 690 L289 690 L289 388 L462 388 L462 363 L289 363 L289 25 L475 25 Z M263 23 L263 690 L255 690 C116.307 690 76 545.693 76 359 C76 152.593 131.338 23 255 23 L263 23 Z " />
<glyph glyph-name="oe" unicode="&#x153;" horiz-adv-x="530" d="M470 17 C445.333 -1 417.333 -10 386 -10 C310 -10 274.667 42.3333 260 145 C246.667 49 211 -10 143 -10 C53.9784 -10 21 94.8745 21 256 C21 446.667 66 537 146 537 C214 537 250.333 469 261 373 C274.34 463.71 306.796 537 369 537 C447.355 537 475 425.671 475 296 L475 268 L275 268 C275 101.333 305.333 13 388 13 C420 13 435.333 20.3333 470 43 L470 17 Z M144 14 C214.978 14 246 123.537 246 265 C246 400.134 218.048 513 145 513 C79.6667 513 47 421.333 47 264 C47 112.918 76.3896 14 144 14 Z M448 294 C448 422.996 423.225 513 369 513 C305.156 513 275 384.693 275 294 L448 294 Z " />
<glyph glyph-name="Racute" unicode="&#x154;" horiz-adv-x="530" >
<path fill="black" d="M95 0 L95 714 L219 714 C360.203 714 440 671.745 440 525 C440 415.667 388.333 352 295 328 L468 0 L436 0 L268 321 L121 321 L121 0 L95 0 Z M121 347 L229 347 C336.636 347 413 404.277 413 526 C413 647.333 352 689 212 689 L121 689 L121 347 Z " /><g transform="translate(-2,186)" ><path fill="black" d="M222 606 L222 615 C267.333 661.667 316.333 717 347 765 L377 765 L377 758 C342.881 710.758 286.412 646.952 240 606 L222 606 Z " /></g></glyph>
<glyph glyph-name="racute" unicode="&#x155;" horiz-adv-x="530" >
<path fill="black" d="M65 21 L212 25 L212 503 L83 507 L83 528 L234 528 L238 427 L240 427 C256.286 484.001 300.807 536 381 536 C409 536 443.333 529.667 462 523 L456 497 C433.333 505 405 510 381 510 C287.667 510 238 435 238 303 L238 25 L395 21 L395 0 L65 0 L65 21 Z " /><g transform="translate(27,0)" ><path fill="black" d="M222 606 L222 615 C267.333 661.667 316.333 717 347 765 L377 765 L377 758 C342.881 710.758 286.412 646.952 240 606 L222 606 Z " /></g></glyph>
<glyph glyph-name="uni0156" unicode="&#x156;" horiz-adv-x="530" >
<path fill="black" d="M95 0 L95 714 L219 714 C360.203 714 440 671.745 440 525 C440 415.667 388.333 352 295 328 L468 0 L436 0 L268 321 L121 321 L121 0 L95 0 Z M121 347 L229 347 C336.636 347 413 404.277 413 526 C413 647.333 352 689 212 689 L121 689 L121 347 Z " /><g transform="translate(806,0)" ><path fill="black" d="M-588 -221 L-588 -213 C-572.216 -181.431 -549.184 -102.473 -544 -61 L-514 -61 L-514 -69 C-526 -118.333 -546.333 -174.333 -573 -221 L-588 -221 Z " /></g></glyph>
<glyph glyph-name="uni0157" unicode="&#x157;" horiz-adv-x="530" >
<path fill="black" d="M65 21 L212 25 L212 503 L83 507 L83 528 L234 528 L238 427 L240 427 C256.286 484.001 300.807 536 381 536 C409 536 443.333 529.667 462 523 L456 497 C433.333 505 405 510 381 510 C287.667 510 238 435 238 303 L238 25 L395 21 L395 0 L65 0 L65 21 Z " /><g transform="translate(756,0)" ><path fill="black" d="M-588 -221 L-588 -213 C-572.216 -181.431 -549.184 -102.473 -544 -61 L-514 -61 L-514 -69 C-526 -118.333 -546.333 -174.333 -573 -221 L-588 -221 Z " /></g></glyph>
<glyph glyph-name="Rcaron" unicode="&#x158;" horiz-adv-x="530" >
<path fill="black" d="M95 0 L95 714 L219 714 C360.203 714 440 671.745 440 525 C440 415.667 388.333 352 295 328 L468 0 L436 0 L268 321 L121 321 L121 0 L95 0 Z M121 347 L229 347 C336.636 347 413 404.277 413 526 C413 647.333 352 689 212 689 L121 689 L121 347 Z " /><g transform="translate(0,186)" ><path fill="black" d="M238 606 C211.022 651.863 166.73 721.865 137 757 L137 763 L155 763 C187 728.333 222.333 679.333 249 638 C276.333 680 308.333 721.667 345 763 L363 763 L363 757 C331.445 714.926 284.651 650.674 261 606 L238 606 Z " /></g></glyph>
<glyph glyph-name="rcaron" unicode="&#x159;" horiz-adv-x="530" >
<path fill="black" d="M65 21 L212 25 L212 503 L83 507 L83 528 L234 528 L238 427 L240 427 C256.286 484.001 300.807 536 381 536 C409 536 443.333 529.667 462 523 L456 497 C433.333 505 405 510 381 510 C287.667 510 238 435 238 303 L238 25 L395 21 L395 0 L65 0 L65 21 Z " /><g transform="translate(29,0)" ><path fill="black" d="M238 606 C211.022 651.863 166.73 721.865 137 757 L137 763 L155 763 C187 728.333 222.333 679.333 249 638 C276.333 680 308.333 721.667 345 763 L363 763 L363 757 C331.445 714.926 284.651 650.674 261 606 L238 606 Z " /></g></glyph>
<glyph glyph-name="Sacute" unicode="&#x15a;" horiz-adv-x="530" >
<path fill="black" d="M83 46 C123 30 179.667 16 229 16 C331.667 16 391 74 391 182 C391 283.144 341.313 305.01 240 353 C151.842 393.072 85 428.226 85 543 C85 664.333 156.667 724 262 724 C308.667 724 355.333 712 398 692 L387 669 C336.333 693 293.667 699 263 699 C171 699 112 647.333 112 546 C112 442.106 175.825 410.596 253 376 C358.635 328.464 418 298.255 418 183 C418 53.6667 345.333 -10 228 -10 C180 -10 129.667 1 83 17 L83 46 Z " /><g transform="translate(5,186)" ><path fill="black" d="M222 606 L222 615 C267.333 661.667 316.333 717 347 765 L377 765 L377 758 C342.881 710.758 286.412 646.952 240 606 L222 606 Z " /></g></glyph>
<glyph glyph-name="sacute" unicode="&#x15b;" horiz-adv-x="530" >
<path fill="black" d="M107 53 C148.333 30.3333 193.333 16 244 16 C337.333 16 377 58 377 130 C377 204.335 323.394 226.433 255 258 C176.875 295.716 117 318.789 117 408 C117 484 171 537 271 537 C319 537 361.333 526.333 396 509 L384 485 C353.333 502.333 311.333 512 270 512 C194 512 143 477.667 143 407 C143 336.691 192.652 317.674 262 283 C336.038 248.625 404 221.296 404 129 C404 43.6667 352 -10 244 -10 C184 -10 137.667 7 107 23 L107 53 Z " /><g transform="translate(6,0)" ><path fill="black" d="M222 606 L222 615 C267.333 661.667 316.333 717 347 765 L377 765 L377 758 C342.881 710.758 286.412 646.952 240 606 L222 606 Z " /></g></glyph>
<glyph glyph-name="Scircumflex" unicode="&#x15c;" horiz-adv-x="530" >
<path fill="black" d="M83 46 C123 30 179.667 16 229 16 C331.667 16 391 74 391 182 C391 283.144 341.313 305.01 240 353 C151.842 393.072 85 428.226 85 543 C85 664.333 156.667 724 262 724 C308.667 724 355.333 712 398 692 L387 669 C336.333 693 293.667 699 263 699 C171 699 112 647.333 112 546 C112 442.106 175.825 410.596 253 376 C358.635 328.464 418 298.255 418 183 C418 53.6667 345.333 -10 228 -10 C180 -10 129.667 1 83 17 L83 46 Z " /><g transform="translate(7,186)" ><path fill="black" d="M135 606 L135 613 C164.081 650.013 213.206 720.699 237 763 L263 763 C287.545 719.365 340.288 643.203 365 613 L365 606 L347 606 C313.667 642 278 693.333 250 732 C223.333 694.667 185 640.667 153 606 L135 606 Z " /></g></glyph>
<glyph glyph-name="scircumflex" unicode="&#x15d;" horiz-adv-x="530" >
<path fill="black" d="M107 53 C148.333 30.3333 193.333 16 244 16 C337.333 16 377 58 377 130 C377 204.335 323.394 226.433 255 258 C176.875 295.716 117 318.789 117 408 C117 484 171 537 271 537 C319 537 361.333 526.333 396 509 L384 485 C353.333 502.333 311.333 512 270 512 C194 512 143 477.667 143 407 C143 336.691 192.652 317.674 262 283 C336.038 248.625 404 221.296 404 129 C404 43.6667 352 -10 244 -10 C184 -10 137.667 7 107 23 L107 53 Z " /><g transform="translate(8,0)" ><path fill="black" d="M135 606 L135 613 C164.081 650.013 213.206 720.699 237 763 L263 763 C287.545 719.365 340.288 643.203 365 613 L365 606 L347 606 C313.667 642 278 693.333 250 732 C223.333 694.667 185 640.667 153 606 L135 606 Z " /></g></glyph>
<glyph glyph-name="Scedilla" unicode="&#x15e;" horiz-adv-x="530" d="M157 -210 C173 -215.333 191.333 -217 206 -217 C259.333 -217 295 -192.667 295 -146 C295 -100.667 261 -84.3333 197 -83 L231 -10 L228 -10 C180 -10 129.667 1 83 17 L83 46 C123 30 179.667 16 229 16 C331.667 16 391 74 391 182 C391 283.144 341.313 305.01 240 353 C151.842 393.072 85 428.226 85 543 C85 664.333 156.667 724 262 724 C308.667 724 355.333 712 398 692 L387 669 C336.333 693 293.667 699 263 699 C171 699 112 647.333 112 546 C112 442.106 175.825 410.596 253 376 C358.635 328.464 418 298.255 418 183 C418 65.6667 358 2.66667 258 -8 L232 -64 C289.333 -69.3333 320 -99.3333 320 -146 C320 -203.333 275 -240 207 -240 C191 -240 171.667 -238 157 -234 L157 -210 Z " />
<glyph glyph-name="scedilla" unicode="&#x15f;" horiz-adv-x="530" d="M165 -210 C181 -215.333 199.333 -217 214 -217 C267.333 -217 303 -192.667 303 -146 C303 -100.667 269 -84.3333 205 -83 L239 -10 C181.667 -8.66667 136.333 7 107 23 L107 53 C148.333 30.3333 193.333 16 244 16 C337.333 16 377 58 377 130 C377 204.335 323.394 226.433 255 258 C176.875 295.716 117 318.789 117 408 C117 484 171 537 271 537 C319 537 361.333 526.333 396 509 L384 485 C353.333 502.333 311.333 512 270 512 C194 512 143 477.667 143 407 C143 336.691 192.652 317.674 262 283 C336.038 248.625 404 221.296 404 129 C404 49 358 -2.33333 266 -9 L240 -64 C297.333 -69.3333 328 -99.3333 328 -146 C328 -203.333 283 -240 215 -240 C199 -240 179.667 -238 165 -234 L165 -210 Z " />
<glyph glyph-name="Scaron" unicode="&#x160;" horiz-adv-x="530" >
<path fill="black" d="M83 46 C123 30 179.667 16 229 16 C331.667 16 391 74 391 182 C391 283.144 341.313 305.01 240 353 C151.842 393.072 85 428.226 85 543 C85 664.333 156.667 724 262 724 C308.667 724 355.333 712 398 692 L387 669 C336.333 693 293.667 699 263 699 C171 699 112 647.333 112 546 C112 442.106 175.825 410.596 253 376 C358.635 328.464 418 298.255 418 183 C418 53.6667 345.333 -10 228 -10 C180 -10 129.667 1 83 17 L83 46 Z " /><g transform="translate(7,186)" ><path fill="black" d="M238 606 C211.022 651.863 166.73 721.865 137 757 L137 763 L155 763 C187 728.333 222.333 679.333 249 638 C276.333 680 308.333 721.667 345 763 L363 763 L363 757 C331.445 714.926 284.651 650.674 261 606 L238 606 Z " /></g></glyph>
<glyph glyph-name="scaron" unicode="&#x161;" horiz-adv-x="530" >
<path fill="black" d="M107 53 C148.333 30.3333 193.333 16 244 16 C337.333 16 377 58 377 130 C377 204.335 323.394 226.433 255 258 C176.875 295.716 117 318.789 117 408 C117 484 171 537 271 537 C319 537 361.333 526.333 396 509 L384 485 C353.333 502.333 311.333 512 270 512 C194 512 143 477.667 143 407 C143 336.691 192.652 317.674 262 283 C336.038 248.625 404 221.296 404 129 C404 43.6667 352 -10 244 -10 C184 -10 137.667 7 107 23 L107 53 Z " /><g transform="translate(8,0)" ><path fill="black" d="M238 606 C211.022 651.863 166.73 721.865 137 757 L137 763 L155 763 C187 728.333 222.333 679.333 249 638 C276.333 680 308.333 721.667 345 763 L363 763 L363 757 C331.445 714.926 284.651 650.674 261 606 L238 606 Z " /></g></glyph>
<glyph glyph-name="uni0162" unicode="&#x162;" horiz-adv-x="530" d="M157 -210 C173 -215.333 191.333 -217 206 -217 C259.333 -217 295 -192.667 295 -146 C295 -100.667 261 -84.3333 197 -83 L236 0 L236 689 L45 689 L45 714 L455 714 L455 689 L262 689 L262 0 L232 -64 C289.333 -69.3333 320 -99.3333 320 -146 C320 -203.333 275 -240 207 -240 C191 -240 171.667 -238 157 -234 L157 -210 Z " />
<glyph glyph-name="uni0163" unicode="&#x163;" horiz-adv-x="530" d="M230 -210 C246 -215.333 264.333 -217 279 -217 C332.333 -217 368 -192.667 368 -146 C368 -100.667 334 -84.3333 270 -83 L307 -5 C236.333 13.6667 215 80 215 180 L215 503 L84 503 L84 524 L214 528 L219 659 L241 659 L241 528 L418 528 L418 503 L241 503 L241 183 C241 75 265.667 15 351 15 C384.333 15 407.333 20 430 28 L430 3 C407.333 -3.66667 385.667 -10 351 -10 C344.333 -10 337.667 -10.3333 331 -9 L305 -64 C362.333 -69.3333 393 -99.3333 393 -146 C393 -203.333 348 -240 280 -240 C264 -240 244.667 -238 230 -234 L230 -210 Z " />
<glyph glyph-name="Tcaron" unicode="&#x164;" horiz-adv-x="530" >
<path fill="black" d="M236 0 L236 689 L45 689 L45 714 L455 714 L455 689 L262 689 L262 0 L236 0 Z " /><g transform="translate(0,186)" ><path fill="black" d="M238 606 C211.022 651.863 166.73 721.865 137 757 L137 763 L155 763 C187 728.333 222.333 679.333 249 638 C276.333 680 308.333 721.667 345 763 L363 763 L363 757 C331.445 714.926 284.651 650.674 261 606 L238 606 Z " /></g></glyph>
<glyph glyph-name="tcaron" unicode="&#x165;" horiz-adv-x="530" >
<path fill="black" d="M215 503 L84 503 L84 524 L214 528 L219 659 L241 659 L241 528 L418 528 L418 503 L241 503 L241 183 C241 75 265.667 15 351 15 C384.333 15 407.333 20 430 28 L430 3 C407.333 -3.66667 385.667 -10 351 -10 C245.926 -10 215 61.645 215 180 L215 503 Z " /><g transform="translate(393,46)" ><path fill="black" d="M-34 552 L-34 562 C-24.0694 584.344 -0.630269 679.807 2 714 L33 714 L33 706 C22.3578 663.431 4.41037 591.017 -19 552 L-34 552 Z " /></g></glyph>
<glyph glyph-name="Tbar" unicode="&#x166;" horiz-adv-x="530" d="M236 359 L81 359 L81 384 L236 384 L236 689 L45 689 L45 714 L455 714 L455 689 L262 689 L262 384 L421 384 L421 359 L262 359 L262 0 L236 0 L236 359 Z " />
<glyph glyph-name="tbar" unicode="&#x167;" horiz-adv-x="530" d="M215 285 L84 285 L84 310 L215 310 L215 503 L84 503 L84 524 L214 528 L219 659 L241 659 L241 528 L418 528 L418 503 L241 503 L241 310 L430 310 L430 285 L241 285 L241 183 C241 75 265.667 15 351 15 C384.333 15 407.333 20 430 28 L430 3 C407.333 -3.66667 385.667 -10 351 -10 C245.926 -10 215 61.645 215 180 L215 285 Z " />
<glyph glyph-name="Utilde" unicode="&#x168;" horiz-adv-x="530" >
<path fill="black" d="M65 714 L91 714 L91 239 C91 83 148.667 15 250 15 C344.667 15 409 78.3333 409 233 L409 714 L435 714 L435 230 C435 58.1558 355.615 -10 249 -10 C131.667 -10 65 69.3333 65 236 L65 714 Z " /><g transform="translate(1,186)" ><path fill="black" d="M103 625 C108.333 689 139.333 718 182 718 C242.569 718 265.569 648 315 648 C343 648 366.667 667.333 372 718 L395 718 C392.333 654 357.667 624 315 624 C252.895 624 231.34 694 181 694 C155.667 694 131 677 127 625 L103 625 Z " /></g></glyph>
<glyph glyph-name="utilde" unicode="&#x169;" horiz-adv-x="530" >
<path fill="black" d="M80 528 L106 528 L106 177 C106 63.6667 154 15 234 15 C324.667 15 389 81.6667 389 227 L389 528 L415 528 L415 0 L395 0 L392 112 L390 112 C371.08 52.5357 327.472 -10 233 -10 C131 -10 80 50.3333 80 171 L80 528 Z " /><g transform="translate(1,0)" ><path fill="black" d="M103 625 C108.333 689 139.333 718 182 718 C242.569 718 265.569 648 315 648 C343 648 366.667 667.333 372 718 L395 718 C392.333 654 357.667 624 315 624 C252.895 624 231.34 694 181 694 C155.667 694 131 677 127 625 L103 625 Z " /></g></glyph>
<glyph glyph-name="Umacron" unicode="&#x16a;" horiz-adv-x="530" >
<path fill="black" d="M65 714 L91 714 L91 239 C91 83 148.667 15 250 15 C344.667 15 409 78.3333 409 233 L409 714 L435 714 L435 230 C435 58.1558 355.615 -10 249 -10 C131.667 -10 65 69.3333 65 236 L65 714 Z " /><g transform="translate(0,187)" ><path fill="black" d="M136 640 L364 640 L364 616 L136 616 L136 640 Z " /></g></glyph>
<glyph glyph-name="umacron" unicode="&#x16b;" horiz-adv-x="530" >
<path fill="black" d="M80 528 L106 528 L106 177 C106 63.6667 154 15 234 15 C324.667 15 389 81.6667 389 227 L389 528 L415 528 L415 0 L395 0 L392 112 L390 112 C371.08 52.5357 327.472 -10 233 -10 C131 -10 80 50.3333 80 171 L80 528 Z " /><g transform="translate(0,1)" ><path fill="black" d="M136 640 L364 640 L364 616 L136 616 L136 640 Z " /></g></glyph>
<glyph glyph-name="Ubreve" unicode="&#x16c;" horiz-adv-x="530" >
<path fill="black" d="M65 714 L91 714 L91 239 C91 83 148.667 15 250 15 C344.667 15 409 78.3333 409 233 L409 714 L435 714 L435 230 C435 58.1558 355.615 -10 249 -10 C131.667 -10 65 69.3333 65 236 L65 714 Z " /><g transform="translate(0,186)" ><path fill="black" d="M163 716 C167 665.333 195.333 632 250 632 C306 632 333 665.333 337 716 L361 716 C355.667 648 315.333 608 250 608 C186 608 143 644 139 716 L163 716 Z " /></g></glyph>
<glyph glyph-name="ubreve" unicode="&#x16d;" horiz-adv-x="530" >
<path fill="black" d="M80 528 L106 528 L106 177 C106 63.6667 154 15 234 15 C324.667 15 389 81.6667 389 227 L389 528 L415 528 L415 0 L395 0 L392 112 L390 112 C371.08 52.5357 327.472 -10 233 -10 C131 -10 80 50.3333 80 171 L80 528 Z " /><path fill="black" d="M163 716 C167 665.333 195.333 632 250 632 C306 632 333 665.333 337 716 L361 716 C355.667 648 315.333 608 250 608 C186 608 143 644 139 716 L163 716 Z " /></glyph>
<glyph glyph-name="Uring" unicode="&#x16e;" horiz-adv-x="530" >
<path fill="black" d="M65 714 L91 714 L91 239 C91 83 148.667 15 250 15 C344.667 15 409 78.3333 409 233 L409 714 L435 714 L435 230 C435 58.1558 355.615 -10 249 -10 C131.667 -10 65 69.3333 65 236 L65 714 Z " /><g transform="translate(0,186)" ><path fill="black" d="M156 707 C156 764.333 198 800 250 800 C302 800 344 763.333 344 706 C344 650 303 614 251 614 C200.333 614 156 647 156 707 Z M180 707 C180 667 207 636 251 636 C293.667 636 320 664.667 320 706 C320 748.667 290.333 777 249 777 C207.667 777 180 748.333 180 707 Z " /></g></glyph>
<glyph glyph-name="uring" unicode="&#x16f;" horiz-adv-x="530" >
<path fill="black" d="M80 528 L106 528 L106 177 C106 63.6667 154 15 234 15 C324.667 15 389 81.6667 389 227 L389 528 L415 528 L415 0 L395 0 L392 112 L390 112 C371.08 52.5357 327.472 -10 233 -10 C131 -10 80 50.3333 80 171 L80 528 Z " /><path fill="black" d="M156 707 C156 764.333 198 800 250 800 C302 800 344 763.333 344 706 C344 650 303 614 251 614 C200.333 614 156 647 156 707 Z M180 707 C180 667 207 636 251 636 C293.667 636 320 664.667 320 706 C320 748.667 290.333 777 249 777 C207.667 777 180 748.333 180 707 Z " /></glyph>
<glyph glyph-name="Uhungarumlaut" unicode="&#x170;" horiz-adv-x="530" d="M65 714 L91 714 L91 239 C91 83 148.667 15 250 15 C344.667 15 409 78.3333 409 233 L409 714 L435 714 L435 230 C435 58.1558 355.615 -10 249 -10 C131.667 -10 65 69.3333 65 236 L65 714 Z M152 793 L152 800 C189.089 842.387 235.979 913.585 257 953 L286 953 L286 946 C264.047 907.582 211.253 835.936 171 793 L152 793 Z M287 793 L287 800 C324.089 842.387 370.979 913.585 392 953 L421 953 L421 946 C399.047 907.582 346.253 835.936 306 793 L287 793 Z " />
<glyph glyph-name="uhungarumlaut" unicode="&#x171;" horiz-adv-x="530" d="M80 528 L106 528 L106 177 C106 63.6667 154 15 234 15 C324.667 15 389 81.6667 389 227 L389 528 L415 528 L415 0 L395 0 L392 112 L390 112 C371.08 52.5357 327.472 -10 233 -10 C131 -10 80 50.3333 80 171 L80 528 Z M152 607 L152 614 C189.089 656.387 235.979 727.585 257 767 L286 767 L286 760 C264.047 721.582 211.253 649.936 171 607 L152 607 Z M287 607 L287 614 C324.089 656.387 370.979 727.585 392 767 L421 767 L421 760 C399.047 721.582 346.253 649.936 306 607 L287 607 Z " />
<glyph glyph-name="Uogonek" unicode="&#x172;" horiz-adv-x="530" d="M313 -210 C302.333 -214.667 289 -217 273 -217 C226.333 -217 194 -190 194 -138 C194 -94 216 -51.6667 268 -9 C261.333 -10.3333 255.667 -10 249 -10 C131.667 -10 65 69.3333 65 236 L65 714 L91 714 L91 239 C91 83 148.667 15 250 15 C344.667 15 409 78.3333 409 233 L409 714 L435 714 L435 230 C435 98 389 28.6667 321 2 C258.333 -39.3333 221 -83 221 -135 C221 -173.667 238.667 -193 274 -193 C287.333 -193 305 -189.667 313 -187 L313 -210 Z " />
<glyph glyph-name="uogonek" unicode="&#x173;" horiz-adv-x="530" d="M423 -210 C412.333 -214.667 399 -217 383 -217 C336.333 -217 304 -190 304 -138 C304 -88.6667 334.333 -39.6667 395 9 L392 112 L390 112 C371.08 52.5357 327.472 -10 233 -10 C131 -10 80 50.3333 80 171 L80 528 L106 528 L106 177 C106 63.6667 154 15 234 15 C324.667 15 389 81.6667 389 227 L389 528 L415 528 L415 0 C365.667 -42.6667 331 -83 331 -135 C331 -173.667 348.667 -193 384 -193 C397.333 -193 415 -189.667 423 -187 L423 -210 Z " />
<glyph glyph-name="Wcircumflex" unicode="&#x174;" horiz-adv-x="530" >
<path fill="black" d="M146 29 C152.667 70.3333 157 109.667 165 151 L237 528 L263 528 L334 151 C342 108.333 348.333 68.6667 355 26 L357 26 C361 72.6667 364.333 108.333 371 151 C396.333 340.333 421.667 524.667 447 714 L475 714 L373 0 L337 0 L267 375 C260.333 409.667 257.333 432.333 252 475 L250 475 C243.333 432.333 239.667 411 233 375 L163 0 L125 0 L25 714 L52 714 C77.3333 524.667 105.333 341.667 128 151 C133.333 109.667 138.667 75.6667 144 29 L146 29 Z " /><g transform="translate(0,186)" ><path fill="black" d="M135 606 L135 613 C164.081 650.013 213.206 720.699 237 763 L263 763 C287.545 719.365 340.288 643.203 365 613 L365 606 L347 606 C313.667 642 278 693.333 250 732 C223.333 694.667 185 640.667 153 606 L135 606 Z " /></g></glyph>
<glyph glyph-name="wcircumflex" unicode="&#x175;" horiz-adv-x="530" >
<path fill="black" d="M143 45 C149.667 73 159.333 110.667 174 160 L244 407 L267 407 L335 157 C347 113 357.333 77.3333 364 44 L366 44 C373.883 88.6718 378.871 106.229 387 155 L460 528 L486 528 L377 -1 L355 -1 L281 270 C271.667 304.667 262.667 335 256 367 L254 367 C247.333 335 238.333 301 229 269 L152 -1 L129 -1 L14 528 L41 528 L118 158 C128.667 107.333 134.333 78.3333 141 45 L143 45 Z " /><g transform="translate(6,0)" ><path fill="black" d="M135 606 L135 613 C164.081 650.013 213.206 720.699 237 763 L263 763 C287.545 719.365 340.288 643.203 365 613 L365 606 L347 606 C313.667 642 278 693.333 250 732 C223.333 694.667 185 640.667 153 606 L135 606 Z " /></g></glyph>
<glyph glyph-name="Ycircumflex" unicode="&#x176;" horiz-adv-x="530" >
<path fill="black" d="M238 0 L238 275 L35 714 L62 714 L251 305 L437 714 L465 714 L264 277 L264 0 L238 0 Z " /><g transform="translate(0,186)" ><path fill="black" d="M135 606 L135 613 C164.081 650.013 213.206 720.699 237 763 L263 763 C287.545 719.365 340.288 643.203 365 613 L365 606 L347 606 C313.667 642 278 693.333 250 732 C223.333 694.667 185 640.667 153 606 L135 606 Z " /></g></glyph>
<glyph glyph-name="ycircumflex" unicode="&#x177;" horiz-adv-x="530" >
<path fill="black" d="M65 -207 C79.6667 -213.667 94 -217 110 -217 C151.333 -217 183.667 -193.333 209 -112 L247 10 L75 528 L101 528 L224 156 C245.333 92 252.667 69.3333 258 48 L260 48 C269.333 82.6667 278.667 112.333 292 155 L409 528 L435 528 L236 -112 C208 -201.333 174 -243 110 -243 C94 -243 81 -240.667 65 -234 L65 -207 Z " /><path fill="black" d="M135 606 L135 613 C164.081 650.013 213.206 720.699 237 763 L263 763 C287.545 719.365 340.288 643.203 365 613 L365 606 L347 606 C313.667 642 278 693.333 250 732 C223.333 694.667 185 640.667 153 606 L135 606 Z " /></glyph>
<glyph glyph-name="Ydieresis" unicode="&#x178;" horiz-adv-x="530" >
<g transform="translate(0,174)" ><path fill="black" d="M169 635 C150.333 635 143 651.333 143 670 C143 688.667 150.333 706 169 706 C189 706 197 688.667 197 670 C197 650 189 635 169 635 Z M329 635 C310.333 635 303 651.333 303 670 C303 688.667 310.333 706 329 706 C349 706 357 688.667 357 670 C357 650 349 635 329 635 Z " /></g><path fill="black" d="M238 0 L238 275 L35 714 L62 714 L251 305 L437 714 L465 714 L264 277 L264 0 L238 0 Z " /></glyph>
<glyph glyph-name="Zacute" unicode="&#x179;" horiz-adv-x="530" >
<path fill="black" d="M95 21 L392 689 L115 689 L115 714 L421 714 L421 693 L125 25 L431 25 L431 0 L95 0 L95 21 Z " /><g transform="translate(13,186)" ><path fill="black" d="M222 606 L222 615 C267.333 661.667 316.333 717 347 765 L377 765 L377 758 C342.881 710.758 286.412 646.952 240 606 L222 606 Z " /></g></glyph>
<glyph glyph-name="zacute" unicode="&#x17a;" horiz-adv-x="530" >
<path fill="black" d="M95 21 L371 503 L116 503 L116 528 L404 528 L404 509 L127 25 L404 25 L404 0 L95 0 L95 21 Z " /><g transform="translate(8,0)" ><path fill="black" d="M222 606 L222 615 C267.333 661.667 316.333 717 347 765 L377 765 L377 758 C342.881 710.758 286.412 646.952 240 606 L222 606 Z " /></g></glyph>
<glyph glyph-name="Zdotaccent" unicode="&#x17b;" horiz-adv-x="530" >
<path fill="black" d="M95 21 L392 689 L115 689 L115 714 L421 714 L421 693 L125 25 L431 25 L431 0 L95 0 L95 21 Z " /><g transform="translate(15,187)" ><path fill="black" d="M251 660 C225.667 660 219 677 219 697 C219 715.667 224.333 734 251 734 C275 734 281 715.667 281 697 C281 678.333 277.667 660 251 660 Z " /></g></glyph>
<glyph glyph-name="zdotaccent" unicode="&#x17c;" horiz-adv-x="530" >
<path fill="black" d="M95 21 L371 503 L116 503 L116 528 L404 528 L404 509 L127 25 L404 25 L404 0 L95 0 L95 21 Z " /><g transform="translate(10,1)" ><path fill="black" d="M251 660 C225.667 660 219 677 219 697 C219 715.667 224.333 734 251 734 C275 734 281 715.667 281 697 C281 678.333 277.667 660 251 660 Z " /></g></glyph>
<glyph glyph-name="Zcaron" unicode="&#x17d;" horiz-adv-x="530" >
<path fill="black" d="M95 21 L392 689 L115 689 L115 714 L421 714 L421 693 L125 25 L431 25 L431 0 L95 0 L95 21 Z " /><g transform="translate(15,186)" ><path fill="black" d="M238 606 C211.022 651.863 166.73 721.865 137 757 L137 763 L155 763 C187 728.333 222.333 679.333 249 638 C276.333 680 308.333 721.667 345 763 L363 763 L363 757 C331.445 714.926 284.651 650.674 261 606 L238 606 Z " /></g></glyph>
<glyph glyph-name="zcaron" unicode="&#x17e;" horiz-adv-x="530" >
<path fill="black" d="M95 21 L371 503 L116 503 L116 528 L404 528 L404 509 L127 25 L404 25 L404 0 L95 0 L95 21 Z " /><g transform="translate(10,0)" ><path fill="black" d="M238 606 C211.022 651.863 166.73 721.865 137 757 L137 763 L155 763 C187 728.333 222.333 679.333 249 638 C276.333 680 308.333 721.667 345 763 L363 763 L363 757 C331.445 714.926 284.651 650.674 261 606 L238 606 Z " /></g></glyph>
<glyph glyph-name="longs" unicode="&#x17f;" horiz-adv-x="530" d="M231 0 L231 585 C231 698.333 274.333 765 381 765 C404.333 765 425.667 762.333 445 757 L441 732 C423.667 738.667 402.333 741 381 741 C299.667 741 257 696.667 257 582 L257 0 L231 0 Z " />
<glyph glyph-name="florin" unicode="&#x192;" horiz-adv-x="530" d="M66 -205 C86 -211.667 105.667 -215 127 -215 C189.667 -215 215 -170 215 -86 L215 422 L100 422 L100 443 L215 447 L215 547 C215 660.333 251.333 724 342 724 C368.667 724 392 721.667 416 711 L408 687 C390 695.667 367.667 700 341 700 C269 700 241 652.333 241 543 L241 447 L358 447 L358 422 L241 422 L241 -83 C241 -176.333 211 -240 127 -240 C101.667 -240 82 -236 66 -232 L66 -205 Z " />
<glyph glyph-name="uni0218" unicode="&#x218;" horiz-adv-x="530" >
<path fill="black" d="M83 46 C123 30 179.667 16 229 16 C331.667 16 391 74 391 182 C391 283.144 341.313 305.01 240 353 C151.842 393.072 85 428.226 85 543 C85 664.333 156.667 724 262 724 C308.667 724 355.333 712 398 692 L387 669 C336.333 693 293.667 699 263 699 C171 699 112 647.333 112 546 C112 442.106 175.825 410.596 253 376 C358.635 328.464 418 298.255 418 183 C418 53.6667 345.333 -10 228 -10 C180 -10 129.667 1 83 17 L83 46 Z " /><g transform="translate(780,0)" ><path fill="black" d="M-588 -221 L-588 -213 C-572.216 -181.431 -549.184 -102.473 -544 -61 L-514 -61 L-514 -69 C-526 -118.333 -546.333 -174.333 -573 -221 L-588 -221 Z " /></g></glyph>
<glyph glyph-name="uni0219" unicode="&#x219;" horiz-adv-x="530" >
<path fill="black" d="M107 53 C148.333 30.3333 193.333 16 244 16 C337.333 16 377 58 377 130 C377 204.335 323.394 226.433 255 258 C176.875 295.716 117 318.789 117 408 C117 484 171 537 271 537 C319 537 361.333 526.333 396 509 L384 485 C353.333 502.333 311.333 512 270 512 C194 512 143 477.667 143 407 C143 336.691 192.652 317.674 262 283 C336.038 248.625 404 221.296 404 129 C404 43.6667 352 -10 244 -10 C184 -10 137.667 7 107 23 L107 53 Z " /><g transform="translate(788,0)" ><path fill="black" d="M-588 -221 L-588 -213 C-572.216 -181.431 -549.184 -102.473 -544 -61 L-514 -61 L-514 -69 C-526 -118.333 -546.333 -174.333 -573 -221 L-588 -221 Z " /></g></glyph>
<glyph glyph-name="uni021A" unicode="&#x21a;" horiz-adv-x="530" >
<path fill="black" d="M236 0 L236 689 L45 689 L45 714 L455 714 L455 689 L262 689 L262 0 L236 0 Z " /><g transform="translate(780,0)" ><path fill="black" d="M-588 -221 L-588 -213 C-572.216 -181.431 -549.184 -102.473 -544 -61 L-514 -61 L-514 -69 C-526 -118.333 -546.333 -174.333 -573 -221 L-588 -221 Z " /></g></glyph>
<glyph glyph-name="uni021B" unicode="&#x21b;" horiz-adv-x="530" >
<path fill="black" d="M215 503 L84 503 L84 524 L214 528 L219 659 L241 659 L241 528 L418 528 L418 503 L241 503 L241 183 C241 75 265.667 15 351 15 C384.333 15 407.333 20 430 28 L430 3 C407.333 -3.66667 385.667 -10 351 -10 C245.926 -10 215 61.645 215 180 L215 503 Z " /><g transform="translate(853,0)" ><path fill="black" d="M-588 -221 L-588 -213 C-572.216 -181.431 -549.184 -102.473 -544 -61 L-514 -61 L-514 -69 C-526 -118.333 -546.333 -174.333 -573 -221 L-588 -221 Z " /></g></glyph>
<glyph glyph-name="uni0237" unicode="&#x237;" horiz-adv-x="500" d="M50 -201 C69.5731 -209.388 125.92 -222 164 -222 C242.667 -222 280 -169 280 -81 L280 503 L111 507 L111 528 L306 528 L306 -88 C306 -196 249.333 -248 164 -248 C116.88 -248 65.1906 -233.064 50 -228 L50 -201 Z " />
<glyph glyph-name="circumflex" unicode="&#x2c6;" horiz-adv-x="530" d="M135 606 L135 613 C164.081 650.013 213.206 720.699 237 763 L263 763 C287.545 719.365 340.288 643.203 365 613 L365 606 L347 606 C313.667 642 278 693.333 250 732 C223.333 694.667 185 640.667 153 606 L135 606 Z " />
<glyph glyph-name="caron" unicode="&#x2c7;" horiz-adv-x="530" d="M238 606 C211.022 651.863 166.73 721.865 137 757 L137 763 L155 763 C187 728.333 222.333 679.333 249 638 C276.333 680 308.333 721.667 345 763 L363 763 L363 757 C331.445 714.926 284.651 650.674 261 606 L238 606 Z " />
<glyph glyph-name="uni02C9" unicode="&#x2c9;" horiz-adv-x="530" >
<path fill="black" d="M136 640 L364 640 L364 616 L136 616 L136 640 Z " /></glyph>
<glyph glyph-name="breve" unicode="&#x2d8;" horiz-adv-x="530" d="M163 716 C167 665.333 195.333 632 250 632 C306 632 333 665.333 337 716 L361 716 C355.667 648 315.333 608 250 608 C186 608 143 644 139 716 L163 716 Z " />
<glyph glyph-name="dotaccent" unicode="&#x2d9;" horiz-adv-x="530" d="M251 660 C225.667 660 219 677 219 697 C219 715.667 224.333 734 251 734 C275 734 281 715.667 281 697 C281 678.333 277.667 660 251 660 Z " />
<glyph glyph-name="ring" unicode="&#x2da;" horiz-adv-x="530" d="M156 707 C156 764.333 198 800 250 800 C302 800 344 763.333 344 706 C344 650 303 614 251 614 C200.333 614 156 647 156 707 Z M180 707 C180 667 207 636 251 636 C293.667 636 320 664.667 320 706 C320 748.667 290.333 777 249 777 C207.667 777 180 748.333 180 707 Z " />
<glyph glyph-name="ogonek" unicode="&#x2db;" horiz-adv-x="530" d="M309 -210 C298.333 -214.667 285 -217 269 -217 C222.333 -217 190 -190 190 -138 C190 -87.3333 220.667 -38 282 10 L301 0 C251.667 -42.6667 217 -83 217 -135 C217 -173.667 234.667 -193 270 -193 C283.333 -193 301 -189.667 309 -187 L309 -210 Z " />
<glyph glyph-name="tilde" unicode="&#x2dc;" horiz-adv-x="530" d="M103 625 C108.333 689 139.333 718 182 718 C242.569 718 265.569 648 315 648 C343 648 366.667 667.333 372 718 L395 718 C392.333 654 357.667 624 315 624 C252.895 624 231.34 694 181 694 C155.667 694 131 677 127 625 L103 625 Z " />
<glyph glyph-name="hungarumlaut" unicode="&#x2dd;" horiz-adv-x="530" d="M160 606 L160 613 C197.089 655.387 243.979 726.585 265 766 L294 766 L294 759 C272.047 720.582 219.253 648.936 179 606 L160 606 Z M295 606 L295 613 C332.089 655.387 378.979 726.585 400 766 L429 766 L429 759 C407.047 720.582 354.253 648.936 314 606 L295 606 Z " />
<glyph glyph-name="uni0394" unicode="&#x394;" horiz-adv-x="530" d="M20 19 L236 714 L264 714 L480 19 L480 0 L20 0 L20 19 Z M450 25 L294 534 C278.265 586.45 258.031 651.199 250 686 C240.667 646 221.667 585.333 207 536 L49 25 L450 25 Z " />
<glyph glyph-name="uni03A9" unicode="&#x3a9;" horiz-adv-x="530" d="M30 25 L173 25 C103.469 83.8342 50 188.815 50 380 C50 620 125.667 725 251 725 C373.797 725 450 629.364 450 377 C450 185.147 399.927 80.9435 328 25 L470 25 L470 0 L284 0 L284 20 C380 80 423 192.667 423 378 C423 611.022 355.97 700 251 700 C145.667 700 77 605.667 77 383 C77 187.643 134.728 78.1327 214 20 L214 0 L30 0 L30 25 Z " />
<glyph glyph-name="uni03BC" unicode="&#x3bc;" horiz-adv-x="530" >
<path fill="black" d="M80 528 L106 528 L106 177 C106 63.6667 154 15 234 15 C324.667 15 389 81.6667 389 227 L389 528 L415 528 L415 0 L395 0 L392 112 L390 112 C371.08 52.5357 327.472 -10 233 -10 C173.667 -10 131.333 11 106 53 L106 -240 L80 -240 L80 528 Z " /></glyph>
<glyph glyph-name="pi" unicode="&#x3c0;" horiz-adv-x="530" d="M109 504 L19 504 L19 523 L84 528 L480 528 L480 504 L387 504 L387 99 C387 41.6667 401.667 17 447 17 C461.667 17 471.667 19.3333 481 22 L481 -3 C474.333 -5.66667 460.667 -8 442 -8 C388 -8 361 25.3333 361 92 L361 504 L135 504 L135 0 L109 0 L109 504 Z " />
<glyph glyph-name="Wgrave" unicode="&#x1e80;" horiz-adv-x="530" >
<path fill="black" d="M146 29 C152.667 70.3333 157 109.667 165 151 L237 528 L263 528 L334 151 C342 108.333 348.333 68.6667 355 26 L357 26 C361 72.6667 364.333 108.333 371 151 C396.333 340.333 421.667 524.667 447 714 L475 714 L373 0 L337 0 L267 375 C260.333 409.667 257.333 432.333 252 475 L250 475 C243.333 432.333 239.667 411 233 375 L163 0 L125 0 L25 714 L52 714 C77.3333 524.667 105.333 341.667 128 151 C133.333 109.667 138.667 75.6667 144 29 L146 29 Z " /><g transform="translate(-26,186)" ><path fill="black" d="M156 765 L186 765 C218 715.667 270.333 657.667 313 615 L313 606 L294 606 C248.389 646.245 189.969 710.966 156 758 L156 765 Z " /></g></glyph>
<glyph glyph-name="wgrave" unicode="&#x1e81;" horiz-adv-x="530" >
<path fill="black" d="M143 45 C149.667 73 159.333 110.667 174 160 L244 407 L267 407 L335 157 C347 113 357.333 77.3333 364 44 L366 44 C373.883 88.6718 378.871 106.229 387 155 L460 528 L486 528 L377 -1 L355 -1 L281 270 C271.667 304.667 262.667 335 256 367 L254 367 C247.333 335 238.333 301 229 269 L152 -1 L129 -1 L14 528 L41 528 L118 158 C128.667 107.333 134.333 78.3333 141 45 L143 45 Z " /><g transform="translate(-20,0)" ><path fill="black" d="M156 765 L186 765 C218 715.667 270.333 657.667 313 615 L313 606 L294 606 C248.389 646.245 189.969 710.966 156 758 L156 765 Z " /></g></glyph>
<glyph glyph-name="Wacute" unicode="&#x1e82;" horiz-adv-x="530" >
<path fill="black" d="M146 29 C152.667 70.3333 157 109.667 165 151 L237 528 L263 528 L334 151 C342 108.333 348.333 68.6667 355 26 L357 26 C361 72.6667 364.333 108.333 371 151 C396.333 340.333 421.667 524.667 447 714 L475 714 L373 0 L337 0 L267 375 C260.333 409.667 257.333 432.333 252 475 L250 475 C243.333 432.333 239.667 411 233 375 L163 0 L125 0 L25 714 L52 714 C77.3333 524.667 105.333 341.667 128 151 C133.333 109.667 138.667 75.6667 144 29 L146 29 Z " /><g transform="translate(-2,186)" ><path fill="black" d="M222 606 L222 615 C267.333 661.667 316.333 717 347 765 L377 765 L377 758 C342.881 710.758 286.412 646.952 240 606 L222 606 Z " /></g></glyph>
<glyph glyph-name="wacute" unicode="&#x1e83;" horiz-adv-x="530" >
<path fill="black" d="M143 45 C149.667 73 159.333 110.667 174 160 L244 407 L267 407 L335 157 C347 113 357.333 77.3333 364 44 L366 44 C373.883 88.6718 378.871 106.229 387 155 L460 528 L486 528 L377 -1 L355 -1 L281 270 C271.667 304.667 262.667 335 256 367 L254 367 C247.333 335 238.333 301 229 269 L152 -1 L129 -1 L14 528 L41 528 L118 158 C128.667 107.333 134.333 78.3333 141 45 L143 45 Z " /><g transform="translate(4,0)" ><path fill="black" d="M222 606 L222 615 C267.333 661.667 316.333 717 347 765 L377 765 L377 758 C342.881 710.758 286.412 646.952 240 606 L222 606 Z " /></g></glyph>
<glyph glyph-name="Wdieresis" unicode="&#x1e84;" horiz-adv-x="530" >
<g transform="translate(0,174)" ><path fill="black" d="M169 635 C150.333 635 143 651.333 143 670 C143 688.667 150.333 706 169 706 C189 706 197 688.667 197 670 C197 650 189 635 169 635 Z M329 635 C310.333 635 303 651.333 303 670 C303 688.667 310.333 706 329 706 C349 706 357 688.667 357 670 C357 650 349 635 329 635 Z " /></g><path fill="black" d="M146 29 C152.667 70.3333 157 109.667 165 151 L237 528 L263 528 L334 151 C342 108.333 348.333 68.6667 355 26 L357 26 C361 72.6667 364.333 108.333 371 151 C396.333 340.333 421.667 524.667 447 714 L475 714 L373 0 L337 0 L267 375 C260.333 409.667 257.333 432.333 252 475 L250 475 C243.333 432.333 239.667 411 233 375 L163 0 L125 0 L25 714 L52 714 C77.3333 524.667 105.333 341.667 128 151 C133.333 109.667 138.667 75.6667 144 29 L146 29 Z " /></glyph>
<glyph glyph-name="wdieresis" unicode="&#x1e85;" horiz-adv-x="530" >
<g transform="translate(6,-12)" ><path fill="black" d="M169 635 C150.333 635 143 651.333 143 670 C143 688.667 150.333 706 169 706 C189 706 197 688.667 197 670 C197 650 189 635 169 635 Z M329 635 C310.333 635 303 651.333 303 670 C303 688.667 310.333 706 329 706 C349 706 357 688.667 357 670 C357 650 349 635 329 635 Z " /></g><path fill="black" d="M143 45 C149.667 73 159.333 110.667 174 160 L244 407 L267 407 L335 157 C347 113 357.333 77.3333 364 44 L366 44 C373.883 88.6718 378.871 106.229 387 155 L460 528 L486 528 L377 -1 L355 -1 L281 270 C271.667 304.667 262.667 335 256 367 L254 367 C247.333 335 238.333 301 229 269 L152 -1 L129 -1 L14 528 L41 528 L118 158 C128.667 107.333 134.333 78.3333 141 45 L143 45 Z " /></glyph>
<glyph glyph-name="uni2010" unicode="&#x2010;" horiz-adv-x="500" >
<path fill="black" d="M125 290 L375 290 L375 265 L125 265 L125 290 Z " /></glyph>
<glyph glyph-name="endash" unicode="&#x2013;" horiz-adv-x="530" d="M75 290 L425 290 L425 265 L75 265 L75 290 Z " />
<glyph glyph-name="emdash" unicode="&#x2014;" horiz-adv-x="530" >
<g transform="translate(0,378)" ><path fill="black" d="M0 -88 L500 -88 L500 -113 L0 -113 L0 -88 Z " /></g></glyph>
<glyph glyph-name="quoteleft" unicode="&#x2018;" horiz-adv-x="530" >
<g transform="translate(-1,0)" ><path fill="black" d="M213 482 L206 492 C220.667 568 244 643.333 276 714 L295 714 C267 638 246.667 554 236 482 L213 482 Z " /></g></glyph>
<glyph glyph-name="quoteright" unicode="&#x2019;" horiz-adv-x="530" >
<g transform="translate(4,0)" ><path fill="black" d="M205 482 C233 559.333 253.667 642 263 714 L287 714 L294 704 C279.333 629.333 254.667 554 224 482 L205 482 Z " /></g></glyph>
<glyph glyph-name="quotesinglbase" unicode="&#x201a;" horiz-adv-x="530" >
<path fill="black" d="M208 -129 C237.333 -31.6667 253.333 40 264 116 L292 116 L295 104 C280.333 29.3333 258 -59.6667 230 -129 L208 -129 Z " /></glyph>
<glyph glyph-name="quotedblleft" unicode="&#x201c;" horiz-adv-x="530" >
<g transform="translate(-70,0)" ><path fill="black" d="M213 482 L206 492 C220.667 568 244 643.333 276 714 L295 714 C267 638 246.667 554 236 482 L213 482 Z " /></g><g transform="translate(68,0)" ><path fill="black" d="M213 482 L206 492 C220.667 568 244 643.333 276 714 L295 714 C267 638 246.667 554 236 482 L213 482 Z " /></g></glyph>
<glyph glyph-name="quotedblright" unicode="&#x201d;" horiz-adv-x="530" >
<g transform="translate(-69,0)" ><path fill="black" d="M205 482 C233 559.333 253.667 642 263 714 L287 714 L294 704 C279.333 629.333 254.667 554 224 482 L205 482 Z " /></g><g transform="translate(69,0)" ><path fill="black" d="M205 482 C233 559.333 253.667 642 263 714 L287 714 L294 704 C279.333 629.333 254.667 554 224 482 L205 482 Z " /></g></glyph>
<glyph glyph-name="quotedblbase" unicode="&#x201e;" horiz-adv-x="530" >
<g transform="translate(-70,0)" ><path fill="black" d="M208 -129 C237.333 -31.6667 253.333 40 264 116 L292 116 L295 104 C280.333 29.3333 258 -59.6667 230 -129 L208 -129 Z " /></g><g transform="translate(65,0)" ><path fill="black" d="M208 -129 C237.333 -31.6667 253.333 40 264 116 L292 116 L295 104 C280.333 29.3333 258 -59.6667 230 -129 L208 -129 Z " /></g></glyph>
<glyph glyph-name="dagger" unicode="&#x2020;" horiz-adv-x="530" d="M234 0 L239 535 L85 533 L85 559 L239 555 L234 760 L265 760 L259 555 L414 559 L414 533 L259 535 L265 0 L234 0 Z " />
<glyph glyph-name="daggerdbl" unicode="&#x2021;" horiz-adv-x="530" d="M230 0 L235 194 L85 190 L85 216 L235 214 L233 384 L235 546 L85 544 L85 570 L235 566 L230 760 L262 760 L256 566 L414 570 L414 544 L256 546 L258 384 L256 214 L414 216 L414 190 L256 194 L262 0 L230 0 Z " />
<glyph glyph-name="bullet" unicode="&#x2022;" horiz-adv-x="530" d="M250 278 C200.667 278 175 311.333 175 366 C175 420.667 199.333 452 250 452 C299.333 452 325 420.667 325 366 C325 312.667 300.667 278 250 278 Z " />
<glyph glyph-name="ellipsis" unicode="&#x2026;" horiz-adv-x="530" >
<path fill="black" d="M251 -12 C227 -12 221 4.33333 221 23 C221 41.6667 227 58 251 58 C273.667 58 279 41.6667 279 23 C279 4.33333 273.667 -12 251 -12 Z " /></glyph>
<glyph glyph-name="perthousand" unicode="&#x2030;" horiz-adv-x="530" d="M141 -167 C53 -167 14 -92.6667 14 58 C14 205.333 55.6667 279 139 279 C197 279 235 244 253 174 C271 244 308.667 279 366 279 C450 279 492 208.667 492 58 C492 -95.3333 448 -167 368 -167 C308.667 -167 270.333 -131.333 253 -60 C235 -131.333 197.667 -167 141 -167 Z M252 457 C164 457 125 531.333 125 682 C125 829.333 166.667 903 250 903 C334 903 376 832.667 376 682 C376 528.667 332 457 252 457 Z M141 -142 C206.333 -142 239 -79.3333 239 58 C239 196.667 205.667 255 139 255 C75 255 40 195.333 40 58 C40 -80.6667 74.3333 -142 141 -142 Z M368 -142 C433.333 -142 466 -79.3333 466 58 C466 196.667 432.667 255 366 255 C302 255 267 195.333 267 58 C267 -80.6667 301.333 -142 368 -142 Z M252 482 C317.333 482 350 544.667 350 682 C350 820.667 316.667 879 250 879 C186 879 151 819.333 151 682 C151 543.333 185.333 482 252 482 Z M48 350 L443 400 L443 381 L48 331 L48 350 Z " />
<glyph glyph-name="guilsinglleft" unicode="&#x2039;" horiz-adv-x="530" d="M314 83 L169 260 L169 272 L314 451 L329 439 L205 267 L331 93 L314 83 Z " />
<glyph glyph-name="guilsinglright" unicode="&#x203a;" horiz-adv-x="530" d="M295 292 L169 466 L186 476 L331 299 L331 287 L186 108 L171 120 L295 292 Z " />
<glyph glyph-name="fraction" unicode="&#x2044;" horiz-adv-x="530" d="M48 350 L443 400 L443 381 L48 331 L48 350 Z " />
<glyph glyph-name="franc" unicode="&#x20a3;" horiz-adv-x="530" d="M139 155 L50 155 L50 180 L139 180 L139 714 L420 714 L420 689 L165 689 L165 354 L401 354 L401 329 L165 329 L165 180 L303 180 L303 155 L165 155 L165 0 L139 0 L139 155 Z " />
<glyph glyph-name="lira" unicode="&#x20a4;" horiz-adv-x="530" d="M453 25 L453 0 L61 0 L61 23 C142.661 44.0738 163 104.225 163 256 L68 256 L68 281 L163 281 L163 409 L68 409 L68 434 L163 434 L163 532 C163 652 208 724 316 724 C366.667 724 402 711 434 691 L422 669 C384.667 691.667 354.667 699 316 699 C228 699 189 645.667 189 527 L189 434 L348 434 L348 409 L189 409 L189 281 L348 281 L348 256 L189 256 C189 114.78 171.912 54.2872 116 25 L453 25 Z " />
<glyph glyph-name="peseta" unicode="&#x20a7;" horiz-adv-x="530" d="M40 0 L40 714 L108 714 C238.667 714 306 656.333 306 511 C306 365.667 239.333 302 102 302 L67 302 L67 0 L40 0 Z M363 307 L289 307 L289 327 L362 333 L370 441 L389 441 L389 332 L500 332 L500 307 L389 307 L389 114 C389 43.3333 404.333 15 463 15 C475 15 487.333 17 500 21 L500 -4 C487.333 -8 474 -10 460 -10 C388 -10 363 26.3333 363 105 L363 307 Z M67 327 L97 327 C227.667 327 279 386.667 279 512 C279 641.333 223.667 689 105 689 L67 689 L67 327 Z " />
<glyph glyph-name="Euro" unicode="&#x20ac;" horiz-adv-x="530" d="M31 291 L111 291 C109.667 309.667 109 331.333 109 354 C109 374 108.667 395.333 110 410 L31 410 L31 435 L112 435 C125.329 600.278 197.029 725 333 725 C379.667 725 415.333 716.667 450 694 L438 672 C404.667 692 371.667 700 333 700 C218.283 700 154.998 586.984 139 435 L354 435 L354 410 L137 410 C135.667 395.333 136 375.667 136 357 C136 331.667 136.667 309.667 138 291 L347 291 L347 266 L140 266 C155.987 119.45 213.352 15 338 15 C376.667 15 409.667 25 443 41 L443 13 C412.333 -1.66667 378.667 -10 336 -10 C204 -10 131.667 90 113 266 L31 266 L31 291 Z " />
<glyph glyph-name="uni2113" unicode="&#x2113;" horiz-adv-x="530" d="M174 300 C151.333 290.667 125.333 280 92 272 L92 297 C122 305 149.333 315.333 174 328 L174 577 C174 679.667 209 724 269 724 C334.333 724 367 676 367 584 C367 466.667 312 370.667 200 312 L200 156 C200 60 227.667 17 289 17 C353 17 378.333 63.3333 381 138 L408 138 C402.667 48.6667 372 -9 288 -9 C208 -9 174 46.3333 174 145 L174 300 Z M200 340 C296 396 340 481.333 340 584 C340 662.667 313 699 269 699 C226.333 699 200 665.667 200 575 L200 340 Z " />
<glyph glyph-name="trademark" unicode="&#x2122;" horiz-adv-x="530" d="M228 373 L228 714 L265 714 L354 517 L446 714 L480 714 L480 373 L454 373 L454 552 C454 600 453.667 631 455 675 L453 675 L363 482 L345 482 L255 680 L253 680 C254.333 638.667 254 606 254 558 L254 373 L228 373 Z M81 373 L81 689 L-20 689 L-20 714 L208 714 L208 689 L107 689 L107 373 L81 373 Z " />
<glyph glyph-name="Omega" unicode="&#x2126;" horiz-adv-x="530" >
<path fill="black" d="M30 25 L173 25 C103.469 83.8342 50 188.815 50 380 C50 620 125.667 725 251 725 C373.797 725 450 629.364 450 377 C450 185.147 399.927 80.9435 328 25 L470 25 L470 0 L284 0 L284 20 C380 80 423 192.667 423 378 C423 611.022 355.97 700 251 700 C145.667 700 77 605.667 77 383 C77 187.643 134.728 78.1327 214 20 L214 0 L30 0 L30 25 Z " /></glyph>
<glyph glyph-name="estimated" unicode="&#x212e;" horiz-adv-x="530" d="M115 83 C141.667 52.3333 187.667 25 253 25 C346.333 25 400.667 75.3333 442 142 L478 119 C429.597 43.7065 371.434 -17 254 -17 C86.0519 -17 0 110.896 0 263 C0 450.636 131.281 535 254 535 C388.978 535 500 429.563 500 259 L115 259 L115 83 Z M115 301 L387 301 L387 436 C364.333 462.667 314 494 254 494 C190 494 145.667 469 115 437 L115 301 Z " />
<glyph glyph-name="uni2219" unicode="&#x2219;" horiz-adv-x="500" >
<g transform="translate(0,282)" ><path fill="black" d="M251 -12 C227 -12 221 4.33333 221 23 C221 41.6667 227 58 251 58 C273.667 58 279 41.6667 279 23 C279 4.33333 273.667 -12 251 -12 Z " /></g></glyph>
<glyph glyph-name="radical" unicode="&#x221a;" horiz-adv-x="530" d="M471 801 L500 801 L242 -7 L213 -7 L94 393 L10 393 L10 417 L113 417 L228 31 L471 801 Z " />
<glyph glyph-name="infinity" unicode="&#x221e;" horiz-adv-x="530" d="M129 204 C59.6667 204 9 265.333 9 356 C9 449.333 64.1255 504 127 504 C195.249 504 226.32 439.886 250 382 C274.405 436.234 305.949 505 374 505 C435.333 505 490 449.874 490 355 C490 258.948 434.874 205 372 205 C303.905 205 274.502 269.55 251 327 C216.333 247 186.333 204 129 204 Z M128 228 C186.667 228 209.701 289.411 239 356 C208.333 432 181.667 480 127 480 C75 480 35 436 35 356 C35 276 76 228 128 228 Z M373 229 C427.667 229 464 280.333 464 355 C464 431 424 481 372 481 C321.333 481 296.667 435.333 262 354 C291.743 283.698 316.556 229 373 229 Z " />
<glyph glyph-name="approxequal" unicode="&#x2248;" horiz-adv-x="530" >
<g transform="translate(0,99)" ><path fill="black" d="M449 356 C426.333 330.667 389.667 311 347 311 C269.895 311 229.34 371 156 371 C118.667 371 84.3333 353.667 51 311 L51 343 C77.6667 373.667 113.333 396 156 396 C201.333 396 227 383.667 259 365 C289.667 347.667 312.333 336 347 336 C381.667 336 417 349.667 449 387 L449 356 Z " /></g><g transform="translate(0,-92)" ><path fill="black" d="M449 356 C426.333 330.667 389.667 311 347 311 C269.895 311 229.34 371 156 371 C118.667 371 84.3333 353.667 51 311 L51 343 C77.6667 373.667 113.333 396 156 396 C201.333 396 227 383.667 259 365 C289.667 347.667 312.333 336 347 336 C381.667 336 417 349.667 449 387 L449 356 Z " /></g></glyph>
<glyph glyph-name="lessequal" unicode="&#x2264;" horiz-adv-x="530" d="M50 348 L50 368 L449 566 L449 539 L81 358 L449 164 L449 137 L50 348 Z M56 -1 L56 24 L449 24 L449 -1 L56 -1 Z " />
<glyph glyph-name="greaterequal" unicode="&#x2265;" horiz-adv-x="530" d="M50 164 L418 358 L50 539 L50 566 L449 368 L449 348 L50 137 L50 164 Z M50 24 L444 24 L444 -1 L50 -1 L50 24 Z " />
</font>
</svg>
