<?xml version="1.0" encoding="UTF-8"?>
<svg xmlns="http://www.w3.org/2000/svg" xmlns:xlink="http://www.w3.org/1999/xlink" version="1.1" >
<font id="Monoto-2ExCd200ExLt" horiz-adv-x="371">
<font-face  font-family="Monoto 2 ExCd" units-per-em="1000" ascent="955" descent="-235" font-style="normal" font-weight="100" font-stretch="extra-condensed" cap-height="714" x-height="530" underline-position="-75" underline-thickness="50" />
<missing-glyph horiz-adv-x="375" d="M34 0 L34 714 L311 714 L311 0 L34 0 Z M277 51 L277 663 L68 663 L68 51 L277 51 Z " />
<glyph glyph-name="uni0000" horiz-adv-x="375" />
<glyph glyph-name="uni000D" unicode="&#xd;" horiz-adv-x="375" />
<glyph glyph-name="space" unicode="&#x20;" horiz-adv-x="375" />
<glyph glyph-name="exclam" unicode="&#x21;" horiz-adv-x="375" d="M158 181 L152 714 L196 714 L190 181 L158 181 Z M173 -12 C154.333 -12 144 5.33333 144 32 C144 57.3333 153 74 173 74 C194.333 74 203 57.3333 203 32 C203 5.33333 194.333 -12 173 -12 Z " />
<glyph glyph-name="quotedbl" unicode="&#x22;" horiz-adv-x="375" >
<g transform="translate(-54,0)" ><path fill="black" d="M158 456 L151 714 L193 714 L187 456 L158 456 Z " /></g><g transform="translate(55,0)" ><path fill="black" d="M158 456 L151 714 L193 714 L187 456 L158 456 Z " /></g></glyph>
<glyph glyph-name="numbersign" unicode="&#x23;" horiz-adv-x="375" d="M69 0 L90 227 L21 227 L21 262 L94 262 L112 465 L40 465 L40 500 L116 500 L137 714 L167 714 L146 500 L225 500 L245 714 L274 714 L255 500 L323 500 L323 465 L251 465 L233 262 L305 262 L305 227 L229 227 L207 0 L177 0 L199 227 L119 227 L98 0 L69 0 Z M203 262 L221 465 L142 465 L124 262 L203 262 Z " />
<glyph glyph-name="dollar" unicode="&#x24;" horiz-adv-x="375" d="M60 102 C86.6667 83.3333 128.333 67.6667 167 65 L167 349 C97.9523 391.491 56 433.602 56 533 C56 629 101.667 685.333 167 692 L167 760 L191 760 L191 694 C225 692 257.667 680 289 658 L277 623 C249 644.333 220.333 655.333 191 656 L191 377 C265.617 331.697 306 287.232 306 194 C306 98 263 40.6667 191 30 L191 -58 L167 -58 L167 29 C124.333 30.3333 86.6667 43.6667 60 61 L60 102 Z M191 67 C241.667 73.6667 274 116 274 192 C274 264 245.667 297.333 191 336 L191 67 Z M90 534 C90 454.826 118.719 422.188 167 390 L167 656 C121.667 649.333 90 608.667 90 534 Z " />
<glyph glyph-name="percent" unicode="&#x25;" horiz-adv-x="375" d="M21 168 L282 545 L321 545 L59 168 L21 168 Z M248 -9 C188 -9 154 59.3333 154 162 C154 262 185.333 330 248 330 C308 330 341 262 341 162 C341 59.3333 308 -9 248 -9 Z M97 383 C37 383 3 451.333 3 554 C3 654 34.3333 722 97 722 C157 722 190 654 190 554 C190 451.333 157 383 97 383 Z M248 23 C289.333 23 308 78 308 162 C308 243.333 289.333 298 248 298 C205.333 298 187 244.667 187 162 C187 78 205.333 23 248 23 Z M97 415 C138.333 415 157 470 157 554 C157 635.333 138.333 690 97 690 C54.3333 690 36 636.667 36 554 C36 470 54.3333 415 97 415 Z " />
<glyph glyph-name="ampersand" unicode="&#x26;" horiz-adv-x="375" d="M289 0 L254 78 C226 24.6667 188.667 -10 138 -10 C68.6667 -10 29 62.3333 29 173 C29 270.333 62.3333 332.667 113 390 C83.6667 456.667 62 514.333 62 581 C62 669 95.6667 725 149 725 C199.667 725 232 673.333 232 580 C232 492 195.667 432.667 153 382 L252 166 C266.667 215.333 275.333 272.333 278 323 L312 323 C306.667 251 294.667 181 272 121 L328 0 L289 0 Z M129 355 C90.3333 307 65 251.667 65 173 C65 81 97 27 141 27 C179.667 27 212.333 64.3333 235 119 L129 355 Z M137 417 C171.667 457 200 509 200 581 C200 649 181 689 149 689 C114.333 689 95 648.667 95 582 C95 522 114.333 469 137 417 Z " />
<glyph glyph-name="quotesingle" unicode="&#x27;" horiz-adv-x="375" d="M158 456 L151 714 L193 714 L187 456 L158 456 Z " />
<glyph glyph-name="parenleft" unicode="&#x28;" horiz-adv-x="375" d="M216 -159 C153.333 -45.6667 119 98.3333 119 273 C119 449 154.667 603.333 216 714 L250 714 C186 591.333 156 440.667 156 274 C156 110 186 -37.6667 250 -159 L216 -159 Z " />
<glyph glyph-name="parenright" unicode="&#x29;" horiz-adv-x="375" d="M79 -159 C143 -36.3333 173 114.333 173 281 C173 445 143 592.667 79 714 L113 714 C175.667 600.667 210 456.667 210 282 C210 106 174.333 -48.3333 113 -159 L79 -159 Z " />
<glyph glyph-name="asterisk" unicode="&#x2a;" horiz-adv-x="375" d="M150 579 L56 617 L64 654 L157 604 L152 760 L189 760 L182 604 L276 655 L283 617 L190 579 L254 452 L225 430 L170 563 L114 430 L85 451 L150 579 Z " />
<glyph glyph-name="plus" unicode="&#x2b;" horiz-adv-x="375" d="M154 122 L154 334 L38 334 L38 370 L154 370 L154 584 L186 584 L186 370 L301 370 L301 334 L186 334 L186 122 L154 122 Z " />
<glyph glyph-name="comma" unicode="&#x2c;" horiz-adv-x="375" d="M129 -130 C146.333 -36.6667 157.333 40 164 116 L204 116 L207 104 C196.333 28 179 -59.3333 159 -130 L129 -130 Z " />
<glyph glyph-name="hyphen" unicode="&#x2d;" horiz-adv-x="375" d="M88 295 L257 295 L257 256 L88 256 L88 295 Z " />
<glyph glyph-name="period" unicode="&#x2e;" horiz-adv-x="375" d="M172 -12 C153.333 -12 143 5.33333 143 32 C143 57.3333 152 74 172 74 C193.333 74 202 57.3333 202 32 C202 5.33333 193.333 -12 172 -12 Z " />
<glyph glyph-name="slash" unicode="&#x2f;" horiz-adv-x="375" d="M49 -1 L230 715 L265 715 L86 -1 L49 -1 Z " />
<glyph glyph-name="zero" unicode="0" horiz-adv-x="375" d="M172 -9 C80 -9 37 126 37 358 C37 576.589 71.6667 725 173 725 C270.723 725 308 575.918 308 359 C308 128.697 269.593 -9 172 -9 Z M250 594 C235.333 654 211.667 687 173 687 C101.156 687 75 556.333 75 359 C75 285.667 79.3333 224.667 86 174 L250 594 Z M99 114 C115.667 57.3333 140.333 29 173 29 C242.333 29 269 148.333 269 359 C269 424.333 267.667 481 261 529 L99 114 Z " />
<glyph glyph-name="one" unicode="1" horiz-adv-x="375" d="M80 30 L165 35 L165 534 C165 584.667 166 629.667 166 667 C155.333 652.333 146.333 642 133 626 L74 555 L54 586 L171 714 L205 714 L205 35 L288 30 L288 0 L80 0 L80 30 Z " />
<glyph glyph-name="two" unicode="2" horiz-adv-x="375" d="M45 35 L159 256 C211.804 356.328 247 427.541 247 536 C247 636 215.667 686 165 686 C130.333 686 97.6667 664 71 632 L51 661 C84.3333 701 122.667 724 168 724 C240 724 286 656.667 286 538 C286 417.96 244.957 338.216 191 233 L96 42 L96 39 L301 39 L301 0 L45 0 L45 35 Z " />
<glyph glyph-name="three" unicode="3" horiz-adv-x="375" d="M43 68 C73.6667 45.3333 112.333 28 151 28 C224.333 28 259 90.3333 259 193 C259 309 212.667 352 142 352 L105 352 L105 390 L143 390 C205.667 390 250 446 250 550 C250 639.333 217.333 687 164 687 C128.667 687 95.3333 667.333 64 628 L46 659 C76.6667 697.667 116.667 724 166 724 C242 724 291 659 291 551 C291 455 254 392.333 202 375 L202 372 C266 356 301 297.333 301 192 C301 72.9177 250.745 -10 152 -10 C113.333 -10 75 4.33333 43 27 L43 68 Z " />
<glyph glyph-name="four" unicode="4" horiz-adv-x="375" d="M33 215 L209 718 L253 718 L253 218 L311 218 L311 179 L253 179 L253 0 L215 0 L215 179 L33 179 L33 215 Z M215 218 L215 528 C215 588 216 627.333 216 666 C205.333 630 195 595.667 183 561 L72 218 L215 218 Z " />
<glyph glyph-name="five" unicode="5" horiz-adv-x="375" d="M49 70 C75.6667 46 110.667 28 148 28 C220 28 258 102.667 258 220 C258 326.667 225.667 391 155 391 C125.667 391 98.3333 381.667 77 371 L58 389 L75 714 L271 714 L271 675 L109 675 L96 413 C114.667 419.667 137.667 429 167 429 C249.667 429 299 354 299 222 C299 82.3636 245.052 -10 149 -10 C106.333 -10 73 4.33333 49 27 L49 70 Z " />
<glyph glyph-name="six" unicode="6" horiz-adv-x="375" d="M81 337 C94.082 384.095 127.392 440 185 440 C257 440 300 356.333 300 223 C300 81.6667 253.667 -11 175 -11 C85.6667 -11 41 109.667 41 307 C41 593.667 104.667 723 218 723 C238 723 257.333 719 272 711 L272 673 C256 681.667 238.333 686 219 686 C129 686 82.3333 569.667 79 337 L81 337 Z M175 26 C229.667 26 261 96.3333 261 223 C261 333.667 235.667 404 177 404 C120.082 404 83 330.463 83 245 C83 167.537 102.03 26 175 26 Z " />
<glyph glyph-name="seven" unicode="7" horiz-adv-x="375" d="M94 0 L257 675 L38 675 L38 714 L299 714 L299 681 L136 0 L94 0 Z " />
<glyph glyph-name="eight" unicode="8" horiz-adv-x="375" d="M170 -10 C94 -10 42 61.3333 42 176 C42 280 79.3333 337.667 138 379 C88.6667 419 56 469.667 56 559 C56 663 104 724 172 724 C242.667 724 290 664 290 560 C290 469.333 256.333 420.333 203 379 C265.667 332.333 303 277.333 303 180 C303 64 250 -10 170 -10 Z M172 28 C229.333 28 264 87 264 179 C264 260.038 239.318 304.013 170 360 C116.667 320 81 269.667 81 175 C81 83 116 28 172 28 Z M172 398 C220 435.333 251 477.667 251 559 C251 641.667 222.667 686 172 686 C125.333 686 94 639 94 559 C94 480.333 122.667 438 172 398 Z " />
<glyph glyph-name="nine" unicode="9" horiz-adv-x="375" d="M69 42 C83.6667 32.6667 104 28 124 28 C210.667 28 261.333 146.667 264 372 L262 372 C246.026 326.74 216.439 274 158 274 C84.6667 274 43 356.667 43 490 C43 635.333 88 725 168 725 C257.749 725 302 601.866 302 409 C302 125 239.667 -10 125 -10 C103.667 -10 83.6667 -6 69 2 L69 42 Z M165 310 C222.074 310 261 380.303 261 470 C261 546.13 241.97 687 169 687 C113 687 82 615.333 82 490 C82 379.333 109 310 165 310 Z " />
<glyph glyph-name="colon" unicode="&#x3a;" horiz-adv-x="375" d="M173 -12 C151.667 -12 143 5.33333 143 32 C143 57.3333 151.667 74 173 74 C191.667 74 201 57.3333 201 32 C201 5.33333 191.667 -12 173 -12 Z M173 450 C151.667 450 143 467.333 143 494 C143 519.333 151.667 536 173 536 C191.667 536 201 519.333 201 494 C201 467.333 191.667 450 173 450 Z " />
<glyph glyph-name="semicolon" unicode="&#x3b;" horiz-adv-x="375" d="M120 -130 C138.667 -31.3333 148.667 35.3333 154 110 L194 110 L197 98 C186.333 27.3333 170 -58 150 -130 L120 -130 Z M172 452 C153.333 452 144 467.333 144 494 C144 519.333 153.333 536 172 536 C190.667 536 200 520.667 200 494 C200 466 190.667 452 172 452 Z " />
<glyph glyph-name="less" unicode="&#x3c;" horiz-adv-x="375" d="M31 348 L31 375 L294 573 L294 533 L74 362 L294 181 L294 140 L31 348 Z " />
<glyph glyph-name="equal" unicode="&#x3d;" horiz-adv-x="375" d="M37 268 L307 268 L307 229 L37 229 L37 268 Z M37 476 L307 476 L307 437 L37 437 L37 476 Z " />
<glyph glyph-name="greater" unicode="&#x3e;" horiz-adv-x="375" d="M40 181 L260 362 L40 533 L40 573 L303 375 L303 348 L40 140 L40 181 Z " />
<glyph glyph-name="question" unicode="&#x3f;" horiz-adv-x="375" d="M133 181 L133 200 C133 286.211 144.282 321.917 179 378 C216.169 439.064 238 477.237 238 558 C238 646 208.667 686 162 686 C132.667 686 108.667 674.333 82 653 L68 688 C98.6667 710.667 127.667 724 165 724 C234.333 724 276 668.333 276 559 C276 461.98 247.769 416.794 207 357 C173.117 304.872 165 268.942 165 197 L165 181 L133 181 Z M149 -12 C130.333 -12 120 5.33333 120 32 C120 57.3333 129 74 149 74 C170.333 74 179 57.3333 179 32 C179 5.33333 170.333 -12 149 -12 Z " />
<glyph glyph-name="at" unicode="&#x40;" horiz-adv-x="375" d="M287 -49 C255 -75.6667 221.333 -89 186 -89 C66.9437 -89 3 58.4416 3 294 C3 560.693 76.4372 713 183 713 C281.823 713 341 576.442 341 356 C341 225.411 319.974 113 272 113 C245.333 113 226.667 144.333 224 195 L222 195 C211.333 141.667 187 113 159 113 C115 113 89 178.333 89 289 C89 422.281 126.996 515 190 515 C212 515 232 508 250 494 L245 333 C243.667 313 243 279.667 243 257 C243 182.333 252.333 145 271 145 C300.229 145 311 232.433 311 354 C311 554.156 268.286 680 184 680 C93.2035 680 33 538.359 33 293 C33 77 86.1818 -55 186 -55 C220 -55 253.667 -41.3333 287 -14 L287 -49 Z M219 469 C210.333 477.667 200.333 482 189 482 C146.333 482 121 410.333 121 289 C121 198.333 136 145 164 145 C194.667 145 210 199 214 323 L219 469 Z " />
<glyph glyph-name="A" unicode="A" horiz-adv-x="375" d="M147 715 L196 715 L328 0 L290 0 L244 263 L100 263 L55 0 L16 0 L147 715 Z M238 301 L188 585 C182.667 615.667 177.667 644.667 171 678 C167 647.333 161.333 617 156 585 L107 301 L238 301 Z " />
<glyph glyph-name="B" unicode="B" horiz-adv-x="375" d="M59 0 L59 714 L160 714 C254 714 301 657.667 301 545 C301 457 272.667 392.667 222 378 L222 375 C282 357 312 299 312 201 C312 67.6667 258 0 170 0 L59 0 Z M95 38 L165 38 C235.667 38 273 91.3333 273 202 C273 315.333 233.333 356 160 356 L95 356 L95 38 Z M95 394 L159 394 C228.333 394 263 443 263 541 C263 634.333 231.333 676 154 676 L95 676 L95 394 Z " />
<glyph glyph-name="C" unicode="C" horiz-adv-x="375" d="M312 17 C285.333 1 253.667 -10 215 -10 C102.922 -10 38 133.952 38 359 C38 560.126 98.9221 725 219 725 C257.667 725 290 713.667 322 691 L307 655 C280.333 679 251.333 686 222 686 C123.281 686 76 536.563 76 358 C76 161.688 127.281 28 218 28 C256.667 28 285.333 42.3333 312 57 L312 17 Z " />
<glyph glyph-name="D" unicode="D" horiz-adv-x="375" d="M41 0 L41 714 L145 714 C259.667 714 315 595 315 363 C315 123 259.667 0 141 0 L41 0 Z M79 39 L137 39 C234.333 39 276 149 276 361 C276 567.667 239.333 675 138 675 L79 675 L79 39 Z " />
<glyph glyph-name="E" unicode="E" horiz-adv-x="375" d="M289 39 L289 0 L58 0 L58 714 L289 714 L289 675 L96 675 L96 394 L277 394 L277 355 L96 355 L96 39 L289 39 Z " />
<glyph glyph-name="F" unicode="F" horiz-adv-x="375" d="M58 0 L58 714 L289 714 L289 675 L96 675 L96 362 L279 362 L279 323 L96 323 L96 0 L58 0 Z " />
<glyph glyph-name="G" unicode="G" horiz-adv-x="375" d="M267 319 L186 319 L186 358 L303 358 L303 24 C273 1.33333 238.667 -10 200 -10 C78.9784 -10 30 142.866 30 358 C30 572.848 82.2597 725 198 725 C232.667 725 269 714.333 297 681 L282 648 C255.333 678.667 229 686 201 686 C106.619 686 68 553.182 68 361 C68 166.463 106.667 28 200 28 C226.667 28 251 37.6667 267 51 L267 319 Z " />
<glyph glyph-name="H" unicode="H" horiz-adv-x="375" d="M41 0 L41 714 L79 714 L79 393 L267 393 L267 714 L304 714 L304 0 L267 0 L267 354 L79 354 L79 0 L41 0 Z " />
<glyph glyph-name="I" unicode="I" horiz-adv-x="375" d="M70 30 L153 35 L153 678 L70 684 L70 714 L274 714 L274 684 L191 678 L191 35 L274 30 L274 0 L70 0 L70 30 Z " />
<glyph glyph-name="J" unicode="J" horiz-adv-x="375" d="M41 61 C66.3333 39.6667 95.6667 25 129 25 C193 25 220 84 220 208 L220 714 L258 714 L258 198 C258 63.3333 220.333 -14 131 -14 C97.6667 -14 67.6667 0.333333 41 19 L41 61 Z " />
<glyph glyph-name="K" unicode="K" horiz-adv-x="375" d="M41 0 L41 714 L78 714 L78 330 C92.6667 356.667 105.333 377.333 124 416 L265 714 L310 714 L160 406 L311 0 L268 0 L132 374 L78 278 L78 0 L41 0 Z " />
<glyph glyph-name="L" unicode="L" horiz-adv-x="375" d="M288 40 L288 0 L60 0 L60 714 L98 714 L98 40 L288 40 Z " />
<glyph glyph-name="M" unicode="M" horiz-adv-x="375" d="M27 0 L27 714 L80 714 L171 239 L172 239 L263 714 L318 714 L318 0 L283 0 L284 527 C284 573.667 285 619 287 663 L285 663 L191 192 L151 192 L59 663 L57 663 C59.6667 612.333 62 577 62 529 L62 0 L27 0 Z " />
<glyph glyph-name="N" unicode="N" horiz-adv-x="375" d="M41 0 L41 714 L90 714 L270 63 L273 63 C271.667 101.667 268 162.333 268 201 L268 714 L304 714 L304 0 L256 0 L75 655 L73 655 C74.3333 619 76 579.333 76 518 L76 0 L41 0 Z " />
<glyph glyph-name="O" unicode="O" horiz-adv-x="375" d="M173 -10 C63.6407 -10 30 168.563 30 358 C30 602.667 77.3333 725 172 725 C275.818 725 315 567.723 315 358 C315 161.636 281.312 -10 173 -10 Z M173 28 C243.667 28 276 142 276 358 C276 571.333 244 686 172 686 C100 686 68 568.667 68 358 C68 147.333 103.667 28 173 28 Z " />
<glyph glyph-name="P" unicode="P" horiz-adv-x="375" d="M59 0 L59 714 L170 714 C263.333 714 312 657.333 312 512 C312 372 267.333 299 170 299 L96 299 L96 0 L59 0 Z M96 337 L164 337 C238.667 337 274 386.667 274 512 C274 632 239.667 675 165 675 L96 675 L96 337 Z " />
<glyph glyph-name="Q" unicode="Q" horiz-adv-x="375" d="M208 -4 C198 -8 186.667 -10 174 -10 C64.6407 -10 31 168.563 31 358 C31 602.667 78.3333 725 173 725 C276.818 725 316 567.723 316 358 C316 209.048 297.039 72.4005 239 17 L302 -173 L261 -173 L208 -4 Z M174 28 C244.667 28 277 142 277 358 C277 571.333 245 686 173 686 C101 686 69 568.667 69 358 C69 147.333 104.667 28 174 28 Z " />
<glyph glyph-name="R" unicode="R" horiz-adv-x="375" d="M59 0 L59 714 L152 714 C248.182 714 301 665.078 301 521 C301 410.333 268.667 349 214 325 L324 0 L281 0 L179 314 L96 314 L96 0 L59 0 Z M96 353 L156 353 C221.333 353 262 407.667 262 521 C262 635.667 226.333 676 149 676 L96 676 L96 353 Z " />
<glyph glyph-name="S" unicode="S" horiz-adv-x="375" d="M52 61 C82.6667 42.3333 120.333 29 155 29 C221.667 29 254 87 254 183 C254 276.617 222.188 302.533 158 348 C99.0462 388.196 54 427.997 54 542 C54 666 106 725 182 725 C215.333 725 250 712.333 282 691 L268 655 C237.333 677.667 207.333 686 182 686 C123.333 686 93 637 93 545 C93 448.042 132.4 419.284 183 382 C252.402 333.953 293 302.296 293 186 C293 56.6667 240.333 -10 155 -10 C120.333 -10 82.6667 0.333333 52 19 L52 61 Z " />
<glyph glyph-name="T" unicode="T" horiz-adv-x="375" d="M153 0 L153 675 L30 675 L30 714 L315 714 L315 675 L191 675 L191 0 L153 0 Z " />
<glyph glyph-name="U" unicode="U" horiz-adv-x="375" d="M41 714 L79 714 L79 234 C79 90 112 28 172 28 C232 28 266 86 266 230 L266 714 L304 714 L304 227 C304 59 254.667 -10 172 -10 C85.3333 -10 41 67 41 231 L41 714 Z " />
<glyph glyph-name="V" unicode="V" horiz-adv-x="375" d="M172 47 C177.333 83 184.333 124 193 170 L290 714 L327 714 L192 0 L151 0 L17 714 L55 714 L151 170 C157.667 126 167 84.3333 171 47 L172 47 Z " />
<glyph glyph-name="W" unicode="W" horiz-adv-x="375" d="M99 42 C104.333 84.6667 109.667 144.333 115 191 L154 530 L191 530 L230 191 C236.667 141.667 243.333 82.6667 246 40 L248 40 C250.659 87.8577 254.342 171.809 257 217 C267.667 383.667 280 547.333 292 714 L327 714 L273 0 L226 0 L185 362 C179.667 404.667 176.667 428.333 174 467 L171 467 C168.333 428.333 165.333 404.667 160 362 L120 0 L72 0 L17 714 L50 714 C62 547.333 76.3333 384 87 216 C89.6801 170.439 95.3199 87.5613 98 42 L99 42 Z " />
<glyph glyph-name="X" unicode="X" horiz-adv-x="375" d="M22 0 L151 372 L35 714 L76 714 L174 409 L275 714 L316 714 L196 371 L323 0 L281 0 L173 335 L63 0 L22 0 Z " />
<glyph glyph-name="Y" unicode="Y" horiz-adv-x="375" d="M154 0 L154 274 L22 714 L63 714 L172 317 L281 714 L323 714 L191 276 L191 0 L154 0 Z " />
<glyph glyph-name="Z" unicode="Z" horiz-adv-x="375" d="M58 34 L253 675 L69 675 L69 714 L294 714 L294 680 L101 39 L300 39 L300 0 L58 0 L58 34 Z " />
<glyph glyph-name="bracketleft" unicode="&#x5b;" horiz-adv-x="375" d="M271 -123 L271 -159 L135 -159 L135 715 L271 715 L271 680 L170 680 L170 -123 L271 -123 Z " />
<glyph glyph-name="backslash" unicode="&#x5c;" horiz-adv-x="375" d="M239 -1 L60 715 L95 715 L276 -1 L239 -1 Z " />
<glyph glyph-name="bracketright" unicode="&#x5d;" horiz-adv-x="375" d="M72 -124 L173 -124 L173 679 L72 679 L72 715 L208 715 L208 -159 L72 -159 L72 -124 Z " />
<glyph glyph-name="asciicircum" unicode="&#x5e;" horiz-adv-x="375" d="M30 327 L163 715 L187 715 L314 327 L277 327 L175 664 L68 327 L30 327 Z " />
<glyph glyph-name="underscore" unicode="&#x5f;" horiz-adv-x="375" d="M3 -86 L341 -86 L341 -125 L3 -125 L3 -86 Z " />
<glyph glyph-name="grave" unicode="&#x60;" horiz-adv-x="375" d="M186 606 C158.703 646.945 115.578 709.451 94 758 L94 765 L138 765 C156.667 717 188.333 657.333 211 616 L211 606 L186 606 Z " />
<glyph glyph-name="a" unicode="a" horiz-adv-x="375" d="M251 92 L250 92 C231.333 37.3333 202.667 -10 148 -10 C85.3333 -10 51 47 51 135 C51 241.667 100.333 291.667 191 301 L249 307 L249 351 C249 463 223 502 175 502 C147 502 118.333 490 89 466 L75 501 C107 525 139.667 540 177 540 C249 540 287 487.333 287 358 L287 0 L257 0 L251 92 Z M249 274 L198 268 C127.333 261.333 90 220.333 90 135 C90 64.3333 116 27 156 27 C216 27 249 100.333 249 219 L249 274 Z " />
<glyph glyph-name="b" unicode="b" horiz-adv-x="375" d="M52 760 L90 760 L90 523 C90 492.333 90.3333 454 89 426 L90 426 C104.667 494 138.667 540 188 540 C266.667 540 308 446.667 308 268 C308 93.3333 265.333 -10 184 -10 C137.333 -10 108.667 32 90 92 L88 92 L81 0 L52 0 L52 760 Z M176 29 C237.333 29 268 108.667 268 268 C268 424.667 238 503 178 503 C118 503 90 422.333 90 265 C90 107.667 118.667 29 176 29 Z " />
<glyph glyph-name="c" unicode="c" horiz-adv-x="375" d="M291 13 C268.333 -0.333333 238 -10 206 -10 C110 -10 59 90.6667 59 260 C59 442.667 117.333 540 212 540 C242.667 540 270.333 532.333 295 517 L283 481 C260.333 497 238 503 214 503 C140.667 503 99 415.667 99 261 C99 121.494 133.312 28 209 28 C235.667 28 267 37 291 53 L291 13 Z " />
<glyph glyph-name="d" unicode="d" horiz-adv-x="375" d="M257 100 L256 100 C239.746 43.1122 212.194 -10 156 -10 C78.6667 -10 38 83.3333 38 258 C38 443.333 81.6667 540 159 540 C211 540 241.333 490 256 434 L258 434 C256.667 467.333 255 496.333 255 527 L255 760 L292 760 L292 0 L263 0 L257 100 Z M256 285 C256 422.333 230.667 503 168 503 C106.667 503 76 420.667 76 256 C76 106.667 102.333 28 165 28 C230.333 28 256 109.667 256 243 L256 285 Z " />
<glyph glyph-name="e" unicode="e" horiz-adv-x="375" d="M292 24 C262.667 1.33333 232.667 -10 194 -10 C95.3333 -10 44 96.3333 44 263 C44 425.745 91.1818 540 179 540 C264.177 540 305 431.281 305 298 L305 264 L83 264 C84.3333 106.667 121.667 28 195 28 C232.333 28 260 38.3333 292 65 L292 24 Z M268 301 C268 418.281 238.208 503 178 503 C123.333 503 89.3333 434.333 84 301 L268 301 Z " />
<glyph glyph-name="f" unicode="f" horiz-adv-x="375" d="M144 0 L144 493 L48 493 L48 524 L144 531 L144 599 C144 716.333 175.667 765 249 765 C271.667 765 292.333 758.667 311 752 L301 716 C285 724 269 728 253 728 C202.333 728 182 693 182 597 L182 530 L294 530 L294 493 L182 493 L182 0 L144 0 Z " />
<glyph glyph-name="g" unicode="g" horiz-adv-x="375" d="M53 -166 C83.6667 -188.667 118.333 -204 153 -204 C223.667 -204 255 -141.333 255 -28 L255 12 C255 42.6667 254.333 69.6667 257 103 L255 103 C239 35 205 -10 157 -10 C81 -10 38 81 38 261 C38 434.333 79.6667 540 161 540 C209 540 236.333 499.333 255 446 L258 446 L262 530 L292 530 L292 -26 C292 -164.667 249.333 -242 152 -242 C113.333 -242 82.3333 -229 53 -209 L53 -166 Z M256 300 C256 418.952 232.251 503 170 503 C104.667 503 76 410.667 76 260 C76 105.333 106.333 28 167 28 C233.641 28 256 128.662 256 237 L256 300 Z " />
<glyph glyph-name="h" unicode="h" horiz-adv-x="375" d="M52 0 L52 760 L90 760 L90 504 C90 476 89.3333 457.333 88 432 L90 432 C103.331 487.989 135.028 540 191 540 C255 540 296 481.667 296 355 L296 0 L258 0 L258 348 C258 456 232.333 503 183 503 C127 503 90 435.333 90 294 L90 0 L52 0 Z " />
<glyph glyph-name="i" unicode="i" horiz-adv-x="375" >
<path fill="black" d="M55 31 L160 37 L160 492 L65 499 L65 530 L198 530 L198 37 L295 31 L295 0 L55 0 L55 31 Z " /><g transform="translate(5,0)" ><path fill="black" d="M172 653 C150.667 653 142 670.333 142 697 C142 723.667 150.667 742 172 742 C192 742 202 723.667 202 697 C202 671.667 193.333 653 172 653 Z " /></g></glyph>
<glyph glyph-name="j" unicode="j" horiz-adv-x="375" >
<path fill="black" d="M35 -188 C52.3333 -197.333 88.3333 -209 111 -209 C159 -209 183 -159.667 183 -77 L183 492 L70 499 L70 530 L222 530 L222 -81 C222 -194.333 182 -247 114 -247 C83.3333 -247 49.6667 -234.667 35 -228 L35 -188 Z " /><g transform="translate(26,-8)" ><path fill="black" d="M172 653 C150.667 653 142 670.333 142 697 C142 723.667 150.667 742 172 742 C192 742 202 723.667 202 697 C202 671.667 193.333 653 172 653 Z " /></g></glyph>
<glyph glyph-name="k" unicode="k" horiz-adv-x="375" d="M68 0 L68 760 L105 760 L105 383 C105 329.667 104.333 286.333 103 233 C115 255.667 124 273.667 136 295 L264 530 L310 530 L179 305 L319 0 L276 0 L153 274 L105 189 L105 0 L68 0 Z " />
<glyph glyph-name="l" unicode="l" horiz-adv-x="375" d="M55 31 L157 37 L157 723 L61 729 L61 760 L194 760 L194 37 L295 31 L295 0 L55 0 L55 31 Z " />
<glyph glyph-name="m" unicode="m" horiz-adv-x="375" d="M33 0 L33 530 L59 530 L64 464 L66 464 C75.3333 501.333 93.3333 540 128 540 C162.667 540 177.333 503.667 184 465 L186 465 C196.667 507.667 215.333 540 250 540 C292.667 540 313 506 313 402 L313 0 L278 0 L278 398 C278 480.667 264 503 240 503 C205.333 503 190 447 190 359 L190 0 L155 0 L155 386 C155 482.944 140.9 503 118 503 C81.6104 503 67 428.844 67 357 L67 0 L33 0 Z " />
<glyph glyph-name="n" unicode="n" horiz-adv-x="375" d="M52 0 L52 530 L82 530 L87 429 L90 429 C104.667 487.667 137.333 540 192 540 C258.667 540 296 484.667 296 358 L296 0 L258 0 L258 353 C258 457 231.667 502 185 502 C127.667 502 90 436 90 300 L90 0 L52 0 Z " />
<glyph glyph-name="o" unicode="o" horiz-adv-x="375" d="M173 -10 C83.6667 -10 38 91.3333 38 266 C38 440.667 85 540 173 540 C262.619 540 308 431.329 308 265 C308 90.3333 265 -10 173 -10 Z M172 27 C240 27 268 112.667 268 266 C268 408.667 240.667 502 174 502 C108.667 502 76 419.333 76 266 C76 115.333 108 27 172 27 Z " />
<glyph glyph-name="p" unicode="p" horiz-adv-x="375" d="M52 -240 L52 530 L83 530 L87 419 L89 419 C104.749 481.995 135.803 540 188 540 C266.667 540 308 450 308 270 C308 83.3333 259.333 -10 186 -10 C133.503 -10 105.993 44.0253 90 100 L88 100 C89.3333 73.3333 90 39.6667 90 5 L90 -240 L52 -240 Z M90 248 C90 106.667 123 28 179 28 C235 28 268 102 268 270 C268 424.667 238.667 502 180 502 C120 502 90 415.333 90 282 L90 248 Z " />
<glyph glyph-name="q" unicode="q" horiz-adv-x="375" d="M255 -234 L255 10 C255 34 255.333 73.3333 258 104 L256 104 C238.667 38.6667 207.333 -11 158 -11 C80.6667 -11 38 83.3333 38 262 C38 432.719 80.9264 540 162 540 C211.333 540 240.333 494.667 255 436 L257 436 L262 530 L292 530 L292 -234 L255 -234 Z M256 290 C256 423.333 227.333 501 170 501 C110 501 77 415.333 77 262 C77 104.667 109 28 165 28 C226.333 28 256 114.333 256 241 L256 290 Z " />
<glyph glyph-name="r" unicode="r" horiz-adv-x="375" d="M39 31 L129 37 L129 492 L47 499 L47 530 L160 530 L164 431 L166 431 C180.667 491 211 539 263 539 C281.667 539 303.333 533 318 525 L309 484 C294.333 493.333 275 497 259 497 C199 497 167 419.667 167 293 L167 37 L264 31 L264 0 L39 0 L39 31 Z " />
<glyph glyph-name="s" unicode="s" horiz-adv-x="375" d="M67 66 C95 43.3333 129.667 28 167 28 C225.667 28 247 67.6667 247 133 C247 198.487 220.153 216.093 166 254 C110.761 290.826 72 320.385 72 407 C72 488.333 112.333 540 187 540 C221.667 540 251 528.667 279 510 L265 475 C240.333 493 214 502 186 502 C139.333 502 110 471 110 407 C110 343.433 139.721 326.785 191 289 C244.468 251.573 285 224.466 285 133 C285 43.6667 245.333 -10 164 -10 C124 -10 89.6667 5.66667 67 23 L67 66 Z " />
<glyph glyph-name="t" unicode="t" horiz-adv-x="375" d="M137 493 L48 493 L48 522 L138 531 L149 664 L176 664 L176 530 L296 530 L296 493 L175 493 L175 176 C175 80 192.667 28 242 28 C262 28 281.333 33 300 41 L300 3 C281.333 -3.66667 261 -10 237 -10 C169 -10 137 52.6667 137 170 L137 493 Z " />
<glyph glyph-name="u" unicode="u" horiz-adv-x="375" d="M49 530 L87 530 L87 181 C87 71.6667 113.333 28 164 28 C220 28 255 93.6667 255 235 L255 530 L292 530 L292 0 L261 0 L256 101 L253 101 C239.667 42.3333 207.667 -10 153 -10 C83.6667 -10 49 50.6667 49 172 L49 530 Z " />
<glyph glyph-name="v" unicode="v" horiz-adv-x="375" d="M173 45 C179.667 83.6667 189 124.667 197 166 L271 530 L308 530 L193 0 L149 0 L35 530 L73 530 L148 166 C156 124.667 164.333 83.6667 171 45 L173 45 Z " />
<glyph glyph-name="w" unicode="w" horiz-adv-x="375" d="M98 51 C102 81.6667 109.333 135.333 116 182 L156 417 L192 417 L231 180 C237.667 137.333 244.667 85.6667 250 51 L251 51 C253.667 93.6667 257.667 132.333 263 183 L299 530 L333 530 L271 -1 L230 -1 L191 252 C185.667 290.667 179.333 329.333 174 368 L173 368 C169 329.333 162.667 289.667 156 251 L116 -1 L75 -1 L12 530 L46 530 L84 185 C90.6667 133 93 85.6667 97 51 L98 51 Z " />
<glyph glyph-name="x" unicode="x" horiz-adv-x="375" d="M36 0 L149 272 L42 530 L84 530 L172 303 L261 530 L303 530 L194 271 L308 0 L265 0 L172 242 L78 0 L36 0 Z " />
<glyph glyph-name="y" unicode="y" horiz-adv-x="375" d="M40 -196 C51.3333 -202.667 62 -206 72 -206 C102.667 -206 123 -181.667 139 -103 L160 6 L39 530 L79 530 L153 174 C166.333 114 171.667 82.6667 177 56 L179 56 C184.333 93.3333 192 131.333 200 174 L268 530 L308 530 L176 -101 C156 -194.333 126.667 -244 76 -244 C62.6667 -244 52 -240.333 40 -235 L40 -196 Z " />
<glyph glyph-name="z" unicode="z" horiz-adv-x="375" d="M58 31 L241 493 L70 493 L70 530 L285 530 L285 498 L103 38 L287 38 L287 0 L58 0 L58 31 Z " />
<glyph glyph-name="braceleft" unicode="&#x7b;" horiz-adv-x="375" d="M154 150 C154 232.667 138.333 261 85 261 L85 294 C131.667 294 154 319.333 154 406 L154 573 C154 669 193.667 713.667 267 715 L267 682 C216.333 680.667 190 651 190 567 L190 400 C190 328 174.333 289.667 133 279 L133 277 C174.333 266.333 190 230.667 190 156 L190 -11 C190 -97.6667 211 -126 267 -126 L267 -159 C191 -157.667 154 -121 154 -17 L154 150 Z " />
<glyph glyph-name="bar" unicode="&#x7c;" horiz-adv-x="375" d="M147 -240 L147 760 L181 760 L181 -240 L147 -240 Z " />
<glyph glyph-name="braceright" unicode="&#x7d;" horiz-adv-x="375" d="M67 -126 C117.667 -124.667 144 -95 144 -11 L144 156 C144 228 159.667 266.333 201 277 L201 279 C159.667 289.667 144 325.333 144 400 L144 567 C144 653.667 123 682 67 682 L67 715 C143 713.667 180 677 180 573 L180 406 C180 323.333 195.667 295 249 295 L249 262 C202.333 262 180 236.667 180 150 L180 -17 C180 -113 140.333 -157.667 67 -159 L67 -126 Z " />
<glyph glyph-name="asciitilde" unicode="&#x7e;" horiz-adv-x="375" d="M304 352 C288 325.333 264 306 236 306 C209.333 306 191.667 317.667 169 335 C147.667 352.333 130.667 365 108 365 C84 365 61.3333 345 40 305 L40 349 C58.6667 379.667 81 401 109 401 C137 401 156.333 389.667 179 371 C200.333 352.333 216.667 342 238 342 C259.333 342 284 359 304 395 L304 352 Z " />
<glyph glyph-name="uni00A0" unicode="&#xa0;" horiz-adv-x="375" />
<glyph glyph-name="exclamdown" unicode="&#xa1;" horiz-adv-x="375" d="M153 348 L185 348 L191 -185 L147 -185 L153 348 Z M169 455 C150.333 455 140 472.333 140 499 C140 524.333 149 541 169 541 C190.333 541 199 524.333 199 499 C199 472.333 190.333 455 169 455 Z " />
<glyph glyph-name="cent" unicode="&#xa2;" horiz-adv-x="375" d="M193 -10 L193 91 C103.667 100.333 64 201 64 361 C64 522.333 108 623.333 192 638 L192 724 L219 724 L219 639 C245.667 637.667 267.333 630.667 284 618 L273 582 C254.333 596.667 233.667 602 215 602 C139 602 100 507.667 100 361 C100 215.667 136 128 212 128 C236 128 262 136.667 282 150 L282 112 C267.333 101.333 245.333 92.6667 220 90 L220 -10 L193 -10 Z " />
<glyph glyph-name="sterling" unicode="&#xa3;" horiz-adv-x="375" d="M301 39 L301 0 L40 0 L40 36 C78.6667 54.6667 99 101.333 99 192 L99 335 L42 335 L42 370 L99 370 L99 535 C99 655 134 724 214 724 C248.667 724 274 711.667 298 689 L284 655 C258.667 677.667 238.667 686 216 686 C161.333 686 136 637 136 529 L136 370 L242 370 L242 335 L136 335 L136 191 C136 109.667 119 61.6667 91 39 L301 39 Z " />
<glyph glyph-name="currency" unicode="&#xa4;" horiz-adv-x="375" d="M23 155 L70 227 C50 264.333 41 307.333 41 354 C41 400.667 50 445.333 70 480 L22 554 L41 577 L90 502 C114 534 141.333 550 172 550 C204 550 231.667 534.333 255 503 L303 576 L323 554 L275 481 C295 443.667 304 400.667 304 354 C304 310 294.667 263.333 276 226 L323 152 L304 131 L255 203 C231 172.333 202.667 158 172 158 C141.333 158 112.667 173.333 90 204 L42 132 L23 155 Z M172 192 C232.312 192 274 262.255 274 353 C274 446.333 231.688 517 172 517 C115.922 517 71 448.134 71 353 C71 259.693 115.922 192 172 192 Z " />
<glyph glyph-name="yen" unicode="&#xa5;" horiz-adv-x="375" d="M65 184 L154 184 L154 290 L65 290 L65 323 L146 323 L37 714 L76 714 L172 349 L268 714 L308 714 L198 323 L281 323 L281 290 L192 290 L192 184 L281 184 L281 151 L192 151 L192 0 L154 0 L154 151 L65 151 L65 184 Z " />
<glyph glyph-name="brokenbar" unicode="&#xa6;" horiz-adv-x="375" d="M147 -245 L147 137 L181 137 L181 -245 L147 -245 Z M147 381 L147 761 L181 761 L181 381 L147 381 Z " />
<glyph glyph-name="section" unicode="&#xa7;" horiz-adv-x="375" d="M62 58 C84.6667 36.6667 119.667 22 153 22 C206.333 22 238 67 238 131 C238 194.348 207.521 212.749 156 248 C102.731 285.288 69 316.035 69 388 C69 457.333 98.3333 497.667 137 519 C105 548.333 83 584.333 83 643 C83 720.333 123 766 191 766 C223 766 250 755.667 274 737 L262 706 C240.667 720.667 216.667 733 190 733 C146 733 116 705 116 645 C116 591.667 142 554.333 186 525 C234.298 492.801 283 462.386 283 374 C283 310 260 265.333 228 240 C258.667 209.333 272 184 272 132 C272 48 229.333 -11 152 -11 C117.333 -11 82 2 62 18 L62 58 Z M204 257 C230.667 275.667 251 313 251 369 C251 431.667 226 463.667 162 501 C126 485 101 452 101 392 C101 331.32 133.076 305.949 172 280 L204 257 Z " />
<glyph glyph-name="dieresis" unicode="&#xa8;" horiz-adv-x="375" d="M113 632 C98.3333 632 88 649.667 88 675 C88 699 98.3333 717 113 717 C131.667 717 140 699 140 675 C140 648.333 131.667 632 113 632 Z M231 632 C213.667 632 205 649.667 205 675 C205 699 213.667 717 231 717 C247 717 256 700.333 256 675 C256 648.333 248.333 632 231 632 Z " />
<glyph glyph-name="copyright" unicode="&#xa9;" horiz-adv-x="375" d="M171 143 C82.9221 143 22 231.97 22 359 C22 489.667 86.6147 579 172 579 C260.078 579 321 486.433 321 360 C321 229.359 256.385 143 171 143 Z M171 172 C244.126 172 297 248.152 297 359 C297 467.312 244.078 549 172 549 C99.9221 549 47 472.896 47 361 C47 251.797 98.0303 172 171 172 Z M223 234 C207.667 225.333 192 221 176 221 C120 221 87 269 87 357 C87 443.667 119 499 179 499 C198.333 499 215.333 493.667 230 483 L221 456 C207.667 464 192.667 470 178 470 C138 470 113 429 113 357 C113 284.333 134.667 248 178 248 C191.333 248 206.333 252.667 223 262 L223 234 Z " />
<glyph glyph-name="ordfeminine" unicode="&#xaa;" horiz-adv-x="375" d="M222 446 C208.667 411.333 186.667 392 156 392 C116 392 89 422 89 482 C89 548.667 122 577.333 186 584 L219 587 L219 621 C219 673 203.333 694 170 694 C150.667 694 132.667 686.667 116 672 L106 699 C127.333 713.667 146.333 723 173 723 C223.667 723 249 688 249 624 L249 397 L226 397 L222 446 Z M219 558 L190 556 C143.333 552 118 533.667 118 483 C118 443 134.333 422 161 422 C199.667 422 219 463 219 523 L219 558 Z " />
<glyph glyph-name="guillemotleft" unicode="&#xab;" horiz-adv-x="375" >
<g transform="translate(-61,-1)" ><path fill="black" d="M209 78 L110 261 L110 274 L209 459 L234 443 L154 268 L234 94 L209 78 Z " /></g><g transform="translate(61,-1)" ><path fill="black" d="M209 78 L110 261 L110 274 L209 459 L234 443 L154 268 L234 94 L209 78 Z " /></g></glyph>
<glyph glyph-name="logicalnot" unicode="&#xac;" horiz-adv-x="375" d="M39 370 L294 370 L294 125 L261 125 L261 334 L39 334 L39 370 Z " />
<glyph glyph-name="uni00AD" unicode="&#xad;" horiz-adv-x="375" >
<g transform="translate(3,0)" ><path fill="black" d="M88 295 L257 295 L257 256 L88 256 L88 295 Z " /></g></glyph>
<glyph glyph-name="registered" unicode="&#xae;" horiz-adv-x="375" d="M171 143 C83.9697 143 23 231.97 23 359 C23 489.667 87.6147 579 173 579 C261.97 579 321 486.433 321 360 C321 229.359 256.385 143 171 143 Z M172 172 C244.078 172 297 248.152 297 359 C297 467.312 244.078 549 172 549 C99.9221 549 47 472.896 47 361 C47 251.797 97.3593 172 172 172 Z M117 223 L117 498 L171 498 C211 498 235 472.667 235 418 C235 372.667 219.333 352.667 198 342 L244 223 L217 223 L175 336 L142 336 L142 223 L117 223 Z M141 363 L170 363 C192.667 363 211 377 211 417 C211 455.667 196.667 472 170 472 L141 472 L141 363 Z " />
<glyph glyph-name="macron" unicode="&#xaf;" horiz-adv-x="375" d="M92 655 L252 655 L252 621 L92 621 L92 655 Z " />
<glyph glyph-name="degree" unicode="&#xb0;" horiz-adv-x="375" d="M172 459 C122.667 459 82 505.667 82 591 C82 676.333 122.667 724 172 724 C222.667 724 263 675 263 591 C263 509.667 222.667 459 172 459 Z M172 489 C208 489 236 527.333 236 590 C236 652.667 210.667 693 172 693 C133.333 693 109 652.333 109 591 C109 527 137.333 489 172 489 Z " />
<glyph glyph-name="plusminus" unicode="&#xb1;" horiz-adv-x="375" d="M154 127 L154 339 L38 339 L38 375 L154 375 L154 589 L186 589 L186 375 L301 375 L301 339 L186 339 L186 127 L154 127 Z M38 37 L298 37 L298 1 L38 1 L38 37 Z " />
<glyph glyph-name="twosuperior" unicode="&#xb2;" horiz-adv-x="375" d="M85 446 L152 564 C194.667 636 222 681.333 222 740 C222 786.667 202.667 820 168 820 C145.333 820 124 806.667 104 780 L88 806 C108 836.667 135.333 854 170 854 C223.333 854 253 807.667 253 741 C253 673.828 222.903 631.089 172 540 L121 448 L261 448 L261 415 L85 415 L85 446 Z " />
<glyph glyph-name="threesuperior" unicode="&#xb3;" horiz-adv-x="375" d="M85 470 C107.667 452.667 131.333 444 156 444 C202.667 444 224 477.667 224 535 C224 591 201.667 623 155 623 L125 623 L125 655 L154 655 C195.333 655 218 689.333 218 744 C218 790.667 199.667 818 165 818 C138.333 818 120 804.667 100 782 L86 810 C108.667 836.667 135 852 167 852 C215 852 248 813.667 248 747 C248 691 229.333 656.333 200 643 L200 641 C237.333 626.333 256 590.667 256 534 C256 454 217.333 410 156 410 C129.333 410 105.667 417.333 85 432 L85 470 Z " />
<glyph glyph-name="acute" unicode="&#xb4;" horiz-adv-x="375" d="M148 606 L148 616 C176 664 202.333 718.333 221 765 L265 765 L265 758 C243.365 712.026 202.525 646.261 173 606 L148 606 Z " />
<glyph glyph-name="mu" unicode="&#xb5;" horiz-adv-x="375" d="M49 227 L53 227 L53 530 L91 530 L91 181 C91 71.6667 117.333 28 168 28 C224 28 259 93.6667 259 235 L259 530 L296 530 L296 0 L265 0 L260 101 L257 101 C243.667 42.3333 211.667 -10 157 -10 C127 -10 103.333 1.66667 86 25 L86 -240 L49 -240 L49 227 Z " />
<glyph glyph-name="paragraph" unicode="&#xb6;" horiz-adv-x="375" d="M159 -127 L159 333 C150.333 327 140.333 324 129 324 C71.4069 324 45 413.381 45 543 C45 683 74 760 142 760 L276 760 L276 -127 L248 -127 L248 726 L187 726 L187 -127 L159 -127 Z " />
<glyph glyph-name="periodcentered" unicode="&#xb7;" horiz-adv-x="375" >
<g transform="translate(3,282)" ><path fill="black" d="M172 -12 C153.333 -12 143 5.33333 143 32 C143 57.3333 152 74 172 74 C193.333 74 202 57.3333 202 32 C202 5.33333 193.333 -12 172 -12 Z " /></g></glyph>
<glyph glyph-name="cedilla" unicode="&#xb8;" horiz-adv-x="375" d="M115 -202 C125 -206.667 135.667 -209 147 -209 C179 -209 198 -185.333 198 -144 C198 -101.333 177.667 -84.6667 139 -82 L164 0 L190 0 L172 -60 C210.667 -66.6667 230 -95 230 -145 C230 -203.667 200.333 -240 151 -240 C139 -240 125.667 -238 115 -234 L115 -202 Z " />
<glyph glyph-name="onesuperior" unicode="&#xb9;" horiz-adv-x="375" d="M98 442 L166 447 L166 700 C166 733.333 166.667 771.333 168 802 C157.333 791.333 150.667 783.667 140 773 L102 735 L86 762 L172 843 L197 843 L197 447 L263 442 L263 416 L98 416 L98 442 Z " />
<glyph glyph-name="ordmasculine" unicode="&#xba;" horiz-adv-x="375" d="M174 392 C115.333 392 85 458 85 558 C85 662 117.333 724 176 724 C233.333 724 262 657.333 262 560 C262 460 232.667 392 174 392 Z M174 422 C214 422 233 475.333 233 558 C233 639.333 213.667 695 175 695 C137.667 695 115 646 115 558 C115 474 135.333 422 174 422 Z " />
<glyph glyph-name="guillemotright" unicode="&#xbb;" horiz-adv-x="375" >
<g transform="translate(-67,-33)" ><path fill="black" d="M189 295 L109 469 L134 485 L233 302 L233 289 L134 104 L109 120 L189 295 Z " /></g><g transform="translate(55,-33)" ><path fill="black" d="M189 295 L109 469 L134 485 L233 302 L233 289 L134 104 L109 120 L189 295 Z " /></g></glyph>
<glyph glyph-name="onequarter" unicode="&#xbc;" horiz-adv-x="375" >
<g transform="translate(-1,-576)" ><path fill="black" d="M77 557 L196 846 L227 846 L227 562 L270 562 L270 531 L227 531 L227 415 L197 415 L197 531 L77 531 L77 557 Z M197 562 L197 726 C197 752.667 196.667 773.333 198 796 C192.667 780 186.667 767.667 180 749 L108 562 L197 562 Z " /></g><g transform="translate(-2,50)" ><path fill="black" d="M98 442 L166 447 L166 700 C166 733.333 166.667 771.333 168 802 C157.333 791.333 150.667 783.667 140 773 L102 735 L86 762 L172 843 L197 843 L197 447 L263 442 L263 416 L98 416 L98 442 Z " /></g><path fill="black" d="M31 357 L310 403 L310 377 L31 331 L31 357 Z " /></glyph>
<glyph glyph-name="onehalf" unicode="&#xbd;" horiz-adv-x="375" >
<g transform="translate(1,-576)" ><path fill="black" d="M85 446 L152 564 C194.667 636 222 681.333 222 740 C222 786.667 202.667 820 168 820 C145.333 820 124 806.667 104 780 L88 806 C108 836.667 135.333 854 170 854 C223.333 854 253 807.667 253 741 C253 673.828 222.903 631.089 172 540 L121 448 L261 448 L261 415 L85 415 L85 446 Z " /></g><g transform="translate(-2,50)" ><path fill="black" d="M98 442 L166 447 L166 700 C166 733.333 166.667 771.333 168 802 C157.333 791.333 150.667 783.667 140 773 L102 735 L86 762 L172 843 L197 843 L197 447 L263 442 L263 416 L98 416 L98 442 Z " /></g><path fill="black" d="M31 357 L310 403 L310 377 L31 331 L31 357 Z " /></glyph>
<glyph glyph-name="threequarters" unicode="&#xbe;" horiz-adv-x="375" >
<g transform="translate(-1,-576)" ><path fill="black" d="M77 557 L196 846 L227 846 L227 562 L270 562 L270 531 L227 531 L227 415 L197 415 L197 531 L77 531 L77 557 Z M197 562 L197 726 C197 752.667 196.667 773.333 198 796 C192.667 780 186.667 767.667 180 749 L108 562 L197 562 Z " /></g><g transform="translate(2,50)" ><path fill="black" d="M85 470 C107.667 452.667 131.333 444 156 444 C202.667 444 224 477.667 224 535 C224 591 201.667 623 155 623 L125 623 L125 655 L154 655 C195.333 655 218 689.333 218 744 C218 790.667 199.667 818 165 818 C138.333 818 120 804.667 100 782 L86 810 C108.667 836.667 135 852 167 852 C215 852 248 813.667 248 747 C248 691 229.333 656.333 200 643 L200 641 C237.333 626.333 256 590.667 256 534 C256 454 217.333 410 156 410 C129.333 410 105.667 417.333 85 432 L85 470 Z " /></g><path fill="black" d="M31 357 L310 403 L310 377 L31 331 L31 357 Z " /></glyph>
<glyph glyph-name="questiondown" unicode="&#xbf;" horiz-adv-x="375" d="M275 -159 C244.333 -181.667 215.333 -195 178 -195 C108.667 -195 67 -139.333 67 -30 C67 67.2633 95.6925 112.882 136 172 C169.883 224.128 178 260.058 178 332 L178 348 L210 348 L210 329 C210 243.972 200.36 205.539 164 151 C126.335 91.8116 105 50.534 105 -29 C105 -117 134.333 -157 181 -157 C210.333 -157 234.333 -145.333 261 -124 L275 -159 Z M194 455 C175.333 455 165 472.333 165 499 C165 524.333 174 541 194 541 C215.333 541 224 524.333 224 499 C224 472.333 215.333 455 194 455 Z " />
<glyph glyph-name="Agrave" unicode="&#xc0;" horiz-adv-x="375" d="M147 715 L196 715 L328 0 L290 0 L244 263 L100 263 L55 0 L16 0 L147 715 Z M238 301 L188 585 C182.667 615.667 177.667 644.667 171 678 C167 647.333 161.333 617 156 585 L107 301 L238 301 Z M200 802 L175 802 C147.703 842.945 104.578 905.451 83 954 L83 961 L127 961 C145.667 913 177.333 853.333 200 812 L200 802 Z " />
<glyph glyph-name="Aacute" unicode="&#xc1;" horiz-adv-x="375" d="M147 715 L196 715 L328 0 L290 0 L244 263 L100 263 L55 0 L16 0 L147 715 Z M238 301 L188 585 C182.667 615.667 177.667 644.667 171 678 C167 647.333 161.333 617 156 585 L107 301 L238 301 Z M141 812 C169 860 195.333 914.333 214 961 L258 961 L258 954 C236.365 908.026 195.525 842.261 166 802 L141 802 L141 812 Z " />
<glyph glyph-name="Acircumflex" unicode="&#xc2;" horiz-adv-x="375" d="M147 715 L196 715 L328 0 L290 0 L244 263 L100 263 L55 0 L16 0 L147 715 Z M238 301 L188 585 C182.667 615.667 177.667 644.667 171 678 C167 647.333 161.333 617 156 585 L107 301 L238 301 Z M87 810 C108.11 849.581 139.507 916.824 153 960 L189 960 C205.392 916.288 236.751 843.891 255 810 L255 802 L233 802 C213 835.333 191 881.667 171 919 C152.333 883 129 834 109 802 L87 802 L87 810 Z " />
<glyph glyph-name="Atilde" unicode="&#xc3;" horiz-adv-x="375" >
<path fill="black" d="M147 715 L196 715 L328 0 L290 0 L244 263 L100 263 L55 0 L16 0 L147 715 Z M238 301 L188 585 C182.667 615.667 177.667 644.667 171 678 C167 647.333 161.333 617 156 585 L107 301 L238 301 Z " /><g transform="translate(-1,196)" ><path fill="black" d="M72 621 C74.6667 685 92.6667 722 126 722 C163.222 722 185.778 655 215 655 C232.333 655 243.333 675.333 246 722 L272 722 C269.333 654 247.667 620 217 620 C179.778 620 157.222 687 128 687 C113.333 687 99.6667 669 97 621 L72 621 Z " /></g></glyph>
<glyph glyph-name="Adieresis" unicode="&#xc4;" horiz-adv-x="375" >
<g transform="translate(-1,184)" ><path fill="black" d="M113 632 C98.3333 632 88 649.667 88 675 C88 699 98.3333 717 113 717 C131.667 717 140 699 140 675 C140 648.333 131.667 632 113 632 Z M231 632 C213.667 632 205 649.667 205 675 C205 699 213.667 717 231 717 C247 717 256 700.333 256 675 C256 648.333 248.333 632 231 632 Z " /></g><path fill="black" d="M147 715 L196 715 L328 0 L290 0 L244 263 L100 263 L55 0 L16 0 L147 715 Z M238 301 L188 585 C182.667 615.667 177.667 644.667 171 678 C167 647.333 161.333 617 156 585 L107 301 L238 301 Z " /></glyph>
<glyph glyph-name="Aring" unicode="&#xc5;" horiz-adv-x="375" >
<path fill="black" d="M147 715 L196 715 L328 0 L290 0 L244 263 L100 263 L55 0 L16 0 L147 715 Z M238 301 L188 585 C182.667 615.667 177.667 644.667 171 678 C167 647.333 161.333 617 156 585 L107 301 L238 301 Z " /><g transform="translate(-1,196)" ><path fill="black" d="M173 613 C134.333 613 104 648 104 708 C104 765.333 133.333 803 172 803 C210.667 803 240 765.667 240 707 C240 649.667 211.667 613 173 613 Z M173 642 C197 642 214 668.333 214 707 C214 747 197.333 773 172 773 C146.667 773 130 746.667 130 708 C130 669.333 146.333 642 173 642 Z " /></g></glyph>
<glyph glyph-name="AE" unicode="&#xc6;" horiz-adv-x="375" d="M127 714 L324 714 L324 674 L208 674 L208 395 L314 395 L314 355 L208 355 L208 40 L324 40 L324 0 L173 0 L173 262 L92 262 L53 0 L16 0 L127 714 Z M173 301 L173 674 L154 674 L98 301 L173 301 Z " />
<glyph glyph-name="Ccedilla" unicode="&#xc7;" horiz-adv-x="375" d="M146 -202 C156 -206.667 166.667 -209 178 -209 C210 -209 229 -185.333 229 -144 C229 -101.333 208.667 -84.6667 170 -82 L193 -8 C94.231 10.686 38 148.396 38 359 C38 560.126 98.9221 725 219 725 C257.667 725 290 713.667 322 691 L307 655 C280.333 679 251.333 686 222 686 C123.281 686 76 536.563 76 358 C76 161.688 127.281 28 218 28 C256.667 28 285.333 42.3333 312 57 L312 17 C286.667 1 256.667 -8.66667 218 -10 L203 -60 C241.667 -66.6667 261 -95 261 -145 C261 -203.667 231.333 -240 182 -240 C170 -240 156.667 -238 146 -234 L146 -202 Z " />
<glyph glyph-name="Egrave" unicode="&#xc8;" horiz-adv-x="375" >
<path fill="black" d="M289 39 L289 0 L58 0 L58 714 L289 714 L289 675 L96 675 L96 394 L277 394 L277 355 L96 355 L96 39 L289 39 Z " /><g transform="translate(-10,184)" ><path fill="black" d="M186 606 C158.703 646.945 115.578 709.451 94 758 L94 765 L138 765 C156.667 717 188.333 657.333 211 616 L211 606 L186 606 Z " /></g></glyph>
<glyph glyph-name="Eacute" unicode="&#xc9;" horiz-adv-x="375" >
<path fill="black" d="M289 39 L289 0 L58 0 L58 714 L289 714 L289 675 L96 675 L96 394 L277 394 L277 355 L96 355 L96 39 L289 39 Z " /><g transform="translate(-6,184)" ><path fill="black" d="M148 606 L148 616 C176 664 202.333 718.333 221 765 L265 765 L265 758 C243.365 712.026 202.525 646.261 173 606 L148 606 Z " /></g></glyph>
<glyph glyph-name="Ecircumflex" unicode="&#xca;" horiz-adv-x="375" >
<path fill="black" d="M289 39 L289 0 L58 0 L58 714 L289 714 L289 675 L96 675 L96 394 L277 394 L277 355 L96 355 L96 39 L289 39 Z " /><g transform="translate(0,184)" ><path fill="black" d="M88 606 L88 614 C109.11 653.581 140.507 720.824 154 764 L190 764 C206.392 720.288 237.751 647.891 256 614 L256 606 L234 606 C214 639.333 192 685.667 172 723 C153.333 687 130 638 110 606 L88 606 Z " /></g></glyph>
<glyph glyph-name="Edieresis" unicode="&#xcb;" horiz-adv-x="375" >
<g transform="translate(0,172)" ><path fill="black" d="M113 632 C98.3333 632 88 649.667 88 675 C88 699 98.3333 717 113 717 C131.667 717 140 699 140 675 C140 648.333 131.667 632 113 632 Z M231 632 C213.667 632 205 649.667 205 675 C205 699 213.667 717 231 717 C247 717 256 700.333 256 675 C256 648.333 248.333 632 231 632 Z " /></g><path fill="black" d="M289 39 L289 0 L58 0 L58 714 L289 714 L289 675 L96 675 L96 394 L277 394 L277 355 L96 355 L96 39 L289 39 Z " /></glyph>
<glyph glyph-name="Igrave" unicode="&#xcc;" horiz-adv-x="375" >
<path fill="black" d="M70 30 L153 35 L153 678 L70 684 L70 714 L274 714 L274 684 L191 678 L191 35 L274 30 L274 0 L70 0 L70 30 Z " /><g transform="translate(-10,184)" ><path fill="black" d="M186 606 C158.703 646.945 115.578 709.451 94 758 L94 765 L138 765 C156.667 717 188.333 657.333 211 616 L211 606 L186 606 Z " /></g></glyph>
<glyph glyph-name="Iacute" unicode="&#xcd;" horiz-adv-x="375" >
<path fill="black" d="M70 30 L153 35 L153 678 L70 684 L70 714 L274 714 L274 684 L191 678 L191 35 L274 30 L274 0 L70 0 L70 30 Z " /><g transform="translate(-6,184)" ><path fill="black" d="M148 606 L148 616 C176 664 202.333 718.333 221 765 L265 765 L265 758 C243.365 712.026 202.525 646.261 173 606 L148 606 Z " /></g></glyph>
<glyph glyph-name="Icircumflex" unicode="&#xce;" horiz-adv-x="375" >
<path fill="black" d="M70 30 L153 35 L153 678 L70 684 L70 714 L274 714 L274 684 L191 678 L191 35 L274 30 L274 0 L70 0 L70 30 Z " /><g transform="translate(0,184)" ><path fill="black" d="M88 606 L88 614 C109.11 653.581 140.507 720.824 154 764 L190 764 C206.392 720.288 237.751 647.891 256 614 L256 606 L234 606 C214 639.333 192 685.667 172 723 C153.333 687 130 638 110 606 L88 606 Z " /></g></glyph>
<glyph glyph-name="Idieresis" unicode="&#xcf;" horiz-adv-x="375" >
<g transform="translate(0,172)" ><path fill="black" d="M113 632 C98.3333 632 88 649.667 88 675 C88 699 98.3333 717 113 717 C131.667 717 140 699 140 675 C140 648.333 131.667 632 113 632 Z M231 632 C213.667 632 205 649.667 205 675 C205 699 213.667 717 231 717 C247 717 256 700.333 256 675 C256 648.333 248.333 632 231 632 Z " /></g><path fill="black" d="M70 30 L153 35 L153 678 L70 684 L70 714 L274 714 L274 684 L191 678 L191 35 L274 30 L274 0 L70 0 L70 30 Z " /></glyph>
<glyph glyph-name="Eth" unicode="&#xd0;" horiz-adv-x="375" d="M51 347 L3 347 L3 385 L51 385 L51 714 L155 714 C269.667 714 325 595 325 363 C325 123 269.667 0 151 0 L51 0 L51 347 Z M147 39 C244.333 39 286 149 286 361 C286 567.667 249.333 675 148 675 L89 675 L89 385 L184 385 L184 347 L89 347 L89 39 L147 39 Z " />
<glyph glyph-name="Ntilde" unicode="&#xd1;" horiz-adv-x="375" >
<path fill="black" d="M41 0 L41 714 L90 714 L270 63 L273 63 C271.667 101.667 268 162.333 268 201 L268 714 L304 714 L304 0 L256 0 L75 655 L73 655 C74.3333 619 76 579.333 76 518 L76 0 L41 0 Z " /><g transform="translate(4,184)" ><path fill="black" d="M72 621 C74.6667 685 92.6667 722 126 722 C163.222 722 185.778 655 215 655 C232.333 655 243.333 675.333 246 722 L272 722 C269.333 654 247.667 620 217 620 C179.778 620 157.222 687 128 687 C113.333 687 99.6667 669 97 621 L72 621 Z " /></g></glyph>
<glyph glyph-name="Ograve" unicode="&#xd2;" horiz-adv-x="375" >
<path fill="black" d="M173 -10 C63.6407 -10 30 168.563 30 358 C30 602.667 77.3333 725 172 725 C275.818 725 315 567.723 315 358 C315 161.636 281.312 -10 173 -10 Z M173 28 C243.667 28 276 142 276 358 C276 571.333 244 686 172 686 C100 686 68 568.667 68 358 C68 147.333 103.667 28 173 28 Z " /><g transform="translate(-10,184)" ><path fill="black" d="M186 606 C158.703 646.945 115.578 709.451 94 758 L94 765 L138 765 C156.667 717 188.333 657.333 211 616 L211 606 L186 606 Z " /></g></glyph>
<glyph glyph-name="Oacute" unicode="&#xd3;" horiz-adv-x="375" >
<path fill="black" d="M173 -10 C63.6407 -10 30 168.563 30 358 C30 602.667 77.3333 725 172 725 C275.818 725 315 567.723 315 358 C315 161.636 281.312 -10 173 -10 Z M173 28 C243.667 28 276 142 276 358 C276 571.333 244 686 172 686 C100 686 68 568.667 68 358 C68 147.333 103.667 28 173 28 Z " /><g transform="translate(-6,184)" ><path fill="black" d="M148 606 L148 616 C176 664 202.333 718.333 221 765 L265 765 L265 758 C243.365 712.026 202.525 646.261 173 606 L148 606 Z " /></g></glyph>
<glyph glyph-name="Ocircumflex" unicode="&#xd4;" horiz-adv-x="375" >
<path fill="black" d="M173 -10 C63.6407 -10 30 168.563 30 358 C30 602.667 77.3333 725 172 725 C275.818 725 315 567.723 315 358 C315 161.636 281.312 -10 173 -10 Z M173 28 C243.667 28 276 142 276 358 C276 571.333 244 686 172 686 C100 686 68 568.667 68 358 C68 147.333 103.667 28 173 28 Z " /><g transform="translate(0,184)" ><path fill="black" d="M88 606 L88 614 C109.11 653.581 140.507 720.824 154 764 L190 764 C206.392 720.288 237.751 647.891 256 614 L256 606 L234 606 C214 639.333 192 685.667 172 723 C153.333 687 130 638 110 606 L88 606 Z " /></g></glyph>
<glyph glyph-name="Otilde" unicode="&#xd5;" horiz-adv-x="375" >
<path fill="black" d="M173 -10 C63.6407 -10 30 168.563 30 358 C30 602.667 77.3333 725 172 725 C275.818 725 315 567.723 315 358 C315 161.636 281.312 -10 173 -10 Z M173 28 C243.667 28 276 142 276 358 C276 571.333 244 686 172 686 C100 686 68 568.667 68 358 C68 147.333 103.667 28 173 28 Z " /><g transform="translate(0,184)" ><path fill="black" d="M72 621 C74.6667 685 92.6667 722 126 722 C163.222 722 185.778 655 215 655 C232.333 655 243.333 675.333 246 722 L272 722 C269.333 654 247.667 620 217 620 C179.778 620 157.222 687 128 687 C113.333 687 99.6667 669 97 621 L72 621 Z " /></g></glyph>
<glyph glyph-name="Odieresis" unicode="&#xd6;" horiz-adv-x="375" >
<g transform="translate(0,172)" ><path fill="black" d="M113 632 C98.3333 632 88 649.667 88 675 C88 699 98.3333 717 113 717 C131.667 717 140 699 140 675 C140 648.333 131.667 632 113 632 Z M231 632 C213.667 632 205 649.667 205 675 C205 699 213.667 717 231 717 C247 717 256 700.333 256 675 C256 648.333 248.333 632 231 632 Z " /></g><path fill="black" d="M173 -10 C63.6407 -10 30 168.563 30 358 C30 602.667 77.3333 725 172 725 C275.818 725 315 567.723 315 358 C315 161.636 281.312 -10 173 -10 Z M173 28 C243.667 28 276 142 276 358 C276 571.333 244 686 172 686 C100 686 68 568.667 68 358 C68 147.333 103.667 28 173 28 Z " /></glyph>
<glyph glyph-name="multiply" unicode="&#xd7;" horiz-adv-x="375" d="M41 192 L146 354 L41 514 L63 540 L167 378 L271 540 L294 516 L189 354 L293 192 L270 168 L167 329 L62 167 L41 192 Z " />
<glyph glyph-name="Oslash" unicode="&#xd8;" horiz-adv-x="375" d="M59 116 C40.3333 184 33 268.667 33 358 C33 602.667 80.3333 725 175 725 C216.333 725 247.333 699.667 270 657 L303 741 L328 722 L287 616 C309.667 550.667 318 462 318 358 C318 161.636 284.312 -10 176 -10 C129.333 -10 97.6667 20.3333 75 71 L36 -31 L9 -13 L59 116 Z M95 122 C113.667 59.3333 140.667 28 176 28 C246.667 28 279 142 279 358 C279 439.333 274 506 264 558 L95 122 Z M251 609 C233.667 660.333 208.333 686 175 686 C103 686 71 568.667 71 358 C71 286.667 75 226.333 83 177 L251 609 Z " />
<glyph glyph-name="Ugrave" unicode="&#xd9;" horiz-adv-x="375" >
<path fill="black" d="M41 714 L79 714 L79 234 C79 90 112 28 172 28 C232 28 266 86 266 230 L266 714 L304 714 L304 227 C304 59 254.667 -10 172 -10 C85.3333 -10 41 67 41 231 L41 714 Z " /><g transform="translate(-10,184)" ><path fill="black" d="M186 606 C158.703 646.945 115.578 709.451 94 758 L94 765 L138 765 C156.667 717 188.333 657.333 211 616 L211 606 L186 606 Z " /></g></glyph>
<glyph glyph-name="Uacute" unicode="&#xda;" horiz-adv-x="375" >
<path fill="black" d="M41 714 L79 714 L79 234 C79 90 112 28 172 28 C232 28 266 86 266 230 L266 714 L304 714 L304 227 C304 59 254.667 -10 172 -10 C85.3333 -10 41 67 41 231 L41 714 Z " /><g transform="translate(-6,184)" ><path fill="black" d="M148 606 L148 616 C176 664 202.333 718.333 221 765 L265 765 L265 758 C243.365 712.026 202.525 646.261 173 606 L148 606 Z " /></g></glyph>
<glyph glyph-name="Ucircumflex" unicode="&#xdb;" horiz-adv-x="375" >
<path fill="black" d="M41 714 L79 714 L79 234 C79 90 112 28 172 28 C232 28 266 86 266 230 L266 714 L304 714 L304 227 C304 59 254.667 -10 172 -10 C85.3333 -10 41 67 41 231 L41 714 Z " /><g transform="translate(0,184)" ><path fill="black" d="M88 606 L88 614 C109.11 653.581 140.507 720.824 154 764 L190 764 C206.392 720.288 237.751 647.891 256 614 L256 606 L234 606 C214 639.333 192 685.667 172 723 C153.333 687 130 638 110 606 L88 606 Z " /></g></glyph>
<glyph glyph-name="Udieresis" unicode="&#xdc;" horiz-adv-x="375" >
<g transform="translate(0,172)" ><path fill="black" d="M113 632 C98.3333 632 88 649.667 88 675 C88 699 98.3333 717 113 717 C131.667 717 140 699 140 675 C140 648.333 131.667 632 113 632 Z M231 632 C213.667 632 205 649.667 205 675 C205 699 213.667 717 231 717 C247 717 256 700.333 256 675 C256 648.333 248.333 632 231 632 Z " /></g><path fill="black" d="M41 714 L79 714 L79 234 C79 90 112 28 172 28 C232 28 266 86 266 230 L266 714 L304 714 L304 227 C304 59 254.667 -10 172 -10 C85.3333 -10 41 67 41 231 L41 714 Z " /></glyph>
<glyph glyph-name="Yacute" unicode="&#xdd;" horiz-adv-x="375" >
<path fill="black" d="M154 0 L154 274 L22 714 L63 714 L172 317 L281 714 L323 714 L191 276 L191 0 L154 0 Z " /><g transform="translate(-6,184)" ><path fill="black" d="M148 606 L148 616 C176 664 202.333 718.333 221 765 L265 765 L265 758 C243.365 712.026 202.525 646.261 173 606 L148 606 Z " /></g></glyph>
<glyph glyph-name="Thorn" unicode="&#xde;" horiz-adv-x="375" d="M58 0 L58 714 L96 714 L96 587 L170 587 C263.333 587 312 530.333 312 385 C312 243.667 267.667 171 169 171 L96 171 L96 0 L58 0 Z M96 210 L164 210 C238.667 210 273 259.667 273 385 C273 505 239.667 548 165 548 L96 548 L96 210 Z " />
<glyph glyph-name="germandbls" unicode="&#xdf;" horiz-adv-x="375" d="M66 576 C66 694.667 103.333 765 178 765 C242 765 278 712 278 636 C278 519.111 209 512.889 209 420 C209 370.667 226.333 344.333 253 303 C289.777 250.462 311 213.625 311 138 C311 55.3333 276.026 -10 212 -10 C184.667 -10 161.333 -1.33333 142 16 L142 57 C163.333 37.6667 185.333 28 208 28 C250.667 28 273 71.3333 273 138 C273 202 253 234.667 225 276 C195.667 318.667 170 355 170 419 C170 525.222 239 531.444 239 635 C239 691 218.667 728 176 728 C125.333 728 103 671 103 571 L103 0 L66 0 L66 576 Z " />
<glyph glyph-name="agrave" unicode="&#xe0;" horiz-adv-x="375" >
<path fill="black" d="M251 92 L250 92 C231.333 37.3333 202.667 -10 148 -10 C85.3333 -10 51 47 51 135 C51 241.667 100.333 291.667 191 301 L249 307 L249 351 C249 463 223 502 175 502 C147 502 118.333 490 89 466 L75 501 C107 525 139.667 540 177 540 C249 540 287 487.333 287 358 L287 0 L257 0 L251 92 Z M249 274 L198 268 C127.333 261.333 90 220.333 90 135 C90 64.3333 116 27 156 27 C216 27 249 100.333 249 219 L249 274 Z " /><g transform="translate(-4,0)" ><path fill="black" d="M186 606 C158.703 646.945 115.578 709.451 94 758 L94 765 L138 765 C156.667 717 188.333 657.333 211 616 L211 606 L186 606 Z " /></g></glyph>
<glyph glyph-name="aacute" unicode="&#xe1;" horiz-adv-x="375" >
<path fill="black" d="M251 92 L250 92 C231.333 37.3333 202.667 -10 148 -10 C85.3333 -10 51 47 51 135 C51 241.667 100.333 291.667 191 301 L249 307 L249 351 C249 463 223 502 175 502 C147 502 118.333 490 89 466 L75 501 C107 525 139.667 540 177 540 C249 540 287 487.333 287 358 L287 0 L257 0 L251 92 Z M249 274 L198 268 C127.333 261.333 90 220.333 90 135 C90 64.3333 116 27 156 27 C216 27 249 100.333 249 219 L249 274 Z " /><path fill="black" d="M148 606 L148 616 C176 664 202.333 718.333 221 765 L265 765 L265 758 C243.365 712.026 202.525 646.261 173 606 L148 606 Z " /></glyph>
<glyph glyph-name="acircumflex" unicode="&#xe2;" horiz-adv-x="375" >
<path fill="black" d="M251 92 L250 92 C231.333 37.3333 202.667 -10 148 -10 C85.3333 -10 51 47 51 135 C51 241.667 100.333 291.667 191 301 L249 307 L249 351 C249 463 223 502 175 502 C147 502 118.333 490 89 466 L75 501 C107 525 139.667 540 177 540 C249 540 287 487.333 287 358 L287 0 L257 0 L251 92 Z M249 274 L198 268 C127.333 261.333 90 220.333 90 135 C90 64.3333 116 27 156 27 C216 27 249 100.333 249 219 L249 274 Z " /><g transform="translate(6,0)" ><path fill="black" d="M88 606 L88 614 C109.11 653.581 140.507 720.824 154 764 L190 764 C206.392 720.288 237.751 647.891 256 614 L256 606 L234 606 C214 639.333 192 685.667 172 723 C153.333 687 130 638 110 606 L88 606 Z " /></g></glyph>
<glyph glyph-name="atilde" unicode="&#xe3;" horiz-adv-x="375" >
<path fill="black" d="M251 92 L250 92 C231.333 37.3333 202.667 -10 148 -10 C85.3333 -10 51 47 51 135 C51 241.667 100.333 291.667 191 301 L249 307 L249 351 C249 463 223 502 175 502 C147 502 118.333 490 89 466 L75 501 C107 525 139.667 540 177 540 C249 540 287 487.333 287 358 L287 0 L257 0 L251 92 Z M249 274 L198 268 C127.333 261.333 90 220.333 90 135 C90 64.3333 116 27 156 27 C216 27 249 100.333 249 219 L249 274 Z " /><g transform="translate(6,0)" ><path fill="black" d="M72 621 C74.6667 685 92.6667 722 126 722 C163.222 722 185.778 655 215 655 C232.333 655 243.333 675.333 246 722 L272 722 C269.333 654 247.667 620 217 620 C179.778 620 157.222 687 128 687 C113.333 687 99.6667 669 97 621 L72 621 Z " /></g></glyph>
<glyph glyph-name="adieresis" unicode="&#xe4;" horiz-adv-x="375" >
<g transform="translate(6,-12)" ><path fill="black" d="M113 632 C98.3333 632 88 649.667 88 675 C88 699 98.3333 717 113 717 C131.667 717 140 699 140 675 C140 648.333 131.667 632 113 632 Z M231 632 C213.667 632 205 649.667 205 675 C205 699 213.667 717 231 717 C247 717 256 700.333 256 675 C256 648.333 248.333 632 231 632 Z " /></g><path fill="black" d="M251 92 L250 92 C231.333 37.3333 202.667 -10 148 -10 C85.3333 -10 51 47 51 135 C51 241.667 100.333 291.667 191 301 L249 307 L249 351 C249 463 223 502 175 502 C147 502 118.333 490 89 466 L75 501 C107 525 139.667 540 177 540 C249 540 287 487.333 287 358 L287 0 L257 0 L251 92 Z M249 274 L198 268 C127.333 261.333 90 220.333 90 135 C90 64.3333 116 27 156 27 C216 27 249 100.333 249 219 L249 274 Z " /></glyph>
<glyph glyph-name="aring" unicode="&#xe5;" horiz-adv-x="375" >
<path fill="black" d="M251 92 L250 92 C231.333 37.3333 202.667 -10 148 -10 C85.3333 -10 51 47 51 135 C51 241.667 100.333 291.667 191 301 L249 307 L249 351 C249 463 223 502 175 502 C147 502 118.333 490 89 466 L75 501 C107 525 139.667 540 177 540 C249 540 287 487.333 287 358 L287 0 L257 0 L251 92 Z M249 274 L198 268 C127.333 261.333 90 220.333 90 135 C90 64.3333 116 27 156 27 C216 27 249 100.333 249 219 L249 274 Z " /><g transform="translate(6,0)" ><path fill="black" d="M173 613 C134.333 613 104 648 104 708 C104 765.333 133.333 803 172 803 C210.667 803 240 765.667 240 707 C240 649.667 211.667 613 173 613 Z M173 642 C197 642 214 668.333 214 707 C214 747 197.333 773 172 773 C146.667 773 130 746.667 130 708 C130 669.333 146.333 642 173 642 Z " /></g></glyph>
<glyph glyph-name="ae" unicode="&#xe6;" horiz-adv-x="375" d="M316 23 C296 1 275.333 -10 254 -10 C211.333 -10 185.667 40.6667 171 126 C160.333 40.6667 138 -10 94 -10 C43.3333 -10 17 46.3333 17 133 C17 242.333 55 295.667 123 301 L151 303 L151 355 C151 459 133.667 502 99 502 C80.3333 502 61 490.667 41 468 L29 501 C49 523.667 74.6667 539 104 539 C142.667 539 167 499.667 175 413 C187 485 210.667 540 248 540 C303.134 540 328 441.277 328 299 L328 265 L188 265 C189.333 119.667 212.333 28 259 28 C273.667 28 290.667 34.6667 316 64 L316 23 Z M151 267 L127 265 C77 261 52 217 52 133 C52 67.6667 67.6667 28 97 28 C135.355 28 151 105.437 151 204 L151 267 Z M294 302 C294 418.364 278 502 246 502 C214 502 191.667 428.667 189 302 L294 302 Z " />
<glyph glyph-name="ccedilla" unicode="&#xe7;" horiz-adv-x="375" d="M145 -202 C155 -206.667 165.667 -209 177 -209 C209 -209 228 -185.333 228 -144 C228 -101.333 207.667 -84.6667 169 -82 L191 -9 C105.667 1.66667 59 100 59 260 C59 442.667 117.333 540 212 540 C242.667 540 270.333 532.333 295 517 L283 481 C260.333 497 238 503 214 503 C140.667 503 99 415.667 99 261 C99 121.494 133.312 28 209 28 C235.667 28 267 37 291 53 L291 13 C272.333 2.33333 245 -7.33333 217 -10 L202 -60 C240.667 -66.6667 260 -95 260 -145 C260 -203.667 230.333 -240 181 -240 C169 -240 155.667 -238 145 -234 L145 -202 Z " />
<glyph glyph-name="egrave" unicode="&#xe8;" horiz-adv-x="375" >
<path fill="black" d="M292 24 C262.667 1.33333 232.667 -10 194 -10 C95.3333 -10 44 96.3333 44 263 C44 425.745 91.1818 540 179 540 C264.177 540 305 431.281 305 298 L305 264 L83 264 C84.3333 106.667 121.667 28 195 28 C232.333 28 260 38.3333 292 65 L292 24 Z M268 301 C268 418.281 238.208 503 178 503 C123.333 503 89.3333 434.333 84 301 L268 301 Z " /><g transform="translate(-4,0)" ><path fill="black" d="M186 606 C158.703 646.945 115.578 709.451 94 758 L94 765 L138 765 C156.667 717 188.333 657.333 211 616 L211 606 L186 606 Z " /></g></glyph>
<glyph glyph-name="eacute" unicode="&#xe9;" horiz-adv-x="375" >
<path fill="black" d="M292 24 C262.667 1.33333 232.667 -10 194 -10 C95.3333 -10 44 96.3333 44 263 C44 425.745 91.1818 540 179 540 C264.177 540 305 431.281 305 298 L305 264 L83 264 C84.3333 106.667 121.667 28 195 28 C232.333 28 260 38.3333 292 65 L292 24 Z M268 301 C268 418.281 238.208 503 178 503 C123.333 503 89.3333 434.333 84 301 L268 301 Z " /><path fill="black" d="M148 606 L148 616 C176 664 202.333 718.333 221 765 L265 765 L265 758 C243.365 712.026 202.525 646.261 173 606 L148 606 Z " /></glyph>
<glyph glyph-name="ecircumflex" unicode="&#xea;" horiz-adv-x="375" >
<path fill="black" d="M292 24 C262.667 1.33333 232.667 -10 194 -10 C95.3333 -10 44 96.3333 44 263 C44 425.745 91.1818 540 179 540 C264.177 540 305 431.281 305 298 L305 264 L83 264 C84.3333 106.667 121.667 28 195 28 C232.333 28 260 38.3333 292 65 L292 24 Z M268 301 C268 418.281 238.208 503 178 503 C123.333 503 89.3333 434.333 84 301 L268 301 Z " /><g transform="translate(6,0)" ><path fill="black" d="M88 606 L88 614 C109.11 653.581 140.507 720.824 154 764 L190 764 C206.392 720.288 237.751 647.891 256 614 L256 606 L234 606 C214 639.333 192 685.667 172 723 C153.333 687 130 638 110 606 L88 606 Z " /></g></glyph>
<glyph glyph-name="edieresis" unicode="&#xeb;" horiz-adv-x="375" >
<g transform="translate(6,-12)" ><path fill="black" d="M113 632 C98.3333 632 88 649.667 88 675 C88 699 98.3333 717 113 717 C131.667 717 140 699 140 675 C140 648.333 131.667 632 113 632 Z M231 632 C213.667 632 205 649.667 205 675 C205 699 213.667 717 231 717 C247 717 256 700.333 256 675 C256 648.333 248.333 632 231 632 Z " /></g><path fill="black" d="M292 24 C262.667 1.33333 232.667 -10 194 -10 C95.3333 -10 44 96.3333 44 263 C44 425.745 91.1818 540 179 540 C264.177 540 305 431.281 305 298 L305 264 L83 264 C84.3333 106.667 121.667 28 195 28 C232.333 28 260 38.3333 292 65 L292 24 Z M268 301 C268 418.281 238.208 503 178 503 C123.333 503 89.3333 434.333 84 301 L268 301 Z " /></glyph>
<glyph glyph-name="igrave" unicode="&#xec;" horiz-adv-x="344" >
<path fill="black" d="M55 31 L160 37 L160 492 L65 499 L65 530 L198 530 L198 37 L295 31 L295 0 L55 0 L55 31 Z " /><g transform="translate(-10,0)" ><path fill="black" d="M186 606 C158.703 646.945 115.578 709.451 94 758 L94 765 L138 765 C156.667 717 188.333 657.333 211 616 L211 606 L186 606 Z " /></g></glyph>
<glyph glyph-name="iacute" unicode="&#xed;" horiz-adv-x="344" >
<path fill="black" d="M55 31 L160 37 L160 492 L65 499 L65 530 L198 530 L198 37 L295 31 L295 0 L55 0 L55 31 Z " /><g transform="translate(-6,0)" ><path fill="black" d="M148 606 L148 616 C176 664 202.333 718.333 221 765 L265 765 L265 758 C243.365 712.026 202.525 646.261 173 606 L148 606 Z " /></g></glyph>
<glyph glyph-name="icircumflex" unicode="&#xee;" horiz-adv-x="344" >
<path fill="black" d="M55 31 L160 37 L160 492 L65 499 L65 530 L198 530 L198 37 L295 31 L295 0 L55 0 L55 31 Z " /><path fill="black" d="M88 606 L88 614 C109.11 653.581 140.507 720.824 154 764 L190 764 C206.392 720.288 237.751 647.891 256 614 L256 606 L234 606 C214 639.333 192 685.667 172 723 C153.333 687 130 638 110 606 L88 606 Z " /></glyph>
<glyph glyph-name="idieresis" unicode="&#xef;" horiz-adv-x="344" >
<g transform="translate(0,-12)" ><path fill="black" d="M113 632 C98.3333 632 88 649.667 88 675 C88 699 98.3333 717 113 717 C131.667 717 140 699 140 675 C140 648.333 131.667 632 113 632 Z M231 632 C213.667 632 205 649.667 205 675 C205 699 213.667 717 231 717 C247 717 256 700.333 256 675 C256 648.333 248.333 632 231 632 Z " /></g><path fill="black" d="M55 31 L160 37 L160 492 L65 499 L65 530 L198 530 L198 37 L295 31 L295 0 L55 0 L55 31 Z " /></glyph>
<glyph glyph-name="eth" unicode="&#xf0;" horiz-adv-x="375" d="M262 399 C250 495 219.333 580.333 178 647 L112 589 L96 618 L160 675 C142.667 697.667 125.667 716 107 732 L124 759 C146.667 743 168.333 721.667 187 699 L253 758 L269 728 L206 673 C276.667 569 308 420.333 308 271 C308 87 260 -10 172 -10 C84.0519 -10 38 94.1558 38 226 C38 376.667 91 467 171 467 C212.333 467 242.667 440.333 260 399 L262 399 Z M172 27 C235.108 27 269 115.922 269 244 C269 350.745 241.104 429 177 429 C111.667 429 75 354 75 226 C75 107.333 109.333 27 172 27 Z " />
<glyph glyph-name="ntilde" unicode="&#xf1;" horiz-adv-x="375" >
<path fill="black" d="M52 0 L52 530 L82 530 L87 429 L90 429 C104.667 487.667 137.333 540 192 540 C258.667 540 296 484.667 296 358 L296 0 L258 0 L258 353 C258 457 231.667 502 185 502 C127.667 502 90 436 90 300 L90 0 L52 0 Z " /><g transform="translate(5,0)" ><path fill="black" d="M72 621 C74.6667 685 92.6667 722 126 722 C163.222 722 185.778 655 215 655 C232.333 655 243.333 675.333 246 722 L272 722 C269.333 654 247.667 620 217 620 C179.778 620 157.222 687 128 687 C113.333 687 99.6667 669 97 621 L72 621 Z " /></g></glyph>
<glyph glyph-name="ograve" unicode="&#xf2;" horiz-adv-x="375" >
<path fill="black" d="M173 -10 C83.6667 -10 38 91.3333 38 266 C38 440.667 85 540 173 540 C262.619 540 308 431.329 308 265 C308 90.3333 265 -10 173 -10 Z M172 27 C240 27 268 112.667 268 266 C268 408.667 240.667 502 174 502 C108.667 502 76 419.333 76 266 C76 115.333 108 27 172 27 Z " /><g transform="translate(-10,0)" ><path fill="black" d="M186 606 C158.703 646.945 115.578 709.451 94 758 L94 765 L138 765 C156.667 717 188.333 657.333 211 616 L211 606 L186 606 Z " /></g></glyph>
<glyph glyph-name="oacute" unicode="&#xf3;" horiz-adv-x="375" >
<path fill="black" d="M173 -10 C83.6667 -10 38 91.3333 38 266 C38 440.667 85 540 173 540 C262.619 540 308 431.329 308 265 C308 90.3333 265 -10 173 -10 Z M172 27 C240 27 268 112.667 268 266 C268 408.667 240.667 502 174 502 C108.667 502 76 419.333 76 266 C76 115.333 108 27 172 27 Z " /><g transform="translate(-6,0)" ><path fill="black" d="M148 606 L148 616 C176 664 202.333 718.333 221 765 L265 765 L265 758 C243.365 712.026 202.525 646.261 173 606 L148 606 Z " /></g></glyph>
<glyph glyph-name="ocircumflex" unicode="&#xf4;" horiz-adv-x="375" >
<path fill="black" d="M173 -10 C83.6667 -10 38 91.3333 38 266 C38 440.667 85 540 173 540 C262.619 540 308 431.329 308 265 C308 90.3333 265 -10 173 -10 Z M172 27 C240 27 268 112.667 268 266 C268 408.667 240.667 502 174 502 C108.667 502 76 419.333 76 266 C76 115.333 108 27 172 27 Z " /><path fill="black" d="M88 606 L88 614 C109.11 653.581 140.507 720.824 154 764 L190 764 C206.392 720.288 237.751 647.891 256 614 L256 606 L234 606 C214 639.333 192 685.667 172 723 C153.333 687 130 638 110 606 L88 606 Z " /></glyph>
<glyph glyph-name="otilde" unicode="&#xf5;" horiz-adv-x="375" >
<path fill="black" d="M173 -10 C83.6667 -10 38 91.3333 38 266 C38 440.667 85 540 173 540 C262.619 540 308 431.329 308 265 C308 90.3333 265 -10 173 -10 Z M172 27 C240 27 268 112.667 268 266 C268 408.667 240.667 502 174 502 C108.667 502 76 419.333 76 266 C76 115.333 108 27 172 27 Z " /><path fill="black" d="M72 621 C74.6667 685 92.6667 722 126 722 C163.222 722 185.778 655 215 655 C232.333 655 243.333 675.333 246 722 L272 722 C269.333 654 247.667 620 217 620 C179.778 620 157.222 687 128 687 C113.333 687 99.6667 669 97 621 L72 621 Z " /></glyph>
<glyph glyph-name="odieresis" unicode="&#xf6;" horiz-adv-x="375" >
<g transform="translate(0,-12)" ><path fill="black" d="M113 632 C98.3333 632 88 649.667 88 675 C88 699 98.3333 717 113 717 C131.667 717 140 699 140 675 C140 648.333 131.667 632 113 632 Z M231 632 C213.667 632 205 649.667 205 675 C205 699 213.667 717 231 717 C247 717 256 700.333 256 675 C256 648.333 248.333 632 231 632 Z " /></g><path fill="black" d="M173 -10 C83.6667 -10 38 91.3333 38 266 C38 440.667 85 540 173 540 C262.619 540 308 431.329 308 265 C308 90.3333 265 -10 173 -10 Z M172 27 C240 27 268 112.667 268 266 C268 408.667 240.667 502 174 502 C108.667 502 76 419.333 76 266 C76 115.333 108 27 172 27 Z " /></glyph>
<glyph glyph-name="divide" unicode="&#xf7;" horiz-adv-x="375" d="M40 371 L304 371 L304 335 L40 335 L40 371 Z M173 134 C154.333 134 147 151 147 175 C147 200.333 154.333 216 173 216 C191.667 216 198 199 198 175 C198 149.667 191.667 134 173 134 Z M173 490 C154.333 490 147 507 147 531 C147 556.333 154.333 572 173 572 C191.667 572 198 555 198 531 C198 505.667 191.667 490 173 490 Z " />
<glyph glyph-name="oslash" unicode="&#xf8;" horiz-adv-x="375" d="M76 63 C53.3333 111 42 179.333 42 266 C42 440.667 89 540 177 540 C210.333 540 237.667 525.667 259 497 L290 571 L314 554 L277 467 C299.667 419 312 349 312 265 C312 90.3333 269 -10 177 -10 C144.333 -10 117 4 95 32 L59 -53 L35 -34 L76 63 Z M242 457 C226.667 487 205.333 502 178 502 C112.667 502 80 419.333 80 266 C80 204.667 85.6667 153.333 97 112 L242 457 Z M112 73 C127.333 42.3333 148.667 27 176 27 C244 27 272 112.667 272 266 C272 328 267 378.333 257 417 L112 73 Z " />
<glyph glyph-name="ugrave" unicode="&#xf9;" horiz-adv-x="375" >
<path fill="black" d="M49 530 L87 530 L87 181 C87 71.6667 113.333 28 164 28 C220 28 255 93.6667 255 235 L255 530 L292 530 L292 0 L261 0 L256 101 L253 101 C239.667 42.3333 207.667 -10 153 -10 C83.6667 -10 49 50.6667 49 172 L49 530 Z " /><g transform="translate(-10,0)" ><path fill="black" d="M186 606 C158.703 646.945 115.578 709.451 94 758 L94 765 L138 765 C156.667 717 188.333 657.333 211 616 L211 606 L186 606 Z " /></g></glyph>
<glyph glyph-name="uacute" unicode="&#xfa;" horiz-adv-x="375" >
<path fill="black" d="M49 530 L87 530 L87 181 C87 71.6667 113.333 28 164 28 C220 28 255 93.6667 255 235 L255 530 L292 530 L292 0 L261 0 L256 101 L253 101 C239.667 42.3333 207.667 -10 153 -10 C83.6667 -10 49 50.6667 49 172 L49 530 Z " /><g transform="translate(-6,0)" ><path fill="black" d="M148 606 L148 616 C176 664 202.333 718.333 221 765 L265 765 L265 758 C243.365 712.026 202.525 646.261 173 606 L148 606 Z " /></g></glyph>
<glyph glyph-name="ucircumflex" unicode="&#xfb;" horiz-adv-x="375" >
<path fill="black" d="M49 530 L87 530 L87 181 C87 71.6667 113.333 28 164 28 C220 28 255 93.6667 255 235 L255 530 L292 530 L292 0 L261 0 L256 101 L253 101 C239.667 42.3333 207.667 -10 153 -10 C83.6667 -10 49 50.6667 49 172 L49 530 Z " /><path fill="black" d="M88 606 L88 614 C109.11 653.581 140.507 720.824 154 764 L190 764 C206.392 720.288 237.751 647.891 256 614 L256 606 L234 606 C214 639.333 192 685.667 172 723 C153.333 687 130 638 110 606 L88 606 Z " /></glyph>
<glyph glyph-name="udieresis" unicode="&#xfc;" horiz-adv-x="375" >
<g transform="translate(0,-12)" ><path fill="black" d="M113 632 C98.3333 632 88 649.667 88 675 C88 699 98.3333 717 113 717 C131.667 717 140 699 140 675 C140 648.333 131.667 632 113 632 Z M231 632 C213.667 632 205 649.667 205 675 C205 699 213.667 717 231 717 C247 717 256 700.333 256 675 C256 648.333 248.333 632 231 632 Z " /></g><path fill="black" d="M49 530 L87 530 L87 181 C87 71.6667 113.333 28 164 28 C220 28 255 93.6667 255 235 L255 530 L292 530 L292 0 L261 0 L256 101 L253 101 C239.667 42.3333 207.667 -10 153 -10 C83.6667 -10 49 50.6667 49 172 L49 530 Z " /></glyph>
<glyph glyph-name="yacute" unicode="&#xfd;" horiz-adv-x="375" >
<path fill="black" d="M40 -196 C51.3333 -202.667 62 -206 72 -206 C102.667 -206 123 -181.667 139 -103 L160 6 L39 530 L79 530 L153 174 C166.333 114 171.667 82.6667 177 56 L179 56 C184.333 93.3333 192 131.333 200 174 L268 530 L308 530 L176 -101 C156 -194.333 126.667 -244 76 -244 C62.6667 -244 52 -240.333 40 -235 L40 -196 Z " /><g transform="translate(-6,0)" ><path fill="black" d="M148 606 L148 616 C176 664 202.333 718.333 221 765 L265 765 L265 758 C243.365 712.026 202.525 646.261 173 606 L148 606 Z " /></g></glyph>
<glyph glyph-name="thorn" unicode="&#xfe;" horiz-adv-x="375" d="M52 -240 L52 726 L90 726 L90 532 C90 494.667 89 457 87 419 L89 419 C104.749 481.995 135.803 540 188 540 C266.667 540 308 450 308 270 C308 83.3333 259.333 -10 186 -10 C133.503 -10 105.993 44.0253 90 100 L88 100 C89.3333 72 90 39.6667 90 5 L90 -240 L52 -240 Z M90 248 C90 106.667 123 28 179 28 C235 28 268 102 268 270 C268 424.667 238.667 502 180 502 C120 502 90 415.333 90 282 L90 248 Z " />
<glyph glyph-name="ydieresis" unicode="&#xff;" horiz-adv-x="375" >
<g transform="translate(0,-12)" ><path fill="black" d="M113 632 C98.3333 632 88 649.667 88 675 C88 699 98.3333 717 113 717 C131.667 717 140 699 140 675 C140 648.333 131.667 632 113 632 Z M231 632 C213.667 632 205 649.667 205 675 C205 699 213.667 717 231 717 C247 717 256 700.333 256 675 C256 648.333 248.333 632 231 632 Z " /></g><path fill="black" d="M40 -196 C51.3333 -202.667 62 -206 72 -206 C102.667 -206 123 -181.667 139 -103 L160 6 L39 530 L79 530 L153 174 C166.333 114 171.667 82.6667 177 56 L179 56 C184.333 93.3333 192 131.333 200 174 L268 530 L308 530 L176 -101 C156 -194.333 126.667 -244 76 -244 C62.6667 -244 52 -240.333 40 -235 L40 -196 Z " /></glyph>
<glyph glyph-name="Amacron" unicode="&#x100;" horiz-adv-x="375" >
<path fill="black" d="M147 715 L196 715 L328 0 L290 0 L244 263 L100 263 L55 0 L16 0 L147 715 Z M238 301 L188 585 C182.667 615.667 177.667 644.667 171 678 C167 647.333 161.333 617 156 585 L107 301 L238 301 Z " /><g transform="translate(-1,195)" ><path fill="black" d="M92 655 L252 655 L252 621 L92 621 L92 655 Z " /></g></glyph>
<glyph glyph-name="amacron" unicode="&#x101;" horiz-adv-x="375" >
<path fill="black" d="M251 92 L250 92 C231.333 37.3333 202.667 -10 148 -10 C85.3333 -10 51 47 51 135 C51 241.667 100.333 291.667 191 301 L249 307 L249 351 C249 463 223 502 175 502 C147 502 118.333 490 89 466 L75 501 C107 525 139.667 540 177 540 C249 540 287 487.333 287 358 L287 0 L257 0 L251 92 Z M249 274 L198 268 C127.333 261.333 90 220.333 90 135 C90 64.3333 116 27 156 27 C216 27 249 100.333 249 219 L249 274 Z " /><g transform="translate(6,-1)" ><path fill="black" d="M92 655 L252 655 L252 621 L92 621 L92 655 Z " /></g></glyph>
<glyph glyph-name="Abreve" unicode="&#x102;" horiz-adv-x="375" >
<path fill="black" d="M147 715 L196 715 L328 0 L290 0 L244 263 L100 263 L55 0 L16 0 L147 715 Z M238 301 L188 585 C182.667 615.667 177.667 644.667 171 678 C167 647.333 161.333 617 156 585 L107 301 L238 301 Z " /><g transform="translate(-1,196)" ><path fill="black" d="M119 723 C121.667 672.333 140 642 172 642 C205.333 642 223.333 672.333 226 723 L252 723 C249.333 651 220 609 172 609 C125.333 609 95.6667 647 93 723 L119 723 Z " /></g></glyph>
<glyph glyph-name="abreve" unicode="&#x103;" horiz-adv-x="375" >
<path fill="black" d="M251 92 L250 92 C231.333 37.3333 202.667 -10 148 -10 C85.3333 -10 51 47 51 135 C51 241.667 100.333 291.667 191 301 L249 307 L249 351 C249 463 223 502 175 502 C147 502 118.333 490 89 466 L75 501 C107 525 139.667 540 177 540 C249 540 287 487.333 287 358 L287 0 L257 0 L251 92 Z M249 274 L198 268 C127.333 261.333 90 220.333 90 135 C90 64.3333 116 27 156 27 C216 27 249 100.333 249 219 L249 274 Z " /><g transform="translate(6,0)" ><path fill="black" d="M119 723 C121.667 672.333 140 642 172 642 C205.333 642 223.333 672.333 226 723 L252 723 C249.333 651 220 609 172 609 C125.333 609 95.6667 647 93 723 L119 723 Z " /></g></glyph>
<glyph glyph-name="Aogonek" unicode="&#x104;" horiz-adv-x="375" d="M147 715 L196 715 L326 9 L344 0 C312 -42.6667 295 -82 295 -130 C295 -167.333 306.333 -186 329 -186 C338.333 -186 346.667 -182.667 352 -180 L352 -211 C344.667 -216.333 335 -219 323 -219 C284.333 -219 263 -190.333 263 -137 C263 -87.6667 281 -42.6667 313 0 L290 0 L244 263 L100 263 L55 0 L16 0 L147 715 Z M238 301 L188 585 C182.667 615.667 177.667 644.667 171 678 C167 647.333 161.333 617 156 585 L107 301 L238 301 Z " />
<glyph glyph-name="aogonek" unicode="&#x105;" horiz-adv-x="375" d="M308 -211 C300.667 -216.333 291 -219 279 -219 C240.333 -219 219 -190.333 219 -137 C219 -87.6667 237 -42.6667 269 0 L260 0 L254 92 L253 92 C234.333 37.3333 205.667 -10 151 -10 C88.3333 -10 54 47 54 135 C54 241.667 103.333 291.667 194 301 L252 307 L252 351 C252 463 226 502 178 502 C150 502 121.333 490 92 466 L78 501 C110 525 142.667 540 180 540 C252 540 290 487.333 290 358 L290 5 L300 0 C268 -42.6667 251 -82 251 -130 C251 -167.333 262.333 -186 285 -186 C294.333 -186 302.667 -182.667 308 -180 L308 -211 Z M252 274 L201 268 C130.333 261.333 93 220.333 93 135 C93 64.3333 119 27 159 27 C219 27 252 100.333 252 219 L252 274 Z " />
<glyph glyph-name="Cacute" unicode="&#x106;" horiz-adv-x="375" >
<path fill="black" d="M312 17 C285.333 1 253.667 -10 215 -10 C102.922 -10 38 133.952 38 359 C38 560.126 98.9221 725 219 725 C257.667 725 290 713.667 322 691 L307 655 C280.333 679 251.333 686 222 686 C123.281 686 76 536.563 76 358 C76 161.688 127.281 28 218 28 C256.667 28 285.333 42.3333 312 57 L312 17 Z " /><g transform="translate(34,184)" ><path fill="black" d="M148 606 L148 616 C176 664 202.333 718.333 221 765 L265 765 L265 758 C243.365 712.026 202.525 646.261 173 606 L148 606 Z " /></g></glyph>
<glyph glyph-name="cacute" unicode="&#x107;" horiz-adv-x="375" >
<path fill="black" d="M291 13 C268.333 -0.333333 238 -10 206 -10 C110 -10 59 90.6667 59 260 C59 442.667 117.333 540 212 540 C242.667 540 270.333 532.333 295 517 L283 481 C260.333 497 238 503 214 503 C140.667 503 99 415.667 99 261 C99 121.494 133.312 28 209 28 C235.667 28 267 37 291 53 L291 13 Z " /><g transform="translate(20,0)" ><path fill="black" d="M148 606 L148 616 C176 664 202.333 718.333 221 765 L265 765 L265 758 C243.365 712.026 202.525 646.261 173 606 L148 606 Z " /></g></glyph>
<glyph glyph-name="Ccircumflex" unicode="&#x108;" horiz-adv-x="375" >
<path fill="black" d="M312 17 C285.333 1 253.667 -10 215 -10 C102.922 -10 38 133.952 38 359 C38 560.126 98.9221 725 219 725 C257.667 725 290 713.667 322 691 L307 655 C280.333 679 251.333 686 222 686 C123.281 686 76 536.563 76 358 C76 161.688 127.281 28 218 28 C256.667 28 285.333 42.3333 312 57 L312 17 Z " /><g transform="translate(40,184)" ><path fill="black" d="M88 606 L88 614 C109.11 653.581 140.507 720.824 154 764 L190 764 C206.392 720.288 237.751 647.891 256 614 L256 606 L234 606 C214 639.333 192 685.667 172 723 C153.333 687 130 638 110 606 L88 606 Z " /></g></glyph>
<glyph glyph-name="ccircumflex" unicode="&#x109;" horiz-adv-x="375" >
<path fill="black" d="M291 13 C268.333 -0.333333 238 -10 206 -10 C110 -10 59 90.6667 59 260 C59 442.667 117.333 540 212 540 C242.667 540 270.333 532.333 295 517 L283 481 C260.333 497 238 503 214 503 C140.667 503 99 415.667 99 261 C99 121.494 133.312 28 209 28 C235.667 28 267 37 291 53 L291 13 Z " /><g transform="translate(26,0)" ><path fill="black" d="M88 606 L88 614 C109.11 653.581 140.507 720.824 154 764 L190 764 C206.392 720.288 237.751 647.891 256 614 L256 606 L234 606 C214 639.333 192 685.667 172 723 C153.333 687 130 638 110 606 L88 606 Z " /></g></glyph>
<glyph glyph-name="Cdotaccent" unicode="&#x10a;" horiz-adv-x="375" >
<path fill="black" d="M312 17 C285.333 1 253.667 -10 215 -10 C102.922 -10 38 133.952 38 359 C38 560.126 98.9221 725 219 725 C257.667 725 290 713.667 322 691 L307 655 C280.333 679 251.333 686 222 686 C123.281 686 76 536.563 76 358 C76 161.688 127.281 28 218 28 C256.667 28 285.333 42.3333 312 57 L312 17 Z " /><g transform="translate(40,184)" ><path fill="black" d="M172 653 C150.667 653 142 670.333 142 697 C142 723.667 150.667 742 172 742 C192 742 202 723.667 202 697 C202 671.667 193.333 653 172 653 Z " /></g></glyph>
<glyph glyph-name="cdotaccent" unicode="&#x10b;" horiz-adv-x="375" >
<path fill="black" d="M291 13 C268.333 -0.333333 238 -10 206 -10 C110 -10 59 90.6667 59 260 C59 442.667 117.333 540 212 540 C242.667 540 270.333 532.333 295 517 L283 481 C260.333 497 238 503 214 503 C140.667 503 99 415.667 99 261 C99 121.494 133.312 28 209 28 C235.667 28 267 37 291 53 L291 13 Z " /><g transform="translate(26,0)" ><path fill="black" d="M172 653 C150.667 653 142 670.333 142 697 C142 723.667 150.667 742 172 742 C192 742 202 723.667 202 697 C202 671.667 193.333 653 172 653 Z " /></g></glyph>
<glyph glyph-name="Ccaron" unicode="&#x10c;" horiz-adv-x="375" >
<path fill="black" d="M312 17 C285.333 1 253.667 -10 215 -10 C102.922 -10 38 133.952 38 359 C38 560.126 98.9221 725 219 725 C257.667 725 290 713.667 322 691 L307 655 C280.333 679 251.333 686 222 686 C123.281 686 76 536.563 76 358 C76 161.688 127.281 28 218 28 C256.667 28 285.333 42.3333 312 57 L312 17 Z " /><g transform="translate(40,184)" ><path fill="black" d="M155 606 C139.126 650.976 110.154 717.335 89 757 L89 764 L111 764 C129.667 732 153.333 685.667 172 647 C190.667 688.333 210.333 724 233 764 L256 764 L256 757 C233.333 714.333 205 651.333 189 606 L155 606 Z " /></g></glyph>
<glyph glyph-name="ccaron" unicode="&#x10d;" horiz-adv-x="375" >
<path fill="black" d="M291 13 C268.333 -0.333333 238 -10 206 -10 C110 -10 59 90.6667 59 260 C59 442.667 117.333 540 212 540 C242.667 540 270.333 532.333 295 517 L283 481 C260.333 497 238 503 214 503 C140.667 503 99 415.667 99 261 C99 121.494 133.312 28 209 28 C235.667 28 267 37 291 53 L291 13 Z " /><g transform="translate(26,0)" ><path fill="black" d="M155 606 C139.126 650.976 110.154 717.335 89 757 L89 764 L111 764 C129.667 732 153.333 685.667 172 647 C190.667 688.333 210.333 724 233 764 L256 764 L256 757 C233.333 714.333 205 651.333 189 606 L155 606 Z " /></g></glyph>
<glyph glyph-name="Dcaron" unicode="&#x10e;" horiz-adv-x="375" >
<path fill="black" d="M41 0 L41 714 L145 714 C259.667 714 315 595 315 363 C315 123 259.667 0 141 0 L41 0 Z M79 39 L137 39 C234.333 39 276 149 276 361 C276 567.667 239.333 675 138 675 L79 675 L79 39 Z " /><g transform="translate(-10,184)" ><path fill="black" d="M155 606 C139.126 650.976 110.154 717.335 89 757 L89 764 L111 764 C129.667 732 153.333 685.667 172 647 C190.667 688.333 210.333 724 233 764 L256 764 L256 757 C233.333 714.333 205 651.333 189 606 L155 606 Z " /></g></glyph>
<glyph glyph-name="dcaron" unicode="&#x10f;" horiz-adv-x="375" d="M232 100 L230 100 C215.333 38.6667 189.333 -10 140 -10 C68 -10 30 83.3333 30 258 C30 443.333 72.3333 540 143 540 C191 540 216.667 490 230 434 L232 434 C230.667 467.333 230 496.333 230 527 L230 760 L268 760 L268 0 L238 0 L232 100 Z M231 285 C231 419.667 207.667 503 153 503 C97 503 69 421 69 257 C69 106.333 93 28 149 28 C209 28 231 109.667 231 243 L231 285 Z M304 599 L304 608 C309.423 632.403 322.315 725.089 325 760 L365 760 L365 752 C356.935 708.988 341.624 638.061 326 599 L304 599 Z " />
<glyph glyph-name="Dcroat" unicode="&#x110;" horiz-adv-x="375" >
<path fill="black" d="M51 347 L3 347 L3 385 L51 385 L51 714 L155 714 C269.667 714 325 595 325 363 C325 123 269.667 0 151 0 L51 0 L51 347 Z M147 39 C244.333 39 286 149 286 361 C286 567.667 249.333 675 148 675 L89 675 L89 385 L184 385 L184 347 L89 347 L89 39 L147 39 Z " /></glyph>
<glyph glyph-name="dcroat" unicode="&#x111;" horiz-adv-x="375" d="M257 100 L256 100 C239.746 43.1122 212.194 -10 156 -10 C78.6667 -10 38 82.3333 38 257 C38 441 81.6667 539 159 539 C211.039 539 240.254 488.111 256 433 L258 433 C256.667 463.667 255 495.333 255 526 L255 625 L137 625 L137 661 L255 661 L255 760 L292 760 L292 661 L341 661 L341 625 L292 625 L292 0 L263 0 L257 100 Z M165 28 C230.333 28 256 108.667 256 242 L256 283 C256 420.333 230.667 501 168 501 C106.667 501 76 419 76 255 C76 105.667 102.333 28 165 28 Z " />
<glyph glyph-name="Emacron" unicode="&#x112;" horiz-adv-x="375" >
<path fill="black" d="M289 39 L289 0 L58 0 L58 714 L289 714 L289 675 L96 675 L96 394 L277 394 L277 355 L96 355 L96 39 L289 39 Z " /><g transform="translate(0,183)" ><path fill="black" d="M92 655 L252 655 L252 621 L92 621 L92 655 Z " /></g></glyph>
<glyph glyph-name="emacron" unicode="&#x113;" horiz-adv-x="375" >
<path fill="black" d="M292 24 C262.667 1.33333 232.667 -10 194 -10 C95.3333 -10 44 96.3333 44 263 C44 425.745 91.1818 540 179 540 C264.177 540 305 431.281 305 298 L305 264 L83 264 C84.3333 106.667 121.667 28 195 28 C232.333 28 260 38.3333 292 65 L292 24 Z M268 301 C268 418.281 238.208 503 178 503 C123.333 503 89.3333 434.333 84 301 L268 301 Z " /><g transform="translate(6,-1)" ><path fill="black" d="M92 655 L252 655 L252 621 L92 621 L92 655 Z " /></g></glyph>
<glyph glyph-name="Ebreve" unicode="&#x114;" horiz-adv-x="375" >
<path fill="black" d="M289 39 L289 0 L58 0 L58 714 L289 714 L289 675 L96 675 L96 394 L277 394 L277 355 L96 355 L96 39 L289 39 Z " /><g transform="translate(0,184)" ><path fill="black" d="M119 723 C121.667 672.333 140 642 172 642 C205.333 642 223.333 672.333 226 723 L252 723 C249.333 651 220 609 172 609 C125.333 609 95.6667 647 93 723 L119 723 Z " /></g></glyph>
<glyph glyph-name="ebreve" unicode="&#x115;" horiz-adv-x="375" >
<path fill="black" d="M292 24 C262.667 1.33333 232.667 -10 194 -10 C95.3333 -10 44 96.3333 44 263 C44 425.745 91.1818 540 179 540 C264.177 540 305 431.281 305 298 L305 264 L83 264 C84.3333 106.667 121.667 28 195 28 C232.333 28 260 38.3333 292 65 L292 24 Z M268 301 C268 418.281 238.208 503 178 503 C123.333 503 89.3333 434.333 84 301 L268 301 Z " /><g transform="translate(6,0)" ><path fill="black" d="M119 723 C121.667 672.333 140 642 172 642 C205.333 642 223.333 672.333 226 723 L252 723 C249.333 651 220 609 172 609 C125.333 609 95.6667 647 93 723 L119 723 Z " /></g></glyph>
<glyph glyph-name="Edotaccent" unicode="&#x116;" horiz-adv-x="375" >
<path fill="black" d="M289 39 L289 0 L58 0 L58 714 L289 714 L289 675 L96 675 L96 394 L277 394 L277 355 L96 355 L96 39 L289 39 Z " /><g transform="translate(0,184)" ><path fill="black" d="M172 653 C150.667 653 142 670.333 142 697 C142 723.667 150.667 742 172 742 C192 742 202 723.667 202 697 C202 671.667 193.333 653 172 653 Z " /></g></glyph>
<glyph glyph-name="edotaccent" unicode="&#x117;" horiz-adv-x="375" >
<path fill="black" d="M292 24 C262.667 1.33333 232.667 -10 194 -10 C95.3333 -10 44 96.3333 44 263 C44 425.745 91.1818 540 179 540 C264.177 540 305 431.281 305 298 L305 264 L83 264 C84.3333 106.667 121.667 28 195 28 C232.333 28 260 38.3333 292 65 L292 24 Z M268 301 C268 418.281 238.208 503 178 503 C123.333 503 89.3333 434.333 84 301 L268 301 Z " /><g transform="translate(6,0)" ><path fill="black" d="M172 653 C150.667 653 142 670.333 142 697 C142 723.667 150.667 742 172 742 C192 742 202 723.667 202 697 C202 671.667 193.333 653 172 653 Z " /></g></glyph>
<glyph glyph-name="Eogonek" unicode="&#x118;" horiz-adv-x="375" d="M61 714 L292 714 L292 675 L99 675 L99 394 L280 394 L280 355 L99 355 L99 39 L292 39 L292 1 L294 0 C262 -42.6667 245 -82 245 -130 C245 -167.333 256.333 -186 279 -186 C288.333 -186 296.667 -182.667 302 -180 L302 -211 C294.667 -216.333 285 -219 273 -219 C234.333 -219 213 -190.333 213 -137 C213 -87.6667 231 -42.6667 263 0 L61 0 L61 714 Z " />
<glyph glyph-name="eogonek" unicode="&#x119;" horiz-adv-x="375" d="M286 -211 C278 -215 265.333 -219 252 -219 C213.333 -219 190 -188 190 -128 C190 -80 207.667 -40.6667 233 -6 C222.333 -8.66667 209.667 -10 195 -10 C96.3333 -10 45 96.3333 45 263 C45 425.745 92.1818 540 180 540 C265.177 540 306 431.281 306 298 L306 264 L84 264 C85.3333 106.667 122.667 28 196 28 C233.333 28 261 38.3333 293 65 L293 24 L280 15 C248 -23.6667 223 -69 223 -125 C223 -163.667 233.667 -185 259 -185 C269 -185 278 -182.667 286 -178 L286 -211 Z M269 301 C269 418.281 239.208 503 179 503 C124.333 503 90.3333 434.333 85 301 L269 301 Z " />
<glyph glyph-name="Ecaron" unicode="&#x11a;" horiz-adv-x="375" >
<path fill="black" d="M289 39 L289 0 L58 0 L58 714 L289 714 L289 675 L96 675 L96 394 L277 394 L277 355 L96 355 L96 39 L289 39 Z " /><g transform="translate(0,184)" ><path fill="black" d="M155 606 C139.126 650.976 110.154 717.335 89 757 L89 764 L111 764 C129.667 732 153.333 685.667 172 647 C190.667 688.333 210.333 724 233 764 L256 764 L256 757 C233.333 714.333 205 651.333 189 606 L155 606 Z " /></g></glyph>
<glyph glyph-name="ecaron" unicode="&#x11b;" horiz-adv-x="375" >
<path fill="black" d="M292 24 C262.667 1.33333 232.667 -10 194 -10 C95.3333 -10 44 96.3333 44 263 C44 425.745 91.1818 540 179 540 C264.177 540 305 431.281 305 298 L305 264 L83 264 C84.3333 106.667 121.667 28 195 28 C232.333 28 260 38.3333 292 65 L292 24 Z M268 301 C268 418.281 238.208 503 178 503 C123.333 503 89.3333 434.333 84 301 L268 301 Z " /><g transform="translate(6,0)" ><path fill="black" d="M155 606 C139.126 650.976 110.154 717.335 89 757 L89 764 L111 764 C129.667 732 153.333 685.667 172 647 C190.667 688.333 210.333 724 233 764 L256 764 L256 757 C233.333 714.333 205 651.333 189 606 L155 606 Z " /></g></glyph>
<glyph glyph-name="Gcircumflex" unicode="&#x11c;" horiz-adv-x="375" >
<path fill="black" d="M267 319 L186 319 L186 358 L303 358 L303 24 C273 1.33333 238.667 -10 200 -10 C78.9784 -10 30 142.866 30 358 C30 572.848 82.2597 725 198 725 C232.667 725 269 714.333 297 681 L282 648 C255.333 678.667 229 686 201 686 C106.619 686 68 553.182 68 361 C68 166.463 106.667 28 200 28 C226.667 28 251 37.6667 267 51 L267 319 Z " /><g transform="translate(13,184)" ><path fill="black" d="M88 606 L88 614 C109.11 653.581 140.507 720.824 154 764 L190 764 C206.392 720.288 237.751 647.891 256 614 L256 606 L234 606 C214 639.333 192 685.667 172 723 C153.333 687 130 638 110 606 L88 606 Z " /></g></glyph>
<glyph glyph-name="gcircumflex" unicode="&#x11d;" horiz-adv-x="375" >
<path fill="black" d="M53 -166 C83.6667 -188.667 118.333 -204 153 -204 C223.667 -204 255 -141.333 255 -28 L255 12 C255 42.6667 254.333 69.6667 257 103 L255 103 C239 35 205 -10 157 -10 C81 -10 38 81 38 261 C38 434.333 79.6667 540 161 540 C209 540 236.333 499.333 255 446 L258 446 L262 530 L292 530 L292 -26 C292 -164.667 249.333 -242 152 -242 C113.333 -242 82.3333 -229 53 -209 L53 -166 Z M256 300 C256 418.952 232.251 503 170 503 C104.667 503 76 410.667 76 260 C76 105.333 106.333 28 167 28 C233.641 28 256 128.662 256 237 L256 300 Z " /><path fill="black" d="M88 606 L88 614 C109.11 653.581 140.507 720.824 154 764 L190 764 C206.392 720.288 237.751 647.891 256 614 L256 606 L234 606 C214 639.333 192 685.667 172 723 C153.333 687 130 638 110 606 L88 606 Z " /></glyph>
<glyph glyph-name="Gbreve" unicode="&#x11e;" horiz-adv-x="375" >
<path fill="black" d="M267 319 L186 319 L186 358 L303 358 L303 24 C273 1.33333 238.667 -10 200 -10 C78.9784 -10 30 142.866 30 358 C30 572.848 82.2597 725 198 725 C232.667 725 269 714.333 297 681 L282 648 C255.333 678.667 229 686 201 686 C106.619 686 68 553.182 68 361 C68 166.463 106.667 28 200 28 C226.667 28 251 37.6667 267 51 L267 319 Z " /><g transform="translate(13,184)" ><path fill="black" d="M119 723 C121.667 672.333 140 642 172 642 C205.333 642 223.333 672.333 226 723 L252 723 C249.333 651 220 609 172 609 C125.333 609 95.6667 647 93 723 L119 723 Z " /></g></glyph>
<glyph glyph-name="gbreve" unicode="&#x11f;" horiz-adv-x="375" >
<path fill="black" d="M53 -166 C83.6667 -188.667 118.333 -204 153 -204 C223.667 -204 255 -141.333 255 -28 L255 12 C255 42.6667 254.333 69.6667 257 103 L255 103 C239 35 205 -10 157 -10 C81 -10 38 81 38 261 C38 434.333 79.6667 540 161 540 C209 540 236.333 499.333 255 446 L258 446 L262 530 L292 530 L292 -26 C292 -164.667 249.333 -242 152 -242 C113.333 -242 82.3333 -229 53 -209 L53 -166 Z M256 300 C256 418.952 232.251 503 170 503 C104.667 503 76 410.667 76 260 C76 105.333 106.333 28 167 28 C233.641 28 256 128.662 256 237 L256 300 Z " /><path fill="black" d="M119 723 C121.667 672.333 140 642 172 642 C205.333 642 223.333 672.333 226 723 L252 723 C249.333 651 220 609 172 609 C125.333 609 95.6667 647 93 723 L119 723 Z " /></glyph>
<glyph glyph-name="Gdotaccent" unicode="&#x120;" horiz-adv-x="375" >
<path fill="black" d="M267 319 L186 319 L186 358 L303 358 L303 24 C273 1.33333 238.667 -10 200 -10 C78.9784 -10 30 142.866 30 358 C30 572.848 82.2597 725 198 725 C232.667 725 269 714.333 297 681 L282 648 C255.333 678.667 229 686 201 686 C106.619 686 68 553.182 68 361 C68 166.463 106.667 28 200 28 C226.667 28 251 37.6667 267 51 L267 319 Z " /><g transform="translate(13,184)" ><path fill="black" d="M172 653 C150.667 653 142 670.333 142 697 C142 723.667 150.667 742 172 742 C192 742 202 723.667 202 697 C202 671.667 193.333 653 172 653 Z " /></g></glyph>
<glyph glyph-name="gdotaccent" unicode="&#x121;" horiz-adv-x="375" >
<path fill="black" d="M53 -166 C83.6667 -188.667 118.333 -204 153 -204 C223.667 -204 255 -141.333 255 -28 L255 12 C255 42.6667 254.333 69.6667 257 103 L255 103 C239 35 205 -10 157 -10 C81 -10 38 81 38 261 C38 434.333 79.6667 540 161 540 C209 540 236.333 499.333 255 446 L258 446 L262 530 L292 530 L292 -26 C292 -164.667 249.333 -242 152 -242 C113.333 -242 82.3333 -229 53 -209 L53 -166 Z M256 300 C256 418.952 232.251 503 170 503 C104.667 503 76 410.667 76 260 C76 105.333 106.333 28 167 28 C233.641 28 256 128.662 256 237 L256 300 Z " /><path fill="black" d="M172 653 C150.667 653 142 670.333 142 697 C142 723.667 150.667 742 172 742 C192 742 202 723.667 202 697 C202 671.667 193.333 653 172 653 Z " /></glyph>
<glyph glyph-name="uni0122" unicode="&#x122;" horiz-adv-x="375" >
<path fill="black" d="M267 319 L186 319 L186 358 L303 358 L303 24 C273 1.33333 238.667 -10 200 -10 C78.9784 -10 30 142.866 30 358 C30 572.848 82.2597 725 198 725 C232.667 725 269 714.333 297 681 L282 648 C255.333 678.667 229 686 201 686 C106.619 686 68 553.182 68 361 C68 166.463 106.667 28 200 28 C226.667 28 251 37.6667 267 51 L267 319 Z " /><g transform="translate(568,0)" ><path fill="black" d="M-421 -221 L-421 -212 C-410.241 -179.722 -396.631 -103.102 -394 -61 L-355 -61 L-355 -69 C-363 -115.667 -379.333 -175.667 -398 -221 L-421 -221 Z " /></g></glyph>
<glyph glyph-name="uni0123" unicode="&#x123;" horiz-adv-x="375" d="M56 -166 C86.6667 -188.667 121.333 -204 156 -204 C226.667 -204 258 -141.333 258 -28 L258 12 C258 42.6667 257.333 69.6667 260 103 L258 103 C242 35 208 -10 160 -10 C84 -10 41 81 41 261 C41 434.333 82.6667 540 164 540 C212 540 239.333 499.333 258 446 L261 446 L265 530 L295 530 L295 -26 C295 -164.667 252.333 -242 155 -242 C116.333 -242 85.3333 -229 56 -209 L56 -166 Z M259 300 C259 418.952 235.251 503 173 503 C107.667 503 79 410.667 79 260 C79 105.333 109.333 28 170 28 C236.641 28 259 128.662 259 237 L259 300 Z M153 605 L153 613 C159.667 659.667 176.667 719.667 198 765 L219 765 L219 756 C208.504 724.513 194.646 644.685 192 605 L153 605 Z " />
<glyph glyph-name="Hcircumflex" unicode="&#x124;" horiz-adv-x="375" >
<path fill="black" d="M41 0 L41 714 L79 714 L79 393 L267 393 L267 714 L304 714 L304 0 L267 0 L267 354 L79 354 L79 0 L41 0 Z " /><g transform="translate(0,184)" ><path fill="black" d="M88 606 L88 614 C109.11 653.581 140.507 720.824 154 764 L190 764 C206.392 720.288 237.751 647.891 256 614 L256 606 L234 606 C214 639.333 192 685.667 172 723 C153.333 687 130 638 110 606 L88 606 Z " /></g></glyph>
<glyph glyph-name="hcircumflex" unicode="&#x125;" horiz-adv-x="375" >
<path fill="black" d="M52 0 L52 760 L90 760 L90 504 C90 476 89.3333 457.333 88 432 L90 432 C103.331 487.989 135.028 540 191 540 C255 540 296 481.667 296 355 L296 0 L258 0 L258 348 C258 456 232.333 503 183 503 C127 503 90 435.333 90 294 L90 0 L52 0 Z " /><g transform="translate(-102,230)" ><path fill="black" d="M88 606 L88 614 C109.11 653.581 140.507 720.824 154 764 L190 764 C206.392 720.288 237.751 647.891 256 614 L256 606 L234 606 C214 639.333 192 685.667 172 723 C153.333 687 130 638 110 606 L88 606 Z " /></g></glyph>
<glyph glyph-name="Hbar" unicode="&#x126;" horiz-adv-x="375" d="M41 542 L3 542 L3 579 L41 579 L41 714 L79 714 L79 579 L265 579 L265 714 L303 714 L303 579 L341 579 L341 542 L303 542 L303 0 L265 0 L265 354 L79 354 L79 0 L41 0 L41 542 Z M265 393 L265 542 L79 542 L79 393 L265 393 Z " />
<glyph glyph-name="hbar" unicode="&#x127;" horiz-adv-x="375" d="M52 625 L3 625 L3 661 L52 661 L52 760 L90 760 L90 661 L207 661 L207 625 L90 625 L90 504 C90 476 89.3333 457.333 88 432 L90 432 C103.331 487.989 135.028 540 191 540 C255 540 296 481.667 296 355 L296 0 L258 0 L258 348 C258 456 231 503 183 503 C127 503 90 435.333 90 294 L90 0 L52 0 L52 625 Z " />
<glyph glyph-name="Itilde" unicode="&#x128;" horiz-adv-x="375" >
<path fill="black" d="M70 30 L153 35 L153 678 L70 684 L70 714 L274 714 L274 684 L191 678 L191 35 L274 30 L274 0 L70 0 L70 30 Z " /><g transform="translate(0,184)" ><path fill="black" d="M72 621 C74.6667 685 92.6667 722 126 722 C163.222 722 185.778 655 215 655 C232.333 655 243.333 675.333 246 722 L272 722 C269.333 654 247.667 620 217 620 C179.778 620 157.222 687 128 687 C113.333 687 99.6667 669 97 621 L72 621 Z " /></g></glyph>
<glyph glyph-name="itilde" unicode="&#x129;" horiz-adv-x="344" >
<path fill="black" d="M55 31 L160 37 L160 492 L65 499 L65 530 L198 530 L198 37 L295 31 L295 0 L55 0 L55 31 Z " /><path fill="black" d="M72 621 C74.6667 685 92.6667 722 126 722 C163.222 722 185.778 655 215 655 C232.333 655 243.333 675.333 246 722 L272 722 C269.333 654 247.667 620 217 620 C179.778 620 157.222 687 128 687 C113.333 687 99.6667 669 97 621 L72 621 Z " /></glyph>
<glyph glyph-name="Imacron" unicode="&#x12a;" horiz-adv-x="375" >
<path fill="black" d="M70 30 L153 35 L153 678 L70 684 L70 714 L274 714 L274 684 L191 678 L191 35 L274 30 L274 0 L70 0 L70 30 Z " /><g transform="translate(0,183)" ><path fill="black" d="M92 655 L252 655 L252 621 L92 621 L92 655 Z " /></g></glyph>
<glyph glyph-name="imacron" unicode="&#x12b;" horiz-adv-x="344" >
<path fill="black" d="M55 31 L160 37 L160 492 L65 499 L65 530 L198 530 L198 37 L295 31 L295 0 L55 0 L55 31 Z " /><g transform="translate(0,-1)" ><path fill="black" d="M92 655 L252 655 L252 621 L92 621 L92 655 Z " /></g></glyph>
<glyph glyph-name="Ibreve" unicode="&#x12c;" horiz-adv-x="375" >
<path fill="black" d="M70 30 L153 35 L153 678 L70 684 L70 714 L274 714 L274 684 L191 678 L191 35 L274 30 L274 0 L70 0 L70 30 Z " /><g transform="translate(0,184)" ><path fill="black" d="M119 723 C121.667 672.333 140 642 172 642 C205.333 642 223.333 672.333 226 723 L252 723 C249.333 651 220 609 172 609 C125.333 609 95.6667 647 93 723 L119 723 Z " /></g></glyph>
<glyph glyph-name="ibreve" unicode="&#x12d;" horiz-adv-x="344" >
<path fill="black" d="M55 31 L160 37 L160 492 L65 499 L65 530 L198 530 L198 37 L295 31 L295 0 L55 0 L55 31 Z " /><path fill="black" d="M119 723 C121.667 672.333 140 642 172 642 C205.333 642 223.333 672.333 226 723 L252 723 C249.333 651 220 609 172 609 C125.333 609 95.6667 647 93 723 L119 723 Z " /></glyph>
<glyph glyph-name="Iogonek" unicode="&#x12e;" horiz-adv-x="375" d="M245 -211 C237.667 -216.333 228 -219 216 -219 C177.333 -219 156 -190.333 156 -137 C156 -87.6667 174 -42.6667 206 0 L73 0 L73 30 L156 35 L156 678 L73 684 L73 714 L277 714 L277 684 L194 678 L194 35 L277 30 L277 0 L237 0 C205 -42.6667 188 -82 188 -130 C188 -167.333 199.333 -186 222 -186 C231.333 -186 239.667 -182.667 245 -180 L245 -211 Z " />
<glyph glyph-name="iogonek" unicode="&#x12f;" horiz-adv-x="375" d="M253 -211 C245.667 -216.333 236 -219 224 -219 C185.333 -219 164 -190.333 164 -137 C164 -87.6667 182 -42.6667 214 0 L58 0 L58 31 L163 37 L163 492 L68 499 L68 530 L201 530 L201 37 L298 31 L298 0 L245 0 C213 -42.6667 196 -82 196 -130 C196 -167.333 207.333 -186 230 -186 C239.333 -186 247.667 -182.667 253 -180 L253 -211 Z M180 653 C158.667 653 150 670.333 150 697 C150 723.667 158.667 742 180 742 C200 742 210 723.667 210 697 C210 671.667 201.333 653 180 653 Z " />
<glyph glyph-name="Idotaccent" unicode="&#x130;" horiz-adv-x="375" >
<path fill="black" d="M70 30 L153 35 L153 678 L70 684 L70 714 L274 714 L274 684 L191 678 L191 35 L274 30 L274 0 L70 0 L70 30 Z " /><g transform="translate(0,184)" ><path fill="black" d="M172 653 C150.667 653 142 670.333 142 697 C142 723.667 150.667 742 172 742 C192 742 202 723.667 202 697 C202 671.667 193.333 653 172 653 Z " /></g></glyph>
<glyph glyph-name="dotlessi" unicode="&#x131;" horiz-adv-x="344" d="M55 31 L160 37 L160 492 L65 499 L65 530 L198 530 L198 37 L295 31 L295 0 L55 0 L55 31 Z " />
<glyph glyph-name="IJ" unicode="&#x132;" horiz-adv-x="375" d="M72 67 C86.6667 49.6667 122.333 25 157 25 C210.333 25 234 77 234 193 L234 714 L272 714 L272 184 C272 58.6667 240 -14 160 -14 C126.667 -14 92 3.66667 72 25 L72 67 Z M72 156 L72 714 L110 714 L110 156 L72 156 Z " />
<glyph glyph-name="ij" unicode="&#x133;" horiz-adv-x="375" d="M81 -188 C98.3333 -197.333 134 -209 158 -209 C207.333 -209 232 -159.667 232 -77 L232 530 L269 530 L269 -81 C269 -194.333 229.333 -247 160 -247 C130.667 -247 98.3333 -234.667 81 -228 L81 -188 Z M76 0 L76 530 L114 530 L114 0 L76 0 Z M249 645 C227.667 645 218 663.333 218 690 C218 716.667 227.667 735 249 735 C270.333 735 279 716.667 279 690 C279 664.667 270.333 645 249 645 Z M96 645 C74.6667 645 66 662.333 66 689 C66 715.667 74.6667 734 96 734 C116 734 126 715.667 126 689 C126 663.667 117.333 645 96 645 Z " />
<glyph glyph-name="Jcircumflex" unicode="&#x134;" horiz-adv-x="375" >
<path fill="black" d="M41 61 C66.3333 39.6667 95.6667 25 129 25 C193 25 220 84 220 208 L220 714 L258 714 L258 198 C258 63.3333 220.333 -14 131 -14 C97.6667 -14 67.6667 0.333333 41 19 L41 61 Z " /><g transform="translate(67,184)" ><path fill="black" d="M88 606 L88 614 C109.11 653.581 140.507 720.824 154 764 L190 764 C206.392 720.288 237.751 647.891 256 614 L256 606 L234 606 C214 639.333 192 685.667 172 723 C153.333 687 130 638 110 606 L88 606 Z " /></g></glyph>
<glyph glyph-name="jcircumflex" unicode="&#x135;" horiz-adv-x="345" >
<path fill="black" d="M35 -188 C52.3333 -197.333 88.3333 -209 111 -209 C159 -209 183 -159.667 183 -77 L183 492 L70 499 L70 530 L222 530 L222 -81 C222 -194.333 182 -247 114 -247 C83.3333 -247 49.6667 -234.667 35 -228 L35 -188 Z " /><g transform="translate(27,0)" ><path fill="black" d="M88 606 L88 614 C109.11 653.581 140.507 720.824 154 764 L190 764 C206.392 720.288 237.751 647.891 256 614 L256 606 L234 606 C214 639.333 192 685.667 172 723 C153.333 687 130 638 110 606 L88 606 Z " /></g></glyph>
<glyph glyph-name="uni0136" unicode="&#x136;" horiz-adv-x="375" >
<path fill="black" d="M41 0 L41 714 L78 714 L78 330 C92.6667 356.667 105.333 377.333 124 416 L265 714 L310 714 L160 406 L311 0 L268 0 L132 374 L78 278 L78 0 L41 0 Z " /><g transform="translate(550,0)" ><path fill="black" d="M-421 -221 L-421 -212 C-410.241 -179.722 -396.631 -103.102 -394 -61 L-355 -61 L-355 -69 C-363 -115.667 -379.333 -175.667 -398 -221 L-421 -221 Z " /></g></glyph>
<glyph glyph-name="uni0137" unicode="&#x137;" horiz-adv-x="375" >
<path fill="black" d="M68 0 L68 760 L105 760 L105 383 C105 329.667 104.333 286.333 103 233 C115 255.667 124 273.667 136 295 L264 530 L310 530 L179 305 L319 0 L276 0 L153 274 L105 189 L105 0 L68 0 Z " /><g transform="translate(567,0)" ><path fill="black" d="M-421 -221 L-421 -212 C-410.241 -179.722 -396.631 -103.102 -394 -61 L-355 -61 L-355 -69 C-363 -115.667 -379.333 -175.667 -398 -221 L-421 -221 Z " /></g></glyph>
<glyph glyph-name="kgreenlandic" unicode="&#x138;" horiz-adv-x="375" d="M67 0 L67 530 L105 530 L105 383 C105 329.667 104.333 286.333 103 233 C115 255.667 124 273.667 136 295 L264 530 L310 530 L179 306 L319 0 L275 0 L154 274 L105 189 L105 0 L67 0 Z " />
<glyph glyph-name="Lacute" unicode="&#x139;" horiz-adv-x="375" >
<path fill="black" d="M288 40 L288 0 L60 0 L60 714 L98 714 L98 40 L288 40 Z " /><g transform="translate(-100,184)" ><path fill="black" d="M148 606 L148 616 C176 664 202.333 718.333 221 765 L265 765 L265 758 C243.365 712.026 202.525 646.261 173 606 L148 606 Z " /></g></glyph>
<glyph glyph-name="lacute" unicode="&#x13a;" horiz-adv-x="375" >
<path fill="black" d="M55 31 L157 37 L157 723 L61 729 L61 760 L194 760 L194 37 L295 31 L295 0 L55 0 L55 31 Z " /><g transform="translate(-6,230)" ><path fill="black" d="M148 606 L148 616 C176 664 202.333 718.333 221 765 L265 765 L265 758 C243.365 712.026 202.525 646.261 173 606 L148 606 Z " /></g></glyph>
<glyph glyph-name="uni013B" unicode="&#x13b;" horiz-adv-x="375" >
<path fill="black" d="M288 40 L288 0 L60 0 L60 714 L98 714 L98 40 L288 40 Z " /><g transform="translate(557,0)" ><path fill="black" d="M-421 -221 L-421 -212 C-410.241 -179.722 -396.631 -103.102 -394 -61 L-355 -61 L-355 -69 C-363 -115.667 -379.333 -175.667 -398 -221 L-421 -221 Z " /></g></glyph>
<glyph glyph-name="uni013C" unicode="&#x13c;" horiz-adv-x="375" >
<path fill="black" d="M55 31 L157 37 L157 723 L61 729 L61 760 L194 760 L194 37 L295 31 L295 0 L55 0 L55 31 Z " /><g transform="translate(550,0)" ><path fill="black" d="M-421 -221 L-421 -212 C-410.241 -179.722 -396.631 -103.102 -394 -61 L-355 -61 L-355 -69 C-363 -115.667 -379.333 -175.667 -398 -221 L-421 -221 Z " /></g></glyph>
<glyph glyph-name="Lcaron" unicode="&#x13d;" horiz-adv-x="375" >
<g transform="translate(1,0)" ><path fill="black" d="M288 40 L288 0 L60 0 L60 714 L98 714 L98 40 L288 40 Z " /></g><g transform="translate(276,0)" ><path fill="black" d="M-27 553 L-27 562 C-21.5771 586.403 -8.68545 679.089 -6 714 L34 714 L34 706 C25.9353 662.988 10.6245 592.061 -5 553 L-27 553 Z " /></g></glyph>
<glyph glyph-name="lcaron" unicode="&#x13e;" horiz-adv-x="375" >
<g transform="translate(1,0)" ><path fill="black" d="M55 31 L157 37 L157 723 L61 729 L61 760 L194 760 L194 37 L295 31 L295 0 L55 0 L55 31 Z " /></g><g transform="translate(328,46)" ><path fill="black" d="M-27 553 L-27 562 C-21.5771 586.403 -8.68545 679.089 -6 714 L34 714 L34 706 C25.9353 662.988 10.6245 592.061 -5 553 L-27 553 Z " /></g></glyph>
<glyph glyph-name="Ldot" unicode="&#x13f;" horiz-adv-x="375" >
<g transform="translate(3,0)" ><path fill="black" d="M288 40 L288 0 L60 0 L60 714 L98 714 L98 40 L288 40 Z " /></g><g transform="translate(107,340)" ><path fill="black" d="M172 -12 C153.333 -12 143 5.33333 143 32 C143 57.3333 152 74 172 74 C193.333 74 202 57.3333 202 32 C202 5.33333 193.333 -12 172 -12 Z " /></g></glyph>
<glyph glyph-name="ldot" unicode="&#x140;" horiz-adv-x="375" >
<path fill="black" d="M55 31 L157 37 L157 723 L61 729 L61 760 L194 760 L194 37 L295 31 L295 0 L55 0 L55 31 Z " /><g transform="translate(175,357)" ><path fill="black" d="M172 -12 C153.333 -12 143 5.33333 143 32 C143 57.3333 152 74 172 74 C193.333 74 202 57.3333 202 32 C202 5.33333 193.333 -12 172 -12 Z " /></g></glyph>
<glyph glyph-name="Lslash" unicode="&#x141;" horiz-adv-x="375" d="M60 348 L13 311 L13 347 L60 384 L60 714 L98 714 L98 414 L210 502 L210 467 L98 378 L98 40 L288 40 L288 0 L60 0 L60 348 Z " />
<glyph glyph-name="lslash" unicode="&#x142;" horiz-adv-x="375" d="M59 31 L161 37 L161 371 L85 311 L85 347 L161 407 L161 723 L65 729 L65 760 L198 760 L198 436 L282 502 L282 467 L198 400 L198 37 L299 31 L299 0 L59 0 L59 31 Z " />
<glyph glyph-name="Nacute" unicode="&#x143;" horiz-adv-x="375" >
<path fill="black" d="M41 0 L41 714 L90 714 L270 63 L273 63 C271.667 101.667 268 162.333 268 201 L268 714 L304 714 L304 0 L256 0 L75 655 L73 655 C74.3333 619 76 579.333 76 518 L76 0 L41 0 Z " /><g transform="translate(-2,184)" ><path fill="black" d="M148 606 L148 616 C176 664 202.333 718.333 221 765 L265 765 L265 758 C243.365 712.026 202.525 646.261 173 606 L148 606 Z " /></g></glyph>
<glyph glyph-name="nacute" unicode="&#x144;" horiz-adv-x="375" >
<path fill="black" d="M52 0 L52 530 L82 530 L87 429 L90 429 C104.667 487.667 137.333 540 192 540 C258.667 540 296 484.667 296 358 L296 0 L258 0 L258 353 C258 457 231.667 502 185 502 C127.667 502 90 436 90 300 L90 0 L52 0 Z " /><g transform="translate(-1,0)" ><path fill="black" d="M148 606 L148 616 C176 664 202.333 718.333 221 765 L265 765 L265 758 C243.365 712.026 202.525 646.261 173 606 L148 606 Z " /></g></glyph>
<glyph glyph-name="uni0145" unicode="&#x145;" horiz-adv-x="375" >
<path fill="black" d="M41 0 L41 714 L90 714 L270 63 L273 63 C271.667 101.667 268 162.333 268 201 L268 714 L304 714 L304 0 L256 0 L75 655 L73 655 C74.3333 619 76 579.333 76 518 L76 0 L41 0 Z " /><g transform="translate(547,0)" ><path fill="black" d="M-421 -221 L-421 -212 C-410.241 -179.722 -396.631 -103.102 -394 -61 L-355 -61 L-355 -69 C-363 -115.667 -379.333 -175.667 -398 -221 L-421 -221 Z " /></g></glyph>
<glyph glyph-name="uni0146" unicode="&#x146;" horiz-adv-x="375" >
<path fill="black" d="M52 0 L52 530 L82 530 L87 429 L90 429 C104.667 487.667 137.333 540 192 540 C258.667 540 296 484.667 296 358 L296 0 L258 0 L258 353 C258 457 231.667 502 185 502 C127.667 502 90 436 90 300 L90 0 L52 0 Z " /><g transform="translate(551,0)" ><path fill="black" d="M-421 -221 L-421 -212 C-410.241 -179.722 -396.631 -103.102 -394 -61 L-355 -61 L-355 -69 C-363 -115.667 -379.333 -175.667 -398 -221 L-421 -221 Z " /></g></glyph>
<glyph glyph-name="Ncaron" unicode="&#x147;" horiz-adv-x="375" >
<path fill="black" d="M41 0 L41 714 L90 714 L270 63 L273 63 C271.667 101.667 268 162.333 268 201 L268 714 L304 714 L304 0 L256 0 L75 655 L73 655 C74.3333 619 76 579.333 76 518 L76 0 L41 0 Z " /><g transform="translate(4,184)" ><path fill="black" d="M155 606 C139.126 650.976 110.154 717.335 89 757 L89 764 L111 764 C129.667 732 153.333 685.667 172 647 C190.667 688.333 210.333 724 233 764 L256 764 L256 757 C233.333 714.333 205 651.333 189 606 L155 606 Z " /></g></glyph>
<glyph glyph-name="ncaron" unicode="&#x148;" horiz-adv-x="375" >
<path fill="black" d="M52 0 L52 530 L82 530 L87 429 L90 429 C104.667 487.667 137.333 540 192 540 C258.667 540 296 484.667 296 358 L296 0 L258 0 L258 353 C258 457 231.667 502 185 502 C127.667 502 90 436 90 300 L90 0 L52 0 Z " /><g transform="translate(5,0)" ><path fill="black" d="M155 606 C139.126 650.976 110.154 717.335 89 757 L89 764 L111 764 C129.667 732 153.333 685.667 172 647 C190.667 688.333 210.333 724 233 764 L256 764 L256 757 C233.333 714.333 205 651.333 189 606 L155 606 Z " /></g></glyph>
<glyph glyph-name="napostrophe" unicode="&#x149;" horiz-adv-x="375" d="M59 0 L59 530 L90 530 L95 429 L98 429 C112.667 489 143.667 540 197 540 C259.667 540 297 484.667 297 358 L297 0 L258 0 L258 353 C258 457 232.333 502 187 502 C131 502 98 437.333 98 300 L98 0 L59 0 Z M-22 478 C-4.66667 556.667 7.33333 642 14 714 L51 714 L55 704 C44.3333 626.667 28.3333 550 7 478 L-22 478 Z " />
<glyph glyph-name="Eng" unicode="&#x14a;" horiz-adv-x="375" d="M161 -132 C173.667 -140 187.667 -144 203 -144 C245.667 -144 271 -102.667 271 0 L256 0 L75 655 L73 655 C74.3333 619 76 579.333 76 518 L76 0 L41 0 L41 714 L90 714 L270 63 L273 63 C271.667 101.667 268 162.333 268 201 L268 714 L304 714 L304 0 L303 0 C303 -126.667 271 -180 207 -180 C189.667 -180 171.667 -173.667 161 -167 L161 -132 Z " />
<glyph glyph-name="eng" unicode="&#x14b;" horiz-adv-x="375" d="M176 -194 C186.667 -200.667 200.333 -203 211 -203 C239 -203 253.667 -170.667 255 -106 L258 17 L258 353 C258 457 231.667 502 185 502 C127.667 502 90 436 90 300 L90 0 L52 0 L52 530 L82 530 L87 429 L90 429 C104.667 487.667 137.333 540 192 540 C258.667 540 296 484.667 296 358 L296 0 L290 0 L292 -107 C293.333 -196.333 265.333 -241 216 -241 C200 -241 186.667 -237.333 176 -232 L176 -194 Z " />
<glyph glyph-name="Omacron" unicode="&#x14c;" horiz-adv-x="375" >
<path fill="black" d="M173 -10 C63.6407 -10 30 168.563 30 358 C30 602.667 77.3333 725 172 725 C275.818 725 315 567.723 315 358 C315 161.636 281.312 -10 173 -10 Z M173 28 C243.667 28 276 142 276 358 C276 571.333 244 686 172 686 C100 686 68 568.667 68 358 C68 147.333 103.667 28 173 28 Z " /><g transform="translate(0,183)" ><path fill="black" d="M92 655 L252 655 L252 621 L92 621 L92 655 Z " /></g></glyph>
<glyph glyph-name="omacron" unicode="&#x14d;" horiz-adv-x="375" >
<path fill="black" d="M173 -10 C83.6667 -10 38 91.3333 38 266 C38 440.667 85 540 173 540 C262.619 540 308 431.329 308 265 C308 90.3333 265 -10 173 -10 Z M172 27 C240 27 268 112.667 268 266 C268 408.667 240.667 502 174 502 C108.667 502 76 419.333 76 266 C76 115.333 108 27 172 27 Z " /><g transform="translate(0,-1)" ><path fill="black" d="M92 655 L252 655 L252 621 L92 621 L92 655 Z " /></g></glyph>
<glyph glyph-name="Obreve" unicode="&#x14e;" horiz-adv-x="375" >
<path fill="black" d="M173 -10 C63.6407 -10 30 168.563 30 358 C30 602.667 77.3333 725 172 725 C275.818 725 315 567.723 315 358 C315 161.636 281.312 -10 173 -10 Z M173 28 C243.667 28 276 142 276 358 C276 571.333 244 686 172 686 C100 686 68 568.667 68 358 C68 147.333 103.667 28 173 28 Z " /><g transform="translate(0,184)" ><path fill="black" d="M119 723 C121.667 672.333 140 642 172 642 C205.333 642 223.333 672.333 226 723 L252 723 C249.333 651 220 609 172 609 C125.333 609 95.6667 647 93 723 L119 723 Z " /></g></glyph>
<glyph glyph-name="obreve" unicode="&#x14f;" horiz-adv-x="375" >
<path fill="black" d="M173 -10 C83.6667 -10 38 91.3333 38 266 C38 440.667 85 540 173 540 C262.619 540 308 431.329 308 265 C308 90.3333 265 -10 173 -10 Z M172 27 C240 27 268 112.667 268 266 C268 408.667 240.667 502 174 502 C108.667 502 76 419.333 76 266 C76 115.333 108 27 172 27 Z " /><path fill="black" d="M119 723 C121.667 672.333 140 642 172 642 C205.333 642 223.333 672.333 226 723 L252 723 C249.333 651 220 609 172 609 C125.333 609 95.6667 647 93 723 L119 723 Z " /></glyph>
<glyph glyph-name="Ohungarumlaut" unicode="&#x150;" horiz-adv-x="375" d="M173 -10 C63.6407 -10 30 168.563 30 358 C30 602.667 77.3333 725 172 725 C275.818 725 315 567.723 315 358 C315 161.636 281.312 -10 173 -10 Z M173 28 C243.667 28 276 142 276 358 C276 571.333 244 686 172 686 C100 686 68 568.667 68 358 C68 147.333 103.667 28 173 28 Z M102 790 L102 798 C125.054 841.546 153.107 911.874 164 950 L203 950 L203 942 C187.11 902.275 151.462 832.854 122 790 L102 790 Z M197 790 L197 798 C220.054 841.546 248.107 911.874 259 950 L298 950 L298 942 C282.11 902.275 246.462 832.854 217 790 L197 790 Z " />
<glyph glyph-name="ohungarumlaut" unicode="&#x151;" horiz-adv-x="375" d="M173 -10 C83.6667 -10 38 91.3333 38 266 C38 440.667 85 540 173 540 C262.619 540 308 431.329 308 265 C308 90.3333 265 -10 173 -10 Z M172 27 C240 27 268 112.667 268 266 C268 408.667 240.667 502 174 502 C108.667 502 76 419.333 76 266 C76 115.333 108 27 172 27 Z M102 606 L102 614 C125.054 657.546 153.107 727.874 164 766 L203 766 L203 758 C187.11 718.275 151.462 648.854 122 606 L102 606 Z M197 606 L197 614 C220.054 657.546 248.107 727.874 259 766 L298 766 L298 758 C282.11 718.275 246.462 648.854 217 606 L197 606 Z " />
<glyph glyph-name="OE" unicode="&#x152;" horiz-adv-x="375" d="M325 40 L325 0 L204 0 C192 -1.33333 178.667 -4 164 -4 C68 -4 30 123 30 359 C30 572.385 64.6667 717 166 717 C179.333 717 192.333 715.333 207 714 L325 714 L325 675 L216 675 L216 394 L315 394 L315 355 L216 355 L216 40 L325 40 Z M178 676 C175.333 678.667 170.667 680 164 680 C90.355 680 66 543.182 66 359 C66 159.892 94.7186 34 164 34 C170 34 174.667 35.3333 178 38 L178 676 Z " />
<glyph glyph-name="oe" unicode="&#x153;" horiz-adv-x="375" d="M321 19 C304.333 -0.333333 284.667 -10 262 -10 C220 -10 192.333 36.3333 179 129 C167 41 142.667 -10 104 -10 C41.3333 -10 17 88.3333 17 259 C17 453.667 47.6667 539 105 539 C145 539 168.333 483.333 179 394 C191 478 212.333 539 251 539 C304.307 539 328 435.104 328 299 L328 263 L196 263 C197.333 107 219.333 26 266 26 C286 26 301 36.3333 321 59 L321 19 Z M105 27 C144.134 27 161 127.203 161 266 C161 402.97 144.134 502 105 502 C67.6667 502 51 418.333 51 265 C51 118.333 66.3333 27 105 27 Z M293 302 C293 423.333 278.333 502 249 502 C214.255 502 196 388.926 196 302 L293 302 Z " />
<glyph glyph-name="Racute" unicode="&#x154;" horiz-adv-x="375" >
<path fill="black" d="M59 0 L59 714 L152 714 C248.182 714 301 665.078 301 521 C301 410.333 268.667 349 214 325 L324 0 L281 0 L179 314 L96 314 L96 0 L59 0 Z M96 353 L156 353 C221.333 353 262 407.667 262 521 C262 635.667 226.333 676 149 676 L96 676 L96 353 Z " /><g transform="translate(-6,184)" ><path fill="black" d="M148 606 L148 616 C176 664 202.333 718.333 221 765 L265 765 L265 758 C243.365 712.026 202.525 646.261 173 606 L148 606 Z " /></g></glyph>
<glyph glyph-name="racute" unicode="&#x155;" horiz-adv-x="375" >
<path fill="black" d="M39 31 L129 37 L129 492 L47 499 L47 530 L160 530 L164 431 L166 431 C180.667 491 211 539 263 539 C281.667 539 303.333 533 318 525 L309 484 C294.333 493.333 275 497 259 497 C199 497 167 419.667 167 293 L167 37 L264 31 L264 0 L39 0 L39 31 Z " /><g transform="translate(9,0)" ><path fill="black" d="M148 606 L148 616 C176 664 202.333 718.333 221 765 L265 765 L265 758 C243.365 712.026 202.525 646.261 173 606 L148 606 Z " /></g></glyph>
<glyph glyph-name="uni0156" unicode="&#x156;" horiz-adv-x="375" >
<path fill="black" d="M59 0 L59 714 L152 714 C248.182 714 301 665.078 301 521 C301 410.333 268.667 349 214 325 L324 0 L281 0 L179 314 L96 314 L96 0 L59 0 Z M96 353 L156 353 C221.333 353 262 407.667 262 521 C262 635.667 226.333 676 149 676 L96 676 L96 353 Z " /><g transform="translate(561,0)" ><path fill="black" d="M-421 -221 L-421 -212 C-410.241 -179.722 -396.631 -103.102 -394 -61 L-355 -61 L-355 -69 C-363 -115.667 -379.333 -175.667 -398 -221 L-421 -221 Z " /></g></glyph>
<glyph glyph-name="uni0157" unicode="&#x157;" horiz-adv-x="375" >
<path fill="black" d="M39 31 L129 37 L129 492 L47 499 L47 530 L160 530 L164 431 L166 431 C180.667 491 211 539 263 539 C281.667 539 303.333 533 318 525 L309 484 C294.333 493.333 275 497 259 497 C199 497 167 419.667 167 293 L167 37 L264 31 L264 0 L39 0 L39 31 Z " /><g transform="translate(525,0)" ><path fill="black" d="M-421 -221 L-421 -212 C-410.241 -179.722 -396.631 -103.102 -394 -61 L-355 -61 L-355 -69 C-363 -115.667 -379.333 -175.667 -398 -221 L-421 -221 Z " /></g></glyph>
<glyph glyph-name="Rcaron" unicode="&#x158;" horiz-adv-x="375" >
<path fill="black" d="M59 0 L59 714 L152 714 C248.182 714 301 665.078 301 521 C301 410.333 268.667 349 214 325 L324 0 L281 0 L179 314 L96 314 L96 0 L59 0 Z M96 353 L156 353 C221.333 353 262 407.667 262 521 C262 635.667 226.333 676 149 676 L96 676 L96 353 Z " /><g transform="translate(0,184)" ><path fill="black" d="M155 606 C139.126 650.976 110.154 717.335 89 757 L89 764 L111 764 C129.667 732 153.333 685.667 172 647 C190.667 688.333 210.333 724 233 764 L256 764 L256 757 C233.333 714.333 205 651.333 189 606 L155 606 Z " /></g></glyph>
<glyph glyph-name="rcaron" unicode="&#x159;" horiz-adv-x="375" >
<path fill="black" d="M39 31 L129 37 L129 492 L47 499 L47 530 L160 530 L164 431 L166 431 C180.667 491 211 539 263 539 C281.667 539 303.333 533 318 525 L309 484 C294.333 493.333 275 497 259 497 C199 497 167 419.667 167 293 L167 37 L264 31 L264 0 L39 0 L39 31 Z " /><g transform="translate(15,0)" ><path fill="black" d="M155 606 C139.126 650.976 110.154 717.335 89 757 L89 764 L111 764 C129.667 732 153.333 685.667 172 647 C190.667 688.333 210.333 724 233 764 L256 764 L256 757 C233.333 714.333 205 651.333 189 606 L155 606 Z " /></g></glyph>
<glyph glyph-name="Sacute" unicode="&#x15a;" horiz-adv-x="375" >
<path fill="black" d="M52 61 C82.6667 42.3333 120.333 29 155 29 C221.667 29 254 87 254 183 C254 276.617 222.188 302.533 158 348 C99.0462 388.196 54 427.997 54 542 C54 666 106 725 182 725 C215.333 725 250 712.333 282 691 L268 655 C237.333 677.667 207.333 686 182 686 C123.333 686 93 637 93 545 C93 448.042 132.4 419.284 183 382 C252.402 333.953 293 302.296 293 186 C293 56.6667 240.333 -10 155 -10 C120.333 -10 82.6667 0.333333 52 19 L52 61 Z " /><g transform="translate(-1,184)" ><path fill="black" d="M148 606 L148 616 C176 664 202.333 718.333 221 765 L265 765 L265 758 C243.365 712.026 202.525 646.261 173 606 L148 606 Z " /></g></glyph>
<glyph glyph-name="sacute" unicode="&#x15b;" horiz-adv-x="375" >
<path fill="black" d="M67 66 C95 43.3333 129.667 28 167 28 C225.667 28 247 67.6667 247 133 C247 198.487 220.153 216.093 166 254 C110.761 290.826 72 320.385 72 407 C72 488.333 112.333 540 187 540 C221.667 540 251 528.667 279 510 L265 475 C240.333 493 214 502 186 502 C139.333 502 110 471 110 407 C110 343.433 139.721 326.785 191 289 C244.468 251.573 285 224.466 285 133 C285 43.6667 245.333 -10 164 -10 C124 -10 89.6667 5.66667 67 23 L67 66 Z " /><path fill="black" d="M148 606 L148 616 C176 664 202.333 718.333 221 765 L265 765 L265 758 C243.365 712.026 202.525 646.261 173 606 L148 606 Z " /></glyph>
<glyph glyph-name="Scircumflex" unicode="&#x15c;" horiz-adv-x="375" >
<path fill="black" d="M52 61 C82.6667 42.3333 120.333 29 155 29 C221.667 29 254 87 254 183 C254 276.617 222.188 302.533 158 348 C99.0462 388.196 54 427.997 54 542 C54 666 106 725 182 725 C215.333 725 250 712.333 282 691 L268 655 C237.333 677.667 207.333 686 182 686 C123.333 686 93 637 93 545 C93 448.042 132.4 419.284 183 382 C252.402 333.953 293 302.296 293 186 C293 56.6667 240.333 -10 155 -10 C120.333 -10 82.6667 0.333333 52 19 L52 61 Z " /><g transform="translate(5,184)" ><path fill="black" d="M88 606 L88 614 C109.11 653.581 140.507 720.824 154 764 L190 764 C206.392 720.288 237.751 647.891 256 614 L256 606 L234 606 C214 639.333 192 685.667 172 723 C153.333 687 130 638 110 606 L88 606 Z " /></g></glyph>
<glyph glyph-name="scircumflex" unicode="&#x15d;" horiz-adv-x="375" >
<path fill="black" d="M67 66 C95 43.3333 129.667 28 167 28 C225.667 28 247 67.6667 247 133 C247 198.487 220.153 216.093 166 254 C110.761 290.826 72 320.385 72 407 C72 488.333 112.333 540 187 540 C221.667 540 251 528.667 279 510 L265 475 C240.333 493 214 502 186 502 C139.333 502 110 471 110 407 C110 343.433 139.721 326.785 191 289 C244.468 251.573 285 224.466 285 133 C285 43.6667 245.333 -10 164 -10 C124 -10 89.6667 5.66667 67 23 L67 66 Z " /><g transform="translate(6,0)" ><path fill="black" d="M88 606 L88 614 C109.11 653.581 140.507 720.824 154 764 L190 764 C206.392 720.288 237.751 647.891 256 614 L256 606 L234 606 C214 639.333 192 685.667 172 723 C153.333 687 130 638 110 606 L88 606 Z " /></g></glyph>
<glyph glyph-name="Scedilla" unicode="&#x15e;" horiz-adv-x="375" d="M114 -202 C124 -206.667 134.667 -209 146 -209 C178 -209 197 -185.333 197 -144 C197 -101.333 176.667 -84.6667 138 -82 L160 -10 L155 -10 C120.333 -10 82.6667 0.333333 52 19 L52 61 C82.6667 42.3333 120.333 29 155 29 C221.667 29 254 87 254 183 C254 276.617 222.188 302.533 158 348 C99.0462 388.196 54 427.997 54 542 C54 666 106 725 182 725 C215.333 725 250 712.333 282 691 L268 655 C237.333 677.667 207.333 686 182 686 C123.333 686 93 637 93 545 C93 448.042 132.4 419.284 183 382 C252.402 333.953 293 302.296 293 186 C293 72.6667 253.667 8.66667 187 -6 L171 -60 C209.667 -66.6667 229 -95 229 -145 C229 -203.667 199.333 -240 150 -240 C138 -240 124.667 -238 114 -234 L114 -202 Z " />
<glyph glyph-name="scedilla" unicode="&#x15f;" horiz-adv-x="375" d="M120 -202 C130 -206.667 140.667 -209 152 -209 C184 -209 203 -185.333 203 -144 C203 -101.333 182.667 -84.6667 144 -82 L166 -10 L164 -10 C124 -10 89.6667 5.66667 67 23 L67 66 C95 43.3333 129.667 28 167 28 C225.667 28 247 67.6667 247 133 C247 198.487 220.153 216.093 166 254 C110.761 290.826 72 320.385 72 407 C72 488.333 112.333 540 187 540 C221.667 540 251 528.667 279 510 L265 475 C240.333 493 214 502 186 502 C139.333 502 110 471 110 407 C110 343.433 139.721 326.785 191 289 C244.468 251.573 285 224.466 285 133 C285 54.3333 254.333 3.66667 193 -7 L177 -60 C215.667 -66.6667 235 -95 235 -145 C235 -203.667 205.333 -240 156 -240 C144 -240 130.667 -238 120 -234 L120 -202 Z " />
<glyph glyph-name="Scaron" unicode="&#x160;" horiz-adv-x="375" >
<path fill="black" d="M52 61 C82.6667 42.3333 120.333 29 155 29 C221.667 29 254 87 254 183 C254 276.617 222.188 302.533 158 348 C99.0462 388.196 54 427.997 54 542 C54 666 106 725 182 725 C215.333 725 250 712.333 282 691 L268 655 C237.333 677.667 207.333 686 182 686 C123.333 686 93 637 93 545 C93 448.042 132.4 419.284 183 382 C252.402 333.953 293 302.296 293 186 C293 56.6667 240.333 -10 155 -10 C120.333 -10 82.6667 0.333333 52 19 L52 61 Z " /><g transform="translate(5,184)" ><path fill="black" d="M155 606 C139.126 650.976 110.154 717.335 89 757 L89 764 L111 764 C129.667 732 153.333 685.667 172 647 C190.667 688.333 210.333 724 233 764 L256 764 L256 757 C233.333 714.333 205 651.333 189 606 L155 606 Z " /></g></glyph>
<glyph glyph-name="scaron" unicode="&#x161;" horiz-adv-x="375" >
<path fill="black" d="M67 66 C95 43.3333 129.667 28 167 28 C225.667 28 247 67.6667 247 133 C247 198.487 220.153 216.093 166 254 C110.761 290.826 72 320.385 72 407 C72 488.333 112.333 540 187 540 C221.667 540 251 528.667 279 510 L265 475 C240.333 493 214 502 186 502 C139.333 502 110 471 110 407 C110 343.433 139.721 326.785 191 289 C244.468 251.573 285 224.466 285 133 C285 43.6667 245.333 -10 164 -10 C124 -10 89.6667 5.66667 67 23 L67 66 Z " /><g transform="translate(6,0)" ><path fill="black" d="M155 606 C139.126 650.976 110.154 717.335 89 757 L89 764 L111 764 C129.667 732 153.333 685.667 172 647 C190.667 688.333 210.333 724 233 764 L256 764 L256 757 C233.333 714.333 205 651.333 189 606 L155 606 Z " /></g></glyph>
<glyph glyph-name="uni0162" unicode="&#x162;" horiz-adv-x="375" d="M114 -202 C124 -206.667 134.667 -209 146 -209 C178 -209 197 -185.333 197 -144 C197 -101.333 176.667 -84.6667 138 -82 L163 0 L153 0 L153 675 L30 675 L30 714 L315 714 L315 675 L191 675 L191 0 L189 0 L171 -60 C209.667 -66.6667 229 -95 229 -145 C229 -203.667 199.333 -240 150 -240 C138 -240 124.667 -238 114 -234 L114 -202 Z " />
<glyph glyph-name="uni0163" unicode="&#x163;" horiz-adv-x="375" d="M163 -202 C173 -206.667 183.667 -209 195 -209 C227 -209 246 -185.333 246 -144 C246 -101.333 225.667 -84.6667 187 -82 L210 -6 C160.667 8.66667 137 70 137 170 L137 493 L48 493 L48 522 L138 531 L149 664 L176 664 L176 530 L296 530 L296 493 L175 493 L175 176 C175 80 192.667 28 242 28 C262 28 281.333 33 300 41 L300 3 C281.333 -3.66667 261 -10 237 -10 L235 -10 L220 -60 C258.667 -66.6667 278 -95 278 -145 C278 -203.667 248.333 -240 199 -240 C187 -240 173.667 -238 163 -234 L163 -202 Z " />
<glyph glyph-name="Tcaron" unicode="&#x164;" horiz-adv-x="375" >
<path fill="black" d="M153 0 L153 675 L30 675 L30 714 L315 714 L315 675 L191 675 L191 0 L153 0 Z " /><g transform="translate(0,184)" ><path fill="black" d="M155 606 C139.126 650.976 110.154 717.335 89 757 L89 764 L111 764 C129.667 732 153.333 685.667 172 647 C190.667 688.333 210.333 724 233 764 L256 764 L256 757 C233.333 714.333 205 651.333 189 606 L155 606 Z " /></g></glyph>
<glyph glyph-name="tcaron" unicode="&#x165;" horiz-adv-x="375" >
<g transform="translate(3,0)" ><path fill="black" d="M137 493 L48 493 L48 522 L138 531 L149 664 L176 664 L176 530 L296 530 L296 493 L175 493 L175 176 C175 80 192.667 28 242 28 C262 28 281.333 33 300 41 L300 3 C281.333 -3.66667 261 -10 237 -10 C169 -10 137 52.6667 137 170 L137 493 Z " /></g><g transform="translate(318,46)" ><path fill="black" d="M-27 553 L-27 562 C-21.5771 586.403 -8.68545 679.089 -6 714 L34 714 L34 706 C25.9353 662.988 10.6245 592.061 -5 553 L-27 553 Z " /></g></glyph>
<glyph glyph-name="Tbar" unicode="&#x166;" horiz-adv-x="375" d="M153 350 L59 350 L59 387 L153 387 L153 675 L30 675 L30 714 L315 714 L315 675 L191 675 L191 387 L287 387 L287 350 L191 350 L191 0 L153 0 L153 350 Z " />
<glyph glyph-name="tbar" unicode="&#x167;" horiz-adv-x="375" d="M137 283 L48 283 L48 318 L137 318 L137 493 L48 493 L48 522 L138 531 L149 664 L176 664 L176 530 L296 530 L296 493 L175 493 L175 318 L300 318 L300 283 L175 283 L175 176 C175 80 192.667 28 242 28 C262 28 281.333 33 300 41 L300 3 C281.333 -3.66667 261 -10 237 -10 C169 -10 137 52.6667 137 170 L137 283 Z " />
<glyph glyph-name="Utilde" unicode="&#x168;" horiz-adv-x="375" >
<path fill="black" d="M41 714 L79 714 L79 234 C79 90 112 28 172 28 C232 28 266 86 266 230 L266 714 L304 714 L304 227 C304 59 254.667 -10 172 -10 C85.3333 -10 41 67 41 231 L41 714 Z " /><g transform="translate(0,184)" ><path fill="black" d="M72 621 C74.6667 685 92.6667 722 126 722 C163.222 722 185.778 655 215 655 C232.333 655 243.333 675.333 246 722 L272 722 C269.333 654 247.667 620 217 620 C179.778 620 157.222 687 128 687 C113.333 687 99.6667 669 97 621 L72 621 Z " /></g></glyph>
<glyph glyph-name="utilde" unicode="&#x169;" horiz-adv-x="375" >
<path fill="black" d="M49 530 L87 530 L87 181 C87 71.6667 113.333 28 164 28 C220 28 255 93.6667 255 235 L255 530 L292 530 L292 0 L261 0 L256 101 L253 101 C239.667 42.3333 207.667 -10 153 -10 C83.6667 -10 49 50.6667 49 172 L49 530 Z " /><path fill="black" d="M72 621 C74.6667 685 92.6667 722 126 722 C163.222 722 185.778 655 215 655 C232.333 655 243.333 675.333 246 722 L272 722 C269.333 654 247.667 620 217 620 C179.778 620 157.222 687 128 687 C113.333 687 99.6667 669 97 621 L72 621 Z " /></glyph>
<glyph glyph-name="Umacron" unicode="&#x16a;" horiz-adv-x="375" >
<path fill="black" d="M41 714 L79 714 L79 234 C79 90 112 28 172 28 C232 28 266 86 266 230 L266 714 L304 714 L304 227 C304 59 254.667 -10 172 -10 C85.3333 -10 41 67 41 231 L41 714 Z " /><g transform="translate(0,183)" ><path fill="black" d="M92 655 L252 655 L252 621 L92 621 L92 655 Z " /></g></glyph>
<glyph glyph-name="umacron" unicode="&#x16b;" horiz-adv-x="375" >
<path fill="black" d="M49 530 L87 530 L87 181 C87 71.6667 113.333 28 164 28 C220 28 255 93.6667 255 235 L255 530 L292 530 L292 0 L261 0 L256 101 L253 101 C239.667 42.3333 207.667 -10 153 -10 C83.6667 -10 49 50.6667 49 172 L49 530 Z " /><g transform="translate(0,-1)" ><path fill="black" d="M92 655 L252 655 L252 621 L92 621 L92 655 Z " /></g></glyph>
<glyph glyph-name="Ubreve" unicode="&#x16c;" horiz-adv-x="375" >
<path fill="black" d="M41 714 L79 714 L79 234 C79 90 112 28 172 28 C232 28 266 86 266 230 L266 714 L304 714 L304 227 C304 59 254.667 -10 172 -10 C85.3333 -10 41 67 41 231 L41 714 Z " /><g transform="translate(0,184)" ><path fill="black" d="M119 723 C121.667 672.333 140 642 172 642 C205.333 642 223.333 672.333 226 723 L252 723 C249.333 651 220 609 172 609 C125.333 609 95.6667 647 93 723 L119 723 Z " /></g></glyph>
<glyph glyph-name="ubreve" unicode="&#x16d;" horiz-adv-x="375" >
<path fill="black" d="M49 530 L87 530 L87 181 C87 71.6667 113.333 28 164 28 C220 28 255 93.6667 255 235 L255 530 L292 530 L292 0 L261 0 L256 101 L253 101 C239.667 42.3333 207.667 -10 153 -10 C83.6667 -10 49 50.6667 49 172 L49 530 Z " /><path fill="black" d="M119 723 C121.667 672.333 140 642 172 642 C205.333 642 223.333 672.333 226 723 L252 723 C249.333 651 220 609 172 609 C125.333 609 95.6667 647 93 723 L119 723 Z " /></glyph>
<glyph glyph-name="Uring" unicode="&#x16e;" horiz-adv-x="375" >
<path fill="black" d="M41 714 L79 714 L79 234 C79 90 112 28 172 28 C232 28 266 86 266 230 L266 714 L304 714 L304 227 C304 59 254.667 -10 172 -10 C85.3333 -10 41 67 41 231 L41 714 Z " /><g transform="translate(0,184)" ><path fill="black" d="M173 613 C134.333 613 104 648 104 708 C104 765.333 133.333 803 172 803 C210.667 803 240 765.667 240 707 C240 649.667 211.667 613 173 613 Z M173 642 C197 642 214 668.333 214 707 C214 747 197.333 773 172 773 C146.667 773 130 746.667 130 708 C130 669.333 146.333 642 173 642 Z " /></g></glyph>
<glyph glyph-name="uring" unicode="&#x16f;" horiz-adv-x="375" >
<path fill="black" d="M49 530 L87 530 L87 181 C87 71.6667 113.333 28 164 28 C220 28 255 93.6667 255 235 L255 530 L292 530 L292 0 L261 0 L256 101 L253 101 C239.667 42.3333 207.667 -10 153 -10 C83.6667 -10 49 50.6667 49 172 L49 530 Z " /><path fill="black" d="M173 613 C134.333 613 104 648 104 708 C104 765.333 133.333 803 172 803 C210.667 803 240 765.667 240 707 C240 649.667 211.667 613 173 613 Z M173 642 C197 642 214 668.333 214 707 C214 747 197.333 773 172 773 C146.667 773 130 746.667 130 708 C130 669.333 146.333 642 173 642 Z " /></glyph>
<glyph glyph-name="Uhungarumlaut" unicode="&#x170;" horiz-adv-x="375" d="M41 714 L79 714 L79 234 C79 90 112 28 172 28 C232 28 266 86 266 230 L266 714 L304 714 L304 227 C304 59 254.667 -10 172 -10 C85.3333 -10 41 67 41 231 L41 714 Z M102 790 L102 798 C125.054 841.546 153.107 911.874 164 950 L203 950 L203 942 C187.11 902.275 151.462 832.854 122 790 L102 790 Z M197 790 L197 798 C220.054 841.546 248.107 911.874 259 950 L298 950 L298 942 C282.11 902.275 246.462 832.854 217 790 L197 790 Z " />
<glyph glyph-name="uhungarumlaut" unicode="&#x171;" horiz-adv-x="375" d="M49 530 L87 530 L87 181 C87 71.6667 113.333 28 164 28 C220 28 255 93.6667 255 235 L255 530 L292 530 L292 0 L261 0 L256 101 L253 101 C239.667 42.3333 207.667 -10 153 -10 C83.6667 -10 49 50.6667 49 172 L49 530 Z M102 606 L102 614 C125.054 657.546 153.107 727.874 164 766 L203 766 L203 758 C187.11 718.275 151.462 648.854 122 606 L102 606 Z M197 606 L197 614 C220.054 657.546 248.107 727.874 259 766 L298 766 L298 758 C282.11 718.275 246.462 648.854 217 606 L197 606 Z " />
<glyph glyph-name="Uogonek" unicode="&#x172;" horiz-adv-x="375" d="M218 -211 C210.667 -216.333 200.667 -219 188 -219 C150.667 -219 129 -190.333 129 -137 C129 -90.3333 147 -48.6667 179 -10 L172 -10 C85.3333 -10 41 67 41 231 L41 714 L79 714 L79 234 C79 90 112 28 172 28 C232 28 266 86 266 230 L266 714 L304 714 L304 227 C304 97.6667 274.667 27.6667 224 1 C185.333 -39 161 -79.3333 161 -130 C161 -167.333 172.333 -186 195 -186 C204.333 -186 212.667 -182.667 218 -180 L218 -211 Z " />
<glyph glyph-name="uogonek" unicode="&#x173;" horiz-adv-x="375" d="M318 -211 C310.667 -216.333 301 -219 289 -219 C250.333 -219 229 -190.333 229 -137 C229 -87.6667 247 -42.6667 279 0 L264 0 L259 101 L256 101 C242.667 42.3333 210.667 -10 156 -10 C86.6667 -10 52 50.6667 52 172 L52 530 L90 530 L90 181 C90 71.6667 116.333 28 167 28 C223 28 258 93.6667 258 235 L258 530 L295 530 L295 8 L310 0 C278 -42.6667 261 -82 261 -130 C261 -167.333 272.333 -186 295 -186 C304.333 -186 312.667 -182.667 318 -180 L318 -211 Z " />
<glyph glyph-name="Wcircumflex" unicode="&#x174;" horiz-adv-x="375" >
<path fill="black" d="M99 42 C104.333 84.6667 109.667 144.333 115 191 L154 530 L191 530 L230 191 C236.667 141.667 243.333 82.6667 246 40 L248 40 C250.659 87.8577 254.342 171.809 257 217 C267.667 383.667 280 547.333 292 714 L327 714 L273 0 L226 0 L185 362 C179.667 404.667 176.667 428.333 174 467 L171 467 C168.333 428.333 165.333 404.667 160 362 L120 0 L72 0 L17 714 L50 714 C62 547.333 76.3333 384 87 216 C89.6801 170.439 95.3199 87.5613 98 42 L99 42 Z " /><g transform="translate(0,184)" ><path fill="black" d="M88 606 L88 614 C109.11 653.581 140.507 720.824 154 764 L190 764 C206.392 720.288 237.751 647.891 256 614 L256 606 L234 606 C214 639.333 192 685.667 172 723 C153.333 687 130 638 110 606 L88 606 Z " /></g></glyph>
<glyph glyph-name="wcircumflex" unicode="&#x175;" horiz-adv-x="375" >
<path fill="black" d="M98 51 C102 81.6667 109.333 135.333 116 182 L156 417 L192 417 L231 180 C237.667 137.333 244.667 85.6667 250 51 L251 51 C253.667 93.6667 257.667 132.333 263 183 L299 530 L333 530 L271 -1 L230 -1 L191 252 C185.667 290.667 179.333 329.333 174 368 L173 368 C169 329.333 162.667 289.667 156 251 L116 -1 L75 -1 L12 530 L46 530 L84 185 C90.6667 133 93 85.6667 97 51 L98 51 Z " /><g transform="translate(3,0)" ><path fill="black" d="M88 606 L88 614 C109.11 653.581 140.507 720.824 154 764 L190 764 C206.392 720.288 237.751 647.891 256 614 L256 606 L234 606 C214 639.333 192 685.667 172 723 C153.333 687 130 638 110 606 L88 606 Z " /></g></glyph>
<glyph glyph-name="Ycircumflex" unicode="&#x176;" horiz-adv-x="375" >
<path fill="black" d="M154 0 L154 274 L22 714 L63 714 L172 317 L281 714 L323 714 L191 276 L191 0 L154 0 Z " /><g transform="translate(0,184)" ><path fill="black" d="M88 606 L88 614 C109.11 653.581 140.507 720.824 154 764 L190 764 C206.392 720.288 237.751 647.891 256 614 L256 606 L234 606 C214 639.333 192 685.667 172 723 C153.333 687 130 638 110 606 L88 606 Z " /></g></glyph>
<glyph glyph-name="ycircumflex" unicode="&#x177;" horiz-adv-x="375" >
<path fill="black" d="M40 -196 C51.3333 -202.667 62 -206 72 -206 C102.667 -206 123 -181.667 139 -103 L160 6 L39 530 L79 530 L153 174 C166.333 114 171.667 82.6667 177 56 L179 56 C184.333 93.3333 192 131.333 200 174 L268 530 L308 530 L176 -101 C156 -194.333 126.667 -244 76 -244 C62.6667 -244 52 -240.333 40 -235 L40 -196 Z " /><path fill="black" d="M88 606 L88 614 C109.11 653.581 140.507 720.824 154 764 L190 764 C206.392 720.288 237.751 647.891 256 614 L256 606 L234 606 C214 639.333 192 685.667 172 723 C153.333 687 130 638 110 606 L88 606 Z " /></glyph>
<glyph glyph-name="Ydieresis" unicode="&#x178;" horiz-adv-x="375" >
<g transform="translate(0,172)" ><path fill="black" d="M113 632 C98.3333 632 88 649.667 88 675 C88 699 98.3333 717 113 717 C131.667 717 140 699 140 675 C140 648.333 131.667 632 113 632 Z M231 632 C213.667 632 205 649.667 205 675 C205 699 213.667 717 231 717 C247 717 256 700.333 256 675 C256 648.333 248.333 632 231 632 Z " /></g><path fill="black" d="M154 0 L154 274 L22 714 L63 714 L172 317 L281 714 L323 714 L191 276 L191 0 L154 0 Z " /></glyph>
<glyph glyph-name="Zacute" unicode="&#x179;" horiz-adv-x="375" >
<path fill="black" d="M58 34 L253 675 L69 675 L69 714 L294 714 L294 680 L101 39 L300 39 L300 0 L58 0 L58 34 Z " /><g transform="translate(3,184)" ><path fill="black" d="M148 606 L148 616 C176 664 202.333 718.333 221 765 L265 765 L265 758 C243.365 712.026 202.525 646.261 173 606 L148 606 Z " /></g></glyph>
<glyph glyph-name="zacute" unicode="&#x17a;" horiz-adv-x="375" >
<path fill="black" d="M58 31 L241 493 L70 493 L70 530 L285 530 L285 498 L103 38 L287 38 L287 0 L58 0 L58 31 Z " /><path fill="black" d="M148 606 L148 616 C176 664 202.333 718.333 221 765 L265 765 L265 758 C243.365 712.026 202.525 646.261 173 606 L148 606 Z " /></glyph>
<glyph glyph-name="Zdotaccent" unicode="&#x17b;" horiz-adv-x="375" >
<path fill="black" d="M58 34 L253 675 L69 675 L69 714 L294 714 L294 680 L101 39 L300 39 L300 0 L58 0 L58 34 Z " /><g transform="translate(9,184)" ><path fill="black" d="M172 653 C150.667 653 142 670.333 142 697 C142 723.667 150.667 742 172 742 C192 742 202 723.667 202 697 C202 671.667 193.333 653 172 653 Z " /></g></glyph>
<glyph glyph-name="zdotaccent" unicode="&#x17c;" horiz-adv-x="375" >
<path fill="black" d="M58 31 L241 493 L70 493 L70 530 L285 530 L285 498 L103 38 L287 38 L287 0 L58 0 L58 31 Z " /><g transform="translate(6,0)" ><path fill="black" d="M172 653 C150.667 653 142 670.333 142 697 C142 723.667 150.667 742 172 742 C192 742 202 723.667 202 697 C202 671.667 193.333 653 172 653 Z " /></g></glyph>
<glyph glyph-name="Zcaron" unicode="&#x17d;" horiz-adv-x="375" >
<path fill="black" d="M58 34 L253 675 L69 675 L69 714 L294 714 L294 680 L101 39 L300 39 L300 0 L58 0 L58 34 Z " /><g transform="translate(9,184)" ><path fill="black" d="M155 606 C139.126 650.976 110.154 717.335 89 757 L89 764 L111 764 C129.667 732 153.333 685.667 172 647 C190.667 688.333 210.333 724 233 764 L256 764 L256 757 C233.333 714.333 205 651.333 189 606 L155 606 Z " /></g></glyph>
<glyph glyph-name="zcaron" unicode="&#x17e;" horiz-adv-x="375" >
<path fill="black" d="M58 31 L241 493 L70 493 L70 530 L285 530 L285 498 L103 38 L287 38 L287 0 L58 0 L58 31 Z " /><g transform="translate(6,0)" ><path fill="black" d="M155 606 C139.126 650.976 110.154 717.335 89 757 L89 764 L111 764 C129.667 732 153.333 685.667 172 647 C190.667 688.333 210.333 724 233 764 L256 764 L256 757 C233.333 714.333 205 651.333 189 606 L155 606 Z " /></g></glyph>
<glyph glyph-name="longs" unicode="&#x17f;" horiz-adv-x="375" d="M145 0 L145 582 C145 699.333 177 765 253 765 C271.667 765 287.667 761.667 305 755 L296 718 C284 724.667 270.333 728 255 728 C208.333 728 183 686.333 183 577 L183 0 L145 0 Z " />
<glyph glyph-name="florin" unicode="&#x192;" horiz-adv-x="375" d="M49 -193 C63.6667 -199.667 75.6667 -203 89 -203 C127.667 -203 144 -161.333 144 -80 L144 417 L68 417 L68 444 L144 454 L144 545 C144 662.333 172 724 236 724 C257.333 724 273.333 719.667 292 709 L283 674 C269.667 682.667 255.333 687 240 687 C198.667 687 182 644.667 182 542 L182 453 L260 453 L260 417 L182 417 L182 -74 C182 -176.667 158.333 -240 93 -240 C75.6667 -240 59.6667 -236 49 -232 L49 -193 Z " />
<glyph glyph-name="uni0218" unicode="&#x218;" horiz-adv-x="375" >
<path fill="black" d="M52 61 C82.6667 42.3333 120.333 29 155 29 C221.667 29 254 87 254 183 C254 276.617 222.188 302.533 158 348 C99.0462 388.196 54 427.997 54 542 C54 666 106 725 182 725 C215.333 725 250 712.333 282 691 L268 655 C237.333 677.667 207.333 686 182 686 C123.333 686 93 637 93 545 C93 448.042 132.4 419.284 183 382 C252.402 333.953 293 302.296 293 186 C293 56.6667 240.333 -10 155 -10 C120.333 -10 82.6667 0.333333 52 19 L52 61 Z " /><g transform="translate(547,0)" ><path fill="black" d="M-421 -221 L-421 -212 C-410.241 -179.722 -396.631 -103.102 -394 -61 L-355 -61 L-355 -69 C-363 -115.667 -379.333 -175.667 -398 -221 L-421 -221 Z " /></g></glyph>
<glyph glyph-name="uni0219" unicode="&#x219;" horiz-adv-x="375" >
<path fill="black" d="M67 66 C95 43.3333 129.667 28 167 28 C225.667 28 247 67.6667 247 133 C247 198.487 220.153 216.093 166 254 C110.761 290.826 72 320.385 72 407 C72 488.333 112.333 540 187 540 C221.667 540 251 528.667 279 510 L265 475 C240.333 493 214 502 186 502 C139.333 502 110 471 110 407 C110 343.433 139.721 326.785 191 289 C244.468 251.573 285 224.466 285 133 C285 43.6667 245.333 -10 164 -10 C124 -10 89.6667 5.66667 67 23 L67 66 Z " /><g transform="translate(553,0)" ><path fill="black" d="M-421 -221 L-421 -212 C-410.241 -179.722 -396.631 -103.102 -394 -61 L-355 -61 L-355 -69 C-363 -115.667 -379.333 -175.667 -398 -221 L-421 -221 Z " /></g></glyph>
<glyph glyph-name="uni021A" unicode="&#x21a;" horiz-adv-x="375" >
<path fill="black" d="M153 0 L153 675 L30 675 L30 714 L315 714 L315 675 L191 675 L191 0 L153 0 Z " /><g transform="translate(547,0)" ><path fill="black" d="M-421 -221 L-421 -212 C-410.241 -179.722 -396.631 -103.102 -394 -61 L-355 -61 L-355 -69 C-363 -115.667 -379.333 -175.667 -398 -221 L-421 -221 Z " /></g></glyph>
<glyph glyph-name="uni021B" unicode="&#x21b;" horiz-adv-x="375" >
<path fill="black" d="M137 493 L48 493 L48 522 L138 531 L149 664 L176 664 L176 530 L296 530 L296 493 L175 493 L175 176 C175 80 192.667 28 242 28 C262 28 281.333 33 300 41 L300 3 C281.333 -3.66667 261 -10 237 -10 C169 -10 137 52.6667 137 170 L137 493 Z " /><g transform="translate(596,0)" ><path fill="black" d="M-421 -221 L-421 -212 C-410.241 -179.722 -396.631 -103.102 -394 -61 L-355 -61 L-355 -69 C-363 -115.667 -379.333 -175.667 -398 -221 L-421 -221 Z " /></g></glyph>
<glyph glyph-name="uni0237" unicode="&#x237;" horiz-adv-x="345" d="M35 -188 C52.3333 -197.333 88.3333 -209 111 -209 C159 -209 183 -159.667 183 -77 L183 492 L70 499 L70 530 L222 530 L222 -81 C222 -194.333 182 -247 114 -247 C83.3333 -247 49.6667 -234.667 35 -228 L35 -188 Z " />
<glyph glyph-name="circumflex" unicode="&#x2c6;" horiz-adv-x="375" d="M88 606 L88 614 C109.11 653.581 140.507 720.824 154 764 L190 764 C206.392 720.288 237.751 647.891 256 614 L256 606 L234 606 C214 639.333 192 685.667 172 723 C153.333 687 130 638 110 606 L88 606 Z " />
<glyph glyph-name="caron" unicode="&#x2c7;" horiz-adv-x="375" d="M155 606 C139.126 650.976 110.154 717.335 89 757 L89 764 L111 764 C129.667 732 153.333 685.667 172 647 C190.667 688.333 210.333 724 233 764 L256 764 L256 757 C233.333 714.333 205 651.333 189 606 L155 606 Z " />
<glyph glyph-name="uni02C9" unicode="&#x2c9;" horiz-adv-x="375" >
<g transform="translate(0,-1)" ><path fill="black" d="M92 655 L252 655 L252 621 L92 621 L92 655 Z " /></g></glyph>
<glyph glyph-name="breve" unicode="&#x2d8;" horiz-adv-x="375" d="M119 723 C121.667 672.333 140 642 172 642 C205.333 642 223.333 672.333 226 723 L252 723 C249.333 651 220 609 172 609 C125.333 609 95.6667 647 93 723 L119 723 Z " />
<glyph glyph-name="dotaccent" unicode="&#x2d9;" horiz-adv-x="375" d="M172 653 C150.667 653 142 670.333 142 697 C142 723.667 150.667 742 172 742 C192 742 202 723.667 202 697 C202 671.667 193.333 653 172 653 Z " />
<glyph glyph-name="ring" unicode="&#x2da;" horiz-adv-x="375" d="M173 613 C134.333 613 104 648 104 708 C104 765.333 133.333 803 172 803 C210.667 803 240 765.667 240 707 C240 649.667 211.667 613 173 613 Z M173 642 C197 642 214 668.333 214 707 C214 747 197.333 773 172 773 C146.667 773 130 746.667 130 708 C130 669.333 146.333 642 173 642 Z " />
<glyph glyph-name="ogonek" unicode="&#x2db;" horiz-adv-x="375" d="M216 -211 C208.667 -216.333 199 -219 187 -219 C148.333 -219 127 -190.333 127 -137 C127 -83.6667 147.333 -35.6667 186 11 L208 0 C176 -42.6667 159 -82 159 -130 C159 -167.333 170.333 -186 193 -186 C202.333 -186 210.667 -182.667 216 -180 L216 -211 Z " />
<glyph glyph-name="tilde" unicode="&#x2dc;" horiz-adv-x="375" d="M72 621 C74.6667 685 92.6667 722 126 722 C163.222 722 185.778 655 215 655 C232.333 655 243.333 675.333 246 722 L272 722 C269.333 654 247.667 620 217 620 C179.778 620 157.222 687 128 687 C113.333 687 99.6667 669 97 621 L72 621 Z " />
<glyph glyph-name="hungarumlaut" unicode="&#x2dd;" horiz-adv-x="375" d="M104 606 L104 614 C127.054 657.546 155.107 727.874 166 766 L205 766 L205 758 C189.11 718.275 153.462 648.854 124 606 L104 606 Z M199 606 L199 614 C222.054 657.546 250.107 727.874 261 766 L300 766 L300 758 C284.11 718.275 248.462 648.854 219 606 L199 606 Z " />
<glyph glyph-name="uni0394" unicode="&#x394;" horiz-adv-x="375" d="M16 30 L149 714 L194 714 L328 29 L328 0 L16 0 L16 30 Z M286 39 L197 523 C186.333 572.333 176.333 635 171 671 C165.667 629.667 156 570.667 148 524 L59 39 L286 39 Z " />
<glyph glyph-name="uni03A9" unicode="&#x3a9;" horiz-adv-x="375" d="M21 39 L108 39 C62.6667 100.333 30 204.667 30 386 C30 620.667 83.6667 725 173 725 C261.918 725 315 626.537 315 384 C315 201.333 284.667 97.6667 238 39 L325 39 L325 0 L196 0 L196 33 C253.333 97 276 208.333 276 383 C276 597.667 239.667 687 173 687 C107.667 687 69 595 69 387 C69 204.333 98.6667 95.6667 148 33 L148 0 L21 0 L21 39 Z " />
<glyph glyph-name="uni03BC" unicode="&#x3bc;" horiz-adv-x="375" >
<path fill="black" d="M49 227 L53 227 L53 530 L91 530 L91 181 C91 71.6667 117.333 28 168 28 C224 28 259 93.6667 259 235 L259 530 L296 530 L296 0 L265 0 L260 101 L257 101 C243.667 42.3333 211.667 -10 157 -10 C127 -10 103.333 1.66667 86 25 L86 -240 L49 -240 L49 227 Z " /></glyph>
<glyph glyph-name="pi" unicode="&#x3c0;" horiz-adv-x="375" d="M74 494 L15 494 L15 517 L55 530 L327 530 L327 494 L267 494 L267 108 C267 52 277 30 301 30 C309.667 30 317.333 31.6667 324 35 L324 -1 C317.333 -3.66667 304.667 -8 290 -8 C250 -8 230 27.6667 230 99 L230 494 L110 494 L110 0 L74 0 L74 494 Z " />
<glyph glyph-name="Wgrave" unicode="&#x1e80;" horiz-adv-x="375" >
<path fill="black" d="M99 42 C104.333 84.6667 109.667 144.333 115 191 L154 530 L191 530 L230 191 C236.667 141.667 243.333 82.6667 246 40 L248 40 C250.659 87.8577 254.342 171.809 257 217 C267.667 383.667 280 547.333 292 714 L327 714 L273 0 L226 0 L185 362 C179.667 404.667 176.667 428.333 174 467 L171 467 C168.333 428.333 165.333 404.667 160 362 L120 0 L72 0 L17 714 L50 714 C62 547.333 76.3333 384 87 216 C89.6801 170.439 95.3199 87.5613 98 42 L99 42 Z " /><g transform="translate(-10,184)" ><path fill="black" d="M186 606 C158.703 646.945 115.578 709.451 94 758 L94 765 L138 765 C156.667 717 188.333 657.333 211 616 L211 606 L186 606 Z " /></g></glyph>
<glyph glyph-name="wgrave" unicode="&#x1e81;" horiz-adv-x="375" >
<path fill="black" d="M98 51 C102 81.6667 109.333 135.333 116 182 L156 417 L192 417 L231 180 C237.667 137.333 244.667 85.6667 250 51 L251 51 C253.667 93.6667 257.667 132.333 263 183 L299 530 L333 530 L271 -1 L230 -1 L191 252 C185.667 290.667 179.333 329.333 174 368 L173 368 C169 329.333 162.667 289.667 156 251 L116 -1 L75 -1 L12 530 L46 530 L84 185 C90.6667 133 93 85.6667 97 51 L98 51 Z " /><g transform="translate(-7,0)" ><path fill="black" d="M186 606 C158.703 646.945 115.578 709.451 94 758 L94 765 L138 765 C156.667 717 188.333 657.333 211 616 L211 606 L186 606 Z " /></g></glyph>
<glyph glyph-name="Wacute" unicode="&#x1e82;" horiz-adv-x="375" >
<path fill="black" d="M99 42 C104.333 84.6667 109.667 144.333 115 191 L154 530 L191 530 L230 191 C236.667 141.667 243.333 82.6667 246 40 L248 40 C250.659 87.8577 254.342 171.809 257 217 C267.667 383.667 280 547.333 292 714 L327 714 L273 0 L226 0 L185 362 C179.667 404.667 176.667 428.333 174 467 L171 467 C168.333 428.333 165.333 404.667 160 362 L120 0 L72 0 L17 714 L50 714 C62 547.333 76.3333 384 87 216 C89.6801 170.439 95.3199 87.5613 98 42 L99 42 Z " /><g transform="translate(-6,184)" ><path fill="black" d="M148 606 L148 616 C176 664 202.333 718.333 221 765 L265 765 L265 758 C243.365 712.026 202.525 646.261 173 606 L148 606 Z " /></g></glyph>
<glyph glyph-name="wacute" unicode="&#x1e83;" horiz-adv-x="375" >
<path fill="black" d="M98 51 C102 81.6667 109.333 135.333 116 182 L156 417 L192 417 L231 180 C237.667 137.333 244.667 85.6667 250 51 L251 51 C253.667 93.6667 257.667 132.333 263 183 L299 530 L333 530 L271 -1 L230 -1 L191 252 C185.667 290.667 179.333 329.333 174 368 L173 368 C169 329.333 162.667 289.667 156 251 L116 -1 L75 -1 L12 530 L46 530 L84 185 C90.6667 133 93 85.6667 97 51 L98 51 Z " /><g transform="translate(-3,0)" ><path fill="black" d="M148 606 L148 616 C176 664 202.333 718.333 221 765 L265 765 L265 758 C243.365 712.026 202.525 646.261 173 606 L148 606 Z " /></g></glyph>
<glyph glyph-name="Wdieresis" unicode="&#x1e84;" horiz-adv-x="375" >
<g transform="translate(0,172)" ><path fill="black" d="M113 632 C98.3333 632 88 649.667 88 675 C88 699 98.3333 717 113 717 C131.667 717 140 699 140 675 C140 648.333 131.667 632 113 632 Z M231 632 C213.667 632 205 649.667 205 675 C205 699 213.667 717 231 717 C247 717 256 700.333 256 675 C256 648.333 248.333 632 231 632 Z " /></g><path fill="black" d="M99 42 C104.333 84.6667 109.667 144.333 115 191 L154 530 L191 530 L230 191 C236.667 141.667 243.333 82.6667 246 40 L248 40 C250.659 87.8577 254.342 171.809 257 217 C267.667 383.667 280 547.333 292 714 L327 714 L273 0 L226 0 L185 362 C179.667 404.667 176.667 428.333 174 467 L171 467 C168.333 428.333 165.333 404.667 160 362 L120 0 L72 0 L17 714 L50 714 C62 547.333 76.3333 384 87 216 C89.6801 170.439 95.3199 87.5613 98 42 L99 42 Z " /></glyph>
<glyph glyph-name="wdieresis" unicode="&#x1e85;" horiz-adv-x="375" >
<g transform="translate(3,-12)" ><path fill="black" d="M113 632 C98.3333 632 88 649.667 88 675 C88 699 98.3333 717 113 717 C131.667 717 140 699 140 675 C140 648.333 131.667 632 113 632 Z M231 632 C213.667 632 205 649.667 205 675 C205 699 213.667 717 231 717 C247 717 256 700.333 256 675 C256 648.333 248.333 632 231 632 Z " /></g><path fill="black" d="M98 51 C102 81.6667 109.333 135.333 116 182 L156 417 L192 417 L231 180 C237.667 137.333 244.667 85.6667 250 51 L251 51 C253.667 93.6667 257.667 132.333 263 183 L299 530 L333 530 L271 -1 L230 -1 L191 252 C185.667 290.667 179.333 329.333 174 368 L173 368 C169 329.333 162.667 289.667 156 251 L116 -1 L75 -1 L12 530 L46 530 L84 185 C90.6667 133 93 85.6667 97 51 L98 51 Z " /></glyph>
<glyph glyph-name="uni2010" unicode="&#x2010;" horiz-adv-x="345" >
<g transform="translate(3,0)" ><path fill="black" d="M88 295 L257 295 L257 256 L88 256 L88 295 Z " /></g></glyph>
<glyph glyph-name="endash" unicode="&#x2013;" horiz-adv-x="375" d="M55 295 L291 295 L291 256 L55 256 L55 295 Z " />
<glyph glyph-name="emdash" unicode="&#x2014;" horiz-adv-x="375" >
<g transform="translate(0,381)" ><path fill="black" d="M3 -86 L341 -86 L341 -125 L3 -125 L3 -86 Z " /></g></glyph>
<glyph glyph-name="quoteleft" unicode="&#x2018;" horiz-adv-x="375" >
<g transform="translate(-1,0)" ><path fill="black" d="M140 478 L135 488 C145.667 566.667 161.667 642 183 714 L212 714 C194.667 635.333 182.333 550 177 478 L140 478 Z " /></g></glyph>
<glyph glyph-name="quoteright" unicode="&#x2019;" horiz-adv-x="375" >
<g transform="translate(3,0)" ><path fill="black" d="M133 478 C150.333 556.667 162.333 642 169 714 L206 714 L210 704 C199.333 626.667 183.333 550 162 478 L133 478 Z " /></g></glyph>
<glyph glyph-name="quotesinglbase" unicode="&#x201a;" horiz-adv-x="375" >
<g transform="translate(3,0)" ><path fill="black" d="M129 -130 C146.333 -36.6667 157.333 40 164 116 L204 116 L207 104 C196.333 28 179 -59.3333 159 -130 L129 -130 Z " /></g></glyph>
<glyph glyph-name="quotedblleft" unicode="&#x201c;" horiz-adv-x="375" >
<g transform="translate(-50,0)" ><path fill="black" d="M140 478 L135 488 C145.667 566.667 161.667 642 183 714 L212 714 C194.667 635.333 182.333 550 177 478 L140 478 Z " /></g><g transform="translate(72,0)" ><path fill="black" d="M140 478 L135 488 C145.667 566.667 161.667 642 183 714 L212 714 C194.667 635.333 182.333 550 177 478 L140 478 Z " /></g></glyph>
<glyph glyph-name="quotedblright" unicode="&#x201d;" horiz-adv-x="375" >
<g transform="translate(-76,0)" ><path fill="black" d="M133 478 C150.333 556.667 162.333 642 169 714 L206 714 L210 704 C199.333 626.667 183.333 550 162 478 L133 478 Z " /></g><g transform="translate(46,0)" ><path fill="black" d="M133 478 C150.333 556.667 162.333 642 169 714 L206 714 L210 704 C199.333 626.667 183.333 550 162 478 L133 478 Z " /></g></glyph>
<glyph glyph-name="quotedblbase" unicode="&#x201e;" horiz-adv-x="375" >
<g transform="translate(-67,0)" ><path fill="black" d="M129 -130 C146.333 -36.6667 157.333 40 164 116 L204 116 L207 104 C196.333 28 179 -59.3333 159 -130 L129 -130 Z " /></g><g transform="translate(60,0)" ><path fill="black" d="M129 -130 C146.333 -36.6667 157.333 40 164 116 L204 116 L207 104 C196.333 28 179 -59.3333 159 -130 L129 -130 Z " /></g></glyph>
<glyph glyph-name="dagger" unicode="&#x2020;" horiz-adv-x="375" d="M151 0 L159 525 L58 522 L58 560 L159 554 L151 760 L192 760 L184 554 L286 560 L286 522 L184 525 L192 0 L151 0 Z " />
<glyph glyph-name="daggerdbl" unicode="&#x2021;" horiz-adv-x="375" d="M150 0 L157 192 L58 186 L58 225 L157 221 L153 384 L157 539 L58 535 L58 574 L157 568 L150 760 L190 760 L183 568 L286 574 L286 535 L183 539 L188 384 L183 221 L286 225 L286 186 L183 192 L190 0 L150 0 Z " />
<glyph glyph-name="bullet" unicode="&#x2022;" horiz-adv-x="375" d="M172 265 C129.333 265 106 302 106 366 C106 430 129.333 465 172 465 C214.667 465 238 430 238 366 C238 303.333 214.667 265 172 265 Z " />
<glyph glyph-name="ellipsis" unicode="&#x2026;" horiz-adv-x="375" >
<path fill="black" d="M173 -12 L172 -12 C152 -12 143 5.33333 143 32 C143 57.3333 152 74 172 74 L173 74 L175 74 C193.667 74 204 57.3333 204 32 C204 5.33333 193.667 -12 175 -12 L173 -12 Z " /></glyph>
<glyph glyph-name="perthousand" unicode="&#x2030;" horiz-adv-x="375" d="M89 -167 C29 -167 -1 -92 -1 58 C-1 205.333 28.6667 279 88 279 C134.667 279 163.333 235.667 174 149 C184.667 235.667 212.667 279 258 279 C318.667 279 349 205.333 349 58 C349 -95.3333 319 -167 259 -167 C213.667 -167 185.333 -123 174 -35 C163.333 -123 135 -167 89 -167 Z M172 457 C112 457 82 532 82 682 C82 829.333 111.667 903 171 903 C231.667 903 262 829.333 262 682 C262 528.667 232 457 172 457 Z M89 -133 C127.667 -133 148 -73.6667 148 57 C148 190.333 126.667 246 88 246 C50.6667 246 31 187.667 31 57 C31 -75 50.3333 -133 89 -133 Z M259 -133 C297.667 -133 318 -73.6667 318 57 C318 190.333 296.667 246 258 246 C220.667 246 201 187.667 201 57 C201 -75 220.333 -133 259 -133 Z M172 491 C210.667 491 231 550.333 231 681 C231 814.333 209.667 870 171 870 C133.667 870 114 811.667 114 681 C114 549 133.333 491 172 491 Z M31 357 L310 403 L310 377 L31 331 L31 357 Z " />
<glyph glyph-name="guilsinglleft" unicode="&#x2039;" horiz-adv-x="375" d="M209 78 L110 261 L110 274 L209 459 L234 443 L154 268 L234 94 L209 78 Z " />
<glyph glyph-name="guilsinglright" unicode="&#x203a;" horiz-adv-x="375" d="M189 295 L109 469 L134 485 L233 302 L233 289 L134 104 L109 120 L189 295 Z " />
<glyph glyph-name="fraction" unicode="&#x2044;" horiz-adv-x="375" d="M31 357 L310 403 L310 377 L31 331 L31 357 Z " />
<glyph glyph-name="franc" unicode="&#x20a3;" horiz-adv-x="375" d="M86 148 L33 148 L33 184 L86 184 L86 714 L291 714 L291 674 L125 674 L125 367 L278 367 L278 327 L125 327 L125 184 L219 184 L219 148 L125 148 L125 0 L86 0 L86 148 Z " />
<glyph glyph-name="lira" unicode="&#x20a4;" horiz-adv-x="375" d="M308 39 L308 0 L49 0 L49 36 C94.571 57.4452 108 113.758 108 250 L50 250 L50 284 L108 284 L108 400 L50 400 L50 434 L108 434 L108 533 C108 654.333 141 724 217 724 C250.333 724 276 711.667 300 689 L286 655 C262 677.667 242 686 218 686 C167.333 686 145 637 145 529 L145 434 L246 434 L246 400 L145 400 L145 284 L246 284 L246 250 L145 250 C145 121.147 130.945 68.2828 99 39 L308 39 Z " />
<glyph glyph-name="peseta" unicode="&#x20a7;" horiz-adv-x="375" d="M27 0 L27 714 L95 714 C189.667 714 233 653.667 233 515 C233 379 192 306 88 306 L66 306 L66 0 L27 0 Z M234 293 L186 293 L186 317 L234 331 L243 443 L268 443 L268 328 L341 328 L341 293 L268 293 L268 117 C268 53 278 26 310 26 C320 26 330.333 28.3333 341 33 L341 -1 C331.667 -6.33333 319.333 -9 304 -9 C254.667 -9 234 28 234 108 L234 293 Z M66 345 L84 345 C161.333 345 195 398 195 514 C195 631.333 164 675 92 675 L66 675 L66 345 Z " />
<glyph glyph-name="Euro" unicode="&#x20ac;" horiz-adv-x="375" d="M30 295 L79 295 C77.6667 313.667 78 333 78 353 L78 405 L30 405 L30 439 L81 439 C88.9913 598.826 135.115 725 224 725 C255.333 725 283 714 307 692 L293 656 C272.333 676 249.667 686 225 686 C160.91 686 127.05 583.896 119 439 L244 439 L244 405 L117 405 L117 356 L117 295 L235 295 L235 262 L119 262 C128.333 120.667 161 29 229 29 C254.333 29 275.667 38.6667 301 56 L301 14 C277.667 -2 252.333 -10 225 -10 C139.667 -10 93 88.6667 81 262 L30 262 L30 295 Z " />
<glyph glyph-name="uni2113" unicode="&#x2113;" horiz-adv-x="375" d="M112 293 C98.6667 285 82.6667 275.333 60 266 L60 302 C78.6667 309.333 96 319 112 331 L112 573 C112 677 139 724 187 724 C235 724 262 673.667 262 579 C262 460.333 224 366.333 148 309 L148 160 C148 71.3333 164.667 27 198 27 C235.333 27 250.667 71.6667 252 145 L284 145 C281.333 47.6667 256.333 -9 195 -9 C137.667 -9 112 47 112 151 L112 293 Z M148 347 C202.667 397.667 228 479 228 579 C228 653.667 212.333 688 187 688 C163 688 148 658 148 574 L148 347 Z " />
<glyph glyph-name="trademark" unicode="&#x2122;" horiz-adv-x="375" d="M157 370 L157 714 L195 714 L243 524 L295 714 L331 714 L331 370 L305 370 L305 556 C305 596 306 629.333 306 668 L304 668 L255 482 L233 482 L183 671 L181 671 C182.333 635 182 600.667 182 562 L182 370 L157 370 Z M54 370 L54 682 L-6 682 L-6 714 L141 714 L141 682 L81 682 L81 370 L54 370 Z " />
<glyph glyph-name="Omega" unicode="&#x2126;" horiz-adv-x="375" >
<g transform="translate(3,0)" ><path fill="black" d="M21 39 L108 39 C62.6667 100.333 30 204.667 30 386 C30 620.667 83.6667 725 173 725 C261.918 725 315 626.537 315 384 C315 201.333 284.667 97.6667 238 39 L325 39 L325 0 L196 0 L196 33 C253.333 97 276 208.333 276 383 C276 597.667 239.667 687 173 687 C107.667 687 69 595 69 387 C69 204.333 98.6667 95.6667 148 33 L148 0 L21 0 L21 39 Z " /></g></glyph>
<glyph glyph-name="estimated" unicode="&#x212e;" horiz-adv-x="375" d="M81 83 C99.6667 52.3333 130 25 174 25 C238 25 274 74 302 142 L326 119 C293.599 43.3965 254.26 -17 175 -17 C61.9264 -17 3 110.896 3 263 C3 450.636 91.3636 535 175 535 C266.688 535 341 429.563 341 259 L81 259 L81 83 Z M81 301 L265 301 L265 436 C247.667 462.667 213.667 494 175 494 C132.333 494 102.333 469 81 437 L81 301 Z " />
<glyph glyph-name="uni2219" unicode="&#x2219;" horiz-adv-x="345" >
<g transform="translate(6,282)" ><path fill="black" d="M172 -12 C153.333 -12 143 5.33333 143 32 C143 57.3333 152 74 172 74 C193.333 74 202 57.3333 202 32 C202 5.33333 193.333 -12 172 -12 Z " /></g></glyph>
<glyph glyph-name="radical" unicode="&#x221a;" horiz-adv-x="375" d="M307 808 L342 808 L180 -7 L144 -7 L71 388 L13 388 L13 424 L95 424 L162 51 L307 808 Z " />
<glyph glyph-name="infinity" unicode="&#x221e;" horiz-adv-x="375" d="M92 203 C44 203 9 264.333 9 355 C9 447 43.3333 505 90 505 C129.089 505 154.291 453.8 173 395 C188.998 448.328 213.148 505 255 505 C301.667 505 335 448.333 335 355 C335 259 299.667 203 253 203 C213.121 203 188.978 252.076 173 308 C150.333 241.333 130.667 203 92 203 Z M93 237 C127.673 237 141.359 289.087 160 353 C141.333 423.667 124 470 92 470 C62.6667 470 41 427 41 355 C41 283 62.3333 237 93 237 Z M251 238 C281.667 238 304 286 304 354 C304 423.333 281.667 470 251 470 C221.667 470 208.667 425.333 186 352 C204.667 286.667 219 238 251 238 Z " />
<glyph glyph-name="approxequal" unicode="&#x2248;" horiz-adv-x="375" >
<g transform="translate(0,100)" ><path fill="black" d="M304 352 C288 325.333 264 306 236 306 C209.333 306 191.667 317.667 169 335 C147.667 352.333 130.667 365 108 365 C84 365 61.3333 345 40 305 L40 349 C58.6667 379.667 81 401 109 401 C137 401 156.333 389.667 179 371 C200.333 352.333 216.667 342 238 342 C259.333 342 284 359 304 395 L304 352 Z " /></g><g transform="translate(0,-97)" ><path fill="black" d="M304 352 C288 325.333 264 306 236 306 C209.333 306 191.667 317.667 169 335 C147.667 352.333 130.667 365 108 365 C84 365 61.3333 345 40 305 L40 349 C58.6667 379.667 81 401 109 401 C137 401 156.333 389.667 179 371 C200.333 352.333 216.667 342 238 342 C259.333 342 284 359 304 395 L304 352 Z " /></g></glyph>
<glyph glyph-name="lessequal" unicode="&#x2264;" horiz-adv-x="375" d="M37 349 L37 376 L300 574 L300 534 L80 363 L300 182 L300 141 L37 349 Z M39 -1 L39 36 L300 36 L300 -1 L39 -1 Z " />
<glyph glyph-name="greaterequal" unicode="&#x2265;" horiz-adv-x="375" d="M40 182 L260 363 L40 534 L40 574 L303 376 L303 349 L40 141 L40 182 Z M40 35 L300 35 L300 -1 L40 -1 L40 35 Z " />
</font>
</svg>
