<?xml version="1.0" encoding="UTF-8"?>
<svg xmlns="http://www.w3.org/2000/svg" xmlns:xlink="http://www.w3.org/1999/xlink" version="1.1" >
<font id="Monoto-36ExCd300Lt" horiz-adv-x="357">
<font-face  font-family="Monoto 36 ExCd" units-per-em="1000" ascent="955" descent="-235" font-style="normal" font-weight="300" font-stretch="extra-condensed" cap-height="714" x-height="533" underline-position="-75" underline-thickness="50" />
<missing-glyph horiz-adv-x="360" d="M33 0 L33 714 L298 714 L298 0 L33 0 Z M265 51 L265 663 L66 663 L66 51 L265 51 Z " />
<glyph glyph-name="uni0000" horiz-adv-x="360" />
<glyph glyph-name="uni000D" unicode="&#xd;" horiz-adv-x="360" />
<glyph glyph-name="space" unicode="&#x20;" horiz-adv-x="360" />
<glyph glyph-name="exclam" unicode="&#x21;" horiz-adv-x="360" d="M148 187 L139 714 L195 714 L187 187 L148 187 Z M167 -12 C144.333 -12 133 7 133 39 C133 71.6667 144.333 88 167 88 C189 88 200 71.6667 200 39 C200 5 189 -12 167 -12 Z " />
<glyph glyph-name="quotedbl" unicode="&#x22;" horiz-adv-x="360" >
<g transform="translate(-55,0)" ><path fill="black" d="M147 456 L139 714 L192 714 L183 456 L147 456 Z " /></g><g transform="translate(55,0)" ><path fill="black" d="M147 456 L139 714 L192 714 L183 456 L147 456 Z " /></g></glyph>
<glyph glyph-name="numbersign" unicode="&#x23;" horiz-adv-x="360" d="M63 0 L82 224 L21 224 L21 268 L87 268 L103 460 L38 460 L38 504 L108 504 L126 714 L162 714 L143 504 L212 504 L230 714 L265 714 L247 504 L309 504 L309 460 L243 460 L227 268 L292 268 L292 224 L223 224 L203 0 L167 0 L187 224 L117 224 L98 0 L63 0 Z M192 268 L207 460 L138 460 L123 268 L192 268 Z " />
<glyph glyph-name="dollar" unicode="&#x24;" horiz-adv-x="360" d="M56 116 C82.6667 96 120.667 79.3333 158 78 L158 345 C89.6708 387.049 52 432.504 52 529 C52 623.667 94 682 158 690 L158 760 L185 760 L185 692 C217 690 247.667 678 277 656 L264 612 C238.667 631.333 212.333 642 185 644 L185 381 C256.216 336.16 293 292.007 293 199 C293 107 253 44.6667 185 34 L185 -58 L158 -58 L158 31 C116.667 32.3333 81.3333 45.3333 56 64 L56 116 Z M185 80 C227.667 88 254 129 254 197 C254 263.667 231.667 294.333 185 329 L185 80 Z M92 530 C92 459.333 115.333 429 158 397 L158 643 C118 636.333 92 598 92 530 Z " />
<glyph glyph-name="percent" unicode="&#x25;" horiz-adv-x="360" d="M17 168 L266 545 L311 545 L61 168 L17 168 Z M237 -9 C181 -9 148 58 148 162 C148 263.333 178.333 330 237 330 C293 330 326 263.333 326 162 C326 58 294.333 -9 237 -9 Z M93 383 C37 383 4 450 4 554 C4 655.333 34.3333 722 93 722 C149 722 182 655.333 182 554 C182 450 150.333 383 93 383 Z M237 29 C271.667 29 287 79.3333 287 162 C287 242 271.667 291 237 291 C202.333 291 186 243.333 186 162 C186 79.3333 202.333 29 237 29 Z M93 421 C127.667 421 143 471.333 143 554 C143 634 127.667 683 93 683 C58.3333 683 42 635.333 42 554 C42 471.333 58.3333 421 93 421 Z " />
<glyph glyph-name="ampersand" unicode="&#x26;" horiz-adv-x="360" d="M268 0 L239 69 C212.333 21 178.667 -10 132 -10 C64.4675 -10 28 65.9524 28 171 C28 267 59.3333 330.333 106 389 C79.3333 454.333 59 514.333 59 581 C59 669 92 724 144 724 C194.667 724 225 671 225 579 C225 493.667 192.667 431 154 379 L238 180 C251.333 228 258.333 281.333 261 328 L301 328 C297 256 284.333 183 263 123 L315 0 L268 0 Z M125 343 C93 297.667 70 244.667 70 170 C70 86 97.3333 37 136 37 C170.667 37 198 71 218 119 L125 343 Z M135 424 C161.667 458.667 187 509 187 581 C187 646.333 172.667 679 144 679 C114.667 679 99 643.333 99 582 C99 524.667 116.333 470.667 135 424 Z " />
<glyph glyph-name="quotesingle" unicode="&#x27;" horiz-adv-x="360" d="M147 456 L139 714 L192 714 L183 456 L147 456 Z " />
<glyph glyph-name="parenleft" unicode="&#x28;" horiz-adv-x="360" d="M202 -161 C142 -47.6667 110 100 110 272 C110 446.667 143.333 600.667 202 714 L244 714 C184 588.667 156 437 156 273 C156 111.667 185.333 -39.6667 244 -161 L202 -161 Z " />
<glyph glyph-name="parenright" unicode="&#x29;" horiz-adv-x="360" d="M72 -160 C132 -34.6667 160 117 160 281 C160 442.333 130.667 593.667 72 715 L114 715 C174 601.667 206 454 206 282 C206 107.333 172.667 -46.6667 114 -160 L72 -160 Z " />
<glyph glyph-name="asterisk" unicode="&#x2a;" horiz-adv-x="360" d="M138 579 L52 608 L62 657 L148 613 L141 760 L187 760 L179 613 L265 658 L274 608 L188 579 L249 457 L212 429 L163 559 L115 429 L78 457 L138 579 Z " />
<glyph glyph-name="plus" unicode="&#x2b;" horiz-adv-x="360" d="M144 121 L144 330 L38 330 L38 375 L144 375 L144 585 L184 585 L184 375 L288 375 L288 330 L184 330 L184 121 L144 121 Z " />
<glyph glyph-name="comma" unicode="&#x2c;" horiz-adv-x="360" d="M117 -130 C132.333 -40.6667 143 41 149 115 L198 115 L202 104 C191.333 28 173.667 -58 155 -130 L117 -130 Z " />
<glyph glyph-name="hyphen" unicode="&#x2d;" horiz-adv-x="360" d="M84 300 L246 300 L246 249 L84 249 L84 300 Z " />
<glyph glyph-name="period" unicode="&#x2e;" horiz-adv-x="360" d="M165 -12 C142.333 -12 131 7 131 39 C131 71.6667 142.333 88 165 88 C187 88 198 71.6667 198 39 C198 5 187 -12 165 -12 Z " />
<glyph glyph-name="slash" unicode="&#x2f;" horiz-adv-x="360" d="M39 -2 L212 716 L255 716 L83 -2 L39 -2 Z " />
<glyph glyph-name="zero" unicode="0" horiz-adv-x="360" d="M165 -9 C73 -9 31 127.333 31 358 C31 580.329 66.3853 725 165 725 C261.052 725 299 580.329 299 358 C299 128.745 263.615 -9 165 -9 Z M232 595 C218.667 649.667 196.333 677 165 677 C102.126 677 79 556.433 79 358 C79 296.667 80.6667 243.333 86 198 L232 595 Z M100 121 C114.667 66.3333 136.333 39 165 39 C227.667 39 251 151.333 251 358 C251 415.333 248.667 466 246 510 L100 121 Z " />
<glyph glyph-name="one" unicode="1" horiz-adv-x="360" d="M71 39 L153 46 L153 507 C153 560.333 154 615.333 154 654 C143.333 638 135.333 629 122 613 L71 550 L46 591 L161 714 L203 714 L203 46 L281 39 L281 0 L71 0 L71 39 Z " />
<glyph glyph-name="two" unicode="2" horiz-adv-x="360" d="M41 48 L144 258 C191.677 358.651 226 426.99 226 534 C226 627.333 198.667 675 156 675 C124 675 94.6667 650 68 618 L43 656 C76.3333 698.667 113.333 724 160 724 C230.667 724 276 655.667 276 537 C276 420.066 237.394 339.744 187 231 L105 55 L105 52 L289 52 L289 0 L41 0 L41 48 Z " />
<glyph glyph-name="three" unicode="3" horiz-adv-x="360" d="M40 81 C69.3333 55.6667 106 39 142 39 C206 39 236 100 236 196 C236 304 198.667 346 132 346 L98 346 L98 394 L132 394 C190.667 394 228 450.667 228 548 C228 630.667 201.667 676 155 676 C123.667 676 93.3333 657.333 64 620 L42 660 C72.6667 698.667 111.333 724 158 724 C234 724 280 657 280 549 C280 455.667 246.667 391 196 375 L196 373 C258.667 356.333 290 297 290 195 C290 73.9524 239.026 -10 143 -10 C105.667 -10 71.3333 2.66667 40 28 L40 81 Z " />
<glyph glyph-name="four" unicode="4" horiz-adv-x="360" d="M30 222 L192 718 L246 718 L246 225 L300 225 L300 173 L246 173 L246 0 L198 0 L198 173 L30 173 L30 222 Z M198 225 L198 491 C198 555 198.667 610.667 200 652 L199 652 C189.667 617.333 179.667 577.667 169 543 L76 225 L198 225 Z " />
<glyph glyph-name="five" unicode="5" horiz-adv-x="360" d="M45 83 C71.6667 56.3333 105.667 39 139 39 C201.667 39 234 105.667 234 219 C234 323 204 382 144 382 C118.667 382 93.6667 374.333 75 365 L53 386 L69 714 L260 714 L260 662 L113 662 L102 417 C119.333 423.667 139.333 431 162 431 C238 431 286 357.333 286 224 C286 82.6667 234.333 -10 141 -10 C102.333 -10 70.3333 2.66667 45 28 L45 83 Z " />
<glyph glyph-name="six" unicode="6" horiz-adv-x="360" d="M88 345 C101.351 393.063 130.346 442 181 442 C249 442 289 358.667 289 224 C289 81.3333 244 -11 168 -11 C84 -11 38 101.333 38 308 C38 573.333 93.6667 724 211 724 C231.667 724 249 720 263 712 L263 663 C247.667 671.667 231 676 213 676 C129 676 87.6667 553 85 345 L88 345 Z M168 38 C213.333 38 241 102.667 241 224 C241 329.333 218 396 170 396 C121.922 396 89 326.61 89 243 C89 164.619 107.61 38 168 38 Z " />
<glyph glyph-name="seven" unicode="7" horiz-adv-x="360" d="M85 0 L235 662 L35 662 L35 714 L289 714 L289 670 L139 0 L85 0 Z " />
<glyph glyph-name="eight" unicode="8" horiz-adv-x="360" d="M163 -10 C88.3333 -10 39 58 39 178 C39 279.333 71.6667 337 125 377 C79.6667 417 51 469.333 51 556 C51 664 99.6667 725 165 725 C233 725 279 665 279 557 C279 467.667 250.333 417.667 201 379 C259.667 333.667 291 278 291 182 C291 64.6667 239 -10 163 -10 Z M164 39 C214.667 39 244 94 244 182 C244 257.628 222.541 301.356 162 354 C115.333 315.333 87 265 87 177 C87 91.6667 116 39 164 39 Z M165 403 C206.333 437.667 231 479 231 555 C231 635 206.333 675 165 675 C126.333 675 99 632.333 99 555 C99 479 123.667 440.333 165 403 Z " />
<glyph glyph-name="nine" unicode="9" horiz-adv-x="360" d="M64 52 C78.6667 42.6667 95.6667 38 115 38 C196.333 38 240.333 162 243 366 L241 366 C225.008 318.023 198.531 272 148 272 C78.6667 272 39 354.333 39 489 C39 634.333 83.6667 724 161 724 C246.333 724 290 609 290 409 C290 149.234 234.307 -10 117 -10 C96.3333 -10 78.6667 -6.33333 64 1 L64 52 Z M158 318 C206 318 240 380.667 240 474 C240 546.052 221.39 676 161 676 C114.333 676 88 610 88 490 C88 383.333 111.333 318 158 318 Z " />
<glyph glyph-name="colon" unicode="&#x3a;" horiz-adv-x="360" >
<g transform="translate(0,450)" ><path fill="black" d="M165 -12 C142.333 -12 131 7 131 39 C131 71.6667 142.333 88 165 88 C187 88 198 71.6667 198 39 C198 5 187 -12 165 -12 Z " /></g><path fill="black" d="M165 -12 C142.333 -12 131 7 131 39 C131 71.6667 142.333 88 165 88 C187 88 198 71.6667 198 39 C198 5 187 -12 165 -12 Z " /></glyph>
<glyph glyph-name="semicolon" unicode="&#x3b;" horiz-adv-x="360" d="M111 -130 C126.333 -40.6667 137 41 143 115 L192 115 L196 104 C185.333 28 167.667 -58 149 -130 L111 -130 Z M164 440 C142.667 440 132 456.333 132 489 C132 522.333 142.667 539 164 539 C186 539 197 522.333 197 489 C197 456.333 186 440 164 440 Z " />
<glyph glyph-name="less" unicode="&#x3c;" horiz-adv-x="360" d="M30 343 L30 377 L281 575 L281 523 L84 360 L281 189 L281 138 L30 343 Z " />
<glyph glyph-name="equal" unicode="&#x3d;" horiz-adv-x="360" d="M36 275 L293 275 L293 224 L36 224 L36 275 Z M36 481 L293 481 L293 430 L36 430 L36 481 Z " />
<glyph glyph-name="greater" unicode="&#x3e;" horiz-adv-x="360" d="M39 189 L236 360 L39 523 L39 575 L290 377 L290 343 L39 138 L39 189 Z " />
<glyph glyph-name="question" unicode="&#x3f;" horiz-adv-x="360" >
<g transform="translate(-2,187)" ><path fill="black" d="M126 0 L126 22 C126 103.321 137.757 140.575 170 197 C207.083 257.923 224 293.678 224 369 C224 449 199.667 487 157 487 C129 487 105.667 474.333 79 453 L62 497 C92.6667 523.667 123.667 537 161 537 C230.333 537 270 479 270 371 C270 278.307 245.455 231.498 206 171 C173.123 116.205 166 84.9987 166 18 L166 0 L126 0 Z " /></g><g transform="translate(-19,0)" ><path fill="black" d="M165 -12 C142.333 -12 131 7 131 39 C131 71.6667 142.333 88 165 88 C187 88 198 71.6667 198 39 C198 5 187 -12 165 -12 Z " /></g></glyph>
<glyph glyph-name="at" unicode="&#x40;" horiz-adv-x="360" d="M273 -49 C242.333 -75.6667 210.333 -89 177 -89 C63.4329 -89 4 56.6407 4 294 C4 558 71.0779 714 175 714 C270.922 714 326 575.641 326 357 C326 228.948 306.104 111 258 111 C234 111 216 142.333 212 193 L210 193 C199.333 141 177.333 111 152 111 C109.333 111 84 179 84 291 C84 424.411 121.537 516 183 516 C203 516 225.667 507 243 495 L237 321 C235.667 302.333 236 276 236 256 C236 186.667 240.667 150 258 150 C282 150 292 229.667 292 355 C292 551.208 252.364 673 176 673 C92 673 38 534 38 294 C38 80.6667 84.6667 -48 178 -48 C208.667 -48 240.333 -34.6667 273 -8 L273 -49 Z M205 465 C198.333 473.667 190.333 478 181 478 C143.667 478 121 408.333 121 291 C121 201.667 133.667 150 159 150 C184.333 150 197 204.333 201 323 L205 465 Z " />
<glyph glyph-name="A" unicode="A" horiz-adv-x="360" d="M132 714 L197 714 L315 0 L266 0 L228 251 L101 251 L64 0 L15 0 L132 714 Z M220 301 L179 570 C175 602 169.333 637.333 164 668 C160 637.333 154.333 603.333 149 570 L109 301 L220 301 Z " />
<glyph glyph-name="B" unicode="B" horiz-adv-x="360" d="M51 0 L51 714 L153 714 C243.667 714 289 660.333 289 543 C289 455 263.667 392.667 217 378 L217 375 C272.333 357.667 300 300 300 202 C300 70 247 0 163 0 L51 0 Z M97 50 L157 50 C220.333 50 252 101 252 203 C252 307 218.333 350 153 350 L97 350 L97 50 Z M97 399 L151 399 C211.667 399 242 444.667 242 536 C242 626.667 214 664 146 664 L97 664 L97 399 Z " />
<glyph glyph-name="C" unicode="C" horiz-adv-x="360" d="M298 16 C271.333 0 241.667 -10 203 -10 C93.8225 -10 33 134 33 358 C33 562.182 92.3377 725 208 725 C246.667 725 278.333 712.667 309 690 L291 644 C265.667 666.667 238.667 675 212 675 C125.126 675 82 532.381 82 358 C82 166.156 126.468 40 210 40 C244.667 40 271.333 52.3333 298 67 L298 16 Z " />
<glyph glyph-name="D" unicode="D" horiz-adv-x="360" d="M36 0 L36 714 L145 714 C250.333 714 305 596 305 364 C305 122.667 249.667 0 139 0 L36 0 Z M84 51 L135 51 C219 51 255 156.333 255 363 C255 565.667 224 663 136 663 L84 663 L84 51 Z " />
<glyph glyph-name="E" unicode="E" horiz-adv-x="360" d="M282 51 L282 0 L51 0 L51 714 L282 714 L282 663 L99 663 L99 399 L271 399 L271 348 L99 348 L99 51 L282 51 Z " />
<glyph glyph-name="F" unicode="F" horiz-adv-x="360" d="M51 0 L51 714 L282 714 L282 663 L99 663 L99 368 L272 368 L272 317 L99 317 L99 0 L51 0 Z " />
<glyph glyph-name="G" unicode="G" horiz-adv-x="360" d="M247 313 L178 313 L178 364 L293 364 L293 25 C261.667 1.66667 227.667 -10 191 -10 C73.6147 -10 25 143.996 25 359 C25 573.355 79.1558 725 191 725 C227 725 262 712.667 290 682 L273 637 C246.333 666.333 222 675 194 675 C110.39 675 73 551.056 73 360 C73 174.926 108.134 40 189 40 C213 40 232.333 48.3333 247 59 L247 313 Z " />
<glyph glyph-name="H" unicode="H" horiz-adv-x="360" d="M36 0 L36 714 L84 714 L84 398 L247 398 L247 714 L294 714 L294 0 L247 0 L247 347 L84 347 L84 0 L36 0 Z " />
<glyph glyph-name="I" unicode="I" horiz-adv-x="360" d="M60 39 L141 46 L141 668 L60 675 L60 714 L269 714 L269 675 L188 668 L188 46 L269 39 L269 0 L60 0 L60 39 Z " />
<glyph glyph-name="J" unicode="J" horiz-adv-x="360" d="M38 71 C62 51 90 37 118 37 C176 37 205 95 205 211 L205 714 L253 714 L253 199 C253 67 213 -13 121 -13 C90.3333 -13 62 0.333333 38 19 L38 71 Z " />
<glyph glyph-name="K" unicode="K" horiz-adv-x="360" d="M36 0 L36 714 L83 714 L83 337 C97.6667 365 109.667 391.333 127 434 L247 714 L301 714 L165 402 L303 0 L249 0 L130 362 L83 274 L83 0 L36 0 Z " />
<glyph glyph-name="L" unicode="L" horiz-adv-x="360" d="M281 52 L281 0 L54 0 L54 714 L102 714 L102 52 L281 52 Z " />
<glyph glyph-name="M" unicode="M" horiz-adv-x="360" d="M24 0 L24 714 L89 714 L164 256 L165 256 L240 714 L306 714 L306 0 L264 0 L265 485 C265 542.333 267.333 601 270 657 L267 657 L187 195 L140 195 L62 658 L59 658 C61.6667 602 66 547.667 66 485 L66 0 L24 0 Z " />
<glyph glyph-name="N" unicode="N" horiz-adv-x="360" d="M36 0 L36 714 L99 714 L253 70 L256 70 C256 104.667 250 170 250 218 L250 714 L294 714 L294 0 L233 0 L77 648 L74 648 C76.6667 602.667 78 557 78 493 L78 0 L36 0 Z " />
<glyph glyph-name="O" unicode="O" horiz-adv-x="360" d="M165 -10 C59.4069 -10 25 165.329 25 359 C25 601.667 70.3333 725 165 725 C266.229 725 305 567.1 305 358 C305 157.896 270.593 -10 165 -10 Z M165 40 C229 40 256 148.667 256 358 C256 564.667 227.667 675 165 675 C101 675 73 562 73 358 C73 152.667 103.667 40 165 40 Z " />
<glyph glyph-name="P" unicode="P" horiz-adv-x="360" d="M51 0 L51 714 L163 714 C255 714 300 651.333 300 510 C300 372.667 258.333 292 161 292 L99 292 L99 0 L51 0 Z M99 343 L155 343 C223 343 252 388 252 508 C252 620 224 663 160 663 L99 663 L99 343 Z " />
<glyph glyph-name="Q" unicode="Q" horiz-adv-x="360" d="M196 -5 C186 -8.33333 176 -10 166 -10 C60.4069 -10 26 165.329 26 359 C26 601.667 71.3333 725 166 725 C267.229 725 306 567.1 306 358 C306 210.33 288.25 80.5747 235 22 L295 -175 L243 -175 L196 -5 Z M166 40 C230 40 257 148.667 257 358 C257 564.667 228.667 675 166 675 C102 675 74 562 74 358 C74 152.667 104.667 40 166 40 Z " />
<glyph glyph-name="R" unicode="R" horiz-adv-x="360" d="M51 0 L51 714 L146 714 C239.333 714 289 659.333 289 518 C289 406 260.333 347.333 211 322 L312 0 L259 0 L168 308 L98 308 L98 0 L51 0 Z M98 358 L149 358 C207.667 358 241 410.333 241 517 C241 625 211 664 143 664 L98 664 L98 358 Z " />
<glyph glyph-name="S" unicode="S" horiz-adv-x="360" d="M47 73 C77.6667 54.3333 112.333 40 147 40 C208.333 40 235 97 235 185 C235 272.023 205.747 300.275 147 343 C91.2586 385.47 48 425.567 48 541 C48 666.333 98 725 174 725 C208.667 725 242.667 713.333 276 690 L259 643 C228.333 665.667 200 675 176 675 C124 675 97 629 97 545 C97 454.858 130.217 424.682 180 388 C244.655 336.815 284 305.627 284 188 C284 57.3333 232 -10 148 -10 C113.333 -10 76.3333 1.33333 47 20 L47 73 Z " />
<glyph glyph-name="T" unicode="T" horiz-adv-x="360" d="M141 0 L141 663 L27 663 L27 714 L304 714 L304 663 L189 663 L189 0 L141 0 Z " />
<glyph glyph-name="U" unicode="U" horiz-adv-x="360" d="M36 714 L84 714 L84 231 C84 96.3333 110.333 40 165 40 C219.667 40 246 93.3333 246 228 L246 714 L294 714 L294 225 C294 58.3333 250.333 -10 165 -10 C78.3333 -10 36 66.6667 36 228 L36 714 Z " />
<glyph glyph-name="V" unicode="V" horiz-adv-x="360" d="M165 57 C170.333 97 176 145.333 184 196 L267 714 L315 714 L191 0 L137 0 L15 714 L62 714 L144 195 C152 147 160 98.3333 164 57 L165 57 Z " />
<glyph glyph-name="W" unicode="W" horiz-adv-x="360" d="M95 54 L111 226 L142 532 L187 532 L220 225 C225.242 169.955 233.39 96.373 236 52 L239 52 C239 100.345 243.316 223.685 246 272 C254 420 262.667 564.667 272 714 L315 714 L270 0 L212 0 L177 351 C173 399 168.667 424.333 166 459 L164 459 C161.333 424.333 158.333 399 153 351 L119 0 L61 0 L15 714 L56 714 C64 564.667 75 421.333 83 272 C85.6553 221.549 91.346 99.1181 94 54 L95 54 Z " />
<glyph glyph-name="X" unicode="X" horiz-adv-x="360" d="M19 0 L137 373 L30 714 L81 714 L166 420 L253 714 L305 714 L193 371 L312 0 L259 0 L164 325 L70 0 L19 0 Z " />
<glyph glyph-name="Y" unicode="Y" horiz-adv-x="360" d="M141 0 L141 274 L19 714 L71 714 L165 328 L259 714 L311 714 L188 275 L188 0 L141 0 Z " />
<glyph glyph-name="Z" unicode="Z" horiz-adv-x="360" d="M51 45 L232 663 L60 663 L60 714 L285 714 L285 669 L105 51 L289 51 L289 0 L51 0 L51 45 Z " />
<glyph glyph-name="bracketleft" unicode="&#x5b;" horiz-adv-x="360" d="M260 -114 L260 -160 L126 -160 L126 717 L260 717 L260 671 L170 671 L170 -114 L260 -114 Z " />
<glyph glyph-name="backslash" unicode="&#x5c;" horiz-adv-x="360" d="M224 -2 L52 716 L95 716 L268 -2 L224 -2 Z " />
<glyph glyph-name="bracketright" unicode="&#x5d;" horiz-adv-x="360" d="M68 -115 L158 -115 L158 670 L68 670 L68 716 L202 716 L202 -161 L68 -161 L68 -115 Z " />
<glyph glyph-name="asciicircum" unicode="&#x5e;" horiz-adv-x="360" d="M28 328 L153 714 L181 714 L302 328 L256 328 L167 647 L74 328 L28 328 Z " />
<glyph glyph-name="underscore" unicode="&#x5f;" horiz-adv-x="360" d="M4 -84 L326 -84 L326 -135 L4 -135 L4 -84 Z " />
<glyph glyph-name="grave" unicode="&#x60;" horiz-adv-x="360" d="M171 606 C146.507 644.1 102.816 711.305 84 757 L84 766 L138 766 C154 718 183 656 203 616 L203 606 L171 606 Z " />
<glyph glyph-name="a" unicode="a" horiz-adv-x="360" d="M235 87 L234 87 C215.333 32.3333 187 -10 139 -10 C80.3333 -10 45 45.6667 45 139 C45 248.333 91.6667 299 177 307 L233 312 L233 353 C233 457 208.667 493 166 493 C138 493 110.667 478.667 84 456 L66 500 C98 526.667 130.333 542 169 542 C242.333 542 281 487.667 281 361 L281 0 L244 0 L235 87 Z M233 270 L187 265 C125.667 258.333 93 221.333 93 140 C93 72 117.333 38 152 38 C200 38 233 103.667 233 217 L233 270 Z " />
<glyph glyph-name="b" unicode="b" horiz-adv-x="360" d="M46 760 L93 760 L93 539 C93 507 93.6667 468.667 91 438 L93 438 C109 499.333 140 542 184 542 C258.667 542 298 449 298 269 C298 90.3333 256.667 -10 182 -10 C140.667 -10 111.667 27.6667 93 85 L90 85 L83 0 L46 0 L46 760 Z M168 39 C221.333 39 248 117.667 248 267 C248 418.333 222 494 170 494 C118.667 494 93 418.667 93 268 C93 115.333 118 39 168 39 Z " />
<glyph glyph-name="c" unicode="c" horiz-adv-x="360" d="M281 15 C258.333 0.333333 227.667 -10 197 -10 C106.333 -10 53 83.3333 53 262 C53 451.333 109 542 201 542 C233.667 542 262.333 533.667 287 517 L271 471 C249.667 488.333 229 494 205 494 C138.333 494 103 414 103 262 C103 120.667 134.333 39 201 39 C229 39 255.667 48 281 66 L281 15 Z " />
<glyph glyph-name="d" unicode="d" horiz-adv-x="360" d="M240 91 L238 91 C223.333 37.6667 195.333 -10 146 -10 C72.6667 -10 32 82.3333 32 261 C32 445 76 542 148 542 C194.667 542 222.333 496 237 444 L240 444 C238.667 476 237 505 237 533 L237 760 L284 760 L284 0 L246 0 L240 91 Z M238 279 C238 413.667 218 494 162 494 C106 494 81 414.333 81 257 C81 113 103 39 159 39 C215 39 238 117.333 238 244 L238 279 Z " />
<glyph glyph-name="e" unicode="e" horiz-adv-x="360" d="M282 25 C254 2.33333 224.667 -10 186 -10 C90 -10 37 92.3333 37 263 C37 429.848 83.7229 542 170 542 C252.745 542 295 435.844 295 300 L295 260 L86 260 C88.6667 112 124 39 188 39 C224 39 251.333 51.6667 282 77 L282 25 Z M248 307 C248 415.286 221.286 494 169 494 C122.333 494 92.3333 429.667 87 307 L248 307 Z " />
<glyph glyph-name="f" unicode="f" horiz-adv-x="360" d="M130 0 L130 484 L41 484 L41 523 L130 533 L130 595 C130 719 162 765 234 765 C258 765 280 759 300 751 L287 705 C271.667 713.667 256 718 240 718 C197.333 718 178 687.333 178 594 L178 532 L284 532 L284 484 L178 484 L178 0 L130 0 Z " />
<glyph glyph-name="g" unicode="g" horiz-adv-x="360" d="M50 -155 C80.6667 -179 114 -194 146 -194 C208.667 -194 237 -132.667 237 -26 L237 10 C237 36.6667 236.333 66.3333 239 93 L236 93 C220 29 189.333 -9 148 -9 C74.6667 -9 32 83.3333 32 262 C32 435.333 74.3333 542 149 542 C191.667 542 218.333 506.667 237 452 L240 452 L245 532 L284 532 L284 -22 C284 -166 241.667 -243 147 -243 C111.667 -243 79.3333 -232 50 -210 L50 -155 Z M238 290 C238 416.667 217.333 494 164 494 C106.667 494 82 407.333 82 262 C82 113.333 108.667 39 162 39 C218 39 238 126.329 238 240 L238 290 Z " />
<glyph glyph-name="h" unicode="h" horiz-adv-x="360" d="M46 0 L46 760 L94 760 L94 513 C94 486.333 92.3333 464.667 91 442 L94 442 C108.667 495.333 135.333 542 186 542 C248.667 542 288 483.667 288 353 L288 0 L240 0 L240 343 C240 447 219.333 494 174 494 C123.333 494 94 426 94 290 L94 0 L46 0 Z " />
<glyph glyph-name="i" unicode="i" horiz-adv-x="360" >
<path fill="black" d="M49 40 L147 47 L147 484 L58 492 L58 532 L195 532 L195 47 L283 40 L283 0 L49 0 L49 40 Z " /><g transform="translate(4,0)" ><path fill="black" d="M165 647 C142.333 647 131 666 131 698 C131 730 142.333 750 165 750 C187.667 750 198 730 198 698 C198 667.333 187.667 647 165 647 Z " /></g></glyph>
<glyph glyph-name="j" unicode="j" horiz-adv-x="360" >
<path fill="black" d="M32 -177 C50.6667 -187.667 83.3333 -197 106 -197 C148.667 -197 170 -152.667 170 -74 L170 484 L63 492 L63 532 L218 532 L218 -75 C218 -192.333 180.667 -246 110 -246 C82 -246 50.6667 -236 32 -228 L32 -177 Z " /><g transform="translate(24,-5)" ><path fill="black" d="M165 647 C142.333 647 131 666 131 698 C131 730 142.333 750 165 750 C187.667 750 198 730 198 698 C198 667.333 187.667 647 165 647 Z " /></g></glyph>
<glyph glyph-name="k" unicode="k" horiz-adv-x="360" d="M57 0 L57 760 L103 760 L103 392 C103 340 102.667 298 100 246 L101 246 C111.667 268.667 121.333 287.333 132 310 L245 532 L302 532 L177 304 L309 0 L254 0 L144 264 L103 193 L103 0 L57 0 Z " />
<glyph glyph-name="l" unicode="l" horiz-adv-x="360" d="M49 40 L143 47 L143 713 L56 720 L56 760 L191 760 L191 47 L283 40 L283 0 L49 0 L49 40 Z " />
<glyph glyph-name="m" unicode="m" horiz-adv-x="360" d="M27 0 L27 532 L60 532 L66 469 L68 469 C78.6667 509 95 542 127 542 C160.333 542 173.333 510.333 180 469 L182 469 C192.667 513 212 542 244 542 C286.667 542 304 504.667 304 402 L304 0 L262 0 L262 396 C262 469.333 250.667 494 228 494 C197.333 494 186 435.333 186 354 L186 0 L144 0 L144 387 C144 471 134.333 494 113 494 C78.3333 494 69 418.411 69 349 L69 0 L27 0 Z " />
<glyph glyph-name="n" unicode="n" horiz-adv-x="360" d="M46 0 L46 532 L85 532 L91 440 L94 440 C108.667 498.667 140.333 542 187 542 C251 542 288 485.333 288 356 L288 0 L240 0 L240 351 C240 448.333 218.333 493 177 493 C125 493 94 426.333 94 293 L94 0 L46 0 Z " />
<glyph glyph-name="o" unicode="o" horiz-adv-x="360" d="M165 -10 C77 -10 32 91 32 267 C32 443 78.3333 542 165 542 C251.277 542 298 434 298 266 C298 91.3333 255.667 -10 165 -10 Z M165 38 C222.333 38 248 117.667 248 267 C248 408.333 223.333 494 166 494 C110 494 82 415 82 267 C82 120.333 109 38 165 38 Z " />
<glyph glyph-name="p" unicode="p" horiz-adv-x="360" d="M46 -240 L46 532 L84 532 L90 433 L93 433 C108.707 490.592 136.359 542 185 542 C258.333 542 298 451.667 298 269 C298 83.6667 251 -10 183 -10 C137.667 -10 110.333 38 93 90 L90 90 C92.6667 67.3333 93 30.6667 93 0 L93 -240 L46 -240 Z M93 255 C93 116.333 121.333 39 172 39 C218.667 39 248 112.667 248 270 C248 418.667 222.667 493 172 493 C118.667 493 93 413.333 93 284 L93 255 Z " />
<glyph glyph-name="q" unicode="q" horiz-adv-x="360" d="M237 -236 L237 3 C237 29.6667 237.333 63.3333 240 94 L238 94 C222 34 192 -10 148 -10 C73.3333 -10 32 82.6667 32 264 C32 438.667 76 542 152 542 C194.667 542 222.333 498.333 237 445 L240 445 L246 532 L284 532 L284 -236 L237 -236 Z M238 283 C238 415 214.667 492 164 492 C110.667 492 83 411 83 263 C83 112.333 112 39 160 39 C213.177 39 238 123 238 243 L238 283 Z " />
<glyph glyph-name="r" unicode="r" horiz-adv-x="360" d="M34 40 L116 47 L116 484 L40 492 L40 532 L153 532 L158 434 L161 434 C175.667 495.333 204.667 541 254 541 C270 541 289.667 536.667 307 526 L295 473 C280.333 482.333 262.667 486 248 486 C193.333 486 163 406.333 163 285 L163 47 L252 40 L252 0 L34 0 L34 40 Z " />
<glyph glyph-name="s" unicode="s" horiz-adv-x="360" d="M59 77 C87 54.3333 122 38 158 38 C211.333 38 229 75 229 135 C229 192.825 206.556 210.833 153 251 C102.378 290.964 63 320.772 63 406 C63 491.333 103 542 179 542 C213.667 542 241.333 531 272 511 L256 466 C229.333 484.667 203.667 494 179 494 C136.333 494 112 464 112 408 C112 350.637 137.729 331.779 189 294 C241.714 254.465 277 226.467 277 136 C277 42.6667 237.667 -10 155 -10 C116.333 -10 83 5.33333 59 24 L59 77 Z " />
<glyph glyph-name="t" unicode="t" horiz-adv-x="360" d="M124 484 L40 484 L40 520 L126 533 L141 669 L173 669 L173 532 L288 532 L288 484 L172 484 L172 170 C172 82.6667 192.667 39 234 39 C252 39 271 43.3333 291 52 L291 4 C270.333 -5.33333 248 -10 224 -10 C160 -10 124 43.6667 124 161 L124 484 Z " />
<glyph glyph-name="u" unicode="u" horiz-adv-x="360" d="M43 532 L91 532 L91 184 C91 78.6667 114 38 158 38 C208.667 38 237 106 237 242 L237 532 L284 532 L284 0 L245 0 L239 93 L235 93 C220.333 33 189.667 -10 143 -10 C76.3333 -10 43 51 43 173 L43 532 Z " />
<glyph glyph-name="v" unicode="v" horiz-adv-x="360" d="M166 52 C172.667 93.3333 181 141.333 189 184 L253 532 L301 532 L192 0 L135 0 L28 532 L77 532 L142 184 C150 141.333 157.333 93.3333 164 52 L166 52 Z " />
<glyph glyph-name="w" unicode="w" horiz-adv-x="360" d="M94 57 C96.7344 89.813 104.571 155.855 110 202 L144 426 L188 426 L221 200 C228.971 157.489 235.402 92.3772 238 56 L240 56 C242.667 96 244.667 152.333 250 207 L277 532 L320 532 L265 0 L213 0 L182 237 C176.667 281 171.333 325.333 166 368 L165 368 C161 325.333 155.667 277.667 149 235 L117 0 L65 0 L11 532 L53 532 L82 209 C87.3333 153 89.3333 91.6667 92 57 L94 57 Z " />
<glyph glyph-name="x" unicode="x" horiz-adv-x="360" d="M29 0 L136 273 L34 532 L88 532 L165 313 L242 532 L296 532 L193 271 L300 0 L246 0 L164 233 L82 0 L29 0 Z " />
<glyph glyph-name="y" unicode="y" horiz-adv-x="360" d="M35 -188 C45.6667 -192 55.3333 -196 66 -196 C95.3333 -196 116.333 -172 131 -96 L149 2 L31 532 L82 532 L148 190 C158.667 131.333 164.667 96.3333 170 63 L171 63 C176.333 101.667 183 147.333 191 190 L250 532 L302 532 L177 -91 C158.333 -188.333 126.667 -244 72 -244 C60 -244 47.6667 -241.333 35 -236 L35 -188 Z " />
<glyph glyph-name="z" unicode="z" horiz-adv-x="360" d="M51 40 L221 484 L61 484 L61 532 L277 532 L277 488 L108 48 L280 48 L280 0 L51 0 L51 40 Z " />
<glyph glyph-name="braceleft" unicode="&#x7b;" horiz-adv-x="360" d="M143 149 C143 227.667 123.667 257 77 257 L77 299 C119.667 299 143 322 143 406 L143 568 C143 668 186.333 714.667 257 716 L257 672 C213 670.667 188 643 188 563 L188 401 C188 330.333 169.333 289.667 132 279 L132 276 C170.667 265.333 188 227.333 188 154 L188 -8 C188 -88 209 -116 257 -116 L257 -160 C186.333 -157.333 143 -117.333 143 -12 L143 149 Z " />
<glyph glyph-name="bar" unicode="&#x7c;" horiz-adv-x="360" d="M138 -240 L138 760 L181 760 L181 -240 L138 -240 Z " />
<glyph glyph-name="braceright" unicode="&#x7d;" horiz-adv-x="360" d="M63 -116 C107 -114.667 132 -87 132 -7 L132 155 C132 225.667 150.667 266.333 188 277 L188 280 C149.333 290.667 132 328.667 132 402 L132 564 C132 644 111 672 63 672 L63 716 C133.667 713.333 177 673.333 177 568 L177 407 C177 328.333 196.333 299 243 299 L243 257 C200.333 257 177 234 177 150 L177 -12 C177 -112 133.667 -158.667 63 -160 L63 -116 Z " />
<glyph glyph-name="asciitilde" unicode="&#x7e;" horiz-adv-x="360" d="M291 348 C275 320 252.667 301 226 301 C199.333 301 182.667 312.333 160 331 C140 348.333 120.667 359 102 359 C80 359 59 339.333 39 300 L39 354 C56.3333 386 78.3333 406 105 406 C131.667 406 148.333 393.667 171 375 C193.667 357.667 210.333 347 229 347 C249 347 272.333 366 291 402 L291 348 Z " />
<glyph glyph-name="uni00A0" unicode="&#xa0;" horiz-adv-x="360" />
<glyph glyph-name="exclamdown" unicode="&#xa1;" horiz-adv-x="360" d="M141 342 L180 342 L189 -185 L133 -185 L141 342 Z M161 441 C139 441 128 457.333 128 490 C128 524 139 541 161 541 C183.667 541 195 522 195 490 C195 457.333 183.667 441 161 441 Z " />
<glyph glyph-name="cent" unicode="&#xa2;" horiz-adv-x="360" d="M181 -10 L181 90 C97 100.667 59 200.667 59 362 C59 523.333 100 624.333 180 639 L180 724 L211 724 L211 641 C233.667 638.333 256.333 632.667 275 618 L261 574 C242.333 588.667 222 594 206 594 C138 594 105 507.333 105 362 C105 216.667 136 138 204 138 C226.667 138 251 146.333 271 161 L271 113 C256.333 102.333 234.667 92.6667 212 90 L212 -10 L181 -10 Z " />
<glyph glyph-name="sterling" unicode="&#xa3;" horiz-adv-x="360" d="M291 50 L291 0 L42 0 L42 46 C76.6667 66 94 112.667 94 198 L94 332 L42 332 L42 377 L94 377 L94 538 C94 656.667 131 724 207 724 C239 724 265 709.667 289 687 L273 643 C250.333 665.667 231.333 674 210 674 C163.333 674 141 631 141 531 L141 377 L238 377 L238 332 L141 332 L141 197 C141 121 126 75.3333 98 50 L291 50 Z " />
<glyph glyph-name="currency" unicode="&#xa4;" horiz-adv-x="360" d="M22 161 L65 230 C48.3333 266 40 307 40 353 C40 398.333 47.6667 441.333 65 476 L21 547 L45 576 L89 504 C111 534 136.333 549 165 549 C193 549 218.333 534.333 241 505 L286 575 L309 547 L265 477 C282.333 440.333 291 399 291 353 C291 310.333 283.333 266.333 266 229 L309 159 L286 131 L241 201 C219 173 193.667 159 165 159 C136.333 159 111 173.333 89 202 L45 133 L22 161 Z M165 201 C218.281 201 255 268.589 255 354 C255 441.974 218.281 507 165 507 C114.281 507 75 440.844 75 353 C75 266.697 114.281 201 165 201 Z " />
<glyph glyph-name="yen" unicode="&#xa5;" horiz-adv-x="360" d="M60 186 L142 186 L142 285 L60 285 L60 327 L132 327 L34 714 L84 714 L165 357 L246 714 L296 714 L198 327 L271 327 L271 285 L189 285 L189 186 L271 186 L271 145 L189 145 L189 0 L142 0 L142 145 L60 145 L60 186 Z " />
<glyph glyph-name="brokenbar" unicode="&#xa6;" horiz-adv-x="360" d="M138 -243 L138 142 L181 142 L181 -243 L138 -243 Z M138 377 L138 760 L181 760 L181 377 L138 377 Z " />
<glyph glyph-name="section" unicode="&#xa7;" horiz-adv-x="360" d="M57 69 C79.6667 46.3333 114.333 31 145 31 C190.333 31 220 69.6667 220 131 C220 189.104 192.389 213.666 148 245 C94.0073 288.194 63 318.34 63 388 C63 456 88.6667 497 126 517 C96.6667 547.667 79 584 79 640 C79 720 119 766 183 766 C213.667 766 238.667 756 264 736 L250 697 C228.667 714.333 207.333 724 182 724 C143.333 724 120 697.667 120 643 C120 591 144.667 555.667 182 529 C227.997 493.826 273 465.436 273 376 C273 313.333 251.667 266 221 242 C249 208.667 261 182.333 261 133 C261 46.3333 218.667 -10 144 -10 C109.333 -10 78.3333 1.33333 57 20 L57 69 Z M194 264 C218 281.333 233 318.667 233 368 C233 426.667 212.667 456 154 496 C123.333 481.333 103 447 103 395 C103 333.224 133.307 314.244 166 287 L194 264 Z " />
<glyph glyph-name="dieresis" unicode="&#xa8;" horiz-adv-x="360" d="M107 630 C89.6667 630 78 648.667 78 678 C78 707.333 89.6667 725 107 725 C126.333 725 136 709.333 136 678 C136 647.333 125.667 630 107 630 Z M223 630 C205.667 630 194 648.667 194 678 C194 707.333 205.667 725 223 725 C242.333 725 252 709.333 252 678 C252 647.333 241.667 630 223 630 Z " />
<glyph glyph-name="copyright" unicode="&#xa9;" horiz-adv-x="360" d="M164 139 C76.8658 139 20 230.134 20 359 C20 492.255 82.3593 582 165 582 C251.381 582 310 489.022 310 360 C310 228.286 247.688 139 164 139 Z M164 172 C233.333 172 282 245.667 282 359 C282 469.381 234.355 548 164 548 C97.2554 548 47 473.697 47 360 C47 250.667 94.6926 172 164 172 Z M214 233 C199.333 225 186.333 219 169 219 C114.333 219 84 270.667 84 356 C84 444 114 500 170 500 C190 500 207 494.333 221 483 L211 451 C198.333 461 185 466 171 466 C136.333 466 114 428 114 356 C114 288 134 252 170 252 C184 252 198.667 256.667 214 266 L214 233 Z " />
<glyph glyph-name="ordfeminine" unicode="&#xaa;" horiz-adv-x="360" d="M209 443 C196.333 407 175.667 389 147 389 C108.333 389 82 422 82 482 C82 548.667 115 579.333 175 586 L205 589 L205 619 C205 667 191.333 686 162 686 C144 686 126.667 678.667 110 664 L98 698 C119.333 712.667 139.667 723 165 723 C215.667 723 241 688.333 241 619 L241 394 L214 394 L209 443 Z M205 554 L180 551 C138.667 547 118 531 118 483 C118 444.333 132.333 426 155 426 C187 426 205 463.333 205 522 L205 554 Z " />
<glyph glyph-name="guillemotleft" unicode="&#xab;" horiz-adv-x="360" >
<g transform="translate(-62,0)" ><path fill="black" d="M197 73 L102 259 L102 272 L197 460 L230 440 L157 266 L230 93 L197 73 Z " /></g><g transform="translate(60,0)" ><path fill="black" d="M197 73 L102 259 L102 272 L197 460 L230 440 L157 266 L230 93 L197 73 Z " /></g></glyph>
<glyph glyph-name="logicalnot" unicode="&#xac;" horiz-adv-x="360" d="M39 375 L283 375 L283 123 L243 123 L243 330 L39 330 L39 375 Z " />
<glyph glyph-name="uni00AD" unicode="&#xad;" horiz-adv-x="360" >
<g transform="translate(4,0)" ><path fill="black" d="M84 300 L246 300 L246 249 L84 249 L84 300 Z " /></g></glyph>
<glyph glyph-name="registered" unicode="&#xae;" horiz-adv-x="360" d="M164 139 C78.5368 139 21 230.134 21 359 C21 492.255 82.1818 582 166 582 C251.333 582 310 489.022 310 360 C310 228.286 248.312 139 164 139 Z M165 172 C233 172 282 245.667 282 359 C282 469.381 234.307 548 165 548 C97 548 48 474.667 48 360 C48 250.667 95.6926 172 165 172 Z M110 222 L110 500 L162 500 C202 500 224 471 224 419 C224 372.333 209.667 351.667 191 341 L235 222 L204 222 L165 333 L137 333 L137 222 L110 222 Z M137 364 L161 364 C182.333 364 197 378.667 197 416 C197 450.667 185 468 161 468 L137 468 L137 364 Z " />
<glyph glyph-name="macron" unicode="&#xaf;" horiz-adv-x="360" d="M85 668 L242 668 L242 625 L85 625 L85 668 Z " />
<glyph glyph-name="degree" unicode="&#xb0;" horiz-adv-x="360" d="M164 458 C116 458 77 506 77 590 C77 675.333 117.333 723 164 723 C212 723 253 674 253 590 C253 507.333 213.333 458 164 458 Z M164 495 C196 495 220 530 220 590 C220 650 197.333 686 164 686 C130.667 686 109 647.333 109 590 C109 530 133.333 495 164 495 Z " />
<glyph glyph-name="plusminus" unicode="&#xb1;" horiz-adv-x="360" d="M144 130 L144 339 L38 339 L38 384 L144 384 L144 594 L184 594 L184 384 L288 384 L288 339 L184 339 L184 130 L144 130 Z M38 47 L287 47 L287 0 L38 0 L38 47 Z " />
<glyph glyph-name="twosuperior" unicode="&#xb2;" horiz-adv-x="360" d="M82 453 L144 568 C184.113 640.203 208 681.225 208 739 C208 781.667 191.667 812 161 812 C139 812 119.333 798.333 102 771 L83 803 C103 836.333 130 853 164 853 C216 853 246 808 246 740 C246 672.136 212.379 631.428 167 538 L125 455 L253 455 L253 415 L82 415 L82 453 Z " />
<glyph glyph-name="threesuperior" unicode="&#xb3;" horiz-adv-x="360" d="M83 478 C103 460 125.667 451 151 451 C192.333 451 211 481.667 211 535 C211 588.333 190.667 618 148 618 L121 618 L121 657 L147 657 C184.333 657 205 690.333 205 741 C205 785 187.667 811 157 811 C134.333 811 118.667 798 100 774 L82 808 C104.667 836 130.333 852 161 852 C207.667 852 240 814 240 746 C240 692.667 223 656.667 195 642 L195 640 C229.667 625.333 249 590.333 249 533 C249 453 211 409 151 409 C126.333 409 103.667 416.333 83 431 L83 478 Z " />
<glyph glyph-name="acute" unicode="&#xb4;" horiz-adv-x="360" d="M137 606 L137 616 C162.333 666.667 186 719.333 202 766 L256 766 L256 757 C236.745 712.989 197.07 645.64 168 606 L137 606 Z " />
<glyph glyph-name="mu" unicode="&#xb5;" horiz-adv-x="360" d="M43 227 L47 227 L47 532 L95 532 L95 184 C95 78.6667 118 38 162 38 C212.667 38 241 106 241 242 L241 532 L288 532 L288 0 L249 0 L243 93 L239 93 C224.333 33 193.667 -10 147 -10 C123.667 -10 104.667 -2.66667 90 12 L90 -240 L43 -240 L43 227 Z " />
<glyph glyph-name="paragraph" unicode="&#xb6;" horiz-adv-x="360" d="M151 -127 L151 315 C142.333 309 133 306 123 306 C67 306 42 391.667 42 533 C42 681 69.6667 760 135 760 L267 760 L267 -127 L235 -127 L235 718 L183 718 L183 -127 L151 -127 Z " />
<glyph glyph-name="periodcentered" unicode="&#xb7;" horiz-adv-x="360" >
<g transform="translate(4,282)" ><path fill="black" d="M165 -12 C142.333 -12 131 7 131 39 C131 71.6667 142.333 88 165 88 C187 88 198 71.6667 198 39 C198 5 187 -12 165 -12 Z " /></g></glyph>
<glyph glyph-name="cedilla" unicode="&#xb8;" horiz-adv-x="360" d="M109 -195 C119 -199 129 -201 139 -201 C167 -201 184 -179.333 184 -142 C184 -102 164.667 -85 130 -81 L153 0 L182 0 L168 -57 C204 -66.3333 222 -95.3333 222 -144 C222 -204 193 -240 145 -240 C133 -240 119.667 -238 109 -234 L109 -195 Z " />
<glyph glyph-name="onesuperior" unicode="&#xb9;" horiz-adv-x="360" d="M93 448 L157 452 L157 692 C157 725.333 156.333 760.333 159 791 C149.667 780.333 144.667 774.667 134 764 L99 725 L80 757 L163 843 L194 843 L194 452 L255 448 L255 415 L93 415 L93 448 Z " />
<glyph glyph-name="ordmasculine" unicode="&#xba;" horiz-adv-x="360" d="M167 389 C111 389 81 454.667 81 556 C81 660 112 723 168 723 C224 723 253 659.333 253 558 C253 455.333 224.333 389 167 389 Z M167 426 C201.667 426 218 474.333 218 557 C218 638.333 201.333 687 168 687 C134 687 117 643.333 117 556 C117 473.333 133.667 426 167 426 Z " />
<glyph glyph-name="guillemotright" unicode="&#xbb;" horiz-adv-x="360" >
<g transform="translate(54,-32)" ><path fill="black" d="M174 295 L101 468 L134 488 L229 302 L229 289 L134 101 L101 121 L174 295 Z " /></g><g transform="translate(-67,-32)" ><path fill="black" d="M174 295 L101 468 L134 488 L229 302 L229 289 L134 101 L101 121 L174 295 Z " /></g></glyph>
<glyph glyph-name="onequarter" unicode="&#xbc;" horiz-adv-x="360" >
<g transform="translate(-2,-576)" ><path fill="black" d="M73 556 L183 845 L222 845 L222 561 L262 561 L262 523 L222 523 L222 415 L186 415 L186 523 L73 523 L73 556 Z M186 561 L186 713 C186 741 185.667 761 187 785 C181.667 770.333 175.667 756.667 169 738 L108 561 L186 561 Z " /></g><g transform="translate(-2,50)" ><path fill="black" d="M93 448 L157 452 L157 692 C157 725.333 156.333 760.333 159 791 C149.667 780.333 144.667 774.667 134 764 L99 725 L80 757 L163 843 L194 843 L194 452 L255 448 L255 415 L93 415 L93 448 Z " /></g><path fill="black" d="M27 357 L298 405 L298 374 L27 326 L27 357 Z " /></glyph>
<glyph glyph-name="onehalf" unicode="&#xbd;" horiz-adv-x="360" >
<g transform="translate(-2,50)" ><path fill="black" d="M93 448 L157 452 L157 692 C157 725.333 156.333 760.333 159 791 C149.667 780.333 144.667 774.667 134 764 L99 725 L80 757 L163 843 L194 843 L194 452 L255 448 L255 415 L93 415 L93 448 Z " /></g><g transform="translate(-1,-576)" ><path fill="black" d="M82 453 L144 568 C184.113 640.203 208 681.225 208 739 C208 781.667 191.667 812 161 812 C139 812 119.333 798.333 102 771 L83 803 C103 836.333 130 853 164 853 C216 853 246 808 246 740 C246 672.136 212.379 631.428 167 538 L125 455 L253 455 L253 415 L82 415 L82 453 Z " /></g><path fill="black" d="M27 357 L298 405 L298 374 L27 326 L27 357 Z " /></glyph>
<glyph glyph-name="threequarters" unicode="&#xbe;" horiz-adv-x="360" >
<g transform="translate(-2,-576)" ><path fill="black" d="M73 556 L183 845 L222 845 L222 561 L262 561 L262 523 L222 523 L222 415 L186 415 L186 523 L73 523 L73 556 Z M186 561 L186 713 C186 741 185.667 761 187 785 C181.667 770.333 175.667 756.667 169 738 L108 561 L186 561 Z " /></g><g transform="translate(0,50)" ><path fill="black" d="M83 478 C103 460 125.667 451 151 451 C192.333 451 211 481.667 211 535 C211 588.333 190.667 618 148 618 L121 618 L121 657 L147 657 C184.333 657 205 690.333 205 741 C205 785 187.667 811 157 811 C134.333 811 118.667 798 100 774 L82 808 C104.667 836 130.333 852 161 852 C207.667 852 240 814 240 746 C240 692.667 223 656.667 195 642 L195 640 C229.667 625.333 249 590.333 249 533 C249 453 211 409 151 409 C126.333 409 103.667 416.333 83 431 L83 478 Z " /></g><path fill="black" d="M27 357 L298 405 L298 374 L27 326 L27 357 Z " /></glyph>
<glyph glyph-name="questiondown" unicode="&#xbf;" horiz-adv-x="360" d="M268 -155 C237.333 -181.667 206.333 -195 169 -195 C99.6667 -195 60 -137 60 -29 C60 63.6933 84.5448 110.502 124 171 C156.877 225.795 164 257.001 164 324 L164 342 L204 342 L204 320 C204 238.679 192.243 201.425 160 145 C122.425 85.953 106 47.0923 106 -27 C106 -107 130.333 -145 173 -145 C201 -145 224.333 -132.333 251 -111 L268 -155 Z M183 441 C161 441 150 457.333 150 490 C150 524 161 541 183 541 C205.667 541 217 522 217 490 C217 457.333 205.667 441 183 441 Z " />
<glyph glyph-name="Agrave" unicode="&#xc0;" horiz-adv-x="360" d="M132 714 L197 714 L315 0 L266 0 L228 251 L101 251 L64 0 L15 0 L132 714 Z M220 301 L179 570 C175 602 169.333 637.333 164 668 C160 637.333 154.333 603.333 149 570 L109 301 L220 301 Z M196 796 L164 796 C139.507 834.1 95.8156 901.305 77 947 L77 956 L131 956 C147 908 176 846 196 806 L196 796 Z " />
<glyph glyph-name="Aacute" unicode="&#xc1;" horiz-adv-x="360" d="M132 714 L197 714 L315 0 L266 0 L228 251 L101 251 L64 0 L15 0 L132 714 Z M220 301 L179 570 C175 602 169.333 637.333 164 668 C160 637.333 154.333 603.333 149 570 L109 301 L220 301 Z M132 806 C157.333 856.667 181 909.333 197 956 L251 956 L251 947 C231.745 902.989 192.07 835.64 163 796 L132 796 L132 806 Z " />
<glyph glyph-name="Acircumflex" unicode="&#xc2;" horiz-adv-x="360" d="M132 714 L197 714 L315 0 L266 0 L228 251 L101 251 L64 0 L15 0 L132 714 Z M220 301 L179 570 C175 602 169.333 637.333 164 668 C160 637.333 154.333 603.333 149 570 L109 301 L220 301 Z M80 805 C100.634 846.268 128.706 912.459 142 955 L186 955 C202.113 909.348 229.443 842.113 248 805 L248 796 L220 796 C201.333 826.667 182.667 868.667 164 906 C145.333 870 124.333 825.333 107 796 L80 796 L80 805 Z " />
<glyph glyph-name="Atilde" unicode="&#xc3;" horiz-adv-x="360" >
<path fill="black" d="M132 714 L197 714 L315 0 L266 0 L228 251 L101 251 L64 0 L15 0 L132 714 Z M220 301 L179 570 C175 602 169.333 637.333 164 668 C160 637.333 154.333 603.333 149 570 L109 301 L220 301 Z " /><g transform="translate(-1,190)" ><path fill="black" d="M68 617 C70.6667 681 86.3333 725 121 725 C155.667 725 178.333 661 205 661 C220.333 661 229.333 682.333 232 725 L262 725 C259.333 653 237.333 617 208 617 C172.889 617 148.444 681 124 681 C109.333 681 100 659.667 96 617 L68 617 Z " /></g></glyph>
<glyph glyph-name="Adieresis" unicode="&#xc4;" horiz-adv-x="360" >
<g transform="translate(-1,179)" ><path fill="black" d="M107 630 C89.6667 630 78 648.667 78 678 C78 707.333 89.6667 725 107 725 C126.333 725 136 709.333 136 678 C136 647.333 125.667 630 107 630 Z M223 630 C205.667 630 194 648.667 194 678 C194 707.333 205.667 725 223 725 C242.333 725 252 709.333 252 678 C252 647.333 241.667 630 223 630 Z " /></g><path fill="black" d="M132 714 L197 714 L315 0 L266 0 L228 251 L101 251 L64 0 L15 0 L132 714 Z M220 301 L179 570 C175 602 169.333 637.333 164 668 C160 637.333 154.333 603.333 149 570 L109 301 L220 301 Z " /></glyph>
<glyph glyph-name="Aring" unicode="&#xc5;" horiz-adv-x="360" d="M132 714 L197 714 L315 0 L266 0 L228 251 L101 251 L64 0 L15 0 L132 714 Z M220 301 L179 570 C175 602 169.333 637.333 164 668 C160 637.333 154.333 603.333 149 570 L109 301 L220 301 Z M164 802 C124 802 96 839 96 899 C96 957.667 124 995 164 995 C202.667 995 232 958 232 898 C232 839.333 205.333 802 164 802 Z M164 837 C186.667 837 202 862 202 898 C202 935.333 186.667 959 164 959 C141.333 959 126 933.667 126 899 C126 861.667 141.333 837 164 837 Z " />
<glyph glyph-name="AE" unicode="&#xc6;" horiz-adv-x="360" d="M115 714 L311 714 L311 662 L208 662 L208 400 L301 400 L301 348 L208 348 L208 52 L311 52 L311 0 L165 0 L165 251 L94 251 L61 0 L15 0 L115 714 Z M165 302 L165 662 L149 662 L101 302 L165 302 Z " />
<glyph glyph-name="Ccedilla" unicode="&#xc7;" horiz-adv-x="360" d="M140 -195 C150 -199 160 -201 170 -201 C198 -201 215 -179.333 215 -142 C215 -102 195.667 -85 161 -81 L182 -8 C85.8034 10.7049 33 147.252 33 358 C33 562.182 92.3377 725 208 725 C246.667 725 278.333 712.667 309 690 L291 644 C265.667 666.667 238.667 675 212 675 C125.126 675 82 532.381 82 358 C82 166.156 126.468 40 210 40 C244.667 40 271.333 52.3333 298 67 L298 16 C272.667 1.33333 245.667 -8.66667 211 -10 L199 -57 C235 -66.3333 253 -95.3333 253 -144 C253 -204 224 -240 176 -240 C164 -240 150.667 -238 140 -234 L140 -195 Z " />
<glyph glyph-name="Egrave" unicode="&#xc8;" horiz-adv-x="360" >
<path fill="black" d="M282 51 L282 0 L51 0 L51 714 L282 714 L282 663 L99 663 L99 399 L271 399 L271 348 L99 348 L99 51 L282 51 Z " /><g transform="translate(-6,182)" ><path fill="black" d="M171 606 C146.507 644.1 102.816 711.305 84 757 L84 766 L138 766 C154 718 183 656 203 616 L203 606 L171 606 Z " /></g></glyph>
<glyph glyph-name="Eacute" unicode="&#xc9;" horiz-adv-x="360" >
<path fill="black" d="M282 51 L282 0 L51 0 L51 714 L282 714 L282 663 L99 663 L99 399 L271 399 L271 348 L99 348 L99 51 L282 51 Z " /><g transform="translate(-4,182)" ><path fill="black" d="M137 606 L137 616 C162.333 666.667 186 719.333 202 766 L256 766 L256 757 C236.745 712.989 197.07 645.64 168 606 L137 606 Z " /></g></glyph>
<glyph glyph-name="Ecircumflex" unicode="&#xca;" horiz-adv-x="360" >
<path fill="black" d="M282 51 L282 0 L51 0 L51 714 L282 714 L282 663 L99 663 L99 399 L271 399 L271 348 L99 348 L99 51 L282 51 Z " /><g transform="translate(0,182)" ><path fill="black" d="M81 606 L81 615 C101.634 656.268 129.706 722.459 143 765 L187 765 C203.113 719.348 230.443 652.113 249 615 L249 606 L221 606 C202.333 636.667 183.667 678.667 165 716 C146.333 680 125.333 635.333 108 606 L81 606 Z " /></g></glyph>
<glyph glyph-name="Edieresis" unicode="&#xcb;" horiz-adv-x="360" >
<g transform="translate(0,171)" ><path fill="black" d="M107 630 C89.6667 630 78 648.667 78 678 C78 707.333 89.6667 725 107 725 C126.333 725 136 709.333 136 678 C136 647.333 125.667 630 107 630 Z M223 630 C205.667 630 194 648.667 194 678 C194 707.333 205.667 725 223 725 C242.333 725 252 709.333 252 678 C252 647.333 241.667 630 223 630 Z " /></g><path fill="black" d="M282 51 L282 0 L51 0 L51 714 L282 714 L282 663 L99 663 L99 399 L271 399 L271 348 L99 348 L99 51 L282 51 Z " /></glyph>
<glyph glyph-name="Igrave" unicode="&#xcc;" horiz-adv-x="360" >
<path fill="black" d="M60 39 L141 46 L141 668 L60 675 L60 714 L269 714 L269 675 L188 668 L188 46 L269 39 L269 0 L60 0 L60 39 Z " /><g transform="translate(-6,182)" ><path fill="black" d="M171 606 C146.507 644.1 102.816 711.305 84 757 L84 766 L138 766 C154 718 183 656 203 616 L203 606 L171 606 Z " /></g></glyph>
<glyph glyph-name="Iacute" unicode="&#xcd;" horiz-adv-x="360" >
<path fill="black" d="M60 39 L141 46 L141 668 L60 675 L60 714 L269 714 L269 675 L188 668 L188 46 L269 39 L269 0 L60 0 L60 39 Z " /><g transform="translate(-4,182)" ><path fill="black" d="M137 606 L137 616 C162.333 666.667 186 719.333 202 766 L256 766 L256 757 C236.745 712.989 197.07 645.64 168 606 L137 606 Z " /></g></glyph>
<glyph glyph-name="Icircumflex" unicode="&#xce;" horiz-adv-x="360" >
<path fill="black" d="M60 39 L141 46 L141 668 L60 675 L60 714 L269 714 L269 675 L188 668 L188 46 L269 39 L269 0 L60 0 L60 39 Z " /><g transform="translate(0,182)" ><path fill="black" d="M81 606 L81 615 C101.634 656.268 129.706 722.459 143 765 L187 765 C203.113 719.348 230.443 652.113 249 615 L249 606 L221 606 C202.333 636.667 183.667 678.667 165 716 C146.333 680 125.333 635.333 108 606 L81 606 Z " /></g></glyph>
<glyph glyph-name="Idieresis" unicode="&#xcf;" horiz-adv-x="360" >
<g transform="translate(0,171)" ><path fill="black" d="M107 630 C89.6667 630 78 648.667 78 678 C78 707.333 89.6667 725 107 725 C126.333 725 136 709.333 136 678 C136 647.333 125.667 630 107 630 Z M223 630 C205.667 630 194 648.667 194 678 C194 707.333 205.667 725 223 725 C242.333 725 252 709.333 252 678 C252 647.333 241.667 630 223 630 Z " /></g><path fill="black" d="M60 39 L141 46 L141 668 L60 675 L60 714 L269 714 L269 675 L188 668 L188 46 L269 39 L269 0 L60 0 L60 39 Z " /></glyph>
<glyph glyph-name="Eth" unicode="&#xd0;" horiz-adv-x="360" d="M46 342 L4 342 L4 391 L46 391 L46 714 L155 714 C260.333 714 315 596 315 364 C315 122.667 259.667 0 149 0 L46 0 L46 342 Z M145 51 C229 51 265 156.333 265 363 C265 565.667 234 663 146 663 L94 663 L94 391 L178 391 L178 342 L94 342 L94 51 L145 51 Z " />
<glyph glyph-name="Ntilde" unicode="&#xd1;" horiz-adv-x="360" >
<path fill="black" d="M36 0 L36 714 L99 714 L253 70 L256 70 C256 104.667 250 170 250 218 L250 714 L294 714 L294 0 L233 0 L77 648 L74 648 C76.6667 602.667 78 557 78 493 L78 0 L36 0 Z " /><g transform="translate(4,182)" ><path fill="black" d="M68 617 C70.6667 681 86.3333 725 121 725 C155.667 725 178.333 661 205 661 C220.333 661 229.333 682.333 232 725 L262 725 C259.333 653 237.333 617 208 617 C172.889 617 148.444 681 124 681 C109.333 681 100 659.667 96 617 L68 617 Z " /></g></glyph>
<glyph glyph-name="Ograve" unicode="&#xd2;" horiz-adv-x="360" >
<path fill="black" d="M165 -10 C59.4069 -10 25 165.329 25 359 C25 601.667 70.3333 725 165 725 C266.229 725 305 567.1 305 358 C305 157.896 270.593 -10 165 -10 Z M165 40 C229 40 256 148.667 256 358 C256 564.667 227.667 675 165 675 C101 675 73 562 73 358 C73 152.667 103.667 40 165 40 Z " /><g transform="translate(-6,182)" ><path fill="black" d="M171 606 C146.507 644.1 102.816 711.305 84 757 L84 766 L138 766 C154 718 183 656 203 616 L203 606 L171 606 Z " /></g></glyph>
<glyph glyph-name="Oacute" unicode="&#xd3;" horiz-adv-x="360" >
<path fill="black" d="M165 -10 C59.4069 -10 25 165.329 25 359 C25 601.667 70.3333 725 165 725 C266.229 725 305 567.1 305 358 C305 157.896 270.593 -10 165 -10 Z M165 40 C229 40 256 148.667 256 358 C256 564.667 227.667 675 165 675 C101 675 73 562 73 358 C73 152.667 103.667 40 165 40 Z " /><g transform="translate(-4,182)" ><path fill="black" d="M137 606 L137 616 C162.333 666.667 186 719.333 202 766 L256 766 L256 757 C236.745 712.989 197.07 645.64 168 606 L137 606 Z " /></g></glyph>
<glyph glyph-name="Ocircumflex" unicode="&#xd4;" horiz-adv-x="360" >
<path fill="black" d="M165 -10 C59.4069 -10 25 165.329 25 359 C25 601.667 70.3333 725 165 725 C266.229 725 305 567.1 305 358 C305 157.896 270.593 -10 165 -10 Z M165 40 C229 40 256 148.667 256 358 C256 564.667 227.667 675 165 675 C101 675 73 562 73 358 C73 152.667 103.667 40 165 40 Z " /><g transform="translate(0,182)" ><path fill="black" d="M81 606 L81 615 C101.634 656.268 129.706 722.459 143 765 L187 765 C203.113 719.348 230.443 652.113 249 615 L249 606 L221 606 C202.333 636.667 183.667 678.667 165 716 C146.333 680 125.333 635.333 108 606 L81 606 Z " /></g></glyph>
<glyph glyph-name="Otilde" unicode="&#xd5;" horiz-adv-x="360" >
<path fill="black" d="M165 -10 C59.4069 -10 25 165.329 25 359 C25 601.667 70.3333 725 165 725 C266.229 725 305 567.1 305 358 C305 157.896 270.593 -10 165 -10 Z M165 40 C229 40 256 148.667 256 358 C256 564.667 227.667 675 165 675 C101 675 73 562 73 358 C73 152.667 103.667 40 165 40 Z " /><g transform="translate(0,182)" ><path fill="black" d="M68 617 C70.6667 681 86.3333 725 121 725 C155.667 725 178.333 661 205 661 C220.333 661 229.333 682.333 232 725 L262 725 C259.333 653 237.333 617 208 617 C172.889 617 148.444 681 124 681 C109.333 681 100 659.667 96 617 L68 617 Z " /></g></glyph>
<glyph glyph-name="Odieresis" unicode="&#xd6;" horiz-adv-x="360" >
<g transform="translate(0,171)" ><path fill="black" d="M107 630 C89.6667 630 78 648.667 78 678 C78 707.333 89.6667 725 107 725 C126.333 725 136 709.333 136 678 C136 647.333 125.667 630 107 630 Z M223 630 C205.667 630 194 648.667 194 678 C194 707.333 205.667 725 223 725 C242.333 725 252 709.333 252 678 C252 647.333 241.667 630 223 630 Z " /></g><path fill="black" d="M165 -10 C59.4069 -10 25 165.329 25 359 C25 601.667 70.3333 725 165 725 C266.229 725 305 567.1 305 358 C305 157.896 270.593 -10 165 -10 Z M165 40 C229 40 256 148.667 256 358 C256 564.667 227.667 675 165 675 C101 675 73 562 73 358 C73 152.667 103.667 40 165 40 Z " /></glyph>
<glyph glyph-name="multiply" unicode="&#xd7;" horiz-adv-x="360" d="M41 200 L135 353 L41 506 L67 538 L161 385 L256 539 L284 508 L189 353 L282 200 L255 169 L161 321 L67 168 L41 200 Z " />
<glyph glyph-name="Oslash" unicode="&#xd8;" horiz-adv-x="360" d="M55 116 C36.3333 182.667 29 267 29 359 C29 601.667 74.3333 725 169 725 C207.667 725 235.333 702.667 258 664 L287 744 L317 721 L278 616 C300.667 549.333 309 460.667 309 358 C309 157.896 274.593 -10 169 -10 C126.333 -10 96.3333 16.3333 75 63 L39 -34 L8 -12 L55 116 Z M99 128 C114.333 69.3333 137.667 40 169 40 C233 40 260 148.667 260 358 C260 430 255.667 489 249 537 L99 128 Z M235 603 C219.667 651 197.667 675 169 675 C105 675 77 562 77 358 C77 296.667 80 243.333 86 198 L235 603 Z " />
<glyph glyph-name="Ugrave" unicode="&#xd9;" horiz-adv-x="360" >
<path fill="black" d="M36 714 L84 714 L84 231 C84 96.3333 110.333 40 165 40 C219.667 40 246 93.3333 246 228 L246 714 L294 714 L294 225 C294 58.3333 250.333 -10 165 -10 C78.3333 -10 36 66.6667 36 228 L36 714 Z " /><g transform="translate(-6,182)" ><path fill="black" d="M171 606 C146.507 644.1 102.816 711.305 84 757 L84 766 L138 766 C154 718 183 656 203 616 L203 606 L171 606 Z " /></g></glyph>
<glyph glyph-name="Uacute" unicode="&#xda;" horiz-adv-x="360" >
<path fill="black" d="M36 714 L84 714 L84 231 C84 96.3333 110.333 40 165 40 C219.667 40 246 93.3333 246 228 L246 714 L294 714 L294 225 C294 58.3333 250.333 -10 165 -10 C78.3333 -10 36 66.6667 36 228 L36 714 Z " /><g transform="translate(-4,182)" ><path fill="black" d="M137 606 L137 616 C162.333 666.667 186 719.333 202 766 L256 766 L256 757 C236.745 712.989 197.07 645.64 168 606 L137 606 Z " /></g></glyph>
<glyph glyph-name="Ucircumflex" unicode="&#xdb;" horiz-adv-x="360" >
<path fill="black" d="M36 714 L84 714 L84 231 C84 96.3333 110.333 40 165 40 C219.667 40 246 93.3333 246 228 L246 714 L294 714 L294 225 C294 58.3333 250.333 -10 165 -10 C78.3333 -10 36 66.6667 36 228 L36 714 Z " /><g transform="translate(0,182)" ><path fill="black" d="M81 606 L81 615 C101.634 656.268 129.706 722.459 143 765 L187 765 C203.113 719.348 230.443 652.113 249 615 L249 606 L221 606 C202.333 636.667 183.667 678.667 165 716 C146.333 680 125.333 635.333 108 606 L81 606 Z " /></g></glyph>
<glyph glyph-name="Udieresis" unicode="&#xdc;" horiz-adv-x="360" >
<g transform="translate(0,171)" ><path fill="black" d="M107 630 C89.6667 630 78 648.667 78 678 C78 707.333 89.6667 725 107 725 C126.333 725 136 709.333 136 678 C136 647.333 125.667 630 107 630 Z M223 630 C205.667 630 194 648.667 194 678 C194 707.333 205.667 725 223 725 C242.333 725 252 709.333 252 678 C252 647.333 241.667 630 223 630 Z " /></g><path fill="black" d="M36 714 L84 714 L84 231 C84 96.3333 110.333 40 165 40 C219.667 40 246 93.3333 246 228 L246 714 L294 714 L294 225 C294 58.3333 250.333 -10 165 -10 C78.3333 -10 36 66.6667 36 228 L36 714 Z " /></glyph>
<glyph glyph-name="Yacute" unicode="&#xdd;" horiz-adv-x="360" >
<path fill="black" d="M141 0 L141 274 L19 714 L71 714 L165 328 L259 714 L311 714 L188 275 L188 0 L141 0 Z " /><g transform="translate(-4,182)" ><path fill="black" d="M137 606 L137 616 C162.333 666.667 186 719.333 202 766 L256 766 L256 757 C236.745 712.989 197.07 645.64 168 606 L137 606 Z " /></g></glyph>
<glyph glyph-name="Thorn" unicode="&#xde;" horiz-adv-x="360" d="M51 0 L51 714 L99 714 L99 589 L163 589 C255 589 300 526.333 300 385 C300 247.667 258.333 167 161 167 L99 167 L99 0 L51 0 Z M99 218 L155 218 C221.667 218 251 263 251 383 C251 495 223 538 159 538 L99 538 L99 218 Z " />
<glyph glyph-name="germandbls" unicode="&#xdf;" horiz-adv-x="360" d="M57 580 C57 694.667 94.6667 765 168 765 C230.667 765 269 711 269 631 C269 515.673 209 506.229 209 416 C209 373.333 220.667 348.333 246 307 C278.433 247.54 299 214.733 299 141 C299 53 267 -10 203 -10 C177.667 -10 155.667 -1.33333 137 16 L137 69 C155.667 50.3333 175.333 39 198 39 C232.667 39 252 78.6667 252 140 C252 200 236.667 230.667 210 272 C183.333 313.333 160 351 160 415 C160 518.778 220 527.889 220 629 C220 683.667 202.333 717 165 717 C121 717 103 665.667 103 571 L103 0 L57 0 L57 580 Z " />
<glyph glyph-name="agrave" unicode="&#xe0;" horiz-adv-x="360" >
<path fill="black" d="M235 87 L234 87 C215.333 32.3333 187 -10 139 -10 C80.3333 -10 45 45.6667 45 139 C45 248.333 91.6667 299 177 307 L233 312 L233 353 C233 457 208.667 493 166 493 C138 493 110.667 478.667 84 456 L66 500 C98 526.667 130.333 542 169 542 C242.333 542 281 487.667 281 361 L281 0 L244 0 L235 87 Z M233 270 L187 265 C125.667 258.333 93 221.333 93 140 C93 72 117.333 38 152 38 C200 38 233 103.667 233 217 L233 270 Z " /><g transform="translate(1,0)" ><path fill="black" d="M171 606 C146.507 644.1 102.816 711.305 84 757 L84 766 L138 766 C154 718 183 656 203 616 L203 606 L171 606 Z " /></g></glyph>
<glyph glyph-name="aacute" unicode="&#xe1;" horiz-adv-x="360" >
<path fill="black" d="M235 87 L234 87 C215.333 32.3333 187 -10 139 -10 C80.3333 -10 45 45.6667 45 139 C45 248.333 91.6667 299 177 307 L233 312 L233 353 C233 457 208.667 493 166 493 C138 493 110.667 478.667 84 456 L66 500 C98 526.667 130.333 542 169 542 C242.333 542 281 487.667 281 361 L281 0 L244 0 L235 87 Z M233 270 L187 265 C125.667 258.333 93 221.333 93 140 C93 72 117.333 38 152 38 C200 38 233 103.667 233 217 L233 270 Z " /><g transform="translate(3,0)" ><path fill="black" d="M137 606 L137 616 C162.333 666.667 186 719.333 202 766 L256 766 L256 757 C236.745 712.989 197.07 645.64 168 606 L137 606 Z " /></g></glyph>
<glyph glyph-name="acircumflex" unicode="&#xe2;" horiz-adv-x="360" >
<path fill="black" d="M235 87 L234 87 C215.333 32.3333 187 -10 139 -10 C80.3333 -10 45 45.6667 45 139 C45 248.333 91.6667 299 177 307 L233 312 L233 353 C233 457 208.667 493 166 493 C138 493 110.667 478.667 84 456 L66 500 C98 526.667 130.333 542 169 542 C242.333 542 281 487.667 281 361 L281 0 L244 0 L235 87 Z M233 270 L187 265 C125.667 258.333 93 221.333 93 140 C93 72 117.333 38 152 38 C200 38 233 103.667 233 217 L233 270 Z " /><g transform="translate(7,0)" ><path fill="black" d="M81 606 L81 615 C101.634 656.268 129.706 722.459 143 765 L187 765 C203.113 719.348 230.443 652.113 249 615 L249 606 L221 606 C202.333 636.667 183.667 678.667 165 716 C146.333 680 125.333 635.333 108 606 L81 606 Z " /></g></glyph>
<glyph glyph-name="atilde" unicode="&#xe3;" horiz-adv-x="360" >
<path fill="black" d="M235 87 L234 87 C215.333 32.3333 187 -10 139 -10 C80.3333 -10 45 45.6667 45 139 C45 248.333 91.6667 299 177 307 L233 312 L233 353 C233 457 208.667 493 166 493 C138 493 110.667 478.667 84 456 L66 500 C98 526.667 130.333 542 169 542 C242.333 542 281 487.667 281 361 L281 0 L244 0 L235 87 Z M233 270 L187 265 C125.667 258.333 93 221.333 93 140 C93 72 117.333 38 152 38 C200 38 233 103.667 233 217 L233 270 Z " /><g transform="translate(7,0)" ><path fill="black" d="M68 617 C70.6667 681 86.3333 725 121 725 C155.667 725 178.333 661 205 661 C220.333 661 229.333 682.333 232 725 L262 725 C259.333 653 237.333 617 208 617 C172.889 617 148.444 681 124 681 C109.333 681 100 659.667 96 617 L68 617 Z " /></g></glyph>
<glyph glyph-name="adieresis" unicode="&#xe4;" horiz-adv-x="360" >
<g transform="translate(7,-11)" ><path fill="black" d="M107 630 C89.6667 630 78 648.667 78 678 C78 707.333 89.6667 725 107 725 C126.333 725 136 709.333 136 678 C136 647.333 125.667 630 107 630 Z M223 630 C205.667 630 194 648.667 194 678 C194 707.333 205.667 725 223 725 C242.333 725 252 709.333 252 678 C252 647.333 241.667 630 223 630 Z " /></g><path fill="black" d="M235 87 L234 87 C215.333 32.3333 187 -10 139 -10 C80.3333 -10 45 45.6667 45 139 C45 248.333 91.6667 299 177 307 L233 312 L233 353 C233 457 208.667 493 166 493 C138 493 110.667 478.667 84 456 L66 500 C98 526.667 130.333 542 169 542 C242.333 542 281 487.667 281 361 L281 0 L244 0 L235 87 Z M233 270 L187 265 C125.667 258.333 93 221.333 93 140 C93 72 117.333 38 152 38 C200 38 233 103.667 233 217 L233 270 Z " /></glyph>
<glyph glyph-name="aring" unicode="&#xe5;" horiz-adv-x="360" >
<path fill="black" d="M235 87 L234 87 C215.333 32.3333 187 -10 139 -10 C80.3333 -10 45 45.6667 45 139 C45 248.333 91.6667 299 177 307 L233 312 L233 353 C233 457 208.667 493 166 493 C138 493 110.667 478.667 84 456 L66 500 C98 526.667 130.333 542 169 542 C242.333 542 281 487.667 281 361 L281 0 L244 0 L235 87 Z M233 270 L187 265 C125.667 258.333 93 221.333 93 140 C93 72 117.333 38 152 38 C200 38 233 103.667 233 217 L233 270 Z " /><g transform="translate(7,0)" ><path fill="black" d="M165 612 C125 612 97 649 97 709 C97 767.667 125 805 165 805 C203.667 805 233 768 233 708 C233 649.333 206.333 612 165 612 Z M165 647 C187.667 647 203 672 203 708 C203 745.333 187.667 769 165 769 C142.333 769 127 743.667 127 709 C127 671.667 142.333 647 165 647 Z " /></g></glyph>
<glyph glyph-name="ae" unicode="&#xe6;" horiz-adv-x="360" d="M304 24 C285.333 -1.33333 265.333 -10 244 -10 C206 -10 179.333 33 164 119 C150.667 33.6667 130 -10 90 -10 C40.6667 -10 15 45 15 137 C15 247.667 50.6667 301.667 112 307 L141 309 L141 356 C141 456 124.667 493 94 493 C76 493 58.3333 481.333 41 458 L26 500 C46 524 72 541 100 541 C134.667 541 158.333 506.333 169 429 C181 493 202.667 542 236 542 C290.848 542 315 445.078 315 301 L315 261 L185 261 C186.333 115.667 208.667 39 250 39 C266 39 281.333 46.3333 304 77 L304 24 Z M141 264 L120 262 C77.3333 258.667 56 217 56 137 C56 73 71 39 95 39 C125.667 39 141 104.333 141 207 L141 264 Z M275 309 C275 421 262 494 234 494 C207.333 494 188.667 427.667 186 309 L275 309 Z " />
<glyph glyph-name="ccedilla" unicode="&#xe7;" horiz-adv-x="360" d="M140 -195 C150 -199 160 -201 170 -201 C198 -201 215 -179.333 215 -142 C215 -102 195.667 -85 161 -81 L181 -9 C101 1.66667 53 94 53 262 C53 451.333 109 542 201 542 C233.667 542 262.333 533.667 287 517 L271 471 C249.667 488.333 229 494 205 494 C138.333 494 103 414 103 262 C103 120.667 134.333 39 201 39 C229 39 255.667 48 281 66 L281 15 C261 1.66667 237.667 -6.33333 211 -9 L199 -57 C235 -66.3333 253 -95.3333 253 -144 C253 -204 224 -240 176 -240 C164 -240 150.667 -238 140 -234 L140 -195 Z " />
<glyph glyph-name="egrave" unicode="&#xe8;" horiz-adv-x="360" >
<path fill="black" d="M282 25 C254 2.33333 224.667 -10 186 -10 C90 -10 37 92.3333 37 263 C37 429.848 83.7229 542 170 542 C252.745 542 295 435.844 295 300 L295 260 L86 260 C88.6667 112 124 39 188 39 C224 39 251.333 51.6667 282 77 L282 25 Z M248 307 C248 415.286 221.286 494 169 494 C122.333 494 92.3333 429.667 87 307 L248 307 Z " /><g transform="translate(-1,0)" ><path fill="black" d="M171 606 C146.507 644.1 102.816 711.305 84 757 L84 766 L138 766 C154 718 183 656 203 616 L203 606 L171 606 Z " /></g></glyph>
<glyph glyph-name="eacute" unicode="&#xe9;" horiz-adv-x="360" >
<path fill="black" d="M282 25 C254 2.33333 224.667 -10 186 -10 C90 -10 37 92.3333 37 263 C37 429.848 83.7229 542 170 542 C252.745 542 295 435.844 295 300 L295 260 L86 260 C88.6667 112 124 39 188 39 C224 39 251.333 51.6667 282 77 L282 25 Z M248 307 C248 415.286 221.286 494 169 494 C122.333 494 92.3333 429.667 87 307 L248 307 Z " /><g transform="translate(1,0)" ><path fill="black" d="M137 606 L137 616 C162.333 666.667 186 719.333 202 766 L256 766 L256 757 C236.745 712.989 197.07 645.64 168 606 L137 606 Z " /></g></glyph>
<glyph glyph-name="ecircumflex" unicode="&#xea;" horiz-adv-x="360" >
<path fill="black" d="M282 25 C254 2.33333 224.667 -10 186 -10 C90 -10 37 92.3333 37 263 C37 429.848 83.7229 542 170 542 C252.745 542 295 435.844 295 300 L295 260 L86 260 C88.6667 112 124 39 188 39 C224 39 251.333 51.6667 282 77 L282 25 Z M248 307 C248 415.286 221.286 494 169 494 C122.333 494 92.3333 429.667 87 307 L248 307 Z " /><g transform="translate(5,0)" ><path fill="black" d="M81 606 L81 615 C101.634 656.268 129.706 722.459 143 765 L187 765 C203.113 719.348 230.443 652.113 249 615 L249 606 L221 606 C202.333 636.667 183.667 678.667 165 716 C146.333 680 125.333 635.333 108 606 L81 606 Z " /></g></glyph>
<glyph glyph-name="edieresis" unicode="&#xeb;" horiz-adv-x="360" >
<g transform="translate(5,-11)" ><path fill="black" d="M107 630 C89.6667 630 78 648.667 78 678 C78 707.333 89.6667 725 107 725 C126.333 725 136 709.333 136 678 C136 647.333 125.667 630 107 630 Z M223 630 C205.667 630 194 648.667 194 678 C194 707.333 205.667 725 223 725 C242.333 725 252 709.333 252 678 C252 647.333 241.667 630 223 630 Z " /></g><path fill="black" d="M282 25 C254 2.33333 224.667 -10 186 -10 C90 -10 37 92.3333 37 263 C37 429.848 83.7229 542 170 542 C252.745 542 295 435.844 295 300 L295 260 L86 260 C88.6667 112 124 39 188 39 C224 39 251.333 51.6667 282 77 L282 25 Z M248 307 C248 415.286 221.286 494 169 494 C122.333 494 92.3333 429.667 87 307 L248 307 Z " /></glyph>
<glyph glyph-name="igrave" unicode="&#xec;" horiz-adv-x="330" >
<path fill="black" d="M49 40 L147 47 L147 484 L58 492 L58 532 L195 532 L195 47 L283 40 L283 0 L49 0 L49 40 Z " /><g transform="translate(-6,0)" ><path fill="black" d="M171 606 C146.507 644.1 102.816 711.305 84 757 L84 766 L138 766 C154 718 183 656 203 616 L203 606 L171 606 Z " /></g></glyph>
<glyph glyph-name="iacute" unicode="&#xed;" horiz-adv-x="330" >
<path fill="black" d="M49 40 L147 47 L147 484 L58 492 L58 532 L195 532 L195 47 L283 40 L283 0 L49 0 L49 40 Z " /><g transform="translate(-4,0)" ><path fill="black" d="M137 606 L137 616 C162.333 666.667 186 719.333 202 766 L256 766 L256 757 C236.745 712.989 197.07 645.64 168 606 L137 606 Z " /></g></glyph>
<glyph glyph-name="icircumflex" unicode="&#xee;" horiz-adv-x="330" >
<path fill="black" d="M49 40 L147 47 L147 484 L58 492 L58 532 L195 532 L195 47 L283 40 L283 0 L49 0 L49 40 Z " /><path fill="black" d="M81 606 L81 615 C101.634 656.268 129.706 722.459 143 765 L187 765 C203.113 719.348 230.443 652.113 249 615 L249 606 L221 606 C202.333 636.667 183.667 678.667 165 716 C146.333 680 125.333 635.333 108 606 L81 606 Z " /></glyph>
<glyph glyph-name="idieresis" unicode="&#xef;" horiz-adv-x="330" >
<g transform="translate(0,-11)" ><path fill="black" d="M107 630 C89.6667 630 78 648.667 78 678 C78 707.333 89.6667 725 107 725 C126.333 725 136 709.333 136 678 C136 647.333 125.667 630 107 630 Z M223 630 C205.667 630 194 648.667 194 678 C194 707.333 205.667 725 223 725 C242.333 725 252 709.333 252 678 C252 647.333 241.667 630 223 630 Z " /></g><path fill="black" d="M49 40 L147 47 L147 484 L58 492 L58 532 L195 532 L195 47 L283 40 L283 0 L49 0 L49 40 Z " /></glyph>
<glyph glyph-name="eth" unicode="&#xf0;" horiz-adv-x="360" d="M241 407 C230.333 495 203 572.333 167 635 L108 579 L88 615 L145 669 C130.333 691.667 114 709 98 725 L119 760 C140.333 743.333 160 723.667 178 701 L240 760 L260 723 L202 668 C267.333 564 298 420.667 298 270 C298 86 250.333 -10 165 -10 C80.6623 -10 32 92.0519 32 228 C32 380 84 469 160 469 C196 469 223 444.667 239 406 L241 407 Z M165 38 C222.333 38 249 117.333 249 244 C249 345.411 224.134 421 169 421 C110.333 421 80 351 80 227 C80 116.333 109 38 165 38 Z " />
<glyph glyph-name="ntilde" unicode="&#xf1;" horiz-adv-x="360" >
<path fill="black" d="M46 0 L46 532 L85 532 L91 440 L94 440 C108.667 498.667 140.333 542 187 542 C251 542 288 485.333 288 356 L288 0 L240 0 L240 351 C240 448.333 218.333 493 177 493 C125 493 94 426.333 94 293 L94 0 L46 0 Z " /><g transform="translate(6,0)" ><path fill="black" d="M68 617 C70.6667 681 86.3333 725 121 725 C155.667 725 178.333 661 205 661 C220.333 661 229.333 682.333 232 725 L262 725 C259.333 653 237.333 617 208 617 C172.889 617 148.444 681 124 681 C109.333 681 100 659.667 96 617 L68 617 Z " /></g></glyph>
<glyph glyph-name="ograve" unicode="&#xf2;" horiz-adv-x="360" >
<path fill="black" d="M165 -10 C77 -10 32 91 32 267 C32 443 78.3333 542 165 542 C251.277 542 298 434 298 266 C298 91.3333 255.667 -10 165 -10 Z M165 38 C222.333 38 248 117.667 248 267 C248 408.333 223.333 494 166 494 C110 494 82 415 82 267 C82 120.333 109 38 165 38 Z " /><g transform="translate(-6,0)" ><path fill="black" d="M171 606 C146.507 644.1 102.816 711.305 84 757 L84 766 L138 766 C154 718 183 656 203 616 L203 606 L171 606 Z " /></g></glyph>
<glyph glyph-name="oacute" unicode="&#xf3;" horiz-adv-x="360" >
<path fill="black" d="M165 -10 C77 -10 32 91 32 267 C32 443 78.3333 542 165 542 C251.277 542 298 434 298 266 C298 91.3333 255.667 -10 165 -10 Z M165 38 C222.333 38 248 117.667 248 267 C248 408.333 223.333 494 166 494 C110 494 82 415 82 267 C82 120.333 109 38 165 38 Z " /><g transform="translate(-4,0)" ><path fill="black" d="M137 606 L137 616 C162.333 666.667 186 719.333 202 766 L256 766 L256 757 C236.745 712.989 197.07 645.64 168 606 L137 606 Z " /></g></glyph>
<glyph glyph-name="ocircumflex" unicode="&#xf4;" horiz-adv-x="360" >
<path fill="black" d="M165 -10 C77 -10 32 91 32 267 C32 443 78.3333 542 165 542 C251.277 542 298 434 298 266 C298 91.3333 255.667 -10 165 -10 Z M165 38 C222.333 38 248 117.667 248 267 C248 408.333 223.333 494 166 494 C110 494 82 415 82 267 C82 120.333 109 38 165 38 Z " /><path fill="black" d="M81 606 L81 615 C101.634 656.268 129.706 722.459 143 765 L187 765 C203.113 719.348 230.443 652.113 249 615 L249 606 L221 606 C202.333 636.667 183.667 678.667 165 716 C146.333 680 125.333 635.333 108 606 L81 606 Z " /></glyph>
<glyph glyph-name="otilde" unicode="&#xf5;" horiz-adv-x="360" >
<path fill="black" d="M165 -10 C77 -10 32 91 32 267 C32 443 78.3333 542 165 542 C251.277 542 298 434 298 266 C298 91.3333 255.667 -10 165 -10 Z M165 38 C222.333 38 248 117.667 248 267 C248 408.333 223.333 494 166 494 C110 494 82 415 82 267 C82 120.333 109 38 165 38 Z " /><path fill="black" d="M68 617 C70.6667 681 86.3333 725 121 725 C155.667 725 178.333 661 205 661 C220.333 661 229.333 682.333 232 725 L262 725 C259.333 653 237.333 617 208 617 C172.889 617 148.444 681 124 681 C109.333 681 100 659.667 96 617 L68 617 Z " /></glyph>
<glyph glyph-name="odieresis" unicode="&#xf6;" horiz-adv-x="360" >
<g transform="translate(0,-11)" ><path fill="black" d="M107 630 C89.6667 630 78 648.667 78 678 C78 707.333 89.6667 725 107 725 C126.333 725 136 709.333 136 678 C136 647.333 125.667 630 107 630 Z M223 630 C205.667 630 194 648.667 194 678 C194 707.333 205.667 725 223 725 C242.333 725 252 709.333 252 678 C252 647.333 241.667 630 223 630 Z " /></g><path fill="black" d="M165 -10 C77 -10 32 91 32 267 C32 443 78.3333 542 165 542 C251.277 542 298 434 298 266 C298 91.3333 255.667 -10 165 -10 Z M165 38 C222.333 38 248 117.667 248 267 C248 408.333 223.333 494 166 494 C110 494 82 415 82 267 C82 120.333 109 38 165 38 Z " /></glyph>
<glyph glyph-name="divide" unicode="&#xf7;" horiz-adv-x="360" d="M40 377 L289 377 L289 330 L40 330 L40 377 Z M166 127 C148.667 127 137 145.667 137 175 C137 204.333 148.667 222 166 222 C185.333 222 195 206.333 195 175 C195 144.333 184.667 127 166 127 Z M166 483 C148.667 483 137 501.667 137 531 C137 560.333 148.667 578 166 578 C185.333 578 195 562.333 195 531 C195 500.333 184.667 483 166 483 Z " />
<glyph glyph-name="oslash" unicode="&#xf8;" horiz-adv-x="360" d="M71 59 C47.6667 107.667 36 177 36 267 C36 443 82.3333 542 169 542 C198.333 542 223.333 529.667 244 505 L271 573 L300 551 L268 468 C290.667 418.667 302 351.333 302 266 C302 91.3333 259.667 -10 169 -10 C139 -10 114.333 1.33333 95 24 L65 -52 L37 -29 L71 59 Z M224 453 C210.667 480.333 192.667 494 170 494 C114 494 86 415 86 267 C86 210.333 90 164 98 128 L224 453 Z M115 77 C129 51 147 38 169 38 C226.333 38 252 117.667 252 267 C252 320.333 249 364 241 400 L115 77 Z " />
<glyph glyph-name="ugrave" unicode="&#xf9;" horiz-adv-x="360" >
<path fill="black" d="M43 532 L91 532 L91 184 C91 78.6667 114 38 158 38 C208.667 38 237 106 237 242 L237 532 L284 532 L284 0 L245 0 L239 93 L235 93 C220.333 33 189.667 -10 143 -10 C76.3333 -10 43 51 43 173 L43 532 Z " /><g transform="translate(-6,0)" ><path fill="black" d="M171 606 C146.507 644.1 102.816 711.305 84 757 L84 766 L138 766 C154 718 183 656 203 616 L203 606 L171 606 Z " /></g></glyph>
<glyph glyph-name="uacute" unicode="&#xfa;" horiz-adv-x="360" >
<path fill="black" d="M43 532 L91 532 L91 184 C91 78.6667 114 38 158 38 C208.667 38 237 106 237 242 L237 532 L284 532 L284 0 L245 0 L239 93 L235 93 C220.333 33 189.667 -10 143 -10 C76.3333 -10 43 51 43 173 L43 532 Z " /><g transform="translate(-4,0)" ><path fill="black" d="M137 606 L137 616 C162.333 666.667 186 719.333 202 766 L256 766 L256 757 C236.745 712.989 197.07 645.64 168 606 L137 606 Z " /></g></glyph>
<glyph glyph-name="ucircumflex" unicode="&#xfb;" horiz-adv-x="360" >
<path fill="black" d="M43 532 L91 532 L91 184 C91 78.6667 114 38 158 38 C208.667 38 237 106 237 242 L237 532 L284 532 L284 0 L245 0 L239 93 L235 93 C220.333 33 189.667 -10 143 -10 C76.3333 -10 43 51 43 173 L43 532 Z " /><path fill="black" d="M81 606 L81 615 C101.634 656.268 129.706 722.459 143 765 L187 765 C203.113 719.348 230.443 652.113 249 615 L249 606 L221 606 C202.333 636.667 183.667 678.667 165 716 C146.333 680 125.333 635.333 108 606 L81 606 Z " /></glyph>
<glyph glyph-name="udieresis" unicode="&#xfc;" horiz-adv-x="360" >
<g transform="translate(0,-11)" ><path fill="black" d="M107 630 C89.6667 630 78 648.667 78 678 C78 707.333 89.6667 725 107 725 C126.333 725 136 709.333 136 678 C136 647.333 125.667 630 107 630 Z M223 630 C205.667 630 194 648.667 194 678 C194 707.333 205.667 725 223 725 C242.333 725 252 709.333 252 678 C252 647.333 241.667 630 223 630 Z " /></g><path fill="black" d="M43 532 L91 532 L91 184 C91 78.6667 114 38 158 38 C208.667 38 237 106 237 242 L237 532 L284 532 L284 0 L245 0 L239 93 L235 93 C220.333 33 189.667 -10 143 -10 C76.3333 -10 43 51 43 173 L43 532 Z " /></glyph>
<glyph glyph-name="yacute" unicode="&#xfd;" horiz-adv-x="360" >
<path fill="black" d="M35 -188 C45.6667 -192 55.3333 -196 66 -196 C95.3333 -196 116.333 -172 131 -96 L149 2 L31 532 L82 532 L148 190 C158.667 131.333 164.667 96.3333 170 63 L171 63 C176.333 101.667 183 147.333 191 190 L250 532 L302 532 L177 -91 C158.333 -188.333 126.667 -244 72 -244 C60 -244 47.6667 -241.333 35 -236 L35 -188 Z " /><g transform="translate(-4,0)" ><path fill="black" d="M137 606 L137 616 C162.333 666.667 186 719.333 202 766 L256 766 L256 757 C236.745 712.989 197.07 645.64 168 606 L137 606 Z " /></g></glyph>
<glyph glyph-name="thorn" unicode="&#xfe;" horiz-adv-x="360" d="M46 -240 L46 737 L93 737 L93 536 C93 498.667 92.6667 467.667 90 433 L93 433 C108.707 490.592 136.359 542 185 542 C258.333 542 298 451.667 298 269 C298 83.6667 251 -10 183 -10 C137.667 -10 110.333 38 93 90 L90 90 C92 62 93 32 93 0 L93 -240 L46 -240 Z M93 255 C93 116.333 121.333 39 172 39 C218.667 39 248 112.667 248 270 C248 418.667 222.667 493 172 493 C118.667 493 93 413.333 93 284 L93 255 Z " />
<glyph glyph-name="ydieresis" unicode="&#xff;" horiz-adv-x="360" >
<g transform="translate(0,-11)" ><path fill="black" d="M107 630 C89.6667 630 78 648.667 78 678 C78 707.333 89.6667 725 107 725 C126.333 725 136 709.333 136 678 C136 647.333 125.667 630 107 630 Z M223 630 C205.667 630 194 648.667 194 678 C194 707.333 205.667 725 223 725 C242.333 725 252 709.333 252 678 C252 647.333 241.667 630 223 630 Z " /></g><path fill="black" d="M35 -188 C45.6667 -192 55.3333 -196 66 -196 C95.3333 -196 116.333 -172 131 -96 L149 2 L31 532 L82 532 L148 190 C158.667 131.333 164.667 96.3333 170 63 L171 63 C176.333 101.667 183 147.333 191 190 L250 532 L302 532 L177 -91 C158.333 -188.333 126.667 -244 72 -244 C60 -244 47.6667 -241.333 35 -236 L35 -188 Z " /></glyph>
<glyph glyph-name="Amacron" unicode="&#x100;" horiz-adv-x="360" >
<path fill="black" d="M132 714 L197 714 L315 0 L266 0 L228 251 L101 251 L64 0 L15 0 L132 714 Z M220 301 L179 570 C175 602 169.333 637.333 164 668 C160 637.333 154.333 603.333 149 570 L109 301 L220 301 Z " /><g transform="translate(0,188)" ><path fill="black" d="M85 668 L242 668 L242 625 L85 625 L85 668 Z " /></g></glyph>
<glyph glyph-name="amacron" unicode="&#x101;" horiz-adv-x="360" >
<path fill="black" d="M235 87 L234 87 C215.333 32.3333 187 -10 139 -10 C80.3333 -10 45 45.6667 45 139 C45 248.333 91.6667 299 177 307 L233 312 L233 353 C233 457 208.667 493 166 493 C138 493 110.667 478.667 84 456 L66 500 C98 526.667 130.333 542 169 542 C242.333 542 281 487.667 281 361 L281 0 L244 0 L235 87 Z M233 270 L187 265 C125.667 258.333 93 221.333 93 140 C93 72 117.333 38 152 38 C200 38 233 103.667 233 217 L233 270 Z " /><g transform="translate(8,-2)" ><path fill="black" d="M85 668 L242 668 L242 625 L85 625 L85 668 Z " /></g></glyph>
<glyph glyph-name="Abreve" unicode="&#x102;" horiz-adv-x="360" >
<path fill="black" d="M132 714 L197 714 L315 0 L266 0 L228 251 L101 251 L64 0 L15 0 L132 714 Z M220 301 L179 570 C175 602 169.333 637.333 164 668 C160 637.333 154.333 603.333 149 570 L109 301 L220 301 Z " /><g transform="translate(-1,190)" ><path fill="black" d="M117 728 C119.667 678.667 135.667 651 165 651 C194.333 651 211.333 678.667 214 728 L244 728 C242.667 653.333 211.667 610 165 610 C118.333 610 88.6667 649.333 86 728 L117 728 Z " /></g></glyph>
<glyph glyph-name="abreve" unicode="&#x103;" horiz-adv-x="360" >
<path fill="black" d="M235 87 L234 87 C215.333 32.3333 187 -10 139 -10 C80.3333 -10 45 45.6667 45 139 C45 248.333 91.6667 299 177 307 L233 312 L233 353 C233 457 208.667 493 166 493 C138 493 110.667 478.667 84 456 L66 500 C98 526.667 130.333 542 169 542 C242.333 542 281 487.667 281 361 L281 0 L244 0 L235 87 Z M233 270 L187 265 C125.667 258.333 93 221.333 93 140 C93 72 117.333 38 152 38 C200 38 233 103.667 233 217 L233 270 Z " /><g transform="translate(7,0)" ><path fill="black" d="M117 728 C119.667 678.667 135.667 651 165 651 C194.333 651 211.333 678.667 214 728 L244 728 C242.667 653.333 211.667 610 165 610 C118.333 610 88.6667 649.333 86 728 L117 728 Z " /></g></glyph>
<glyph glyph-name="Aogonek" unicode="&#x104;" horiz-adv-x="360" d="M132 714 L197 714 L314 7 L331 0 C300.333 -44 287 -81 287 -125 C287 -161.667 297.333 -180 318 -180 C327.333 -180 334.667 -176.667 340 -174 L340 -213 C332 -217.667 321.667 -220 309 -220 C269 -220 249 -192 249 -136 C249 -87.3333 264.333 -42 295 0 L266 0 L228 251 L101 251 L64 0 L15 0 L132 714 Z M220 301 L179 570 C175 602 169.333 637.333 164 668 C160 637.333 154.333 603.333 149 570 L109 301 L220 301 Z " />
<glyph glyph-name="aogonek" unicode="&#x105;" horiz-adv-x="360" d="M305 -213 C297 -217.667 286.667 -220 274 -220 C234 -220 214 -192 214 -136 C214 -87.3333 229.333 -42 260 0 L248 0 L239 87 L238 87 C219.333 32.3333 191 -10 143 -10 C84.3333 -10 49 45.6667 49 139 C49 248.333 95.6667 299 181 307 L237 312 L237 353 C237 457 212.667 493 170 493 C142 493 114.667 478.667 88 456 L70 500 C102 526.667 134.333 542 173 542 C246.333 542 285 487.667 285 361 L285 4 L296 0 C265.333 -44 252 -81 252 -125 C252 -161.667 262.333 -180 283 -180 C292.333 -180 299.667 -176.667 305 -174 L305 -213 Z M237 270 L191 265 C129.667 258.333 97 221.333 97 140 C97 72 121.333 38 156 38 C204 38 237 103.667 237 217 L237 270 Z " />
<glyph glyph-name="Cacute" unicode="&#x106;" horiz-adv-x="360" >
<path fill="black" d="M298 16 C271.333 0 241.667 -10 203 -10 C93.8225 -10 33 134 33 358 C33 562.182 92.3377 725 208 725 C246.667 725 278.333 712.667 309 690 L291 644 C265.667 666.667 238.667 675 212 675 C125.126 675 82 532.381 82 358 C82 166.156 126.468 40 210 40 C244.667 40 271.333 52.3333 298 67 L298 16 Z " /><g transform="translate(33,182)" ><path fill="black" d="M137 606 L137 616 C162.333 666.667 186 719.333 202 766 L256 766 L256 757 C236.745 712.989 197.07 645.64 168 606 L137 606 Z " /></g></glyph>
<glyph glyph-name="cacute" unicode="&#x107;" horiz-adv-x="360" >
<path fill="black" d="M281 15 C258.333 0.333333 227.667 -10 197 -10 C106.333 -10 53 83.3333 53 262 C53 451.333 109 542 201 542 C233.667 542 262.333 533.667 287 517 L271 471 C249.667 488.333 229 494 205 494 C138.333 494 103 414 103 262 C103 120.667 134.333 39 201 39 C229 39 255.667 48 281 66 L281 15 Z " /><g transform="translate(20,0)" ><path fill="black" d="M137 606 L137 616 C162.333 666.667 186 719.333 202 766 L256 766 L256 757 C236.745 712.989 197.07 645.64 168 606 L137 606 Z " /></g></glyph>
<glyph glyph-name="Ccircumflex" unicode="&#x108;" horiz-adv-x="360" >
<path fill="black" d="M298 16 C271.333 0 241.667 -10 203 -10 C93.8225 -10 33 134 33 358 C33 562.182 92.3377 725 208 725 C246.667 725 278.333 712.667 309 690 L291 644 C265.667 666.667 238.667 675 212 675 C125.126 675 82 532.381 82 358 C82 166.156 126.468 40 210 40 C244.667 40 271.333 52.3333 298 67 L298 16 Z " /><g transform="translate(37,182)" ><path fill="black" d="M81 606 L81 615 C101.634 656.268 129.706 722.459 143 765 L187 765 C203.113 719.348 230.443 652.113 249 615 L249 606 L221 606 C202.333 636.667 183.667 678.667 165 716 C146.333 680 125.333 635.333 108 606 L81 606 Z " /></g></glyph>
<glyph glyph-name="ccircumflex" unicode="&#x109;" horiz-adv-x="360" >
<path fill="black" d="M281 15 C258.333 0.333333 227.667 -10 197 -10 C106.333 -10 53 83.3333 53 262 C53 451.333 109 542 201 542 C233.667 542 262.333 533.667 287 517 L271 471 C249.667 488.333 229 494 205 494 C138.333 494 103 414 103 262 C103 120.667 134.333 39 201 39 C229 39 255.667 48 281 66 L281 15 Z " /><g transform="translate(24,0)" ><path fill="black" d="M81 606 L81 615 C101.634 656.268 129.706 722.459 143 765 L187 765 C203.113 719.348 230.443 652.113 249 615 L249 606 L221 606 C202.333 636.667 183.667 678.667 165 716 C146.333 680 125.333 635.333 108 606 L81 606 Z " /></g></glyph>
<glyph glyph-name="Cdotaccent" unicode="&#x10a;" horiz-adv-x="360" >
<path fill="black" d="M298 16 C271.333 0 241.667 -10 203 -10 C93.8225 -10 33 134 33 358 C33 562.182 92.3377 725 208 725 C246.667 725 278.333 712.667 309 690 L291 644 C265.667 666.667 238.667 675 212 675 C125.126 675 82 532.381 82 358 C82 166.156 126.468 40 210 40 C244.667 40 271.333 52.3333 298 67 L298 16 Z " /><g transform="translate(37,182)" ><path fill="black" d="M165 647 C142.333 647 131 666 131 698 C131 730 142.333 750 165 750 C187.667 750 198 730 198 698 C198 667.333 187.667 647 165 647 Z " /></g></glyph>
<glyph glyph-name="cdotaccent" unicode="&#x10b;" horiz-adv-x="360" >
<path fill="black" d="M281 15 C258.333 0.333333 227.667 -10 197 -10 C106.333 -10 53 83.3333 53 262 C53 451.333 109 542 201 542 C233.667 542 262.333 533.667 287 517 L271 471 C249.667 488.333 229 494 205 494 C138.333 494 103 414 103 262 C103 120.667 134.333 39 201 39 C229 39 255.667 48 281 66 L281 15 Z " /><g transform="translate(24,0)" ><path fill="black" d="M165 647 C142.333 647 131 666 131 698 C131 730 142.333 750 165 750 C187.667 750 198 730 198 698 C198 667.333 187.667 647 165 647 Z " /></g></glyph>
<glyph glyph-name="Ccaron" unicode="&#x10c;" horiz-adv-x="360" >
<path fill="black" d="M298 16 C271.333 0 241.667 -10 203 -10 C93.8225 -10 33 134 33 358 C33 562.182 92.3377 725 208 725 C246.667 725 278.333 712.667 309 690 L291 644 C265.667 666.667 238.667 675 212 675 C125.126 675 82 532.381 82 358 C82 166.156 126.468 40 210 40 C244.667 40 271.333 52.3333 298 67 L298 16 Z " /><g transform="translate(37,182)" ><path fill="black" d="M143 606 C128.333 651.333 101 714.667 81 756 L81 765 L109 765 C126.333 735.667 146.333 692.333 165 655 C183.667 695 199.667 726.333 221 765 L249 765 L249 756 C229 714.667 201.667 651.333 187 606 L143 606 Z " /></g></glyph>
<glyph glyph-name="ccaron" unicode="&#x10d;" horiz-adv-x="360" >
<path fill="black" d="M281 15 C258.333 0.333333 227.667 -10 197 -10 C106.333 -10 53 83.3333 53 262 C53 451.333 109 542 201 542 C233.667 542 262.333 533.667 287 517 L271 471 C249.667 488.333 229 494 205 494 C138.333 494 103 414 103 262 C103 120.667 134.333 39 201 39 C229 39 255.667 48 281 66 L281 15 Z " /><g transform="translate(24,0)" ><path fill="black" d="M143 606 C128.333 651.333 101 714.667 81 756 L81 765 L109 765 C126.333 735.667 146.333 692.333 165 655 C183.667 695 199.667 726.333 221 765 L249 765 L249 756 C229 714.667 201.667 651.333 187 606 L143 606 Z " /></g></glyph>
<glyph glyph-name="Dcaron" unicode="&#x10e;" horiz-adv-x="360" >
<path fill="black" d="M36 0 L36 714 L145 714 C250.333 714 305 596 305 364 C305 122.667 249.667 0 139 0 L36 0 Z M84 51 L135 51 C219 51 255 156.333 255 363 C255 565.667 224 663 136 663 L84 663 L84 51 Z " /><g transform="translate(-9,182)" ><path fill="black" d="M143 606 C128.333 651.333 101 714.667 81 756 L81 765 L109 765 C126.333 735.667 146.333 692.333 165 655 C183.667 695 199.667 726.333 221 765 L249 765 L249 756 C229 714.667 201.667 651.333 187 606 L143 606 Z " /></g></glyph>
<glyph glyph-name="dcaron" unicode="&#x10f;" horiz-adv-x="360" d="M217 91 L215 91 C200.333 35 175 -10 131 -10 C63 -10 26 84 26 260 C26 445.333 66 542 134 542 C176.667 542 200.333 496 215 444 L217 444 C215.667 476 214 503.667 214 533 L214 760 L262 760 L262 0 L224 0 L217 91 Z M215 279 C215 412.333 195 494 147 494 C98.3333 494 74 415.333 74 258 C74 112.667 94.6667 39 144 39 C194.667 39 215 118.667 215 244 L215 279 Z M291 599 L291 608 C296.37 634.851 307.246 724.204 310 760 L359 760 L359 753 C350.943 710.027 335.119 639.298 319 599 L291 599 Z " />
<glyph glyph-name="Dcroat" unicode="&#x110;" horiz-adv-x="360" >
<path fill="black" d="M46 342 L4 342 L4 391 L46 391 L46 714 L155 714 C260.333 714 315 596 315 364 C315 122.667 259.667 0 149 0 L46 0 L46 342 Z M145 51 C229 51 265 156.333 265 363 C265 565.667 234 663 146 663 L94 663 L94 391 L178 391 L178 342 L94 342 L94 51 L145 51 Z " /></glyph>
<glyph glyph-name="dcroat" unicode="&#x111;" horiz-adv-x="360" d="M240 91 L238 91 C223.333 37.6667 195.333 -10 146 -10 C72.6667 -10 32 82 32 258 C32 443.333 76 540 148 540 C194.667 540 222.333 494.333 237 441 L240 441 C238.667 471.667 237 504.333 237 531 L237 619 L130 619 L130 664 L237 664 L237 760 L284 760 L284 664 L326 664 L326 619 L284 619 L284 0 L246 0 L240 91 Z M159 39 C215 39 238 116.667 238 242 L238 277 C238 411.667 218 491 162 491 C106 491 81 411.333 81 254 C81 112.667 103 39 159 39 Z " />
<glyph glyph-name="Emacron" unicode="&#x112;" horiz-adv-x="360" >
<path fill="black" d="M282 51 L282 0 L51 0 L51 714 L282 714 L282 663 L99 663 L99 399 L271 399 L271 348 L99 348 L99 51 L282 51 Z " /><g transform="translate(1,180)" ><path fill="black" d="M85 668 L242 668 L242 625 L85 625 L85 668 Z " /></g></glyph>
<glyph glyph-name="emacron" unicode="&#x113;" horiz-adv-x="360" >
<path fill="black" d="M282 25 C254 2.33333 224.667 -10 186 -10 C90 -10 37 92.3333 37 263 C37 429.848 83.7229 542 170 542 C252.745 542 295 435.844 295 300 L295 260 L86 260 C88.6667 112 124 39 188 39 C224 39 251.333 51.6667 282 77 L282 25 Z M248 307 C248 415.286 221.286 494 169 494 C122.333 494 92.3333 429.667 87 307 L248 307 Z " /><g transform="translate(6,-2)" ><path fill="black" d="M85 668 L242 668 L242 625 L85 625 L85 668 Z " /></g></glyph>
<glyph glyph-name="Ebreve" unicode="&#x114;" horiz-adv-x="360" >
<path fill="black" d="M282 51 L282 0 L51 0 L51 714 L282 714 L282 663 L99 663 L99 399 L271 399 L271 348 L99 348 L99 51 L282 51 Z " /><g transform="translate(0,182)" ><path fill="black" d="M117 728 C119.667 678.667 135.667 651 165 651 C194.333 651 211.333 678.667 214 728 L244 728 C242.667 653.333 211.667 610 165 610 C118.333 610 88.6667 649.333 86 728 L117 728 Z " /></g></glyph>
<glyph glyph-name="ebreve" unicode="&#x115;" horiz-adv-x="360" >
<path fill="black" d="M282 25 C254 2.33333 224.667 -10 186 -10 C90 -10 37 92.3333 37 263 C37 429.848 83.7229 542 170 542 C252.745 542 295 435.844 295 300 L295 260 L86 260 C88.6667 112 124 39 188 39 C224 39 251.333 51.6667 282 77 L282 25 Z M248 307 C248 415.286 221.286 494 169 494 C122.333 494 92.3333 429.667 87 307 L248 307 Z " /><g transform="translate(5,0)" ><path fill="black" d="M117 728 C119.667 678.667 135.667 651 165 651 C194.333 651 211.333 678.667 214 728 L244 728 C242.667 653.333 211.667 610 165 610 C118.333 610 88.6667 649.333 86 728 L117 728 Z " /></g></glyph>
<glyph glyph-name="Edotaccent" unicode="&#x116;" horiz-adv-x="360" >
<path fill="black" d="M282 51 L282 0 L51 0 L51 714 L282 714 L282 663 L99 663 L99 399 L271 399 L271 348 L99 348 L99 51 L282 51 Z " /><g transform="translate(0,182)" ><path fill="black" d="M165 647 C142.333 647 131 666 131 698 C131 730 142.333 750 165 750 C187.667 750 198 730 198 698 C198 667.333 187.667 647 165 647 Z " /></g></glyph>
<glyph glyph-name="edotaccent" unicode="&#x117;" horiz-adv-x="360" >
<path fill="black" d="M282 25 C254 2.33333 224.667 -10 186 -10 C90 -10 37 92.3333 37 263 C37 429.848 83.7229 542 170 542 C252.745 542 295 435.844 295 300 L295 260 L86 260 C88.6667 112 124 39 188 39 C224 39 251.333 51.6667 282 77 L282 25 Z M248 307 C248 415.286 221.286 494 169 494 C122.333 494 92.3333 429.667 87 307 L248 307 Z " /><g transform="translate(5,0)" ><path fill="black" d="M165 647 C142.333 647 131 666 131 698 C131 730 142.333 750 165 750 C187.667 750 198 730 198 698 C198 667.333 187.667 647 165 647 Z " /></g></glyph>
<glyph glyph-name="Eogonek" unicode="&#x118;" horiz-adv-x="360" d="M55 714 L286 714 L286 663 L103 663 L103 399 L275 399 L275 348 L103 348 L103 51 L286 51 L286 2 L292 0 C261.333 -44 248 -81 248 -125 C248 -161.667 258.333 -180 279 -180 C288.333 -180 295.667 -176.667 301 -174 L301 -213 C293 -217.667 282.667 -220 270 -220 C230 -220 210 -192 210 -136 C210 -87.3333 225.333 -42 256 0 L55 0 L55 714 Z " />
<glyph glyph-name="eogonek" unicode="&#x119;" horiz-adv-x="360" d="M278 -212 C269.333 -217.333 258.333 -220 245 -220 C203.667 -220 182 -185.333 182 -124 C182 -77.3333 196.333 -40.3333 219 -7 C209 -9 198.333 -10 187 -10 C91 -10 38 92.3333 38 263 C38 429.848 84.7229 542 171 542 C253.745 542 296 435.844 296 300 L296 260 L87 260 C89.6667 112 125 39 189 39 C225 39 252.333 51.6667 283 77 L283 25 C277.667 21 274 18 272 16 C241.333 -21.3333 221 -68.3333 221 -119 C221 -156.333 231.333 -179 254 -179 C262 -179 271.333 -175.667 278 -173 L278 -212 Z M249 307 C249 415.286 222.286 494 170 494 C123.333 494 93.3333 429.667 88 307 L249 307 Z " />
<glyph glyph-name="Ecaron" unicode="&#x11a;" horiz-adv-x="360" >
<path fill="black" d="M282 51 L282 0 L51 0 L51 714 L282 714 L282 663 L99 663 L99 399 L271 399 L271 348 L99 348 L99 51 L282 51 Z " /><g transform="translate(0,182)" ><path fill="black" d="M143 606 C128.333 651.333 101 714.667 81 756 L81 765 L109 765 C126.333 735.667 146.333 692.333 165 655 C183.667 695 199.667 726.333 221 765 L249 765 L249 756 C229 714.667 201.667 651.333 187 606 L143 606 Z " /></g></glyph>
<glyph glyph-name="ecaron" unicode="&#x11b;" horiz-adv-x="360" >
<path fill="black" d="M282 25 C254 2.33333 224.667 -10 186 -10 C90 -10 37 92.3333 37 263 C37 429.848 83.7229 542 170 542 C252.745 542 295 435.844 295 300 L295 260 L86 260 C88.6667 112 124 39 188 39 C224 39 251.333 51.6667 282 77 L282 25 Z M248 307 C248 415.286 221.286 494 169 494 C122.333 494 92.3333 429.667 87 307 L248 307 Z " /><g transform="translate(5,0)" ><path fill="black" d="M143 606 C128.333 651.333 101 714.667 81 756 L81 765 L109 765 C126.333 735.667 146.333 692.333 165 655 C183.667 695 199.667 726.333 221 765 L249 765 L249 756 C229 714.667 201.667 651.333 187 606 L143 606 Z " /></g></glyph>
<glyph glyph-name="Gcircumflex" unicode="&#x11c;" horiz-adv-x="360" >
<path fill="black" d="M247 313 L178 313 L178 364 L293 364 L293 25 C261.667 1.66667 227.667 -10 191 -10 C73.6147 -10 25 143.996 25 359 C25 573.355 79.1558 725 191 725 C227 725 262 712.667 290 682 L273 637 C246.333 666.333 222 675 194 675 C110.39 675 73 551.056 73 360 C73 174.926 108.134 40 189 40 C213 40 232.333 48.3333 247 59 L247 313 Z " /><g transform="translate(14,182)" ><path fill="black" d="M81 606 L81 615 C101.634 656.268 129.706 722.459 143 765 L187 765 C203.113 719.348 230.443 652.113 249 615 L249 606 L221 606 C202.333 636.667 183.667 678.667 165 716 C146.333 680 125.333 635.333 108 606 L81 606 Z " /></g></glyph>
<glyph glyph-name="gcircumflex" unicode="&#x11d;" horiz-adv-x="360" >
<path fill="black" d="M50 -155 C80.6667 -179 114 -194 146 -194 C208.667 -194 237 -132.667 237 -26 L237 10 C237 36.6667 236.333 66.3333 239 93 L236 93 C220 29 189.333 -9 148 -9 C74.6667 -9 32 83.3333 32 262 C32 435.333 74.3333 542 149 542 C191.667 542 218.333 506.667 237 452 L240 452 L245 532 L284 532 L284 -22 C284 -166 241.667 -243 147 -243 C111.667 -243 79.3333 -232 50 -210 L50 -155 Z M238 290 C238 416.667 217.333 494 164 494 C106.667 494 82 407.333 82 262 C82 113.333 108.667 39 162 39 C218 39 238 126.329 238 240 L238 290 Z " /><path fill="black" d="M81 606 L81 615 C101.634 656.268 129.706 722.459 143 765 L187 765 C203.113 719.348 230.443 652.113 249 615 L249 606 L221 606 C202.333 636.667 183.667 678.667 165 716 C146.333 680 125.333 635.333 108 606 L81 606 Z " /></glyph>
<glyph glyph-name="Gbreve" unicode="&#x11e;" horiz-adv-x="360" >
<path fill="black" d="M247 313 L178 313 L178 364 L293 364 L293 25 C261.667 1.66667 227.667 -10 191 -10 C73.6147 -10 25 143.996 25 359 C25 573.355 79.1558 725 191 725 C227 725 262 712.667 290 682 L273 637 C246.333 666.333 222 675 194 675 C110.39 675 73 551.056 73 360 C73 174.926 108.134 40 189 40 C213 40 232.333 48.3333 247 59 L247 313 Z " /><g transform="translate(14,182)" ><path fill="black" d="M117 728 C119.667 678.667 135.667 651 165 651 C194.333 651 211.333 678.667 214 728 L244 728 C242.667 653.333 211.667 610 165 610 C118.333 610 88.6667 649.333 86 728 L117 728 Z " /></g></glyph>
<glyph glyph-name="gbreve" unicode="&#x11f;" horiz-adv-x="360" >
<path fill="black" d="M50 -155 C80.6667 -179 114 -194 146 -194 C208.667 -194 237 -132.667 237 -26 L237 10 C237 36.6667 236.333 66.3333 239 93 L236 93 C220 29 189.333 -9 148 -9 C74.6667 -9 32 83.3333 32 262 C32 435.333 74.3333 542 149 542 C191.667 542 218.333 506.667 237 452 L240 452 L245 532 L284 532 L284 -22 C284 -166 241.667 -243 147 -243 C111.667 -243 79.3333 -232 50 -210 L50 -155 Z M238 290 C238 416.667 217.333 494 164 494 C106.667 494 82 407.333 82 262 C82 113.333 108.667 39 162 39 C218 39 238 126.329 238 240 L238 290 Z " /><path fill="black" d="M117 728 C119.667 678.667 135.667 651 165 651 C194.333 651 211.333 678.667 214 728 L244 728 C242.667 653.333 211.667 610 165 610 C118.333 610 88.6667 649.333 86 728 L117 728 Z " /></glyph>
<glyph glyph-name="Gdotaccent" unicode="&#x120;" horiz-adv-x="360" >
<path fill="black" d="M247 313 L178 313 L178 364 L293 364 L293 25 C261.667 1.66667 227.667 -10 191 -10 C73.6147 -10 25 143.996 25 359 C25 573.355 79.1558 725 191 725 C227 725 262 712.667 290 682 L273 637 C246.333 666.333 222 675 194 675 C110.39 675 73 551.056 73 360 C73 174.926 108.134 40 189 40 C213 40 232.333 48.3333 247 59 L247 313 Z " /><g transform="translate(14,182)" ><path fill="black" d="M165 647 C142.333 647 131 666 131 698 C131 730 142.333 750 165 750 C187.667 750 198 730 198 698 C198 667.333 187.667 647 165 647 Z " /></g></glyph>
<glyph glyph-name="gdotaccent" unicode="&#x121;" horiz-adv-x="360" >
<path fill="black" d="M50 -155 C80.6667 -179 114 -194 146 -194 C208.667 -194 237 -132.667 237 -26 L237 10 C237 36.6667 236.333 66.3333 239 93 L236 93 C220 29 189.333 -9 148 -9 C74.6667 -9 32 83.3333 32 262 C32 435.333 74.3333 542 149 542 C191.667 542 218.333 506.667 237 452 L240 452 L245 532 L284 532 L284 -22 C284 -166 241.667 -243 147 -243 C111.667 -243 79.3333 -232 50 -210 L50 -155 Z M238 290 C238 416.667 217.333 494 164 494 C106.667 494 82 407.333 82 262 C82 113.333 108.667 39 162 39 C218 39 238 126.329 238 240 L238 290 Z " /><path fill="black" d="M165 647 C142.333 647 131 666 131 698 C131 730 142.333 750 165 750 C187.667 750 198 730 198 698 C198 667.333 187.667 647 165 647 Z " /></glyph>
<glyph glyph-name="uni0122" unicode="&#x122;" horiz-adv-x="360" >
<path fill="black" d="M247 313 L178 313 L178 364 L293 364 L293 25 C261.667 1.66667 227.667 -10 191 -10 C73.6147 -10 25 143.996 25 359 C25 573.355 79.1558 725 191 725 C227 725 262 712.667 290 682 L273 637 C246.333 666.333 222 675 194 675 C110.39 675 73 551.056 73 360 C73 174.926 108.134 40 189 40 C213 40 232.333 48.3333 247 59 L247 313 Z " /><g transform="translate(545,0)" ><path fill="black" d="M-407 -221 L-407 -211 C-398.819 -178.275 -385.588 -102.409 -383 -61 L-336 -61 L-336 -69 C-342.667 -115.667 -359.333 -177 -378 -221 L-407 -221 Z " /></g></glyph>
<glyph glyph-name="uni0123" unicode="&#x123;" horiz-adv-x="360" d="M54 -155 C84.6667 -179 118 -194 150 -194 C212.667 -194 241 -132.667 241 -26 L241 10 C241 36.6667 240.333 66.3333 243 93 L240 93 C224 29 193.333 -9 152 -9 C78.6667 -9 36 83.3333 36 262 C36 435.333 78.3333 542 153 542 C195.667 542 222.333 506.667 241 452 L244 452 L249 532 L288 532 L288 -22 C288 -166 245.667 -243 151 -243 C115.667 -243 83.3333 -232 54 -210 L54 -155 Z M242 290 C242 416.667 221.333 494 168 494 C110.667 494 86 407.333 86 262 C86 113.333 112.667 39 166 39 C222 39 242 126.329 242 240 L242 290 Z M137 606 L137 614 C143.667 659.333 160.667 722 182 766 L210 766 L210 756 C201.864 720.743 188.696 646.444 186 606 L137 606 Z " />
<glyph glyph-name="Hcircumflex" unicode="&#x124;" horiz-adv-x="360" >
<path fill="black" d="M36 0 L36 714 L84 714 L84 398 L247 398 L247 714 L294 714 L294 0 L247 0 L247 347 L84 347 L84 0 L36 0 Z " /><g transform="translate(0,182)" ><path fill="black" d="M81 606 L81 615 C101.634 656.268 129.706 722.459 143 765 L187 765 C203.113 719.348 230.443 652.113 249 615 L249 606 L221 606 C202.333 636.667 183.667 678.667 165 716 C146.333 680 125.333 635.333 108 606 L81 606 Z " /></g></glyph>
<glyph glyph-name="hcircumflex" unicode="&#x125;" horiz-adv-x="360" >
<path fill="black" d="M46 0 L46 760 L94 760 L94 513 C94 486.333 92.3333 464.667 91 442 L94 442 C108.667 495.333 135.333 542 186 542 C248.667 542 288 483.667 288 353 L288 0 L240 0 L240 343 C240 447 219.333 494 174 494 C123.333 494 94 426 94 290 L94 0 L46 0 Z " /><g transform="translate(-96,228)" ><path fill="black" d="M81 606 L81 615 C101.634 656.268 129.706 722.459 143 765 L187 765 C203.113 719.348 230.443 652.113 249 615 L249 606 L221 606 C202.333 636.667 183.667 678.667 165 716 C146.333 680 125.333 635.333 108 606 L81 606 Z " /></g></glyph>
<glyph glyph-name="Hbar" unicode="&#x126;" horiz-adv-x="360" d="M37 538 L4 538 L4 584 L37 584 L37 714 L85 714 L85 584 L245 584 L245 714 L293 714 L293 584 L326 584 L326 538 L293 538 L293 0 L245 0 L245 347 L85 347 L85 0 L37 0 L37 538 Z M245 398 L245 538 L85 538 L85 398 L245 398 Z " />
<glyph glyph-name="hbar" unicode="&#x127;" horiz-adv-x="360" d="M45 619 L4 619 L4 664 L45 664 L45 760 L94 760 L94 664 L200 664 L200 619 L94 619 L94 513 C94 486.333 92.3333 464.667 91 442 L93 442 C107.667 495.333 135.333 542 186 542 C247.333 542 288 483.667 288 353 L288 0 L239 0 L239 343 C239 447 218 494 174 494 C123.333 494 94 426 94 290 L94 0 L45 0 L45 619 Z " />
<glyph glyph-name="Itilde" unicode="&#x128;" horiz-adv-x="360" >
<path fill="black" d="M60 39 L141 46 L141 668 L60 675 L60 714 L269 714 L269 675 L188 668 L188 46 L269 39 L269 0 L60 0 L60 39 Z " /><g transform="translate(0,182)" ><path fill="black" d="M68 617 C70.6667 681 86.3333 725 121 725 C155.667 725 178.333 661 205 661 C220.333 661 229.333 682.333 232 725 L262 725 C259.333 653 237.333 617 208 617 C172.889 617 148.444 681 124 681 C109.333 681 100 659.667 96 617 L68 617 Z " /></g></glyph>
<glyph glyph-name="itilde" unicode="&#x129;" horiz-adv-x="330" >
<path fill="black" d="M49 40 L147 47 L147 484 L58 492 L58 532 L195 532 L195 47 L283 40 L283 0 L49 0 L49 40 Z " /><path fill="black" d="M68 617 C70.6667 681 86.3333 725 121 725 C155.667 725 178.333 661 205 661 C220.333 661 229.333 682.333 232 725 L262 725 C259.333 653 237.333 617 208 617 C172.889 617 148.444 681 124 681 C109.333 681 100 659.667 96 617 L68 617 Z " /></glyph>
<glyph glyph-name="Imacron" unicode="&#x12a;" horiz-adv-x="360" >
<path fill="black" d="M60 39 L141 46 L141 668 L60 675 L60 714 L269 714 L269 675 L188 668 L188 46 L269 39 L269 0 L60 0 L60 39 Z " /><g transform="translate(1,180)" ><path fill="black" d="M85 668 L242 668 L242 625 L85 625 L85 668 Z " /></g></glyph>
<glyph glyph-name="imacron" unicode="&#x12b;" horiz-adv-x="330" >
<path fill="black" d="M49 40 L147 47 L147 484 L58 492 L58 532 L195 532 L195 47 L283 40 L283 0 L49 0 L49 40 Z " /><g transform="translate(1,-2)" ><path fill="black" d="M85 668 L242 668 L242 625 L85 625 L85 668 Z " /></g></glyph>
<glyph glyph-name="Ibreve" unicode="&#x12c;" horiz-adv-x="360" >
<path fill="black" d="M60 39 L141 46 L141 668 L60 675 L60 714 L269 714 L269 675 L188 668 L188 46 L269 39 L269 0 L60 0 L60 39 Z " /><g transform="translate(0,182)" ><path fill="black" d="M117 728 C119.667 678.667 135.667 651 165 651 C194.333 651 211.333 678.667 214 728 L244 728 C242.667 653.333 211.667 610 165 610 C118.333 610 88.6667 649.333 86 728 L117 728 Z " /></g></glyph>
<glyph glyph-name="ibreve" unicode="&#x12d;" horiz-adv-x="330" >
<path fill="black" d="M49 40 L147 47 L147 484 L58 492 L58 532 L195 532 L195 47 L283 40 L283 0 L49 0 L49 40 Z " /><path fill="black" d="M117 728 C119.667 678.667 135.667 651 165 651 C194.333 651 211.333 678.667 214 728 L244 728 C242.667 653.333 211.667 610 165 610 C118.333 610 88.6667 649.333 86 728 L117 728 Z " /></glyph>
<glyph glyph-name="Iogonek" unicode="&#x12e;" horiz-adv-x="360" d="M237 -213 C229 -217.667 218.667 -220 206 -220 C166 -220 146 -192 146 -136 C146 -87.3333 161.333 -42 192 0 L64 0 L64 39 L145 46 L145 668 L64 675 L64 714 L273 714 L273 675 L192 668 L192 46 L273 39 L273 0 L228 0 C197.333 -44 184 -81 184 -125 C184 -161.667 194.333 -180 215 -180 C224.333 -180 231.667 -176.667 237 -174 L237 -213 Z " />
<glyph glyph-name="iogonek" unicode="&#x12f;" horiz-adv-x="360" d="M245 -213 C237 -217.667 226.667 -220 214 -220 C174 -220 154 -192 154 -136 C154 -87.3333 169.333 -42 200 0 L53 0 L53 40 L151 47 L151 484 L62 492 L62 532 L199 532 L199 47 L287 40 L287 0 L236 0 C205.333 -44 192 -81 192 -125 C192 -161.667 202.333 -180 223 -180 C232.333 -180 239.667 -176.667 245 -174 L245 -213 Z M173 647 C150.333 647 139 666 139 698 C139 730 150.333 750 173 750 C195.667 750 206 730 206 698 C206 667.333 195.667 647 173 647 Z " />
<glyph glyph-name="Idotaccent" unicode="&#x130;" horiz-adv-x="360" >
<path fill="black" d="M60 39 L141 46 L141 668 L60 675 L60 714 L269 714 L269 675 L188 668 L188 46 L269 39 L269 0 L60 0 L60 39 Z " /><g transform="translate(0,182)" ><path fill="black" d="M165 647 C142.333 647 131 666 131 698 C131 730 142.333 750 165 750 C187.667 750 198 730 198 698 C198 667.333 187.667 647 165 647 Z " /></g></glyph>
<glyph glyph-name="dotlessi" unicode="&#x131;" horiz-adv-x="330" d="M49 40 L147 47 L147 484 L58 492 L58 532 L195 532 L195 47 L283 40 L283 0 L49 0 L49 40 Z " />
<glyph glyph-name="IJ" unicode="&#x132;" horiz-adv-x="360" d="M65 77 C81 62.3333 114.333 39 145 39 C194.333 39 218 87.6667 218 201 L218 714 L267 714 L267 192 C267 61.3333 231 -13 151 -13 C120.333 -13 85 3 65 23 L65 77 Z M64 163 L64 714 L113 714 L113 163 L64 163 Z " />
<glyph glyph-name="ij" unicode="&#x133;" horiz-adv-x="360" d="M76 -177 C94.6667 -187.667 127.667 -197 149 -197 C194.333 -197 216 -152.667 216 -74 L216 532 L264 532 L264 -75 C264 -192.333 226 -246 154 -246 C126 -246 94.6667 -236 76 -228 L76 -177 Z M68 0 L68 532 L115 532 L115 0 L68 0 Z M92 642 C69.3333 642 58 661 58 693 C58 725 69.3333 745 92 745 C114.667 745 125 725 125 693 C125 662.333 114.667 642 92 642 Z M237 642 C214.333 642 203 661 203 693 C203 725 214.333 745 237 745 C259.667 745 270 725 270 693 C270 662.333 259.667 642 237 642 Z " />
<glyph glyph-name="Jcircumflex" unicode="&#x134;" horiz-adv-x="360" >
<path fill="black" d="M38 71 C62 51 90 37 118 37 C176 37 205 95 205 211 L205 714 L253 714 L253 199 C253 67 213 -13 121 -13 C90.3333 -13 62 0.333333 38 19 L38 71 Z " /><g transform="translate(64,182)" ><path fill="black" d="M81 606 L81 615 C101.634 656.268 129.706 722.459 143 765 L187 765 C203.113 719.348 230.443 652.113 249 615 L249 606 L221 606 C202.333 636.667 183.667 678.667 165 716 C146.333 680 125.333 635.333 108 606 L81 606 Z " /></g></glyph>
<glyph glyph-name="jcircumflex" unicode="&#x135;" horiz-adv-x="330" >
<path fill="black" d="M32 -177 C50.6667 -187.667 83.3333 -197 106 -197 C148.667 -197 170 -152.667 170 -74 L170 484 L63 492 L63 532 L218 532 L218 -75 C218 -192.333 180.667 -246 110 -246 C82 -246 50.6667 -236 32 -228 L32 -177 Z " /><g transform="translate(26,0)" ><path fill="black" d="M81 606 L81 615 C101.634 656.268 129.706 722.459 143 765 L187 765 C203.113 719.348 230.443 652.113 249 615 L249 606 L221 606 C202.333 636.667 183.667 678.667 165 716 C146.333 680 125.333 635.333 108 606 L81 606 Z " /></g></glyph>
<glyph glyph-name="uni0136" unicode="&#x136;" horiz-adv-x="360" >
<path fill="black" d="M36 0 L36 714 L83 714 L83 337 C97.6667 365 109.667 391.333 127 434 L247 714 L301 714 L165 402 L303 0 L249 0 L130 362 L83 274 L83 0 L36 0 Z " /><g transform="translate(528,0)" ><path fill="black" d="M-407 -221 L-407 -211 C-398.819 -178.275 -385.588 -102.409 -383 -61 L-336 -61 L-336 -69 C-342.667 -115.667 -359.333 -177 -378 -221 L-407 -221 Z " /></g></glyph>
<glyph glyph-name="uni0137" unicode="&#x137;" horiz-adv-x="360" >
<path fill="black" d="M57 0 L57 760 L103 760 L103 392 C103 340 102.667 298 100 246 L101 246 C111.667 268.667 121.333 287.333 132 310 L245 532 L302 532 L177 304 L309 0 L254 0 L144 264 L103 193 L103 0 L57 0 Z " /><g transform="translate(541,0)" ><path fill="black" d="M-407 -221 L-407 -211 C-398.819 -178.275 -385.588 -102.409 -383 -61 L-336 -61 L-336 -69 C-342.667 -115.667 -359.333 -177 -378 -221 L-407 -221 Z " /></g></glyph>
<glyph glyph-name="kgreenlandic" unicode="&#x138;" horiz-adv-x="360" d="M55 0 L55 532 L103 532 L103 392 C103 340 102.667 298 100 246 L101 246 C111.667 268.667 121.333 287.333 132 310 L244 532 L302 532 L176 305 L309 0 L253 0 L144 264 L103 193 L103 0 L55 0 Z " />
<glyph glyph-name="Lacute" unicode="&#x139;" horiz-adv-x="360" >
<path fill="black" d="M281 52 L281 0 L54 0 L54 714 L102 714 L102 52 L281 52 Z " /><g transform="translate(-91,182)" ><path fill="black" d="M137 606 L137 616 C162.333 666.667 186 719.333 202 766 L256 766 L256 757 C236.745 712.989 197.07 645.64 168 606 L137 606 Z " /></g></glyph>
<glyph glyph-name="lacute" unicode="&#x13a;" horiz-adv-x="360" >
<path fill="black" d="M49 40 L143 47 L143 713 L56 720 L56 760 L191 760 L191 47 L283 40 L283 0 L49 0 L49 40 Z " /><g transform="translate(-4,228)" ><path fill="black" d="M137 606 L137 616 C162.333 666.667 186 719.333 202 766 L256 766 L256 757 C236.745 712.989 197.07 645.64 168 606 L137 606 Z " /></g></glyph>
<glyph glyph-name="uni013B" unicode="&#x13b;" horiz-adv-x="360" >
<path fill="black" d="M281 52 L281 0 L54 0 L54 714 L102 714 L102 52 L281 52 Z " /><g transform="translate(535,0)" ><path fill="black" d="M-407 -221 L-407 -211 C-398.819 -178.275 -385.588 -102.409 -383 -61 L-336 -61 L-336 -69 C-342.667 -115.667 -359.333 -177 -378 -221 L-407 -221 Z " /></g></glyph>
<glyph glyph-name="uni013C" unicode="&#x13c;" horiz-adv-x="360" >
<path fill="black" d="M49 40 L143 47 L143 713 L56 720 L56 760 L191 760 L191 47 L283 40 L283 0 L49 0 L49 40 Z " /><g transform="translate(527,0)" ><path fill="black" d="M-407 -221 L-407 -211 C-398.819 -178.275 -385.588 -102.409 -383 -61 L-336 -61 L-336 -69 C-342.667 -115.667 -359.333 -177 -378 -221 L-407 -221 Z " /></g></glyph>
<glyph glyph-name="Lcaron" unicode="&#x13d;" horiz-adv-x="360" >
<g transform="translate(2,0)" ><path fill="black" d="M281 52 L281 0 L54 0 L54 714 L102 714 L102 52 L281 52 Z " /></g><g transform="translate(283,0)" ><path fill="black" d="M-30 553 L-30 562 C-24.6299 588.851 -13.7535 678.204 -11 714 L38 714 L38 707 C29.9426 664.027 14.1192 593.298 -2 553 L-30 553 Z " /></g></glyph>
<glyph glyph-name="lcaron" unicode="&#x13e;" horiz-adv-x="360" >
<g transform="translate(2,0)" ><path fill="black" d="M49 40 L143 47 L143 713 L56 720 L56 760 L191 760 L191 47 L283 40 L283 0 L49 0 L49 40 Z " /></g><g transform="translate(322,46)" ><path fill="black" d="M-30 553 L-30 562 C-24.6299 588.851 -13.7535 678.204 -11 714 L38 714 L38 707 C29.9426 664.027 14.1192 593.298 -2 553 L-30 553 Z " /></g></glyph>
<glyph glyph-name="Ldot" unicode="&#x13f;" horiz-adv-x="360" >
<g transform="translate(4,0)" ><path fill="black" d="M281 52 L281 0 L54 0 L54 714 L102 714 L102 52 L281 52 Z " /></g><g transform="translate(111,333)" ><path fill="black" d="M165 -12 C142.333 -12 131 7 131 39 C131 71.6667 142.333 88 165 88 C187 88 198 71.6667 198 39 C198 5 187 -12 165 -12 Z " /></g></glyph>
<glyph glyph-name="ldot" unicode="&#x140;" horiz-adv-x="360" >
<path fill="black" d="M49 40 L143 47 L143 713 L56 720 L56 760 L191 760 L191 47 L283 40 L283 0 L49 0 L49 40 Z " /><g transform="translate(169,353)" ><path fill="black" d="M165 -12 C142.333 -12 131 7 131 39 C131 71.6667 142.333 88 165 88 C187 88 198 71.6667 198 39 C198 5 187 -12 165 -12 Z " /></g></glyph>
<glyph glyph-name="Lslash" unicode="&#x141;" horiz-adv-x="360" d="M54 338 L10 303 L10 348 L54 384 L54 714 L102 714 L102 422 L208 508 L208 462 L102 377 L102 52 L281 52 L281 0 L54 0 L54 338 Z " />
<glyph glyph-name="lslash" unicode="&#x142;" horiz-adv-x="360" d="M53 40 L147 47 L147 359 L77 303 L77 348 L147 405 L147 713 L60 720 L60 760 L195 760 L195 443 L275 508 L275 462 L195 398 L195 47 L287 40 L287 0 L53 0 L53 40 Z " />
<glyph glyph-name="Nacute" unicode="&#x143;" horiz-adv-x="360" >
<path fill="black" d="M36 0 L36 714 L99 714 L253 70 L256 70 C256 104.667 250 170 250 218 L250 714 L294 714 L294 0 L233 0 L77 648 L74 648 C76.6667 602.667 78 557 78 493 L78 0 L36 0 Z " /><g transform="translate(0,182)" ><path fill="black" d="M137 606 L137 616 C162.333 666.667 186 719.333 202 766 L256 766 L256 757 C236.745 712.989 197.07 645.64 168 606 L137 606 Z " /></g></glyph>
<glyph glyph-name="nacute" unicode="&#x144;" horiz-adv-x="360" >
<path fill="black" d="M46 0 L46 532 L85 532 L91 440 L94 440 C108.667 498.667 140.333 542 187 542 C251 542 288 485.333 288 356 L288 0 L240 0 L240 351 C240 448.333 218.333 493 177 493 C125 493 94 426.333 94 293 L94 0 L46 0 Z " /><g transform="translate(2,0)" ><path fill="black" d="M137 606 L137 616 C162.333 666.667 186 719.333 202 766 L256 766 L256 757 C236.745 712.989 197.07 645.64 168 606 L137 606 Z " /></g></glyph>
<glyph glyph-name="uni0145" unicode="&#x145;" horiz-adv-x="360" >
<path fill="black" d="M36 0 L36 714 L99 714 L253 70 L256 70 C256 104.667 250 170 250 218 L250 714 L294 714 L294 0 L233 0 L77 648 L74 648 C76.6667 602.667 78 557 78 493 L78 0 L36 0 Z " /><g transform="translate(525,0)" ><path fill="black" d="M-407 -221 L-407 -211 C-398.819 -178.275 -385.588 -102.409 -383 -61 L-336 -61 L-336 -69 C-342.667 -115.667 -359.333 -177 -378 -221 L-407 -221 Z " /></g></glyph>
<glyph glyph-name="uni0146" unicode="&#x146;" horiz-adv-x="360" >
<path fill="black" d="M46 0 L46 532 L85 532 L91 440 L94 440 C108.667 498.667 140.333 542 187 542 C251 542 288 485.333 288 356 L288 0 L240 0 L240 351 C240 448.333 218.333 493 177 493 C125 493 94 426.333 94 293 L94 0 L46 0 Z " /><g transform="translate(529,0)" ><path fill="black" d="M-407 -221 L-407 -211 C-398.819 -178.275 -385.588 -102.409 -383 -61 L-336 -61 L-336 -69 C-342.667 -115.667 -359.333 -177 -378 -221 L-407 -221 Z " /></g></glyph>
<glyph glyph-name="Ncaron" unicode="&#x147;" horiz-adv-x="360" >
<path fill="black" d="M36 0 L36 714 L99 714 L253 70 L256 70 C256 104.667 250 170 250 218 L250 714 L294 714 L294 0 L233 0 L77 648 L74 648 C76.6667 602.667 78 557 78 493 L78 0 L36 0 Z " /><g transform="translate(4,182)" ><path fill="black" d="M143 606 C128.333 651.333 101 714.667 81 756 L81 765 L109 765 C126.333 735.667 146.333 692.333 165 655 C183.667 695 199.667 726.333 221 765 L249 765 L249 756 C229 714.667 201.667 651.333 187 606 L143 606 Z " /></g></glyph>
<glyph glyph-name="ncaron" unicode="&#x148;" horiz-adv-x="360" >
<path fill="black" d="M46 0 L46 532 L85 532 L91 440 L94 440 C108.667 498.667 140.333 542 187 542 C251 542 288 485.333 288 356 L288 0 L240 0 L240 351 C240 448.333 218.333 493 177 493 C125 493 94 426.333 94 293 L94 0 L46 0 Z " /><g transform="translate(6,0)" ><path fill="black" d="M143 606 C128.333 651.333 101 714.667 81 756 L81 765 L109 765 C126.333 735.667 146.333 692.333 165 655 C183.667 695 199.667 726.333 221 765 L249 765 L249 756 C229 714.667 201.667 651.333 187 606 L143 606 Z " /></g></glyph>
<glyph glyph-name="napostrophe" unicode="&#x149;" horiz-adv-x="360" d="M53 0 L53 532 L92 532 L98 440 L101 440 C115.667 500 145.333 542 192 542 C252 542 288 485.333 288 356 L288 0 L240 0 L240 351 C240 448.333 216.667 493 178 493 C127.333 493 100 426.333 100 293 L100 0 L53 0 Z M-29 475 C-14.3333 555 -2.33333 643.333 3 714 L50 714 L54 703 C43.3333 624.333 28 548.333 8 475 L-29 475 Z " />
<glyph glyph-name="Eng" unicode="&#x14a;" horiz-adv-x="360" d="M150 -128 C162.667 -136 175.667 -140 189 -140 C229 -140 254 -100 254 0 L233 0 L77 648 L74 648 C76.6667 602.667 78 557 78 493 L78 0 L36 0 L36 714 L99 714 L253 70 L256 70 C256 104.667 250 170 250 218 L250 714 L294 714 L294 0 L293 0 C293 -128 260.333 -183 195 -183 C177.667 -183 162.667 -179 150 -171 L150 -128 Z " />
<glyph glyph-name="eng" unicode="&#x14b;" horiz-adv-x="360" d="M166 -183 C176 -189 186.667 -192 198 -192 C221.333 -192 234 -160.667 236 -98 L240 62 L240 351 C240 448.333 218.333 493 177 493 C125 493 94 426.333 94 293 L94 0 L46 0 L46 532 L85 532 L91 440 L94 440 C108.667 498.667 140.333 542 187 542 C251 542 288 485.333 288 356 L288 0 L283 0 L285 -99 C285 -191 258 -240 206 -240 C189.333 -240 176 -237 166 -231 L166 -183 Z " />
<glyph glyph-name="Omacron" unicode="&#x14c;" horiz-adv-x="360" >
<path fill="black" d="M165 -10 C59.4069 -10 25 165.329 25 359 C25 601.667 70.3333 725 165 725 C266.229 725 305 567.1 305 358 C305 157.896 270.593 -10 165 -10 Z M165 40 C229 40 256 148.667 256 358 C256 564.667 227.667 675 165 675 C101 675 73 562 73 358 C73 152.667 103.667 40 165 40 Z " /><g transform="translate(1,180)" ><path fill="black" d="M85 668 L242 668 L242 625 L85 625 L85 668 Z " /></g></glyph>
<glyph glyph-name="omacron" unicode="&#x14d;" horiz-adv-x="360" >
<path fill="black" d="M165 -10 C77 -10 32 91 32 267 C32 443 78.3333 542 165 542 C251.277 542 298 434 298 266 C298 91.3333 255.667 -10 165 -10 Z M165 38 C222.333 38 248 117.667 248 267 C248 408.333 223.333 494 166 494 C110 494 82 415 82 267 C82 120.333 109 38 165 38 Z " /><g transform="translate(1,-2)" ><path fill="black" d="M85 668 L242 668 L242 625 L85 625 L85 668 Z " /></g></glyph>
<glyph glyph-name="Obreve" unicode="&#x14e;" horiz-adv-x="360" >
<path fill="black" d="M165 -10 C59.4069 -10 25 165.329 25 359 C25 601.667 70.3333 725 165 725 C266.229 725 305 567.1 305 358 C305 157.896 270.593 -10 165 -10 Z M165 40 C229 40 256 148.667 256 358 C256 564.667 227.667 675 165 675 C101 675 73 562 73 358 C73 152.667 103.667 40 165 40 Z " /><g transform="translate(0,182)" ><path fill="black" d="M117 728 C119.667 678.667 135.667 651 165 651 C194.333 651 211.333 678.667 214 728 L244 728 C242.667 653.333 211.667 610 165 610 C118.333 610 88.6667 649.333 86 728 L117 728 Z " /></g></glyph>
<glyph glyph-name="obreve" unicode="&#x14f;" horiz-adv-x="360" >
<path fill="black" d="M165 -10 C77 -10 32 91 32 267 C32 443 78.3333 542 165 542 C251.277 542 298 434 298 266 C298 91.3333 255.667 -10 165 -10 Z M165 38 C222.333 38 248 117.667 248 267 C248 408.333 223.333 494 166 494 C110 494 82 415 82 267 C82 120.333 109 38 165 38 Z " /><path fill="black" d="M117 728 C119.667 678.667 135.667 651 165 651 C194.333 651 211.333 678.667 214 728 L244 728 C242.667 653.333 211.667 610 165 610 C118.333 610 88.6667 649.333 86 728 L117 728 Z " /></glyph>
<glyph glyph-name="Ohungarumlaut" unicode="&#x150;" horiz-adv-x="360" d="M165 -10 C59.4069 -10 25 165.329 25 359 C25 601.667 70.3333 725 165 725 C266.229 725 305 567.1 305 358 C305 157.896 270.593 -10 165 -10 Z M165 40 C229 40 256 148.667 256 358 C256 564.667 227.667 675 165 675 C101 675 73 562 73 358 C73 152.667 103.667 40 165 40 Z M96 788 L96 797 C117.326 842.319 140.336 910.675 151 948 L198 948 L198 940 C182.117 897.645 148.709 828.513 119 788 L96 788 Z M189 788 L189 797 C210.326 842.319 233.336 910.675 244 948 L291 948 L291 940 C275.117 897.645 241.709 828.513 212 788 L189 788 Z " />
<glyph glyph-name="ohungarumlaut" unicode="&#x151;" horiz-adv-x="360" d="M165 -10 C77 -10 32 91 32 267 C32 443 78.3333 542 165 542 C251.277 542 298 434 298 266 C298 91.3333 255.667 -10 165 -10 Z M165 38 C222.333 38 248 117.667 248 267 C248 408.333 223.333 494 166 494 C110 494 82 415 82 267 C82 120.333 109 38 165 38 Z M96 606 L96 615 C117.326 660.319 140.336 728.675 151 766 L198 766 L198 758 C182.117 715.645 148.709 646.513 119 606 L96 606 Z M189 606 L189 615 C210.326 660.319 233.336 728.675 244 766 L291 766 L291 758 C275.117 715.645 241.709 646.513 212 606 L189 606 Z " />
<glyph glyph-name="OE" unicode="&#x152;" horiz-adv-x="360" d="M311 52 L311 0 L190 0 C176.667 -2.66667 164.333 -6 151 -6 C60.3333 -6 25 129.667 25 359 C25 575.104 57.0476 719 152 719 C164 719 177.333 716.667 192 714 L311 714 L311 662 L215 662 L215 400 L301 400 L301 347 L215 347 L215 52 L311 52 Z M169 663 C166.333 668.333 161 671 153 671 C90.645 671 71 541.974 71 358 C71 166.052 93.2554 44 152 44 C158.667 44 164.333 46.3333 169 51 L169 663 Z " />
<glyph glyph-name="oe" unicode="&#x153;" horiz-adv-x="360" d="M308 21 C291.333 0.333333 272 -10 250 -10 C211.333 -10 185.333 32 172 116 C158.667 33.3333 136.667 -10 102 -10 C39.3333 -10 16 85 16 261 C16 459.667 45 541 101 541 C137 541 160.333 496 171 412 C184.333 490.667 204.333 541 239 541 C292.437 541 315 442.229 315 301 L315 260 L192 260 C193.333 112 214.667 38 256 38 C272.667 38 290 49.3333 308 72 L308 21 Z M102 38 C135.333 38 150 128.667 150 266 C150 404.667 135.333 494 102 494 C71.3333 494 56 416.667 56 266 C56 124.667 68.6667 38 102 38 Z M275 308 C273.667 425.333 261.333 494 236 494 C207.636 494 192 393.281 192 308 L275 308 Z " />
<glyph glyph-name="Racute" unicode="&#x154;" horiz-adv-x="360" >
<path fill="black" d="M51 0 L51 714 L146 714 C239.333 714 289 659.333 289 518 C289 406 260.333 347.333 211 322 L312 0 L259 0 L168 308 L98 308 L98 0 L51 0 Z M98 358 L149 358 C207.667 358 241 410.333 241 517 C241 625 211 664 143 664 L98 664 L98 358 Z " /><g transform="translate(-4,182)" ><path fill="black" d="M137 606 L137 616 C162.333 666.667 186 719.333 202 766 L256 766 L256 757 C236.745 712.989 197.07 645.64 168 606 L137 606 Z " /></g></glyph>
<glyph glyph-name="racute" unicode="&#x155;" horiz-adv-x="360" >
<path fill="black" d="M34 40 L116 47 L116 484 L40 492 L40 532 L153 532 L158 434 L161 434 C175.667 495.333 204.667 541 254 541 C270 541 289.667 536.667 307 526 L295 473 C280.333 482.333 262.667 486 248 486 C193.333 486 163 406.333 163 285 L163 47 L252 40 L252 0 L34 0 L34 40 Z " /><g transform="translate(8,0)" ><path fill="black" d="M137 606 L137 616 C162.333 666.667 186 719.333 202 766 L256 766 L256 757 C236.745 712.989 197.07 645.64 168 606 L137 606 Z " /></g></glyph>
<glyph glyph-name="uni0156" unicode="&#x156;" horiz-adv-x="360" >
<path fill="black" d="M51 0 L51 714 L146 714 C239.333 714 289 659.333 289 518 C289 406 260.333 347.333 211 322 L312 0 L259 0 L168 308 L98 308 L98 0 L51 0 Z M98 358 L149 358 C207.667 358 241 410.333 241 517 C241 625 211 664 143 664 L98 664 L98 358 Z " /><g transform="translate(537,0)" ><path fill="black" d="M-407 -221 L-407 -211 C-398.819 -178.275 -385.588 -102.409 -383 -61 L-336 -61 L-336 -69 C-342.667 -115.667 -359.333 -177 -378 -221 L-407 -221 Z " /></g></glyph>
<glyph glyph-name="uni0157" unicode="&#x157;" horiz-adv-x="360" >
<path fill="black" d="M34 40 L116 47 L116 484 L40 492 L40 532 L153 532 L158 434 L161 434 C175.667 495.333 204.667 541 254 541 C270 541 289.667 536.667 307 526 L295 473 C280.333 482.333 262.667 486 248 486 C193.333 486 163 406.333 163 285 L163 47 L252 40 L252 0 L34 0 L34 40 Z " /><g transform="translate(501,0)" ><path fill="black" d="M-407 -221 L-407 -211 C-398.819 -178.275 -385.588 -102.409 -383 -61 L-336 -61 L-336 -69 C-342.667 -115.667 -359.333 -177 -378 -221 L-407 -221 Z " /></g></glyph>
<glyph glyph-name="Rcaron" unicode="&#x158;" horiz-adv-x="360" >
<path fill="black" d="M51 0 L51 714 L146 714 C239.333 714 289 659.333 289 518 C289 406 260.333 347.333 211 322 L312 0 L259 0 L168 308 L98 308 L98 0 L51 0 Z M98 358 L149 358 C207.667 358 241 410.333 241 517 C241 625 211 664 143 664 L98 664 L98 358 Z " /><g transform="translate(0,182)" ><path fill="black" d="M143 606 C128.333 651.333 101 714.667 81 756 L81 765 L109 765 C126.333 735.667 146.333 692.333 165 655 C183.667 695 199.667 726.333 221 765 L249 765 L249 756 C229 714.667 201.667 651.333 187 606 L143 606 Z " /></g></glyph>
<glyph glyph-name="rcaron" unicode="&#x159;" horiz-adv-x="360" >
<path fill="black" d="M34 40 L116 47 L116 484 L40 492 L40 532 L153 532 L158 434 L161 434 C175.667 495.333 204.667 541 254 541 C270 541 289.667 536.667 307 526 L295 473 C280.333 482.333 262.667 486 248 486 C193.333 486 163 406.333 163 285 L163 47 L252 40 L252 0 L34 0 L34 40 Z " /><g transform="translate(12,0)" ><path fill="black" d="M143 606 C128.333 651.333 101 714.667 81 756 L81 765 L109 765 C126.333 735.667 146.333 692.333 165 655 C183.667 695 199.667 726.333 221 765 L249 765 L249 756 C229 714.667 201.667 651.333 187 606 L143 606 Z " /></g></glyph>
<glyph glyph-name="Sacute" unicode="&#x15a;" horiz-adv-x="360" >
<path fill="black" d="M47 73 C77.6667 54.3333 112.333 40 147 40 C208.333 40 235 97 235 185 C235 272.023 205.747 300.275 147 343 C91.2586 385.47 48 425.567 48 541 C48 666.333 98 725 174 725 C208.667 725 242.667 713.333 276 690 L259 643 C228.333 665.667 200 675 176 675 C124 675 97 629 97 545 C97 454.858 130.217 424.682 180 388 C244.655 336.815 284 305.627 284 188 C284 57.3333 232 -10 148 -10 C113.333 -10 76.3333 1.33333 47 20 L47 73 Z " /><g transform="translate(2,182)" ><path fill="black" d="M137 606 L137 616 C162.333 666.667 186 719.333 202 766 L256 766 L256 757 C236.745 712.989 197.07 645.64 168 606 L137 606 Z " /></g></glyph>
<glyph glyph-name="sacute" unicode="&#x15b;" horiz-adv-x="360" >
<path fill="black" d="M59 77 C87 54.3333 122 38 158 38 C211.333 38 229 75 229 135 C229 192.825 206.556 210.833 153 251 C102.378 290.964 63 320.772 63 406 C63 491.333 103 542 179 542 C213.667 542 241.333 531 272 511 L256 466 C229.333 484.667 203.667 494 179 494 C136.333 494 112 464 112 408 C112 350.637 137.729 331.779 189 294 C241.714 254.465 277 226.467 277 136 C277 42.6667 237.667 -10 155 -10 C116.333 -10 83 5.33333 59 24 L59 77 Z " /><g transform="translate(1,0)" ><path fill="black" d="M137 606 L137 616 C162.333 666.667 186 719.333 202 766 L256 766 L256 757 C236.745 712.989 197.07 645.64 168 606 L137 606 Z " /></g></glyph>
<glyph glyph-name="Scircumflex" unicode="&#x15c;" horiz-adv-x="360" >
<path fill="black" d="M47 73 C77.6667 54.3333 112.333 40 147 40 C208.333 40 235 97 235 185 C235 272.023 205.747 300.275 147 343 C91.2586 385.47 48 425.567 48 541 C48 666.333 98 725 174 725 C208.667 725 242.667 713.333 276 690 L259 643 C228.333 665.667 200 675 176 675 C124 675 97 629 97 545 C97 454.858 130.217 424.682 180 388 C244.655 336.815 284 305.627 284 188 C284 57.3333 232 -10 148 -10 C113.333 -10 76.3333 1.33333 47 20 L47 73 Z " /><g transform="translate(6,182)" ><path fill="black" d="M81 606 L81 615 C101.634 656.268 129.706 722.459 143 765 L187 765 C203.113 719.348 230.443 652.113 249 615 L249 606 L221 606 C202.333 636.667 183.667 678.667 165 716 C146.333 680 125.333 635.333 108 606 L81 606 Z " /></g></glyph>
<glyph glyph-name="scircumflex" unicode="&#x15d;" horiz-adv-x="360" >
<path fill="black" d="M59 77 C87 54.3333 122 38 158 38 C211.333 38 229 75 229 135 C229 192.825 206.556 210.833 153 251 C102.378 290.964 63 320.772 63 406 C63 491.333 103 542 179 542 C213.667 542 241.333 531 272 511 L256 466 C229.333 484.667 203.667 494 179 494 C136.333 494 112 464 112 408 C112 350.637 137.729 331.779 189 294 C241.714 254.465 277 226.467 277 136 C277 42.6667 237.667 -10 155 -10 C116.333 -10 83 5.33333 59 24 L59 77 Z " /><g transform="translate(5,0)" ><path fill="black" d="M81 606 L81 615 C101.634 656.268 129.706 722.459 143 765 L187 765 C203.113 719.348 230.443 652.113 249 615 L249 606 L221 606 C202.333 636.667 183.667 678.667 165 716 C146.333 680 125.333 635.333 108 606 L81 606 Z " /></g></glyph>
<glyph glyph-name="Scedilla" unicode="&#x15e;" horiz-adv-x="360" d="M110 -195 C120 -199 130 -201 140 -201 C168 -201 185 -179.333 185 -142 C185 -102 165.667 -85 131 -81 L151 -10 L148 -10 C113.333 -10 76.3333 1.33333 47 20 L47 73 C77.6667 54.3333 112.333 40 147 40 C208.333 40 235 97 235 185 C235 272.023 205.747 300.275 147 343 C91.2586 385.47 48 425.567 48 541 C48 666.333 98 725 174 725 C208.667 725 242.667 713.333 276 690 L259 643 C228.333 665.667 200 675 176 675 C124 675 97 629 97 545 C97 454.858 130.217 424.682 180 388 C244.655 336.815 284 305.627 284 188 C284 74.6667 246 10 182 -6 L169 -57 C205 -66.3333 223 -95.3333 223 -144 C223 -204 194 -240 146 -240 C134 -240 120.667 -238 110 -234 L110 -195 Z " />
<glyph glyph-name="scedilla" unicode="&#x15f;" horiz-adv-x="360" d="M116 -195 C126 -199 136 -201 146 -201 C174 -201 191 -179.333 191 -142 C191 -102 171.667 -85 137 -81 L157 -10 L155 -10 C116.333 -10 83 5.33333 59 24 L59 77 C87 54.3333 122 38 158 38 C211.333 38 229 75 229 135 C229 192.825 206.556 210.833 153 251 C102.378 290.964 63 320.772 63 406 C63 491.333 103 542 179 542 C213.667 542 241.333 531 272 511 L256 466 C229.333 484.667 203.667 494 179 494 C136.333 494 112 464 112 408 C112 350.637 137.729 331.779 189 294 C241.714 254.465 277 226.467 277 136 C277 56 248.333 6.33333 187 -7 L175 -57 C211 -66.3333 229 -95.3333 229 -144 C229 -204 200 -240 152 -240 C140 -240 126.667 -238 116 -234 L116 -195 Z " />
<glyph glyph-name="Scaron" unicode="&#x160;" horiz-adv-x="360" >
<path fill="black" d="M47 73 C77.6667 54.3333 112.333 40 147 40 C208.333 40 235 97 235 185 C235 272.023 205.747 300.275 147 343 C91.2586 385.47 48 425.567 48 541 C48 666.333 98 725 174 725 C208.667 725 242.667 713.333 276 690 L259 643 C228.333 665.667 200 675 176 675 C124 675 97 629 97 545 C97 454.858 130.217 424.682 180 388 C244.655 336.815 284 305.627 284 188 C284 57.3333 232 -10 148 -10 C113.333 -10 76.3333 1.33333 47 20 L47 73 Z " /><g transform="translate(6,182)" ><path fill="black" d="M143 606 C128.333 651.333 101 714.667 81 756 L81 765 L109 765 C126.333 735.667 146.333 692.333 165 655 C183.667 695 199.667 726.333 221 765 L249 765 L249 756 C229 714.667 201.667 651.333 187 606 L143 606 Z " /></g></glyph>
<glyph glyph-name="scaron" unicode="&#x161;" horiz-adv-x="360" >
<path fill="black" d="M59 77 C87 54.3333 122 38 158 38 C211.333 38 229 75 229 135 C229 192.825 206.556 210.833 153 251 C102.378 290.964 63 320.772 63 406 C63 491.333 103 542 179 542 C213.667 542 241.333 531 272 511 L256 466 C229.333 484.667 203.667 494 179 494 C136.333 494 112 464 112 408 C112 350.637 137.729 331.779 189 294 C241.714 254.465 277 226.467 277 136 C277 42.6667 237.667 -10 155 -10 C116.333 -10 83 5.33333 59 24 L59 77 Z " /><g transform="translate(5,0)" ><path fill="black" d="M143 606 C128.333 651.333 101 714.667 81 756 L81 765 L109 765 C126.333 735.667 146.333 692.333 165 655 C183.667 695 199.667 726.333 221 765 L249 765 L249 756 C229 714.667 201.667 651.333 187 606 L143 606 Z " /></g></glyph>
<glyph glyph-name="uni0162" unicode="&#x162;" horiz-adv-x="360" d="M111 -195 C121 -199 131 -201 141 -201 C169 -201 186 -179.333 186 -142 C186 -102 166.667 -85 132 -81 L155 0 L141 0 L141 663 L27 663 L27 714 L304 714 L304 663 L189 663 L189 0 L184 0 L170 -57 C206 -66.3333 224 -95.3333 224 -144 C224 -204 195 -240 147 -240 C135 -240 121.667 -238 111 -234 L111 -195 Z " />
<glyph glyph-name="uni0163" unicode="&#x163;" horiz-adv-x="360" d="M156 -195 C166 -199 176 -201 186 -201 C214 -201 231 -179.333 231 -142 C231 -102 211.667 -85 177 -81 L198 -7 C148.667 7.66667 124 63.6667 124 161 L124 484 L40 484 L40 520 L126 533 L141 669 L173 669 L173 532 L288 532 L288 484 L172 484 L172 170 C172 82.6667 192.667 39 234 39 C252 39 271 43.3333 291 52 L291 4 C271 -5.33333 249.667 -10 227 -10 L215 -57 C251 -66.3333 269 -95.3333 269 -144 C269 -204 240 -240 192 -240 C180 -240 166.667 -238 156 -234 L156 -195 Z " />
<glyph glyph-name="Tcaron" unicode="&#x164;" horiz-adv-x="360" >
<path fill="black" d="M141 0 L141 663 L27 663 L27 714 L304 714 L304 663 L189 663 L189 0 L141 0 Z " /><g transform="translate(0,182)" ><path fill="black" d="M143 606 C128.333 651.333 101 714.667 81 756 L81 765 L109 765 C126.333 735.667 146.333 692.333 165 655 C183.667 695 199.667 726.333 221 765 L249 765 L249 756 C229 714.667 201.667 651.333 187 606 L143 606 Z " /></g></glyph>
<glyph glyph-name="tcaron" unicode="&#x165;" horiz-adv-x="360" >
<g transform="translate(4,0)" ><path fill="black" d="M124 484 L40 484 L40 520 L126 533 L141 669 L173 669 L173 532 L288 532 L288 484 L172 484 L172 170 C172 82.6667 192.667 39 234 39 C252 39 271 43.3333 291 52 L291 4 C270.333 -5.33333 248 -10 224 -10 C160 -10 124 43.6667 124 161 L124 484 Z " /></g><g transform="translate(316,46)" ><path fill="black" d="M-30 553 L-30 562 C-24.6299 588.851 -13.7535 678.204 -11 714 L38 714 L38 707 C29.9426 664.027 14.1192 593.298 -2 553 L-30 553 Z " /></g></glyph>
<glyph glyph-name="Tbar" unicode="&#x166;" horiz-adv-x="360" d="M141 342 L59 342 L59 390 L141 390 L141 663 L27 663 L27 714 L304 714 L304 663 L189 663 L189 390 L274 390 L274 342 L189 342 L189 0 L141 0 L141 342 Z " />
<glyph glyph-name="tbar" unicode="&#x167;" horiz-adv-x="360" d="M124 281 L40 281 L40 326 L124 326 L124 484 L40 484 L40 520 L126 533 L141 669 L173 669 L173 532 L288 532 L288 484 L172 484 L172 326 L292 326 L292 281 L172 281 L172 170 C172 82.6667 192.667 39 234 39 C252 39 271 43.3333 291 52 L291 4 C270.333 -5.33333 248 -10 224 -10 C160 -10 124 43.6667 124 161 L124 281 Z " />
<glyph glyph-name="Utilde" unicode="&#x168;" horiz-adv-x="360" >
<path fill="black" d="M36 714 L84 714 L84 231 C84 96.3333 110.333 40 165 40 C219.667 40 246 93.3333 246 228 L246 714 L294 714 L294 225 C294 58.3333 250.333 -10 165 -10 C78.3333 -10 36 66.6667 36 228 L36 714 Z " /><g transform="translate(0,182)" ><path fill="black" d="M68 617 C70.6667 681 86.3333 725 121 725 C155.667 725 178.333 661 205 661 C220.333 661 229.333 682.333 232 725 L262 725 C259.333 653 237.333 617 208 617 C172.889 617 148.444 681 124 681 C109.333 681 100 659.667 96 617 L68 617 Z " /></g></glyph>
<glyph glyph-name="utilde" unicode="&#x169;" horiz-adv-x="360" >
<path fill="black" d="M43 532 L91 532 L91 184 C91 78.6667 114 38 158 38 C208.667 38 237 106 237 242 L237 532 L284 532 L284 0 L245 0 L239 93 L235 93 C220.333 33 189.667 -10 143 -10 C76.3333 -10 43 51 43 173 L43 532 Z " /><path fill="black" d="M68 617 C70.6667 681 86.3333 725 121 725 C155.667 725 178.333 661 205 661 C220.333 661 229.333 682.333 232 725 L262 725 C259.333 653 237.333 617 208 617 C172.889 617 148.444 681 124 681 C109.333 681 100 659.667 96 617 L68 617 Z " /></glyph>
<glyph glyph-name="Umacron" unicode="&#x16a;" horiz-adv-x="360" >
<path fill="black" d="M36 714 L84 714 L84 231 C84 96.3333 110.333 40 165 40 C219.667 40 246 93.3333 246 228 L246 714 L294 714 L294 225 C294 58.3333 250.333 -10 165 -10 C78.3333 -10 36 66.6667 36 228 L36 714 Z " /><g transform="translate(1,180)" ><path fill="black" d="M85 668 L242 668 L242 625 L85 625 L85 668 Z " /></g></glyph>
<glyph glyph-name="umacron" unicode="&#x16b;" horiz-adv-x="360" >
<path fill="black" d="M43 532 L91 532 L91 184 C91 78.6667 114 38 158 38 C208.667 38 237 106 237 242 L237 532 L284 532 L284 0 L245 0 L239 93 L235 93 C220.333 33 189.667 -10 143 -10 C76.3333 -10 43 51 43 173 L43 532 Z " /><g transform="translate(1,-2)" ><path fill="black" d="M85 668 L242 668 L242 625 L85 625 L85 668 Z " /></g></glyph>
<glyph glyph-name="Ubreve" unicode="&#x16c;" horiz-adv-x="360" >
<path fill="black" d="M36 714 L84 714 L84 231 C84 96.3333 110.333 40 165 40 C219.667 40 246 93.3333 246 228 L246 714 L294 714 L294 225 C294 58.3333 250.333 -10 165 -10 C78.3333 -10 36 66.6667 36 228 L36 714 Z " /><g transform="translate(0,182)" ><path fill="black" d="M117 728 C119.667 678.667 135.667 651 165 651 C194.333 651 211.333 678.667 214 728 L244 728 C242.667 653.333 211.667 610 165 610 C118.333 610 88.6667 649.333 86 728 L117 728 Z " /></g></glyph>
<glyph glyph-name="ubreve" unicode="&#x16d;" horiz-adv-x="360" >
<path fill="black" d="M43 532 L91 532 L91 184 C91 78.6667 114 38 158 38 C208.667 38 237 106 237 242 L237 532 L284 532 L284 0 L245 0 L239 93 L235 93 C220.333 33 189.667 -10 143 -10 C76.3333 -10 43 51 43 173 L43 532 Z " /><path fill="black" d="M117 728 C119.667 678.667 135.667 651 165 651 C194.333 651 211.333 678.667 214 728 L244 728 C242.667 653.333 211.667 610 165 610 C118.333 610 88.6667 649.333 86 728 L117 728 Z " /></glyph>
<glyph glyph-name="Uring" unicode="&#x16e;" horiz-adv-x="360" >
<path fill="black" d="M36 714 L84 714 L84 231 C84 96.3333 110.333 40 165 40 C219.667 40 246 93.3333 246 228 L246 714 L294 714 L294 225 C294 58.3333 250.333 -10 165 -10 C78.3333 -10 36 66.6667 36 228 L36 714 Z " /><g transform="translate(0,182)" ><path fill="black" d="M165 612 C125 612 97 649 97 709 C97 767.667 125 805 165 805 C203.667 805 233 768 233 708 C233 649.333 206.333 612 165 612 Z M165 647 C187.667 647 203 672 203 708 C203 745.333 187.667 769 165 769 C142.333 769 127 743.667 127 709 C127 671.667 142.333 647 165 647 Z " /></g></glyph>
<glyph glyph-name="uring" unicode="&#x16f;" horiz-adv-x="360" >
<path fill="black" d="M43 532 L91 532 L91 184 C91 78.6667 114 38 158 38 C208.667 38 237 106 237 242 L237 532 L284 532 L284 0 L245 0 L239 93 L235 93 C220.333 33 189.667 -10 143 -10 C76.3333 -10 43 51 43 173 L43 532 Z " /><path fill="black" d="M165 612 C125 612 97 649 97 709 C97 767.667 125 805 165 805 C203.667 805 233 768 233 708 C233 649.333 206.333 612 165 612 Z M165 647 C187.667 647 203 672 203 708 C203 745.333 187.667 769 165 769 C142.333 769 127 743.667 127 709 C127 671.667 142.333 647 165 647 Z " /></glyph>
<glyph glyph-name="Uhungarumlaut" unicode="&#x170;" horiz-adv-x="360" d="M36 714 L84 714 L84 231 C84 96.3333 110.333 40 165 40 C219.667 40 246 93.3333 246 228 L246 714 L294 714 L294 225 C294 58.3333 250.333 -10 165 -10 C78.3333 -10 36 66.6667 36 228 L36 714 Z M96 788 L96 797 C117.326 842.319 140.336 910.675 151 948 L198 948 L198 940 C182.117 897.645 148.709 828.513 119 788 L96 788 Z M189 788 L189 797 C210.326 842.319 233.336 910.675 244 948 L291 948 L291 940 C275.117 897.645 241.709 828.513 212 788 L189 788 Z " />
<glyph glyph-name="uhungarumlaut" unicode="&#x171;" horiz-adv-x="360" d="M43 532 L91 532 L91 184 C91 78.6667 114 38 158 38 C208.667 38 237 106 237 242 L237 532 L284 532 L284 0 L245 0 L239 93 L235 93 C220.333 33 189.667 -10 143 -10 C76.3333 -10 43 51 43 173 L43 532 Z M96 606 L96 615 C117.326 660.319 140.336 728.675 151 766 L198 766 L198 758 C182.117 715.645 148.709 646.513 119 606 L96 606 Z M189 606 L189 615 C210.326 660.319 233.336 728.675 244 766 L291 766 L291 758 C275.117 715.645 241.709 646.513 212 606 L189 606 Z " />
<glyph glyph-name="Uogonek" unicode="&#x172;" horiz-adv-x="360" d="M212 -213 C204 -217.667 193.667 -220 181 -220 C142.333 -220 121 -190.333 121 -137 C121 -89 136.333 -46.6667 167 -10 L165 -10 C78.3333 -10 36 66.6667 36 228 L36 714 L84 714 L84 231 C84 96.3333 110.333 40 165 40 C219.667 40 246 93.3333 246 228 L246 714 L294 714 L294 225 C294 97 268.667 28.6667 218 2 C182 -38 159 -76.6667 159 -126 C159 -160.667 168.333 -180 191 -180 C199 -180 206.667 -176.667 212 -174 L212 -213 Z " />
<glyph glyph-name="uogonek" unicode="&#x173;" horiz-adv-x="360" d="M322 -213 C314 -217.667 303.667 -220 291 -220 C251 -220 231 -192 231 -136 C231 -87.3333 246.333 -42 277 0 L249 0 L243 93 L239 93 C224.333 33 193.667 -10 147 -10 C80.3333 -10 47 51 47 173 L47 532 L95 532 L95 184 C95 78.6667 118 38 162 38 C212.667 38 241 106 241 242 L241 532 L288 532 L288 10 L313 0 C282.333 -44 269 -81 269 -125 C269 -161.667 279.333 -180 300 -180 C309.333 -180 316.667 -176.667 322 -174 L322 -213 Z " />
<glyph glyph-name="Wcircumflex" unicode="&#x174;" horiz-adv-x="360" >
<path fill="black" d="M95 54 L111 226 L142 532 L187 532 L220 225 C225.242 169.955 233.39 96.373 236 52 L239 52 C239 100.345 243.316 223.685 246 272 C254 420 262.667 564.667 272 714 L315 714 L270 0 L212 0 L177 351 C173 399 168.667 424.333 166 459 L164 459 C161.333 424.333 158.333 399 153 351 L119 0 L61 0 L15 714 L56 714 C64 564.667 75 421.333 83 272 C85.6553 221.549 91.346 99.1181 94 54 L95 54 Z " /><g transform="translate(0,182)" ><path fill="black" d="M81 606 L81 615 C101.634 656.268 129.706 722.459 143 765 L187 765 C203.113 719.348 230.443 652.113 249 615 L249 606 L221 606 C202.333 636.667 183.667 678.667 165 716 C146.333 680 125.333 635.333 108 606 L81 606 Z " /></g></glyph>
<glyph glyph-name="wcircumflex" unicode="&#x175;" horiz-adv-x="360" >
<path fill="black" d="M94 57 C96.7344 89.813 104.571 155.855 110 202 L144 426 L188 426 L221 200 C228.971 157.489 235.402 92.3772 238 56 L240 56 C242.667 96 244.667 152.333 250 207 L277 532 L320 532 L265 0 L213 0 L182 237 C176.667 281 171.333 325.333 166 368 L165 368 C161 325.333 155.667 277.667 149 235 L117 0 L65 0 L11 532 L53 532 L82 209 C87.3333 153 89.3333 91.6667 92 57 L94 57 Z " /><g transform="translate(2,0)" ><path fill="black" d="M81 606 L81 615 C101.634 656.268 129.706 722.459 143 765 L187 765 C203.113 719.348 230.443 652.113 249 615 L249 606 L221 606 C202.333 636.667 183.667 678.667 165 716 C146.333 680 125.333 635.333 108 606 L81 606 Z " /></g></glyph>
<glyph glyph-name="Ycircumflex" unicode="&#x176;" horiz-adv-x="360" >
<path fill="black" d="M141 0 L141 274 L19 714 L71 714 L165 328 L259 714 L311 714 L188 275 L188 0 L141 0 Z " /><g transform="translate(0,182)" ><path fill="black" d="M81 606 L81 615 C101.634 656.268 129.706 722.459 143 765 L187 765 C203.113 719.348 230.443 652.113 249 615 L249 606 L221 606 C202.333 636.667 183.667 678.667 165 716 C146.333 680 125.333 635.333 108 606 L81 606 Z " /></g></glyph>
<glyph glyph-name="ycircumflex" unicode="&#x177;" horiz-adv-x="360" >
<path fill="black" d="M35 -188 C45.6667 -192 55.3333 -196 66 -196 C95.3333 -196 116.333 -172 131 -96 L149 2 L31 532 L82 532 L148 190 C158.667 131.333 164.667 96.3333 170 63 L171 63 C176.333 101.667 183 147.333 191 190 L250 532 L302 532 L177 -91 C158.333 -188.333 126.667 -244 72 -244 C60 -244 47.6667 -241.333 35 -236 L35 -188 Z " /><path fill="black" d="M81 606 L81 615 C101.634 656.268 129.706 722.459 143 765 L187 765 C203.113 719.348 230.443 652.113 249 615 L249 606 L221 606 C202.333 636.667 183.667 678.667 165 716 C146.333 680 125.333 635.333 108 606 L81 606 Z " /></glyph>
<glyph glyph-name="Ydieresis" unicode="&#x178;" horiz-adv-x="360" >
<g transform="translate(0,171)" ><path fill="black" d="M107 630 C89.6667 630 78 648.667 78 678 C78 707.333 89.6667 725 107 725 C126.333 725 136 709.333 136 678 C136 647.333 125.667 630 107 630 Z M223 630 C205.667 630 194 648.667 194 678 C194 707.333 205.667 725 223 725 C242.333 725 252 709.333 252 678 C252 647.333 241.667 630 223 630 Z " /></g><path fill="black" d="M141 0 L141 274 L19 714 L71 714 L165 328 L259 714 L311 714 L188 275 L188 0 L141 0 Z " /></glyph>
<glyph glyph-name="Zacute" unicode="&#x179;" horiz-adv-x="360" >
<path fill="black" d="M51 45 L232 663 L60 663 L60 714 L285 714 L285 669 L105 51 L289 51 L289 0 L51 0 L51 45 Z " /><g transform="translate(3,182)" ><path fill="black" d="M137 606 L137 616 C162.333 666.667 186 719.333 202 766 L256 766 L256 757 C236.745 712.989 197.07 645.64 168 606 L137 606 Z " /></g></glyph>
<glyph glyph-name="zacute" unicode="&#x17a;" horiz-adv-x="360" >
<path fill="black" d="M51 40 L221 484 L61 484 L61 532 L277 532 L277 488 L108 48 L280 48 L280 0 L51 0 L51 40 Z " /><path fill="black" d="M137 606 L137 616 C162.333 666.667 186 719.333 202 766 L256 766 L256 757 C236.745 712.989 197.07 645.64 168 606 L137 606 Z " /></glyph>
<glyph glyph-name="Zdotaccent" unicode="&#x17b;" horiz-adv-x="360" >
<path fill="black" d="M51 45 L232 663 L60 663 L60 714 L285 714 L285 669 L105 51 L289 51 L289 0 L51 0 L51 45 Z " /><g transform="translate(7,182)" ><path fill="black" d="M165 647 C142.333 647 131 666 131 698 C131 730 142.333 750 165 750 C187.667 750 198 730 198 698 C198 667.333 187.667 647 165 647 Z " /></g></glyph>
<glyph glyph-name="zdotaccent" unicode="&#x17c;" horiz-adv-x="360" >
<path fill="black" d="M51 40 L221 484 L61 484 L61 532 L277 532 L277 488 L108 48 L280 48 L280 0 L51 0 L51 40 Z " /><g transform="translate(4,0)" ><path fill="black" d="M165 647 C142.333 647 131 666 131 698 C131 730 142.333 750 165 750 C187.667 750 198 730 198 698 C198 667.333 187.667 647 165 647 Z " /></g></glyph>
<glyph glyph-name="Zcaron" unicode="&#x17d;" horiz-adv-x="360" >
<path fill="black" d="M51 45 L232 663 L60 663 L60 714 L285 714 L285 669 L105 51 L289 51 L289 0 L51 0 L51 45 Z " /><g transform="translate(7,182)" ><path fill="black" d="M143 606 C128.333 651.333 101 714.667 81 756 L81 765 L109 765 C126.333 735.667 146.333 692.333 165 655 C183.667 695 199.667 726.333 221 765 L249 765 L249 756 C229 714.667 201.667 651.333 187 606 L143 606 Z " /></g></glyph>
<glyph glyph-name="zcaron" unicode="&#x17e;" horiz-adv-x="360" >
<path fill="black" d="M51 40 L221 484 L61 484 L61 532 L277 532 L277 488 L108 48 L280 48 L280 0 L51 0 L51 40 Z " /><g transform="translate(4,0)" ><path fill="black" d="M143 606 C128.333 651.333 101 714.667 81 756 L81 765 L109 765 C126.333 735.667 146.333 692.333 165 655 C183.667 695 199.667 726.333 221 765 L249 765 L249 756 C229 714.667 201.667 651.333 187 606 L143 606 Z " /></g></glyph>
<glyph glyph-name="longs" unicode="&#x17f;" horiz-adv-x="360" d="M132 0 L132 580 C132 701.333 163.667 765 237 765 C257 765 273.333 759.667 292 753 L281 707 C269 713.667 255.667 717 241 717 C201 717 180 678.667 180 572 L180 0 L132 0 Z " />
<glyph glyph-name="florin" unicode="&#x192;" horiz-adv-x="360" d="M46 -183 C60 -189 72.6667 -192 84 -192 C120 -192 135 -153.333 135 -76 L135 412 L63 412 L63 445 L135 460 L135 544 C135 664 162 724 226 724 C246 724 265.333 718.333 284 707 L273 663 C259.667 672.333 246.333 677 233 677 C197 677 182 637 182 541 L182 458 L256 458 L256 412 L182 412 L182 -66 C182 -175.333 159 -240 91 -240 C73.6667 -240 58.6667 -237.333 46 -232 L46 -183 Z " />
<glyph glyph-name="uni0218" unicode="&#x218;" horiz-adv-x="360" >
<path fill="black" d="M47 73 C77.6667 54.3333 112.333 40 147 40 C208.333 40 235 97 235 185 C235 272.023 205.747 300.275 147 343 C91.2586 385.47 48 425.567 48 541 C48 666.333 98 725 174 725 C208.667 725 242.667 713.333 276 690 L259 643 C228.333 665.667 200 675 176 675 C124 675 97 629 97 545 C97 454.858 130.217 424.682 180 388 C244.655 336.815 284 305.627 284 188 C284 57.3333 232 -10 148 -10 C113.333 -10 76.3333 1.33333 47 20 L47 73 Z " /><g transform="translate(524,0)" ><path fill="black" d="M-407 -221 L-407 -211 C-398.819 -178.275 -385.588 -102.409 -383 -61 L-336 -61 L-336 -69 C-342.667 -115.667 -359.333 -177 -378 -221 L-407 -221 Z " /></g></glyph>
<glyph glyph-name="uni0219" unicode="&#x219;" horiz-adv-x="360" >
<path fill="black" d="M59 77 C87 54.3333 122 38 158 38 C211.333 38 229 75 229 135 C229 192.825 206.556 210.833 153 251 C102.378 290.964 63 320.772 63 406 C63 491.333 103 542 179 542 C213.667 542 241.333 531 272 511 L256 466 C229.333 484.667 203.667 494 179 494 C136.333 494 112 464 112 408 C112 350.637 137.729 331.779 189 294 C241.714 254.465 277 226.467 277 136 C277 42.6667 237.667 -10 155 -10 C116.333 -10 83 5.33333 59 24 L59 77 Z " /><g transform="translate(530,0)" ><path fill="black" d="M-407 -221 L-407 -211 C-398.819 -178.275 -385.588 -102.409 -383 -61 L-336 -61 L-336 -69 C-342.667 -115.667 -359.333 -177 -378 -221 L-407 -221 Z " /></g></glyph>
<glyph glyph-name="uni021A" unicode="&#x21a;" horiz-adv-x="360" >
<path fill="black" d="M141 0 L141 663 L27 663 L27 714 L304 714 L304 663 L189 663 L189 0 L141 0 Z " /><g transform="translate(525,0)" ><path fill="black" d="M-407 -221 L-407 -211 C-398.819 -178.275 -385.588 -102.409 -383 -61 L-336 -61 L-336 -69 C-342.667 -115.667 -359.333 -177 -378 -221 L-407 -221 Z " /></g></glyph>
<glyph glyph-name="uni021B" unicode="&#x21b;" horiz-adv-x="360" >
<path fill="black" d="M124 484 L40 484 L40 520 L126 533 L141 669 L173 669 L173 532 L288 532 L288 484 L172 484 L172 170 C172 82.6667 192.667 39 234 39 C252 39 271 43.3333 291 52 L291 4 C270.333 -5.33333 248 -10 224 -10 C160 -10 124 43.6667 124 161 L124 484 Z " /><g transform="translate(570,0)" ><path fill="black" d="M-407 -221 L-407 -211 C-398.819 -178.275 -385.588 -102.409 -383 -61 L-336 -61 L-336 -69 C-342.667 -115.667 -359.333 -177 -378 -221 L-407 -221 Z " /></g></glyph>
<glyph glyph-name="uni0237" unicode="&#x237;" horiz-adv-x="330" d="M32 -177 C50.6667 -187.667 83.3333 -197 106 -197 C148.667 -197 170 -152.667 170 -74 L170 484 L63 492 L63 532 L218 532 L218 -75 C218 -192.333 180.667 -246 110 -246 C82 -246 50.6667 -236 32 -228 L32 -177 Z " />
<glyph glyph-name="circumflex" unicode="&#x2c6;" horiz-adv-x="360" d="M81 606 L81 615 C101.634 656.268 129.706 722.459 143 765 L187 765 C203.113 719.348 230.443 652.113 249 615 L249 606 L221 606 C202.333 636.667 183.667 678.667 165 716 C146.333 680 125.333 635.333 108 606 L81 606 Z " />
<glyph glyph-name="caron" unicode="&#x2c7;" horiz-adv-x="360" d="M143 606 C128.333 651.333 101 714.667 81 756 L81 765 L109 765 C126.333 735.667 146.333 692.333 165 655 C183.667 695 199.667 726.333 221 765 L249 765 L249 756 C229 714.667 201.667 651.333 187 606 L143 606 Z " />
<glyph glyph-name="uni02C9" unicode="&#x2c9;" horiz-adv-x="360" >
<g transform="translate(1,-2)" ><path fill="black" d="M85 668 L242 668 L242 625 L85 625 L85 668 Z " /></g></glyph>
<glyph glyph-name="breve" unicode="&#x2d8;" horiz-adv-x="360" d="M117 728 C119.667 678.667 135.667 651 165 651 C194.333 651 211.333 678.667 214 728 L244 728 C242.667 653.333 211.667 610 165 610 C118.333 610 88.6667 649.333 86 728 L117 728 Z " />
<glyph glyph-name="dotaccent" unicode="&#x2d9;" horiz-adv-x="360" d="M165 647 C142.333 647 131 666 131 698 C131 730 142.333 750 165 750 C187.667 750 198 730 198 698 C198 667.333 187.667 647 165 647 Z " />
<glyph glyph-name="ring" unicode="&#x2da;" horiz-adv-x="360" d="M165 612 C125 612 97 649 97 709 C97 767.667 125 805 165 805 C203.667 805 233 768 233 708 C233 649.333 206.333 612 165 612 Z M165 647 C187.667 647 203 672 203 708 C203 745.333 187.667 769 165 769 C142.333 769 127 743.667 127 709 C127 671.667 142.333 647 165 647 Z " />
<glyph glyph-name="ogonek" unicode="&#x2db;" horiz-adv-x="360" d="M210 -213 C202 -217.667 191.667 -220 179 -220 C139 -220 119 -192 119 -136 C119 -82.6667 137.333 -33.6667 174 11 L201 0 C170.333 -44 157 -81 157 -125 C157 -161.667 167.333 -180 188 -180 C197.333 -180 204.667 -176.667 210 -174 L210 -213 Z " />
<glyph glyph-name="tilde" unicode="&#x2dc;" horiz-adv-x="360" d="M68 617 C70.6667 681 86.3333 725 121 725 C155.667 725 178.333 661 205 661 C220.333 661 229.333 682.333 232 725 L262 725 C259.333 653 237.333 617 208 617 C172.889 617 148.444 681 124 681 C109.333 681 100 659.667 96 617 L68 617 Z " />
<glyph glyph-name="hungarumlaut" unicode="&#x2dd;" horiz-adv-x="360" d="M94 606 L94 615 C115.326 660.319 138.336 728.675 149 766 L196 766 L196 758 C180.117 715.645 146.709 646.513 117 606 L94 606 Z M187 606 L187 615 C208.326 660.319 231.336 728.675 242 766 L289 766 L289 758 C273.117 715.645 239.709 646.513 210 606 L187 606 Z " />
<glyph glyph-name="uni0394" unicode="&#x394;" horiz-adv-x="360" d="M15 40 L136 714 L193 714 L315 38 L315 0 L15 0 L15 40 Z M263 50 L186 513 C178 559.667 169.333 620.333 164 659 C160 616.333 150.667 559.333 144 514 L68 50 L263 50 Z " />
<glyph glyph-name="uni03A9" unicode="&#x3a9;" horiz-adv-x="360" d="M18 50 L97 50 C55.6667 112.667 25 219 25 391 C25 619 76.6667 724 166 724 C254 724 305 622 305 390 C305 214 276.667 110 234 50 L313 50 L313 0 L187 0 L187 43 C237.667 111 257 220.333 257 387 C257 585.667 226 676 166 676 C106 676 74 587.333 74 390 C74 218 99 109.667 143 43 L143 0 L18 0 L18 50 Z " />
<glyph glyph-name="uni03BC" unicode="&#x3bc;" horiz-adv-x="360" >
<path fill="black" d="M43 227 L47 227 L47 532 L95 532 L95 184 C95 78.6667 118 38 162 38 C212.667 38 241 106 241 242 L241 532 L288 532 L288 0 L249 0 L243 93 L239 93 C224.333 33 193.667 -10 147 -10 C123.667 -10 104.667 -2.66667 90 12 L90 -240 L43 -240 L43 227 Z " /></glyph>
<glyph glyph-name="pi" unicode="&#x3c0;" horiz-adv-x="360" d="M69 485 L13 485 L13 512 L51 532 L313 532 L313 485 L258 485 L258 115 C258 63 265.667 41 287 41 C296.333 41 304 43 310 47 L310 1 C301.333 -4.33333 289 -7 273 -7 C233 -7 213 30.3333 213 105 L213 485 L113 485 L113 0 L69 0 L69 485 Z " />
<glyph glyph-name="Wgrave" unicode="&#x1e80;" horiz-adv-x="360" >
<path fill="black" d="M95 54 L111 226 L142 532 L187 532 L220 225 C225.242 169.955 233.39 96.373 236 52 L239 52 C239 100.345 243.316 223.685 246 272 C254 420 262.667 564.667 272 714 L315 714 L270 0 L212 0 L177 351 C173 399 168.667 424.333 166 459 L164 459 C161.333 424.333 158.333 399 153 351 L119 0 L61 0 L15 714 L56 714 C64 564.667 75 421.333 83 272 C85.6553 221.549 91.346 99.1181 94 54 L95 54 Z " /><g transform="translate(-6,182)" ><path fill="black" d="M171 606 C146.507 644.1 102.816 711.305 84 757 L84 766 L138 766 C154 718 183 656 203 616 L203 606 L171 606 Z " /></g></glyph>
<glyph glyph-name="wgrave" unicode="&#x1e81;" horiz-adv-x="360" >
<path fill="black" d="M94 57 C96.7344 89.813 104.571 155.855 110 202 L144 426 L188 426 L221 200 C228.971 157.489 235.402 92.3772 238 56 L240 56 C242.667 96 244.667 152.333 250 207 L277 532 L320 532 L265 0 L213 0 L182 237 C176.667 281 171.333 325.333 166 368 L165 368 C161 325.333 155.667 277.667 149 235 L117 0 L65 0 L11 532 L53 532 L82 209 C87.3333 153 89.3333 91.6667 92 57 L94 57 Z " /><g transform="translate(-4,0)" ><path fill="black" d="M171 606 C146.507 644.1 102.816 711.305 84 757 L84 766 L138 766 C154 718 183 656 203 616 L203 606 L171 606 Z " /></g></glyph>
<glyph glyph-name="Wacute" unicode="&#x1e82;" horiz-adv-x="360" >
<path fill="black" d="M95 54 L111 226 L142 532 L187 532 L220 225 C225.242 169.955 233.39 96.373 236 52 L239 52 C239 100.345 243.316 223.685 246 272 C254 420 262.667 564.667 272 714 L315 714 L270 0 L212 0 L177 351 C173 399 168.667 424.333 166 459 L164 459 C161.333 424.333 158.333 399 153 351 L119 0 L61 0 L15 714 L56 714 C64 564.667 75 421.333 83 272 C85.6553 221.549 91.346 99.1181 94 54 L95 54 Z " /><g transform="translate(-4,182)" ><path fill="black" d="M137 606 L137 616 C162.333 666.667 186 719.333 202 766 L256 766 L256 757 C236.745 712.989 197.07 645.64 168 606 L137 606 Z " /></g></glyph>
<glyph glyph-name="wacute" unicode="&#x1e83;" horiz-adv-x="360" >
<path fill="black" d="M94 57 C96.7344 89.813 104.571 155.855 110 202 L144 426 L188 426 L221 200 C228.971 157.489 235.402 92.3772 238 56 L240 56 C242.667 96 244.667 152.333 250 207 L277 532 L320 532 L265 0 L213 0 L182 237 C176.667 281 171.333 325.333 166 368 L165 368 C161 325.333 155.667 277.667 149 235 L117 0 L65 0 L11 532 L53 532 L82 209 C87.3333 153 89.3333 91.6667 92 57 L94 57 Z " /><g transform="translate(-2,0)" ><path fill="black" d="M137 606 L137 616 C162.333 666.667 186 719.333 202 766 L256 766 L256 757 C236.745 712.989 197.07 645.64 168 606 L137 606 Z " /></g></glyph>
<glyph glyph-name="Wdieresis" unicode="&#x1e84;" horiz-adv-x="360" >
<g transform="translate(0,171)" ><path fill="black" d="M107 630 C89.6667 630 78 648.667 78 678 C78 707.333 89.6667 725 107 725 C126.333 725 136 709.333 136 678 C136 647.333 125.667 630 107 630 Z M223 630 C205.667 630 194 648.667 194 678 C194 707.333 205.667 725 223 725 C242.333 725 252 709.333 252 678 C252 647.333 241.667 630 223 630 Z " /></g><path fill="black" d="M95 54 L111 226 L142 532 L187 532 L220 225 C225.242 169.955 233.39 96.373 236 52 L239 52 C239 100.345 243.316 223.685 246 272 C254 420 262.667 564.667 272 714 L315 714 L270 0 L212 0 L177 351 C173 399 168.667 424.333 166 459 L164 459 C161.333 424.333 158.333 399 153 351 L119 0 L61 0 L15 714 L56 714 C64 564.667 75 421.333 83 272 C85.6553 221.549 91.346 99.1181 94 54 L95 54 Z " /></glyph>
<glyph glyph-name="wdieresis" unicode="&#x1e85;" horiz-adv-x="360" >
<g transform="translate(2,-11)" ><path fill="black" d="M107 630 C89.6667 630 78 648.667 78 678 C78 707.333 89.6667 725 107 725 C126.333 725 136 709.333 136 678 C136 647.333 125.667 630 107 630 Z M223 630 C205.667 630 194 648.667 194 678 C194 707.333 205.667 725 223 725 C242.333 725 252 709.333 252 678 C252 647.333 241.667 630 223 630 Z " /></g><path fill="black" d="M94 57 C96.7344 89.813 104.571 155.855 110 202 L144 426 L188 426 L221 200 C228.971 157.489 235.402 92.3772 238 56 L240 56 C242.667 96 244.667 152.333 250 207 L277 532 L320 532 L265 0 L213 0 L182 237 C176.667 281 171.333 325.333 166 368 L165 368 C161 325.333 155.667 277.667 149 235 L117 0 L65 0 L11 532 L53 532 L82 209 C87.3333 153 89.3333 91.6667 92 57 L94 57 Z " /></glyph>
<glyph glyph-name="uni2010" unicode="&#x2010;" horiz-adv-x="330" >
<g transform="translate(4,0)" ><path fill="black" d="M84 300 L246 300 L246 249 L84 249 L84 300 Z " /></g></glyph>
<glyph glyph-name="endash" unicode="&#x2013;" horiz-adv-x="360" d="M53 300 L279 300 L279 249 L53 249 L53 300 Z " />
<glyph glyph-name="emdash" unicode="&#x2014;" horiz-adv-x="360" >
<g transform="translate(0,384)" ><path fill="black" d="M4 -84 L326 -84 L326 -135 L4 -135 L4 -84 Z " /></g></glyph>
<glyph glyph-name="quoteleft" unicode="&#x2018;" horiz-adv-x="360" >
<path fill="black" d="M128 475 L124 485 C134.667 565 150 642 170 714 L207 714 C191 634 180.333 547 175 475 L128 475 Z " /></glyph>
<glyph glyph-name="quoteright" unicode="&#x2019;" horiz-adv-x="360" >
<g transform="translate(3,0)" ><path fill="black" d="M123 475 C137.667 555 149.667 643.333 155 714 L202 714 L206 703 C195.333 624.333 180 548.333 160 475 L123 475 Z " /></g></glyph>
<glyph glyph-name="quotesinglbase" unicode="&#x201a;" horiz-adv-x="360" >
<g transform="translate(4,0)" ><path fill="black" d="M117 -130 C132.333 -40.6667 143 41 149 115 L198 115 L202 104 C191.333 28 173.667 -58 155 -130 L117 -130 Z " /></g></glyph>
<glyph glyph-name="quotedblleft" unicode="&#x201c;" horiz-adv-x="360" >
<g transform="translate(-50,0)" ><path fill="black" d="M128 475 L124 485 C134.667 565 150 642 170 714 L207 714 C191 634 180.333 547 175 475 L128 475 Z " /></g><g transform="translate(77,0)" ><path fill="black" d="M128 475 L124 485 C134.667 565 150 642 170 714 L207 714 C191 634 180.333 547 175 475 L128 475 Z " /></g></glyph>
<glyph glyph-name="quotedblright" unicode="&#x201d;" horiz-adv-x="360" >
<g transform="translate(-83,0)" ><path fill="black" d="M123 475 C137.667 555 149.667 643.333 155 714 L202 714 L206 703 C195.333 624.333 180 548.333 160 475 L123 475 Z " /></g><g transform="translate(44,0)" ><path fill="black" d="M123 475 C137.667 555 149.667 643.333 155 714 L202 714 L206 703 C195.333 624.333 180 548.333 160 475 L123 475 Z " /></g></glyph>
<glyph glyph-name="quotedblbase" unicode="&#x201e;" horiz-adv-x="360" >
<g transform="translate(-64,0)" ><path fill="black" d="M117 -130 C132.333 -40.6667 143 41 149 115 L198 115 L202 104 C191.333 28 173.667 -58 155 -130 L117 -130 Z " /></g><g transform="translate(62,0)" ><path fill="black" d="M117 -130 C132.333 -40.6667 143 41 149 115 L198 115 L202 104 C191.333 28 173.667 -58 155 -130 L117 -130 Z " /></g></glyph>
<glyph glyph-name="dagger" unicode="&#x2020;" horiz-adv-x="360" d="M139 0 L148 517 L53 512 L53 561 L148 553 L139 760 L190 760 L180 553 L276 561 L276 512 L180 517 L190 0 L139 0 Z " />
<glyph glyph-name="daggerdbl" unicode="&#x2021;" horiz-adv-x="360" d="M139 0 L148 190 L53 182 L53 232 L148 226 L142 384 L148 534 L53 528 L53 578 L148 569 L139 760 L188 760 L179 569 L276 578 L276 528 L179 534 L186 384 L179 226 L276 232 L276 182 L179 190 L188 0 L139 0 Z " />
<glyph glyph-name="bullet" unicode="&#x2022;" horiz-adv-x="360" d="M165 254 C119.667 254 94 294.333 94 365 C94 437 118.333 476 165 476 C211.667 476 236 437 236 365 C236 295.667 210.333 254 165 254 Z " />
<glyph glyph-name="ellipsis" unicode="&#x2026;" horiz-adv-x="360" >
<path fill="black" d="M167 -12 L165 -12 C143.667 -12 131 7 131 39 C131 71.6667 142.333 88 165 88 L167 88 L169 88 C191 88 202 71.6667 202 39 C202 5 191 -12 169 -12 L167 -12 Z " /></glyph>
<glyph glyph-name="perthousand" unicode="&#x2030;" horiz-adv-x="360" d="M84 -168 C25.3333 -168 -4 -89.6667 -4 57 C-4 205 25 279 83 279 C125 279 152.667 240.667 166 164 C176.667 240.667 203.333 279 246 279 C306 279 336 205 336 57 C336 -93 306.333 -168 247 -168 C205 -168 178 -128.667 166 -50 C154 -128.667 126.667 -168 84 -168 Z M165 456 C106.333 456 77 534.333 77 681 C77 829 106 903 164 903 C224 903 254 829 254 681 C254 531 224.333 456 165 456 Z M85 -126 C118.333 -126 136 -68.3333 136 57 C136 182.333 117.333 238 84 238 C50.6667 238 34 182.333 34 57 C34 -69.6667 50.3333 -126 85 -126 Z M248 -126 C281.333 -126 299 -68.3333 299 57 C299 182.333 280.333 238 247 238 C213.667 238 197 182.333 197 57 C197 -69.6667 213.333 -126 248 -126 Z M166 498 C199.333 498 217 555.667 217 681 C217 806.333 198.333 862 165 862 C131.667 862 115 806.333 115 681 C115 554.333 131.333 498 166 498 Z M28 357 L299 405 L299 374 L28 326 L28 357 Z " />
<glyph glyph-name="guilsinglleft" unicode="&#x2039;" horiz-adv-x="360" d="M197 73 L102 259 L102 272 L197 460 L230 440 L157 266 L230 93 L197 73 Z " />
<glyph glyph-name="guilsinglright" unicode="&#x203a;" horiz-adv-x="360" d="M174 295 L101 468 L134 488 L229 302 L229 289 L134 101 L101 121 L174 295 Z " />
<glyph glyph-name="fraction" unicode="&#x2044;" horiz-adv-x="360" d="M27 357 L298 405 L298 374 L27 326 L27 357 Z " />
<glyph glyph-name="franc" unicode="&#x20a3;" horiz-adv-x="360" d="M77 143 L30 143 L30 188 L77 188 L77 714 L281 714 L281 662 L126 662 L126 378 L269 378 L269 326 L126 326 L126 188 L216 188 L216 143 L126 143 L126 0 L77 0 L77 143 Z " />
<glyph glyph-name="lira" unicode="&#x20a4;" horiz-adv-x="360" d="M294 50 L294 0 L47 0 L47 46 C86.8337 69.9002 99 120.492 99 244 L47 244 L47 286 L99 286 L99 392 L47 392 L47 435 L99 435 L99 534 C99 656.667 135 724 207 724 C237.667 724 265 709.667 289 687 L272 643 C249.333 665.667 231.333 674 210 674 C166 674 147 631 147 531 L147 435 L239 435 L239 392 L147 392 L147 286 L239 286 L239 244 L146 244 C146 128.153 133.404 79.4045 104 50 L294 50 Z " />
<glyph glyph-name="peseta" unicode="&#x20a7;" horiz-adv-x="360" d="M24 714 L100 714 C192 714 234 651.333 234 518 C234 491.333 231.667 467.667 229 445 L258 445 L258 324 L326 324 L326 282 L258 282 L258 120 C258 62.6667 267 36 295 36 C304.333 36 318 39 326 43 L326 2 C316 -4.66667 302.667 -8 286 -8 C239.333 -8 216 31.3333 216 110 L216 282 L173 282 L173 309 L217 329 L227 438 C212.333 358 171.667 310 93 310 L72 310 L72 0 L24 0 L24 714 Z M89 361 C155.667 361 185 408.333 185 515 C185 620.333 158.333 663 97 663 L72 663 L72 361 L89 361 Z " />
<glyph glyph-name="Euro" unicode="&#x20ac;" horiz-adv-x="360" d="M31 299 L75 299 C75 316.333 74 333.333 74 352 C74 369.333 75 386.333 75 401 L31 401 L31 442 L77 442 C84.9569 598.485 127.804 725 213 725 C242.333 725 269.667 713.333 295 690 L278 643 C257.333 663.667 236 674 214 674 C157.879 674 133.056 581.643 125 442 L235 442 L235 401 L122 401 L122 354 C122 334 121.667 316.333 123 299 L225 299 L225 258 L125 258 C133 120.667 160.667 41 218 41 C243.333 41 262.667 50.3333 288 69 L288 15 C265.333 -1.66667 240.667 -10 214 -10 C131.333 -10 88.6667 87.3333 78 258 L31 258 L31 299 Z " />
<glyph glyph-name="uni2113" unicode="&#x2113;" horiz-adv-x="360" d="M102 287 C90 280.333 74 270.333 54 261 L54 305 C70 313 86 322.333 102 333 L102 569 C102 674.333 129.333 723 180 723 C230.667 723 258 672 258 576 C258 456 220.333 363 147 307 L147 163 C147 78.3333 161.333 36 190 36 C223.333 36 235.667 77.6667 237 151 L275 151 C273.667 47 246.333 -9 185 -9 C129 -9 102 48 102 156 L102 287 Z M147 353 C193.667 401 215 477.667 215 575 C215 645 203.667 680 181 680 C158.333 680 147 650.667 147 572 L147 353 Z " />
<glyph glyph-name="trademark" unicode="&#x2122;" horiz-adv-x="360" d="M149 368 L149 714 L192 714 L234 530 L277 714 L318 714 L318 368 L289 368 L289 559 C289 592.333 290 626.333 290 661 L288 661 L246 482 L221 482 L179 664 L177 664 C178.333 630.667 178 595.667 178 565 L178 368 L149 368 Z M50 368 L50 676 L-3 676 L-3 714 L134 714 L134 676 L81 676 L81 368 L50 368 Z " />
<glyph glyph-name="Omega" unicode="&#x2126;" horiz-adv-x="360" >
<g transform="translate(4,0)" ><path fill="black" d="M18 50 L97 50 C55.6667 112.667 25 219 25 391 C25 619 76.6667 724 166 724 C254 724 305 622 305 390 C305 214 276.667 110 234 50 L313 50 L313 0 L187 0 L187 43 C237.667 111 257 220.333 257 387 C257 585.667 226 676 166 676 C106 676 74 587.333 74 390 C74 218 99 109.667 143 43 L143 0 L18 0 L18 50 Z " /></g></glyph>
<glyph glyph-name="estimated" unicode="&#x212e;" horiz-adv-x="360" d="M77 83 C95.6667 52.3333 124.333 25 167 25 C227 25 262.333 74 289 142 L312 119 C279.715 43.6685 243.647 -17 168 -17 C60.2597 -17 4 110.896 4 263 C4 450.636 87.8961 535 168 535 C254.355 535 326 429.563 326 259 L77 259 L77 83 Z M77 301 L253 301 L253 436 C238.333 462.667 205.333 494 168 494 C125.333 494 98.3333 469 77 437 L77 301 Z " />
<glyph glyph-name="uni2219" unicode="&#x2219;" horiz-adv-x="330" >
<g transform="translate(8,282)" ><path fill="black" d="M165 -12 C142.333 -12 131 7 131 39 C131 71.6667 142.333 88 165 88 C187 88 198 71.6667 198 39 C198 5 187 -12 165 -12 Z " /></g></glyph>
<glyph glyph-name="radical" unicode="&#x221a;" horiz-adv-x="360" d="M284 814 L327 814 L179 -7 L135 -7 L69 384 L14 384 L14 430 L99 430 L157 67 L284 814 Z " />
<glyph glyph-name="infinity" unicode="&#x221e;" horiz-adv-x="360" d="M90 201 C43.3333 201 8 262 8 354 C8 446 39 506 87 506 C124.333 506 146.333 461.333 165 404 C180.974 454.583 204.042 505 243 505 C289.667 505 321 446.667 321 356 C321 261.333 287.667 201 241 201 C203.667 201 181.333 245.667 164 299 C144 239 124.667 201 90 201 Z M92 245 C121.333 245 134 289.667 150 351 C132.667 417.667 118 461 90 461 C64.6667 461 47 422 47 354 C47 288.667 64 245 92 245 Z M238 245 C264.667 245 283 289 283 353 C283 417 264.667 462 238 462 C212.667 462 201 419 181 351 C197 291 211.333 245 238 245 Z " />
<glyph glyph-name="approxequal" unicode="&#x2248;" horiz-adv-x="360" >
<g transform="translate(0,-100)" ><path fill="black" d="M291 348 C275 320 252.667 301 226 301 C199.333 301 182.667 312.333 160 331 C140 348.333 120.667 359 102 359 C80 359 59 339.333 39 300 L39 354 C56.3333 386 78.3333 406 105 406 C131.667 406 148.333 393.667 171 375 C193.667 357.667 210.333 347 229 347 C249 347 272.333 366 291 402 L291 348 Z " /></g><g transform="translate(0,102)" ><path fill="black" d="M291 348 C275 320 252.667 301 226 301 C199.333 301 182.667 312.333 160 331 C140 348.333 120.667 359 102 359 C80 359 59 339.333 39 300 L39 354 C56.3333 386 78.3333 406 105 406 C131.667 406 148.333 393.667 171 375 C193.667 357.667 210.333 347 229 347 C249 347 272.333 366 291 402 L291 348 Z " /></g></glyph>
<glyph glyph-name="lessequal" unicode="&#x2264;" horiz-adv-x="360" d="M35 349 L35 383 L286 581 L286 529 L89 366 L286 195 L286 144 L35 349 Z M36 0 L36 46 L285 46 L285 0 L36 0 Z " />
<glyph glyph-name="greaterequal" unicode="&#x2265;" horiz-adv-x="360" d="M39 195 L236 366 L39 529 L39 581 L290 383 L290 349 L39 144 L39 195 Z M40 47 L289 47 L289 0 L40 0 L40 47 Z " />
</font>
</svg>
