<?xml version="1.0" encoding="UTF-8"?>
<svg xmlns="http://www.w3.org/2000/svg" xmlns:xlink="http://www.w3.org/1999/xlink" version="1.1" >
<font id="Monoto-3Cd400Rg" horiz-adv-x="433">
<font-face  font-family="Monoto 3 Cd" units-per-em="1000" ascent="955" descent="-235" font-style="normal" font-weight="400" font-stretch="condensed" cap-height="714" x-height="536" underline-position="-75" underline-thickness="50" />
<missing-glyph horiz-adv-x="437" d="M39 0 L39 714 L369 714 L369 0 L39 0 Z M328 51 L328 663 L79 663 L79 51 L328 51 Z " />
<glyph glyph-name="uni0000" horiz-adv-x="437" />
<glyph glyph-name="uni000D" unicode="&#xd;" horiz-adv-x="437" />
<glyph glyph-name="space" unicode="&#x20;" horiz-adv-x="437" />
<glyph glyph-name="exclam" unicode="&#x21;" horiz-adv-x="437" d="M178 199 L163 714 L252 714 L238 199 L178 199 Z M208 -12 C177.333 -12 158 9 158 53 C158 95.6667 177.333 115 208 115 C236 115 257 97 257 53 C257 9 234.667 -12 208 -12 Z " />
<glyph glyph-name="quotedbl" unicode="&#x22;" horiz-adv-x="437" >
<g transform="translate(-71,0)" ><path fill="black" d="M176 456 L162 714 L245 714 L231 456 L176 456 Z " /></g><g transform="translate(71,0)" ><path fill="black" d="M176 456 L162 714 L245 714 L231 456 L176 456 Z " /></g></glyph>
<glyph glyph-name="numbersign" unicode="&#x23;" horiz-adv-x="437" d="M76 0 L97 218 L30 218 L30 280 L103 280 L119 451 L48 451 L48 512 L127 512 L146 714 L201 714 L180 512 L257 512 L277 714 L330 714 L310 512 L376 512 L376 451 L303 451 L288 280 L358 280 L358 218 L281 218 L259 0 L205 0 L226 218 L150 218 L129 0 L76 0 Z M233 280 L250 451 L173 451 L157 280 L233 280 Z " />
<glyph glyph-name="dollar" unicode="&#x24;" horiz-adv-x="437" d="M67 143 C97.6667 120.333 142.333 103.667 189 101 L189 337 C97 381 59 428.667 59 522 C59 615.333 110.333 676.667 189 686 L189 760 L230 760 L230 688 C271.333 684.667 308.333 673 341 653 L322 591 C294 609.667 264.667 618.333 230 621 L230 390 C316.667 346 359 300.667 359 210 C359 119.333 312.667 54.6667 230 40 L230 -58 L189 -58 L189 36 C139.667 37.3333 97.6667 50.3333 67 69 L67 143 Z M120 524 C120 464 138.333 440.333 189 411 L189 620 C145 613.333 120 576 120 524 Z M230 105 C276.667 115.667 298 154.333 298 205 C298 261 278 290.333 230 317 L230 105 Z " />
<glyph glyph-name="percent" unicode="&#x25;" horiz-adv-x="437" d="M13 168 L326 545 L392 545 L79 168 L13 168 Z M292 -9 C228 -9 182 53 182 161 C182 269 223.333 330 294 330 C358 330 404 269 404 161 C404 53 361.333 -9 292 -9 Z M112 383 C48 383 2 445 2 553 C2 661 43.3333 722 114 722 C178 722 224 661 224 553 C224 445 181.333 383 112 383 Z M293 42 C327.667 42 345 81.6667 345 161 C345 239 327.667 278 293 278 C258.333 278 241 239 241 161 C241 81.6667 258.333 42 293 42 Z M113 434 C147.667 434 165 473.667 165 553 C165 631 147.667 670 113 670 C78.3333 670 61 631 61 553 C61 473.667 78.3333 434 113 434 Z " />
<glyph glyph-name="ampersand" unicode="&#x26;" horiz-adv-x="437" d="M321 0 L291 60 C259 17.3333 217.333 -10 164 -10 C73.3853 -10 34 70 34 166 C34 262 75.6667 327 129 387 C98.3333 451 76 514.667 76 580 C76 666.667 115 724 179 724 C243 724 279 667.333 279 578 C279 494 246.333 428 205 376 L291 207 C304.333 252.333 311.667 299.333 313 338 L377 338 C373 270 358 194 330 130 L397 0 L321 0 Z M161 323 C127.667 281.667 101 233 101 165 C101 95.6667 127.333 57 170 57 C206 57 235.333 84.6667 258 126 L161 323 Z M174 439 C196.667 469.667 219 515.667 219 581 C219 634.333 205.667 661 179 661 C152.333 661 139 634.667 139 582 C139 530 155.333 477.667 174 439 Z " />
<glyph glyph-name="quotesingle" unicode="&#x27;" horiz-adv-x="437" d="M176 456 L162 714 L245 714 L231 456 L176 456 Z " />
<glyph glyph-name="parenleft" unicode="&#x28;" horiz-adv-x="437" d="M242 -163 C166 -49.6667 129 103 129 271 C129 441.667 170 598 242 714 L305 714 C235.667 583.333 200 432 200 272 C200 114.667 237 -39 305 -163 L242 -163 Z " />
<glyph glyph-name="parenright" unicode="&#x29;" horiz-adv-x="437" d="M86 -163 C155.333 -32.3333 191 119 191 279 C191 436.333 154 590 86 714 L149 714 C225 600.667 262 448 262 280 C262 109.333 221 -47 149 -163 L86 -163 Z " />
<glyph glyph-name="asterisk" unicode="&#x2a;" horiz-adv-x="437" d="M163 580 L68 591 L82 665 L179 629 L167 761 L240 761 L228 629 L325 666 L339 592 L242 580 L312 467 L251 428 L203 552 L154 428 L96 467 L163 580 Z " />
<glyph glyph-name="plus" unicode="&#x2b;" horiz-adv-x="437" d="M173 119 L173 321 L53 321 L53 385 L173 385 L173 588 L234 588 L234 385 L354 385 L354 321 L234 321 L234 119 L173 119 Z " />
<glyph glyph-name="comma" unicode="&#x2c;" horiz-adv-x="437" d="M129 -131 C145 -49.6667 159.333 43 166 115 L244 115 L250 104 C235.333 26.6667 211.333 -59 186 -131 L129 -131 Z " />
<glyph glyph-name="hyphen" unicode="&#x2d;" horiz-adv-x="437" d="M102 308 L304 308 L304 234 L102 234 L102 308 Z " />
<glyph glyph-name="period" unicode="&#x2e;" horiz-adv-x="437" d="M204 -12 C173.333 -12 154 9 154 53 C154 95.6667 173.333 115 204 115 C232 115 253 97 253 53 C253 9 230.667 -12 204 -12 Z " />
<glyph glyph-name="slash" unicode="&#x2f;" horiz-adv-x="437" d="M19 -3 L233 717 L299 717 L87 -3 L19 -3 Z " />
<glyph glyph-name="zero" unicode="0" horiz-adv-x="437" d="M202 -10 C77.6104 -10 27 127.074 27 358 C27 588.433 73.1082 725 202 725 C328.978 725 380 588.433 380 358 C380 127.074 335.281 -10 202 -10 Z M128 128 C144 84 167.333 59 202 59 C276.667 59 306 159.333 306 358 C306 410.667 304 457 300 497 L128 128 Z M277 600 C261 637.333 236 656 202 656 C130 656 102 554 102 358 C102 311.333 104.333 270 107 234 L277 600 Z " />
<glyph glyph-name="one" unicode="1" horiz-adv-x="437" d="M80 56 L185 66 L185 457 C185 511.562 187 586.673 187 629 C172.333 611.667 162.667 603.667 144 589 L87 542 L51 601 L198 714 L260 714 L260 66 L261 66 L357 56 L357 0 L80 0 L80 56 Z " />
<glyph glyph-name="two" unicode="2" horiz-adv-x="437" d="M47 71 L161 262 C219.715 358.079 268 427.581 268 529 C268 611.667 237 655 189 655 C147.667 655 110.333 624.333 81 591 L42 645 C84.6667 691.667 133 724 197 724 C289 724 345 653.333 345 536 C345 422.394 293.677 342.684 227 228 L143 80 L143 75 L361 75 L361 0 L47 0 L47 71 Z " />
<glyph glyph-name="three" unicode="3" horiz-adv-x="437" d="M44 106 C81.3333 76.6667 126.333 60 169 60 C245 60 277 115.333 277 202 C277 296.667 238.333 335 157 335 L117 335 L117 403 L158 403 C230 403 266 459 266 543 C266 613.667 240.667 655 186 655 C150 655 115.667 638 83 604 L48 662 C86.6667 700.667 135 724 191 724 C288.333 724 345 653 345 545 C345 457 308.667 390.667 242 376 L242 373 C320.667 358.333 359 298.667 359 200 C359 77.3853 294.281 -10 169 -10 C127.667 -10 82.6667 -0.333333 44 29 L44 106 Z " />
<glyph glyph-name="four" unicode="4" horiz-adv-x="437" d="M33 235 L222 718 L308 718 L308 238 L374 238 L374 163 L308 163 L308 0 L234 0 L234 163 L33 163 L33 235 Z M234 238 L234 421 C234 492.889 237 580.778 237 626 L235 626 C227 591.333 210.667 539.667 200 509 L104 238 L234 238 Z " />
<glyph glyph-name="five" unicode="5" horiz-adv-x="437" d="M51 107 C87 77.6667 131.333 60 170 60 C238.667 60 273 113 273 219 C273 315 236.333 366 171 366 C145.667 366 113.667 358.333 95 353 L61 380 L80 714 L320 714 L320 639 L147 639 L135 425 C157.667 430.333 176.333 436 199 436 C289.667 436 354 365.333 354 228 C354 78.6667 288.333 -10 171 -10 C124.333 -10 81.6667 2.33333 51 29 L51 107 Z " />
<glyph glyph-name="six" unicode="6" horiz-adv-x="437" d="M122 361 C143.333 409 174.667 446 228 446 C310.667 446 361 367 361 227 C361 81.6667 304 -10 208 -10 C110.667 -10 44 89.6667 44 311 C44 534.974 104.307 724 267 724 C288.333 724 311.333 721.667 326 715 L326 644 C310 652 291.333 656 270 656 C158.995 656 123.3 525.293 118 361 L122 361 Z M209 59 C255.667 59 286 115.667 286 225 C286 323.667 261.667 380 211 380 C159.39 380 122 319.182 122 239 C122 160.697 145.078 59 209 59 Z " />
<glyph glyph-name="seven" unicode="7" horiz-adv-x="437" d="M100 0 L281 639 L41 639 L41 714 L363 714 L363 648 L183 0 L100 0 Z " />
<glyph glyph-name="eight" unicode="8" horiz-adv-x="437" d="M198 -10 C108.667 -10 45 52.6667 45 182 C45 279.333 79 336.333 139 375 C88.3333 413.667 60 468.333 60 551 C60 669.355 125.641 725 203 725 C282.922 725 346 668.13 346 552 C346 466.667 316 414 260 378 C324 336.667 361 282 361 186 C361 64.6667 296.667 -10 198 -10 Z M202 60 C258 60 288 107 288 187 C288 254.558 266.626 292.119 197 343 C143.667 304.333 119 255.333 119 182 C119 107.333 146 60 202 60 Z M203 411 C248.333 441.667 272 481 272 549 C272 619.667 245.667 655 203 655 C160.333 655 134 620 134 548 C134 477.333 161.667 444.333 203 411 Z " />
<glyph glyph-name="nine" unicode="9" horiz-adv-x="437" d="M78 71 C94 61.6667 115.333 58 134 58 C236.951 58 280.634 189.337 286 353 L283 353 C259 302.333 228 269 176 269 C93.3333 269 44 346 44 486 C44 634 101 724 197 724 C297 724 360 622 360 410 C360 194.97 302.255 -10 137 -10 C115.667 -10 94 -7.66667 78 -1 L78 71 Z M193 334 C239.667 334 283 384 283 480 C283 550.433 259.874 655 197 655 C149 655 118 597 118 489 C118 390.333 145 334 193 334 Z " />
<glyph glyph-name="colon" unicode="&#x3a;" horiz-adv-x="437" >
<path fill="black" d="M204 -12 C173.333 -12 154 9 154 53 C154 95.6667 173.333 115 204 115 C232 115 253 97 253 53 C253 9 230.667 -12 204 -12 Z " /><g transform="translate(0,429)" ><path fill="black" d="M204 -12 C173.333 -12 154 9 154 53 C154 95.6667 173.333 115 204 115 C232 115 253 97 253 53 C253 9 230.667 -12 204 -12 Z " /></g></glyph>
<glyph glyph-name="semicolon" unicode="&#x3b;" horiz-adv-x="437" >
<g transform="translate(-3,0)" ><path fill="black" d="M129 -131 C145 -49.6667 159.333 43 166 115 L244 115 L250 104 C235.333 26.6667 211.333 -59 186 -131 L129 -131 Z " /></g><g transform="translate(-4,429)" ><path fill="black" d="M204 -12 C173.333 -12 154 9 154 53 C154 95.6667 173.333 115 204 115 C232 115 253 97 253 53 C253 9 230.667 -12 204 -12 Z " /></g></glyph>
<glyph glyph-name="less" unicode="&#x3c;" horiz-adv-x="437" d="M43 334 L43 379 L346 577 L346 503 L125 356 L346 207 L346 133 L43 334 Z " />
<glyph glyph-name="equal" unicode="&#x3d;" horiz-adv-x="437" d="M42 287 L364 287 L364 213 L42 213 L42 287 Z M42 491 L364 491 L364 417 L42 417 L42 491 Z " />
<glyph glyph-name="greater" unicode="&#x3e;" horiz-adv-x="437" d="M51 207 L272 356 L51 503 L51 577 L354 379 L354 334 L51 133 L51 207 Z " />
<glyph glyph-name="question" unicode="&#x3f;" horiz-adv-x="437" d="M150 199 L150 226 C150 299.333 163.667 340.667 205 394 C252.604 457.473 268 489.231 268 551 C268 617.667 242 653 194 653 C154 653 123 636.667 91 614 L64 678 C104 707.333 148.333 724 199 724 C291 724 341 663 341 555 C341 464.887 312.864 424.927 262 358 C219.427 302.123 210 274.979 210 218 L210 199 L150 199 Z M183 -12 C152.333 -12 133 9 133 53 C133 95.6667 152.333 115 183 115 C211 115 232 97 232 53 C232 9 209.667 -12 183 -12 Z " />
<glyph glyph-name="at" unicode="&#x40;" horiz-adv-x="437" d="M339 -49 C300.333 -75.6667 264.333 -89 219 -89 C73.329 -89 2 54.0779 2 294 C2 555.437 82.1515 714 217 714 C335.952 714 404 575.641 404 357 C404 233.156 382.004 109 319 109 C289.667 109 269.667 141 263 189 L261 190 C246.333 138 219.333 109 186 109 C131.333 109 97 179 97 295 C97 429.926 149.615 519 227 519 C257.667 519 288.333 507.667 307 497 L300 297 C298.667 283.667 299 268 299 256 C299 191.333 306.333 159 321 159 C343.667 159 354 230 354 358 C354 542.918 305.645 660 216 660 C112 660 54 525 54 297 C54 85 105 -34 221 -34 C262.333 -34 300.333 -21 339 3 L339 -49 Z M250 458 C242.667 465.333 234.333 469 225 469 C182.333 469 156 402.333 156 293 C156 206.333 171 159 199 159 C227 159 240 212.333 244 323 L250 458 Z " />
<glyph glyph-name="A" unicode="A" horiz-adv-x="437" d="M153 714 L251 714 L390 0 L315 0 L275 230 L132 230 L93 0 L17 0 L153 714 Z M262 301 L220 541 C213.333 575.667 206 619.333 202 650 C198 619.333 190.667 575.667 184 541 L144 301 L262 301 Z " />
<glyph glyph-name="B" unicode="B" horiz-adv-x="437" d="M53 0 L53 714 L181 714 C294.333 714 356 662.333 356 541 C356 453 324.333 393.667 267 379 L267 374 C329.667 358 370 310.333 370 205 C370 74.3333 306 0 198 0 L53 0 Z M124 71 L188 71 C262.667 71 295 120.667 295 206 C295 291.333 262 338 182 338 L124 338 L124 71 Z M124 409 L177 409 C250.333 409 282 448 282 528 C282 608 248 643 172 643 L124 643 L124 409 Z " />
<glyph glyph-name="C" unicode="C" horiz-adv-x="437" d="M367 16 C331 -2.66667 296 -10 248 -10 C109.411 -10 33 130.26 33 358 C33 566.97 110.948 726 255 726 C304.333 726 346.333 712 385 688 L357 622 C329 642 296.333 655 259 655 C156.645 655 109 523.874 109 357 C109 177.26 159.208 61 259 61 C299 61 332.333 73.3333 367 88 L367 16 Z " />
<glyph glyph-name="D" unicode="D" horiz-adv-x="437" d="M36 0 L36 714 L191 714 C315 714 386 594 386 366 C386 123.333 314.667 0 180 0 L36 0 Z M110 74 L176 74 C268 74 309 173 309 365 C309 561 269.667 640 175 640 L110 640 L110 74 Z " />
<glyph glyph-name="E" unicode="E" horiz-adv-x="437" d="M359 74 L359 0 L52 0 L52 714 L359 714 L359 640 L127 640 L127 407 L344 407 L344 333 L127 333 L127 74 L359 74 Z " />
<glyph glyph-name="F" unicode="F" horiz-adv-x="437" d="M52 0 L52 714 L359 714 L359 640 L127 640 L127 381 L348 381 L348 307 L127 307 L127 0 L52 0 Z " />
<glyph glyph-name="G" unicode="G" horiz-adv-x="437" d="M296 301 L219 301 L219 375 L368 375 L368 25 C321.333 2.33333 280.333 -10 231 -10 C83.3117 -10 21 147.182 21 359 C21 572.463 91.9177 726 235 726 C284.333 726 331.333 712.667 370 682 L343 617 C305.667 645 278 655 238 655 C146 655 97 547.667 97 357 C97 191.667 138.277 61 228 61 C254.667 61 274.667 66.3333 296 77 L296 301 Z " />
<glyph glyph-name="H" unicode="H" horiz-adv-x="437" d="M36 0 L36 714 L111 714 L111 406 L296 406 L296 714 L370 714 L370 0 L296 0 L296 332 L111 332 L111 0 L36 0 Z " />
<glyph glyph-name="I" unicode="I" horiz-adv-x="437" d="M60 56 L166 66 L166 648 L60 658 L60 714 L347 714 L347 658 L239 648 L239 66 L347 56 L347 0 L60 0 L60 56 Z " />
<glyph glyph-name="J" unicode="J" horiz-adv-x="437" d="M41 92 C71.6667 72 106.667 61 136 61 C208 61 247 117 247 217 L247 714 L320 714 L320 202 C320 76.6667 260.203 -10 143 -10 C104.333 -10 67.6667 0.333333 41 19 L41 92 Z " />
<glyph glyph-name="K" unicode="K" horiz-adv-x="437" d="M37 0 L37 714 L109 714 L109 352 C127.667 382.667 146.333 418.667 173 468 L296 714 L379 714 L214 395 L386 0 L303 0 L162 338 L109 266 L109 0 L37 0 Z " />
<glyph glyph-name="L" unicode="L" horiz-adv-x="437" d="M359 76 L359 0 L60 0 L60 714 L135 714 L135 76 L359 76 Z " />
<glyph glyph-name="M" unicode="M" horiz-adv-x="437" d="M25 0 L25 714 L128 714 L202 288 L204 288 L278 714 L382 714 L382 0 L315 0 L316 403 C316 483 320.667 571 326 647 L321 647 L238 203 L165 203 L84 647 L79 647 C83 587 91 491.667 91 401 L91 0 L25 0 Z " />
<glyph glyph-name="N" unicode="N" horiz-adv-x="437" d="M37 0 L37 714 L138 714 L308 84 L312 84 C312 107.778 303 186.222 303 250 L303 714 L370 714 L370 0 L273 0 L99 633 L94 633 C98 573 103 517 103 445 L103 0 L37 0 Z " />
<glyph glyph-name="O" unicode="O" horiz-adv-x="437" d="M204 -10 C67.974 -10 21 157.225 21 359 C21 599 77.6667 726 203 726 C336.463 726 386 564.407 386 358 C386 152.771 338.978 -10 204 -10 Z M204 61 C276 61 310 162 310 358 C310 552.667 275 655 203 655 C125.667 655 97 550 97 358 C97 164.667 132 61 204 61 Z " />
<glyph glyph-name="P" unicode="P" horiz-adv-x="437" d="M53 0 L53 714 L203 714 C317.667 714 370 640.667 370 506 C370 375.281 321.952 280 195 280 L126 280 L126 0 L53 0 Z M126 353 L188 353 C262.667 353 296 393 296 501 C296 597 266.667 641 200 641 L126 641 L126 353 Z " />
<glyph glyph-name="Q" unicode="Q" horiz-adv-x="437" d="M242 -6 C230 -8.66667 218.333 -10 205 -10 C68.974 -10 22 157.225 22 359 C22 599 78.6667 726 204 726 C337.463 726 387 564.407 387 358 C387 212.667 364.333 91.3333 303 30 L380 -179 L300 -179 L242 -6 Z M205 61 C277 61 311 162 311 358 C311 552.667 276 655 204 655 C126.667 655 98 550 98 358 C98 164.667 133 61 205 61 Z " />
<glyph glyph-name="R" unicode="R" horiz-adv-x="437" d="M53 0 L53 714 L181 714 C297 714 356 649.333 356 512 C356 398.667 318.667 342.333 268 317 L390 0 L308 0 L202 296 L125 296 L125 0 L53 0 Z M125 367 L180 367 C246.667 367 280 414.333 280 509 C280 605 246.333 643 177 643 L125 643 L125 367 Z " />
<glyph glyph-name="S" unicode="S" horiz-adv-x="437" d="M49 97 C90.3333 74.3333 134.333 61 177 61 C254.177 61 283 117.615 283 187 C283 263.431 245.476 292.245 176 335 C110.231 377.092 53 426.873 53 540 C53 668 118.667 726 216 726 C261.333 726 306.333 713.333 351 688 L325 621 C290.333 642.333 252.667 655 218 655 C154 655 128 612 128 544 C128 466.607 165.931 437.043 230 397 C306.361 346.97 359 310.815 359 193 C359 59.6667 289.667 -10 179 -10 C132.333 -10 85 1.66667 49 23 L49 97 Z " />
<glyph glyph-name="T" unicode="T" horiz-adv-x="437" d="M165 0 L165 640 L29 640 L29 714 L379 714 L379 640 L240 640 L240 0 L165 0 Z " />
<glyph glyph-name="U" unicode="U" horiz-adv-x="437" d="M36 714 L111 714 L111 223 C111 107 141.333 61 204 61 C268 61 296 108 296 224 L296 714 L370 714 L370 220 C370 62.6667 317.333 -10 204 -10 C90.6667 -10 36 62.6667 36 220 L36 714 Z " />
<glyph glyph-name="V" unicode="V" horiz-adv-x="437" d="M203 78 C209.667 123.333 218 185 230 245 L321 714 L394 714 L242 0 L162 0 L13 714 L85 714 L175 243 C185.667 185.667 196.667 124.667 202 78 L203 78 Z " />
<glyph glyph-name="W" unicode="W" horiz-adv-x="437" d="M112 75 C117.361 120.566 127.952 230.301 136 292 L167 535 L239 535 L273 290 C281.069 222.757 295.299 120.91 298 75 L301 75 C301 120.244 308.339 328.45 311 379 C316.333 491 321.333 600.667 328 714 L394 714 L349 0 L262 0 L221 330 C214.333 390 209 416.667 205 446 L202 446 C199.333 416.667 193.667 390 187 330 L147 0 L60 0 L13 714 L74 714 L95 378 C100.353 319.122 110 119.552 110 75 L112 75 Z " />
<glyph glyph-name="X" unicode="X" horiz-adv-x="437" d="M17 0 L158 373 L27 714 L107 714 L203 441 L300 714 L380 714 L244 370 L390 0 L309 0 L200 304 L96 0 L17 0 Z " />
<glyph glyph-name="Y" unicode="Y" horiz-adv-x="437" d="M166 0 L166 273 L17 714 L98 714 L203 348 L309 714 L390 714 L239 273 L239 0 L166 0 Z " />
<glyph glyph-name="Z" unicode="Z" horiz-adv-x="437" d="M52 66 L276 640 L62 640 L62 714 L357 714 L357 648 L135 74 L362 74 L362 0 L52 0 L52 66 Z " />
<glyph glyph-name="bracketleft" unicode="&#x5b;" horiz-adv-x="437" d="M318 -96 L318 -161 L147 -161 L147 719 L318 719 L318 655 L215 655 L215 -96 L318 -96 Z " />
<glyph glyph-name="backslash" unicode="&#x5c;" horiz-adv-x="437" d="M273 -3 L61 717 L127 717 L341 -3 L273 -3 Z " />
<glyph glyph-name="bracketright" unicode="&#x5d;" horiz-adv-x="437" d="M88 -99 L191 -99 L191 652 L88 652 L88 717 L259 717 L259 -163 L88 -163 L88 -99 Z " />
<glyph glyph-name="asciicircum" unicode="&#x5e;" horiz-adv-x="437" d="M34 331 L182 713 L224 713 L372 331 L303 331 L203 615 L103 331 L34 331 Z " />
<glyph glyph-name="underscore" unicode="&#x5f;" horiz-adv-x="437" d="M2 -80 L404 -80 L404 -154 L2 -154 L2 -80 Z " />
<glyph glyph-name="grave" unicode="&#x60;" horiz-adv-x="437" d="M87 766 L172 766 C188.382 719.583 221.589 654.469 243 617 L243 606 L195 606 C163.493 640.133 107.89 715.22 87 757 L87 766 Z " />
<glyph glyph-name="a" unicode="a" horiz-adv-x="437" d="M288 78 L286 78 C255.333 23.3333 220 -10 168 -10 C100 -10 48 41.3333 48 148 C48 261.333 103 313 211 317 L286 320 L286 356 C286 445.333 251.333 477 202 477 C163.333 477 128 458.667 96 436 L70 499 C112.667 528.333 153.333 546 208 546 C304 546 359 491.333 359 366 L359 0 L303 0 L288 78 Z M286 263 L230 260 C158 254.667 124 222 124 150 C124 86 154.333 59 189 59 C237.078 59 286 109.407 286 215 L286 263 Z " />
<glyph glyph-name="b" unicode="b" horiz-adv-x="437" d="M48 760 L121 760 L121 571 C121 533.667 120.667 497 118 461 L121 461 C145 510.333 180 546 232 546 C322.667 546 374 451.667 374 269 C374 86.3333 320 -10 232 -10 C184 -10 149 20.6667 121 70 L116 70 L103 0 L48 0 L48 760 Z M209 60 C269 60 298 132.333 298 267 C298 408.333 266.667 477 208 477 C150 477 121 409 121 273 C121 127.667 150.333 60 209 60 Z " />
<glyph glyph-name="c" unicode="c" horiz-adv-x="437" d="M351 19 C319 0.333333 284.333 -10 243 -10 C130.974 -10 56 71.8442 56 264 C56 466.615 132.818 546 245 546 C286.333 546 324.667 536.333 360 517 L336 451 C306.667 471 282 477 250 477 C171.333 477 133 410.333 133 265 C133 123.667 172 60 248 60 C284 60 319 72.3333 351 91 L351 19 Z " />
<glyph glyph-name="d" unicode="d" horiz-adv-x="437" d="M290 75 L286 75 C266 28.3333 231.667 -10 177 -10 C87.6667 -10 32 83.3333 32 266 C32 450 88.6667 546 178 546 C230 546 264.667 509.333 286 464 L291 464 C288.333 492 286 521 286 545 L286 760 L359 760 L359 0 L302 0 L290 75 Z M287 269 C287 399.667 268.667 477 202 477 C136.667 477 109 403 109 259 C109 125.667 132 60 200 60 C265.333 60 287 131 287 247 L287 269 Z " />
<glyph glyph-name="e" unicode="e" horiz-adv-x="437" d="M353 27 C314.333 1.66667 279 -10 231 -10 C109.667 -10 36 88 36 264 C36 438.667 100 546 208 546 C311.082 546 370 445.433 370 303 L370 251 L112 251 C114 123.667 154.667 60 234 60 C279.333 60 314.333 74.6667 353 100 L353 27 Z M297 318 C297 411.333 265.667 477 207 477 C151 477 118.333 420.667 113 318 L297 318 Z " />
<glyph glyph-name="f" unicode="f" horiz-adv-x="437" d="M150 0 L150 467 L40 467 L40 523 L150 538 L150 588 C150 723.974 195.688 765 280 765 C314.667 765 347.333 758.667 374 748 L356 684 C334 692.667 312.333 697 291 697 C247 697 224 674.667 224 588 L224 535 L359 535 L359 467 L224 467 L224 0 L150 0 Z " />
<glyph glyph-name="g" unicode="g" horiz-adv-x="437" d="M61 -135 C99.6667 -160.333 150.333 -175 185 -175 C254.333 -175 285 -116.667 285 -22 L285 6 C285 23.3333 285.333 59.3333 288 74 L285 74 C261 18 224 -9 180 -9 C88 -9 32 90.3333 32 265 C32 438.307 87.3377 546 179 546 C225 546 261 518.333 287 463 L291 463 L298 535 L359 535 L359 -15 C359 -168.333 301.333 -245 186 -245 C140.667 -245 99 -233.667 61 -211 L61 -135 Z M289 270 C289 411.333 263 477 203 477 C139 477 109 402 109 266 C109 130 140 60 204 60 C260.667 60 289 121.667 289 245 L289 270 Z " />
<glyph glyph-name="h" unicode="h" horiz-adv-x="437" d="M48 0 L48 760 L121 760 L121 529 C121 506.333 119.667 482.667 117 460 L122 460 C143.333 510.667 176 546 232 546 C308 546 363 485.667 363 351 L363 0 L290 0 L290 335 C290 429.667 264.333 477 213 477 C149 477 121 406.333 121 281 L121 0 L48 0 Z " />
<glyph glyph-name="i" unicode="i" horiz-adv-x="437" >
<path fill="black" d="M58 56 L173 66 L173 466 L65 479 L65 535 L246 535 L246 66 L348 56 L348 0 L58 0 L58 56 Z " /><g transform="translate(3,647)" ><path fill="black" d="M204 -12 C173.333 -12 154 9 154 53 C154 95.6667 173.333 115 204 115 C232 115 253 97 253 53 C253 9 230.667 -12 204 -12 Z " /></g></glyph>
<glyph glyph-name="j" unicode="j" horiz-adv-x="437" >
<path fill="black" d="M36 -157 C64 -166.333 101.667 -176 127 -176 C177.667 -176 204 -138.333 204 -69 L204 466 L67 479 L67 535 L277 535 L277 -64 C277 -188 228 -245 132 -245 C100 -245 64 -238.667 36 -228 L36 -157 Z " /><g transform="translate(30,646)" ><path fill="black" d="M204 -12 C173.333 -12 154 9 154 53 C154 95.6667 173.333 115 204 115 C232 115 253 97 253 53 C253 9 230.667 -12 204 -12 Z " /></g></glyph>
<glyph glyph-name="k" unicode="k" horiz-adv-x="437" d="M52 0 L52 760 L124 760 L124 408 C124 360 121.667 321.667 119 271 L120 271 C134.667 295 145 315.333 161 338 L290 535 L379 535 L217 304 L388 0 L301 0 L167 245 L124 200 L124 0 L52 0 Z " />
<glyph glyph-name="l" unicode="l" horiz-adv-x="437" d="M58 56 L167 66 L167 694 L63 704 L63 760 L241 760 L241 66 L348 56 L348 0 L58 0 L58 56 Z " />
<glyph glyph-name="m" unicode="m" horiz-adv-x="437" d="M22 0 L22 535 L73 535 L83 480 L87 480 C101 524 125 546 159 546 C197.667 546 216 522.333 228 477 L230 477 C246.667 523 272.333 546 307 546 C363 546 385 505 385 401 L385 0 L319 0 L319 392 C319 449.333 312.333 477 283 477 C243.052 477 237 415.156 237 343 L237 0 L169 0 L169 390 C169 450 162.667 477 136 477 C93.3333 477 88 399.563 88 333 L88 0 L22 0 Z " />
<glyph glyph-name="n" unicode="n" horiz-adv-x="437" d="M48 0 L48 535 L108 535 L118 461 L123 461 C144.333 517 185.667 546 235 546 C316.333 546 363 488.333 363 351 L363 0 L290 0 L290 347 C290 433.667 266 477 218 477 C154 477 121 407.667 121 281 L121 0 L48 0 Z " />
<glyph glyph-name="o" unicode="o" horiz-adv-x="437" d="M204 -10 C94.6667 -10 32 90 32 270 C32 446 94 546 202 546 C307.333 546 374 445.667 374 267 C374 89.6667 314.667 -10 204 -10 Z M203 58 C265.667 58 298 129.333 298 268 C298 406.667 264.333 478 203 478 C140.333 478 109 408.333 109 269 C109 128.333 140.333 58 203 58 Z " />
<glyph glyph-name="p" unicode="p" horiz-adv-x="437" d="M48 -240 L48 535 L107 535 L118 459 L122 459 C144.667 507 178.667 546 232 546 C322.667 546 374 453 374 269 C374 85 316 -10 232 -10 C180 -10 145 28.3333 121 71 L117 71 C118.333 52.3333 121 16.3333 121 -9 L121 -240 L48 -240 Z M121 267 C121 135 149 60 213 60 C269 60 298 132.667 298 270 C298 408 269.333 477 212 477 C146.667 477 121 408 121 288 L121 267 Z " />
<glyph glyph-name="q" unicode="q" horiz-adv-x="437" d="M286 -239 L286 -9 C286 19 287.333 44.3333 290 75 L286 75 C266 28.3333 231 -10 183 -10 C88.3333 -10 32 83.3333 32 266 C32 448.667 90.6667 546 184 546 C234.667 546 263.333 507.667 286 461 L290 461 L299 535 L359 535 L359 -239 L286 -239 Z M288 269 C288 397 264 476 204 476 C142.667 476 109 403.333 109 266 C109 128.667 144.667 60 202 60 C262.312 60 288 139.385 288 246 L288 269 Z " />
<glyph glyph-name="r" unicode="r" horiz-adv-x="437" d="M32 56 L127 66 L127 466 L36 479 L36 535 L186 535 L193 440 L197 440 C218.333 504 257.333 546 316 546 C336 546 359.333 541 382 529 L362 452 C346 462.667 323.333 466 306 466 C239.359 466 201 380.974 201 269 L201 66 L302 56 L302 0 L32 0 L32 56 Z " />
<glyph glyph-name="s" unicode="s" horiz-adv-x="437" d="M64 98 C98.6667 75.3333 145 58 193 58 C258.333 58 276 92.3333 276 139 C276 183.19 258.696 198.396 182 246 C115.488 288.567 68 318.851 68 405 C68 497 124 546 220 546 C264 546 299.333 535.667 342 513 L317 449 C278.333 470.333 249.333 478 220 478 C168 478 142 454.667 142 408 C142 364.145 168.861 344.749 241 302 C307.648 262.011 350 230.662 350 141 C350 42.3333 296 -10 188 -10 C137.333 -10 96 1.33333 64 24 L64 98 Z " />
<glyph glyph-name="t" unicode="t" horiz-adv-x="437" d="M146 467 L38 467 L38 516 L149 538 L173 677 L221 677 L221 535 L364 535 L364 467 L219 467 L219 159 C219 91 244.333 60 291 60 C309.667 60 334 63.6667 362 73 L362 4 C335.333 -5.33333 304.333 -10 275 -10 C200.463 -10 146 29.2338 146 145 L146 467 Z " />
<glyph glyph-name="u" unicode="u" horiz-adv-x="437" d="M44 535 L118 535 L118 189 C118 91.6667 142.667 59 196 59 C257.333 59 285 127 285 255 L285 535 L359 535 L359 0 L298 0 L287 75 L282 75 C260.667 17.6667 221.667 -10 171 -10 C89.6667 -10 44 48.6667 44 174 L44 535 Z " />
<glyph glyph-name="v" unicode="v" horiz-adv-x="437" d="M205 67 C213 111 227.333 174.333 238 217 L310 535 L383 535 L247 0 L158 0 L24 535 L96 535 L170 217 C180.667 174.333 193.667 111 203 67 L205 67 Z " />
<glyph glyph-name="w" unicode="w" horiz-adv-x="437" d="M110 67 C112.652 106.781 122.865 194.616 131 238 L165 443 L240 443 L274 238 C282.013 195.262 290.656 104.406 296 67 L298 67 C300.598 100.774 304.541 192.954 310 253 L334 535 L398 535 L340 0 L253 0 L224 208 C217.333 260 208.333 317 203 369 L201 369 C195.667 317 188 258 180 206 L151 0 L64 0 L10 535 L74 535 L98 253 C103.356 196.761 105.316 104.572 108 67 L110 67 Z " />
<glyph glyph-name="x" unicode="x" horiz-adv-x="437" d="M24 0 L159 275 L31 535 L115 535 L202 333 L293 535 L376 535 L246 272 L382 0 L297 0 L203 216 L108 0 L24 0 Z " />
<glyph glyph-name="y" unicode="y" horiz-adv-x="437" d="M37 -170 C49 -172.667 64.3333 -177 79 -177 C117.667 -177 138.333 -153 157 -81 L175 -5 L24 535 L101 535 L179 220 C192.333 167.333 202.333 119.333 209 76 L212 76 C217.333 118.667 228.667 178.333 238 221 L305 535 L384 535 L230 -73 C203.333 -177 160.333 -245 87 -245 C69.6667 -245 53 -241 37 -237 L37 -170 Z " />
<glyph glyph-name="z" unicode="z" horiz-adv-x="437" d="M52 57 L267 467 L63 467 L63 535 L349 535 L349 469 L138 69 L355 69 L355 0 L52 0 L52 57 Z " />
<glyph glyph-name="braceleft" unicode="&#x7b;" horiz-adv-x="437" d="M170 149 C170 217 147.667 249 89 249 L89 307 C141 307 170 331 170 407 L170 560 C170 664 222 714.333 318 717 L318 654 C267.333 651.333 240 626.667 240 556 L240 404 C240 330.667 217 292 165 280 L165 276 C218.333 262.667 240 222.667 240 152 L240 0 C240 -68 263.333 -96.6667 318 -98 L318 -161 C224.667 -158.333 170 -111 170 -3 L170 149 Z " />
<glyph glyph-name="bar" unicode="&#x7c;" horiz-adv-x="437" d="M170 -240 L170 760 L236 760 L236 -240 L170 -240 Z " />
<glyph glyph-name="braceright" unicode="&#x7d;" horiz-adv-x="437" d="M79 -98 C129.667 -95.3333 157 -70.6667 157 0 L157 152 C157 225.333 180 264 232 276 L232 280 C178.667 293.333 157 333.333 157 404 L157 556 C157 624 133.667 652.667 79 654 L79 717 C172.333 714.333 227 667 227 559 L227 407 C227 339 249.333 307 308 307 L308 249 C256 249 227 225 227 149 L227 -4 C227 -108 175 -158.333 79 -161 L79 -98 Z " />
<glyph glyph-name="asciitilde" unicode="&#x7e;" horiz-adv-x="437" d="M355 341 C335 310.333 307.667 293 277 293 C243.667 293 223.333 302 194 322 C167.333 340 144.667 349 126 349 C102 349 75.3333 327.333 50 290 L50 363 C72.6667 397 99.3333 414 130 414 C185.353 418.242 241.02 349.464 281 357 C305 357 333.667 380.333 355 415 L355 341 Z " />
<glyph glyph-name="uni00A0" unicode="&#xa0;" horiz-adv-x="437" />
<glyph glyph-name="exclamdown" unicode="&#xa1;" horiz-adv-x="437" d="M171 330 L231 330 L246 -185 L157 -185 L171 330 Z M201 414 C173 414 152 432 152 476 C152 520 174.333 541 201 541 C231.667 541 251 520 251 476 C251 433.333 231.667 414 201 414 Z " />
<glyph glyph-name="cent" unicode="&#xa2;" horiz-adv-x="437" d="M216 -10 L216 90 C114.667 104.667 68 201.667 68 363 C68 524.333 116 623.667 216 641 L216 724 L262 724 L262 643 C291.333 640.333 319.667 633.667 341 619 L319 556 C295 570.667 271.667 576 253 576 C174.333 576 140 505.333 140 364 C140 222.667 174.667 156 252 156 C278.667 156 309.667 166 335 182 L335 115 C317 101.667 292.667 93 262 89 L262 -10 L216 -10 Z " />
<glyph glyph-name="sterling" unicode="&#xa3;" horiz-adv-x="437" d="M365 72 L365 0 L61 0 L61 67 C97 88.3333 115 135.667 115 209 L115 327 L57 327 L57 389 L115 389 L115 543 C115 660.333 164 724 260 724 C300 724 333.333 709.667 364 683 L339 620 C312.333 642 287.667 653 265 653 C211.667 653 189 617.667 189 535 L189 389 L302 389 L302 327 L189 327 L189 210 C189 144.667 172.333 98.6667 139 72 L365 72 Z " />
<glyph glyph-name="currency" unicode="&#xa4;" horiz-adv-x="437" d="M26 173 L77 238 C57.6667 270.667 48 309 48 353 C48 397 57.6667 435.333 77 468 L25 534 L61 573 L113 506 C139 532.667 169 546 203 546 C237 546 267 533 293 507 L345 573 L382 535 L331 469 C349.667 433.667 359 395 359 353 C359 311 349.667 272.333 331 237 L382 171 L346 132 L293 198 C266.333 172.667 236.333 160 203 160 C168.333 160 138.333 173 113 199 L61 133 L26 173 Z M203 219 C266.134 219 303 281.974 303 354 C303 430 264 488 204 488 C144.182 488 103 425.697 103 352 C103 280.13 141.667 219 203 219 Z " />
<glyph glyph-name="yen" unicode="&#xa5;" horiz-adv-x="437" d="M76 188 L167 188 L167 277 L76 277 L76 333 L152 333 L45 714 L121 714 L204 375 L285 714 L362 714 L254 333 L332 333 L332 277 L241 277 L241 188 L332 188 L332 132 L241 132 L241 0 L167 0 L167 132 L76 132 L76 188 Z " />
<glyph glyph-name="brokenbar" unicode="&#xa6;" horiz-adv-x="437" d="M170 -238 L170 153 L236 153 L236 -238 L170 -238 Z M170 370 L170 761 L236 761 L236 370 L170 370 Z " />
<glyph glyph-name="section" unicode="&#xa7;" horiz-adv-x="437" d="M68 90 C93.3333 66 137.667 49 175 49 C217.667 49 257 75 257 131 C257 184.333 222 209 178 241 C106.168 291.548 74 326.268 74 389 C74 453 104.333 493.667 147 515 C116.333 545.667 98 580.333 98 635 C98 720.333 150.333 766 229 766 C263.667 766 291.667 757.667 325 735 L303 680 C273.667 700 252.333 708 227 708 C185.667 708 162 683 162 639 C162 588.333 194.667 558.667 228 536 C280.435 499.295 339 469.159 339 379 C339 319 312 268.667 276 246 C308 207.333 321 178.333 321 133 C321 43.6667 264.667 -9 174 -9 C131.333 -9 96 1.33333 68 22 L68 90 Z M235 277 C265.667 293 278 328 278 368 C278 417.22 257.936 440.272 188 486 C153.333 474 135 440 135 400 C135 342.772 177.088 324.473 207 300 L235 277 Z " />
<glyph glyph-name="dieresis" unicode="&#xa8;" horiz-adv-x="437" d="M127 626 C101.667 626 84 646 84 686 C84 724.667 101.667 743 127 743 C151 743 169 724.667 169 686 C169 644.667 151 626 127 626 Z M280 626 C254.667 626 237 646 237 686 C237 724.667 254.667 743 280 743 C304 743 322 724.667 322 686 C322 644.667 304 626 280 626 Z " />
<glyph glyph-name="copyright" unicode="&#xa9;" horiz-adv-x="437" d="M203 132 C87.3896 132 18 226.61 18 359 C18 495 93.0216 587 204 587 C317.048 587 389 494.329 389 360 C389 224 313.355 132 203 132 Z M203 173 C289.667 173 348 242 348 358 C348 472.667 290 545 202 545 C116.667 545 57 476 57 360 C57 247.974 116.126 173 203 173 Z M266 230 C248.667 222 232.333 217 211 217 C141.667 217 108 273.333 108 356 C108 442.667 143.333 502 210 502 C232 502 253.667 495.667 275 483 L259 443 C242.333 453 226.667 458 212 458 C173.333 458 152 424 152 356 C152 293.333 171 259 211 259 C228.333 259 247.333 265 266 273 L266 230 Z " />
<glyph glyph-name="ordfeminine" unicode="&#xaa;" horiz-adv-x="437" d="M250 435 C231.333 399 209.667 383 175 383 C128.333 383 93 418.333 93 481 C93 549 134 583.333 210 590 L243 594 L243 616 C243 657.333 228.333 673 195 673 C172.333 673 152.333 665.667 131 651 L114 695 C142 713.667 168 722 200 722 C265.333 722 298 685 298 611 L298 389 L259 389 L250 435 Z M243 546 L218 542 C172.667 536.667 149 526.667 149 484 C149 450.667 162.333 434 189 434 C223.667 434 243 467 243 519 L243 546 Z " />
<glyph glyph-name="guillemotleft" unicode="&#xab;" horiz-adv-x="437" >
<g transform="translate(-77,0)" ><path fill="black" d="M235 65 L119 257 L119 271 L235 464 L286 437 L202 264 L286 94 L235 65 Z " /></g><g transform="translate(79,0)" ><path fill="black" d="M235 65 L119 257 L119 271 L235 464 L286 437 L202 264 L286 94 L235 65 Z " /></g></glyph>
<glyph glyph-name="logicalnot" unicode="&#xac;" horiz-adv-x="437" d="M56 385 L352 385 L352 121 L291 121 L291 321 L56 321 L56 385 Z " />
<glyph glyph-name="uni00AD" unicode="&#xad;" horiz-adv-x="437" >
<g transform="translate(2,0)" ><path fill="black" d="M102 308 L304 308 L304 234 L102 234 L102 308 Z " /></g></glyph>
<glyph glyph-name="registered" unicode="&#xae;" horiz-adv-x="437" d="M204 132 C88.3896 132 19 226.61 19 359 C19 495 92.8918 587 204 587 C317.048 587 389 494.329 389 360 C389 224 313.307 132 204 132 Z M204 173 C289.333 173 348 242 348 358 C348 472.667 291 545 203 545 C116.333 545 58 476 58 360 C58 247.974 117.126 173 204 173 Z M129 220 L129 502 L193 502 C249 502 275 471 275 419 C275 372.333 255 349.667 235 339 L293 220 L247 220 L198 328 L168 328 L168 220 L129 220 Z M168 367 L192 367 C218.667 367 235 383 235 415 C235 445.667 220.667 461 192 461 L168 461 L168 367 Z " />
<glyph glyph-name="macron" unicode="&#xaf;" horiz-adv-x="437" d="M102 692 L302 692 L302 633 L102 633 L102 692 Z " />
<glyph glyph-name="degree" unicode="&#xb0;" horiz-adv-x="437" d="M202 455 C140.667 455 93 505 93 589 C93 673 142 723 202 723 C263.333 723 313 672 313 588 C313 506.225 262.39 455 202 455 Z M203 505 C237.667 505 265 535.667 265 589 C265 641 237.667 673 203 673 C165.667 673 140 638.667 140 588 C140 534.667 168.333 505 203 505 Z " />
<glyph glyph-name="plusminus" unicode="&#xb1;" horiz-adv-x="437" d="M172 136 L172 338 L52 338 L52 402 L172 402 L172 605 L233 605 L233 402 L353 402 L353 338 L233 338 L233 136 L172 136 Z M52 65 L354 65 L354 0 L52 0 L52 65 Z " />
<glyph glyph-name="twosuperior" unicode="&#xb2;" horiz-adv-x="437" d="M102 468 L176 577 C224.701 650.052 253 682.804 253 736 C253 772 233.667 796 199 796 C173 796 150.333 782.333 131 755 L101 798 C123.667 832.667 162.333 853 205 853 C273 853 311 808.333 311 739 C311 667.672 272.208 631.988 208 533 L168 470 L318 470 L318 415 L102 415 L102 468 Z " />
<glyph glyph-name="threesuperior" unicode="&#xb3;" horiz-adv-x="437" d="M106 494 C130 474.667 157.667 465 189 465 C237 465 257 489.667 257 535 C257 583 231.667 610 181 610 L153 610 L153 662 L179 662 C224.333 662 249 692.333 249 735 C249 773.667 227.667 796 193 796 C169 796 151.333 785 130 761 L102 806 C131.333 836.667 161.333 853 200 853 C261.333 853 303 812.333 303 743 C303 693 285 659.333 249 642 L249 638 C290.333 623.333 314 588 314 532 C314 452 262 407 190 407 C160 407 132 415 106 431 L106 494 Z " />
<glyph glyph-name="acute" unicode="&#xb4;" horiz-adv-x="437" d="M170 606 L170 617 C200.667 670.333 223.667 720.667 241 766 L326 766 L326 757 C304.56 714.119 251.204 642.835 217 606 L170 606 Z " />
<glyph glyph-name="mu" unicode="&#xb5;" horiz-adv-x="437" d="M44 227 L46 227 L46 535 L120 535 L120 189 C120 91.6667 144.667 59 198 59 C259.333 59 287 127 287 255 L287 535 L361 535 L361 0 L300 0 L289 75 L284 75 C262.667 17.6667 223.667 -10 173 -10 C151.667 -10 133 -6 117 2 L117 -240 L44 -240 L44 227 Z " />
<glyph glyph-name="paragraph" unicode="&#xb6;" horiz-adv-x="437" d="M180 -127 L180 279 C171.333 273 160.667 270 148 270 C82 270 49 350.667 49 512 C49 677.333 83.6667 760 165 760 L329 760 L329 -127 L280 -127 L280 705 L229 705 L229 -127 L180 -127 Z " />
<glyph glyph-name="periodcentered" unicode="&#xb7;" horiz-adv-x="437" >
<g transform="translate(2,282)" ><path fill="black" d="M204 -12 C173.333 -12 154 9 154 53 C154 95.6667 173.333 115 204 115 C232 115 253 97 253 53 C253 9 230.667 -12 204 -12 Z " /></g></glyph>
<glyph glyph-name="cedilla" unicode="&#xb8;" horiz-adv-x="437" d="M132 -182 C143.333 -186 154.667 -188 166 -188 C200.667 -188 216 -168.667 216 -138 C216 -102 194.667 -85.6667 156 -79 L183 0 L225 0 L209 -51 C253 -63 275 -93 275 -141 C275 -205 240 -240 176 -240 C161.333 -240 142.667 -238 132 -234 L132 -182 Z " />
<glyph glyph-name="onesuperior" unicode="&#xb9;" horiz-adv-x="437" d="M112 459 L189 463 L189 679 C189 709.667 188.333 740.333 191 771 L169 747 L124 704 L95 748 L197 843 L245 843 L245 463 L317 459 L317 415 L112 415 L112 459 Z " />
<glyph glyph-name="ordmasculine" unicode="&#xba;" horiz-adv-x="437" d="M209 383 C137 383 99 446 99 554 C99 660.667 139.667 722 209 722 C277 722 317 664.667 317 554 C317 446 279.667 383 209 383 Z M209 434 C247.667 434 263 472.667 263 554 C263 635.333 245 671 209 671 C173 671 155 636.667 155 554 C155 474 173 434 209 434 Z " />
<glyph glyph-name="guillemotright" unicode="&#xbb;" horiz-adv-x="437" >
<g transform="translate(-81,-30)" ><path fill="black" d="M204 295 L121 465 L171 494 L288 302 L288 288 L171 95 L121 122 L204 295 Z " /></g><g transform="translate(75,-30)" ><path fill="black" d="M204 295 L121 465 L171 494 L288 302 L288 288 L171 95 L121 122 L204 295 Z " /></g></glyph>
<glyph glyph-name="onequarter" unicode="&#xbc;" horiz-adv-x="437" >
<g transform="translate(-5,-576)" ><path fill="black" d="M88 555 L222 845 L281 845 L281 559 L329 559 L329 508 L281 508 L281 415 L226 415 L226 508 L88 508 L88 555 Z M226 559 L226 688 C226 721.333 225.667 739.667 227 765 C223 751.667 214 736 206 716 L140 559 L226 559 Z " /></g><g transform="translate(-3,50)" ><path fill="black" d="M112 459 L189 463 L189 679 C189 709.667 188.333 740.333 191 771 L169 747 L124 704 L95 748 L197 843 L245 843 L245 463 L317 459 L317 415 L112 415 L112 459 Z " /></g><path fill="black" d="M33 360 L367 409 L367 367 L33 317 L33 360 Z " /></glyph>
<glyph glyph-name="onehalf" unicode="&#xbd;" horiz-adv-x="437" >
<g transform="translate(-6,-576)" ><path fill="black" d="M102 468 L176 577 C224.701 650.052 253 682.804 253 736 C253 772 233.667 796 199 796 C173 796 150.333 782.333 131 755 L101 798 C123.667 832.667 162.333 853 205 853 C273 853 311 808.333 311 739 C311 667.672 272.208 631.988 208 533 L168 470 L318 470 L318 415 L102 415 L102 468 Z " /></g><g transform="translate(-3,50)" ><path fill="black" d="M112 459 L189 463 L189 679 C189 709.667 188.333 740.333 191 771 L169 747 L124 704 L95 748 L197 843 L245 843 L245 463 L317 459 L317 415 L112 415 L112 459 Z " /></g><path fill="black" d="M33 360 L367 409 L367 367 L33 317 L33 360 Z " /></glyph>
<glyph glyph-name="threequarters" unicode="&#xbe;" horiz-adv-x="437" >
<g transform="translate(-5,-576)" ><path fill="black" d="M88 555 L222 845 L281 845 L281 559 L329 559 L329 508 L281 508 L281 415 L226 415 L226 508 L88 508 L88 555 Z M226 559 L226 688 C226 721.333 225.667 739.667 227 765 C223 751.667 214 736 206 716 L140 559 L226 559 Z " /></g><g transform="translate(-5,50)" ><path fill="black" d="M106 494 C130 474.667 157.667 465 189 465 C237 465 257 489.667 257 535 C257 583 231.667 610 181 610 L153 610 L153 662 L179 662 C224.333 662 249 692.333 249 735 C249 773.667 227.667 796 193 796 C169 796 151.333 785 130 761 L102 806 C131.333 836.667 161.333 853 200 853 C261.333 853 303 812.333 303 743 C303 693 285 659.333 249 642 L249 638 C290.333 623.333 314 588 314 532 C314 452 262 407 190 407 C160 407 132 415 106 431 L106 494 Z " /></g><path fill="black" d="M33 360 L367 409 L367 367 L33 317 L33 360 Z " /></glyph>
<glyph glyph-name="questiondown" unicode="&#xbf;" horiz-adv-x="437" d="M341 -149 C301 -178.333 256.667 -195 206 -195 C114 -195 64 -134 64 -26 C64 64.1126 92.1358 104.073 143 171 C185.573 226.877 195 254.021 195 311 L195 330 L255 330 L255 303 C255 229.667 242.667 188.333 200 135 C152.396 71.5275 137 39.769 137 -22 C137 -88.6667 163 -124 211 -124 C251 -124 282 -107.667 314 -85 L341 -149 Z M223 414 C195 414 174 432 174 476 C174 520 196.333 541 223 541 C253.667 541 273 520 273 476 C273 433.333 253.667 414 223 414 Z " />
<glyph glyph-name="Agrave" unicode="&#xc0;" horiz-adv-x="437" >
<path fill="black" d="M153 714 L251 714 L390 0 L315 0 L275 230 L132 230 L93 0 L17 0 L153 714 Z M262 301 L220 541 C213.333 575.667 206 619.333 202 650 C198 619.333 190.667 575.667 184 541 L144 301 L262 301 Z " /><g transform="translate(0,181)" ><path fill="black" d="M87 766 L172 766 C188.382 719.583 221.589 654.469 243 617 L243 606 L195 606 C163.493 640.133 107.89 715.22 87 757 L87 766 Z " /></g></glyph>
<glyph glyph-name="Aacute" unicode="&#xc1;" horiz-adv-x="437" d="M153 714 L251 714 L390 0 L315 0 L275 230 L132 230 L93 0 L17 0 L153 714 Z M262 301 L220 541 C213.333 575.667 206 619.333 202 650 C198 619.333 190.667 575.667 184 541 L144 301 L262 301 Z M158 798 C188.667 851.333 211.667 901.667 229 947 L314 947 L314 938 C292.56 895.119 239.204 823.835 205 787 L158 787 L158 798 Z " />
<glyph glyph-name="Acircumflex" unicode="&#xc2;" horiz-adv-x="437" d="M153 714 L251 714 L390 0 L315 0 L275 230 L132 230 L93 0 L17 0 L153 714 Z M262 301 L220 541 C213.333 575.667 206 619.333 202 650 C198 619.333 190.667 575.667 184 541 L144 301 L262 301 Z M95 797 C123 845 154.333 904.333 169 947 L237 947 C254.333 901.667 285.333 839.667 312 797 L312 787 L271 787 C248.333 813.667 227 848.333 203 883 C177.667 848.333 153.667 811 135 787 L95 787 L95 797 Z " />
<glyph glyph-name="Atilde" unicode="&#xc3;" horiz-adv-x="437" >
<path fill="black" d="M153 714 L251 714 L390 0 L315 0 L275 230 L132 230 L93 0 L17 0 L153 714 Z M262 301 L220 541 C213.333 575.667 206 619.333 202 650 C198 619.333 190.667 575.667 184 541 L144 301 L262 301 Z " /><g transform="translate(0,181)" ><path fill="black" d="M83 610 C88.2531 673.037 102.036 730 150 730 C190.556 730 223.111 672 253 672 C270.333 672 275.667 695 281 731 L324 731 C320 652.333 294.333 611 257 611 C217.876 611 180.32 670 155 670 C137.667 670 130.333 648.667 125 610 L83 610 Z " /></g></glyph>
<glyph glyph-name="Adieresis" unicode="&#xc4;" horiz-adv-x="437" >
<g transform="translate(0,170)" ><path fill="black" d="M127 626 C101.667 626 84 646 84 686 C84 724.667 101.667 743 127 743 C151 743 169 724.667 169 686 C169 644.667 151 626 127 626 Z M280 626 C254.667 626 237 646 237 686 C237 724.667 254.667 743 280 743 C304 743 322 724.667 322 686 C322 644.667 304 626 280 626 Z " /></g><path fill="black" d="M153 714 L251 714 L390 0 L315 0 L275 230 L132 230 L93 0 L17 0 L153 714 Z M262 301 L220 541 C213.333 575.667 206 619.333 202 650 C198 619.333 190.667 575.667 184 541 L144 301 L262 301 Z " /></glyph>
<glyph glyph-name="Aring" unicode="&#xc5;" horiz-adv-x="437" d="M153 714 L251 714 L390 0 L315 0 L275 230 L132 230 L93 0 L17 0 L153 714 Z M262 301 L220 541 C213.333 575.667 206 619.333 202 650 C198 619.333 190.667 575.667 184 541 L144 301 L262 301 Z M204 790 C149.333 790 116 829.667 116 891 C116 951 149.333 990 204 990 C254.667 990 290 951 290 891 C290 831 256 790 204 790 Z M204 837 C228 837 246 857.667 246 891 C246 921.667 230.667 944 204 944 C177.333 944 161 921.667 161 891 C161 857.667 177.333 837 204 837 Z " />
<glyph glyph-name="AE" unicode="&#xc6;" horiz-adv-x="437" d="M131 714 L385 714 L385 638 L265 638 L265 410 L373 410 L373 334 L265 334 L265 76 L385 76 L385 0 L198 0 L198 231 L122 231 L87 0 L17 0 L131 714 Z M198 304 L198 638 L183 638 L133 304 L198 304 Z " />
<glyph glyph-name="Ccedilla" unicode="&#xc7;" horiz-adv-x="437" d="M166 -182 C177.333 -186 188.667 -188 200 -188 C234.667 -188 250 -168.667 250 -138 C250 -102 228.667 -85.6667 190 -79 L215 -7 C97.6667 14.3333 33 148.667 33 358 C33 566.97 110.948 726 255 726 C304.333 726 346.333 712 385 688 L357 622 C329 642 296.333 655 259 655 C156.645 655 109 523.874 109 357 C109 177.26 159.208 61 259 61 C299 61 332.333 73.3333 367 88 L367 16 C332.333 -2.66667 300 -8.66667 256 -10 L243 -51 C287 -63 309 -93 309 -141 C309 -205 274 -240 210 -240 C195.333 -240 176.667 -238 166 -234 L166 -182 Z " />
<glyph glyph-name="Egrave" unicode="&#xc8;" horiz-adv-x="437" >
<path fill="black" d="M359 74 L359 0 L52 0 L52 714 L359 714 L359 640 L127 640 L127 407 L344 407 L344 333 L127 333 L127 74 L359 74 Z " /><g transform="translate(0,179)" ><path fill="black" d="M87 766 L172 766 C188.382 719.583 221.589 654.469 243 617 L243 606 L195 606 C163.493 640.133 107.89 715.22 87 757 L87 766 Z " /></g></glyph>
<glyph glyph-name="Eacute" unicode="&#xc9;" horiz-adv-x="437" >
<path fill="black" d="M359 74 L359 0 L52 0 L52 714 L359 714 L359 640 L127 640 L127 407 L344 407 L344 333 L127 333 L127 74 L359 74 Z " /><g transform="translate(-12,179)" ><path fill="black" d="M170 606 L170 617 C200.667 670.333 223.667 720.667 241 766 L326 766 L326 757 C304.56 714.119 251.204 642.835 217 606 L170 606 Z " /></g></glyph>
<glyph glyph-name="Ecircumflex" unicode="&#xca;" horiz-adv-x="437" >
<path fill="black" d="M359 74 L359 0 L52 0 L52 714 L359 714 L359 640 L127 640 L127 407 L344 407 L344 333 L127 333 L127 74 L359 74 Z " /><g transform="translate(0,179)" ><path fill="black" d="M95 606 L95 616 C123 664 154.333 723.333 169 766 L237 766 C254.333 720.667 285.333 658.667 312 616 L312 606 L271 606 C248.333 632.667 227 667.333 203 702 C177.667 667.333 153.667 630 135 606 L95 606 Z " /></g></glyph>
<glyph glyph-name="Edieresis" unicode="&#xcb;" horiz-adv-x="437" >
<g transform="translate(0,168)" ><path fill="black" d="M127 626 C101.667 626 84 646 84 686 C84 724.667 101.667 743 127 743 C151 743 169 724.667 169 686 C169 644.667 151 626 127 626 Z M280 626 C254.667 626 237 646 237 686 C237 724.667 254.667 743 280 743 C304 743 322 724.667 322 686 C322 644.667 304 626 280 626 Z " /></g><path fill="black" d="M359 74 L359 0 L52 0 L52 714 L359 714 L359 640 L127 640 L127 407 L344 407 L344 333 L127 333 L127 74 L359 74 Z " /></glyph>
<glyph glyph-name="Igrave" unicode="&#xcc;" horiz-adv-x="437" >
<path fill="black" d="M60 56 L166 66 L166 648 L60 658 L60 714 L347 714 L347 658 L239 648 L239 66 L347 56 L347 0 L60 0 L60 56 Z " /><g transform="translate(0,179)" ><path fill="black" d="M87 766 L172 766 C188.382 719.583 221.589 654.469 243 617 L243 606 L195 606 C163.493 640.133 107.89 715.22 87 757 L87 766 Z " /></g></glyph>
<glyph glyph-name="Iacute" unicode="&#xcd;" horiz-adv-x="437" >
<path fill="black" d="M60 56 L166 66 L166 648 L60 658 L60 714 L347 714 L347 658 L239 648 L239 66 L347 56 L347 0 L60 0 L60 56 Z " /><g transform="translate(-12,179)" ><path fill="black" d="M170 606 L170 617 C200.667 670.333 223.667 720.667 241 766 L326 766 L326 757 C304.56 714.119 251.204 642.835 217 606 L170 606 Z " /></g></glyph>
<glyph glyph-name="Icircumflex" unicode="&#xce;" horiz-adv-x="437" >
<path fill="black" d="M60 56 L166 66 L166 648 L60 658 L60 714 L347 714 L347 658 L239 648 L239 66 L347 56 L347 0 L60 0 L60 56 Z " /><g transform="translate(0,179)" ><path fill="black" d="M95 606 L95 616 C123 664 154.333 723.333 169 766 L237 766 C254.333 720.667 285.333 658.667 312 616 L312 606 L271 606 C248.333 632.667 227 667.333 203 702 C177.667 667.333 153.667 630 135 606 L95 606 Z " /></g></glyph>
<glyph glyph-name="Idieresis" unicode="&#xcf;" horiz-adv-x="437" >
<g transform="translate(0,168)" ><path fill="black" d="M127 626 C101.667 626 84 646 84 686 C84 724.667 101.667 743 127 743 C151 743 169 724.667 169 686 C169 644.667 151 626 127 626 Z M280 626 C254.667 626 237 646 237 686 C237 724.667 254.667 743 280 743 C304 743 322 724.667 322 686 C322 644.667 304 626 280 626 Z " /></g><path fill="black" d="M60 56 L166 66 L166 648 L60 658 L60 714 L347 714 L347 658 L239 648 L239 66 L347 56 L347 0 L60 0 L60 56 Z " /></glyph>
<glyph glyph-name="Eth" unicode="&#xd0;" horiz-adv-x="437" d="M46 333 L2 333 L2 402 L46 402 L46 714 L201 714 C325 714 396 594 396 366 C396 123.333 324.667 0 190 0 L46 0 L46 333 Z M186 74 C278 74 319 173 319 365 C319 561 279.667 640 185 640 L120 640 L120 402 L230 402 L230 333 L120 333 L120 74 L186 74 Z " />
<glyph glyph-name="Ntilde" unicode="&#xd1;" horiz-adv-x="437" >
<path fill="black" d="M37 0 L37 714 L138 714 L308 84 L312 84 C312 107.778 303 186.222 303 250 L303 714 L370 714 L370 0 L273 0 L99 633 L94 633 C98 573 103 517 103 445 L103 0 L37 0 Z " /><g transform="translate(5,179)" ><path fill="black" d="M83 610 C88.2531 673.037 102.036 730 150 730 C190.556 730 223.111 672 253 672 C270.333 672 275.667 695 281 731 L324 731 C320 652.333 294.333 611 257 611 C217.876 611 180.32 670 155 670 C137.667 670 130.333 648.667 125 610 L83 610 Z " /></g></glyph>
<glyph glyph-name="Ograve" unicode="&#xd2;" horiz-adv-x="437" >
<path fill="black" d="M204 -10 C67.974 -10 21 157.225 21 359 C21 599 77.6667 726 203 726 C336.463 726 386 564.407 386 358 C386 152.771 338.978 -10 204 -10 Z M204 61 C276 61 310 162 310 358 C310 552.667 275 655 203 655 C125.667 655 97 550 97 358 C97 164.667 132 61 204 61 Z " /><g transform="translate(0,179)" ><path fill="black" d="M87 766 L172 766 C188.382 719.583 221.589 654.469 243 617 L243 606 L195 606 C163.493 640.133 107.89 715.22 87 757 L87 766 Z " /></g></glyph>
<glyph glyph-name="Oacute" unicode="&#xd3;" horiz-adv-x="437" >
<path fill="black" d="M204 -10 C67.974 -10 21 157.225 21 359 C21 599 77.6667 726 203 726 C336.463 726 386 564.407 386 358 C386 152.771 338.978 -10 204 -10 Z M204 61 C276 61 310 162 310 358 C310 552.667 275 655 203 655 C125.667 655 97 550 97 358 C97 164.667 132 61 204 61 Z " /><g transform="translate(-12,179)" ><path fill="black" d="M170 606 L170 617 C200.667 670.333 223.667 720.667 241 766 L326 766 L326 757 C304.56 714.119 251.204 642.835 217 606 L170 606 Z " /></g></glyph>
<glyph glyph-name="Ocircumflex" unicode="&#xd4;" horiz-adv-x="437" >
<path fill="black" d="M204 -10 C67.974 -10 21 157.225 21 359 C21 599 77.6667 726 203 726 C336.463 726 386 564.407 386 358 C386 152.771 338.978 -10 204 -10 Z M204 61 C276 61 310 162 310 358 C310 552.667 275 655 203 655 C125.667 655 97 550 97 358 C97 164.667 132 61 204 61 Z " /><g transform="translate(0,179)" ><path fill="black" d="M95 606 L95 616 C123 664 154.333 723.333 169 766 L237 766 C254.333 720.667 285.333 658.667 312 616 L312 606 L271 606 C248.333 632.667 227 667.333 203 702 C177.667 667.333 153.667 630 135 606 L95 606 Z " /></g></glyph>
<glyph glyph-name="Otilde" unicode="&#xd5;" horiz-adv-x="437" >
<path fill="black" d="M204 -10 C67.974 -10 21 157.225 21 359 C21 599 77.6667 726 203 726 C336.463 726 386 564.407 386 358 C386 152.771 338.978 -10 204 -10 Z M204 61 C276 61 310 162 310 358 C310 552.667 275 655 203 655 C125.667 655 97 550 97 358 C97 164.667 132 61 204 61 Z " /><g transform="translate(0,179)" ><path fill="black" d="M83 610 C88.2531 673.037 102.036 730 150 730 C190.556 730 223.111 672 253 672 C270.333 672 275.667 695 281 731 L324 731 C320 652.333 294.333 611 257 611 C217.876 611 180.32 670 155 670 C137.667 670 130.333 648.667 125 610 L83 610 Z " /></g></glyph>
<glyph glyph-name="Odieresis" unicode="&#xd6;" horiz-adv-x="437" >
<g transform="translate(0,168)" ><path fill="black" d="M127 626 C101.667 626 84 646 84 686 C84 724.667 101.667 743 127 743 C151 743 169 724.667 169 686 C169 644.667 151 626 127 626 Z M280 626 C254.667 626 237 646 237 686 C237 724.667 254.667 743 280 743 C304 743 322 724.667 322 686 C322 644.667 304 626 280 626 Z " /></g><path fill="black" d="M204 -10 C67.974 -10 21 157.225 21 359 C21 599 77.6667 726 203 726 C336.463 726 386 564.407 386 358 C386 152.771 338.978 -10 204 -10 Z M204 61 C276 61 310 162 310 358 C310 552.667 275 655 203 655 C125.667 655 97 550 97 358 C97 164.667 132 61 204 61 Z " /></glyph>
<glyph glyph-name="multiply" unicode="&#xd7;" horiz-adv-x="437" d="M54 215 L161 353 L54 490 L94 536 L202 398 L311 537 L354 493 L245 353 L351 215 L311 171 L202 308 L94 170 L54 215 Z " />
<glyph glyph-name="Oslash" unicode="&#xd8;" horiz-adv-x="437" d="M56 117 C33.3333 182.333 23 267 23 359 C23 599 79.6667 726 205 726 C253 726 290 705 318 669 L356 749 L403 718 L351 608 C377.667 542.667 388 455.333 388 358 C388 152.771 340.978 -10 206 -10 C155.333 -10 116 14 88 54 L44 -39 L-3 -9 L56 117 Z M126 135 C144 85.6667 170.667 61 206 61 C278 61 312 162 312 358 C312 416 309 465.333 303 506 L126 135 Z M281 591 C263 633.667 237.667 655 205 655 C127.667 655 99 550 99 358 C99 306 101.667 260.667 107 222 L281 591 Z " />
<glyph glyph-name="Ugrave" unicode="&#xd9;" horiz-adv-x="437" >
<path fill="black" d="M36 714 L111 714 L111 223 C111 107 141.333 61 204 61 C268 61 296 108 296 224 L296 714 L370 714 L370 220 C370 62.6667 317.333 -10 204 -10 C90.6667 -10 36 62.6667 36 220 L36 714 Z " /><g transform="translate(0,179)" ><path fill="black" d="M87 766 L172 766 C188.382 719.583 221.589 654.469 243 617 L243 606 L195 606 C163.493 640.133 107.89 715.22 87 757 L87 766 Z " /></g></glyph>
<glyph glyph-name="Uacute" unicode="&#xda;" horiz-adv-x="437" >
<path fill="black" d="M36 714 L111 714 L111 223 C111 107 141.333 61 204 61 C268 61 296 108 296 224 L296 714 L370 714 L370 220 C370 62.6667 317.333 -10 204 -10 C90.6667 -10 36 62.6667 36 220 L36 714 Z " /><g transform="translate(-12,179)" ><path fill="black" d="M170 606 L170 617 C200.667 670.333 223.667 720.667 241 766 L326 766 L326 757 C304.56 714.119 251.204 642.835 217 606 L170 606 Z " /></g></glyph>
<glyph glyph-name="Ucircumflex" unicode="&#xdb;" horiz-adv-x="437" >
<path fill="black" d="M36 714 L111 714 L111 223 C111 107 141.333 61 204 61 C268 61 296 108 296 224 L296 714 L370 714 L370 220 C370 62.6667 317.333 -10 204 -10 C90.6667 -10 36 62.6667 36 220 L36 714 Z " /><g transform="translate(0,179)" ><path fill="black" d="M95 606 L95 616 C123 664 154.333 723.333 169 766 L237 766 C254.333 720.667 285.333 658.667 312 616 L312 606 L271 606 C248.333 632.667 227 667.333 203 702 C177.667 667.333 153.667 630 135 606 L95 606 Z " /></g></glyph>
<glyph glyph-name="Udieresis" unicode="&#xdc;" horiz-adv-x="437" >
<g transform="translate(0,168)" ><path fill="black" d="M127 626 C101.667 626 84 646 84 686 C84 724.667 101.667 743 127 743 C151 743 169 724.667 169 686 C169 644.667 151 626 127 626 Z M280 626 C254.667 626 237 646 237 686 C237 724.667 254.667 743 280 743 C304 743 322 724.667 322 686 C322 644.667 304 626 280 626 Z " /></g><path fill="black" d="M36 714 L111 714 L111 223 C111 107 141.333 61 204 61 C268 61 296 108 296 224 L296 714 L370 714 L370 220 C370 62.6667 317.333 -10 204 -10 C90.6667 -10 36 62.6667 36 220 L36 714 Z " /></glyph>
<glyph glyph-name="Yacute" unicode="&#xdd;" horiz-adv-x="437" >
<path fill="black" d="M166 0 L166 273 L17 714 L98 714 L203 348 L309 714 L390 714 L239 273 L239 0 L166 0 Z " /><g transform="translate(-12,179)" ><path fill="black" d="M170 606 L170 617 C200.667 670.333 223.667 720.667 241 766 L326 766 L326 757 C304.56 714.119 251.204 642.835 217 606 L170 606 Z " /></g></glyph>
<glyph glyph-name="Thorn" unicode="&#xde;" horiz-adv-x="437" d="M52 0 L52 714 L126 714 L126 593 L202 593 C318 593 370 519.667 370 385 C370 253.39 321.952 160 195 160 L126 160 L126 0 L52 0 Z M126 233 L188 233 C261.333 233 294 271.667 294 381 C294 477 265.333 520 200 520 L126 520 L126 233 Z " />
<glyph glyph-name="germandbls" unicode="&#xdf;" horiz-adv-x="437" d="M61 587 C61 693.667 107.333 765 202 765 C283.333 765 336 710.667 336 620 C336 508.222 267 495.111 267 410 C267 376.667 276.333 355.333 303 314 C349.233 246.01 370 215.481 370 146 C370 50 327 -10 251 -10 C224.333 -10 194.667 -1.66667 172 17 L172 92 C193.333 73.3333 216.333 60 243 60 C279 60 297 90.6667 297 144 C297 196 280 222.667 248 264 C220 302.667 190 344 190 408 C190 506.667 260 522.667 260 616 C260 666.667 239.333 697 198 697 C151.333 697 132 655 132 571 L132 0 L61 0 L61 587 Z " />
<glyph glyph-name="agrave" unicode="&#xe0;" horiz-adv-x="437" >
<path fill="black" d="M288 78 L286 78 C255.333 23.3333 220 -10 168 -10 C100 -10 48 41.3333 48 148 C48 261.333 103 313 211 317 L286 320 L286 356 C286 445.333 251.333 477 202 477 C163.333 477 128 458.667 96 436 L70 499 C112.667 528.333 153.333 546 208 546 C304 546 359 491.333 359 366 L359 0 L303 0 L288 78 Z M286 263 L230 260 C158 254.667 124 222 124 150 C124 86 154.333 59 189 59 C237.078 59 286 109.407 286 215 L286 263 Z " /><g transform="translate(13,0)" ><path fill="black" d="M87 766 L172 766 C188.382 719.583 221.589 654.469 243 617 L243 606 L195 606 C163.493 640.133 107.89 715.22 87 757 L87 766 Z " /></g></glyph>
<glyph glyph-name="aacute" unicode="&#xe1;" horiz-adv-x="437" >
<path fill="black" d="M288 78 L286 78 C255.333 23.3333 220 -10 168 -10 C100 -10 48 41.3333 48 148 C48 261.333 103 313 211 317 L286 320 L286 356 C286 445.333 251.333 477 202 477 C163.333 477 128 458.667 96 436 L70 499 C112.667 528.333 153.333 546 208 546 C304 546 359 491.333 359 366 L359 0 L303 0 L288 78 Z M286 263 L230 260 C158 254.667 124 222 124 150 C124 86 154.333 59 189 59 C237.078 59 286 109.407 286 215 L286 263 Z " /><g transform="translate(1,0)" ><path fill="black" d="M170 606 L170 617 C200.667 670.333 223.667 720.667 241 766 L326 766 L326 757 C304.56 714.119 251.204 642.835 217 606 L170 606 Z " /></g></glyph>
<glyph glyph-name="acircumflex" unicode="&#xe2;" horiz-adv-x="437" >
<path fill="black" d="M288 78 L286 78 C255.333 23.3333 220 -10 168 -10 C100 -10 48 41.3333 48 148 C48 261.333 103 313 211 317 L286 320 L286 356 C286 445.333 251.333 477 202 477 C163.333 477 128 458.667 96 436 L70 499 C112.667 528.333 153.333 546 208 546 C304 546 359 491.333 359 366 L359 0 L303 0 L288 78 Z M286 263 L230 260 C158 254.667 124 222 124 150 C124 86 154.333 59 189 59 C237.078 59 286 109.407 286 215 L286 263 Z " /><g transform="translate(13,0)" ><path fill="black" d="M95 606 L95 616 C123 664 154.333 723.333 169 766 L237 766 C254.333 720.667 285.333 658.667 312 616 L312 606 L271 606 C248.333 632.667 227 667.333 203 702 C177.667 667.333 153.667 630 135 606 L95 606 Z " /></g></glyph>
<glyph glyph-name="atilde" unicode="&#xe3;" horiz-adv-x="437" >
<path fill="black" d="M288 78 L286 78 C255.333 23.3333 220 -10 168 -10 C100 -10 48 41.3333 48 148 C48 261.333 103 313 211 317 L286 320 L286 356 C286 445.333 251.333 477 202 477 C163.333 477 128 458.667 96 436 L70 499 C112.667 528.333 153.333 546 208 546 C304 546 359 491.333 359 366 L359 0 L303 0 L288 78 Z M286 263 L230 260 C158 254.667 124 222 124 150 C124 86 154.333 59 189 59 C237.078 59 286 109.407 286 215 L286 263 Z " /><g transform="translate(13,0)" ><path fill="black" d="M83 610 C88.2531 673.037 102.036 730 150 730 C190.556 730 223.111 672 253 672 C270.333 672 275.667 695 281 731 L324 731 C320 652.333 294.333 611 257 611 C217.876 611 180.32 670 155 670 C137.667 670 130.333 648.667 125 610 L83 610 Z " /></g></glyph>
<glyph glyph-name="adieresis" unicode="&#xe4;" horiz-adv-x="437" >
<g transform="translate(13,-11)" ><path fill="black" d="M127 626 C101.667 626 84 646 84 686 C84 724.667 101.667 743 127 743 C151 743 169 724.667 169 686 C169 644.667 151 626 127 626 Z M280 626 C254.667 626 237 646 237 686 C237 724.667 254.667 743 280 743 C304 743 322 724.667 322 686 C322 644.667 304 626 280 626 Z " /></g><path fill="black" d="M288 78 L286 78 C255.333 23.3333 220 -10 168 -10 C100 -10 48 41.3333 48 148 C48 261.333 103 313 211 317 L286 320 L286 356 C286 445.333 251.333 477 202 477 C163.333 477 128 458.667 96 436 L70 499 C112.667 528.333 153.333 546 208 546 C304 546 359 491.333 359 366 L359 0 L303 0 L288 78 Z M286 263 L230 260 C158 254.667 124 222 124 150 C124 86 154.333 59 189 59 C237.078 59 286 109.407 286 215 L286 263 Z " /></glyph>
<glyph glyph-name="aring" unicode="&#xe5;" horiz-adv-x="437" >
<path fill="black" d="M288 78 L286 78 C255.333 23.3333 220 -10 168 -10 C100 -10 48 41.3333 48 148 C48 261.333 103 313 211 317 L286 320 L286 356 C286 445.333 251.333 477 202 477 C163.333 477 128 458.667 96 436 L70 499 C112.667 528.333 153.333 546 208 546 C304 546 359 491.333 359 366 L359 0 L303 0 L288 78 Z M286 263 L230 260 C158 254.667 124 222 124 150 C124 86 154.333 59 189 59 C237.078 59 286 109.407 286 215 L286 263 Z " /><g transform="translate(13,0)" ><path fill="black" d="M204 609 C149.333 609 116 648.667 116 710 C116 770 149.333 809 204 809 C254.667 809 290 770 290 710 C290 650 256 609 204 609 Z M204 656 C228 656 246 676.667 246 710 C246 740.667 230.667 763 204 763 C177.333 763 161 740.667 161 710 C161 676.667 177.333 656 204 656 Z " /></g></glyph>
<glyph glyph-name="ae" unicode="&#xe6;" horiz-adv-x="437" d="M166 321 L166 357 C166 445 148.667 476 114 476 C91.3333 476 67.3333 462.667 50 440 L27 499 C51 525.667 85.6667 545 123 545 C161.667 545 192.667 522 210 458 C224.667 511.333 251.333 545 290 545 C359.333 545 393 458.333 393 305 L393 254 L235 254 C235 106.312 268.641 60 314 60 C336.667 60 357 69.3333 381 100 L381 26 C357 -0.666667 333 -10 305 -10 C258.333 -10 223.667 19.6667 201 105 C182.333 21 152 -10 108 -10 C48 -10 13 43.6667 13 145 C13 255.667 52 312.667 124 318 L166 321 Z M165 259 L142 257 C103.333 254.333 77 222 77 146 C77 86 95.3333 60 118 60 C146 60 165 102.333 165 213 L165 259 Z M332 321 C332 424.333 316.667 476 286 476 C254.667 476 238 424.333 236 321 L332 321 Z " />
<glyph glyph-name="ccedilla" unicode="&#xe7;" horiz-adv-x="437" d="M167 -182 C178.333 -186 189.667 -188 201 -188 C235.667 -188 251 -168.667 251 -138 C251 -102 229.667 -85.6667 191 -79 L215 -8 C119 5.33333 56 88 56 264 C56 466.615 132.818 546 245 546 C286.333 546 324.667 536.333 360 517 L336 451 C306.667 471 282 477 250 477 C171.333 477 133 410.333 133 265 C133 123.667 172 60 248 60 C284 60 319 72.3333 351 91 L351 19 C322.333 2.33333 291 -7.33333 257 -10 L244 -51 C288 -63 310 -93 310 -141 C310 -205 275 -240 211 -240 C196.333 -240 177.667 -238 167 -234 L167 -182 Z " />
<glyph glyph-name="egrave" unicode="&#xe8;" horiz-adv-x="437" >
<path fill="black" d="M353 27 C314.333 1.66667 279 -10 231 -10 C109.667 -10 36 88 36 264 C36 438.667 100 546 208 546 C311.082 546 370 445.433 370 303 L370 251 L112 251 C114 123.667 154.667 60 234 60 C279.333 60 314.333 74.6667 353 100 L353 27 Z M297 318 C297 411.333 265.667 477 207 477 C151 477 118.333 420.667 113 318 L297 318 Z " /><g transform="translate(4,0)" ><path fill="black" d="M87 766 L172 766 C188.382 719.583 221.589 654.469 243 617 L243 606 L195 606 C163.493 640.133 107.89 715.22 87 757 L87 766 Z " /></g></glyph>
<glyph glyph-name="eacute" unicode="&#xe9;" horiz-adv-x="437" >
<path fill="black" d="M353 27 C314.333 1.66667 279 -10 231 -10 C109.667 -10 36 88 36 264 C36 438.667 100 546 208 546 C311.082 546 370 445.433 370 303 L370 251 L112 251 C114 123.667 154.667 60 234 60 C279.333 60 314.333 74.6667 353 100 L353 27 Z M297 318 C297 411.333 265.667 477 207 477 C151 477 118.333 420.667 113 318 L297 318 Z " /><g transform="translate(-8,0)" ><path fill="black" d="M170 606 L170 617 C200.667 670.333 223.667 720.667 241 766 L326 766 L326 757 C304.56 714.119 251.204 642.835 217 606 L170 606 Z " /></g></glyph>
<glyph glyph-name="ecircumflex" unicode="&#xea;" horiz-adv-x="437" >
<path fill="black" d="M353 27 C314.333 1.66667 279 -10 231 -10 C109.667 -10 36 88 36 264 C36 438.667 100 546 208 546 C311.082 546 370 445.433 370 303 L370 251 L112 251 C114 123.667 154.667 60 234 60 C279.333 60 314.333 74.6667 353 100 L353 27 Z M297 318 C297 411.333 265.667 477 207 477 C151 477 118.333 420.667 113 318 L297 318 Z " /><g transform="translate(4,0)" ><path fill="black" d="M95 606 L95 616 C123 664 154.333 723.333 169 766 L237 766 C254.333 720.667 285.333 658.667 312 616 L312 606 L271 606 C248.333 632.667 227 667.333 203 702 C177.667 667.333 153.667 630 135 606 L95 606 Z " /></g></glyph>
<glyph glyph-name="edieresis" unicode="&#xeb;" horiz-adv-x="437" >
<g transform="translate(4,-11)" ><path fill="black" d="M127 626 C101.667 626 84 646 84 686 C84 724.667 101.667 743 127 743 C151 743 169 724.667 169 686 C169 644.667 151 626 127 626 Z M280 626 C254.667 626 237 646 237 686 C237 724.667 254.667 743 280 743 C304 743 322 724.667 322 686 C322 644.667 304 626 280 626 Z " /></g><path fill="black" d="M353 27 C314.333 1.66667 279 -10 231 -10 C109.667 -10 36 88 36 264 C36 438.667 100 546 208 546 C311.082 546 370 445.433 370 303 L370 251 L112 251 C114 123.667 154.667 60 234 60 C279.333 60 314.333 74.6667 353 100 L353 27 Z M297 318 C297 411.333 265.667 477 207 477 C151 477 118.333 420.667 113 318 L297 318 Z " /></glyph>
<glyph glyph-name="igrave" unicode="&#xec;" horiz-adv-x="407" >
<path fill="black" d="M58 56 L173 66 L173 466 L65 479 L65 535 L246 535 L246 66 L348 56 L348 0 L58 0 L58 56 Z " /><path fill="black" d="M87 766 L172 766 C188.382 719.583 221.589 654.469 243 617 L243 606 L195 606 C163.493 640.133 107.89 715.22 87 757 L87 766 Z " /></glyph>
<glyph glyph-name="iacute" unicode="&#xed;" horiz-adv-x="407" >
<path fill="black" d="M58 56 L173 66 L173 466 L65 479 L65 535 L246 535 L246 66 L348 56 L348 0 L58 0 L58 56 Z " /><g transform="translate(-12,0)" ><path fill="black" d="M170 606 L170 617 C200.667 670.333 223.667 720.667 241 766 L326 766 L326 757 C304.56 714.119 251.204 642.835 217 606 L170 606 Z " /></g></glyph>
<glyph glyph-name="icircumflex" unicode="&#xee;" horiz-adv-x="407" >
<path fill="black" d="M58 56 L173 66 L173 466 L65 479 L65 535 L246 535 L246 66 L348 56 L348 0 L58 0 L58 56 Z " /><path fill="black" d="M95 606 L95 616 C123 664 154.333 723.333 169 766 L237 766 C254.333 720.667 285.333 658.667 312 616 L312 606 L271 606 C248.333 632.667 227 667.333 203 702 C177.667 667.333 153.667 630 135 606 L95 606 Z " /></glyph>
<glyph glyph-name="idieresis" unicode="&#xef;" horiz-adv-x="407" >
<g transform="translate(0,-11)" ><path fill="black" d="M127 626 C101.667 626 84 646 84 686 C84 724.667 101.667 743 127 743 C151 743 169 724.667 169 686 C169 644.667 151 626 127 626 Z M280 626 C254.667 626 237 646 237 686 C237 724.667 254.667 743 280 743 C304 743 322 724.667 322 686 C322 644.667 304 626 280 626 Z " /></g><path fill="black" d="M58 56 L173 66 L173 466 L65 479 L65 535 L246 535 L246 66 L348 56 L348 0 L58 0 L58 56 Z " /></glyph>
<glyph glyph-name="eth" unicode="&#xf0;" horiz-adv-x="437" d="M292 422 C277.333 498 247.333 561 206 617 L130 558 L100 610 L169 662 C150.333 680.667 133.667 697.333 115 712 L147 763 C173.667 745.667 199.333 724.667 222 702 L303 764 L333 714 L260 658 C336 558 374 423 374 267 C374 83 313 -10 205 -10 C98.3593 -10 32 92.4156 32 232 C32 385.333 97 473 193 473 C236.333 473 268.333 455.333 289 420 L292 422 Z M207 58 C272.333 58 299 122.333 299 245 C299 332.896 269.926 405 207 405 C137.667 405 107 344.667 107 230 C107 131.333 137.563 58 207 58 Z " />
<glyph glyph-name="ntilde" unicode="&#xf1;" horiz-adv-x="437" >
<path fill="black" d="M48 0 L48 535 L108 535 L118 461 L123 461 C144.333 517 185.667 546 235 546 C316.333 546 363 488.333 363 351 L363 0 L290 0 L290 347 C290 433.667 266 477 218 477 C154 477 121 407.667 121 281 L121 0 L48 0 Z " /><g transform="translate(10,0)" ><path fill="black" d="M83 610 C88.2531 673.037 102.036 730 150 730 C190.556 730 223.111 672 253 672 C270.333 672 275.667 695 281 731 L324 731 C320 652.333 294.333 611 257 611 C217.876 611 180.32 670 155 670 C137.667 670 130.333 648.667 125 610 L83 610 Z " /></g></glyph>
<glyph glyph-name="ograve" unicode="&#xf2;" horiz-adv-x="437" >
<path fill="black" d="M204 -10 C94.6667 -10 32 90 32 270 C32 446 94 546 202 546 C307.333 546 374 445.667 374 267 C374 89.6667 314.667 -10 204 -10 Z M203 58 C265.667 58 298 129.333 298 268 C298 406.667 264.333 478 203 478 C140.333 478 109 408.333 109 269 C109 128.333 140.333 58 203 58 Z " /><path fill="black" d="M87 766 L172 766 C188.382 719.583 221.589 654.469 243 617 L243 606 L195 606 C163.493 640.133 107.89 715.22 87 757 L87 766 Z " /></glyph>
<glyph glyph-name="oacute" unicode="&#xf3;" horiz-adv-x="437" >
<path fill="black" d="M204 -10 C94.6667 -10 32 90 32 270 C32 446 94 546 202 546 C307.333 546 374 445.667 374 267 C374 89.6667 314.667 -10 204 -10 Z M203 58 C265.667 58 298 129.333 298 268 C298 406.667 264.333 478 203 478 C140.333 478 109 408.333 109 269 C109 128.333 140.333 58 203 58 Z " /><g transform="translate(-12,0)" ><path fill="black" d="M170 606 L170 617 C200.667 670.333 223.667 720.667 241 766 L326 766 L326 757 C304.56 714.119 251.204 642.835 217 606 L170 606 Z " /></g></glyph>
<glyph glyph-name="ocircumflex" unicode="&#xf4;" horiz-adv-x="437" >
<path fill="black" d="M204 -10 C94.6667 -10 32 90 32 270 C32 446 94 546 202 546 C307.333 546 374 445.667 374 267 C374 89.6667 314.667 -10 204 -10 Z M203 58 C265.667 58 298 129.333 298 268 C298 406.667 264.333 478 203 478 C140.333 478 109 408.333 109 269 C109 128.333 140.333 58 203 58 Z " /><path fill="black" d="M95 606 L95 616 C123 664 154.333 723.333 169 766 L237 766 C254.333 720.667 285.333 658.667 312 616 L312 606 L271 606 C248.333 632.667 227 667.333 203 702 C177.667 667.333 153.667 630 135 606 L95 606 Z " /></glyph>
<glyph glyph-name="otilde" unicode="&#xf5;" horiz-adv-x="437" >
<path fill="black" d="M204 -10 C94.6667 -10 32 90 32 270 C32 446 94 546 202 546 C307.333 546 374 445.667 374 267 C374 89.6667 314.667 -10 204 -10 Z M203 58 C265.667 58 298 129.333 298 268 C298 406.667 264.333 478 203 478 C140.333 478 109 408.333 109 269 C109 128.333 140.333 58 203 58 Z " /><path fill="black" d="M83 610 C88.2531 673.037 102.036 730 150 730 C190.556 730 223.111 672 253 672 C270.333 672 275.667 695 281 731 L324 731 C320 652.333 294.333 611 257 611 C217.876 611 180.32 670 155 670 C137.667 670 130.333 648.667 125 610 L83 610 Z " /></glyph>
<glyph glyph-name="odieresis" unicode="&#xf6;" horiz-adv-x="437" >
<g transform="translate(0,-11)" ><path fill="black" d="M127 626 C101.667 626 84 646 84 686 C84 724.667 101.667 743 127 743 C151 743 169 724.667 169 686 C169 644.667 151 626 127 626 Z M280 626 C254.667 626 237 646 237 686 C237 724.667 254.667 743 280 743 C304 743 322 724.667 322 686 C322 644.667 304 626 280 626 Z " /></g><path fill="black" d="M204 -10 C94.6667 -10 32 90 32 270 C32 446 94 546 202 546 C307.333 546 374 445.667 374 267 C374 89.6667 314.667 -10 204 -10 Z M203 58 C265.667 58 298 129.333 298 268 C298 406.667 264.333 478 203 478 C140.333 478 109 408.333 109 269 C109 128.333 140.333 58 203 58 Z " /></glyph>
<glyph glyph-name="divide" unicode="&#xf7;" horiz-adv-x="437" d="M53 386 L355 386 L355 321 L53 321 L53 386 Z M205 114 C176.333 114 162 134 162 174 C162 214 176.333 234 205 234 C233 234 247 214 247 174 C247 134 230.333 114 205 114 Z M205 471 C176.333 471 162 491 162 531 C162 571 176.333 591 205 591 C233 591 247 571 247 531 C247 491 230.333 471 205 471 Z " />
<glyph glyph-name="oslash" unicode="&#xf8;" horiz-adv-x="437" d="M84 55 C52 101.667 34 174 34 270 C34 446 96 546 204 546 C240 546 271.667 534 299 510 L330 575 L376 546 L336 462 C362.667 412.667 376 347.667 376 267 C376 89.6667 316.667 -10 206 -10 C175.333 -10 148 -2 124 14 L94 -50 L49 -20 L84 55 Z M267 441 C250.333 465.667 229.667 478 205 478 C142.333 478 111 408.333 111 269 C111 217.667 115.667 175 125 141 L267 441 Z M155 80 C169 65.3333 185.667 58 205 58 C267.667 58 300 129.333 300 268 C300 306.667 297.333 339.667 292 369 L155 80 Z " />
<glyph glyph-name="ugrave" unicode="&#xf9;" horiz-adv-x="437" >
<path fill="black" d="M44 535 L118 535 L118 189 C118 91.6667 142.667 59 196 59 C257.333 59 285 127 285 255 L285 535 L359 535 L359 0 L298 0 L287 75 L282 75 C260.667 17.6667 221.667 -10 171 -10 C89.6667 -10 44 48.6667 44 174 L44 535 Z " /><path fill="black" d="M87 766 L172 766 C188.382 719.583 221.589 654.469 243 617 L243 606 L195 606 C163.493 640.133 107.89 715.22 87 757 L87 766 Z " /></glyph>
<glyph glyph-name="uacute" unicode="&#xfa;" horiz-adv-x="437" >
<path fill="black" d="M44 535 L118 535 L118 189 C118 91.6667 142.667 59 196 59 C257.333 59 285 127 285 255 L285 535 L359 535 L359 0 L298 0 L287 75 L282 75 C260.667 17.6667 221.667 -10 171 -10 C89.6667 -10 44 48.6667 44 174 L44 535 Z " /><g transform="translate(-12,0)" ><path fill="black" d="M170 606 L170 617 C200.667 670.333 223.667 720.667 241 766 L326 766 L326 757 C304.56 714.119 251.204 642.835 217 606 L170 606 Z " /></g></glyph>
<glyph glyph-name="ucircumflex" unicode="&#xfb;" horiz-adv-x="437" >
<path fill="black" d="M44 535 L118 535 L118 189 C118 91.6667 142.667 59 196 59 C257.333 59 285 127 285 255 L285 535 L359 535 L359 0 L298 0 L287 75 L282 75 C260.667 17.6667 221.667 -10 171 -10 C89.6667 -10 44 48.6667 44 174 L44 535 Z " /><path fill="black" d="M95 606 L95 616 C123 664 154.333 723.333 169 766 L237 766 C254.333 720.667 285.333 658.667 312 616 L312 606 L271 606 C248.333 632.667 227 667.333 203 702 C177.667 667.333 153.667 630 135 606 L95 606 Z " /></glyph>
<glyph glyph-name="udieresis" unicode="&#xfc;" horiz-adv-x="437" >
<g transform="translate(0,-11)" ><path fill="black" d="M127 626 C101.667 626 84 646 84 686 C84 724.667 101.667 743 127 743 C151 743 169 724.667 169 686 C169 644.667 151 626 127 626 Z M280 626 C254.667 626 237 646 237 686 C237 724.667 254.667 743 280 743 C304 743 322 724.667 322 686 C322 644.667 304 626 280 626 Z " /></g><path fill="black" d="M44 535 L118 535 L118 189 C118 91.6667 142.667 59 196 59 C257.333 59 285 127 285 255 L285 535 L359 535 L359 0 L298 0 L287 75 L282 75 C260.667 17.6667 221.667 -10 171 -10 C89.6667 -10 44 48.6667 44 174 L44 535 Z " /></glyph>
<glyph glyph-name="yacute" unicode="&#xfd;" horiz-adv-x="437" >
<path fill="black" d="M37 -170 C49 -172.667 64.3333 -177 79 -177 C117.667 -177 138.333 -153 157 -81 L175 -5 L24 535 L101 535 L179 220 C192.333 167.333 202.333 119.333 209 76 L212 76 C217.333 118.667 228.667 178.333 238 221 L305 535 L384 535 L230 -73 C203.333 -177 160.333 -245 87 -245 C69.6667 -245 53 -241 37 -237 L37 -170 Z " /><g transform="translate(-12,0)" ><path fill="black" d="M170 606 L170 617 C200.667 670.333 223.667 720.667 241 766 L326 766 L326 757 C304.56 714.119 251.204 642.835 217 606 L170 606 Z " /></g></glyph>
<glyph glyph-name="thorn" unicode="&#xfe;" horiz-adv-x="437" d="M48 -240 L48 757 L121 757 L121 544 C121 509.333 120.667 489.667 118 459 L122 459 C144.667 507 178.667 546 232 546 C322.667 546 374 453 374 269 C374 85 316 -10 232 -10 C180 -10 145 28.3333 121 71 L117 71 C119.667 44.3333 121 17.6667 121 -9 L121 -240 L48 -240 Z M121 267 C121 135 149 60 213 60 C269 60 298 132.667 298 270 C298 408 269.333 477 212 477 C146.667 477 121 408 121 288 L121 267 Z " />
<glyph glyph-name="ydieresis" unicode="&#xff;" horiz-adv-x="437" >
<g transform="translate(0,-11)" ><path fill="black" d="M127 626 C101.667 626 84 646 84 686 C84 724.667 101.667 743 127 743 C151 743 169 724.667 169 686 C169 644.667 151 626 127 626 Z M280 626 C254.667 626 237 646 237 686 C237 724.667 254.667 743 280 743 C304 743 322 724.667 322 686 C322 644.667 304 626 280 626 Z " /></g><path fill="black" d="M37 -170 C49 -172.667 64.3333 -177 79 -177 C117.667 -177 138.333 -153 157 -81 L175 -5 L24 535 L101 535 L179 220 C192.333 167.333 202.333 119.333 209 76 L212 76 C217.333 118.667 228.667 178.333 238 221 L305 535 L384 535 L230 -73 C203.333 -177 160.333 -245 87 -245 C69.6667 -245 53 -241 37 -237 L37 -170 Z " /></glyph>
<glyph glyph-name="Amacron" unicode="&#x100;" horiz-adv-x="437" >
<path fill="black" d="M153 714 L251 714 L390 0 L315 0 L275 230 L132 230 L93 0 L17 0 L153 714 Z M262 301 L220 541 C213.333 575.667 206 619.333 202 650 C198 619.333 190.667 575.667 184 541 L144 301 L262 301 Z " /><g transform="translate(1,175)" ><path fill="black" d="M102 692 L302 692 L302 633 L102 633 L102 692 Z " /></g></glyph>
<glyph glyph-name="amacron" unicode="&#x101;" horiz-adv-x="437" >
<path fill="black" d="M288 78 L286 78 C255.333 23.3333 220 -10 168 -10 C100 -10 48 41.3333 48 148 C48 261.333 103 313 211 317 L286 320 L286 356 C286 445.333 251.333 477 202 477 C163.333 477 128 458.667 96 436 L70 499 C112.667 528.333 153.333 546 208 546 C304 546 359 491.333 359 366 L359 0 L303 0 L288 78 Z M286 263 L230 260 C158 254.667 124 222 124 150 C124 86 154.333 59 189 59 C237.078 59 286 109.407 286 215 L286 263 Z " /><g transform="translate(14,-6)" ><path fill="black" d="M102 692 L302 692 L302 633 L102 633 L102 692 Z " /></g></glyph>
<glyph glyph-name="Abreve" unicode="&#x102;" horiz-adv-x="437" >
<path fill="black" d="M153 714 L251 714 L390 0 L315 0 L275 230 L132 230 L93 0 L17 0 L153 714 Z M262 301 L220 541 C213.333 575.667 206 619.333 202 650 C198 619.333 190.667 575.667 184 541 L144 301 L262 301 Z " /><g transform="translate(0,181)" ><path fill="black" d="M148 739 C151.333 691 169.667 667 203 667 C236.333 667 255 691 259 739 L304 739 C304 659 264.333 611 203 611 C143 611 104.667 653.667 102 739 L148 739 Z " /></g></glyph>
<glyph glyph-name="abreve" unicode="&#x103;" horiz-adv-x="437" >
<path fill="black" d="M288 78 L286 78 C255.333 23.3333 220 -10 168 -10 C100 -10 48 41.3333 48 148 C48 261.333 103 313 211 317 L286 320 L286 356 C286 445.333 251.333 477 202 477 C163.333 477 128 458.667 96 436 L70 499 C112.667 528.333 153.333 546 208 546 C304 546 359 491.333 359 366 L359 0 L303 0 L288 78 Z M286 263 L230 260 C158 254.667 124 222 124 150 C124 86 154.333 59 189 59 C237.078 59 286 109.407 286 215 L286 263 Z " /><g transform="translate(13,0)" ><path fill="black" d="M148 739 C151.333 691 169.667 667 203 667 C236.333 667 255 691 259 739 L304 739 C304 659 264.333 611 203 611 C143 611 104.667 653.667 102 739 L148 739 Z " /></g></glyph>
<glyph glyph-name="Aogonek" unicode="&#x104;" horiz-adv-x="437" d="M153 714 L251 714 L390 3 L398 0 C362 -45.3333 350 -79.6667 350 -117 C350 -151 362.333 -168 387 -168 C397.667 -168 405.333 -164.667 412 -162 L412 -215 C401.333 -220.333 388 -223 372 -223 C317.333 -223 292 -191.333 292 -134 C292 -83.3333 311.333 -38.6667 346 0 L315 0 L275 230 L132 230 L93 0 L17 0 L153 714 Z M262 301 L220 541 C213.333 575.667 206 619.333 202 650 C198 619.333 190.667 575.667 184 541 L144 301 L262 301 Z " />
<glyph glyph-name="aogonek" unicode="&#x105;" horiz-adv-x="437" d="M380 -215 C369.333 -220.333 356 -223 340 -223 C285.333 -223 260 -191.333 260 -134 C260 -83.3333 279.333 -38.6667 314 0 L305 0 L290 78 L288 78 C257.333 23.3333 222 -10 170 -10 C102 -10 50 41.3333 50 148 C50 261.333 105 313 213 317 L288 320 L288 356 C288 445.333 253.333 477 204 477 C165.333 477 130 458.667 98 436 L72 499 C114.667 528.333 155.333 546 210 546 C306 546 361 491.333 361 366 L361 2 L366 0 C330 -45.3333 318 -79.6667 318 -117 C318 -151 330.333 -168 355 -168 C365.667 -168 373.333 -164.667 380 -162 L380 -215 Z M288 263 L232 260 C160 254.667 126 222 126 150 C126 86 156.333 59 191 59 C239.078 59 288 109.407 288 215 L288 263 Z " />
<glyph glyph-name="Cacute" unicode="&#x106;" horiz-adv-x="437" >
<path fill="black" d="M367 16 C331 -2.66667 296 -10 248 -10 C109.411 -10 33 130.26 33 358 C33 566.97 110.948 726 255 726 C304.333 726 346.333 712 385 688 L357 622 C329 642 296.333 655 259 655 C156.645 655 109 523.874 109 357 C109 177.26 159.208 61 259 61 C299 61 332.333 73.3333 367 88 L367 16 Z " /><g transform="translate(34,179)" ><path fill="black" d="M170 606 L170 617 C200.667 670.333 223.667 720.667 241 766 L326 766 L326 757 C304.56 714.119 251.204 642.835 217 606 L170 606 Z " /></g></glyph>
<glyph glyph-name="cacute" unicode="&#x107;" horiz-adv-x="437" >
<path fill="black" d="M351 19 C319 0.333333 284.333 -10 243 -10 C130.974 -10 56 71.8442 56 264 C56 466.615 132.818 546 245 546 C286.333 546 324.667 536.333 360 517 L336 451 C306.667 471 282 477 250 477 C171.333 477 133 410.333 133 265 C133 123.667 172 60 248 60 C284 60 319 72.3333 351 91 L351 19 Z " /><g transform="translate(17,0)" ><path fill="black" d="M170 606 L170 617 C200.667 670.333 223.667 720.667 241 766 L326 766 L326 757 C304.56 714.119 251.204 642.835 217 606 L170 606 Z " /></g></glyph>
<glyph glyph-name="Ccircumflex" unicode="&#x108;" horiz-adv-x="437" >
<path fill="black" d="M367 16 C331 -2.66667 296 -10 248 -10 C109.411 -10 33 130.26 33 358 C33 566.97 110.948 726 255 726 C304.333 726 346.333 712 385 688 L357 622 C329 642 296.333 655 259 655 C156.645 655 109 523.874 109 357 C109 177.26 159.208 61 259 61 C299 61 332.333 73.3333 367 88 L367 16 Z " /><g transform="translate(46,179)" ><path fill="black" d="M95 606 L95 616 C123 664 154.333 723.333 169 766 L237 766 C254.333 720.667 285.333 658.667 312 616 L312 606 L271 606 C248.333 632.667 227 667.333 203 702 C177.667 667.333 153.667 630 135 606 L95 606 Z " /></g></glyph>
<glyph glyph-name="ccircumflex" unicode="&#x109;" horiz-adv-x="437" >
<path fill="black" d="M351 19 C319 0.333333 284.333 -10 243 -10 C130.974 -10 56 71.8442 56 264 C56 466.615 132.818 546 245 546 C286.333 546 324.667 536.333 360 517 L336 451 C306.667 471 282 477 250 477 C171.333 477 133 410.333 133 265 C133 123.667 172 60 248 60 C284 60 319 72.3333 351 91 L351 19 Z " /><g transform="translate(29,0)" ><path fill="black" d="M95 606 L95 616 C123 664 154.333 723.333 169 766 L237 766 C254.333 720.667 285.333 658.667 312 616 L312 606 L271 606 C248.333 632.667 227 667.333 203 702 C177.667 667.333 153.667 630 135 606 L95 606 Z " /></g></glyph>
<glyph glyph-name="Cdotaccent" unicode="&#x10a;" horiz-adv-x="437" >
<path fill="black" d="M367 16 C331 -2.66667 296 -10 248 -10 C109.411 -10 33 130.26 33 358 C33 566.97 110.948 726 255 726 C304.333 726 346.333 712 385 688 L357 622 C329 642 296.333 655 259 655 C156.645 655 109 523.874 109 357 C109 177.26 159.208 61 259 61 C299 61 332.333 73.3333 367 88 L367 16 Z " /><g transform="translate(46,825)" ><path fill="black" d="M204 -12 C173.333 -12 154 9 154 53 C154 95.6667 173.333 115 204 115 C232 115 253 97 253 53 C253 9 230.667 -12 204 -12 Z " /></g></glyph>
<glyph glyph-name="cdotaccent" unicode="&#x10b;" horiz-adv-x="437" >
<path fill="black" d="M351 19 C319 0.333333 284.333 -10 243 -10 C130.974 -10 56 71.8442 56 264 C56 466.615 132.818 546 245 546 C286.333 546 324.667 536.333 360 517 L336 451 C306.667 471 282 477 250 477 C171.333 477 133 410.333 133 265 C133 123.667 172 60 248 60 C284 60 319 72.3333 351 91 L351 19 Z " /><g transform="translate(29,646)" ><path fill="black" d="M204 -12 C173.333 -12 154 9 154 53 C154 95.6667 173.333 115 204 115 C232 115 253 97 253 53 C253 9 230.667 -12 204 -12 Z " /></g></glyph>
<glyph glyph-name="Ccaron" unicode="&#x10c;" horiz-adv-x="437" >
<path fill="black" d="M367 16 C331 -2.66667 296 -10 248 -10 C109.411 -10 33 130.26 33 358 C33 566.97 110.948 726 255 726 C304.333 726 346.333 712 385 688 L357 622 C329 642 296.333 655 259 655 C156.645 655 109 523.874 109 357 C109 177.26 159.208 61 259 61 C299 61 332.333 73.3333 367 88 L367 16 Z " /><g transform="translate(46,179)" ><path fill="black" d="M169 606 C151.667 650 121.667 709.333 95 756 L95 766 L135 766 C155 742 179 704.667 203 670 C229.667 710 245.667 730 271 766 L312 766 L312 756 C288 714.667 254.333 652.667 237 606 L169 606 Z " /></g></glyph>
<glyph glyph-name="ccaron" unicode="&#x10d;" horiz-adv-x="437" >
<path fill="black" d="M351 19 C319 0.333333 284.333 -10 243 -10 C130.974 -10 56 71.8442 56 264 C56 466.615 132.818 546 245 546 C286.333 546 324.667 536.333 360 517 L336 451 C306.667 471 282 477 250 477 C171.333 477 133 410.333 133 265 C133 123.667 172 60 248 60 C284 60 319 72.3333 351 91 L351 19 Z " /><g transform="translate(29,0)" ><path fill="black" d="M169 606 C151.667 650 121.667 709.333 95 756 L95 766 L135 766 C155 742 179 704.667 203 670 C229.667 710 245.667 730 271 766 L312 766 L312 756 C288 714.667 254.333 652.667 237 606 L169 606 Z " /></g></glyph>
<glyph glyph-name="Dcaron" unicode="&#x10e;" horiz-adv-x="437" >
<path fill="black" d="M36 0 L36 714 L191 714 C315 714 386 594 386 366 C386 123.333 314.667 0 180 0 L36 0 Z M110 74 L176 74 C268 74 309 173 309 365 C309 561 269.667 640 175 640 L110 640 L110 74 Z " /><g transform="translate(-12,179)" ><path fill="black" d="M169 606 C151.667 650 121.667 709.333 95 756 L95 766 L135 766 C155 742 179 704.667 203 670 C229.667 710 245.667 730 271 766 L312 766 L312 756 C288 714.667 254.333 652.667 237 606 L169 606 Z " /></g></glyph>
<glyph glyph-name="dcaron" unicode="&#x10f;" horiz-adv-x="437" d="M265 75 L262 75 C240.667 28.3333 208.667 -10 158 -10 C74 -10 24 85.3333 24 264 C24 450.667 78 546 162 546 C210 546 240.667 509.333 262 464 L266 464 C263.333 492 261 518.333 261 545 L261 760 L334 760 L334 0 L277 0 L265 75 Z M263 269 C263 397 243 477 183 477 C123 477 100 405 100 261 C100 125 121 60 181 60 C241 60 263 133.667 263 247 L263 269 Z M360 600 L360 608 C367.98 637.259 378.325 722.554 381 760 L456 760 L456 753 C447.882 712.411 422.944 639.27 402 600 L360 600 Z " />
<glyph glyph-name="Dcroat" unicode="&#x110;" horiz-adv-x="437" >
<path fill="black" d="M46 333 L2 333 L2 402 L46 402 L46 714 L201 714 C325 714 396 594 396 366 C396 123.333 324.667 0 190 0 L46 0 L46 333 Z M186 74 C278 74 319 173 319 365 C319 561 279.667 640 185 640 L120 640 L120 402 L230 402 L230 333 L120 333 L120 74 L186 74 Z " /></glyph>
<glyph glyph-name="dcroat" unicode="&#x111;" horiz-adv-x="437" d="M290 75 L286 75 C266 28.3333 231.667 -10 177 -10 C87.6667 -10 32 82.3333 32 261 C32 445 88.6667 542 178 542 C230 542 264.667 504.333 286 459 L291 459 C288.333 483 286 517.333 286 540 L286 607 L153 607 L153 669 L286 669 L286 760 L359 760 L359 669 L405 669 L405 607 L359 607 L359 0 L302 0 L290 75 Z M200 60 C265.333 60 287 128.667 287 242 L287 264 C287 394.667 268.667 472 202 472 C136.667 472 109 398 109 254 C109 124.667 132 60 200 60 Z " />
<glyph glyph-name="Emacron" unicode="&#x112;" horiz-adv-x="437" >
<path fill="black" d="M359 74 L359 0 L52 0 L52 714 L359 714 L359 640 L127 640 L127 407 L344 407 L344 333 L127 333 L127 74 L359 74 Z " /><g transform="translate(1,173)" ><path fill="black" d="M102 692 L302 692 L302 633 L102 633 L102 692 Z " /></g></glyph>
<glyph glyph-name="emacron" unicode="&#x113;" horiz-adv-x="437" >
<path fill="black" d="M353 27 C314.333 1.66667 279 -10 231 -10 C109.667 -10 36 88 36 264 C36 438.667 100 546 208 546 C311.082 546 370 445.433 370 303 L370 251 L112 251 C114 123.667 154.667 60 234 60 C279.333 60 314.333 74.6667 353 100 L353 27 Z M297 318 C297 411.333 265.667 477 207 477 C151 477 118.333 420.667 113 318 L297 318 Z " /><g transform="translate(5,-6)" ><path fill="black" d="M102 692 L302 692 L302 633 L102 633 L102 692 Z " /></g></glyph>
<glyph glyph-name="Ebreve" unicode="&#x114;" horiz-adv-x="437" >
<path fill="black" d="M359 74 L359 0 L52 0 L52 714 L359 714 L359 640 L127 640 L127 407 L344 407 L344 333 L127 333 L127 74 L359 74 Z " /><g transform="translate(0,179)" ><path fill="black" d="M148 739 C151.333 691 169.667 667 203 667 C236.333 667 255 691 259 739 L304 739 C304 659 264.333 611 203 611 C143 611 104.667 653.667 102 739 L148 739 Z " /></g></glyph>
<glyph glyph-name="ebreve" unicode="&#x115;" horiz-adv-x="437" >
<path fill="black" d="M353 27 C314.333 1.66667 279 -10 231 -10 C109.667 -10 36 88 36 264 C36 438.667 100 546 208 546 C311.082 546 370 445.433 370 303 L370 251 L112 251 C114 123.667 154.667 60 234 60 C279.333 60 314.333 74.6667 353 100 L353 27 Z M297 318 C297 411.333 265.667 477 207 477 C151 477 118.333 420.667 113 318 L297 318 Z " /><g transform="translate(4,0)" ><path fill="black" d="M148 739 C151.333 691 169.667 667 203 667 C236.333 667 255 691 259 739 L304 739 C304 659 264.333 611 203 611 C143 611 104.667 653.667 102 739 L148 739 Z " /></g></glyph>
<glyph glyph-name="Edotaccent" unicode="&#x116;" horiz-adv-x="437" >
<path fill="black" d="M359 74 L359 0 L52 0 L52 714 L359 714 L359 640 L127 640 L127 407 L344 407 L344 333 L127 333 L127 74 L359 74 Z " /><g transform="translate(0,825)" ><path fill="black" d="M204 -12 C173.333 -12 154 9 154 53 C154 95.6667 173.333 115 204 115 C232 115 253 97 253 53 C253 9 230.667 -12 204 -12 Z " /></g></glyph>
<glyph glyph-name="edotaccent" unicode="&#x117;" horiz-adv-x="437" >
<path fill="black" d="M353 27 C314.333 1.66667 279 -10 231 -10 C109.667 -10 36 88 36 264 C36 438.667 100 546 208 546 C311.082 546 370 445.433 370 303 L370 251 L112 251 C114 123.667 154.667 60 234 60 C279.333 60 314.333 74.6667 353 100 L353 27 Z M297 318 C297 411.333 265.667 477 207 477 C151 477 118.333 420.667 113 318 L297 318 Z " /><g transform="translate(4,646)" ><path fill="black" d="M204 -12 C173.333 -12 154 9 154 53 C154 95.6667 173.333 115 204 115 C232 115 253 97 253 53 C253 9 230.667 -12 204 -12 Z " /></g></glyph>
<glyph glyph-name="Eogonek" unicode="&#x118;" horiz-adv-x="437" d="M54 714 L361 714 L361 640 L129 640 L129 407 L346 407 L346 333 L129 333 L129 74 L361 74 L361 0 L349 0 C313 -45.3333 301 -79.6667 301 -117 C301 -151 313.333 -168 338 -168 C348.667 -168 356.333 -164.667 363 -162 L363 -215 C352.333 -220.333 339 -223 323 -223 C268.333 -223 243 -191.333 243 -134 C243 -83.3333 262.333 -38.6667 297 0 L54 0 L54 714 Z " />
<glyph glyph-name="eogonek" unicode="&#x119;" horiz-adv-x="437" d="M358 -215 C348.667 -220.333 336 -223 320 -223 C264 -223 238 -181 238 -117 C238 -74.3333 252 -37.6667 272 -7 C260 -9 246.667 -10 232 -10 C110.667 -10 37 88 37 264 C37 438.667 101 546 209 546 C312.082 546 371 445.433 371 303 L371 251 L113 251 C115 123.667 155.667 60 235 60 C280.333 60 315.333 74.6667 354 100 L354 27 C351.333 25.6667 349.333 24.3333 348 23 C312 -14.3333 296 -65.3333 296 -108 C296 -144 307.333 -168 334 -168 C343.333 -168 351.333 -164.667 358 -162 L358 -215 Z M298 318 C298 411.333 266.667 477 208 477 C152 477 119.333 420.667 114 318 L298 318 Z " />
<glyph glyph-name="Ecaron" unicode="&#x11a;" horiz-adv-x="437" >
<path fill="black" d="M359 74 L359 0 L52 0 L52 714 L359 714 L359 640 L127 640 L127 407 L344 407 L344 333 L127 333 L127 74 L359 74 Z " /><g transform="translate(0,179)" ><path fill="black" d="M169 606 C151.667 650 121.667 709.333 95 756 L95 766 L135 766 C155 742 179 704.667 203 670 C229.667 710 245.667 730 271 766 L312 766 L312 756 C288 714.667 254.333 652.667 237 606 L169 606 Z " /></g></glyph>
<glyph glyph-name="ecaron" unicode="&#x11b;" horiz-adv-x="437" >
<path fill="black" d="M353 27 C314.333 1.66667 279 -10 231 -10 C109.667 -10 36 88 36 264 C36 438.667 100 546 208 546 C311.082 546 370 445.433 370 303 L370 251 L112 251 C114 123.667 154.667 60 234 60 C279.333 60 314.333 74.6667 353 100 L353 27 Z M297 318 C297 411.333 265.667 477 207 477 C151 477 118.333 420.667 113 318 L297 318 Z " /><g transform="translate(4,0)" ><path fill="black" d="M169 606 C151.667 650 121.667 709.333 95 756 L95 766 L135 766 C155 742 179 704.667 203 670 C229.667 710 245.667 730 271 766 L312 766 L312 756 C288 714.667 254.333 652.667 237 606 L169 606 Z " /></g></glyph>
<glyph glyph-name="Gcircumflex" unicode="&#x11c;" horiz-adv-x="437" >
<path fill="black" d="M296 301 L219 301 L219 375 L368 375 L368 25 C321.333 2.33333 280.333 -10 231 -10 C83.3117 -10 21 147.182 21 359 C21 572.463 91.9177 726 235 726 C284.333 726 331.333 712.667 370 682 L343 617 C305.667 645 278 655 238 655 C146 655 97 547.667 97 357 C97 191.667 138.277 61 228 61 C254.667 61 274.667 66.3333 296 77 L296 301 Z " /><g transform="translate(19,179)" ><path fill="black" d="M95 606 L95 616 C123 664 154.333 723.333 169 766 L237 766 C254.333 720.667 285.333 658.667 312 616 L312 606 L271 606 C248.333 632.667 227 667.333 203 702 C177.667 667.333 153.667 630 135 606 L95 606 Z " /></g></glyph>
<glyph glyph-name="gcircumflex" unicode="&#x11d;" horiz-adv-x="437" >
<path fill="black" d="M61 -135 C99.6667 -160.333 150.333 -175 185 -175 C254.333 -175 285 -116.667 285 -22 L285 6 C285 23.3333 285.333 59.3333 288 74 L285 74 C261 18 224 -9 180 -9 C88 -9 32 90.3333 32 265 C32 438.307 87.3377 546 179 546 C225 546 261 518.333 287 463 L291 463 L298 535 L359 535 L359 -15 C359 -168.333 301.333 -245 186 -245 C140.667 -245 99 -233.667 61 -211 L61 -135 Z M289 270 C289 411.333 263 477 203 477 C139 477 109 402 109 266 C109 130 140 60 204 60 C260.667 60 289 121.667 289 245 L289 270 Z " /><path fill="black" d="M95 606 L95 616 C123 664 154.333 723.333 169 766 L237 766 C254.333 720.667 285.333 658.667 312 616 L312 606 L271 606 C248.333 632.667 227 667.333 203 702 C177.667 667.333 153.667 630 135 606 L95 606 Z " /></glyph>
<glyph glyph-name="Gbreve" unicode="&#x11e;" horiz-adv-x="437" >
<path fill="black" d="M296 301 L219 301 L219 375 L368 375 L368 25 C321.333 2.33333 280.333 -10 231 -10 C83.3117 -10 21 147.182 21 359 C21 572.463 91.9177 726 235 726 C284.333 726 331.333 712.667 370 682 L343 617 C305.667 645 278 655 238 655 C146 655 97 547.667 97 357 C97 191.667 138.277 61 228 61 C254.667 61 274.667 66.3333 296 77 L296 301 Z " /><g transform="translate(19,179)" ><path fill="black" d="M148 739 C151.333 691 169.667 667 203 667 C236.333 667 255 691 259 739 L304 739 C304 659 264.333 611 203 611 C143 611 104.667 653.667 102 739 L148 739 Z " /></g></glyph>
<glyph glyph-name="gbreve" unicode="&#x11f;" horiz-adv-x="437" >
<path fill="black" d="M61 -135 C99.6667 -160.333 150.333 -175 185 -175 C254.333 -175 285 -116.667 285 -22 L285 6 C285 23.3333 285.333 59.3333 288 74 L285 74 C261 18 224 -9 180 -9 C88 -9 32 90.3333 32 265 C32 438.307 87.3377 546 179 546 C225 546 261 518.333 287 463 L291 463 L298 535 L359 535 L359 -15 C359 -168.333 301.333 -245 186 -245 C140.667 -245 99 -233.667 61 -211 L61 -135 Z M289 270 C289 411.333 263 477 203 477 C139 477 109 402 109 266 C109 130 140 60 204 60 C260.667 60 289 121.667 289 245 L289 270 Z " /><path fill="black" d="M148 739 C151.333 691 169.667 667 203 667 C236.333 667 255 691 259 739 L304 739 C304 659 264.333 611 203 611 C143 611 104.667 653.667 102 739 L148 739 Z " /></glyph>
<glyph glyph-name="Gdotaccent" unicode="&#x120;" horiz-adv-x="437" >
<path fill="black" d="M296 301 L219 301 L219 375 L368 375 L368 25 C321.333 2.33333 280.333 -10 231 -10 C83.3117 -10 21 147.182 21 359 C21 572.463 91.9177 726 235 726 C284.333 726 331.333 712.667 370 682 L343 617 C305.667 645 278 655 238 655 C146 655 97 547.667 97 357 C97 191.667 138.277 61 228 61 C254.667 61 274.667 66.3333 296 77 L296 301 Z " /><g transform="translate(19,825)" ><path fill="black" d="M204 -12 C173.333 -12 154 9 154 53 C154 95.6667 173.333 115 204 115 C232 115 253 97 253 53 C253 9 230.667 -12 204 -12 Z " /></g></glyph>
<glyph glyph-name="gdotaccent" unicode="&#x121;" horiz-adv-x="437" >
<path fill="black" d="M61 -135 C99.6667 -160.333 150.333 -175 185 -175 C254.333 -175 285 -116.667 285 -22 L285 6 C285 23.3333 285.333 59.3333 288 74 L285 74 C261 18 224 -9 180 -9 C88 -9 32 90.3333 32 265 C32 438.307 87.3377 546 179 546 C225 546 261 518.333 287 463 L291 463 L298 535 L359 535 L359 -15 C359 -168.333 301.333 -245 186 -245 C140.667 -245 99 -233.667 61 -211 L61 -135 Z M289 270 C289 411.333 263 477 203 477 C139 477 109 402 109 266 C109 130 140 60 204 60 C260.667 60 289 121.667 289 245 L289 270 Z " /><g transform="translate(0,646)" ><path fill="black" d="M204 -12 C173.333 -12 154 9 154 53 C154 95.6667 173.333 115 204 115 C232 115 253 97 253 53 C253 9 230.667 -12 204 -12 Z " /></g></glyph>
<glyph glyph-name="uni0122" unicode="&#x122;" horiz-adv-x="437" >
<path fill="black" d="M296 301 L219 301 L219 375 L368 375 L368 25 C321.333 2.33333 280.333 -10 231 -10 C83.3117 -10 21 147.182 21 359 C21 572.463 91.9177 726 235 726 C284.333 726 331.333 712.667 370 682 L343 617 C305.667 645 278 655 238 655 C146 655 97 547.667 97 357 C97 191.667 138.277 61 228 61 C254.667 61 274.667 66.3333 296 77 L296 301 Z " /><g transform="translate(665,0)" ><path fill="black" d="M-500 -221 L-500 -210 C-489.343 -175.365 -474.597 -102.547 -472 -61 L-398 -61 L-398 -69 C-405.977 -111.545 -432.51 -180.184 -457 -221 L-500 -221 Z " /></g></glyph>
<glyph glyph-name="uni0123" unicode="&#x123;" horiz-adv-x="437" d="M63 -135 C101.667 -160.333 152.333 -175 187 -175 C256.333 -175 287 -116.667 287 -22 L287 6 C287 23.3333 287.333 59.3333 290 74 L287 74 C263 18 226 -9 182 -9 C90 -9 34 90.3333 34 265 C34 438.307 89.3377 546 181 546 C227 546 263 518.333 289 463 L293 463 L300 535 L361 535 L361 -15 C361 -168.333 303.333 -245 188 -245 C142.667 -245 101 -233.667 63 -211 L63 -135 Z M291 270 C291 411.333 265 477 205 477 C141 477 111 402 111 266 C111 130 142 60 206 60 C262.667 60 291 121.667 291 245 L291 270 Z M151 606 L151 614 C158.99 656.613 184.939 722.703 212 766 L255 766 L255 755 C244.081 719.514 227.639 645.578 225 606 L151 606 Z " />
<glyph glyph-name="Hcircumflex" unicode="&#x124;" horiz-adv-x="437" >
<path fill="black" d="M36 0 L36 714 L111 714 L111 406 L296 406 L296 714 L370 714 L370 0 L296 0 L296 332 L111 332 L111 0 L36 0 Z " /><g transform="translate(0,179)" ><path fill="black" d="M95 606 L95 616 C123 664 154.333 723.333 169 766 L237 766 C254.333 720.667 285.333 658.667 312 616 L312 606 L271 606 C248.333 632.667 227 667.333 203 702 C177.667 667.333 153.667 630 135 606 L95 606 Z " /></g></glyph>
<glyph glyph-name="hcircumflex" unicode="&#x125;" horiz-adv-x="437" >
<path fill="black" d="M48 0 L48 760 L121 760 L121 529 C121 506.333 119.667 482.667 117 460 L122 460 C143.333 510.667 176 546 232 546 C308 546 363 485.667 363 351 L363 0 L290 0 L290 335 C290 429.667 264.333 477 213 477 C149 477 121 406.333 121 281 L121 0 L48 0 Z " /><g transform="translate(-119,225)" ><path fill="black" d="M95 606 L95 616 C123 664 154.333 723.333 169 766 L237 766 C254.333 720.667 285.333 658.667 312 616 L312 606 L271 606 C248.333 632.667 227 667.333 203 702 C177.667 667.333 153.667 630 135 606 L95 606 Z " /></g></glyph>
<glyph glyph-name="Hbar" unicode="&#x126;" horiz-adv-x="437" d="M37 529 L2 529 L2 593 L37 593 L37 714 L112 714 L112 593 L294 593 L294 714 L369 714 L369 593 L404 593 L404 529 L369 529 L369 0 L294 0 L294 332 L112 332 L112 0 L37 0 L37 529 Z M294 406 L294 529 L112 529 L112 406 L294 406 Z " />
<glyph glyph-name="hbar" unicode="&#x127;" horiz-adv-x="437" d="M47 607 L2 607 L2 669 L47 669 L47 760 L121 760 L121 669 L254 669 L254 607 L121 607 L121 529 C121 506.333 119.667 482.667 117 460 L122 460 C143.333 510.667 176 546 232 546 C306.667 546 363 485.667 363 351 L363 0 L289 0 L289 335 C289 429.667 266.333 477 213 477 C149 477 121 406.333 121 281 L121 0 L47 0 L47 607 Z " />
<glyph glyph-name="Itilde" unicode="&#x128;" horiz-adv-x="437" >
<path fill="black" d="M60 56 L166 66 L166 648 L60 658 L60 714 L347 714 L347 658 L239 648 L239 66 L347 56 L347 0 L60 0 L60 56 Z " /><g transform="translate(0,179)" ><path fill="black" d="M83 610 C88.2531 673.037 102.036 730 150 730 C190.556 730 223.111 672 253 672 C270.333 672 275.667 695 281 731 L324 731 C320 652.333 294.333 611 257 611 C217.876 611 180.32 670 155 670 C137.667 670 130.333 648.667 125 610 L83 610 Z " /></g></glyph>
<glyph glyph-name="itilde" unicode="&#x129;" horiz-adv-x="407" >
<path fill="black" d="M58 56 L173 66 L173 466 L65 479 L65 535 L246 535 L246 66 L348 56 L348 0 L58 0 L58 56 Z " /><path fill="black" d="M83 610 C88.2531 673.037 102.036 730 150 730 C190.556 730 223.111 672 253 672 C270.333 672 275.667 695 281 731 L324 731 C320 652.333 294.333 611 257 611 C217.876 611 180.32 670 155 670 C137.667 670 130.333 648.667 125 610 L83 610 Z " /></glyph>
<glyph glyph-name="Imacron" unicode="&#x12a;" horiz-adv-x="437" >
<path fill="black" d="M60 56 L166 66 L166 648 L60 658 L60 714 L347 714 L347 658 L239 648 L239 66 L347 56 L347 0 L60 0 L60 56 Z " /><g transform="translate(1,173)" ><path fill="black" d="M102 692 L302 692 L302 633 L102 633 L102 692 Z " /></g></glyph>
<glyph glyph-name="imacron" unicode="&#x12b;" horiz-adv-x="407" >
<path fill="black" d="M58 56 L173 66 L173 466 L65 479 L65 535 L246 535 L246 66 L348 56 L348 0 L58 0 L58 56 Z " /><g transform="translate(1,-6)" ><path fill="black" d="M102 692 L302 692 L302 633 L102 633 L102 692 Z " /></g></glyph>
<glyph glyph-name="Ibreve" unicode="&#x12c;" horiz-adv-x="437" >
<path fill="black" d="M60 56 L166 66 L166 648 L60 658 L60 714 L347 714 L347 658 L239 648 L239 66 L347 56 L347 0 L60 0 L60 56 Z " /><g transform="translate(0,179)" ><path fill="black" d="M148 739 C151.333 691 169.667 667 203 667 C236.333 667 255 691 259 739 L304 739 C304 659 264.333 611 203 611 C143 611 104.667 653.667 102 739 L148 739 Z " /></g></glyph>
<glyph glyph-name="ibreve" unicode="&#x12d;" horiz-adv-x="407" >
<path fill="black" d="M58 56 L173 66 L173 466 L65 479 L65 535 L246 535 L246 66 L348 56 L348 0 L58 0 L58 56 Z " /><path fill="black" d="M148 739 C151.333 691 169.667 667 203 667 C236.333 667 255 691 259 739 L304 739 C304 659 264.333 611 203 611 C143 611 104.667 653.667 102 739 L148 739 Z " /></glyph>
<glyph glyph-name="Iogonek" unicode="&#x12e;" horiz-adv-x="437" d="M62 56 L168 66 L168 648 L62 658 L62 714 L349 714 L349 658 L241 648 L241 66 L349 56 L349 0 L276 0 C240 -45.3333 228 -79.6667 228 -117 C228 -151 240.333 -168 265 -168 C275.667 -168 283.333 -164.667 290 -162 L290 -215 C279.333 -220.333 266 -223 250 -223 C195.333 -223 170 -191.333 170 -134 C170 -83.3333 189.333 -38.6667 224 0 L62 0 L62 56 Z " />
<glyph glyph-name="iogonek" unicode="&#x12f;" horiz-adv-x="437" d="M60 56 L175 66 L175 466 L67 479 L67 535 L248 535 L248 66 L350 56 L350 0 L281 0 C245 -45.3333 233 -79.6667 233 -117 C233 -151 245.333 -168 270 -168 C280.667 -168 288.333 -164.667 295 -162 L295 -215 C284.333 -220.333 271 -223 255 -223 C200.333 -223 175 -191.333 175 -134 C175 -83.3333 194.333 -38.6667 229 0 L60 0 L60 56 Z M209 635 C178.333 635 159 656 159 700 C159 742.667 178.333 762 209 762 C237 762 258 744 258 700 C258 656 235.667 635 209 635 Z " />
<glyph glyph-name="Idotaccent" unicode="&#x130;" horiz-adv-x="437" >
<path fill="black" d="M60 56 L166 66 L166 648 L60 658 L60 714 L347 714 L347 658 L239 648 L239 66 L347 56 L347 0 L60 0 L60 56 Z " /><g transform="translate(0,825)" ><path fill="black" d="M204 -12 C173.333 -12 154 9 154 53 C154 95.6667 173.333 115 204 115 C232 115 253 97 253 53 C253 9 230.667 -12 204 -12 Z " /></g></glyph>
<glyph glyph-name="dotlessi" unicode="&#x131;" horiz-adv-x="407" d="M58 56 L173 66 L173 466 L65 479 L65 535 L246 535 L246 66 L348 56 L348 0 L58 0 L58 56 Z " />
<glyph glyph-name="IJ" unicode="&#x132;" horiz-adv-x="437" d="M76 97 C94.7871 86.2645 139.955 65 179 65 C231 65 265 106.333 265 217 L265 714 L340 714 L340 205 C340 66.3333 288 -10 188 -10 C149.333 -10 101.333 1.33333 76 20 L76 97 Z M75 178 L75 714 L149 714 L149 178 L75 178 Z " />
<glyph glyph-name="ij" unicode="&#x133;" horiz-adv-x="437" d="M87 -157 C113.667 -166.333 152.333 -176 179 -176 C232.333 -176 260 -138.333 260 -69 L260 535 L334 535 L334 -64 C334 -188 282.667 -245 184 -245 C150.667 -245 115 -238.667 87 -228 L87 -157 Z M75 0 L75 536 L149 536 L149 0 L75 0 Z M113 634 C82.3333 634 63 655 63 699 C63 741.667 82.3333 761 113 761 C141 761 162 743 162 699 C162 655 139.667 634 113 634 Z M295 634 C264.333 634 245 655 245 699 C245 741.667 264.333 761 295 761 C323 761 344 743 344 699 C344 655 321.667 634 295 634 Z " />
<glyph glyph-name="Jcircumflex" unicode="&#x134;" horiz-adv-x="437" >
<path fill="black" d="M41 92 C71.6667 72 106.667 61 136 61 C208 61 247 117 247 217 L247 714 L320 714 L320 202 C320 76.6667 260.203 -10 143 -10 C104.333 -10 67.6667 0.333333 41 19 L41 92 Z " /><g transform="translate(80,179)" ><path fill="black" d="M95 606 L95 616 C123 664 154.333 723.333 169 766 L237 766 C254.333 720.667 285.333 658.667 312 616 L312 606 L271 606 C248.333 632.667 227 667.333 203 702 C177.667 667.333 153.667 630 135 606 L95 606 Z " /></g></glyph>
<glyph glyph-name="jcircumflex" unicode="&#x135;" horiz-adv-x="407" >
<path fill="black" d="M36 -157 C64 -166.333 101.667 -176 127 -176 C177.667 -176 204 -138.333 204 -69 L204 466 L67 479 L67 535 L277 535 L277 -64 C277 -188 228 -245 132 -245 C100 -245 64 -238.667 36 -228 L36 -157 Z " /><g transform="translate(33,0)" ><path fill="black" d="M95 606 L95 616 C123 664 154.333 723.333 169 766 L237 766 C254.333 720.667 285.333 658.667 312 616 L312 606 L271 606 C248.333 632.667 227 667.333 203 702 C177.667 667.333 153.667 630 135 606 L95 606 Z " /></g></glyph>
<glyph glyph-name="uni0136" unicode="&#x136;" horiz-adv-x="437" >
<path fill="black" d="M37 0 L37 714 L109 714 L109 352 C127.667 382.667 146.333 418.667 173 468 L296 714 L379 714 L214 395 L386 0 L303 0 L162 338 L109 266 L109 0 L37 0 Z " /><g transform="translate(647,0)" ><path fill="black" d="M-500 -221 L-500 -210 C-489.343 -175.365 -474.597 -102.547 -472 -61 L-398 -61 L-398 -69 C-405.977 -111.545 -432.51 -180.184 -457 -221 L-500 -221 Z " /></g></glyph>
<glyph glyph-name="uni0137" unicode="&#x137;" horiz-adv-x="437" >
<path fill="black" d="M52 0 L52 760 L124 760 L124 408 C124 360 121.667 321.667 119 271 L120 271 C134.667 295 145 315.333 161 338 L290 535 L379 535 L217 304 L388 0 L301 0 L167 245 L124 200 L124 0 L52 0 Z " /><g transform="translate(657,0)" ><path fill="black" d="M-500 -221 L-500 -210 C-489.343 -175.365 -474.597 -102.547 -472 -61 L-398 -61 L-398 -69 C-405.977 -111.545 -432.51 -180.184 -457 -221 L-500 -221 Z " /></g></glyph>
<glyph glyph-name="kgreenlandic" unicode="&#x138;" horiz-adv-x="437" d="M51 0 L51 535 L124 535 L124 408 C124 360 121.667 321.667 119 271 L120 271 C133.333 295 145 315.333 161 338 L289 535 L379 535 L216 304 L388 0 L300 0 L166 245 L124 200 L124 0 L51 0 Z " />
<glyph glyph-name="Lacute" unicode="&#x139;" horiz-adv-x="437" >
<path fill="black" d="M359 76 L359 0 L60 0 L60 714 L135 714 L135 76 L359 76 Z " /><g transform="translate(-116,179)" ><path fill="black" d="M170 606 L170 617 C200.667 670.333 223.667 720.667 241 766 L326 766 L326 757 C304.56 714.119 251.204 642.835 217 606 L170 606 Z " /></g></glyph>
<glyph glyph-name="lacute" unicode="&#x13a;" horiz-adv-x="437" >
<path fill="black" d="M58 56 L167 66 L167 694 L63 704 L63 760 L241 760 L241 66 L348 56 L348 0 L58 0 L58 56 Z " /><g transform="translate(-12,225)" ><path fill="black" d="M170 606 L170 617 C200.667 670.333 223.667 720.667 241 766 L326 766 L326 757 C304.56 714.119 251.204 642.835 217 606 L170 606 Z " /></g></glyph>
<glyph glyph-name="uni013B" unicode="&#x13b;" horiz-adv-x="437" >
<path fill="black" d="M359 76 L359 0 L60 0 L60 714 L135 714 L135 76 L359 76 Z " /><g transform="translate(656,0)" ><path fill="black" d="M-500 -221 L-500 -210 C-489.343 -175.365 -474.597 -102.547 -472 -61 L-398 -61 L-398 -69 C-405.977 -111.545 -432.51 -180.184 -457 -221 L-500 -221 Z " /></g></glyph>
<glyph glyph-name="uni013C" unicode="&#x13c;" horiz-adv-x="437" >
<path fill="black" d="M58 56 L167 66 L167 694 L63 704 L63 760 L241 760 L241 66 L348 56 L348 0 L58 0 L58 56 Z " /><g transform="translate(642,0)" ><path fill="black" d="M-500 -221 L-500 -210 C-489.343 -175.365 -474.597 -102.547 -472 -61 L-398 -61 L-398 -69 C-405.977 -111.545 -432.51 -180.184 -457 -221 L-500 -221 Z " /></g></glyph>
<glyph glyph-name="Lcaron" unicode="&#x13d;" horiz-adv-x="437" >
<g transform="translate(1,0)" ><path fill="black" d="M359 76 L359 0 L60 0 L60 714 L135 714 L135 76 L359 76 Z " /></g><g transform="translate(345,0)" ><path fill="black" d="M-46 554 L-46 562 C-38.0201 591.259 -27.6747 676.554 -25 714 L50 714 L50 707 C41.8822 666.411 16.9441 593.27 -4 554 L-46 554 Z " /></g></glyph>
<glyph glyph-name="lcaron" unicode="&#x13e;" horiz-adv-x="437" >
<g transform="translate(1,0)" ><path fill="black" d="M58 56 L167 66 L167 694 L63 704 L63 760 L241 760 L241 66 L348 56 L348 0 L58 0 L58 56 Z " /></g><g transform="translate(364,46)" ><path fill="black" d="M-46 554 L-46 562 C-38.0201 591.259 -27.6747 676.554 -25 714 L50 714 L50 707 C41.8822 666.411 16.9441 593.27 -4 554 L-46 554 Z " /></g></glyph>
<glyph glyph-name="Ldot" unicode="&#x13f;" horiz-adv-x="437" >
<g transform="translate(2,0)" ><path fill="black" d="M359 76 L359 0 L60 0 L60 714 L135 714 L135 76 L359 76 Z " /></g><g transform="translate(114,323)" ><path fill="black" d="M204 -12 C173.333 -12 154 9 154 53 C154 95.6667 173.333 115 204 115 C232 115 253 97 253 53 C253 9 230.667 -12 204 -12 Z " /></g></glyph>
<glyph glyph-name="ldot" unicode="&#x140;" horiz-adv-x="437" >
<path fill="black" d="M58 56 L167 66 L167 694 L63 704 L63 760 L241 760 L241 66 L348 56 L348 0 L58 0 L58 56 Z " /><g transform="translate(206,346)" ><path fill="black" d="M204 -12 C173.333 -12 154 9 154 53 C154 95.6667 173.333 115 204 115 C232 115 253 97 253 53 C253 9 230.667 -12 204 -12 Z " /></g></glyph>
<glyph glyph-name="Lslash" unicode="&#x141;" horiz-adv-x="437" d="M60 325 L5 289 L5 350 L60 386 L60 714 L135 714 L135 435 L260 517 L260 456 L135 374 L135 76 L359 76 L359 0 L60 0 L60 325 Z " />
<glyph glyph-name="lslash" unicode="&#x142;" horiz-adv-x="437" d="M60 56 L169 66 L169 344 L85 289 L85 350 L169 405 L169 694 L65 704 L65 760 L243 760 L243 453 L340 517 L340 456 L243 392 L243 66 L350 56 L350 0 L60 0 L60 56 Z " />
<glyph glyph-name="Nacute" unicode="&#x143;" horiz-adv-x="437" >
<path fill="black" d="M37 0 L37 714 L138 714 L308 84 L312 84 C312 107.778 303 186.222 303 250 L303 714 L370 714 L370 0 L273 0 L99 633 L94 633 C98 573 103 517 103 445 L103 0 L37 0 Z " /><g transform="translate(-7,179)" ><path fill="black" d="M170 606 L170 617 C200.667 670.333 223.667 720.667 241 766 L326 766 L326 757 C304.56 714.119 251.204 642.835 217 606 L170 606 Z " /></g></glyph>
<glyph glyph-name="nacute" unicode="&#x144;" horiz-adv-x="437" >
<path fill="black" d="M48 0 L48 535 L108 535 L118 461 L123 461 C144.333 517 185.667 546 235 546 C316.333 546 363 488.333 363 351 L363 0 L290 0 L290 347 C290 433.667 266 477 218 477 C154 477 121 407.667 121 281 L121 0 L48 0 Z " /><g transform="translate(-2,0)" ><path fill="black" d="M170 606 L170 617 C200.667 670.333 223.667 720.667 241 766 L326 766 L326 757 C304.56 714.119 251.204 642.835 217 606 L170 606 Z " /></g></glyph>
<glyph glyph-name="uni0145" unicode="&#x145;" horiz-adv-x="437" >
<path fill="black" d="M37 0 L37 714 L138 714 L308 84 L312 84 C312 107.778 303 186.222 303 250 L303 714 L370 714 L370 0 L273 0 L99 633 L94 633 C98 573 103 517 103 445 L103 0 L37 0 Z " /><g transform="translate(640,0)" ><path fill="black" d="M-500 -221 L-500 -210 C-489.343 -175.365 -474.597 -102.547 -472 -61 L-398 -61 L-398 -69 C-405.977 -111.545 -432.51 -180.184 -457 -221 L-500 -221 Z " /></g></glyph>
<glyph glyph-name="uni0146" unicode="&#x146;" horiz-adv-x="437" >
<path fill="black" d="M48 0 L48 535 L108 535 L118 461 L123 461 C144.333 517 185.667 546 235 546 C316.333 546 363 488.333 363 351 L363 0 L290 0 L290 347 C290 433.667 266 477 218 477 C154 477 121 407.667 121 281 L121 0 L48 0 Z " /><g transform="translate(644,0)" ><path fill="black" d="M-500 -221 L-500 -210 C-489.343 -175.365 -474.597 -102.547 -472 -61 L-398 -61 L-398 -69 C-405.977 -111.545 -432.51 -180.184 -457 -221 L-500 -221 Z " /></g></glyph>
<glyph glyph-name="Ncaron" unicode="&#x147;" horiz-adv-x="437" >
<path fill="black" d="M37 0 L37 714 L138 714 L308 84 L312 84 C312 107.778 303 186.222 303 250 L303 714 L370 714 L370 0 L273 0 L99 633 L94 633 C98 573 103 517 103 445 L103 0 L37 0 Z " /><g transform="translate(5,179)" ><path fill="black" d="M169 606 C151.667 650 121.667 709.333 95 756 L95 766 L135 766 C155 742 179 704.667 203 670 C229.667 710 245.667 730 271 766 L312 766 L312 756 C288 714.667 254.333 652.667 237 606 L169 606 Z " /></g></glyph>
<glyph glyph-name="ncaron" unicode="&#x148;" horiz-adv-x="437" >
<path fill="black" d="M48 0 L48 535 L108 535 L118 461 L123 461 C144.333 517 185.667 546 235 546 C316.333 546 363 488.333 363 351 L363 0 L290 0 L290 347 C290 433.667 266 477 218 477 C154 477 121 407.667 121 281 L121 0 L48 0 Z " /><g transform="translate(10,0)" ><path fill="black" d="M169 606 C151.667 650 121.667 709.333 95 756 L95 766 L135 766 C155 742 179 704.667 203 670 C229.667 710 245.667 730 271 766 L312 766 L312 756 C288 714.667 254.333 652.667 237 606 L169 606 Z " /></g></glyph>
<glyph glyph-name="napostrophe" unicode="&#x149;" horiz-adv-x="437" d="M56 0 L56 535 L116 535 L127 461 L131 461 C152.333 517 190.333 546 241 546 C317 546 363 488.333 363 351 L363 0 L290 0 L290 347 C290 432.333 262.667 477 216 477 C154.667 477 129 407.667 129 281 L129 0 L56 0 Z M-53 469 C-37 549 -23.6667 644.667 -17 714 L57 714 L63 703 C48.3333 620.333 28.3333 545 3 469 L-53 469 Z " />
<glyph glyph-name="Eng" unicode="&#x14a;" horiz-adv-x="437" d="M180 -121 C195.333 -127.667 211.333 -131 228 -131 C274.667 -131 309 -93.3333 309 0 L273 0 L99 633 L94 633 C98 573 103 517 103 445 L103 0 L37 0 L37 714 L138 714 L308 84 L312 84 C312 107.778 303 186.222 303 250 L303 714 L370 714 L370 0 L369 0 C368.333 -127.333 324 -191 236 -191 C214.667 -191 194.667 -185.667 180 -179 L180 -121 Z " />
<glyph glyph-name="eng" unicode="&#x14b;" horiz-adv-x="437" d="M207 -162 C219 -168 231.667 -171 245 -171 C271.667 -171 285.667 -146.333 287 -85 L290 172 L290 347 C290 433.667 266 477 218 477 C154 477 121 407.667 121 281 L121 0 L48 0 L48 535 L108 535 L118 461 L123 461 C144.333 517 185.667 546 235 546 C316.333 546 363 488.333 363 351 L363 0 L362 0 L362 -83 C362 -183 330.333 -240 257 -240 C237 -240 221.667 -236.667 207 -230 L207 -162 Z " />
<glyph glyph-name="Omacron" unicode="&#x14c;" horiz-adv-x="437" >
<path fill="black" d="M204 -10 C67.974 -10 21 157.225 21 359 C21 599 77.6667 726 203 726 C336.463 726 386 564.407 386 358 C386 152.771 338.978 -10 204 -10 Z M204 61 C276 61 310 162 310 358 C310 552.667 275 655 203 655 C125.667 655 97 550 97 358 C97 164.667 132 61 204 61 Z " /><g transform="translate(1,173)" ><path fill="black" d="M102 692 L302 692 L302 633 L102 633 L102 692 Z " /></g></glyph>
<glyph glyph-name="omacron" unicode="&#x14d;" horiz-adv-x="437" >
<path fill="black" d="M204 -10 C94.6667 -10 32 90 32 270 C32 446 94 546 202 546 C307.333 546 374 445.667 374 267 C374 89.6667 314.667 -10 204 -10 Z M203 58 C265.667 58 298 129.333 298 268 C298 406.667 264.333 478 203 478 C140.333 478 109 408.333 109 269 C109 128.333 140.333 58 203 58 Z " /><g transform="translate(1,-6)" ><path fill="black" d="M102 692 L302 692 L302 633 L102 633 L102 692 Z " /></g></glyph>
<glyph glyph-name="Obreve" unicode="&#x14e;" horiz-adv-x="437" >
<path fill="black" d="M204 -10 C67.974 -10 21 157.225 21 359 C21 599 77.6667 726 203 726 C336.463 726 386 564.407 386 358 C386 152.771 338.978 -10 204 -10 Z M204 61 C276 61 310 162 310 358 C310 552.667 275 655 203 655 C125.667 655 97 550 97 358 C97 164.667 132 61 204 61 Z " /><g transform="translate(0,179)" ><path fill="black" d="M148 739 C151.333 691 169.667 667 203 667 C236.333 667 255 691 259 739 L304 739 C304 659 264.333 611 203 611 C143 611 104.667 653.667 102 739 L148 739 Z " /></g></glyph>
<glyph glyph-name="obreve" unicode="&#x14f;" horiz-adv-x="437" >
<path fill="black" d="M204 -10 C94.6667 -10 32 90 32 270 C32 446 94 546 202 546 C307.333 546 374 445.667 374 267 C374 89.6667 314.667 -10 204 -10 Z M203 58 C265.667 58 298 129.333 298 268 C298 406.667 264.333 478 203 478 C140.333 478 109 408.333 109 269 C109 128.333 140.333 58 203 58 Z " /><path fill="black" d="M148 739 C151.333 691 169.667 667 203 667 C236.333 667 255 691 259 739 L304 739 C304 659 264.333 611 203 611 C143 611 104.667 653.667 102 739 L148 739 Z " /></glyph>
<glyph glyph-name="Ohungarumlaut" unicode="&#x150;" horiz-adv-x="437" d="M204 -10 C67.974 -10 21 157.225 21 359 C21 599 77.6667 726 203 726 C336.463 726 386 564.407 386 358 C386 152.771 338.978 -10 204 -10 Z M204 61 C276 61 310 162 310 358 C310 552.667 275 655 203 655 C125.667 655 97 550 97 358 C97 164.667 132 61 204 61 Z M111 784 L111 795 C135.706 841.667 162.309 909.255 173 944 L246 944 L246 935 C227.523 890.128 185.287 824.287 145 784 L111 784 Z M229 784 L229 795 C253.706 841.667 280.309 909.255 291 944 L364 944 L364 935 C345.523 890.128 303.287 824.287 263 784 L229 784 Z " />
<glyph glyph-name="ohungarumlaut" unicode="&#x151;" horiz-adv-x="437" d="M204 -10 C94.6667 -10 32 90 32 270 C32 446 94 546 202 546 C307.333 546 374 445.667 374 267 C374 89.6667 314.667 -10 204 -10 Z M203 58 C265.667 58 298 129.333 298 268 C298 406.667 264.333 478 203 478 C140.333 478 109 408.333 109 269 C109 128.333 140.333 58 203 58 Z M111 605 L111 616 C135.706 662.667 162.309 730.255 173 765 L246 765 L246 756 C227.523 711.128 185.287 645.287 145 605 L111 605 Z M229 605 L229 616 C253.706 662.667 280.309 730.255 291 765 L364 765 L364 756 C345.523 711.128 303.287 645.287 263 605 L229 605 Z " />
<glyph glyph-name="OE" unicode="&#x152;" horiz-adv-x="437" d="M385 76 L385 0 L218 0 C203.333 -5.33333 187 -9 171 -9 C61.7186 -9 21 135 21 359 C21 577.563 62.8918 723 174 723 C188.667 723 204.333 719.333 223 714 L385 714 L385 638 L280 638 L280 410 L373 410 L373 334 L280 334 L280 76 L385 76 Z M207 640 C200.333 650.667 190.667 654 176 654 C114.537 654 93 538.364 93 358 C93 176.745 112.693 63 174 63 C186 63 197.667 65.6667 207 75 L207 640 Z " />
<glyph glyph-name="oe" unicode="&#x153;" horiz-adv-x="437" d="M382 25 C360 1.66667 334.667 -10 306 -10 C263.333 -10 228.333 22 211 90 C192.333 18 167 -10 127 -10 C51 -10 17 78.3333 17 265 C17 473 55.0519 545 127 545 C165.667 545 191.333 517 210 445 C228.667 511.667 256.333 545 293 545 C358.333 545 393 457 393 305 L393 252 L241 252 C242.333 118.667 272 59 316 59 C338.667 59 359.333 74.3333 382 97 L382 25 Z M128 59 C161.333 59 176 132.333 176 267 C176 406.333 159.667 476 127 476 C93.6667 476 80 412.333 80 267 C80 133.667 92 59 128 59 Z M331 321 C329.667 425 313.333 476 288 476 C259.61 476 241 398.463 241 321 L331 321 Z " />
<glyph glyph-name="Racute" unicode="&#x154;" horiz-adv-x="437" >
<path fill="black" d="M53 0 L53 714 L181 714 C297 714 356 649.333 356 512 C356 398.667 318.667 342.333 268 317 L390 0 L308 0 L202 296 L125 296 L125 0 L53 0 Z M125 367 L180 367 C246.667 367 280 414.333 280 509 C280 605 246.333 643 177 643 L125 643 L125 367 Z " /><g transform="translate(-12,179)" ><path fill="black" d="M170 606 L170 617 C200.667 670.333 223.667 720.667 241 766 L326 766 L326 757 C304.56 714.119 251.204 642.835 217 606 L170 606 Z " /></g></glyph>
<glyph glyph-name="racute" unicode="&#x155;" horiz-adv-x="437" >
<path fill="black" d="M32 56 L127 66 L127 466 L36 479 L36 535 L186 535 L193 440 L197 440 C218.333 504 257.333 546 316 546 C336 546 359.333 541 382 529 L362 452 C346 462.667 323.333 466 306 466 C239.359 466 201 380.974 201 269 L201 66 L302 56 L302 0 L32 0 L32 56 Z " /><g transform="translate(-2,0)" ><path fill="black" d="M170 606 L170 617 C200.667 670.333 223.667 720.667 241 766 L326 766 L326 757 C304.56 714.119 251.204 642.835 217 606 L170 606 Z " /></g></glyph>
<glyph glyph-name="uni0156" unicode="&#x156;" horiz-adv-x="437" >
<path fill="black" d="M53 0 L53 714 L181 714 C297 714 356 649.333 356 512 C356 398.667 318.667 342.333 268 317 L390 0 L308 0 L202 296 L125 296 L125 0 L53 0 Z M125 367 L180 367 C246.667 367 280 414.333 280 509 C280 605 246.333 643 177 643 L125 643 L125 367 Z " /><g transform="translate(650,0)" ><path fill="black" d="M-500 -221 L-500 -210 C-489.343 -175.365 -474.597 -102.547 -472 -61 L-398 -61 L-398 -69 C-405.977 -111.545 -432.51 -180.184 -457 -221 L-500 -221 Z " /></g></glyph>
<glyph glyph-name="uni0157" unicode="&#x157;" horiz-adv-x="437" >
<path fill="black" d="M32 56 L127 66 L127 466 L36 479 L36 535 L186 535 L193 440 L197 440 C218.333 504 257.333 546 316 546 C336 546 359.333 541 382 529 L362 452 C346 462.667 323.333 466 306 466 C239.359 466 201 380.974 201 269 L201 66 L302 56 L302 0 L32 0 L32 56 Z " /><g transform="translate(603,0)" ><path fill="black" d="M-500 -221 L-500 -210 C-489.343 -175.365 -474.597 -102.547 -472 -61 L-398 -61 L-398 -69 C-405.977 -111.545 -432.51 -180.184 -457 -221 L-500 -221 Z " /></g></glyph>
<glyph glyph-name="Rcaron" unicode="&#x158;" horiz-adv-x="437" >
<path fill="black" d="M53 0 L53 714 L181 714 C297 714 356 649.333 356 512 C356 398.667 318.667 342.333 268 317 L390 0 L308 0 L202 296 L125 296 L125 0 L53 0 Z M125 367 L180 367 C246.667 367 280 414.333 280 509 C280 605 246.333 643 177 643 L125 643 L125 367 Z " /><g transform="translate(0,179)" ><path fill="black" d="M169 606 C151.667 650 121.667 709.333 95 756 L95 766 L135 766 C155 742 179 704.667 203 670 C229.667 710 245.667 730 271 766 L312 766 L312 756 C288 714.667 254.333 652.667 237 606 L169 606 Z " /></g></glyph>
<glyph glyph-name="rcaron" unicode="&#x159;" horiz-adv-x="437" >
<path fill="black" d="M32 56 L127 66 L127 466 L36 479 L36 535 L186 535 L193 440 L197 440 C218.333 504 257.333 546 316 546 C336 546 359.333 541 382 529 L362 452 C346 462.667 323.333 466 306 466 C239.359 466 201 380.974 201 269 L201 66 L302 56 L302 0 L32 0 L32 56 Z " /><g transform="translate(10,0)" ><path fill="black" d="M169 606 C151.667 650 121.667 709.333 95 756 L95 766 L135 766 C155 742 179 704.667 203 670 C229.667 710 245.667 730 271 766 L312 766 L312 756 C288 714.667 254.333 652.667 237 606 L169 606 Z " /></g></glyph>
<glyph glyph-name="Sacute" unicode="&#x15a;" horiz-adv-x="437" >
<path fill="black" d="M49 97 C90.3333 74.3333 134.333 61 177 61 C254.177 61 283 117.615 283 187 C283 263.431 245.476 292.245 176 335 C110.231 377.092 53 426.873 53 540 C53 668 118.667 726 216 726 C261.333 726 306.333 713.333 351 688 L325 621 C290.333 642.333 252.667 655 218 655 C154 655 128 612 128 544 C128 466.607 165.931 437.043 230 397 C306.361 346.97 359 310.815 359 193 C359 59.6667 289.667 -10 179 -10 C132.333 -10 85 1.66667 49 23 L49 97 Z " /><g transform="translate(-3,179)" ><path fill="black" d="M170 606 L170 617 C200.667 670.333 223.667 720.667 241 766 L326 766 L326 757 C304.56 714.119 251.204 642.835 217 606 L170 606 Z " /></g></glyph>
<glyph glyph-name="sacute" unicode="&#x15b;" horiz-adv-x="437" >
<path fill="black" d="M64 98 C98.6667 75.3333 145 58 193 58 C258.333 58 276 92.3333 276 139 C276 183.19 258.696 198.396 182 246 C115.488 288.567 68 318.851 68 405 C68 497 124 546 220 546 C264 546 299.333 535.667 342 513 L317 449 C278.333 470.333 249.333 478 220 478 C168 478 142 454.667 142 408 C142 364.145 168.861 344.749 241 302 C307.648 262.011 350 230.662 350 141 C350 42.3333 296 -10 188 -10 C137.333 -10 96 1.33333 64 24 L64 98 Z " /><g transform="translate(-6,0)" ><path fill="black" d="M170 606 L170 617 C200.667 670.333 223.667 720.667 241 766 L326 766 L326 757 C304.56 714.119 251.204 642.835 217 606 L170 606 Z " /></g></glyph>
<glyph glyph-name="Scircumflex" unicode="&#x15c;" horiz-adv-x="437" >
<path fill="black" d="M49 97 C90.3333 74.3333 134.333 61 177 61 C254.177 61 283 117.615 283 187 C283 263.431 245.476 292.245 176 335 C110.231 377.092 53 426.873 53 540 C53 668 118.667 726 216 726 C261.333 726 306.333 713.333 351 688 L325 621 C290.333 642.333 252.667 655 218 655 C154 655 128 612 128 544 C128 466.607 165.931 437.043 230 397 C306.361 346.97 359 310.815 359 193 C359 59.6667 289.667 -10 179 -10 C132.333 -10 85 1.66667 49 23 L49 97 Z " /><g transform="translate(9,179)" ><path fill="black" d="M95 606 L95 616 C123 664 154.333 723.333 169 766 L237 766 C254.333 720.667 285.333 658.667 312 616 L312 606 L271 606 C248.333 632.667 227 667.333 203 702 C177.667 667.333 153.667 630 135 606 L95 606 Z " /></g></glyph>
<glyph glyph-name="scircumflex" unicode="&#x15d;" horiz-adv-x="437" >
<path fill="black" d="M64 98 C98.6667 75.3333 145 58 193 58 C258.333 58 276 92.3333 276 139 C276 183.19 258.696 198.396 182 246 C115.488 288.567 68 318.851 68 405 C68 497 124 546 220 546 C264 546 299.333 535.667 342 513 L317 449 C278.333 470.333 249.333 478 220 478 C168 478 142 454.667 142 408 C142 364.145 168.861 344.749 241 302 C307.648 262.011 350 230.662 350 141 C350 42.3333 296 -10 188 -10 C137.333 -10 96 1.33333 64 24 L64 98 Z " /><g transform="translate(6,0)" ><path fill="black" d="M95 606 L95 616 C123 664 154.333 723.333 169 766 L237 766 C254.333 720.667 285.333 658.667 312 616 L312 606 L271 606 C248.333 632.667 227 667.333 203 702 C177.667 667.333 153.667 630 135 606 L95 606 Z " /></g></glyph>
<glyph glyph-name="Scedilla" unicode="&#x15e;" horiz-adv-x="437" d="M134 -182 C145.333 -186 156.667 -188 168 -188 C202.667 -188 218 -168.667 218 -138 C218 -102 196.667 -85.6667 158 -79 L182 -10 L179 -10 C132.333 -10 85 1.66667 49 23 L49 97 C90.3333 74.3333 134.333 61 177 61 C254.177 61 283 117.615 283 187 C283 263.431 245.476 292.245 176 335 C110.231 377.092 53 426.873 53 540 C53 668 118.667 726 216 726 C261.333 726 306.333 713.333 351 688 L325 621 C290.333 642.333 252.667 655 218 655 C154 655 128 612 128 544 C128 466.607 165.931 437.043 230 397 C306.361 346.97 359 310.815 359 193 C359 79.6667 309 12.3333 225 -5 L211 -51 C255 -63 277 -93 277 -141 C277 -205 242 -240 178 -240 C163.333 -240 144.667 -238 134 -234 L134 -182 Z " />
<glyph glyph-name="scedilla" unicode="&#x15f;" horiz-adv-x="437" d="M140 -182 C151.333 -186 162.667 -188 174 -188 C208.667 -188 224 -168.667 224 -138 C224 -102 202.667 -85.6667 164 -79 L188 -10 C137.333 -10 96 1.33333 64 24 L64 98 C98.6667 75.3333 145 58 193 58 C258.333 58 276 92.3333 276 139 C276 183.19 258.696 198.396 182 246 C115.488 288.567 68 318.851 68 405 C68 497 124 546 220 546 C264 546 299.333 535.667 342 513 L317 449 C278.333 470.333 249.333 478 220 478 C168 478 142 454.667 142 408 C142 364.145 168.861 344.749 241 302 C307.648 262.011 350 230.662 350 141 C350 55.6667 310.333 6.33333 231 -7 L217 -51 C261 -63 283 -93 283 -141 C283 -205 248 -240 184 -240 C169.333 -240 150.667 -238 140 -234 L140 -182 Z " />
<glyph glyph-name="Scaron" unicode="&#x160;" horiz-adv-x="437" >
<path fill="black" d="M49 97 C90.3333 74.3333 134.333 61 177 61 C254.177 61 283 117.615 283 187 C283 263.431 245.476 292.245 176 335 C110.231 377.092 53 426.873 53 540 C53 668 118.667 726 216 726 C261.333 726 306.333 713.333 351 688 L325 621 C290.333 642.333 252.667 655 218 655 C154 655 128 612 128 544 C128 466.607 165.931 437.043 230 397 C306.361 346.97 359 310.815 359 193 C359 59.6667 289.667 -10 179 -10 C132.333 -10 85 1.66667 49 23 L49 97 Z " /><g transform="translate(9,179)" ><path fill="black" d="M169 606 C151.667 650 121.667 709.333 95 756 L95 766 L135 766 C155 742 179 704.667 203 670 C229.667 710 245.667 730 271 766 L312 766 L312 756 C288 714.667 254.333 652.667 237 606 L169 606 Z " /></g></glyph>
<glyph glyph-name="scaron" unicode="&#x161;" horiz-adv-x="437" >
<path fill="black" d="M64 98 C98.6667 75.3333 145 58 193 58 C258.333 58 276 92.3333 276 139 C276 183.19 258.696 198.396 182 246 C115.488 288.567 68 318.851 68 405 C68 497 124 546 220 546 C264 546 299.333 535.667 342 513 L317 449 C278.333 470.333 249.333 478 220 478 C168 478 142 454.667 142 408 C142 364.145 168.861 344.749 241 302 C307.648 262.011 350 230.662 350 141 C350 42.3333 296 -10 188 -10 C137.333 -10 96 1.33333 64 24 L64 98 Z " /><g transform="translate(6,0)" ><path fill="black" d="M169 606 C151.667 650 121.667 709.333 95 756 L95 766 L135 766 C155 742 179 704.667 203 670 C229.667 710 245.667 730 271 766 L312 766 L312 756 C288 714.667 254.333 652.667 237 606 L169 606 Z " /></g></glyph>
<glyph glyph-name="uni0162" unicode="&#x162;" horiz-adv-x="437" d="M134 -182 C145.333 -186 156.667 -188 168 -188 C202.667 -188 218 -168.667 218 -138 C218 -102 196.667 -85.6667 158 -79 L185 0 L165 0 L165 640 L29 640 L29 714 L379 714 L379 640 L240 640 L240 0 L227 0 L211 -51 C255 -63 277 -93 277 -141 C277 -205 242 -240 178 -240 C163.333 -240 144.667 -238 134 -234 L134 -182 Z " />
<glyph glyph-name="uni0163" unicode="&#x163;" horiz-adv-x="437" d="M192 -182 C203.333 -186 214.667 -188 226 -188 C260.667 -188 276 -168.667 276 -138 C276 -102 254.667 -85.6667 216 -79 L241 -7 C183.667 3.66667 146 47.6667 146 145 L146 467 L38 467 L38 516 L149 538 L173 677 L221 677 L221 535 L364 535 L364 467 L219 467 L219 159 C219 91 244.333 60 291 60 C309.667 60 334 63.6667 362 73 L362 4 C337.333 -4 310.667 -8.66667 282 -10 L269 -51 C313 -63 335 -93 335 -141 C335 -205 300 -240 236 -240 C221.333 -240 202.667 -238 192 -234 L192 -182 Z " />
<glyph glyph-name="Tcaron" unicode="&#x164;" horiz-adv-x="437" >
<path fill="black" d="M165 0 L165 640 L29 640 L29 714 L379 714 L379 640 L240 640 L240 0 L165 0 Z " /><g transform="translate(0,179)" ><path fill="black" d="M169 606 C151.667 650 121.667 709.333 95 756 L95 766 L135 766 C155 742 179 704.667 203 670 C229.667 710 245.667 730 271 766 L312 766 L312 756 C288 714.667 254.333 652.667 237 606 L169 606 Z " /></g></glyph>
<glyph glyph-name="tcaron" unicode="&#x165;" horiz-adv-x="437" >
<g transform="translate(2,0)" ><path fill="black" d="M146 467 L38 467 L38 516 L149 538 L173 677 L221 677 L221 535 L364 535 L364 467 L219 467 L219 159 C219 91 244.333 60 291 60 C309.667 60 334 63.6667 362 73 L362 4 C335.333 -5.33333 304.333 -10 275 -10 C200.463 -10 146 29.2338 146 145 L146 467 Z " /></g><g transform="translate(365,46)" ><path fill="black" d="M-46 554 L-46 562 C-38.0201 591.259 -27.6747 676.554 -25 714 L50 714 L50 707 C41.8822 666.411 16.9441 593.27 -4 554 L-46 554 Z " /></g></glyph>
<glyph glyph-name="Tbar" unicode="&#x166;" horiz-adv-x="437" d="M165 327 L70 327 L70 395 L165 395 L165 640 L29 640 L29 714 L379 714 L379 640 L240 640 L240 395 L340 395 L340 327 L240 327 L240 0 L165 0 L165 327 Z " />
<glyph glyph-name="tbar" unicode="&#x167;" horiz-adv-x="437" d="M146 278 L38 278 L38 339 L146 339 L146 467 L38 467 L38 516 L149 538 L173 677 L221 677 L221 535 L364 535 L364 467 L219 467 L219 339 L364 339 L364 278 L219 278 L219 159 C219 91 244.333 60 291 60 C309.667 60 334 63.6667 362 73 L362 4 C335.333 -5.33333 304.333 -10 275 -10 C200.463 -10 146 29.2338 146 145 L146 278 Z " />
<glyph glyph-name="Utilde" unicode="&#x168;" horiz-adv-x="437" >
<path fill="black" d="M36 714 L111 714 L111 223 C111 107 141.333 61 204 61 C268 61 296 108 296 224 L296 714 L370 714 L370 220 C370 62.6667 317.333 -10 204 -10 C90.6667 -10 36 62.6667 36 220 L36 714 Z " /><g transform="translate(0,179)" ><path fill="black" d="M83 610 C88.2531 673.037 102.036 730 150 730 C190.556 730 223.111 672 253 672 C270.333 672 275.667 695 281 731 L324 731 C320 652.333 294.333 611 257 611 C217.876 611 180.32 670 155 670 C137.667 670 130.333 648.667 125 610 L83 610 Z " /></g></glyph>
<glyph glyph-name="utilde" unicode="&#x169;" horiz-adv-x="437" >
<path fill="black" d="M44 535 L118 535 L118 189 C118 91.6667 142.667 59 196 59 C257.333 59 285 127 285 255 L285 535 L359 535 L359 0 L298 0 L287 75 L282 75 C260.667 17.6667 221.667 -10 171 -10 C89.6667 -10 44 48.6667 44 174 L44 535 Z " /><path fill="black" d="M83 610 C88.2531 673.037 102.036 730 150 730 C190.556 730 223.111 672 253 672 C270.333 672 275.667 695 281 731 L324 731 C320 652.333 294.333 611 257 611 C217.876 611 180.32 670 155 670 C137.667 670 130.333 648.667 125 610 L83 610 Z " /></glyph>
<glyph glyph-name="Umacron" unicode="&#x16a;" horiz-adv-x="437" >
<path fill="black" d="M36 714 L111 714 L111 223 C111 107 141.333 61 204 61 C268 61 296 108 296 224 L296 714 L370 714 L370 220 C370 62.6667 317.333 -10 204 -10 C90.6667 -10 36 62.6667 36 220 L36 714 Z " /><g transform="translate(1,173)" ><path fill="black" d="M102 692 L302 692 L302 633 L102 633 L102 692 Z " /></g></glyph>
<glyph glyph-name="umacron" unicode="&#x16b;" horiz-adv-x="437" >
<path fill="black" d="M44 535 L118 535 L118 189 C118 91.6667 142.667 59 196 59 C257.333 59 285 127 285 255 L285 535 L359 535 L359 0 L298 0 L287 75 L282 75 C260.667 17.6667 221.667 -10 171 -10 C89.6667 -10 44 48.6667 44 174 L44 535 Z " /><g transform="translate(1,-6)" ><path fill="black" d="M102 692 L302 692 L302 633 L102 633 L102 692 Z " /></g></glyph>
<glyph glyph-name="Ubreve" unicode="&#x16c;" horiz-adv-x="437" >
<path fill="black" d="M36 714 L111 714 L111 223 C111 107 141.333 61 204 61 C268 61 296 108 296 224 L296 714 L370 714 L370 220 C370 62.6667 317.333 -10 204 -10 C90.6667 -10 36 62.6667 36 220 L36 714 Z " /><g transform="translate(0,179)" ><path fill="black" d="M148 739 C151.333 691 169.667 667 203 667 C236.333 667 255 691 259 739 L304 739 C304 659 264.333 611 203 611 C143 611 104.667 653.667 102 739 L148 739 Z " /></g></glyph>
<glyph glyph-name="ubreve" unicode="&#x16d;" horiz-adv-x="437" >
<path fill="black" d="M44 535 L118 535 L118 189 C118 91.6667 142.667 59 196 59 C257.333 59 285 127 285 255 L285 535 L359 535 L359 0 L298 0 L287 75 L282 75 C260.667 17.6667 221.667 -10 171 -10 C89.6667 -10 44 48.6667 44 174 L44 535 Z " /><path fill="black" d="M148 739 C151.333 691 169.667 667 203 667 C236.333 667 255 691 259 739 L304 739 C304 659 264.333 611 203 611 C143 611 104.667 653.667 102 739 L148 739 Z " /></glyph>
<glyph glyph-name="Uring" unicode="&#x16e;" horiz-adv-x="437" >
<path fill="black" d="M36 714 L111 714 L111 223 C111 107 141.333 61 204 61 C268 61 296 108 296 224 L296 714 L370 714 L370 220 C370 62.6667 317.333 -10 204 -10 C90.6667 -10 36 62.6667 36 220 L36 714 Z " /><g transform="translate(0,179)" ><path fill="black" d="M204 609 C149.333 609 116 648.667 116 710 C116 770 149.333 809 204 809 C254.667 809 290 770 290 710 C290 650 256 609 204 609 Z M204 656 C228 656 246 676.667 246 710 C246 740.667 230.667 763 204 763 C177.333 763 161 740.667 161 710 C161 676.667 177.333 656 204 656 Z " /></g></glyph>
<glyph glyph-name="uring" unicode="&#x16f;" horiz-adv-x="437" >
<path fill="black" d="M44 535 L118 535 L118 189 C118 91.6667 142.667 59 196 59 C257.333 59 285 127 285 255 L285 535 L359 535 L359 0 L298 0 L287 75 L282 75 C260.667 17.6667 221.667 -10 171 -10 C89.6667 -10 44 48.6667 44 174 L44 535 Z " /><path fill="black" d="M204 609 C149.333 609 116 648.667 116 710 C116 770 149.333 809 204 809 C254.667 809 290 770 290 710 C290 650 256 609 204 609 Z M204 656 C228 656 246 676.667 246 710 C246 740.667 230.667 763 204 763 C177.333 763 161 740.667 161 710 C161 676.667 177.333 656 204 656 Z " /></glyph>
<glyph glyph-name="Uhungarumlaut" unicode="&#x170;" horiz-adv-x="437" d="M36 714 L111 714 L111 223 C111 107 141.333 61 204 61 C268 61 296 108 296 224 L296 714 L370 714 L370 220 C370 62.6667 317.333 -10 204 -10 C90.6667 -10 36 62.6667 36 220 L36 714 Z M111 784 L111 795 C135.706 841.667 162.309 909.255 173 944 L246 944 L246 935 C227.523 890.128 185.287 824.287 145 784 L111 784 Z M229 784 L229 795 C253.706 841.667 280.309 909.255 291 944 L364 944 L364 935 C345.523 890.128 303.287 824.287 263 784 L229 784 Z " />
<glyph glyph-name="uhungarumlaut" unicode="&#x171;" horiz-adv-x="437" d="M44 535 L118 535 L118 189 C118 91.6667 142.667 59 196 59 C257.333 59 285 127 285 255 L285 535 L359 535 L359 0 L298 0 L287 75 L282 75 C260.667 17.6667 221.667 -10 171 -10 C89.6667 -10 44 48.6667 44 174 L44 535 Z M111 605 L111 616 C135.706 662.667 162.309 730.255 173 765 L246 765 L246 756 C227.523 711.128 185.287 645.287 145 605 L111 605 Z M229 605 L229 616 C253.706 662.667 280.309 730.255 291 765 L364 765 L364 756 C345.523 711.128 303.287 645.287 263 605 L229 605 Z " />
<glyph glyph-name="Uogonek" unicode="&#x172;" horiz-adv-x="437" d="M270 -215 C260.667 -220.333 247.333 -223 230 -223 C176.667 -223 151 -190.667 151 -136 C151 -85.3333 172.667 -43.3333 206 -10 L204 -10 C90.6667 -10 36 62.6667 36 220 L36 714 L111 714 L111 223 C111 107 141.333 61 204 61 C268 61 296 108 296 224 L296 714 L370 714 L370 220 C370 108 341.667 37 285 7 C238.333 -31.6667 209 -69.6667 209 -119 C209 -151.667 221.333 -168 246 -168 C256.667 -168 263.333 -164.667 270 -162 L270 -215 Z " />
<glyph glyph-name="uogonek" unicode="&#x173;" horiz-adv-x="437" d="M289 75 L284 75 C262.667 17.6667 223.667 -10 173 -10 C91.6667 -10 46 48.6667 46 174 L46 535 L120 535 L120 189 C120 91.6667 144.667 59 198 59 C259.333 59 287 127 287 255 L287 535 L361 535 L361 4 L375 0 C339 -45.3333 327 -79.6667 327 -117 C327 -151 339.333 -168 364 -168 C374.667 -168 382.333 -164.667 389 -162 L389 -215 C378.333 -220.333 365 -223 349 -223 C294.333 -223 269 -191.333 269 -134 C269 -83.3333 288.333 -38.6667 323 0 L300 0 L289 75 Z " />
<glyph glyph-name="Wcircumflex" unicode="&#x174;" horiz-adv-x="437" >
<path fill="black" d="M112 75 C117.361 120.566 127.952 230.301 136 292 L167 535 L239 535 L273 290 C281.069 222.757 295.299 120.91 298 75 L301 75 C301 120.244 308.339 328.45 311 379 C316.333 491 321.333 600.667 328 714 L394 714 L349 0 L262 0 L221 330 C214.333 390 209 416.667 205 446 L202 446 C199.333 416.667 193.667 390 187 330 L147 0 L60 0 L13 714 L74 714 L95 378 C100.353 319.122 110 119.552 110 75 L112 75 Z " /><g transform="translate(0,179)" ><path fill="black" d="M95 606 L95 616 C123 664 154.333 723.333 169 766 L237 766 C254.333 720.667 285.333 658.667 312 616 L312 606 L271 606 C248.333 632.667 227 667.333 203 702 C177.667 667.333 153.667 630 135 606 L95 606 Z " /></g></glyph>
<glyph glyph-name="wcircumflex" unicode="&#x175;" horiz-adv-x="437" >
<path fill="black" d="M110 67 C112.652 106.781 122.865 194.616 131 238 L165 443 L240 443 L274 238 C282.013 195.262 290.656 104.406 296 67 L298 67 C300.598 100.774 304.541 192.954 310 253 L334 535 L398 535 L340 0 L253 0 L224 208 C217.333 260 208.333 317 203 369 L201 369 C195.667 317 188 258 180 206 L151 0 L64 0 L10 535 L74 535 L98 253 C103.356 196.761 105.316 104.572 108 67 L110 67 Z " /><g transform="translate(2,0)" ><path fill="black" d="M95 606 L95 616 C123 664 154.333 723.333 169 766 L237 766 C254.333 720.667 285.333 658.667 312 616 L312 606 L271 606 C248.333 632.667 227 667.333 203 702 C177.667 667.333 153.667 630 135 606 L95 606 Z " /></g></glyph>
<glyph glyph-name="Ycircumflex" unicode="&#x176;" horiz-adv-x="437" >
<path fill="black" d="M166 0 L166 273 L17 714 L98 714 L203 348 L309 714 L390 714 L239 273 L239 0 L166 0 Z " /><g transform="translate(0,179)" ><path fill="black" d="M95 606 L95 616 C123 664 154.333 723.333 169 766 L237 766 C254.333 720.667 285.333 658.667 312 616 L312 606 L271 606 C248.333 632.667 227 667.333 203 702 C177.667 667.333 153.667 630 135 606 L95 606 Z " /></g></glyph>
<glyph glyph-name="ycircumflex" unicode="&#x177;" horiz-adv-x="437" >
<path fill="black" d="M37 -170 C49 -172.667 64.3333 -177 79 -177 C117.667 -177 138.333 -153 157 -81 L175 -5 L24 535 L101 535 L179 220 C192.333 167.333 202.333 119.333 209 76 L212 76 C217.333 118.667 228.667 178.333 238 221 L305 535 L384 535 L230 -73 C203.333 -177 160.333 -245 87 -245 C69.6667 -245 53 -241 37 -237 L37 -170 Z " /><path fill="black" d="M95 606 L95 616 C123 664 154.333 723.333 169 766 L237 766 C254.333 720.667 285.333 658.667 312 616 L312 606 L271 606 C248.333 632.667 227 667.333 203 702 C177.667 667.333 153.667 630 135 606 L95 606 Z " /></glyph>
<glyph glyph-name="Ydieresis" unicode="&#x178;" horiz-adv-x="437" >
<g transform="translate(0,168)" ><path fill="black" d="M127 626 C101.667 626 84 646 84 686 C84 724.667 101.667 743 127 743 C151 743 169 724.667 169 686 C169 644.667 151 626 127 626 Z M280 626 C254.667 626 237 646 237 686 C237 724.667 254.667 743 280 743 C304 743 322 724.667 322 686 C322 644.667 304 626 280 626 Z " /></g><path fill="black" d="M166 0 L166 273 L17 714 L98 714 L203 348 L309 714 L390 714 L239 273 L239 0 L166 0 Z " /></glyph>
<glyph glyph-name="Zacute" unicode="&#x179;" horiz-adv-x="437" >
<path fill="black" d="M52 66 L276 640 L62 640 L62 714 L357 714 L357 648 L135 74 L362 74 L362 0 L52 0 L52 66 Z " /><g transform="translate(-3,179)" ><path fill="black" d="M170 606 L170 617 C200.667 670.333 223.667 720.667 241 766 L326 766 L326 757 C304.56 714.119 251.204 642.835 217 606 L170 606 Z " /></g></glyph>
<glyph glyph-name="zacute" unicode="&#x17a;" horiz-adv-x="437" >
<path fill="black" d="M52 57 L267 467 L63 467 L63 535 L349 535 L349 469 L138 69 L355 69 L355 0 L52 0 L52 57 Z " /><g transform="translate(-8,0)" ><path fill="black" d="M170 606 L170 617 C200.667 670.333 223.667 720.667 241 766 L326 766 L326 757 C304.56 714.119 251.204 642.835 217 606 L170 606 Z " /></g></glyph>
<glyph glyph-name="Zdotaccent" unicode="&#x17b;" horiz-adv-x="437" >
<path fill="black" d="M52 66 L276 640 L62 640 L62 714 L357 714 L357 648 L135 74 L362 74 L362 0 L52 0 L52 66 Z " /><g transform="translate(9,825)" ><path fill="black" d="M204 -12 C173.333 -12 154 9 154 53 C154 95.6667 173.333 115 204 115 C232 115 253 97 253 53 C253 9 230.667 -12 204 -12 Z " /></g></glyph>
<glyph glyph-name="zdotaccent" unicode="&#x17c;" horiz-adv-x="437" >
<path fill="black" d="M52 57 L267 467 L63 467 L63 535 L349 535 L349 469 L138 69 L355 69 L355 0 L52 0 L52 57 Z " /><g transform="translate(4,646)" ><path fill="black" d="M204 -12 C173.333 -12 154 9 154 53 C154 95.6667 173.333 115 204 115 C232 115 253 97 253 53 C253 9 230.667 -12 204 -12 Z " /></g></glyph>
<glyph glyph-name="Zcaron" unicode="&#x17d;" horiz-adv-x="437" >
<path fill="black" d="M52 66 L276 640 L62 640 L62 714 L357 714 L357 648 L135 74 L362 74 L362 0 L52 0 L52 66 Z " /><g transform="translate(9,179)" ><path fill="black" d="M169 606 C151.667 650 121.667 709.333 95 756 L95 766 L135 766 C155 742 179 704.667 203 670 C229.667 710 245.667 730 271 766 L312 766 L312 756 C288 714.667 254.333 652.667 237 606 L169 606 Z " /></g></glyph>
<glyph glyph-name="zcaron" unicode="&#x17e;" horiz-adv-x="437" >
<path fill="black" d="M52 57 L267 467 L63 467 L63 535 L349 535 L349 469 L138 69 L355 69 L355 0 L52 0 L52 57 Z " /><g transform="translate(4,0)" ><path fill="black" d="M169 606 C151.667 650 121.667 709.333 95 756 L95 766 L135 766 C155 742 179 704.667 203 670 C229.667 710 245.667 730 271 766 L312 766 L312 756 C288 714.667 254.333 652.667 237 606 L169 606 Z " /></g></glyph>
<glyph glyph-name="longs" unicode="&#x17f;" horiz-adv-x="437" d="M150 0 L150 575 C150 701.667 195.333 765 286 765 C316.667 765 338 758.333 362 749 L344 685 C329.333 691.667 311 697 291 697 C247 697 225 662.667 225 564 L225 0 L150 0 Z " />
<glyph glyph-name="florin" unicode="&#x192;" horiz-adv-x="437" d="M57 -163 C74.3333 -169 89.6667 -172 103 -172 C148.333 -172 166 -139 166 -67 L166 404 L76 404 L76 446 L166 471 L166 541 C166 666.333 200.667 724 282 724 C308.667 724 331 718.667 359 704 L340 642 C324 651.333 308.667 656 294 656 C254 656 238 624.333 238 539 L238 468 L328 468 L328 404 L238 404 L238 -51 C238 -176.333 207.333 -240 114 -240 C94 -240 75 -237.333 57 -232 L57 -163 Z " />
<glyph glyph-name="uni0218" unicode="&#x218;" horiz-adv-x="437" >
<path fill="black" d="M49 97 C90.3333 74.3333 134.333 61 177 61 C254.177 61 283 117.615 283 187 C283 263.431 245.476 292.245 176 335 C110.231 377.092 53 426.873 53 540 C53 668 118.667 726 216 726 C261.333 726 306.333 713.333 351 688 L325 621 C290.333 642.333 252.667 655 218 655 C154 655 128 612 128 544 C128 466.607 165.931 437.043 230 397 C306.361 346.97 359 310.815 359 193 C359 59.6667 289.667 -10 179 -10 C132.333 -10 85 1.66667 49 23 L49 97 Z " /><g transform="translate(640,0)" ><path fill="black" d="M-500 -221 L-500 -210 C-489.343 -175.365 -474.597 -102.547 -472 -61 L-398 -61 L-398 -69 C-405.977 -111.545 -432.51 -180.184 -457 -221 L-500 -221 Z " /></g></glyph>
<glyph glyph-name="uni0219" unicode="&#x219;" horiz-adv-x="437" >
<path fill="black" d="M64 98 C98.6667 75.3333 145 58 193 58 C258.333 58 276 92.3333 276 139 C276 183.19 258.696 198.396 182 246 C115.488 288.567 68 318.851 68 405 C68 497 124 546 220 546 C264 546 299.333 535.667 342 513 L317 449 C278.333 470.333 249.333 478 220 478 C168 478 142 454.667 142 408 C142 364.145 168.861 344.749 241 302 C307.648 262.011 350 230.662 350 141 C350 42.3333 296 -10 188 -10 C137.333 -10 96 1.33333 64 24 L64 98 Z " /><g transform="translate(646,0)" ><path fill="black" d="M-500 -221 L-500 -210 C-489.343 -175.365 -474.597 -102.547 -472 -61 L-398 -61 L-398 -69 C-405.977 -111.545 -432.51 -180.184 -457 -221 L-500 -221 Z " /></g></glyph>
<glyph glyph-name="uni021A" unicode="&#x21a;" horiz-adv-x="437" >
<path fill="black" d="M165 0 L165 640 L29 640 L29 714 L379 714 L379 640 L240 640 L240 0 L165 0 Z " /><g transform="translate(640,0)" ><path fill="black" d="M-500 -221 L-500 -210 C-489.343 -175.365 -474.597 -102.547 -472 -61 L-398 -61 L-398 -69 C-405.977 -111.545 -432.51 -180.184 -457 -221 L-500 -221 Z " /></g></glyph>
<glyph glyph-name="uni021B" unicode="&#x21b;" horiz-adv-x="437" >
<path fill="black" d="M146 467 L38 467 L38 516 L149 538 L173 677 L221 677 L221 535 L364 535 L364 467 L219 467 L219 159 C219 91 244.333 60 291 60 C309.667 60 334 63.6667 362 73 L362 4 C335.333 -5.33333 304.333 -10 275 -10 C200.463 -10 146 29.2338 146 145 L146 467 Z " /><g transform="translate(698,0)" ><path fill="black" d="M-500 -221 L-500 -210 C-489.343 -175.365 -474.597 -102.547 -472 -61 L-398 -61 L-398 -69 C-405.977 -111.545 -432.51 -180.184 -457 -221 L-500 -221 Z " /></g></glyph>
<glyph glyph-name="uni0237" unicode="&#x237;" horiz-adv-x="407" d="M36 -157 C64 -166.333 101.667 -176 127 -176 C177.667 -176 204 -138.333 204 -69 L204 466 L67 479 L67 535 L277 535 L277 -64 C277 -188 228 -245 132 -245 C100 -245 64 -238.667 36 -228 L36 -157 Z " />
<glyph glyph-name="circumflex" unicode="&#x2c6;" horiz-adv-x="437" d="M95 606 L95 616 C123 664 154.333 723.333 169 766 L237 766 C254.333 720.667 285.333 658.667 312 616 L312 606 L271 606 C248.333 632.667 227 667.333 203 702 C177.667 667.333 153.667 630 135 606 L95 606 Z " />
<glyph glyph-name="caron" unicode="&#x2c7;" horiz-adv-x="437" d="M169 606 C151.667 650 121.667 709.333 95 756 L95 766 L135 766 C155 742 179 704.667 203 670 C229.667 710 245.667 730 271 766 L312 766 L312 756 C288 714.667 254.333 652.667 237 606 L169 606 Z " />
<glyph glyph-name="uni02C9" unicode="&#x2c9;" horiz-adv-x="437" >
<g transform="translate(1,-5)" ><path fill="black" d="M102 692 L302 692 L302 633 L102 633 L102 692 Z " /></g></glyph>
<glyph glyph-name="breve" unicode="&#x2d8;" horiz-adv-x="437" d="M148 739 C151.333 691 169.667 667 203 667 C236.333 667 255 691 259 739 L304 739 C304 659 264.333 611 203 611 C143 611 104.667 653.667 102 739 L148 739 Z " />
<glyph glyph-name="dotaccent" unicode="&#x2d9;" horiz-adv-x="437" >
<g transform="translate(0,647)" ><path fill="black" d="M204 -12 C173.333 -12 154 9 154 53 C154 95.6667 173.333 115 204 115 C232 115 253 97 253 53 C253 9 230.667 -12 204 -12 Z " /></g></glyph>
<glyph glyph-name="ring" unicode="&#x2da;" horiz-adv-x="437" d="M204 609 C149.333 609 116 648.667 116 710 C116 770 149.333 809 204 809 C254.667 809 290 770 290 710 C290 650 256 609 204 609 Z M204 656 C228 656 246 676.667 246 710 C246 740.667 230.667 763 204 763 C177.333 763 161 740.667 161 710 C161 676.667 177.333 656 204 656 Z " />
<glyph glyph-name="ogonek" unicode="&#x2db;" horiz-adv-x="437" d="M263 -215 C252.333 -220.333 239 -223 223 -223 C168.333 -223 143 -191.333 143 -134 C143 -76.6667 167.667 -28 209 12 L249 0 C213 -45.3333 201 -79.6667 201 -117 C201 -151 213.333 -168 238 -168 C248.667 -168 256.333 -164.667 263 -162 L263 -215 Z " />
<glyph glyph-name="tilde" unicode="&#x2dc;" horiz-adv-x="437" d="M83 610 C88.2531 673.037 102.036 730 150 730 C190.556 730 223.111 672 253 672 C270.333 672 275.667 695 281 731 L324 731 C320 652.333 294.333 611 257 611 C217.876 611 180.32 670 155 670 C137.667 670 130.333 648.667 125 610 L83 610 Z " />
<glyph glyph-name="hungarumlaut" unicode="&#x2dd;" horiz-adv-x="437" d="M112 606 L112 617 C136.706 663.667 163.309 731.255 174 766 L247 766 L247 757 C228.523 712.128 186.287 646.287 146 606 L112 606 Z M230 606 L230 617 C254.706 663.667 281.309 731.255 292 766 L365 766 L365 757 C346.523 712.128 304.287 646.287 264 606 L230 606 Z " />
<glyph glyph-name="uni0394" unicode="&#x394;" horiz-adv-x="437" d="M17 59 L158 714 L248 714 L390 54 L390 0 L17 0 L17 59 Z M308 72 L225 494 C215.667 538 208.667 592.333 202 635 C196.667 591 187 536.667 179 494 L99 72 L308 72 Z " />
<glyph glyph-name="uni03A9" unicode="&#x3a9;" horiz-adv-x="437" d="M17 72 L105 72 C54.3333 138.667 21 243.667 21 401 C21 621 86.3333 724 205 724 C322.333 724 386 616.667 386 402 C386 240.667 354.333 136 301 72 L390 72 L390 0 L232 0 L232 64 C289.333 140 310 244.333 310 395 C310 564.333 277 655 205 655 C133 655 97 568.333 97 395 C97 245.667 120.667 137.333 174 64 L174 0 L17 0 L17 72 Z " />
<glyph glyph-name="uni03BC" unicode="&#x3bc;" horiz-adv-x="437" >
<path fill="black" d="M44 227 L46 227 L46 535 L120 535 L120 189 C120 91.6667 144.667 59 198 59 C259.333 59 287 127 287 255 L287 535 L361 535 L361 0 L300 0 L289 75 L284 75 C262.667 17.6667 223.667 -10 173 -10 C151.667 -10 133 -6 117 2 L117 -240 L44 -240 L44 227 Z " /></glyph>
<glyph glyph-name="pi" unicode="&#x3c0;" horiz-adv-x="437" d="M83 469 L14 469 L14 502 L56 535 L385 535 L385 469 L320 469 L320 130 C320 80.6667 328.667 62 350 62 C360 62 369.333 64 378 68 L378 4 C366.667 -3.33333 349.667 -7 327 -7 C272.333 -7 249 37 249 117 L249 469 L153 469 L153 0 L83 0 L83 469 Z " />
<glyph glyph-name="Wgrave" unicode="&#x1e80;" horiz-adv-x="437" >
<path fill="black" d="M112 75 C117.361 120.566 127.952 230.301 136 292 L167 535 L239 535 L273 290 C281.069 222.757 295.299 120.91 298 75 L301 75 C301 120.244 308.339 328.45 311 379 C316.333 491 321.333 600.667 328 714 L394 714 L349 0 L262 0 L221 330 C214.333 390 209 416.667 205 446 L202 446 C199.333 416.667 193.667 390 187 330 L147 0 L60 0 L13 714 L74 714 L95 378 C100.353 319.122 110 119.552 110 75 L112 75 Z " /><g transform="translate(0,179)" ><path fill="black" d="M87 766 L172 766 C188.382 719.583 221.589 654.469 243 617 L243 606 L195 606 C163.493 640.133 107.89 715.22 87 757 L87 766 Z " /></g></glyph>
<glyph glyph-name="wgrave" unicode="&#x1e81;" horiz-adv-x="437" >
<path fill="black" d="M110 67 C112.652 106.781 122.865 194.616 131 238 L165 443 L240 443 L274 238 C282.013 195.262 290.656 104.406 296 67 L298 67 C300.598 100.774 304.541 192.954 310 253 L334 535 L398 535 L340 0 L253 0 L224 208 C217.333 260 208.333 317 203 369 L201 369 C195.667 317 188 258 180 206 L151 0 L64 0 L10 535 L74 535 L98 253 C103.356 196.761 105.316 104.572 108 67 L110 67 Z " /><g transform="translate(2,0)" ><path fill="black" d="M87 766 L172 766 C188.382 719.583 221.589 654.469 243 617 L243 606 L195 606 C163.493 640.133 107.89 715.22 87 757 L87 766 Z " /></g></glyph>
<glyph glyph-name="Wacute" unicode="&#x1e82;" horiz-adv-x="437" >
<path fill="black" d="M112 75 C117.361 120.566 127.952 230.301 136 292 L167 535 L239 535 L273 290 C281.069 222.757 295.299 120.91 298 75 L301 75 C301 120.244 308.339 328.45 311 379 C316.333 491 321.333 600.667 328 714 L394 714 L349 0 L262 0 L221 330 C214.333 390 209 416.667 205 446 L202 446 C199.333 416.667 193.667 390 187 330 L147 0 L60 0 L13 714 L74 714 L95 378 C100.353 319.122 110 119.552 110 75 L112 75 Z " /><g transform="translate(-12,179)" ><path fill="black" d="M170 606 L170 617 C200.667 670.333 223.667 720.667 241 766 L326 766 L326 757 C304.56 714.119 251.204 642.835 217 606 L170 606 Z " /></g></glyph>
<glyph glyph-name="wacute" unicode="&#x1e83;" horiz-adv-x="437" >
<path fill="black" d="M110 67 C112.652 106.781 122.865 194.616 131 238 L165 443 L240 443 L274 238 C282.013 195.262 290.656 104.406 296 67 L298 67 C300.598 100.774 304.541 192.954 310 253 L334 535 L398 535 L340 0 L253 0 L224 208 C217.333 260 208.333 317 203 369 L201 369 C195.667 317 188 258 180 206 L151 0 L64 0 L10 535 L74 535 L98 253 C103.356 196.761 105.316 104.572 108 67 L110 67 Z " /><g transform="translate(-10,0)" ><path fill="black" d="M170 606 L170 617 C200.667 670.333 223.667 720.667 241 766 L326 766 L326 757 C304.56 714.119 251.204 642.835 217 606 L170 606 Z " /></g></glyph>
<glyph glyph-name="Wdieresis" unicode="&#x1e84;" horiz-adv-x="437" >
<g transform="translate(0,168)" ><path fill="black" d="M127 626 C101.667 626 84 646 84 686 C84 724.667 101.667 743 127 743 C151 743 169 724.667 169 686 C169 644.667 151 626 127 626 Z M280 626 C254.667 626 237 646 237 686 C237 724.667 254.667 743 280 743 C304 743 322 724.667 322 686 C322 644.667 304 626 280 626 Z " /></g><path fill="black" d="M112 75 C117.361 120.566 127.952 230.301 136 292 L167 535 L239 535 L273 290 C281.069 222.757 295.299 120.91 298 75 L301 75 C301 120.244 308.339 328.45 311 379 C316.333 491 321.333 600.667 328 714 L394 714 L349 0 L262 0 L221 330 C214.333 390 209 416.667 205 446 L202 446 C199.333 416.667 193.667 390 187 330 L147 0 L60 0 L13 714 L74 714 L95 378 C100.353 319.122 110 119.552 110 75 L112 75 Z " /></glyph>
<glyph glyph-name="wdieresis" unicode="&#x1e85;" horiz-adv-x="437" >
<g transform="translate(2,-11)" ><path fill="black" d="M127 626 C101.667 626 84 646 84 686 C84 724.667 101.667 743 127 743 C151 743 169 724.667 169 686 C169 644.667 151 626 127 626 Z M280 626 C254.667 626 237 646 237 686 C237 724.667 254.667 743 280 743 C304 743 322 724.667 322 686 C322 644.667 304 626 280 626 Z " /></g><path fill="black" d="M110 67 C112.652 106.781 122.865 194.616 131 238 L165 443 L240 443 L274 238 C282.013 195.262 290.656 104.406 296 67 L298 67 C300.598 100.774 304.541 192.954 310 253 L334 535 L398 535 L340 0 L253 0 L224 208 C217.333 260 208.333 317 203 369 L201 369 C195.667 317 188 258 180 206 L151 0 L64 0 L10 535 L74 535 L98 253 C103.356 196.761 105.316 104.572 108 67 L110 67 Z " /></glyph>
<glyph glyph-name="uni2010" unicode="&#x2010;" horiz-adv-x="407" >
<g transform="translate(2,0)" ><path fill="black" d="M102 308 L304 308 L304 234 L102 234 L102 308 Z " /></g></glyph>
<glyph glyph-name="endash" unicode="&#x2013;" horiz-adv-x="437" d="M63 308 L345 308 L345 234 L63 234 L63 308 Z " />
<glyph glyph-name="emdash" unicode="&#x2014;" horiz-adv-x="437" >
<g transform="translate(0,388)" ><path fill="black" d="M2 -80 L404 -80 L404 -154 L2 -154 L2 -80 Z " /></g></glyph>
<glyph glyph-name="quoteleft" unicode="&#x2018;" horiz-adv-x="437" >
<path fill="black" d="M151 469 L145 480 C161 564 180.333 642 207 714 L262 714 C243.333 631.333 232.667 541 226 469 L151 469 Z " /></glyph>
<glyph glyph-name="quoteright" unicode="&#x2019;" horiz-adv-x="437" >
<g transform="translate(3,0)" ><path fill="black" d="M146 469 C162 549 175.333 644.667 182 714 L256 714 L262 703 C247.333 620.333 227.333 545 202 469 L146 469 Z " /></g></glyph>
<glyph glyph-name="quotesinglbase" unicode="&#x201a;" horiz-adv-x="437" >
<g transform="translate(2,0)" ><path fill="black" d="M129 -131 C145 -49.6667 159.333 43 166 115 L244 115 L250 104 C235.333 26.6667 211.333 -59 186 -131 L129 -131 Z " /></g></glyph>
<glyph glyph-name="quotedblleft" unicode="&#x201c;" horiz-adv-x="437" >
<g transform="translate(-68,0)" ><path fill="black" d="M151 469 L145 480 C161 564 180.333 642 207 714 L262 714 C243.333 631.333 232.667 541 226 469 L151 469 Z " /></g><g transform="translate(83,0)" ><path fill="black" d="M151 469 L145 480 C161 564 180.333 642 207 714 L262 714 C243.333 631.333 232.667 541 226 469 L151 469 Z " /></g></glyph>
<glyph glyph-name="quotedblright" unicode="&#x201d;" horiz-adv-x="437" >
<g transform="translate(-85,1)" ><path fill="black" d="M146 469 C162 549 175.333 644.667 182 714 L256 714 L262 703 C247.333 620.333 227.333 545 202 469 L146 469 Z " /></g><g transform="translate(66,1)" ><path fill="black" d="M146 469 C162 549 175.333 644.667 182 714 L256 714 L262 703 C247.333 620.333 227.333 545 202 469 L146 469 Z " /></g></glyph>
<glyph glyph-name="quotedblbase" unicode="&#x201e;" horiz-adv-x="437" >
<g transform="translate(-60,0)" ><path fill="black" d="M129 -131 C145 -49.6667 159.333 43 166 115 L244 115 L250 104 C235.333 26.6667 211.333 -59 186 -131 L129 -131 Z " /></g><g transform="translate(88,0)" ><path fill="black" d="M129 -131 C145 -49.6667 159.333 43 166 115 L244 115 L250 104 C235.333 26.6667 211.333 -59 186 -131 L129 -131 Z " /></g></glyph>
<glyph glyph-name="dagger" unicode="&#x2020;" horiz-adv-x="437" d="M164 0 L179 501 L63 493 L63 563 L179 551 L164 760 L242 760 L226 551 L343 563 L343 493 L226 501 L242 0 L164 0 Z " />
<glyph glyph-name="daggerdbl" unicode="&#x2021;" horiz-adv-x="437" d="M63 246 L178 237 L169 384 L178 523 L63 514 L63 584 L178 572 L164 760 L241 760 L226 572 L343 584 L343 514 L226 523 L236 384 L226 237 L343 246 L343 176 L226 187 L241 0 L164 0 L178 187 L63 176 L63 246 Z " />
<glyph glyph-name="bullet" unicode="&#x2022;" horiz-adv-x="437" d="M203 234 C139 234 102 278.333 102 365 C102 453 135.667 497 203 497 C268.333 497 305 451.667 305 365 C305 279.667 267 234 203 234 Z " />
<glyph glyph-name="ellipsis" unicode="&#x2026;" horiz-adv-x="437" >
<path fill="black" d="M204 -12 C173.333 -12 154 9 154 53 C154 95.6667 173.333 115 204 115 C232 115 253 97 253 53 C253 9 230.667 -12 204 -12 Z " /></glyph>
<glyph glyph-name="perthousand" unicode="&#x2030;" horiz-adv-x="437" d="M114 -168 C40.6667 -168 0 -88.3333 0 57 C0 205 37.6667 279 113 279 C155 279 186 255.333 206 208 C225.333 255.333 256 279 298 279 C374 279 415 202.333 415 57 C415 -92.3333 375 -168 299 -168 C258.333 -168 228 -143.667 208 -95 C188.667 -143.667 157.333 -168 114 -168 Z M203 456 C129.667 456 89 535.667 89 681 C89 829 126.667 903 202 903 C278 903 319 826.333 319 681 C319 531.667 279 456 203 456 Z M114 -112 C151.333 -112 174 -60 174 56 C174 170.667 150 222 114 222 C75.3333 222 57 170.667 57 56 C57 -60 76.6667 -112 114 -112 Z M299 -112 C336.333 -112 359 -60 359 56 C359 170.667 335 222 299 222 C260.333 222 242 170.667 242 56 C242 -60 261.667 -112 299 -112 Z M203 512 C240.333 512 263 564 263 680 C263 794.667 239 846 203 846 C164.333 846 146 794.667 146 680 C146 564 165.667 512 203 512 Z M34 360 L368 409 L368 367 L34 317 L34 360 Z " />
<glyph glyph-name="guilsinglleft" unicode="&#x2039;" horiz-adv-x="437" d="M235 65 L119 257 L119 271 L235 464 L286 437 L202 264 L286 94 L235 65 Z " />
<glyph glyph-name="guilsinglright" unicode="&#x203a;" horiz-adv-x="437" d="M204 295 L121 465 L171 494 L288 302 L288 288 L171 95 L121 122 L204 295 Z " />
<glyph glyph-name="fraction" unicode="&#x2044;" horiz-adv-x="437" d="M33 360 L367 409 L367 367 L33 317 L33 360 Z " />
<glyph glyph-name="franc" unicode="&#x20a3;" horiz-adv-x="437" d="M84 132 L32 132 L32 194 L84 194 L84 714 L350 714 L350 638 L160 638 L160 399 L335 399 L335 323 L160 323 L160 194 L272 194 L272 132 L160 132 L160 0 L84 0 L84 132 Z " />
<glyph glyph-name="lira" unicode="&#x20a4;" horiz-adv-x="437" d="M362 72 L362 0 L62 0 L62 67 C106 91 116.667 135.333 118 234 L59 234 L59 291 L118 291 L118 377 L59 377 L59 435 L118 435 L118 535 C118 661 164.333 724 257 724 C293 724 327.333 710.333 360 683 L334 620 C309.333 642 285 653 261 653 C211.667 653 192 617.667 192 535 L192 435 L303 435 L303 377 L192 377 L192 291 L303 291 L303 234 L191 234 C189.667 140.667 176.667 100 142 72 L362 72 Z " />
<glyph glyph-name="peseta" unicode="&#x20a7;" horiz-adv-x="437" d="M24 714 L137 714 C262.333 714 312 645.333 312 524 C312 497.333 309.333 472 304 448 L319 448 L319 317 L405 317 L405 260 L319 260 L319 125 C319 78.3333 328.667 54 358 54 C372.667 54 394.333 59 405 63 L405 7 C391.667 0.333333 370.333 -6 345 -6 C285 -6 254 31 254 115 L254 260 L200 260 L200 293 L255 325 L260 365 C229.333 334.333 187.667 317 125 317 L101 317 L101 0 L24 0 L24 714 Z M121 390 C198.333 390 236 427.333 236 518 C236 602 204 641 132 641 L101 641 L101 390 L121 390 Z " />
<glyph glyph-name="Euro" unicode="&#x20ac;" horiz-adv-x="437" d="M43 306 L94 306 C94 320.667 93 336.333 93 351 C93 365.667 94 379.333 94 394 L43 394 L43 448 L98 448 C105.947 596.351 158.244 725 257 725 C295 725 330.333 712 363 686 L336 617 C310 639.667 285 651 261 651 C205 651 179 577.333 171 448 L290 448 L290 394 L168 394 L168 352 L168 306 L275 306 L275 252 L171 252 C180.333 122.667 208 64 268 64 C297.333 64 322 74.3333 354 93 L354 17 C325.333 -1 294 -10 260 -10 C161.333 -10 111.333 85.3333 98 252 L43 252 L43 306 Z " />
<glyph glyph-name="uni2113" unicode="&#x2113;" horiz-adv-x="437" d="M118 276 C107.333 270.667 88.6667 262.667 62 252 L62 313 C80.6667 319.667 99.3333 328 118 338 L118 563 C118 669.667 152.667 723 222 723 C286 723 323 668 323 568 C323 446.667 277.333 355.333 188 302 L188 168 C188 91.3333 203.333 53 234 53 C268.667 53 283.667 91 285 163 L343 163 C343 48.3333 303.667 -9 225 -9 C153 -9 118 51.3333 118 166 L118 276 Z M187 365 C235 406.333 259 474 259 568 C259 632 245.667 662 223 662 C199 662 187 638 187 570 L187 365 Z " />
<glyph glyph-name="trademark" unicode="&#x2122;" horiz-adv-x="437" d="M182 363 L182 714 L247 714 L290 541 L334 714 L398 714 L398 363 L354 363 L354 565 C354 585 354.667 623.667 356 649 L353 649 L309 482 L270 482 L227 649 L224 649 C226.667 623.667 226 586 226 570 L226 363 L182 363 Z M56 363 L56 664 L-5 664 L-5 714 L162 714 L162 664 L102 664 L102 363 L56 363 Z " />
<glyph glyph-name="Omega" unicode="&#x2126;" horiz-adv-x="437" >
<g transform="translate(2,0)" ><path fill="black" d="M17 72 L105 72 C54.3333 138.667 21 243.667 21 401 C21 621 86.3333 724 205 724 C322.333 724 386 616.667 386 402 C386 240.667 354.333 136 301 72 L390 72 L390 0 L232 0 L232 64 C289.333 140 310 244.333 310 395 C310 564.333 277 655 205 655 C133 655 97 568.333 97 395 C97 245.667 120.667 137.333 174 64 L174 0 L17 0 L17 72 Z " /></g></glyph>
<glyph glyph-name="estimated" unicode="&#x212e;" horiz-adv-x="437" d="M94 83 C116.667 52.3333 152.667 25 206 25 C280.667 25 324.667 74 358 142 L387 119 C349.176 43.3516 299.74 -17 207 -17 C72.0996 -17 2 110.896 2 263 C2 450.636 108.463 535 207 535 C315.234 535 404 429.563 404 259 L94 259 L94 83 Z M94 301 L314 301 L314 436 C295.333 462.667 253.667 494 207 494 C155 494 120.667 469 94 437 L94 301 Z " />
<glyph glyph-name="uni2219" unicode="&#x2219;" horiz-adv-x="407" >
<g transform="translate(4,282)" ><path fill="black" d="M204 -12 C173.333 -12 154 9 154 53 C154 95.6667 173.333 115 204 115 C232 115 253 97 253 53 C253 9 230.667 -12 204 -12 Z " /></g></glyph>
<glyph glyph-name="radical" unicode="&#x221a;" horiz-adv-x="437" d="M342 825 L406 825 L231 -7 L166 -7 L87 376 L17 376 L17 441 L133 441 L199 99 L342 825 Z " />
<glyph glyph-name="infinity" unicode="&#x221e;" horiz-adv-x="437" d="M110 199 C48.6667 199 6 261 6 353 C6 440.082 42.1515 507 105 507 C147.667 507 177.333 472.667 204 414 C225.333 464.667 254 505 302 505 C363.333 505 400 442.667 400 356 C400 264.234 358.312 197 298 197 C254 197 225.667 232.667 203 286 C179 234 154 199 110 199 Z M115 261 C145.667 261 160 292 180 348 C160 404 143 445 111 445 C83 445 65 409 65 353 C65 301 80.3333 261 115 261 Z M292 259 C322.667 259 342 297.667 342 351 C342 404.333 322.333 444 293 444 C265 444 251.667 404.667 229 350 C247.667 299.333 261.333 259 292 259 Z " />
<glyph glyph-name="approxequal" unicode="&#x2248;" horiz-adv-x="437" >
<g transform="translate(0,104)" ><path fill="black" d="M355 341 C335 310.333 307.667 293 277 293 C243.667 293 223.333 302 194 322 C167.333 340 144.667 349 126 349 C102 349 75.3333 327.333 50 290 L50 363 C72.6667 397 99.3333 414 130 414 C185.353 418.242 241.02 349.464 281 357 C305 357 333.667 380.333 355 415 L355 341 Z " /></g><g transform="translate(0,-108)" ><path fill="black" d="M355 341 C335 310.333 307.667 293 277 293 C243.667 293 223.333 302 194 322 C167.333 340 144.667 349 126 349 C102 349 75.3333 327.333 50 290 L50 363 C72.6667 397 99.3333 414 130 414 C185.353 418.242 241.02 349.464 281 357 C305 357 333.667 380.333 355 415 L355 341 Z " /></g></glyph>
<glyph glyph-name="lessequal" unicode="&#x2264;" horiz-adv-x="437" d="M50 350 L50 395 L353 593 L353 519 L132 372 L353 223 L353 149 L50 350 Z M50 0 L50 65 L352 65 L352 0 L50 0 Z " />
<glyph glyph-name="greaterequal" unicode="&#x2265;" horiz-adv-x="437" d="M51 223 L272 372 L51 519 L51 593 L354 395 L354 350 L51 149 L51 223 Z M52 65 L354 65 L354 0 L52 0 L52 65 Z " />
</font>
</svg>
