<?xml version="1.0" encoding="UTF-8"?>
<svg xmlns="http://www.w3.org/2000/svg" xmlns:xlink="http://www.w3.org/1999/xlink" version="1.1" >
<font id="Monoto-72SmWd100Th" horiz-adv-x="718">
<font-face  font-family="Monoto 72 SmWd" units-per-em="1000" ascent="955" descent="-235" font-style="normal" font-weight="100" font-stretch="semi-expanded" cap-height="714" x-height="528" underline-position="-75" underline-thickness="50" />
<missing-glyph horiz-adv-x="720" d="M89 0 L89 714 L632 714 L632 0 L89 0 Z M565 51 L565 663 L157 663 L157 51 L565 51 Z " />
<glyph glyph-name="uni0000" horiz-adv-x="720" />
<glyph glyph-name="uni000D" unicode="&#xd;" horiz-adv-x="720" />
<glyph glyph-name="space" unicode="&#x20;" horiz-adv-x="720" />
<glyph glyph-name="exclam" unicode="&#x21;" horiz-adv-x="720" d="M349 174 L348 714 L375 714 L375 174 L349 174 Z M359 -12 C332.333 -12 327 4.33333 327 23 C327 41.6667 332.333 58 359 58 C393.667 58 395 41.6667 395 23 C395 4.33333 393.667 -12 359 -12 Z " />
<glyph glyph-name="quotedbl" unicode="&#x22;" horiz-adv-x="720" >
<g transform="translate(-94,0)" ><path fill="black" d="M351 456 L347 714 L375 714 L372 456 L351 456 Z " /></g><g transform="translate(94,0)" ><path fill="black" d="M351 456 L347 714 L375 714 L372 456 L351 456 Z " /></g></glyph>
<glyph glyph-name="numbersign" unicode="&#x23;" horiz-adv-x="720" d="M116 0 L162 231 L8 231 L8 255 L165 255 L208 471 L48 471 L48 495 L213 495 L256 714 L282 714 L239 495 L453 495 L498 714 L523 714 L480 495 L636 495 L636 471 L478 471 L434 255 L593 255 L593 231 L432 231 L385 0 L357 0 L405 231 L189 231 L142 0 L116 0 Z M409 255 L451 471 L235 471 L192 255 L409 255 Z " />
<glyph glyph-name="dollar" unicode="&#x24;" horiz-adv-x="720" d="M108 80 C168 61.3333 254 48.3333 350 47 L350 353 C216.678 392.996 105 429.31 105 536 C105 633.881 210.371 688.63 350 694 L350 759 L376 759 L376 695 C444 693.667 514 682 586 658 L573 635 C499.667 659 432 669 376 669 L376 370 C521.653 327.628 625 289.67 625 186 C625 82.9731 519.879 27.3288 376 22 L376 -58 L350 -58 L350 22 C240.667 23.3333 162.667 36.3333 108 51 L108 80 Z M376 47 C501.289 52.3315 598 96.2309 598 187 C598 269.54 511.898 303.03 376 343 L376 47 Z M133 538 C133 447.054 236.961 412.297 350 380 L350 669 C230.019 666.334 133 621.316 133 538 Z " />
<glyph glyph-name="percent" unicode="&#x25;" horiz-adv-x="720" d="M89 44 L583 670 L618 670 L123 44 L89 44 Z M381 163 C381 258.922 436.749 330 563 330 C688.203 330 744 258.922 744 163 C744 63.1558 688.156 -9 564 -9 C436.078 -9 381 63.1558 381 163 Z M-22 555 C-22 650.922 33.7489 722 160 722 C285.203 722 341 650.922 341 555 C341 455.156 285.156 383 161 383 C33.0779 383 -22 455.156 -22 555 Z M409 163 C409 77.6667 457.667 15 563 15 C667 15 716 76.3333 716 163 C716 244.333 668.333 306 563 306 C457.667 306 409 245.667 409 163 Z M6 555 C6 469.667 54.6667 407 160 407 C264 407 313 468.333 313 555 C313 636.333 265.333 698 160 698 C54.6667 698 6 637.667 6 555 Z " />
<glyph glyph-name="ampersand" unicode="&#x26;" horiz-adv-x="720" d="M563 133 C609.667 187.667 637 253 645 317 L671 317 C660.333 242.333 630 172.667 582 114 L696 0 L665 0 L567 97 C507 33 421.333 -10 312 -10 C173.281 -10 82 59.3896 82 175 C82 286.993 166.949 341.309 271 392 C201.667 462.667 164 516.333 164 583 C164 669.667 229 725 329 725 C422.333 725 489 674 489 582 C489 480.381 400.84 428.074 312 385 L563 133 Z M290 373 C190.446 324.568 109 274.153 109 175 C109 75 187.667 15 309 15 C411.667 15 490.667 56 548 116 L290 373 Z M295 402 C382.201 444.279 462 495.219 462 583 C462 655 413 700 329 700 C241 700 189 653.333 189 584 C189 520 235 462 295 402 Z " />
<glyph glyph-name="quotesingle" unicode="&#x27;" horiz-adv-x="720" d="M351 456 L347 714 L375 714 L372 456 L351 456 Z " />
<glyph glyph-name="parenleft" unicode="&#x28;" horiz-adv-x="720" d="M454 -158 C335.333 -44.6667 263 98 263 274 C263 452.667 335.333 606 454 714 L487 714 C349.667 595.333 291 444.333 291 275 C291 108.333 350 -38 486 -158 L454 -158 Z " />
<glyph glyph-name="parenright" unicode="&#x29;" horiz-adv-x="720" d="M252 -158 C389.333 -39.3333 448 111.667 448 281 C448 447.667 389 594 253 714 L285 714 C403.667 600.667 476 458 476 282 C476 103.333 403.667 -50 285 -158 L252 -158 Z " />
<glyph glyph-name="asterisk" unicode="&#x2a;" horiz-adv-x="720" d="M370 547 L119 603 L130 628 L376 566 L372 758 L401 758 L396 566 L643 629 L652 603 L402 548 L561 393 L539 376 L387 535 L235 377 L212 392 L370 547 Z " />
<glyph glyph-name="plus" unicode="&#x2b;" horiz-adv-x="720" d="M62 365 L346 365 L346 583 L372 583 L372 365 L657 365 L657 341 L372 341 L372 123 L346 123 L346 341 L62 341 L62 365 Z " />
<glyph glyph-name="comma" unicode="&#x2c;" horiz-adv-x="720" d="M300 -129 C338.667 -31.6667 359.333 40 374 116 L401 116 L404 104 C385.333 29.3333 358 -59.6667 322 -129 L300 -129 Z " />
<glyph glyph-name="hyphen" unicode="&#x2d;" horiz-adv-x="720" d="M169 290 L553 290 L553 265 L169 265 L169 290 Z " />
<glyph glyph-name="period" unicode="&#x2e;" horiz-adv-x="720" d="M326 23 C326 41.6667 330.333 58 361 58 C393 58 397 41.6667 397 23 C397 4.33333 393 -12 361 -12 C330.333 -12 326 4.33333 326 23 Z " />
<glyph glyph-name="slash" unicode="&#x2f;" horiz-adv-x="720" d="M169 0 L522 714 L552 714 L199 0 L169 0 Z " />
<glyph glyph-name="zero" unicode="0" horiz-adv-x="720" d="M362 -9 C187.333 -9 90 109.667 90 359 C90 573.355 157.944 725 365 725 C572.87 725 630 571.918 630 363 C630 115 546 -9 362 -9 Z M548 615 C512 669.667 454.333 700 365 700 C175.641 700 118 560 118 360 C118 259.333 133.333 181.333 164 126 L548 615 Z M177 104 C219 45.3333 281.333 16 364 16 C532 16 601 131.333 601 362 C601 454 591.333 532.333 562 591 L177 104 Z " />
<glyph glyph-name="one" unicode="1" horiz-adv-x="720" d="M232 20 L403 23 L403 564 C403 618.667 402.667 654.667 404 684 C384 669.333 366.667 660.667 336 642 L174 553 L156 574 L406 714 L430 714 L430 23 L595 20 L595 0 L232 0 L232 20 Z " />
<glyph glyph-name="two" unicode="2" horiz-adv-x="720" d="M116 22 L407 259 C525.465 355.926 571 428.23 571 539 C571 641.667 491.333 699 358 699 C284.667 699 205 679.333 137 638 L121 658 C199.667 704.667 284 724 360 724 C506.615 724 598 652.671 598 539 C598 418.809 541.928 340.486 424 244 L153 27 L153 25 L641 25 L641 0 L116 0 L116 22 Z " />
<glyph glyph-name="three" unicode="3" horiz-adv-x="720" d="M102 58 C164.667 34 251.333 15 346 15 C523.333 15 617 83.6667 617 193 C617 314.126 498.182 359 334 359 L228 359 L228 384 L334 384 C465.61 384 591 435.589 591 553 C591 650.333 503.667 699 373 699 C285 699 212 677.333 128 632 L111 652 C187 696 270 724 374 724 C518.104 724 618 660.615 618 554 C618 455.089 537.97 391.149 433 375 L433 373 C567.667 357 645 299.667 645 193 C645 71.6667 541 -10 341 -10 C251.667 -10 167.333 7.33333 102 30 L102 58 Z " />
<glyph glyph-name="four" unicode="4" horiz-adv-x="720" d="M56 211 L488 718 L521 718 L521 217 L666 217 L666 192 L521 192 L521 0 L494 0 L494 192 L56 192 L56 211 Z M494 217 L494 536 C494 614.216 495 637.216 495 685 L494 685 C464.144 649.716 448.89 625.525 412 586 L93 217 L494 217 Z " />
<glyph glyph-name="five" unicode="5" horiz-adv-x="720" d="M109 60 C169 33.3333 250.333 15 333 15 C502.333 15 598 92.6667 598 218 C598 331.333 522.333 401 349 401 C287.667 401 224.667 392.667 162 378 L140 393 L179 714 L581 714 L581 689 L203 689 L168 407 C194.667 413.667 264.333 426 347 426 C529.667 426 625 351 625 219 C625 77.6667 520.667 -10 330 -10 C243.333 -10 159.667 7.33333 109 30 L109 60 Z " />
<glyph glyph-name="six" unicode="6" horiz-adv-x="720" d="M119 324 C150.899 377.166 230.519 439 378 439 C537.844 439 632 353.723 632 224 C632 86.2771 539.234 -11 375 -11 C160.048 -11 92 139.563 92 321 C92 606.333 256.048 725 439 725 C481.667 725 524.333 720 559 712 L559 685 C528.333 694.333 480.667 700 438 700 C271.074 700 118 596 118 324 L119 324 Z M127 246 C127 182.97 162.636 14 375 14 C524.333 14 603 94.6667 603 224 C603 338.667 534.333 414 377 414 C223.978 414 127 336.667 127 246 Z " />
<glyph glyph-name="seven" unicode="7" horiz-adv-x="720" d="M246 0 L595 689 L136 689 L136 714 L626 714 L626 696 L276 0 L246 0 Z " />
<glyph glyph-name="eight" unicode="8" horiz-adv-x="720" d="M73 175 C73 281.604 164.717 341.014 306 381 C193.003 418.666 102 462.797 102 559 C102 659 194 724 346 724 C484.745 724 579 662.563 579 564 C579 473.333 504.667 423.667 374 381 C530 337 610 280 610 180 C610 61.0216 487.593 -10 334 -10 C179.359 -10 73 65.6926 73 175 Z M100 175 C100 79 197.277 15 335 15 C477.329 15 582 74.2814 582 181 C582 265.71 522.346 317.05 340 368 C208.37 330.391 100 280.155 100 175 Z M130 561 C130 472.95 208.554 431.365 342 394 C480.46 436.603 551 476.205 551 564 C551 649.333 474 699 346 699 C218.97 699 130 648.082 130 561 Z " />
<glyph glyph-name="nine" unicode="9" horiz-adv-x="720" d="M131 31 C161.667 21.6667 216 15 272 15 C447.103 15 593.974 117.099 602 390 L600 390 C564.771 335.802 483.972 277 338 277 C175.333 277 86 361.667 86 491 C86 632.463 178.671 726 345 726 C553 726 625 576.255 625 403 C625 104.359 463.156 -10 271 -10 C216.333 -10 165.667 -5 131 3 L131 31 Z M114 491 C114 373.667 187 302 339 302 C496.411 302 592 386.251 592 460 C592 538.9 549.39 701 345 701 C193 701 114 623 114 491 Z " />
<glyph glyph-name="colon" unicode="&#x3a;" horiz-adv-x="720" >
<g transform="translate(-1,0)" ><path fill="black" d="M326 23 C326 41.6667 330.333 58 361 58 C393 58 397 41.6667 397 23 C397 4.33333 393 -12 361 -12 C330.333 -12 326 4.33333 326 23 Z " /></g><g transform="translate(-1,477)" ><path fill="black" d="M326 23 C326 41.6667 330.333 58 361 58 C393 58 397 41.6667 397 23 C397 4.33333 393 -12 361 -12 C330.333 -12 326 4.33333 326 23 Z " /></g></glyph>
<glyph glyph-name="semicolon" unicode="&#x3b;" horiz-adv-x="720" d="M283 -129 C321.667 -31.6667 342.333 40 357 116 L384 116 L387 104 C368.333 29.3333 341 -59.6667 305 -129 L283 -129 Z M371 469 C345.667 469 343 482.667 343 500 C343 517.333 345.667 532 371 532 C401.667 532 402 518.667 402 500 C402 482.667 401.667 469 371 469 Z " />
<glyph glyph-name="less" unicode="&#x3c;" horiz-adv-x="720" d="M84 353 L84 372 L679 582 L679 556 L122 363 L679 166 L679 139 L84 353 Z " />
<glyph glyph-name="equal" unicode="&#x3d;" horiz-adv-x="720" d="M65 263 L656 263 L656 238 L65 238 L65 263 Z M65 468 L656 468 L656 443 L65 443 L65 468 Z " />
<glyph glyph-name="greater" unicode="&#x3e;" horiz-adv-x="720" d="M63 166 L620 363 L63 556 L63 582 L658 372 L658 353 L63 139 L63 166 Z " />
<glyph glyph-name="question" unicode="&#x3f;" horiz-adv-x="720" d="M283 174 L283 187 C283 284.043 303.734 320.374 389 371 C481.34 423.766 542 465.898 542 556 C542 654.693 456.156 699 336 699 C276 699 222 688.667 162 666 L152 691 C223.361 714.787 271.922 724 337 724 C475.745 724 570 668 570 556 C570 455.877 499.547 408.5 400 352 C335.157 311.473 308 274.408 308 187 L308 174 L283 174 Z M296 -12 C269.333 -12 264 4.33333 264 23 C264 41.6667 269.333 58 296 58 C330.667 58 332 41.6667 332 23 C332 4.33333 330.667 -12 296 -12 Z " />
<glyph glyph-name="at" unicode="&#x40;" horiz-adv-x="720" d="M474 197 C448.667 143.667 395.333 114 334 114 C242 114 191 179 191 287 C191 420.281 266.13 513 398 513 C432 513 470 506.333 512 493 L504 348 C501.333 324 498 285 498 257 C498 179.667 517.667 139 579 139 C660.645 139 697 231.874 697 353 C697 558.359 591.61 688 388 688 C176.494 688 23 544.364 23 292 C23 72.4675 162.13 -64 390 -64 C463.333 -64 541 -49 613 -21 L613 -49 C549 -74.3333 470.333 -89 393 -89 C141.364 -89 -7 59.2035 -7 294 C-7 562.494 160.078 713 384 713 C600.866 713 728 576.442 728 356 C728 220.918 677.026 114 581 114 C521 114 482.667 146.333 476 197 L474 197 Z M485 473 C455 483 426 488 398 488 C287.333 488 221 413.333 221 288 C221 194.667 256 139 336 139 C414.667 139 462.333 193.667 473 323 L485 473 Z " />
<glyph glyph-name="A" unicode="A" horiz-adv-x="720" d="M349 716 L375 716 L718 0 L689 0 L559 272 L164 272 L33 0 L4 0 L349 716 Z M176 297 L547 297 L404 595 L361 683 C348.333 653 334.667 623.667 320 595 L176 297 Z " />
<glyph glyph-name="B" unicode="B" horiz-adv-x="720" d="M127 0 L127 714 L335 714 C561.615 714 645 657.589 645 543 C645 460.333 583.333 393 462 377 L462 375 C619.271 356.341 668 293.709 668 202 C668 59.0216 529.229 0 340 0 L127 0 Z M154 25 L339 25 C524.048 25 640 80.4329 640 202 C640 324.745 522.156 363 338 363 L154 363 L154 25 Z M154 388 L342 388 C526 388 618 439.667 618 543 C618 645.667 531.333 689 326 689 L154 689 L154 388 Z " />
<glyph glyph-name="C" unicode="C" horiz-adv-x="720" d="M669 20 C615.667 2.66667 539.333 -10 446 -10 C196.355 -10 68 138.719 68 352 C68 572.156 211.329 724 469 724 C538.333 724 612.667 713.333 682 688 L672 665 C596 691.667 524.667 699 470 699 C227.307 699 95 558.225 95 352 C95 152.026 215.26 15 451 15 C532.333 15 610.333 29.6667 669 47 L669 20 Z " />
<glyph glyph-name="D" unicode="D" horiz-adv-x="720" d="M99 0 L99 714 L278 714 C548.667 714 672 593.667 672 363 C672 123 540.667 0 270 0 L99 0 Z M125 25 L257 25 C521 25 644 135.667 644 361 C644 573.364 536.978 689 266 689 L125 689 L125 25 Z " />
<glyph glyph-name="E" unicode="E" horiz-adv-x="720" d="M623 25 L623 0 L127 0 L127 714 L623 714 L623 689 L153 689 L153 389 L597 389 L597 364 L153 364 L153 25 L623 25 Z " />
<glyph glyph-name="F" unicode="F" horiz-adv-x="720" d="M127 0 L127 714 L623 714 L623 689 L153 689 L153 354 L598 354 L598 329 L153 329 L153 0 L127 0 Z " />
<glyph glyph-name="G" unicode="G" horiz-adv-x="720" d="M385 350 L624 350 L624 33 C556 3.66667 472 -10 396 -10 C164.996 -10 51 128.312 51 348 C51 574.641 176.13 725 408 725 C469.333 725 546 714.667 610 684 L597 662 C526.333 692.667 454.667 700 408 700 C191.87 700 77 563.134 77 348 C77 128 198 15 398 15 C474 15 545 29 597 49 L597 325 L385 325 L385 350 Z " />
<glyph glyph-name="H" unicode="H" horiz-adv-x="720" d="M99 0 L99 714 L125 714 L125 388 L598 388 L598 714 L624 714 L624 0 L598 0 L598 363 L125 363 L125 0 L99 0 Z " />
<glyph glyph-name="I" unicode="I" horiz-adv-x="720" d="M185 20 L348 23 L348 690 L185 694 L185 714 L537 714 L537 694 L374 690 L374 23 L537 20 L537 0 L185 0 L185 20 Z " />
<glyph glyph-name="J" unicode="J" horiz-adv-x="720" d="M123 53 C173.667 30.3333 222 9 302 9 C440.719 9 484 75.974 484 204 L484 714 L510 714 L510 196 C510 63.6104 460.156 -15 300 -15 C225.333 -15 177.667 1 123 25 L123 53 Z " />
<glyph glyph-name="K" unicode="K" horiz-adv-x="720" d="M99 0 L99 714 L125 714 L125 322 C149 344.667 165.333 358.333 192 381 L618 714 L658 714 L284 415 L664 0 L633 0 L267 397 L125 290 L125 0 L99 0 Z " />
<glyph glyph-name="L" unicode="L" horiz-adv-x="720" d="M623 25 L623 0 L165 0 L165 714 L191 714 L191 25 L623 25 Z " />
<glyph glyph-name="M" unicode="M" horiz-adv-x="720" d="M53 0 L53 714 L89 714 L358 231 L362 231 L630 714 L669 714 L669 0 L642 0 L642 581 C642 611.667 642.667 642.333 640 673 L638 673 L376 199 L345 199 L82 674 L79 674 C81.658 628.814 80 613.121 80 585 L80 0 L53 0 Z " />
<glyph glyph-name="N" unicode="N" horiz-adv-x="720" d="M99 0 L99 714 L124 714 L595 53 L597 53 L597 188 L597 714 L624 714 L624 0 L598 0 L128 665 L126 665 C127.333 626.333 126 591 126 535 L126 0 L99 0 Z " />
<glyph glyph-name="O" unicode="O" horiz-adv-x="720" d="M363 -10 C137.407 -10 51 161.589 51 359 C51 592.333 165 724 365 724 C572.056 724 672 576.671 672 359 C672 157.225 587.182 -10 363 -10 Z M363 15 C549.667 15 645 143.333 645 358 C645 578 545.667 699 363 699 C176.281 699 77 567.152 77 358 C77 147.307 176.281 15 363 15 Z " />
<glyph glyph-name="P" unicode="P" horiz-adv-x="720" d="M127 0 L127 714 L352 714 C558.667 714 668 658.667 668 516 C668 366.641 544.307 305 339 305 L153 305 L153 0 L127 0 Z M153 330 L335 330 C518.004 330 640 374.823 640 516 C640 641.333 548.667 689 346 689 L153 689 L153 330 Z " />
<glyph glyph-name="Q" unicode="Q" horiz-adv-x="720" d="M611 -170 L580 -170 L450 6 C418 -4.66667 382.333 -10 341 -10 C115.407 -10 29 161.589 29 359 C29 592.333 143 724 343 724 C550.056 724 650 576.671 650 359 C650 203.564 599.444 70.6025 475 15 L611 -170 Z M341 15 C527.667 15 623 143.333 623 358 C623 578 523.667 699 341 699 C154.281 699 55 567.152 55 358 C55 147.307 154.281 15 341 15 Z " />
<glyph glyph-name="R" unicode="R" horiz-adv-x="720" d="M127 0 L127 714 L329 714 C531.589 714 656 670.203 656 521 C656 407.667 585.333 351 444 327 L698 0 L667 0 L418 320 L153 320 L153 0 L127 0 Z M153 346 L369 346 C511.926 346 629 399.494 629 523 C629 647.312 516.589 689 322 689 L153 689 L153 346 Z " />
<glyph glyph-name="S" unicode="S" horiz-adv-x="720" d="M96 47 C164 28.3333 252 15 332 15 C492.104 15 616 67.355 616 181 C616 282.889 516.866 309.636 358 352 C205.062 392.247 104 427.14 104 541 C104 666.359 231.234 724 395 724 C467 724 540 713 616 689 L603 665 C523 691.667 450 699 394 699 C255.411 699 131 654.134 131 543 C131 439.973 236.685 409.662 370 375 C531.065 332.049 643 301.222 643 182 C643 54 514.433 -10 332 -10 C237.333 -10 153.333 4.33333 96 19 L96 47 Z " />
<glyph glyph-name="T" unicode="T" horiz-adv-x="720" d="M348 0 L348 689 L44 689 L44 714 L679 714 L679 689 L374 689 L374 0 L348 0 Z " />
<glyph glyph-name="U" unicode="U" horiz-adv-x="720" d="M99 714 L125 714 L125 253 C125 93 198 15 358 15 C508.667 15 598 88 598 252 L598 714 L624 714 L624 246 C624 70.9697 520.468 -10 356 -10 C181.333 -10 99 78.3333 99 249 L99 714 Z " />
<glyph glyph-name="V" unicode="V" horiz-adv-x="720" d="M362 34 C374 64.6667 386 99.3333 406 142 L663 714 L693 714 L375 0 L347 0 L29 714 L57 714 L316 142 C334.667 99.3333 347.667 64.6667 361 34 L362 34 Z " />
<glyph glyph-name="W" unicode="W" horiz-adv-x="720" d="M203 29 C211.256 70.2783 213.497 91.204 232 152 L345 528 L375 528 L486 155 C500.667 104.333 506.333 74.6667 517 28 L520 28 C530.667 74.6667 534.667 109.667 544 155 C582.667 341.667 625 526 665 714 L693 714 L537 0 L498 0 L388 385 C377.183 428.266 372.752 446.992 362 490 L360 490 C349.226 446.905 344.377 427.806 331 385 L221 0 L181 0 L29 714 L57 714 C97 526 137.333 340 176 152 C189.105 94.3387 194.635 69.2371 200 29 L203 29 Z " />
<glyph glyph-name="X" unicode="X" horiz-adv-x="720" d="M42 0 L349 372 L76 714 L107 714 L364 394 L627 714 L659 714 L380 373 L680 0 L648 0 L365 351 L74 0 L42 0 Z " />
<glyph glyph-name="Y" unicode="Y" horiz-adv-x="720" d="M350 0 L350 272 L42 714 L70 714 L363 297 L650 714 L680 714 L376 273 L376 0 L350 0 Z " />
<glyph glyph-name="Z" unicode="Z" horiz-adv-x="720" d="M127 19 L561 689 L163 689 L163 714 L596 714 L596 695 L161 25 L613 25 L613 0 L127 0 L127 19 Z " />
<glyph glyph-name="bracketleft" unicode="&#x5b;" horiz-adv-x="720" d="M543 -133 L543 -158 L284 -158 L284 714 L543 714 L543 689 L309 689 L309 -133 L543 -133 Z " />
<glyph glyph-name="backslash" unicode="&#x5c;" horiz-adv-x="720" d="M545 0 L192 714 L222 714 L575 0 L545 0 Z " />
<glyph glyph-name="bracketright" unicode="&#x5d;" horiz-adv-x="720" d="M204 -133 L438 -133 L438 689 L204 689 L204 714 L463 714 L463 -158 L204 -158 L204 -133 Z " />
<glyph glyph-name="asciicircum" unicode="&#x5e;" horiz-adv-x="720" d="M54 290 L361 718 L388 718 L667 290 L635 290 L372 685 L87 290 L54 290 Z " />
<glyph glyph-name="underscore" unicode="&#x5f;" horiz-adv-x="720" d="M-22 -86 L744 -86 L744 -111 L-22 -111 L-22 -86 Z " />
<glyph glyph-name="grave" unicode="&#x60;" horiz-adv-x="720" d="M245 766 L275 766 C314.331 721.425 401.865 653.319 461 613 L461 606 L438 606 C370.345 649.299 292.591 714.053 245 759 L245 766 Z " />
<glyph glyph-name="a" unicode="a" horiz-adv-x="720" d="M572 301 L572 345 C572 466.333 509.333 512 368 512 C306.667 512 244.667 502 170 474 L160 498 C228 523.333 297.333 537 368 537 C524 537 598 481.667 598 351 L598 0 L576 0 L572 102 L569 102 C535.667 40.6667 449 -10 305 -10 C165 -10 96 45.3333 96 128 C96 237.383 224.407 286.003 419 294 L572 301 Z M572 276 L422 271 C247.663 262.954 124 227.594 124 128 C124 56 185 15 305 15 C483.589 15 572 98.9524 572 220 L572 276 Z " />
<glyph glyph-name="b" unicode="b" horiz-adv-x="720" d="M115 760 L141 760 L141 519 C141 487 140.333 439.333 139 402 L142 402 C166 479.333 255.333 537 390 537 C564.667 537 652 441.333 652 272 C652 108.312 575.896 -10 368 -10 C242.667 -10 173.333 36.3333 144 103 L142 103 L137 0 L115 0 L115 760 Z M371 15 C536.333 15 625 103 625 271 C625 424.333 551.333 512 390 512 C222 512 141 423.333 141 258 C141 96.6667 213.667 15 371 15 Z " />
<glyph glyph-name="c" unicode="c" horiz-adv-x="720" d="M612 15 C570.667 0.333333 503.667 -10 429 -10 C196.948 -10 99 106.048 99 257 C99 426.697 231.056 537 456 537 C516 537 570.333 530 617 514 L612 489 C562.667 506.333 501 512 453 512 C252.974 512 126 415.281 126 258 C126 123.671 214.152 15 429 15 C491.667 15 562.667 25 612 41 L612 15 Z " />
<glyph glyph-name="d" unicode="d" horiz-adv-x="720" d="M583 112 L581 112 C548.505 44.3011 477.743 -10 337 -10 C154.333 -10 70 83.3333 70 254 C70 439.333 169.667 537 347 537 C484.623 537 554.362 478.595 581 412 L583 412 C580.333 454.667 581 498.333 581 537 L581 760 L607 760 L607 0 L586 0 L583 112 Z M581 273 C581 427.667 506 512 346 512 C186 512 97 428.667 97 254 C97 94.6667 177 15 337 15 C513.104 15 581 104.9 581 258 L581 273 Z " />
<glyph glyph-name="e" unicode="e" horiz-adv-x="720" d="M627 23 C560.333 0.333333 483 -10 407 -10 C167.13 -10 78 102.978 78 256 C78 412.338 171.182 537 383 537 C572.359 537 646 429.048 646 292 L646 267 L105 267 C105 106.134 190.844 15 407 15 C491 15 555 27 627 51 L627 23 Z M383 512 C230.909 512 123.119 437.068 107 292 L619 292 C619 422.667 545.667 512 383 512 Z " />
<glyph glyph-name="f" unicode="f" horiz-adv-x="720" d="M331 0 L331 503 L102 503 L102 524 L331 528 L331 603 C331 708.333 392.667 765 550 765 C590.061 765 656.152 759.712 687 752 L683 728 C648.333 736 595.667 740 549 740 C415.667 740 357 702 357 594 L357 528 L647 528 L647 503 L357 503 L357 0 L331 0 Z " />
<glyph glyph-name="g" unicode="g" horiz-adv-x="720" d="M103 -180 C161.667 -202.667 235 -220 327 -220 C511.156 -220 581 -148.307 581 -31 L581 16 C581 54.6667 581.333 81 584 121 L581 121 C550.333 38.3333 463 -10 335 -10 C167 -10 70 78 70 258 C70 431.333 163.333 537 354 537 C481.356 537 544.473 490.922 577 434 L579 434 L585 528 L607 528 L607 -36 C607 -163.87 532.026 -245 324 -245 C229.333 -245 161.667 -229 103 -209 L103 -180 Z M580 299 C580 417.9 529.537 512 351 512 C175 512 96 415.333 96 258 C96 96.6667 175.667 15 337 15 C535.329 15 580 135.26 580 243 L580 299 Z " />
<glyph glyph-name="h" unicode="h" horiz-adv-x="720" d="M115 0 L115 760 L141 760 L141 495 C141 464.333 140.667 444.667 138 414 L141 414 C164.911 477.763 238.505 537 385 537 C530.333 537 614 478.667 614 352 L614 0 L588 0 L588 347 C588 464.333 512.333 512 387 512 C241.355 512 141 445.996 141 301 L141 0 L115 0 Z " />
<glyph glyph-name="i" unicode="i" horiz-adv-x="720" >
<path fill="black" d="M108 21 L373 25 L373 503 L132 507 L132 528 L399 528 L399 25 L651 21 L651 0 L108 0 L108 21 Z " /><g transform="translate(22,0)" ><path fill="black" d="M323 697 C323 715.667 327.667 734 361 734 C391.667 734 396 715.667 396 697 C396 678.333 394.333 660 361 660 C329 660 323 677 323 697 Z " /></g></glyph>
<glyph glyph-name="j" unicode="j" horiz-adv-x="720" >
<path fill="black" d="M78 -201 C102.409 -209.136 183.998 -222 236 -222 C349.333 -222 404 -169 404 -81 L404 503 L157 507 L157 528 L430 528 L430 -88 C430 -196 350 -248 234 -248 C168.294 -248 96.814 -233.375 78 -228 L78 -201 Z " /><g transform="translate(52,-3)" ><path fill="black" d="M323 697 C323 715.667 327.667 734 361 734 C391.667 734 396 715.667 396 697 C396 678.333 394.333 660 361 660 C329 660 323 677 323 697 Z " /></g></glyph>
<glyph glyph-name="k" unicode="k" horiz-adv-x="720" d="M162 0 L162 760 L188 760 L188 382 C188 319.333 189.333 267.667 188 205 L190 205 C216.667 226.333 243.333 248.333 274 271 L611 528 L646 528 L378 312 L672 0 L641 0 L359 294 L188 173 L188 0 L162 0 Z " />
<glyph glyph-name="l" unicode="l" horiz-adv-x="720" d="M108 21 L364 25 L364 735 L136 739 L136 760 L390 760 L390 25 L651 21 L651 0 L108 0 L108 21 Z " />
<glyph glyph-name="m" unicode="m" horiz-adv-x="720" d="M69 0 L69 527 L89 527 L91 437 L94 437 C110.005 479.681 142.247 537 240 537 C327.89 537 360.143 488.758 368 439 L372 439 C397.333 493.667 437 537 521 537 C605 537 659 492.333 659 387 L659 0 L631 0 L631 380 C631 480.26 582.281 512 521 512 C434.333 512 379 448 379 348 L379 0 L352 0 L352 363 C352 483.078 300.719 512 242 512 C138.026 512 97 418.052 97 338 L97 0 L69 0 Z " />
<glyph glyph-name="n" unicode="n" horiz-adv-x="720" d="M115 0 L115 528 L137 528 L139 417 L142 417 C168.309 477.511 238.733 537 384 537 C529.333 537 614 480 614 356 L614 0 L588 0 L588 348 C588 464 512.667 512 386 512 C242.026 512 141 445.9 141 303 L141 0 L115 0 Z " />
<glyph glyph-name="o" unicode="o" horiz-adv-x="720" d="M70 264 C70 434.667 176 537 368 537 C575.134 537 652 418.026 652 266 C652 104.926 563.693 -10 361 -10 C160.87 -10 70 103.844 70 264 Z M97 264 C97 114.589 182.437 15 361 15 C543.926 15 625 115.719 625 265 C625 403.589 557.307 512 368 512 C196 512 97 421.333 97 264 Z " />
<glyph glyph-name="p" unicode="p" horiz-adv-x="720" d="M115 -240 L115 528 L136 528 L137 400 L140 400 C167.053 470.337 248.011 537 395 537 C565.667 537 652 445.667 652 271 C652 87 553.667 -10 379 -10 C241.773 -10 168.07 49.3239 141 117 L139 117 C141.667 75.6667 141 32 141 -8 L141 -240 L115 -240 Z M141 257 C141 94.2814 239.052 15 383 15 C533.667 15 626 97.6667 626 271 C626 431.667 549.667 512 397 512 C233 512 141 421 141 269 L141 257 Z " />
<glyph glyph-name="q" unicode="q" horiz-adv-x="720" d="M581 -238 L581 7 C581 36.3333 581.333 88.6667 584 122 L581 122 C546.333 44.6667 469 -10 333 -10 C155.667 -10 70 84 70 256 C70 418.641 150.364 537 346 537 C476.667 537 551 485.667 579 423 L581 423 L585 528 L607 528 L607 -238 L581 -238 Z M581 281 C581 431.667 500 512 344 512 C181.333 512 97 421 97 257 C97 95.6667 175 15 331 15 C497.667 15 581 108.667 581 258 L581 281 Z " />
<glyph glyph-name="r" unicode="r" horiz-adv-x="720" d="M106 21 L330 25 L330 503 L130 507 L130 528 L357 528 L356 412 L360 412 C381.023 480.324 459.476 536 580 536 C622.667 536 671 529.667 699 523 L693 497 C659.667 505 620.333 510 579 510 C429.667 510 356 421 356 281 L356 25 L614 21 L614 0 L106 0 L106 21 Z " />
<glyph glyph-name="s" unicode="s" horiz-adv-x="720" d="M135 54 C203 28.6667 276.667 15 350 15 C503.333 15 563 59.3333 563 130 C563 211.834 470.702 234.325 364 261 C259.148 290.574 157 307.95 157 405 C157 489 236.667 537 382 537 C458 537 523.333 525.333 574 508 L561 484 C515.667 501.333 450 512 382 512 C255.333 512 184 478 184 406 C184 329.204 262.293 314.344 369 285 C494.409 252.981 590 226.915 590 132 C590 44 517.667 -10 351 -10 C263 -10 181.667 8 135 24 L135 54 Z " />
<glyph glyph-name="t" unicode="t" horiz-adv-x="720" d="M310 503 L92 503 L92 524 L309 528 L314 659 L336 659 L336 528 L614 528 L614 503 L336 503 L336 183 C336 75.3636 371.797 15 505 15 C547.667 15 577 20 605 28 L605 3 C578.333 -3.66667 551.333 -10 506 -10 C350.468 -10 310 61.645 310 180 L310 503 Z " />
<glyph glyph-name="u" unicode="u" horiz-adv-x="720" d="M108 528 L134 528 L134 193 C134 67.6667 207.333 15 338 15 C478.494 15 581 82.1818 581 226 L581 528 L607 528 L607 0 L586 0 L583 112 L581 112 C554.368 50.7469 483.891 -10 339 -10 C185.667 -10 108 57.3333 108 188 L108 528 Z " />
<glyph glyph-name="v" unicode="v" horiz-adv-x="720" d="M362 35 C376.667 69.6667 388 97.3333 408 140 L604 528 L632 528 L370 0 L351 0 L90 528 L118 528 L312 140 C333.333 97.3333 345.333 69.6667 360 35 L362 35 Z " />
<glyph glyph-name="w" unicode="w" horiz-adv-x="720" d="M198 39 C208.667 69.6667 218.333 98 241 154 L357 426 L381 426 L497 153 C519.667 99.6667 528 71 540 39 L543 39 C549.667 73.6667 554.667 98.3333 572 153 L686 528 L712 528 L552 0 L533 0 L409 286 C394.333 320 381 355 369 391 L366 391 C355.333 353.667 342.333 318 329 286 L206 0 L185 0 L9 528 L35 528 L162 154 C180.667 96.6667 185.667 71 195 39 L198 39 Z " />
<glyph glyph-name="x" unicode="x" horiz-adv-x="720" d="M90 0 L344 270 L104 528 L136 528 L359 289 L587 528 L617 528 L376 271 L632 0 L600 0 L360 252 L121 0 L90 0 Z " />
<glyph glyph-name="y" unicode="y" horiz-adv-x="720" d="M87 -210 C112.333 -216.667 130 -221 154 -221 C218 -221 253.667 -190.667 295 -108 L350 7 L99 528 L127 528 L306 161 C335.297 102.406 346.241 77.7705 362 41 L365 41 C381 81 395.667 106.333 425 165 L604 528 L632 528 L317 -117 C274.333 -205 233 -246 153 -246 C131.667 -246 109.667 -242.667 87 -236 L87 -210 Z " />
<glyph glyph-name="z" unicode="z" horiz-adv-x="720" d="M128 18 L554 503 L163 503 L163 528 L595 528 L595 512 L165 25 L590 25 L590 0 L128 0 L128 18 Z " />
<glyph glyph-name="braceleft" unicode="&#x7b;" horiz-adv-x="720" d="M333 151 C333 235 298 266 190 266 L190 290 C295.333 290 333 321.667 333 407 L333 581 C333 673 389.667 714 543 714 L543 690 C404.281 690 361 659.641 361 577 L361 402 C361 334 336 289.333 260 280 L260 278 C336 267.333 361 224 361 156 L361 -21 C361 -103.641 401.719 -134 543 -134 L543 -158 C387.208 -158 333 -120.004 333 -25 L333 151 Z " />
<glyph glyph-name="bar" unicode="&#x7c;" horiz-adv-x="720" d="M341 -240 L341 760 L367 760 L367 -240 L341 -240 Z " />
<glyph glyph-name="braceright" unicode="&#x7d;" horiz-adv-x="720" d="M199 -134 C337.719 -134 381 -103.641 381 -21 L381 154 C381 222 406 266.667 482 276 L482 278 C406 288.667 381 332 381 400 L381 577 C381 659.641 340.281 690 199 690 L199 714 C355.416 714 409 676.004 409 581 L409 405 C409 321 444 290 552 290 L552 266 C446.667 266 409 235.667 409 149 L409 -25 C409 -117 353.667 -158 199 -158 L199 -134 Z " />
<glyph glyph-name="asciitilde" unicode="&#x7e;" horiz-adv-x="720" d="M657 361 C626.333 334.333 573.667 310 511 310 C447 310 408 323.333 360 342 C313.333 359.333 279.667 372 221 372 C165 372 114.667 350.333 64 309 L64 341 C102.667 370.333 157.333 397 220 397 C289.333 397 326.333 382.667 373 364 C419.667 346.667 454 334 510 334 C556.667 334 606.333 351 657 391 L657 361 Z " />
<glyph glyph-name="uni00A0" unicode="&#xa0;" horiz-adv-x="720" />
<glyph glyph-name="exclamdown" unicode="&#xa1;" horiz-adv-x="720" d="M369 355 L395 355 L396 -185 L369 -185 L369 355 Z M349 506 C349 524.667 353.333 541 384 541 C416 541 420 524.667 420 506 C420 487.333 416 471 384 471 C353.333 471 349 487.333 349 506 Z " />
<glyph glyph-name="cent" unicode="&#xa2;" horiz-adv-x="720" d="M400 -10 L400 90 C191.991 98.0003 104 208.87 104 361 C104 514.059 212.171 622.584 400 636 L400 724 L427 724 L427 637 C493.667 637 536.333 631 587 615 L583 590 C532.333 607.333 483.667 613 437 613 C246.645 613 131 509.26 131 361 C131 221.39 215.97 116 415 116 C475 116 535 125.333 583 140 L583 115 C545.667 103 492 92.6667 428 90 L428 -10 L400 -10 Z " />
<glyph glyph-name="sterling" unicode="&#xa3;" horiz-adv-x="720" d="M662 25 L662 0 L86 0 L86 23 C194 37.6667 247 88.6667 247 186 L247 336 L107 336 L107 361 L247 361 L247 520 C247 655.333 322.333 723 473 723 C547.667 723 605 707.333 653 686 L643 662 C583 687.333 533.333 698 472 698 C334.667 698 273 644 273 516 L273 361 L508 361 L508 336 L273 336 L273 179 C273 95 229.667 47.6667 167 25 L662 25 Z " />
<glyph glyph-name="currency" unicode="&#xa4;" horiz-adv-x="720" d="M165 221 C119.667 259.667 98 306 98 354 C98 402 117 448.667 161 486 L59 563 L77 581 L182 503 C232.667 537.667 296 554 360 554 C424 554 490.333 537.667 541 503 L644 580 L662 562 L558 486 C604.667 447.333 625 402 625 354 C625 307.333 602.667 258.667 556 220 L660 143 L640 126 L537 203 C486.333 168.333 424 154 360 154 C296 154 237 168.333 185 203 L81 128 L63 145 L165 221 Z M125 353 C125 253.286 234.745 180 360 180 C490.537 180 597 258.108 597 355 C597 450.844 498.381 529 364 529 C224.442 529 125 453.364 125 353 Z " />
<glyph glyph-name="yen" unicode="&#xa5;" horiz-adv-x="720" d="M120 186 L349 186 L349 297 L120 297 L120 322 L341 322 L33 714 L66 714 L362 337 L656 714 L688 714 L381 322 L603 322 L603 297 L375 297 L375 186 L603 186 L603 161 L375 161 L375 0 L349 0 L349 161 L120 161 L120 186 Z " />
<glyph glyph-name="brokenbar" unicode="&#xa6;" horiz-adv-x="720" d="M341 -250 L341 121 L367 121 L367 -250 L341 -250 Z M341 393 L341 764 L367 764 L367 393 L341 393 Z " />
<glyph glyph-name="section" unicode="&#xa7;" horiz-adv-x="720" d="M136 57 C201.333 33 273 20 349 20 C499.667 20 566 66.6667 566 132 C566 200.676 473.312 224.095 363 251 C250.268 280.525 158 303.07 158 393 C158 459.667 217.333 499.667 304 521 C227.507 544.739 169 574.169 169 637 C169 714.333 254.333 761 393 761 C467.667 761 536.333 749.333 587 732 L574 709 C530 726.333 458.667 737 392 737 C270.667 737 195 705 195 637 C195 570.968 280.717 554.319 382 525 C490.549 498.525 603 472.862 603 379 C603 313.667 553 268.667 481 242 C546.333 219.333 593 191.667 593 133 C593 50.3333 514.333 -4 349 -4 C261 -4 182.667 12 136 28 L136 57 Z M452 253 C528 275.667 575 318 575 378 C575 450.086 488.884 480.69 345 510 C254.347 494.002 186 458.773 186 393 C186 319.084 269.297 298.252 369 274 L452 253 Z " />
<glyph glyph-name="dieresis" unicode="&#xa8;" horiz-adv-x="720" d="M236 641 C210.667 641 206 656 206 676 C206 694.667 210.667 711 236 711 C266.667 711 269 693.333 269 676 C269 657.333 266.667 641 236 641 Z M483 641 C456.333 641 451 656 451 676 C451 694.667 456.333 711 483 711 C512.333 711 514 694.667 514 676 C514 657.333 512.333 641 483 641 Z " />
<glyph glyph-name="copyright" unicode="&#xa9;" horiz-adv-x="720" d="M29 358 C29 507.411 180.693 607 362 607 C552.433 607 693 500.437 693 359 C693 212.307 542.745 112 356 112 C169.203 112 29 212.978 29 358 Z M56 360 C56 232.13 179.385 135 358 135 C534.104 135 666 228.437 666 359 C666 487 537.078 583 361 583 C190.463 583 56 490.693 56 360 Z M482 222 C451.333 214 416.667 208 378 208 C262 208 183 258.667 183 356 C183 452 256.667 511 390 511 C428.667 511 466.667 506.333 496 493 L488 473 C458.667 482.333 424.333 488 387 488 C273.667 488 210 440 210 356 C210 272 277.667 230 387 230 C413.667 230 446 233.333 482 244 L482 222 Z " />
<glyph glyph-name="ordfeminine" unicode="&#xaa;" horiz-adv-x="720" d="M493 586 L492 619 C489.333 675 443.667 700 361 700 C314.333 700 278.667 692 240 676 L228 697 C268 711.667 309.333 723 364 723 C466.667 723 519 688 519 624 L519 398 L495 398 L490 448 C470 417.333 416.667 394 338 394 C258 394 200 422.667 200 484 C200 550.667 266.667 580 396 584 L493 586 Z M493 564 L395 562 C283 560 227 534.333 227 485 C227 438.333 273 416 341 416 C441 416 493 457.667 493 523 L493 564 Z " />
<glyph glyph-name="guillemotleft" unicode="&#xab;" horiz-adv-x="720" >
<g transform="translate(-123,-4)" ><path fill="black" d="M255 269 L255 282 L452 468 L467 456 L289 276 L468 97 L452 86 L255 269 Z " /></g><g transform="translate(97,-4)" ><path fill="black" d="M255 269 L255 282 L452 468 L467 456 L289 276 L468 97 L452 86 L255 269 Z " /></g></glyph>
<glyph glyph-name="logicalnot" unicode="&#xac;" horiz-adv-x="720" d="M44 365 L614 365 L614 130 L588 130 L588 341 L44 341 L44 365 Z " />
<glyph glyph-name="uni00AD" unicode="&#xad;" horiz-adv-x="720" >
<g transform="translate(-22,0)" ><path fill="black" d="M169 290 L553 290 L553 265 L169 265 L169 290 Z " /></g></glyph>
<glyph glyph-name="registered" unicode="&#xae;" horiz-adv-x="720" d="M29 358 C29 507.411 180.693 607 362 607 C552.433 607 693 500.437 693 359 C693 212.307 542.745 112 356 112 C169.203 112 29 212.978 29 358 Z M56 360 C56 232.13 179.385 135 358 135 C534.104 135 666 228.437 666 359 C666 487 537.078 583 361 583 C190.463 583 56 490.693 56 360 Z M246 199 L246 524 L370 524 C454 524 514 497 514 433 C514 379.667 473 353 417 341 L533 199 L501 199 L389 337 L272 337 L272 199 L246 199 Z M271 357 L367 357 C436.333 357 487 377.333 487 432 C487 484 441 503 369 503 L271 503 L271 357 Z " />
<glyph glyph-name="macron" unicode="&#xaf;" horiz-adv-x="720" d="M198 653 L522 653 L522 629 L198 629 L198 653 Z " />
<glyph glyph-name="degree" unicode="&#xb0;" horiz-adv-x="720" d="M179 585 C179 671.329 262.385 724 361 724 C462.463 724 544 669.437 544 584 C544 498.719 462.416 446 362 446 C264.277 446 179 496.87 179 585 Z M207 585 C207 515.563 273.156 469 361 469 C446.281 469 515 513.671 515 584 C515 653.307 447 701 359 701 C274.636 701 207 654.437 207 585 Z " />
<glyph glyph-name="plusminus" unicode="&#xb1;" horiz-adv-x="720" d="M63 365 L347 365 L347 583 L373 583 L373 365 L658 365 L658 341 L373 341 L373 123 L347 123 L347 341 L63 341 L63 365 Z M62 25 L655 25 L655 0 L62 0 L62 25 Z " />
<glyph glyph-name="twosuperior" unicode="&#xb2;" horiz-adv-x="720" d="M175 437 L334 562 C426.557 633.401 490 681.693 490 741 C490 793 445 830 357 830 C302.333 830 259.333 817 210 789 L196 809 C242.667 838.333 297 855 357 855 C461 855 520 807.667 520 741 C520 670.834 455.775 627.488 352 545 L217 440 L535 440 L535 416 L175 416 L175 437 Z " />
<glyph glyph-name="threesuperior" unicode="&#xb3;" horiz-adv-x="720" d="M173 464 C223.667 446.667 273.667 436 331 436 C444.333 436 503 474 503 538 C503 598.667 449 629 341 629 L256 629 L256 652 L341 652 C435.667 652 490 687.667 490 745 C490 797 443 826 355 826 C292.333 826 244 811.667 196 789 L185 810 C231.667 835.333 290.667 851 356 851 C456 851 518 813.667 518 747 C518 691 475.667 654.667 417 644 L417 642 C493 629.333 531 594.333 531 537 C531 457 457.333 412 332 412 C273.333 412 215.667 421.333 173 436 L173 464 Z " />
<glyph glyph-name="acute" unicode="&#xb4;" horiz-adv-x="720" d="M330 606 L330 613 C390.568 655.134 476.07 720.747 516 766 L546 766 L546 759 C498.023 713.688 420.561 648.191 352 606 L330 606 Z " />
<glyph glyph-name="mu" unicode="&#xb5;" horiz-adv-x="720" d="M108 86 C93.3333 113.333 86 147.333 86 188 L86 528 L112 528 L112 227 L134 227 L134 95 C164.667 39 226.667 15 316 15 C456.494 15 559 82.1818 559 226 L559 528 L585 528 L585 0 L564 0 L561 112 L559 112 C532.368 50.7469 461.891 -10 317 -10 C233 -10 172 10 134 50 L134 -240 L108 -240 L108 86 Z " />
<glyph glyph-name="paragraph" unicode="&#xb6;" horiz-adv-x="720" d="M331 -127 L331 355 C305.667 348.333 287.667 346 257 346 C133.494 346 80 437.126 80 556 C80 684 137.667 760 283 760 L586 760 L586 -127 L558 -127 L558 734 L360 734 L360 -127 L331 -127 Z " />
<glyph glyph-name="periodcentered" unicode="&#xb7;" horiz-adv-x="720" >
<g transform="translate(-22,282)" ><path fill="black" d="M326 23 C326 41.6667 330.333 58 361 58 C393 58 397 41.6667 397 23 C397 4.33333 393 -12 361 -12 C330.333 -12 326 4.33333 326 23 Z " /></g></glyph>
<glyph glyph-name="cedilla" unicode="&#xb8;" horiz-adv-x="720" d="M276 -210 C298.667 -215.333 320.333 -216 339 -216 C423 -216 468 -191 468 -147 C468 -103 427 -85.3333 331 -84 L387 0 L417 0 L374 -65 C450 -67.6667 495 -95.3333 495 -146 C495 -203.333 435 -240 343 -240 C320.333 -240 296 -238 276 -234 L276 -210 Z " />
<glyph glyph-name="onesuperior" unicode="&#xb9;" horiz-adv-x="720" d="M217 435 L359 440 L359 699 C359 736.333 358.333 780.333 361 815 C330.333 800.333 308.667 793.333 266 776 L202 749 L191 770 L368 844 L389 844 L389 440 L523 435 L523 416 L217 416 L217 435 Z " />
<glyph glyph-name="ordmasculine" unicode="&#xba;" horiz-adv-x="720" d="M193 559 C193 660.333 258.333 724 365 724 C482.385 724 531 652.156 531 560 C531 465.619 477.61 395 362 395 C248.952 395 193 465.667 193 559 Z M361 418 C457 418 501 477.667 501 559 C501 635.312 460.03 701 365 701 C277 701 222 647 222 559 C222 476.333 269 418 361 418 Z " />
<glyph glyph-name="guillemotright" unicode="&#xbb;" horiz-adv-x="720" >
<g transform="translate(-96,-27)" ><path fill="black" d="M457 284 L277 463 L294 474 L490 291 L490 278 L294 92 L277 104 L457 284 Z " /></g><g transform="translate(124,-27)" ><path fill="black" d="M457 284 L277 463 L294 474 L490 291 L490 278 L294 92 L277 104 L457 284 Z " /></g></glyph>
<glyph glyph-name="onequarter" unicode="&#xbc;" horiz-adv-x="720" >
<g transform="translate(3,-561)" ><path fill="black" d="M164 563 L425 847 L456 847 L456 569 L553 569 L553 545 L456 545 L456 416 L428 416 L428 545 L164 545 L164 563 Z M428 569 L428 737 C428 766.333 427.667 789.667 429 815 C411.667 795 406.667 783.667 388 765 L201 569 L428 569 Z " /></g><g transform="translate(4,50)" ><path fill="black" d="M217 435 L359 440 L359 699 C359 736.333 358.333 780.333 361 815 C330.333 800.333 308.667 793.333 266 776 L202 749 L191 770 L368 844 L389 844 L389 440 L523 435 L523 416 L217 416 L217 435 Z " /></g><path fill="black" d="M104 357 L610 407 L610 388 L104 338 L104 357 Z " /></glyph>
<glyph glyph-name="onehalf" unicode="&#xbd;" horiz-adv-x="720" >
<g transform="translate(6,-561)" ><path fill="black" d="M175 437 L334 562 C426.557 633.401 490 681.693 490 741 C490 793 445 830 357 830 C302.333 830 259.333 817 210 789 L196 809 C242.667 838.333 297 855 357 855 C461 855 520 807.667 520 741 C520 670.834 455.775 627.488 352 545 L217 440 L535 440 L535 416 L175 416 L175 437 Z " /></g><g transform="translate(4,50)" ><path fill="black" d="M217 435 L359 440 L359 699 C359 736.333 358.333 780.333 361 815 C330.333 800.333 308.667 793.333 266 776 L202 749 L191 770 L368 844 L389 844 L389 440 L523 435 L523 416 L217 416 L217 435 Z " /></g><path fill="black" d="M104 357 L610 407 L610 388 L104 338 L104 357 Z " /></glyph>
<glyph glyph-name="threequarters" unicode="&#xbe;" horiz-adv-x="720" >
<g transform="translate(3,-561)" ><path fill="black" d="M164 563 L425 847 L456 847 L456 569 L553 569 L553 545 L456 545 L456 416 L428 416 L428 545 L164 545 L164 563 Z M428 569 L428 737 C428 766.333 427.667 789.667 429 815 C411.667 795 406.667 783.667 388 765 L201 569 L428 569 Z " /></g><g transform="translate(9,50)" ><path fill="black" d="M173 464 C223.667 446.667 273.667 436 331 436 C444.333 436 503 474 503 538 C503 598.667 449 629 341 629 L256 629 L256 652 L341 652 C435.667 652 490 687.667 490 745 C490 797 443 826 355 826 C292.333 826 244 811.667 196 789 L185 810 C231.667 835.333 290.667 851 356 851 C456 851 518 813.667 518 747 C518 691 475.667 654.667 417 644 L417 642 C493 629.333 531 594.333 531 537 C531 457 457.333 412 332 412 C273.333 412 215.667 421.333 173 436 L173 464 Z " /></g><path fill="black" d="M104 357 L610 407 L610 388 L104 338 L104 357 Z " /></glyph>
<glyph glyph-name="questiondown" unicode="&#xbf;" horiz-adv-x="720" d="M568 -162 C496.639 -185.787 448.078 -195 383 -195 C244.255 -195 150 -139 150 -27 C150 73.8052 220.318 120.424 320 177 C384.843 217.527 412 254.592 412 342 L412 355 L437 355 L437 342 C437 244.957 416.266 208.626 331 158 C239.535 104.197 178 63.8967 178 -27 C178 -125.693 263.844 -170 384 -170 C444 -170 498 -159.667 558 -137 L568 -162 Z M388 506 C388 524.667 392.333 541 423 541 C455 541 459 524.667 459 506 C459 487.333 455 471 423 471 C392.333 471 388 487.333 388 506 Z " />
<glyph glyph-name="Agrave" unicode="&#xc0;" horiz-adv-x="720" >
<path fill="black" d="M349 716 L375 716 L718 0 L689 0 L559 272 L164 272 L33 0 L4 0 L349 716 Z M176 297 L547 297 L404 595 L361 683 C348.333 653 334.667 623.667 320 595 L176 297 Z " /><g transform="translate(-50,186)" ><path fill="black" d="M245 766 L275 766 C314.331 721.425 401.865 653.319 461 613 L461 606 L438 606 C370.345 649.299 292.591 714.053 245 759 L245 766 Z " /></g></glyph>
<glyph glyph-name="Aacute" unicode="&#xc1;" horiz-adv-x="720" d="M349 716 L375 716 L718 0 L689 0 L559 272 L164 272 L33 0 L4 0 L349 716 Z M176 297 L547 297 L404 595 L361 683 C348.333 653 334.667 623.667 320 595 L176 297 Z M301 799 C361.568 841.134 447.07 906.747 487 952 L517 952 L517 945 C469.023 899.688 391.561 834.191 323 792 L301 792 L301 799 Z " />
<glyph glyph-name="Acircumflex" unicode="&#xc2;" horiz-adv-x="720" d="M349 716 L375 716 L718 0 L689 0 L559 272 L164 272 L33 0 L4 0 L349 716 Z M176 297 L547 297 L404 595 L361 683 C348.333 653 334.667 623.667 320 595 L176 297 Z M203 798 C250.683 837.736 319.769 908.711 352 949 L373 949 C404.522 906.971 473.656 835.342 519 798 L519 792 L497 792 C450.333 829.333 399 878.333 363 917 C327 879.667 273 828 225 792 L203 792 L203 798 Z " />
<glyph glyph-name="Atilde" unicode="&#xc3;" horiz-adv-x="720" >
<path fill="black" d="M349 716 L375 716 L718 0 L689 0 L559 272 L164 272 L33 0 L4 0 L349 716 Z M176 297 L547 297 L404 595 L361 683 C348.333 653 334.667 623.667 320 595 L176 297 Z " /><g transform="translate(0,186)" ><path fill="black" d="M153 620 C159.667 685.333 202 717 266 717 C351.327 717 384.105 643 455 643 C493.183 643 531.987 658.24 540 717 L570 717 C563.333 651.667 518 619 454 619 C364.895 619 340.34 693 263 693 C229.416 693 188.322 678.541 183 620 L153 620 Z " /></g></glyph>
<glyph glyph-name="Adieresis" unicode="&#xc4;" horiz-adv-x="720" >
<g transform="translate(1,183)" ><path fill="black" d="M236 641 C210.667 641 206 656 206 676 C206 694.667 210.667 711 236 711 C266.667 711 269 693.333 269 676 C269 657.333 266.667 641 236 641 Z M483 641 C456.333 641 451 656 451 676 C451 694.667 456.333 711 483 711 C512.333 711 514 694.667 514 676 C514 657.333 512.333 641 483 641 Z " /></g><path fill="black" d="M349 716 L375 716 L718 0 L689 0 L559 272 L164 272 L33 0 L4 0 L349 716 Z M176 297 L547 297 L404 595 L361 683 C348.333 653 334.667 623.667 320 595 L176 297 Z " /></glyph>
<glyph glyph-name="Aring" unicode="&#xc5;" horiz-adv-x="720" >
<path fill="black" d="M349 716 L375 716 L718 0 L689 0 L559 272 L164 272 L33 0 L4 0 L349 716 Z M176 297 L547 297 L404 595 L361 683 C348.333 653 334.667 623.667 320 595 L176 297 Z " /><g transform="translate(0,186)" ><path fill="black" d="M231 708 C231 769.333 288.026 808 360 808 C432.892 808 491 766.723 491 709 C491 650.255 432.844 612 361 612 C294.281 612 231 646.563 231 708 Z M258 709 C258 665 299.667 634 361 634 C422.333 634 463 666 463 710 C463 752.667 422.333 786 361 786 C297 786 258 753 258 709 Z " /></g></glyph>
<glyph glyph-name="AE" unicode="&#xc6;" horiz-adv-x="720" d="M334 714 L727 714 L727 689 L413 689 L413 389 L707 389 L707 364 L413 364 L413 25 L727 25 L727 0 L387 0 L387 275 L160 275 L34 0 L4 0 L334 714 Z M387 300 L387 689 L349 689 L171 300 L387 300 Z " />
<glyph glyph-name="Ccedilla" unicode="&#xc7;" horiz-adv-x="720" d="M276 -210 C298.667 -215.333 320.333 -216 339 -216 C423 -216 468 -191 468 -147 C468 -103 427 -85.3333 331 -84 L383 -7 C174.948 17.006 68 157.199 68 352 C68 572.156 211.329 724 469 724 C538.333 724 612.667 713.333 682 688 L672 665 C596 691.667 524.667 699 470 699 C227.307 699 95 558.225 95 352 C95 152.026 215.26 15 451 15 C532.333 15 610.333 29.6667 669 47 L669 20 C615.667 2.66667 539.333 -10 446 -10 C434 -10 421.667 -10.3333 411 -9 L374 -65 C450 -67.6667 495 -95.3333 495 -146 C495 -203.333 435 -240 343 -240 C320.333 -240 296 -238 276 -234 L276 -210 Z " />
<glyph glyph-name="Egrave" unicode="&#xc8;" horiz-adv-x="720" >
<path fill="black" d="M623 25 L623 0 L127 0 L127 714 L623 714 L623 689 L153 689 L153 389 L597 389 L597 364 L153 364 L153 25 L623 25 Z " /><g transform="translate(-40,186)" ><path fill="black" d="M245 766 L275 766 C314.331 721.425 401.865 653.319 461 613 L461 606 L438 606 C370.345 649.299 292.591 714.053 245 759 L245 766 Z " /></g></glyph>
<glyph glyph-name="Eacute" unicode="&#xc9;" horiz-adv-x="720" >
<path fill="black" d="M623 25 L623 0 L127 0 L127 714 L623 714 L623 689 L153 689 L153 389 L597 389 L597 364 L153 364 L153 25 L623 25 Z " /><g transform="translate(-19,186)" ><path fill="black" d="M330 606 L330 613 C390.568 655.134 476.07 720.747 516 766 L546 766 L546 759 C498.023 713.688 420.561 648.191 352 606 L330 606 Z " /></g></glyph>
<glyph glyph-name="Ecircumflex" unicode="&#xca;" horiz-adv-x="720" >
<path fill="black" d="M623 25 L623 0 L127 0 L127 714 L623 714 L623 689 L153 689 L153 389 L597 389 L597 364 L153 364 L153 25 L623 25 Z " /><g transform="translate(16,186)" ><path fill="black" d="M197 606 L197 612 C244.683 651.736 313.769 722.711 346 763 L367 763 C398.522 720.971 467.656 649.342 513 612 L513 606 L491 606 C444.333 643.333 393 692.333 357 731 C321 693.667 267 642 219 606 L197 606 Z " /></g></glyph>
<glyph glyph-name="Edieresis" unicode="&#xcb;" horiz-adv-x="720" >
<g transform="translate(11,183)" ><path fill="black" d="M236 641 C210.667 641 206 656 206 676 C206 694.667 210.667 711 236 711 C266.667 711 269 693.333 269 676 C269 657.333 266.667 641 236 641 Z M483 641 C456.333 641 451 656 451 676 C451 694.667 456.333 711 483 711 C512.333 711 514 694.667 514 676 C514 657.333 512.333 641 483 641 Z " /></g><path fill="black" d="M623 25 L623 0 L127 0 L127 714 L623 714 L623 689 L153 689 L153 389 L597 389 L597 364 L153 364 L153 25 L623 25 Z " /></glyph>
<glyph glyph-name="Igrave" unicode="&#xcc;" horiz-adv-x="720" >
<path fill="black" d="M185 20 L348 23 L348 690 L185 694 L185 714 L537 714 L537 694 L374 690 L374 23 L537 20 L537 0 L185 0 L185 20 Z " /><g transform="translate(-50,186)" ><path fill="black" d="M245 766 L275 766 C314.331 721.425 401.865 653.319 461 613 L461 606 L438 606 C370.345 649.299 292.591 714.053 245 759 L245 766 Z " /></g></glyph>
<glyph glyph-name="Iacute" unicode="&#xcd;" horiz-adv-x="720" >
<path fill="black" d="M185 20 L348 23 L348 690 L185 694 L185 714 L537 714 L537 694 L374 690 L374 23 L537 20 L537 0 L185 0 L185 20 Z " /><g transform="translate(-29,186)" ><path fill="black" d="M330 606 L330 613 C390.568 655.134 476.07 720.747 516 766 L546 766 L546 759 C498.023 713.688 420.561 648.191 352 606 L330 606 Z " /></g></glyph>
<glyph glyph-name="Icircumflex" unicode="&#xce;" horiz-adv-x="720" >
<path fill="black" d="M185 20 L348 23 L348 690 L185 694 L185 714 L537 714 L537 694 L374 690 L374 23 L537 20 L537 0 L185 0 L185 20 Z " /><g transform="translate(6,186)" ><path fill="black" d="M197 606 L197 612 C244.683 651.736 313.769 722.711 346 763 L367 763 C398.522 720.971 467.656 649.342 513 612 L513 606 L491 606 C444.333 643.333 393 692.333 357 731 C321 693.667 267 642 219 606 L197 606 Z " /></g></glyph>
<glyph glyph-name="Idieresis" unicode="&#xcf;" horiz-adv-x="720" >
<g transform="translate(1,183)" ><path fill="black" d="M236 641 C210.667 641 206 656 206 676 C206 694.667 210.667 711 236 711 C266.667 711 269 693.333 269 676 C269 657.333 266.667 641 236 641 Z M483 641 C456.333 641 451 656 451 676 C451 694.667 456.333 711 483 711 C512.333 711 514 694.667 514 676 C514 657.333 512.333 641 483 641 Z " /></g><path fill="black" d="M185 20 L348 23 L348 690 L185 694 L185 714 L537 714 L537 694 L374 690 L374 23 L537 20 L537 0 L185 0 L185 20 Z " /></glyph>
<glyph glyph-name="Eth" unicode="&#xd0;" horiz-adv-x="720" d="M89 353 L-22 353 L-22 378 L89 378 L89 714 L268 714 C538.667 714 662 593.667 662 363 C662 123 530.667 0 260 0 L89 0 L89 353 Z M247 25 C511 25 634 135.667 634 361 C634 573.364 526.978 689 256 689 L115 689 L115 378 L334 378 L334 353 L115 353 L115 25 L247 25 Z " />
<glyph glyph-name="Ntilde" unicode="&#xd1;" horiz-adv-x="720" >
<path fill="black" d="M99 0 L99 714 L124 714 L595 53 L597 53 L597 188 L597 714 L624 714 L624 0 L598 0 L128 665 L126 665 C127.333 626.333 126 591 126 535 L126 0 L99 0 Z " /><g transform="translate(7,186)" ><path fill="black" d="M153 620 C159.667 685.333 202 717 266 717 C351.327 717 384.105 643 455 643 C493.183 643 531.987 658.24 540 717 L570 717 C563.333 651.667 518 619 454 619 C364.895 619 340.34 693 263 693 C229.416 693 188.322 678.541 183 620 L153 620 Z " /></g></glyph>
<glyph glyph-name="Ograve" unicode="&#xd2;" horiz-adv-x="720" >
<path fill="black" d="M363 -10 C137.407 -10 51 161.589 51 359 C51 592.333 165 724 365 724 C572.056 724 672 576.671 672 359 C672 157.225 587.182 -10 363 -10 Z M363 15 C549.667 15 645 143.333 645 358 C645 578 545.667 699 363 699 C176.281 699 77 567.152 77 358 C77 147.307 176.281 15 363 15 Z " /><g transform="translate(-50,186)" ><path fill="black" d="M245 766 L275 766 C314.331 721.425 401.865 653.319 461 613 L461 606 L438 606 C370.345 649.299 292.591 714.053 245 759 L245 766 Z " /></g></glyph>
<glyph glyph-name="Oacute" unicode="&#xd3;" horiz-adv-x="720" >
<path fill="black" d="M363 -10 C137.407 -10 51 161.589 51 359 C51 592.333 165 724 365 724 C572.056 724 672 576.671 672 359 C672 157.225 587.182 -10 363 -10 Z M363 15 C549.667 15 645 143.333 645 358 C645 578 545.667 699 363 699 C176.281 699 77 567.152 77 358 C77 147.307 176.281 15 363 15 Z " /><g transform="translate(-29,186)" ><path fill="black" d="M330 606 L330 613 C390.568 655.134 476.07 720.747 516 766 L546 766 L546 759 C498.023 713.688 420.561 648.191 352 606 L330 606 Z " /></g></glyph>
<glyph glyph-name="Ocircumflex" unicode="&#xd4;" horiz-adv-x="720" >
<path fill="black" d="M363 -10 C137.407 -10 51 161.589 51 359 C51 592.333 165 724 365 724 C572.056 724 672 576.671 672 359 C672 157.225 587.182 -10 363 -10 Z M363 15 C549.667 15 645 143.333 645 358 C645 578 545.667 699 363 699 C176.281 699 77 567.152 77 358 C77 147.307 176.281 15 363 15 Z " /><g transform="translate(6,186)" ><path fill="black" d="M197 606 L197 612 C244.683 651.736 313.769 722.711 346 763 L367 763 C398.522 720.971 467.656 649.342 513 612 L513 606 L491 606 C444.333 643.333 393 692.333 357 731 C321 693.667 267 642 219 606 L197 606 Z " /></g></glyph>
<glyph glyph-name="Otilde" unicode="&#xd5;" horiz-adv-x="720" >
<path fill="black" d="M363 -10 C137.407 -10 51 161.589 51 359 C51 592.333 165 724 365 724 C572.056 724 672 576.671 672 359 C672 157.225 587.182 -10 363 -10 Z M363 15 C549.667 15 645 143.333 645 358 C645 578 545.667 699 363 699 C176.281 699 77 567.152 77 358 C77 147.307 176.281 15 363 15 Z " /><g transform="translate(0,186)" ><path fill="black" d="M153 620 C159.667 685.333 202 717 266 717 C351.327 717 384.105 643 455 643 C493.183 643 531.987 658.24 540 717 L570 717 C563.333 651.667 518 619 454 619 C364.895 619 340.34 693 263 693 C229.416 693 188.322 678.541 183 620 L153 620 Z " /></g></glyph>
<glyph glyph-name="Odieresis" unicode="&#xd6;" horiz-adv-x="720" >
<g transform="translate(1,183)" ><path fill="black" d="M236 641 C210.667 641 206 656 206 676 C206 694.667 210.667 711 236 711 C266.667 711 269 693.333 269 676 C269 657.333 266.667 641 236 641 Z M483 641 C456.333 641 451 656 451 676 C451 694.667 456.333 711 483 711 C512.333 711 514 694.667 514 676 C514 657.333 512.333 641 483 641 Z " /></g><path fill="black" d="M363 -10 C137.407 -10 51 161.589 51 359 C51 592.333 165 724 365 724 C572.056 724 672 576.671 672 359 C672 157.225 587.182 -10 363 -10 Z M363 15 C549.667 15 645 143.333 645 358 C645 578 545.667 699 363 699 C176.281 699 77 567.152 77 358 C77 147.307 176.281 15 363 15 Z " /></glyph>
<glyph glyph-name="multiply" unicode="&#xd7;" horiz-adv-x="720" d="M82 163 L339 353 L82 543 L101 560 L358 370 L614 560 L633 544 L375 353 L632 163 L614 146 L358 336 L100 146 L82 163 Z " />
<glyph glyph-name="Oslash" unicode="&#xd8;" horiz-adv-x="720" d="M123 73 C56.3333 142.333 29 245.667 29 359 C29 592.333 143 724 343 724 C435 724 504.333 695.667 555 645 L625 737 L648 724 L573 625 C625 561 650 469.667 650 359 C650 157.225 565.182 -10 341 -10 C255.667 -10 191 13.6667 143 55 L81 -28 L57 -15 L123 73 Z M539 623 C491.667 673.667 425.667 699 341 699 C154.281 699 55 567.152 55 358 C55 244.667 83 154 139 94 L539 623 Z M159 75 C206.333 35 267 15 341 15 C527.667 15 623 143.333 623 358 C623 462.667 600.667 544 556 602 L159 75 Z " />
<glyph glyph-name="Ugrave" unicode="&#xd9;" horiz-adv-x="720" >
<path fill="black" d="M99 714 L125 714 L125 253 C125 93 198 15 358 15 C508.667 15 598 88 598 252 L598 714 L624 714 L624 246 C624 70.9697 520.468 -10 356 -10 C181.333 -10 99 78.3333 99 249 L99 714 Z " /><g transform="translate(-50,186)" ><path fill="black" d="M245 766 L275 766 C314.331 721.425 401.865 653.319 461 613 L461 606 L438 606 C370.345 649.299 292.591 714.053 245 759 L245 766 Z " /></g></glyph>
<glyph glyph-name="Uacute" unicode="&#xda;" horiz-adv-x="720" >
<path fill="black" d="M99 714 L125 714 L125 253 C125 93 198 15 358 15 C508.667 15 598 88 598 252 L598 714 L624 714 L624 246 C624 70.9697 520.468 -10 356 -10 C181.333 -10 99 78.3333 99 249 L99 714 Z " /><g transform="translate(-29,186)" ><path fill="black" d="M330 606 L330 613 C390.568 655.134 476.07 720.747 516 766 L546 766 L546 759 C498.023 713.688 420.561 648.191 352 606 L330 606 Z " /></g></glyph>
<glyph glyph-name="Ucircumflex" unicode="&#xdb;" horiz-adv-x="720" >
<path fill="black" d="M99 714 L125 714 L125 253 C125 93 198 15 358 15 C508.667 15 598 88 598 252 L598 714 L624 714 L624 246 C624 70.9697 520.468 -10 356 -10 C181.333 -10 99 78.3333 99 249 L99 714 Z " /><g transform="translate(6,186)" ><path fill="black" d="M197 606 L197 612 C244.683 651.736 313.769 722.711 346 763 L367 763 C398.522 720.971 467.656 649.342 513 612 L513 606 L491 606 C444.333 643.333 393 692.333 357 731 C321 693.667 267 642 219 606 L197 606 Z " /></g></glyph>
<glyph glyph-name="Udieresis" unicode="&#xdc;" horiz-adv-x="720" >
<g transform="translate(1,183)" ><path fill="black" d="M236 641 C210.667 641 206 656 206 676 C206 694.667 210.667 711 236 711 C266.667 711 269 693.333 269 676 C269 657.333 266.667 641 236 641 Z M483 641 C456.333 641 451 656 451 676 C451 694.667 456.333 711 483 711 C512.333 711 514 694.667 514 676 C514 657.333 512.333 641 483 641 Z " /></g><path fill="black" d="M99 714 L125 714 L125 253 C125 93 198 15 358 15 C508.667 15 598 88 598 252 L598 714 L624 714 L624 246 C624 70.9697 520.468 -10 356 -10 C181.333 -10 99 78.3333 99 249 L99 714 Z " /></glyph>
<glyph glyph-name="Yacute" unicode="&#xdd;" horiz-adv-x="720" >
<path fill="black" d="M350 0 L350 272 L42 714 L70 714 L363 297 L650 714 L680 714 L376 273 L376 0 L350 0 Z " /><g transform="translate(-29,186)" ><path fill="black" d="M330 606 L330 613 C390.568 655.134 476.07 720.747 516 766 L546 766 L546 759 C498.023 713.688 420.561 648.191 352 606 L330 606 Z " /></g></glyph>
<glyph glyph-name="Thorn" unicode="&#xde;" horiz-adv-x="720" d="M127 0 L127 714 L153 714 L153 575 L363 575 C561.667 575 668 517.667 668 375 C668 228.359 538.723 166 337 166 L153 166 L153 0 L127 0 Z M153 191 L331 191 C519.442 191 640 239.056 640 376 C640 501.333 551.667 550 353 550 L153 550 L153 191 Z " />
<glyph glyph-name="germandbls" unicode="&#xdf;" horiz-adv-x="720" d="M126 565 C126 694.333 208 765 368 765 C496 765 561 714 561 638 C561 513.648 387 524.364 387 421 C387 366.246 435.184 341.453 508 301 C579.955 261.025 643 221.903 643 134 C643 56.7706 576.996 -10 432 -10 C352 -10 308 1.33333 264 16 L264 44 C320 25.3333 369.333 15 432 15 C552 15 615 62 615 134 C615 209.193 559.944 244.116 495 282 C424.058 324.04 358 353.922 358 421 C358 538.44 534 525.749 534 638 C534 700.667 478.667 740 368 740 C217.333 740 152 676.333 152 559 L152 0 L126 0 L126 565 Z " />
<glyph glyph-name="agrave" unicode="&#xe0;" horiz-adv-x="720" >
<path fill="black" d="M572 301 L572 345 C572 466.333 509.333 512 368 512 C306.667 512 244.667 502 170 474 L160 498 C228 523.333 297.333 537 368 537 C524 537 598 481.667 598 351 L598 0 L576 0 L572 102 L569 102 C535.667 40.6667 449 -10 305 -10 C165 -10 96 45.3333 96 128 C96 237.383 224.407 286.003 419 294 L572 301 Z M572 276 L422 271 C247.663 262.954 124 227.594 124 128 C124 56 185 15 305 15 C483.589 15 572 98.9524 572 220 L572 276 Z " /><g transform="translate(-44,0)" ><path fill="black" d="M245 766 L275 766 C314.331 721.425 401.865 653.319 461 613 L461 606 L438 606 C370.345 649.299 292.591 714.053 245 759 L245 766 Z " /></g></glyph>
<glyph glyph-name="aacute" unicode="&#xe1;" horiz-adv-x="720" >
<path fill="black" d="M572 301 L572 345 C572 466.333 509.333 512 368 512 C306.667 512 244.667 502 170 474 L160 498 C228 523.333 297.333 537 368 537 C524 537 598 481.667 598 351 L598 0 L576 0 L572 102 L569 102 C535.667 40.6667 449 -10 305 -10 C165 -10 96 45.3333 96 128 C96 237.383 224.407 286.003 419 294 L572 301 Z M572 276 L422 271 C247.663 262.954 124 227.594 124 128 C124 56 185 15 305 15 C483.589 15 572 98.9524 572 220 L572 276 Z " /><g transform="translate(-23,0)" ><path fill="black" d="M330 606 L330 613 C390.568 655.134 476.07 720.747 516 766 L546 766 L546 759 C498.023 713.688 420.561 648.191 352 606 L330 606 Z " /></g></glyph>
<glyph glyph-name="acircumflex" unicode="&#xe2;" horiz-adv-x="720" >
<path fill="black" d="M572 301 L572 345 C572 466.333 509.333 512 368 512 C306.667 512 244.667 502 170 474 L160 498 C228 523.333 297.333 537 368 537 C524 537 598 481.667 598 351 L598 0 L576 0 L572 102 L569 102 C535.667 40.6667 449 -10 305 -10 C165 -10 96 45.3333 96 128 C96 237.383 224.407 286.003 419 294 L572 301 Z M572 276 L422 271 C247.663 262.954 124 227.594 124 128 C124 56 185 15 305 15 C483.589 15 572 98.9524 572 220 L572 276 Z " /><g transform="translate(12,0)" ><path fill="black" d="M197 606 L197 612 C244.683 651.736 313.769 722.711 346 763 L367 763 C398.522 720.971 467.656 649.342 513 612 L513 606 L491 606 C444.333 643.333 393 692.333 357 731 C321 693.667 267 642 219 606 L197 606 Z " /></g></glyph>
<glyph glyph-name="atilde" unicode="&#xe3;" horiz-adv-x="720" >
<path fill="black" d="M572 301 L572 345 C572 466.333 509.333 512 368 512 C306.667 512 244.667 502 170 474 L160 498 C228 523.333 297.333 537 368 537 C524 537 598 481.667 598 351 L598 0 L576 0 L572 102 L569 102 C535.667 40.6667 449 -10 305 -10 C165 -10 96 45.3333 96 128 C96 237.383 224.407 286.003 419 294 L572 301 Z M572 276 L422 271 C247.663 262.954 124 227.594 124 128 C124 56 185 15 305 15 C483.589 15 572 98.9524 572 220 L572 276 Z " /><g transform="translate(6,0)" ><path fill="black" d="M153 620 C159.667 685.333 202 717 266 717 C351.327 717 384.105 643 455 643 C493.183 643 531.987 658.24 540 717 L570 717 C563.333 651.667 518 619 454 619 C364.895 619 340.34 693 263 693 C229.416 693 188.322 678.541 183 620 L153 620 Z " /></g></glyph>
<glyph glyph-name="adieresis" unicode="&#xe4;" horiz-adv-x="720" >
<g transform="translate(7,-3)" ><path fill="black" d="M236 641 C210.667 641 206 656 206 676 C206 694.667 210.667 711 236 711 C266.667 711 269 693.333 269 676 C269 657.333 266.667 641 236 641 Z M483 641 C456.333 641 451 656 451 676 C451 694.667 456.333 711 483 711 C512.333 711 514 694.667 514 676 C514 657.333 512.333 641 483 641 Z " /></g><path fill="black" d="M572 301 L572 345 C572 466.333 509.333 512 368 512 C306.667 512 244.667 502 170 474 L160 498 C228 523.333 297.333 537 368 537 C524 537 598 481.667 598 351 L598 0 L576 0 L572 102 L569 102 C535.667 40.6667 449 -10 305 -10 C165 -10 96 45.3333 96 128 C96 237.383 224.407 286.003 419 294 L572 301 Z M572 276 L422 271 C247.663 262.954 124 227.594 124 128 C124 56 185 15 305 15 C483.589 15 572 98.9524 572 220 L572 276 Z " /></glyph>
<glyph glyph-name="aring" unicode="&#xe5;" horiz-adv-x="720" >
<path fill="black" d="M572 301 L572 345 C572 466.333 509.333 512 368 512 C306.667 512 244.667 502 170 474 L160 498 C228 523.333 297.333 537 368 537 C524 537 598 481.667 598 351 L598 0 L576 0 L572 102 L569 102 C535.667 40.6667 449 -10 305 -10 C165 -10 96 45.3333 96 128 C96 237.383 224.407 286.003 419 294 L572 301 Z M572 276 L422 271 C247.663 262.954 124 227.594 124 128 C124 56 185 15 305 15 C483.589 15 572 98.9524 572 220 L572 276 Z " /><g transform="translate(6,0)" ><path fill="black" d="M231 708 C231 769.333 288.026 808 360 808 C432.892 808 491 766.723 491 709 C491 650.255 432.844 612 361 612 C294.281 612 231 646.563 231 708 Z M258 709 C258 665 299.667 634 361 634 C422.333 634 463 666 463 710 C463 752.667 422.333 786 361 786 C297 786 258 753 258 709 Z " /></g></glyph>
<glyph glyph-name="ae" unicode="&#xe6;" horiz-adv-x="720" d="M340 296 L340 360 C341.333 466.667 290 512 198 512 C158 512 112.333 503.333 59 478 L49 502 C94.3333 523.333 143 537 199 537 C300.333 537 358.333 491 365 395 C383.667 480.333 439.333 538 534 538 C652.667 538 698 447.667 698 297 L698 270 L369 270 C369 108.667 426.667 15 556 15 C586.667 15 619 20.6667 675 50 L675 22 C632.333 -0.666667 595.333 -10 554 -10 C433.86 -10 384.25 52.7778 360 139 C345.333 53.6667 290 -10 178 -10 C68.6667 -10 21 48 21 128 C21 238.359 117.277 281.261 273 292 L340 296 Z M340 271 L269 268 C122.333 260 51 216.333 51 127 C51 61.6667 89.6667 15 175 15 C291.338 15 340 105.723 340 200 L340 271 Z M534 513 C434 513 378 428.333 370 295 L672 295 C672 436.333 630 513 534 513 Z " />
<glyph glyph-name="ccedilla" unicode="&#xe7;" horiz-adv-x="720" d="M263 -210 C285.667 -215.333 307.333 -216 326 -216 C410 -216 455 -191 455 -147 C455 -103 414 -85.3333 318 -84 L369 -7 C179.763 11.6572 99 119.068 99 257 C99 426.697 231.056 537 456 537 C516 537 570.333 530 617 514 L612 489 C562.667 506.333 501 512 453 512 C252.974 512 126 415.281 126 258 C126 123.671 214.152 15 429 15 C491.667 15 562.667 25 612 41 L612 15 C570.667 0.333333 503.667 -10 429 -10 C418.333 -10 408.667 -10.3333 398 -9 L361 -65 C437 -67.6667 482 -95.3333 482 -146 C482 -203.333 422 -240 330 -240 C307.333 -240 283 -238 263 -234 L263 -210 Z " />
<glyph glyph-name="egrave" unicode="&#xe8;" horiz-adv-x="720" >
<path fill="black" d="M627 23 C560.333 0.333333 483 -10 407 -10 C167.13 -10 78 102.978 78 256 C78 412.338 171.182 537 383 537 C572.359 537 646 429.048 646 292 L646 267 L105 267 C105 106.134 190.844 15 407 15 C491 15 555 27 627 51 L627 23 Z M383 512 C230.909 512 123.119 437.068 107 292 L619 292 C619 422.667 545.667 512 383 512 Z " /><g transform="translate(-44,0)" ><path fill="black" d="M245 766 L275 766 C314.331 721.425 401.865 653.319 461 613 L461 606 L438 606 C370.345 649.299 292.591 714.053 245 759 L245 766 Z " /></g></glyph>
<glyph glyph-name="eacute" unicode="&#xe9;" horiz-adv-x="720" >
<path fill="black" d="M627 23 C560.333 0.333333 483 -10 407 -10 C167.13 -10 78 102.978 78 256 C78 412.338 171.182 537 383 537 C572.359 537 646 429.048 646 292 L646 267 L105 267 C105 106.134 190.844 15 407 15 C491 15 555 27 627 51 L627 23 Z M383 512 C230.909 512 123.119 437.068 107 292 L619 292 C619 422.667 545.667 512 383 512 Z " /><g transform="translate(-23,0)" ><path fill="black" d="M330 606 L330 613 C390.568 655.134 476.07 720.747 516 766 L546 766 L546 759 C498.023 713.688 420.561 648.191 352 606 L330 606 Z " /></g></glyph>
<glyph glyph-name="ecircumflex" unicode="&#xea;" horiz-adv-x="720" >
<path fill="black" d="M627 23 C560.333 0.333333 483 -10 407 -10 C167.13 -10 78 102.978 78 256 C78 412.338 171.182 537 383 537 C572.359 537 646 429.048 646 292 L646 267 L105 267 C105 106.134 190.844 15 407 15 C491 15 555 27 627 51 L627 23 Z M383 512 C230.909 512 123.119 437.068 107 292 L619 292 C619 422.667 545.667 512 383 512 Z " /><g transform="translate(12,0)" ><path fill="black" d="M197 606 L197 612 C244.683 651.736 313.769 722.711 346 763 L367 763 C398.522 720.971 467.656 649.342 513 612 L513 606 L491 606 C444.333 643.333 393 692.333 357 731 C321 693.667 267 642 219 606 L197 606 Z " /></g></glyph>
<glyph glyph-name="edieresis" unicode="&#xeb;" horiz-adv-x="720" >
<g transform="translate(7,-3)" ><path fill="black" d="M236 641 C210.667 641 206 656 206 676 C206 694.667 210.667 711 236 711 C266.667 711 269 693.333 269 676 C269 657.333 266.667 641 236 641 Z M483 641 C456.333 641 451 656 451 676 C451 694.667 456.333 711 483 711 C512.333 711 514 694.667 514 676 C514 657.333 512.333 641 483 641 Z " /></g><path fill="black" d="M627 23 C560.333 0.333333 483 -10 407 -10 C167.13 -10 78 102.978 78 256 C78 412.338 171.182 537 383 537 C572.359 537 646 429.048 646 292 L646 267 L105 267 C105 106.134 190.844 15 407 15 C491 15 555 27 627 51 L627 23 Z M383 512 C230.909 512 123.119 437.068 107 292 L619 292 C619 422.667 545.667 512 383 512 Z " /></glyph>
<glyph glyph-name="igrave" unicode="&#xec;" horiz-adv-x="722" >
<path fill="black" d="M108 21 L373 25 L373 503 L132 507 L132 528 L399 528 L399 25 L651 21 L651 0 L108 0 L108 21 Z " /><g transform="translate(-50,0)" ><path fill="black" d="M245 766 L275 766 C314.331 721.425 401.865 653.319 461 613 L461 606 L438 606 C370.345 649.299 292.591 714.053 245 759 L245 766 Z " /></g></glyph>
<glyph glyph-name="iacute" unicode="&#xed;" horiz-adv-x="722" >
<path fill="black" d="M108 21 L373 25 L373 503 L132 507 L132 528 L399 528 L399 25 L651 21 L651 0 L108 0 L108 21 Z " /><g transform="translate(-29,0)" ><path fill="black" d="M330 606 L330 613 C390.568 655.134 476.07 720.747 516 766 L546 766 L546 759 C498.023 713.688 420.561 648.191 352 606 L330 606 Z " /></g></glyph>
<glyph glyph-name="icircumflex" unicode="&#xee;" horiz-adv-x="722" >
<path fill="black" d="M108 21 L373 25 L373 503 L132 507 L132 528 L399 528 L399 25 L651 21 L651 0 L108 0 L108 21 Z " /><g transform="translate(6,0)" ><path fill="black" d="M197 606 L197 612 C244.683 651.736 313.769 722.711 346 763 L367 763 C398.522 720.971 467.656 649.342 513 612 L513 606 L491 606 C444.333 643.333 393 692.333 357 731 C321 693.667 267 642 219 606 L197 606 Z " /></g></glyph>
<glyph glyph-name="idieresis" unicode="&#xef;" horiz-adv-x="722" >
<g transform="translate(1,-3)" ><path fill="black" d="M236 641 C210.667 641 206 656 206 676 C206 694.667 210.667 711 236 711 C266.667 711 269 693.333 269 676 C269 657.333 266.667 641 236 641 Z M483 641 C456.333 641 451 656 451 676 C451 694.667 456.333 711 483 711 C512.333 711 514 694.667 514 676 C514 657.333 512.333 641 483 641 Z " /></g><path fill="black" d="M108 21 L373 25 L373 503 L132 507 L132 528 L399 528 L399 25 L651 21 L651 0 L108 0 L108 21 Z " /></glyph>
<glyph glyph-name="eth" unicode="&#xf0;" horiz-adv-x="720" d="M231 604 L387 676 C347 700 302 720.333 252 737 L266 757 C320.667 738.333 369.333 715.333 412 688 L553 753 L567 732 L436 672 C592.927 560.29 652 403.666 652 266 C652 91.3333 555.667 -10 361 -10 C175.277 -10 70 86.0563 70 223 C70 371.312 197.749 465 372 465 C489.333 465 566.333 427.667 609 381 L611 381 C583 494.333 515 589.333 411 660 L245 584 L231 604 Z M97 224 C97 90.5887 209.203 15 356 15 C520.338 15 625 108.537 625 250 C625 345.082 557.364 440 377 440 C215.407 440 97 359.134 97 224 Z " />
<glyph glyph-name="ntilde" unicode="&#xf1;" horiz-adv-x="720" >
<path fill="black" d="M115 0 L115 528 L137 528 L139 417 L142 417 C168.309 477.511 238.733 537 384 537 C529.333 537 614 480 614 356 L614 0 L588 0 L588 348 C588 464 512.667 512 386 512 C242.026 512 141 445.9 141 303 L141 0 L115 0 Z " /><g transform="translate(9,0)" ><path fill="black" d="M153 620 C159.667 685.333 202 717 266 717 C351.327 717 384.105 643 455 643 C493.183 643 531.987 658.24 540 717 L570 717 C563.333 651.667 518 619 454 619 C364.895 619 340.34 693 263 693 C229.416 693 188.322 678.541 183 620 L153 620 Z " /></g></glyph>
<glyph glyph-name="ograve" unicode="&#xf2;" horiz-adv-x="720" >
<path fill="black" d="M70 264 C70 434.667 176 537 368 537 C575.134 537 652 418.026 652 266 C652 104.926 563.693 -10 361 -10 C160.87 -10 70 103.844 70 264 Z M97 264 C97 114.589 182.437 15 361 15 C543.926 15 625 115.719 625 265 C625 403.589 557.307 512 368 512 C196 512 97 421.333 97 264 Z " /><g transform="translate(-50,0)" ><path fill="black" d="M245 766 L275 766 C314.331 721.425 401.865 653.319 461 613 L461 606 L438 606 C370.345 649.299 292.591 714.053 245 759 L245 766 Z " /></g></glyph>
<glyph glyph-name="oacute" unicode="&#xf3;" horiz-adv-x="720" >
<path fill="black" d="M70 264 C70 434.667 176 537 368 537 C575.134 537 652 418.026 652 266 C652 104.926 563.693 -10 361 -10 C160.87 -10 70 103.844 70 264 Z M97 264 C97 114.589 182.437 15 361 15 C543.926 15 625 115.719 625 265 C625 403.589 557.307 512 368 512 C196 512 97 421.333 97 264 Z " /><g transform="translate(-29,0)" ><path fill="black" d="M330 606 L330 613 C390.568 655.134 476.07 720.747 516 766 L546 766 L546 759 C498.023 713.688 420.561 648.191 352 606 L330 606 Z " /></g></glyph>
<glyph glyph-name="ocircumflex" unicode="&#xf4;" horiz-adv-x="720" >
<path fill="black" d="M70 264 C70 434.667 176 537 368 537 C575.134 537 652 418.026 652 266 C652 104.926 563.693 -10 361 -10 C160.87 -10 70 103.844 70 264 Z M97 264 C97 114.589 182.437 15 361 15 C543.926 15 625 115.719 625 265 C625 403.589 557.307 512 368 512 C196 512 97 421.333 97 264 Z " /><g transform="translate(6,0)" ><path fill="black" d="M197 606 L197 612 C244.683 651.736 313.769 722.711 346 763 L367 763 C398.522 720.971 467.656 649.342 513 612 L513 606 L491 606 C444.333 643.333 393 692.333 357 731 C321 693.667 267 642 219 606 L197 606 Z " /></g></glyph>
<glyph glyph-name="otilde" unicode="&#xf5;" horiz-adv-x="720" >
<path fill="black" d="M70 264 C70 434.667 176 537 368 537 C575.134 537 652 418.026 652 266 C652 104.926 563.693 -10 361 -10 C160.87 -10 70 103.844 70 264 Z M97 264 C97 114.589 182.437 15 361 15 C543.926 15 625 115.719 625 265 C625 403.589 557.307 512 368 512 C196 512 97 421.333 97 264 Z " /><path fill="black" d="M153 620 C159.667 685.333 202 717 266 717 C351.327 717 384.105 643 455 643 C493.183 643 531.987 658.24 540 717 L570 717 C563.333 651.667 518 619 454 619 C364.895 619 340.34 693 263 693 C229.416 693 188.322 678.541 183 620 L153 620 Z " /></glyph>
<glyph glyph-name="odieresis" unicode="&#xf6;" horiz-adv-x="720" >
<g transform="translate(1,-3)" ><path fill="black" d="M236 641 C210.667 641 206 656 206 676 C206 694.667 210.667 711 236 711 C266.667 711 269 693.333 269 676 C269 657.333 266.667 641 236 641 Z M483 641 C456.333 641 451 656 451 676 C451 694.667 456.333 711 483 711 C512.333 711 514 694.667 514 676 C514 657.333 512.333 641 483 641 Z " /></g><path fill="black" d="M70 264 C70 434.667 176 537 368 537 C575.134 537 652 418.026 652 266 C652 104.926 563.693 -10 361 -10 C160.87 -10 70 103.844 70 264 Z M97 264 C97 114.589 182.437 15 361 15 C543.926 15 625 115.719 625 265 C625 403.589 557.307 512 368 512 C196 512 97 421.333 97 264 Z " /></glyph>
<glyph glyph-name="divide" unicode="&#xf7;" horiz-adv-x="720" d="M64 365 L659 365 L659 341 L64 341 L64 365 Z M360 143 C334.667 143 332 156.667 332 174 C332 191.333 334.667 206 360 206 C390.667 206 391 192.667 391 174 C391 156.667 390.667 143 360 143 Z M360 499 C334.667 499 332 512.667 332 530 C332 547.333 334.667 562 360 562 C390.667 562 391 548.667 391 530 C391 512.667 390.667 499 360 499 Z " />
<glyph glyph-name="oslash" unicode="&#xf8;" horiz-adv-x="720" d="M133 53 C74.3333 102.333 48 176 48 264 C48 434.667 154 537 346 537 C444.667 537 512.667 510 558 466 L654 559 L674 544 L575 448 C613.667 400 630 338 630 266 C630 104.926 541.693 -10 339 -10 C262.333 -10 200.333 6 153 38 L79 -34 L59 -19 L133 53 Z M539 447 C497.667 488.333 436.667 512 346 512 C174 512 75 421.333 75 264 C75 181.333 100 114.667 152 72 L539 447 Z M173 57 C215.667 29 271 15 339 15 C521.926 15 603 115.719 603 265 C603 329 589.667 386.333 555 429 L173 57 Z " />
<glyph glyph-name="ugrave" unicode="&#xf9;" horiz-adv-x="720" >
<path fill="black" d="M108 528 L134 528 L134 193 C134 67.6667 207.333 15 338 15 C478.494 15 581 82.1818 581 226 L581 528 L607 528 L607 0 L586 0 L583 112 L581 112 C554.368 50.7469 483.891 -10 339 -10 C185.667 -10 108 57.3333 108 188 L108 528 Z " /><g transform="translate(-50,0)" ><path fill="black" d="M245 766 L275 766 C314.331 721.425 401.865 653.319 461 613 L461 606 L438 606 C370.345 649.299 292.591 714.053 245 759 L245 766 Z " /></g></glyph>
<glyph glyph-name="uacute" unicode="&#xfa;" horiz-adv-x="720" >
<path fill="black" d="M108 528 L134 528 L134 193 C134 67.6667 207.333 15 338 15 C478.494 15 581 82.1818 581 226 L581 528 L607 528 L607 0 L586 0 L583 112 L581 112 C554.368 50.7469 483.891 -10 339 -10 C185.667 -10 108 57.3333 108 188 L108 528 Z " /><g transform="translate(-29,0)" ><path fill="black" d="M330 606 L330 613 C390.568 655.134 476.07 720.747 516 766 L546 766 L546 759 C498.023 713.688 420.561 648.191 352 606 L330 606 Z " /></g></glyph>
<glyph glyph-name="ucircumflex" unicode="&#xfb;" horiz-adv-x="720" >
<path fill="black" d="M108 528 L134 528 L134 193 C134 67.6667 207.333 15 338 15 C478.494 15 581 82.1818 581 226 L581 528 L607 528 L607 0 L586 0 L583 112 L581 112 C554.368 50.7469 483.891 -10 339 -10 C185.667 -10 108 57.3333 108 188 L108 528 Z " /><g transform="translate(6,0)" ><path fill="black" d="M197 606 L197 612 C244.683 651.736 313.769 722.711 346 763 L367 763 C398.522 720.971 467.656 649.342 513 612 L513 606 L491 606 C444.333 643.333 393 692.333 357 731 C321 693.667 267 642 219 606 L197 606 Z " /></g></glyph>
<glyph glyph-name="udieresis" unicode="&#xfc;" horiz-adv-x="720" >
<g transform="translate(1,-3)" ><path fill="black" d="M236 641 C210.667 641 206 656 206 676 C206 694.667 210.667 711 236 711 C266.667 711 269 693.333 269 676 C269 657.333 266.667 641 236 641 Z M483 641 C456.333 641 451 656 451 676 C451 694.667 456.333 711 483 711 C512.333 711 514 694.667 514 676 C514 657.333 512.333 641 483 641 Z " /></g><path fill="black" d="M108 528 L134 528 L134 193 C134 67.6667 207.333 15 338 15 C478.494 15 581 82.1818 581 226 L581 528 L607 528 L607 0 L586 0 L583 112 L581 112 C554.368 50.7469 483.891 -10 339 -10 C185.667 -10 108 57.3333 108 188 L108 528 Z " /></glyph>
<glyph glyph-name="yacute" unicode="&#xfd;" horiz-adv-x="720" >
<path fill="black" d="M87 -210 C112.333 -216.667 130 -221 154 -221 C218 -221 253.667 -190.667 295 -108 L350 7 L99 528 L127 528 L306 161 C335.297 102.406 346.241 77.7705 362 41 L365 41 C381 81 395.667 106.333 425 165 L604 528 L632 528 L317 -117 C274.333 -205 233 -246 153 -246 C131.667 -246 109.667 -242.667 87 -236 L87 -210 Z " /><g transform="translate(-30,0)" ><path fill="black" d="M330 606 L330 613 C390.568 655.134 476.07 720.747 516 766 L546 766 L546 759 C498.023 713.688 420.561 648.191 352 606 L330 606 Z " /></g></glyph>
<glyph glyph-name="thorn" unicode="&#xfe;" horiz-adv-x="720" d="M115 -240 L115 714 L141 714 L141 482 C141 455.333 139.667 426.667 137 400 L140 400 C167.053 470.337 248.011 537 395 537 C565.667 537 652 445.667 652 271 C652 87 553.667 -10 379 -10 C241.773 -10 168.07 49.3239 141 117 L139 117 C141.667 75.6667 141 32 141 -8 L141 -240 L115 -240 Z M141 257 C141 94.2814 239.052 15 383 15 C533.667 15 626 97.6667 626 271 C626 431.667 549.667 512 397 512 C233 512 141 421 141 269 L141 257 Z " />
<glyph glyph-name="ydieresis" unicode="&#xff;" horiz-adv-x="720" >
<g transform="translate(0,-3)" ><path fill="black" d="M236 641 C210.667 641 206 656 206 676 C206 694.667 210.667 711 236 711 C266.667 711 269 693.333 269 676 C269 657.333 266.667 641 236 641 Z M483 641 C456.333 641 451 656 451 676 C451 694.667 456.333 711 483 711 C512.333 711 514 694.667 514 676 C514 657.333 512.333 641 483 641 Z " /></g><path fill="black" d="M87 -210 C112.333 -216.667 130 -221 154 -221 C218 -221 253.667 -190.667 295 -108 L350 7 L99 528 L127 528 L306 161 C335.297 102.406 346.241 77.7705 362 41 L365 41 C381 81 395.667 106.333 425 165 L604 528 L632 528 L317 -117 C274.333 -205 233 -246 153 -246 C131.667 -246 109.667 -242.667 87 -236 L87 -210 Z " /></glyph>
<glyph glyph-name="Amacron" unicode="&#x100;" horiz-adv-x="720" >
<path fill="black" d="M349 716 L375 716 L718 0 L689 0 L559 272 L164 272 L33 0 L4 0 L349 716 Z M176 297 L547 297 L404 595 L361 683 C348.333 653 334.667 623.667 320 595 L176 297 Z " /><g transform="translate(1,186)" ><path fill="black" d="M198 653 L522 653 L522 629 L198 629 L198 653 Z " /></g></glyph>
<glyph glyph-name="amacron" unicode="&#x101;" horiz-adv-x="720" >
<path fill="black" d="M572 301 L572 345 C572 466.333 509.333 512 368 512 C306.667 512 244.667 502 170 474 L160 498 C228 523.333 297.333 537 368 537 C524 537 598 481.667 598 351 L598 0 L576 0 L572 102 L569 102 C535.667 40.6667 449 -10 305 -10 C165 -10 96 45.3333 96 128 C96 237.383 224.407 286.003 419 294 L572 301 Z M572 276 L422 271 C247.663 262.954 124 227.594 124 128 C124 56 185 15 305 15 C483.589 15 572 98.9524 572 220 L572 276 Z " /><g transform="translate(7,0)" ><path fill="black" d="M198 653 L522 653 L522 629 L198 629 L198 653 Z " /></g></glyph>
<glyph glyph-name="Abreve" unicode="&#x102;" horiz-adv-x="720" >
<path fill="black" d="M349 716 L375 716 L718 0 L689 0 L559 272 L164 272 L33 0 L4 0 L349 716 Z M176 297 L547 297 L404 595 L361 683 C348.333 653 334.667 623.667 320 595 L176 297 Z " /><g transform="translate(1,193)" ><path fill="black" d="M234 717 C240.667 665 282.333 630 361 630 C439.667 630 479.333 665 486 717 L514 717 C503.333 645 446.667 607 360 607 C276 607 212.667 645 206 717 L234 717 Z " /></g></glyph>
<glyph glyph-name="abreve" unicode="&#x103;" horiz-adv-x="720" >
<path fill="black" d="M572 301 L572 345 C572 466.333 509.333 512 368 512 C306.667 512 244.667 502 170 474 L160 498 C228 523.333 297.333 537 368 537 C524 537 598 481.667 598 351 L598 0 L576 0 L572 102 L569 102 C535.667 40.6667 449 -10 305 -10 C165 -10 96 45.3333 96 128 C96 237.383 224.407 286.003 419 294 L572 301 Z M572 276 L422 271 C247.663 262.954 124 227.594 124 128 C124 56 185 15 305 15 C483.589 15 572 98.9524 572 220 L572 276 Z " /><g transform="translate(7,7)" ><path fill="black" d="M234 717 C240.667 665 282.333 630 361 630 C439.667 630 479.333 665 486 717 L514 717 C503.333 645 446.667 607 360 607 C276 607 212.667 645 206 717 L234 717 Z " /></g></glyph>
<glyph glyph-name="Aogonek" unicode="&#x104;" horiz-adv-x="720" d="M349 716 L375 716 L718 0 L715 0 C653.502 -37.4336 593 -82.2262 593 -132 C593 -172 618.333 -192 669 -192 C694.333 -192 717.667 -188.667 731 -186 L731 -209 C717.667 -213 695.667 -217 669 -217 C610.333 -217 564 -190.667 564 -136 C564 -89.3333 598 -43.3333 686 6 L559 272 L164 272 L33 0 L4 0 L349 716 Z M176 297 L547 297 L404 595 L361 683 C348.333 653 334.667 623.667 320 595 L176 297 Z " />
<glyph glyph-name="aogonek" unicode="&#x105;" horiz-adv-x="720" d="M593 -209 C579.667 -213 557.667 -217 531 -217 C472.333 -217 426 -190.667 426 -136 C426 -88 462 -41.6667 554 9 L550 102 L547 102 C513.667 40.6667 427 -10 283 -10 C143 -10 74 45.3333 74 128 C74 237.383 202.407 286.003 397 294 L550 301 L550 345 C550 466.333 487.333 512 346 512 C284.667 512 222.667 502 148 474 L138 498 C206 523.333 275.333 537 346 537 C502 537 576 481.667 576 351 L576 1 L577 0 C515.502 -37.4336 455 -82.2262 455 -132 C455 -172 480.333 -192 531 -192 C556.333 -192 579.667 -188.667 593 -186 L593 -209 Z M550 276 L400 271 C225.663 262.954 102 227.594 102 128 C102 56 163 15 283 15 C461.589 15 550 98.9524 550 220 L550 276 Z " />
<glyph glyph-name="Cacute" unicode="&#x106;" horiz-adv-x="720" >
<path fill="black" d="M669 20 C615.667 2.66667 539.333 -10 446 -10 C196.355 -10 68 138.719 68 352 C68 572.156 211.329 724 469 724 C538.333 724 612.667 713.333 682 688 L672 665 C596 691.667 524.667 699 470 699 C227.307 699 95 558.225 95 352 C95 152.026 215.26 15 451 15 C532.333 15 610.333 29.6667 669 47 L669 20 Z " /><g transform="translate(50,186)" ><path fill="black" d="M330 606 L330 613 C390.568 655.134 476.07 720.747 516 766 L546 766 L546 759 C498.023 713.688 420.561 648.191 352 606 L330 606 Z " /></g></glyph>
<glyph glyph-name="cacute" unicode="&#x107;" horiz-adv-x="720" >
<path fill="black" d="M612 15 C570.667 0.333333 503.667 -10 429 -10 C196.948 -10 99 106.048 99 257 C99 426.697 231.056 537 456 537 C516 537 570.333 530 617 514 L612 489 C562.667 506.333 501 512 453 512 C252.974 512 126 415.281 126 258 C126 123.671 214.152 15 429 15 C491.667 15 562.667 25 612 41 L612 15 Z " /><g transform="translate(13,0)" ><path fill="black" d="M330 606 L330 613 C390.568 655.134 476.07 720.747 516 766 L546 766 L546 759 C498.023 713.688 420.561 648.191 352 606 L330 606 Z " /></g></glyph>
<glyph glyph-name="Ccircumflex" unicode="&#x108;" horiz-adv-x="720" >
<path fill="black" d="M669 20 C615.667 2.66667 539.333 -10 446 -10 C196.355 -10 68 138.719 68 352 C68 572.156 211.329 724 469 724 C538.333 724 612.667 713.333 682 688 L672 665 C596 691.667 524.667 699 470 699 C227.307 699 95 558.225 95 352 C95 152.026 215.26 15 451 15 C532.333 15 610.333 29.6667 669 47 L669 20 Z " /><g transform="translate(85,186)" ><path fill="black" d="M197 606 L197 612 C244.683 651.736 313.769 722.711 346 763 L367 763 C398.522 720.971 467.656 649.342 513 612 L513 606 L491 606 C444.333 643.333 393 692.333 357 731 C321 693.667 267 642 219 606 L197 606 Z " /></g></glyph>
<glyph glyph-name="ccircumflex" unicode="&#x109;" horiz-adv-x="720" >
<path fill="black" d="M612 15 C570.667 0.333333 503.667 -10 429 -10 C196.948 -10 99 106.048 99 257 C99 426.697 231.056 537 456 537 C516 537 570.333 530 617 514 L612 489 C562.667 506.333 501 512 453 512 C252.974 512 126 415.281 126 258 C126 123.671 214.152 15 429 15 C491.667 15 562.667 25 612 41 L612 15 Z " /><g transform="translate(48,0)" ><path fill="black" d="M197 606 L197 612 C244.683 651.736 313.769 722.711 346 763 L367 763 C398.522 720.971 467.656 649.342 513 612 L513 606 L491 606 C444.333 643.333 393 692.333 357 731 C321 693.667 267 642 219 606 L197 606 Z " /></g></glyph>
<glyph glyph-name="Cdotaccent" unicode="&#x10a;" horiz-adv-x="720" >
<path fill="black" d="M669 20 C615.667 2.66667 539.333 -10 446 -10 C196.355 -10 68 138.719 68 352 C68 572.156 211.329 724 469 724 C538.333 724 612.667 713.333 682 688 L672 665 C596 691.667 524.667 699 470 699 C227.307 699 95 558.225 95 352 C95 152.026 215.26 15 451 15 C532.333 15 610.333 29.6667 669 47 L669 20 Z " /><g transform="translate(80,186)" ><path fill="black" d="M323 697 C323 715.667 327.667 734 361 734 C391.667 734 396 715.667 396 697 C396 678.333 394.333 660 361 660 C329 660 323 677 323 697 Z " /></g></glyph>
<glyph glyph-name="cdotaccent" unicode="&#x10b;" horiz-adv-x="720" >
<path fill="black" d="M612 15 C570.667 0.333333 503.667 -10 429 -10 C196.948 -10 99 106.048 99 257 C99 426.697 231.056 537 456 537 C516 537 570.333 530 617 514 L612 489 C562.667 506.333 501 512 453 512 C252.974 512 126 415.281 126 258 C126 123.671 214.152 15 429 15 C491.667 15 562.667 25 612 41 L612 15 Z " /><g transform="translate(43,0)" ><path fill="black" d="M323 697 C323 715.667 327.667 734 361 734 C391.667 734 396 715.667 396 697 C396 678.333 394.333 660 361 660 C329 660 323 677 323 697 Z " /></g></glyph>
<glyph glyph-name="Ccaron" unicode="&#x10c;" horiz-adv-x="720" >
<path fill="black" d="M669 20 C615.667 2.66667 539.333 -10 446 -10 C196.355 -10 68 138.719 68 352 C68 572.156 211.329 724 469 724 C538.333 724 612.667 713.333 682 688 L672 665 C596 691.667 524.667 699 470 699 C227.307 699 95 558.225 95 352 C95 152.026 215.26 15 451 15 C532.333 15 610.333 29.6667 669 47 L669 20 Z " /><g transform="translate(79,186)" ><path fill="black" d="M204 763 L225 763 C274.333 727 324 676.667 360 638 C394.667 676.667 447.667 724.333 497 763 L518 763 L518 757 C470.555 717.462 401.07 647.427 370 606 L350 606 C317.871 648.839 249.497 716.856 204 757 L204 763 Z " /></g></glyph>
<glyph glyph-name="ccaron" unicode="&#x10d;" horiz-adv-x="720" >
<path fill="black" d="M612 15 C570.667 0.333333 503.667 -10 429 -10 C196.948 -10 99 106.048 99 257 C99 426.697 231.056 537 456 537 C516 537 570.333 530 617 514 L612 489 C562.667 506.333 501 512 453 512 C252.974 512 126 415.281 126 258 C126 123.671 214.152 15 429 15 C491.667 15 562.667 25 612 41 L612 15 Z " /><g transform="translate(42,0)" ><path fill="black" d="M204 763 L225 763 C274.333 727 324 676.667 360 638 C394.667 676.667 447.667 724.333 497 763 L518 763 L518 757 C470.555 717.462 401.07 647.427 370 606 L350 606 C317.871 648.839 249.497 716.856 204 757 L204 763 Z " /></g></glyph>
<glyph glyph-name="Dcaron" unicode="&#x10e;" horiz-adv-x="720" >
<path fill="black" d="M99 0 L99 714 L278 714 C548.667 714 672 593.667 672 363 C672 123 540.667 0 270 0 L99 0 Z M125 25 L257 25 C521 25 644 135.667 644 361 C644 573.364 536.978 689 266 689 L125 689 L125 25 Z " /><g transform="translate(2,186)" ><path fill="black" d="M204 763 L225 763 C274.333 727 324 676.667 360 638 C394.667 676.667 447.667 724.333 497 763 L518 763 L518 757 C470.555 717.462 401.07 647.427 370 606 L350 606 C317.871 648.839 249.497 716.856 204 757 L204 763 Z " /></g></glyph>
<glyph glyph-name="dcaron" unicode="&#x10f;" horiz-adv-x="720" d="M531 112 L529 112 C495.667 42.6667 428.667 -10 302 -10 C132.667 -10 57 83.3333 57 254 C57 439.333 149.667 537 311 537 C437.957 537 502.362 478.595 529 412 L531 412 C528.333 454.667 529 498.333 529 537 L529 760 L555 760 L555 0 L533 0 L531 112 Z M529 273 C529 427.667 456.333 512 311 512 C164.333 512 84 428.333 84 255 C84 95 157.333 15 304 15 C465.333 15 529 106 529 258 L529 273 Z M634 599 L634 606 C655.062 634.961 687.888 719.442 696 760 L727 760 L727 753 C711 703.667 688 644.333 652 599 L634 599 Z " />
<glyph glyph-name="Dcroat" unicode="&#x110;" horiz-adv-x="720" >
<path fill="black" d="M89 353 L-22 353 L-22 378 L89 378 L89 714 L268 714 C538.667 714 662 593.667 662 363 C662 123 530.667 0 260 0 L89 0 L89 353 Z M247 25 C511 25 634 135.667 634 361 C634 573.364 526.978 689 256 689 L115 689 L115 378 L334 378 L334 353 L115 353 L115 25 L247 25 Z " /></glyph>
<glyph glyph-name="dcroat" unicode="&#x111;" horiz-adv-x="720" d="M583 112 L581 112 C548.505 44.3011 477.743 -10 337 -10 C154.333 -10 70 83.3333 70 254 C70 439.333 169.667 537 347 537 C484.623 537 554.362 478.595 581 412 L583 412 C580.333 454.667 581 498.333 581 537 L581 631 L305 631 L305 656 L581 656 L581 760 L607 760 L607 656 L744 656 L744 631 L607 631 L607 0 L586 0 L583 112 Z M97 254 C97 94.6667 177 15 337 15 C513.104 15 581 104.9 581 258 L581 273 C581 427.667 506 512 346 512 C186 512 97 428.667 97 254 Z " />
<glyph glyph-name="Emacron" unicode="&#x112;" horiz-adv-x="720" >
<path fill="black" d="M623 25 L623 0 L127 0 L127 714 L623 714 L623 689 L153 689 L153 389 L597 389 L597 364 L153 364 L153 25 L623 25 Z " /><g transform="translate(11,186)" ><path fill="black" d="M198 653 L522 653 L522 629 L198 629 L198 653 Z " /></g></glyph>
<glyph glyph-name="emacron" unicode="&#x113;" horiz-adv-x="720" >
<path fill="black" d="M627 23 C560.333 0.333333 483 -10 407 -10 C167.13 -10 78 102.978 78 256 C78 412.338 171.182 537 383 537 C572.359 537 646 429.048 646 292 L646 267 L105 267 C105 106.134 190.844 15 407 15 C491 15 555 27 627 51 L627 23 Z M383 512 C230.909 512 123.119 437.068 107 292 L619 292 C619 422.667 545.667 512 383 512 Z " /><g transform="translate(7,0)" ><path fill="black" d="M198 653 L522 653 L522 629 L198 629 L198 653 Z " /></g></glyph>
<glyph glyph-name="Ebreve" unicode="&#x114;" horiz-adv-x="720" >
<path fill="black" d="M623 25 L623 0 L127 0 L127 714 L623 714 L623 689 L153 689 L153 389 L597 389 L597 364 L153 364 L153 25 L623 25 Z " /><g transform="translate(11,193)" ><path fill="black" d="M234 717 C240.667 665 282.333 630 361 630 C439.667 630 479.333 665 486 717 L514 717 C503.333 645 446.667 607 360 607 C276 607 212.667 645 206 717 L234 717 Z " /></g></glyph>
<glyph glyph-name="ebreve" unicode="&#x115;" horiz-adv-x="720" >
<path fill="black" d="M627 23 C560.333 0.333333 483 -10 407 -10 C167.13 -10 78 102.978 78 256 C78 412.338 171.182 537 383 537 C572.359 537 646 429.048 646 292 L646 267 L105 267 C105 106.134 190.844 15 407 15 C491 15 555 27 627 51 L627 23 Z M383 512 C230.909 512 123.119 437.068 107 292 L619 292 C619 422.667 545.667 512 383 512 Z " /><g transform="translate(7,7)" ><path fill="black" d="M234 717 C240.667 665 282.333 630 361 630 C439.667 630 479.333 665 486 717 L514 717 C503.333 645 446.667 607 360 607 C276 607 212.667 645 206 717 L234 717 Z " /></g></glyph>
<glyph glyph-name="Edotaccent" unicode="&#x116;" horiz-adv-x="720" >
<path fill="black" d="M623 25 L623 0 L127 0 L127 714 L623 714 L623 689 L153 689 L153 389 L597 389 L597 364 L153 364 L153 25 L623 25 Z " /><g transform="translate(11,186)" ><path fill="black" d="M323 697 C323 715.667 327.667 734 361 734 C391.667 734 396 715.667 396 697 C396 678.333 394.333 660 361 660 C329 660 323 677 323 697 Z " /></g></glyph>
<glyph glyph-name="edotaccent" unicode="&#x117;" horiz-adv-x="720" >
<path fill="black" d="M627 23 C560.333 0.333333 483 -10 407 -10 C167.13 -10 78 102.978 78 256 C78 412.338 171.182 537 383 537 C572.359 537 646 429.048 646 292 L646 267 L105 267 C105 106.134 190.844 15 407 15 C491 15 555 27 627 51 L627 23 Z M383 512 C230.909 512 123.119 437.068 107 292 L619 292 C619 422.667 545.667 512 383 512 Z " /><g transform="translate(7,0)" ><path fill="black" d="M323 697 C323 715.667 327.667 734 361 734 C391.667 734 396 715.667 396 697 C396 678.333 394.333 660 361 660 C329 660 323 677 323 697 Z " /></g></glyph>
<glyph glyph-name="Eogonek" unicode="&#x118;" horiz-adv-x="720" d="M105 714 L601 714 L601 689 L131 689 L131 389 L575 389 L575 364 L131 364 L131 25 L601 25 L601 0 L523 0 C461.502 -37.4336 401 -82.2262 401 -132 C401 -172 426.333 -192 477 -192 C502.333 -192 525.667 -188.667 539 -186 L539 -209 C525.667 -213 503.667 -217 477 -217 C418.333 -217 372 -190.667 372 -136 C372 -90.6667 404 -46.6667 484 0 L105 0 L105 714 Z " />
<glyph glyph-name="eogonek" unicode="&#x119;" horiz-adv-x="720" d="M609 -209 C595.667 -213 571.333 -217 546 -217 C486 -217 439 -191 439 -135 C439 -75 496.667 -29.6667 570 13 C510.667 -2.33333 449 -10 385 -10 C145.13 -10 56 102.978 56 256 C56 412.338 149.182 537 361 537 C550.359 537 624 429.048 624 292 L624 267 L83 267 C83 106.134 168.844 15 385 15 C469 15 533 27 605 51 L605 32 L608 34 L627 23 C562.954 -14.3599 467 -61.0273 467 -132 C467 -170.667 491.667 -192 549 -192 C569 -192 594.333 -189 609 -185 L609 -209 Z M597 292 C597 422.667 523.667 512 361 512 C208.909 512 101.119 437.068 85 292 L597 292 Z " />
<glyph glyph-name="Ecaron" unicode="&#x11a;" horiz-adv-x="720" >
<path fill="black" d="M623 25 L623 0 L127 0 L127 714 L623 714 L623 689 L153 689 L153 389 L597 389 L597 364 L153 364 L153 25 L623 25 Z " /><g transform="translate(10,186)" ><path fill="black" d="M204 763 L225 763 C274.333 727 324 676.667 360 638 C394.667 676.667 447.667 724.333 497 763 L518 763 L518 757 C470.555 717.462 401.07 647.427 370 606 L350 606 C317.871 648.839 249.497 716.856 204 757 L204 763 Z " /></g></glyph>
<glyph glyph-name="ecaron" unicode="&#x11b;" horiz-adv-x="720" >
<path fill="black" d="M627 23 C560.333 0.333333 483 -10 407 -10 C167.13 -10 78 102.978 78 256 C78 412.338 171.182 537 383 537 C572.359 537 646 429.048 646 292 L646 267 L105 267 C105 106.134 190.844 15 407 15 C491 15 555 27 627 51 L627 23 Z M383 512 C230.909 512 123.119 437.068 107 292 L619 292 C619 422.667 545.667 512 383 512 Z " /><g transform="translate(6,0)" ><path fill="black" d="M204 763 L225 763 C274.333 727 324 676.667 360 638 C394.667 676.667 447.667 724.333 497 763 L518 763 L518 757 C470.555 717.462 401.07 647.427 370 606 L350 606 C317.871 648.839 249.497 716.856 204 757 L204 763 Z " /></g></glyph>
<glyph glyph-name="Gcircumflex" unicode="&#x11c;" horiz-adv-x="720" >
<path fill="black" d="M385 350 L624 350 L624 33 C556 3.66667 472 -10 396 -10 C164.996 -10 51 128.312 51 348 C51 574.641 176.13 725 408 725 C469.333 725 546 714.667 610 684 L597 662 C526.333 692.667 454.667 700 408 700 C191.87 700 77 563.134 77 348 C77 128 198 15 398 15 C474 15 545 29 597 49 L597 325 L385 325 L385 350 Z " /><g transform="translate(38,186)" ><path fill="black" d="M197 606 L197 612 C244.683 651.736 313.769 722.711 346 763 L367 763 C398.522 720.971 467.656 649.342 513 612 L513 606 L491 606 C444.333 643.333 393 692.333 357 731 C321 693.667 267 642 219 606 L197 606 Z " /></g></glyph>
<glyph glyph-name="gcircumflex" unicode="&#x11d;" horiz-adv-x="720" >
<path fill="black" d="M103 -180 C161.667 -202.667 235 -220 327 -220 C511.156 -220 581 -148.307 581 -31 L581 16 C581 54.6667 581.333 81 584 121 L581 121 C550.333 38.3333 463 -10 335 -10 C167 -10 70 78 70 258 C70 431.333 163.333 537 354 537 C481.356 537 544.473 490.922 577 434 L579 434 L585 528 L607 528 L607 -36 C607 -163.87 532.026 -245 324 -245 C229.333 -245 161.667 -229 103 -209 L103 -180 Z M580 299 C580 417.9 529.537 512 351 512 C175 512 96 415.333 96 258 C96 96.6667 175.667 15 337 15 C535.329 15 580 135.26 580 243 L580 299 Z " /><g transform="translate(6,0)" ><path fill="black" d="M197 606 L197 612 C244.683 651.736 313.769 722.711 346 763 L367 763 C398.522 720.971 467.656 649.342 513 612 L513 606 L491 606 C444.333 643.333 393 692.333 357 731 C321 693.667 267 642 219 606 L197 606 Z " /></g></glyph>
<glyph glyph-name="Gbreve" unicode="&#x11e;" horiz-adv-x="720" >
<path fill="black" d="M385 350 L624 350 L624 33 C556 3.66667 472 -10 396 -10 C164.996 -10 51 128.312 51 348 C51 574.641 176.13 725 408 725 C469.333 725 546 714.667 610 684 L597 662 C526.333 692.667 454.667 700 408 700 C191.87 700 77 563.134 77 348 C77 128 198 15 398 15 C474 15 545 29 597 49 L597 325 L385 325 L385 350 Z " /><g transform="translate(33,193)" ><path fill="black" d="M234 717 C240.667 665 282.333 630 361 630 C439.667 630 479.333 665 486 717 L514 717 C503.333 645 446.667 607 360 607 C276 607 212.667 645 206 717 L234 717 Z " /></g></glyph>
<glyph glyph-name="gbreve" unicode="&#x11f;" horiz-adv-x="720" >
<path fill="black" d="M103 -180 C161.667 -202.667 235 -220 327 -220 C511.156 -220 581 -148.307 581 -31 L581 16 C581 54.6667 581.333 81 584 121 L581 121 C550.333 38.3333 463 -10 335 -10 C167 -10 70 78 70 258 C70 431.333 163.333 537 354 537 C481.356 537 544.473 490.922 577 434 L579 434 L585 528 L607 528 L607 -36 C607 -163.87 532.026 -245 324 -245 C229.333 -245 161.667 -229 103 -209 L103 -180 Z M580 299 C580 417.9 529.537 512 351 512 C175 512 96 415.333 96 258 C96 96.6667 175.667 15 337 15 C535.329 15 580 135.26 580 243 L580 299 Z " /><g transform="translate(1,7)" ><path fill="black" d="M234 717 C240.667 665 282.333 630 361 630 C439.667 630 479.333 665 486 717 L514 717 C503.333 645 446.667 607 360 607 C276 607 212.667 645 206 717 L234 717 Z " /></g></glyph>
<glyph glyph-name="Gdotaccent" unicode="&#x120;" horiz-adv-x="720" >
<path fill="black" d="M385 350 L624 350 L624 33 C556 3.66667 472 -10 396 -10 C164.996 -10 51 128.312 51 348 C51 574.641 176.13 725 408 725 C469.333 725 546 714.667 610 684 L597 662 C526.333 692.667 454.667 700 408 700 C191.87 700 77 563.134 77 348 C77 128 198 15 398 15 C474 15 545 29 597 49 L597 325 L385 325 L385 350 Z " /><g transform="translate(33,186)" ><path fill="black" d="M323 697 C323 715.667 327.667 734 361 734 C391.667 734 396 715.667 396 697 C396 678.333 394.333 660 361 660 C329 660 323 677 323 697 Z " /></g></glyph>
<glyph glyph-name="gdotaccent" unicode="&#x121;" horiz-adv-x="720" >
<path fill="black" d="M103 -180 C161.667 -202.667 235 -220 327 -220 C511.156 -220 581 -148.307 581 -31 L581 16 C581 54.6667 581.333 81 584 121 L581 121 C550.333 38.3333 463 -10 335 -10 C167 -10 70 78 70 258 C70 431.333 163.333 537 354 537 C481.356 537 544.473 490.922 577 434 L579 434 L585 528 L607 528 L607 -36 C607 -163.87 532.026 -245 324 -245 C229.333 -245 161.667 -229 103 -209 L103 -180 Z M580 299 C580 417.9 529.537 512 351 512 C175 512 96 415.333 96 258 C96 96.6667 175.667 15 337 15 C535.329 15 580 135.26 580 243 L580 299 Z " /><g transform="translate(1,0)" ><path fill="black" d="M323 697 C323 715.667 327.667 734 361 734 C391.667 734 396 715.667 396 697 C396 678.333 394.333 660 361 660 C329 660 323 677 323 697 Z " /></g></glyph>
<glyph glyph-name="uni0122" unicode="&#x122;" horiz-adv-x="720" >
<path fill="black" d="M385 350 L624 350 L624 33 C556 3.66667 472 -10 396 -10 C164.996 -10 51 128.312 51 348 C51 574.641 176.13 725 408 725 C469.333 725 546 714.667 610 684 L597 662 C526.333 692.667 454.667 700 408 700 C191.87 700 77 563.134 77 348 C77 128 198 15 398 15 C474 15 545 29 597 49 L597 325 L385 325 L385 350 Z " /><g transform="translate(1120,0)" ><path fill="black" d="M-794 -221 L-794 -214 C-775.535 -184.983 -740.126 -100.629 -732 -60 L-701 -60 L-701 -67 C-717 -116.333 -740 -175.667 -776 -221 L-794 -221 Z " /></g></glyph>
<glyph glyph-name="uni0123" unicode="&#x123;" horiz-adv-x="720" d="M81 -180 C139.667 -202.667 213 -220 305 -220 C489.156 -220 559 -148.307 559 -31 L559 16 C559 54.6667 559.333 81 562 121 L559 121 C528.333 38.3333 441 -10 313 -10 C145 -10 48 78 48 258 C48 431.333 141.333 537 332 537 C459.356 537 522.473 490.922 555 434 L557 434 L563 528 L585 528 L585 -36 C585 -163.87 510.026 -245 302 -245 C207.333 -245 139.667 -229 81 -209 L81 -180 Z M558 299 C558 417.9 507.537 512 329 512 C153 512 74 415.333 74 258 C74 96.6667 153.667 15 315 15 C513.329 15 558 135.26 558 243 L558 299 Z M334 604 L334 610 C351.333 660.667 374 717.333 410 764 L428 764 L428 757 C406.97 725.455 372.977 646.543 365 604 L334 604 Z " />
<glyph glyph-name="Hcircumflex" unicode="&#x124;" horiz-adv-x="720" >
<path fill="black" d="M99 0 L99 714 L125 714 L125 388 L598 388 L598 714 L624 714 L624 0 L598 0 L598 363 L125 363 L125 0 L99 0 Z " /><g transform="translate(6,186)" ><path fill="black" d="M197 606 L197 612 C244.683 651.736 313.769 722.711 346 763 L367 763 C398.522 720.971 467.656 649.342 513 612 L513 606 L491 606 C444.333 643.333 393 692.333 357 731 C321 693.667 267 642 219 606 L197 606 Z " /></g></glyph>
<glyph glyph-name="hcircumflex" unicode="&#x125;" horiz-adv-x="720" >
<path fill="black" d="M115 0 L115 760 L141 760 L141 495 C141 464.333 140.667 444.667 138 414 L141 414 C164.911 477.763 238.505 537 385 537 C530.333 537 614 478.667 614 352 L614 0 L588 0 L588 347 C588 464.333 512.333 512 387 512 C241.355 512 141 445.996 141 301 L141 0 L115 0 Z " /><g transform="translate(-230,232)" ><path fill="black" d="M197 606 L197 612 C244.683 651.736 313.769 722.711 346 763 L367 763 C398.522 720.971 467.656 649.342 513 612 L513 606 L491 606 C444.333 643.333 393 692.333 357 731 C321 693.667 267 642 219 606 L197 606 Z " /></g></glyph>
<glyph glyph-name="Hbar" unicode="&#x126;" horiz-adv-x="720" d="M99 532 L-22 532 L-22 557 L99 557 L99 714 L125 714 L125 557 L597 557 L597 714 L623 714 L623 557 L744 557 L744 532 L623 532 L623 0 L597 0 L597 363 L125 363 L125 0 L99 0 L99 532 Z M597 388 L597 532 L125 532 L125 388 L597 388 Z " />
<glyph glyph-name="hbar" unicode="&#x127;" horiz-adv-x="720" d="M115 631 L-22 631 L-22 656 L115 656 L115 760 L141 760 L141 656 L416 656 L416 631 L141 631 L141 495 C141 464.333 140.667 444.667 138 414 L141 414 C164.93 477.813 237.314 537 385 537 C530.333 537 614 478.667 614 352 L614 0 L588 0 L588 347 C588 464.333 512.333 512 387 512 C241.355 512 141 445.996 141 301 L141 0 L115 0 L115 631 Z " />
<glyph glyph-name="Itilde" unicode="&#x128;" horiz-adv-x="720" >
<path fill="black" d="M185 20 L348 23 L348 690 L185 694 L185 714 L537 714 L537 694 L374 690 L374 23 L537 20 L537 0 L185 0 L185 20 Z " /><g transform="translate(0,186)" ><path fill="black" d="M153 620 C159.667 685.333 202 717 266 717 C351.327 717 384.105 643 455 643 C493.183 643 531.987 658.24 540 717 L570 717 C563.333 651.667 518 619 454 619 C364.895 619 340.34 693 263 693 C229.416 693 188.322 678.541 183 620 L153 620 Z " /></g></glyph>
<glyph glyph-name="itilde" unicode="&#x129;" horiz-adv-x="722" >
<path fill="black" d="M108 21 L373 25 L373 503 L132 507 L132 528 L399 528 L399 25 L651 21 L651 0 L108 0 L108 21 Z " /><path fill="black" d="M153 620 C159.667 685.333 202 717 266 717 C351.327 717 384.105 643 455 643 C493.183 643 531.987 658.24 540 717 L570 717 C563.333 651.667 518 619 454 619 C364.895 619 340.34 693 263 693 C229.416 693 188.322 678.541 183 620 L153 620 Z " /></glyph>
<glyph glyph-name="Imacron" unicode="&#x12a;" horiz-adv-x="720" >
<path fill="black" d="M185 20 L348 23 L348 690 L185 694 L185 714 L537 714 L537 694 L374 690 L374 23 L537 20 L537 0 L185 0 L185 20 Z " /><g transform="translate(1,186)" ><path fill="black" d="M198 653 L522 653 L522 629 L198 629 L198 653 Z " /></g></glyph>
<glyph glyph-name="imacron" unicode="&#x12b;" horiz-adv-x="722" >
<path fill="black" d="M108 21 L373 25 L373 503 L132 507 L132 528 L399 528 L399 25 L651 21 L651 0 L108 0 L108 21 Z " /><g transform="translate(1,0)" ><path fill="black" d="M198 653 L522 653 L522 629 L198 629 L198 653 Z " /></g></glyph>
<glyph glyph-name="Ibreve" unicode="&#x12c;" horiz-adv-x="720" >
<path fill="black" d="M185 20 L348 23 L348 690 L185 694 L185 714 L537 714 L537 694 L374 690 L374 23 L537 20 L537 0 L185 0 L185 20 Z " /><g transform="translate(1,193)" ><path fill="black" d="M234 717 C240.667 665 282.333 630 361 630 C439.667 630 479.333 665 486 717 L514 717 C503.333 645 446.667 607 360 607 C276 607 212.667 645 206 717 L234 717 Z " /></g></glyph>
<glyph glyph-name="ibreve" unicode="&#x12d;" horiz-adv-x="722" >
<path fill="black" d="M108 21 L373 25 L373 503 L132 507 L132 528 L399 528 L399 25 L651 21 L651 0 L108 0 L108 21 Z " /><g transform="translate(1,7)" ><path fill="black" d="M234 717 C240.667 665 282.333 630 361 630 C439.667 630 479.333 665 486 717 L514 717 C503.333 645 446.667 607 360 607 C276 607 212.667 645 206 717 L234 717 Z " /></g></glyph>
<glyph glyph-name="Iogonek" unicode="&#x12e;" horiz-adv-x="720" d="M163 20 L326 23 L326 690 L163 694 L163 714 L515 714 L515 694 L352 690 L352 23 L515 20 L515 0 L465 0 C403.502 -37.4336 343 -82.2262 343 -132 C343 -172 368.333 -192 419 -192 C444.333 -192 467.667 -188.667 481 -186 L481 -209 C467.667 -213 445.667 -217 419 -217 C360.333 -217 314 -190.667 314 -136 C314 -90.6667 346 -46.6667 426 0 L163 0 L163 20 Z " />
<glyph glyph-name="iogonek" unicode="&#x12f;" horiz-adv-x="720" >
<g transform="translate(-22,0)" ><path fill="black" d="M108 21 L373 25 L373 503 L132 507 L132 528 L399 528 L399 25 L651 21 L651 0 L515 0 C453.502 -37.4336 393 -82.2262 393 -132 C393 -172 418.333 -192 469 -192 C494.333 -192 517.667 -188.667 531 -186 L531 -209 C517.667 -213 495.667 -217 469 -217 C410.333 -217 364 -190.667 364 -136 C364 -90.6667 396 -46.6667 476 0 L108 0 L108 21 Z " /></g><path fill="black" d="M323 697 C323 715.667 327.667 734 361 734 C391.667 734 396 715.667 396 697 C396 678.333 394.333 660 361 660 C329 660 323 677 323 697 Z " /></glyph>
<glyph glyph-name="Idotaccent" unicode="&#x130;" horiz-adv-x="720" >
<path fill="black" d="M185 20 L348 23 L348 690 L185 694 L185 714 L537 714 L537 694 L374 690 L374 23 L537 20 L537 0 L185 0 L185 20 Z " /><g transform="translate(1,186)" ><path fill="black" d="M323 697 C323 715.667 327.667 734 361 734 C391.667 734 396 715.667 396 697 C396 678.333 394.333 660 361 660 C329 660 323 677 323 697 Z " /></g></glyph>
<glyph glyph-name="dotlessi" unicode="&#x131;" horiz-adv-x="722" d="M108 21 L373 25 L373 503 L132 507 L132 528 L399 528 L399 25 L651 21 L651 0 L108 0 L108 21 Z " />
<glyph glyph-name="IJ" unicode="&#x132;" horiz-adv-x="720" d="M137 55 C179.667 32.3333 257 9 349 9 C509.052 9 563 73.7186 563 199 L563 714 L589 714 L589 191 C589 61.9784 529.874 -15 347 -15 C259 -15 185 3 137 27 L137 55 Z M130 147 L130 714 L156 714 L156 147 L130 147 Z " />
<glyph glyph-name="ij" unicode="&#x133;" horiz-adv-x="720" d="M150 -194 C193.011 -210.129 269.94 -222 337 -222 C474.333 -222 533 -169 533 -81 L533 528 L559 528 L559 -88 C559 -196 474.333 -248 333 -248 C254.333 -248 186 -234.333 150 -221 L150 -194 Z M165 0 L165 528 L191 528 L191 0 L165 0 Z M141 694 C141 712.667 145.667 731 179 731 C209.667 731 214 712.667 214 694 C214 675.333 212.333 657 179 657 C147 657 141 674 141 694 Z M508 694 C508 712.667 512.667 731 546 731 C576.667 731 581 712.667 581 694 C581 675.333 579.333 657 546 657 C514 657 508 674 508 694 Z " />
<glyph glyph-name="Jcircumflex" unicode="&#x134;" horiz-adv-x="720" >
<path fill="black" d="M123 53 C173.667 30.3333 222 9 302 9 C440.719 9 484 75.974 484 204 L484 714 L510 714 L510 196 C510 63.6104 460.156 -15 300 -15 C225.333 -15 177.667 1 123 25 L123 53 Z " /><g transform="translate(144,186)" ><path fill="black" d="M197 606 L197 612 C244.683 651.736 313.769 722.711 346 763 L367 763 C398.522 720.971 467.656 649.342 513 612 L513 606 L491 606 C444.333 643.333 393 692.333 357 731 C321 693.667 267 642 219 606 L197 606 Z " /></g></glyph>
<glyph glyph-name="jcircumflex" unicode="&#x135;" horiz-adv-x="722" >
<path fill="black" d="M78 -201 C102.409 -209.136 183.998 -222 236 -222 C349.333 -222 404 -169 404 -81 L404 503 L157 507 L157 528 L430 528 L430 -88 C430 -196 350 -248 234 -248 C168.294 -248 96.814 -233.375 78 -228 L78 -201 Z " /><g transform="translate(54,0)" ><path fill="black" d="M197 606 L197 612 C244.683 651.736 313.769 722.711 346 763 L367 763 C398.522 720.971 467.656 649.342 513 612 L513 606 L491 606 C444.333 643.333 393 692.333 357 731 C321 693.667 267 642 219 606 L197 606 Z " /></g></glyph>
<glyph glyph-name="uni0136" unicode="&#x136;" horiz-adv-x="720" >
<path fill="black" d="M99 0 L99 714 L125 714 L125 322 C149 344.667 165.333 358.333 192 381 L618 714 L658 714 L284 415 L664 0 L633 0 L267 397 L125 290 L125 0 L99 0 Z " /><g transform="translate(1104,0)" ><path fill="black" d="M-794 -221 L-794 -214 C-775.535 -184.983 -740.126 -100.629 -732 -60 L-701 -60 L-701 -67 C-717 -116.333 -740 -175.667 -776 -221 L-794 -221 Z " /></g></glyph>
<glyph glyph-name="uni0137" unicode="&#x137;" horiz-adv-x="720" >
<path fill="black" d="M162 0 L162 760 L188 760 L188 382 C188 319.333 189.333 267.667 188 205 L190 205 C216.667 226.333 243.333 248.333 274 271 L611 528 L646 528 L378 312 L672 0 L641 0 L359 294 L188 173 L188 0 L162 0 Z " /><g transform="translate(1126,0)" ><path fill="black" d="M-794 -221 L-794 -214 C-775.535 -184.983 -740.126 -100.629 -732 -60 L-701 -60 L-701 -67 C-717 -116.333 -740 -175.667 -776 -221 L-794 -221 Z " /></g></glyph>
<glyph glyph-name="kgreenlandic" unicode="&#x138;" horiz-adv-x="720" d="M162 0 L162 528 L188 528 L188 382 C188 319.333 189.333 267.667 188 205 L190 205 C216.667 226.333 243.333 248.333 274 271 L611 528 L646 528 L378 313 L672 0 L641 0 L359 294 L188 173 L188 0 L162 0 Z " />
<glyph glyph-name="Lacute" unicode="&#x139;" horiz-adv-x="720" >
<path fill="black" d="M623 25 L623 0 L165 0 L165 714 L191 714 L191 25 L623 25 Z " /><g transform="translate(-212,186)" ><path fill="black" d="M330 606 L330 613 C390.568 655.134 476.07 720.747 516 766 L546 766 L546 759 C498.023 713.688 420.561 648.191 352 606 L330 606 Z " /></g></glyph>
<glyph glyph-name="lacute" unicode="&#x13a;" horiz-adv-x="720" >
<path fill="black" d="M108 21 L364 25 L364 735 L136 739 L136 760 L390 760 L390 25 L651 21 L651 0 L108 0 L108 21 Z " /><g transform="translate(-29,232)" ><path fill="black" d="M330 606 L330 613 C390.568 655.134 476.07 720.747 516 766 L546 766 L546 759 C498.023 713.688 420.561 648.191 352 606 L330 606 Z " /></g></glyph>
<glyph glyph-name="uni013B" unicode="&#x13b;" horiz-adv-x="720" >
<path fill="black" d="M623 25 L623 0 L165 0 L165 714 L191 714 L191 25 L623 25 Z " /><g transform="translate(1127,0)" ><path fill="black" d="M-794 -221 L-794 -214 C-775.535 -184.983 -740.126 -100.629 -732 -60 L-701 -60 L-701 -67 C-717 -116.333 -740 -175.667 -776 -221 L-794 -221 Z " /></g></glyph>
<glyph glyph-name="uni013C" unicode="&#x13c;" horiz-adv-x="720" >
<path fill="black" d="M108 21 L364 25 L364 735 L136 739 L136 760 L390 760 L390 25 L651 21 L651 0 L108 0 L108 21 Z " /><g transform="translate(1096,0)" ><path fill="black" d="M-794 -221 L-794 -214 C-775.535 -184.983 -740.126 -100.629 -732 -60 L-701 -60 L-701 -67 C-717 -116.333 -740 -175.667 -776 -221 L-794 -221 Z " /></g></glyph>
<glyph glyph-name="Lcaron" unicode="&#x13d;" horiz-adv-x="720" >
<g transform="translate(-22,0)" ><path fill="black" d="M623 25 L623 0 L165 0 L165 714 L191 714 L191 25 L623 25 Z " /></g><g transform="translate(1240,774)" ><path fill="black" d="M-794 -221 L-794 -214 C-775.535 -184.983 -740.126 -100.629 -732 -60 L-701 -60 L-701 -67 C-717 -116.333 -740 -175.667 -776 -221 L-794 -221 Z " /></g></glyph>
<glyph glyph-name="lcaron" unicode="&#x13e;" horiz-adv-x="720" >
<g transform="translate(-22,0)" ><path fill="black" d="M108 21 L364 25 L364 735 L136 739 L136 760 L390 760 L390 25 L651 21 L651 0 L108 0 L108 21 Z " /></g><g transform="translate(1271,820)" ><path fill="black" d="M-794 -221 L-794 -214 C-775.535 -184.983 -740.126 -100.629 -732 -60 L-701 -60 L-701 -67 C-717 -116.333 -740 -175.667 -776 -221 L-794 -221 Z " /></g></glyph>
<glyph glyph-name="Ldot" unicode="&#x13f;" horiz-adv-x="720" >
<g transform="translate(-22,0)" ><path fill="black" d="M623 25 L623 0 L165 0 L165 714 L191 714 L191 25 L623 25 Z " /></g><g transform="translate(119,337)" ><path fill="black" d="M326 23 C326 41.6667 330.333 58 361 58 C393 58 397 41.6667 397 23 C397 4.33333 393 -12 361 -12 C330.333 -12 326 4.33333 326 23 Z " /></g></glyph>
<glyph glyph-name="ldot" unicode="&#x140;" horiz-adv-x="720" >
<path fill="black" d="M108 21 L364 25 L364 735 L136 739 L136 760 L390 760 L390 25 L651 21 L651 0 L108 0 L108 21 Z " /><g transform="translate(340,360)" ><path fill="black" d="M326 23 C326 41.6667 330.333 58 361 58 C393 58 397 41.6667 397 23 C397 4.33333 393 -12 361 -12 C330.333 -12 326 4.33333 326 23 Z " /></g></glyph>
<glyph glyph-name="Lslash" unicode="&#x141;" horiz-adv-x="720" d="M165 351 L65 309 L65 331 L165 373 L165 714 L191 714 L191 384 L529 526 L529 504 L191 362 L191 25 L623 25 L623 0 L165 0 L165 351 Z " />
<glyph glyph-name="lslash" unicode="&#x142;" horiz-adv-x="720" d="M108 21 L364 25 L364 399 L151 309 L151 331 L364 421 L364 735 L136 739 L136 760 L390 760 L390 431 L615 526 L615 504 L390 409 L390 25 L651 21 L651 0 L108 0 L108 21 Z " />
<glyph glyph-name="Nacute" unicode="&#x143;" horiz-adv-x="720" >
<path fill="black" d="M99 0 L99 714 L124 714 L595 53 L597 53 L597 188 L597 714 L624 714 L624 0 L598 0 L128 665 L126 665 C127.333 626.333 126 591 126 535 L126 0 L99 0 Z " /><g transform="translate(-22,186)" ><path fill="black" d="M330 606 L330 613 C390.568 655.134 476.07 720.747 516 766 L546 766 L546 759 C498.023 713.688 420.561 648.191 352 606 L330 606 Z " /></g></glyph>
<glyph glyph-name="nacute" unicode="&#x144;" horiz-adv-x="720" >
<path fill="black" d="M115 0 L115 528 L137 528 L139 417 L142 417 C168.309 477.511 238.733 537 384 537 C529.333 537 614 480 614 356 L614 0 L588 0 L588 348 C588 464 512.667 512 386 512 C242.026 512 141 445.9 141 303 L141 0 L115 0 Z " /><g transform="translate(-20,0)" ><path fill="black" d="M330 606 L330 613 C390.568 655.134 476.07 720.747 516 766 L546 766 L546 759 C498.023 713.688 420.561 648.191 352 606 L330 606 Z " /></g></glyph>
<glyph glyph-name="uni0145" unicode="&#x145;" horiz-adv-x="720" >
<path fill="black" d="M99 0 L99 714 L124 714 L595 53 L597 53 L597 188 L597 714 L624 714 L624 0 L598 0 L128 665 L126 665 C127.333 626.333 126 591 126 535 L126 0 L99 0 Z " /><g transform="translate(1081,0)" ><path fill="black" d="M-794 -221 L-794 -214 C-775.535 -184.983 -740.126 -100.629 -732 -60 L-701 -60 L-701 -67 C-717 -116.333 -740 -175.667 -776 -221 L-794 -221 Z " /></g></glyph>
<glyph glyph-name="uni0146" unicode="&#x146;" horiz-adv-x="720" >
<path fill="black" d="M115 0 L115 528 L137 528 L139 417 L142 417 C168.309 477.511 238.733 537 384 537 C529.333 537 614 480 614 356 L614 0 L588 0 L588 348 C588 464 512.667 512 386 512 C242.026 512 141 445.9 141 303 L141 0 L115 0 Z " /><g transform="translate(1093,0)" ><path fill="black" d="M-794 -221 L-794 -214 C-775.535 -184.983 -740.126 -100.629 -732 -60 L-701 -60 L-701 -67 C-717 -116.333 -740 -175.667 -776 -221 L-794 -221 Z " /></g></glyph>
<glyph glyph-name="Ncaron" unicode="&#x147;" horiz-adv-x="720" >
<path fill="black" d="M99 0 L99 714 L124 714 L595 53 L597 53 L597 188 L597 714 L624 714 L624 0 L598 0 L128 665 L126 665 C127.333 626.333 126 591 126 535 L126 0 L99 0 Z " /><g transform="translate(7,186)" ><path fill="black" d="M204 763 L225 763 C274.333 727 324 676.667 360 638 C394.667 676.667 447.667 724.333 497 763 L518 763 L518 757 C470.555 717.462 401.07 647.427 370 606 L350 606 C317.871 648.839 249.497 716.856 204 757 L204 763 Z " /></g></glyph>
<glyph glyph-name="ncaron" unicode="&#x148;" horiz-adv-x="720" >
<path fill="black" d="M115 0 L115 528 L137 528 L139 417 L142 417 C168.309 477.511 238.733 537 384 537 C529.333 537 614 480 614 356 L614 0 L588 0 L588 348 C588 464 512.667 512 386 512 C242.026 512 141 445.9 141 303 L141 0 L115 0 Z " /><g transform="translate(9,0)" ><path fill="black" d="M204 763 L225 763 C274.333 727 324 676.667 360 638 C394.667 676.667 447.667 724.333 497 763 L518 763 L518 757 C470.555 717.462 401.07 647.427 370 606 L350 606 C317.871 648.839 249.497 716.856 204 757 L204 763 Z " /></g></glyph>
<glyph glyph-name="napostrophe" unicode="&#x149;" horiz-adv-x="720" d="M140 0 L140 528 L162 528 L165 417 L167 417 C196.203 478.06 257.468 537 398 537 C534 537 614 480 614 356 L614 0 L588 0 L588 348 C588 464 517.333 512 400 512 C263.948 512 166 445.9 166 303 L166 0 L140 0 Z M-48 472 C-5.48201 543.749 25.3734 642.271 36 714 L52 714 L60 705 C44 625 9.33333 542.667 -32 472 L-48 472 Z " />
<glyph glyph-name="Eng" unicode="&#x14a;" horiz-adv-x="720" d="M99 714 L124 714 L595 53 L597 53 L597 188 L597 714 L624 714 L624 0 L623 0 C621.667 -113.333 560.667 -174 438 -174 C398 -174 353.667 -167.667 335 -161 L335 -136 C361.667 -142.667 398.333 -149 437 -149 C542.333 -149 595 -101.333 595 4 L128 665 L126 665 C127.333 626.333 126 591 126 535 L126 0 L99 0 L99 714 Z " />
<glyph glyph-name="eng" unicode="&#x14b;" horiz-adv-x="720" d="M115 528 L137 528 L139 417 L142 417 C168.309 477.511 238.733 537 384 537 C529.333 537 614 480 614 356 L614 0 L612 0 L614 -104 C614 -197.229 548.771 -240 474 -240 C436 -240 405 -237 381 -231 L381 -205 C411.667 -213 445.333 -215 476 -215 C552.317 -215 467.326 -94.6775 566 52 L588 140 L588 348 C588 464 512.667 512 386 512 C242.026 512 141 445.9 141 303 L141 0 L115 0 L115 528 Z " />
<glyph glyph-name="Omacron" unicode="&#x14c;" horiz-adv-x="720" >
<path fill="black" d="M363 -10 C137.407 -10 51 161.589 51 359 C51 592.333 165 724 365 724 C572.056 724 672 576.671 672 359 C672 157.225 587.182 -10 363 -10 Z M363 15 C549.667 15 645 143.333 645 358 C645 578 545.667 699 363 699 C176.281 699 77 567.152 77 358 C77 147.307 176.281 15 363 15 Z " /><g transform="translate(1,186)" ><path fill="black" d="M198 653 L522 653 L522 629 L198 629 L198 653 Z " /></g></glyph>
<glyph glyph-name="omacron" unicode="&#x14d;" horiz-adv-x="720" >
<path fill="black" d="M70 264 C70 434.667 176 537 368 537 C575.134 537 652 418.026 652 266 C652 104.926 563.693 -10 361 -10 C160.87 -10 70 103.844 70 264 Z M97 264 C97 114.589 182.437 15 361 15 C543.926 15 625 115.719 625 265 C625 403.589 557.307 512 368 512 C196 512 97 421.333 97 264 Z " /><g transform="translate(1,0)" ><path fill="black" d="M198 653 L522 653 L522 629 L198 629 L198 653 Z " /></g></glyph>
<glyph glyph-name="Obreve" unicode="&#x14e;" horiz-adv-x="720" >
<path fill="black" d="M363 -10 C137.407 -10 51 161.589 51 359 C51 592.333 165 724 365 724 C572.056 724 672 576.671 672 359 C672 157.225 587.182 -10 363 -10 Z M363 15 C549.667 15 645 143.333 645 358 C645 578 545.667 699 363 699 C176.281 699 77 567.152 77 358 C77 147.307 176.281 15 363 15 Z " /><g transform="translate(1,193)" ><path fill="black" d="M234 717 C240.667 665 282.333 630 361 630 C439.667 630 479.333 665 486 717 L514 717 C503.333 645 446.667 607 360 607 C276 607 212.667 645 206 717 L234 717 Z " /></g></glyph>
<glyph glyph-name="obreve" unicode="&#x14f;" horiz-adv-x="720" >
<path fill="black" d="M70 264 C70 434.667 176 537 368 537 C575.134 537 652 418.026 652 266 C652 104.926 563.693 -10 361 -10 C160.87 -10 70 103.844 70 264 Z M97 264 C97 114.589 182.437 15 361 15 C543.926 15 625 115.719 625 265 C625 403.589 557.307 512 368 512 C196 512 97 421.333 97 264 Z " /><g transform="translate(1,7)" ><path fill="black" d="M234 717 C240.667 665 282.333 630 361 630 C439.667 630 479.333 665 486 717 L514 717 C503.333 645 446.667 607 360 607 C276 607 212.667 645 206 717 L234 717 Z " /></g></glyph>
<glyph glyph-name="Ohungarumlaut" unicode="&#x150;" horiz-adv-x="720" d="M363 -10 C137.407 -10 51 161.589 51 359 C51 592.333 165 724 365 724 C572.056 724 672 576.671 672 359 C672 157.225 587.182 -10 363 -10 Z M363 15 C549.667 15 645 143.333 645 358 C645 578 545.667 699 363 699 C176.281 699 77 567.152 77 358 C77 147.307 176.281 15 363 15 Z M229 792 L229 798 C277.213 838.178 345.51 909.105 375 952 L406 952 L406 945 C368.699 899.706 308.327 834.154 253 792 L229 792 Z M407 792 L407 798 C455.213 838.178 523.51 909.105 553 952 L584 952 L584 945 C546.699 899.706 486.327 834.154 431 792 L407 792 Z " />
<glyph glyph-name="ohungarumlaut" unicode="&#x151;" horiz-adv-x="720" d="M70 264 C70 434.667 176 537 368 537 C575.134 537 652 418.026 652 266 C652 104.926 563.693 -10 361 -10 C160.87 -10 70 103.844 70 264 Z M97 264 C97 114.589 182.437 15 361 15 C543.926 15 625 115.719 625 265 C625 403.589 557.307 512 368 512 C196 512 97 421.333 97 264 Z M229 606 L229 612 C277.213 652.178 345.51 723.105 375 766 L406 766 L406 759 C368.699 713.706 308.327 648.154 253 606 L229 606 Z M407 606 L407 612 C455.213 652.178 523.51 723.105 553 766 L584 766 L584 759 C546.699 713.706 486.327 648.154 431 606 L407 606 Z " />
<glyph glyph-name="OE" unicode="&#x152;" horiz-adv-x="720" d="M703 25 L703 0 L445 0 C422.333 0 400.667 -2 370 -2 C151.333 -2 51 119 51 359 C51 571.182 111.719 714 373 714 L450 714 L703 714 L703 690 L391 690 L391 388 L687 388 L687 363 L391 363 L391 25 L703 25 Z M365 23 L365 690 L362 690 C126.182 690 77 545.693 77 359 C77 152.593 163.723 23 362 23 L365 23 Z " />
<glyph glyph-name="oe" unicode="&#x153;" horiz-adv-x="720" d="M681 21 C633 -3 600.667 -10 558 -10 C444.667 -10 390.667 52 372 152 C354.667 57.3333 301 -10 201 -10 C80.9481 -10 23 95.697 23 262 C23 444.667 91.3333 537 210 537 C308.667 537 359.667 469 373 373 C391.678 463.722 442.121 537 538 537 C647.255 537 685 425.671 685 296 L685 268 L390 268 C390 101.333 449.333 14 560 14 C600 14 631.667 21.3333 681 48 L681 21 Z M201 15 C309.416 15 355 125.208 355 265 C355 409 312.844 513 209 513 C103.667 513 51 422.667 51 264 C51 112 98.3333 15 201 15 Z M538 513 C454 513 398 428.667 390 294 L656 294 C656 420.433 620.823 513 538 513 Z " />
<glyph glyph-name="Racute" unicode="&#x154;" horiz-adv-x="720" >
<path fill="black" d="M127 0 L127 714 L329 714 C531.589 714 656 670.203 656 521 C656 407.667 585.333 351 444 327 L698 0 L667 0 L418 320 L153 320 L153 0 L127 0 Z M153 346 L369 346 C511.926 346 629 399.494 629 523 C629 647.312 516.589 689 322 689 L153 689 L153 346 Z " /><g transform="translate(-29,186)" ><path fill="black" d="M330 606 L330 613 C390.568 655.134 476.07 720.747 516 766 L546 766 L546 759 C498.023 713.688 420.561 648.191 352 606 L330 606 Z " /></g></glyph>
<glyph glyph-name="racute" unicode="&#x155;" horiz-adv-x="720" >
<path fill="black" d="M106 21 L330 25 L330 503 L130 507 L130 528 L357 528 L356 412 L360 412 C381.023 480.324 459.476 536 580 536 C622.667 536 671 529.667 699 523 L693 497 C659.667 505 620.333 510 579 510 C429.667 510 356 421 356 281 L356 25 L614 21 L614 0 L106 0 L106 21 Z " /><g transform="translate(28,0)" ><path fill="black" d="M330 606 L330 613 C390.568 655.134 476.07 720.747 516 766 L546 766 L546 759 C498.023 713.688 420.561 648.191 352 606 L330 606 Z " /></g></glyph>
<glyph glyph-name="uni0156" unicode="&#x156;" horiz-adv-x="720" >
<path fill="black" d="M127 0 L127 714 L329 714 C531.589 714 656 670.203 656 521 C656 407.667 585.333 351 444 327 L698 0 L667 0 L418 320 L153 320 L153 0 L127 0 Z M153 346 L369 346 C511.926 346 629 399.494 629 523 C629 647.312 516.589 689 322 689 L153 689 L153 346 Z " /><g transform="translate(1131,0)" ><path fill="black" d="M-794 -221 L-794 -214 C-775.535 -184.983 -740.126 -100.629 -732 -60 L-701 -60 L-701 -67 C-717 -116.333 -740 -175.667 -776 -221 L-794 -221 Z " /></g></glyph>
<glyph glyph-name="uni0157" unicode="&#x157;" horiz-adv-x="720" >
<path fill="black" d="M106 21 L330 25 L330 503 L130 507 L130 528 L357 528 L356 412 L360 412 C381.023 480.324 459.476 536 580 536 C622.667 536 671 529.667 699 523 L693 497 C659.667 505 620.333 510 579 510 C429.667 510 356 421 356 281 L356 25 L614 21 L614 0 L106 0 L106 21 Z " /><g transform="translate(1061,0)" ><path fill="black" d="M-794 -221 L-794 -214 C-775.535 -184.983 -740.126 -100.629 -732 -60 L-701 -60 L-701 -67 C-717 -116.333 -740 -175.667 -776 -221 L-794 -221 Z " /></g></glyph>
<glyph glyph-name="Rcaron" unicode="&#x158;" horiz-adv-x="720" >
<path fill="black" d="M127 0 L127 714 L329 714 C531.589 714 656 670.203 656 521 C656 407.667 585.333 351 444 327 L698 0 L667 0 L418 320 L153 320 L153 0 L127 0 Z M153 346 L369 346 C511.926 346 629 399.494 629 523 C629 647.312 516.589 689 322 689 L153 689 L153 346 Z " /><g transform="translate(0,186)" ><path fill="black" d="M204 763 L225 763 C274.333 727 324 676.667 360 638 C394.667 676.667 447.667 724.333 497 763 L518 763 L518 757 C470.555 717.462 401.07 647.427 370 606 L350 606 C317.871 648.839 249.497 716.856 204 757 L204 763 Z " /></g></glyph>
<glyph glyph-name="rcaron" unicode="&#x159;" horiz-adv-x="720" >
<path fill="black" d="M106 21 L330 25 L330 503 L130 507 L130 528 L357 528 L356 412 L360 412 C381.023 480.324 459.476 536 580 536 C622.667 536 671 529.667 699 523 L693 497 C659.667 505 620.333 510 579 510 C429.667 510 356 421 356 281 L356 25 L614 21 L614 0 L106 0 L106 21 Z " /><g transform="translate(57,0)" ><path fill="black" d="M204 763 L225 763 C274.333 727 324 676.667 360 638 C394.667 676.667 447.667 724.333 497 763 L518 763 L518 757 C470.555 717.462 401.07 647.427 370 606 L350 606 C317.871 648.839 249.497 716.856 204 757 L204 763 Z " /></g></glyph>
<glyph glyph-name="Sacute" unicode="&#x15a;" horiz-adv-x="720" >
<path fill="black" d="M96 47 C164 28.3333 252 15 332 15 C492.104 15 616 67.355 616 181 C616 282.889 516.866 309.636 358 352 C205.062 392.247 104 427.14 104 541 C104 666.359 231.234 724 395 724 C467 724 540 713 616 689 L603 665 C523 691.667 450 699 394 699 C255.411 699 131 654.134 131 543 C131 439.973 236.685 409.662 370 375 C531.065 332.049 643 301.222 643 182 C643 54 514.433 -10 332 -10 C237.333 -10 153.333 4.33333 96 19 L96 47 Z " /><g transform="translate(-5,186)" ><path fill="black" d="M330 606 L330 613 C390.568 655.134 476.07 720.747 516 766 L546 766 L546 759 C498.023 713.688 420.561 648.191 352 606 L330 606 Z " /></g></glyph>
<glyph glyph-name="sacute" unicode="&#x15b;" horiz-adv-x="720" >
<path fill="black" d="M135 54 C203 28.6667 276.667 15 350 15 C503.333 15 563 59.3333 563 130 C563 211.834 470.702 234.325 364 261 C259.148 290.574 157 307.95 157 405 C157 489 236.667 537 382 537 C458 537 523.333 525.333 574 508 L561 484 C515.667 501.333 450 512 382 512 C255.333 512 184 478 184 406 C184 329.204 262.293 314.344 369 285 C494.409 252.981 590 226.915 590 132 C590 44 517.667 -10 351 -10 C263 -10 181.667 8 135 24 L135 54 Z " /><g transform="translate(-28,0)" ><path fill="black" d="M330 606 L330 613 C390.568 655.134 476.07 720.747 516 766 L546 766 L546 759 C498.023 713.688 420.561 648.191 352 606 L330 606 Z " /></g></glyph>
<glyph glyph-name="Scircumflex" unicode="&#x15c;" horiz-adv-x="720" >
<path fill="black" d="M96 47 C164 28.3333 252 15 332 15 C492.104 15 616 67.355 616 181 C616 282.889 516.866 309.636 358 352 C205.062 392.247 104 427.14 104 541 C104 666.359 231.234 724 395 724 C467 724 540 713 616 689 L603 665 C523 691.667 450 699 394 699 C255.411 699 131 654.134 131 543 C131 439.973 236.685 409.662 370 375 C531.065 332.049 643 301.222 643 182 C643 54 514.433 -10 332 -10 C237.333 -10 153.333 4.33333 96 19 L96 47 Z " /><g transform="translate(30,186)" ><path fill="black" d="M197 606 L197 612 C244.683 651.736 313.769 722.711 346 763 L367 763 C398.522 720.971 467.656 649.342 513 612 L513 606 L491 606 C444.333 643.333 393 692.333 357 731 C321 693.667 267 642 219 606 L197 606 Z " /></g></glyph>
<glyph glyph-name="scircumflex" unicode="&#x15d;" horiz-adv-x="720" >
<path fill="black" d="M135 54 C203 28.6667 276.667 15 350 15 C503.333 15 563 59.3333 563 130 C563 211.834 470.702 234.325 364 261 C259.148 290.574 157 307.95 157 405 C157 489 236.667 537 382 537 C458 537 523.333 525.333 574 508 L561 484 C515.667 501.333 450 512 382 512 C255.333 512 184 478 184 406 C184 329.204 262.293 314.344 369 285 C494.409 252.981 590 226.915 590 132 C590 44 517.667 -10 351 -10 C263 -10 181.667 8 135 24 L135 54 Z " /><g transform="translate(7,0)" ><path fill="black" d="M197 606 L197 612 C244.683 651.736 313.769 722.711 346 763 L367 763 C398.522 720.971 467.656 649.342 513 612 L513 606 L491 606 C444.333 643.333 393 692.333 357 731 C321 693.667 267 642 219 606 L197 606 Z " /></g></glyph>
<glyph glyph-name="Scedilla" unicode="&#x15e;" horiz-adv-x="720" d="M213 -210 C235.667 -215.333 257.333 -216 276 -216 C360 -216 405 -191 405 -147 C405 -103 364 -85.3333 268 -84 L317 -10 C229 -7.33333 150.667 5.66667 96 19 L96 47 C164 28.3333 252 15 332 15 C492.104 15 616 67.355 616 181 C616 282.889 516.866 309.636 358 352 C205.062 392.247 104 427.14 104 541 C104 666.359 231.234 724 395 724 C467 724 540 713 616 689 L603 665 C523 691.667 450 699 394 699 C255.411 699 131 654.134 131 543 C131 439.973 236.685 409.662 370 375 C531.065 332.049 643 301.222 643 182 C643 58.6048 520.444 -7.33163 347 -10 L311 -65 C387 -67.6667 432 -95.3333 432 -146 C432 -203.333 372 -240 280 -240 C257.333 -240 233 -238 213 -234 L213 -210 Z " />
<glyph glyph-name="scedilla" unicode="&#x15f;" horiz-adv-x="720" d="M214 -210 C236.667 -215.333 258.333 -216 277 -216 C361 -216 406 -191 406 -147 C406 -103 365 -85.3333 269 -84 L319 -9 C243 -6.33333 176.333 9.33333 135 24 L135 54 C203 28.6667 276.667 15 350 15 C503.333 15 563 59.3333 563 130 C563 211.834 470.702 234.325 364 261 C259.148 290.574 157 307.95 157 405 C157 489 236.667 537 382 537 C458 537 523.333 525.333 574 508 L561 484 C515.667 501.333 450 512 382 512 C255.333 512 184 478 184 406 C184 329.204 262.293 314.344 369 285 C494.409 252.981 590 226.915 590 132 C590 44 517.667 -10 351 -10 L348 -10 L312 -65 C388 -67.6667 433 -95.3333 433 -146 C433 -203.333 373 -240 281 -240 C258.333 -240 234 -238 214 -234 L214 -210 Z " />
<glyph glyph-name="Scaron" unicode="&#x160;" horiz-adv-x="720" >
<path fill="black" d="M96 47 C164 28.3333 252 15 332 15 C492.104 15 616 67.355 616 181 C616 282.889 516.866 309.636 358 352 C205.062 392.247 104 427.14 104 541 C104 666.359 231.234 724 395 724 C467 724 540 713 616 689 L603 665 C523 691.667 450 699 394 699 C255.411 699 131 654.134 131 543 C131 439.973 236.685 409.662 370 375 C531.065 332.049 643 301.222 643 182 C643 54 514.433 -10 332 -10 C237.333 -10 153.333 4.33333 96 19 L96 47 Z " /><g transform="translate(24,186)" ><path fill="black" d="M204 763 L225 763 C274.333 727 324 676.667 360 638 C394.667 676.667 447.667 724.333 497 763 L518 763 L518 757 C470.555 717.462 401.07 647.427 370 606 L350 606 C317.871 648.839 249.497 716.856 204 757 L204 763 Z " /></g></glyph>
<glyph glyph-name="scaron" unicode="&#x161;" horiz-adv-x="720" >
<path fill="black" d="M135 54 C203 28.6667 276.667 15 350 15 C503.333 15 563 59.3333 563 130 C563 211.834 470.702 234.325 364 261 C259.148 290.574 157 307.95 157 405 C157 489 236.667 537 382 537 C458 537 523.333 525.333 574 508 L561 484 C515.667 501.333 450 512 382 512 C255.333 512 184 478 184 406 C184 329.204 262.293 314.344 369 285 C494.409 252.981 590 226.915 590 132 C590 44 517.667 -10 351 -10 C263 -10 181.667 8 135 24 L135 54 Z " /><g transform="translate(1,0)" ><path fill="black" d="M204 763 L225 763 C274.333 727 324 676.667 360 638 C394.667 676.667 447.667 724.333 497 763 L518 763 L518 757 C470.555 717.462 401.07 647.427 370 606 L350 606 C317.871 648.839 249.497 716.856 204 757 L204 763 Z " /></g></glyph>
<glyph glyph-name="uni0162" unicode="&#x162;" horiz-adv-x="720" d="M212 -210 C234.667 -215.333 256.333 -216 275 -216 C359 -216 404 -191 404 -147 C404 -103 363 -85.3333 267 -84 L323 0 L348 0 L348 689 L44 689 L44 714 L679 714 L679 689 L374 689 L374 0 L353 0 L310 -65 C386 -67.6667 431 -95.3333 431 -146 C431 -203.333 371 -240 279 -240 C256.333 -240 232 -238 212 -234 L212 -210 Z " />
<glyph glyph-name="uni0163" unicode="&#x163;" horiz-adv-x="720" d="M326 -210 C348.667 -215.333 370.333 -216 389 -216 C473 -216 518 -191 518 -147 C518 -103 477 -85.3333 381 -84 L435 -4 C337.256 17.1338 310 83.1832 310 180 L310 503 L92 503 L92 524 L309 528 L314 659 L336 659 L336 528 L614 528 L614 503 L336 503 L336 183 C336 75.3636 371.797 15 505 15 C547.667 15 577 20 605 28 L605 3 C578.333 -3.66667 551.333 -10 506 -10 C490 -10 475.333 -9.33333 462 -8 L424 -65 C500 -67.6667 545 -95.3333 545 -146 C545 -203.333 485 -240 393 -240 C370.333 -240 346 -238 326 -234 L326 -210 Z " />
<glyph glyph-name="Tcaron" unicode="&#x164;" horiz-adv-x="720" >
<path fill="black" d="M348 0 L348 689 L44 689 L44 714 L679 714 L679 689 L374 689 L374 0 L348 0 Z " /><g transform="translate(0,186)" ><path fill="black" d="M204 763 L225 763 C274.333 727 324 676.667 360 638 C394.667 676.667 447.667 724.333 497 763 L518 763 L518 757 C470.555 717.462 401.07 647.427 370 606 L350 606 C317.871 648.839 249.497 716.856 204 757 L204 763 Z " /></g></glyph>
<glyph glyph-name="tcaron" unicode="&#x165;" horiz-adv-x="720" >
<g transform="translate(-22,0)" ><path fill="black" d="M310 503 L92 503 L92 524 L309 528 L314 659 L336 659 L336 528 L614 528 L614 503 L336 503 L336 183 C336 75.3636 371.797 15 505 15 C547.667 15 577 20 605 28 L605 3 C578.333 -3.66667 551.333 -10 506 -10 C350.468 -10 310 61.645 310 180 L310 503 Z " /></g><g transform="translate(1252,820)" ><path fill="black" d="M-794 -221 L-794 -214 C-775.535 -184.983 -740.126 -100.629 -732 -60 L-701 -60 L-701 -67 C-717 -116.333 -740 -175.667 -776 -221 L-794 -221 Z " /></g></glyph>
<glyph glyph-name="Tbar" unicode="&#x166;" horiz-adv-x="720" d="M348 356 L117 356 L117 381 L348 381 L348 689 L44 689 L44 714 L679 714 L679 689 L374 689 L374 381 L607 381 L607 356 L374 356 L374 0 L348 0 L348 356 Z " />
<glyph glyph-name="tbar" unicode="&#x167;" horiz-adv-x="720" d="M310 285 L92 285 L92 310 L310 310 L310 503 L92 503 L92 524 L309 528 L314 659 L336 659 L336 528 L614 528 L614 503 L336 503 L336 310 L615 310 L615 285 L336 285 L336 183 C336 75.3636 371.797 15 505 15 C547.667 15 577 20 605 28 L605 3 C578.333 -3.66667 551.333 -10 506 -10 C350.468 -10 310 61.645 310 180 L310 285 Z " />
<glyph glyph-name="Utilde" unicode="&#x168;" horiz-adv-x="720" >
<path fill="black" d="M99 714 L125 714 L125 253 C125 93 198 15 358 15 C508.667 15 598 88 598 252 L598 714 L624 714 L624 246 C624 70.9697 520.468 -10 356 -10 C181.333 -10 99 78.3333 99 249 L99 714 Z " /><g transform="translate(0,186)" ><path fill="black" d="M153 620 C159.667 685.333 202 717 266 717 C351.327 717 384.105 643 455 643 C493.183 643 531.987 658.24 540 717 L570 717 C563.333 651.667 518 619 454 619 C364.895 619 340.34 693 263 693 C229.416 693 188.322 678.541 183 620 L153 620 Z " /></g></glyph>
<glyph glyph-name="utilde" unicode="&#x169;" horiz-adv-x="720" >
<path fill="black" d="M108 528 L134 528 L134 193 C134 67.6667 207.333 15 338 15 C478.494 15 581 82.1818 581 226 L581 528 L607 528 L607 0 L586 0 L583 112 L581 112 C554.368 50.7469 483.891 -10 339 -10 C185.667 -10 108 57.3333 108 188 L108 528 Z " /><path fill="black" d="M153 620 C159.667 685.333 202 717 266 717 C351.327 717 384.105 643 455 643 C493.183 643 531.987 658.24 540 717 L570 717 C563.333 651.667 518 619 454 619 C364.895 619 340.34 693 263 693 C229.416 693 188.322 678.541 183 620 L153 620 Z " /></glyph>
<glyph glyph-name="Umacron" unicode="&#x16a;" horiz-adv-x="720" >
<path fill="black" d="M99 714 L125 714 L125 253 C125 93 198 15 358 15 C508.667 15 598 88 598 252 L598 714 L624 714 L624 246 C624 70.9697 520.468 -10 356 -10 C181.333 -10 99 78.3333 99 249 L99 714 Z " /><g transform="translate(1,186)" ><path fill="black" d="M198 653 L522 653 L522 629 L198 629 L198 653 Z " /></g></glyph>
<glyph glyph-name="umacron" unicode="&#x16b;" horiz-adv-x="720" >
<path fill="black" d="M108 528 L134 528 L134 193 C134 67.6667 207.333 15 338 15 C478.494 15 581 82.1818 581 226 L581 528 L607 528 L607 0 L586 0 L583 112 L581 112 C554.368 50.7469 483.891 -10 339 -10 C185.667 -10 108 57.3333 108 188 L108 528 Z " /><g transform="translate(1,0)" ><path fill="black" d="M198 653 L522 653 L522 629 L198 629 L198 653 Z " /></g></glyph>
<glyph glyph-name="Ubreve" unicode="&#x16c;" horiz-adv-x="720" >
<path fill="black" d="M99 714 L125 714 L125 253 C125 93 198 15 358 15 C508.667 15 598 88 598 252 L598 714 L624 714 L624 246 C624 70.9697 520.468 -10 356 -10 C181.333 -10 99 78.3333 99 249 L99 714 Z " /><g transform="translate(1,193)" ><path fill="black" d="M234 717 C240.667 665 282.333 630 361 630 C439.667 630 479.333 665 486 717 L514 717 C503.333 645 446.667 607 360 607 C276 607 212.667 645 206 717 L234 717 Z " /></g></glyph>
<glyph glyph-name="ubreve" unicode="&#x16d;" horiz-adv-x="720" >
<path fill="black" d="M108 528 L134 528 L134 193 C134 67.6667 207.333 15 338 15 C478.494 15 581 82.1818 581 226 L581 528 L607 528 L607 0 L586 0 L583 112 L581 112 C554.368 50.7469 483.891 -10 339 -10 C185.667 -10 108 57.3333 108 188 L108 528 Z " /><g transform="translate(1,7)" ><path fill="black" d="M234 717 C240.667 665 282.333 630 361 630 C439.667 630 479.333 665 486 717 L514 717 C503.333 645 446.667 607 360 607 C276 607 212.667 645 206 717 L234 717 Z " /></g></glyph>
<glyph glyph-name="Uring" unicode="&#x16e;" horiz-adv-x="720" >
<path fill="black" d="M99 714 L125 714 L125 253 C125 93 198 15 358 15 C508.667 15 598 88 598 252 L598 714 L624 714 L624 246 C624 70.9697 520.468 -10 356 -10 C181.333 -10 99 78.3333 99 249 L99 714 Z " /><g transform="translate(0,186)" ><path fill="black" d="M231 708 C231 769.333 288.026 808 360 808 C432.892 808 491 766.723 491 709 C491 650.255 432.844 612 361 612 C294.281 612 231 646.563 231 708 Z M258 709 C258 665 299.667 634 361 634 C422.333 634 463 666 463 710 C463 752.667 422.333 786 361 786 C297 786 258 753 258 709 Z " /></g></glyph>
<glyph glyph-name="uring" unicode="&#x16f;" horiz-adv-x="720" >
<path fill="black" d="M108 528 L134 528 L134 193 C134 67.6667 207.333 15 338 15 C478.494 15 581 82.1818 581 226 L581 528 L607 528 L607 0 L586 0 L583 112 L581 112 C554.368 50.7469 483.891 -10 339 -10 C185.667 -10 108 57.3333 108 188 L108 528 Z " /><path fill="black" d="M231 708 C231 769.333 288.026 808 360 808 C432.892 808 491 766.723 491 709 C491 650.255 432.844 612 361 612 C294.281 612 231 646.563 231 708 Z M258 709 C258 665 299.667 634 361 634 C422.333 634 463 666 463 710 C463 752.667 422.333 786 361 786 C297 786 258 753 258 709 Z " /></glyph>
<glyph glyph-name="Uhungarumlaut" unicode="&#x170;" horiz-adv-x="720" d="M99 714 L125 714 L125 253 C125 93 198 15 358 15 C508.667 15 598 88 598 252 L598 714 L624 714 L624 246 C624 70.9697 520.468 -10 356 -10 C181.333 -10 99 78.3333 99 249 L99 714 Z M229 792 L229 798 C277.213 838.178 345.51 909.105 375 952 L406 952 L406 945 C368.699 899.706 308.327 834.154 253 792 L229 792 Z M407 792 L407 798 C455.213 838.178 523.51 909.105 553 952 L584 952 L584 945 C546.699 899.706 486.327 834.154 431 792 L407 792 Z " />
<glyph glyph-name="uhungarumlaut" unicode="&#x171;" horiz-adv-x="720" d="M108 528 L134 528 L134 193 C134 67.6667 207.333 15 338 15 C478.494 15 581 82.1818 581 226 L581 528 L607 528 L607 0 L586 0 L583 112 L581 112 C554.368 50.7469 483.891 -10 339 -10 C185.667 -10 108 57.3333 108 188 L108 528 Z M229 606 L229 612 C277.213 652.178 345.51 723.105 375 766 L406 766 L406 759 C368.699 713.706 308.327 648.154 253 606 L229 606 Z M407 606 L407 612 C455.213 652.178 523.51 723.105 553 766 L584 766 L584 759 C546.699 713.706 486.327 648.154 431 606 L407 606 Z " />
<glyph glyph-name="Uogonek" unicode="&#x172;" horiz-adv-x="720" d="M454 -209 C442 -213 418 -217 394 -217 C334 -217 288 -193 288 -137 C288 -79.6667 338.667 -45.6667 408 -7 C392 -9 374.667 -10 356 -10 C181.333 -10 99 78.3333 99 249 L99 714 L125 714 L125 253 C125 93 198 15 358 15 C508.667 15 598 88 598 252 L598 714 L624 714 L624 246 C624 120.667 572.333 45.6667 483 11 C410.91 -29.0497 316 -69.3169 316 -135 C316 -171 341.333 -192 396 -192 C416 -192 440.667 -188.667 454 -186 L454 -209 Z " />
<glyph glyph-name="uogonek" unicode="&#x173;" horiz-adv-x="720" d="M86 528 L112 528 L112 193 C112 67.6667 185.333 15 316 15 C456.494 15 559 82.1818 559 226 L559 528 L585 528 L585 1 L586 0 C524.502 -37.4336 464 -82.2262 464 -132 C464 -172 489.333 -192 540 -192 C565.333 -192 588.667 -188.667 602 -186 L602 -209 C588.667 -213 566.667 -217 540 -217 C481.333 -217 435 -190.667 435 -136 C435 -88 470.667 -41.6667 564 9 L561 112 L559 112 C532.368 50.7469 461.891 -10 317 -10 C163.667 -10 86 57.3333 86 188 L86 528 Z " />
<glyph glyph-name="Wcircumflex" unicode="&#x174;" horiz-adv-x="720" >
<path fill="black" d="M203 29 C211.256 70.2783 213.497 91.204 232 152 L345 528 L375 528 L486 155 C500.667 104.333 506.333 74.6667 517 28 L520 28 C530.667 74.6667 534.667 109.667 544 155 C582.667 341.667 625 526 665 714 L693 714 L537 0 L498 0 L388 385 C377.183 428.266 372.752 446.992 362 490 L360 490 C349.226 446.905 344.377 427.806 331 385 L221 0 L181 0 L29 714 L57 714 C97 526 137.333 340 176 152 C189.105 94.3387 194.635 69.2371 200 29 L203 29 Z " /><g transform="translate(6,186)" ><path fill="black" d="M197 606 L197 612 C244.683 651.736 313.769 722.711 346 763 L367 763 C398.522 720.971 467.656 649.342 513 612 L513 606 L491 606 C444.333 643.333 393 692.333 357 731 C321 693.667 267 642 219 606 L197 606 Z " /></g></glyph>
<glyph glyph-name="wcircumflex" unicode="&#x175;" horiz-adv-x="720" >
<path fill="black" d="M198 39 C208.667 69.6667 218.333 98 241 154 L357 426 L381 426 L497 153 C519.667 99.6667 528 71 540 39 L543 39 C549.667 73.6667 554.667 98.3333 572 153 L686 528 L712 528 L552 0 L533 0 L409 286 C394.333 320 381 355 369 391 L366 391 C355.333 353.667 342.333 318 329 286 L206 0 L185 0 L9 528 L35 528 L162 154 C180.667 96.6667 185.667 71 195 39 L198 39 Z " /><g transform="translate(14,0)" ><path fill="black" d="M197 606 L197 612 C244.683 651.736 313.769 722.711 346 763 L367 763 C398.522 720.971 467.656 649.342 513 612 L513 606 L491 606 C444.333 643.333 393 692.333 357 731 C321 693.667 267 642 219 606 L197 606 Z " /></g></glyph>
<glyph glyph-name="Ycircumflex" unicode="&#x176;" horiz-adv-x="720" >
<path fill="black" d="M350 0 L350 272 L42 714 L70 714 L363 297 L650 714 L680 714 L376 273 L376 0 L350 0 Z " /><g transform="translate(6,186)" ><path fill="black" d="M197 606 L197 612 C244.683 651.736 313.769 722.711 346 763 L367 763 C398.522 720.971 467.656 649.342 513 612 L513 606 L491 606 C444.333 643.333 393 692.333 357 731 C321 693.667 267 642 219 606 L197 606 Z " /></g></glyph>
<glyph glyph-name="ycircumflex" unicode="&#x177;" horiz-adv-x="720" >
<path fill="black" d="M87 -210 C112.333 -216.667 130 -221 154 -221 C218 -221 253.667 -190.667 295 -108 L350 7 L99 528 L127 528 L306 161 C335.297 102.406 346.241 77.7705 362 41 L365 41 C381 81 395.667 106.333 425 165 L604 528 L632 528 L317 -117 C274.333 -205 233 -246 153 -246 C131.667 -246 109.667 -242.667 87 -236 L87 -210 Z " /><g transform="translate(5,0)" ><path fill="black" d="M197 606 L197 612 C244.683 651.736 313.769 722.711 346 763 L367 763 C398.522 720.971 467.656 649.342 513 612 L513 606 L491 606 C444.333 643.333 393 692.333 357 731 C321 693.667 267 642 219 606 L197 606 Z " /></g></glyph>
<glyph glyph-name="Ydieresis" unicode="&#x178;" horiz-adv-x="720" >
<g transform="translate(1,183)" ><path fill="black" d="M236 641 C210.667 641 206 656 206 676 C206 694.667 210.667 711 236 711 C266.667 711 269 693.333 269 676 C269 657.333 266.667 641 236 641 Z M483 641 C456.333 641 451 656 451 676 C451 694.667 456.333 711 483 711 C512.333 711 514 694.667 514 676 C514 657.333 512.333 641 483 641 Z " /></g><path fill="black" d="M350 0 L350 272 L42 714 L70 714 L363 297 L650 714 L680 714 L376 273 L376 0 L350 0 Z " /></glyph>
<glyph glyph-name="Zacute" unicode="&#x179;" horiz-adv-x="720" >
<path fill="black" d="M127 19 L561 689 L163 689 L163 714 L596 714 L596 695 L161 25 L613 25 L613 0 L127 0 L127 19 Z " /><g transform="translate(-7,186)" ><path fill="black" d="M330 606 L330 613 C390.568 655.134 476.07 720.747 516 766 L546 766 L546 759 C498.023 713.688 420.561 648.191 352 606 L330 606 Z " /></g></glyph>
<glyph glyph-name="zacute" unicode="&#x17a;" horiz-adv-x="720" >
<path fill="black" d="M128 18 L554 503 L163 503 L163 528 L595 528 L595 512 L165 25 L590 25 L590 0 L128 0 L128 18 Z " /><g transform="translate(-16,0)" ><path fill="black" d="M330 606 L330 613 C390.568 655.134 476.07 720.747 516 766 L546 766 L546 759 C498.023 713.688 420.561 648.191 352 606 L330 606 Z " /></g></glyph>
<glyph glyph-name="Zdotaccent" unicode="&#x17b;" horiz-adv-x="720" >
<path fill="black" d="M127 19 L561 689 L163 689 L163 714 L596 714 L596 695 L161 25 L613 25 L613 0 L127 0 L127 19 Z " /><g transform="translate(23,186)" ><path fill="black" d="M323 697 C323 715.667 327.667 734 361 734 C391.667 734 396 715.667 396 697 C396 678.333 394.333 660 361 660 C329 660 323 677 323 697 Z " /></g></glyph>
<glyph glyph-name="zdotaccent" unicode="&#x17c;" horiz-adv-x="720" >
<path fill="black" d="M128 18 L554 503 L163 503 L163 528 L595 528 L595 512 L165 25 L590 25 L590 0 L128 0 L128 18 Z " /><g transform="translate(14,0)" ><path fill="black" d="M323 697 C323 715.667 327.667 734 361 734 C391.667 734 396 715.667 396 697 C396 678.333 394.333 660 361 660 C329 660 323 677 323 697 Z " /></g></glyph>
<glyph glyph-name="Zcaron" unicode="&#x17d;" horiz-adv-x="720" >
<path fill="black" d="M127 19 L561 689 L163 689 L163 714 L596 714 L596 695 L161 25 L613 25 L613 0 L127 0 L127 19 Z " /><g transform="translate(22,186)" ><path fill="black" d="M204 763 L225 763 C274.333 727 324 676.667 360 638 C394.667 676.667 447.667 724.333 497 763 L518 763 L518 757 C470.555 717.462 401.07 647.427 370 606 L350 606 C317.871 648.839 249.497 716.856 204 757 L204 763 Z " /></g></glyph>
<glyph glyph-name="zcaron" unicode="&#x17e;" horiz-adv-x="720" >
<path fill="black" d="M128 18 L554 503 L163 503 L163 528 L595 528 L595 512 L165 25 L590 25 L590 0 L128 0 L128 18 Z " /><g transform="translate(13,0)" ><path fill="black" d="M204 763 L225 763 C274.333 727 324 676.667 360 638 C394.667 676.667 447.667 724.333 497 763 L518 763 L518 757 C470.555 717.462 401.07 647.427 370 606 L350 606 C317.871 648.839 249.497 716.856 204 757 L204 763 Z " /></g></glyph>
<glyph glyph-name="longs" unicode="&#x17f;" horiz-adv-x="720" d="M320 0 L320 563 C320 685.667 393 765 545 765 C575.667 765 601 762.667 629 756 L627 731 C600.333 737.667 579.667 740 545 740 C412.333 740 346 680 346 560 L346 0 L320 0 Z " />
<glyph glyph-name="florin" unicode="&#x192;" horiz-adv-x="720" d="M116 -205 C144 -211.667 170 -215 202 -215 C287.333 -215 327 -171 327 -91 L327 423 L199 423 L199 445 L327 448 L327 542 C327 659.333 382.667 724 516 724 C549.333 724 578.667 721.333 616 712 L609 688 C579.667 696 549.667 699 511 699 C403 699 354 652.333 354 539 L354 448 L531 448 L531 423 L353 423 L353 -94 C353 -180.667 305.667 -240 203 -240 C161.667 -240 136 -235 116 -231 L116 -205 Z " />
<glyph glyph-name="uni0218" unicode="&#x218;" horiz-adv-x="720" >
<path fill="black" d="M96 47 C164 28.3333 252 15 332 15 C492.104 15 616 67.355 616 181 C616 282.889 516.866 309.636 358 352 C205.062 392.247 104 427.14 104 541 C104 666.359 231.234 724 395 724 C467 724 540 713 616 689 L603 665 C523 691.667 450 699 394 699 C255.411 699 131 654.134 131 543 C131 439.973 236.685 409.662 370 375 C531.065 332.049 643 301.222 643 182 C643 54 514.433 -10 332 -10 C237.333 -10 153.333 4.33333 96 19 L96 47 Z " /><g transform="translate(1081,0)" ><path fill="black" d="M-794 -221 L-794 -214 C-775.535 -184.983 -740.126 -100.629 -732 -60 L-701 -60 L-701 -67 C-717 -116.333 -740 -175.667 -776 -221 L-794 -221 Z " /></g></glyph>
<glyph glyph-name="uni0219" unicode="&#x219;" horiz-adv-x="720" >
<path fill="black" d="M135 54 C203 28.6667 276.667 15 350 15 C503.333 15 563 59.3333 563 130 C563 211.834 470.702 234.325 364 261 C259.148 290.574 157 307.95 157 405 C157 489 236.667 537 382 537 C458 537 523.333 525.333 574 508 L561 484 C515.667 501.333 450 512 382 512 C255.333 512 184 478 184 406 C184 329.204 262.293 314.344 369 285 C494.409 252.981 590 226.915 590 132 C590 44 517.667 -10 351 -10 C263 -10 181.667 8 135 24 L135 54 Z " /><g transform="translate(1082,0)" ><path fill="black" d="M-794 -221 L-794 -214 C-775.535 -184.983 -740.126 -100.629 -732 -60 L-701 -60 L-701 -67 C-717 -116.333 -740 -175.667 -776 -221 L-794 -221 Z " /></g></glyph>
<glyph glyph-name="uni021A" unicode="&#x21a;" horiz-adv-x="720" >
<path fill="black" d="M348 0 L348 689 L44 689 L44 714 L679 714 L679 689 L374 689 L374 0 L348 0 Z " /><g transform="translate(1080,0)" ><path fill="black" d="M-794 -221 L-794 -214 C-775.535 -184.983 -740.126 -100.629 -732 -60 L-701 -60 L-701 -67 C-717 -116.333 -740 -175.667 -776 -221 L-794 -221 Z " /></g></glyph>
<glyph glyph-name="uni021B" unicode="&#x21b;" horiz-adv-x="720" >
<path fill="black" d="M310 503 L92 503 L92 524 L309 528 L314 659 L336 659 L336 528 L614 528 L614 503 L336 503 L336 183 C336 75.3636 371.797 15 505 15 C547.667 15 577 20 605 28 L605 3 C578.333 -3.66667 551.333 -10 506 -10 C350.468 -10 310 61.645 310 180 L310 503 Z " /><g transform="translate(1194,0)" ><path fill="black" d="M-794 -221 L-794 -214 C-775.535 -184.983 -740.126 -100.629 -732 -60 L-701 -60 L-701 -67 C-717 -116.333 -740 -175.667 -776 -221 L-794 -221 Z " /></g></glyph>
<glyph glyph-name="uni0237" unicode="&#x237;" horiz-adv-x="722" d="M78 -201 C102.409 -209.136 183.998 -222 236 -222 C349.333 -222 404 -169 404 -81 L404 503 L157 507 L157 528 L430 528 L430 -88 C430 -196 350 -248 234 -248 C168.294 -248 96.814 -233.375 78 -228 L78 -201 Z " />
<glyph glyph-name="circumflex" unicode="&#x2c6;" horiz-adv-x="720" d="M197 606 L197 612 C244.683 651.736 313.769 722.711 346 763 L367 763 C398.522 720.971 467.656 649.342 513 612 L513 606 L491 606 C444.333 643.333 393 692.333 357 731 C321 693.667 267 642 219 606 L197 606 Z " />
<glyph glyph-name="caron" unicode="&#x2c7;" horiz-adv-x="720" d="M204 763 L225 763 C274.333 727 324 676.667 360 638 C394.667 676.667 447.667 724.333 497 763 L518 763 L518 757 C470.555 717.462 401.07 647.427 370 606 L350 606 C317.871 648.839 249.497 716.856 204 757 L204 763 Z " />
<glyph glyph-name="uni02C9" unicode="&#x2c9;" horiz-adv-x="720" >
<g transform="translate(1,0)" ><path fill="black" d="M198 653 L522 653 L522 629 L198 629 L198 653 Z " /></g></glyph>
<glyph glyph-name="breve" unicode="&#x2d8;" horiz-adv-x="720" d="M234 717 C240.667 665 282.333 630 361 630 C439.667 630 479.333 665 486 717 L514 717 C503.333 645 446.667 607 360 607 C276 607 212.667 645 206 717 L234 717 Z " />
<glyph glyph-name="dotaccent" unicode="&#x2d9;" horiz-adv-x="720" d="M323 697 C323 715.667 327.667 734 361 734 C391.667 734 396 715.667 396 697 C396 678.333 394.333 660 361 660 C329 660 323 677 323 697 Z " />
<glyph glyph-name="ring" unicode="&#x2da;" horiz-adv-x="720" d="M231 708 C231 769.333 288.026 808 360 808 C432.892 808 491 766.723 491 709 C491 650.255 432.844 612 361 612 C294.281 612 231 646.563 231 708 Z M258 709 C258 665 299.667 634 361 634 C422.333 634 463 666 463 710 C463 752.667 422.333 786 361 786 C297 786 258 753 258 709 Z " />
<glyph glyph-name="ogonek" unicode="&#x2db;" horiz-adv-x="720" d="M444 -209 C430.667 -213 408.667 -217 382 -217 C323.333 -217 277 -190.667 277 -136 C277 -86.6667 313 -39.6667 409 11 L428 0 C366.502 -37.4336 306 -82.2262 306 -132 C306 -172 331.333 -192 382 -192 C407.333 -192 430.667 -188.667 444 -186 L444 -209 Z " />
<glyph glyph-name="tilde" unicode="&#x2dc;" horiz-adv-x="720" d="M153 620 C159.667 685.333 202 717 266 717 C351.327 717 384.105 643 455 643 C493.183 643 531.987 658.24 540 717 L570 717 C563.333 651.667 518 619 454 619 C364.895 619 340.34 693 263 693 C229.416 693 188.322 678.541 183 620 L153 620 Z " />
<glyph glyph-name="hungarumlaut" unicode="&#x2dd;" horiz-adv-x="720" d="M227 606 L227 612 C275.213 652.178 343.51 723.105 373 766 L404 766 L404 759 C366.699 713.706 306.327 648.154 251 606 L227 606 Z M405 606 L405 612 C453.213 652.178 521.51 723.105 551 766 L582 766 L582 759 C544.699 713.706 484.327 648.154 429 606 L405 606 Z " />
<glyph glyph-name="uni0394" unicode="&#x394;" horiz-adv-x="720" d="M4 15 L348 714 L374 714 L718 14 L718 0 L4 0 L4 15 Z M39 25 L682 25 L415 558 C392.333 604.667 370.667 656.333 360 683 C349.333 655 330.667 609.667 308 563 L39 25 Z " />
<glyph glyph-name="uni03A9" unicode="&#x3a9;" horiz-adv-x="720" d="M20 25 L238 25 C133.396 92.054 50 195.837 50 381 C50 604.03 175.381 725 361 725 C548.688 725 671 613.662 671 378 C671 191.265 594.978 88.9873 483 25 L700 25 L700 0 L432 0 L432 20 C569.333 88 644 200.333 644 379 C644 594.004 526.312 700 362 700 C195.1 700 77 588.251 77 382 C77 196.733 171.218 83.5063 285 20 L285 0 L20 0 L20 25 Z " />
<glyph glyph-name="uni03BC" unicode="&#x3bc;" horiz-adv-x="720" >
<path fill="black" d="M108 86 C93.3333 113.333 86 147.333 86 188 L86 528 L112 528 L112 227 L134 227 L134 95 C164.667 39 226.667 15 316 15 C456.494 15 559 82.1818 559 226 L559 528 L585 528 L585 0 L564 0 L561 112 L559 112 C532.368 50.7469 461.891 -10 317 -10 C233 -10 172 10 134 50 L134 -240 L108 -240 L108 86 Z " /></glyph>
<glyph glyph-name="pi" unicode="&#x3c0;" horiz-adv-x="720" d="M170 505 L34 505 L34 523 L144 528 L688 528 L688 505 L546 505 L546 100 C546 44 568 16 632 16 C657.333 16 671 18.3333 683 21 L683 -4 C671 -6.66667 651.667 -9 629 -9 C558.333 -9 520 24 520 92 L520 505 L197 505 L197 0 L170 0 L170 505 Z " />
<glyph glyph-name="Wgrave" unicode="&#x1e80;" horiz-adv-x="720" >
<path fill="black" d="M203 29 C211.256 70.2783 213.497 91.204 232 152 L345 528 L375 528 L486 155 C500.667 104.333 506.333 74.6667 517 28 L520 28 C530.667 74.6667 534.667 109.667 544 155 C582.667 341.667 625 526 665 714 L693 714 L537 0 L498 0 L388 385 C377.183 428.266 372.752 446.992 362 490 L360 490 C349.226 446.905 344.377 427.806 331 385 L221 0 L181 0 L29 714 L57 714 C97 526 137.333 340 176 152 C189.105 94.3387 194.635 69.2371 200 29 L203 29 Z " /><g transform="translate(-50,186)" ><path fill="black" d="M245 766 L275 766 C314.331 721.425 401.865 653.319 461 613 L461 606 L438 606 C370.345 649.299 292.591 714.053 245 759 L245 766 Z " /></g></glyph>
<glyph glyph-name="wgrave" unicode="&#x1e81;" horiz-adv-x="720" >
<path fill="black" d="M198 39 C208.667 69.6667 218.333 98 241 154 L357 426 L381 426 L497 153 C519.667 99.6667 528 71 540 39 L543 39 C549.667 73.6667 554.667 98.3333 572 153 L686 528 L712 528 L552 0 L533 0 L409 286 C394.333 320 381 355 369 391 L366 391 C355.333 353.667 342.333 318 329 286 L206 0 L185 0 L9 528 L35 528 L162 154 C180.667 96.6667 185.667 71 195 39 L198 39 Z " /><g transform="translate(-42,0)" ><path fill="black" d="M245 766 L275 766 C314.331 721.425 401.865 653.319 461 613 L461 606 L438 606 C370.345 649.299 292.591 714.053 245 759 L245 766 Z " /></g></glyph>
<glyph glyph-name="Wacute" unicode="&#x1e82;" horiz-adv-x="720" >
<path fill="black" d="M203 29 C211.256 70.2783 213.497 91.204 232 152 L345 528 L375 528 L486 155 C500.667 104.333 506.333 74.6667 517 28 L520 28 C530.667 74.6667 534.667 109.667 544 155 C582.667 341.667 625 526 665 714 L693 714 L537 0 L498 0 L388 385 C377.183 428.266 372.752 446.992 362 490 L360 490 C349.226 446.905 344.377 427.806 331 385 L221 0 L181 0 L29 714 L57 714 C97 526 137.333 340 176 152 C189.105 94.3387 194.635 69.2371 200 29 L203 29 Z " /><g transform="translate(-29,186)" ><path fill="black" d="M330 606 L330 613 C390.568 655.134 476.07 720.747 516 766 L546 766 L546 759 C498.023 713.688 420.561 648.191 352 606 L330 606 Z " /></g></glyph>
<glyph glyph-name="wacute" unicode="&#x1e83;" horiz-adv-x="720" >
<path fill="black" d="M198 39 C208.667 69.6667 218.333 98 241 154 L357 426 L381 426 L497 153 C519.667 99.6667 528 71 540 39 L543 39 C549.667 73.6667 554.667 98.3333 572 153 L686 528 L712 528 L552 0 L533 0 L409 286 C394.333 320 381 355 369 391 L366 391 C355.333 353.667 342.333 318 329 286 L206 0 L185 0 L9 528 L35 528 L162 154 C180.667 96.6667 185.667 71 195 39 L198 39 Z " /><g transform="translate(-21,0)" ><path fill="black" d="M330 606 L330 613 C390.568 655.134 476.07 720.747 516 766 L546 766 L546 759 C498.023 713.688 420.561 648.191 352 606 L330 606 Z " /></g></glyph>
<glyph glyph-name="Wdieresis" unicode="&#x1e84;" horiz-adv-x="720" >
<g transform="translate(1,183)" ><path fill="black" d="M236 641 C210.667 641 206 656 206 676 C206 694.667 210.667 711 236 711 C266.667 711 269 693.333 269 676 C269 657.333 266.667 641 236 641 Z M483 641 C456.333 641 451 656 451 676 C451 694.667 456.333 711 483 711 C512.333 711 514 694.667 514 676 C514 657.333 512.333 641 483 641 Z " /></g><path fill="black" d="M203 29 C211.256 70.2783 213.497 91.204 232 152 L345 528 L375 528 L486 155 C500.667 104.333 506.333 74.6667 517 28 L520 28 C530.667 74.6667 534.667 109.667 544 155 C582.667 341.667 625 526 665 714 L693 714 L537 0 L498 0 L388 385 C377.183 428.266 372.752 446.992 362 490 L360 490 C349.226 446.905 344.377 427.806 331 385 L221 0 L181 0 L29 714 L57 714 C97 526 137.333 340 176 152 C189.105 94.3387 194.635 69.2371 200 29 L203 29 Z " /></glyph>
<glyph glyph-name="wdieresis" unicode="&#x1e85;" horiz-adv-x="720" >
<g transform="translate(9,-3)" ><path fill="black" d="M236 641 C210.667 641 206 656 206 676 C206 694.667 210.667 711 236 711 C266.667 711 269 693.333 269 676 C269 657.333 266.667 641 236 641 Z M483 641 C456.333 641 451 656 451 676 C451 694.667 456.333 711 483 711 C512.333 711 514 694.667 514 676 C514 657.333 512.333 641 483 641 Z " /></g><path fill="black" d="M198 39 C208.667 69.6667 218.333 98 241 154 L357 426 L381 426 L497 153 C519.667 99.6667 528 71 540 39 L543 39 C549.667 73.6667 554.667 98.3333 572 153 L686 528 L712 528 L552 0 L533 0 L409 286 C394.333 320 381 355 369 391 L366 391 C355.333 353.667 342.333 318 329 286 L206 0 L185 0 L9 528 L35 528 L162 154 C180.667 96.6667 185.667 71 195 39 L198 39 Z " /></glyph>
<glyph glyph-name="uni2010" unicode="&#x2010;" horiz-adv-x="722" >
<g transform="translate(-22,0)" ><path fill="black" d="M169 290 L553 290 L553 265 L169 265 L169 290 Z " /></g></glyph>
<glyph glyph-name="endash" unicode="&#x2013;" horiz-adv-x="720" d="M103 290 L618 290 L618 265 L103 265 L103 290 Z " />
<glyph glyph-name="emdash" unicode="&#x2014;" horiz-adv-x="720" >
<g transform="translate(0,376)" ><path fill="black" d="M-22 -86 L744 -86 L744 -111 L-22 -111 L-22 -86 Z " /></g></glyph>
<glyph glyph-name="quoteleft" unicode="&#x2018;" horiz-adv-x="720" >
<g transform="translate(-1,0)" ><path fill="black" d="M315 472 L307 482 C321.667 562 357.333 644.667 400 714 L416 714 C373.482 642.251 342.627 543.729 332 472 L315 472 Z " /></g></glyph>
<glyph glyph-name="quoteright" unicode="&#x2019;" horiz-adv-x="720" >
<g transform="translate(-9,0)" ><path fill="black" d="M307 472 C349.518 543.749 380.373 642.271 391 714 L407 714 L415 705 C399 625 364.333 542.667 323 472 L307 472 Z " /></g></glyph>
<glyph glyph-name="quotesinglbase" unicode="&#x201a;" horiz-adv-x="720" >
<g transform="translate(-22,0)" ><path fill="black" d="M300 -129 C338.667 -31.6667 359.333 40 374 116 L401 116 L404 104 C385.333 29.3333 358 -59.6667 322 -129 L300 -129 Z " /></g></glyph>
<glyph glyph-name="quotedblleft" unicode="&#x201c;" horiz-adv-x="720" >
<g transform="translate(-111,0)" ><path fill="black" d="M315 472 L307 482 C321.667 562 357.333 644.667 400 714 L416 714 C373.482 642.251 342.627 543.729 332 472 L315 472 Z " /></g><g transform="translate(68,0)" ><path fill="black" d="M315 472 L307 482 C321.667 562 357.333 644.667 400 714 L416 714 C373.482 642.251 342.627 543.729 332 472 L315 472 Z " /></g></glyph>
<glyph glyph-name="quotedblright" unicode="&#x201d;" horiz-adv-x="720" >
<g transform="translate(-49,0)" ><path fill="black" d="M307 472 C349.518 543.749 380.373 642.271 391 714 L407 714 L415 705 C399 625 364.333 542.667 323 472 L307 472 Z " /></g><g transform="translate(130,0)" ><path fill="black" d="M307 472 C349.518 543.749 380.373 642.271 391 714 L407 714 L415 705 C399 625 364.333 542.667 323 472 L307 472 Z " /></g></glyph>
<glyph glyph-name="quotedblbase" unicode="&#x201e;" horiz-adv-x="720" >
<g transform="translate(-57,0)" ><path fill="black" d="M300 -129 C338.667 -31.6667 359.333 40 374 116 L401 116 L404 104 C385.333 29.3333 358 -59.6667 322 -129 L300 -129 Z " /></g><g transform="translate(78,0)" ><path fill="black" d="M300 -129 C338.667 -31.6667 359.333 40 374 116 L401 116 L404 104 C385.333 29.3333 358 -59.6667 322 -129 L300 -129 Z " /></g></glyph>
<glyph glyph-name="dagger" unicode="&#x2020;" horiz-adv-x="720" d="M347 0 L350 537 L125 534 L125 560 L350 556 L347 760 L375 760 L371 556 L595 560 L595 534 L371 537 L375 0 L347 0 Z " />
<glyph glyph-name="daggerdbl" unicode="&#x2021;" horiz-adv-x="720" d="M126 223 L349 220 L348 383 L349 540 L126 537 L126 563 L349 559 L346 760 L373 760 L370 559 L595 563 L595 537 L370 540 L370 220 L595 223 L595 197 L370 201 L373 0 L346 0 L349 201 L126 197 L126 223 Z " />
<glyph glyph-name="bullet" unicode="&#x2022;" horiz-adv-x="720" d="M360 294 C310.667 294 292 323.667 292 365 C292 407.667 310.667 436 360 436 C410.667 436 429 406.333 429 365 C429 326.333 410.667 294 360 294 Z " />
<glyph glyph-name="ellipsis" unicode="&#x2026;" horiz-adv-x="720" >
<path fill="black" d="M304 23 C304 41.6667 308.333 58 339 58 C344.333 58 348 57.6667 350 57 C352 57.6667 355.667 58 361 58 C393 58 397 41.6667 397 23 C397 4.33333 393 -12 361 -12 C355.667 -12 352 -11.6667 350 -11 C348 -11.6667 344.333 -12 339 -12 C308.333 -12 304 4.33333 304 23 Z " /></glyph>
<glyph glyph-name="perthousand" unicode="&#x2030;" horiz-adv-x="720" d="M201 -151 C83.6667 -151 25 -82.3333 25 71 C25 225.667 87 295 203 295 C287 295 339.333 260.333 362 183 C388.667 260.333 442.333 295 525 295 C642.333 295 698 227.333 698 74 C698 -83.3333 637.667 -151 523 -151 C439.667 -151 385.667 -113.667 361 -39 C337 -116.333 283.667 -151 201 -151 Z M361 458 C243.667 458 185 526.667 185 680 C185 834.667 247 904 363 904 C480.333 904 536 836.333 536 683 C536 525.667 475.667 458 361 458 Z M203 -127 C299 -127 347 -67.3333 347 74 C347 212.667 300 271 204 271 C112 271 54 214.667 54 72 C54 -69.3333 107 -127 203 -127 Z M525 -127 C621 -127 669 -67.3333 669 74 C669 212.667 622 271 526 271 C434 271 376 214.667 376 72 C376 -69.3333 429 -127 525 -127 Z M363 482 C459 482 507 541.667 507 683 C507 821.667 460 880 364 880 C272 880 214 823.667 214 681 C214 539.667 267 482 363 482 Z M104 357 L610 407 L610 388 L104 338 L104 357 Z " />
<glyph glyph-name="guilsinglleft" unicode="&#x2039;" horiz-adv-x="720" d="M255 269 L255 282 L452 468 L467 456 L289 276 L468 97 L452 86 L255 269 Z " />
<glyph glyph-name="guilsinglright" unicode="&#x203a;" horiz-adv-x="720" d="M457 284 L277 463 L294 474 L490 291 L490 278 L294 92 L277 104 L457 284 Z " />
<glyph glyph-name="fraction" unicode="&#x2044;" horiz-adv-x="720" d="M104 357 L610 407 L610 388 L104 338 L104 357 Z " />
<glyph glyph-name="franc" unicode="&#x20a3;" horiz-adv-x="720" d="M189 156 L78 156 L78 181 L189 181 L189 714 L626 714 L626 689 L215 689 L215 354 L602 354 L602 329 L215 329 L215 181 L430 181 L430 156 L215 156 L215 0 L189 0 L189 156 Z " />
<glyph glyph-name="lira" unicode="&#x20a4;" horiz-adv-x="720" d="M687 25 L687 0 L84 0 L84 23 C205.686 41.5174 244 100.093 244 237 L104 237 L104 262 L244 262 L244 407 L104 407 L104 432 L244 432 L244 520 C244 653.333 321.667 723 471 723 C549.667 723 603.667 710.333 653 693 L643 669 C585.667 687.667 540.667 698 470 698 C332.667 698 270 641.333 270 516 L270 432 L521 432 L521 407 L270 407 L270 262 L521 262 L521 237 L270 237 C270 113 237 54.3333 165 25 L687 25 Z " />
<glyph glyph-name="peseta" unicode="&#x20a7;" horiz-adv-x="720" d="M53 0 L53 714 L170 714 C348.667 714 442 656.333 442 511 C442 365.667 349.667 302 163 302 L81 302 L81 0 L53 0 Z M548 307 L427 307 L427 327 L546 333 L556 441 L575 441 L575 332 L744 332 L744 307 L575 307 L575 114 C575 44.6667 598.667 15 684 15 C705.333 15 721.333 17 744 21 L744 -4 C724 -8 703.667 -10 683 -10 C581.667 -10 548 27.6667 548 105 L548 307 Z M81 327 L157 327 C342.333 327 416 386.667 416 512 C416 641.333 336.667 689 166 689 L81 689 L81 327 Z " />
<glyph glyph-name="Euro" unicode="&#x20ac;" horiz-adv-x="720" d="M32 290 L152 290 C150.667 306 150 327.333 150 350 C150 372.667 149.333 396.333 152 411 L32 411 L32 436 L155 436 C179.022 606.821 294.983 726 487 726 C567 726 612.667 715 662 695 L654 671 C603.333 691 553.333 701 488 701 C327.169 701 206.853 602.974 183 436 L520 436 L520 411 L180 411 C177.333 396.333 177 374.667 177 352 C177 326.667 178 306 180 290 L518 290 L518 265 L181 265 C203.667 110.333 304 15 488 15 C550.667 15 603.333 26.3333 654 45 L654 17 C607.333 1 555.333 -10 486 -10 C308.667 -10 184.667 75.6667 154 265 L32 265 L32 290 Z " />
<glyph glyph-name="uni2113" unicode="&#x2113;" horiz-adv-x="720" d="M264 299 C217.333 285.667 177.333 274.667 136 268 L136 293 C180.667 301.667 223.333 313 264 327 L264 581 C264 684.056 327.022 724 398 724 C494 724 536 675 536 583 C536 465.667 462 371 290 311 L290 157 C290 58.3333 335.667 17 421 17 C514.333 17 545 65.6667 553 139 L584 139 C573.343 51.0775 534.659 -8 420 -8 C302.563 -8 264 52.6147 264 146 L264 299 Z M290 339 C434.667 393.667 507 475.333 507 584 C507 661.333 468.667 699 398 699 C342 699 290 668.9 290 582 L290 339 Z " />
<glyph glyph-name="trademark" unicode="&#x2122;" horiz-adv-x="720" d="M321 374 L321 714 L358 714 L518 499 L681 714 L716 714 L716 374 L686 374 L686 552 C686 600 685.333 631 688 675 L685 675 L528 467 L509 467 L351 680 L349 680 C350.333 638.667 350 606 350 558 L350 374 L321 374 Z M94 374 L94 689 L-53 689 L-53 714 L270 714 L270 689 L123 689 L123 374 L94 374 Z " />
<glyph glyph-name="Omega" unicode="&#x2126;" horiz-adv-x="720" >
<g transform="translate(-22,0)" ><path fill="black" d="M20 25 L238 25 C133.396 92.054 50 195.837 50 381 C50 604.03 175.381 725 361 725 C548.688 725 671 613.662 671 378 C671 191.265 594.978 88.9873 483 25 L700 25 L700 0 L432 0 L432 20 C569.333 88 644 200.333 644 379 C644 594.004 526.312 700 362 700 C195.1 700 77 588.251 77 382 C77 196.733 171.218 83.5063 285 20 L285 0 L20 0 L20 25 Z " /></g></glyph>
<glyph glyph-name="estimated" unicode="&#x212e;" horiz-adv-x="720" d="M177 84 C215.667 53.3333 280.667 25 374 25 C494 25 567.667 73.3333 621 140 L667 119 C604.851 43.3409 527.066 -17 370 -17 C144.9 -17 27 110.896 27 263 C27 450.636 204.996 535 372 535 C556.156 535 706 429.563 706 259 L177 259 L177 84 Z M177 301 L556 301 L556 436 C525.333 462.667 455.667 494 365 494 C282.333 494 221 469 177 437 L177 301 Z " />
<glyph glyph-name="uni2219" unicode="&#x2219;" horiz-adv-x="722" >
<g transform="translate(-44,282)" ><path fill="black" d="M326 23 C326 41.6667 330.333 58 361 58 C393 58 397 41.6667 397 23 C397 4.33333 393 -12 361 -12 C330.333 -12 326 4.33333 326 23 Z " /></g></glyph>
<glyph glyph-name="radical" unicode="&#x221a;" horiz-adv-x="720" d="M685 804 L715 804 L348 -7 L313 -7 L124 392 L6 392 L6 416 L143 416 L330 26 L685 804 Z " />
<glyph glyph-name="infinity" unicode="&#x221e;" horiz-adv-x="720" d="M2 356 C2 449.333 80.0519 504 168 504 C273.525 504 322.078 432.883 360 376 C392.562 430.269 447.877 505 555 505 C643.97 505 719 449.874 719 355 C719 260.126 640.948 205 553 205 C448.067 205 397.319 275.022 360 331 C304.101 251.145 256.844 204 169 204 C73.0779 204 2 265.333 2 356 Z M31 356 C31 276 91.6667 228 169 228 C261.9 228 310.735 293.32 346 353 C303.794 424.223 255.699 480 168 480 C88 480 31 436 31 356 Z M375 353 C415.209 288.665 464.013 229 554 229 C636.667 229 690 280.333 690 355 C690 431 633 481 553 481 C468.785 481 428.026 427.237 375 353 Z " />
<glyph glyph-name="approxequal" unicode="&#x2248;" horiz-adv-x="720" d="M655 275 C624.333 248.333 572.333 227 503 227 C449.667 227 409.333 240.333 360 259 C313.333 277.667 278 290 222 290 C172.667 290 123 275.333 67 226 L67 257 C108.333 291.667 158 314 226 314 C287.333 314 326.333 299.667 373 281 C419.667 262.333 456.333 251 507 251 C553.667 251 603 262.667 655 304 L655 275 Z M655 454 C624.333 427.333 572.333 406 503 406 C449.667 406 409.333 419.333 360 438 C313.333 456.667 278 469 222 469 C172.667 469 123 454.333 67 405 L67 436 C108.333 470.667 158 493 226 493 C287.333 493 326.333 478.667 373 460 C419.667 441.333 456.333 430 507 430 C553.667 430 603 441.667 655 483 L655 454 Z " />
<glyph glyph-name="lessequal" unicode="&#x2264;" horiz-adv-x="720" d="M89 350 L89 369 L677 579 L677 553 L127 359 L677 163 L677 136 L89 350 Z M90 -2 L90 23 L678 23 L678 -2 L90 -2 Z " />
<glyph glyph-name="greaterequal" unicode="&#x2265;" horiz-adv-x="720" d="M67 163 L617 359 L67 553 L67 579 L655 369 L655 350 L67 136 L67 163 Z M66 23 L654 23 L654 -2 L66 -2 L66 23 Z " />
</font>
</svg>
